<svg xmlns="http://www.w3.org/2000/svg" viewBox="0 0 840 496" width="840" height="496" font-family="-apple-system,&#39;Segoe UI&#39;,system-ui,sans-serif" role="img" aria-label="jwasham/coding-interview-university candlestick chart">
<text x="14.0" y="20.0" font-size="15" fill="#ffffff" font-weight="650">jwasham/coding-interview-university</text>
<text x="306.8" y="20.0" font-size="11.5" fill="#c3c2b7">daily · new stars, volume = new forks</text>
<text x="805.8" y="20.0" font-size="11.0" fill="#c3c2b7">fall</text>
<rect x="791" y="10" width="9" height="12" fill="#008300"/>
<text x="750.6" y="20.0" font-size="11.0" fill="#c3c2b7">rise</text>
<rect x="736" y="10" width="9" height="12" fill="none" stroke="#e66767" stroke-width="1.5"/>
<text x="14.0" y="38.0" font-size="11.0" fill="#898781">last 36 days · +5,993 stars · +1,154 forks · updated 2026-07-11</text>
<rect x="10" y="66" width="820" height="290" fill="none" stroke="#2c2c2a"/>
<rect x="10" y="384" width="820" height="86" fill="none" stroke="#2c2c2a"/>
<text x="38.0" y="490.0" font-size="11.0" fill="#898781" text-anchor="middle">2026-06</text>
<line x1="579.4" y1="66.0" x2="579.4" y2="356.0" stroke="#2c2c2a" stroke-width="1.0"/>
<line x1="579.4" y1="384.0" x2="579.4" y2="470.0" stroke="#2c2c2a" stroke-width="1.0"/>
<text x="590.8" y="490.0" font-size="11.0" fill="#898781" text-anchor="middle">2026-07</text>
<text x="14.0" y="58.0" font-size="11.0" fill="#c3c2b7">BOLL(20,2)</text>
<text x="84.5" y="58.0" font-size="11.0" fill="#c98500">UP:221.8</text>
<text x="142.9" y="58.0" font-size="11.0" fill="#3987e5">MID:133.9</text>
<text x="207.4" y="58.0" font-size="11.0" fill="#d55181">LOW:46.0</text>
<text x="265.8" y="58.0" font-size="11.0" fill="#9085e9">MA7:113.9</text>
<line x1="10.0" y1="356.0" x2="830.0" y2="356.0" stroke="#2c2c2a" stroke-width="1.0"/>
<text x="14.0" y="353.0" font-size="11.0" fill="#898781">0</text>
<line x1="10.0" y1="244.4" x2="830.0" y2="244.4" stroke="#2c2c2a" stroke-width="1.0"/>
<text x="14.0" y="241.4" font-size="11.0" fill="#898781">200</text>
<line x1="10.0" y1="132.8" x2="830.0" y2="132.8" stroke="#2c2c2a" stroke-width="1.0"/>
<text x="14.0" y="129.8" font-size="11.0" fill="#898781">400</text>
<polyline points="454.2,120.1 476.9,125.4 499.7,122.3 522.5,121.9 545.3,121.8 568.1,121.8 590.8,122.6 613.6,123.2 636.4,124.6 659.2,160.6 681.9,182.3 704.7,230.4 727.5,227.1 750.3,226.4 773.1,226.4 795.8,225.6 818.6,232.2" fill="none" stroke="#c98500" stroke-width="1.5" stroke-linejoin="round" stroke-linecap="round"/>
<polyline points="454.2,246.6 476.9,251.9 499.7,248.9 522.5,248.1 545.3,246.7 568.1,246.6 590.8,245.7 613.6,244.9 636.4,247.1 659.2,258.3 681.9,266.0 704.7,273.8 727.5,275.9 750.3,278.3 773.1,279.5 795.8,279.1 818.6,281.3" fill="none" stroke="#3987e5" stroke-width="1.5" stroke-linejoin="round" stroke-linecap="round"/>
<polyline points="454.2,356.0 476.9,356.0 499.7,356.0 522.5,356.0 545.3,356.0 568.1,356.0 590.8,356.0 613.6,356.0 636.4,356.0 659.2,355.9 681.9,349.7 704.7,317.3 727.5,324.6 750.3,330.2 773.1,332.6 795.8,332.6 818.6,330.3" fill="none" stroke="#d55181" stroke-width="1.5" stroke-linejoin="round" stroke-linecap="round"/>
<polyline points="158.1,277.9 180.8,283.3 203.6,255.0 226.4,236.9 249.2,211.0 271.9,209.9 294.7,203.7 317.5,200.3 340.3,205.0 363.1,226.7 385.8,241.6 408.6,264.6 431.4,263.8 454.2,266.6 476.9,269.5 499.7,262.7 522.5,265.8 545.3,267.9 568.1,270.9 590.8,272.9 613.6,272.8 636.4,269.7 659.2,281.7 681.9,287.9 704.7,288.5 727.5,293.5 750.3,296.9 773.1,299.3 795.8,296.5 818.6,292.4" fill="none" stroke="#9085e9" stroke-width="1.5" stroke-linejoin="round" stroke-linecap="round"/>
<rect x="15.1" y="196.4" width="12.5" height="159.6" fill="none" stroke="#e66767" stroke-width="1.3"/>
<rect x="37.9" y="196.4" width="12.5" height="81.5" fill="#008300"/>
<rect x="60.7" y="270.6" width="12.5" height="7.3" fill="none" stroke="#e66767" stroke-width="1.3"/>
<rect x="83.5" y="270.6" width="12.5" height="20.6" fill="#008300"/>
<rect x="106.2" y="291.3" width="12.5" height="1.2" fill="#008300"/>
<rect x="129.0" y="292.4" width="12.5" height="19.5" fill="#008300"/>
<rect x="151.8" y="304.7" width="12.5" height="7.3" fill="none" stroke="#e66767" stroke-width="1.3"/>
<rect x="174.6" y="234.4" width="12.5" height="70.3" fill="none" stroke="#e66767" stroke-width="1.3"/>
<rect x="197.3" y="79.8" width="12.5" height="154.6" fill="none" stroke="#e66767" stroke-width="1.3"/>
<rect x="220.1" y="79.8" width="12.5" height="64.2" fill="#008300"/>
<rect x="242.9" y="109.9" width="12.5" height="34.0" fill="none" stroke="#e66767" stroke-width="1.3"/>
<rect x="265.7" y="109.9" width="12.5" height="174.6" fill="#008300"/>
<rect x="288.5" y="269.0" width="12.5" height="15.6" fill="none" stroke="#e66767" stroke-width="1.3"/>
<rect x="311.2" y="269.0" width="12.5" height="11.2" fill="#008300"/>
<rect x="334.0" y="267.3" width="12.5" height="12.8" fill="none" stroke="#e66767" stroke-width="1.3"/>
<rect x="356.8" y="232.1" width="12.5" height="35.2" fill="none" stroke="#e66767" stroke-width="1.3"/>
<rect x="379.6" y="232.1" width="12.5" height="16.2" fill="#008300"/>
<rect x="402.3" y="248.3" width="12.5" height="22.3" fill="#008300"/>
<rect x="425.1" y="270.6" width="12.5" height="8.4" fill="#008300"/>
<rect x="447.9" y="279.0" width="12.5" height="9.5" fill="#008300"/>
<rect x="470.7" y="288.5" width="12.5" height="12.3" fill="#008300"/>
<rect x="493.5" y="219.3" width="12.5" height="81.5" fill="none" stroke="#e66767" stroke-width="1.3"/>
<rect x="516.2" y="219.3" width="12.5" height="35.2" fill="#008300"/>
<rect x="539.0" y="254.5" width="12.5" height="8.4" fill="#008300"/>
<rect x="561.8" y="262.8" width="12.5" height="28.5" fill="#008300"/>
<rect x="584.6" y="291.3" width="12.5" height="1.7" fill="#008300"/>
<rect x="607.3" y="287.9" width="12.5" height="5.0" fill="none" stroke="#e66767" stroke-width="1.3"/>
<rect x="630.1" y="279.6" width="12.5" height="8.4" fill="none" stroke="#e66767" stroke-width="1.3"/>
<rect x="652.9" y="279.6" width="12.5" height="23.4" fill="#008300"/>
<rect x="675.7" y="298.0" width="12.5" height="5.0" fill="none" stroke="#e66767" stroke-width="1.3"/>
<rect x="698.5" y="267.3" width="12.5" height="30.7" fill="none" stroke="#e66767" stroke-width="1.3"/>
<rect x="721.2" y="267.3" width="12.5" height="58.0" fill="#008300"/>
<rect x="744.0" y="317.5" width="12.5" height="7.8" fill="none" stroke="#e66767" stroke-width="1.3"/>
<rect x="766.8" y="304.1" width="12.5" height="13.4" fill="none" stroke="#e66767" stroke-width="1.3"/>
<rect x="789.6" y="260.0" width="12.5" height="44.1" fill="none" stroke="#e66767" stroke-width="1.3"/>
<rect x="812.3" y="260.0" width="12.5" height="15.1" fill="#008300"/>
<circle cx="203.6" cy="79.8" r="2" fill="#c3c2b7"/>
<line x1="203.6" y1="79.8" x2="211.6" y2="79.8" stroke="#c3c2b7" stroke-width="1.0"/>
<text x="214.6" y="83.8" font-size="11.0" fill="#c3c2b7">495</text>
<circle cx="21.4" cy="356.0" r="2" fill="#c3c2b7"/>
<line x1="21.4" y1="356.0" x2="29.4" y2="356.0" stroke="#c3c2b7" stroke-width="1.0"/>
<text x="32.4" y="350.0" font-size="11.0" fill="#c3c2b7">0</text>
<text x="14.0" y="376.0" font-size="11.0" fill="#c3c2b7">VOL 25 forks</text>
<text x="96.6" y="376.0" font-size="11.0" fill="#c98500">MA5:21</text>
<text x="142.9" y="376.0" font-size="11.0" fill="#3987e5">MA10:23.1</text>
<text x="14.0" y="395.0" font-size="10" fill="#898781">81</text>
<rect x="15.1" y="435.6" width="12.5" height="34.4" fill="none" stroke="#e66767" stroke-width="1.1"/>
<rect x="37.9" y="434.6" width="12.5" height="35.4" fill="#008300"/>
<rect x="60.7" y="447.7" width="12.5" height="22.3" fill="none" stroke="#e66767" stroke-width="1.1"/>
<rect x="83.5" y="435.6" width="12.5" height="34.4" fill="#008300"/>
<rect x="106.2" y="438.6" width="12.5" height="31.4" fill="#008300"/>
<rect x="129.0" y="452.8" width="12.5" height="17.2" fill="#008300"/>
<rect x="151.8" y="458.9" width="12.5" height="11.1" fill="none" stroke="#e66767" stroke-width="1.1"/>
<rect x="174.6" y="448.7" width="12.5" height="21.3" fill="none" stroke="#e66767" stroke-width="1.1"/>
<rect x="197.3" y="388.0" width="12.5" height="82.0" fill="none" stroke="#e66767" stroke-width="1.1"/>
<rect x="220.1" y="421.4" width="12.5" height="48.6" fill="#008300"/>
<rect x="242.9" y="395.1" width="12.5" height="74.9" fill="none" stroke="#e66767" stroke-width="1.1"/>
<rect x="265.7" y="434.6" width="12.5" height="35.4" fill="#008300"/>
<rect x="288.5" y="439.6" width="12.5" height="30.4" fill="none" stroke="#e66767" stroke-width="1.1"/>
<rect x="311.2" y="439.6" width="12.5" height="30.4" fill="#008300"/>
<rect x="334.0" y="436.6" width="12.5" height="33.4" fill="none" stroke="#e66767" stroke-width="1.1"/>
<rect x="356.8" y="442.7" width="12.5" height="27.3" fill="none" stroke="#e66767" stroke-width="1.1"/>
<rect x="379.6" y="425.5" width="12.5" height="44.5" fill="#008300"/>
<rect x="402.3" y="427.5" width="12.5" height="42.5" fill="#008300"/>
<rect x="425.1" y="441.7" width="12.5" height="28.3" fill="#008300"/>
<rect x="447.9" y="446.7" width="12.5" height="23.3" fill="#008300"/>
<rect x="470.7" y="444.7" width="12.5" height="25.3" fill="#008300"/>
<rect x="493.5" y="415.3" width="12.5" height="54.7" fill="none" stroke="#e66767" stroke-width="1.1"/>
<rect x="516.2" y="425.5" width="12.5" height="44.5" fill="#008300"/>
<rect x="539.0" y="419.4" width="12.5" height="50.6" fill="#008300"/>
<rect x="561.8" y="439.6" width="12.5" height="30.4" fill="#008300"/>
<rect x="584.6" y="449.8" width="12.5" height="20.2" fill="#008300"/>
<rect x="607.3" y="441.7" width="12.5" height="28.3" fill="none" stroke="#e66767" stroke-width="1.1"/>
<rect x="630.1" y="437.6" width="12.5" height="32.4" fill="none" stroke="#e66767" stroke-width="1.1"/>
<rect x="652.9" y="448.7" width="12.5" height="21.3" fill="#008300"/>
<rect x="675.7" y="452.8" width="12.5" height="17.2" fill="none" stroke="#e66767" stroke-width="1.1"/>
<rect x="698.5" y="441.7" width="12.5" height="28.3" fill="none" stroke="#e66767" stroke-width="1.1"/>
<rect x="721.2" y="460.9" width="12.5" height="9.1" fill="#008300"/>
<rect x="744.0" y="452.8" width="12.5" height="17.2" fill="none" stroke="#e66767" stroke-width="1.1"/>
<rect x="766.8" y="458.9" width="12.5" height="11.1" fill="none" stroke="#e66767" stroke-width="1.1"/>
<rect x="789.6" y="426.5" width="12.5" height="43.5" fill="none" stroke="#e66767" stroke-width="1.1"/>
<rect x="812.3" y="444.7" width="12.5" height="25.3" fill="#008300"/>
<polyline points="226.4,436.2 249.2,432.1 271.9,432.1 294.7,431.3 317.5,431.7 340.3,431.5 363.1,430.5 385.8,427.2 408.6,425.1 431.4,430.4 454.2,432.9 476.9,437.9 499.7,436.0 522.5,434.6 545.3,432.5 568.1,432.8 590.8,433.6 613.6,435.2 636.4,436.2 659.2,436.9 681.9,437.5 704.7,437.2 727.5,441.8 750.3,444.5 773.1,448.4 795.8,447.1 818.6,446.6" fill="none" stroke="#3987e5" stroke-width="1.5" stroke-linejoin="round" stroke-linecap="round"/>
<polyline points="112.5,438.4 135.3,441.9 158.1,446.7 180.8,446.9 203.6,437.4 226.4,434.0 249.2,422.4 271.9,417.6 294.7,415.7 317.5,426.1 340.3,429.1 363.1,438.6 385.8,436.8 408.6,434.4 431.4,434.8 454.2,436.8 476.9,437.2 499.7,435.2 522.5,434.8 545.3,430.3 568.1,428.9 590.8,429.9 613.6,435.2 636.4,437.6 659.2,443.5 681.9,446.1 704.7,444.5 727.5,448.3 750.3,451.4 773.1,453.4 795.8,448.1 818.6,448.7" fill="none" stroke="#c98500" stroke-width="1.5" stroke-linejoin="round" stroke-linecap="round"/>
</svg>