<svg xmlns="http://www.w3.org/2000/svg" viewBox="0 0 840 496" width="840" height="496" font-family="-apple-system,&#39;Segoe UI&#39;,system-ui,sans-serif" role="img" aria-label="jwasham/coding-interview-university candlestick chart">
<text x="14.0" y="20.0" font-size="15" fill="#0b0b0b" font-weight="650">jwasham/coding-interview-university</text>
<text x="306.8" y="20.0" font-size="11.5" fill="#52514e">daily · new stars, volume = new forks</text>
<text x="805.8" y="20.0" font-size="11.0" fill="#52514e">fall</text>
<rect x="791" y="10" width="9" height="12" fill="#008300"/>
<text x="750.6" y="20.0" font-size="11.0" fill="#52514e">rise</text>
<rect x="736" y="10" width="9" height="12" fill="none" stroke="#e34948" stroke-width="1.5"/>
<text x="14.0" y="38.0" font-size="11.0" fill="#898781">last 49 days · +7,175 stars · +1,298 forks · updated 2026-07-24</text>
<rect x="10" y="66" width="820" height="290" fill="none" stroke="#e1e0d9"/>
<rect x="10" y="384" width="820" height="86" fill="none" stroke="#e1e0d9"/>
<text x="38.0" y="490.0" font-size="11.0" fill="#898781" text-anchor="middle">2026-06</text>
<line x1="428.4" y1="66.0" x2="428.4" y2="356.0" stroke="#e1e0d9" stroke-width="1.0"/>
<line x1="428.4" y1="384.0" x2="428.4" y2="470.0" stroke="#e1e0d9" stroke-width="1.0"/>
<text x="436.7" y="490.0" font-size="11.0" fill="#898781" text-anchor="middle">2026-07</text>
<text x="14.0" y="58.0" font-size="11.0" fill="#52514e">BOLL(20,2)</text>
<text x="84.5" y="58.0" font-size="11.0" fill="#eda100">UP:163.1</text>
<text x="142.9" y="58.0" font-size="11.0" fill="#2a78d6">MID:99.0</text>
<text x="201.3" y="58.0" font-size="11.0" fill="#e87ba4">LOW:34.9</text>
<text x="259.7" y="58.0" font-size="11.0" fill="#4a3aa7">MA7:85.9</text>
<line x1="10.0" y1="356.0" x2="830.0" y2="356.0" stroke="#e1e0d9" stroke-width="1.0"/>
<text x="14.0" y="353.0" font-size="11.0" fill="#898781">0</text>
<line x1="10.0" y1="244.4" x2="830.0" y2="244.4" stroke="#e1e0d9" stroke-width="1.0"/>
<text x="14.0" y="241.4" font-size="11.0" fill="#898781">200</text>
<line x1="10.0" y1="132.8" x2="830.0" y2="132.8" stroke="#e1e0d9" stroke-width="1.0"/>
<text x="14.0" y="129.8" font-size="11.0" fill="#898781">400</text>
<polyline points="336.3,120.1 353.1,125.4 369.8,122.3 386.5,121.9 403.3,121.8 420.0,121.8 436.7,122.6 453.5,123.2 470.2,124.6 486.9,160.6 503.7,182.3 520.4,230.4 537.1,227.1 553.9,226.4 570.6,226.4 587.3,225.6 604.1,232.2 620.8,236.6 637.6,237.9 654.3,238.6 671.0,238.5 687.8,238.5 704.5,253.4 721.2,259.5 738.0,263.5 754.7,264.0 771.4,264.4 788.2,262.6 804.9,264.9 821.6,265.0" fill="none" stroke="#eda100" stroke-width="1.5" stroke-linejoin="round" stroke-linecap="round"/>
<polyline points="336.3,246.6 353.1,251.9 369.8,248.9 386.5,248.1 403.3,246.7 420.0,246.6 436.7,245.7 453.5,244.9 470.2,247.1 486.9,258.3 503.7,266.0 520.4,273.8 537.1,275.9 553.9,278.3 570.6,279.5 587.3,279.1 604.1,281.3 620.8,283.9 637.6,284.9 654.3,285.9 671.0,287.0 687.8,287.1 704.5,291.6 721.2,294.3 738.0,297.3 754.7,298.5 771.4,299.7 788.2,299.1 804.9,300.6 821.6,300.8" fill="none" stroke="#2a78d6" stroke-width="1.5" stroke-linejoin="round" stroke-linecap="round"/>
<polyline points="336.3,356.0 353.1,356.0 369.8,356.0 386.5,356.0 403.3,356.0 420.0,356.0 436.7,356.0 453.5,356.0 470.2,356.0 486.9,355.9 503.7,349.7 520.4,317.3 537.1,324.6 553.9,330.2 570.6,332.6 587.3,332.6 604.1,330.3 620.8,331.3 637.6,331.8 654.3,333.3 671.0,335.5 687.8,335.8 704.5,329.7 721.2,329.1 738.0,331.0 754.7,333.0 771.4,335.0 788.2,335.6 804.9,336.3 821.6,336.6" fill="none" stroke="#e87ba4" stroke-width="1.5" stroke-linejoin="round" stroke-linecap="round"/>
<polyline points="118.8,277.9 135.5,283.3 152.2,255.0 169.0,236.9 185.7,211.0 202.4,209.9 219.2,203.7 235.9,200.3 252.7,205.0 269.4,226.7 286.1,241.6 302.9,264.6 319.6,263.8 336.3,266.6 353.1,269.5 369.8,262.7 386.5,265.8 403.3,267.9 420.0,270.9 436.7,272.9 453.5,272.8 470.2,269.7 486.9,281.7 503.7,287.9 520.4,288.5 537.1,293.5 553.9,296.9 570.6,299.3 587.3,296.5 604.1,292.4 620.8,293.0 637.6,296.1 654.3,292.4 671.0,291.3 687.8,291.3 704.5,298.1 721.2,303.0 738.0,306.0 754.7,309.7 771.4,312.1 788.2,307.3 804.9,308.4 821.6,308.1" fill="none" stroke="#4a3aa7" stroke-width="1.5" stroke-linejoin="round" stroke-linecap="round"/>
<rect x="13.8" y="196.4" width="9.2" height="159.6" fill="none" stroke="#e34948" stroke-width="1.3"/>
<rect x="30.5" y="196.4" width="9.2" height="81.5" fill="#008300"/>
<rect x="47.2" y="270.6" width="9.2" height="7.3" fill="none" stroke="#e34948" stroke-width="1.3"/>
<rect x="64.0" y="270.6" width="9.2" height="20.6" fill="#008300"/>
<rect x="80.7" y="291.3" width="9.2" height="1.2" fill="#008300"/>
<rect x="97.4" y="292.4" width="9.2" height="19.5" fill="#008300"/>
<rect x="114.2" y="304.7" width="9.2" height="7.3" fill="none" stroke="#e34948" stroke-width="1.3"/>
<rect x="130.9" y="234.4" width="9.2" height="70.3" fill="none" stroke="#e34948" stroke-width="1.3"/>
<rect x="147.6" y="79.8" width="9.2" height="154.6" fill="none" stroke="#e34948" stroke-width="1.3"/>
<rect x="164.4" y="79.8" width="9.2" height="64.2" fill="#008300"/>
<rect x="181.1" y="109.9" width="9.2" height="34.0" fill="none" stroke="#e34948" stroke-width="1.3"/>
<rect x="197.8" y="109.9" width="9.2" height="174.6" fill="#008300"/>
<rect x="214.6" y="269.0" width="9.2" height="15.6" fill="none" stroke="#e34948" stroke-width="1.3"/>
<rect x="231.3" y="269.0" width="9.2" height="11.2" fill="#008300"/>
<rect x="248.1" y="267.3" width="9.2" height="12.8" fill="none" stroke="#e34948" stroke-width="1.3"/>
<rect x="264.8" y="232.1" width="9.2" height="35.2" fill="none" stroke="#e34948" stroke-width="1.3"/>
<rect x="281.5" y="232.1" width="9.2" height="16.2" fill="#008300"/>
<rect x="298.3" y="248.3" width="9.2" height="22.3" fill="#008300"/>
<rect x="315.0" y="270.6" width="9.2" height="8.4" fill="#008300"/>
<rect x="331.7" y="279.0" width="9.2" height="9.5" fill="#008300"/>
<rect x="348.5" y="288.5" width="9.2" height="12.3" fill="#008300"/>
<rect x="365.2" y="219.3" width="9.2" height="81.5" fill="none" stroke="#e34948" stroke-width="1.3"/>
<rect x="381.9" y="219.3" width="9.2" height="35.2" fill="#008300"/>
<rect x="398.7" y="254.5" width="9.2" height="8.4" fill="#008300"/>
<rect x="415.4" y="262.8" width="9.2" height="28.5" fill="#008300"/>
<rect x="432.1" y="291.3" width="9.2" height="1.7" fill="#008300"/>
<rect x="448.9" y="287.9" width="9.2" height="5.0" fill="none" stroke="#e34948" stroke-width="1.3"/>
<rect x="465.6" y="279.6" width="9.2" height="8.4" fill="none" stroke="#e34948" stroke-width="1.3"/>
<rect x="482.3" y="279.6" width="9.2" height="23.4" fill="#008300"/>
<rect x="499.1" y="298.0" width="9.2" height="5.0" fill="none" stroke="#e34948" stroke-width="1.3"/>
<rect x="515.8" y="267.3" width="9.2" height="30.7" fill="none" stroke="#e34948" stroke-width="1.3"/>
<rect x="532.5" y="267.3" width="9.2" height="58.0" fill="#008300"/>
<rect x="549.3" y="317.5" width="9.2" height="7.8" fill="none" stroke="#e34948" stroke-width="1.3"/>
<rect x="566.0" y="304.1" width="9.2" height="13.4" fill="none" stroke="#e34948" stroke-width="1.3"/>
<rect x="582.7" y="260.0" width="9.2" height="44.1" fill="none" stroke="#e34948" stroke-width="1.3"/>
<rect x="599.5" y="260.0" width="9.2" height="15.1" fill="#008300"/>
<rect x="616.2" y="275.1" width="9.2" height="26.2" fill="#008300"/>
<rect x="632.9" y="289.0" width="9.2" height="12.3" fill="none" stroke="#e34948" stroke-width="1.3"/>
<rect x="649.7" y="289.0" width="9.2" height="11.2" fill="#008300"/>
<rect x="666.4" y="300.2" width="9.2" height="9.5" fill="#008300"/>
<rect x="683.2" y="303.6" width="9.2" height="6.1" fill="none" stroke="#e34948" stroke-width="1.3"/>
<rect x="699.9" y="303.6" width="9.2" height="4.5" fill="#008300"/>
<rect x="716.6" y="308.0" width="9.2" height="1.2" fill="#008300"/>
<rect x="733.4" y="309.1" width="9.2" height="13.4" fill="#008300"/>
<rect x="750.1" y="315.3" width="9.2" height="7.3" fill="none" stroke="#e34948" stroke-width="1.3"/>
<rect x="766.8" y="315.3" width="9.2" height="1.7" fill="#008300"/>
<rect x="783.6" y="275.7" width="9.2" height="41.3" fill="none" stroke="#e34948" stroke-width="1.3"/>
<rect x="800.3" y="275.7" width="9.2" height="35.2" fill="#008300"/>
<rect x="817.0" y="306.3" width="9.2" height="4.5" fill="none" stroke="#e34948" stroke-width="1.3"/>
<circle cx="152.2" cy="79.8" r="2" fill="#52514e"/>
<line x1="152.2" y1="79.8" x2="160.2" y2="79.8" stroke="#52514e" stroke-width="1.0"/>
<text x="163.2" y="83.8" font-size="11.0" fill="#52514e">495</text>
<circle cx="18.4" cy="356.0" r="2" fill="#52514e"/>
<line x1="18.4" y1="356.0" x2="26.4" y2="356.0" stroke="#52514e" stroke-width="1.0"/>
<text x="29.4" y="350.0" font-size="11.0" fill="#52514e">0</text>
<text x="14.0" y="376.0" font-size="11.0" fill="#52514e">VOL 15 forks</text>
<text x="96.6" y="376.0" font-size="11.0" fill="#eda100">MA5:9</text>
<text x="136.9" y="376.0" font-size="11.0" fill="#2a78d6">MA10:10</text>
<text x="14.0" y="395.0" font-size="10" fill="#898781">81</text>
<rect x="13.8" y="435.6" width="9.2" height="34.4" fill="none" stroke="#e34948" stroke-width="1.1"/>
<rect x="30.5" y="434.6" width="9.2" height="35.4" fill="#008300"/>
<rect x="47.2" y="447.7" width="9.2" height="22.3" fill="none" stroke="#e34948" stroke-width="1.1"/>
<rect x="64.0" y="435.6" width="9.2" height="34.4" fill="#008300"/>
<rect x="80.7" y="438.6" width="9.2" height="31.4" fill="#008300"/>
<rect x="97.4" y="452.8" width="9.2" height="17.2" fill="#008300"/>
<rect x="114.2" y="458.9" width="9.2" height="11.1" fill="none" stroke="#e34948" stroke-width="1.1"/>
<rect x="130.9" y="448.7" width="9.2" height="21.3" fill="none" stroke="#e34948" stroke-width="1.1"/>
<rect x="147.6" y="388.0" width="9.2" height="82.0" fill="none" stroke="#e34948" stroke-width="1.1"/>
<rect x="164.4" y="421.4" width="9.2" height="48.6" fill="#008300"/>
<rect x="181.1" y="395.1" width="9.2" height="74.9" fill="none" stroke="#e34948" stroke-width="1.1"/>
<rect x="197.8" y="434.6" width="9.2" height="35.4" fill="#008300"/>
<rect x="214.6" y="439.6" width="9.2" height="30.4" fill="none" stroke="#e34948" stroke-width="1.1"/>
<rect x="231.3" y="439.6" width="9.2" height="30.4" fill="#008300"/>
<rect x="248.1" y="436.6" width="9.2" height="33.4" fill="none" stroke="#e34948" stroke-width="1.1"/>
<rect x="264.8" y="442.7" width="9.2" height="27.3" fill="none" stroke="#e34948" stroke-width="1.1"/>
<rect x="281.5" y="425.5" width="9.2" height="44.5" fill="#008300"/>
<rect x="298.3" y="427.5" width="9.2" height="42.5" fill="#008300"/>
<rect x="315.0" y="441.7" width="9.2" height="28.3" fill="#008300"/>
<rect x="331.7" y="446.7" width="9.2" height="23.3" fill="#008300"/>
<rect x="348.5" y="444.7" width="9.2" height="25.3" fill="#008300"/>
<rect x="365.2" y="415.3" width="9.2" height="54.7" fill="none" stroke="#e34948" stroke-width="1.1"/>
<rect x="381.9" y="425.5" width="9.2" height="44.5" fill="#008300"/>
<rect x="398.7" y="419.4" width="9.2" height="50.6" fill="#008300"/>
<rect x="415.4" y="439.6" width="9.2" height="30.4" fill="#008300"/>
<rect x="432.1" y="449.8" width="9.2" height="20.2" fill="#008300"/>
<rect x="448.9" y="441.7" width="9.2" height="28.3" fill="none" stroke="#e34948" stroke-width="1.1"/>
<rect x="465.6" y="437.6" width="9.2" height="32.4" fill="none" stroke="#e34948" stroke-width="1.1"/>
<rect x="482.3" y="448.7" width="9.2" height="21.3" fill="#008300"/>
<rect x="499.1" y="452.8" width="9.2" height="17.2" fill="none" stroke="#e34948" stroke-width="1.1"/>
<rect x="515.8" y="441.7" width="9.2" height="28.3" fill="none" stroke="#e34948" stroke-width="1.1"/>
<rect x="532.5" y="460.9" width="9.2" height="9.1" fill="#008300"/>
<rect x="549.3" y="452.8" width="9.2" height="17.2" fill="none" stroke="#e34948" stroke-width="1.1"/>
<rect x="566.0" y="458.9" width="9.2" height="11.1" fill="none" stroke="#e34948" stroke-width="1.1"/>
<rect x="582.7" y="426.5" width="9.2" height="43.5" fill="none" stroke="#e34948" stroke-width="1.1"/>
<rect x="599.5" y="444.7" width="9.2" height="25.3" fill="#008300"/>
<rect x="616.2" y="453.8" width="9.2" height="16.2" fill="#008300"/>
<rect x="632.9" y="460.9" width="9.2" height="9.1" fill="none" stroke="#e34948" stroke-width="1.1"/>
<rect x="649.7" y="450.8" width="9.2" height="19.2" fill="#008300"/>
<rect x="666.4" y="460.9" width="9.2" height="9.1" fill="#008300"/>
<rect x="683.2" y="466.0" width="9.2" height="4.0" fill="none" stroke="#e34948" stroke-width="1.1"/>
<rect x="699.9" y="450.8" width="9.2" height="19.2" fill="#008300"/>
<rect x="716.6" y="463.9" width="9.2" height="6.1" fill="#008300"/>
<rect x="733.4" y="452.8" width="9.2" height="17.2" fill="#008300"/>
<rect x="750.1" y="461.9" width="9.2" height="8.1" fill="none" stroke="#e34948" stroke-width="1.1"/>
<rect x="766.8" y="469.0" width="9.2" height="1.0" fill="#008300"/>
<rect x="783.6" y="453.8" width="9.2" height="16.2" fill="none" stroke="#e34948" stroke-width="1.1"/>
<rect x="800.3" y="464.9" width="9.2" height="5.1" fill="#008300"/>
<rect x="817.0" y="454.8" width="9.2" height="15.2" fill="none" stroke="#e34948" stroke-width="1.1"/>
<polyline points="169.0,436.2 185.7,432.1 202.4,432.1 219.2,431.3 235.9,431.7 252.7,431.5 269.4,430.5 286.1,427.2 302.9,425.1 319.6,430.4 336.3,432.9 353.1,437.9 369.8,436.0 386.5,434.6 403.3,432.5 420.0,432.8 436.7,433.6 453.5,435.2 470.2,436.2 486.9,436.9 503.7,437.5 520.4,437.2 537.1,441.8 553.9,444.5 570.6,448.4 587.3,447.1 604.1,446.6 620.8,447.8 637.6,450.2 654.3,450.4 671.0,451.2 687.8,453.6 704.5,452.6 721.2,453.7 738.0,453.1 754.7,456.6 771.4,459.1 788.2,459.1 804.9,459.5 821.6,459.9" fill="none" stroke="#2a78d6" stroke-width="1.5" stroke-linejoin="round" stroke-linecap="round"/>
<polyline points="85.3,438.4 102.0,441.9 118.8,446.7 135.5,446.9 152.2,437.4 169.0,434.0 185.7,422.4 202.4,417.6 219.2,415.7 235.9,426.1 252.7,429.1 269.4,438.6 286.1,436.8 302.9,434.4 319.6,434.8 336.3,436.8 353.1,437.2 369.8,435.2 386.5,434.8 403.3,430.3 420.0,428.9 436.7,429.9 453.5,435.2 470.2,437.6 486.9,443.5 503.7,446.1 520.4,444.5 537.1,448.3 553.9,451.4 570.6,453.4 587.3,448.1 604.1,448.7 620.8,447.3 637.6,448.9 654.3,447.3 671.0,454.2 687.8,458.5 704.5,457.9 721.2,458.5 738.0,458.9 754.7,459.1 771.4,459.7 788.2,460.3 804.9,460.5 821.6,460.9" fill="none" stroke="#eda100" stroke-width="1.5" stroke-linejoin="round" stroke-linecap="round"/>
</svg>