<svg xmlns="http://www.w3.org/2000/svg" viewBox="0 0 840 496" width="840" height="496" font-family="-apple-system,&#39;Segoe UI&#39;,system-ui,sans-serif" role="img" aria-label="jwasham/coding-interview-university candlestick chart">
<text x="14.0" y="20.0" font-size="15" fill="#0b0b0b" font-weight="650">jwasham/coding-interview-university</text>
<text x="306.8" y="20.0" font-size="11.5" fill="#52514e">daily · commits, volume = lines changed</text>
<text x="805.8" y="20.0" font-size="11.0" fill="#52514e">fall</text>
<rect x="791" y="10" width="9" height="12" fill="#008300"/>
<text x="750.6" y="20.0" font-size="11.0" fill="#52514e">rise</text>
<rect x="736" y="10" width="9" height="12" fill="none" stroke="#e34948" stroke-width="1.5"/>
<text x="14.0" y="38.0" font-size="11.0" fill="#898781">last 60 active days · 131 commits · 31,237 lines changed · updated 2026-07-07</text>
<rect x="10" y="66" width="820" height="290" fill="none" stroke="#e1e0d9"/>
<rect x="10" y="384" width="820" height="86" fill="none" stroke="#e1e0d9"/>
<text x="38.0" y="490.0" font-size="11.0" fill="#898781" text-anchor="middle">2023-09</text>
<line x1="105.7" y1="66.0" x2="105.7" y2="356.0" stroke="#e1e0d9" stroke-width="1.0"/>
<line x1="105.7" y1="384.0" x2="105.7" y2="470.0" stroke="#e1e0d9" stroke-width="1.0"/>
<text x="112.5" y="490.0" font-size="11.0" fill="#898781" text-anchor="middle">2023-10</text>
<line x1="228.7" y1="66.0" x2="228.7" y2="356.0" stroke="#e1e0d9" stroke-width="1.0"/>
<line x1="228.7" y1="384.0" x2="228.7" y2="470.0" stroke="#e1e0d9" stroke-width="1.0"/>
<text x="235.5" y="490.0" font-size="11.0" fill="#898781" text-anchor="middle">2023-11</text>
<line x1="324.3" y1="66.0" x2="324.3" y2="356.0" stroke="#e1e0d9" stroke-width="1.0"/>
<line x1="324.3" y1="384.0" x2="324.3" y2="470.0" stroke="#e1e0d9" stroke-width="1.0"/>
<text x="331.2" y="490.0" font-size="11.0" fill="#898781" text-anchor="middle">2023-12</text>
<line x1="392.7" y1="66.0" x2="392.7" y2="356.0" stroke="#e1e0d9" stroke-width="1.0"/>
<line x1="392.7" y1="384.0" x2="392.7" y2="470.0" stroke="#e1e0d9" stroke-width="1.0"/>
<text x="399.5" y="490.0" font-size="11.0" fill="#898781" text-anchor="middle">2024-01</text>
<line x1="447.3" y1="66.0" x2="447.3" y2="356.0" stroke="#e1e0d9" stroke-width="1.0"/>
<line x1="447.3" y1="384.0" x2="447.3" y2="470.0" stroke="#e1e0d9" stroke-width="1.0"/>
<line x1="488.3" y1="66.0" x2="488.3" y2="356.0" stroke="#e1e0d9" stroke-width="1.0"/>
<line x1="488.3" y1="384.0" x2="488.3" y2="470.0" stroke="#e1e0d9" stroke-width="1.0"/>
<text x="495.2" y="490.0" font-size="11.0" fill="#898781" text-anchor="middle">2024-03</text>
<line x1="529.3" y1="66.0" x2="529.3" y2="356.0" stroke="#e1e0d9" stroke-width="1.0"/>
<line x1="529.3" y1="384.0" x2="529.3" y2="470.0" stroke="#e1e0d9" stroke-width="1.0"/>
<line x1="570.3" y1="66.0" x2="570.3" y2="356.0" stroke="#e1e0d9" stroke-width="1.0"/>
<line x1="570.3" y1="384.0" x2="570.3" y2="470.0" stroke="#e1e0d9" stroke-width="1.0"/>
<text x="577.2" y="490.0" font-size="11.0" fill="#898781" text-anchor="middle">2024-05</text>
<line x1="611.3" y1="66.0" x2="611.3" y2="356.0" stroke="#e1e0d9" stroke-width="1.0"/>
<line x1="611.3" y1="384.0" x2="611.3" y2="470.0" stroke="#e1e0d9" stroke-width="1.0"/>
<line x1="707.0" y1="66.0" x2="707.0" y2="356.0" stroke="#e1e0d9" stroke-width="1.0"/>
<line x1="707.0" y1="384.0" x2="707.0" y2="470.0" stroke="#e1e0d9" stroke-width="1.0"/>
<text x="713.8" y="490.0" font-size="11.0" fill="#898781" text-anchor="middle">2024-08</text>
<line x1="761.7" y1="66.0" x2="761.7" y2="356.0" stroke="#e1e0d9" stroke-width="1.0"/>
<line x1="761.7" y1="384.0" x2="761.7" y2="470.0" stroke="#e1e0d9" stroke-width="1.0"/>
<line x1="775.3" y1="66.0" x2="775.3" y2="356.0" stroke="#e1e0d9" stroke-width="1.0"/>
<line x1="775.3" y1="384.0" x2="775.3" y2="470.0" stroke="#e1e0d9" stroke-width="1.0"/>
<text x="782.2" y="490.0" font-size="11.0" fill="#898781" text-anchor="middle">2024-10</text>
<line x1="816.3" y1="66.0" x2="816.3" y2="356.0" stroke="#e1e0d9" stroke-width="1.0"/>
<line x1="816.3" y1="384.0" x2="816.3" y2="470.0" stroke="#e1e0d9" stroke-width="1.0"/>
<text x="14.0" y="58.0" font-size="11.0" fill="#52514e">BOLL(20,2)</text>
<text x="84.5" y="58.0" font-size="11.0" fill="#eda100">UP:4.8</text>
<text x="130.8" y="58.0" font-size="11.0" fill="#2a78d6">MID:2.0</text>
<text x="183.2" y="58.0" font-size="11.0" fill="#e87ba4">LOW:0</text>
<text x="223.4" y="58.0" font-size="11.0" fill="#4a3aa7">MA7:1.9</text>
<line x1="10.0" y1="356.0" x2="830.0" y2="356.0" stroke="#e1e0d9" stroke-width="1.0"/>
<text x="14.0" y="353.0" font-size="11.0" fill="#898781">0</text>
<line x1="10.0" y1="217.9" x2="830.0" y2="217.9" stroke="#e1e0d9" stroke-width="1.0"/>
<text x="14.0" y="214.9" font-size="11.0" fill="#898781">10</text>
<line x1="10.0" y1="79.8" x2="830.0" y2="79.8" stroke="#e1e0d9" stroke-width="1.0"/>
<text x="14.0" y="76.8" font-size="11.0" fill="#898781">20</text>
<polyline points="16.8,320.5 30.5,321.6 44.2,320.5 57.8,320.5 71.5,320.5 85.2,320.5 98.8,321.6 112.5,322.7 126.2,321.6 139.8,320.5 153.5,320.5 167.2,321.6 180.8,320.5 194.5,320.5 208.2,316.8 221.8,305.2 235.5,300.2 249.2,300.5 262.8,297.7 276.5,297.7 290.2,297.7 303.8,297.4 317.5,297.7 331.2,297.4 344.8,297.4 358.5,297.4 372.2,297.4 385.8,297.4 399.5,297.4 413.2,296.1 426.8,296.1 440.5,295.8 454.2,292.2 467.8,292.2 481.5,293.6 495.2,301.7 508.8,307.1 522.5,306.6 536.2,208.8 549.8,203.8 563.5,200.8 577.2,201.1 590.8,200.2 604.5,200.2 618.2,200.2 631.8,200.1 645.5,199.8 659.2,198.4 672.8,198.4 686.5,198.8 700.2,198.7 713.8,198.8 727.5,200.4 741.2,200.4 754.8,200.2 768.5,200.2 782.2,200.2 795.8,200.4 809.5,289.2 823.2,289.2" fill="none" stroke="#eda100" stroke-width="1.5" stroke-linejoin="round" stroke-linecap="round"/>
<polyline points="16.8,336.7 30.5,337.4 44.2,336.7 57.8,336.7 71.5,336.7 85.2,336.7 98.8,337.4 112.5,338.0 126.2,337.4 139.8,336.7 153.5,336.7 167.2,337.4 180.8,336.7 194.5,336.7 208.2,335.3 221.8,333.2 235.5,331.1 249.2,331.8 262.8,331.1 276.5,331.1 290.2,331.1 303.8,330.5 317.5,331.1 331.2,330.5 344.8,330.5 358.5,330.5 372.2,330.5 385.8,330.5 399.5,330.5 413.2,329.8 426.8,329.8 440.5,329.1 454.2,327.7 467.8,327.7 481.5,329.1 495.2,331.8 508.8,333.9 522.5,333.2 536.2,322.2 549.8,318.7 563.5,316.0 577.2,316.6 590.8,315.3 604.5,315.3 618.2,315.3 631.8,314.6 645.5,313.9 659.2,311.8 672.8,311.8 686.5,312.5 700.2,311.8 713.8,312.5 727.5,314.6 741.2,314.6 754.8,313.9 768.5,313.9 782.2,313.9 795.8,314.6 809.5,327.7 823.2,327.7" fill="none" stroke="#2a78d6" stroke-width="1.5" stroke-linejoin="round" stroke-linecap="round"/>
<polyline points="16.8,352.8 30.5,353.1 44.2,352.8 57.8,352.8 71.5,352.8 85.2,352.8 98.8,353.1 112.5,353.4 126.2,353.1 139.8,352.8 153.5,352.8 167.2,353.1 180.8,352.8 194.5,352.8 208.2,353.8 221.8,356.0 235.5,356.0 249.2,356.0 262.8,356.0 276.5,356.0 290.2,356.0 303.8,356.0 317.5,356.0 331.2,356.0 344.8,356.0 358.5,356.0 372.2,356.0 385.8,356.0 399.5,356.0 413.2,356.0 426.8,356.0 440.5,356.0 454.2,356.0 467.8,356.0 481.5,356.0 495.2,356.0 508.8,356.0 522.5,356.0 536.2,356.0 549.8,356.0 563.5,356.0 577.2,356.0 590.8,356.0 604.5,356.0 618.2,356.0 631.8,356.0 645.5,356.0 659.2,356.0 672.8,356.0 686.5,356.0 700.2,356.0 713.8,356.0 727.5,356.0 741.2,356.0 754.8,356.0 768.5,356.0 782.2,356.0 795.8,356.0 809.5,356.0 823.2,356.0" fill="none" stroke="#e87ba4" stroke-width="1.5" stroke-linejoin="round" stroke-linecap="round"/>
<polyline points="16.8,333.9 30.5,333.9 44.2,333.9 57.8,333.9 71.5,336.7 85.2,340.8 98.8,340.8 112.5,340.8 126.2,338.0 139.8,338.0 153.5,338.0 167.2,338.0 180.8,336.7 194.5,336.7 208.2,332.5 221.8,327.0 235.5,322.9 249.2,322.9 262.8,316.0 276.5,318.7 290.2,318.7 303.8,320.1 317.5,328.4 331.2,332.5 344.8,332.5 358.5,338.0 372.2,338.0 385.8,338.0 399.5,338.0 413.2,333.9 426.8,336.7 440.5,333.9 454.2,328.4 467.8,328.4 481.5,328.4 495.2,329.8 508.8,333.9 522.5,332.5 536.2,296.6 549.8,292.5 563.5,285.6 577.2,285.6 590.8,281.4 604.5,278.7 618.2,281.4 631.8,316.0 645.5,324.2 659.2,327.0 672.8,324.2 686.5,327.0 700.2,327.0 713.8,327.0 727.5,328.4 741.2,329.8 754.8,333.9 768.5,336.7 782.2,338.0 795.8,340.8 809.5,340.8 823.2,329.8" fill="none" stroke="#4a3aa7" stroke-width="1.5" stroke-linejoin="round" stroke-linecap="round"/>
<rect x="13.1" y="342.2" width="7.5" height="1.2" fill="#898781"/>
<rect x="26.7" y="342.2" width="7.5" height="13.8" fill="none" stroke="#e34948" stroke-width="1.3"/>
<rect x="40.4" y="328.4" width="7.5" height="27.6" fill="none" stroke="#e34948" stroke-width="1.3"/>
<rect x="54.1" y="342.2" width="7.5" height="13.8" fill="none" stroke="#e34948" stroke-width="1.3"/>
<rect x="67.7" y="342.2" width="7.5" height="1.2" fill="#898781"/>
<rect x="81.4" y="342.2" width="7.5" height="1.2" fill="#898781"/>
<rect x="95.1" y="342.2" width="7.5" height="1.2" fill="#898781"/>
<rect x="108.7" y="342.2" width="7.5" height="13.8" fill="none" stroke="#e34948" stroke-width="1.3"/>
<rect x="122.4" y="328.4" width="7.5" height="27.6" fill="none" stroke="#e34948" stroke-width="1.3"/>
<rect x="136.1" y="328.4" width="7.5" height="27.6" fill="none" stroke="#e34948" stroke-width="1.3"/>
<rect x="149.7" y="342.2" width="7.5" height="13.8" fill="none" stroke="#e34948" stroke-width="1.3"/>
<rect x="163.4" y="342.2" width="7.5" height="1.2" fill="#898781"/>
<rect x="177.1" y="328.4" width="7.5" height="13.8" fill="none" stroke="#e34948" stroke-width="1.3"/>
<rect x="190.7" y="328.4" width="7.5" height="13.8" fill="#008300"/>
<rect x="204.4" y="314.6" width="7.5" height="41.4" fill="none" stroke="#e34948" stroke-width="1.3"/>
<rect x="218.1" y="287.0" width="7.5" height="27.6" fill="none" stroke="#e34948" stroke-width="1.3"/>
<rect x="231.7" y="300.8" width="7.5" height="55.2" fill="none" stroke="#e34948" stroke-width="1.3"/>
<rect x="245.4" y="300.8" width="7.5" height="41.4" fill="#008300"/>
<rect x="259.1" y="300.8" width="7.5" height="41.4" fill="none" stroke="#e34948" stroke-width="1.3"/>
<rect x="272.7" y="342.2" width="7.5" height="13.8" fill="none" stroke="#e34948" stroke-width="1.3"/>
<rect x="286.4" y="342.2" width="7.5" height="13.8" fill="none" stroke="#e34948" stroke-width="1.3"/>
<rect x="300.1" y="328.4" width="7.5" height="13.8" fill="none" stroke="#e34948" stroke-width="1.3"/>
<rect x="313.7" y="328.4" width="7.5" height="13.8" fill="#008300"/>
<rect x="327.4" y="328.4" width="7.5" height="27.6" fill="none" stroke="#e34948" stroke-width="1.3"/>
<rect x="341.1" y="342.2" width="7.5" height="13.8" fill="none" stroke="#e34948" stroke-width="1.3"/>
<rect x="354.7" y="342.2" width="7.5" height="1.2" fill="#898781"/>
<rect x="368.4" y="342.2" width="7.5" height="13.8" fill="none" stroke="#e34948" stroke-width="1.3"/>
<rect x="382.1" y="342.2" width="7.5" height="1.2" fill="#898781"/>
<rect x="395.7" y="328.4" width="7.5" height="13.8" fill="none" stroke="#e34948" stroke-width="1.3"/>
<rect x="409.4" y="314.6" width="7.5" height="41.4" fill="none" stroke="#e34948" stroke-width="1.3"/>
<rect x="423.1" y="342.2" width="7.5" height="13.8" fill="none" stroke="#e34948" stroke-width="1.3"/>
<rect x="436.7" y="328.4" width="7.5" height="27.6" fill="none" stroke="#e34948" stroke-width="1.3"/>
<rect x="450.4" y="300.8" width="7.5" height="55.2" fill="none" stroke="#e34948" stroke-width="1.3"/>
<rect x="464.1" y="342.2" width="7.5" height="13.8" fill="none" stroke="#e34948" stroke-width="1.3"/>
<rect x="477.7" y="342.2" width="7.5" height="1.2" fill="#898781"/>
<rect x="491.4" y="342.2" width="7.5" height="13.8" fill="none" stroke="#e34948" stroke-width="1.3"/>
<rect x="505.1" y="342.2" width="7.5" height="1.2" fill="#898781"/>
<rect x="518.7" y="328.4" width="7.5" height="27.6" fill="none" stroke="#e34948" stroke-width="1.3"/>
<rect x="532.4" y="79.8" width="7.5" height="276.2" fill="none" stroke="#e34948" stroke-width="1.3"/>
<rect x="546.1" y="273.1" width="7.5" height="82.9" fill="none" stroke="#e34948" stroke-width="1.3"/>
<rect x="559.7" y="273.1" width="7.5" height="13.8" fill="#008300"/>
<rect x="573.4" y="342.2" width="7.5" height="13.8" fill="none" stroke="#e34948" stroke-width="1.3"/>
<rect x="587.1" y="314.6" width="7.5" height="41.4" fill="none" stroke="#e34948" stroke-width="1.3"/>
<rect x="600.7" y="328.4" width="7.5" height="27.6" fill="none" stroke="#e34948" stroke-width="1.3"/>
<rect x="614.4" y="342.2" width="7.5" height="13.8" fill="none" stroke="#e34948" stroke-width="1.3"/>
<rect x="628.1" y="328.4" width="7.5" height="13.8" fill="none" stroke="#e34948" stroke-width="1.3"/>
<rect x="641.7" y="328.4" width="7.5" height="1.2" fill="#898781"/>
<rect x="655.4" y="300.8" width="7.5" height="27.6" fill="none" stroke="#e34948" stroke-width="1.3"/>
<rect x="669.1" y="328.4" width="7.5" height="27.6" fill="none" stroke="#e34948" stroke-width="1.3"/>
<rect x="682.7" y="328.4" width="7.5" height="27.6" fill="none" stroke="#e34948" stroke-width="1.3"/>
<rect x="696.4" y="328.4" width="7.5" height="1.2" fill="#898781"/>
<rect x="710.1" y="342.2" width="7.5" height="13.8" fill="none" stroke="#e34948" stroke-width="1.3"/>
<rect x="723.7" y="342.2" width="7.5" height="13.8" fill="none" stroke="#e34948" stroke-width="1.3"/>
<rect x="737.4" y="342.2" width="7.5" height="1.2" fill="#898781"/>
<rect x="751.1" y="328.4" width="7.5" height="27.6" fill="none" stroke="#e34948" stroke-width="1.3"/>
<rect x="764.7" y="342.2" width="7.5" height="13.8" fill="none" stroke="#e34948" stroke-width="1.3"/>
<rect x="778.4" y="342.2" width="7.5" height="13.8" fill="none" stroke="#e34948" stroke-width="1.3"/>
<rect x="792.1" y="342.2" width="7.5" height="13.8" fill="none" stroke="#e34948" stroke-width="1.3"/>
<rect x="805.7" y="342.2" width="7.5" height="13.8" fill="none" stroke="#e34948" stroke-width="1.3"/>
<rect x="819.4" y="273.1" width="7.5" height="82.9" fill="none" stroke="#e34948" stroke-width="1.3"/>
<circle cx="536.2" cy="79.8" r="2" fill="#52514e"/>
<line x1="536.2" y1="79.8" x2="528.2" y2="79.8" stroke="#52514e" stroke-width="1.0"/>
<text x="525.2" y="83.8" font-size="11.0" fill="#52514e" text-anchor="end">20</text>
<circle cx="30.5" cy="356.0" r="2" fill="#52514e"/>
<line x1="30.5" y1="356.0" x2="38.5" y2="356.0" stroke="#52514e" stroke-width="1.0"/>
<text x="41.5" y="350.0" font-size="11.0" fill="#52514e">0</text>
<text x="14.0" y="376.0" font-size="11.0" fill="#52514e">VOL 330 lines</text>
<text x="102.6" y="376.0" font-size="11.0" fill="#eda100">MA5:75.4</text>
<text x="161.1" y="376.0" font-size="11.0" fill="#2a78d6">MA10:52.1</text>
<text x="14.0" y="395.0" font-size="10" fill="#898781">5,141</text>
<rect x="13.1" y="469.4" width="7.5" height="0.6" fill="#898781"/>
<rect x="26.7" y="469.4" width="7.5" height="0.6" fill="none" stroke="#e34948" stroke-width="1.1"/>
<rect x="177.1" y="464.0" width="7.5" height="6.0" fill="none" stroke="#e34948" stroke-width="1.1"/>
<rect x="204.4" y="467.1" width="7.5" height="2.9" fill="none" stroke="#e34948" stroke-width="1.1"/>
<rect x="218.1" y="454.0" width="7.5" height="16.0" fill="none" stroke="#e34948" stroke-width="1.1"/>
<rect x="231.7" y="453.2" width="7.5" height="16.8" fill="none" stroke="#e34948" stroke-width="1.1"/>
<rect x="245.4" y="467.2" width="7.5" height="2.8" fill="#008300"/>
<rect x="259.1" y="442.5" width="7.5" height="27.5" fill="none" stroke="#e34948" stroke-width="1.1"/>
<rect x="272.7" y="465.5" width="7.5" height="4.5" fill="none" stroke="#e34948" stroke-width="1.1"/>
<rect x="286.4" y="468.5" width="7.5" height="1.5" fill="none" stroke="#e34948" stroke-width="1.1"/>
<rect x="300.1" y="438.2" width="7.5" height="31.8" fill="none" stroke="#e34948" stroke-width="1.1"/>
<rect x="313.7" y="442.0" width="7.5" height="28.0" fill="#008300"/>
<rect x="327.4" y="469.1" width="7.5" height="0.9" fill="none" stroke="#e34948" stroke-width="1.1"/>
<rect x="341.1" y="450.5" width="7.5" height="19.5" fill="none" stroke="#e34948" stroke-width="1.1"/>
<rect x="354.7" y="450.5" width="7.5" height="19.5" fill="#898781"/>
<rect x="368.4" y="469.4" width="7.5" height="0.6" fill="none" stroke="#e34948" stroke-width="1.1"/>
<rect x="382.1" y="469.4" width="7.5" height="0.6" fill="#898781"/>
<rect x="395.7" y="456.6" width="7.5" height="13.4" fill="none" stroke="#e34948" stroke-width="1.1"/>
<rect x="409.4" y="466.5" width="7.5" height="3.5" fill="none" stroke="#e34948" stroke-width="1.1"/>
<rect x="423.1" y="468.0" width="7.5" height="2.0" fill="none" stroke="#e34948" stroke-width="1.1"/>
<rect x="436.7" y="453.0" width="7.5" height="17.0" fill="none" stroke="#e34948" stroke-width="1.1"/>
<rect x="450.4" y="449.5" width="7.5" height="20.5" fill="none" stroke="#e34948" stroke-width="1.1"/>
<rect x="532.4" y="468.7" width="7.5" height="1.3" fill="none" stroke="#e34948" stroke-width="1.1"/>
<rect x="546.1" y="408.3" width="7.5" height="61.7" fill="none" stroke="#e34948" stroke-width="1.1"/>
<rect x="559.7" y="388.0" width="7.5" height="82.0" fill="#008300"/>
<rect x="573.4" y="439.6" width="7.5" height="30.4" fill="none" stroke="#e34948" stroke-width="1.1"/>
<rect x="614.4" y="458.3" width="7.5" height="11.7" fill="none" stroke="#e34948" stroke-width="1.1"/>
<rect x="628.1" y="447.6" width="7.5" height="22.4" fill="none" stroke="#e34948" stroke-width="1.1"/>
<rect x="641.7" y="454.3" width="7.5" height="15.7" fill="#898781"/>
<rect x="655.4" y="443.1" width="7.5" height="26.9" fill="none" stroke="#e34948" stroke-width="1.1"/>
<rect x="723.7" y="469.0" width="7.5" height="1.0" fill="none" stroke="#e34948" stroke-width="1.1"/>
<rect x="737.4" y="469.0" width="7.5" height="1.0" fill="#898781"/>
<rect x="819.4" y="464.7" width="7.5" height="5.3" fill="none" stroke="#e34948" stroke-width="1.1"/>
<polyline points="16.8,459.3 30.5,459.5 44.2,459.5 57.8,459.5 71.5,459.5 85.2,459.6 98.8,460.4 112.5,463.8 126.2,469.8 139.8,469.8 153.5,469.9 167.2,469.9 180.8,469.3 194.5,469.3 208.2,469.0 221.8,467.4 235.5,465.8 249.2,465.5 262.8,462.7 276.5,462.3 290.2,462.2 303.8,459.0 317.5,456.8 331.2,456.7 344.8,455.1 358.5,454.7 372.2,456.3 385.8,456.6 399.5,458.0 413.2,458.1 426.8,458.0 440.5,459.5 454.2,460.2 467.8,460.3 481.5,462.3 495.2,464.2 508.8,464.3 522.5,464.3 536.2,465.6 549.8,459.7 563.5,451.7 577.2,450.4 590.8,452.4 604.5,452.4 618.2,451.3 631.8,449.0 645.5,447.5 659.2,444.8 672.8,444.9 686.5,451.1 700.2,459.3 713.8,462.3 727.5,462.2 741.2,462.1 754.8,463.3 768.5,465.5 782.2,467.0 795.8,469.7 809.5,469.7 823.2,469.2" fill="none" stroke="#2a78d6" stroke-width="1.5" stroke-linejoin="round" stroke-linecap="round"/>
<polyline points="16.8,449.3 30.5,450.9 44.2,457.6 57.8,469.6 71.5,469.7 85.2,469.8 98.8,470.0 112.5,470.0 126.2,470.0 139.8,469.9 153.5,469.9 167.2,469.9 180.8,468.7 194.5,468.7 208.2,468.2 221.8,465.0 235.5,461.7 249.2,462.3 262.8,456.8 276.5,456.5 290.2,459.4 303.8,456.4 317.5,451.3 331.2,456.6 344.8,453.6 358.5,450.1 372.2,456.3 385.8,461.8 399.5,459.3 413.2,462.5 426.8,466.0 440.5,462.7 454.2,458.7 467.8,461.4 481.5,462.1 495.2,462.5 508.8,465.9 522.5,470.0 536.2,469.7 549.8,457.4 563.5,441.0 577.2,434.9 590.8,434.9 604.5,435.2 618.2,445.2 631.8,457.1 645.5,460.0 659.2,454.6 672.8,454.6 686.5,457.0 700.2,461.5 713.8,464.6 727.5,469.8 741.2,469.6 754.8,469.5 768.5,469.5 782.2,469.5 795.8,469.7 809.5,469.8 823.2,468.8" fill="none" stroke="#eda100" stroke-width="1.5" stroke-linejoin="round" stroke-linecap="round"/>
</svg>