<svg xmlns="http://www.w3.org/2000/svg" viewBox="0 0 840 496" width="840" height="496" font-family="-apple-system,&#39;Segoe UI&#39;,system-ui,sans-serif" role="img" aria-label="jwasham/coding-interview-university candlestick chart">
<text x="14.0" y="20.0" font-size="15" fill="#0b0b0b" font-weight="650">jwasham/coding-interview-university</text>
<text x="306.8" y="20.0" font-size="11.5" fill="#52514e">daily · new stars, volume = new forks</text>
<text x="805.8" y="20.0" font-size="11.0" fill="#52514e">fall</text>
<rect x="791" y="10" width="9" height="12" fill="#008300"/>
<text x="750.6" y="20.0" font-size="11.0" fill="#52514e">rise</text>
<rect x="736" y="10" width="9" height="12" fill="none" stroke="#e34948" stroke-width="1.5"/>
<text x="14.0" y="38.0" font-size="11.0" fill="#898781">last 37 days · +6,091 stars · +1,170 forks · updated 2026-07-12</text>
<rect x="10" y="66" width="820" height="290" fill="none" stroke="#e1e0d9"/>
<rect x="10" y="384" width="820" height="86" fill="none" stroke="#e1e0d9"/>
<text x="38.0" y="490.0" font-size="11.0" fill="#898781" text-anchor="middle">2026-06</text>
<line x1="564.1" y1="66.0" x2="564.1" y2="356.0" stroke="#e1e0d9" stroke-width="1.0"/>
<line x1="564.1" y1="384.0" x2="564.1" y2="470.0" stroke="#e1e0d9" stroke-width="1.0"/>
<text x="575.1" y="490.0" font-size="11.0" fill="#898781" text-anchor="middle">2026-07</text>
<text x="14.0" y="58.0" font-size="11.0" fill="#52514e">BOLL(20,2)</text>
<text x="84.5" y="58.0" font-size="11.0" fill="#eda100">UP:214.0</text>
<text x="142.9" y="58.0" font-size="11.0" fill="#2a78d6">MID:129.2</text>
<text x="207.4" y="58.0" font-size="11.0" fill="#e87ba4">LOW:44.3</text>
<text x="265.8" y="58.0" font-size="11.0" fill="#4a3aa7">MA7:113</text>
<line x1="10.0" y1="356.0" x2="830.0" y2="356.0" stroke="#e1e0d9" stroke-width="1.0"/>
<text x="14.0" y="353.0" font-size="11.0" fill="#898781">0</text>
<line x1="10.0" y1="244.4" x2="830.0" y2="244.4" stroke="#e1e0d9" stroke-width="1.0"/>
<text x="14.0" y="241.4" font-size="11.0" fill="#898781">200</text>
<line x1="10.0" y1="132.8" x2="830.0" y2="132.8" stroke="#e1e0d9" stroke-width="1.0"/>
<text x="14.0" y="129.8" font-size="11.0" fill="#898781">400</text>
<polyline points="442.2,120.1 464.3,125.4 486.5,122.3 508.6,121.9 530.8,121.8 553.0,121.8 575.1,122.6 597.3,123.2 619.5,124.6 641.6,160.6 663.8,182.3 685.9,230.4 708.1,227.1 730.3,226.4 752.4,226.4 774.6,225.6 796.8,232.2 818.9,236.6" fill="none" stroke="#eda100" stroke-width="1.5" stroke-linejoin="round" stroke-linecap="round"/>
<polyline points="442.2,246.6 464.3,251.9 486.5,248.9 508.6,248.1 530.8,246.7 553.0,246.6 575.1,245.7 597.3,244.9 619.5,247.1 641.6,258.3 663.8,266.0 685.9,273.8 708.1,275.9 730.3,278.3 752.4,279.5 774.6,279.1 796.8,281.3 818.9,283.9" fill="none" stroke="#2a78d6" stroke-width="1.5" stroke-linejoin="round" stroke-linecap="round"/>
<polyline points="442.2,356.0 464.3,356.0 486.5,356.0 508.6,356.0 530.8,356.0 553.0,356.0 575.1,356.0 597.3,356.0 619.5,356.0 641.6,355.9 663.8,349.7 685.9,317.3 708.1,324.6 730.3,330.2 752.4,332.6 774.6,332.6 796.8,330.3 818.9,331.3" fill="none" stroke="#e87ba4" stroke-width="1.5" stroke-linejoin="round" stroke-linecap="round"/>
<polyline points="154.1,277.9 176.2,283.3 198.4,255.0 220.5,236.9 242.7,211.0 264.9,209.9 287.0,203.7 309.2,200.3 331.4,205.0 353.5,226.7 375.7,241.6 397.8,264.6 420.0,263.8 442.2,266.6 464.3,269.5 486.5,262.7 508.6,265.8 530.8,267.9 553.0,270.9 575.1,272.9 597.3,272.8 619.5,269.7 641.6,281.7 663.8,287.9 685.9,288.5 708.1,293.5 730.3,296.9 752.4,299.3 774.6,296.5 796.8,292.4 818.9,293.0" fill="none" stroke="#4a3aa7" stroke-width="1.5" stroke-linejoin="round" stroke-linecap="round"/>
<rect x="15.0" y="196.4" width="12.2" height="159.6" fill="none" stroke="#e34948" stroke-width="1.3"/>
<rect x="37.1" y="196.4" width="12.2" height="81.5" fill="#008300"/>
<rect x="59.3" y="270.6" width="12.2" height="7.3" fill="none" stroke="#e34948" stroke-width="1.3"/>
<rect x="81.5" y="270.6" width="12.2" height="20.6" fill="#008300"/>
<rect x="103.6" y="291.3" width="12.2" height="1.2" fill="#008300"/>
<rect x="125.8" y="292.4" width="12.2" height="19.5" fill="#008300"/>
<rect x="148.0" y="304.7" width="12.2" height="7.3" fill="none" stroke="#e34948" stroke-width="1.3"/>
<rect x="170.1" y="234.4" width="12.2" height="70.3" fill="none" stroke="#e34948" stroke-width="1.3"/>
<rect x="192.3" y="79.8" width="12.2" height="154.6" fill="none" stroke="#e34948" stroke-width="1.3"/>
<rect x="214.4" y="79.8" width="12.2" height="64.2" fill="#008300"/>
<rect x="236.6" y="109.9" width="12.2" height="34.0" fill="none" stroke="#e34948" stroke-width="1.3"/>
<rect x="258.8" y="109.9" width="12.2" height="174.6" fill="#008300"/>
<rect x="280.9" y="269.0" width="12.2" height="15.6" fill="none" stroke="#e34948" stroke-width="1.3"/>
<rect x="303.1" y="269.0" width="12.2" height="11.2" fill="#008300"/>
<rect x="325.3" y="267.3" width="12.2" height="12.8" fill="none" stroke="#e34948" stroke-width="1.3"/>
<rect x="347.4" y="232.1" width="12.2" height="35.2" fill="none" stroke="#e34948" stroke-width="1.3"/>
<rect x="369.6" y="232.1" width="12.2" height="16.2" fill="#008300"/>
<rect x="391.7" y="248.3" width="12.2" height="22.3" fill="#008300"/>
<rect x="413.9" y="270.6" width="12.2" height="8.4" fill="#008300"/>
<rect x="436.1" y="279.0" width="12.2" height="9.5" fill="#008300"/>
<rect x="458.2" y="288.5" width="12.2" height="12.3" fill="#008300"/>
<rect x="480.4" y="219.3" width="12.2" height="81.5" fill="none" stroke="#e34948" stroke-width="1.3"/>
<rect x="502.6" y="219.3" width="12.2" height="35.2" fill="#008300"/>
<rect x="524.7" y="254.5" width="12.2" height="8.4" fill="#008300"/>
<rect x="546.9" y="262.8" width="12.2" height="28.5" fill="#008300"/>
<rect x="569.0" y="291.3" width="12.2" height="1.7" fill="#008300"/>
<rect x="591.2" y="287.9" width="12.2" height="5.0" fill="none" stroke="#e34948" stroke-width="1.3"/>
<rect x="613.4" y="279.6" width="12.2" height="8.4" fill="none" stroke="#e34948" stroke-width="1.3"/>
<rect x="635.5" y="279.6" width="12.2" height="23.4" fill="#008300"/>
<rect x="657.7" y="298.0" width="12.2" height="5.0" fill="none" stroke="#e34948" stroke-width="1.3"/>
<rect x="679.9" y="267.3" width="12.2" height="30.7" fill="none" stroke="#e34948" stroke-width="1.3"/>
<rect x="702.0" y="267.3" width="12.2" height="58.0" fill="#008300"/>
<rect x="724.2" y="317.5" width="12.2" height="7.8" fill="none" stroke="#e34948" stroke-width="1.3"/>
<rect x="746.3" y="304.1" width="12.2" height="13.4" fill="none" stroke="#e34948" stroke-width="1.3"/>
<rect x="768.5" y="260.0" width="12.2" height="44.1" fill="none" stroke="#e34948" stroke-width="1.3"/>
<rect x="790.7" y="260.0" width="12.2" height="15.1" fill="#008300"/>
<rect x="812.8" y="275.1" width="12.2" height="26.2" fill="#008300"/>
<circle cx="198.4" cy="79.8" r="2" fill="#52514e"/>
<line x1="198.4" y1="79.8" x2="206.4" y2="79.8" stroke="#52514e" stroke-width="1.0"/>
<text x="209.4" y="83.8" font-size="11.0" fill="#52514e">495</text>
<circle cx="21.1" cy="356.0" r="2" fill="#52514e"/>
<line x1="21.1" y1="356.0" x2="29.1" y2="356.0" stroke="#52514e" stroke-width="1.0"/>
<text x="32.1" y="350.0" font-size="11.0" fill="#52514e">0</text>
<text x="14.0" y="376.0" font-size="11.0" fill="#52514e">VOL 16 forks</text>
<text x="96.6" y="376.0" font-size="11.0" fill="#eda100">MA5:22.4</text>
<text x="155.0" y="376.0" font-size="11.0" fill="#2a78d6">MA10:21.9</text>
<text x="14.0" y="395.0" font-size="10" fill="#898781">81</text>
<rect x="15.0" y="435.6" width="12.2" height="34.4" fill="none" stroke="#e34948" stroke-width="1.1"/>
<rect x="37.1" y="434.6" width="12.2" height="35.4" fill="#008300"/>
<rect x="59.3" y="447.7" width="12.2" height="22.3" fill="none" stroke="#e34948" stroke-width="1.1"/>
<rect x="81.5" y="435.6" width="12.2" height="34.4" fill="#008300"/>
<rect x="103.6" y="438.6" width="12.2" height="31.4" fill="#008300"/>
<rect x="125.8" y="452.8" width="12.2" height="17.2" fill="#008300"/>
<rect x="148.0" y="458.9" width="12.2" height="11.1" fill="none" stroke="#e34948" stroke-width="1.1"/>
<rect x="170.1" y="448.7" width="12.2" height="21.3" fill="none" stroke="#e34948" stroke-width="1.1"/>
<rect x="192.3" y="388.0" width="12.2" height="82.0" fill="none" stroke="#e34948" stroke-width="1.1"/>
<rect x="214.4" y="421.4" width="12.2" height="48.6" fill="#008300"/>
<rect x="236.6" y="395.1" width="12.2" height="74.9" fill="none" stroke="#e34948" stroke-width="1.1"/>
<rect x="258.8" y="434.6" width="12.2" height="35.4" fill="#008300"/>
<rect x="280.9" y="439.6" width="12.2" height="30.4" fill="none" stroke="#e34948" stroke-width="1.1"/>
<rect x="303.1" y="439.6" width="12.2" height="30.4" fill="#008300"/>
<rect x="325.3" y="436.6" width="12.2" height="33.4" fill="none" stroke="#e34948" stroke-width="1.1"/>
<rect x="347.4" y="442.7" width="12.2" height="27.3" fill="none" stroke="#e34948" stroke-width="1.1"/>
<rect x="369.6" y="425.5" width="12.2" height="44.5" fill="#008300"/>
<rect x="391.7" y="427.5" width="12.2" height="42.5" fill="#008300"/>
<rect x="413.9" y="441.7" width="12.2" height="28.3" fill="#008300"/>
<rect x="436.1" y="446.7" width="12.2" height="23.3" fill="#008300"/>
<rect x="458.2" y="444.7" width="12.2" height="25.3" fill="#008300"/>
<rect x="480.4" y="415.3" width="12.2" height="54.7" fill="none" stroke="#e34948" stroke-width="1.1"/>
<rect x="502.6" y="425.5" width="12.2" height="44.5" fill="#008300"/>
<rect x="524.7" y="419.4" width="12.2" height="50.6" fill="#008300"/>
<rect x="546.9" y="439.6" width="12.2" height="30.4" fill="#008300"/>
<rect x="569.0" y="449.8" width="12.2" height="20.2" fill="#008300"/>
<rect x="591.2" y="441.7" width="12.2" height="28.3" fill="none" stroke="#e34948" stroke-width="1.1"/>
<rect x="613.4" y="437.6" width="12.2" height="32.4" fill="none" stroke="#e34948" stroke-width="1.1"/>
<rect x="635.5" y="448.7" width="12.2" height="21.3" fill="#008300"/>
<rect x="657.7" y="452.8" width="12.2" height="17.2" fill="none" stroke="#e34948" stroke-width="1.1"/>
<rect x="679.9" y="441.7" width="12.2" height="28.3" fill="none" stroke="#e34948" stroke-width="1.1"/>
<rect x="702.0" y="460.9" width="12.2" height="9.1" fill="#008300"/>
<rect x="724.2" y="452.8" width="12.2" height="17.2" fill="none" stroke="#e34948" stroke-width="1.1"/>
<rect x="746.3" y="458.9" width="12.2" height="11.1" fill="none" stroke="#e34948" stroke-width="1.1"/>
<rect x="768.5" y="426.5" width="12.2" height="43.5" fill="none" stroke="#e34948" stroke-width="1.1"/>
<rect x="790.7" y="444.7" width="12.2" height="25.3" fill="#008300"/>
<rect x="812.8" y="453.8" width="12.2" height="16.2" fill="#008300"/>
<polyline points="220.5,436.2 242.7,432.1 264.9,432.1 287.0,431.3 309.2,431.7 331.4,431.5 353.5,430.5 375.7,427.2 397.8,425.1 420.0,430.4 442.2,432.9 464.3,437.9 486.5,436.0 508.6,434.6 530.8,432.5 553.0,432.8 575.1,433.6 597.3,435.2 619.5,436.2 641.6,436.9 663.8,437.5 685.9,437.2 708.1,441.8 730.3,444.5 752.4,448.4 774.6,447.1 796.8,446.6 818.9,447.8" fill="none" stroke="#2a78d6" stroke-width="1.5" stroke-linejoin="round" stroke-linecap="round"/>
<polyline points="109.7,438.4 131.9,441.9 154.1,446.7 176.2,446.9 198.4,437.4 220.5,434.0 242.7,422.4 264.9,417.6 287.0,415.7 309.2,426.1 331.4,429.1 353.5,438.6 375.7,436.8 397.8,434.4 420.0,434.8 442.2,436.8 464.3,437.2 486.5,435.2 508.6,434.8 530.8,430.3 553.0,428.9 575.1,429.9 597.3,435.2 619.5,437.6 641.6,443.5 663.8,446.1 685.9,444.5 708.1,448.3 730.3,451.4 752.4,453.4 774.6,448.1 796.8,448.7 818.9,447.3" fill="none" stroke="#eda100" stroke-width="1.5" stroke-linejoin="round" stroke-linecap="round"/>
</svg>