<svg xmlns="http://www.w3.org/2000/svg" viewBox="0 0 840 496" width="840" height="496" font-family="-apple-system,&#39;Segoe UI&#39;,system-ui,sans-serif" role="img" aria-label="jwasham/coding-interview-university candlestick chart">
<text x="14.0" y="20.0" font-size="15" fill="#ffffff" font-weight="650">jwasham/coding-interview-university</text>
<text x="306.8" y="20.0" font-size="11.5" fill="#c3c2b7">daily · new stars, volume = new forks</text>
<text x="805.8" y="20.0" font-size="11.0" fill="#c3c2b7">fall</text>
<rect x="791" y="10" width="9" height="12" fill="#008300"/>
<text x="750.6" y="20.0" font-size="11.0" fill="#c3c2b7">rise</text>
<rect x="736" y="10" width="9" height="12" fill="none" stroke="#e66767" stroke-width="1.5"/>
<text x="14.0" y="38.0" font-size="11.0" fill="#898781">last 48 days · +7,086 stars · +1,283 forks · updated 2026-07-23</text>
<rect x="10" y="66" width="820" height="290" fill="none" stroke="#2c2c2a"/>
<rect x="10" y="384" width="820" height="86" fill="none" stroke="#2c2c2a"/>
<text x="38.0" y="490.0" font-size="11.0" fill="#898781" text-anchor="middle">2026-06</text>
<line x1="437.1" y1="66.0" x2="437.1" y2="356.0" stroke="#2c2c2a" stroke-width="1.0"/>
<line x1="437.1" y1="384.0" x2="437.1" y2="470.0" stroke="#2c2c2a" stroke-width="1.0"/>
<text x="445.6" y="490.0" font-size="11.0" fill="#898781" text-anchor="middle">2026-07</text>
<text x="14.0" y="58.0" font-size="11.0" fill="#c3c2b7">BOLL(20,2)</text>
<text x="84.5" y="58.0" font-size="11.0" fill="#c98500">UP:163.2</text>
<text x="142.9" y="58.0" font-size="11.0" fill="#3987e5">MID:99.2</text>
<text x="201.3" y="58.0" font-size="11.0" fill="#d55181">LOW:35.3</text>
<text x="259.7" y="58.0" font-size="11.0" fill="#9085e9">MA7:85.4</text>
<line x1="10.0" y1="356.0" x2="830.0" y2="356.0" stroke="#2c2c2a" stroke-width="1.0"/>
<text x="14.0" y="353.0" font-size="11.0" fill="#898781">0</text>
<line x1="10.0" y1="244.4" x2="830.0" y2="244.4" stroke="#2c2c2a" stroke-width="1.0"/>
<text x="14.0" y="241.4" font-size="11.0" fill="#898781">200</text>
<line x1="10.0" y1="132.8" x2="830.0" y2="132.8" stroke="#2c2c2a" stroke-width="1.0"/>
<text x="14.0" y="129.8" font-size="11.0" fill="#898781">400</text>
<polyline points="343.1,120.1 360.2,125.4 377.3,122.3 394.4,121.9 411.5,121.8 428.5,121.8 445.6,122.6 462.7,123.2 479.8,124.6 496.9,160.6 514.0,182.3 531.0,230.4 548.1,227.1 565.2,226.4 582.3,226.4 599.4,225.6 616.5,232.2 633.5,236.6 650.6,237.9 667.7,238.6 684.8,238.5 701.9,238.5 719.0,253.4 736.0,259.5 753.1,263.5 770.2,264.0 787.3,264.4 804.4,262.6 821.5,264.9" fill="none" stroke="#c98500" stroke-width="1.5" stroke-linejoin="round" stroke-linecap="round"/>
<polyline points="343.1,246.6 360.2,251.9 377.3,248.9 394.4,248.1 411.5,246.7 428.5,246.6 445.6,245.7 462.7,244.9 479.8,247.1 496.9,258.3 514.0,266.0 531.0,273.8 548.1,275.9 565.2,278.3 582.3,279.5 599.4,279.1 616.5,281.3 633.5,283.9 650.6,284.9 667.7,285.9 684.8,287.0 701.9,287.1 719.0,291.6 736.0,294.3 753.1,297.3 770.2,298.5 787.3,299.7 804.4,299.1 821.5,300.6" fill="none" stroke="#3987e5" stroke-width="1.5" stroke-linejoin="round" stroke-linecap="round"/>
<polyline points="343.1,356.0 360.2,356.0 377.3,356.0 394.4,356.0 411.5,356.0 428.5,356.0 445.6,356.0 462.7,356.0 479.8,356.0 496.9,355.9 514.0,349.7 531.0,317.3 548.1,324.6 565.2,330.2 582.3,332.6 599.4,332.6 616.5,330.3 633.5,331.3 650.6,331.8 667.7,333.3 684.8,335.5 701.9,335.8 719.0,329.7 736.0,329.1 753.1,331.0 770.2,333.0 787.3,335.0 804.4,335.6 821.5,336.3" fill="none" stroke="#d55181" stroke-width="1.5" stroke-linejoin="round" stroke-linecap="round"/>
<polyline points="121.0,277.9 138.1,283.3 155.2,255.0 172.3,236.9 189.4,211.0 206.5,209.9 223.5,203.7 240.6,200.3 257.7,205.0 274.8,226.7 291.9,241.6 309.0,264.6 326.0,263.8 343.1,266.6 360.2,269.5 377.3,262.7 394.4,265.8 411.5,267.9 428.5,270.9 445.6,272.9 462.7,272.8 479.8,269.7 496.9,281.7 514.0,287.9 531.0,288.5 548.1,293.5 565.2,296.9 582.3,299.3 599.4,296.5 616.5,292.4 633.5,293.0 650.6,296.1 667.7,292.4 684.8,291.3 701.9,291.3 719.0,298.1 736.0,303.0 753.1,306.0 770.2,309.7 787.3,312.1 804.4,307.3 821.5,308.4" fill="none" stroke="#9085e9" stroke-width="1.5" stroke-linejoin="round" stroke-linecap="round"/>
<rect x="13.8" y="196.4" width="9.4" height="159.6" fill="none" stroke="#e66767" stroke-width="1.3"/>
<rect x="30.9" y="196.4" width="9.4" height="81.5" fill="#008300"/>
<rect x="48.0" y="270.6" width="9.4" height="7.3" fill="none" stroke="#e66767" stroke-width="1.3"/>
<rect x="65.1" y="270.6" width="9.4" height="20.6" fill="#008300"/>
<rect x="82.2" y="291.3" width="9.4" height="1.2" fill="#008300"/>
<rect x="99.3" y="292.4" width="9.4" height="19.5" fill="#008300"/>
<rect x="116.3" y="304.7" width="9.4" height="7.3" fill="none" stroke="#e66767" stroke-width="1.3"/>
<rect x="133.4" y="234.4" width="9.4" height="70.3" fill="none" stroke="#e66767" stroke-width="1.3"/>
<rect x="150.5" y="79.8" width="9.4" height="154.6" fill="none" stroke="#e66767" stroke-width="1.3"/>
<rect x="167.6" y="79.8" width="9.4" height="64.2" fill="#008300"/>
<rect x="184.7" y="109.9" width="9.4" height="34.0" fill="none" stroke="#e66767" stroke-width="1.3"/>
<rect x="201.8" y="109.9" width="9.4" height="174.6" fill="#008300"/>
<rect x="218.8" y="269.0" width="9.4" height="15.6" fill="none" stroke="#e66767" stroke-width="1.3"/>
<rect x="235.9" y="269.0" width="9.4" height="11.2" fill="#008300"/>
<rect x="253.0" y="267.3" width="9.4" height="12.8" fill="none" stroke="#e66767" stroke-width="1.3"/>
<rect x="270.1" y="232.1" width="9.4" height="35.2" fill="none" stroke="#e66767" stroke-width="1.3"/>
<rect x="287.2" y="232.1" width="9.4" height="16.2" fill="#008300"/>
<rect x="304.3" y="248.3" width="9.4" height="22.3" fill="#008300"/>
<rect x="321.3" y="270.6" width="9.4" height="8.4" fill="#008300"/>
<rect x="338.4" y="279.0" width="9.4" height="9.5" fill="#008300"/>
<rect x="355.5" y="288.5" width="9.4" height="12.3" fill="#008300"/>
<rect x="372.6" y="219.3" width="9.4" height="81.5" fill="none" stroke="#e66767" stroke-width="1.3"/>
<rect x="389.7" y="219.3" width="9.4" height="35.2" fill="#008300"/>
<rect x="406.8" y="254.5" width="9.4" height="8.4" fill="#008300"/>
<rect x="423.8" y="262.8" width="9.4" height="28.5" fill="#008300"/>
<rect x="440.9" y="291.3" width="9.4" height="1.7" fill="#008300"/>
<rect x="458.0" y="287.9" width="9.4" height="5.0" fill="none" stroke="#e66767" stroke-width="1.3"/>
<rect x="475.1" y="279.6" width="9.4" height="8.4" fill="none" stroke="#e66767" stroke-width="1.3"/>
<rect x="492.2" y="279.6" width="9.4" height="23.4" fill="#008300"/>
<rect x="509.3" y="298.0" width="9.4" height="5.0" fill="none" stroke="#e66767" stroke-width="1.3"/>
<rect x="526.3" y="267.3" width="9.4" height="30.7" fill="none" stroke="#e66767" stroke-width="1.3"/>
<rect x="543.4" y="267.3" width="9.4" height="58.0" fill="#008300"/>
<rect x="560.5" y="317.5" width="9.4" height="7.8" fill="none" stroke="#e66767" stroke-width="1.3"/>
<rect x="577.6" y="304.1" width="9.4" height="13.4" fill="none" stroke="#e66767" stroke-width="1.3"/>
<rect x="594.7" y="260.0" width="9.4" height="44.1" fill="none" stroke="#e66767" stroke-width="1.3"/>
<rect x="611.8" y="260.0" width="9.4" height="15.1" fill="#008300"/>
<rect x="628.8" y="275.1" width="9.4" height="26.2" fill="#008300"/>
<rect x="645.9" y="289.0" width="9.4" height="12.3" fill="none" stroke="#e66767" stroke-width="1.3"/>
<rect x="663.0" y="289.0" width="9.4" height="11.2" fill="#008300"/>
<rect x="680.1" y="300.2" width="9.4" height="9.5" fill="#008300"/>
<rect x="697.2" y="303.6" width="9.4" height="6.1" fill="none" stroke="#e66767" stroke-width="1.3"/>
<rect x="714.3" y="303.6" width="9.4" height="4.5" fill="#008300"/>
<rect x="731.3" y="308.0" width="9.4" height="1.2" fill="#008300"/>
<rect x="748.4" y="309.1" width="9.4" height="13.4" fill="#008300"/>
<rect x="765.5" y="315.3" width="9.4" height="7.3" fill="none" stroke="#e66767" stroke-width="1.3"/>
<rect x="782.6" y="315.3" width="9.4" height="1.7" fill="#008300"/>
<rect x="799.7" y="275.7" width="9.4" height="41.3" fill="none" stroke="#e66767" stroke-width="1.3"/>
<rect x="816.8" y="275.7" width="9.4" height="35.2" fill="#008300"/>
<circle cx="155.2" cy="79.8" r="2" fill="#c3c2b7"/>
<line x1="155.2" y1="79.8" x2="163.2" y2="79.8" stroke="#c3c2b7" stroke-width="1.0"/>
<text x="166.2" y="83.8" font-size="11.0" fill="#c3c2b7">495</text>
<circle cx="18.5" cy="356.0" r="2" fill="#c3c2b7"/>
<line x1="18.5" y1="356.0" x2="26.5" y2="356.0" stroke="#c3c2b7" stroke-width="1.0"/>
<text x="29.5" y="350.0" font-size="11.0" fill="#c3c2b7">0</text>
<text x="14.0" y="376.0" font-size="11.0" fill="#c3c2b7">VOL 5 forks</text>
<text x="90.6" y="376.0" font-size="11.0" fill="#c98500">MA5:9.4</text>
<text x="142.9" y="376.0" font-size="11.0" fill="#3987e5">MA10:10.4</text>
<text x="14.0" y="395.0" font-size="10" fill="#898781">81</text>
<rect x="13.8" y="435.6" width="9.4" height="34.4" fill="none" stroke="#e66767" stroke-width="1.1"/>
<rect x="30.9" y="434.6" width="9.4" height="35.4" fill="#008300"/>
<rect x="48.0" y="447.7" width="9.4" height="22.3" fill="none" stroke="#e66767" stroke-width="1.1"/>
<rect x="65.1" y="435.6" width="9.4" height="34.4" fill="#008300"/>
<rect x="82.2" y="438.6" width="9.4" height="31.4" fill="#008300"/>
<rect x="99.3" y="452.8" width="9.4" height="17.2" fill="#008300"/>
<rect x="116.3" y="458.9" width="9.4" height="11.1" fill="none" stroke="#e66767" stroke-width="1.1"/>
<rect x="133.4" y="448.7" width="9.4" height="21.3" fill="none" stroke="#e66767" stroke-width="1.1"/>
<rect x="150.5" y="388.0" width="9.4" height="82.0" fill="none" stroke="#e66767" stroke-width="1.1"/>
<rect x="167.6" y="421.4" width="9.4" height="48.6" fill="#008300"/>
<rect x="184.7" y="395.1" width="9.4" height="74.9" fill="none" stroke="#e66767" stroke-width="1.1"/>
<rect x="201.8" y="434.6" width="9.4" height="35.4" fill="#008300"/>
<rect x="218.8" y="439.6" width="9.4" height="30.4" fill="none" stroke="#e66767" stroke-width="1.1"/>
<rect x="235.9" y="439.6" width="9.4" height="30.4" fill="#008300"/>
<rect x="253.0" y="436.6" width="9.4" height="33.4" fill="none" stroke="#e66767" stroke-width="1.1"/>
<rect x="270.1" y="442.7" width="9.4" height="27.3" fill="none" stroke="#e66767" stroke-width="1.1"/>
<rect x="287.2" y="425.5" width="9.4" height="44.5" fill="#008300"/>
<rect x="304.3" y="427.5" width="9.4" height="42.5" fill="#008300"/>
<rect x="321.3" y="441.7" width="9.4" height="28.3" fill="#008300"/>
<rect x="338.4" y="446.7" width="9.4" height="23.3" fill="#008300"/>
<rect x="355.5" y="444.7" width="9.4" height="25.3" fill="#008300"/>
<rect x="372.6" y="415.3" width="9.4" height="54.7" fill="none" stroke="#e66767" stroke-width="1.1"/>
<rect x="389.7" y="425.5" width="9.4" height="44.5" fill="#008300"/>
<rect x="406.8" y="419.4" width="9.4" height="50.6" fill="#008300"/>
<rect x="423.8" y="439.6" width="9.4" height="30.4" fill="#008300"/>
<rect x="440.9" y="449.8" width="9.4" height="20.2" fill="#008300"/>
<rect x="458.0" y="441.7" width="9.4" height="28.3" fill="none" stroke="#e66767" stroke-width="1.1"/>
<rect x="475.1" y="437.6" width="9.4" height="32.4" fill="none" stroke="#e66767" stroke-width="1.1"/>
<rect x="492.2" y="448.7" width="9.4" height="21.3" fill="#008300"/>
<rect x="509.3" y="452.8" width="9.4" height="17.2" fill="none" stroke="#e66767" stroke-width="1.1"/>
<rect x="526.3" y="441.7" width="9.4" height="28.3" fill="none" stroke="#e66767" stroke-width="1.1"/>
<rect x="543.4" y="460.9" width="9.4" height="9.1" fill="#008300"/>
<rect x="560.5" y="452.8" width="9.4" height="17.2" fill="none" stroke="#e66767" stroke-width="1.1"/>
<rect x="577.6" y="458.9" width="9.4" height="11.1" fill="none" stroke="#e66767" stroke-width="1.1"/>
<rect x="594.7" y="426.5" width="9.4" height="43.5" fill="none" stroke="#e66767" stroke-width="1.1"/>
<rect x="611.8" y="444.7" width="9.4" height="25.3" fill="#008300"/>
<rect x="628.8" y="453.8" width="9.4" height="16.2" fill="#008300"/>
<rect x="645.9" y="460.9" width="9.4" height="9.1" fill="none" stroke="#e66767" stroke-width="1.1"/>
<rect x="663.0" y="450.8" width="9.4" height="19.2" fill="#008300"/>
<rect x="680.1" y="460.9" width="9.4" height="9.1" fill="#008300"/>
<rect x="697.2" y="466.0" width="9.4" height="4.0" fill="none" stroke="#e66767" stroke-width="1.1"/>
<rect x="714.3" y="450.8" width="9.4" height="19.2" fill="#008300"/>
<rect x="731.3" y="463.9" width="9.4" height="6.1" fill="#008300"/>
<rect x="748.4" y="452.8" width="9.4" height="17.2" fill="#008300"/>
<rect x="765.5" y="461.9" width="9.4" height="8.1" fill="none" stroke="#e66767" stroke-width="1.1"/>
<rect x="782.6" y="469.0" width="9.4" height="1.0" fill="#008300"/>
<rect x="799.7" y="453.8" width="9.4" height="16.2" fill="none" stroke="#e66767" stroke-width="1.1"/>
<rect x="816.8" y="464.9" width="9.4" height="5.1" fill="#008300"/>
<polyline points="172.3,436.2 189.4,432.1 206.5,432.1 223.5,431.3 240.6,431.7 257.7,431.5 274.8,430.5 291.9,427.2 309.0,425.1 326.0,430.4 343.1,432.9 360.2,437.9 377.3,436.0 394.4,434.6 411.5,432.5 428.5,432.8 445.6,433.6 462.7,435.2 479.8,436.2 496.9,436.9 514.0,437.5 531.0,437.2 548.1,441.8 565.2,444.5 582.3,448.4 599.4,447.1 616.5,446.6 633.5,447.8 650.6,450.2 667.7,450.4 684.8,451.2 701.9,453.6 719.0,452.6 736.0,453.7 753.1,453.1 770.2,456.6 787.3,459.1 804.4,459.1 821.5,459.5" fill="none" stroke="#3987e5" stroke-width="1.5" stroke-linejoin="round" stroke-linecap="round"/>
<polyline points="86.9,438.4 104.0,441.9 121.0,446.7 138.1,446.9 155.2,437.4 172.3,434.0 189.4,422.4 206.5,417.6 223.5,415.7 240.6,426.1 257.7,429.1 274.8,438.6 291.9,436.8 309.0,434.4 326.0,434.8 343.1,436.8 360.2,437.2 377.3,435.2 394.4,434.8 411.5,430.3 428.5,428.9 445.6,429.9 462.7,435.2 479.8,437.6 496.9,443.5 514.0,446.1 531.0,444.5 548.1,448.3 565.2,451.4 582.3,453.4 599.4,448.1 616.5,448.7 633.5,447.3 650.6,448.9 667.7,447.3 684.8,454.2 701.9,458.5 719.0,457.9 736.0,458.5 753.1,458.9 770.2,459.1 787.3,459.7 804.4,460.3 821.5,460.5" fill="none" stroke="#c98500" stroke-width="1.5" stroke-linejoin="round" stroke-linecap="round"/>
</svg>