<svg xmlns="http://www.w3.org/2000/svg" viewBox="0 0 840 496" width="840" height="496" font-family="-apple-system,&#39;Segoe UI&#39;,system-ui,sans-serif" role="img" aria-label="jwasham/coding-interview-university candlestick chart">
<text x="14.0" y="20.0" font-size="15" fill="#ffffff" font-weight="650">jwasham/coding-interview-university</text>
<text x="306.8" y="20.0" font-size="11.5" fill="#c3c2b7">daily · new stars, volume = new forks</text>
<text x="805.8" y="20.0" font-size="11.0" fill="#c3c2b7">fall</text>
<rect x="791" y="10" width="9" height="12" fill="#008300"/>
<text x="750.6" y="20.0" font-size="11.0" fill="#c3c2b7">rise</text>
<rect x="736" y="10" width="9" height="12" fill="none" stroke="#e66767" stroke-width="1.5"/>
<text x="14.0" y="38.0" font-size="11.0" fill="#898781">last 39 days · +6,311 stars · +1,198 forks · updated 2026-07-14</text>
<rect x="10" y="66" width="820" height="290" fill="none" stroke="#2c2c2a"/>
<rect x="10" y="384" width="820" height="86" fill="none" stroke="#2c2c2a"/>
<text x="38.0" y="490.0" font-size="11.0" fill="#898781" text-anchor="middle">2026-06</text>
<line x1="535.6" y1="66.0" x2="535.6" y2="356.0" stroke="#2c2c2a" stroke-width="1.0"/>
<line x1="535.6" y1="384.0" x2="535.6" y2="470.0" stroke="#2c2c2a" stroke-width="1.0"/>
<text x="546.2" y="490.0" font-size="11.0" fill="#898781" text-anchor="middle">2026-07</text>
<text x="14.0" y="58.0" font-size="11.0" fill="#c3c2b7">BOLL(20,2)</text>
<text x="84.5" y="58.0" font-size="11.0" fill="#c98500">UP:210.5</text>
<text x="142.9" y="58.0" font-size="11.0" fill="#3987e5">MID:125.6</text>
<text x="207.4" y="58.0" font-size="11.0" fill="#d55181">LOW:40.7</text>
<text x="265.8" y="58.0" font-size="11.0" fill="#9085e9">MA7:113.9</text>
<line x1="10.0" y1="356.0" x2="830.0" y2="356.0" stroke="#2c2c2a" stroke-width="1.0"/>
<text x="14.0" y="353.0" font-size="11.0" fill="#898781">0</text>
<line x1="10.0" y1="244.4" x2="830.0" y2="244.4" stroke="#2c2c2a" stroke-width="1.0"/>
<text x="14.0" y="241.4" font-size="11.0" fill="#898781">200</text>
<line x1="10.0" y1="132.8" x2="830.0" y2="132.8" stroke="#2c2c2a" stroke-width="1.0"/>
<text x="14.0" y="129.8" font-size="11.0" fill="#898781">400</text>
<polyline points="420.0,120.1 441.0,125.4 462.1,122.3 483.1,121.9 504.1,121.8 525.1,121.8 546.2,122.6 567.2,123.2 588.2,124.6 609.2,160.6 630.3,182.3 651.3,230.4 672.3,227.1 693.3,226.4 714.4,226.4 735.4,225.6 756.4,232.2 777.4,236.6 798.5,237.9 819.5,238.6" fill="none" stroke="#c98500" stroke-width="1.5" stroke-linejoin="round" stroke-linecap="round"/>
<polyline points="420.0,246.6 441.0,251.9 462.1,248.9 483.1,248.1 504.1,246.7 525.1,246.6 546.2,245.7 567.2,244.9 588.2,247.1 609.2,258.3 630.3,266.0 651.3,273.8 672.3,275.9 693.3,278.3 714.4,279.5 735.4,279.1 756.4,281.3 777.4,283.9 798.5,284.9 819.5,285.9" fill="none" stroke="#3987e5" stroke-width="1.5" stroke-linejoin="round" stroke-linecap="round"/>
<polyline points="420.0,356.0 441.0,356.0 462.1,356.0 483.1,356.0 504.1,356.0 525.1,356.0 546.2,356.0 567.2,356.0 588.2,356.0 609.2,355.9 630.3,349.7 651.3,317.3 672.3,324.6 693.3,330.2 714.4,332.6 735.4,332.6 756.4,330.3 777.4,331.3 798.5,331.8 819.5,333.3" fill="none" stroke="#d55181" stroke-width="1.5" stroke-linejoin="round" stroke-linecap="round"/>
<polyline points="146.7,277.9 167.7,283.3 188.7,255.0 209.7,236.9 230.8,211.0 251.8,209.9 272.8,203.7 293.8,200.3 314.9,205.0 335.9,226.7 356.9,241.6 377.9,264.6 399.0,263.8 420.0,266.6 441.0,269.5 462.1,262.7 483.1,265.8 504.1,267.9 525.1,270.9 546.2,272.9 567.2,272.8 588.2,269.7 609.2,281.7 630.3,287.9 651.3,288.5 672.3,293.5 693.3,296.9 714.4,299.3 735.4,296.5 756.4,292.4 777.4,293.0 798.5,296.1 819.5,292.4" fill="none" stroke="#9085e9" stroke-width="1.5" stroke-linejoin="round" stroke-linecap="round"/>
<rect x="14.7" y="196.4" width="11.6" height="159.6" fill="none" stroke="#e66767" stroke-width="1.3"/>
<rect x="35.8" y="196.4" width="11.6" height="81.5" fill="#008300"/>
<rect x="56.8" y="270.6" width="11.6" height="7.3" fill="none" stroke="#e66767" stroke-width="1.3"/>
<rect x="77.8" y="270.6" width="11.6" height="20.6" fill="#008300"/>
<rect x="98.8" y="291.3" width="11.6" height="1.2" fill="#008300"/>
<rect x="119.9" y="292.4" width="11.6" height="19.5" fill="#008300"/>
<rect x="140.9" y="304.7" width="11.6" height="7.3" fill="none" stroke="#e66767" stroke-width="1.3"/>
<rect x="161.9" y="234.4" width="11.6" height="70.3" fill="none" stroke="#e66767" stroke-width="1.3"/>
<rect x="182.9" y="79.8" width="11.6" height="154.6" fill="none" stroke="#e66767" stroke-width="1.3"/>
<rect x="204.0" y="79.8" width="11.6" height="64.2" fill="#008300"/>
<rect x="225.0" y="109.9" width="11.6" height="34.0" fill="none" stroke="#e66767" stroke-width="1.3"/>
<rect x="246.0" y="109.9" width="11.6" height="174.6" fill="#008300"/>
<rect x="267.0" y="269.0" width="11.6" height="15.6" fill="none" stroke="#e66767" stroke-width="1.3"/>
<rect x="288.1" y="269.0" width="11.6" height="11.2" fill="#008300"/>
<rect x="309.1" y="267.3" width="11.6" height="12.8" fill="none" stroke="#e66767" stroke-width="1.3"/>
<rect x="330.1" y="232.1" width="11.6" height="35.2" fill="none" stroke="#e66767" stroke-width="1.3"/>
<rect x="351.1" y="232.1" width="11.6" height="16.2" fill="#008300"/>
<rect x="372.2" y="248.3" width="11.6" height="22.3" fill="#008300"/>
<rect x="393.2" y="270.6" width="11.6" height="8.4" fill="#008300"/>
<rect x="414.2" y="279.0" width="11.6" height="9.5" fill="#008300"/>
<rect x="435.2" y="288.5" width="11.6" height="12.3" fill="#008300"/>
<rect x="456.3" y="219.3" width="11.6" height="81.5" fill="none" stroke="#e66767" stroke-width="1.3"/>
<rect x="477.3" y="219.3" width="11.6" height="35.2" fill="#008300"/>
<rect x="498.3" y="254.5" width="11.6" height="8.4" fill="#008300"/>
<rect x="519.3" y="262.8" width="11.6" height="28.5" fill="#008300"/>
<rect x="540.4" y="291.3" width="11.6" height="1.7" fill="#008300"/>
<rect x="561.4" y="287.9" width="11.6" height="5.0" fill="none" stroke="#e66767" stroke-width="1.3"/>
<rect x="582.4" y="279.6" width="11.6" height="8.4" fill="none" stroke="#e66767" stroke-width="1.3"/>
<rect x="603.4" y="279.6" width="11.6" height="23.4" fill="#008300"/>
<rect x="624.5" y="298.0" width="11.6" height="5.0" fill="none" stroke="#e66767" stroke-width="1.3"/>
<rect x="645.5" y="267.3" width="11.6" height="30.7" fill="none" stroke="#e66767" stroke-width="1.3"/>
<rect x="666.5" y="267.3" width="11.6" height="58.0" fill="#008300"/>
<rect x="687.6" y="317.5" width="11.6" height="7.8" fill="none" stroke="#e66767" stroke-width="1.3"/>
<rect x="708.6" y="304.1" width="11.6" height="13.4" fill="none" stroke="#e66767" stroke-width="1.3"/>
<rect x="729.6" y="260.0" width="11.6" height="44.1" fill="none" stroke="#e66767" stroke-width="1.3"/>
<rect x="750.6" y="260.0" width="11.6" height="15.1" fill="#008300"/>
<rect x="771.7" y="275.1" width="11.6" height="26.2" fill="#008300"/>
<rect x="792.7" y="289.0" width="11.6" height="12.3" fill="none" stroke="#e66767" stroke-width="1.3"/>
<rect x="813.7" y="289.0" width="11.6" height="11.2" fill="#008300"/>
<circle cx="188.7" cy="79.8" r="2" fill="#c3c2b7"/>
<line x1="188.7" y1="79.8" x2="196.7" y2="79.8" stroke="#c3c2b7" stroke-width="1.0"/>
<text x="199.7" y="83.8" font-size="11.0" fill="#c3c2b7">495</text>
<circle cx="20.5" cy="356.0" r="2" fill="#c3c2b7"/>
<line x1="20.5" y1="356.0" x2="28.5" y2="356.0" stroke="#c3c2b7" stroke-width="1.0"/>
<text x="31.5" y="350.0" font-size="11.0" fill="#c3c2b7">0</text>
<text x="14.0" y="376.0" font-size="11.0" fill="#c3c2b7">VOL 19 forks</text>
<text x="96.6" y="376.0" font-size="11.0" fill="#c98500">MA5:22.4</text>
<text x="155.0" y="376.0" font-size="11.0" fill="#3987e5">MA10:19.4</text>
<text x="14.0" y="395.0" font-size="10" fill="#898781">81</text>
<rect x="14.7" y="435.6" width="11.6" height="34.4" fill="none" stroke="#e66767" stroke-width="1.1"/>
<rect x="35.8" y="434.6" width="11.6" height="35.4" fill="#008300"/>
<rect x="56.8" y="447.7" width="11.6" height="22.3" fill="none" stroke="#e66767" stroke-width="1.1"/>
<rect x="77.8" y="435.6" width="11.6" height="34.4" fill="#008300"/>
<rect x="98.8" y="438.6" width="11.6" height="31.4" fill="#008300"/>
<rect x="119.9" y="452.8" width="11.6" height="17.2" fill="#008300"/>
<rect x="140.9" y="458.9" width="11.6" height="11.1" fill="none" stroke="#e66767" stroke-width="1.1"/>
<rect x="161.9" y="448.7" width="11.6" height="21.3" fill="none" stroke="#e66767" stroke-width="1.1"/>
<rect x="182.9" y="388.0" width="11.6" height="82.0" fill="none" stroke="#e66767" stroke-width="1.1"/>
<rect x="204.0" y="421.4" width="11.6" height="48.6" fill="#008300"/>
<rect x="225.0" y="395.1" width="11.6" height="74.9" fill="none" stroke="#e66767" stroke-width="1.1"/>
<rect x="246.0" y="434.6" width="11.6" height="35.4" fill="#008300"/>
<rect x="267.0" y="439.6" width="11.6" height="30.4" fill="none" stroke="#e66767" stroke-width="1.1"/>
<rect x="288.1" y="439.6" width="11.6" height="30.4" fill="#008300"/>
<rect x="309.1" y="436.6" width="11.6" height="33.4" fill="none" stroke="#e66767" stroke-width="1.1"/>
<rect x="330.1" y="442.7" width="11.6" height="27.3" fill="none" stroke="#e66767" stroke-width="1.1"/>
<rect x="351.1" y="425.5" width="11.6" height="44.5" fill="#008300"/>
<rect x="372.2" y="427.5" width="11.6" height="42.5" fill="#008300"/>
<rect x="393.2" y="441.7" width="11.6" height="28.3" fill="#008300"/>
<rect x="414.2" y="446.7" width="11.6" height="23.3" fill="#008300"/>
<rect x="435.2" y="444.7" width="11.6" height="25.3" fill="#008300"/>
<rect x="456.3" y="415.3" width="11.6" height="54.7" fill="none" stroke="#e66767" stroke-width="1.1"/>
<rect x="477.3" y="425.5" width="11.6" height="44.5" fill="#008300"/>
<rect x="498.3" y="419.4" width="11.6" height="50.6" fill="#008300"/>
<rect x="519.3" y="439.6" width="11.6" height="30.4" fill="#008300"/>
<rect x="540.4" y="449.8" width="11.6" height="20.2" fill="#008300"/>
<rect x="561.4" y="441.7" width="11.6" height="28.3" fill="none" stroke="#e66767" stroke-width="1.1"/>
<rect x="582.4" y="437.6" width="11.6" height="32.4" fill="none" stroke="#e66767" stroke-width="1.1"/>
<rect x="603.4" y="448.7" width="11.6" height="21.3" fill="#008300"/>
<rect x="624.5" y="452.8" width="11.6" height="17.2" fill="none" stroke="#e66767" stroke-width="1.1"/>
<rect x="645.5" y="441.7" width="11.6" height="28.3" fill="none" stroke="#e66767" stroke-width="1.1"/>
<rect x="666.5" y="460.9" width="11.6" height="9.1" fill="#008300"/>
<rect x="687.6" y="452.8" width="11.6" height="17.2" fill="none" stroke="#e66767" stroke-width="1.1"/>
<rect x="708.6" y="458.9" width="11.6" height="11.1" fill="none" stroke="#e66767" stroke-width="1.1"/>
<rect x="729.6" y="426.5" width="11.6" height="43.5" fill="none" stroke="#e66767" stroke-width="1.1"/>
<rect x="750.6" y="444.7" width="11.6" height="25.3" fill="#008300"/>
<rect x="771.7" y="453.8" width="11.6" height="16.2" fill="#008300"/>
<rect x="792.7" y="460.9" width="11.6" height="9.1" fill="none" stroke="#e66767" stroke-width="1.1"/>
<rect x="813.7" y="450.8" width="11.6" height="19.2" fill="#008300"/>
<polyline points="209.7,436.2 230.8,432.1 251.8,432.1 272.8,431.3 293.8,431.7 314.9,431.5 335.9,430.5 356.9,427.2 377.9,425.1 399.0,430.4 420.0,432.9 441.0,437.9 462.1,436.0 483.1,434.6 504.1,432.5 525.1,432.8 546.2,433.6 567.2,435.2 588.2,436.2 609.2,436.9 630.3,437.5 651.3,437.2 672.3,441.8 693.3,444.5 714.4,448.4 735.4,447.1 756.4,446.6 777.4,447.8 798.5,450.2 819.5,450.4" fill="none" stroke="#3987e5" stroke-width="1.5" stroke-linejoin="round" stroke-linecap="round"/>
<polyline points="104.6,438.4 125.6,441.9 146.7,446.7 167.7,446.9 188.7,437.4 209.7,434.0 230.8,422.4 251.8,417.6 272.8,415.7 293.8,426.1 314.9,429.1 335.9,438.6 356.9,436.8 377.9,434.4 399.0,434.8 420.0,436.8 441.0,437.2 462.1,435.2 483.1,434.8 504.1,430.3 525.1,428.9 546.2,429.9 567.2,435.2 588.2,437.6 609.2,443.5 630.3,446.1 651.3,444.5 672.3,448.3 693.3,451.4 714.4,453.4 735.4,448.1 756.4,448.7 777.4,447.3 798.5,448.9 819.5,447.3" fill="none" stroke="#c98500" stroke-width="1.5" stroke-linejoin="round" stroke-linecap="round"/>
</svg>