<svg xmlns="http://www.w3.org/2000/svg" viewBox="0 0 840 496" width="840" height="496" font-family="-apple-system,&#39;Segoe UI&#39;,system-ui,sans-serif" role="img" aria-label="jwasham/coding-interview-university candlestick chart">
<text x="14.0" y="20.0" font-size="15" fill="#0b0b0b" font-weight="650">jwasham/coding-interview-university</text>
<text x="306.8" y="20.0" font-size="11.5" fill="#52514e">daily · new stars, volume = new forks</text>
<text x="805.8" y="20.0" font-size="11.0" fill="#52514e">fall</text>
<rect x="791" y="10" width="9" height="12" fill="#008300"/>
<text x="750.6" y="20.0" font-size="11.0" fill="#52514e">rise</text>
<rect x="736" y="10" width="9" height="12" fill="none" stroke="#e34948" stroke-width="1.5"/>
<text x="14.0" y="38.0" font-size="11.0" fill="#898781">last 47 days · +7,005 stars · +1,278 forks · updated 2026-07-22</text>
<rect x="10" y="66" width="820" height="290" fill="none" stroke="#e1e0d9"/>
<rect x="10" y="384" width="820" height="86" fill="none" stroke="#e1e0d9"/>
<text x="38.0" y="490.0" font-size="11.0" fill="#898781" text-anchor="middle">2026-06</text>
<line x1="446.2" y1="66.0" x2="446.2" y2="356.0" stroke="#e1e0d9" stroke-width="1.0"/>
<line x1="446.2" y1="384.0" x2="446.2" y2="470.0" stroke="#e1e0d9" stroke-width="1.0"/>
<text x="454.9" y="490.0" font-size="11.0" fill="#898781" text-anchor="middle">2026-07</text>
<text x="14.0" y="58.0" font-size="11.0" fill="#52514e">BOLL(20,2)</text>
<text x="84.5" y="58.0" font-size="11.0" fill="#eda100">UP:167.5</text>
<text x="142.9" y="58.0" font-size="11.0" fill="#2a78d6">MID:102.0</text>
<text x="207.4" y="58.0" font-size="11.0" fill="#e87ba4">LOW:36.6</text>
<text x="265.8" y="58.0" font-size="11.0" fill="#4a3aa7">MA7:87.3</text>
<line x1="10.0" y1="356.0" x2="830.0" y2="356.0" stroke="#e1e0d9" stroke-width="1.0"/>
<text x="14.0" y="353.0" font-size="11.0" fill="#898781">0</text>
<line x1="10.0" y1="244.4" x2="830.0" y2="244.4" stroke="#e1e0d9" stroke-width="1.0"/>
<text x="14.0" y="241.4" font-size="11.0" fill="#898781">200</text>
<line x1="10.0" y1="132.8" x2="830.0" y2="132.8" stroke="#e1e0d9" stroke-width="1.0"/>
<text x="14.0" y="129.8" font-size="11.0" fill="#898781">400</text>
<polyline points="350.2,120.1 367.7,125.4 385.1,122.3 402.6,121.9 420.0,121.8 437.4,121.8 454.9,122.6 472.3,123.2 489.8,124.6 507.2,160.6 524.7,182.3 542.1,230.4 559.6,227.1 577.0,226.4 594.5,226.4 611.9,225.6 629.4,232.2 646.8,236.6 664.3,237.9 681.7,238.6 699.1,238.5 716.6,238.5 734.0,253.4 751.5,259.5 768.9,263.5 786.4,264.0 803.8,264.4 821.3,262.6" fill="none" stroke="#eda100" stroke-width="1.5" stroke-linejoin="round" stroke-linecap="round"/>
<polyline points="350.2,246.6 367.7,251.9 385.1,248.9 402.6,248.1 420.0,246.7 437.4,246.6 454.9,245.7 472.3,244.9 489.8,247.1 507.2,258.3 524.7,266.0 542.1,273.8 559.6,275.9 577.0,278.3 594.5,279.5 611.9,279.1 629.4,281.3 646.8,283.9 664.3,284.9 681.7,285.9 699.1,287.0 716.6,287.1 734.0,291.6 751.5,294.3 768.9,297.3 786.4,298.5 803.8,299.7 821.3,299.1" fill="none" stroke="#2a78d6" stroke-width="1.5" stroke-linejoin="round" stroke-linecap="round"/>
<polyline points="350.2,356.0 367.7,356.0 385.1,356.0 402.6,356.0 420.0,356.0 437.4,356.0 454.9,356.0 472.3,356.0 489.8,356.0 507.2,355.9 524.7,349.7 542.1,317.3 559.6,324.6 577.0,330.2 594.5,332.6 611.9,332.6 629.4,330.3 646.8,331.3 664.3,331.8 681.7,333.3 699.1,335.5 716.6,335.8 734.0,329.7 751.5,329.1 768.9,331.0 786.4,333.0 803.8,335.0 821.3,335.6" fill="none" stroke="#e87ba4" stroke-width="1.5" stroke-linejoin="round" stroke-linecap="round"/>
<polyline points="123.4,277.9 140.9,283.3 158.3,255.0 175.7,236.9 193.2,211.0 210.6,209.9 228.1,203.7 245.5,200.3 263.0,205.0 280.4,226.7 297.9,241.6 315.3,264.6 332.8,263.8 350.2,266.6 367.7,269.5 385.1,262.7 402.6,265.8 420.0,267.9 437.4,270.9 454.9,272.9 472.3,272.8 489.8,269.7 507.2,281.7 524.7,287.9 542.1,288.5 559.6,293.5 577.0,296.9 594.5,299.3 611.9,296.5 629.4,292.4 646.8,293.0 664.3,296.1 681.7,292.4 699.1,291.3 716.6,291.3 734.0,298.1 751.5,303.0 768.9,306.0 786.4,309.7 803.8,312.1 821.3,307.3" fill="none" stroke="#4a3aa7" stroke-width="1.5" stroke-linejoin="round" stroke-linecap="round"/>
<rect x="13.9" y="196.4" width="9.6" height="159.6" fill="none" stroke="#e34948" stroke-width="1.3"/>
<rect x="31.4" y="196.4" width="9.6" height="81.5" fill="#008300"/>
<rect x="48.8" y="270.6" width="9.6" height="7.3" fill="none" stroke="#e34948" stroke-width="1.3"/>
<rect x="66.3" y="270.6" width="9.6" height="20.6" fill="#008300"/>
<rect x="83.7" y="291.3" width="9.6" height="1.2" fill="#008300"/>
<rect x="101.2" y="292.4" width="9.6" height="19.5" fill="#008300"/>
<rect x="118.6" y="304.7" width="9.6" height="7.3" fill="none" stroke="#e34948" stroke-width="1.3"/>
<rect x="136.1" y="234.4" width="9.6" height="70.3" fill="none" stroke="#e34948" stroke-width="1.3"/>
<rect x="153.5" y="79.8" width="9.6" height="154.6" fill="none" stroke="#e34948" stroke-width="1.3"/>
<rect x="170.9" y="79.8" width="9.6" height="64.2" fill="#008300"/>
<rect x="188.4" y="109.9" width="9.6" height="34.0" fill="none" stroke="#e34948" stroke-width="1.3"/>
<rect x="205.8" y="109.9" width="9.6" height="174.6" fill="#008300"/>
<rect x="223.3" y="269.0" width="9.6" height="15.6" fill="none" stroke="#e34948" stroke-width="1.3"/>
<rect x="240.7" y="269.0" width="9.6" height="11.2" fill="#008300"/>
<rect x="258.2" y="267.3" width="9.6" height="12.8" fill="none" stroke="#e34948" stroke-width="1.3"/>
<rect x="275.6" y="232.1" width="9.6" height="35.2" fill="none" stroke="#e34948" stroke-width="1.3"/>
<rect x="293.1" y="232.1" width="9.6" height="16.2" fill="#008300"/>
<rect x="310.5" y="248.3" width="9.6" height="22.3" fill="#008300"/>
<rect x="328.0" y="270.6" width="9.6" height="8.4" fill="#008300"/>
<rect x="345.4" y="279.0" width="9.6" height="9.5" fill="#008300"/>
<rect x="362.9" y="288.5" width="9.6" height="12.3" fill="#008300"/>
<rect x="380.3" y="219.3" width="9.6" height="81.5" fill="none" stroke="#e34948" stroke-width="1.3"/>
<rect x="397.8" y="219.3" width="9.6" height="35.2" fill="#008300"/>
<rect x="415.2" y="254.5" width="9.6" height="8.4" fill="#008300"/>
<rect x="432.6" y="262.8" width="9.6" height="28.5" fill="#008300"/>
<rect x="450.1" y="291.3" width="9.6" height="1.7" fill="#008300"/>
<rect x="467.5" y="287.9" width="9.6" height="5.0" fill="none" stroke="#e34948" stroke-width="1.3"/>
<rect x="485.0" y="279.6" width="9.6" height="8.4" fill="none" stroke="#e34948" stroke-width="1.3"/>
<rect x="502.4" y="279.6" width="9.6" height="23.4" fill="#008300"/>
<rect x="519.9" y="298.0" width="9.6" height="5.0" fill="none" stroke="#e34948" stroke-width="1.3"/>
<rect x="537.3" y="267.3" width="9.6" height="30.7" fill="none" stroke="#e34948" stroke-width="1.3"/>
<rect x="554.8" y="267.3" width="9.6" height="58.0" fill="#008300"/>
<rect x="572.2" y="317.5" width="9.6" height="7.8" fill="none" stroke="#e34948" stroke-width="1.3"/>
<rect x="589.7" y="304.1" width="9.6" height="13.4" fill="none" stroke="#e34948" stroke-width="1.3"/>
<rect x="607.1" y="260.0" width="9.6" height="44.1" fill="none" stroke="#e34948" stroke-width="1.3"/>
<rect x="624.6" y="260.0" width="9.6" height="15.1" fill="#008300"/>
<rect x="642.0" y="275.1" width="9.6" height="26.2" fill="#008300"/>
<rect x="659.5" y="289.0" width="9.6" height="12.3" fill="none" stroke="#e34948" stroke-width="1.3"/>
<rect x="676.9" y="289.0" width="9.6" height="11.2" fill="#008300"/>
<rect x="694.4" y="300.2" width="9.6" height="9.5" fill="#008300"/>
<rect x="711.8" y="303.6" width="9.6" height="6.1" fill="none" stroke="#e34948" stroke-width="1.3"/>
<rect x="729.2" y="303.6" width="9.6" height="4.5" fill="#008300"/>
<rect x="746.7" y="308.0" width="9.6" height="1.2" fill="#008300"/>
<rect x="764.1" y="309.1" width="9.6" height="13.4" fill="#008300"/>
<rect x="781.6" y="315.3" width="9.6" height="7.3" fill="none" stroke="#e34948" stroke-width="1.3"/>
<rect x="799.0" y="315.3" width="9.6" height="1.7" fill="#008300"/>
<rect x="816.5" y="275.7" width="9.6" height="41.3" fill="none" stroke="#e34948" stroke-width="1.3"/>
<circle cx="158.3" cy="79.8" r="2" fill="#52514e"/>
<line x1="158.3" y1="79.8" x2="166.3" y2="79.8" stroke="#52514e" stroke-width="1.0"/>
<text x="169.3" y="83.8" font-size="11.0" fill="#52514e">495</text>
<circle cx="18.7" cy="356.0" r="2" fill="#52514e"/>
<line x1="18.7" y1="356.0" x2="26.7" y2="356.0" stroke="#52514e" stroke-width="1.0"/>
<text x="29.7" y="350.0" font-size="11.0" fill="#52514e">0</text>
<text x="14.0" y="376.0" font-size="11.0" fill="#52514e">VOL 16 forks</text>
<text x="96.6" y="376.0" font-size="11.0" fill="#eda100">MA5:9.6</text>
<text x="149.0" y="376.0" font-size="11.0" fill="#2a78d6">MA10:10.8</text>
<text x="14.0" y="395.0" font-size="10" fill="#898781">81</text>
<rect x="13.9" y="435.6" width="9.6" height="34.4" fill="none" stroke="#e34948" stroke-width="1.1"/>
<rect x="31.4" y="434.6" width="9.6" height="35.4" fill="#008300"/>
<rect x="48.8" y="447.7" width="9.6" height="22.3" fill="none" stroke="#e34948" stroke-width="1.1"/>
<rect x="66.3" y="435.6" width="9.6" height="34.4" fill="#008300"/>
<rect x="83.7" y="438.6" width="9.6" height="31.4" fill="#008300"/>
<rect x="101.2" y="452.8" width="9.6" height="17.2" fill="#008300"/>
<rect x="118.6" y="458.9" width="9.6" height="11.1" fill="none" stroke="#e34948" stroke-width="1.1"/>
<rect x="136.1" y="448.7" width="9.6" height="21.3" fill="none" stroke="#e34948" stroke-width="1.1"/>
<rect x="153.5" y="388.0" width="9.6" height="82.0" fill="none" stroke="#e34948" stroke-width="1.1"/>
<rect x="170.9" y="421.4" width="9.6" height="48.6" fill="#008300"/>
<rect x="188.4" y="395.1" width="9.6" height="74.9" fill="none" stroke="#e34948" stroke-width="1.1"/>
<rect x="205.8" y="434.6" width="9.6" height="35.4" fill="#008300"/>
<rect x="223.3" y="439.6" width="9.6" height="30.4" fill="none" stroke="#e34948" stroke-width="1.1"/>
<rect x="240.7" y="439.6" width="9.6" height="30.4" fill="#008300"/>
<rect x="258.2" y="436.6" width="9.6" height="33.4" fill="none" stroke="#e34948" stroke-width="1.1"/>
<rect x="275.6" y="442.7" width="9.6" height="27.3" fill="none" stroke="#e34948" stroke-width="1.1"/>
<rect x="293.1" y="425.5" width="9.6" height="44.5" fill="#008300"/>
<rect x="310.5" y="427.5" width="9.6" height="42.5" fill="#008300"/>
<rect x="328.0" y="441.7" width="9.6" height="28.3" fill="#008300"/>
<rect x="345.4" y="446.7" width="9.6" height="23.3" fill="#008300"/>
<rect x="362.9" y="444.7" width="9.6" height="25.3" fill="#008300"/>
<rect x="380.3" y="415.3" width="9.6" height="54.7" fill="none" stroke="#e34948" stroke-width="1.1"/>
<rect x="397.8" y="425.5" width="9.6" height="44.5" fill="#008300"/>
<rect x="415.2" y="419.4" width="9.6" height="50.6" fill="#008300"/>
<rect x="432.6" y="439.6" width="9.6" height="30.4" fill="#008300"/>
<rect x="450.1" y="449.8" width="9.6" height="20.2" fill="#008300"/>
<rect x="467.5" y="441.7" width="9.6" height="28.3" fill="none" stroke="#e34948" stroke-width="1.1"/>
<rect x="485.0" y="437.6" width="9.6" height="32.4" fill="none" stroke="#e34948" stroke-width="1.1"/>
<rect x="502.4" y="448.7" width="9.6" height="21.3" fill="#008300"/>
<rect x="519.9" y="452.8" width="9.6" height="17.2" fill="none" stroke="#e34948" stroke-width="1.1"/>
<rect x="537.3" y="441.7" width="9.6" height="28.3" fill="none" stroke="#e34948" stroke-width="1.1"/>
<rect x="554.8" y="460.9" width="9.6" height="9.1" fill="#008300"/>
<rect x="572.2" y="452.8" width="9.6" height="17.2" fill="none" stroke="#e34948" stroke-width="1.1"/>
<rect x="589.7" y="458.9" width="9.6" height="11.1" fill="none" stroke="#e34948" stroke-width="1.1"/>
<rect x="607.1" y="426.5" width="9.6" height="43.5" fill="none" stroke="#e34948" stroke-width="1.1"/>
<rect x="624.6" y="444.7" width="9.6" height="25.3" fill="#008300"/>
<rect x="642.0" y="453.8" width="9.6" height="16.2" fill="#008300"/>
<rect x="659.5" y="460.9" width="9.6" height="9.1" fill="none" stroke="#e34948" stroke-width="1.1"/>
<rect x="676.9" y="450.8" width="9.6" height="19.2" fill="#008300"/>
<rect x="694.4" y="460.9" width="9.6" height="9.1" fill="#008300"/>
<rect x="711.8" y="466.0" width="9.6" height="4.0" fill="none" stroke="#e34948" stroke-width="1.1"/>
<rect x="729.2" y="450.8" width="9.6" height="19.2" fill="#008300"/>
<rect x="746.7" y="463.9" width="9.6" height="6.1" fill="#008300"/>
<rect x="764.1" y="452.8" width="9.6" height="17.2" fill="#008300"/>
<rect x="781.6" y="461.9" width="9.6" height="8.1" fill="none" stroke="#e34948" stroke-width="1.1"/>
<rect x="799.0" y="469.0" width="9.6" height="1.0" fill="#008300"/>
<rect x="816.5" y="453.8" width="9.6" height="16.2" fill="none" stroke="#e34948" stroke-width="1.1"/>
<polyline points="175.7,436.2 193.2,432.1 210.6,432.1 228.1,431.3 245.5,431.7 263.0,431.5 280.4,430.5 297.9,427.2 315.3,425.1 332.8,430.4 350.2,432.9 367.7,437.9 385.1,436.0 402.6,434.6 420.0,432.5 437.4,432.8 454.9,433.6 472.3,435.2 489.8,436.2 507.2,436.9 524.7,437.5 542.1,437.2 559.6,441.8 577.0,444.5 594.5,448.4 611.9,447.1 629.4,446.6 646.8,447.8 664.3,450.2 681.7,450.4 699.1,451.2 716.6,453.6 734.0,452.6 751.5,453.7 768.9,453.1 786.4,456.6 803.8,459.1 821.3,459.1" fill="none" stroke="#2a78d6" stroke-width="1.5" stroke-linejoin="round" stroke-linecap="round"/>
<polyline points="88.5,438.4 106.0,441.9 123.4,446.7 140.9,446.9 158.3,437.4 175.7,434.0 193.2,422.4 210.6,417.6 228.1,415.7 245.5,426.1 263.0,429.1 280.4,438.6 297.9,436.8 315.3,434.4 332.8,434.8 350.2,436.8 367.7,437.2 385.1,435.2 402.6,434.8 420.0,430.3 437.4,428.9 454.9,429.9 472.3,435.2 489.8,437.6 507.2,443.5 524.7,446.1 542.1,444.5 559.6,448.3 577.0,451.4 594.5,453.4 611.9,448.1 629.4,448.7 646.8,447.3 664.3,448.9 681.7,447.3 699.1,454.2 716.6,458.5 734.0,457.9 751.5,458.5 768.9,458.9 786.4,459.1 803.8,459.7 821.3,460.3" fill="none" stroke="#eda100" stroke-width="1.5" stroke-linejoin="round" stroke-linecap="round"/>
</svg>