<svg xmlns="http://www.w3.org/2000/svg" viewBox="0 0 840 496" width="840" height="496" font-family="-apple-system,&#39;Segoe UI&#39;,system-ui,sans-serif" role="img" aria-label="jwasham/coding-interview-university candlestick chart">
<text x="14.0" y="20.0" font-size="15" fill="#0b0b0b" font-weight="650">jwasham/coding-interview-university</text>
<text x="306.8" y="20.0" font-size="11.5" fill="#52514e">daily · new stars, volume = new forks</text>
<text x="805.8" y="20.0" font-size="11.0" fill="#52514e">fall</text>
<rect x="791" y="10" width="9" height="12" fill="#008300"/>
<text x="750.6" y="20.0" font-size="11.0" fill="#52514e">rise</text>
<rect x="736" y="10" width="9" height="12" fill="none" stroke="#e34948" stroke-width="1.5"/>
<text x="14.0" y="38.0" font-size="11.0" fill="#898781">last 41 days · +6,488 stars · +1,211 forks · updated 2026-07-16</text>
<rect x="10" y="66" width="820" height="290" fill="none" stroke="#e1e0d9"/>
<rect x="10" y="384" width="820" height="86" fill="none" stroke="#e1e0d9"/>
<text x="38.0" y="490.0" font-size="11.0" fill="#898781" text-anchor="middle">2026-06</text>
<line x1="510.0" y1="66.0" x2="510.0" y2="356.0" stroke="#e1e0d9" stroke-width="1.0"/>
<line x1="510.0" y1="384.0" x2="510.0" y2="470.0" stroke="#e1e0d9" stroke-width="1.0"/>
<text x="520.0" y="490.0" font-size="11.0" fill="#898781" text-anchor="middle">2026-07</text>
<text x="14.0" y="58.0" font-size="11.0" fill="#52514e">BOLL(20,2)</text>
<text x="84.5" y="58.0" font-size="11.0" fill="#eda100">UP:210.6</text>
<text x="142.9" y="58.0" font-size="11.0" fill="#2a78d6">MID:123.5</text>
<text x="207.4" y="58.0" font-size="11.0" fill="#e87ba4">LOW:36.3</text>
<text x="265.8" y="58.0" font-size="11.0" fill="#4a3aa7">MA7:116</text>
<line x1="10.0" y1="356.0" x2="830.0" y2="356.0" stroke="#e1e0d9" stroke-width="1.0"/>
<text x="14.0" y="353.0" font-size="11.0" fill="#898781">0</text>
<line x1="10.0" y1="244.4" x2="830.0" y2="244.4" stroke="#e1e0d9" stroke-width="1.0"/>
<text x="14.0" y="241.4" font-size="11.0" fill="#898781">200</text>
<line x1="10.0" y1="132.8" x2="830.0" y2="132.8" stroke="#e1e0d9" stroke-width="1.0"/>
<text x="14.0" y="129.8" font-size="11.0" fill="#898781">400</text>
<polyline points="400.0,120.1 420.0,125.4 440.0,122.3 460.0,121.9 480.0,121.8 500.0,121.8 520.0,122.6 540.0,123.2 560.0,124.6 580.0,160.6 600.0,182.3 620.0,230.4 640.0,227.1 660.0,226.4 680.0,226.4 700.0,225.6 720.0,232.2 740.0,236.6 760.0,237.9 780.0,238.6 800.0,238.5 820.0,238.5" fill="none" stroke="#eda100" stroke-width="1.5" stroke-linejoin="round" stroke-linecap="round"/>
<polyline points="400.0,246.6 420.0,251.9 440.0,248.9 460.0,248.1 480.0,246.7 500.0,246.6 520.0,245.7 540.0,244.9 560.0,247.1 580.0,258.3 600.0,266.0 620.0,273.8 640.0,275.9 660.0,278.3 680.0,279.5 700.0,279.1 720.0,281.3 740.0,283.9 760.0,284.9 780.0,285.9 800.0,287.0 820.0,287.1" fill="none" stroke="#2a78d6" stroke-width="1.5" stroke-linejoin="round" stroke-linecap="round"/>
<polyline points="400.0,356.0 420.0,356.0 440.0,356.0 460.0,356.0 480.0,356.0 500.0,356.0 520.0,356.0 540.0,356.0 560.0,356.0 580.0,355.9 600.0,349.7 620.0,317.3 640.0,324.6 660.0,330.2 680.0,332.6 700.0,332.6 720.0,330.3 740.0,331.3 760.0,331.8 780.0,333.3 800.0,335.5 820.0,335.8" fill="none" stroke="#e87ba4" stroke-width="1.5" stroke-linejoin="round" stroke-linecap="round"/>
<polyline points="140.0,277.9 160.0,283.3 180.0,255.0 200.0,236.9 220.0,211.0 240.0,209.9 260.0,203.7 280.0,200.3 300.0,205.0 320.0,226.7 340.0,241.6 360.0,264.6 380.0,263.8 400.0,266.6 420.0,269.5 440.0,262.7 460.0,265.8 480.0,267.9 500.0,270.9 520.0,272.9 540.0,272.8 560.0,269.7 580.0,281.7 600.0,287.9 620.0,288.5 640.0,293.5 660.0,296.9 680.0,299.3 700.0,296.5 720.0,292.4 740.0,293.0 760.0,296.1 780.0,292.4 800.0,291.3 820.0,291.3" fill="none" stroke="#4a3aa7" stroke-width="1.5" stroke-linejoin="round" stroke-linecap="round"/>
<rect x="14.5" y="196.4" width="11.0" height="159.6" fill="none" stroke="#e34948" stroke-width="1.3"/>
<rect x="34.5" y="196.4" width="11.0" height="81.5" fill="#008300"/>
<rect x="54.5" y="270.6" width="11.0" height="7.3" fill="none" stroke="#e34948" stroke-width="1.3"/>
<rect x="74.5" y="270.6" width="11.0" height="20.6" fill="#008300"/>
<rect x="94.5" y="291.3" width="11.0" height="1.2" fill="#008300"/>
<rect x="114.5" y="292.4" width="11.0" height="19.5" fill="#008300"/>
<rect x="134.5" y="304.7" width="11.0" height="7.3" fill="none" stroke="#e34948" stroke-width="1.3"/>
<rect x="154.5" y="234.4" width="11.0" height="70.3" fill="none" stroke="#e34948" stroke-width="1.3"/>
<rect x="174.5" y="79.8" width="11.0" height="154.6" fill="none" stroke="#e34948" stroke-width="1.3"/>
<rect x="194.5" y="79.8" width="11.0" height="64.2" fill="#008300"/>
<rect x="214.5" y="109.9" width="11.0" height="34.0" fill="none" stroke="#e34948" stroke-width="1.3"/>
<rect x="234.5" y="109.9" width="11.0" height="174.6" fill="#008300"/>
<rect x="254.5" y="269.0" width="11.0" height="15.6" fill="none" stroke="#e34948" stroke-width="1.3"/>
<rect x="274.5" y="269.0" width="11.0" height="11.2" fill="#008300"/>
<rect x="294.5" y="267.3" width="11.0" height="12.8" fill="none" stroke="#e34948" stroke-width="1.3"/>
<rect x="314.5" y="232.1" width="11.0" height="35.2" fill="none" stroke="#e34948" stroke-width="1.3"/>
<rect x="334.5" y="232.1" width="11.0" height="16.2" fill="#008300"/>
<rect x="354.5" y="248.3" width="11.0" height="22.3" fill="#008300"/>
<rect x="374.5" y="270.6" width="11.0" height="8.4" fill="#008300"/>
<rect x="394.5" y="279.0" width="11.0" height="9.5" fill="#008300"/>
<rect x="414.5" y="288.5" width="11.0" height="12.3" fill="#008300"/>
<rect x="434.5" y="219.3" width="11.0" height="81.5" fill="none" stroke="#e34948" stroke-width="1.3"/>
<rect x="454.5" y="219.3" width="11.0" height="35.2" fill="#008300"/>
<rect x="474.5" y="254.5" width="11.0" height="8.4" fill="#008300"/>
<rect x="494.5" y="262.8" width="11.0" height="28.5" fill="#008300"/>
<rect x="514.5" y="291.3" width="11.0" height="1.7" fill="#008300"/>
<rect x="534.5" y="287.9" width="11.0" height="5.0" fill="none" stroke="#e34948" stroke-width="1.3"/>
<rect x="554.5" y="279.6" width="11.0" height="8.4" fill="none" stroke="#e34948" stroke-width="1.3"/>
<rect x="574.5" y="279.6" width="11.0" height="23.4" fill="#008300"/>
<rect x="594.5" y="298.0" width="11.0" height="5.0" fill="none" stroke="#e34948" stroke-width="1.3"/>
<rect x="614.5" y="267.3" width="11.0" height="30.7" fill="none" stroke="#e34948" stroke-width="1.3"/>
<rect x="634.5" y="267.3" width="11.0" height="58.0" fill="#008300"/>
<rect x="654.5" y="317.5" width="11.0" height="7.8" fill="none" stroke="#e34948" stroke-width="1.3"/>
<rect x="674.5" y="304.1" width="11.0" height="13.4" fill="none" stroke="#e34948" stroke-width="1.3"/>
<rect x="694.5" y="260.0" width="11.0" height="44.1" fill="none" stroke="#e34948" stroke-width="1.3"/>
<rect x="714.5" y="260.0" width="11.0" height="15.1" fill="#008300"/>
<rect x="734.5" y="275.1" width="11.0" height="26.2" fill="#008300"/>
<rect x="754.5" y="289.0" width="11.0" height="12.3" fill="none" stroke="#e34948" stroke-width="1.3"/>
<rect x="774.5" y="289.0" width="11.0" height="11.2" fill="#008300"/>
<rect x="794.5" y="300.2" width="11.0" height="9.5" fill="#008300"/>
<rect x="814.5" y="303.6" width="11.0" height="6.1" fill="none" stroke="#e34948" stroke-width="1.3"/>
<circle cx="180.0" cy="79.8" r="2" fill="#52514e"/>
<line x1="180.0" y1="79.8" x2="188.0" y2="79.8" stroke="#52514e" stroke-width="1.0"/>
<text x="191.0" y="83.8" font-size="11.0" fill="#52514e">495</text>
<circle cx="20.0" cy="356.0" r="2" fill="#52514e"/>
<line x1="20.0" y1="356.0" x2="28.0" y2="356.0" stroke="#52514e" stroke-width="1.0"/>
<text x="31.0" y="350.0" font-size="11.0" fill="#52514e">0</text>
<text x="14.0" y="376.0" font-size="11.0" fill="#52514e">VOL 4 forks</text>
<text x="90.6" y="376.0" font-size="11.0" fill="#eda100">MA5:11.4</text>
<text x="149.0" y="376.0" font-size="11.0" fill="#2a78d6">MA10:16.2</text>
<text x="14.0" y="395.0" font-size="10" fill="#898781">81</text>
<rect x="14.5" y="435.6" width="11.0" height="34.4" fill="none" stroke="#e34948" stroke-width="1.1"/>
<rect x="34.5" y="434.6" width="11.0" height="35.4" fill="#008300"/>
<rect x="54.5" y="447.7" width="11.0" height="22.3" fill="none" stroke="#e34948" stroke-width="1.1"/>
<rect x="74.5" y="435.6" width="11.0" height="34.4" fill="#008300"/>
<rect x="94.5" y="438.6" width="11.0" height="31.4" fill="#008300"/>
<rect x="114.5" y="452.8" width="11.0" height="17.2" fill="#008300"/>
<rect x="134.5" y="458.9" width="11.0" height="11.1" fill="none" stroke="#e34948" stroke-width="1.1"/>
<rect x="154.5" y="448.7" width="11.0" height="21.3" fill="none" stroke="#e34948" stroke-width="1.1"/>
<rect x="174.5" y="388.0" width="11.0" height="82.0" fill="none" stroke="#e34948" stroke-width="1.1"/>
<rect x="194.5" y="421.4" width="11.0" height="48.6" fill="#008300"/>
<rect x="214.5" y="395.1" width="11.0" height="74.9" fill="none" stroke="#e34948" stroke-width="1.1"/>
<rect x="234.5" y="434.6" width="11.0" height="35.4" fill="#008300"/>
<rect x="254.5" y="439.6" width="11.0" height="30.4" fill="none" stroke="#e34948" stroke-width="1.1"/>
<rect x="274.5" y="439.6" width="11.0" height="30.4" fill="#008300"/>
<rect x="294.5" y="436.6" width="11.0" height="33.4" fill="none" stroke="#e34948" stroke-width="1.1"/>
<rect x="314.5" y="442.7" width="11.0" height="27.3" fill="none" stroke="#e34948" stroke-width="1.1"/>
<rect x="334.5" y="425.5" width="11.0" height="44.5" fill="#008300"/>
<rect x="354.5" y="427.5" width="11.0" height="42.5" fill="#008300"/>
<rect x="374.5" y="441.7" width="11.0" height="28.3" fill="#008300"/>
<rect x="394.5" y="446.7" width="11.0" height="23.3" fill="#008300"/>
<rect x="414.5" y="444.7" width="11.0" height="25.3" fill="#008300"/>
<rect x="434.5" y="415.3" width="11.0" height="54.7" fill="none" stroke="#e34948" stroke-width="1.1"/>
<rect x="454.5" y="425.5" width="11.0" height="44.5" fill="#008300"/>
<rect x="474.5" y="419.4" width="11.0" height="50.6" fill="#008300"/>
<rect x="494.5" y="439.6" width="11.0" height="30.4" fill="#008300"/>
<rect x="514.5" y="449.8" width="11.0" height="20.2" fill="#008300"/>
<rect x="534.5" y="441.7" width="11.0" height="28.3" fill="none" stroke="#e34948" stroke-width="1.1"/>
<rect x="554.5" y="437.6" width="11.0" height="32.4" fill="none" stroke="#e34948" stroke-width="1.1"/>
<rect x="574.5" y="448.7" width="11.0" height="21.3" fill="#008300"/>
<rect x="594.5" y="452.8" width="11.0" height="17.2" fill="none" stroke="#e34948" stroke-width="1.1"/>
<rect x="614.5" y="441.7" width="11.0" height="28.3" fill="none" stroke="#e34948" stroke-width="1.1"/>
<rect x="634.5" y="460.9" width="11.0" height="9.1" fill="#008300"/>
<rect x="654.5" y="452.8" width="11.0" height="17.2" fill="none" stroke="#e34948" stroke-width="1.1"/>
<rect x="674.5" y="458.9" width="11.0" height="11.1" fill="none" stroke="#e34948" stroke-width="1.1"/>
<rect x="694.5" y="426.5" width="11.0" height="43.5" fill="none" stroke="#e34948" stroke-width="1.1"/>
<rect x="714.5" y="444.7" width="11.0" height="25.3" fill="#008300"/>
<rect x="734.5" y="453.8" width="11.0" height="16.2" fill="#008300"/>
<rect x="754.5" y="460.9" width="11.0" height="9.1" fill="none" stroke="#e34948" stroke-width="1.1"/>
<rect x="774.5" y="450.8" width="11.0" height="19.2" fill="#008300"/>
<rect x="794.5" y="460.9" width="11.0" height="9.1" fill="#008300"/>
<rect x="814.5" y="466.0" width="11.0" height="4.0" fill="none" stroke="#e34948" stroke-width="1.1"/>
<polyline points="200.0,436.2 220.0,432.1 240.0,432.1 260.0,431.3 280.0,431.7 300.0,431.5 320.0,430.5 340.0,427.2 360.0,425.1 380.0,430.4 400.0,432.9 420.0,437.9 440.0,436.0 460.0,434.6 480.0,432.5 500.0,432.8 520.0,433.6 540.0,435.2 560.0,436.2 580.0,436.9 600.0,437.5 620.0,437.2 640.0,441.8 660.0,444.5 680.0,448.4 700.0,447.1 720.0,446.6 740.0,447.8 760.0,450.2 780.0,450.4 800.0,451.2 820.0,453.6" fill="none" stroke="#2a78d6" stroke-width="1.5" stroke-linejoin="round" stroke-linecap="round"/>
<polyline points="100.0,438.4 120.0,441.9 140.0,446.7 160.0,446.9 180.0,437.4 200.0,434.0 220.0,422.4 240.0,417.6 260.0,415.7 280.0,426.1 300.0,429.1 320.0,438.6 340.0,436.8 360.0,434.4 380.0,434.8 400.0,436.8 420.0,437.2 440.0,435.2 460.0,434.8 480.0,430.3 500.0,428.9 520.0,429.9 540.0,435.2 560.0,437.6 580.0,443.5 600.0,446.1 620.0,444.5 640.0,448.3 660.0,451.4 680.0,453.4 700.0,448.1 720.0,448.7 740.0,447.3 760.0,448.9 780.0,447.3 800.0,454.2 820.0,458.5" fill="none" stroke="#eda100" stroke-width="1.5" stroke-linejoin="round" stroke-linecap="round"/>
</svg>