<svg xmlns="http://www.w3.org/2000/svg" viewBox="0 0 840 496" width="840" height="496" font-family="-apple-system,&#39;Segoe UI&#39;,system-ui,sans-serif" role="img" aria-label="jwasham/coding-interview-university candlestick chart">
<text x="14.0" y="20.0" font-size="15" fill="#0b0b0b" font-weight="650">jwasham/coding-interview-university</text>
<text x="306.8" y="20.0" font-size="11.5" fill="#52514e">daily · new stars, volume = new forks</text>
<text x="805.8" y="20.0" font-size="11.0" fill="#52514e">fall</text>
<rect x="791" y="10" width="9" height="12" fill="#008300"/>
<text x="750.6" y="20.0" font-size="11.0" fill="#52514e">rise</text>
<rect x="736" y="10" width="9" height="12" fill="none" stroke="#e34948" stroke-width="1.5"/>
<text x="14.0" y="38.0" font-size="11.0" fill="#898781">last 34 days · +5,676 stars · +1,086 forks · updated 2026-07-09</text>
<rect x="10" y="66" width="820" height="290" fill="none" stroke="#e1e0d9"/>
<rect x="10" y="384" width="820" height="86" fill="none" stroke="#e1e0d9"/>
<text x="38.0" y="490.0" font-size="11.0" fill="#898781" text-anchor="middle">2026-06</text>
<line x1="612.9" y1="66.0" x2="612.9" y2="356.0" stroke="#e1e0d9" stroke-width="1.0"/>
<line x1="612.9" y1="384.0" x2="612.9" y2="470.0" stroke="#e1e0d9" stroke-width="1.0"/>
<text x="625.0" y="490.0" font-size="11.0" fill="#898781" text-anchor="middle">2026-07</text>
<text x="14.0" y="58.0" font-size="11.0" fill="#52514e">BOLL(20,2)</text>
<text x="84.5" y="58.0" font-size="11.0" fill="#eda100">UP:232.2</text>
<text x="142.9" y="58.0" font-size="11.0" fill="#2a78d6">MID:137.1</text>
<text x="207.4" y="58.0" font-size="11.0" fill="#e87ba4">LOW:42.0</text>
<text x="265.8" y="58.0" font-size="11.0" fill="#4a3aa7">MA7:101.7</text>
<line x1="10.0" y1="356.0" x2="830.0" y2="356.0" stroke="#e1e0d9" stroke-width="1.0"/>
<text x="14.0" y="353.0" font-size="11.0" fill="#898781">0</text>
<line x1="10.0" y1="244.4" x2="830.0" y2="244.4" stroke="#e1e0d9" stroke-width="1.0"/>
<text x="14.0" y="241.4" font-size="11.0" fill="#898781">200</text>
<line x1="10.0" y1="132.8" x2="830.0" y2="132.8" stroke="#e1e0d9" stroke-width="1.0"/>
<text x="14.0" y="129.8" font-size="11.0" fill="#898781">400</text>
<polyline points="480.3,120.1 504.4,125.4 528.5,122.3 552.6,121.9 576.8,121.8 600.9,121.8 625.0,122.6 649.1,123.2 673.2,124.6 697.4,160.6 721.5,182.3 745.6,230.4 769.7,227.1 793.8,226.4 817.9,226.4" fill="none" stroke="#eda100" stroke-width="1.5" stroke-linejoin="round" stroke-linecap="round"/>
<polyline points="480.3,246.6 504.4,251.9 528.5,248.9 552.6,248.1 576.8,246.7 600.9,246.6 625.0,245.7 649.1,244.9 673.2,247.1 697.4,258.3 721.5,266.0 745.6,273.8 769.7,275.9 793.8,278.3 817.9,279.5" fill="none" stroke="#2a78d6" stroke-width="1.5" stroke-linejoin="round" stroke-linecap="round"/>
<polyline points="480.3,356.0 504.4,356.0 528.5,356.0 552.6,356.0 576.8,356.0 600.9,356.0 625.0,356.0 649.1,356.0 673.2,356.0 697.4,355.9 721.5,349.7 745.6,317.3 769.7,324.6 793.8,330.2 817.9,332.6" fill="none" stroke="#e87ba4" stroke-width="1.5" stroke-linejoin="round" stroke-linecap="round"/>
<polyline points="166.8,277.9 190.9,283.3 215.0,255.0 239.1,236.9 263.2,211.0 287.4,209.9 311.5,203.7 335.6,200.3 359.7,205.0 383.8,226.7 407.9,241.6 432.1,264.6 456.2,263.8 480.3,266.6 504.4,269.5 528.5,262.7 552.6,265.8 576.8,267.9 600.9,270.9 625.0,272.9 649.1,272.8 673.2,269.7 697.4,281.7 721.5,287.9 745.6,288.5 769.7,293.5 793.8,296.9 817.9,299.3" fill="none" stroke="#4a3aa7" stroke-width="1.5" stroke-linejoin="round" stroke-linecap="round"/>
<rect x="15.4" y="196.4" width="13.3" height="159.6" fill="none" stroke="#e34948" stroke-width="1.3"/>
<rect x="39.5" y="196.4" width="13.3" height="81.5" fill="#008300"/>
<rect x="63.7" y="270.6" width="13.3" height="7.3" fill="none" stroke="#e34948" stroke-width="1.3"/>
<rect x="87.8" y="270.6" width="13.3" height="20.6" fill="#008300"/>
<rect x="111.9" y="291.3" width="13.3" height="1.2" fill="#008300"/>
<rect x="136.0" y="292.4" width="13.3" height="19.5" fill="#008300"/>
<rect x="160.1" y="304.7" width="13.3" height="7.3" fill="none" stroke="#e34948" stroke-width="1.3"/>
<rect x="184.2" y="234.4" width="13.3" height="70.3" fill="none" stroke="#e34948" stroke-width="1.3"/>
<rect x="208.4" y="79.8" width="13.3" height="154.6" fill="none" stroke="#e34948" stroke-width="1.3"/>
<rect x="232.5" y="79.8" width="13.3" height="64.2" fill="#008300"/>
<rect x="256.6" y="109.9" width="13.3" height="34.0" fill="none" stroke="#e34948" stroke-width="1.3"/>
<rect x="280.7" y="109.9" width="13.3" height="174.6" fill="#008300"/>
<rect x="304.8" y="269.0" width="13.3" height="15.6" fill="none" stroke="#e34948" stroke-width="1.3"/>
<rect x="329.0" y="269.0" width="13.3" height="11.2" fill="#008300"/>
<rect x="353.1" y="267.3" width="13.3" height="12.8" fill="none" stroke="#e34948" stroke-width="1.3"/>
<rect x="377.2" y="232.1" width="13.3" height="35.2" fill="none" stroke="#e34948" stroke-width="1.3"/>
<rect x="401.3" y="232.1" width="13.3" height="16.2" fill="#008300"/>
<rect x="425.4" y="248.3" width="13.3" height="22.3" fill="#008300"/>
<rect x="449.5" y="270.6" width="13.3" height="8.4" fill="#008300"/>
<rect x="473.7" y="279.0" width="13.3" height="9.5" fill="#008300"/>
<rect x="497.8" y="288.5" width="13.3" height="12.3" fill="#008300"/>
<rect x="521.9" y="219.3" width="13.3" height="81.5" fill="none" stroke="#e34948" stroke-width="1.3"/>
<rect x="546.0" y="219.3" width="13.3" height="35.2" fill="#008300"/>
<rect x="570.1" y="254.5" width="13.3" height="8.4" fill="#008300"/>
<rect x="594.2" y="262.8" width="13.3" height="28.5" fill="#008300"/>
<rect x="618.4" y="291.3" width="13.3" height="1.7" fill="#008300"/>
<rect x="642.5" y="287.9" width="13.3" height="5.0" fill="none" stroke="#e34948" stroke-width="1.3"/>
<rect x="666.6" y="279.6" width="13.3" height="8.4" fill="none" stroke="#e34948" stroke-width="1.3"/>
<rect x="690.7" y="279.6" width="13.3" height="23.4" fill="#008300"/>
<rect x="714.8" y="298.0" width="13.3" height="5.0" fill="none" stroke="#e34948" stroke-width="1.3"/>
<rect x="739.0" y="267.3" width="13.3" height="30.7" fill="none" stroke="#e34948" stroke-width="1.3"/>
<rect x="763.1" y="267.3" width="13.3" height="58.0" fill="#008300"/>
<rect x="787.2" y="317.5" width="13.3" height="7.8" fill="none" stroke="#e34948" stroke-width="1.3"/>
<rect x="811.3" y="304.1" width="13.3" height="13.4" fill="none" stroke="#e34948" stroke-width="1.3"/>
<circle cx="215.0" cy="79.8" r="2" fill="#52514e"/>
<line x1="215.0" y1="79.8" x2="223.0" y2="79.8" stroke="#52514e" stroke-width="1.0"/>
<text x="226.0" y="83.8" font-size="11.0" fill="#52514e">495</text>
<circle cx="22.1" cy="356.0" r="2" fill="#52514e"/>
<line x1="22.1" y1="356.0" x2="30.1" y2="356.0" stroke="#52514e" stroke-width="1.0"/>
<text x="33.1" y="350.0" font-size="11.0" fill="#52514e">0</text>
<text x="14.0" y="376.0" font-size="11.0" fill="#52514e">VOL 11 forks</text>
<text x="96.6" y="376.0" font-size="11.0" fill="#eda100">MA5:16.4</text>
<text x="155.0" y="376.0" font-size="11.0" fill="#2a78d6">MA10:21.3</text>
<text x="14.0" y="395.0" font-size="10" fill="#898781">81</text>
<rect x="15.4" y="435.6" width="13.3" height="34.4" fill="none" stroke="#e34948" stroke-width="1.1"/>
<rect x="39.5" y="434.6" width="13.3" height="35.4" fill="#008300"/>
<rect x="63.7" y="447.7" width="13.3" height="22.3" fill="none" stroke="#e34948" stroke-width="1.1"/>
<rect x="87.8" y="435.6" width="13.3" height="34.4" fill="#008300"/>
<rect x="111.9" y="438.6" width="13.3" height="31.4" fill="#008300"/>
<rect x="136.0" y="452.8" width="13.3" height="17.2" fill="#008300"/>
<rect x="160.1" y="458.9" width="13.3" height="11.1" fill="none" stroke="#e34948" stroke-width="1.1"/>
<rect x="184.2" y="448.7" width="13.3" height="21.3" fill="none" stroke="#e34948" stroke-width="1.1"/>
<rect x="208.4" y="388.0" width="13.3" height="82.0" fill="none" stroke="#e34948" stroke-width="1.1"/>
<rect x="232.5" y="421.4" width="13.3" height="48.6" fill="#008300"/>
<rect x="256.6" y="395.1" width="13.3" height="74.9" fill="none" stroke="#e34948" stroke-width="1.1"/>
<rect x="280.7" y="434.6" width="13.3" height="35.4" fill="#008300"/>
<rect x="304.8" y="439.6" width="13.3" height="30.4" fill="none" stroke="#e34948" stroke-width="1.1"/>
<rect x="329.0" y="439.6" width="13.3" height="30.4" fill="#008300"/>
<rect x="353.1" y="436.6" width="13.3" height="33.4" fill="none" stroke="#e34948" stroke-width="1.1"/>
<rect x="377.2" y="442.7" width="13.3" height="27.3" fill="none" stroke="#e34948" stroke-width="1.1"/>
<rect x="401.3" y="425.5" width="13.3" height="44.5" fill="#008300"/>
<rect x="425.4" y="427.5" width="13.3" height="42.5" fill="#008300"/>
<rect x="449.5" y="441.7" width="13.3" height="28.3" fill="#008300"/>
<rect x="473.7" y="446.7" width="13.3" height="23.3" fill="#008300"/>
<rect x="497.8" y="444.7" width="13.3" height="25.3" fill="#008300"/>
<rect x="521.9" y="415.3" width="13.3" height="54.7" fill="none" stroke="#e34948" stroke-width="1.1"/>
<rect x="546.0" y="425.5" width="13.3" height="44.5" fill="#008300"/>
<rect x="570.1" y="419.4" width="13.3" height="50.6" fill="#008300"/>
<rect x="594.2" y="439.6" width="13.3" height="30.4" fill="#008300"/>
<rect x="618.4" y="449.8" width="13.3" height="20.2" fill="#008300"/>
<rect x="642.5" y="441.7" width="13.3" height="28.3" fill="none" stroke="#e34948" stroke-width="1.1"/>
<rect x="666.6" y="437.6" width="13.3" height="32.4" fill="none" stroke="#e34948" stroke-width="1.1"/>
<rect x="690.7" y="448.7" width="13.3" height="21.3" fill="#008300"/>
<rect x="714.8" y="452.8" width="13.3" height="17.2" fill="none" stroke="#e34948" stroke-width="1.1"/>
<rect x="739.0" y="441.7" width="13.3" height="28.3" fill="none" stroke="#e34948" stroke-width="1.1"/>
<rect x="763.1" y="460.9" width="13.3" height="9.1" fill="#008300"/>
<rect x="787.2" y="452.8" width="13.3" height="17.2" fill="none" stroke="#e34948" stroke-width="1.1"/>
<rect x="811.3" y="458.9" width="13.3" height="11.1" fill="none" stroke="#e34948" stroke-width="1.1"/>
<polyline points="239.1,436.2 263.2,432.1 287.4,432.1 311.5,431.3 335.6,431.7 359.7,431.5 383.8,430.5 407.9,427.2 432.1,425.1 456.2,430.4 480.3,432.9 504.4,437.9 528.5,436.0 552.6,434.6 576.8,432.5 600.9,432.8 625.0,433.6 649.1,435.2 673.2,436.2 697.4,436.9 721.5,437.5 745.6,437.2 769.7,441.8 793.8,444.5 817.9,448.4" fill="none" stroke="#2a78d6" stroke-width="1.5" stroke-linejoin="round" stroke-linecap="round"/>
<polyline points="118.5,438.4 142.6,441.9 166.8,446.7 190.9,446.9 215.0,437.4 239.1,434.0 263.2,422.4 287.4,417.6 311.5,415.7 335.6,426.1 359.7,429.1 383.8,438.6 407.9,436.8 432.1,434.4 456.2,434.8 480.3,436.8 504.4,437.2 528.5,435.2 552.6,434.8 576.8,430.3 600.9,428.9 625.0,429.9 649.1,435.2 673.2,437.6 697.4,443.5 721.5,446.1 745.6,444.5 769.7,448.3 793.8,451.4 817.9,453.4" fill="none" stroke="#eda100" stroke-width="1.5" stroke-linejoin="round" stroke-linecap="round"/>
</svg>