<svg xmlns="http://www.w3.org/2000/svg" viewBox="0 0 840 496" width="840" height="496" font-family="-apple-system,&#39;Segoe UI&#39;,system-ui,sans-serif" role="img" aria-label="jwasham/coding-interview-university candlestick chart">
<text x="14.0" y="20.0" font-size="15" fill="#ffffff" font-weight="650">jwasham/coding-interview-university</text>
<text x="306.8" y="20.0" font-size="11.5" fill="#c3c2b7">daily · new stars, volume = new forks</text>
<text x="805.8" y="20.0" font-size="11.0" fill="#c3c2b7">fall</text>
<rect x="791" y="10" width="9" height="12" fill="#008300"/>
<text x="750.6" y="20.0" font-size="11.0" fill="#c3c2b7">rise</text>
<rect x="736" y="10" width="9" height="12" fill="none" stroke="#e66767" stroke-width="1.5"/>
<text x="14.0" y="38.0" font-size="11.0" fill="#898781">last 38 days · +6,211 stars · +1,179 forks · updated 2026-07-13</text>
<rect x="10" y="66" width="820" height="290" fill="none" stroke="#2c2c2a"/>
<rect x="10" y="384" width="820" height="86" fill="none" stroke="#2c2c2a"/>
<text x="38.0" y="490.0" font-size="11.0" fill="#898781" text-anchor="middle">2026-06</text>
<line x1="549.5" y1="66.0" x2="549.5" y2="356.0" stroke="#2c2c2a" stroke-width="1.0"/>
<line x1="549.5" y1="384.0" x2="549.5" y2="470.0" stroke="#2c2c2a" stroke-width="1.0"/>
<text x="560.3" y="490.0" font-size="11.0" fill="#898781" text-anchor="middle">2026-07</text>
<text x="14.0" y="58.0" font-size="11.0" fill="#c3c2b7">BOLL(20,2)</text>
<text x="84.5" y="58.0" font-size="11.0" fill="#c98500">UP:211.7</text>
<text x="142.9" y="58.0" font-size="11.0" fill="#3987e5">MID:127.5</text>
<text x="207.4" y="58.0" font-size="11.0" fill="#d55181">LOW:43.3</text>
<text x="265.8" y="58.0" font-size="11.0" fill="#9085e9">MA7:107.4</text>
<line x1="10.0" y1="356.0" x2="830.0" y2="356.0" stroke="#2c2c2a" stroke-width="1.0"/>
<text x="14.0" y="353.0" font-size="11.0" fill="#898781">0</text>
<line x1="10.0" y1="244.4" x2="830.0" y2="244.4" stroke="#2c2c2a" stroke-width="1.0"/>
<text x="14.0" y="241.4" font-size="11.0" fill="#898781">200</text>
<line x1="10.0" y1="132.8" x2="830.0" y2="132.8" stroke="#2c2c2a" stroke-width="1.0"/>
<text x="14.0" y="129.8" font-size="11.0" fill="#898781">400</text>
<polyline points="430.8,120.1 452.4,125.4 473.9,122.3 495.5,121.9 517.1,121.8 538.7,121.8 560.3,122.6 581.8,123.2 603.4,124.6 625.0,160.6 646.6,182.3 668.2,230.4 689.7,227.1 711.3,226.4 732.9,226.4 754.5,225.6 776.1,232.2 797.6,236.6 819.2,237.9" fill="none" stroke="#c98500" stroke-width="1.5" stroke-linejoin="round" stroke-linecap="round"/>
<polyline points="430.8,246.6 452.4,251.9 473.9,248.9 495.5,248.1 517.1,246.7 538.7,246.6 560.3,245.7 581.8,244.9 603.4,247.1 625.0,258.3 646.6,266.0 668.2,273.8 689.7,275.9 711.3,278.3 732.9,279.5 754.5,279.1 776.1,281.3 797.6,283.9 819.2,284.9" fill="none" stroke="#3987e5" stroke-width="1.5" stroke-linejoin="round" stroke-linecap="round"/>
<polyline points="430.8,356.0 452.4,356.0 473.9,356.0 495.5,356.0 517.1,356.0 538.7,356.0 560.3,356.0 581.8,356.0 603.4,356.0 625.0,355.9 646.6,349.7 668.2,317.3 689.7,324.6 711.3,330.2 732.9,332.6 754.5,332.6 776.1,330.3 797.6,331.3 819.2,331.8" fill="none" stroke="#d55181" stroke-width="1.5" stroke-linejoin="round" stroke-linecap="round"/>
<polyline points="150.3,277.9 171.8,283.3 193.4,255.0 215.0,236.9 236.6,211.0 258.2,209.9 279.7,203.7 301.3,200.3 322.9,205.0 344.5,226.7 366.1,241.6 387.6,264.6 409.2,263.8 430.8,266.6 452.4,269.5 473.9,262.7 495.5,265.8 517.1,267.9 538.7,270.9 560.3,272.9 581.8,272.8 603.4,269.7 625.0,281.7 646.6,287.9 668.2,288.5 689.7,293.5 711.3,296.9 732.9,299.3 754.5,296.5 776.1,292.4 797.6,293.0 819.2,296.1" fill="none" stroke="#9085e9" stroke-width="1.5" stroke-linejoin="round" stroke-linecap="round"/>
<rect x="14.9" y="196.4" width="11.9" height="159.6" fill="none" stroke="#e66767" stroke-width="1.3"/>
<rect x="36.4" y="196.4" width="11.9" height="81.5" fill="#008300"/>
<rect x="58.0" y="270.6" width="11.9" height="7.3" fill="none" stroke="#e66767" stroke-width="1.3"/>
<rect x="79.6" y="270.6" width="11.9" height="20.6" fill="#008300"/>
<rect x="101.2" y="291.3" width="11.9" height="1.2" fill="#008300"/>
<rect x="122.7" y="292.4" width="11.9" height="19.5" fill="#008300"/>
<rect x="144.3" y="304.7" width="11.9" height="7.3" fill="none" stroke="#e66767" stroke-width="1.3"/>
<rect x="165.9" y="234.4" width="11.9" height="70.3" fill="none" stroke="#e66767" stroke-width="1.3"/>
<rect x="187.5" y="79.8" width="11.9" height="154.6" fill="none" stroke="#e66767" stroke-width="1.3"/>
<rect x="209.1" y="79.8" width="11.9" height="64.2" fill="#008300"/>
<rect x="230.6" y="109.9" width="11.9" height="34.0" fill="none" stroke="#e66767" stroke-width="1.3"/>
<rect x="252.2" y="109.9" width="11.9" height="174.6" fill="#008300"/>
<rect x="273.8" y="269.0" width="11.9" height="15.6" fill="none" stroke="#e66767" stroke-width="1.3"/>
<rect x="295.4" y="269.0" width="11.9" height="11.2" fill="#008300"/>
<rect x="317.0" y="267.3" width="11.9" height="12.8" fill="none" stroke="#e66767" stroke-width="1.3"/>
<rect x="338.5" y="232.1" width="11.9" height="35.2" fill="none" stroke="#e66767" stroke-width="1.3"/>
<rect x="360.1" y="232.1" width="11.9" height="16.2" fill="#008300"/>
<rect x="381.7" y="248.3" width="11.9" height="22.3" fill="#008300"/>
<rect x="403.3" y="270.6" width="11.9" height="8.4" fill="#008300"/>
<rect x="424.9" y="279.0" width="11.9" height="9.5" fill="#008300"/>
<rect x="446.4" y="288.5" width="11.9" height="12.3" fill="#008300"/>
<rect x="468.0" y="219.3" width="11.9" height="81.5" fill="none" stroke="#e66767" stroke-width="1.3"/>
<rect x="489.6" y="219.3" width="11.9" height="35.2" fill="#008300"/>
<rect x="511.2" y="254.5" width="11.9" height="8.4" fill="#008300"/>
<rect x="532.7" y="262.8" width="11.9" height="28.5" fill="#008300"/>
<rect x="554.3" y="291.3" width="11.9" height="1.7" fill="#008300"/>
<rect x="575.9" y="287.9" width="11.9" height="5.0" fill="none" stroke="#e66767" stroke-width="1.3"/>
<rect x="597.5" y="279.6" width="11.9" height="8.4" fill="none" stroke="#e66767" stroke-width="1.3"/>
<rect x="619.1" y="279.6" width="11.9" height="23.4" fill="#008300"/>
<rect x="640.6" y="298.0" width="11.9" height="5.0" fill="none" stroke="#e66767" stroke-width="1.3"/>
<rect x="662.2" y="267.3" width="11.9" height="30.7" fill="none" stroke="#e66767" stroke-width="1.3"/>
<rect x="683.8" y="267.3" width="11.9" height="58.0" fill="#008300"/>
<rect x="705.4" y="317.5" width="11.9" height="7.8" fill="none" stroke="#e66767" stroke-width="1.3"/>
<rect x="727.0" y="304.1" width="11.9" height="13.4" fill="none" stroke="#e66767" stroke-width="1.3"/>
<rect x="748.5" y="260.0" width="11.9" height="44.1" fill="none" stroke="#e66767" stroke-width="1.3"/>
<rect x="770.1" y="260.0" width="11.9" height="15.1" fill="#008300"/>
<rect x="791.7" y="275.1" width="11.9" height="26.2" fill="#008300"/>
<rect x="813.3" y="289.0" width="11.9" height="12.3" fill="none" stroke="#e66767" stroke-width="1.3"/>
<circle cx="193.4" cy="79.8" r="2" fill="#c3c2b7"/>
<line x1="193.4" y1="79.8" x2="201.4" y2="79.8" stroke="#c3c2b7" stroke-width="1.0"/>
<text x="204.4" y="83.8" font-size="11.0" fill="#c3c2b7">495</text>
<circle cx="20.8" cy="356.0" r="2" fill="#c3c2b7"/>
<line x1="20.8" y1="356.0" x2="28.8" y2="356.0" stroke="#c3c2b7" stroke-width="1.0"/>
<text x="31.8" y="350.0" font-size="11.0" fill="#c3c2b7">0</text>
<text x="14.0" y="376.0" font-size="11.0" fill="#c3c2b7">VOL 9 forks</text>
<text x="90.6" y="376.0" font-size="11.0" fill="#c98500">MA5:20.8</text>
<text x="149.0" y="376.0" font-size="11.0" fill="#3987e5">MA10:19.6</text>
<text x="14.0" y="395.0" font-size="10" fill="#898781">81</text>
<rect x="14.9" y="435.6" width="11.9" height="34.4" fill="none" stroke="#e66767" stroke-width="1.1"/>
<rect x="36.4" y="434.6" width="11.9" height="35.4" fill="#008300"/>
<rect x="58.0" y="447.7" width="11.9" height="22.3" fill="none" stroke="#e66767" stroke-width="1.1"/>
<rect x="79.6" y="435.6" width="11.9" height="34.4" fill="#008300"/>
<rect x="101.2" y="438.6" width="11.9" height="31.4" fill="#008300"/>
<rect x="122.7" y="452.8" width="11.9" height="17.2" fill="#008300"/>
<rect x="144.3" y="458.9" width="11.9" height="11.1" fill="none" stroke="#e66767" stroke-width="1.1"/>
<rect x="165.9" y="448.7" width="11.9" height="21.3" fill="none" stroke="#e66767" stroke-width="1.1"/>
<rect x="187.5" y="388.0" width="11.9" height="82.0" fill="none" stroke="#e66767" stroke-width="1.1"/>
<rect x="209.1" y="421.4" width="11.9" height="48.6" fill="#008300"/>
<rect x="230.6" y="395.1" width="11.9" height="74.9" fill="none" stroke="#e66767" stroke-width="1.1"/>
<rect x="252.2" y="434.6" width="11.9" height="35.4" fill="#008300"/>
<rect x="273.8" y="439.6" width="11.9" height="30.4" fill="none" stroke="#e66767" stroke-width="1.1"/>
<rect x="295.4" y="439.6" width="11.9" height="30.4" fill="#008300"/>
<rect x="317.0" y="436.6" width="11.9" height="33.4" fill="none" stroke="#e66767" stroke-width="1.1"/>
<rect x="338.5" y="442.7" width="11.9" height="27.3" fill="none" stroke="#e66767" stroke-width="1.1"/>
<rect x="360.1" y="425.5" width="11.9" height="44.5" fill="#008300"/>
<rect x="381.7" y="427.5" width="11.9" height="42.5" fill="#008300"/>
<rect x="403.3" y="441.7" width="11.9" height="28.3" fill="#008300"/>
<rect x="424.9" y="446.7" width="11.9" height="23.3" fill="#008300"/>
<rect x="446.4" y="444.7" width="11.9" height="25.3" fill="#008300"/>
<rect x="468.0" y="415.3" width="11.9" height="54.7" fill="none" stroke="#e66767" stroke-width="1.1"/>
<rect x="489.6" y="425.5" width="11.9" height="44.5" fill="#008300"/>
<rect x="511.2" y="419.4" width="11.9" height="50.6" fill="#008300"/>
<rect x="532.7" y="439.6" width="11.9" height="30.4" fill="#008300"/>
<rect x="554.3" y="449.8" width="11.9" height="20.2" fill="#008300"/>
<rect x="575.9" y="441.7" width="11.9" height="28.3" fill="none" stroke="#e66767" stroke-width="1.1"/>
<rect x="597.5" y="437.6" width="11.9" height="32.4" fill="none" stroke="#e66767" stroke-width="1.1"/>
<rect x="619.1" y="448.7" width="11.9" height="21.3" fill="#008300"/>
<rect x="640.6" y="452.8" width="11.9" height="17.2" fill="none" stroke="#e66767" stroke-width="1.1"/>
<rect x="662.2" y="441.7" width="11.9" height="28.3" fill="none" stroke="#e66767" stroke-width="1.1"/>
<rect x="683.8" y="460.9" width="11.9" height="9.1" fill="#008300"/>
<rect x="705.4" y="452.8" width="11.9" height="17.2" fill="none" stroke="#e66767" stroke-width="1.1"/>
<rect x="727.0" y="458.9" width="11.9" height="11.1" fill="none" stroke="#e66767" stroke-width="1.1"/>
<rect x="748.5" y="426.5" width="11.9" height="43.5" fill="none" stroke="#e66767" stroke-width="1.1"/>
<rect x="770.1" y="444.7" width="11.9" height="25.3" fill="#008300"/>
<rect x="791.7" y="453.8" width="11.9" height="16.2" fill="#008300"/>
<rect x="813.3" y="460.9" width="11.9" height="9.1" fill="none" stroke="#e66767" stroke-width="1.1"/>
<polyline points="215.0,436.2 236.6,432.1 258.2,432.1 279.7,431.3 301.3,431.7 322.9,431.5 344.5,430.5 366.1,427.2 387.6,425.1 409.2,430.4 430.8,432.9 452.4,437.9 473.9,436.0 495.5,434.6 517.1,432.5 538.7,432.8 560.3,433.6 581.8,435.2 603.4,436.2 625.0,436.9 646.6,437.5 668.2,437.2 689.7,441.8 711.3,444.5 732.9,448.4 754.5,447.1 776.1,446.6 797.6,447.8 819.2,450.2" fill="none" stroke="#3987e5" stroke-width="1.5" stroke-linejoin="round" stroke-linecap="round"/>
<polyline points="107.1,438.4 128.7,441.9 150.3,446.7 171.8,446.9 193.4,437.4 215.0,434.0 236.6,422.4 258.2,417.6 279.7,415.7 301.3,426.1 322.9,429.1 344.5,438.6 366.1,436.8 387.6,434.4 409.2,434.8 430.8,436.8 452.4,437.2 473.9,435.2 495.5,434.8 517.1,430.3 538.7,428.9 560.3,429.9 581.8,435.2 603.4,437.6 625.0,443.5 646.6,446.1 668.2,444.5 689.7,448.3 711.3,451.4 732.9,453.4 754.5,448.1 776.1,448.7 797.6,447.3 819.2,448.9" fill="none" stroke="#c98500" stroke-width="1.5" stroke-linejoin="round" stroke-linecap="round"/>
</svg>