<svg xmlns="http://www.w3.org/2000/svg" viewBox="0 0 840 496" width="840" height="496" font-family="-apple-system,&#39;Segoe UI&#39;,system-ui,sans-serif" role="img" aria-label="jwasham/coding-interview-university candlestick chart">
<text x="14.0" y="20.0" font-size="15" fill="#0b0b0b" font-weight="650">jwasham/coding-interview-university</text>
<text x="306.8" y="20.0" font-size="11.5" fill="#52514e">daily · new stars, volume = new forks</text>
<text x="805.8" y="20.0" font-size="11.0" fill="#52514e">fall</text>
<rect x="791" y="10" width="9" height="12" fill="#008300"/>
<text x="750.6" y="20.0" font-size="11.0" fill="#52514e">rise</text>
<rect x="736" y="10" width="9" height="12" fill="none" stroke="#e34948" stroke-width="1.5"/>
<text x="14.0" y="38.0" font-size="11.0" fill="#898781">last 40 days · +6,394 stars · +1,207 forks · updated 2026-07-15</text>
<rect x="10" y="66" width="820" height="290" fill="none" stroke="#e1e0d9"/>
<rect x="10" y="384" width="820" height="86" fill="none" stroke="#e1e0d9"/>
<text x="38.0" y="490.0" font-size="11.0" fill="#898781" text-anchor="middle">2026-06</text>
<line x1="522.5" y1="66.0" x2="522.5" y2="356.0" stroke="#e1e0d9" stroke-width="1.0"/>
<line x1="522.5" y1="384.0" x2="522.5" y2="470.0" stroke="#e1e0d9" stroke-width="1.0"/>
<text x="532.8" y="490.0" font-size="11.0" fill="#898781" text-anchor="middle">2026-07</text>
<text x="14.0" y="58.0" font-size="11.0" fill="#52514e">BOLL(20,2)</text>
<text x="84.5" y="58.0" font-size="11.0" fill="#eda100">UP:210.6</text>
<text x="142.9" y="58.0" font-size="11.0" fill="#2a78d6">MID:123.7</text>
<text x="207.4" y="58.0" font-size="11.0" fill="#e87ba4">LOW:36.8</text>
<text x="265.8" y="58.0" font-size="11.0" fill="#4a3aa7">MA7:115.9</text>
<line x1="10.0" y1="356.0" x2="830.0" y2="356.0" stroke="#e1e0d9" stroke-width="1.0"/>
<text x="14.0" y="353.0" font-size="11.0" fill="#898781">0</text>
<line x1="10.0" y1="244.4" x2="830.0" y2="244.4" stroke="#e1e0d9" stroke-width="1.0"/>
<text x="14.0" y="241.4" font-size="11.0" fill="#898781">200</text>
<line x1="10.0" y1="132.8" x2="830.0" y2="132.8" stroke="#e1e0d9" stroke-width="1.0"/>
<text x="14.0" y="129.8" font-size="11.0" fill="#898781">400</text>
<polyline points="409.8,120.1 430.2,125.4 450.8,122.3 471.2,121.9 491.8,121.8 512.2,121.8 532.8,122.6 553.2,123.2 573.8,124.6 594.2,160.6 614.8,182.3 635.2,230.4 655.8,227.1 676.2,226.4 696.8,226.4 717.2,225.6 737.8,232.2 758.2,236.6 778.8,237.9 799.2,238.6 819.8,238.5" fill="none" stroke="#eda100" stroke-width="1.5" stroke-linejoin="round" stroke-linecap="round"/>
<polyline points="409.8,246.6 430.2,251.9 450.8,248.9 471.2,248.1 491.8,246.7 512.2,246.6 532.8,245.7 553.2,244.9 573.8,247.1 594.2,258.3 614.8,266.0 635.2,273.8 655.8,275.9 676.2,278.3 696.8,279.5 717.2,279.1 737.8,281.3 758.2,283.9 778.8,284.9 799.2,285.9 819.8,287.0" fill="none" stroke="#2a78d6" stroke-width="1.5" stroke-linejoin="round" stroke-linecap="round"/>
<polyline points="409.8,356.0 430.2,356.0 450.8,356.0 471.2,356.0 491.8,356.0 512.2,356.0 532.8,356.0 553.2,356.0 573.8,356.0 594.2,355.9 614.8,349.7 635.2,317.3 655.8,324.6 676.2,330.2 696.8,332.6 717.2,332.6 737.8,330.3 758.2,331.3 778.8,331.8 799.2,333.3 819.8,335.5" fill="none" stroke="#e87ba4" stroke-width="1.5" stroke-linejoin="round" stroke-linecap="round"/>
<polyline points="143.2,277.9 163.8,283.3 184.2,255.0 204.8,236.9 225.2,211.0 245.8,209.9 266.2,203.7 286.8,200.3 307.2,205.0 327.8,226.7 348.2,241.6 368.8,264.6 389.2,263.8 409.8,266.6 430.2,269.5 450.8,262.7 471.2,265.8 491.8,267.9 512.2,270.9 532.8,272.9 553.2,272.8 573.8,269.7 594.2,281.7 614.8,287.9 635.2,288.5 655.8,293.5 676.2,296.9 696.8,299.3 717.2,296.5 737.8,292.4 758.2,293.0 778.8,296.1 799.2,292.4 819.8,291.3" fill="none" stroke="#4a3aa7" stroke-width="1.5" stroke-linejoin="round" stroke-linecap="round"/>
<rect x="14.6" y="196.4" width="11.3" height="159.6" fill="none" stroke="#e34948" stroke-width="1.3"/>
<rect x="35.1" y="196.4" width="11.3" height="81.5" fill="#008300"/>
<rect x="55.6" y="270.6" width="11.3" height="7.3" fill="none" stroke="#e34948" stroke-width="1.3"/>
<rect x="76.1" y="270.6" width="11.3" height="20.6" fill="#008300"/>
<rect x="96.6" y="291.3" width="11.3" height="1.2" fill="#008300"/>
<rect x="117.1" y="292.4" width="11.3" height="19.5" fill="#008300"/>
<rect x="137.6" y="304.7" width="11.3" height="7.3" fill="none" stroke="#e34948" stroke-width="1.3"/>
<rect x="158.1" y="234.4" width="11.3" height="70.3" fill="none" stroke="#e34948" stroke-width="1.3"/>
<rect x="178.6" y="79.8" width="11.3" height="154.6" fill="none" stroke="#e34948" stroke-width="1.3"/>
<rect x="199.1" y="79.8" width="11.3" height="64.2" fill="#008300"/>
<rect x="219.6" y="109.9" width="11.3" height="34.0" fill="none" stroke="#e34948" stroke-width="1.3"/>
<rect x="240.1" y="109.9" width="11.3" height="174.6" fill="#008300"/>
<rect x="260.6" y="269.0" width="11.3" height="15.6" fill="none" stroke="#e34948" stroke-width="1.3"/>
<rect x="281.1" y="269.0" width="11.3" height="11.2" fill="#008300"/>
<rect x="301.6" y="267.3" width="11.3" height="12.8" fill="none" stroke="#e34948" stroke-width="1.3"/>
<rect x="322.1" y="232.1" width="11.3" height="35.2" fill="none" stroke="#e34948" stroke-width="1.3"/>
<rect x="342.6" y="232.1" width="11.3" height="16.2" fill="#008300"/>
<rect x="363.1" y="248.3" width="11.3" height="22.3" fill="#008300"/>
<rect x="383.6" y="270.6" width="11.3" height="8.4" fill="#008300"/>
<rect x="404.1" y="279.0" width="11.3" height="9.5" fill="#008300"/>
<rect x="424.6" y="288.5" width="11.3" height="12.3" fill="#008300"/>
<rect x="445.1" y="219.3" width="11.3" height="81.5" fill="none" stroke="#e34948" stroke-width="1.3"/>
<rect x="465.6" y="219.3" width="11.3" height="35.2" fill="#008300"/>
<rect x="486.1" y="254.5" width="11.3" height="8.4" fill="#008300"/>
<rect x="506.6" y="262.8" width="11.3" height="28.5" fill="#008300"/>
<rect x="527.1" y="291.3" width="11.3" height="1.7" fill="#008300"/>
<rect x="547.6" y="287.9" width="11.3" height="5.0" fill="none" stroke="#e34948" stroke-width="1.3"/>
<rect x="568.1" y="279.6" width="11.3" height="8.4" fill="none" stroke="#e34948" stroke-width="1.3"/>
<rect x="588.6" y="279.6" width="11.3" height="23.4" fill="#008300"/>
<rect x="609.1" y="298.0" width="11.3" height="5.0" fill="none" stroke="#e34948" stroke-width="1.3"/>
<rect x="629.6" y="267.3" width="11.3" height="30.7" fill="none" stroke="#e34948" stroke-width="1.3"/>
<rect x="650.1" y="267.3" width="11.3" height="58.0" fill="#008300"/>
<rect x="670.6" y="317.5" width="11.3" height="7.8" fill="none" stroke="#e34948" stroke-width="1.3"/>
<rect x="691.1" y="304.1" width="11.3" height="13.4" fill="none" stroke="#e34948" stroke-width="1.3"/>
<rect x="711.6" y="260.0" width="11.3" height="44.1" fill="none" stroke="#e34948" stroke-width="1.3"/>
<rect x="732.1" y="260.0" width="11.3" height="15.1" fill="#008300"/>
<rect x="752.6" y="275.1" width="11.3" height="26.2" fill="#008300"/>
<rect x="773.1" y="289.0" width="11.3" height="12.3" fill="none" stroke="#e34948" stroke-width="1.3"/>
<rect x="793.6" y="289.0" width="11.3" height="11.2" fill="#008300"/>
<rect x="814.1" y="300.2" width="11.3" height="9.5" fill="#008300"/>
<circle cx="184.2" cy="79.8" r="2" fill="#52514e"/>
<line x1="184.2" y1="79.8" x2="192.2" y2="79.8" stroke="#52514e" stroke-width="1.0"/>
<text x="195.2" y="83.8" font-size="11.0" fill="#52514e">495</text>
<circle cx="20.2" cy="356.0" r="2" fill="#52514e"/>
<line x1="20.2" y1="356.0" x2="28.2" y2="356.0" stroke="#52514e" stroke-width="1.0"/>
<text x="31.2" y="350.0" font-size="11.0" fill="#52514e">0</text>
<text x="14.0" y="376.0" font-size="11.0" fill="#52514e">VOL 9 forks</text>
<text x="90.6" y="376.0" font-size="11.0" fill="#eda100">MA5:15.6</text>
<text x="149.0" y="376.0" font-size="11.0" fill="#2a78d6">MA10:18.6</text>
<text x="14.0" y="395.0" font-size="10" fill="#898781">81</text>
<rect x="14.6" y="435.6" width="11.3" height="34.4" fill="none" stroke="#e34948" stroke-width="1.1"/>
<rect x="35.1" y="434.6" width="11.3" height="35.4" fill="#008300"/>
<rect x="55.6" y="447.7" width="11.3" height="22.3" fill="none" stroke="#e34948" stroke-width="1.1"/>
<rect x="76.1" y="435.6" width="11.3" height="34.4" fill="#008300"/>
<rect x="96.6" y="438.6" width="11.3" height="31.4" fill="#008300"/>
<rect x="117.1" y="452.8" width="11.3" height="17.2" fill="#008300"/>
<rect x="137.6" y="458.9" width="11.3" height="11.1" fill="none" stroke="#e34948" stroke-width="1.1"/>
<rect x="158.1" y="448.7" width="11.3" height="21.3" fill="none" stroke="#e34948" stroke-width="1.1"/>
<rect x="178.6" y="388.0" width="11.3" height="82.0" fill="none" stroke="#e34948" stroke-width="1.1"/>
<rect x="199.1" y="421.4" width="11.3" height="48.6" fill="#008300"/>
<rect x="219.6" y="395.1" width="11.3" height="74.9" fill="none" stroke="#e34948" stroke-width="1.1"/>
<rect x="240.1" y="434.6" width="11.3" height="35.4" fill="#008300"/>
<rect x="260.6" y="439.6" width="11.3" height="30.4" fill="none" stroke="#e34948" stroke-width="1.1"/>
<rect x="281.1" y="439.6" width="11.3" height="30.4" fill="#008300"/>
<rect x="301.6" y="436.6" width="11.3" height="33.4" fill="none" stroke="#e34948" stroke-width="1.1"/>
<rect x="322.1" y="442.7" width="11.3" height="27.3" fill="none" stroke="#e34948" stroke-width="1.1"/>
<rect x="342.6" y="425.5" width="11.3" height="44.5" fill="#008300"/>
<rect x="363.1" y="427.5" width="11.3" height="42.5" fill="#008300"/>
<rect x="383.6" y="441.7" width="11.3" height="28.3" fill="#008300"/>
<rect x="404.1" y="446.7" width="11.3" height="23.3" fill="#008300"/>
<rect x="424.6" y="444.7" width="11.3" height="25.3" fill="#008300"/>
<rect x="445.1" y="415.3" width="11.3" height="54.7" fill="none" stroke="#e34948" stroke-width="1.1"/>
<rect x="465.6" y="425.5" width="11.3" height="44.5" fill="#008300"/>
<rect x="486.1" y="419.4" width="11.3" height="50.6" fill="#008300"/>
<rect x="506.6" y="439.6" width="11.3" height="30.4" fill="#008300"/>
<rect x="527.1" y="449.8" width="11.3" height="20.2" fill="#008300"/>
<rect x="547.6" y="441.7" width="11.3" height="28.3" fill="none" stroke="#e34948" stroke-width="1.1"/>
<rect x="568.1" y="437.6" width="11.3" height="32.4" fill="none" stroke="#e34948" stroke-width="1.1"/>
<rect x="588.6" y="448.7" width="11.3" height="21.3" fill="#008300"/>
<rect x="609.1" y="452.8" width="11.3" height="17.2" fill="none" stroke="#e34948" stroke-width="1.1"/>
<rect x="629.6" y="441.7" width="11.3" height="28.3" fill="none" stroke="#e34948" stroke-width="1.1"/>
<rect x="650.1" y="460.9" width="11.3" height="9.1" fill="#008300"/>
<rect x="670.6" y="452.8" width="11.3" height="17.2" fill="none" stroke="#e34948" stroke-width="1.1"/>
<rect x="691.1" y="458.9" width="11.3" height="11.1" fill="none" stroke="#e34948" stroke-width="1.1"/>
<rect x="711.6" y="426.5" width="11.3" height="43.5" fill="none" stroke="#e34948" stroke-width="1.1"/>
<rect x="732.1" y="444.7" width="11.3" height="25.3" fill="#008300"/>
<rect x="752.6" y="453.8" width="11.3" height="16.2" fill="#008300"/>
<rect x="773.1" y="460.9" width="11.3" height="9.1" fill="none" stroke="#e34948" stroke-width="1.1"/>
<rect x="793.6" y="450.8" width="11.3" height="19.2" fill="#008300"/>
<rect x="814.1" y="460.9" width="11.3" height="9.1" fill="#008300"/>
<polyline points="204.8,436.2 225.2,432.1 245.8,432.1 266.2,431.3 286.8,431.7 307.2,431.5 327.8,430.5 348.2,427.2 368.8,425.1 389.2,430.4 409.8,432.9 430.2,437.9 450.8,436.0 471.2,434.6 491.8,432.5 512.2,432.8 532.8,433.6 553.2,435.2 573.8,436.2 594.2,436.9 614.8,437.5 635.2,437.2 655.8,441.8 676.2,444.5 696.8,448.4 717.2,447.1 737.8,446.6 758.2,447.8 778.8,450.2 799.2,450.4 819.8,451.2" fill="none" stroke="#2a78d6" stroke-width="1.5" stroke-linejoin="round" stroke-linecap="round"/>
<polyline points="102.2,438.4 122.8,441.9 143.2,446.7 163.8,446.9 184.2,437.4 204.8,434.0 225.2,422.4 245.8,417.6 266.2,415.7 286.8,426.1 307.2,429.1 327.8,438.6 348.2,436.8 368.8,434.4 389.2,434.8 409.8,436.8 430.2,437.2 450.8,435.2 471.2,434.8 491.8,430.3 512.2,428.9 532.8,429.9 553.2,435.2 573.8,437.6 594.2,443.5 614.8,446.1 635.2,444.5 655.8,448.3 676.2,451.4 696.8,453.4 717.2,448.1 737.8,448.7 758.2,447.3 778.8,448.9 799.2,447.3 819.8,454.2" fill="none" stroke="#eda100" stroke-width="1.5" stroke-linejoin="round" stroke-linecap="round"/>
</svg>