<svg xmlns="http://www.w3.org/2000/svg" viewBox="0 0 840 496" width="840" height="496" font-family="-apple-system,&#39;Segoe UI&#39;,system-ui,sans-serif" role="img" aria-label="codecrafters-io/build-your-own-x candlestick chart">
<text x="14.0" y="20.0" font-size="15" fill="#0b0b0b" font-weight="650">codecrafters-io/build-your-own-x</text>
<text x="282.0" y="20.0" font-size="11.5" fill="#52514e">daily · new stars, volume = new forks</text>
<text x="805.8" y="20.0" font-size="11.0" fill="#52514e">fall</text>
<rect x="791" y="10" width="9" height="12" fill="#008300"/>
<text x="750.6" y="20.0" font-size="11.0" fill="#52514e">rise</text>
<rect x="736" y="10" width="9" height="12" fill="none" stroke="#e34948" stroke-width="1.5"/>
<text x="14.0" y="38.0" font-size="11.0" fill="#898781">last 28 days · +11,313 stars · +1,093 forks · updated 2026-07-24</text>
<rect x="10" y="66" width="820" height="290" fill="none" stroke="#e1e0d9"/>
<rect x="10" y="384" width="820" height="86" fill="none" stroke="#e1e0d9"/>
<text x="38.0" y="490.0" font-size="11.0" fill="#898781" text-anchor="middle">2026-06</text>
<line x1="127.1" y1="66.0" x2="127.1" y2="356.0" stroke="#e1e0d9" stroke-width="1.0"/>
<line x1="127.1" y1="384.0" x2="127.1" y2="470.0" stroke="#e1e0d9" stroke-width="1.0"/>
<text x="141.8" y="490.0" font-size="11.0" fill="#898781" text-anchor="middle">2026-07</text>
<text x="14.0" y="58.0" font-size="11.0" fill="#52514e">BOLL(20,2)</text>
<text x="84.5" y="58.0" font-size="11.0" fill="#eda100">UP:916.2</text>
<text x="142.9" y="58.0" font-size="11.0" fill="#2a78d6">MID:429.1</text>
<text x="207.4" y="58.0" font-size="11.0" fill="#e87ba4">LOW:0</text>
<text x="247.6" y="58.0" font-size="11.0" fill="#4a3aa7">MA7:638.4</text>
<line x1="10.0" y1="356.0" x2="830.0" y2="356.0" stroke="#e1e0d9" stroke-width="1.0"/>
<text x="14.0" y="353.0" font-size="11.0" fill="#898781">0</text>
<line x1="10.0" y1="226.0" x2="830.0" y2="226.0" stroke="#e1e0d9" stroke-width="1.0"/>
<text x="14.0" y="223.0" font-size="11.0" fill="#898781">500</text>
<line x1="10.0" y1="95.9" x2="830.0" y2="95.9" stroke="#e1e0d9" stroke-width="1.0"/>
<text x="14.0" y="92.9" font-size="11.0" fill="#898781">1,000</text>
<polyline points="581.1,239.4 610.4,203.0 639.6,154.1 668.9,134.4 698.2,126.1 727.5,124.6 756.8,124.6 786.1,124.7 815.4,117.7" fill="none" stroke="#eda100" stroke-width="1.5" stroke-linejoin="round" stroke-linecap="round"/>
<polyline points="581.1,277.4 610.4,271.0 639.6,261.8 668.9,255.3 698.2,250.4 727.5,249.1 756.8,249.1 786.1,249.3 815.4,244.4" fill="none" stroke="#2a78d6" stroke-width="1.5" stroke-linejoin="round" stroke-linecap="round"/>
<polyline points="581.1,315.4 610.4,339.1 639.6,356.0 668.9,356.0 698.2,356.0 727.5,356.0 756.8,356.0 786.1,356.0 815.4,356.0" fill="none" stroke="#e87ba4" stroke-width="1.5" stroke-linejoin="round" stroke-linecap="round"/>
<polyline points="200.4,265.0 229.6,266.0 258.9,266.7 288.2,267.4 317.5,275.2 346.8,280.2 376.1,285.2 405.4,289.3 434.6,289.7 463.9,294.3 493.2,296.3 522.5,288.6 551.8,285.5 581.1,279.4 610.4,259.4 639.6,230.1 668.9,206.5 698.2,191.6 727.5,184.5 756.8,182.2 786.1,184.7 815.4,190.0" fill="none" stroke="#4a3aa7" stroke-width="1.5" stroke-linejoin="round" stroke-linecap="round"/>
<rect x="16.6" y="275.4" width="16.1" height="80.6" fill="none" stroke="#e34948" stroke-width="1.3"/>
<rect x="45.9" y="263.9" width="16.1" height="11.4" fill="none" stroke="#e34948" stroke-width="1.3"/>
<rect x="75.2" y="263.9" width="16.1" height="3.4" fill="#008300"/>
<rect x="104.4" y="267.3" width="16.1" height="12.2" fill="#008300"/>
<rect x="133.7" y="256.7" width="16.1" height="22.9" fill="none" stroke="#e34948" stroke-width="1.3"/>
<rect x="163.0" y="253.5" width="16.1" height="3.1" fill="none" stroke="#e34948" stroke-width="1.3"/>
<rect x="192.3" y="253.5" width="16.1" height="5.2" fill="#008300"/>
<rect x="221.6" y="258.7" width="16.1" height="23.7" fill="#008300"/>
<rect x="250.9" y="268.6" width="16.1" height="13.8" fill="none" stroke="#e34948" stroke-width="1.3"/>
<rect x="280.2" y="268.6" width="16.1" height="3.9" fill="#008300"/>
<rect x="309.4" y="272.5" width="16.1" height="61.6" fill="#008300"/>
<rect x="338.7" y="291.5" width="16.1" height="42.7" fill="none" stroke="#e34948" stroke-width="1.3"/>
<rect x="368.0" y="288.1" width="16.1" height="3.4" fill="none" stroke="#e34948" stroke-width="1.3"/>
<rect x="397.3" y="288.1" width="16.1" height="1.2" fill="#898781"/>
<rect x="426.6" y="284.7" width="16.1" height="3.4" fill="none" stroke="#e34948" stroke-width="1.3"/>
<rect x="455.9" y="284.7" width="16.1" height="16.4" fill="#008300"/>
<rect x="485.2" y="286.3" width="16.1" height="14.8" fill="none" stroke="#e34948" stroke-width="1.3"/>
<rect x="514.4" y="280.3" width="16.1" height="6.0" fill="none" stroke="#e34948" stroke-width="1.3"/>
<rect x="543.7" y="269.9" width="16.1" height="10.4" fill="none" stroke="#e34948" stroke-width="1.3"/>
<rect x="573.0" y="245.2" width="16.1" height="24.7" fill="none" stroke="#e34948" stroke-width="1.3"/>
<rect x="602.3" y="147.9" width="16.1" height="97.3" fill="none" stroke="#e34948" stroke-width="1.3"/>
<rect x="631.6" y="79.8" width="16.1" height="68.1" fill="none" stroke="#e34948" stroke-width="1.3"/>
<rect x="660.9" y="79.8" width="16.1" height="55.9" fill="#008300"/>
<rect x="690.2" y="135.7" width="16.1" height="46.8" fill="#008300"/>
<rect x="719.4" y="182.5" width="16.1" height="47.9" fill="#008300"/>
<rect x="748.7" y="230.4" width="16.1" height="23.4" fill="#008300"/>
<rect x="778.0" y="253.8" width="16.1" height="9.1" fill="#008300"/>
<rect x="807.3" y="184.6" width="16.1" height="78.3" fill="none" stroke="#e34948" stroke-width="1.3"/>
<circle cx="639.6" cy="79.8" r="2" fill="#52514e"/>
<line x1="639.6" y1="79.8" x2="631.6" y2="79.8" stroke="#52514e" stroke-width="1.0"/>
<text x="628.6" y="83.8" font-size="11.0" fill="#52514e" text-anchor="end">1,062</text>
<circle cx="24.6" cy="356.0" r="2" fill="#52514e"/>
<line x1="24.6" y1="356.0" x2="32.6" y2="356.0" stroke="#52514e" stroke-width="1.0"/>
<text x="35.6" y="350.0" font-size="11.0" fill="#52514e">0</text>
<text x="14.0" y="376.0" font-size="11.0" fill="#52514e">VOL 55 forks</text>
<text x="96.6" y="376.0" font-size="11.0" fill="#eda100">MA5:44</text>
<text x="142.9" y="376.0" font-size="11.0" fill="#2a78d6">MA10:57.3</text>
<text x="14.0" y="395.0" font-size="10" fill="#898781">114</text>
<rect x="16.6" y="447.0" width="16.1" height="23.0" fill="none" stroke="#e34948" stroke-width="1.1"/>
<rect x="45.9" y="446.3" width="16.1" height="23.7" fill="none" stroke="#e34948" stroke-width="1.1"/>
<rect x="75.2" y="441.9" width="16.1" height="28.1" fill="#008300"/>
<rect x="104.4" y="440.5" width="16.1" height="29.5" fill="#008300"/>
<rect x="133.7" y="444.8" width="16.1" height="25.2" fill="none" stroke="#e34948" stroke-width="1.1"/>
<rect x="163.0" y="438.4" width="16.1" height="31.6" fill="none" stroke="#e34948" stroke-width="1.1"/>
<rect x="192.3" y="447.7" width="16.1" height="22.3" fill="#008300"/>
<rect x="221.6" y="447.7" width="16.1" height="22.3" fill="#008300"/>
<rect x="250.9" y="444.8" width="16.1" height="25.2" fill="none" stroke="#e34948" stroke-width="1.1"/>
<rect x="280.2" y="451.3" width="16.1" height="18.7" fill="#008300"/>
<rect x="309.4" y="464.2" width="16.1" height="5.8" fill="#008300"/>
<rect x="338.7" y="452.7" width="16.1" height="17.3" fill="none" stroke="#e34948" stroke-width="1.1"/>
<rect x="368.0" y="446.3" width="16.1" height="23.7" fill="none" stroke="#e34948" stroke-width="1.1"/>
<rect x="397.3" y="452.7" width="16.1" height="17.3" fill="#898781"/>
<rect x="426.6" y="457.8" width="16.1" height="12.2" fill="none" stroke="#e34948" stroke-width="1.1"/>
<rect x="455.9" y="454.2" width="16.1" height="15.8" fill="#008300"/>
<rect x="485.2" y="452.0" width="16.1" height="18.0" fill="none" stroke="#e34948" stroke-width="1.1"/>
<rect x="514.4" y="455.6" width="16.1" height="14.4" fill="none" stroke="#e34948" stroke-width="1.1"/>
<rect x="543.7" y="445.5" width="16.1" height="24.5" fill="none" stroke="#e34948" stroke-width="1.1"/>
<rect x="573.0" y="430.4" width="16.1" height="39.6" fill="none" stroke="#e34948" stroke-width="1.1"/>
<rect x="602.3" y="418.2" width="16.1" height="51.8" fill="none" stroke="#e34948" stroke-width="1.1"/>
<rect x="631.6" y="388.0" width="16.1" height="82.0" fill="none" stroke="#e34948" stroke-width="1.1"/>
<rect x="660.9" y="413.9" width="16.1" height="56.1" fill="#008300"/>
<rect x="690.2" y="432.6" width="16.1" height="37.4" fill="#008300"/>
<rect x="719.4" y="440.5" width="16.1" height="29.5" fill="#008300"/>
<rect x="748.7" y="443.4" width="16.1" height="26.6" fill="#008300"/>
<rect x="778.0" y="444.8" width="16.1" height="25.2" fill="#008300"/>
<rect x="807.3" y="430.4" width="16.1" height="39.6" fill="none" stroke="#e34948" stroke-width="1.1"/>
<polyline points="288.2,445.0 317.5,446.8 346.8,447.4 376.1,447.8 405.4,449.1 434.6,450.4 463.9,451.9 493.2,452.4 522.5,453.2 551.8,453.2 581.1,451.2 610.4,446.6 639.6,440.1 668.9,436.8 698.2,434.8 727.5,433.1 756.8,432.0 786.1,431.3 815.4,428.8" fill="none" stroke="#2a78d6" stroke-width="1.5" stroke-linejoin="round" stroke-linecap="round"/>
<polyline points="141.8,444.1 171.1,442.4 200.4,442.7 229.6,443.8 258.9,444.7 288.2,446.0 317.5,451.2 346.8,452.2 376.1,451.9 405.4,453.5 434.6,454.8 463.9,452.7 493.2,452.6 522.5,454.5 551.8,453.0 581.1,447.6 610.4,440.4 639.6,427.6 668.9,419.2 698.2,416.6 727.5,418.6 756.8,423.7 786.1,435.0 815.4,438.4" fill="none" stroke="#eda100" stroke-width="1.5" stroke-linejoin="round" stroke-linecap="round"/>
</svg>