<svg xmlns="http://www.w3.org/2000/svg" viewBox="0 0 840 496" width="840" height="496" font-family="-apple-system,&#39;Segoe UI&#39;,system-ui,sans-serif" role="img" aria-label="codecrafters-io/build-your-own-x candlestick chart">
<text x="14.0" y="20.0" font-size="15" fill="#ffffff" font-weight="650">codecrafters-io/build-your-own-x</text>
<text x="282.0" y="20.0" font-size="11.5" fill="#c3c2b7">daily · new stars, volume = new forks</text>
<text x="805.8" y="20.0" font-size="11.0" fill="#c3c2b7">fall</text>
<rect x="791" y="10" width="9" height="12" fill="#008300"/>
<text x="750.6" y="20.0" font-size="11.0" fill="#c3c2b7">rise</text>
<rect x="736" y="10" width="9" height="12" fill="none" stroke="#e66767" stroke-width="1.5"/>
<text x="14.0" y="38.0" font-size="11.0" fill="#898781">last 18 days · +5,287 stars · +520 forks · updated 2026-07-14</text>
<rect x="10" y="66" width="820" height="290" fill="none" stroke="#2c2c2a"/>
<rect x="10" y="384" width="820" height="86" fill="none" stroke="#2c2c2a"/>
<text x="38.0" y="490.0" font-size="11.0" fill="#898781" text-anchor="middle">2026-06</text>
<line x1="192.2" y1="66.0" x2="192.2" y2="356.0" stroke="#2c2c2a" stroke-width="1.0"/>
<line x1="192.2" y1="384.0" x2="192.2" y2="470.0" stroke="#2c2c2a" stroke-width="1.0"/>
<text x="215.0" y="490.0" font-size="11.0" fill="#898781" text-anchor="middle">2026-07</text>
<text x="14.0" y="58.0" font-size="11.0" fill="#c3c2b7">BOLL(20,2)</text>
<text x="84.5" y="58.0" font-size="11.0" fill="#c98500">UP:—</text>
<text x="118.7" y="58.0" font-size="11.0" fill="#3987e5">MID:—</text>
<text x="158.9" y="58.0" font-size="11.0" fill="#d55181">LOW:—</text>
<text x="199.2" y="58.0" font-size="11.0" fill="#9085e9">MA7:259.1</text>
<line x1="10.0" y1="356.0" x2="830.0" y2="356.0" stroke="#2c2c2a" stroke-width="1.0"/>
<text x="14.0" y="353.0" font-size="11.0" fill="#898781">0</text>
<line x1="10.0" y1="215.8" x2="830.0" y2="215.8" stroke="#2c2c2a" stroke-width="1.0"/>
<text x="14.0" y="212.8" font-size="11.0" fill="#898781">200</text>
<line x1="10.0" y1="75.6" x2="830.0" y2="75.6" stroke="#2c2c2a" stroke-width="1.0"/>
<text x="14.0" y="72.6" font-size="11.0" fill="#898781">400</text>
<polyline points="306.1,110.7 351.7,113.5 397.2,115.3 442.8,117.2 488.3,138.3 533.9,151.7 579.4,165.1 625.0,176.3 670.6,177.2 716.1,189.8 761.7,195.1 807.2,174.4" fill="none" stroke="#9085e9" stroke-width="1.5" stroke-linejoin="round" stroke-linecap="round"/>
<rect x="20.8" y="138.7" width="24.0" height="217.3" fill="none" stroke="#e66767" stroke-width="1.3"/>
<rect x="66.3" y="107.8" width="24.0" height="30.8" fill="none" stroke="#e66767" stroke-width="1.3"/>
<rect x="111.9" y="107.8" width="24.0" height="9.1" fill="#008300"/>
<rect x="157.4" y="117.0" width="24.0" height="32.9" fill="#008300"/>
<rect x="203.0" y="88.2" width="24.0" height="61.7" fill="none" stroke="#e66767" stroke-width="1.3"/>
<rect x="248.6" y="79.8" width="24.0" height="8.4" fill="none" stroke="#e66767" stroke-width="1.3"/>
<rect x="294.1" y="79.8" width="24.0" height="14.0" fill="#008300"/>
<rect x="339.7" y="93.8" width="24.0" height="63.8" fill="#008300"/>
<rect x="385.2" y="120.5" width="24.0" height="37.2" fill="none" stroke="#e66767" stroke-width="1.3"/>
<rect x="430.8" y="120.5" width="24.0" height="10.5" fill="#008300"/>
<rect x="476.3" y="131.0" width="24.0" height="166.1" fill="#008300"/>
<rect x="521.9" y="182.2" width="24.0" height="115.0" fill="none" stroke="#e66767" stroke-width="1.3"/>
<rect x="567.4" y="173.0" width="24.0" height="9.1" fill="none" stroke="#e66767" stroke-width="1.3"/>
<rect x="613.0" y="173.0" width="24.0" height="1.2" fill="#898781"/>
<rect x="658.6" y="163.9" width="24.0" height="9.1" fill="none" stroke="#e66767" stroke-width="1.3"/>
<rect x="704.1" y="163.9" width="24.0" height="44.2" fill="#008300"/>
<rect x="749.7" y="168.1" width="24.0" height="40.0" fill="none" stroke="#e66767" stroke-width="1.3"/>
<rect x="795.2" y="152.0" width="24.0" height="16.1" fill="none" stroke="#e66767" stroke-width="1.3"/>
<circle cx="260.6" cy="79.8" r="2" fill="#c3c2b7"/>
<line x1="260.6" y1="79.8" x2="268.6" y2="79.8" stroke="#c3c2b7" stroke-width="1.0"/>
<text x="271.6" y="83.8" font-size="11.0" fill="#c3c2b7">394</text>
<circle cx="32.8" cy="356.0" r="2" fill="#c3c2b7"/>
<line x1="32.8" y1="356.0" x2="40.8" y2="356.0" stroke="#c3c2b7" stroke-width="1.0"/>
<text x="43.8" y="350.0" font-size="11.0" fill="#c3c2b7">0</text>
<text x="14.0" y="376.0" font-size="11.0" fill="#c3c2b7">VOL 20 forks</text>
<text x="96.6" y="376.0" font-size="11.0" fill="#c98500">MA5:21.6</text>
<text x="155.0" y="376.0" font-size="11.0" fill="#3987e5">MA10:23.4</text>
<text x="14.0" y="395.0" font-size="10" fill="#898781">44</text>
<rect x="20.8" y="410.4" width="24.0" height="59.6" fill="none" stroke="#e66767" stroke-width="1.1"/>
<rect x="66.3" y="408.5" width="24.0" height="61.5" fill="none" stroke="#e66767" stroke-width="1.1"/>
<rect x="111.9" y="397.3" width="24.0" height="72.7" fill="#008300"/>
<rect x="157.4" y="393.6" width="24.0" height="76.4" fill="#008300"/>
<rect x="203.0" y="404.8" width="24.0" height="65.2" fill="none" stroke="#e66767" stroke-width="1.1"/>
<rect x="248.6" y="388.0" width="24.0" height="82.0" fill="none" stroke="#e66767" stroke-width="1.1"/>
<rect x="294.1" y="412.2" width="24.0" height="57.8" fill="#008300"/>
<rect x="339.7" y="412.2" width="24.0" height="57.8" fill="#008300"/>
<rect x="385.2" y="404.8" width="24.0" height="65.2" fill="none" stroke="#e66767" stroke-width="1.1"/>
<rect x="430.8" y="421.5" width="24.0" height="48.5" fill="#008300"/>
<rect x="476.3" y="455.1" width="24.0" height="14.9" fill="#008300"/>
<rect x="521.9" y="425.3" width="24.0" height="44.7" fill="none" stroke="#e66767" stroke-width="1.1"/>
<rect x="567.4" y="408.5" width="24.0" height="61.5" fill="none" stroke="#e66767" stroke-width="1.1"/>
<rect x="613.0" y="425.3" width="24.0" height="44.7" fill="#898781"/>
<rect x="658.6" y="438.3" width="24.0" height="31.7" fill="none" stroke="#e66767" stroke-width="1.1"/>
<rect x="704.1" y="429.0" width="24.0" height="41.0" fill="#008300"/>
<rect x="749.7" y="423.4" width="24.0" height="46.6" fill="none" stroke="#e66767" stroke-width="1.1"/>
<rect x="795.2" y="432.7" width="24.0" height="37.3" fill="none" stroke="#e66767" stroke-width="1.1"/>
<polyline points="442.8,405.3 488.3,409.8 533.9,411.5 579.4,412.6 625.0,415.8 670.6,419.1 716.1,423.2 761.7,424.3 807.2,426.4" fill="none" stroke="#3987e5" stroke-width="1.5" stroke-linejoin="round" stroke-linecap="round"/>
<polyline points="215.0,402.9 260.6,398.4 306.1,399.2 351.7,402.2 397.2,404.4 442.8,407.8 488.3,421.2 533.9,423.8 579.4,423.0 625.0,427.1 670.6,430.5 716.1,425.3 761.7,424.9 807.2,429.7" fill="none" stroke="#c98500" stroke-width="1.5" stroke-linejoin="round" stroke-linecap="round"/>
</svg>