<svg xmlns="http://www.w3.org/2000/svg" viewBox="0 0 840 496" width="840" height="496" font-family="-apple-system,&#39;Segoe UI&#39;,system-ui,sans-serif" role="img" aria-label="codecrafters-io/build-your-own-x candlestick chart">
<text x="14.0" y="20.0" font-size="15" fill="#ffffff" font-weight="650">codecrafters-io/build-your-own-x</text>
<text x="282.0" y="20.0" font-size="11.5" fill="#c3c2b7">daily · new stars, volume = new forks</text>
<text x="805.8" y="20.0" font-size="11.0" fill="#c3c2b7">fall</text>
<rect x="791" y="10" width="9" height="12" fill="#008300"/>
<text x="750.6" y="20.0" font-size="11.0" fill="#c3c2b7">rise</text>
<rect x="736" y="10" width="9" height="12" fill="none" stroke="#e66767" stroke-width="1.5"/>
<text x="14.0" y="38.0" font-size="11.0" fill="#898781">last 22 days · +7,906 stars · +795 forks · updated 2026-07-18</text>
<rect x="10" y="66" width="820" height="290" fill="none" stroke="#2c2c2a"/>
<rect x="10" y="384" width="820" height="86" fill="none" stroke="#2c2c2a"/>
<text x="38.0" y="490.0" font-size="11.0" fill="#898781" text-anchor="middle">2026-06</text>
<line x1="159.1" y1="66.0" x2="159.1" y2="356.0" stroke="#2c2c2a" stroke-width="1.0"/>
<line x1="159.1" y1="384.0" x2="159.1" y2="470.0" stroke="#2c2c2a" stroke-width="1.0"/>
<text x="177.7" y="490.0" font-size="11.0" fill="#898781" text-anchor="middle">2026-07</text>
<text x="14.0" y="58.0" font-size="11.0" fill="#c3c2b7">BOLL(20,2)</text>
<text x="84.5" y="58.0" font-size="11.0" fill="#c98500">UP:776.2</text>
<text x="142.9" y="58.0" font-size="11.0" fill="#3987e5">MID:362.1</text>
<text x="207.4" y="58.0" font-size="11.0" fill="#d55181">LOW:0</text>
<text x="247.6" y="58.0" font-size="11.0" fill="#9085e9">MA7:484.1</text>
<line x1="10.0" y1="356.0" x2="830.0" y2="356.0" stroke="#2c2c2a" stroke-width="1.0"/>
<text x="14.0" y="353.0" font-size="11.0" fill="#898781">0</text>
<line x1="10.0" y1="226.0" x2="830.0" y2="226.0" stroke="#2c2c2a" stroke-width="1.0"/>
<text x="14.0" y="223.0" font-size="11.0" fill="#898781">500</text>
<line x1="10.0" y1="95.9" x2="830.0" y2="95.9" stroke="#2c2c2a" stroke-width="1.0"/>
<text x="14.0" y="92.9" font-size="11.0" fill="#898781">1,000</text>
<polyline points="736.8,239.4 774.1,203.0 811.4,154.1" fill="none" stroke="#c98500" stroke-width="1.5" stroke-linejoin="round" stroke-linecap="round"/>
<polyline points="736.8,277.4 774.1,271.0 811.4,261.8" fill="none" stroke="#3987e5" stroke-width="1.5" stroke-linejoin="round" stroke-linecap="round"/>
<polyline points="736.8,315.4 774.1,339.1 811.4,356.0" fill="none" stroke="#d55181" stroke-width="1.5" stroke-linejoin="round" stroke-linecap="round"/>
<polyline points="252.3,265.0 289.5,266.0 326.8,266.7 364.1,267.4 401.4,275.2 438.6,280.2 475.9,285.2 513.2,289.3 550.5,289.7 587.7,294.3 625.0,296.3 662.3,288.6 699.5,285.5 736.8,279.4 774.1,259.4 811.4,230.1" fill="none" stroke="#9085e9" stroke-width="1.5" stroke-linejoin="round" stroke-linecap="round"/>
<rect x="18.4" y="275.4" width="20.5" height="80.6" fill="none" stroke="#e66767" stroke-width="1.3"/>
<rect x="55.7" y="263.9" width="20.5" height="11.4" fill="none" stroke="#e66767" stroke-width="1.3"/>
<rect x="92.9" y="263.9" width="20.5" height="3.4" fill="#008300"/>
<rect x="130.2" y="267.3" width="20.5" height="12.2" fill="#008300"/>
<rect x="167.5" y="256.7" width="20.5" height="22.9" fill="none" stroke="#e66767" stroke-width="1.3"/>
<rect x="204.8" y="253.5" width="20.5" height="3.1" fill="none" stroke="#e66767" stroke-width="1.3"/>
<rect x="242.0" y="253.5" width="20.5" height="5.2" fill="#008300"/>
<rect x="279.3" y="258.7" width="20.5" height="23.7" fill="#008300"/>
<rect x="316.6" y="268.6" width="20.5" height="13.8" fill="none" stroke="#e66767" stroke-width="1.3"/>
<rect x="353.8" y="268.6" width="20.5" height="3.9" fill="#008300"/>
<rect x="391.1" y="272.5" width="20.5" height="61.6" fill="#008300"/>
<rect x="428.4" y="291.5" width="20.5" height="42.7" fill="none" stroke="#e66767" stroke-width="1.3"/>
<rect x="465.7" y="288.1" width="20.5" height="3.4" fill="none" stroke="#e66767" stroke-width="1.3"/>
<rect x="502.9" y="288.1" width="20.5" height="1.2" fill="#898781"/>
<rect x="540.2" y="284.7" width="20.5" height="3.4" fill="none" stroke="#e66767" stroke-width="1.3"/>
<rect x="577.5" y="284.7" width="20.5" height="16.4" fill="#008300"/>
<rect x="614.8" y="286.3" width="20.5" height="14.8" fill="none" stroke="#e66767" stroke-width="1.3"/>
<rect x="652.0" y="280.3" width="20.5" height="6.0" fill="none" stroke="#e66767" stroke-width="1.3"/>
<rect x="689.3" y="269.9" width="20.5" height="10.4" fill="none" stroke="#e66767" stroke-width="1.3"/>
<rect x="726.6" y="245.2" width="20.5" height="24.7" fill="none" stroke="#e66767" stroke-width="1.3"/>
<rect x="763.8" y="147.9" width="20.5" height="97.3" fill="none" stroke="#e66767" stroke-width="1.3"/>
<rect x="801.1" y="79.8" width="20.5" height="68.1" fill="none" stroke="#e66767" stroke-width="1.3"/>
<circle cx="811.4" cy="79.8" r="2" fill="#c3c2b7"/>
<line x1="811.4" y1="79.8" x2="803.4" y2="79.8" stroke="#c3c2b7" stroke-width="1.0"/>
<text x="800.4" y="83.8" font-size="11.0" fill="#c3c2b7" text-anchor="end">1,062</text>
<circle cx="28.6" cy="356.0" r="2" fill="#c3c2b7"/>
<line x1="28.6" y1="356.0" x2="36.6" y2="356.0" stroke="#c3c2b7" stroke-width="1.0"/>
<text x="39.6" y="350.0" font-size="11.0" fill="#c3c2b7">0</text>
<text x="14.0" y="376.0" font-size="11.0" fill="#c3c2b7">VOL 114 forks</text>
<text x="102.7" y="376.0" font-size="11.0" fill="#c98500">MA5:59</text>
<text x="149.0" y="376.0" font-size="11.0" fill="#3987e5">MA10:41.6</text>
<text x="14.0" y="395.0" font-size="10" fill="#898781">114</text>
<rect x="18.4" y="447.0" width="20.5" height="23.0" fill="none" stroke="#e66767" stroke-width="1.1"/>
<rect x="55.7" y="446.3" width="20.5" height="23.7" fill="none" stroke="#e66767" stroke-width="1.1"/>
<rect x="92.9" y="441.9" width="20.5" height="28.1" fill="#008300"/>
<rect x="130.2" y="440.5" width="20.5" height="29.5" fill="#008300"/>
<rect x="167.5" y="444.8" width="20.5" height="25.2" fill="none" stroke="#e66767" stroke-width="1.1"/>
<rect x="204.8" y="438.4" width="20.5" height="31.6" fill="none" stroke="#e66767" stroke-width="1.1"/>
<rect x="242.0" y="447.7" width="20.5" height="22.3" fill="#008300"/>
<rect x="279.3" y="447.7" width="20.5" height="22.3" fill="#008300"/>
<rect x="316.6" y="444.8" width="20.5" height="25.2" fill="none" stroke="#e66767" stroke-width="1.1"/>
<rect x="353.8" y="451.3" width="20.5" height="18.7" fill="#008300"/>
<rect x="391.1" y="464.2" width="20.5" height="5.8" fill="#008300"/>
<rect x="428.4" y="452.7" width="20.5" height="17.3" fill="none" stroke="#e66767" stroke-width="1.1"/>
<rect x="465.7" y="446.3" width="20.5" height="23.7" fill="none" stroke="#e66767" stroke-width="1.1"/>
<rect x="502.9" y="452.7" width="20.5" height="17.3" fill="#898781"/>
<rect x="540.2" y="457.8" width="20.5" height="12.2" fill="none" stroke="#e66767" stroke-width="1.1"/>
<rect x="577.5" y="454.2" width="20.5" height="15.8" fill="#008300"/>
<rect x="614.8" y="452.0" width="20.5" height="18.0" fill="none" stroke="#e66767" stroke-width="1.1"/>
<rect x="652.0" y="455.6" width="20.5" height="14.4" fill="none" stroke="#e66767" stroke-width="1.1"/>
<rect x="689.3" y="445.5" width="20.5" height="24.5" fill="none" stroke="#e66767" stroke-width="1.1"/>
<rect x="726.6" y="430.4" width="20.5" height="39.6" fill="none" stroke="#e66767" stroke-width="1.1"/>
<rect x="763.8" y="418.2" width="20.5" height="51.8" fill="none" stroke="#e66767" stroke-width="1.1"/>
<rect x="801.1" y="388.0" width="20.5" height="82.0" fill="none" stroke="#e66767" stroke-width="1.1"/>
<polyline points="364.1,445.0 401.4,446.8 438.6,447.4 475.9,447.8 513.2,449.1 550.5,450.4 587.7,451.9 625.0,452.4 662.3,453.2 699.5,453.2 736.8,451.2 774.1,446.6 811.4,440.1" fill="none" stroke="#3987e5" stroke-width="1.5" stroke-linejoin="round" stroke-linecap="round"/>
<polyline points="177.7,444.1 215.0,442.4 252.3,442.7 289.5,443.8 326.8,444.7 364.1,446.0 401.4,451.2 438.6,452.2 475.9,451.9 513.2,453.5 550.5,454.8 587.7,452.7 625.0,452.6 662.3,454.5 699.5,453.0 736.8,447.6 774.1,440.4 811.4,427.6" fill="none" stroke="#c98500" stroke-width="1.5" stroke-linejoin="round" stroke-linecap="round"/>
</svg>