<svg xmlns="http://www.w3.org/2000/svg" viewBox="0 0 840 496" width="840" height="496" font-family="-apple-system,&#39;Segoe UI&#39;,system-ui,sans-serif" role="img" aria-label="codecrafters-io/build-your-own-x candlestick chart">
<text x="14.0" y="20.0" font-size="15" fill="#0b0b0b" font-weight="650">codecrafters-io/build-your-own-x</text>
<text x="282.0" y="20.0" font-size="11.5" fill="#52514e">daily · new stars, volume = new forks</text>
<text x="805.8" y="20.0" font-size="11.0" fill="#52514e">fall</text>
<rect x="791" y="10" width="9" height="12" fill="#008300"/>
<text x="750.6" y="20.0" font-size="11.0" fill="#52514e">rise</text>
<rect x="736" y="10" width="9" height="12" fill="none" stroke="#e34948" stroke-width="1.5"/>
<text x="14.0" y="38.0" font-size="11.0" fill="#898781">last 26 days · +10,296 stars · +1,003 forks · updated 2026-07-22</text>
<rect x="10" y="66" width="820" height="290" fill="none" stroke="#e1e0d9"/>
<rect x="10" y="384" width="820" height="86" fill="none" stroke="#e1e0d9"/>
<text x="38.0" y="490.0" font-size="11.0" fill="#898781" text-anchor="middle">2026-06</text>
<line x1="136.2" y1="66.0" x2="136.2" y2="356.0" stroke="#e1e0d9" stroke-width="1.0"/>
<line x1="136.2" y1="384.0" x2="136.2" y2="470.0" stroke="#e1e0d9" stroke-width="1.0"/>
<text x="151.9" y="490.0" font-size="11.0" fill="#898781" text-anchor="middle">2026-07</text>
<text x="14.0" y="58.0" font-size="11.0" fill="#52514e">BOLL(20,2)</text>
<text x="84.5" y="58.0" font-size="11.0" fill="#eda100">UP:889.9</text>
<text x="142.9" y="58.0" font-size="11.0" fill="#2a78d6">MID:411.1</text>
<text x="207.4" y="58.0" font-size="11.0" fill="#e87ba4">LOW:0</text>
<text x="247.6" y="58.0" font-size="11.0" fill="#4a3aa7">MA7:668.3</text>
<line x1="10.0" y1="356.0" x2="830.0" y2="356.0" stroke="#e1e0d9" stroke-width="1.0"/>
<text x="14.0" y="353.0" font-size="11.0" fill="#898781">0</text>
<line x1="10.0" y1="226.0" x2="830.0" y2="226.0" stroke="#e1e0d9" stroke-width="1.0"/>
<text x="14.0" y="223.0" font-size="11.0" fill="#898781">500</text>
<line x1="10.0" y1="95.9" x2="830.0" y2="95.9" stroke="#e1e0d9" stroke-width="1.0"/>
<text x="14.0" y="92.9" font-size="11.0" fill="#898781">1,000</text>
<polyline points="625.0,239.4 656.5,203.0 688.1,154.1 719.6,134.4 751.2,126.1 782.7,124.6 814.2,124.6" fill="none" stroke="#eda100" stroke-width="1.5" stroke-linejoin="round" stroke-linecap="round"/>
<polyline points="625.0,277.4 656.5,271.0 688.1,261.8 719.6,255.3 751.2,250.4 782.7,249.1 814.2,249.1" fill="none" stroke="#2a78d6" stroke-width="1.5" stroke-linejoin="round" stroke-linecap="round"/>
<polyline points="625.0,315.4 656.5,339.1 688.1,356.0 719.6,356.0 751.2,356.0 782.7,356.0 814.2,356.0" fill="none" stroke="#e87ba4" stroke-width="1.5" stroke-linejoin="round" stroke-linecap="round"/>
<polyline points="215.0,265.0 246.5,266.0 278.1,266.7 309.6,267.4 341.2,275.2 372.7,280.2 404.2,285.2 435.8,289.3 467.3,289.7 498.8,294.3 530.4,296.3 561.9,288.6 593.5,285.5 625.0,279.4 656.5,259.4 688.1,230.1 719.6,206.5 751.2,191.6 782.7,184.5 814.2,182.2" fill="none" stroke="#4a3aa7" stroke-width="1.5" stroke-linejoin="round" stroke-linecap="round"/>
<rect x="17.1" y="275.4" width="17.3" height="80.6" fill="none" stroke="#e34948" stroke-width="1.3"/>
<rect x="48.6" y="263.9" width="17.3" height="11.4" fill="none" stroke="#e34948" stroke-width="1.3"/>
<rect x="80.2" y="263.9" width="17.3" height="3.4" fill="#008300"/>
<rect x="111.7" y="267.3" width="17.3" height="12.2" fill="#008300"/>
<rect x="143.2" y="256.7" width="17.3" height="22.9" fill="none" stroke="#e34948" stroke-width="1.3"/>
<rect x="174.8" y="253.5" width="17.3" height="3.1" fill="none" stroke="#e34948" stroke-width="1.3"/>
<rect x="206.3" y="253.5" width="17.3" height="5.2" fill="#008300"/>
<rect x="237.9" y="258.7" width="17.3" height="23.7" fill="#008300"/>
<rect x="269.4" y="268.6" width="17.3" height="13.8" fill="none" stroke="#e34948" stroke-width="1.3"/>
<rect x="300.9" y="268.6" width="17.3" height="3.9" fill="#008300"/>
<rect x="332.5" y="272.5" width="17.3" height="61.6" fill="#008300"/>
<rect x="364.0" y="291.5" width="17.3" height="42.7" fill="none" stroke="#e34948" stroke-width="1.3"/>
<rect x="395.6" y="288.1" width="17.3" height="3.4" fill="none" stroke="#e34948" stroke-width="1.3"/>
<rect x="427.1" y="288.1" width="17.3" height="1.2" fill="#898781"/>
<rect x="458.6" y="284.7" width="17.3" height="3.4" fill="none" stroke="#e34948" stroke-width="1.3"/>
<rect x="490.2" y="284.7" width="17.3" height="16.4" fill="#008300"/>
<rect x="521.7" y="286.3" width="17.3" height="14.8" fill="none" stroke="#e34948" stroke-width="1.3"/>
<rect x="553.2" y="280.3" width="17.3" height="6.0" fill="none" stroke="#e34948" stroke-width="1.3"/>
<rect x="584.8" y="269.9" width="17.3" height="10.4" fill="none" stroke="#e34948" stroke-width="1.3"/>
<rect x="616.3" y="245.2" width="17.3" height="24.7" fill="none" stroke="#e34948" stroke-width="1.3"/>
<rect x="647.9" y="147.9" width="17.3" height="97.3" fill="none" stroke="#e34948" stroke-width="1.3"/>
<rect x="679.4" y="79.8" width="17.3" height="68.1" fill="none" stroke="#e34948" stroke-width="1.3"/>
<rect x="710.9" y="79.8" width="17.3" height="55.9" fill="#008300"/>
<rect x="742.5" y="135.7" width="17.3" height="46.8" fill="#008300"/>
<rect x="774.0" y="182.5" width="17.3" height="47.9" fill="#008300"/>
<rect x="805.6" y="230.4" width="17.3" height="23.4" fill="#008300"/>
<circle cx="688.1" cy="79.8" r="2" fill="#52514e"/>
<line x1="688.1" y1="79.8" x2="680.1" y2="79.8" stroke="#52514e" stroke-width="1.0"/>
<text x="677.1" y="83.8" font-size="11.0" fill="#52514e" text-anchor="end">1,062</text>
<circle cx="25.8" cy="356.0" r="2" fill="#52514e"/>
<line x1="25.8" y1="356.0" x2="33.8" y2="356.0" stroke="#52514e" stroke-width="1.0"/>
<text x="36.8" y="350.0" font-size="11.0" fill="#52514e">0</text>
<text x="14.0" y="376.0" font-size="11.0" fill="#52514e">VOL 37 forks</text>
<text x="96.6" y="376.0" font-size="11.0" fill="#eda100">MA5:64.4</text>
<text x="155.0" y="376.0" font-size="11.0" fill="#2a78d6">MA10:52.8</text>
<text x="14.0" y="395.0" font-size="10" fill="#898781">114</text>
<rect x="17.1" y="447.0" width="17.3" height="23.0" fill="none" stroke="#e34948" stroke-width="1.1"/>
<rect x="48.6" y="446.3" width="17.3" height="23.7" fill="none" stroke="#e34948" stroke-width="1.1"/>
<rect x="80.2" y="441.9" width="17.3" height="28.1" fill="#008300"/>
<rect x="111.7" y="440.5" width="17.3" height="29.5" fill="#008300"/>
<rect x="143.2" y="444.8" width="17.3" height="25.2" fill="none" stroke="#e34948" stroke-width="1.1"/>
<rect x="174.8" y="438.4" width="17.3" height="31.6" fill="none" stroke="#e34948" stroke-width="1.1"/>
<rect x="206.3" y="447.7" width="17.3" height="22.3" fill="#008300"/>
<rect x="237.9" y="447.7" width="17.3" height="22.3" fill="#008300"/>
<rect x="269.4" y="444.8" width="17.3" height="25.2" fill="none" stroke="#e34948" stroke-width="1.1"/>
<rect x="300.9" y="451.3" width="17.3" height="18.7" fill="#008300"/>
<rect x="332.5" y="464.2" width="17.3" height="5.8" fill="#008300"/>
<rect x="364.0" y="452.7" width="17.3" height="17.3" fill="none" stroke="#e34948" stroke-width="1.1"/>
<rect x="395.6" y="446.3" width="17.3" height="23.7" fill="none" stroke="#e34948" stroke-width="1.1"/>
<rect x="427.1" y="452.7" width="17.3" height="17.3" fill="#898781"/>
<rect x="458.6" y="457.8" width="17.3" height="12.2" fill="none" stroke="#e34948" stroke-width="1.1"/>
<rect x="490.2" y="454.2" width="17.3" height="15.8" fill="#008300"/>
<rect x="521.7" y="452.0" width="17.3" height="18.0" fill="none" stroke="#e34948" stroke-width="1.1"/>
<rect x="553.2" y="455.6" width="17.3" height="14.4" fill="none" stroke="#e34948" stroke-width="1.1"/>
<rect x="584.8" y="445.5" width="17.3" height="24.5" fill="none" stroke="#e34948" stroke-width="1.1"/>
<rect x="616.3" y="430.4" width="17.3" height="39.6" fill="none" stroke="#e34948" stroke-width="1.1"/>
<rect x="647.9" y="418.2" width="17.3" height="51.8" fill="none" stroke="#e34948" stroke-width="1.1"/>
<rect x="679.4" y="388.0" width="17.3" height="82.0" fill="none" stroke="#e34948" stroke-width="1.1"/>
<rect x="710.9" y="413.9" width="17.3" height="56.1" fill="#008300"/>
<rect x="742.5" y="432.6" width="17.3" height="37.4" fill="#008300"/>
<rect x="774.0" y="440.5" width="17.3" height="29.5" fill="#008300"/>
<rect x="805.6" y="443.4" width="17.3" height="26.6" fill="#008300"/>
<polyline points="309.6,445.0 341.2,446.8 372.7,447.4 404.2,447.8 435.8,449.1 467.3,450.4 498.8,451.9 530.4,452.4 561.9,453.2 593.5,453.2 625.0,451.2 656.5,446.6 688.1,440.1 719.6,436.8 751.2,434.8 782.7,433.1 814.2,432.0" fill="none" stroke="#2a78d6" stroke-width="1.5" stroke-linejoin="round" stroke-linecap="round"/>
<polyline points="151.9,444.1 183.5,442.4 215.0,442.7 246.5,443.8 278.1,444.7 309.6,446.0 341.2,451.2 372.7,452.2 404.2,451.9 435.8,453.5 467.3,454.8 498.8,452.7 530.4,452.6 561.9,454.5 593.5,453.0 625.0,447.6 656.5,440.4 688.1,427.6 719.6,419.2 751.2,416.6 782.7,418.6 814.2,423.7" fill="none" stroke="#eda100" stroke-width="1.5" stroke-linejoin="round" stroke-linecap="round"/>
</svg>