<svg xmlns="http://www.w3.org/2000/svg" viewBox="0 0 840 496" width="840" height="496" font-family="-apple-system,&#39;Segoe UI&#39;,system-ui,sans-serif" role="img" aria-label="codecrafters-io/build-your-own-x candlestick chart">
<text x="14.0" y="20.0" font-size="15" fill="#ffffff" font-weight="650">codecrafters-io/build-your-own-x</text>
<text x="282.0" y="20.0" font-size="11.5" fill="#c3c2b7">daily · new stars, volume = new forks</text>
<text x="805.8" y="20.0" font-size="11.0" fill="#c3c2b7">fall</text>
<rect x="791" y="10" width="9" height="12" fill="#008300"/>
<text x="750.6" y="20.0" font-size="11.0" fill="#c3c2b7">rise</text>
<rect x="736" y="10" width="9" height="12" fill="none" stroke="#e66767" stroke-width="1.5"/>
<text x="14.0" y="38.0" font-size="11.0" fill="#898781">last 13 days · +3,982 stars · +412 forks · updated 2026-07-09</text>
<rect x="10" y="66" width="820" height="290" fill="none" stroke="#2c2c2a"/>
<rect x="10" y="384" width="820" height="86" fill="none" stroke="#2c2c2a"/>
<text x="41.5" y="490.0" font-size="11.0" fill="#898781" text-anchor="middle">2026-06</text>
<line x1="262.3" y1="66.0" x2="262.3" y2="356.0" stroke="#2c2c2a" stroke-width="1.0"/>
<line x1="262.3" y1="384.0" x2="262.3" y2="470.0" stroke="#2c2c2a" stroke-width="1.0"/>
<text x="293.8" y="490.0" font-size="11.0" fill="#898781" text-anchor="middle">2026-07</text>
<text x="14.0" y="58.0" font-size="11.0" fill="#c3c2b7">BOLL(20,2)</text>
<text x="84.5" y="58.0" font-size="11.0" fill="#c98500">UP:—</text>
<text x="118.7" y="58.0" font-size="11.0" fill="#3987e5">MID:—</text>
<text x="158.9" y="58.0" font-size="11.0" fill="#d55181">LOW:—</text>
<text x="199.2" y="58.0" font-size="11.0" fill="#9085e9">MA7:272.4</text>
<line x1="10.0" y1="356.0" x2="830.0" y2="356.0" stroke="#2c2c2a" stroke-width="1.0"/>
<text x="14.0" y="353.0" font-size="11.0" fill="#898781">0</text>
<line x1="10.0" y1="215.8" x2="830.0" y2="215.8" stroke="#2c2c2a" stroke-width="1.0"/>
<text x="14.0" y="212.8" font-size="11.0" fill="#898781">200</text>
<line x1="10.0" y1="75.6" x2="830.0" y2="75.6" stroke="#2c2c2a" stroke-width="1.0"/>
<text x="14.0" y="72.6" font-size="11.0" fill="#898781">400</text>
<polyline points="420.0,110.7 483.1,113.5 546.2,115.3 609.2,117.2 672.3,138.3 735.4,151.7 798.5,165.1" fill="none" stroke="#9085e9" stroke-width="1.5" stroke-linejoin="round" stroke-linecap="round"/>
<rect x="29.5" y="138.7" width="24.0" height="217.3" fill="none" stroke="#e66767" stroke-width="1.3"/>
<rect x="92.6" y="107.8" width="24.0" height="30.8" fill="none" stroke="#e66767" stroke-width="1.3"/>
<rect x="155.7" y="107.8" width="24.0" height="9.1" fill="#008300"/>
<rect x="218.8" y="117.0" width="24.0" height="32.9" fill="#008300"/>
<rect x="281.8" y="88.2" width="24.0" height="61.7" fill="none" stroke="#e66767" stroke-width="1.3"/>
<rect x="344.9" y="79.8" width="24.0" height="8.4" fill="none" stroke="#e66767" stroke-width="1.3"/>
<rect x="408.0" y="79.8" width="24.0" height="14.0" fill="#008300"/>
<rect x="471.1" y="93.8" width="24.0" height="63.8" fill="#008300"/>
<rect x="534.2" y="120.5" width="24.0" height="37.2" fill="none" stroke="#e66767" stroke-width="1.3"/>
<rect x="597.2" y="120.5" width="24.0" height="10.5" fill="#008300"/>
<rect x="660.3" y="131.0" width="24.0" height="166.1" fill="#008300"/>
<rect x="723.4" y="182.2" width="24.0" height="115.0" fill="none" stroke="#e66767" stroke-width="1.3"/>
<rect x="786.5" y="173.0" width="24.0" height="9.1" fill="none" stroke="#e66767" stroke-width="1.3"/>
<circle cx="356.9" cy="79.8" r="2" fill="#c3c2b7"/>
<line x1="356.9" y1="79.8" x2="364.9" y2="79.8" stroke="#c3c2b7" stroke-width="1.0"/>
<text x="367.9" y="83.8" font-size="11.0" fill="#c3c2b7">394</text>
<circle cx="41.5" cy="356.0" r="2" fill="#c3c2b7"/>
<line x1="41.5" y1="356.0" x2="49.5" y2="356.0" stroke="#c3c2b7" stroke-width="1.0"/>
<text x="52.5" y="350.0" font-size="11.0" fill="#c3c2b7">0</text>
<text x="14.0" y="376.0" font-size="11.0" fill="#c3c2b7">VOL 33 forks</text>
<text x="96.6" y="376.0" font-size="11.0" fill="#c98500">MA5:25.2</text>
<text x="155.0" y="376.0" font-size="11.0" fill="#3987e5">MA10:30.8</text>
<text x="14.0" y="395.0" font-size="10" fill="#898781">44</text>
<rect x="29.5" y="410.4" width="24.0" height="59.6" fill="none" stroke="#e66767" stroke-width="1.1"/>
<rect x="92.6" y="408.5" width="24.0" height="61.5" fill="none" stroke="#e66767" stroke-width="1.1"/>
<rect x="155.7" y="397.3" width="24.0" height="72.7" fill="#008300"/>
<rect x="218.8" y="393.6" width="24.0" height="76.4" fill="#008300"/>
<rect x="281.8" y="404.8" width="24.0" height="65.2" fill="none" stroke="#e66767" stroke-width="1.1"/>
<rect x="344.9" y="388.0" width="24.0" height="82.0" fill="none" stroke="#e66767" stroke-width="1.1"/>
<rect x="408.0" y="412.2" width="24.0" height="57.8" fill="#008300"/>
<rect x="471.1" y="412.2" width="24.0" height="57.8" fill="#008300"/>
<rect x="534.2" y="404.8" width="24.0" height="65.2" fill="none" stroke="#e66767" stroke-width="1.1"/>
<rect x="597.2" y="421.5" width="24.0" height="48.5" fill="#008300"/>
<rect x="660.3" y="455.1" width="24.0" height="14.9" fill="#008300"/>
<rect x="723.4" y="425.3" width="24.0" height="44.7" fill="none" stroke="#e66767" stroke-width="1.1"/>
<rect x="786.5" y="408.5" width="24.0" height="61.5" fill="none" stroke="#e66767" stroke-width="1.1"/>
<polyline points="609.2,405.3 672.3,409.8 735.4,411.5 798.5,412.6" fill="none" stroke="#3987e5" stroke-width="1.5" stroke-linejoin="round" stroke-linecap="round"/>
<polyline points="293.8,402.9 356.9,398.4 420.0,399.2 483.1,402.2 546.2,404.4 609.2,407.8 672.3,421.2 735.4,423.8 798.5,423.0" fill="none" stroke="#c98500" stroke-width="1.5" stroke-linejoin="round" stroke-linecap="round"/>
</svg>