<svg xmlns="http://www.w3.org/2000/svg" viewBox="0 0 840 496" width="840" height="496" font-family="-apple-system,&#39;Segoe UI&#39;,system-ui,sans-serif" role="img" aria-label="codecrafters-io/build-your-own-x candlestick chart">
<text x="14.0" y="20.0" font-size="15" fill="#ffffff" font-weight="650">codecrafters-io/build-your-own-x</text>
<text x="282.0" y="20.0" font-size="11.5" fill="#c3c2b7">daily · new stars, volume = new forks</text>
<text x="805.8" y="20.0" font-size="11.0" fill="#c3c2b7">fall</text>
<rect x="791" y="10" width="9" height="12" fill="#008300"/>
<text x="750.6" y="20.0" font-size="11.0" fill="#c3c2b7">rise</text>
<rect x="736" y="10" width="9" height="12" fill="none" stroke="#e66767" stroke-width="1.5"/>
<text x="14.0" y="38.0" font-size="11.0" fill="#898781">last 27 days · +10,654 stars · +1,038 forks · updated 2026-07-23</text>
<rect x="10" y="66" width="820" height="290" fill="none" stroke="#2c2c2a"/>
<rect x="10" y="384" width="820" height="86" fill="none" stroke="#2c2c2a"/>
<text x="38.0" y="490.0" font-size="11.0" fill="#898781" text-anchor="middle">2026-06</text>
<line x1="131.5" y1="66.0" x2="131.5" y2="356.0" stroke="#2c2c2a" stroke-width="1.0"/>
<line x1="131.5" y1="384.0" x2="131.5" y2="470.0" stroke="#2c2c2a" stroke-width="1.0"/>
<text x="146.7" y="490.0" font-size="11.0" fill="#898781" text-anchor="middle">2026-07</text>
<text x="14.0" y="58.0" font-size="11.0" fill="#c3c2b7">BOLL(20,2)</text>
<text x="84.5" y="58.0" font-size="11.0" fill="#c98500">UP:889.4</text>
<text x="142.9" y="58.0" font-size="11.0" fill="#3987e5">MID:410.2</text>
<text x="207.4" y="58.0" font-size="11.0" fill="#d55181">LOW:0</text>
<text x="247.6" y="58.0" font-size="11.0" fill="#9085e9">MA7:658.6</text>
<line x1="10.0" y1="356.0" x2="830.0" y2="356.0" stroke="#2c2c2a" stroke-width="1.0"/>
<text x="14.0" y="353.0" font-size="11.0" fill="#898781">0</text>
<line x1="10.0" y1="226.0" x2="830.0" y2="226.0" stroke="#2c2c2a" stroke-width="1.0"/>
<text x="14.0" y="223.0" font-size="11.0" fill="#898781">500</text>
<line x1="10.0" y1="95.9" x2="830.0" y2="95.9" stroke="#2c2c2a" stroke-width="1.0"/>
<text x="14.0" y="92.9" font-size="11.0" fill="#898781">1,000</text>
<polyline points="602.2,239.4 632.6,203.0 663.0,154.1 693.3,134.4 723.7,126.1 754.1,124.6 784.4,124.6 814.8,124.7" fill="none" stroke="#c98500" stroke-width="1.5" stroke-linejoin="round" stroke-linecap="round"/>
<polyline points="602.2,277.4 632.6,271.0 663.0,261.8 693.3,255.3 723.7,250.4 754.1,249.1 784.4,249.1 814.8,249.3" fill="none" stroke="#3987e5" stroke-width="1.5" stroke-linejoin="round" stroke-linecap="round"/>
<polyline points="602.2,315.4 632.6,339.1 663.0,356.0 693.3,356.0 723.7,356.0 754.1,356.0 784.4,356.0 814.8,356.0" fill="none" stroke="#d55181" stroke-width="1.5" stroke-linejoin="round" stroke-linecap="round"/>
<polyline points="207.4,265.0 237.8,266.0 268.1,266.7 298.5,267.4 328.9,275.2 359.3,280.2 389.6,285.2 420.0,289.3 450.4,289.7 480.7,294.3 511.1,296.3 541.5,288.6 571.9,285.5 602.2,279.4 632.6,259.4 663.0,230.1 693.3,206.5 723.7,191.6 754.1,184.5 784.4,182.2 814.8,184.7" fill="none" stroke="#9085e9" stroke-width="1.5" stroke-linejoin="round" stroke-linecap="round"/>
<rect x="16.8" y="275.4" width="16.7" height="80.6" fill="none" stroke="#e66767" stroke-width="1.3"/>
<rect x="47.2" y="263.9" width="16.7" height="11.4" fill="none" stroke="#e66767" stroke-width="1.3"/>
<rect x="77.6" y="263.9" width="16.7" height="3.4" fill="#008300"/>
<rect x="107.9" y="267.3" width="16.7" height="12.2" fill="#008300"/>
<rect x="138.3" y="256.7" width="16.7" height="22.9" fill="none" stroke="#e66767" stroke-width="1.3"/>
<rect x="168.7" y="253.5" width="16.7" height="3.1" fill="none" stroke="#e66767" stroke-width="1.3"/>
<rect x="199.1" y="253.5" width="16.7" height="5.2" fill="#008300"/>
<rect x="229.4" y="258.7" width="16.7" height="23.7" fill="#008300"/>
<rect x="259.8" y="268.6" width="16.7" height="13.8" fill="none" stroke="#e66767" stroke-width="1.3"/>
<rect x="290.2" y="268.6" width="16.7" height="3.9" fill="#008300"/>
<rect x="320.5" y="272.5" width="16.7" height="61.6" fill="#008300"/>
<rect x="350.9" y="291.5" width="16.7" height="42.7" fill="none" stroke="#e66767" stroke-width="1.3"/>
<rect x="381.3" y="288.1" width="16.7" height="3.4" fill="none" stroke="#e66767" stroke-width="1.3"/>
<rect x="411.6" y="288.1" width="16.7" height="1.2" fill="#898781"/>
<rect x="442.0" y="284.7" width="16.7" height="3.4" fill="none" stroke="#e66767" stroke-width="1.3"/>
<rect x="472.4" y="284.7" width="16.7" height="16.4" fill="#008300"/>
<rect x="502.8" y="286.3" width="16.7" height="14.8" fill="none" stroke="#e66767" stroke-width="1.3"/>
<rect x="533.1" y="280.3" width="16.7" height="6.0" fill="none" stroke="#e66767" stroke-width="1.3"/>
<rect x="563.5" y="269.9" width="16.7" height="10.4" fill="none" stroke="#e66767" stroke-width="1.3"/>
<rect x="593.9" y="245.2" width="16.7" height="24.7" fill="none" stroke="#e66767" stroke-width="1.3"/>
<rect x="624.2" y="147.9" width="16.7" height="97.3" fill="none" stroke="#e66767" stroke-width="1.3"/>
<rect x="654.6" y="79.8" width="16.7" height="68.1" fill="none" stroke="#e66767" stroke-width="1.3"/>
<rect x="685.0" y="79.8" width="16.7" height="55.9" fill="#008300"/>
<rect x="715.4" y="135.7" width="16.7" height="46.8" fill="#008300"/>
<rect x="745.7" y="182.5" width="16.7" height="47.9" fill="#008300"/>
<rect x="776.1" y="230.4" width="16.7" height="23.4" fill="#008300"/>
<rect x="806.5" y="253.8" width="16.7" height="9.1" fill="#008300"/>
<circle cx="663.0" cy="79.8" r="2" fill="#c3c2b7"/>
<line x1="663.0" y1="79.8" x2="655.0" y2="79.8" stroke="#c3c2b7" stroke-width="1.0"/>
<text x="652.0" y="83.8" font-size="11.0" fill="#c3c2b7" text-anchor="end">1,062</text>
<circle cx="25.2" cy="356.0" r="2" fill="#c3c2b7"/>
<line x1="25.2" y1="356.0" x2="33.2" y2="356.0" stroke="#c3c2b7" stroke-width="1.0"/>
<text x="36.2" y="350.0" font-size="11.0" fill="#c3c2b7">0</text>
<text x="14.0" y="376.0" font-size="11.0" fill="#c3c2b7">VOL 35 forks</text>
<text x="96.6" y="376.0" font-size="11.0" fill="#c98500">MA5:48.6</text>
<text x="155.0" y="376.0" font-size="11.0" fill="#3987e5">MA10:53.8</text>
<text x="14.0" y="395.0" font-size="10" fill="#898781">114</text>
<rect x="16.8" y="447.0" width="16.7" height="23.0" fill="none" stroke="#e66767" stroke-width="1.1"/>
<rect x="47.2" y="446.3" width="16.7" height="23.7" fill="none" stroke="#e66767" stroke-width="1.1"/>
<rect x="77.6" y="441.9" width="16.7" height="28.1" fill="#008300"/>
<rect x="107.9" y="440.5" width="16.7" height="29.5" fill="#008300"/>
<rect x="138.3" y="444.8" width="16.7" height="25.2" fill="none" stroke="#e66767" stroke-width="1.1"/>
<rect x="168.7" y="438.4" width="16.7" height="31.6" fill="none" stroke="#e66767" stroke-width="1.1"/>
<rect x="199.1" y="447.7" width="16.7" height="22.3" fill="#008300"/>
<rect x="229.4" y="447.7" width="16.7" height="22.3" fill="#008300"/>
<rect x="259.8" y="444.8" width="16.7" height="25.2" fill="none" stroke="#e66767" stroke-width="1.1"/>
<rect x="290.2" y="451.3" width="16.7" height="18.7" fill="#008300"/>
<rect x="320.5" y="464.2" width="16.7" height="5.8" fill="#008300"/>
<rect x="350.9" y="452.7" width="16.7" height="17.3" fill="none" stroke="#e66767" stroke-width="1.1"/>
<rect x="381.3" y="446.3" width="16.7" height="23.7" fill="none" stroke="#e66767" stroke-width="1.1"/>
<rect x="411.6" y="452.7" width="16.7" height="17.3" fill="#898781"/>
<rect x="442.0" y="457.8" width="16.7" height="12.2" fill="none" stroke="#e66767" stroke-width="1.1"/>
<rect x="472.4" y="454.2" width="16.7" height="15.8" fill="#008300"/>
<rect x="502.8" y="452.0" width="16.7" height="18.0" fill="none" stroke="#e66767" stroke-width="1.1"/>
<rect x="533.1" y="455.6" width="16.7" height="14.4" fill="none" stroke="#e66767" stroke-width="1.1"/>
<rect x="563.5" y="445.5" width="16.7" height="24.5" fill="none" stroke="#e66767" stroke-width="1.1"/>
<rect x="593.9" y="430.4" width="16.7" height="39.6" fill="none" stroke="#e66767" stroke-width="1.1"/>
<rect x="624.2" y="418.2" width="16.7" height="51.8" fill="none" stroke="#e66767" stroke-width="1.1"/>
<rect x="654.6" y="388.0" width="16.7" height="82.0" fill="none" stroke="#e66767" stroke-width="1.1"/>
<rect x="685.0" y="413.9" width="16.7" height="56.1" fill="#008300"/>
<rect x="715.4" y="432.6" width="16.7" height="37.4" fill="#008300"/>
<rect x="745.7" y="440.5" width="16.7" height="29.5" fill="#008300"/>
<rect x="776.1" y="443.4" width="16.7" height="26.6" fill="#008300"/>
<rect x="806.5" y="444.8" width="16.7" height="25.2" fill="#008300"/>
<polyline points="298.5,445.0 328.9,446.8 359.3,447.4 389.6,447.8 420.0,449.1 450.4,450.4 480.7,451.9 511.1,452.4 541.5,453.2 571.9,453.2 602.2,451.2 632.6,446.6 663.0,440.1 693.3,436.8 723.7,434.8 754.1,433.1 784.4,432.0 814.8,431.3" fill="none" stroke="#3987e5" stroke-width="1.5" stroke-linejoin="round" stroke-linecap="round"/>
<polyline points="146.7,444.1 177.0,442.4 207.4,442.7 237.8,443.8 268.1,444.7 298.5,446.0 328.9,451.2 359.3,452.2 389.6,451.9 420.0,453.5 450.4,454.8 480.7,452.7 511.1,452.6 541.5,454.5 571.9,453.0 602.2,447.6 632.6,440.4 663.0,427.6 693.3,419.2 723.7,416.6 754.1,418.6 784.4,423.7 814.8,435.0" fill="none" stroke="#c98500" stroke-width="1.5" stroke-linejoin="round" stroke-linecap="round"/>
</svg>