<svg xmlns="http://www.w3.org/2000/svg" viewBox="0 0 840 496" width="840" height="496" font-family="-apple-system,&#39;Segoe UI&#39;,system-ui,sans-serif" role="img" aria-label="codecrafters-io/build-your-own-x candlestick chart">
<text x="14.0" y="20.0" font-size="15" fill="#ffffff" font-weight="650">codecrafters-io/build-your-own-x</text>
<text x="282.0" y="20.0" font-size="11.5" fill="#c3c2b7">daily · new stars, volume = new forks</text>
<text x="805.8" y="20.0" font-size="11.0" fill="#c3c2b7">fall</text>
<rect x="791" y="10" width="9" height="12" fill="#008300"/>
<text x="750.6" y="20.0" font-size="11.0" fill="#c3c2b7">rise</text>
<rect x="736" y="10" width="9" height="12" fill="none" stroke="#e66767" stroke-width="1.5"/>
<text x="14.0" y="38.0" font-size="11.0" fill="#898781">last 20 days · +6,044 stars · +609 forks · updated 2026-07-16</text>
<rect x="10" y="66" width="820" height="290" fill="none" stroke="#2c2c2a"/>
<rect x="10" y="384" width="820" height="86" fill="none" stroke="#2c2c2a"/>
<text x="38.0" y="490.0" font-size="11.0" fill="#898781" text-anchor="middle">2026-06</text>
<line x1="174.0" y1="66.0" x2="174.0" y2="356.0" stroke="#2c2c2a" stroke-width="1.0"/>
<line x1="174.0" y1="384.0" x2="174.0" y2="470.0" stroke="#2c2c2a" stroke-width="1.0"/>
<text x="194.5" y="490.0" font-size="11.0" fill="#898781" text-anchor="middle">2026-07</text>
<text x="14.0" y="58.0" font-size="11.0" fill="#c3c2b7">BOLL(20,2)</text>
<text x="84.5" y="58.0" font-size="11.0" fill="#c98500">UP:448.2</text>
<text x="142.9" y="58.0" font-size="11.0" fill="#3987e5">MID:302.2</text>
<text x="207.4" y="58.0" font-size="11.0" fill="#d55181">LOW:156.2</text>
<text x="271.8" y="58.0" font-size="11.0" fill="#9085e9">MA7:294.6</text>
<line x1="10.0" y1="356.0" x2="830.0" y2="356.0" stroke="#2c2c2a" stroke-width="1.0"/>
<text x="14.0" y="353.0" font-size="11.0" fill="#898781">0</text>
<line x1="10.0" y1="232.8" x2="830.0" y2="232.8" stroke="#2c2c2a" stroke-width="1.0"/>
<text x="14.0" y="229.8" font-size="11.0" fill="#898781">200</text>
<line x1="10.0" y1="109.5" x2="830.0" y2="109.5" stroke="#2c2c2a" stroke-width="1.0"/>
<text x="14.0" y="106.5" font-size="11.0" fill="#898781">400</text>
<polyline points="276.5,140.4 317.5,142.8 358.5,144.4 399.5,146.1 440.5,164.6 481.5,176.4 522.5,188.2 563.5,198.1 604.5,198.9 645.5,209.9 686.5,214.5 727.5,196.4 768.5,189.0 809.5,174.5" fill="none" stroke="#9085e9" stroke-width="1.5" stroke-linejoin="round" stroke-linecap="round"/>
<rect x="19.2" y="165.0" width="22.6" height="191.0" fill="none" stroke="#e66767" stroke-width="1.3"/>
<rect x="60.2" y="137.9" width="22.6" height="27.1" fill="none" stroke="#e66767" stroke-width="1.3"/>
<rect x="101.2" y="137.9" width="22.6" height="8.0" fill="#008300"/>
<rect x="142.2" y="145.9" width="22.6" height="29.0" fill="#008300"/>
<rect x="183.2" y="120.6" width="22.6" height="54.2" fill="none" stroke="#e66767" stroke-width="1.3"/>
<rect x="224.2" y="113.2" width="22.6" height="7.4" fill="none" stroke="#e66767" stroke-width="1.3"/>
<rect x="265.2" y="113.2" width="22.6" height="12.3" fill="#008300"/>
<rect x="306.2" y="125.6" width="22.6" height="56.1" fill="#008300"/>
<rect x="347.2" y="149.0" width="22.6" height="32.7" fill="none" stroke="#e66767" stroke-width="1.3"/>
<rect x="388.2" y="149.0" width="22.6" height="9.2" fill="#008300"/>
<rect x="429.2" y="158.2" width="22.6" height="146.0" fill="#008300"/>
<rect x="470.2" y="203.2" width="22.6" height="101.1" fill="none" stroke="#e66767" stroke-width="1.3"/>
<rect x="511.2" y="195.2" width="22.6" height="8.0" fill="none" stroke="#e66767" stroke-width="1.3"/>
<rect x="552.2" y="195.2" width="22.6" height="1.2" fill="#898781"/>
<rect x="593.2" y="187.2" width="22.6" height="8.0" fill="none" stroke="#e66767" stroke-width="1.3"/>
<rect x="634.2" y="187.2" width="22.6" height="38.8" fill="#008300"/>
<rect x="675.2" y="190.9" width="22.6" height="35.1" fill="none" stroke="#e66767" stroke-width="1.3"/>
<rect x="716.2" y="176.7" width="22.6" height="14.2" fill="none" stroke="#e66767" stroke-width="1.3"/>
<rect x="757.2" y="152.0" width="22.6" height="24.6" fill="none" stroke="#e66767" stroke-width="1.3"/>
<rect x="798.2" y="93.5" width="22.6" height="58.5" fill="none" stroke="#e66767" stroke-width="1.3"/>
<circle cx="809.5" cy="93.5" r="2" fill="#c3c2b7"/>
<line x1="809.5" y1="93.5" x2="801.5" y2="93.5" stroke="#c3c2b7" stroke-width="1.0"/>
<text x="798.5" y="97.5" font-size="11.0" fill="#c3c2b7" text-anchor="end">426</text>
<circle cx="30.5" cy="356.0" r="2" fill="#c3c2b7"/>
<line x1="30.5" y1="356.0" x2="38.5" y2="356.0" stroke="#c3c2b7" stroke-width="1.0"/>
<text x="41.5" y="350.0" font-size="11.0" fill="#c3c2b7">0</text>
<text x="14.0" y="376.0" font-size="11.0" fill="#c3c2b7">VOL 55 forks</text>
<text x="96.6" y="376.0" font-size="11.0" fill="#c98500">MA5:31.2</text>
<text x="155.0" y="376.0" font-size="11.0" fill="#3987e5">MA10:26.2</text>
<text x="14.0" y="395.0" font-size="10" fill="#898781">55</text>
<rect x="19.2" y="422.3" width="22.6" height="47.7" fill="none" stroke="#e66767" stroke-width="1.1"/>
<rect x="60.2" y="420.8" width="22.6" height="49.2" fill="none" stroke="#e66767" stroke-width="1.1"/>
<rect x="101.2" y="411.9" width="22.6" height="58.1" fill="#008300"/>
<rect x="142.2" y="408.9" width="22.6" height="61.1" fill="#008300"/>
<rect x="183.2" y="417.8" width="22.6" height="52.2" fill="none" stroke="#e66767" stroke-width="1.1"/>
<rect x="224.2" y="404.4" width="22.6" height="65.6" fill="none" stroke="#e66767" stroke-width="1.1"/>
<rect x="265.2" y="423.8" width="22.6" height="46.2" fill="#008300"/>
<rect x="306.2" y="423.8" width="22.6" height="46.2" fill="#008300"/>
<rect x="347.2" y="417.8" width="22.6" height="52.2" fill="none" stroke="#e66767" stroke-width="1.1"/>
<rect x="388.2" y="431.2" width="22.6" height="38.8" fill="#008300"/>
<rect x="429.2" y="458.1" width="22.6" height="11.9" fill="#008300"/>
<rect x="470.2" y="434.2" width="22.6" height="35.8" fill="none" stroke="#e66767" stroke-width="1.1"/>
<rect x="511.2" y="420.8" width="22.6" height="49.2" fill="none" stroke="#e66767" stroke-width="1.1"/>
<rect x="552.2" y="434.2" width="22.6" height="35.8" fill="#898781"/>
<rect x="593.2" y="444.7" width="22.6" height="25.3" fill="none" stroke="#e66767" stroke-width="1.1"/>
<rect x="634.2" y="437.2" width="22.6" height="32.8" fill="#008300"/>
<rect x="675.2" y="432.7" width="22.6" height="37.3" fill="none" stroke="#e66767" stroke-width="1.1"/>
<rect x="716.2" y="440.2" width="22.6" height="29.8" fill="none" stroke="#e66767" stroke-width="1.1"/>
<rect x="757.2" y="419.3" width="22.6" height="50.7" fill="none" stroke="#e66767" stroke-width="1.1"/>
<rect x="798.2" y="388.0" width="22.6" height="82.0" fill="none" stroke="#e66767" stroke-width="1.1"/>
<polyline points="399.5,418.3 440.5,421.8 481.5,423.2 522.5,424.1 563.5,426.6 604.5,429.3 645.5,432.6 686.5,433.5 727.5,435.1 768.5,435.3 809.5,430.9" fill="none" stroke="#3987e5" stroke-width="1.5" stroke-linejoin="round" stroke-linecap="round"/>
<polyline points="194.5,416.3 235.5,412.7 276.5,413.3 317.5,415.7 358.5,417.5 399.5,420.2 440.5,430.9 481.5,433.0 522.5,432.4 563.5,435.7 604.5,438.4 645.5,434.2 686.5,433.9 727.5,437.8 768.5,434.8 809.5,423.5" fill="none" stroke="#c98500" stroke-width="1.5" stroke-linejoin="round" stroke-linecap="round"/>
</svg>