<svg xmlns="http://www.w3.org/2000/svg" viewBox="0 0 840 496" width="840" height="496" font-family="-apple-system,&#39;Segoe UI&#39;,system-ui,sans-serif" role="img" aria-label="codecrafters-io/build-your-own-x candlestick chart">
<text x="14.0" y="20.0" font-size="15" fill="#0b0b0b" font-weight="650">codecrafters-io/build-your-own-x</text>
<text x="282.0" y="20.0" font-size="11.5" fill="#52514e">daily · new stars, volume = new forks</text>
<text x="805.8" y="20.0" font-size="11.0" fill="#52514e">fall</text>
<rect x="791" y="10" width="9" height="12" fill="#008300"/>
<text x="750.6" y="20.0" font-size="11.0" fill="#52514e">rise</text>
<rect x="736" y="10" width="9" height="12" fill="none" stroke="#e34948" stroke-width="1.5"/>
<text x="14.0" y="38.0" font-size="11.0" fill="#898781">last 16 days · +4,728 stars · +475 forks · updated 2026-07-12</text>
<rect x="10" y="66" width="820" height="290" fill="none" stroke="#e1e0d9"/>
<rect x="10" y="384" width="820" height="86" fill="none" stroke="#e1e0d9"/>
<text x="38.0" y="490.0" font-size="11.0" fill="#898781" text-anchor="middle">2026-06</text>
<line x1="215.0" y1="66.0" x2="215.0" y2="356.0" stroke="#e1e0d9" stroke-width="1.0"/>
<line x1="215.0" y1="384.0" x2="215.0" y2="470.0" stroke="#e1e0d9" stroke-width="1.0"/>
<text x="240.6" y="490.0" font-size="11.0" fill="#898781" text-anchor="middle">2026-07</text>
<text x="14.0" y="58.0" font-size="11.0" fill="#52514e">BOLL(20,2)</text>
<text x="84.5" y="58.0" font-size="11.0" fill="#eda100">UP:—</text>
<text x="118.7" y="58.0" font-size="11.0" fill="#2a78d6">MID:—</text>
<text x="158.9" y="58.0" font-size="11.0" fill="#e87ba4">LOW:—</text>
<text x="199.2" y="58.0" font-size="11.0" fill="#4a3aa7">MA7:237.1</text>
<line x1="10.0" y1="356.0" x2="830.0" y2="356.0" stroke="#e1e0d9" stroke-width="1.0"/>
<text x="14.0" y="353.0" font-size="11.0" fill="#898781">0</text>
<line x1="10.0" y1="215.8" x2="830.0" y2="215.8" stroke="#e1e0d9" stroke-width="1.0"/>
<text x="14.0" y="212.8" font-size="11.0" fill="#898781">200</text>
<line x1="10.0" y1="75.6" x2="830.0" y2="75.6" stroke="#e1e0d9" stroke-width="1.0"/>
<text x="14.0" y="72.6" font-size="11.0" fill="#898781">400</text>
<polyline points="343.1,110.7 394.4,113.5 445.6,115.3 496.9,117.2 548.1,138.3 599.4,151.7 650.6,165.1 701.9,176.3 753.1,177.2 804.4,189.8" fill="none" stroke="#4a3aa7" stroke-width="1.5" stroke-linejoin="round" stroke-linecap="round"/>
<rect x="23.6" y="138.7" width="24.0" height="217.3" fill="none" stroke="#e34948" stroke-width="1.3"/>
<rect x="74.9" y="107.8" width="24.0" height="30.8" fill="none" stroke="#e34948" stroke-width="1.3"/>
<rect x="126.1" y="107.8" width="24.0" height="9.1" fill="#008300"/>
<rect x="177.4" y="117.0" width="24.0" height="32.9" fill="#008300"/>
<rect x="228.6" y="88.2" width="24.0" height="61.7" fill="none" stroke="#e34948" stroke-width="1.3"/>
<rect x="279.9" y="79.8" width="24.0" height="8.4" fill="none" stroke="#e34948" stroke-width="1.3"/>
<rect x="331.1" y="79.8" width="24.0" height="14.0" fill="#008300"/>
<rect x="382.4" y="93.8" width="24.0" height="63.8" fill="#008300"/>
<rect x="433.6" y="120.5" width="24.0" height="37.2" fill="none" stroke="#e34948" stroke-width="1.3"/>
<rect x="484.9" y="120.5" width="24.0" height="10.5" fill="#008300"/>
<rect x="536.1" y="131.0" width="24.0" height="166.1" fill="#008300"/>
<rect x="587.4" y="182.2" width="24.0" height="115.0" fill="none" stroke="#e34948" stroke-width="1.3"/>
<rect x="638.6" y="173.0" width="24.0" height="9.1" fill="none" stroke="#e34948" stroke-width="1.3"/>
<rect x="689.9" y="173.0" width="24.0" height="1.2" fill="#898781"/>
<rect x="741.1" y="163.9" width="24.0" height="9.1" fill="none" stroke="#e34948" stroke-width="1.3"/>
<rect x="792.4" y="163.9" width="24.0" height="44.2" fill="#008300"/>
<circle cx="291.9" cy="79.8" r="2" fill="#52514e"/>
<line x1="291.9" y1="79.8" x2="299.9" y2="79.8" stroke="#52514e" stroke-width="1.0"/>
<text x="302.9" y="83.8" font-size="11.0" fill="#52514e">394</text>
<circle cx="35.6" cy="356.0" r="2" fill="#52514e"/>
<line x1="35.6" y1="356.0" x2="43.6" y2="356.0" stroke="#52514e" stroke-width="1.0"/>
<text x="46.6" y="350.0" font-size="11.0" fill="#52514e">0</text>
<text x="14.0" y="376.0" font-size="11.0" fill="#52514e">VOL 22 forks</text>
<text x="96.6" y="376.0" font-size="11.0" fill="#eda100">MA5:24</text>
<text x="142.9" y="376.0" font-size="11.0" fill="#2a78d6">MA10:25.1</text>
<text x="14.0" y="395.0" font-size="10" fill="#898781">44</text>
<rect x="23.6" y="410.4" width="24.0" height="59.6" fill="none" stroke="#e34948" stroke-width="1.1"/>
<rect x="74.9" y="408.5" width="24.0" height="61.5" fill="none" stroke="#e34948" stroke-width="1.1"/>
<rect x="126.1" y="397.3" width="24.0" height="72.7" fill="#008300"/>
<rect x="177.4" y="393.6" width="24.0" height="76.4" fill="#008300"/>
<rect x="228.6" y="404.8" width="24.0" height="65.2" fill="none" stroke="#e34948" stroke-width="1.1"/>
<rect x="279.9" y="388.0" width="24.0" height="82.0" fill="none" stroke="#e34948" stroke-width="1.1"/>
<rect x="331.1" y="412.2" width="24.0" height="57.8" fill="#008300"/>
<rect x="382.4" y="412.2" width="24.0" height="57.8" fill="#008300"/>
<rect x="433.6" y="404.8" width="24.0" height="65.2" fill="none" stroke="#e34948" stroke-width="1.1"/>
<rect x="484.9" y="421.5" width="24.0" height="48.5" fill="#008300"/>
<rect x="536.1" y="455.1" width="24.0" height="14.9" fill="#008300"/>
<rect x="587.4" y="425.3" width="24.0" height="44.7" fill="none" stroke="#e34948" stroke-width="1.1"/>
<rect x="638.6" y="408.5" width="24.0" height="61.5" fill="none" stroke="#e34948" stroke-width="1.1"/>
<rect x="689.9" y="425.3" width="24.0" height="44.7" fill="#898781"/>
<rect x="741.1" y="438.3" width="24.0" height="31.7" fill="none" stroke="#e34948" stroke-width="1.1"/>
<rect x="792.4" y="429.0" width="24.0" height="41.0" fill="#008300"/>
<polyline points="496.9,405.3 548.1,409.8 599.4,411.5 650.6,412.6 701.9,415.8 753.1,419.1 804.4,423.2" fill="none" stroke="#2a78d6" stroke-width="1.5" stroke-linejoin="round" stroke-linecap="round"/>
<polyline points="240.6,402.9 291.9,398.4 343.1,399.2 394.4,402.2 445.6,404.4 496.9,407.8 548.1,421.2 599.4,423.8 650.6,423.0 701.9,427.1 753.1,430.5 804.4,425.3" fill="none" stroke="#eda100" stroke-width="1.5" stroke-linejoin="round" stroke-linecap="round"/>
</svg>