<svg xmlns="http://www.w3.org/2000/svg" viewBox="0 0 840 496" width="840" height="496" font-family="-apple-system,&#39;Segoe UI&#39;,system-ui,sans-serif" role="img" aria-label="codecrafters-io/build-your-own-x candlestick chart">
<text x="14.0" y="20.0" font-size="15" fill="#ffffff" font-weight="650">codecrafters-io/build-your-own-x</text>
<text x="282.0" y="20.0" font-size="11.5" fill="#c3c2b7">daily · commits, volume = lines changed</text>
<text x="805.8" y="20.0" font-size="11.0" fill="#c3c2b7">fall</text>
<rect x="791" y="10" width="9" height="12" fill="#008300"/>
<text x="750.6" y="20.0" font-size="11.0" fill="#c3c2b7">rise</text>
<rect x="736" y="10" width="9" height="12" fill="none" stroke="#e66767" stroke-width="1.5"/>
<text x="14.0" y="38.0" font-size="11.0" fill="#898781">last 60 active days · 89 commits · 187 lines changed · updated 2026-07-07</text>
<rect x="10" y="66" width="820" height="290" fill="none" stroke="#2c2c2a"/>
<rect x="10" y="384" width="820" height="86" fill="none" stroke="#2c2c2a"/>
<text x="38.0" y="490.0" font-size="11.0" fill="#898781" text-anchor="middle">2023-07</text>
<line x1="23.7" y1="66.0" x2="23.7" y2="356.0" stroke="#2c2c2a" stroke-width="1.0"/>
<line x1="23.7" y1="384.0" x2="23.7" y2="470.0" stroke="#2c2c2a" stroke-width="1.0"/>
<line x1="37.3" y1="66.0" x2="37.3" y2="356.0" stroke="#2c2c2a" stroke-width="1.0"/>
<line x1="37.3" y1="384.0" x2="37.3" y2="470.0" stroke="#2c2c2a" stroke-width="1.0"/>
<line x1="64.7" y1="66.0" x2="64.7" y2="356.0" stroke="#2c2c2a" stroke-width="1.0"/>
<line x1="64.7" y1="384.0" x2="64.7" y2="470.0" stroke="#2c2c2a" stroke-width="1.0"/>
<line x1="160.3" y1="66.0" x2="160.3" y2="356.0" stroke="#2c2c2a" stroke-width="1.0"/>
<line x1="160.3" y1="384.0" x2="160.3" y2="470.0" stroke="#2c2c2a" stroke-width="1.0"/>
<text x="167.2" y="490.0" font-size="11.0" fill="#898781" text-anchor="middle">2023-11</text>
<line x1="174.0" y1="66.0" x2="174.0" y2="356.0" stroke="#2c2c2a" stroke-width="1.0"/>
<line x1="174.0" y1="384.0" x2="174.0" y2="470.0" stroke="#2c2c2a" stroke-width="1.0"/>
<line x1="187.7" y1="66.0" x2="187.7" y2="356.0" stroke="#2c2c2a" stroke-width="1.0"/>
<line x1="187.7" y1="384.0" x2="187.7" y2="470.0" stroke="#2c2c2a" stroke-width="1.0"/>
<line x1="215.0" y1="66.0" x2="215.0" y2="356.0" stroke="#2c2c2a" stroke-width="1.0"/>
<line x1="215.0" y1="384.0" x2="215.0" y2="470.0" stroke="#2c2c2a" stroke-width="1.0"/>
<line x1="283.3" y1="66.0" x2="283.3" y2="356.0" stroke="#2c2c2a" stroke-width="1.0"/>
<line x1="283.3" y1="384.0" x2="283.3" y2="470.0" stroke="#2c2c2a" stroke-width="1.0"/>
<text x="290.2" y="490.0" font-size="11.0" fill="#898781" text-anchor="middle">2024-03</text>
<line x1="351.7" y1="66.0" x2="351.7" y2="356.0" stroke="#2c2c2a" stroke-width="1.0"/>
<line x1="351.7" y1="384.0" x2="351.7" y2="470.0" stroke="#2c2c2a" stroke-width="1.0"/>
<text x="358.5" y="490.0" font-size="11.0" fill="#898781" text-anchor="middle">2024-05</text>
<line x1="365.3" y1="66.0" x2="365.3" y2="356.0" stroke="#2c2c2a" stroke-width="1.0"/>
<line x1="365.3" y1="384.0" x2="365.3" y2="470.0" stroke="#2c2c2a" stroke-width="1.0"/>
<line x1="406.3" y1="66.0" x2="406.3" y2="356.0" stroke="#2c2c2a" stroke-width="1.0"/>
<line x1="406.3" y1="384.0" x2="406.3" y2="470.0" stroke="#2c2c2a" stroke-width="1.0"/>
<line x1="433.7" y1="66.0" x2="433.7" y2="356.0" stroke="#2c2c2a" stroke-width="1.0"/>
<line x1="433.7" y1="384.0" x2="433.7" y2="470.0" stroke="#2c2c2a" stroke-width="1.0"/>
<text x="440.5" y="490.0" font-size="11.0" fill="#898781" text-anchor="middle">2024-08</text>
<line x1="474.7" y1="66.0" x2="474.7" y2="356.0" stroke="#2c2c2a" stroke-width="1.0"/>
<line x1="474.7" y1="384.0" x2="474.7" y2="470.0" stroke="#2c2c2a" stroke-width="1.0"/>
<line x1="488.3" y1="66.0" x2="488.3" y2="356.0" stroke="#2c2c2a" stroke-width="1.0"/>
<line x1="488.3" y1="384.0" x2="488.3" y2="470.0" stroke="#2c2c2a" stroke-width="1.0"/>
<line x1="529.3" y1="66.0" x2="529.3" y2="356.0" stroke="#2c2c2a" stroke-width="1.0"/>
<line x1="529.3" y1="384.0" x2="529.3" y2="470.0" stroke="#2c2c2a" stroke-width="1.0"/>
<text x="536.2" y="490.0" font-size="11.0" fill="#898781" text-anchor="middle">2025-04</text>
<line x1="570.3" y1="66.0" x2="570.3" y2="356.0" stroke="#2c2c2a" stroke-width="1.0"/>
<line x1="570.3" y1="384.0" x2="570.3" y2="470.0" stroke="#2c2c2a" stroke-width="1.0"/>
<line x1="584.0" y1="66.0" x2="584.0" y2="356.0" stroke="#2c2c2a" stroke-width="1.0"/>
<line x1="584.0" y1="384.0" x2="584.0" y2="470.0" stroke="#2c2c2a" stroke-width="1.0"/>
<line x1="597.7" y1="66.0" x2="597.7" y2="356.0" stroke="#2c2c2a" stroke-width="1.0"/>
<line x1="597.7" y1="384.0" x2="597.7" y2="470.0" stroke="#2c2c2a" stroke-width="1.0"/>
<text x="604.5" y="490.0" font-size="11.0" fill="#898781" text-anchor="middle">2025-07</text>
<line x1="638.7" y1="66.0" x2="638.7" y2="356.0" stroke="#2c2c2a" stroke-width="1.0"/>
<line x1="638.7" y1="384.0" x2="638.7" y2="470.0" stroke="#2c2c2a" stroke-width="1.0"/>
<line x1="693.3" y1="66.0" x2="693.3" y2="356.0" stroke="#2c2c2a" stroke-width="1.0"/>
<line x1="693.3" y1="384.0" x2="693.3" y2="470.0" stroke="#2c2c2a" stroke-width="1.0"/>
<text x="700.2" y="490.0" font-size="11.0" fill="#898781" text-anchor="middle">2025-09</text>
<line x1="720.7" y1="66.0" x2="720.7" y2="356.0" stroke="#2c2c2a" stroke-width="1.0"/>
<line x1="720.7" y1="384.0" x2="720.7" y2="470.0" stroke="#2c2c2a" stroke-width="1.0"/>
<line x1="748.0" y1="66.0" x2="748.0" y2="356.0" stroke="#2c2c2a" stroke-width="1.0"/>
<line x1="748.0" y1="384.0" x2="748.0" y2="470.0" stroke="#2c2c2a" stroke-width="1.0"/>
<line x1="775.3" y1="66.0" x2="775.3" y2="356.0" stroke="#2c2c2a" stroke-width="1.0"/>
<line x1="775.3" y1="384.0" x2="775.3" y2="470.0" stroke="#2c2c2a" stroke-width="1.0"/>
<text x="782.2" y="490.0" font-size="11.0" fill="#898781" text-anchor="middle">2026-02</text>
<line x1="789.0" y1="66.0" x2="789.0" y2="356.0" stroke="#2c2c2a" stroke-width="1.0"/>
<line x1="789.0" y1="384.0" x2="789.0" y2="470.0" stroke="#2c2c2a" stroke-width="1.0"/>
<text x="14.0" y="58.0" font-size="11.0" fill="#c3c2b7">BOLL(20,2)</text>
<text x="84.5" y="58.0" font-size="11.0" fill="#c98500">UP:6.1</text>
<text x="130.8" y="58.0" font-size="11.0" fill="#3987e5">MID:1.8</text>
<text x="183.2" y="58.0" font-size="11.0" fill="#d55181">LOW:0</text>
<text x="223.4" y="58.0" font-size="11.0" fill="#9085e9">MA7:2.6</text>
<line x1="10.0" y1="356.0" x2="830.0" y2="356.0" stroke="#2c2c2a" stroke-width="1.0"/>
<text x="14.0" y="353.0" font-size="11.0" fill="#898781">0</text>
<line x1="10.0" y1="230.5" x2="830.0" y2="230.5" stroke="#2c2c2a" stroke-width="1.0"/>
<text x="14.0" y="227.5" font-size="11.0" fill="#898781">5</text>
<line x1="10.0" y1="104.9" x2="830.0" y2="104.9" stroke="#2c2c2a" stroke-width="1.0"/>
<text x="14.0" y="101.9" font-size="11.0" fill="#898781">10</text>
<polyline points="16.8,210.1 30.5,211.9 44.2,211.4 57.8,216.9 71.5,278.2 85.2,283.4 98.8,283.4 112.5,284.7 126.2,284.7 139.8,285.9 153.5,285.9 167.2,291.5 180.8,290.0 194.5,298.3 208.2,298.3 221.8,298.3 235.5,298.3 249.2,298.3 262.8,296.2 276.5,294.7 290.2,294.7 303.8,296.2 317.5,298.3 331.2,298.3 344.8,298.3 358.5,296.2 372.2,298.3 385.8,298.3 399.5,298.3 413.2,296.2 426.8,298.3 440.5,300.3 454.2,302.8 467.8,302.8 481.5,302.8 495.2,305.8 508.8,302.8 522.5,302.8 536.2,305.8 549.8,305.8 563.5,305.8 577.2,305.8 590.8,305.8 604.5,302.8 618.2,300.3 631.8,300.3 645.5,298.3 659.2,298.3 672.8,296.2 686.5,298.3 700.2,298.3 713.8,298.3 727.5,298.3 741.2,298.3 754.8,296.2 768.5,296.2 782.2,201.6 795.8,201.6 809.5,201.6 823.2,202.3" fill="none" stroke="#c98500" stroke-width="1.5" stroke-linejoin="round" stroke-linecap="round"/>
<polyline points="16.8,300.8 30.5,302.0 44.2,300.8 57.8,304.5 71.5,314.6 85.2,317.1 98.8,317.1 112.5,318.3 126.2,318.3 139.8,319.6 153.5,319.6 167.2,320.8 180.8,319.6 194.5,322.1 208.2,322.1 221.8,322.1 235.5,322.1 249.2,322.1 262.8,320.8 276.5,319.6 290.2,319.6 303.8,320.8 317.5,322.1 331.2,322.1 344.8,322.1 358.5,320.8 372.2,322.1 385.8,322.1 399.5,322.1 413.2,320.8 426.8,322.1 440.5,323.4 454.2,324.6 467.8,324.6 481.5,324.6 495.2,325.9 508.8,324.6 522.5,324.6 536.2,325.9 549.8,325.9 563.5,325.9 577.2,325.9 590.8,325.9 604.5,324.6 618.2,323.4 631.8,323.4 645.5,322.1 659.2,322.1 672.8,320.8 686.5,322.1 700.2,322.1 713.8,322.1 727.5,322.1 741.2,322.1 754.8,320.8 768.5,320.8 782.2,309.5 795.8,309.5 809.5,309.5 823.2,310.8" fill="none" stroke="#3987e5" stroke-width="1.5" stroke-linejoin="round" stroke-linecap="round"/>
<polyline points="16.8,356.0 30.5,356.0 44.2,356.0 57.8,356.0 71.5,351.0 85.2,350.7 98.8,350.7 112.5,352.0 126.2,352.0 139.8,353.2 153.5,353.2 167.2,350.2 180.8,349.2 194.5,346.0 208.2,346.0 221.8,346.0 235.5,346.0 249.2,346.0 262.8,345.5 276.5,344.5 290.2,344.5 303.8,345.5 317.5,346.0 331.2,346.0 344.8,346.0 358.5,345.5 372.2,346.0 385.8,346.0 399.5,346.0 413.2,345.5 426.8,346.0 440.5,346.5 454.2,346.5 467.8,346.5 481.5,346.5 495.2,346.0 508.8,346.5 522.5,346.5 536.2,346.0 549.8,346.0 563.5,346.0 577.2,346.0 590.8,346.0 604.5,346.5 618.2,346.5 631.8,346.5 645.5,346.0 659.2,346.0 672.8,345.5 686.5,346.0 700.2,346.0 713.8,346.0 727.5,346.0 741.2,346.0 754.8,345.5 768.5,345.5 782.2,356.0 795.8,356.0 809.5,356.0 823.2,356.0" fill="none" stroke="#d55181" stroke-width="1.5" stroke-linejoin="round" stroke-linecap="round"/>
<polyline points="16.8,328.4 30.5,323.4 44.2,323.4 57.8,323.4 71.5,323.4 85.2,323.4 98.8,320.8 112.5,320.8 126.2,323.4 139.8,328.4 153.5,323.4 167.2,320.8 180.8,315.8 194.5,320.8 208.2,320.8 221.8,315.8 235.5,315.8 249.2,320.8 262.8,320.8 276.5,320.8 290.2,320.8 303.8,320.8 317.5,323.4 331.2,323.4 344.8,323.4 358.5,323.4 372.2,328.4 385.8,328.4 399.5,328.4 413.2,323.4 426.8,323.4 440.5,323.4 454.2,328.4 467.8,328.4 481.5,328.4 495.2,328.4 508.8,328.4 522.5,328.4 536.2,328.4 549.8,323.4 563.5,323.4 577.2,323.4 590.8,323.4 604.5,323.4 618.2,320.8 631.8,315.8 645.5,315.8 659.2,315.8 672.8,313.3 686.5,313.3 700.2,315.8 713.8,320.8 727.5,323.4 741.2,328.4 754.8,323.4 768.5,328.4 782.2,290.7 795.8,290.7 809.5,290.7 823.2,290.7" fill="none" stroke="#9085e9" stroke-width="1.5" stroke-linejoin="round" stroke-linecap="round"/>
<rect x="13.1" y="330.9" width="7.5" height="25.1" fill="none" stroke="#e66767" stroke-width="1.3"/>
<rect x="26.7" y="305.8" width="7.5" height="50.2" fill="none" stroke="#e66767" stroke-width="1.3"/>
<rect x="40.4" y="305.8" width="7.5" height="50.2" fill="none" stroke="#e66767" stroke-width="1.3"/>
<rect x="54.1" y="330.9" width="7.5" height="25.1" fill="none" stroke="#e66767" stroke-width="1.3"/>
<rect x="67.7" y="330.9" width="7.5" height="25.1" fill="none" stroke="#e66767" stroke-width="1.3"/>
<rect x="81.4" y="330.9" width="7.5" height="25.1" fill="none" stroke="#e66767" stroke-width="1.3"/>
<rect x="95.1" y="305.8" width="7.5" height="25.1" fill="none" stroke="#e66767" stroke-width="1.3"/>
<rect x="108.7" y="330.9" width="7.5" height="25.1" fill="none" stroke="#e66767" stroke-width="1.3"/>
<rect x="122.4" y="330.9" width="7.5" height="25.1" fill="none" stroke="#e66767" stroke-width="1.3"/>
<rect x="136.1" y="330.9" width="7.5" height="25.1" fill="none" stroke="#e66767" stroke-width="1.3"/>
<rect x="149.7" y="305.8" width="7.5" height="50.2" fill="none" stroke="#e66767" stroke-width="1.3"/>
<rect x="163.4" y="305.8" width="7.5" height="50.2" fill="none" stroke="#e66767" stroke-width="1.3"/>
<rect x="177.1" y="305.8" width="7.5" height="50.2" fill="none" stroke="#e66767" stroke-width="1.3"/>
<rect x="190.7" y="330.9" width="7.5" height="25.1" fill="none" stroke="#e66767" stroke-width="1.3"/>
<rect x="204.4" y="330.9" width="7.5" height="1.2" fill="#898781"/>
<rect x="218.1" y="305.8" width="7.5" height="50.2" fill="none" stroke="#e66767" stroke-width="1.3"/>
<rect x="231.7" y="330.9" width="7.5" height="25.1" fill="none" stroke="#e66767" stroke-width="1.3"/>
<rect x="245.4" y="330.9" width="7.5" height="1.2" fill="#898781"/>
<rect x="259.1" y="305.8" width="7.5" height="50.2" fill="none" stroke="#e66767" stroke-width="1.3"/>
<rect x="272.7" y="305.8" width="7.5" height="50.2" fill="none" stroke="#e66767" stroke-width="1.3"/>
<rect x="286.4" y="330.9" width="7.5" height="25.1" fill="none" stroke="#e66767" stroke-width="1.3"/>
<rect x="300.1" y="330.9" width="7.5" height="1.2" fill="#898781"/>
<rect x="313.7" y="330.9" width="7.5" height="25.1" fill="none" stroke="#e66767" stroke-width="1.3"/>
<rect x="327.4" y="330.9" width="7.5" height="25.1" fill="none" stroke="#e66767" stroke-width="1.3"/>
<rect x="341.1" y="330.9" width="7.5" height="25.1" fill="none" stroke="#e66767" stroke-width="1.3"/>
<rect x="354.7" y="305.8" width="7.5" height="50.2" fill="none" stroke="#e66767" stroke-width="1.3"/>
<rect x="368.4" y="330.9" width="7.5" height="25.1" fill="none" stroke="#e66767" stroke-width="1.3"/>
<rect x="382.1" y="330.9" width="7.5" height="1.2" fill="#898781"/>
<rect x="395.7" y="330.9" width="7.5" height="25.1" fill="none" stroke="#e66767" stroke-width="1.3"/>
<rect x="409.4" y="305.8" width="7.5" height="50.2" fill="none" stroke="#e66767" stroke-width="1.3"/>
<rect x="423.1" y="330.9" width="7.5" height="25.1" fill="none" stroke="#e66767" stroke-width="1.3"/>
<rect x="436.7" y="330.9" width="7.5" height="25.1" fill="none" stroke="#e66767" stroke-width="1.3"/>
<rect x="450.4" y="330.9" width="7.5" height="25.1" fill="none" stroke="#e66767" stroke-width="1.3"/>
<rect x="464.1" y="330.9" width="7.5" height="25.1" fill="none" stroke="#e66767" stroke-width="1.3"/>
<rect x="477.7" y="330.9" width="7.5" height="25.1" fill="none" stroke="#e66767" stroke-width="1.3"/>
<rect x="491.4" y="330.9" width="7.5" height="25.1" fill="none" stroke="#e66767" stroke-width="1.3"/>
<rect x="505.1" y="305.8" width="7.5" height="50.2" fill="none" stroke="#e66767" stroke-width="1.3"/>
<rect x="518.7" y="330.9" width="7.5" height="25.1" fill="none" stroke="#e66767" stroke-width="1.3"/>
<rect x="532.4" y="330.9" width="7.5" height="25.1" fill="none" stroke="#e66767" stroke-width="1.3"/>
<rect x="546.1" y="305.8" width="7.5" height="50.2" fill="none" stroke="#e66767" stroke-width="1.3"/>
<rect x="559.7" y="330.9" width="7.5" height="25.1" fill="none" stroke="#e66767" stroke-width="1.3"/>
<rect x="573.4" y="330.9" width="7.5" height="25.1" fill="none" stroke="#e66767" stroke-width="1.3"/>
<rect x="587.1" y="330.9" width="7.5" height="25.1" fill="none" stroke="#e66767" stroke-width="1.3"/>
<rect x="600.7" y="305.8" width="7.5" height="50.2" fill="none" stroke="#e66767" stroke-width="1.3"/>
<rect x="614.4" y="305.8" width="7.5" height="50.2" fill="none" stroke="#e66767" stroke-width="1.3"/>
<rect x="628.1" y="305.8" width="7.5" height="50.2" fill="none" stroke="#e66767" stroke-width="1.3"/>
<rect x="641.7" y="305.8" width="7.5" height="50.2" fill="none" stroke="#e66767" stroke-width="1.3"/>
<rect x="655.4" y="330.9" width="7.5" height="25.1" fill="none" stroke="#e66767" stroke-width="1.3"/>
<rect x="669.1" y="305.8" width="7.5" height="50.2" fill="none" stroke="#e66767" stroke-width="1.3"/>
<rect x="682.7" y="305.8" width="7.5" height="25.1" fill="#008300"/>
<rect x="696.4" y="330.9" width="7.5" height="25.1" fill="none" stroke="#e66767" stroke-width="1.3"/>
<rect x="710.1" y="330.9" width="7.5" height="25.1" fill="none" stroke="#e66767" stroke-width="1.3"/>
<rect x="723.7" y="330.9" width="7.5" height="25.1" fill="none" stroke="#e66767" stroke-width="1.3"/>
<rect x="737.4" y="330.9" width="7.5" height="25.1" fill="none" stroke="#e66767" stroke-width="1.3"/>
<rect x="751.1" y="305.8" width="7.5" height="50.2" fill="none" stroke="#e66767" stroke-width="1.3"/>
<rect x="764.7" y="305.8" width="7.5" height="25.1" fill="#008300"/>
<rect x="778.4" y="79.8" width="7.5" height="276.2" fill="none" stroke="#e66767" stroke-width="1.3"/>
<rect x="792.1" y="330.9" width="7.5" height="25.1" fill="none" stroke="#e66767" stroke-width="1.3"/>
<rect x="805.7" y="330.9" width="7.5" height="25.1" fill="none" stroke="#e66767" stroke-width="1.3"/>
<rect x="819.4" y="330.9" width="7.5" height="25.1" fill="none" stroke="#e66767" stroke-width="1.3"/>
<circle cx="782.2" cy="79.8" r="2" fill="#c3c2b7"/>
<line x1="782.2" y1="79.8" x2="774.2" y2="79.8" stroke="#c3c2b7" stroke-width="1.0"/>
<text x="771.2" y="83.8" font-size="11.0" fill="#c3c2b7" text-anchor="end">11</text>
<circle cx="16.8" cy="356.0" r="2" fill="#c3c2b7"/>
<line x1="16.8" y1="356.0" x2="24.8" y2="356.0" stroke="#c3c2b7" stroke-width="1.0"/>
<text x="27.8" y="350.0" font-size="11.0" fill="#c3c2b7">0</text>
<text x="14.0" y="376.0" font-size="11.0" fill="#c3c2b7">VOL 1 lines</text>
<text x="90.5" y="376.0" font-size="11.0" fill="#c98500">MA5:7.2</text>
<text x="142.9" y="376.0" font-size="11.0" fill="#3987e5">MA10:4.7</text>
<text x="14.0" y="395.0" font-size="10" fill="#898781">29</text>
<rect x="13.1" y="464.3" width="7.5" height="5.7" fill="none" stroke="#e66767" stroke-width="1.1"/>
<rect x="26.7" y="464.3" width="7.5" height="5.7" fill="none" stroke="#e66767" stroke-width="1.1"/>
<rect x="40.4" y="453.0" width="7.5" height="17.0" fill="none" stroke="#e66767" stroke-width="1.1"/>
<rect x="54.1" y="464.3" width="7.5" height="5.7" fill="none" stroke="#e66767" stroke-width="1.1"/>
<rect x="67.7" y="467.2" width="7.5" height="2.8" fill="none" stroke="#e66767" stroke-width="1.1"/>
<rect x="81.4" y="467.2" width="7.5" height="2.8" fill="none" stroke="#e66767" stroke-width="1.1"/>
<rect x="95.1" y="424.8" width="7.5" height="45.2" fill="none" stroke="#e66767" stroke-width="1.1"/>
<rect x="108.7" y="464.3" width="7.5" height="5.7" fill="none" stroke="#e66767" stroke-width="1.1"/>
<rect x="122.4" y="464.3" width="7.5" height="5.7" fill="none" stroke="#e66767" stroke-width="1.1"/>
<rect x="136.1" y="464.3" width="7.5" height="5.7" fill="none" stroke="#e66767" stroke-width="1.1"/>
<rect x="149.7" y="453.0" width="7.5" height="17.0" fill="none" stroke="#e66767" stroke-width="1.1"/>
<rect x="163.4" y="464.3" width="7.5" height="5.7" fill="none" stroke="#e66767" stroke-width="1.1"/>
<rect x="177.1" y="458.7" width="7.5" height="11.3" fill="none" stroke="#e66767" stroke-width="1.1"/>
<rect x="190.7" y="464.3" width="7.5" height="5.7" fill="none" stroke="#e66767" stroke-width="1.1"/>
<rect x="204.4" y="464.3" width="7.5" height="5.7" fill="#898781"/>
<rect x="218.1" y="458.7" width="7.5" height="11.3" fill="none" stroke="#e66767" stroke-width="1.1"/>
<rect x="231.7" y="464.3" width="7.5" height="5.7" fill="none" stroke="#e66767" stroke-width="1.1"/>
<rect x="245.4" y="464.3" width="7.5" height="5.7" fill="#898781"/>
<rect x="259.1" y="458.7" width="7.5" height="11.3" fill="none" stroke="#e66767" stroke-width="1.1"/>
<rect x="272.7" y="458.7" width="7.5" height="11.3" fill="none" stroke="#e66767" stroke-width="1.1"/>
<rect x="286.4" y="464.3" width="7.5" height="5.7" fill="none" stroke="#e66767" stroke-width="1.1"/>
<rect x="300.1" y="464.3" width="7.5" height="5.7" fill="#898781"/>
<rect x="313.7" y="464.3" width="7.5" height="5.7" fill="none" stroke="#e66767" stroke-width="1.1"/>
<rect x="327.4" y="458.7" width="7.5" height="11.3" fill="none" stroke="#e66767" stroke-width="1.1"/>
<rect x="341.1" y="458.7" width="7.5" height="11.3" fill="none" stroke="#e66767" stroke-width="1.1"/>
<rect x="354.7" y="464.3" width="7.5" height="5.7" fill="none" stroke="#e66767" stroke-width="1.1"/>
<rect x="368.4" y="467.2" width="7.5" height="2.8" fill="none" stroke="#e66767" stroke-width="1.1"/>
<rect x="382.1" y="467.2" width="7.5" height="2.8" fill="#898781"/>
<rect x="395.7" y="464.3" width="7.5" height="5.7" fill="none" stroke="#e66767" stroke-width="1.1"/>
<rect x="409.4" y="458.7" width="7.5" height="11.3" fill="none" stroke="#e66767" stroke-width="1.1"/>
<rect x="423.1" y="464.3" width="7.5" height="5.7" fill="none" stroke="#e66767" stroke-width="1.1"/>
<rect x="436.7" y="467.2" width="7.5" height="2.8" fill="none" stroke="#e66767" stroke-width="1.1"/>
<rect x="450.4" y="467.2" width="7.5" height="2.8" fill="none" stroke="#e66767" stroke-width="1.1"/>
<rect x="464.1" y="464.3" width="7.5" height="5.7" fill="none" stroke="#e66767" stroke-width="1.1"/>
<rect x="477.7" y="464.3" width="7.5" height="5.7" fill="none" stroke="#e66767" stroke-width="1.1"/>
<rect x="491.4" y="461.5" width="7.5" height="8.5" fill="none" stroke="#e66767" stroke-width="1.1"/>
<rect x="505.1" y="461.5" width="7.5" height="8.5" fill="none" stroke="#e66767" stroke-width="1.1"/>
<rect x="518.7" y="467.2" width="7.5" height="2.8" fill="none" stroke="#e66767" stroke-width="1.1"/>
<rect x="532.4" y="467.2" width="7.5" height="2.8" fill="none" stroke="#e66767" stroke-width="1.1"/>
<rect x="546.1" y="464.3" width="7.5" height="5.7" fill="none" stroke="#e66767" stroke-width="1.1"/>
<rect x="559.7" y="458.7" width="7.5" height="11.3" fill="none" stroke="#e66767" stroke-width="1.1"/>
<rect x="573.4" y="467.2" width="7.5" height="2.8" fill="none" stroke="#e66767" stroke-width="1.1"/>
<rect x="587.1" y="467.2" width="7.5" height="2.8" fill="none" stroke="#e66767" stroke-width="1.1"/>
<rect x="600.7" y="447.4" width="7.5" height="22.6" fill="none" stroke="#e66767" stroke-width="1.1"/>
<rect x="614.4" y="458.7" width="7.5" height="11.3" fill="none" stroke="#e66767" stroke-width="1.1"/>
<rect x="628.1" y="464.3" width="7.5" height="5.7" fill="none" stroke="#e66767" stroke-width="1.1"/>
<rect x="641.7" y="455.9" width="7.5" height="14.1" fill="none" stroke="#e66767" stroke-width="1.1"/>
<rect x="655.4" y="467.2" width="7.5" height="2.8" fill="none" stroke="#e66767" stroke-width="1.1"/>
<rect x="669.1" y="461.5" width="7.5" height="8.5" fill="none" stroke="#e66767" stroke-width="1.1"/>
<rect x="682.7" y="467.2" width="7.5" height="2.8" fill="#008300"/>
<rect x="696.4" y="467.2" width="7.5" height="2.8" fill="none" stroke="#e66767" stroke-width="1.1"/>
<rect x="710.1" y="455.9" width="7.5" height="14.1" fill="none" stroke="#e66767" stroke-width="1.1"/>
<rect x="723.7" y="464.3" width="7.5" height="5.7" fill="none" stroke="#e66767" stroke-width="1.1"/>
<rect x="751.1" y="461.5" width="7.5" height="8.5" fill="none" stroke="#e66767" stroke-width="1.1"/>
<rect x="764.7" y="461.5" width="7.5" height="8.5" fill="#008300"/>
<rect x="778.4" y="388.0" width="7.5" height="82.0" fill="none" stroke="#e66767" stroke-width="1.1"/>
<rect x="792.1" y="467.2" width="7.5" height="2.8" fill="none" stroke="#e66767" stroke-width="1.1"/>
<rect x="805.7" y="464.3" width="7.5" height="5.7" fill="none" stroke="#e66767" stroke-width="1.1"/>
<rect x="819.4" y="467.2" width="7.5" height="2.8" fill="none" stroke="#e66767" stroke-width="1.1"/>
<polyline points="16.8,463.2 30.5,463.5 44.2,462.1 57.8,463.2 71.5,463.2 85.2,464.1 98.8,460.1 112.5,460.1 126.2,460.1 139.8,459.8 153.5,458.7 167.2,458.7 180.8,459.3 194.5,459.3 208.2,459.0 221.8,458.1 235.5,462.1 249.2,462.1 262.8,461.5 276.5,461.0 290.2,462.1 303.8,462.1 317.5,462.6 331.2,462.1 344.8,461.5 358.5,462.1 372.2,462.4 385.8,462.6 399.5,463.2 413.2,463.2 426.8,463.2 440.5,463.5 454.2,463.8 467.8,464.3 481.5,464.9 495.2,464.6 508.8,464.1 522.5,464.1 536.2,464.3 549.8,464.9 563.5,464.3 577.2,464.3 590.8,464.3 604.5,462.6 618.2,462.1 631.8,462.4 645.5,461.8 659.2,461.8 672.8,461.2 686.5,461.5 700.2,462.4 713.8,461.2 727.5,461.0 741.2,463.2 754.8,463.5 768.5,463.2 782.2,456.4 795.8,456.4 809.5,456.7 823.2,456.7" fill="none" stroke="#3987e5" stroke-width="1.5" stroke-linejoin="round" stroke-linecap="round"/>
<polyline points="16.8,464.9 30.5,464.9 44.2,462.6 57.8,462.6 71.5,462.6 85.2,463.2 98.8,455.3 112.5,457.6 126.2,457.6 139.8,457.0 153.5,454.2 167.2,462.1 180.8,461.0 194.5,461.0 208.2,461.0 221.8,462.1 235.5,462.1 249.2,463.2 262.8,462.1 276.5,461.0 290.2,462.1 303.8,462.1 317.5,462.1 331.2,462.1 344.8,462.1 358.5,462.1 372.2,462.6 385.8,463.2 399.5,464.3 413.2,464.3 426.8,464.3 440.5,464.3 454.2,464.3 467.8,464.3 481.5,465.5 495.2,464.9 508.8,463.8 522.5,463.8 536.2,464.3 549.8,464.3 563.5,463.8 577.2,464.9 590.8,464.9 604.5,461.0 618.2,459.8 631.8,461.0 645.5,458.7 659.2,458.7 672.8,461.5 686.5,463.2 700.2,463.8 713.8,463.8 727.5,463.2 741.2,464.9 754.8,463.8 768.5,462.6 782.2,449.1 795.8,449.6 809.5,448.5 823.2,449.6" fill="none" stroke="#c98500" stroke-width="1.5" stroke-linejoin="round" stroke-linecap="round"/>
</svg>