<svg xmlns="http://www.w3.org/2000/svg" viewBox="0 0 840 496" width="840" height="496" font-family="-apple-system,&#39;Segoe UI&#39;,system-ui,sans-serif" role="img" aria-label="codecrafters-io/build-your-own-x candlestick chart">
<text x="14.0" y="20.0" font-size="15" fill="#ffffff" font-weight="650">codecrafters-io/build-your-own-x</text>
<text x="282.0" y="20.0" font-size="11.5" fill="#c3c2b7">daily · new stars, volume = new forks</text>
<text x="805.8" y="20.0" font-size="11.0" fill="#c3c2b7">fall</text>
<rect x="791" y="10" width="9" height="12" fill="#008300"/>
<text x="750.6" y="20.0" font-size="11.0" fill="#c3c2b7">rise</text>
<rect x="736" y="10" width="9" height="12" fill="none" stroke="#e66767" stroke-width="1.5"/>
<text x="14.0" y="38.0" font-size="11.0" fill="#898781">last 17 days · +4,996 stars · +500 forks · updated 2026-07-13</text>
<rect x="10" y="66" width="820" height="290" fill="none" stroke="#2c2c2a"/>
<rect x="10" y="384" width="820" height="86" fill="none" stroke="#2c2c2a"/>
<text x="38.0" y="490.0" font-size="11.0" fill="#898781" text-anchor="middle">2026-06</text>
<line x1="202.9" y1="66.0" x2="202.9" y2="356.0" stroke="#2c2c2a" stroke-width="1.0"/>
<line x1="202.9" y1="384.0" x2="202.9" y2="470.0" stroke="#2c2c2a" stroke-width="1.0"/>
<text x="227.1" y="490.0" font-size="11.0" fill="#898781" text-anchor="middle">2026-07</text>
<text x="14.0" y="58.0" font-size="11.0" fill="#c3c2b7">BOLL(20,2)</text>
<text x="84.5" y="58.0" font-size="11.0" fill="#c98500">UP:—</text>
<text x="118.7" y="58.0" font-size="11.0" fill="#3987e5">MID:—</text>
<text x="158.9" y="58.0" font-size="11.0" fill="#d55181">LOW:—</text>
<text x="199.2" y="58.0" font-size="11.0" fill="#9085e9">MA7:229.6</text>
<line x1="10.0" y1="356.0" x2="830.0" y2="356.0" stroke="#2c2c2a" stroke-width="1.0"/>
<text x="14.0" y="353.0" font-size="11.0" fill="#898781">0</text>
<line x1="10.0" y1="215.8" x2="830.0" y2="215.8" stroke="#2c2c2a" stroke-width="1.0"/>
<text x="14.0" y="212.8" font-size="11.0" fill="#898781">200</text>
<line x1="10.0" y1="75.6" x2="830.0" y2="75.6" stroke="#2c2c2a" stroke-width="1.0"/>
<text x="14.0" y="72.6" font-size="11.0" fill="#898781">400</text>
<polyline points="323.5,110.7 371.8,113.5 420.0,115.3 468.2,117.2 516.5,138.3 564.7,151.7 612.9,165.1 661.2,176.3 709.4,177.2 757.6,189.8 805.9,195.1" fill="none" stroke="#9085e9" stroke-width="1.5" stroke-linejoin="round" stroke-linecap="round"/>
<rect x="22.1" y="138.7" width="24.0" height="217.3" fill="none" stroke="#e66767" stroke-width="1.3"/>
<rect x="70.4" y="107.8" width="24.0" height="30.8" fill="none" stroke="#e66767" stroke-width="1.3"/>
<rect x="118.6" y="107.8" width="24.0" height="9.1" fill="#008300"/>
<rect x="166.8" y="117.0" width="24.0" height="32.9" fill="#008300"/>
<rect x="215.1" y="88.2" width="24.0" height="61.7" fill="none" stroke="#e66767" stroke-width="1.3"/>
<rect x="263.3" y="79.8" width="24.0" height="8.4" fill="none" stroke="#e66767" stroke-width="1.3"/>
<rect x="311.5" y="79.8" width="24.0" height="14.0" fill="#008300"/>
<rect x="359.8" y="93.8" width="24.0" height="63.8" fill="#008300"/>
<rect x="408.0" y="120.5" width="24.0" height="37.2" fill="none" stroke="#e66767" stroke-width="1.3"/>
<rect x="456.2" y="120.5" width="24.0" height="10.5" fill="#008300"/>
<rect x="504.5" y="131.0" width="24.0" height="166.1" fill="#008300"/>
<rect x="552.7" y="182.2" width="24.0" height="115.0" fill="none" stroke="#e66767" stroke-width="1.3"/>
<rect x="600.9" y="173.0" width="24.0" height="9.1" fill="none" stroke="#e66767" stroke-width="1.3"/>
<rect x="649.2" y="173.0" width="24.0" height="1.2" fill="#898781"/>
<rect x="697.4" y="163.9" width="24.0" height="9.1" fill="none" stroke="#e66767" stroke-width="1.3"/>
<rect x="745.6" y="163.9" width="24.0" height="44.2" fill="#008300"/>
<rect x="793.9" y="168.1" width="24.0" height="40.0" fill="none" stroke="#e66767" stroke-width="1.3"/>
<circle cx="275.3" cy="79.8" r="2" fill="#c3c2b7"/>
<line x1="275.3" y1="79.8" x2="283.3" y2="79.8" stroke="#c3c2b7" stroke-width="1.0"/>
<text x="286.3" y="83.8" font-size="11.0" fill="#c3c2b7">394</text>
<circle cx="34.1" cy="356.0" r="2" fill="#c3c2b7"/>
<line x1="34.1" y1="356.0" x2="42.1" y2="356.0" stroke="#c3c2b7" stroke-width="1.0"/>
<text x="45.1" y="350.0" font-size="11.0" fill="#c3c2b7">0</text>
<text x="14.0" y="376.0" font-size="11.0" fill="#c3c2b7">VOL 25 forks</text>
<text x="96.6" y="376.0" font-size="11.0" fill="#c98500">MA5:24.2</text>
<text x="155.0" y="376.0" font-size="11.0" fill="#3987e5">MA10:24.5</text>
<text x="14.0" y="395.0" font-size="10" fill="#898781">44</text>
<rect x="22.1" y="410.4" width="24.0" height="59.6" fill="none" stroke="#e66767" stroke-width="1.1"/>
<rect x="70.4" y="408.5" width="24.0" height="61.5" fill="none" stroke="#e66767" stroke-width="1.1"/>
<rect x="118.6" y="397.3" width="24.0" height="72.7" fill="#008300"/>
<rect x="166.8" y="393.6" width="24.0" height="76.4" fill="#008300"/>
<rect x="215.1" y="404.8" width="24.0" height="65.2" fill="none" stroke="#e66767" stroke-width="1.1"/>
<rect x="263.3" y="388.0" width="24.0" height="82.0" fill="none" stroke="#e66767" stroke-width="1.1"/>
<rect x="311.5" y="412.2" width="24.0" height="57.8" fill="#008300"/>
<rect x="359.8" y="412.2" width="24.0" height="57.8" fill="#008300"/>
<rect x="408.0" y="404.8" width="24.0" height="65.2" fill="none" stroke="#e66767" stroke-width="1.1"/>
<rect x="456.2" y="421.5" width="24.0" height="48.5" fill="#008300"/>
<rect x="504.5" y="455.1" width="24.0" height="14.9" fill="#008300"/>
<rect x="552.7" y="425.3" width="24.0" height="44.7" fill="none" stroke="#e66767" stroke-width="1.1"/>
<rect x="600.9" y="408.5" width="24.0" height="61.5" fill="none" stroke="#e66767" stroke-width="1.1"/>
<rect x="649.2" y="425.3" width="24.0" height="44.7" fill="#898781"/>
<rect x="697.4" y="438.3" width="24.0" height="31.7" fill="none" stroke="#e66767" stroke-width="1.1"/>
<rect x="745.6" y="429.0" width="24.0" height="41.0" fill="#008300"/>
<rect x="793.9" y="423.4" width="24.0" height="46.6" fill="none" stroke="#e66767" stroke-width="1.1"/>
<polyline points="468.2,405.3 516.5,409.8 564.7,411.5 612.9,412.6 661.2,415.8 709.4,419.1 757.6,423.2 805.9,424.3" fill="none" stroke="#3987e5" stroke-width="1.5" stroke-linejoin="round" stroke-linecap="round"/>
<polyline points="227.1,402.9 275.3,398.4 323.5,399.2 371.8,402.2 420.0,404.4 468.2,407.8 516.5,421.2 564.7,423.8 612.9,423.0 661.2,427.1 709.4,430.5 757.6,425.3 805.9,424.9" fill="none" stroke="#c98500" stroke-width="1.5" stroke-linejoin="round" stroke-linecap="round"/>
</svg>