<svg xmlns="http://www.w3.org/2000/svg" viewBox="0 0 840 496" width="840" height="496" font-family="-apple-system,&#39;Segoe UI&#39;,system-ui,sans-serif" role="img" aria-label="codecrafters-io/build-your-own-x candlestick chart">
<text x="14.0" y="20.0" font-size="15" fill="#0b0b0b" font-weight="650">codecrafters-io/build-your-own-x</text>
<text x="282.0" y="20.0" font-size="11.5" fill="#52514e">daily · new stars, volume = new forks</text>
<text x="805.8" y="20.0" font-size="11.0" fill="#52514e">fall</text>
<rect x="791" y="10" width="9" height="12" fill="#008300"/>
<text x="750.6" y="20.0" font-size="11.0" fill="#52514e">rise</text>
<rect x="736" y="10" width="9" height="12" fill="none" stroke="#e34948" stroke-width="1.5"/>
<text x="14.0" y="38.0" font-size="11.0" fill="#898781">last 19 days · +5,618 stars · +554 forks · updated 2026-07-15</text>
<rect x="10" y="66" width="820" height="290" fill="none" stroke="#e1e0d9"/>
<rect x="10" y="384" width="820" height="86" fill="none" stroke="#e1e0d9"/>
<text x="38.0" y="490.0" font-size="11.0" fill="#898781" text-anchor="middle">2026-06</text>
<line x1="182.6" y1="66.0" x2="182.6" y2="356.0" stroke="#e1e0d9" stroke-width="1.0"/>
<line x1="182.6" y1="384.0" x2="182.6" y2="470.0" stroke="#e1e0d9" stroke-width="1.0"/>
<text x="204.2" y="490.0" font-size="11.0" fill="#898781" text-anchor="middle">2026-07</text>
<text x="14.0" y="58.0" font-size="11.0" fill="#52514e">BOLL(20,2)</text>
<text x="84.5" y="58.0" font-size="11.0" fill="#eda100">UP:—</text>
<text x="118.7" y="58.0" font-size="11.0" fill="#2a78d6">MID:—</text>
<text x="158.9" y="58.0" font-size="11.0" fill="#e87ba4">LOW:—</text>
<text x="199.2" y="58.0" font-size="11.0" fill="#4a3aa7">MA7:271</text>
<line x1="10.0" y1="356.0" x2="830.0" y2="356.0" stroke="#e1e0d9" stroke-width="1.0"/>
<text x="14.0" y="353.0" font-size="11.0" fill="#898781">0</text>
<line x1="10.0" y1="215.8" x2="830.0" y2="215.8" stroke="#e1e0d9" stroke-width="1.0"/>
<text x="14.0" y="212.8" font-size="11.0" fill="#898781">200</text>
<line x1="10.0" y1="75.6" x2="830.0" y2="75.6" stroke="#e1e0d9" stroke-width="1.0"/>
<text x="14.0" y="72.6" font-size="11.0" fill="#898781">400</text>
<polyline points="290.5,110.7 333.7,113.5 376.8,115.3 420.0,117.2 463.2,138.3 506.3,151.7 549.5,165.1 592.6,176.3 635.8,177.2 678.9,189.8 722.1,195.1 765.3,174.4 808.4,166.0" fill="none" stroke="#4a3aa7" stroke-width="1.5" stroke-linejoin="round" stroke-linecap="round"/>
<rect x="19.7" y="138.7" width="23.7" height="217.3" fill="none" stroke="#e34948" stroke-width="1.3"/>
<rect x="62.9" y="107.8" width="23.7" height="30.8" fill="none" stroke="#e34948" stroke-width="1.3"/>
<rect x="106.0" y="107.8" width="23.7" height="9.1" fill="#008300"/>
<rect x="149.2" y="117.0" width="23.7" height="32.9" fill="#008300"/>
<rect x="192.3" y="88.2" width="23.7" height="61.7" fill="none" stroke="#e34948" stroke-width="1.3"/>
<rect x="235.5" y="79.8" width="23.7" height="8.4" fill="none" stroke="#e34948" stroke-width="1.3"/>
<rect x="278.7" y="79.8" width="23.7" height="14.0" fill="#008300"/>
<rect x="321.8" y="93.8" width="23.7" height="63.8" fill="#008300"/>
<rect x="365.0" y="120.5" width="23.7" height="37.2" fill="none" stroke="#e34948" stroke-width="1.3"/>
<rect x="408.1" y="120.5" width="23.7" height="10.5" fill="#008300"/>
<rect x="451.3" y="131.0" width="23.7" height="166.1" fill="#008300"/>
<rect x="494.4" y="182.2" width="23.7" height="115.0" fill="none" stroke="#e34948" stroke-width="1.3"/>
<rect x="537.6" y="173.0" width="23.7" height="9.1" fill="none" stroke="#e34948" stroke-width="1.3"/>
<rect x="580.8" y="173.0" width="23.7" height="1.2" fill="#898781"/>
<rect x="623.9" y="163.9" width="23.7" height="9.1" fill="none" stroke="#e34948" stroke-width="1.3"/>
<rect x="667.1" y="163.9" width="23.7" height="44.2" fill="#008300"/>
<rect x="710.2" y="168.1" width="23.7" height="40.0" fill="none" stroke="#e34948" stroke-width="1.3"/>
<rect x="753.4" y="152.0" width="23.7" height="16.1" fill="none" stroke="#e34948" stroke-width="1.3"/>
<rect x="796.6" y="124.0" width="23.7" height="28.0" fill="none" stroke="#e34948" stroke-width="1.3"/>
<circle cx="247.4" cy="79.8" r="2" fill="#52514e"/>
<line x1="247.4" y1="79.8" x2="255.4" y2="79.8" stroke="#52514e" stroke-width="1.0"/>
<text x="258.4" y="83.8" font-size="11.0" fill="#52514e">394</text>
<circle cx="31.6" cy="356.0" r="2" fill="#52514e"/>
<line x1="31.6" y1="356.0" x2="39.6" y2="356.0" stroke="#52514e" stroke-width="1.0"/>
<text x="42.6" y="350.0" font-size="11.0" fill="#52514e">0</text>
<text x="14.0" y="376.0" font-size="11.0" fill="#52514e">VOL 34 forks</text>
<text x="96.6" y="376.0" font-size="11.0" fill="#eda100">MA5:23.6</text>
<text x="155.0" y="376.0" font-size="11.0" fill="#2a78d6">MA10:23.3</text>
<text x="14.0" y="395.0" font-size="10" fill="#898781">44</text>
<rect x="19.7" y="410.4" width="23.7" height="59.6" fill="none" stroke="#e34948" stroke-width="1.1"/>
<rect x="62.9" y="408.5" width="23.7" height="61.5" fill="none" stroke="#e34948" stroke-width="1.1"/>
<rect x="106.0" y="397.3" width="23.7" height="72.7" fill="#008300"/>
<rect x="149.2" y="393.6" width="23.7" height="76.4" fill="#008300"/>
<rect x="192.3" y="404.8" width="23.7" height="65.2" fill="none" stroke="#e34948" stroke-width="1.1"/>
<rect x="235.5" y="388.0" width="23.7" height="82.0" fill="none" stroke="#e34948" stroke-width="1.1"/>
<rect x="278.7" y="412.2" width="23.7" height="57.8" fill="#008300"/>
<rect x="321.8" y="412.2" width="23.7" height="57.8" fill="#008300"/>
<rect x="365.0" y="404.8" width="23.7" height="65.2" fill="none" stroke="#e34948" stroke-width="1.1"/>
<rect x="408.1" y="421.5" width="23.7" height="48.5" fill="#008300"/>
<rect x="451.3" y="455.1" width="23.7" height="14.9" fill="#008300"/>
<rect x="494.4" y="425.3" width="23.7" height="44.7" fill="none" stroke="#e34948" stroke-width="1.1"/>
<rect x="537.6" y="408.5" width="23.7" height="61.5" fill="none" stroke="#e34948" stroke-width="1.1"/>
<rect x="580.8" y="425.3" width="23.7" height="44.7" fill="#898781"/>
<rect x="623.9" y="438.3" width="23.7" height="31.7" fill="none" stroke="#e34948" stroke-width="1.1"/>
<rect x="667.1" y="429.0" width="23.7" height="41.0" fill="#008300"/>
<rect x="710.2" y="423.4" width="23.7" height="46.6" fill="none" stroke="#e34948" stroke-width="1.1"/>
<rect x="753.4" y="432.7" width="23.7" height="37.3" fill="none" stroke="#e34948" stroke-width="1.1"/>
<rect x="796.6" y="406.6" width="23.7" height="63.4" fill="none" stroke="#e34948" stroke-width="1.1"/>
<polyline points="420.0,405.3 463.2,409.8 506.3,411.5 549.5,412.6 592.6,415.8 635.8,419.1 678.9,423.2 722.1,424.3 765.3,426.4 808.4,426.6" fill="none" stroke="#2a78d6" stroke-width="1.5" stroke-linejoin="round" stroke-linecap="round"/>
<polyline points="204.2,402.9 247.4,398.4 290.5,399.2 333.7,402.2 376.8,404.4 420.0,407.8 463.2,421.2 506.3,423.8 549.5,423.0 592.6,427.1 635.8,430.5 678.9,425.3 722.1,424.9 765.3,429.7 808.4,426.0" fill="none" stroke="#eda100" stroke-width="1.5" stroke-linejoin="round" stroke-linecap="round"/>
</svg>