<svg xmlns="http://www.w3.org/2000/svg" viewBox="0 0 840 496" width="840" height="496" font-family="-apple-system,&#39;Segoe UI&#39;,system-ui,sans-serif" role="img" aria-label="codecrafters-io/build-your-own-x candlestick chart">
<text x="14.0" y="20.0" font-size="15" fill="#ffffff" font-weight="650">codecrafters-io/build-your-own-x</text>
<text x="282.0" y="20.0" font-size="11.5" fill="#c3c2b7">daily · new stars, volume = new forks</text>
<text x="805.8" y="20.0" font-size="11.0" fill="#c3c2b7">fall</text>
<rect x="791" y="10" width="9" height="12" fill="#008300"/>
<text x="750.6" y="20.0" font-size="11.0" fill="#c3c2b7">rise</text>
<rect x="736" y="10" width="9" height="12" fill="none" stroke="#e66767" stroke-width="1.5"/>
<text x="14.0" y="38.0" font-size="11.0" fill="#898781">last 21 days · +6,844 stars · +681 forks · updated 2026-07-17</text>
<rect x="10" y="66" width="820" height="290" fill="none" stroke="#2c2c2a"/>
<rect x="10" y="384" width="820" height="86" fill="none" stroke="#2c2c2a"/>
<text x="38.0" y="490.0" font-size="11.0" fill="#898781" text-anchor="middle">2026-06</text>
<line x1="166.2" y1="66.0" x2="166.2" y2="356.0" stroke="#2c2c2a" stroke-width="1.0"/>
<line x1="166.2" y1="384.0" x2="166.2" y2="470.0" stroke="#2c2c2a" stroke-width="1.0"/>
<text x="185.7" y="490.0" font-size="11.0" fill="#898781" text-anchor="middle">2026-07</text>
<text x="14.0" y="58.0" font-size="11.0" fill="#c3c2b7">BOLL(20,2)</text>
<text x="84.5" y="58.0" font-size="11.0" fill="#c98500">UP:588.4</text>
<text x="142.9" y="58.0" font-size="11.0" fill="#3987e5">MID:326.7</text>
<text x="207.4" y="58.0" font-size="11.0" fill="#d55181">LOW:65.0</text>
<text x="265.8" y="58.0" font-size="11.0" fill="#9085e9">MA7:371.6</text>
<line x1="10.0" y1="356.0" x2="830.0" y2="356.0" stroke="#2c2c2a" stroke-width="1.0"/>
<text x="14.0" y="353.0" font-size="11.0" fill="#898781">0</text>
<line x1="10.0" y1="183.4" x2="830.0" y2="183.4" stroke="#2c2c2a" stroke-width="1.0"/>
<text x="14.0" y="180.4" font-size="11.0" fill="#898781">500</text>
<polyline points="771.4,201.3 810.5,152.9" fill="none" stroke="#c98500" stroke-width="1.5" stroke-linejoin="round" stroke-linecap="round"/>
<polyline points="771.4,251.7 810.5,243.2" fill="none" stroke="#3987e5" stroke-width="1.5" stroke-linejoin="round" stroke-linecap="round"/>
<polyline points="771.4,302.1 810.5,333.6" fill="none" stroke="#d55181" stroke-width="1.5" stroke-linejoin="round" stroke-linecap="round"/>
<polyline points="263.8,235.2 302.9,236.5 341.9,237.4 381.0,238.4 420.0,248.8 459.0,255.4 498.1,262.0 537.1,267.5 576.2,268.0 615.2,274.1 654.3,276.7 693.3,266.5 732.4,262.4 771.4,254.3 810.5,227.7" fill="none" stroke="#9085e9" stroke-width="1.5" stroke-linejoin="round" stroke-linecap="round"/>
<rect x="18.8" y="249.0" width="21.5" height="107.0" fill="none" stroke="#e66767" stroke-width="1.3"/>
<rect x="57.8" y="233.8" width="21.5" height="15.2" fill="none" stroke="#e66767" stroke-width="1.3"/>
<rect x="96.9" y="233.8" width="21.5" height="4.5" fill="#008300"/>
<rect x="135.9" y="238.3" width="21.5" height="16.2" fill="#008300"/>
<rect x="175.0" y="224.1" width="21.5" height="30.4" fill="none" stroke="#e66767" stroke-width="1.3"/>
<rect x="214.0" y="220.0" width="21.5" height="4.1" fill="none" stroke="#e66767" stroke-width="1.3"/>
<rect x="253.1" y="220.0" width="21.5" height="6.9" fill="#008300"/>
<rect x="292.1" y="226.9" width="21.5" height="31.4" fill="#008300"/>
<rect x="331.2" y="240.0" width="21.5" height="18.3" fill="none" stroke="#e66767" stroke-width="1.3"/>
<rect x="370.2" y="240.0" width="21.5" height="5.2" fill="#008300"/>
<rect x="409.3" y="245.2" width="21.5" height="81.8" fill="#008300"/>
<rect x="448.3" y="270.4" width="21.5" height="56.6" fill="none" stroke="#e66767" stroke-width="1.3"/>
<rect x="487.4" y="265.9" width="21.5" height="4.5" fill="none" stroke="#e66767" stroke-width="1.3"/>
<rect x="526.4" y="265.9" width="21.5" height="1.2" fill="#898781"/>
<rect x="565.5" y="261.4" width="21.5" height="4.5" fill="none" stroke="#e66767" stroke-width="1.3"/>
<rect x="604.5" y="261.4" width="21.5" height="21.8" fill="#008300"/>
<rect x="643.5" y="263.5" width="21.5" height="19.7" fill="none" stroke="#e66767" stroke-width="1.3"/>
<rect x="682.6" y="255.5" width="21.5" height="7.9" fill="none" stroke="#e66767" stroke-width="1.3"/>
<rect x="721.6" y="241.7" width="21.5" height="13.8" fill="none" stroke="#e66767" stroke-width="1.3"/>
<rect x="760.7" y="208.9" width="21.5" height="32.8" fill="none" stroke="#e66767" stroke-width="1.3"/>
<rect x="799.7" y="79.8" width="21.5" height="129.1" fill="none" stroke="#e66767" stroke-width="1.3"/>
<circle cx="810.5" cy="79.8" r="2" fill="#c3c2b7"/>
<line x1="810.5" y1="79.8" x2="802.5" y2="79.8" stroke="#c3c2b7" stroke-width="1.0"/>
<text x="799.5" y="83.8" font-size="11.0" fill="#c3c2b7" text-anchor="end">800</text>
<circle cx="29.5" cy="356.0" r="2" fill="#c3c2b7"/>
<line x1="29.5" y1="356.0" x2="37.5" y2="356.0" stroke="#c3c2b7" stroke-width="1.0"/>
<text x="40.5" y="350.0" font-size="11.0" fill="#c3c2b7">0</text>
<text x="14.0" y="376.0" font-size="11.0" fill="#c3c2b7">VOL 72 forks</text>
<text x="96.6" y="376.0" font-size="11.0" fill="#c98500">MA5:41.2</text>
<text x="155.0" y="376.0" font-size="11.0" fill="#3987e5">MA10:32.6</text>
<text x="14.0" y="395.0" font-size="10" fill="#898781">72</text>
<rect x="18.8" y="433.6" width="21.5" height="36.4" fill="none" stroke="#e66767" stroke-width="1.1"/>
<rect x="57.8" y="432.4" width="21.5" height="37.6" fill="none" stroke="#e66767" stroke-width="1.1"/>
<rect x="96.9" y="425.6" width="21.5" height="44.4" fill="#008300"/>
<rect x="135.9" y="423.3" width="21.5" height="46.7" fill="#008300"/>
<rect x="175.0" y="430.1" width="21.5" height="39.9" fill="none" stroke="#e66767" stroke-width="1.1"/>
<rect x="214.0" y="419.9" width="21.5" height="50.1" fill="none" stroke="#e66767" stroke-width="1.1"/>
<rect x="253.1" y="434.7" width="21.5" height="35.3" fill="#008300"/>
<rect x="292.1" y="434.7" width="21.5" height="35.3" fill="#008300"/>
<rect x="331.2" y="430.1" width="21.5" height="39.9" fill="none" stroke="#e66767" stroke-width="1.1"/>
<rect x="370.2" y="440.4" width="21.5" height="29.6" fill="#008300"/>
<rect x="409.3" y="460.9" width="21.5" height="9.1" fill="#008300"/>
<rect x="448.3" y="442.7" width="21.5" height="27.3" fill="none" stroke="#e66767" stroke-width="1.1"/>
<rect x="487.4" y="432.4" width="21.5" height="37.6" fill="none" stroke="#e66767" stroke-width="1.1"/>
<rect x="526.4" y="442.7" width="21.5" height="27.3" fill="#898781"/>
<rect x="565.5" y="450.6" width="21.5" height="19.4" fill="none" stroke="#e66767" stroke-width="1.1"/>
<rect x="604.5" y="444.9" width="21.5" height="25.1" fill="#008300"/>
<rect x="643.5" y="441.5" width="21.5" height="28.5" fill="none" stroke="#e66767" stroke-width="1.1"/>
<rect x="682.6" y="447.2" width="21.5" height="22.8" fill="none" stroke="#e66767" stroke-width="1.1"/>
<rect x="721.6" y="431.3" width="21.5" height="38.7" fill="none" stroke="#e66767" stroke-width="1.1"/>
<rect x="760.7" y="407.4" width="21.5" height="62.6" fill="none" stroke="#e66767" stroke-width="1.1"/>
<rect x="799.7" y="388.0" width="21.5" height="82.0" fill="none" stroke="#e66767" stroke-width="1.1"/>
<polyline points="381.0,430.5 420.0,433.2 459.0,434.2 498.1,434.9 537.1,436.9 576.2,438.9 615.2,441.4 654.3,442.1 693.3,443.4 732.4,443.5 771.4,440.2 810.5,432.9" fill="none" stroke="#3987e5" stroke-width="1.5" stroke-linejoin="round" stroke-linecap="round"/>
<polyline points="185.7,429.0 224.8,426.3 263.8,426.7 302.9,428.5 341.9,429.9 381.0,432.0 420.0,440.2 459.0,441.8 498.1,441.3 537.1,443.8 576.2,445.9 615.2,442.7 654.3,442.4 693.3,445.4 732.4,443.1 771.4,434.5 810.5,423.1" fill="none" stroke="#c98500" stroke-width="1.5" stroke-linejoin="round" stroke-linecap="round"/>
</svg>