<svg xmlns="http://www.w3.org/2000/svg" viewBox="0 0 840 496" width="840" height="496" font-family="-apple-system,&#39;Segoe UI&#39;,system-ui,sans-serif" role="img" aria-label="codecrafters-io/build-your-own-x candlestick chart">
<text x="14.0" y="20.0" font-size="15" fill="#0b0b0b" font-weight="650">codecrafters-io/build-your-own-x</text>
<text x="282.0" y="20.0" font-size="11.5" fill="#52514e">daily · new stars, volume = new forks</text>
<text x="805.8" y="20.0" font-size="11.0" fill="#52514e">fall</text>
<rect x="791" y="10" width="9" height="12" fill="#008300"/>
<text x="750.6" y="20.0" font-size="11.0" fill="#52514e">rise</text>
<rect x="736" y="10" width="9" height="12" fill="none" stroke="#e34948" stroke-width="1.5"/>
<text x="14.0" y="38.0" font-size="11.0" fill="#898781">last 11 days · +3,473 stars · +355 forks · updated 2026-07-07</text>
<rect x="10" y="66" width="820" height="290" fill="none" stroke="#e1e0d9"/>
<rect x="10" y="384" width="820" height="86" fill="none" stroke="#e1e0d9"/>
<text x="47.3" y="490.0" font-size="11.0" fill="#898781" text-anchor="middle">2026-06</text>
<line x1="308.2" y1="66.0" x2="308.2" y2="356.0" stroke="#e1e0d9" stroke-width="1.0"/>
<line x1="308.2" y1="384.0" x2="308.2" y2="470.0" stroke="#e1e0d9" stroke-width="1.0"/>
<text x="345.5" y="490.0" font-size="11.0" fill="#898781" text-anchor="middle">2026-07</text>
<text x="14.0" y="58.0" font-size="11.0" fill="#52514e">BOLL(20,2)</text>
<text x="84.5" y="58.0" font-size="11.0" fill="#eda100">UP:—</text>
<text x="118.7" y="58.0" font-size="11.0" fill="#2a78d6">MID:—</text>
<text x="158.9" y="58.0" font-size="11.0" fill="#e87ba4">LOW:—</text>
<text x="199.2" y="58.0" font-size="11.0" fill="#4a3aa7">MA7:310.6</text>
<line x1="10.0" y1="356.0" x2="830.0" y2="356.0" stroke="#e1e0d9" stroke-width="1.0"/>
<text x="14.0" y="353.0" font-size="11.0" fill="#898781">0</text>
<line x1="10.0" y1="215.8" x2="830.0" y2="215.8" stroke="#e1e0d9" stroke-width="1.0"/>
<text x="14.0" y="212.8" font-size="11.0" fill="#898781">200</text>
<line x1="10.0" y1="75.6" x2="830.0" y2="75.6" stroke="#e1e0d9" stroke-width="1.0"/>
<text x="14.0" y="72.6" font-size="11.0" fill="#898781">400</text>
<polyline points="494.5,110.7 569.1,113.5 643.6,115.3 718.2,117.2 792.7,138.3" fill="none" stroke="#4a3aa7" stroke-width="1.5" stroke-linejoin="round" stroke-linecap="round"/>
<rect x="35.3" y="138.7" width="24.0" height="217.3" fill="none" stroke="#e34948" stroke-width="1.3"/>
<rect x="109.8" y="107.8" width="24.0" height="30.8" fill="none" stroke="#e34948" stroke-width="1.3"/>
<rect x="184.4" y="107.8" width="24.0" height="9.1" fill="#008300"/>
<rect x="258.9" y="117.0" width="24.0" height="32.9" fill="#008300"/>
<rect x="333.5" y="88.2" width="24.0" height="61.7" fill="none" stroke="#e34948" stroke-width="1.3"/>
<rect x="408.0" y="79.8" width="24.0" height="8.4" fill="none" stroke="#e34948" stroke-width="1.3"/>
<rect x="482.5" y="79.8" width="24.0" height="14.0" fill="#008300"/>
<rect x="557.1" y="93.8" width="24.0" height="63.8" fill="#008300"/>
<rect x="631.6" y="120.5" width="24.0" height="37.2" fill="none" stroke="#e34948" stroke-width="1.3"/>
<rect x="706.2" y="120.5" width="24.0" height="10.5" fill="#008300"/>
<rect x="780.7" y="131.0" width="24.0" height="166.1" fill="#008300"/>
<circle cx="420.0" cy="79.8" r="2" fill="#52514e"/>
<line x1="420.0" y1="79.8" x2="428.0" y2="79.8" stroke="#52514e" stroke-width="1.0"/>
<text x="431.0" y="83.8" font-size="11.0" fill="#52514e">394</text>
<circle cx="47.3" cy="356.0" r="2" fill="#52514e"/>
<line x1="47.3" y1="356.0" x2="55.3" y2="356.0" stroke="#52514e" stroke-width="1.0"/>
<text x="58.3" y="350.0" font-size="11.0" fill="#52514e">0</text>
<text x="14.0" y="376.0" font-size="11.0" fill="#52514e">VOL 8 forks</text>
<text x="90.5" y="376.0" font-size="11.0" fill="#eda100">MA5:26.2</text>
<text x="148.9" y="376.0" font-size="11.0" fill="#2a78d6">MA10:32.3</text>
<text x="14.0" y="395.0" font-size="10" fill="#898781">44</text>
<rect x="35.3" y="410.4" width="24.0" height="59.6" fill="none" stroke="#e34948" stroke-width="1.1"/>
<rect x="109.8" y="408.5" width="24.0" height="61.5" fill="none" stroke="#e34948" stroke-width="1.1"/>
<rect x="184.4" y="397.3" width="24.0" height="72.7" fill="#008300"/>
<rect x="258.9" y="393.6" width="24.0" height="76.4" fill="#008300"/>
<rect x="333.5" y="404.8" width="24.0" height="65.2" fill="none" stroke="#e34948" stroke-width="1.1"/>
<rect x="408.0" y="388.0" width="24.0" height="82.0" fill="none" stroke="#e34948" stroke-width="1.1"/>
<rect x="482.5" y="412.2" width="24.0" height="57.8" fill="#008300"/>
<rect x="557.1" y="412.2" width="24.0" height="57.8" fill="#008300"/>
<rect x="631.6" y="404.8" width="24.0" height="65.2" fill="none" stroke="#e34948" stroke-width="1.1"/>
<rect x="706.2" y="421.5" width="24.0" height="48.5" fill="#008300"/>
<rect x="780.7" y="455.1" width="24.0" height="14.9" fill="#008300"/>
<polyline points="718.2,405.3 792.7,409.8" fill="none" stroke="#2a78d6" stroke-width="1.5" stroke-linejoin="round" stroke-linecap="round"/>
<polyline points="345.5,402.9 420.0,398.4 494.5,399.2 569.1,402.2 643.6,404.4 718.2,407.8 792.7,421.2" fill="none" stroke="#eda100" stroke-width="1.5" stroke-linejoin="round" stroke-linecap="round"/>
</svg>