<svg xmlns="http://www.w3.org/2000/svg" viewBox="0 0 840 496" width="840" height="496" font-family="-apple-system,&#39;Segoe UI&#39;,system-ui,sans-serif" role="img" aria-label="sindresorhus/awesome candlestick chart">
<text x="14.0" y="20.0" font-size="15" fill="#ffffff" font-weight="650">sindresorhus/awesome</text>
<text x="183.0" y="20.0" font-size="11.5" fill="#c3c2b7">daily · new stars, volume = new forks</text>
<text x="805.8" y="20.0" font-size="11.0" fill="#c3c2b7">fall</text>
<rect x="791" y="10" width="9" height="12" fill="#008300"/>
<text x="750.6" y="20.0" font-size="11.0" fill="#c3c2b7">rise</text>
<rect x="736" y="10" width="9" height="12" fill="none" stroke="#e66767" stroke-width="1.5"/>
<text x="14.0" y="38.0" font-size="11.0" fill="#898781">last 21 days · +6,799 stars · +370 forks · updated 2026-07-10</text>
<rect x="10" y="66" width="820" height="290" fill="none" stroke="#2c2c2a"/>
<rect x="10" y="384" width="820" height="86" fill="none" stroke="#2c2c2a"/>
<text x="38.0" y="490.0" font-size="11.0" fill="#898781" text-anchor="middle">2026-06</text>
<line x1="439.5" y1="66.0" x2="439.5" y2="356.0" stroke="#2c2c2a" stroke-width="1.0"/>
<line x1="439.5" y1="384.0" x2="439.5" y2="470.0" stroke="#2c2c2a" stroke-width="1.0"/>
<text x="459.0" y="490.0" font-size="11.0" fill="#898781" text-anchor="middle">2026-07</text>
<text x="14.0" y="58.0" font-size="11.0" fill="#c3c2b7">BOLL(20,2)</text>
<text x="84.5" y="58.0" font-size="11.0" fill="#c98500">UP:406.2</text>
<text x="142.9" y="58.0" font-size="11.0" fill="#3987e5">MID:325.6</text>
<text x="207.4" y="58.0" font-size="11.0" fill="#d55181">LOW:245.1</text>
<text x="271.8" y="58.0" font-size="11.0" fill="#9085e9">MA7:339</text>
<line x1="10.0" y1="356.0" x2="830.0" y2="356.0" stroke="#2c2c2a" stroke-width="1.0"/>
<text x="14.0" y="353.0" font-size="11.0" fill="#898781">0</text>
<line x1="10.0" y1="239.5" x2="830.0" y2="239.5" stroke="#2c2c2a" stroke-width="1.0"/>
<text x="14.0" y="236.5" font-size="11.0" fill="#898781">200</text>
<line x1="10.0" y1="122.9" x2="830.0" y2="122.9" stroke="#2c2c2a" stroke-width="1.0"/>
<text x="14.0" y="119.9" font-size="11.0" fill="#898781">400</text>
<polyline points="771.4,119.3 810.5,119.3" fill="none" stroke="#c98500" stroke-width="1.5" stroke-linejoin="round" stroke-linecap="round"/>
<polyline points="771.4,167.3 810.5,166.3" fill="none" stroke="#3987e5" stroke-width="1.5" stroke-linejoin="round" stroke-linecap="round"/>
<polyline points="771.4,215.3 810.5,213.2" fill="none" stroke="#d55181" stroke-width="1.5" stroke-linejoin="round" stroke-linecap="round"/>
<polyline points="263.8,180.3 302.9,179.7 341.9,179.4 381.0,180.3 420.0,176.6 459.0,169.7 498.1,166.8 537.1,163.3 576.2,160.9 615.2,158.5 654.3,144.7 693.3,149.1 732.4,153.9 771.4,156.1 810.5,158.5" fill="none" stroke="#9085e9" stroke-width="1.5" stroke-linejoin="round" stroke-linecap="round"/>
<rect x="18.8" y="189.4" width="21.5" height="166.6" fill="none" stroke="#e66767" stroke-width="1.3"/>
<rect x="57.8" y="180.6" width="21.5" height="8.7" fill="none" stroke="#e66767" stroke-width="1.3"/>
<rect x="96.9" y="169.5" width="21.5" height="11.1" fill="none" stroke="#e66767" stroke-width="1.3"/>
<rect x="135.9" y="169.5" width="21.5" height="4.1" fill="#008300"/>
<rect x="175.0" y="173.6" width="21.5" height="12.2" fill="#008300"/>
<rect x="214.0" y="185.9" width="21.5" height="1.2" fill="#898781"/>
<rect x="253.1" y="177.1" width="21.5" height="8.7" fill="none" stroke="#e66767" stroke-width="1.3"/>
<rect x="292.1" y="177.1" width="21.5" height="8.2" fill="#008300"/>
<rect x="331.2" y="178.3" width="21.5" height="7.0" fill="none" stroke="#e66767" stroke-width="1.3"/>
<rect x="370.2" y="176.0" width="21.5" height="2.3" fill="none" stroke="#e66767" stroke-width="1.3"/>
<rect x="409.3" y="148.0" width="21.5" height="28.0" fill="none" stroke="#e66767" stroke-width="1.3"/>
<rect x="448.3" y="137.5" width="21.5" height="10.5" fill="none" stroke="#e66767" stroke-width="1.3"/>
<rect x="487.4" y="137.5" width="21.5" height="28.0" fill="#008300"/>
<rect x="526.4" y="152.6" width="21.5" height="12.8" fill="none" stroke="#e66767" stroke-width="1.3"/>
<rect x="565.5" y="152.6" width="21.5" height="15.7" fill="#008300"/>
<rect x="604.5" y="161.4" width="21.5" height="7.0" fill="none" stroke="#e66767" stroke-width="1.3"/>
<rect x="643.5" y="79.8" width="21.5" height="81.6" fill="none" stroke="#e66767" stroke-width="1.3"/>
<rect x="682.6" y="79.8" width="21.5" height="99.1" fill="#008300"/>
<rect x="721.6" y="170.7" width="21.5" height="8.2" fill="none" stroke="#e66767" stroke-width="1.3"/>
<rect x="760.7" y="170.7" width="21.5" height="10.5" fill="#008300"/>
<rect x="799.7" y="169.0" width="21.5" height="12.2" fill="none" stroke="#e66767" stroke-width="1.3"/>
<circle cx="654.3" cy="79.8" r="2" fill="#c3c2b7"/>
<line x1="654.3" y1="79.8" x2="646.3" y2="79.8" stroke="#c3c2b7" stroke-width="1.0"/>
<text x="643.3" y="83.8" font-size="11.0" fill="#c3c2b7" text-anchor="end">474</text>
<circle cx="29.5" cy="356.0" r="2" fill="#c3c2b7"/>
<line x1="29.5" y1="356.0" x2="37.5" y2="356.0" stroke="#c3c2b7" stroke-width="1.0"/>
<text x="40.5" y="350.0" font-size="11.0" fill="#c3c2b7">0</text>
<text x="14.0" y="376.0" font-size="11.0" fill="#c3c2b7">VOL 9 forks</text>
<text x="90.6" y="376.0" font-size="11.0" fill="#c98500">MA5:19.4</text>
<text x="149.0" y="376.0" font-size="11.0" fill="#3987e5">MA10:17.8</text>
<text x="14.0" y="395.0" font-size="10" fill="#898781">46</text>
<rect x="18.8" y="437.9" width="21.5" height="32.1" fill="none" stroke="#e66767" stroke-width="1.1"/>
<rect x="57.8" y="446.8" width="21.5" height="23.2" fill="none" stroke="#e66767" stroke-width="1.1"/>
<rect x="96.9" y="446.8" width="21.5" height="23.2" fill="none" stroke="#e66767" stroke-width="1.1"/>
<rect x="135.9" y="441.5" width="21.5" height="28.5" fill="#008300"/>
<rect x="175.0" y="439.7" width="21.5" height="30.3" fill="#008300"/>
<rect x="214.0" y="423.7" width="21.5" height="46.3" fill="#898781"/>
<rect x="253.1" y="443.3" width="21.5" height="26.7" fill="none" stroke="#e66767" stroke-width="1.1"/>
<rect x="292.1" y="439.7" width="21.5" height="30.3" fill="#008300"/>
<rect x="331.2" y="448.6" width="21.5" height="21.4" fill="none" stroke="#e66767" stroke-width="1.1"/>
<rect x="370.2" y="423.7" width="21.5" height="46.3" fill="none" stroke="#e66767" stroke-width="1.1"/>
<rect x="409.3" y="436.1" width="21.5" height="33.9" fill="none" stroke="#e66767" stroke-width="1.1"/>
<rect x="448.3" y="443.3" width="21.5" height="26.7" fill="none" stroke="#e66767" stroke-width="1.1"/>
<rect x="487.4" y="448.6" width="21.5" height="21.4" fill="#008300"/>
<rect x="526.4" y="439.7" width="21.5" height="30.3" fill="none" stroke="#e66767" stroke-width="1.1"/>
<rect x="565.5" y="436.1" width="21.5" height="33.9" fill="#008300"/>
<rect x="604.5" y="437.9" width="21.5" height="32.1" fill="none" stroke="#e66767" stroke-width="1.1"/>
<rect x="643.5" y="388.0" width="21.5" height="82.0" fill="none" stroke="#e66767" stroke-width="1.1"/>
<rect x="682.6" y="439.7" width="21.5" height="30.3" fill="#008300"/>
<rect x="721.6" y="457.5" width="21.5" height="12.5" fill="none" stroke="#e66767" stroke-width="1.1"/>
<rect x="760.7" y="437.9" width="21.5" height="32.1" fill="#008300"/>
<rect x="799.7" y="454.0" width="21.5" height="16.0" fill="none" stroke="#e66767" stroke-width="1.1"/>
<polyline points="381.0,439.2 420.0,439.0 459.0,438.6 498.1,438.8 537.1,438.6 576.2,438.3 615.2,439.7 654.3,434.2 693.3,434.2 732.4,435.1 771.4,436.5 810.5,438.3" fill="none" stroke="#3987e5" stroke-width="1.5" stroke-linejoin="round" stroke-linecap="round"/>
<polyline points="185.7,442.5 224.8,439.7 263.8,439.0 302.9,437.6 341.9,439.0 381.0,435.8 420.0,438.3 459.0,438.3 498.1,440.1 537.1,438.3 576.2,440.8 615.2,441.1 654.3,430.1 693.3,428.3 732.4,431.9 771.4,432.2 810.5,435.4" fill="none" stroke="#c98500" stroke-width="1.5" stroke-linejoin="round" stroke-linecap="round"/>
</svg>