<svg xmlns="http://www.w3.org/2000/svg" viewBox="0 0 840 496" width="840" height="496" font-family="-apple-system,&#39;Segoe UI&#39;,system-ui,sans-serif" role="img" aria-label="sindresorhus/awesome candlestick chart">
<text x="14.0" y="20.0" font-size="15" fill="#0b0b0b" font-weight="650">sindresorhus/awesome</text>
<text x="183.0" y="20.0" font-size="11.5" fill="#52514e">daily · new stars, volume = new forks</text>
<text x="805.8" y="20.0" font-size="11.0" fill="#52514e">fall</text>
<rect x="791" y="10" width="9" height="12" fill="#008300"/>
<text x="750.6" y="20.0" font-size="11.0" fill="#52514e">rise</text>
<rect x="736" y="10" width="9" height="12" fill="none" stroke="#e34948" stroke-width="1.5"/>
<text x="14.0" y="38.0" font-size="11.0" fill="#898781">last 25 days · +7,982 stars · +434 forks · updated 2026-07-14</text>
<rect x="10" y="66" width="820" height="290" fill="none" stroke="#e1e0d9"/>
<rect x="10" y="384" width="820" height="86" fill="none" stroke="#e1e0d9"/>
<text x="38.0" y="490.0" font-size="11.0" fill="#898781" text-anchor="middle">2026-06</text>
<line x1="370.8" y1="66.0" x2="370.8" y2="356.0" stroke="#e1e0d9" stroke-width="1.0"/>
<line x1="370.8" y1="384.0" x2="370.8" y2="470.0" stroke="#e1e0d9" stroke-width="1.0"/>
<text x="387.2" y="490.0" font-size="11.0" fill="#898781" text-anchor="middle">2026-07</text>
<text x="14.0" y="58.0" font-size="11.0" fill="#52514e">BOLL(20,2)</text>
<text x="84.5" y="58.0" font-size="11.0" fill="#eda100">UP:407.9</text>
<text x="142.9" y="58.0" font-size="11.0" fill="#2a78d6">MID:323.5</text>
<text x="207.4" y="58.0" font-size="11.0" fill="#e87ba4">LOW:239.1</text>
<text x="271.8" y="58.0" font-size="11.0" fill="#4a3aa7">MA7:303.1</text>
<line x1="10.0" y1="356.0" x2="830.0" y2="356.0" stroke="#e1e0d9" stroke-width="1.0"/>
<text x="14.0" y="353.0" font-size="11.0" fill="#898781">0</text>
<line x1="10.0" y1="239.5" x2="830.0" y2="239.5" stroke="#e1e0d9" stroke-width="1.0"/>
<text x="14.0" y="236.5" font-size="11.0" fill="#898781">200</text>
<line x1="10.0" y1="122.9" x2="830.0" y2="122.9" stroke="#e1e0d9" stroke-width="1.0"/>
<text x="14.0" y="119.9" font-size="11.0" fill="#898781">400</text>
<polyline points="649.6,119.3 682.4,119.3 715.2,118.1 748.0,118.3 780.8,118.4 813.6,118.3" fill="none" stroke="#eda100" stroke-width="1.5" stroke-linejoin="round" stroke-linecap="round"/>
<polyline points="649.6,167.3 682.4,166.3 715.2,167.4 748.0,167.8 780.8,168.2 813.6,167.5" fill="none" stroke="#2a78d6" stroke-width="1.5" stroke-linejoin="round" stroke-linecap="round"/>
<polyline points="649.6,215.3 682.4,213.2 715.2,216.7 748.0,217.3 780.8,218.0 813.6,216.7" fill="none" stroke="#e87ba4" stroke-width="1.5" stroke-linejoin="round" stroke-linecap="round"/>
<polyline points="223.2,180.3 256.0,179.7 288.8,179.4 321.6,180.3 354.4,176.6 387.2,169.7 420.0,166.8 452.8,163.3 485.6,160.9 518.4,158.5 551.2,144.7 584.0,149.1 616.8,153.9 649.6,156.1 682.4,158.5 715.2,163.5 748.0,165.8 780.8,180.3 813.6,179.4" fill="none" stroke="#4a3aa7" stroke-width="1.5" stroke-linejoin="round" stroke-linecap="round"/>
<rect x="17.4" y="189.4" width="18.0" height="166.6" fill="none" stroke="#e34948" stroke-width="1.3"/>
<rect x="50.2" y="180.6" width="18.0" height="8.7" fill="none" stroke="#e34948" stroke-width="1.3"/>
<rect x="83.0" y="169.5" width="18.0" height="11.1" fill="none" stroke="#e34948" stroke-width="1.3"/>
<rect x="115.8" y="169.5" width="18.0" height="4.1" fill="#008300"/>
<rect x="148.6" y="173.6" width="18.0" height="12.2" fill="#008300"/>
<rect x="181.4" y="185.9" width="18.0" height="1.2" fill="#898781"/>
<rect x="214.2" y="177.1" width="18.0" height="8.7" fill="none" stroke="#e34948" stroke-width="1.3"/>
<rect x="247.0" y="177.1" width="18.0" height="8.2" fill="#008300"/>
<rect x="279.8" y="178.3" width="18.0" height="7.0" fill="none" stroke="#e34948" stroke-width="1.3"/>
<rect x="312.6" y="176.0" width="18.0" height="2.3" fill="none" stroke="#e34948" stroke-width="1.3"/>
<rect x="345.4" y="148.0" width="18.0" height="28.0" fill="none" stroke="#e34948" stroke-width="1.3"/>
<rect x="378.2" y="137.5" width="18.0" height="10.5" fill="none" stroke="#e34948" stroke-width="1.3"/>
<rect x="411.0" y="137.5" width="18.0" height="28.0" fill="#008300"/>
<rect x="443.8" y="152.6" width="18.0" height="12.8" fill="none" stroke="#e34948" stroke-width="1.3"/>
<rect x="476.6" y="152.6" width="18.0" height="15.7" fill="#008300"/>
<rect x="509.4" y="161.4" width="18.0" height="7.0" fill="none" stroke="#e34948" stroke-width="1.3"/>
<rect x="542.2" y="79.8" width="18.0" height="81.6" fill="none" stroke="#e34948" stroke-width="1.3"/>
<rect x="575.0" y="79.8" width="18.0" height="99.1" fill="#008300"/>
<rect x="607.8" y="170.7" width="18.0" height="8.2" fill="none" stroke="#e34948" stroke-width="1.3"/>
<rect x="640.6" y="170.7" width="18.0" height="10.5" fill="#008300"/>
<rect x="673.4" y="169.0" width="18.0" height="12.2" fill="none" stroke="#e34948" stroke-width="1.3"/>
<rect x="706.2" y="169.0" width="18.0" height="34.4" fill="#008300"/>
<rect x="739.0" y="177.7" width="18.0" height="25.6" fill="none" stroke="#e34948" stroke-width="1.3"/>
<rect x="771.8" y="177.7" width="18.0" height="3.5" fill="#008300"/>
<rect x="804.6" y="172.5" width="18.0" height="8.7" fill="none" stroke="#e34948" stroke-width="1.3"/>
<circle cx="551.2" cy="79.8" r="2" fill="#52514e"/>
<line x1="551.2" y1="79.8" x2="543.2" y2="79.8" stroke="#52514e" stroke-width="1.0"/>
<text x="540.2" y="83.8" font-size="11.0" fill="#52514e" text-anchor="end">474</text>
<circle cx="26.4" cy="356.0" r="2" fill="#52514e"/>
<line x1="26.4" y1="356.0" x2="34.4" y2="356.0" stroke="#52514e" stroke-width="1.0"/>
<text x="37.4" y="350.0" font-size="11.0" fill="#52514e">0</text>
<text x="14.0" y="376.0" font-size="11.0" fill="#52514e">VOL 28 forks</text>
<text x="96.6" y="376.0" font-size="11.0" fill="#eda100">MA5:14.6</text>
<text x="155.0" y="376.0" font-size="11.0" fill="#2a78d6">MA10:17.9</text>
<text x="14.0" y="395.0" font-size="10" fill="#898781">46</text>
<rect x="17.4" y="437.9" width="18.0" height="32.1" fill="none" stroke="#e34948" stroke-width="1.1"/>
<rect x="50.2" y="446.8" width="18.0" height="23.2" fill="none" stroke="#e34948" stroke-width="1.1"/>
<rect x="83.0" y="446.8" width="18.0" height="23.2" fill="none" stroke="#e34948" stroke-width="1.1"/>
<rect x="115.8" y="441.5" width="18.0" height="28.5" fill="#008300"/>
<rect x="148.6" y="439.7" width="18.0" height="30.3" fill="#008300"/>
<rect x="181.4" y="423.7" width="18.0" height="46.3" fill="#898781"/>
<rect x="214.2" y="443.3" width="18.0" height="26.7" fill="none" stroke="#e34948" stroke-width="1.1"/>
<rect x="247.0" y="439.7" width="18.0" height="30.3" fill="#008300"/>
<rect x="279.8" y="448.6" width="18.0" height="21.4" fill="none" stroke="#e34948" stroke-width="1.1"/>
<rect x="312.6" y="423.7" width="18.0" height="46.3" fill="none" stroke="#e34948" stroke-width="1.1"/>
<rect x="345.4" y="436.1" width="18.0" height="33.9" fill="none" stroke="#e34948" stroke-width="1.1"/>
<rect x="378.2" y="443.3" width="18.0" height="26.7" fill="none" stroke="#e34948" stroke-width="1.1"/>
<rect x="411.0" y="448.6" width="18.0" height="21.4" fill="#008300"/>
<rect x="443.8" y="439.7" width="18.0" height="30.3" fill="none" stroke="#e34948" stroke-width="1.1"/>
<rect x="476.6" y="436.1" width="18.0" height="33.9" fill="#008300"/>
<rect x="509.4" y="437.9" width="18.0" height="32.1" fill="none" stroke="#e34948" stroke-width="1.1"/>
<rect x="542.2" y="388.0" width="18.0" height="82.0" fill="none" stroke="#e34948" stroke-width="1.1"/>
<rect x="575.0" y="439.7" width="18.0" height="30.3" fill="#008300"/>
<rect x="607.8" y="457.5" width="18.0" height="12.5" fill="none" stroke="#e34948" stroke-width="1.1"/>
<rect x="640.6" y="437.9" width="18.0" height="32.1" fill="#008300"/>
<rect x="673.4" y="454.0" width="18.0" height="16.0" fill="none" stroke="#e34948" stroke-width="1.1"/>
<rect x="706.2" y="446.8" width="18.0" height="23.2" fill="#008300"/>
<rect x="739.0" y="462.9" width="18.0" height="7.1" fill="none" stroke="#e34948" stroke-width="1.1"/>
<rect x="771.8" y="436.1" width="18.0" height="33.9" fill="#008300"/>
<rect x="804.6" y="420.1" width="18.0" height="49.9" fill="none" stroke="#e34948" stroke-width="1.1"/>
<polyline points="321.6,439.2 354.4,439.0 387.2,438.6 420.0,438.8 452.8,438.6 485.6,438.3 518.4,439.7 551.2,434.2 584.0,434.2 616.8,435.1 649.6,436.5 682.4,438.3 715.2,438.6 748.0,440.1 780.8,439.7 813.6,438.1" fill="none" stroke="#2a78d6" stroke-width="1.5" stroke-linejoin="round" stroke-linecap="round"/>
<polyline points="157.6,442.5 190.4,439.7 223.2,439.0 256.0,437.6 288.8,439.0 321.6,435.8 354.4,438.3 387.2,438.3 420.0,440.1 452.8,438.3 485.6,440.8 518.4,441.1 551.2,430.1 584.0,428.3 616.8,431.9 649.6,432.2 682.4,435.4 715.2,447.2 748.0,451.8 780.8,447.5 813.6,444.0" fill="none" stroke="#eda100" stroke-width="1.5" stroke-linejoin="round" stroke-linecap="round"/>
</svg>