<svg xmlns="http://www.w3.org/2000/svg" viewBox="0 0 840 496" width="840" height="496" font-family="-apple-system,&#39;Segoe UI&#39;,system-ui,sans-serif" role="img" aria-label="sindresorhus/awesome candlestick chart">
<text x="14.0" y="20.0" font-size="15" fill="#ffffff" font-weight="650">sindresorhus/awesome</text>
<text x="183.0" y="20.0" font-size="11.5" fill="#c3c2b7">daily · new stars, volume = new forks</text>
<text x="805.8" y="20.0" font-size="11.0" fill="#c3c2b7">fall</text>
<rect x="791" y="10" width="9" height="12" fill="#008300"/>
<text x="750.6" y="20.0" font-size="11.0" fill="#c3c2b7">rise</text>
<rect x="736" y="10" width="9" height="12" fill="none" stroke="#e66767" stroke-width="1.5"/>
<text x="14.0" y="38.0" font-size="11.0" fill="#898781">last 23 days · +7,367 stars · +387 forks · updated 2026-07-12</text>
<rect x="10" y="66" width="820" height="290" fill="none" stroke="#2c2c2a"/>
<rect x="10" y="384" width="820" height="86" fill="none" stroke="#2c2c2a"/>
<text x="38.0" y="490.0" font-size="11.0" fill="#898781" text-anchor="middle">2026-06</text>
<line x1="402.2" y1="66.0" x2="402.2" y2="356.0" stroke="#2c2c2a" stroke-width="1.0"/>
<line x1="402.2" y1="384.0" x2="402.2" y2="470.0" stroke="#2c2c2a" stroke-width="1.0"/>
<text x="420.0" y="490.0" font-size="11.0" fill="#898781" text-anchor="middle">2026-07</text>
<text x="14.0" y="58.0" font-size="11.0" fill="#c3c2b7">BOLL(20,2)</text>
<text x="84.5" y="58.0" font-size="11.0" fill="#c98500">UP:408.0</text>
<text x="142.9" y="58.0" font-size="11.0" fill="#3987e5">MID:323</text>
<text x="195.2" y="58.0" font-size="11.0" fill="#d55181">LOW:238.0</text>
<text x="259.7" y="58.0" font-size="11.0" fill="#9085e9">MA7:326.4</text>
<line x1="10.0" y1="356.0" x2="830.0" y2="356.0" stroke="#2c2c2a" stroke-width="1.0"/>
<text x="14.0" y="353.0" font-size="11.0" fill="#898781">0</text>
<line x1="10.0" y1="239.5" x2="830.0" y2="239.5" stroke="#2c2c2a" stroke-width="1.0"/>
<text x="14.0" y="236.5" font-size="11.0" fill="#898781">200</text>
<line x1="10.0" y1="122.9" x2="830.0" y2="122.9" stroke="#2c2c2a" stroke-width="1.0"/>
<text x="14.0" y="119.9" font-size="11.0" fill="#898781">400</text>
<polyline points="705.2,119.3 740.9,119.3 776.5,118.1 812.2,118.3" fill="none" stroke="#c98500" stroke-width="1.5" stroke-linejoin="round" stroke-linecap="round"/>
<polyline points="705.2,167.3 740.9,166.3 776.5,167.4 812.2,167.8" fill="none" stroke="#3987e5" stroke-width="1.5" stroke-linejoin="round" stroke-linecap="round"/>
<polyline points="705.2,215.3 740.9,213.2 776.5,216.7 812.2,217.3" fill="none" stroke="#d55181" stroke-width="1.5" stroke-linejoin="round" stroke-linecap="round"/>
<polyline points="241.7,180.3 277.4,179.7 313.0,179.4 348.7,180.3 384.3,176.6 420.0,169.7 455.7,166.8 491.3,163.3 527.0,160.9 562.6,158.5 598.3,144.7 633.9,149.1 669.6,153.9 705.2,156.1 740.9,158.5 776.5,163.5 812.2,165.8" fill="none" stroke="#9085e9" stroke-width="1.5" stroke-linejoin="round" stroke-linecap="round"/>
<rect x="18.0" y="189.4" width="19.6" height="166.6" fill="none" stroke="#e66767" stroke-width="1.3"/>
<rect x="53.7" y="180.6" width="19.6" height="8.7" fill="none" stroke="#e66767" stroke-width="1.3"/>
<rect x="89.3" y="169.5" width="19.6" height="11.1" fill="none" stroke="#e66767" stroke-width="1.3"/>
<rect x="125.0" y="169.5" width="19.6" height="4.1" fill="#008300"/>
<rect x="160.6" y="173.6" width="19.6" height="12.2" fill="#008300"/>
<rect x="196.3" y="185.9" width="19.6" height="1.2" fill="#898781"/>
<rect x="231.9" y="177.1" width="19.6" height="8.7" fill="none" stroke="#e66767" stroke-width="1.3"/>
<rect x="267.6" y="177.1" width="19.6" height="8.2" fill="#008300"/>
<rect x="303.2" y="178.3" width="19.6" height="7.0" fill="none" stroke="#e66767" stroke-width="1.3"/>
<rect x="338.9" y="176.0" width="19.6" height="2.3" fill="none" stroke="#e66767" stroke-width="1.3"/>
<rect x="374.5" y="148.0" width="19.6" height="28.0" fill="none" stroke="#e66767" stroke-width="1.3"/>
<rect x="410.2" y="137.5" width="19.6" height="10.5" fill="none" stroke="#e66767" stroke-width="1.3"/>
<rect x="445.8" y="137.5" width="19.6" height="28.0" fill="#008300"/>
<rect x="481.5" y="152.6" width="19.6" height="12.8" fill="none" stroke="#e66767" stroke-width="1.3"/>
<rect x="517.2" y="152.6" width="19.6" height="15.7" fill="#008300"/>
<rect x="552.8" y="161.4" width="19.6" height="7.0" fill="none" stroke="#e66767" stroke-width="1.3"/>
<rect x="588.5" y="79.8" width="19.6" height="81.6" fill="none" stroke="#e66767" stroke-width="1.3"/>
<rect x="624.1" y="79.8" width="19.6" height="99.1" fill="#008300"/>
<rect x="659.8" y="170.7" width="19.6" height="8.2" fill="none" stroke="#e66767" stroke-width="1.3"/>
<rect x="695.4" y="170.7" width="19.6" height="10.5" fill="#008300"/>
<rect x="731.1" y="169.0" width="19.6" height="12.2" fill="none" stroke="#e66767" stroke-width="1.3"/>
<rect x="766.7" y="169.0" width="19.6" height="34.4" fill="#008300"/>
<rect x="802.4" y="177.7" width="19.6" height="25.6" fill="none" stroke="#e66767" stroke-width="1.3"/>
<circle cx="598.3" cy="79.8" r="2" fill="#c3c2b7"/>
<line x1="598.3" y1="79.8" x2="590.3" y2="79.8" stroke="#c3c2b7" stroke-width="1.0"/>
<text x="587.3" y="83.8" font-size="11.0" fill="#c3c2b7" text-anchor="end">474</text>
<circle cx="27.8" cy="356.0" r="2" fill="#c3c2b7"/>
<line x1="27.8" y1="356.0" x2="35.8" y2="356.0" stroke="#c3c2b7" stroke-width="1.0"/>
<text x="38.8" y="350.0" font-size="11.0" fill="#c3c2b7">0</text>
<text x="14.0" y="376.0" font-size="11.0" fill="#c3c2b7">VOL 4 forks</text>
<text x="90.6" y="376.0" font-size="11.0" fill="#c98500">MA5:10.2</text>
<text x="149.0" y="376.0" font-size="11.0" fill="#3987e5">MA10:16.8</text>
<text x="14.0" y="395.0" font-size="10" fill="#898781">46</text>
<rect x="18.0" y="437.9" width="19.6" height="32.1" fill="none" stroke="#e66767" stroke-width="1.1"/>
<rect x="53.7" y="446.8" width="19.6" height="23.2" fill="none" stroke="#e66767" stroke-width="1.1"/>
<rect x="89.3" y="446.8" width="19.6" height="23.2" fill="none" stroke="#e66767" stroke-width="1.1"/>
<rect x="125.0" y="441.5" width="19.6" height="28.5" fill="#008300"/>
<rect x="160.6" y="439.7" width="19.6" height="30.3" fill="#008300"/>
<rect x="196.3" y="423.7" width="19.6" height="46.3" fill="#898781"/>
<rect x="231.9" y="443.3" width="19.6" height="26.7" fill="none" stroke="#e66767" stroke-width="1.1"/>
<rect x="267.6" y="439.7" width="19.6" height="30.3" fill="#008300"/>
<rect x="303.2" y="448.6" width="19.6" height="21.4" fill="none" stroke="#e66767" stroke-width="1.1"/>
<rect x="338.9" y="423.7" width="19.6" height="46.3" fill="none" stroke="#e66767" stroke-width="1.1"/>
<rect x="374.5" y="436.1" width="19.6" height="33.9" fill="none" stroke="#e66767" stroke-width="1.1"/>
<rect x="410.2" y="443.3" width="19.6" height="26.7" fill="none" stroke="#e66767" stroke-width="1.1"/>
<rect x="445.8" y="448.6" width="19.6" height="21.4" fill="#008300"/>
<rect x="481.5" y="439.7" width="19.6" height="30.3" fill="none" stroke="#e66767" stroke-width="1.1"/>
<rect x="517.2" y="436.1" width="19.6" height="33.9" fill="#008300"/>
<rect x="552.8" y="437.9" width="19.6" height="32.1" fill="none" stroke="#e66767" stroke-width="1.1"/>
<rect x="588.5" y="388.0" width="19.6" height="82.0" fill="none" stroke="#e66767" stroke-width="1.1"/>
<rect x="624.1" y="439.7" width="19.6" height="30.3" fill="#008300"/>
<rect x="659.8" y="457.5" width="19.6" height="12.5" fill="none" stroke="#e66767" stroke-width="1.1"/>
<rect x="695.4" y="437.9" width="19.6" height="32.1" fill="#008300"/>
<rect x="731.1" y="454.0" width="19.6" height="16.0" fill="none" stroke="#e66767" stroke-width="1.1"/>
<rect x="766.7" y="446.8" width="19.6" height="23.2" fill="#008300"/>
<rect x="802.4" y="462.9" width="19.6" height="7.1" fill="none" stroke="#e66767" stroke-width="1.1"/>
<polyline points="348.7,439.2 384.3,439.0 420.0,438.6 455.7,438.8 491.3,438.6 527.0,438.3 562.6,439.7 598.3,434.2 633.9,434.2 669.6,435.1 705.2,436.5 740.9,438.3 776.5,438.6 812.2,440.1" fill="none" stroke="#3987e5" stroke-width="1.5" stroke-linejoin="round" stroke-linecap="round"/>
<polyline points="170.4,442.5 206.1,439.7 241.7,439.0 277.4,437.6 313.0,439.0 348.7,435.8 384.3,438.3 420.0,438.3 455.7,440.1 491.3,438.3 527.0,440.8 562.6,441.1 598.3,430.1 633.9,428.3 669.6,431.9 705.2,432.2 740.9,435.4 776.5,447.2 812.2,451.8" fill="none" stroke="#c98500" stroke-width="1.5" stroke-linejoin="round" stroke-linecap="round"/>
</svg>