<svg xmlns="http://www.w3.org/2000/svg" viewBox="0 0 840 496" width="840" height="496" font-family="-apple-system,&#39;Segoe UI&#39;,system-ui,sans-serif" role="img" aria-label="sindresorhus/awesome candlestick chart">
<text x="14.0" y="20.0" font-size="15" fill="#ffffff" font-weight="650">sindresorhus/awesome</text>
<text x="183.0" y="20.0" font-size="11.5" fill="#c3c2b7">daily · new stars, volume = new forks</text>
<text x="805.8" y="20.0" font-size="11.0" fill="#c3c2b7">fall</text>
<rect x="791" y="10" width="9" height="12" fill="#008300"/>
<text x="750.6" y="20.0" font-size="11.0" fill="#c3c2b7">rise</text>
<rect x="736" y="10" width="9" height="12" fill="none" stroke="#e66767" stroke-width="1.5"/>
<text x="14.0" y="38.0" font-size="11.0" fill="#898781">last 29 days · +9,472 stars · +513 forks · updated 2026-07-18</text>
<rect x="10" y="66" width="820" height="290" fill="none" stroke="#2c2c2a"/>
<rect x="10" y="384" width="820" height="86" fill="none" stroke="#2c2c2a"/>
<text x="38.0" y="490.0" font-size="11.0" fill="#898781" text-anchor="middle">2026-06</text>
<line x1="321.0" y1="66.0" x2="321.0" y2="356.0" stroke="#2c2c2a" stroke-width="1.0"/>
<line x1="321.0" y1="384.0" x2="321.0" y2="470.0" stroke="#2c2c2a" stroke-width="1.0"/>
<text x="335.2" y="490.0" font-size="11.0" fill="#898781" text-anchor="middle">2026-07</text>
<text x="14.0" y="58.0" font-size="11.0" fill="#c3c2b7">BOLL(20,2)</text>
<text x="84.5" y="58.0" font-size="11.0" fill="#c98500">UP:435.6</text>
<text x="142.9" y="58.0" font-size="11.0" fill="#3987e5">MID:338.1</text>
<text x="207.4" y="58.0" font-size="11.0" fill="#d55181">LOW:240.7</text>
<text x="271.8" y="58.0" font-size="11.0" fill="#9085e9">MA7:344.4</text>
<line x1="10.0" y1="356.0" x2="830.0" y2="356.0" stroke="#2c2c2a" stroke-width="1.0"/>
<text x="14.0" y="353.0" font-size="11.0" fill="#898781">0</text>
<line x1="10.0" y1="239.5" x2="830.0" y2="239.5" stroke="#2c2c2a" stroke-width="1.0"/>
<text x="14.0" y="236.5" font-size="11.0" fill="#898781">200</text>
<line x1="10.0" y1="122.9" x2="830.0" y2="122.9" stroke="#2c2c2a" stroke-width="1.0"/>
<text x="14.0" y="119.9" font-size="11.0" fill="#898781">400</text>
<polyline points="561.4,119.3 589.7,119.3 617.9,118.1 646.2,118.3 674.5,118.4 702.8,118.3 731.0,118.3 759.3,106.1 787.6,102.8 815.9,102.2" fill="none" stroke="#c98500" stroke-width="1.5" stroke-linejoin="round" stroke-linecap="round"/>
<polyline points="561.4,167.3 589.7,166.3 617.9,167.4 646.2,167.8 674.5,168.2 702.8,167.5 731.0,166.8 759.3,162.8 787.6,160.1 815.9,159.0" fill="none" stroke="#3987e5" stroke-width="1.5" stroke-linejoin="round" stroke-linecap="round"/>
<polyline points="561.4,215.3 589.7,213.2 617.9,216.7 646.2,217.3 674.5,218.0 702.8,216.7 731.0,215.3 759.3,219.5 787.6,217.5 815.9,215.7" fill="none" stroke="#d55181" stroke-width="1.5" stroke-linejoin="round" stroke-linecap="round"/>
<polyline points="193.8,180.3 222.1,179.7 250.3,179.4 278.6,180.3 306.9,176.6 335.2,169.7 363.4,166.8 391.7,163.3 420.0,160.9 448.3,158.5 476.6,144.7 504.8,149.1 533.1,153.9 561.4,156.1 589.7,158.5 617.9,163.5 646.2,165.8 674.5,180.3 702.8,179.4 731.0,179.4 759.3,167.6 787.6,162.1 815.9,155.3" fill="none" stroke="#9085e9" stroke-width="1.5" stroke-linejoin="round" stroke-linecap="round"/>
<rect x="16.4" y="189.4" width="15.6" height="166.6" fill="none" stroke="#e66767" stroke-width="1.3"/>
<rect x="44.6" y="180.6" width="15.6" height="8.7" fill="none" stroke="#e66767" stroke-width="1.3"/>
<rect x="72.9" y="169.5" width="15.6" height="11.1" fill="none" stroke="#e66767" stroke-width="1.3"/>
<rect x="101.2" y="169.5" width="15.6" height="4.1" fill="#008300"/>
<rect x="129.5" y="173.6" width="15.6" height="12.2" fill="#008300"/>
<rect x="157.7" y="185.9" width="15.6" height="1.2" fill="#898781"/>
<rect x="186.0" y="177.1" width="15.6" height="8.7" fill="none" stroke="#e66767" stroke-width="1.3"/>
<rect x="214.3" y="177.1" width="15.6" height="8.2" fill="#008300"/>
<rect x="242.6" y="178.3" width="15.6" height="7.0" fill="none" stroke="#e66767" stroke-width="1.3"/>
<rect x="270.8" y="176.0" width="15.6" height="2.3" fill="none" stroke="#e66767" stroke-width="1.3"/>
<rect x="299.1" y="148.0" width="15.6" height="28.0" fill="none" stroke="#e66767" stroke-width="1.3"/>
<rect x="327.4" y="137.5" width="15.6" height="10.5" fill="none" stroke="#e66767" stroke-width="1.3"/>
<rect x="355.7" y="137.5" width="15.6" height="28.0" fill="#008300"/>
<rect x="383.9" y="152.6" width="15.6" height="12.8" fill="none" stroke="#e66767" stroke-width="1.3"/>
<rect x="412.2" y="152.6" width="15.6" height="15.7" fill="#008300"/>
<rect x="440.5" y="161.4" width="15.6" height="7.0" fill="none" stroke="#e66767" stroke-width="1.3"/>
<rect x="468.8" y="79.8" width="15.6" height="81.6" fill="none" stroke="#e66767" stroke-width="1.3"/>
<rect x="497.1" y="79.8" width="15.6" height="99.1" fill="#008300"/>
<rect x="525.3" y="170.7" width="15.6" height="8.2" fill="none" stroke="#e66767" stroke-width="1.3"/>
<rect x="553.6" y="170.7" width="15.6" height="10.5" fill="#008300"/>
<rect x="581.9" y="169.0" width="15.6" height="12.2" fill="none" stroke="#e66767" stroke-width="1.3"/>
<rect x="610.2" y="169.0" width="15.6" height="34.4" fill="#008300"/>
<rect x="638.4" y="177.7" width="15.6" height="25.6" fill="none" stroke="#e66767" stroke-width="1.3"/>
<rect x="666.7" y="177.7" width="15.6" height="3.5" fill="#008300"/>
<rect x="695.0" y="172.5" width="15.6" height="8.7" fill="none" stroke="#e66767" stroke-width="1.3"/>
<rect x="723.3" y="171.3" width="15.6" height="1.2" fill="none" stroke="#e66767" stroke-width="1.3"/>
<rect x="751.5" y="97.9" width="15.6" height="73.4" fill="none" stroke="#e66767" stroke-width="1.3"/>
<rect x="779.8" y="97.9" width="15.6" height="33.2" fill="#008300"/>
<rect x="808.1" y="131.1" width="15.6" height="24.5" fill="#008300"/>
<circle cx="476.6" cy="79.8" r="2" fill="#c3c2b7"/>
<line x1="476.6" y1="79.8" x2="468.6" y2="79.8" stroke="#c3c2b7" stroke-width="1.0"/>
<text x="465.6" y="83.8" font-size="11.0" fill="#c3c2b7" text-anchor="end">474</text>
<circle cx="24.1" cy="356.0" r="2" fill="#c3c2b7"/>
<line x1="24.1" y1="356.0" x2="32.1" y2="356.0" stroke="#c3c2b7" stroke-width="1.0"/>
<text x="35.1" y="350.0" font-size="11.0" fill="#c3c2b7">0</text>
<text x="14.0" y="376.0" font-size="11.0" fill="#c3c2b7">VOL 18 forks</text>
<text x="96.6" y="376.0" font-size="11.0" fill="#c98500">MA5:21.4</text>
<text x="155.0" y="376.0" font-size="11.0" fill="#3987e5">MA10:17</text>
<text x="14.0" y="395.0" font-size="10" fill="#898781">46</text>
<rect x="16.4" y="437.9" width="15.6" height="32.1" fill="none" stroke="#e66767" stroke-width="1.1"/>
<rect x="44.6" y="446.8" width="15.6" height="23.2" fill="none" stroke="#e66767" stroke-width="1.1"/>
<rect x="72.9" y="446.8" width="15.6" height="23.2" fill="none" stroke="#e66767" stroke-width="1.1"/>
<rect x="101.2" y="441.5" width="15.6" height="28.5" fill="#008300"/>
<rect x="129.5" y="439.7" width="15.6" height="30.3" fill="#008300"/>
<rect x="157.7" y="423.7" width="15.6" height="46.3" fill="#898781"/>
<rect x="186.0" y="443.3" width="15.6" height="26.7" fill="none" stroke="#e66767" stroke-width="1.1"/>
<rect x="214.3" y="439.7" width="15.6" height="30.3" fill="#008300"/>
<rect x="242.6" y="448.6" width="15.6" height="21.4" fill="none" stroke="#e66767" stroke-width="1.1"/>
<rect x="270.8" y="423.7" width="15.6" height="46.3" fill="none" stroke="#e66767" stroke-width="1.1"/>
<rect x="299.1" y="436.1" width="15.6" height="33.9" fill="none" stroke="#e66767" stroke-width="1.1"/>
<rect x="327.4" y="443.3" width="15.6" height="26.7" fill="none" stroke="#e66767" stroke-width="1.1"/>
<rect x="355.7" y="448.6" width="15.6" height="21.4" fill="#008300"/>
<rect x="383.9" y="439.7" width="15.6" height="30.3" fill="none" stroke="#e66767" stroke-width="1.1"/>
<rect x="412.2" y="436.1" width="15.6" height="33.9" fill="#008300"/>
<rect x="440.5" y="437.9" width="15.6" height="32.1" fill="none" stroke="#e66767" stroke-width="1.1"/>
<rect x="468.8" y="388.0" width="15.6" height="82.0" fill="none" stroke="#e66767" stroke-width="1.1"/>
<rect x="497.1" y="439.7" width="15.6" height="30.3" fill="#008300"/>
<rect x="525.3" y="457.5" width="15.6" height="12.5" fill="none" stroke="#e66767" stroke-width="1.1"/>
<rect x="553.6" y="437.9" width="15.6" height="32.1" fill="#008300"/>
<rect x="581.9" y="454.0" width="15.6" height="16.0" fill="none" stroke="#e66767" stroke-width="1.1"/>
<rect x="610.2" y="446.8" width="15.6" height="23.2" fill="#008300"/>
<rect x="638.4" y="462.9" width="15.6" height="7.1" fill="none" stroke="#e66767" stroke-width="1.1"/>
<rect x="666.7" y="436.1" width="15.6" height="33.9" fill="#008300"/>
<rect x="695.0" y="420.1" width="15.6" height="49.9" fill="none" stroke="#e66767" stroke-width="1.1"/>
<rect x="723.3" y="443.3" width="15.6" height="26.7" fill="none" stroke="#e66767" stroke-width="1.1"/>
<rect x="751.5" y="409.4" width="15.6" height="60.6" fill="none" stroke="#e66767" stroke-width="1.1"/>
<rect x="779.8" y="448.6" width="15.6" height="21.4" fill="#008300"/>
<rect x="808.1" y="437.9" width="15.6" height="32.1" fill="#008300"/>
<polyline points="278.6,439.2 306.9,439.0 335.2,438.6 363.4,438.8 391.7,438.6 420.0,438.3 448.3,439.7 476.6,434.2 504.8,434.2 533.1,435.1 561.4,436.5 589.7,438.3 617.9,438.6 646.2,440.1 674.5,439.7 702.8,438.1 731.0,438.6 759.3,440.8 787.6,441.7 815.9,439.7" fill="none" stroke="#3987e5" stroke-width="1.5" stroke-linejoin="round" stroke-linecap="round"/>
<polyline points="137.2,442.5 165.5,439.7 193.8,439.0 222.1,437.6 250.3,439.0 278.6,435.8 306.9,438.3 335.2,438.3 363.4,440.1 391.7,438.3 420.0,440.8 448.3,441.1 476.6,430.1 504.8,428.3 533.1,431.9 561.4,432.2 589.7,435.4 617.9,447.2 646.2,451.8 674.5,447.5 702.8,444.0 731.0,441.8 759.3,434.3 787.6,431.5 815.9,431.9" fill="none" stroke="#c98500" stroke-width="1.5" stroke-linejoin="round" stroke-linecap="round"/>
</svg>