<svg xmlns="http://www.w3.org/2000/svg" viewBox="0 0 840 496" width="840" height="496" font-family="-apple-system,&#39;Segoe UI&#39;,system-ui,sans-serif" role="img" aria-label="sindresorhus/awesome candlestick chart">
<text x="14.0" y="20.0" font-size="15" fill="#ffffff" font-weight="650">sindresorhus/awesome</text>
<text x="183.0" y="20.0" font-size="11.5" fill="#c3c2b7">daily · new stars, volume = new forks</text>
<text x="805.8" y="20.0" font-size="11.0" fill="#c3c2b7">fall</text>
<rect x="791" y="10" width="9" height="12" fill="#008300"/>
<text x="750.6" y="20.0" font-size="11.0" fill="#c3c2b7">rise</text>
<rect x="736" y="10" width="9" height="12" fill="none" stroke="#e66767" stroke-width="1.5"/>
<text x="14.0" y="38.0" font-size="11.0" fill="#898781">last 27 days · +8,742 stars · +483 forks · updated 2026-07-16</text>
<rect x="10" y="66" width="820" height="290" fill="none" stroke="#2c2c2a"/>
<rect x="10" y="384" width="820" height="86" fill="none" stroke="#2c2c2a"/>
<text x="38.0" y="490.0" font-size="11.0" fill="#898781" text-anchor="middle">2026-06</text>
<line x1="344.1" y1="66.0" x2="344.1" y2="356.0" stroke="#2c2c2a" stroke-width="1.0"/>
<line x1="344.1" y1="384.0" x2="344.1" y2="470.0" stroke="#2c2c2a" stroke-width="1.0"/>
<text x="359.3" y="490.0" font-size="11.0" fill="#898781" text-anchor="middle">2026-07</text>
<text x="14.0" y="58.0" font-size="11.0" fill="#c3c2b7">BOLL(20,2)</text>
<text x="84.5" y="58.0" font-size="11.0" fill="#c98500">UP:428.9</text>
<text x="142.9" y="58.0" font-size="11.0" fill="#3987e5">MID:331.6</text>
<text x="207.4" y="58.0" font-size="11.0" fill="#d55181">LOW:234.2</text>
<text x="271.8" y="58.0" font-size="11.0" fill="#9085e9">MA7:323.4</text>
<line x1="10.0" y1="356.0" x2="830.0" y2="356.0" stroke="#2c2c2a" stroke-width="1.0"/>
<text x="14.0" y="353.0" font-size="11.0" fill="#898781">0</text>
<line x1="10.0" y1="239.5" x2="830.0" y2="239.5" stroke="#2c2c2a" stroke-width="1.0"/>
<text x="14.0" y="236.5" font-size="11.0" fill="#898781">200</text>
<line x1="10.0" y1="122.9" x2="830.0" y2="122.9" stroke="#2c2c2a" stroke-width="1.0"/>
<text x="14.0" y="119.9" font-size="11.0" fill="#898781">400</text>
<polyline points="602.2,119.3 632.6,119.3 663.0,118.1 693.3,118.3 723.7,118.4 754.1,118.3 784.4,118.3 814.8,106.1" fill="none" stroke="#c98500" stroke-width="1.5" stroke-linejoin="round" stroke-linecap="round"/>
<polyline points="602.2,167.3 632.6,166.3 663.0,167.4 693.3,167.8 723.7,168.2 754.1,167.5 784.4,166.8 814.8,162.8" fill="none" stroke="#3987e5" stroke-width="1.5" stroke-linejoin="round" stroke-linecap="round"/>
<polyline points="602.2,215.3 632.6,213.2 663.0,216.7 693.3,217.3 723.7,218.0 754.1,216.7 784.4,215.3 814.8,219.5" fill="none" stroke="#d55181" stroke-width="1.5" stroke-linejoin="round" stroke-linecap="round"/>
<polyline points="207.4,180.3 237.8,179.7 268.1,179.4 298.5,180.3 328.9,176.6 359.3,169.7 389.6,166.8 420.0,163.3 450.4,160.9 480.7,158.5 511.1,144.7 541.5,149.1 571.9,153.9 602.2,156.1 632.6,158.5 663.0,163.5 693.3,165.8 723.7,180.3 754.1,179.4 784.4,179.4 814.8,167.6" fill="none" stroke="#9085e9" stroke-width="1.5" stroke-linejoin="round" stroke-linecap="round"/>
<rect x="16.8" y="189.4" width="16.7" height="166.6" fill="none" stroke="#e66767" stroke-width="1.3"/>
<rect x="47.2" y="180.6" width="16.7" height="8.7" fill="none" stroke="#e66767" stroke-width="1.3"/>
<rect x="77.6" y="169.5" width="16.7" height="11.1" fill="none" stroke="#e66767" stroke-width="1.3"/>
<rect x="107.9" y="169.5" width="16.7" height="4.1" fill="#008300"/>
<rect x="138.3" y="173.6" width="16.7" height="12.2" fill="#008300"/>
<rect x="168.7" y="185.9" width="16.7" height="1.2" fill="#898781"/>
<rect x="199.1" y="177.1" width="16.7" height="8.7" fill="none" stroke="#e66767" stroke-width="1.3"/>
<rect x="229.4" y="177.1" width="16.7" height="8.2" fill="#008300"/>
<rect x="259.8" y="178.3" width="16.7" height="7.0" fill="none" stroke="#e66767" stroke-width="1.3"/>
<rect x="290.2" y="176.0" width="16.7" height="2.3" fill="none" stroke="#e66767" stroke-width="1.3"/>
<rect x="320.5" y="148.0" width="16.7" height="28.0" fill="none" stroke="#e66767" stroke-width="1.3"/>
<rect x="350.9" y="137.5" width="16.7" height="10.5" fill="none" stroke="#e66767" stroke-width="1.3"/>
<rect x="381.3" y="137.5" width="16.7" height="28.0" fill="#008300"/>
<rect x="411.6" y="152.6" width="16.7" height="12.8" fill="none" stroke="#e66767" stroke-width="1.3"/>
<rect x="442.0" y="152.6" width="16.7" height="15.7" fill="#008300"/>
<rect x="472.4" y="161.4" width="16.7" height="7.0" fill="none" stroke="#e66767" stroke-width="1.3"/>
<rect x="502.8" y="79.8" width="16.7" height="81.6" fill="none" stroke="#e66767" stroke-width="1.3"/>
<rect x="533.1" y="79.8" width="16.7" height="99.1" fill="#008300"/>
<rect x="563.5" y="170.7" width="16.7" height="8.2" fill="none" stroke="#e66767" stroke-width="1.3"/>
<rect x="593.9" y="170.7" width="16.7" height="10.5" fill="#008300"/>
<rect x="624.2" y="169.0" width="16.7" height="12.2" fill="none" stroke="#e66767" stroke-width="1.3"/>
<rect x="654.6" y="169.0" width="16.7" height="34.4" fill="#008300"/>
<rect x="685.0" y="177.7" width="16.7" height="25.6" fill="none" stroke="#e66767" stroke-width="1.3"/>
<rect x="715.4" y="177.7" width="16.7" height="3.5" fill="#008300"/>
<rect x="745.7" y="172.5" width="16.7" height="8.7" fill="none" stroke="#e66767" stroke-width="1.3"/>
<rect x="776.1" y="171.3" width="16.7" height="1.2" fill="none" stroke="#e66767" stroke-width="1.3"/>
<rect x="806.5" y="97.9" width="16.7" height="73.4" fill="none" stroke="#e66767" stroke-width="1.3"/>
<circle cx="511.1" cy="79.8" r="2" fill="#c3c2b7"/>
<line x1="511.1" y1="79.8" x2="503.1" y2="79.8" stroke="#c3c2b7" stroke-width="1.0"/>
<text x="500.1" y="83.8" font-size="11.0" fill="#c3c2b7" text-anchor="end">474</text>
<circle cx="25.2" cy="356.0" r="2" fill="#c3c2b7"/>
<line x1="25.2" y1="356.0" x2="33.2" y2="356.0" stroke="#c3c2b7" stroke-width="1.0"/>
<text x="36.2" y="350.0" font-size="11.0" fill="#c3c2b7">0</text>
<text x="14.0" y="376.0" font-size="11.0" fill="#c3c2b7">VOL 34 forks</text>
<text x="96.6" y="376.0" font-size="11.0" fill="#c98500">MA5:20</text>
<text x="142.9" y="376.0" font-size="11.0" fill="#3987e5">MA10:16.4</text>
<text x="14.0" y="395.0" font-size="10" fill="#898781">46</text>
<rect x="16.8" y="437.9" width="16.7" height="32.1" fill="none" stroke="#e66767" stroke-width="1.1"/>
<rect x="47.2" y="446.8" width="16.7" height="23.2" fill="none" stroke="#e66767" stroke-width="1.1"/>
<rect x="77.6" y="446.8" width="16.7" height="23.2" fill="none" stroke="#e66767" stroke-width="1.1"/>
<rect x="107.9" y="441.5" width="16.7" height="28.5" fill="#008300"/>
<rect x="138.3" y="439.7" width="16.7" height="30.3" fill="#008300"/>
<rect x="168.7" y="423.7" width="16.7" height="46.3" fill="#898781"/>
<rect x="199.1" y="443.3" width="16.7" height="26.7" fill="none" stroke="#e66767" stroke-width="1.1"/>
<rect x="229.4" y="439.7" width="16.7" height="30.3" fill="#008300"/>
<rect x="259.8" y="448.6" width="16.7" height="21.4" fill="none" stroke="#e66767" stroke-width="1.1"/>
<rect x="290.2" y="423.7" width="16.7" height="46.3" fill="none" stroke="#e66767" stroke-width="1.1"/>
<rect x="320.5" y="436.1" width="16.7" height="33.9" fill="none" stroke="#e66767" stroke-width="1.1"/>
<rect x="350.9" y="443.3" width="16.7" height="26.7" fill="none" stroke="#e66767" stroke-width="1.1"/>
<rect x="381.3" y="448.6" width="16.7" height="21.4" fill="#008300"/>
<rect x="411.6" y="439.7" width="16.7" height="30.3" fill="none" stroke="#e66767" stroke-width="1.1"/>
<rect x="442.0" y="436.1" width="16.7" height="33.9" fill="#008300"/>
<rect x="472.4" y="437.9" width="16.7" height="32.1" fill="none" stroke="#e66767" stroke-width="1.1"/>
<rect x="502.8" y="388.0" width="16.7" height="82.0" fill="none" stroke="#e66767" stroke-width="1.1"/>
<rect x="533.1" y="439.7" width="16.7" height="30.3" fill="#008300"/>
<rect x="563.5" y="457.5" width="16.7" height="12.5" fill="none" stroke="#e66767" stroke-width="1.1"/>
<rect x="593.9" y="437.9" width="16.7" height="32.1" fill="#008300"/>
<rect x="624.2" y="454.0" width="16.7" height="16.0" fill="none" stroke="#e66767" stroke-width="1.1"/>
<rect x="654.6" y="446.8" width="16.7" height="23.2" fill="#008300"/>
<rect x="685.0" y="462.9" width="16.7" height="7.1" fill="none" stroke="#e66767" stroke-width="1.1"/>
<rect x="715.4" y="436.1" width="16.7" height="33.9" fill="#008300"/>
<rect x="745.7" y="420.1" width="16.7" height="49.9" fill="none" stroke="#e66767" stroke-width="1.1"/>
<rect x="776.1" y="443.3" width="16.7" height="26.7" fill="none" stroke="#e66767" stroke-width="1.1"/>
<rect x="806.5" y="409.4" width="16.7" height="60.6" fill="none" stroke="#e66767" stroke-width="1.1"/>
<polyline points="298.5,439.2 328.9,439.0 359.3,438.6 389.6,438.8 420.0,438.6 450.4,438.3 480.7,439.7 511.1,434.2 541.5,434.2 571.9,435.1 602.2,436.5 632.6,438.3 663.0,438.6 693.3,440.1 723.7,439.7 754.1,438.1 784.4,438.6 814.8,440.8" fill="none" stroke="#3987e5" stroke-width="1.5" stroke-linejoin="round" stroke-linecap="round"/>
<polyline points="146.7,442.5 177.0,439.7 207.4,439.0 237.8,437.6 268.1,439.0 298.5,435.8 328.9,438.3 359.3,438.3 389.6,440.1 420.0,438.3 450.4,440.8 480.7,441.1 511.1,430.1 541.5,428.3 571.9,431.9 602.2,432.2 632.6,435.4 663.0,447.2 693.3,451.8 723.7,447.5 754.1,444.0 784.4,441.8 814.8,434.3" fill="none" stroke="#c98500" stroke-width="1.5" stroke-linejoin="round" stroke-linecap="round"/>
</svg>