<svg xmlns="http://www.w3.org/2000/svg" viewBox="0 0 840 496" width="840" height="496" font-family="-apple-system,&#39;Segoe UI&#39;,system-ui,sans-serif" role="img" aria-label="sindresorhus/awesome candlestick chart">
<text x="14.0" y="20.0" font-size="15" fill="#0b0b0b" font-weight="650">sindresorhus/awesome</text>
<text x="183.0" y="20.0" font-size="11.5" fill="#52514e">daily · new stars, volume = new forks</text>
<text x="805.8" y="20.0" font-size="11.0" fill="#52514e">fall</text>
<rect x="791" y="10" width="9" height="12" fill="#008300"/>
<text x="750.6" y="20.0" font-size="11.0" fill="#52514e">rise</text>
<rect x="736" y="10" width="9" height="12" fill="none" stroke="#e34948" stroke-width="1.5"/>
<text x="14.0" y="38.0" font-size="11.0" fill="#898781">last 22 days · +7,061 stars · +383 forks · updated 2026-07-11</text>
<rect x="10" y="66" width="820" height="290" fill="none" stroke="#e1e0d9"/>
<rect x="10" y="384" width="820" height="86" fill="none" stroke="#e1e0d9"/>
<text x="38.0" y="490.0" font-size="11.0" fill="#898781" text-anchor="middle">2026-06</text>
<line x1="420.0" y1="66.0" x2="420.0" y2="356.0" stroke="#e1e0d9" stroke-width="1.0"/>
<line x1="420.0" y1="384.0" x2="420.0" y2="470.0" stroke="#e1e0d9" stroke-width="1.0"/>
<text x="438.6" y="490.0" font-size="11.0" fill="#898781" text-anchor="middle">2026-07</text>
<text x="14.0" y="58.0" font-size="11.0" fill="#52514e">BOLL(20,2)</text>
<text x="84.5" y="58.0" font-size="11.0" fill="#eda100">UP:408.3</text>
<text x="142.9" y="58.0" font-size="11.0" fill="#2a78d6">MID:323.7</text>
<text x="207.4" y="58.0" font-size="11.0" fill="#e87ba4">LOW:239.1</text>
<text x="271.8" y="58.0" font-size="11.0" fill="#4a3aa7">MA7:330.4</text>
<line x1="10.0" y1="356.0" x2="830.0" y2="356.0" stroke="#e1e0d9" stroke-width="1.0"/>
<text x="14.0" y="353.0" font-size="11.0" fill="#898781">0</text>
<line x1="10.0" y1="239.5" x2="830.0" y2="239.5" stroke="#e1e0d9" stroke-width="1.0"/>
<text x="14.0" y="236.5" font-size="11.0" fill="#898781">200</text>
<line x1="10.0" y1="122.9" x2="830.0" y2="122.9" stroke="#e1e0d9" stroke-width="1.0"/>
<text x="14.0" y="119.9" font-size="11.0" fill="#898781">400</text>
<polyline points="736.8,119.3 774.1,119.3 811.4,118.1" fill="none" stroke="#eda100" stroke-width="1.5" stroke-linejoin="round" stroke-linecap="round"/>
<polyline points="736.8,167.3 774.1,166.3 811.4,167.4" fill="none" stroke="#2a78d6" stroke-width="1.5" stroke-linejoin="round" stroke-linecap="round"/>
<polyline points="736.8,215.3 774.1,213.2 811.4,216.7" fill="none" stroke="#e87ba4" stroke-width="1.5" stroke-linejoin="round" stroke-linecap="round"/>
<polyline points="252.3,180.3 289.5,179.7 326.8,179.4 364.1,180.3 401.4,176.6 438.6,169.7 475.9,166.8 513.2,163.3 550.5,160.9 587.7,158.5 625.0,144.7 662.3,149.1 699.5,153.9 736.8,156.1 774.1,158.5 811.4,163.5" fill="none" stroke="#4a3aa7" stroke-width="1.5" stroke-linejoin="round" stroke-linecap="round"/>
<rect x="18.4" y="189.4" width="20.5" height="166.6" fill="none" stroke="#e34948" stroke-width="1.3"/>
<rect x="55.7" y="180.6" width="20.5" height="8.7" fill="none" stroke="#e34948" stroke-width="1.3"/>
<rect x="92.9" y="169.5" width="20.5" height="11.1" fill="none" stroke="#e34948" stroke-width="1.3"/>
<rect x="130.2" y="169.5" width="20.5" height="4.1" fill="#008300"/>
<rect x="167.5" y="173.6" width="20.5" height="12.2" fill="#008300"/>
<rect x="204.8" y="185.9" width="20.5" height="1.2" fill="#898781"/>
<rect x="242.0" y="177.1" width="20.5" height="8.7" fill="none" stroke="#e34948" stroke-width="1.3"/>
<rect x="279.3" y="177.1" width="20.5" height="8.2" fill="#008300"/>
<rect x="316.6" y="178.3" width="20.5" height="7.0" fill="none" stroke="#e34948" stroke-width="1.3"/>
<rect x="353.8" y="176.0" width="20.5" height="2.3" fill="none" stroke="#e34948" stroke-width="1.3"/>
<rect x="391.1" y="148.0" width="20.5" height="28.0" fill="none" stroke="#e34948" stroke-width="1.3"/>
<rect x="428.4" y="137.5" width="20.5" height="10.5" fill="none" stroke="#e34948" stroke-width="1.3"/>
<rect x="465.7" y="137.5" width="20.5" height="28.0" fill="#008300"/>
<rect x="502.9" y="152.6" width="20.5" height="12.8" fill="none" stroke="#e34948" stroke-width="1.3"/>
<rect x="540.2" y="152.6" width="20.5" height="15.7" fill="#008300"/>
<rect x="577.5" y="161.4" width="20.5" height="7.0" fill="none" stroke="#e34948" stroke-width="1.3"/>
<rect x="614.8" y="79.8" width="20.5" height="81.6" fill="none" stroke="#e34948" stroke-width="1.3"/>
<rect x="652.0" y="79.8" width="20.5" height="99.1" fill="#008300"/>
<rect x="689.3" y="170.7" width="20.5" height="8.2" fill="none" stroke="#e34948" stroke-width="1.3"/>
<rect x="726.6" y="170.7" width="20.5" height="10.5" fill="#008300"/>
<rect x="763.8" y="169.0" width="20.5" height="12.2" fill="none" stroke="#e34948" stroke-width="1.3"/>
<rect x="801.1" y="169.0" width="20.5" height="34.4" fill="#008300"/>
<circle cx="625.0" cy="79.8" r="2" fill="#52514e"/>
<line x1="625.0" y1="79.8" x2="617.0" y2="79.8" stroke="#52514e" stroke-width="1.0"/>
<text x="614.0" y="83.8" font-size="11.0" fill="#52514e" text-anchor="end">474</text>
<circle cx="28.6" cy="356.0" r="2" fill="#52514e"/>
<line x1="28.6" y1="356.0" x2="36.6" y2="356.0" stroke="#52514e" stroke-width="1.0"/>
<text x="39.6" y="350.0" font-size="11.0" fill="#52514e">0</text>
<text x="14.0" y="376.0" font-size="11.0" fill="#52514e">VOL 13 forks</text>
<text x="96.6" y="376.0" font-size="11.0" fill="#eda100">MA5:12.8</text>
<text x="155.0" y="376.0" font-size="11.0" fill="#2a78d6">MA10:17.6</text>
<text x="14.0" y="395.0" font-size="10" fill="#898781">46</text>
<rect x="18.4" y="437.9" width="20.5" height="32.1" fill="none" stroke="#e34948" stroke-width="1.1"/>
<rect x="55.7" y="446.8" width="20.5" height="23.2" fill="none" stroke="#e34948" stroke-width="1.1"/>
<rect x="92.9" y="446.8" width="20.5" height="23.2" fill="none" stroke="#e34948" stroke-width="1.1"/>
<rect x="130.2" y="441.5" width="20.5" height="28.5" fill="#008300"/>
<rect x="167.5" y="439.7" width="20.5" height="30.3" fill="#008300"/>
<rect x="204.8" y="423.7" width="20.5" height="46.3" fill="#898781"/>
<rect x="242.0" y="443.3" width="20.5" height="26.7" fill="none" stroke="#e34948" stroke-width="1.1"/>
<rect x="279.3" y="439.7" width="20.5" height="30.3" fill="#008300"/>
<rect x="316.6" y="448.6" width="20.5" height="21.4" fill="none" stroke="#e34948" stroke-width="1.1"/>
<rect x="353.8" y="423.7" width="20.5" height="46.3" fill="none" stroke="#e34948" stroke-width="1.1"/>
<rect x="391.1" y="436.1" width="20.5" height="33.9" fill="none" stroke="#e34948" stroke-width="1.1"/>
<rect x="428.4" y="443.3" width="20.5" height="26.7" fill="none" stroke="#e34948" stroke-width="1.1"/>
<rect x="465.7" y="448.6" width="20.5" height="21.4" fill="#008300"/>
<rect x="502.9" y="439.7" width="20.5" height="30.3" fill="none" stroke="#e34948" stroke-width="1.1"/>
<rect x="540.2" y="436.1" width="20.5" height="33.9" fill="#008300"/>
<rect x="577.5" y="437.9" width="20.5" height="32.1" fill="none" stroke="#e34948" stroke-width="1.1"/>
<rect x="614.8" y="388.0" width="20.5" height="82.0" fill="none" stroke="#e34948" stroke-width="1.1"/>
<rect x="652.0" y="439.7" width="20.5" height="30.3" fill="#008300"/>
<rect x="689.3" y="457.5" width="20.5" height="12.5" fill="none" stroke="#e34948" stroke-width="1.1"/>
<rect x="726.6" y="437.9" width="20.5" height="32.1" fill="#008300"/>
<rect x="763.8" y="454.0" width="20.5" height="16.0" fill="none" stroke="#e34948" stroke-width="1.1"/>
<rect x="801.1" y="446.8" width="20.5" height="23.2" fill="#008300"/>
<polyline points="364.1,439.2 401.4,439.0 438.6,438.6 475.9,438.8 513.2,438.6 550.5,438.3 587.7,439.7 625.0,434.2 662.3,434.2 699.5,435.1 736.8,436.5 774.1,438.3 811.4,438.6" fill="none" stroke="#2a78d6" stroke-width="1.5" stroke-linejoin="round" stroke-linecap="round"/>
<polyline points="177.7,442.5 215.0,439.7 252.3,439.0 289.5,437.6 326.8,439.0 364.1,435.8 401.4,438.3 438.6,438.3 475.9,440.1 513.2,438.3 550.5,440.8 587.7,441.1 625.0,430.1 662.3,428.3 699.5,431.9 736.8,432.2 774.1,435.4 811.4,447.2" fill="none" stroke="#eda100" stroke-width="1.5" stroke-linejoin="round" stroke-linecap="round"/>
</svg>