<svg xmlns="http://www.w3.org/2000/svg" viewBox="0 0 840 496" width="840" height="496" font-family="-apple-system,&#39;Segoe UI&#39;,system-ui,sans-serif" role="img" aria-label="sindresorhus/awesome candlestick chart">
<text x="14.0" y="20.0" font-size="15" fill="#ffffff" font-weight="650">sindresorhus/awesome</text>
<text x="183.0" y="20.0" font-size="11.5" fill="#c3c2b7">daily · new stars, volume = new forks</text>
<text x="805.8" y="20.0" font-size="11.0" fill="#c3c2b7">fall</text>
<rect x="791" y="10" width="9" height="12" fill="#008300"/>
<text x="750.6" y="20.0" font-size="11.0" fill="#c3c2b7">rise</text>
<rect x="736" y="10" width="9" height="12" fill="none" stroke="#e66767" stroke-width="1.5"/>
<text x="14.0" y="38.0" font-size="11.0" fill="#898781">last 28 days · +9,128 stars · +495 forks · updated 2026-07-17</text>
<rect x="10" y="66" width="820" height="290" fill="none" stroke="#2c2c2a"/>
<rect x="10" y="384" width="820" height="86" fill="none" stroke="#2c2c2a"/>
<text x="38.0" y="490.0" font-size="11.0" fill="#898781" text-anchor="middle">2026-06</text>
<line x1="332.1" y1="66.0" x2="332.1" y2="356.0" stroke="#2c2c2a" stroke-width="1.0"/>
<line x1="332.1" y1="384.0" x2="332.1" y2="470.0" stroke="#2c2c2a" stroke-width="1.0"/>
<text x="346.8" y="490.0" font-size="11.0" fill="#898781" text-anchor="middle">2026-07</text>
<text x="14.0" y="58.0" font-size="11.0" fill="#c3c2b7">BOLL(20,2)</text>
<text x="84.5" y="58.0" font-size="11.0" fill="#c98500">UP:434.6</text>
<text x="142.9" y="58.0" font-size="11.0" fill="#3987e5">MID:336.2</text>
<text x="207.4" y="58.0" font-size="11.0" fill="#d55181">LOW:237.8</text>
<text x="271.8" y="58.0" font-size="11.0" fill="#9085e9">MA7:332.7</text>
<line x1="10.0" y1="356.0" x2="830.0" y2="356.0" stroke="#2c2c2a" stroke-width="1.0"/>
<text x="14.0" y="353.0" font-size="11.0" fill="#898781">0</text>
<line x1="10.0" y1="239.5" x2="830.0" y2="239.5" stroke="#2c2c2a" stroke-width="1.0"/>
<text x="14.0" y="236.5" font-size="11.0" fill="#898781">200</text>
<line x1="10.0" y1="122.9" x2="830.0" y2="122.9" stroke="#2c2c2a" stroke-width="1.0"/>
<text x="14.0" y="119.9" font-size="11.0" fill="#898781">400</text>
<polyline points="581.1,119.3 610.4,119.3 639.6,118.1 668.9,118.3 698.2,118.4 727.5,118.3 756.8,118.3 786.1,106.1 815.4,102.8" fill="none" stroke="#c98500" stroke-width="1.5" stroke-linejoin="round" stroke-linecap="round"/>
<polyline points="581.1,167.3 610.4,166.3 639.6,167.4 668.9,167.8 698.2,168.2 727.5,167.5 756.8,166.8 786.1,162.8 815.4,160.1" fill="none" stroke="#3987e5" stroke-width="1.5" stroke-linejoin="round" stroke-linecap="round"/>
<polyline points="581.1,215.3 610.4,213.2 639.6,216.7 668.9,217.3 698.2,218.0 727.5,216.7 756.8,215.3 786.1,219.5 815.4,217.5" fill="none" stroke="#d55181" stroke-width="1.5" stroke-linejoin="round" stroke-linecap="round"/>
<polyline points="200.4,180.3 229.6,179.7 258.9,179.4 288.2,180.3 317.5,176.6 346.8,169.7 376.1,166.8 405.4,163.3 434.6,160.9 463.9,158.5 493.2,144.7 522.5,149.1 551.8,153.9 581.1,156.1 610.4,158.5 639.6,163.5 668.9,165.8 698.2,180.3 727.5,179.4 756.8,179.4 786.1,167.6 815.4,162.1" fill="none" stroke="#9085e9" stroke-width="1.5" stroke-linejoin="round" stroke-linecap="round"/>
<rect x="16.6" y="189.4" width="16.1" height="166.6" fill="none" stroke="#e66767" stroke-width="1.3"/>
<rect x="45.9" y="180.6" width="16.1" height="8.7" fill="none" stroke="#e66767" stroke-width="1.3"/>
<rect x="75.2" y="169.5" width="16.1" height="11.1" fill="none" stroke="#e66767" stroke-width="1.3"/>
<rect x="104.4" y="169.5" width="16.1" height="4.1" fill="#008300"/>
<rect x="133.7" y="173.6" width="16.1" height="12.2" fill="#008300"/>
<rect x="163.0" y="185.9" width="16.1" height="1.2" fill="#898781"/>
<rect x="192.3" y="177.1" width="16.1" height="8.7" fill="none" stroke="#e66767" stroke-width="1.3"/>
<rect x="221.6" y="177.1" width="16.1" height="8.2" fill="#008300"/>
<rect x="250.9" y="178.3" width="16.1" height="7.0" fill="none" stroke="#e66767" stroke-width="1.3"/>
<rect x="280.2" y="176.0" width="16.1" height="2.3" fill="none" stroke="#e66767" stroke-width="1.3"/>
<rect x="309.4" y="148.0" width="16.1" height="28.0" fill="none" stroke="#e66767" stroke-width="1.3"/>
<rect x="338.7" y="137.5" width="16.1" height="10.5" fill="none" stroke="#e66767" stroke-width="1.3"/>
<rect x="368.0" y="137.5" width="16.1" height="28.0" fill="#008300"/>
<rect x="397.3" y="152.6" width="16.1" height="12.8" fill="none" stroke="#e66767" stroke-width="1.3"/>
<rect x="426.6" y="152.6" width="16.1" height="15.7" fill="#008300"/>
<rect x="455.9" y="161.4" width="16.1" height="7.0" fill="none" stroke="#e66767" stroke-width="1.3"/>
<rect x="485.2" y="79.8" width="16.1" height="81.6" fill="none" stroke="#e66767" stroke-width="1.3"/>
<rect x="514.4" y="79.8" width="16.1" height="99.1" fill="#008300"/>
<rect x="543.7" y="170.7" width="16.1" height="8.2" fill="none" stroke="#e66767" stroke-width="1.3"/>
<rect x="573.0" y="170.7" width="16.1" height="10.5" fill="#008300"/>
<rect x="602.3" y="169.0" width="16.1" height="12.2" fill="none" stroke="#e66767" stroke-width="1.3"/>
<rect x="631.6" y="169.0" width="16.1" height="34.4" fill="#008300"/>
<rect x="660.9" y="177.7" width="16.1" height="25.6" fill="none" stroke="#e66767" stroke-width="1.3"/>
<rect x="690.2" y="177.7" width="16.1" height="3.5" fill="#008300"/>
<rect x="719.4" y="172.5" width="16.1" height="8.7" fill="none" stroke="#e66767" stroke-width="1.3"/>
<rect x="748.7" y="171.3" width="16.1" height="1.2" fill="none" stroke="#e66767" stroke-width="1.3"/>
<rect x="778.0" y="97.9" width="16.1" height="73.4" fill="none" stroke="#e66767" stroke-width="1.3"/>
<rect x="807.3" y="97.9" width="16.1" height="33.2" fill="#008300"/>
<circle cx="493.2" cy="79.8" r="2" fill="#c3c2b7"/>
<line x1="493.2" y1="79.8" x2="485.2" y2="79.8" stroke="#c3c2b7" stroke-width="1.0"/>
<text x="482.2" y="83.8" font-size="11.0" fill="#c3c2b7" text-anchor="end">474</text>
<circle cx="24.6" cy="356.0" r="2" fill="#c3c2b7"/>
<line x1="24.6" y1="356.0" x2="32.6" y2="356.0" stroke="#c3c2b7" stroke-width="1.0"/>
<text x="35.6" y="350.0" font-size="11.0" fill="#c3c2b7">0</text>
<text x="14.0" y="376.0" font-size="11.0" fill="#c3c2b7">VOL 12 forks</text>
<text x="96.6" y="376.0" font-size="11.0" fill="#c98500">MA5:21.6</text>
<text x="155.0" y="376.0" font-size="11.0" fill="#3987e5">MA10:15.9</text>
<text x="14.0" y="395.0" font-size="10" fill="#898781">46</text>
<rect x="16.6" y="437.9" width="16.1" height="32.1" fill="none" stroke="#e66767" stroke-width="1.1"/>
<rect x="45.9" y="446.8" width="16.1" height="23.2" fill="none" stroke="#e66767" stroke-width="1.1"/>
<rect x="75.2" y="446.8" width="16.1" height="23.2" fill="none" stroke="#e66767" stroke-width="1.1"/>
<rect x="104.4" y="441.5" width="16.1" height="28.5" fill="#008300"/>
<rect x="133.7" y="439.7" width="16.1" height="30.3" fill="#008300"/>
<rect x="163.0" y="423.7" width="16.1" height="46.3" fill="#898781"/>
<rect x="192.3" y="443.3" width="16.1" height="26.7" fill="none" stroke="#e66767" stroke-width="1.1"/>
<rect x="221.6" y="439.7" width="16.1" height="30.3" fill="#008300"/>
<rect x="250.9" y="448.6" width="16.1" height="21.4" fill="none" stroke="#e66767" stroke-width="1.1"/>
<rect x="280.2" y="423.7" width="16.1" height="46.3" fill="none" stroke="#e66767" stroke-width="1.1"/>
<rect x="309.4" y="436.1" width="16.1" height="33.9" fill="none" stroke="#e66767" stroke-width="1.1"/>
<rect x="338.7" y="443.3" width="16.1" height="26.7" fill="none" stroke="#e66767" stroke-width="1.1"/>
<rect x="368.0" y="448.6" width="16.1" height="21.4" fill="#008300"/>
<rect x="397.3" y="439.7" width="16.1" height="30.3" fill="none" stroke="#e66767" stroke-width="1.1"/>
<rect x="426.6" y="436.1" width="16.1" height="33.9" fill="#008300"/>
<rect x="455.9" y="437.9" width="16.1" height="32.1" fill="none" stroke="#e66767" stroke-width="1.1"/>
<rect x="485.2" y="388.0" width="16.1" height="82.0" fill="none" stroke="#e66767" stroke-width="1.1"/>
<rect x="514.4" y="439.7" width="16.1" height="30.3" fill="#008300"/>
<rect x="543.7" y="457.5" width="16.1" height="12.5" fill="none" stroke="#e66767" stroke-width="1.1"/>
<rect x="573.0" y="437.9" width="16.1" height="32.1" fill="#008300"/>
<rect x="602.3" y="454.0" width="16.1" height="16.0" fill="none" stroke="#e66767" stroke-width="1.1"/>
<rect x="631.6" y="446.8" width="16.1" height="23.2" fill="#008300"/>
<rect x="660.9" y="462.9" width="16.1" height="7.1" fill="none" stroke="#e66767" stroke-width="1.1"/>
<rect x="690.2" y="436.1" width="16.1" height="33.9" fill="#008300"/>
<rect x="719.4" y="420.1" width="16.1" height="49.9" fill="none" stroke="#e66767" stroke-width="1.1"/>
<rect x="748.7" y="443.3" width="16.1" height="26.7" fill="none" stroke="#e66767" stroke-width="1.1"/>
<rect x="778.0" y="409.4" width="16.1" height="60.6" fill="none" stroke="#e66767" stroke-width="1.1"/>
<rect x="807.3" y="448.6" width="16.1" height="21.4" fill="#008300"/>
<polyline points="288.2,439.2 317.5,439.0 346.8,438.6 376.1,438.8 405.4,438.6 434.6,438.3 463.9,439.7 493.2,434.2 522.5,434.2 551.8,435.1 581.1,436.5 610.4,438.3 639.6,438.6 668.9,440.1 698.2,439.7 727.5,438.1 756.8,438.6 786.1,440.8 815.4,441.7" fill="none" stroke="#3987e5" stroke-width="1.5" stroke-linejoin="round" stroke-linecap="round"/>
<polyline points="141.8,442.5 171.1,439.7 200.4,439.0 229.6,437.6 258.9,439.0 288.2,435.8 317.5,438.3 346.8,438.3 376.1,440.1 405.4,438.3 434.6,440.8 463.9,441.1 493.2,430.1 522.5,428.3 551.8,431.9 581.1,432.2 610.4,435.4 639.6,447.2 668.9,451.8 698.2,447.5 727.5,444.0 756.8,441.8 786.1,434.3 815.4,431.5" fill="none" stroke="#c98500" stroke-width="1.5" stroke-linejoin="round" stroke-linecap="round"/>
</svg>