<svg xmlns="http://www.w3.org/2000/svg" viewBox="0 0 840 496" width="840" height="496" font-family="-apple-system,&#39;Segoe UI&#39;,system-ui,sans-serif" role="img" aria-label="sindresorhus/awesome candlestick chart">
<text x="14.0" y="20.0" font-size="15" fill="#ffffff" font-weight="650">sindresorhus/awesome</text>
<text x="183.0" y="20.0" font-size="11.5" fill="#c3c2b7">daily · new stars, volume = new forks</text>
<text x="805.8" y="20.0" font-size="11.0" fill="#c3c2b7">fall</text>
<rect x="791" y="10" width="9" height="12" fill="#008300"/>
<text x="750.6" y="20.0" font-size="11.0" fill="#c3c2b7">rise</text>
<rect x="736" y="10" width="9" height="12" fill="none" stroke="#e66767" stroke-width="1.5"/>
<text x="14.0" y="38.0" font-size="11.0" fill="#898781">last 32 days · +10,412 stars · +557 forks · updated 2026-07-21</text>
<rect x="10" y="66" width="820" height="290" fill="none" stroke="#2c2c2a"/>
<rect x="10" y="384" width="820" height="86" fill="none" stroke="#2c2c2a"/>
<text x="38.0" y="490.0" font-size="11.0" fill="#898781" text-anchor="middle">2026-06</text>
<line x1="291.9" y1="66.0" x2="291.9" y2="356.0" stroke="#2c2c2a" stroke-width="1.0"/>
<line x1="291.9" y1="384.0" x2="291.9" y2="470.0" stroke="#2c2c2a" stroke-width="1.0"/>
<text x="304.7" y="490.0" font-size="11.0" fill="#898781" text-anchor="middle">2026-07</text>
<text x="14.0" y="58.0" font-size="11.0" fill="#c3c2b7">BOLL(20,2)</text>
<text x="84.5" y="58.0" font-size="11.0" fill="#c98500">UP:429.4</text>
<text x="142.9" y="58.0" font-size="11.0" fill="#3987e5">MID:333.1</text>
<text x="207.4" y="58.0" font-size="11.0" fill="#d55181">LOW:236.8</text>
<text x="271.8" y="58.0" font-size="11.0" fill="#9085e9">MA7:347.1</text>
<line x1="10.0" y1="356.0" x2="830.0" y2="356.0" stroke="#2c2c2a" stroke-width="1.0"/>
<text x="14.0" y="353.0" font-size="11.0" fill="#898781">0</text>
<line x1="10.0" y1="239.5" x2="830.0" y2="239.5" stroke="#2c2c2a" stroke-width="1.0"/>
<text x="14.0" y="236.5" font-size="11.0" fill="#898781">200</text>
<line x1="10.0" y1="122.9" x2="830.0" y2="122.9" stroke="#2c2c2a" stroke-width="1.0"/>
<text x="14.0" y="119.9" font-size="11.0" fill="#898781">400</text>
<polyline points="509.7,119.3 535.3,119.3 560.9,118.1 586.6,118.3 612.2,118.4 637.8,118.3 663.4,118.3 689.1,106.1 714.7,102.8 740.3,102.2 765.9,102.2 791.6,103.3 817.2,105.8" fill="none" stroke="#c98500" stroke-width="1.5" stroke-linejoin="round" stroke-linecap="round"/>
<polyline points="509.7,167.3 535.3,166.3 560.9,167.4 586.6,167.8 612.2,168.2 637.8,167.5 663.4,166.8 689.1,162.8 714.7,160.1 740.3,159.0 765.9,158.7 791.6,160.3 817.2,161.9" fill="none" stroke="#3987e5" stroke-width="1.5" stroke-linejoin="round" stroke-linecap="round"/>
<polyline points="509.7,215.3 535.3,213.2 560.9,216.7 586.6,217.3 612.2,218.0 637.8,216.7 663.4,215.3 689.1,219.5 714.7,217.5 740.3,215.7 765.9,215.3 791.6,217.2 817.2,218.0" fill="none" stroke="#d55181" stroke-width="1.5" stroke-linejoin="round" stroke-linecap="round"/>
<polyline points="176.6,180.3 202.2,179.7 227.8,179.4 253.4,180.3 279.1,176.6 304.7,169.7 330.3,166.8 355.9,163.3 381.6,160.9 407.2,158.5 432.8,144.7 458.4,149.1 484.1,153.9 509.7,156.1 535.3,158.5 560.9,163.5 586.6,165.8 612.2,180.3 637.8,179.4 663.4,179.4 689.1,167.6 714.7,162.1 740.3,155.3 765.9,154.4 791.6,154.0 817.2,153.8" fill="none" stroke="#9085e9" stroke-width="1.5" stroke-linejoin="round" stroke-linecap="round"/>
<rect x="15.8" y="189.4" width="14.1" height="166.6" fill="none" stroke="#e66767" stroke-width="1.3"/>
<rect x="41.4" y="180.6" width="14.1" height="8.7" fill="none" stroke="#e66767" stroke-width="1.3"/>
<rect x="67.0" y="169.5" width="14.1" height="11.1" fill="none" stroke="#e66767" stroke-width="1.3"/>
<rect x="92.6" y="169.5" width="14.1" height="4.1" fill="#008300"/>
<rect x="118.3" y="173.6" width="14.1" height="12.2" fill="#008300"/>
<rect x="143.9" y="185.9" width="14.1" height="1.2" fill="#898781"/>
<rect x="169.5" y="177.1" width="14.1" height="8.7" fill="none" stroke="#e66767" stroke-width="1.3"/>
<rect x="195.1" y="177.1" width="14.1" height="8.2" fill="#008300"/>
<rect x="220.8" y="178.3" width="14.1" height="7.0" fill="none" stroke="#e66767" stroke-width="1.3"/>
<rect x="246.4" y="176.0" width="14.1" height="2.3" fill="none" stroke="#e66767" stroke-width="1.3"/>
<rect x="272.0" y="148.0" width="14.1" height="28.0" fill="none" stroke="#e66767" stroke-width="1.3"/>
<rect x="297.6" y="137.5" width="14.1" height="10.5" fill="none" stroke="#e66767" stroke-width="1.3"/>
<rect x="323.3" y="137.5" width="14.1" height="28.0" fill="#008300"/>
<rect x="348.9" y="152.6" width="14.1" height="12.8" fill="none" stroke="#e66767" stroke-width="1.3"/>
<rect x="374.5" y="152.6" width="14.1" height="15.7" fill="#008300"/>
<rect x="400.1" y="161.4" width="14.1" height="7.0" fill="none" stroke="#e66767" stroke-width="1.3"/>
<rect x="425.8" y="79.8" width="14.1" height="81.6" fill="none" stroke="#e66767" stroke-width="1.3"/>
<rect x="451.4" y="79.8" width="14.1" height="99.1" fill="#008300"/>
<rect x="477.0" y="170.7" width="14.1" height="8.2" fill="none" stroke="#e66767" stroke-width="1.3"/>
<rect x="502.6" y="170.7" width="14.1" height="10.5" fill="#008300"/>
<rect x="528.3" y="169.0" width="14.1" height="12.2" fill="none" stroke="#e66767" stroke-width="1.3"/>
<rect x="553.9" y="169.0" width="14.1" height="34.4" fill="#008300"/>
<rect x="579.5" y="177.7" width="14.1" height="25.6" fill="none" stroke="#e66767" stroke-width="1.3"/>
<rect x="605.1" y="177.7" width="14.1" height="3.5" fill="#008300"/>
<rect x="630.8" y="172.5" width="14.1" height="8.7" fill="none" stroke="#e66767" stroke-width="1.3"/>
<rect x="656.4" y="171.3" width="14.1" height="1.2" fill="none" stroke="#e66767" stroke-width="1.3"/>
<rect x="682.0" y="97.9" width="14.1" height="73.4" fill="none" stroke="#e66767" stroke-width="1.3"/>
<rect x="707.6" y="97.9" width="14.1" height="33.2" fill="#008300"/>
<rect x="733.3" y="131.1" width="14.1" height="24.5" fill="#008300"/>
<rect x="758.9" y="155.6" width="14.1" height="15.7" fill="#008300"/>
<rect x="784.5" y="171.3" width="14.1" height="7.6" fill="#008300"/>
<rect x="810.1" y="170.1" width="14.1" height="8.7" fill="none" stroke="#e66767" stroke-width="1.3"/>
<circle cx="432.8" cy="79.8" r="2" fill="#c3c2b7"/>
<line x1="432.8" y1="79.8" x2="424.8" y2="79.8" stroke="#c3c2b7" stroke-width="1.0"/>
<text x="421.8" y="83.8" font-size="11.0" fill="#c3c2b7" text-anchor="end">474</text>
<circle cx="22.8" cy="356.0" r="2" fill="#c3c2b7"/>
<line x1="22.8" y1="356.0" x2="30.8" y2="356.0" stroke="#c3c2b7" stroke-width="1.0"/>
<text x="33.8" y="350.0" font-size="11.0" fill="#c3c2b7">0</text>
<text x="14.0" y="376.0" font-size="11.0" fill="#c3c2b7">VOL 9 forks</text>
<text x="90.6" y="376.0" font-size="11.0" fill="#c98500">MA5:14.8</text>
<text x="149.0" y="376.0" font-size="11.0" fill="#3987e5">MA10:17.4</text>
<text x="14.0" y="395.0" font-size="10" fill="#898781">46</text>
<rect x="15.8" y="437.9" width="14.1" height="32.1" fill="none" stroke="#e66767" stroke-width="1.1"/>
<rect x="41.4" y="446.8" width="14.1" height="23.2" fill="none" stroke="#e66767" stroke-width="1.1"/>
<rect x="67.0" y="446.8" width="14.1" height="23.2" fill="none" stroke="#e66767" stroke-width="1.1"/>
<rect x="92.6" y="441.5" width="14.1" height="28.5" fill="#008300"/>
<rect x="118.3" y="439.7" width="14.1" height="30.3" fill="#008300"/>
<rect x="143.9" y="423.7" width="14.1" height="46.3" fill="#898781"/>
<rect x="169.5" y="443.3" width="14.1" height="26.7" fill="none" stroke="#e66767" stroke-width="1.1"/>
<rect x="195.1" y="439.7" width="14.1" height="30.3" fill="#008300"/>
<rect x="220.8" y="448.6" width="14.1" height="21.4" fill="none" stroke="#e66767" stroke-width="1.1"/>
<rect x="246.4" y="423.7" width="14.1" height="46.3" fill="none" stroke="#e66767" stroke-width="1.1"/>
<rect x="272.0" y="436.1" width="14.1" height="33.9" fill="none" stroke="#e66767" stroke-width="1.1"/>
<rect x="297.6" y="443.3" width="14.1" height="26.7" fill="none" stroke="#e66767" stroke-width="1.1"/>
<rect x="323.3" y="448.6" width="14.1" height="21.4" fill="#008300"/>
<rect x="348.9" y="439.7" width="14.1" height="30.3" fill="none" stroke="#e66767" stroke-width="1.1"/>
<rect x="374.5" y="436.1" width="14.1" height="33.9" fill="#008300"/>
<rect x="400.1" y="437.9" width="14.1" height="32.1" fill="none" stroke="#e66767" stroke-width="1.1"/>
<rect x="425.8" y="388.0" width="14.1" height="82.0" fill="none" stroke="#e66767" stroke-width="1.1"/>
<rect x="451.4" y="439.7" width="14.1" height="30.3" fill="#008300"/>
<rect x="477.0" y="457.5" width="14.1" height="12.5" fill="none" stroke="#e66767" stroke-width="1.1"/>
<rect x="502.6" y="437.9" width="14.1" height="32.1" fill="#008300"/>
<rect x="528.3" y="454.0" width="14.1" height="16.0" fill="none" stroke="#e66767" stroke-width="1.1"/>
<rect x="553.9" y="446.8" width="14.1" height="23.2" fill="#008300"/>
<rect x="579.5" y="462.9" width="14.1" height="7.1" fill="none" stroke="#e66767" stroke-width="1.1"/>
<rect x="605.1" y="436.1" width="14.1" height="33.9" fill="#008300"/>
<rect x="630.8" y="420.1" width="14.1" height="49.9" fill="none" stroke="#e66767" stroke-width="1.1"/>
<rect x="656.4" y="443.3" width="14.1" height="26.7" fill="none" stroke="#e66767" stroke-width="1.1"/>
<rect x="682.0" y="409.4" width="14.1" height="60.6" fill="none" stroke="#e66767" stroke-width="1.1"/>
<rect x="707.6" y="448.6" width="14.1" height="21.4" fill="#008300"/>
<rect x="733.3" y="437.9" width="14.1" height="32.1" fill="#008300"/>
<rect x="758.9" y="434.3" width="14.1" height="35.7" fill="#008300"/>
<rect x="784.5" y="443.3" width="14.1" height="26.7" fill="#008300"/>
<rect x="810.1" y="454.0" width="14.1" height="16.0" fill="none" stroke="#e66767" stroke-width="1.1"/>
<polyline points="253.4,439.2 279.1,439.0 304.7,438.6 330.3,438.8 355.9,438.6 381.6,438.3 407.2,439.7 432.8,434.2 458.4,434.2 484.1,435.1 509.7,436.5 535.3,438.3 560.9,438.6 586.6,440.1 612.2,439.7 637.8,438.1 663.4,438.6 689.1,440.8 714.7,441.7 740.3,439.7 765.9,439.3 791.6,438.3 817.2,439.0" fill="none" stroke="#3987e5" stroke-width="1.5" stroke-linejoin="round" stroke-linecap="round"/>
<polyline points="125.3,442.5 150.9,439.7 176.6,439.0 202.2,437.6 227.8,439.0 253.4,435.8 279.1,438.3 304.7,438.3 330.3,440.1 355.9,438.3 381.6,440.8 407.2,441.1 432.8,430.1 458.4,428.3 484.1,431.9 509.7,432.2 535.3,435.4 560.9,447.2 586.6,451.8 612.2,447.5 637.8,444.0 663.4,441.8 689.1,434.3 714.7,431.5 740.3,431.9 765.9,434.7 791.6,434.7 817.2,443.6" fill="none" stroke="#c98500" stroke-width="1.5" stroke-linejoin="round" stroke-linecap="round"/>
</svg>