<svg xmlns="http://www.w3.org/2000/svg" viewBox="0 0 840 496" width="840" height="496" font-family="-apple-system,&#39;Segoe UI&#39;,system-ui,sans-serif" role="img" aria-label="sindresorhus/awesome candlestick chart">
<text x="14.0" y="20.0" font-size="15" fill="#0b0b0b" font-weight="650">sindresorhus/awesome</text>
<text x="183.0" y="20.0" font-size="11.5" fill="#52514e">daily · new stars, volume = new forks</text>
<text x="805.8" y="20.0" font-size="11.0" fill="#52514e">fall</text>
<rect x="791" y="10" width="9" height="12" fill="#008300"/>
<text x="750.6" y="20.0" font-size="11.0" fill="#52514e">rise</text>
<rect x="736" y="10" width="9" height="12" fill="none" stroke="#e34948" stroke-width="1.5"/>
<text x="14.0" y="38.0" font-size="11.0" fill="#898781">last 31 days · +10,093 stars · +548 forks · updated 2026-07-20</text>
<rect x="10" y="66" width="820" height="290" fill="none" stroke="#e1e0d9"/>
<rect x="10" y="384" width="820" height="86" fill="none" stroke="#e1e0d9"/>
<text x="38.0" y="490.0" font-size="11.0" fill="#898781" text-anchor="middle">2026-06</text>
<line x1="301.0" y1="66.0" x2="301.0" y2="356.0" stroke="#e1e0d9" stroke-width="1.0"/>
<line x1="301.0" y1="384.0" x2="301.0" y2="470.0" stroke="#e1e0d9" stroke-width="1.0"/>
<text x="314.2" y="490.0" font-size="11.0" fill="#898781" text-anchor="middle">2026-07</text>
<text x="14.0" y="58.0" font-size="11.0" fill="#52514e">BOLL(20,2)</text>
<text x="84.5" y="58.0" font-size="11.0" fill="#eda100">UP:433.6</text>
<text x="142.9" y="58.0" font-size="11.0" fill="#2a78d6">MID:335.9</text>
<text x="207.4" y="58.0" font-size="11.0" fill="#e87ba4">LOW:238.2</text>
<text x="271.8" y="58.0" font-size="11.0" fill="#4a3aa7">MA7:346.6</text>
<line x1="10.0" y1="356.0" x2="830.0" y2="356.0" stroke="#e1e0d9" stroke-width="1.0"/>
<text x="14.0" y="353.0" font-size="11.0" fill="#898781">0</text>
<line x1="10.0" y1="239.5" x2="830.0" y2="239.5" stroke="#e1e0d9" stroke-width="1.0"/>
<text x="14.0" y="236.5" font-size="11.0" fill="#898781">200</text>
<line x1="10.0" y1="122.9" x2="830.0" y2="122.9" stroke="#e1e0d9" stroke-width="1.0"/>
<text x="14.0" y="119.9" font-size="11.0" fill="#898781">400</text>
<polyline points="525.8,119.3 552.3,119.3 578.7,118.1 605.2,118.3 631.6,118.4 658.1,118.3 684.5,118.3 711.0,106.1 737.4,102.8 763.9,102.2 790.3,102.2 816.8,103.3" fill="none" stroke="#eda100" stroke-width="1.5" stroke-linejoin="round" stroke-linecap="round"/>
<polyline points="525.8,167.3 552.3,166.3 578.7,167.4 605.2,167.8 631.6,168.2 658.1,167.5 684.5,166.8 711.0,162.8 737.4,160.1 763.9,159.0 790.3,158.7 816.8,160.3" fill="none" stroke="#2a78d6" stroke-width="1.5" stroke-linejoin="round" stroke-linecap="round"/>
<polyline points="525.8,215.3 552.3,213.2 578.7,216.7 605.2,217.3 631.6,218.0 658.1,216.7 684.5,215.3 711.0,219.5 737.4,217.5 763.9,215.7 790.3,215.3 816.8,217.2" fill="none" stroke="#e87ba4" stroke-width="1.5" stroke-linejoin="round" stroke-linecap="round"/>
<polyline points="181.9,180.3 208.4,179.7 234.8,179.4 261.3,180.3 287.7,176.6 314.2,169.7 340.6,166.8 367.1,163.3 393.5,160.9 420.0,158.5 446.5,144.7 472.9,149.1 499.4,153.9 525.8,156.1 552.3,158.5 578.7,163.5 605.2,165.8 631.6,180.3 658.1,179.4 684.5,179.4 711.0,167.6 737.4,162.1 763.9,155.3 790.3,154.4 816.8,154.0" fill="none" stroke="#4a3aa7" stroke-width="1.5" stroke-linejoin="round" stroke-linecap="round"/>
<rect x="16.0" y="189.4" width="14.5" height="166.6" fill="none" stroke="#e34948" stroke-width="1.3"/>
<rect x="42.4" y="180.6" width="14.5" height="8.7" fill="none" stroke="#e34948" stroke-width="1.3"/>
<rect x="68.9" y="169.5" width="14.5" height="11.1" fill="none" stroke="#e34948" stroke-width="1.3"/>
<rect x="95.3" y="169.5" width="14.5" height="4.1" fill="#008300"/>
<rect x="121.8" y="173.6" width="14.5" height="12.2" fill="#008300"/>
<rect x="148.2" y="185.9" width="14.5" height="1.2" fill="#898781"/>
<rect x="174.7" y="177.1" width="14.5" height="8.7" fill="none" stroke="#e34948" stroke-width="1.3"/>
<rect x="201.1" y="177.1" width="14.5" height="8.2" fill="#008300"/>
<rect x="227.6" y="178.3" width="14.5" height="7.0" fill="none" stroke="#e34948" stroke-width="1.3"/>
<rect x="254.0" y="176.0" width="14.5" height="2.3" fill="none" stroke="#e34948" stroke-width="1.3"/>
<rect x="280.5" y="148.0" width="14.5" height="28.0" fill="none" stroke="#e34948" stroke-width="1.3"/>
<rect x="306.9" y="137.5" width="14.5" height="10.5" fill="none" stroke="#e34948" stroke-width="1.3"/>
<rect x="333.4" y="137.5" width="14.5" height="28.0" fill="#008300"/>
<rect x="359.8" y="152.6" width="14.5" height="12.8" fill="none" stroke="#e34948" stroke-width="1.3"/>
<rect x="386.3" y="152.6" width="14.5" height="15.7" fill="#008300"/>
<rect x="412.7" y="161.4" width="14.5" height="7.0" fill="none" stroke="#e34948" stroke-width="1.3"/>
<rect x="439.2" y="79.8" width="14.5" height="81.6" fill="none" stroke="#e34948" stroke-width="1.3"/>
<rect x="465.6" y="79.8" width="14.5" height="99.1" fill="#008300"/>
<rect x="492.1" y="170.7" width="14.5" height="8.2" fill="none" stroke="#e34948" stroke-width="1.3"/>
<rect x="518.5" y="170.7" width="14.5" height="10.5" fill="#008300"/>
<rect x="545.0" y="169.0" width="14.5" height="12.2" fill="none" stroke="#e34948" stroke-width="1.3"/>
<rect x="571.4" y="169.0" width="14.5" height="34.4" fill="#008300"/>
<rect x="597.9" y="177.7" width="14.5" height="25.6" fill="none" stroke="#e34948" stroke-width="1.3"/>
<rect x="624.3" y="177.7" width="14.5" height="3.5" fill="#008300"/>
<rect x="650.8" y="172.5" width="14.5" height="8.7" fill="none" stroke="#e34948" stroke-width="1.3"/>
<rect x="677.2" y="171.3" width="14.5" height="1.2" fill="none" stroke="#e34948" stroke-width="1.3"/>
<rect x="703.7" y="97.9" width="14.5" height="73.4" fill="none" stroke="#e34948" stroke-width="1.3"/>
<rect x="730.1" y="97.9" width="14.5" height="33.2" fill="#008300"/>
<rect x="756.6" y="131.1" width="14.5" height="24.5" fill="#008300"/>
<rect x="783.0" y="155.6" width="14.5" height="15.7" fill="#008300"/>
<rect x="809.5" y="171.3" width="14.5" height="7.6" fill="#008300"/>
<circle cx="446.5" cy="79.8" r="2" fill="#52514e"/>
<line x1="446.5" y1="79.8" x2="438.5" y2="79.8" stroke="#52514e" stroke-width="1.0"/>
<text x="435.5" y="83.8" font-size="11.0" fill="#52514e" text-anchor="end">474</text>
<circle cx="23.2" cy="356.0" r="2" fill="#52514e"/>
<line x1="23.2" y1="356.0" x2="31.2" y2="356.0" stroke="#52514e" stroke-width="1.0"/>
<text x="34.2" y="350.0" font-size="11.0" fill="#52514e">0</text>
<text x="14.0" y="376.0" font-size="11.0" fill="#52514e">VOL 15 forks</text>
<text x="96.6" y="376.0" font-size="11.0" fill="#eda100">MA5:19.8</text>
<text x="155.0" y="376.0" font-size="11.0" fill="#2a78d6">MA10:17.8</text>
<text x="14.0" y="395.0" font-size="10" fill="#898781">46</text>
<rect x="16.0" y="437.9" width="14.5" height="32.1" fill="none" stroke="#e34948" stroke-width="1.1"/>
<rect x="42.4" y="446.8" width="14.5" height="23.2" fill="none" stroke="#e34948" stroke-width="1.1"/>
<rect x="68.9" y="446.8" width="14.5" height="23.2" fill="none" stroke="#e34948" stroke-width="1.1"/>
<rect x="95.3" y="441.5" width="14.5" height="28.5" fill="#008300"/>
<rect x="121.8" y="439.7" width="14.5" height="30.3" fill="#008300"/>
<rect x="148.2" y="423.7" width="14.5" height="46.3" fill="#898781"/>
<rect x="174.7" y="443.3" width="14.5" height="26.7" fill="none" stroke="#e34948" stroke-width="1.1"/>
<rect x="201.1" y="439.7" width="14.5" height="30.3" fill="#008300"/>
<rect x="227.6" y="448.6" width="14.5" height="21.4" fill="none" stroke="#e34948" stroke-width="1.1"/>
<rect x="254.0" y="423.7" width="14.5" height="46.3" fill="none" stroke="#e34948" stroke-width="1.1"/>
<rect x="280.5" y="436.1" width="14.5" height="33.9" fill="none" stroke="#e34948" stroke-width="1.1"/>
<rect x="306.9" y="443.3" width="14.5" height="26.7" fill="none" stroke="#e34948" stroke-width="1.1"/>
<rect x="333.4" y="448.6" width="14.5" height="21.4" fill="#008300"/>
<rect x="359.8" y="439.7" width="14.5" height="30.3" fill="none" stroke="#e34948" stroke-width="1.1"/>
<rect x="386.3" y="436.1" width="14.5" height="33.9" fill="#008300"/>
<rect x="412.7" y="437.9" width="14.5" height="32.1" fill="none" stroke="#e34948" stroke-width="1.1"/>
<rect x="439.2" y="388.0" width="14.5" height="82.0" fill="none" stroke="#e34948" stroke-width="1.1"/>
<rect x="465.6" y="439.7" width="14.5" height="30.3" fill="#008300"/>
<rect x="492.1" y="457.5" width="14.5" height="12.5" fill="none" stroke="#e34948" stroke-width="1.1"/>
<rect x="518.5" y="437.9" width="14.5" height="32.1" fill="#008300"/>
<rect x="545.0" y="454.0" width="14.5" height="16.0" fill="none" stroke="#e34948" stroke-width="1.1"/>
<rect x="571.4" y="446.8" width="14.5" height="23.2" fill="#008300"/>
<rect x="597.9" y="462.9" width="14.5" height="7.1" fill="none" stroke="#e34948" stroke-width="1.1"/>
<rect x="624.3" y="436.1" width="14.5" height="33.9" fill="#008300"/>
<rect x="650.8" y="420.1" width="14.5" height="49.9" fill="none" stroke="#e34948" stroke-width="1.1"/>
<rect x="677.2" y="443.3" width="14.5" height="26.7" fill="none" stroke="#e34948" stroke-width="1.1"/>
<rect x="703.7" y="409.4" width="14.5" height="60.6" fill="none" stroke="#e34948" stroke-width="1.1"/>
<rect x="730.1" y="448.6" width="14.5" height="21.4" fill="#008300"/>
<rect x="756.6" y="437.9" width="14.5" height="32.1" fill="#008300"/>
<rect x="783.0" y="434.3" width="14.5" height="35.7" fill="#008300"/>
<rect x="809.5" y="443.3" width="14.5" height="26.7" fill="#008300"/>
<polyline points="261.3,439.2 287.7,439.0 314.2,438.6 340.6,438.8 367.1,438.6 393.5,438.3 420.0,439.7 446.5,434.2 472.9,434.2 499.4,435.1 525.8,436.5 552.3,438.3 578.7,438.6 605.2,440.1 631.6,439.7 658.1,438.1 684.5,438.6 711.0,440.8 737.4,441.7 763.9,439.7 790.3,439.3 816.8,438.3" fill="none" stroke="#2a78d6" stroke-width="1.5" stroke-linejoin="round" stroke-linecap="round"/>
<polyline points="129.0,442.5 155.5,439.7 181.9,439.0 208.4,437.6 234.8,439.0 261.3,435.8 287.7,438.3 314.2,438.3 340.6,440.1 367.1,438.3 393.5,440.8 420.0,441.1 446.5,430.1 472.9,428.3 499.4,431.9 525.8,432.2 552.3,435.4 578.7,447.2 605.2,451.8 631.6,447.5 658.1,444.0 684.5,441.8 711.0,434.3 737.4,431.5 763.9,431.9 790.3,434.7 816.8,434.7" fill="none" stroke="#eda100" stroke-width="1.5" stroke-linejoin="round" stroke-linecap="round"/>
</svg>