<svg xmlns="http://www.w3.org/2000/svg" viewBox="0 0 840 496" width="840" height="496" font-family="-apple-system,&#39;Segoe UI&#39;,system-ui,sans-serif" role="img" aria-label="sindresorhus/awesome candlestick chart">
<text x="14.0" y="20.0" font-size="15" fill="#0b0b0b" font-weight="650">sindresorhus/awesome</text>
<text x="183.0" y="20.0" font-size="11.5" fill="#52514e">daily · new stars, volume = new forks</text>
<text x="805.8" y="20.0" font-size="11.0" fill="#52514e">fall</text>
<rect x="791" y="10" width="9" height="12" fill="#008300"/>
<text x="750.6" y="20.0" font-size="11.0" fill="#52514e">rise</text>
<rect x="736" y="10" width="9" height="12" fill="none" stroke="#e34948" stroke-width="1.5"/>
<text x="14.0" y="38.0" font-size="11.0" fill="#898781">last 20 days · +6,478 stars · +361 forks · updated 2026-07-09</text>
<rect x="10" y="66" width="820" height="290" fill="none" stroke="#e1e0d9"/>
<rect x="10" y="384" width="820" height="86" fill="none" stroke="#e1e0d9"/>
<text x="38.0" y="490.0" font-size="11.0" fill="#898781" text-anchor="middle">2026-06</text>
<line x1="461.0" y1="66.0" x2="461.0" y2="356.0" stroke="#e1e0d9" stroke-width="1.0"/>
<line x1="461.0" y1="384.0" x2="461.0" y2="470.0" stroke="#e1e0d9" stroke-width="1.0"/>
<text x="481.5" y="490.0" font-size="11.0" fill="#898781" text-anchor="middle">2026-07</text>
<text x="14.0" y="58.0" font-size="11.0" fill="#52514e">BOLL(20,2)</text>
<text x="84.5" y="58.0" font-size="11.0" fill="#eda100">UP:406.3</text>
<text x="142.9" y="58.0" font-size="11.0" fill="#2a78d6">MID:323.9</text>
<text x="207.4" y="58.0" font-size="11.0" fill="#e87ba4">LOW:241.5</text>
<text x="271.8" y="58.0" font-size="11.0" fill="#4a3aa7">MA7:343</text>
<line x1="10.0" y1="356.0" x2="830.0" y2="356.0" stroke="#e1e0d9" stroke-width="1.0"/>
<text x="14.0" y="353.0" font-size="11.0" fill="#898781">0</text>
<line x1="10.0" y1="239.5" x2="830.0" y2="239.5" stroke="#e1e0d9" stroke-width="1.0"/>
<text x="14.0" y="236.5" font-size="11.0" fill="#898781">200</text>
<line x1="10.0" y1="122.9" x2="830.0" y2="122.9" stroke="#e1e0d9" stroke-width="1.0"/>
<text x="14.0" y="119.9" font-size="11.0" fill="#898781">400</text>
<polyline points="276.5,180.3 317.5,179.7 358.5,179.4 399.5,180.3 440.5,176.6 481.5,169.7 522.5,166.8 563.5,163.3 604.5,160.9 645.5,158.5 686.5,144.7 727.5,149.1 768.5,153.9 809.5,156.1" fill="none" stroke="#4a3aa7" stroke-width="1.5" stroke-linejoin="round" stroke-linecap="round"/>
<rect x="19.2" y="189.4" width="22.6" height="166.6" fill="none" stroke="#e34948" stroke-width="1.3"/>
<rect x="60.2" y="180.6" width="22.6" height="8.7" fill="none" stroke="#e34948" stroke-width="1.3"/>
<rect x="101.2" y="169.5" width="22.6" height="11.1" fill="none" stroke="#e34948" stroke-width="1.3"/>
<rect x="142.2" y="169.5" width="22.6" height="4.1" fill="#008300"/>
<rect x="183.2" y="173.6" width="22.6" height="12.2" fill="#008300"/>
<rect x="224.2" y="185.9" width="22.6" height="1.2" fill="#898781"/>
<rect x="265.2" y="177.1" width="22.6" height="8.7" fill="none" stroke="#e34948" stroke-width="1.3"/>
<rect x="306.2" y="177.1" width="22.6" height="8.2" fill="#008300"/>
<rect x="347.2" y="178.3" width="22.6" height="7.0" fill="none" stroke="#e34948" stroke-width="1.3"/>
<rect x="388.2" y="176.0" width="22.6" height="2.3" fill="none" stroke="#e34948" stroke-width="1.3"/>
<rect x="429.2" y="148.0" width="22.6" height="28.0" fill="none" stroke="#e34948" stroke-width="1.3"/>
<rect x="470.2" y="137.5" width="22.6" height="10.5" fill="none" stroke="#e34948" stroke-width="1.3"/>
<rect x="511.2" y="137.5" width="22.6" height="28.0" fill="#008300"/>
<rect x="552.2" y="152.6" width="22.6" height="12.8" fill="none" stroke="#e34948" stroke-width="1.3"/>
<rect x="593.2" y="152.6" width="22.6" height="15.7" fill="#008300"/>
<rect x="634.2" y="161.4" width="22.6" height="7.0" fill="none" stroke="#e34948" stroke-width="1.3"/>
<rect x="675.2" y="79.8" width="22.6" height="81.6" fill="none" stroke="#e34948" stroke-width="1.3"/>
<rect x="716.2" y="79.8" width="22.6" height="99.1" fill="#008300"/>
<rect x="757.2" y="170.7" width="22.6" height="8.2" fill="none" stroke="#e34948" stroke-width="1.3"/>
<rect x="798.2" y="170.7" width="22.6" height="10.5" fill="#008300"/>
<circle cx="686.5" cy="79.8" r="2" fill="#52514e"/>
<line x1="686.5" y1="79.8" x2="678.5" y2="79.8" stroke="#52514e" stroke-width="1.0"/>
<text x="675.5" y="83.8" font-size="11.0" fill="#52514e" text-anchor="end">474</text>
<circle cx="30.5" cy="356.0" r="2" fill="#52514e"/>
<line x1="30.5" y1="356.0" x2="38.5" y2="356.0" stroke="#52514e" stroke-width="1.0"/>
<text x="41.5" y="350.0" font-size="11.0" fill="#52514e">0</text>
<text x="14.0" y="376.0" font-size="11.0" fill="#52514e">VOL 18 forks</text>
<text x="96.6" y="376.0" font-size="11.0" fill="#eda100">MA5:21.2</text>
<text x="155.0" y="376.0" font-size="11.0" fill="#2a78d6">MA10:18.8</text>
<text x="14.0" y="395.0" font-size="10" fill="#898781">46</text>
<rect x="19.2" y="437.9" width="22.6" height="32.1" fill="none" stroke="#e34948" stroke-width="1.1"/>
<rect x="60.2" y="446.8" width="22.6" height="23.2" fill="none" stroke="#e34948" stroke-width="1.1"/>
<rect x="101.2" y="446.8" width="22.6" height="23.2" fill="none" stroke="#e34948" stroke-width="1.1"/>
<rect x="142.2" y="441.5" width="22.6" height="28.5" fill="#008300"/>
<rect x="183.2" y="439.7" width="22.6" height="30.3" fill="#008300"/>
<rect x="224.2" y="423.7" width="22.6" height="46.3" fill="#898781"/>
<rect x="265.2" y="443.3" width="22.6" height="26.7" fill="none" stroke="#e34948" stroke-width="1.1"/>
<rect x="306.2" y="439.7" width="22.6" height="30.3" fill="#008300"/>
<rect x="347.2" y="448.6" width="22.6" height="21.4" fill="none" stroke="#e34948" stroke-width="1.1"/>
<rect x="388.2" y="423.7" width="22.6" height="46.3" fill="none" stroke="#e34948" stroke-width="1.1"/>
<rect x="429.2" y="436.1" width="22.6" height="33.9" fill="none" stroke="#e34948" stroke-width="1.1"/>
<rect x="470.2" y="443.3" width="22.6" height="26.7" fill="none" stroke="#e34948" stroke-width="1.1"/>
<rect x="511.2" y="448.6" width="22.6" height="21.4" fill="#008300"/>
<rect x="552.2" y="439.7" width="22.6" height="30.3" fill="none" stroke="#e34948" stroke-width="1.1"/>
<rect x="593.2" y="436.1" width="22.6" height="33.9" fill="#008300"/>
<rect x="634.2" y="437.9" width="22.6" height="32.1" fill="none" stroke="#e34948" stroke-width="1.1"/>
<rect x="675.2" y="388.0" width="22.6" height="82.0" fill="none" stroke="#e34948" stroke-width="1.1"/>
<rect x="716.2" y="439.7" width="22.6" height="30.3" fill="#008300"/>
<rect x="757.2" y="457.5" width="22.6" height="12.5" fill="none" stroke="#e34948" stroke-width="1.1"/>
<rect x="798.2" y="437.9" width="22.6" height="32.1" fill="#008300"/>
<polyline points="399.5,439.2 440.5,439.0 481.5,438.6 522.5,438.8 563.5,438.6 604.5,438.3 645.5,439.7 686.5,434.2 727.5,434.2 768.5,435.1 809.5,436.5" fill="none" stroke="#2a78d6" stroke-width="1.5" stroke-linejoin="round" stroke-linecap="round"/>
<polyline points="194.5,442.5 235.5,439.7 276.5,439.0 317.5,437.6 358.5,439.0 399.5,435.8 440.5,438.3 481.5,438.3 522.5,440.1 563.5,438.3 604.5,440.8 645.5,441.1 686.5,430.1 727.5,428.3 768.5,431.9 809.5,432.2" fill="none" stroke="#eda100" stroke-width="1.5" stroke-linejoin="round" stroke-linecap="round"/>
</svg>