<svg xmlns="http://www.w3.org/2000/svg" viewBox="0 0 840 496" width="840" height="496" font-family="-apple-system,&#39;Segoe UI&#39;,system-ui,sans-serif" role="img" aria-label="sindresorhus/awesome candlestick chart">
<text x="14.0" y="20.0" font-size="15" fill="#0b0b0b" font-weight="650">sindresorhus/awesome</text>
<text x="183.0" y="20.0" font-size="11.5" fill="#52514e">daily · new stars, volume = new forks</text>
<text x="805.8" y="20.0" font-size="11.0" fill="#52514e">fall</text>
<rect x="791" y="10" width="9" height="12" fill="#008300"/>
<text x="750.6" y="20.0" font-size="11.0" fill="#52514e">rise</text>
<rect x="736" y="10" width="9" height="12" fill="none" stroke="#e34948" stroke-width="1.5"/>
<text x="14.0" y="38.0" font-size="11.0" fill="#898781">last 35 days · +11,507 stars · +601 forks · updated 2026-07-24</text>
<rect x="10" y="66" width="820" height="290" fill="none" stroke="#e1e0d9"/>
<rect x="10" y="384" width="820" height="86" fill="none" stroke="#e1e0d9"/>
<text x="38.0" y="490.0" font-size="11.0" fill="#898781" text-anchor="middle">2026-06</text>
<line x1="267.7" y1="66.0" x2="267.7" y2="356.0" stroke="#e1e0d9" stroke-width="1.0"/>
<line x1="267.7" y1="384.0" x2="267.7" y2="470.0" stroke="#e1e0d9" stroke-width="1.0"/>
<text x="279.4" y="490.0" font-size="11.0" fill="#898781" text-anchor="middle">2026-07</text>
<text x="14.0" y="58.0" font-size="11.0" fill="#52514e">BOLL(20,2)</text>
<text x="84.5" y="58.0" font-size="11.0" fill="#eda100">UP:436.7</text>
<text x="142.9" y="58.0" font-size="11.0" fill="#2a78d6">MID:337.9</text>
<text x="207.4" y="58.0" font-size="11.0" fill="#e87ba4">LOW:239.2</text>
<text x="271.8" y="58.0" font-size="11.0" fill="#4a3aa7">MA7:339.9</text>
<line x1="10.0" y1="356.0" x2="830.0" y2="356.0" stroke="#e1e0d9" stroke-width="1.0"/>
<text x="14.0" y="353.0" font-size="11.0" fill="#898781">0</text>
<line x1="10.0" y1="239.5" x2="830.0" y2="239.5" stroke="#e1e0d9" stroke-width="1.0"/>
<text x="14.0" y="236.5" font-size="11.0" fill="#898781">200</text>
<line x1="10.0" y1="122.9" x2="830.0" y2="122.9" stroke="#e1e0d9" stroke-width="1.0"/>
<text x="14.0" y="119.9" font-size="11.0" fill="#898781">400</text>
<polyline points="466.9,119.3 490.3,119.3 513.7,118.1 537.1,118.3 560.6,118.4 584.0,118.3 607.4,118.3 630.9,106.1 654.3,102.8 677.7,102.2 701.1,102.2 724.6,103.3 748.0,105.8 771.4,103.7 794.9,103.5 818.3,101.5" fill="none" stroke="#eda100" stroke-width="1.5" stroke-linejoin="round" stroke-linecap="round"/>
<polyline points="466.9,167.3 490.3,166.3 513.7,167.4 537.1,167.8 560.6,168.2 584.0,167.5 607.4,166.8 630.9,162.8 654.3,160.1 677.7,159.0 701.1,158.7 724.6,160.3 748.0,161.9 771.4,160.6 794.9,160.5 818.3,159.1" fill="none" stroke="#2a78d6" stroke-width="1.5" stroke-linejoin="round" stroke-linecap="round"/>
<polyline points="466.9,215.3 490.3,213.2 513.7,216.7 537.1,217.3 560.6,218.0 584.0,216.7 607.4,215.3 630.9,219.5 654.3,217.5 677.7,215.7 701.1,215.3 724.6,217.2 748.0,218.0 771.4,217.5 794.9,217.5 818.3,216.6" fill="none" stroke="#e87ba4" stroke-width="1.5" stroke-linejoin="round" stroke-linecap="round"/>
<polyline points="162.3,180.3 185.7,179.7 209.1,179.4 232.6,180.3 256.0,176.6 279.4,169.7 302.9,166.8 326.3,163.3 349.7,160.9 373.1,158.5 396.6,144.7 420.0,149.1 443.4,153.9 466.9,156.1 490.3,158.5 513.7,163.5 537.1,165.8 560.6,180.3 584.0,179.4 607.4,179.4 630.9,167.6 654.3,162.1 677.7,155.3 701.1,154.4 724.6,154.0 748.0,153.8 771.4,149.1 794.9,156.7 818.3,157.9" fill="none" stroke="#4a3aa7" stroke-width="1.5" stroke-linejoin="round" stroke-linecap="round"/>
<rect x="15.3" y="189.4" width="12.9" height="166.6" fill="none" stroke="#e34948" stroke-width="1.3"/>
<rect x="38.7" y="180.6" width="12.9" height="8.7" fill="none" stroke="#e34948" stroke-width="1.3"/>
<rect x="62.1" y="169.5" width="12.9" height="11.1" fill="none" stroke="#e34948" stroke-width="1.3"/>
<rect x="85.6" y="169.5" width="12.9" height="4.1" fill="#008300"/>
<rect x="109.0" y="173.6" width="12.9" height="12.2" fill="#008300"/>
<rect x="132.4" y="185.9" width="12.9" height="1.2" fill="#898781"/>
<rect x="155.8" y="177.1" width="12.9" height="8.7" fill="none" stroke="#e34948" stroke-width="1.3"/>
<rect x="179.3" y="177.1" width="12.9" height="8.2" fill="#008300"/>
<rect x="202.7" y="178.3" width="12.9" height="7.0" fill="none" stroke="#e34948" stroke-width="1.3"/>
<rect x="226.1" y="176.0" width="12.9" height="2.3" fill="none" stroke="#e34948" stroke-width="1.3"/>
<rect x="249.6" y="148.0" width="12.9" height="28.0" fill="none" stroke="#e34948" stroke-width="1.3"/>
<rect x="273.0" y="137.5" width="12.9" height="10.5" fill="none" stroke="#e34948" stroke-width="1.3"/>
<rect x="296.4" y="137.5" width="12.9" height="28.0" fill="#008300"/>
<rect x="319.8" y="152.6" width="12.9" height="12.8" fill="none" stroke="#e34948" stroke-width="1.3"/>
<rect x="343.3" y="152.6" width="12.9" height="15.7" fill="#008300"/>
<rect x="366.7" y="161.4" width="12.9" height="7.0" fill="none" stroke="#e34948" stroke-width="1.3"/>
<rect x="390.1" y="79.8" width="12.9" height="81.6" fill="none" stroke="#e34948" stroke-width="1.3"/>
<rect x="413.6" y="79.8" width="12.9" height="99.1" fill="#008300"/>
<rect x="437.0" y="170.7" width="12.9" height="8.2" fill="none" stroke="#e34948" stroke-width="1.3"/>
<rect x="460.4" y="170.7" width="12.9" height="10.5" fill="#008300"/>
<rect x="483.8" y="169.0" width="12.9" height="12.2" fill="none" stroke="#e34948" stroke-width="1.3"/>
<rect x="507.3" y="169.0" width="12.9" height="34.4" fill="#008300"/>
<rect x="530.7" y="177.7" width="12.9" height="25.6" fill="none" stroke="#e34948" stroke-width="1.3"/>
<rect x="554.1" y="177.7" width="12.9" height="3.5" fill="#008300"/>
<rect x="577.6" y="172.5" width="12.9" height="8.7" fill="none" stroke="#e34948" stroke-width="1.3"/>
<rect x="601.0" y="171.3" width="12.9" height="1.2" fill="none" stroke="#e34948" stroke-width="1.3"/>
<rect x="624.4" y="97.9" width="12.9" height="73.4" fill="none" stroke="#e34948" stroke-width="1.3"/>
<rect x="647.8" y="97.9" width="12.9" height="33.2" fill="#008300"/>
<rect x="671.3" y="131.1" width="12.9" height="24.5" fill="#008300"/>
<rect x="694.7" y="155.6" width="12.9" height="15.7" fill="#008300"/>
<rect x="718.1" y="171.3" width="12.9" height="7.6" fill="#008300"/>
<rect x="741.6" y="170.1" width="12.9" height="8.7" fill="none" stroke="#e34948" stroke-width="1.3"/>
<rect x="765.0" y="139.2" width="12.9" height="30.9" fill="none" stroke="#e34948" stroke-width="1.3"/>
<rect x="788.4" y="139.2" width="12.9" height="11.7" fill="#008300"/>
<rect x="811.8" y="139.8" width="12.9" height="11.1" fill="none" stroke="#e34948" stroke-width="1.3"/>
<circle cx="396.6" cy="79.8" r="2" fill="#52514e"/>
<line x1="396.6" y1="79.8" x2="404.6" y2="79.8" stroke="#52514e" stroke-width="1.0"/>
<text x="407.6" y="83.8" font-size="11.0" fill="#52514e">474</text>
<circle cx="21.7" cy="356.0" r="2" fill="#52514e"/>
<line x1="21.7" y1="356.0" x2="29.7" y2="356.0" stroke="#52514e" stroke-width="1.0"/>
<text x="32.7" y="350.0" font-size="11.0" fill="#52514e">0</text>
<text x="14.0" y="376.0" font-size="11.0" fill="#52514e">VOL 21 forks</text>
<text x="96.6" y="376.0" font-size="11.0" fill="#eda100">MA5:13.6</text>
<text x="155.0" y="376.0" font-size="11.0" fill="#2a78d6">MA10:16.7</text>
<text x="14.0" y="395.0" font-size="10" fill="#898781">46</text>
<rect x="15.3" y="437.9" width="12.9" height="32.1" fill="none" stroke="#e34948" stroke-width="1.1"/>
<rect x="38.7" y="446.8" width="12.9" height="23.2" fill="none" stroke="#e34948" stroke-width="1.1"/>
<rect x="62.1" y="446.8" width="12.9" height="23.2" fill="none" stroke="#e34948" stroke-width="1.1"/>
<rect x="85.6" y="441.5" width="12.9" height="28.5" fill="#008300"/>
<rect x="109.0" y="439.7" width="12.9" height="30.3" fill="#008300"/>
<rect x="132.4" y="423.7" width="12.9" height="46.3" fill="#898781"/>
<rect x="155.8" y="443.3" width="12.9" height="26.7" fill="none" stroke="#e34948" stroke-width="1.1"/>
<rect x="179.3" y="439.7" width="12.9" height="30.3" fill="#008300"/>
<rect x="202.7" y="448.6" width="12.9" height="21.4" fill="none" stroke="#e34948" stroke-width="1.1"/>
<rect x="226.1" y="423.7" width="12.9" height="46.3" fill="none" stroke="#e34948" stroke-width="1.1"/>
<rect x="249.6" y="436.1" width="12.9" height="33.9" fill="none" stroke="#e34948" stroke-width="1.1"/>
<rect x="273.0" y="443.3" width="12.9" height="26.7" fill="none" stroke="#e34948" stroke-width="1.1"/>
<rect x="296.4" y="448.6" width="12.9" height="21.4" fill="#008300"/>
<rect x="319.8" y="439.7" width="12.9" height="30.3" fill="none" stroke="#e34948" stroke-width="1.1"/>
<rect x="343.3" y="436.1" width="12.9" height="33.9" fill="#008300"/>
<rect x="366.7" y="437.9" width="12.9" height="32.1" fill="none" stroke="#e34948" stroke-width="1.1"/>
<rect x="390.1" y="388.0" width="12.9" height="82.0" fill="none" stroke="#e34948" stroke-width="1.1"/>
<rect x="413.6" y="439.7" width="12.9" height="30.3" fill="#008300"/>
<rect x="437.0" y="457.5" width="12.9" height="12.5" fill="none" stroke="#e34948" stroke-width="1.1"/>
<rect x="460.4" y="437.9" width="12.9" height="32.1" fill="#008300"/>
<rect x="483.8" y="454.0" width="12.9" height="16.0" fill="none" stroke="#e34948" stroke-width="1.1"/>
<rect x="507.3" y="446.8" width="12.9" height="23.2" fill="#008300"/>
<rect x="530.7" y="462.9" width="12.9" height="7.1" fill="none" stroke="#e34948" stroke-width="1.1"/>
<rect x="554.1" y="436.1" width="12.9" height="33.9" fill="#008300"/>
<rect x="577.6" y="420.1" width="12.9" height="49.9" fill="none" stroke="#e34948" stroke-width="1.1"/>
<rect x="601.0" y="443.3" width="12.9" height="26.7" fill="none" stroke="#e34948" stroke-width="1.1"/>
<rect x="624.4" y="409.4" width="12.9" height="60.6" fill="none" stroke="#e34948" stroke-width="1.1"/>
<rect x="647.8" y="448.6" width="12.9" height="21.4" fill="#008300"/>
<rect x="671.3" y="437.9" width="12.9" height="32.1" fill="#008300"/>
<rect x="694.7" y="434.3" width="12.9" height="35.7" fill="#008300"/>
<rect x="718.1" y="443.3" width="12.9" height="26.7" fill="#008300"/>
<rect x="741.6" y="454.0" width="12.9" height="16.0" fill="none" stroke="#e34948" stroke-width="1.1"/>
<rect x="765.0" y="443.3" width="12.9" height="26.7" fill="none" stroke="#e34948" stroke-width="1.1"/>
<rect x="788.4" y="455.7" width="12.9" height="14.3" fill="#008300"/>
<rect x="811.8" y="432.6" width="12.9" height="37.4" fill="none" stroke="#e34948" stroke-width="1.1"/>
<polyline points="232.6,439.2 256.0,439.0 279.4,438.6 302.9,438.8 326.3,438.6 349.7,438.3 373.1,439.7 396.6,434.2 420.0,434.2 443.4,435.1 466.9,436.5 490.3,438.3 513.7,438.6 537.1,440.1 560.6,439.7 584.0,438.1 607.4,438.6 630.9,440.8 654.3,441.7 677.7,439.7 701.1,439.3 724.6,438.3 748.0,439.0 771.4,437.0 794.9,439.0 818.3,440.2" fill="none" stroke="#2a78d6" stroke-width="1.5" stroke-linejoin="round" stroke-linecap="round"/>
<polyline points="115.4,442.5 138.9,439.7 162.3,439.0 185.7,437.6 209.1,439.0 232.6,435.8 256.0,438.3 279.4,438.3 302.9,440.1 326.3,438.3 349.7,440.8 373.1,441.1 396.6,430.1 420.0,428.3 443.4,431.9 466.9,432.2 490.3,435.4 513.7,447.2 537.1,451.8 560.6,447.5 584.0,444.0 607.4,441.8 630.9,434.3 654.3,431.5 677.7,431.9 701.1,434.7 724.6,434.7 748.0,443.6 771.4,442.5 794.9,446.1 818.3,445.8" fill="none" stroke="#eda100" stroke-width="1.5" stroke-linejoin="round" stroke-linecap="round"/>
</svg>