<svg xmlns="http://www.w3.org/2000/svg" viewBox="0 0 840 496" width="840" height="496" font-family="-apple-system,&#39;Segoe UI&#39;,system-ui,sans-serif" role="img" aria-label="sindresorhus/awesome candlestick chart">
<text x="14.0" y="20.0" font-size="15" fill="#0b0b0b" font-weight="650">sindresorhus/awesome</text>
<text x="183.0" y="20.0" font-size="11.5" fill="#52514e">daily · new stars, volume = new forks</text>
<text x="805.8" y="20.0" font-size="11.0" fill="#52514e">fall</text>
<rect x="791" y="10" width="9" height="12" fill="#008300"/>
<text x="750.6" y="20.0" font-size="11.0" fill="#52514e">rise</text>
<rect x="736" y="10" width="9" height="12" fill="none" stroke="#e34948" stroke-width="1.5"/>
<text x="14.0" y="38.0" font-size="11.0" fill="#898781">last 33 days · +10,784 stars · +572 forks · updated 2026-07-22</text>
<rect x="10" y="66" width="820" height="290" fill="none" stroke="#e1e0d9"/>
<rect x="10" y="384" width="820" height="86" fill="none" stroke="#e1e0d9"/>
<text x="38.0" y="490.0" font-size="11.0" fill="#898781" text-anchor="middle">2026-06</text>
<line x1="283.3" y1="66.0" x2="283.3" y2="356.0" stroke="#e1e0d9" stroke-width="1.0"/>
<line x1="283.3" y1="384.0" x2="283.3" y2="470.0" stroke="#e1e0d9" stroke-width="1.0"/>
<text x="295.8" y="490.0" font-size="11.0" fill="#898781" text-anchor="middle">2026-07</text>
<text x="14.0" y="58.0" font-size="11.0" fill="#52514e">BOLL(20,2)</text>
<text x="84.5" y="58.0" font-size="11.0" fill="#eda100">UP:433.1</text>
<text x="142.9" y="58.0" font-size="11.0" fill="#2a78d6">MID:335.4</text>
<text x="207.4" y="58.0" font-size="11.0" fill="#e87ba4">LOW:237.7</text>
<text x="271.8" y="58.0" font-size="11.0" fill="#4a3aa7">MA7:355</text>
<line x1="10.0" y1="356.0" x2="830.0" y2="356.0" stroke="#e1e0d9" stroke-width="1.0"/>
<text x="14.0" y="353.0" font-size="11.0" fill="#898781">0</text>
<line x1="10.0" y1="239.5" x2="830.0" y2="239.5" stroke="#e1e0d9" stroke-width="1.0"/>
<text x="14.0" y="236.5" font-size="11.0" fill="#898781">200</text>
<line x1="10.0" y1="122.9" x2="830.0" y2="122.9" stroke="#e1e0d9" stroke-width="1.0"/>
<text x="14.0" y="119.9" font-size="11.0" fill="#898781">400</text>
<polyline points="494.5,119.3 519.4,119.3 544.2,118.1 569.1,118.3 593.9,118.4 618.8,118.3 643.6,118.3 668.5,106.1 693.3,102.8 718.2,102.2 743.0,102.2 767.9,103.3 792.7,105.8 817.6,103.7" fill="none" stroke="#eda100" stroke-width="1.5" stroke-linejoin="round" stroke-linecap="round"/>
<polyline points="494.5,167.3 519.4,166.3 544.2,167.4 569.1,167.8 593.9,168.2 618.8,167.5 643.6,166.8 668.5,162.8 693.3,160.1 718.2,159.0 743.0,158.7 767.9,160.3 792.7,161.9 817.6,160.6" fill="none" stroke="#2a78d6" stroke-width="1.5" stroke-linejoin="round" stroke-linecap="round"/>
<polyline points="494.5,215.3 519.4,213.2 544.2,216.7 569.1,217.3 593.9,218.0 618.8,216.7 643.6,215.3 668.5,219.5 693.3,217.5 718.2,215.7 743.0,215.3 767.9,217.2 792.7,218.0 817.6,217.5" fill="none" stroke="#e87ba4" stroke-width="1.5" stroke-linejoin="round" stroke-linecap="round"/>
<polyline points="171.5,180.3 196.4,179.7 221.2,179.4 246.1,180.3 270.9,176.6 295.8,169.7 320.6,166.8 345.5,163.3 370.3,160.9 395.2,158.5 420.0,144.7 444.8,149.1 469.7,153.9 494.5,156.1 519.4,158.5 544.2,163.5 569.1,165.8 593.9,180.3 618.8,179.4 643.6,179.4 668.5,167.6 693.3,162.1 718.2,155.3 743.0,154.4 767.9,154.0 792.7,153.8 817.6,149.1" fill="none" stroke="#4a3aa7" stroke-width="1.5" stroke-linejoin="round" stroke-linecap="round"/>
<rect x="15.6" y="189.4" width="13.7" height="166.6" fill="none" stroke="#e34948" stroke-width="1.3"/>
<rect x="40.4" y="180.6" width="13.7" height="8.7" fill="none" stroke="#e34948" stroke-width="1.3"/>
<rect x="65.3" y="169.5" width="13.7" height="11.1" fill="none" stroke="#e34948" stroke-width="1.3"/>
<rect x="90.1" y="169.5" width="13.7" height="4.1" fill="#008300"/>
<rect x="115.0" y="173.6" width="13.7" height="12.2" fill="#008300"/>
<rect x="139.8" y="185.9" width="13.7" height="1.2" fill="#898781"/>
<rect x="164.7" y="177.1" width="13.7" height="8.7" fill="none" stroke="#e34948" stroke-width="1.3"/>
<rect x="189.5" y="177.1" width="13.7" height="8.2" fill="#008300"/>
<rect x="214.4" y="178.3" width="13.7" height="7.0" fill="none" stroke="#e34948" stroke-width="1.3"/>
<rect x="239.2" y="176.0" width="13.7" height="2.3" fill="none" stroke="#e34948" stroke-width="1.3"/>
<rect x="264.1" y="148.0" width="13.7" height="28.0" fill="none" stroke="#e34948" stroke-width="1.3"/>
<rect x="288.9" y="137.5" width="13.7" height="10.5" fill="none" stroke="#e34948" stroke-width="1.3"/>
<rect x="313.8" y="137.5" width="13.7" height="28.0" fill="#008300"/>
<rect x="338.6" y="152.6" width="13.7" height="12.8" fill="none" stroke="#e34948" stroke-width="1.3"/>
<rect x="363.5" y="152.6" width="13.7" height="15.7" fill="#008300"/>
<rect x="388.3" y="161.4" width="13.7" height="7.0" fill="none" stroke="#e34948" stroke-width="1.3"/>
<rect x="413.2" y="79.8" width="13.7" height="81.6" fill="none" stroke="#e34948" stroke-width="1.3"/>
<rect x="438.0" y="79.8" width="13.7" height="99.1" fill="#008300"/>
<rect x="462.9" y="170.7" width="13.7" height="8.2" fill="none" stroke="#e34948" stroke-width="1.3"/>
<rect x="487.7" y="170.7" width="13.7" height="10.5" fill="#008300"/>
<rect x="512.6" y="169.0" width="13.7" height="12.2" fill="none" stroke="#e34948" stroke-width="1.3"/>
<rect x="537.4" y="169.0" width="13.7" height="34.4" fill="#008300"/>
<rect x="562.3" y="177.7" width="13.7" height="25.6" fill="none" stroke="#e34948" stroke-width="1.3"/>
<rect x="587.1" y="177.7" width="13.7" height="3.5" fill="#008300"/>
<rect x="612.0" y="172.5" width="13.7" height="8.7" fill="none" stroke="#e34948" stroke-width="1.3"/>
<rect x="636.8" y="171.3" width="13.7" height="1.2" fill="none" stroke="#e34948" stroke-width="1.3"/>
<rect x="661.7" y="97.9" width="13.7" height="73.4" fill="none" stroke="#e34948" stroke-width="1.3"/>
<rect x="686.5" y="97.9" width="13.7" height="33.2" fill="#008300"/>
<rect x="711.3" y="131.1" width="13.7" height="24.5" fill="#008300"/>
<rect x="736.2" y="155.6" width="13.7" height="15.7" fill="#008300"/>
<rect x="761.0" y="171.3" width="13.7" height="7.6" fill="#008300"/>
<rect x="785.9" y="170.1" width="13.7" height="8.7" fill="none" stroke="#e34948" stroke-width="1.3"/>
<rect x="810.7" y="139.2" width="13.7" height="30.9" fill="none" stroke="#e34948" stroke-width="1.3"/>
<circle cx="420.0" cy="79.8" r="2" fill="#52514e"/>
<line x1="420.0" y1="79.8" x2="428.0" y2="79.8" stroke="#52514e" stroke-width="1.0"/>
<text x="431.0" y="83.8" font-size="11.0" fill="#52514e">474</text>
<circle cx="22.4" cy="356.0" r="2" fill="#52514e"/>
<line x1="22.4" y1="356.0" x2="30.4" y2="356.0" stroke="#52514e" stroke-width="1.0"/>
<text x="33.4" y="350.0" font-size="11.0" fill="#52514e">0</text>
<text x="14.0" y="376.0" font-size="11.0" fill="#52514e">VOL 15 forks</text>
<text x="96.6" y="376.0" font-size="11.0" fill="#eda100">MA5:15.4</text>
<text x="155.0" y="376.0" font-size="11.0" fill="#2a78d6">MA10:18.5</text>
<text x="14.0" y="395.0" font-size="10" fill="#898781">46</text>
<rect x="15.6" y="437.9" width="13.7" height="32.1" fill="none" stroke="#e34948" stroke-width="1.1"/>
<rect x="40.4" y="446.8" width="13.7" height="23.2" fill="none" stroke="#e34948" stroke-width="1.1"/>
<rect x="65.3" y="446.8" width="13.7" height="23.2" fill="none" stroke="#e34948" stroke-width="1.1"/>
<rect x="90.1" y="441.5" width="13.7" height="28.5" fill="#008300"/>
<rect x="115.0" y="439.7" width="13.7" height="30.3" fill="#008300"/>
<rect x="139.8" y="423.7" width="13.7" height="46.3" fill="#898781"/>
<rect x="164.7" y="443.3" width="13.7" height="26.7" fill="none" stroke="#e34948" stroke-width="1.1"/>
<rect x="189.5" y="439.7" width="13.7" height="30.3" fill="#008300"/>
<rect x="214.4" y="448.6" width="13.7" height="21.4" fill="none" stroke="#e34948" stroke-width="1.1"/>
<rect x="239.2" y="423.7" width="13.7" height="46.3" fill="none" stroke="#e34948" stroke-width="1.1"/>
<rect x="264.1" y="436.1" width="13.7" height="33.9" fill="none" stroke="#e34948" stroke-width="1.1"/>
<rect x="288.9" y="443.3" width="13.7" height="26.7" fill="none" stroke="#e34948" stroke-width="1.1"/>
<rect x="313.8" y="448.6" width="13.7" height="21.4" fill="#008300"/>
<rect x="338.6" y="439.7" width="13.7" height="30.3" fill="none" stroke="#e34948" stroke-width="1.1"/>
<rect x="363.5" y="436.1" width="13.7" height="33.9" fill="#008300"/>
<rect x="388.3" y="437.9" width="13.7" height="32.1" fill="none" stroke="#e34948" stroke-width="1.1"/>
<rect x="413.2" y="388.0" width="13.7" height="82.0" fill="none" stroke="#e34948" stroke-width="1.1"/>
<rect x="438.0" y="439.7" width="13.7" height="30.3" fill="#008300"/>
<rect x="462.9" y="457.5" width="13.7" height="12.5" fill="none" stroke="#e34948" stroke-width="1.1"/>
<rect x="487.7" y="437.9" width="13.7" height="32.1" fill="#008300"/>
<rect x="512.6" y="454.0" width="13.7" height="16.0" fill="none" stroke="#e34948" stroke-width="1.1"/>
<rect x="537.4" y="446.8" width="13.7" height="23.2" fill="#008300"/>
<rect x="562.3" y="462.9" width="13.7" height="7.1" fill="none" stroke="#e34948" stroke-width="1.1"/>
<rect x="587.1" y="436.1" width="13.7" height="33.9" fill="#008300"/>
<rect x="612.0" y="420.1" width="13.7" height="49.9" fill="none" stroke="#e34948" stroke-width="1.1"/>
<rect x="636.8" y="443.3" width="13.7" height="26.7" fill="none" stroke="#e34948" stroke-width="1.1"/>
<rect x="661.7" y="409.4" width="13.7" height="60.6" fill="none" stroke="#e34948" stroke-width="1.1"/>
<rect x="686.5" y="448.6" width="13.7" height="21.4" fill="#008300"/>
<rect x="711.3" y="437.9" width="13.7" height="32.1" fill="#008300"/>
<rect x="736.2" y="434.3" width="13.7" height="35.7" fill="#008300"/>
<rect x="761.0" y="443.3" width="13.7" height="26.7" fill="#008300"/>
<rect x="785.9" y="454.0" width="13.7" height="16.0" fill="none" stroke="#e34948" stroke-width="1.1"/>
<rect x="810.7" y="443.3" width="13.7" height="26.7" fill="none" stroke="#e34948" stroke-width="1.1"/>
<polyline points="246.1,439.2 270.9,439.0 295.8,438.6 320.6,438.8 345.5,438.6 370.3,438.3 395.2,439.7 420.0,434.2 444.8,434.2 469.7,435.1 494.5,436.5 519.4,438.3 544.2,438.6 569.1,440.1 593.9,439.7 618.8,438.1 643.6,438.6 668.5,440.8 693.3,441.7 718.2,439.7 743.0,439.3 767.9,438.3 792.7,439.0 817.6,437.0" fill="none" stroke="#2a78d6" stroke-width="1.5" stroke-linejoin="round" stroke-linecap="round"/>
<polyline points="121.8,442.5 146.7,439.7 171.5,439.0 196.4,437.6 221.2,439.0 246.1,435.8 270.9,438.3 295.8,438.3 320.6,440.1 345.5,438.3 370.3,440.8 395.2,441.1 420.0,430.1 444.8,428.3 469.7,431.9 494.5,432.2 519.4,435.4 544.2,447.2 569.1,451.8 593.9,447.5 618.8,444.0 643.6,441.8 668.5,434.3 693.3,431.5 718.2,431.9 743.0,434.7 767.9,434.7 792.7,443.6 817.6,442.5" fill="none" stroke="#eda100" stroke-width="1.5" stroke-linejoin="round" stroke-linecap="round"/>
</svg>