<svg xmlns="http://www.w3.org/2000/svg" viewBox="0 0 840 496" width="840" height="496" font-family="-apple-system,&#39;Segoe UI&#39;,system-ui,sans-serif" role="img" aria-label="sindresorhus/awesome candlestick chart">
<text x="14.0" y="20.0" font-size="15" fill="#ffffff" font-weight="650">sindresorhus/awesome</text>
<text x="183.0" y="20.0" font-size="11.5" fill="#c3c2b7">daily · new stars, volume = new forks</text>
<text x="805.8" y="20.0" font-size="11.0" fill="#c3c2b7">fall</text>
<rect x="791" y="10" width="9" height="12" fill="#008300"/>
<text x="750.6" y="20.0" font-size="11.0" fill="#c3c2b7">rise</text>
<rect x="736" y="10" width="9" height="12" fill="none" stroke="#e66767" stroke-width="1.5"/>
<text x="14.0" y="38.0" font-size="11.0" fill="#898781">last 26 days · +8,299 stars · +449 forks · updated 2026-07-15</text>
<rect x="10" y="66" width="820" height="290" fill="none" stroke="#2c2c2a"/>
<rect x="10" y="384" width="820" height="86" fill="none" stroke="#2c2c2a"/>
<text x="38.0" y="490.0" font-size="11.0" fill="#898781" text-anchor="middle">2026-06</text>
<line x1="356.9" y1="66.0" x2="356.9" y2="356.0" stroke="#2c2c2a" stroke-width="1.0"/>
<line x1="356.9" y1="384.0" x2="356.9" y2="470.0" stroke="#2c2c2a" stroke-width="1.0"/>
<text x="372.7" y="490.0" font-size="11.0" fill="#898781" text-anchor="middle">2026-07</text>
<text x="14.0" y="58.0" font-size="11.0" fill="#c3c2b7">BOLL(20,2)</text>
<text x="84.5" y="58.0" font-size="11.0" fill="#c98500">UP:408.0</text>
<text x="142.9" y="58.0" font-size="11.0" fill="#3987e5">MID:324.8</text>
<text x="207.4" y="58.0" font-size="11.0" fill="#d55181">LOW:241.5</text>
<text x="271.8" y="58.0" font-size="11.0" fill="#9085e9">MA7:303</text>
<line x1="10.0" y1="356.0" x2="830.0" y2="356.0" stroke="#2c2c2a" stroke-width="1.0"/>
<text x="14.0" y="353.0" font-size="11.0" fill="#898781">0</text>
<line x1="10.0" y1="239.5" x2="830.0" y2="239.5" stroke="#2c2c2a" stroke-width="1.0"/>
<text x="14.0" y="236.5" font-size="11.0" fill="#898781">200</text>
<line x1="10.0" y1="122.9" x2="830.0" y2="122.9" stroke="#2c2c2a" stroke-width="1.0"/>
<text x="14.0" y="119.9" font-size="11.0" fill="#898781">400</text>
<polyline points="625.0,119.3 656.5,119.3 688.1,118.1 719.6,118.3 751.2,118.4 782.7,118.3 814.2,118.3" fill="none" stroke="#c98500" stroke-width="1.5" stroke-linejoin="round" stroke-linecap="round"/>
<polyline points="625.0,167.3 656.5,166.3 688.1,167.4 719.6,167.8 751.2,168.2 782.7,167.5 814.2,166.8" fill="none" stroke="#3987e5" stroke-width="1.5" stroke-linejoin="round" stroke-linecap="round"/>
<polyline points="625.0,215.3 656.5,213.2 688.1,216.7 719.6,217.3 751.2,218.0 782.7,216.7 814.2,215.3" fill="none" stroke="#d55181" stroke-width="1.5" stroke-linejoin="round" stroke-linecap="round"/>
<polyline points="215.0,180.3 246.5,179.7 278.1,179.4 309.6,180.3 341.2,176.6 372.7,169.7 404.2,166.8 435.8,163.3 467.3,160.9 498.8,158.5 530.4,144.7 561.9,149.1 593.5,153.9 625.0,156.1 656.5,158.5 688.1,163.5 719.6,165.8 751.2,180.3 782.7,179.4 814.2,179.4" fill="none" stroke="#9085e9" stroke-width="1.5" stroke-linejoin="round" stroke-linecap="round"/>
<rect x="17.1" y="189.4" width="17.3" height="166.6" fill="none" stroke="#e66767" stroke-width="1.3"/>
<rect x="48.6" y="180.6" width="17.3" height="8.7" fill="none" stroke="#e66767" stroke-width="1.3"/>
<rect x="80.2" y="169.5" width="17.3" height="11.1" fill="none" stroke="#e66767" stroke-width="1.3"/>
<rect x="111.7" y="169.5" width="17.3" height="4.1" fill="#008300"/>
<rect x="143.2" y="173.6" width="17.3" height="12.2" fill="#008300"/>
<rect x="174.8" y="185.9" width="17.3" height="1.2" fill="#898781"/>
<rect x="206.3" y="177.1" width="17.3" height="8.7" fill="none" stroke="#e66767" stroke-width="1.3"/>
<rect x="237.9" y="177.1" width="17.3" height="8.2" fill="#008300"/>
<rect x="269.4" y="178.3" width="17.3" height="7.0" fill="none" stroke="#e66767" stroke-width="1.3"/>
<rect x="300.9" y="176.0" width="17.3" height="2.3" fill="none" stroke="#e66767" stroke-width="1.3"/>
<rect x="332.5" y="148.0" width="17.3" height="28.0" fill="none" stroke="#e66767" stroke-width="1.3"/>
<rect x="364.0" y="137.5" width="17.3" height="10.5" fill="none" stroke="#e66767" stroke-width="1.3"/>
<rect x="395.6" y="137.5" width="17.3" height="28.0" fill="#008300"/>
<rect x="427.1" y="152.6" width="17.3" height="12.8" fill="none" stroke="#e66767" stroke-width="1.3"/>
<rect x="458.6" y="152.6" width="17.3" height="15.7" fill="#008300"/>
<rect x="490.2" y="161.4" width="17.3" height="7.0" fill="none" stroke="#e66767" stroke-width="1.3"/>
<rect x="521.7" y="79.8" width="17.3" height="81.6" fill="none" stroke="#e66767" stroke-width="1.3"/>
<rect x="553.2" y="79.8" width="17.3" height="99.1" fill="#008300"/>
<rect x="584.8" y="170.7" width="17.3" height="8.2" fill="none" stroke="#e66767" stroke-width="1.3"/>
<rect x="616.3" y="170.7" width="17.3" height="10.5" fill="#008300"/>
<rect x="647.9" y="169.0" width="17.3" height="12.2" fill="none" stroke="#e66767" stroke-width="1.3"/>
<rect x="679.4" y="169.0" width="17.3" height="34.4" fill="#008300"/>
<rect x="710.9" y="177.7" width="17.3" height="25.6" fill="none" stroke="#e66767" stroke-width="1.3"/>
<rect x="742.5" y="177.7" width="17.3" height="3.5" fill="#008300"/>
<rect x="774.0" y="172.5" width="17.3" height="8.7" fill="none" stroke="#e66767" stroke-width="1.3"/>
<rect x="805.6" y="171.3" width="17.3" height="1.2" fill="none" stroke="#e66767" stroke-width="1.3"/>
<circle cx="530.4" cy="79.8" r="2" fill="#c3c2b7"/>
<line x1="530.4" y1="79.8" x2="522.4" y2="79.8" stroke="#c3c2b7" stroke-width="1.0"/>
<text x="519.4" y="83.8" font-size="11.0" fill="#c3c2b7" text-anchor="end">474</text>
<circle cx="25.8" cy="356.0" r="2" fill="#c3c2b7"/>
<line x1="25.8" y1="356.0" x2="33.8" y2="356.0" stroke="#c3c2b7" stroke-width="1.0"/>
<text x="36.8" y="350.0" font-size="11.0" fill="#c3c2b7">0</text>
<text x="14.0" y="376.0" font-size="11.0" fill="#c3c2b7">VOL 15 forks</text>
<text x="96.6" y="376.0" font-size="11.0" fill="#c98500">MA5:15.8</text>
<text x="155.0" y="376.0" font-size="11.0" fill="#3987e5">MA10:17.6</text>
<text x="14.0" y="395.0" font-size="10" fill="#898781">46</text>
<rect x="17.1" y="437.9" width="17.3" height="32.1" fill="none" stroke="#e66767" stroke-width="1.1"/>
<rect x="48.6" y="446.8" width="17.3" height="23.2" fill="none" stroke="#e66767" stroke-width="1.1"/>
<rect x="80.2" y="446.8" width="17.3" height="23.2" fill="none" stroke="#e66767" stroke-width="1.1"/>
<rect x="111.7" y="441.5" width="17.3" height="28.5" fill="#008300"/>
<rect x="143.2" y="439.7" width="17.3" height="30.3" fill="#008300"/>
<rect x="174.8" y="423.7" width="17.3" height="46.3" fill="#898781"/>
<rect x="206.3" y="443.3" width="17.3" height="26.7" fill="none" stroke="#e66767" stroke-width="1.1"/>
<rect x="237.9" y="439.7" width="17.3" height="30.3" fill="#008300"/>
<rect x="269.4" y="448.6" width="17.3" height="21.4" fill="none" stroke="#e66767" stroke-width="1.1"/>
<rect x="300.9" y="423.7" width="17.3" height="46.3" fill="none" stroke="#e66767" stroke-width="1.1"/>
<rect x="332.5" y="436.1" width="17.3" height="33.9" fill="none" stroke="#e66767" stroke-width="1.1"/>
<rect x="364.0" y="443.3" width="17.3" height="26.7" fill="none" stroke="#e66767" stroke-width="1.1"/>
<rect x="395.6" y="448.6" width="17.3" height="21.4" fill="#008300"/>
<rect x="427.1" y="439.7" width="17.3" height="30.3" fill="none" stroke="#e66767" stroke-width="1.1"/>
<rect x="458.6" y="436.1" width="17.3" height="33.9" fill="#008300"/>
<rect x="490.2" y="437.9" width="17.3" height="32.1" fill="none" stroke="#e66767" stroke-width="1.1"/>
<rect x="521.7" y="388.0" width="17.3" height="82.0" fill="none" stroke="#e66767" stroke-width="1.1"/>
<rect x="553.2" y="439.7" width="17.3" height="30.3" fill="#008300"/>
<rect x="584.8" y="457.5" width="17.3" height="12.5" fill="none" stroke="#e66767" stroke-width="1.1"/>
<rect x="616.3" y="437.9" width="17.3" height="32.1" fill="#008300"/>
<rect x="647.9" y="454.0" width="17.3" height="16.0" fill="none" stroke="#e66767" stroke-width="1.1"/>
<rect x="679.4" y="446.8" width="17.3" height="23.2" fill="#008300"/>
<rect x="710.9" y="462.9" width="17.3" height="7.1" fill="none" stroke="#e66767" stroke-width="1.1"/>
<rect x="742.5" y="436.1" width="17.3" height="33.9" fill="#008300"/>
<rect x="774.0" y="420.1" width="17.3" height="49.9" fill="none" stroke="#e66767" stroke-width="1.1"/>
<rect x="805.6" y="443.3" width="17.3" height="26.7" fill="none" stroke="#e66767" stroke-width="1.1"/>
<polyline points="309.6,439.2 341.2,439.0 372.7,438.6 404.2,438.8 435.8,438.6 467.3,438.3 498.8,439.7 530.4,434.2 561.9,434.2 593.5,435.1 625.0,436.5 656.5,438.3 688.1,438.6 719.6,440.1 751.2,439.7 782.7,438.1 814.2,438.6" fill="none" stroke="#3987e5" stroke-width="1.5" stroke-linejoin="round" stroke-linecap="round"/>
<polyline points="151.9,442.5 183.5,439.7 215.0,439.0 246.5,437.6 278.1,439.0 309.6,435.8 341.2,438.3 372.7,438.3 404.2,440.1 435.8,438.3 467.3,440.8 498.8,441.1 530.4,430.1 561.9,428.3 593.5,431.9 625.0,432.2 656.5,435.4 688.1,447.2 719.6,451.8 751.2,447.5 782.7,444.0 814.2,441.8" fill="none" stroke="#c98500" stroke-width="1.5" stroke-linejoin="round" stroke-linecap="round"/>
</svg>