<svg xmlns="http://www.w3.org/2000/svg" viewBox="0 0 840 496" width="840" height="496" font-family="-apple-system,&#39;Segoe UI&#39;,system-ui,sans-serif" role="img" aria-label="sindresorhus/awesome candlestick chart">
<text x="14.0" y="20.0" font-size="15" fill="#0b0b0b" font-weight="650">sindresorhus/awesome</text>
<text x="183.0" y="20.0" font-size="11.5" fill="#52514e">daily · new stars, volume = new forks</text>
<text x="805.8" y="20.0" font-size="11.0" fill="#52514e">fall</text>
<rect x="791" y="10" width="9" height="12" fill="#008300"/>
<text x="750.6" y="20.0" font-size="11.0" fill="#52514e">rise</text>
<rect x="736" y="10" width="9" height="12" fill="none" stroke="#e34948" stroke-width="1.5"/>
<text x="14.0" y="38.0" font-size="11.0" fill="#898781">last 19 days · +6,178 stars · +343 forks · updated 2026-07-08</text>
<rect x="10" y="66" width="820" height="290" fill="none" stroke="#e1e0d9"/>
<rect x="10" y="384" width="820" height="86" fill="none" stroke="#e1e0d9"/>
<text x="38.0" y="490.0" font-size="11.0" fill="#898781" text-anchor="middle">2026-06</text>
<line x1="484.7" y1="66.0" x2="484.7" y2="356.0" stroke="#e1e0d9" stroke-width="1.0"/>
<line x1="484.7" y1="384.0" x2="484.7" y2="470.0" stroke="#e1e0d9" stroke-width="1.0"/>
<text x="506.3" y="490.0" font-size="11.0" fill="#898781" text-anchor="middle">2026-07</text>
<text x="14.0" y="58.0" font-size="11.0" fill="#52514e">BOLL(20,2)</text>
<text x="84.5" y="58.0" font-size="11.0" fill="#eda100">UP:—</text>
<text x="118.7" y="58.0" font-size="11.0" fill="#2a78d6">MID:—</text>
<text x="158.9" y="58.0" font-size="11.0" fill="#e87ba4">LOW:—</text>
<text x="199.2" y="58.0" font-size="11.0" fill="#4a3aa7">MA7:346.9</text>
<line x1="10.0" y1="356.0" x2="830.0" y2="356.0" stroke="#e1e0d9" stroke-width="1.0"/>
<text x="14.0" y="353.0" font-size="11.0" fill="#898781">0</text>
<line x1="10.0" y1="239.5" x2="830.0" y2="239.5" stroke="#e1e0d9" stroke-width="1.0"/>
<text x="14.0" y="236.5" font-size="11.0" fill="#898781">200</text>
<line x1="10.0" y1="122.9" x2="830.0" y2="122.9" stroke="#e1e0d9" stroke-width="1.0"/>
<text x="14.0" y="119.9" font-size="11.0" fill="#898781">400</text>
<polyline points="290.5,180.3 333.7,179.7 376.8,179.4 420.0,180.3 463.2,176.6 506.3,169.7 549.5,166.8 592.6,163.3 635.8,160.9 678.9,158.5 722.1,144.7 765.3,149.1 808.4,153.9" fill="none" stroke="#4a3aa7" stroke-width="1.5" stroke-linejoin="round" stroke-linecap="round"/>
<rect x="19.7" y="189.4" width="23.7" height="166.6" fill="none" stroke="#e34948" stroke-width="1.3"/>
<rect x="62.9" y="180.6" width="23.7" height="8.7" fill="none" stroke="#e34948" stroke-width="1.3"/>
<rect x="106.0" y="169.5" width="23.7" height="11.1" fill="none" stroke="#e34948" stroke-width="1.3"/>
<rect x="149.2" y="169.5" width="23.7" height="4.1" fill="#008300"/>
<rect x="192.3" y="173.6" width="23.7" height="12.2" fill="#008300"/>
<rect x="235.5" y="185.9" width="23.7" height="1.2" fill="#898781"/>
<rect x="278.7" y="177.1" width="23.7" height="8.7" fill="none" stroke="#e34948" stroke-width="1.3"/>
<rect x="321.8" y="177.1" width="23.7" height="8.2" fill="#008300"/>
<rect x="365.0" y="178.3" width="23.7" height="7.0" fill="none" stroke="#e34948" stroke-width="1.3"/>
<rect x="408.1" y="176.0" width="23.7" height="2.3" fill="none" stroke="#e34948" stroke-width="1.3"/>
<rect x="451.3" y="148.0" width="23.7" height="28.0" fill="none" stroke="#e34948" stroke-width="1.3"/>
<rect x="494.4" y="137.5" width="23.7" height="10.5" fill="none" stroke="#e34948" stroke-width="1.3"/>
<rect x="537.6" y="137.5" width="23.7" height="28.0" fill="#008300"/>
<rect x="580.8" y="152.6" width="23.7" height="12.8" fill="none" stroke="#e34948" stroke-width="1.3"/>
<rect x="623.9" y="152.6" width="23.7" height="15.7" fill="#008300"/>
<rect x="667.1" y="161.4" width="23.7" height="7.0" fill="none" stroke="#e34948" stroke-width="1.3"/>
<rect x="710.2" y="79.8" width="23.7" height="81.6" fill="none" stroke="#e34948" stroke-width="1.3"/>
<rect x="753.4" y="79.8" width="23.7" height="99.1" fill="#008300"/>
<rect x="796.6" y="170.7" width="23.7" height="8.2" fill="none" stroke="#e34948" stroke-width="1.3"/>
<circle cx="722.1" cy="79.8" r="2" fill="#52514e"/>
<line x1="722.1" y1="79.8" x2="714.1" y2="79.8" stroke="#52514e" stroke-width="1.0"/>
<text x="711.1" y="83.8" font-size="11.0" fill="#52514e" text-anchor="end">474</text>
<circle cx="31.6" cy="356.0" r="2" fill="#52514e"/>
<line x1="31.6" y1="356.0" x2="39.6" y2="356.0" stroke="#52514e" stroke-width="1.0"/>
<text x="42.6" y="350.0" font-size="11.0" fill="#52514e">0</text>
<text x="14.0" y="376.0" font-size="11.0" fill="#52514e">VOL 7 forks</text>
<text x="90.6" y="376.0" font-size="11.0" fill="#eda100">MA5:21.4</text>
<text x="149.0" y="376.0" font-size="11.0" fill="#2a78d6">MA10:19.6</text>
<text x="14.0" y="395.0" font-size="10" fill="#898781">46</text>
<rect x="19.7" y="437.9" width="23.7" height="32.1" fill="none" stroke="#e34948" stroke-width="1.1"/>
<rect x="62.9" y="446.8" width="23.7" height="23.2" fill="none" stroke="#e34948" stroke-width="1.1"/>
<rect x="106.0" y="446.8" width="23.7" height="23.2" fill="none" stroke="#e34948" stroke-width="1.1"/>
<rect x="149.2" y="441.5" width="23.7" height="28.5" fill="#008300"/>
<rect x="192.3" y="439.7" width="23.7" height="30.3" fill="#008300"/>
<rect x="235.5" y="423.7" width="23.7" height="46.3" fill="#898781"/>
<rect x="278.7" y="443.3" width="23.7" height="26.7" fill="none" stroke="#e34948" stroke-width="1.1"/>
<rect x="321.8" y="439.7" width="23.7" height="30.3" fill="#008300"/>
<rect x="365.0" y="448.6" width="23.7" height="21.4" fill="none" stroke="#e34948" stroke-width="1.1"/>
<rect x="408.1" y="423.7" width="23.7" height="46.3" fill="none" stroke="#e34948" stroke-width="1.1"/>
<rect x="451.3" y="436.1" width="23.7" height="33.9" fill="none" stroke="#e34948" stroke-width="1.1"/>
<rect x="494.4" y="443.3" width="23.7" height="26.7" fill="none" stroke="#e34948" stroke-width="1.1"/>
<rect x="537.6" y="448.6" width="23.7" height="21.4" fill="#008300"/>
<rect x="580.8" y="439.7" width="23.7" height="30.3" fill="none" stroke="#e34948" stroke-width="1.1"/>
<rect x="623.9" y="436.1" width="23.7" height="33.9" fill="#008300"/>
<rect x="667.1" y="437.9" width="23.7" height="32.1" fill="none" stroke="#e34948" stroke-width="1.1"/>
<rect x="710.2" y="388.0" width="23.7" height="82.0" fill="none" stroke="#e34948" stroke-width="1.1"/>
<rect x="753.4" y="439.7" width="23.7" height="30.3" fill="#008300"/>
<rect x="796.6" y="457.5" width="23.7" height="12.5" fill="none" stroke="#e34948" stroke-width="1.1"/>
<polyline points="420.0,439.2 463.2,439.0 506.3,438.6 549.5,438.8 592.6,438.6 635.8,438.3 678.9,439.7 722.1,434.2 765.3,434.2 808.4,435.1" fill="none" stroke="#2a78d6" stroke-width="1.5" stroke-linejoin="round" stroke-linecap="round"/>
<polyline points="204.2,442.5 247.4,439.7 290.5,439.0 333.7,437.6 376.8,439.0 420.0,435.8 463.2,438.3 506.3,438.3 549.5,440.1 592.6,438.3 635.8,440.8 678.9,441.1 722.1,430.1 765.3,428.3 808.4,431.9" fill="none" stroke="#eda100" stroke-width="1.5" stroke-linejoin="round" stroke-linecap="round"/>
</svg>