<svg xmlns="http://www.w3.org/2000/svg" viewBox="0 0 840 496" width="840" height="496" font-family="-apple-system,&#39;Segoe UI&#39;,system-ui,sans-serif" role="img" aria-label="sindresorhus/awesome candlestick chart">
<text x="14.0" y="20.0" font-size="15" fill="#ffffff" font-weight="650">sindresorhus/awesome</text>
<text x="183.0" y="20.0" font-size="11.5" fill="#c3c2b7">daily · new stars, volume = new forks</text>
<text x="805.8" y="20.0" font-size="11.0" fill="#c3c2b7">fall</text>
<rect x="791" y="10" width="9" height="12" fill="#008300"/>
<text x="750.6" y="20.0" font-size="11.0" fill="#c3c2b7">rise</text>
<rect x="736" y="10" width="9" height="12" fill="none" stroke="#e66767" stroke-width="1.5"/>
<text x="14.0" y="38.0" font-size="11.0" fill="#898781">last 18 days · +5,860 stars · +336 forks · updated 2026-07-07</text>
<rect x="10" y="66" width="820" height="290" fill="none" stroke="#2c2c2a"/>
<rect x="10" y="384" width="820" height="86" fill="none" stroke="#2c2c2a"/>
<text x="38.0" y="490.0" font-size="11.0" fill="#898781" text-anchor="middle">2026-06</text>
<line x1="511.1" y1="66.0" x2="511.1" y2="356.0" stroke="#2c2c2a" stroke-width="1.0"/>
<line x1="511.1" y1="384.0" x2="511.1" y2="470.0" stroke="#2c2c2a" stroke-width="1.0"/>
<text x="533.9" y="490.0" font-size="11.0" fill="#898781" text-anchor="middle">2026-07</text>
<text x="14.0" y="58.0" font-size="11.0" fill="#c3c2b7">BOLL(20,2)</text>
<text x="84.5" y="58.0" font-size="11.0" fill="#c98500">UP:—</text>
<text x="118.7" y="58.0" font-size="11.0" fill="#3987e5">MID:—</text>
<text x="158.9" y="58.0" font-size="11.0" fill="#d55181">LOW:—</text>
<text x="199.2" y="58.0" font-size="11.0" fill="#9085e9">MA7:355</text>
<line x1="10.0" y1="356.0" x2="830.0" y2="356.0" stroke="#2c2c2a" stroke-width="1.0"/>
<text x="14.0" y="353.0" font-size="11.0" fill="#898781">0</text>
<line x1="10.0" y1="239.5" x2="830.0" y2="239.5" stroke="#2c2c2a" stroke-width="1.0"/>
<text x="14.0" y="236.5" font-size="11.0" fill="#898781">200</text>
<line x1="10.0" y1="122.9" x2="830.0" y2="122.9" stroke="#2c2c2a" stroke-width="1.0"/>
<text x="14.0" y="119.9" font-size="11.0" fill="#898781">400</text>
<polyline points="306.1,180.3 351.7,179.7 397.2,179.4 442.8,180.3 488.3,176.6 533.9,169.7 579.4,166.8 625.0,163.3 670.6,160.9 716.1,158.5 761.7,144.7 807.2,149.1" fill="none" stroke="#9085e9" stroke-width="1.5" stroke-linejoin="round" stroke-linecap="round"/>
<rect x="20.8" y="189.4" width="24.0" height="166.6" fill="none" stroke="#e66767" stroke-width="1.3"/>
<rect x="66.3" y="180.6" width="24.0" height="8.7" fill="none" stroke="#e66767" stroke-width="1.3"/>
<rect x="111.9" y="169.5" width="24.0" height="11.1" fill="none" stroke="#e66767" stroke-width="1.3"/>
<rect x="157.4" y="169.5" width="24.0" height="4.1" fill="#008300"/>
<rect x="203.0" y="173.6" width="24.0" height="12.2" fill="#008300"/>
<rect x="248.6" y="185.9" width="24.0" height="1.2" fill="#898781"/>
<rect x="294.1" y="177.1" width="24.0" height="8.7" fill="none" stroke="#e66767" stroke-width="1.3"/>
<rect x="339.7" y="177.1" width="24.0" height="8.2" fill="#008300"/>
<rect x="385.2" y="178.3" width="24.0" height="7.0" fill="none" stroke="#e66767" stroke-width="1.3"/>
<rect x="430.8" y="176.0" width="24.0" height="2.3" fill="none" stroke="#e66767" stroke-width="1.3"/>
<rect x="476.3" y="148.0" width="24.0" height="28.0" fill="none" stroke="#e66767" stroke-width="1.3"/>
<rect x="521.9" y="137.5" width="24.0" height="10.5" fill="none" stroke="#e66767" stroke-width="1.3"/>
<rect x="567.4" y="137.5" width="24.0" height="28.0" fill="#008300"/>
<rect x="613.0" y="152.6" width="24.0" height="12.8" fill="none" stroke="#e66767" stroke-width="1.3"/>
<rect x="658.6" y="152.6" width="24.0" height="15.7" fill="#008300"/>
<rect x="704.1" y="161.4" width="24.0" height="7.0" fill="none" stroke="#e66767" stroke-width="1.3"/>
<rect x="749.7" y="79.8" width="24.0" height="81.6" fill="none" stroke="#e66767" stroke-width="1.3"/>
<rect x="795.2" y="79.8" width="24.0" height="99.1" fill="#008300"/>
<circle cx="761.7" cy="79.8" r="2" fill="#c3c2b7"/>
<line x1="761.7" y1="79.8" x2="753.7" y2="79.8" stroke="#c3c2b7" stroke-width="1.0"/>
<text x="750.7" y="83.8" font-size="11.0" fill="#c3c2b7" text-anchor="end">474</text>
<circle cx="32.8" cy="356.0" r="2" fill="#c3c2b7"/>
<line x1="32.8" y1="356.0" x2="40.8" y2="356.0" stroke="#c3c2b7" stroke-width="1.0"/>
<text x="43.8" y="350.0" font-size="11.0" fill="#c3c2b7">0</text>
<text x="14.0" y="376.0" font-size="11.0" fill="#c3c2b7">VOL 17 forks</text>
<text x="96.6" y="376.0" font-size="11.0" fill="#c98500">MA5:23.4</text>
<text x="155.0" y="376.0" font-size="11.0" fill="#3987e5">MA10:20.1</text>
<text x="14.0" y="395.0" font-size="10" fill="#898781">46</text>
<rect x="20.8" y="437.9" width="24.0" height="32.1" fill="none" stroke="#e66767" stroke-width="1.1"/>
<rect x="66.3" y="446.8" width="24.0" height="23.2" fill="none" stroke="#e66767" stroke-width="1.1"/>
<rect x="111.9" y="446.8" width="24.0" height="23.2" fill="none" stroke="#e66767" stroke-width="1.1"/>
<rect x="157.4" y="441.5" width="24.0" height="28.5" fill="#008300"/>
<rect x="203.0" y="439.7" width="24.0" height="30.3" fill="#008300"/>
<rect x="248.6" y="423.7" width="24.0" height="46.3" fill="#898781"/>
<rect x="294.1" y="443.3" width="24.0" height="26.7" fill="none" stroke="#e66767" stroke-width="1.1"/>
<rect x="339.7" y="439.7" width="24.0" height="30.3" fill="#008300"/>
<rect x="385.2" y="448.6" width="24.0" height="21.4" fill="none" stroke="#e66767" stroke-width="1.1"/>
<rect x="430.8" y="423.7" width="24.0" height="46.3" fill="none" stroke="#e66767" stroke-width="1.1"/>
<rect x="476.3" y="436.1" width="24.0" height="33.9" fill="none" stroke="#e66767" stroke-width="1.1"/>
<rect x="521.9" y="443.3" width="24.0" height="26.7" fill="none" stroke="#e66767" stroke-width="1.1"/>
<rect x="567.4" y="448.6" width="24.0" height="21.4" fill="#008300"/>
<rect x="613.0" y="439.7" width="24.0" height="30.3" fill="none" stroke="#e66767" stroke-width="1.1"/>
<rect x="658.6" y="436.1" width="24.0" height="33.9" fill="#008300"/>
<rect x="704.1" y="437.9" width="24.0" height="32.1" fill="none" stroke="#e66767" stroke-width="1.1"/>
<rect x="749.7" y="388.0" width="24.0" height="82.0" fill="none" stroke="#e66767" stroke-width="1.1"/>
<rect x="795.2" y="439.7" width="24.0" height="30.3" fill="#008300"/>
<polyline points="442.8,439.2 488.3,439.0 533.9,438.6 579.4,438.8 625.0,438.6 670.6,438.3 716.1,439.7 761.7,434.2 807.2,434.2" fill="none" stroke="#3987e5" stroke-width="1.5" stroke-linejoin="round" stroke-linecap="round"/>
<polyline points="215.0,442.5 260.6,439.7 306.1,439.0 351.7,437.6 397.2,439.0 442.8,435.8 488.3,438.3 533.9,438.3 579.4,440.1 625.0,438.3 670.6,440.8 716.1,441.1 761.7,430.1 807.2,428.3" fill="none" stroke="#c98500" stroke-width="1.5" stroke-linejoin="round" stroke-linecap="round"/>
</svg>