<svg xmlns="http://www.w3.org/2000/svg" viewBox="0 0 840 496" width="840" height="496" font-family="-apple-system,&#39;Segoe UI&#39;,system-ui,sans-serif" role="img" aria-label="sindresorhus/awesome candlestick chart">
<text x="14.0" y="20.0" font-size="15" fill="#ffffff" font-weight="650">sindresorhus/awesome</text>
<text x="183.0" y="20.0" font-size="11.5" fill="#c3c2b7">daily · new stars, volume = new forks</text>
<text x="805.8" y="20.0" font-size="11.0" fill="#c3c2b7">fall</text>
<rect x="791" y="10" width="9" height="12" fill="#008300"/>
<text x="750.6" y="20.0" font-size="11.0" fill="#c3c2b7">rise</text>
<rect x="736" y="10" width="9" height="12" fill="none" stroke="#e66767" stroke-width="1.5"/>
<text x="14.0" y="38.0" font-size="11.0" fill="#898781">last 24 days · +7,667 stars · +406 forks · updated 2026-07-13</text>
<rect x="10" y="66" width="820" height="290" fill="none" stroke="#2c2c2a"/>
<rect x="10" y="384" width="820" height="86" fill="none" stroke="#2c2c2a"/>
<text x="38.0" y="490.0" font-size="11.0" fill="#898781" text-anchor="middle">2026-06</text>
<line x1="385.8" y1="66.0" x2="385.8" y2="356.0" stroke="#2c2c2a" stroke-width="1.0"/>
<line x1="385.8" y1="384.0" x2="385.8" y2="470.0" stroke="#2c2c2a" stroke-width="1.0"/>
<text x="402.9" y="490.0" font-size="11.0" fill="#898781" text-anchor="middle">2026-07</text>
<text x="14.0" y="58.0" font-size="11.0" fill="#c3c2b7">BOLL(20,2)</text>
<text x="84.5" y="58.0" font-size="11.0" fill="#c98500">UP:407.8</text>
<text x="142.9" y="58.0" font-size="11.0" fill="#3987e5">MID:322.4</text>
<text x="207.4" y="58.0" font-size="11.0" fill="#d55181">LOW:236.9</text>
<text x="271.8" y="58.0" font-size="11.0" fill="#9085e9">MA7:301.6</text>
<line x1="10.0" y1="356.0" x2="830.0" y2="356.0" stroke="#2c2c2a" stroke-width="1.0"/>
<text x="14.0" y="353.0" font-size="11.0" fill="#898781">0</text>
<line x1="10.0" y1="239.5" x2="830.0" y2="239.5" stroke="#2c2c2a" stroke-width="1.0"/>
<text x="14.0" y="236.5" font-size="11.0" fill="#898781">200</text>
<line x1="10.0" y1="122.9" x2="830.0" y2="122.9" stroke="#2c2c2a" stroke-width="1.0"/>
<text x="14.0" y="119.9" font-size="11.0" fill="#898781">400</text>
<polyline points="676.2,119.3 710.4,119.3 744.6,118.1 778.8,118.3 812.9,118.4" fill="none" stroke="#c98500" stroke-width="1.5" stroke-linejoin="round" stroke-linecap="round"/>
<polyline points="676.2,167.3 710.4,166.3 744.6,167.4 778.8,167.8 812.9,168.2" fill="none" stroke="#3987e5" stroke-width="1.5" stroke-linejoin="round" stroke-linecap="round"/>
<polyline points="676.2,215.3 710.4,213.2 744.6,216.7 778.8,217.3 812.9,218.0" fill="none" stroke="#d55181" stroke-width="1.5" stroke-linejoin="round" stroke-linecap="round"/>
<polyline points="232.1,180.3 266.2,179.7 300.4,179.4 334.6,180.3 368.8,176.6 402.9,169.7 437.1,166.8 471.2,163.3 505.4,160.9 539.6,158.5 573.8,144.7 607.9,149.1 642.1,153.9 676.2,156.1 710.4,158.5 744.6,163.5 778.8,165.8 812.9,180.3" fill="none" stroke="#9085e9" stroke-width="1.5" stroke-linejoin="round" stroke-linecap="round"/>
<rect x="17.7" y="189.4" width="18.8" height="166.6" fill="none" stroke="#e66767" stroke-width="1.3"/>
<rect x="51.9" y="180.6" width="18.8" height="8.7" fill="none" stroke="#e66767" stroke-width="1.3"/>
<rect x="86.0" y="169.5" width="18.8" height="11.1" fill="none" stroke="#e66767" stroke-width="1.3"/>
<rect x="120.2" y="169.5" width="18.8" height="4.1" fill="#008300"/>
<rect x="154.4" y="173.6" width="18.8" height="12.2" fill="#008300"/>
<rect x="188.5" y="185.9" width="18.8" height="1.2" fill="#898781"/>
<rect x="222.7" y="177.1" width="18.8" height="8.7" fill="none" stroke="#e66767" stroke-width="1.3"/>
<rect x="256.9" y="177.1" width="18.8" height="8.2" fill="#008300"/>
<rect x="291.0" y="178.3" width="18.8" height="7.0" fill="none" stroke="#e66767" stroke-width="1.3"/>
<rect x="325.2" y="176.0" width="18.8" height="2.3" fill="none" stroke="#e66767" stroke-width="1.3"/>
<rect x="359.4" y="148.0" width="18.8" height="28.0" fill="none" stroke="#e66767" stroke-width="1.3"/>
<rect x="393.5" y="137.5" width="18.8" height="10.5" fill="none" stroke="#e66767" stroke-width="1.3"/>
<rect x="427.7" y="137.5" width="18.8" height="28.0" fill="#008300"/>
<rect x="461.9" y="152.6" width="18.8" height="12.8" fill="none" stroke="#e66767" stroke-width="1.3"/>
<rect x="496.0" y="152.6" width="18.8" height="15.7" fill="#008300"/>
<rect x="530.2" y="161.4" width="18.8" height="7.0" fill="none" stroke="#e66767" stroke-width="1.3"/>
<rect x="564.4" y="79.8" width="18.8" height="81.6" fill="none" stroke="#e66767" stroke-width="1.3"/>
<rect x="598.5" y="79.8" width="18.8" height="99.1" fill="#008300"/>
<rect x="632.7" y="170.7" width="18.8" height="8.2" fill="none" stroke="#e66767" stroke-width="1.3"/>
<rect x="666.9" y="170.7" width="18.8" height="10.5" fill="#008300"/>
<rect x="701.0" y="169.0" width="18.8" height="12.2" fill="none" stroke="#e66767" stroke-width="1.3"/>
<rect x="735.2" y="169.0" width="18.8" height="34.4" fill="#008300"/>
<rect x="769.4" y="177.7" width="18.8" height="25.6" fill="none" stroke="#e66767" stroke-width="1.3"/>
<rect x="803.5" y="177.7" width="18.8" height="3.5" fill="#008300"/>
<circle cx="573.8" cy="79.8" r="2" fill="#c3c2b7"/>
<line x1="573.8" y1="79.8" x2="565.8" y2="79.8" stroke="#c3c2b7" stroke-width="1.0"/>
<text x="562.8" y="83.8" font-size="11.0" fill="#c3c2b7" text-anchor="end">474</text>
<circle cx="27.1" cy="356.0" r="2" fill="#c3c2b7"/>
<line x1="27.1" y1="356.0" x2="35.1" y2="356.0" stroke="#c3c2b7" stroke-width="1.0"/>
<text x="38.1" y="350.0" font-size="11.0" fill="#c3c2b7">0</text>
<text x="14.0" y="376.0" font-size="11.0" fill="#c3c2b7">VOL 19 forks</text>
<text x="96.6" y="376.0" font-size="11.0" fill="#c98500">MA5:12.6</text>
<text x="155.0" y="376.0" font-size="11.0" fill="#3987e5">MA10:17</text>
<text x="14.0" y="395.0" font-size="10" fill="#898781">46</text>
<rect x="17.7" y="437.9" width="18.8" height="32.1" fill="none" stroke="#e66767" stroke-width="1.1"/>
<rect x="51.9" y="446.8" width="18.8" height="23.2" fill="none" stroke="#e66767" stroke-width="1.1"/>
<rect x="86.0" y="446.8" width="18.8" height="23.2" fill="none" stroke="#e66767" stroke-width="1.1"/>
<rect x="120.2" y="441.5" width="18.8" height="28.5" fill="#008300"/>
<rect x="154.4" y="439.7" width="18.8" height="30.3" fill="#008300"/>
<rect x="188.5" y="423.7" width="18.8" height="46.3" fill="#898781"/>
<rect x="222.7" y="443.3" width="18.8" height="26.7" fill="none" stroke="#e66767" stroke-width="1.1"/>
<rect x="256.9" y="439.7" width="18.8" height="30.3" fill="#008300"/>
<rect x="291.0" y="448.6" width="18.8" height="21.4" fill="none" stroke="#e66767" stroke-width="1.1"/>
<rect x="325.2" y="423.7" width="18.8" height="46.3" fill="none" stroke="#e66767" stroke-width="1.1"/>
<rect x="359.4" y="436.1" width="18.8" height="33.9" fill="none" stroke="#e66767" stroke-width="1.1"/>
<rect x="393.5" y="443.3" width="18.8" height="26.7" fill="none" stroke="#e66767" stroke-width="1.1"/>
<rect x="427.7" y="448.6" width="18.8" height="21.4" fill="#008300"/>
<rect x="461.9" y="439.7" width="18.8" height="30.3" fill="none" stroke="#e66767" stroke-width="1.1"/>
<rect x="496.0" y="436.1" width="18.8" height="33.9" fill="#008300"/>
<rect x="530.2" y="437.9" width="18.8" height="32.1" fill="none" stroke="#e66767" stroke-width="1.1"/>
<rect x="564.4" y="388.0" width="18.8" height="82.0" fill="none" stroke="#e66767" stroke-width="1.1"/>
<rect x="598.5" y="439.7" width="18.8" height="30.3" fill="#008300"/>
<rect x="632.7" y="457.5" width="18.8" height="12.5" fill="none" stroke="#e66767" stroke-width="1.1"/>
<rect x="666.9" y="437.9" width="18.8" height="32.1" fill="#008300"/>
<rect x="701.0" y="454.0" width="18.8" height="16.0" fill="none" stroke="#e66767" stroke-width="1.1"/>
<rect x="735.2" y="446.8" width="18.8" height="23.2" fill="#008300"/>
<rect x="769.4" y="462.9" width="18.8" height="7.1" fill="none" stroke="#e66767" stroke-width="1.1"/>
<rect x="803.5" y="436.1" width="18.8" height="33.9" fill="#008300"/>
<polyline points="334.6,439.2 368.8,439.0 402.9,438.6 437.1,438.8 471.2,438.6 505.4,438.3 539.6,439.7 573.8,434.2 607.9,434.2 642.1,435.1 676.2,436.5 710.4,438.3 744.6,438.6 778.8,440.1 812.9,439.7" fill="none" stroke="#3987e5" stroke-width="1.5" stroke-linejoin="round" stroke-linecap="round"/>
<polyline points="163.8,442.5 197.9,439.7 232.1,439.0 266.2,437.6 300.4,439.0 334.6,435.8 368.8,438.3 402.9,438.3 437.1,440.1 471.2,438.3 505.4,440.8 539.6,441.1 573.8,430.1 607.9,428.3 642.1,431.9 676.2,432.2 710.4,435.4 744.6,447.2 778.8,451.8 812.9,447.5" fill="none" stroke="#c98500" stroke-width="1.5" stroke-linejoin="round" stroke-linecap="round"/>
</svg>