<svg xmlns="http://www.w3.org/2000/svg" viewBox="0 0 840 496" width="840" height="496" font-family="-apple-system,&#39;Segoe UI&#39;,system-ui,sans-serif" role="img" aria-label="sindresorhus/awesome candlestick chart">
<text x="14.0" y="20.0" font-size="15" fill="#ffffff" font-weight="650">sindresorhus/awesome</text>
<text x="183.0" y="20.0" font-size="11.5" fill="#c3c2b7">daily · new stars, volume = new forks</text>
<text x="805.8" y="20.0" font-size="11.0" fill="#c3c2b7">fall</text>
<rect x="791" y="10" width="9" height="12" fill="#008300"/>
<text x="750.6" y="20.0" font-size="11.0" fill="#c3c2b7">rise</text>
<rect x="736" y="10" width="9" height="12" fill="none" stroke="#e66767" stroke-width="1.5"/>
<text x="14.0" y="38.0" font-size="11.0" fill="#898781">last 30 days · +9,789 stars · +533 forks · updated 2026-07-19</text>
<rect x="10" y="66" width="820" height="290" fill="none" stroke="#2c2c2a"/>
<rect x="10" y="384" width="820" height="86" fill="none" stroke="#2c2c2a"/>
<text x="38.0" y="490.0" font-size="11.0" fill="#898781" text-anchor="middle">2026-06</text>
<line x1="310.7" y1="66.0" x2="310.7" y2="356.0" stroke="#2c2c2a" stroke-width="1.0"/>
<line x1="310.7" y1="384.0" x2="310.7" y2="470.0" stroke="#2c2c2a" stroke-width="1.0"/>
<text x="324.3" y="490.0" font-size="11.0" fill="#898781" text-anchor="middle">2026-07</text>
<text x="14.0" y="58.0" font-size="11.0" fill="#c3c2b7">BOLL(20,2)</text>
<text x="84.5" y="58.0" font-size="11.0" fill="#c98500">UP:435.6</text>
<text x="142.9" y="58.0" font-size="11.0" fill="#3987e5">MID:338.6</text>
<text x="207.4" y="58.0" font-size="11.0" fill="#d55181">LOW:241.6</text>
<text x="271.8" y="58.0" font-size="11.0" fill="#9085e9">MA7:346</text>
<line x1="10.0" y1="356.0" x2="830.0" y2="356.0" stroke="#2c2c2a" stroke-width="1.0"/>
<text x="14.0" y="353.0" font-size="11.0" fill="#898781">0</text>
<line x1="10.0" y1="239.5" x2="830.0" y2="239.5" stroke="#2c2c2a" stroke-width="1.0"/>
<text x="14.0" y="236.5" font-size="11.0" fill="#898781">200</text>
<line x1="10.0" y1="122.9" x2="830.0" y2="122.9" stroke="#2c2c2a" stroke-width="1.0"/>
<text x="14.0" y="119.9" font-size="11.0" fill="#898781">400</text>
<polyline points="543.0,119.3 570.3,119.3 597.7,118.1 625.0,118.3 652.3,118.4 679.7,118.3 707.0,118.3 734.3,106.1 761.7,102.8 789.0,102.2 816.3,102.2" fill="none" stroke="#c98500" stroke-width="1.5" stroke-linejoin="round" stroke-linecap="round"/>
<polyline points="543.0,167.3 570.3,166.3 597.7,167.4 625.0,167.8 652.3,168.2 679.7,167.5 707.0,166.8 734.3,162.8 761.7,160.1 789.0,159.0 816.3,158.7" fill="none" stroke="#3987e5" stroke-width="1.5" stroke-linejoin="round" stroke-linecap="round"/>
<polyline points="543.0,215.3 570.3,213.2 597.7,216.7 625.0,217.3 652.3,218.0 679.7,216.7 707.0,215.3 734.3,219.5 761.7,217.5 789.0,215.7 816.3,215.3" fill="none" stroke="#d55181" stroke-width="1.5" stroke-linejoin="round" stroke-linecap="round"/>
<polyline points="187.7,180.3 215.0,179.7 242.3,179.4 269.7,180.3 297.0,176.6 324.3,169.7 351.7,166.8 379.0,163.3 406.3,160.9 433.7,158.5 461.0,144.7 488.3,149.1 515.7,153.9 543.0,156.1 570.3,158.5 597.7,163.5 625.0,165.8 652.3,180.3 679.7,179.4 707.0,179.4 734.3,167.6 761.7,162.1 789.0,155.3 816.3,154.4" fill="none" stroke="#9085e9" stroke-width="1.5" stroke-linejoin="round" stroke-linecap="round"/>
<rect x="16.1" y="189.4" width="15.0" height="166.6" fill="none" stroke="#e66767" stroke-width="1.3"/>
<rect x="43.5" y="180.6" width="15.0" height="8.7" fill="none" stroke="#e66767" stroke-width="1.3"/>
<rect x="70.8" y="169.5" width="15.0" height="11.1" fill="none" stroke="#e66767" stroke-width="1.3"/>
<rect x="98.1" y="169.5" width="15.0" height="4.1" fill="#008300"/>
<rect x="125.5" y="173.6" width="15.0" height="12.2" fill="#008300"/>
<rect x="152.8" y="185.9" width="15.0" height="1.2" fill="#898781"/>
<rect x="180.1" y="177.1" width="15.0" height="8.7" fill="none" stroke="#e66767" stroke-width="1.3"/>
<rect x="207.5" y="177.1" width="15.0" height="8.2" fill="#008300"/>
<rect x="234.8" y="178.3" width="15.0" height="7.0" fill="none" stroke="#e66767" stroke-width="1.3"/>
<rect x="262.1" y="176.0" width="15.0" height="2.3" fill="none" stroke="#e66767" stroke-width="1.3"/>
<rect x="289.5" y="148.0" width="15.0" height="28.0" fill="none" stroke="#e66767" stroke-width="1.3"/>
<rect x="316.8" y="137.5" width="15.0" height="10.5" fill="none" stroke="#e66767" stroke-width="1.3"/>
<rect x="344.1" y="137.5" width="15.0" height="28.0" fill="#008300"/>
<rect x="371.5" y="152.6" width="15.0" height="12.8" fill="none" stroke="#e66767" stroke-width="1.3"/>
<rect x="398.8" y="152.6" width="15.0" height="15.7" fill="#008300"/>
<rect x="426.1" y="161.4" width="15.0" height="7.0" fill="none" stroke="#e66767" stroke-width="1.3"/>
<rect x="453.5" y="79.8" width="15.0" height="81.6" fill="none" stroke="#e66767" stroke-width="1.3"/>
<rect x="480.8" y="79.8" width="15.0" height="99.1" fill="#008300"/>
<rect x="508.1" y="170.7" width="15.0" height="8.2" fill="none" stroke="#e66767" stroke-width="1.3"/>
<rect x="535.5" y="170.7" width="15.0" height="10.5" fill="#008300"/>
<rect x="562.8" y="169.0" width="15.0" height="12.2" fill="none" stroke="#e66767" stroke-width="1.3"/>
<rect x="590.1" y="169.0" width="15.0" height="34.4" fill="#008300"/>
<rect x="617.5" y="177.7" width="15.0" height="25.6" fill="none" stroke="#e66767" stroke-width="1.3"/>
<rect x="644.8" y="177.7" width="15.0" height="3.5" fill="#008300"/>
<rect x="672.1" y="172.5" width="15.0" height="8.7" fill="none" stroke="#e66767" stroke-width="1.3"/>
<rect x="699.5" y="171.3" width="15.0" height="1.2" fill="none" stroke="#e66767" stroke-width="1.3"/>
<rect x="726.8" y="97.9" width="15.0" height="73.4" fill="none" stroke="#e66767" stroke-width="1.3"/>
<rect x="754.1" y="97.9" width="15.0" height="33.2" fill="#008300"/>
<rect x="781.5" y="131.1" width="15.0" height="24.5" fill="#008300"/>
<rect x="808.8" y="155.6" width="15.0" height="15.7" fill="#008300"/>
<circle cx="461.0" cy="79.8" r="2" fill="#c3c2b7"/>
<line x1="461.0" y1="79.8" x2="453.0" y2="79.8" stroke="#c3c2b7" stroke-width="1.0"/>
<text x="450.0" y="83.8" font-size="11.0" fill="#c3c2b7" text-anchor="end">474</text>
<circle cx="23.7" cy="356.0" r="2" fill="#c3c2b7"/>
<line x1="23.7" y1="356.0" x2="31.7" y2="356.0" stroke="#c3c2b7" stroke-width="1.0"/>
<text x="34.7" y="350.0" font-size="11.0" fill="#c3c2b7">0</text>
<text x="14.0" y="376.0" font-size="11.0" fill="#c3c2b7">VOL 20 forks</text>
<text x="96.6" y="376.0" font-size="11.0" fill="#c98500">MA5:19.8</text>
<text x="155.0" y="376.0" font-size="11.0" fill="#3987e5">MA10:17.2</text>
<text x="14.0" y="395.0" font-size="10" fill="#898781">46</text>
<rect x="16.1" y="437.9" width="15.0" height="32.1" fill="none" stroke="#e66767" stroke-width="1.1"/>
<rect x="43.5" y="446.8" width="15.0" height="23.2" fill="none" stroke="#e66767" stroke-width="1.1"/>
<rect x="70.8" y="446.8" width="15.0" height="23.2" fill="none" stroke="#e66767" stroke-width="1.1"/>
<rect x="98.1" y="441.5" width="15.0" height="28.5" fill="#008300"/>
<rect x="125.5" y="439.7" width="15.0" height="30.3" fill="#008300"/>
<rect x="152.8" y="423.7" width="15.0" height="46.3" fill="#898781"/>
<rect x="180.1" y="443.3" width="15.0" height="26.7" fill="none" stroke="#e66767" stroke-width="1.1"/>
<rect x="207.5" y="439.7" width="15.0" height="30.3" fill="#008300"/>
<rect x="234.8" y="448.6" width="15.0" height="21.4" fill="none" stroke="#e66767" stroke-width="1.1"/>
<rect x="262.1" y="423.7" width="15.0" height="46.3" fill="none" stroke="#e66767" stroke-width="1.1"/>
<rect x="289.5" y="436.1" width="15.0" height="33.9" fill="none" stroke="#e66767" stroke-width="1.1"/>
<rect x="316.8" y="443.3" width="15.0" height="26.7" fill="none" stroke="#e66767" stroke-width="1.1"/>
<rect x="344.1" y="448.6" width="15.0" height="21.4" fill="#008300"/>
<rect x="371.5" y="439.7" width="15.0" height="30.3" fill="none" stroke="#e66767" stroke-width="1.1"/>
<rect x="398.8" y="436.1" width="15.0" height="33.9" fill="#008300"/>
<rect x="426.1" y="437.9" width="15.0" height="32.1" fill="none" stroke="#e66767" stroke-width="1.1"/>
<rect x="453.5" y="388.0" width="15.0" height="82.0" fill="none" stroke="#e66767" stroke-width="1.1"/>
<rect x="480.8" y="439.7" width="15.0" height="30.3" fill="#008300"/>
<rect x="508.1" y="457.5" width="15.0" height="12.5" fill="none" stroke="#e66767" stroke-width="1.1"/>
<rect x="535.5" y="437.9" width="15.0" height="32.1" fill="#008300"/>
<rect x="562.8" y="454.0" width="15.0" height="16.0" fill="none" stroke="#e66767" stroke-width="1.1"/>
<rect x="590.1" y="446.8" width="15.0" height="23.2" fill="#008300"/>
<rect x="617.5" y="462.9" width="15.0" height="7.1" fill="none" stroke="#e66767" stroke-width="1.1"/>
<rect x="644.8" y="436.1" width="15.0" height="33.9" fill="#008300"/>
<rect x="672.1" y="420.1" width="15.0" height="49.9" fill="none" stroke="#e66767" stroke-width="1.1"/>
<rect x="699.5" y="443.3" width="15.0" height="26.7" fill="none" stroke="#e66767" stroke-width="1.1"/>
<rect x="726.8" y="409.4" width="15.0" height="60.6" fill="none" stroke="#e66767" stroke-width="1.1"/>
<rect x="754.1" y="448.6" width="15.0" height="21.4" fill="#008300"/>
<rect x="781.5" y="437.9" width="15.0" height="32.1" fill="#008300"/>
<rect x="808.8" y="434.3" width="15.0" height="35.7" fill="#008300"/>
<polyline points="269.7,439.2 297.0,439.0 324.3,438.6 351.7,438.8 379.0,438.6 406.3,438.3 433.7,439.7 461.0,434.2 488.3,434.2 515.7,435.1 543.0,436.5 570.3,438.3 597.7,438.6 625.0,440.1 652.3,439.7 679.7,438.1 707.0,438.6 734.3,440.8 761.7,441.7 789.0,439.7 816.3,439.3" fill="none" stroke="#3987e5" stroke-width="1.5" stroke-linejoin="round" stroke-linecap="round"/>
<polyline points="133.0,442.5 160.3,439.7 187.7,439.0 215.0,437.6 242.3,439.0 269.7,435.8 297.0,438.3 324.3,438.3 351.7,440.1 379.0,438.3 406.3,440.8 433.7,441.1 461.0,430.1 488.3,428.3 515.7,431.9 543.0,432.2 570.3,435.4 597.7,447.2 625.0,451.8 652.3,447.5 679.7,444.0 707.0,441.8 734.3,434.3 761.7,431.5 789.0,431.9 816.3,434.7" fill="none" stroke="#c98500" stroke-width="1.5" stroke-linejoin="round" stroke-linecap="round"/>
</svg>