<svg xmlns="http://www.w3.org/2000/svg" viewBox="0 0 840 496" width="840" height="496" font-family="-apple-system,&#39;Segoe UI&#39;,system-ui,sans-serif" role="img" aria-label="awesome-selfhosted/awesome-selfhosted candlestick chart">
<text x="14.0" y="20.0" font-size="15" fill="#ffffff" font-weight="650">awesome-selfhosted/awesome-selfhosted</text>
<text x="323.2" y="20.0" font-size="11.5" fill="#c3c2b7">daily · new stars, volume = new forks</text>
<text x="805.8" y="20.0" font-size="11.0" fill="#c3c2b7">fall</text>
<rect x="791" y="10" width="9" height="12" fill="#008300"/>
<text x="750.6" y="20.0" font-size="11.0" fill="#c3c2b7">rise</text>
<rect x="736" y="10" width="9" height="12" fill="none" stroke="#e66767" stroke-width="1.5"/>
<text x="14.0" y="38.0" font-size="11.0" fill="#898781">last 32 days · +6,627 stars · +409 forks · updated 2026-07-10</text>
<rect x="10" y="66" width="820" height="290" fill="none" stroke="#2c2c2a"/>
<rect x="10" y="384" width="820" height="86" fill="none" stroke="#2c2c2a"/>
<text x="38.0" y="490.0" font-size="11.0" fill="#898781" text-anchor="middle">2026-06</text>
<line x1="573.8" y1="66.0" x2="573.8" y2="356.0" stroke="#2c2c2a" stroke-width="1.0"/>
<line x1="573.8" y1="384.0" x2="573.8" y2="470.0" stroke="#2c2c2a" stroke-width="1.0"/>
<text x="586.6" y="490.0" font-size="11.0" fill="#898781" text-anchor="middle">2026-07</text>
<text x="14.0" y="58.0" font-size="11.0" fill="#c3c2b7">BOLL(20,2)</text>
<text x="84.5" y="58.0" font-size="11.0" fill="#c98500">UP:294.1</text>
<text x="142.9" y="58.0" font-size="11.0" fill="#3987e5">MID:208.8</text>
<text x="207.4" y="58.0" font-size="11.0" fill="#d55181">LOW:123.7</text>
<text x="271.8" y="58.0" font-size="11.0" fill="#9085e9">MA7:235</text>
<line x1="10.0" y1="356.0" x2="830.0" y2="356.0" stroke="#2c2c2a" stroke-width="1.0"/>
<text x="14.0" y="353.0" font-size="11.0" fill="#898781">0</text>
<line x1="10.0" y1="264.5" x2="830.0" y2="264.5" stroke="#2c2c2a" stroke-width="1.0"/>
<text x="14.0" y="261.5" font-size="11.0" fill="#898781">100</text>
<line x1="10.0" y1="173.1" x2="830.0" y2="173.1" stroke="#2c2c2a" stroke-width="1.0"/>
<text x="14.0" y="170.1" font-size="11.0" fill="#898781">200</text>
<line x1="10.0" y1="81.6" x2="830.0" y2="81.6" stroke="#2c2c2a" stroke-width="1.0"/>
<text x="14.0" y="78.6" font-size="11.0" fill="#898781">300</text>
<polyline points="509.7,134.4 535.3,133.6 560.9,133.2 586.6,133.7 612.2,133.8 637.8,133.3 663.4,131.6 689.1,127.9 714.7,123.0 740.3,114.4 765.9,108.2 791.6,91.5 817.2,87.1" fill="none" stroke="#c98500" stroke-width="1.5" stroke-linejoin="round" stroke-linecap="round"/>
<polyline points="509.7,176.1 535.3,175.9 560.9,175.5 586.6,176.4 612.2,176.6 637.8,176.4 663.4,176.1 689.1,174.6 714.7,173.6 740.3,176.3 765.9,174.0 791.6,168.8 817.2,165.0" fill="none" stroke="#3987e5" stroke-width="1.5" stroke-linejoin="round" stroke-linecap="round"/>
<polyline points="509.7,217.7 535.3,218.2 560.9,217.7 586.6,219.1 612.2,219.4 637.8,219.6 663.4,220.5 689.1,221.4 714.7,224.2 740.3,238.2 765.9,239.7 791.6,246.1 817.2,242.9" fill="none" stroke="#d55181" stroke-width="1.5" stroke-linejoin="round" stroke-linecap="round"/>
<polyline points="176.6,161.1 202.2,162.9 227.8,166.4 253.4,166.4 279.1,167.2 304.7,173.7 330.3,179.1 355.9,178.9 381.6,186.9 407.2,184.6 432.8,187.2 458.4,189.9 484.1,187.1 509.7,187.4 535.3,181.0 560.9,177.6 586.6,177.6 612.2,176.4 637.8,169.2 663.4,162.4 689.1,157.0 714.7,156.3 740.3,168.8 765.9,159.5 791.6,144.8 817.2,141.1" fill="none" stroke="#9085e9" stroke-width="1.5" stroke-linejoin="round" stroke-linecap="round"/>
<rect x="15.8" y="127.4" width="14.1" height="228.6" fill="none" stroke="#e66767" stroke-width="1.3"/>
<rect x="41.4" y="127.4" width="14.1" height="54.9" fill="#008300"/>
<rect x="67.0" y="172.2" width="14.1" height="10.1" fill="none" stroke="#e66767" stroke-width="1.3"/>
<rect x="92.6" y="172.2" width="14.1" height="5.5" fill="#008300"/>
<rect x="118.3" y="155.7" width="14.1" height="21.9" fill="none" stroke="#e66767" stroke-width="1.3"/>
<rect x="143.9" y="141.1" width="14.1" height="14.6" fill="none" stroke="#e66767" stroke-width="1.3"/>
<rect x="169.5" y="141.1" width="14.1" height="30.2" fill="#008300"/>
<rect x="195.1" y="140.2" width="14.1" height="31.1" fill="none" stroke="#e66767" stroke-width="1.3"/>
<rect x="220.8" y="140.2" width="14.1" height="66.8" fill="#008300"/>
<rect x="246.4" y="172.2" width="14.1" height="34.8" fill="none" stroke="#e66767" stroke-width="1.3"/>
<rect x="272.0" y="172.2" width="14.1" height="11.0" fill="#008300"/>
<rect x="297.6" y="183.2" width="14.1" height="18.3" fill="#008300"/>
<rect x="323.3" y="178.6" width="14.1" height="22.9" fill="none" stroke="#e66767" stroke-width="1.3"/>
<rect x="348.9" y="169.4" width="14.1" height="9.1" fill="none" stroke="#e66767" stroke-width="1.3"/>
<rect x="374.5" y="169.4" width="14.1" height="27.4" fill="#008300"/>
<rect x="400.1" y="190.5" width="14.1" height="6.4" fill="none" stroke="#e66767" stroke-width="1.3"/>
<rect x="425.8" y="190.5" width="14.1" height="1.2" fill="#898781"/>
<rect x="451.4" y="190.5" width="14.1" height="11.9" fill="#008300"/>
<rect x="477.0" y="181.3" width="14.1" height="21.0" fill="none" stroke="#e66767" stroke-width="1.3"/>
<rect x="502.6" y="180.4" width="14.1" height="1.2" fill="none" stroke="#e66767" stroke-width="1.3"/>
<rect x="528.3" y="124.6" width="14.1" height="55.8" fill="none" stroke="#e66767" stroke-width="1.3"/>
<rect x="553.9" y="124.6" width="14.1" height="48.5" fill="#008300"/>
<rect x="579.5" y="173.1" width="14.1" height="17.4" fill="#008300"/>
<rect x="605.1" y="182.2" width="14.1" height="8.2" fill="none" stroke="#e66767" stroke-width="1.3"/>
<rect x="630.8" y="152.1" width="14.1" height="30.2" fill="none" stroke="#e66767" stroke-width="1.3"/>
<rect x="656.4" y="133.8" width="14.1" height="18.3" fill="none" stroke="#e66767" stroke-width="1.3"/>
<rect x="682.0" y="133.8" width="14.1" height="9.1" fill="#008300"/>
<rect x="707.6" y="119.1" width="14.1" height="23.8" fill="none" stroke="#e66767" stroke-width="1.3"/>
<rect x="733.3" y="119.1" width="14.1" height="141.8" fill="#008300"/>
<rect x="758.9" y="125.5" width="14.1" height="135.4" fill="none" stroke="#e66767" stroke-width="1.3"/>
<rect x="784.5" y="79.8" width="14.1" height="45.7" fill="none" stroke="#e66767" stroke-width="1.3"/>
<rect x="810.1" y="79.8" width="14.1" height="45.7" fill="#008300"/>
<circle cx="791.6" cy="79.8" r="2" fill="#c3c2b7"/>
<line x1="791.6" y1="79.8" x2="783.6" y2="79.8" stroke="#c3c2b7" stroke-width="1.0"/>
<text x="780.6" y="83.8" font-size="11.0" fill="#c3c2b7" text-anchor="end">302</text>
<circle cx="22.8" cy="356.0" r="2" fill="#c3c2b7"/>
<line x1="22.8" y1="356.0" x2="30.8" y2="356.0" stroke="#c3c2b7" stroke-width="1.0"/>
<text x="33.8" y="350.0" font-size="11.0" fill="#c3c2b7">0</text>
<text x="14.0" y="376.0" font-size="11.0" fill="#c3c2b7">VOL 21 forks</text>
<text x="96.6" y="376.0" font-size="11.0" fill="#c98500">MA5:19</text>
<text x="142.9" y="376.0" font-size="11.0" fill="#3987e5">MA10:16.7</text>
<text x="14.0" y="395.0" font-size="10" fill="#898781">28</text>
<rect x="15.8" y="431.9" width="14.1" height="38.1" fill="none" stroke="#e66767" stroke-width="1.1"/>
<rect x="41.4" y="437.8" width="14.1" height="32.2" fill="#008300"/>
<rect x="67.0" y="423.1" width="14.1" height="46.9" fill="none" stroke="#e66767" stroke-width="1.1"/>
<rect x="92.6" y="449.5" width="14.1" height="20.5" fill="#008300"/>
<rect x="118.3" y="417.3" width="14.1" height="52.7" fill="none" stroke="#e66767" stroke-width="1.1"/>
<rect x="143.9" y="411.4" width="14.1" height="58.6" fill="none" stroke="#e66767" stroke-width="1.1"/>
<rect x="169.5" y="434.9" width="14.1" height="35.1" fill="#008300"/>
<rect x="195.1" y="437.8" width="14.1" height="32.2" fill="none" stroke="#e66767" stroke-width="1.1"/>
<rect x="220.8" y="434.9" width="14.1" height="35.1" fill="#008300"/>
<rect x="246.4" y="449.5" width="14.1" height="20.5" fill="none" stroke="#e66767" stroke-width="1.1"/>
<rect x="272.0" y="452.4" width="14.1" height="17.6" fill="#008300"/>
<rect x="297.6" y="437.8" width="14.1" height="32.2" fill="#008300"/>
<rect x="323.3" y="429.0" width="14.1" height="41.0" fill="none" stroke="#e66767" stroke-width="1.1"/>
<rect x="348.9" y="452.4" width="14.1" height="17.6" fill="none" stroke="#e66767" stroke-width="1.1"/>
<rect x="374.5" y="449.5" width="14.1" height="20.5" fill="#008300"/>
<rect x="400.1" y="440.7" width="14.1" height="29.3" fill="none" stroke="#e66767" stroke-width="1.1"/>
<rect x="425.8" y="437.8" width="14.1" height="32.2" fill="#898781"/>
<rect x="451.4" y="446.6" width="14.1" height="23.4" fill="#008300"/>
<rect x="477.0" y="467.1" width="14.1" height="2.9" fill="none" stroke="#e66767" stroke-width="1.1"/>
<rect x="502.6" y="440.7" width="14.1" height="29.3" fill="none" stroke="#e66767" stroke-width="1.1"/>
<rect x="528.3" y="414.4" width="14.1" height="55.6" fill="none" stroke="#e66767" stroke-width="1.1"/>
<rect x="553.9" y="434.9" width="14.1" height="35.1" fill="#008300"/>
<rect x="579.5" y="446.6" width="14.1" height="23.4" fill="#008300"/>
<rect x="605.1" y="446.6" width="14.1" height="23.4" fill="none" stroke="#e66767" stroke-width="1.1"/>
<rect x="630.8" y="434.9" width="14.1" height="35.1" fill="none" stroke="#e66767" stroke-width="1.1"/>
<rect x="656.4" y="396.8" width="14.1" height="73.2" fill="none" stroke="#e66767" stroke-width="1.1"/>
<rect x="682.0" y="414.4" width="14.1" height="55.6" fill="#008300"/>
<rect x="707.6" y="420.2" width="14.1" height="49.8" fill="none" stroke="#e66767" stroke-width="1.1"/>
<rect x="733.3" y="437.8" width="14.1" height="32.2" fill="#008300"/>
<rect x="758.9" y="417.3" width="14.1" height="52.7" fill="none" stroke="#e66767" stroke-width="1.1"/>
<rect x="784.5" y="388.0" width="14.1" height="82.0" fill="none" stroke="#e66767" stroke-width="1.1"/>
<rect x="810.1" y="408.5" width="14.1" height="61.5" fill="#008300"/>
<polyline points="253.4,432.8 279.1,434.9 304.7,434.9 330.3,435.4 355.9,435.7 381.6,439.0 407.2,441.9 432.8,442.2 458.4,443.1 484.1,446.3 509.7,445.4 535.3,441.6 560.9,441.3 586.6,443.1 612.2,442.5 637.8,441.0 663.4,436.6 689.1,434.3 714.7,431.6 740.3,428.7 765.9,426.4 791.6,423.7 817.2,421.1" fill="none" stroke="#3987e5" stroke-width="1.5" stroke-linejoin="round" stroke-linecap="round"/>
<polyline points="125.3,431.9 150.9,427.8 176.6,427.2 202.2,430.2 227.8,427.2 253.4,433.7 279.1,441.9 304.7,442.5 330.3,440.7 355.9,444.2 381.6,444.2 407.2,441.9 432.8,441.9 458.4,445.4 484.1,448.3 509.7,446.6 535.3,441.3 560.9,440.7 586.6,440.7 612.2,436.6 637.8,435.4 663.4,431.9 689.1,427.8 714.7,422.6 740.3,420.8 765.9,417.3 791.6,415.5 817.2,414.4" fill="none" stroke="#c98500" stroke-width="1.5" stroke-linejoin="round" stroke-linecap="round"/>
</svg>