<svg xmlns="http://www.w3.org/2000/svg" viewBox="0 0 840 496" width="840" height="496" font-family="-apple-system,&#39;Segoe UI&#39;,system-ui,sans-serif" role="img" aria-label="awesome-selfhosted/awesome-selfhosted candlestick chart">
<text x="14.0" y="20.0" font-size="15" fill="#0b0b0b" font-weight="650">awesome-selfhosted/awesome-selfhosted</text>
<text x="323.2" y="20.0" font-size="11.5" fill="#52514e">daily · new stars, volume = new forks</text>
<text x="805.8" y="20.0" font-size="11.0" fill="#52514e">fall</text>
<rect x="791" y="10" width="9" height="12" fill="#008300"/>
<text x="750.6" y="20.0" font-size="11.0" fill="#52514e">rise</text>
<rect x="736" y="10" width="9" height="12" fill="none" stroke="#e34948" stroke-width="1.5"/>
<text x="14.0" y="38.0" font-size="11.0" fill="#898781">last 39 days · +8,397 stars · +527 forks · updated 2026-07-17</text>
<rect x="10" y="66" width="820" height="290" fill="none" stroke="#e1e0d9"/>
<rect x="10" y="384" width="820" height="86" fill="none" stroke="#e1e0d9"/>
<text x="38.0" y="490.0" font-size="11.0" fill="#898781" text-anchor="middle">2026-06</text>
<line x1="472.6" y1="66.0" x2="472.6" y2="356.0" stroke="#e1e0d9" stroke-width="1.0"/>
<line x1="472.6" y1="384.0" x2="472.6" y2="470.0" stroke="#e1e0d9" stroke-width="1.0"/>
<text x="483.1" y="490.0" font-size="11.0" fill="#898781" text-anchor="middle">2026-07</text>
<text x="14.0" y="58.0" font-size="11.0" fill="#52514e">BOLL(20,2)</text>
<text x="84.5" y="58.0" font-size="11.0" fill="#eda100">UP:318.0</text>
<text x="142.9" y="58.0" font-size="11.0" fill="#2a78d6">MID:232.7</text>
<text x="207.4" y="58.0" font-size="11.0" fill="#e87ba4">LOW:147.4</text>
<text x="271.8" y="58.0" font-size="11.0" fill="#4a3aa7">MA7:252.9</text>
<line x1="10.0" y1="356.0" x2="830.0" y2="356.0" stroke="#e1e0d9" stroke-width="1.0"/>
<text x="14.0" y="353.0" font-size="11.0" fill="#898781">0</text>
<line x1="10.0" y1="269.4" x2="830.0" y2="269.4" stroke="#e1e0d9" stroke-width="1.0"/>
<text x="14.0" y="266.4" font-size="11.0" fill="#898781">100</text>
<line x1="10.0" y1="182.9" x2="830.0" y2="182.9" stroke="#e1e0d9" stroke-width="1.0"/>
<text x="14.0" y="179.9" font-size="11.0" fill="#898781">200</text>
<line x1="10.0" y1="96.3" x2="830.0" y2="96.3" stroke="#e1e0d9" stroke-width="1.0"/>
<text x="14.0" y="93.3" font-size="11.0" fill="#898781">300</text>
<polyline points="420.0,146.3 441.0,145.5 462.1,145.2 483.1,145.6 504.1,145.7 525.1,145.2 546.2,143.6 567.2,140.1 588.2,135.5 609.2,127.3 630.3,121.5 651.3,105.7 672.3,101.5 693.3,94.8 714.4,92.4 735.4,87.6 756.4,80.8 777.4,79.8 798.5,80.8 819.5,80.7" fill="none" stroke="#eda100" stroke-width="1.5" stroke-linejoin="round" stroke-linecap="round"/>
<polyline points="420.0,185.7 441.0,185.6 462.1,185.1 483.1,186.0 504.1,186.2 525.1,186.0 546.2,185.7 567.2,184.4 588.2,183.4 609.2,185.9 630.3,183.7 651.3,178.8 672.3,175.2 693.3,171.9 714.4,170.2 735.4,166.1 756.4,161.6 777.4,158.9 798.5,156.3 819.5,154.6" fill="none" stroke="#2a78d6" stroke-width="1.5" stroke-linejoin="round" stroke-linecap="round"/>
<polyline points="420.0,225.1 441.0,225.6 462.1,225.1 483.1,226.4 504.1,226.7 525.1,226.9 546.2,227.8 567.2,228.6 588.2,231.2 609.2,244.5 630.3,245.9 651.3,251.9 672.3,249.0 693.3,249.0 714.4,248.0 735.4,244.7 756.4,242.4 777.4,238.1 798.5,231.8 819.5,228.4" fill="none" stroke="#e87ba4" stroke-width="1.5" stroke-linejoin="round" stroke-linecap="round"/>
<polyline points="146.7,171.5 167.7,173.3 188.7,176.6 209.7,176.6 230.8,177.3 251.8,183.5 272.8,188.6 293.8,188.3 314.9,196.0 335.9,193.8 356.9,196.2 377.9,198.8 399.0,196.1 420.0,196.4 441.0,190.3 462.1,187.1 483.1,187.1 504.1,186.0 525.1,179.2 546.2,172.8 567.2,167.6 588.2,167.0 609.2,178.8 630.3,170.0 651.3,156.1 672.3,152.6 693.3,149.1 714.4,147.9 735.4,146.8 756.4,124.3 777.4,125.5 798.5,134.4 819.5,137.1" fill="none" stroke="#4a3aa7" stroke-width="1.5" stroke-linejoin="round" stroke-linecap="round"/>
<rect x="14.7" y="139.6" width="11.6" height="216.4" fill="none" stroke="#e34948" stroke-width="1.3"/>
<rect x="35.8" y="139.6" width="11.6" height="51.9" fill="#008300"/>
<rect x="56.8" y="182.0" width="11.6" height="9.5" fill="none" stroke="#e34948" stroke-width="1.3"/>
<rect x="77.8" y="182.0" width="11.6" height="5.2" fill="#008300"/>
<rect x="98.8" y="166.4" width="11.6" height="20.8" fill="none" stroke="#e34948" stroke-width="1.3"/>
<rect x="119.9" y="152.6" width="11.6" height="13.8" fill="none" stroke="#e34948" stroke-width="1.3"/>
<rect x="140.9" y="152.6" width="11.6" height="28.6" fill="#008300"/>
<rect x="161.9" y="151.7" width="11.6" height="29.4" fill="none" stroke="#e34948" stroke-width="1.3"/>
<rect x="182.9" y="151.7" width="11.6" height="63.2" fill="#008300"/>
<rect x="204.0" y="182.0" width="11.6" height="32.9" fill="none" stroke="#e34948" stroke-width="1.3"/>
<rect x="225.0" y="182.0" width="11.6" height="10.4" fill="#008300"/>
<rect x="246.0" y="192.4" width="11.6" height="17.3" fill="#008300"/>
<rect x="267.0" y="188.1" width="11.6" height="21.6" fill="none" stroke="#e34948" stroke-width="1.3"/>
<rect x="288.1" y="179.4" width="11.6" height="8.7" fill="none" stroke="#e34948" stroke-width="1.3"/>
<rect x="309.1" y="179.4" width="11.6" height="26.0" fill="#008300"/>
<rect x="330.1" y="199.3" width="11.6" height="6.1" fill="none" stroke="#e34948" stroke-width="1.3"/>
<rect x="351.1" y="199.3" width="11.6" height="1.2" fill="#898781"/>
<rect x="372.2" y="199.3" width="11.6" height="11.3" fill="#008300"/>
<rect x="393.2" y="190.7" width="11.6" height="19.9" fill="none" stroke="#e34948" stroke-width="1.3"/>
<rect x="414.2" y="189.8" width="11.6" height="1.2" fill="none" stroke="#e34948" stroke-width="1.3"/>
<rect x="435.2" y="137.0" width="11.6" height="52.8" fill="none" stroke="#e34948" stroke-width="1.3"/>
<rect x="456.3" y="137.0" width="11.6" height="45.9" fill="#008300"/>
<rect x="477.3" y="182.9" width="11.6" height="16.4" fill="#008300"/>
<rect x="498.3" y="191.5" width="11.6" height="7.8" fill="none" stroke="#e34948" stroke-width="1.3"/>
<rect x="519.3" y="163.0" width="11.6" height="28.6" fill="none" stroke="#e34948" stroke-width="1.3"/>
<rect x="540.4" y="145.7" width="11.6" height="17.3" fill="none" stroke="#e34948" stroke-width="1.3"/>
<rect x="561.4" y="145.7" width="11.6" height="8.7" fill="#008300"/>
<rect x="582.4" y="131.8" width="11.6" height="22.5" fill="none" stroke="#e34948" stroke-width="1.3"/>
<rect x="603.4" y="131.8" width="11.6" height="134.2" fill="#008300"/>
<rect x="624.5" y="137.9" width="11.6" height="128.1" fill="none" stroke="#e34948" stroke-width="1.3"/>
<rect x="645.5" y="94.6" width="11.6" height="43.3" fill="none" stroke="#e34948" stroke-width="1.3"/>
<rect x="666.5" y="94.6" width="11.6" height="43.3" fill="#008300"/>
<rect x="687.6" y="121.4" width="11.6" height="16.4" fill="none" stroke="#e34948" stroke-width="1.3"/>
<rect x="708.6" y="121.4" width="11.6" height="24.2" fill="#008300"/>
<rect x="729.6" y="124.0" width="11.6" height="21.6" fill="none" stroke="#e34948" stroke-width="1.3"/>
<rect x="750.6" y="108.4" width="11.6" height="15.6" fill="none" stroke="#e34948" stroke-width="1.3"/>
<rect x="771.7" y="108.4" width="11.6" height="38.1" fill="#008300"/>
<rect x="792.7" y="146.5" width="11.6" height="10.4" fill="#008300"/>
<rect x="813.7" y="156.9" width="11.6" height="1.2" fill="#898781"/>
<circle cx="651.3" cy="94.6" r="2" fill="#52514e"/>
<line x1="651.3" y1="94.6" x2="643.3" y2="94.6" stroke="#52514e" stroke-width="1.0"/>
<text x="640.3" y="98.6" font-size="11.0" fill="#52514e" text-anchor="end">302</text>
<circle cx="20.5" cy="356.0" r="2" fill="#52514e"/>
<line x1="20.5" y1="356.0" x2="28.5" y2="356.0" stroke="#52514e" stroke-width="1.0"/>
<text x="31.5" y="350.0" font-size="11.0" fill="#52514e">0</text>
<text x="14.0" y="376.0" font-size="11.0" fill="#52514e">VOL 17 forks</text>
<text x="96.6" y="376.0" font-size="11.0" fill="#eda100">MA5:14.8</text>
<text x="155.0" y="376.0" font-size="11.0" fill="#2a78d6">MA10:18.5</text>
<text x="14.0" y="395.0" font-size="10" fill="#898781">28</text>
<rect x="14.7" y="431.9" width="11.6" height="38.1" fill="none" stroke="#e34948" stroke-width="1.1"/>
<rect x="35.8" y="437.8" width="11.6" height="32.2" fill="#008300"/>
<rect x="56.8" y="423.1" width="11.6" height="46.9" fill="none" stroke="#e34948" stroke-width="1.1"/>
<rect x="77.8" y="449.5" width="11.6" height="20.5" fill="#008300"/>
<rect x="98.8" y="417.3" width="11.6" height="52.7" fill="none" stroke="#e34948" stroke-width="1.1"/>
<rect x="119.9" y="411.4" width="11.6" height="58.6" fill="none" stroke="#e34948" stroke-width="1.1"/>
<rect x="140.9" y="434.9" width="11.6" height="35.1" fill="#008300"/>
<rect x="161.9" y="437.8" width="11.6" height="32.2" fill="none" stroke="#e34948" stroke-width="1.1"/>
<rect x="182.9" y="434.9" width="11.6" height="35.1" fill="#008300"/>
<rect x="204.0" y="449.5" width="11.6" height="20.5" fill="none" stroke="#e34948" stroke-width="1.1"/>
<rect x="225.0" y="452.4" width="11.6" height="17.6" fill="#008300"/>
<rect x="246.0" y="437.8" width="11.6" height="32.2" fill="#008300"/>
<rect x="267.0" y="429.0" width="11.6" height="41.0" fill="none" stroke="#e34948" stroke-width="1.1"/>
<rect x="288.1" y="452.4" width="11.6" height="17.6" fill="none" stroke="#e34948" stroke-width="1.1"/>
<rect x="309.1" y="449.5" width="11.6" height="20.5" fill="#008300"/>
<rect x="330.1" y="440.7" width="11.6" height="29.3" fill="none" stroke="#e34948" stroke-width="1.1"/>
<rect x="351.1" y="437.8" width="11.6" height="32.2" fill="#898781"/>
<rect x="372.2" y="446.6" width="11.6" height="23.4" fill="#008300"/>
<rect x="393.2" y="467.1" width="11.6" height="2.9" fill="none" stroke="#e34948" stroke-width="1.1"/>
<rect x="414.2" y="440.7" width="11.6" height="29.3" fill="none" stroke="#e34948" stroke-width="1.1"/>
<rect x="435.2" y="414.4" width="11.6" height="55.6" fill="none" stroke="#e34948" stroke-width="1.1"/>
<rect x="456.3" y="434.9" width="11.6" height="35.1" fill="#008300"/>
<rect x="477.3" y="446.6" width="11.6" height="23.4" fill="#008300"/>
<rect x="498.3" y="446.6" width="11.6" height="23.4" fill="none" stroke="#e34948" stroke-width="1.1"/>
<rect x="519.3" y="434.9" width="11.6" height="35.1" fill="none" stroke="#e34948" stroke-width="1.1"/>
<rect x="540.4" y="396.8" width="11.6" height="73.2" fill="none" stroke="#e34948" stroke-width="1.1"/>
<rect x="561.4" y="414.4" width="11.6" height="55.6" fill="#008300"/>
<rect x="582.4" y="420.2" width="11.6" height="49.8" fill="none" stroke="#e34948" stroke-width="1.1"/>
<rect x="603.4" y="437.8" width="11.6" height="32.2" fill="#008300"/>
<rect x="624.5" y="417.3" width="11.6" height="52.7" fill="none" stroke="#e34948" stroke-width="1.1"/>
<rect x="645.5" y="388.0" width="11.6" height="82.0" fill="none" stroke="#e34948" stroke-width="1.1"/>
<rect x="666.5" y="408.5" width="11.6" height="61.5" fill="#008300"/>
<rect x="687.6" y="388.0" width="11.6" height="82.0" fill="none" stroke="#e34948" stroke-width="1.1"/>
<rect x="708.6" y="423.1" width="11.6" height="46.9" fill="#008300"/>
<rect x="729.6" y="434.9" width="11.6" height="35.1" fill="none" stroke="#e34948" stroke-width="1.1"/>
<rect x="750.6" y="411.4" width="11.6" height="58.6" fill="none" stroke="#e34948" stroke-width="1.1"/>
<rect x="771.7" y="429.0" width="11.6" height="41.0" fill="#008300"/>
<rect x="792.7" y="437.8" width="11.6" height="32.2" fill="#008300"/>
<rect x="813.7" y="420.2" width="11.6" height="49.8" fill="#898781"/>
<polyline points="209.7,432.8 230.8,434.9 251.8,434.9 272.8,435.4 293.8,435.7 314.9,439.0 335.9,441.9 356.9,442.2 377.9,443.1 399.0,446.3 420.0,445.4 441.0,441.6 462.1,441.3 483.1,443.1 504.1,442.5 525.1,441.0 546.2,436.6 567.2,434.3 588.2,431.6 609.2,428.7 630.3,426.4 651.3,423.7 672.3,421.1 693.3,415.2 714.4,412.9 735.4,412.9 756.4,414.4 777.4,415.8 798.5,417.6 819.5,415.8" fill="none" stroke="#2a78d6" stroke-width="1.5" stroke-linejoin="round" stroke-linecap="round"/>
<polyline points="104.6,431.9 125.6,427.8 146.7,427.2 167.7,430.2 188.7,427.2 209.7,433.7 230.8,441.9 251.8,442.5 272.8,440.7 293.8,444.2 314.9,444.2 335.9,441.9 356.9,441.9 377.9,445.4 399.0,448.3 420.0,446.6 441.0,441.3 462.1,440.7 483.1,440.7 504.1,436.6 525.1,435.4 546.2,431.9 567.2,427.8 588.2,422.6 609.2,420.8 630.3,417.3 651.3,415.5 672.3,414.4 693.3,407.9 714.4,405.0 735.4,408.5 756.4,413.2 777.4,417.3 798.5,427.2 819.5,426.7" fill="none" stroke="#eda100" stroke-width="1.5" stroke-linejoin="round" stroke-linecap="round"/>
</svg>