<svg xmlns="http://www.w3.org/2000/svg" viewBox="0 0 840 496" width="840" height="496" font-family="-apple-system,&#39;Segoe UI&#39;,system-ui,sans-serif" role="img" aria-label="awesome-selfhosted/awesome-selfhosted candlestick chart">
<text x="14.0" y="20.0" font-size="15" fill="#ffffff" font-weight="650">awesome-selfhosted/awesome-selfhosted</text>
<text x="323.2" y="20.0" font-size="11.5" fill="#c3c2b7">daily · new stars, volume = new forks</text>
<text x="805.8" y="20.0" font-size="11.0" fill="#c3c2b7">fall</text>
<rect x="791" y="10" width="9" height="12" fill="#008300"/>
<text x="750.6" y="20.0" font-size="11.0" fill="#c3c2b7">rise</text>
<rect x="736" y="10" width="9" height="12" fill="none" stroke="#e66767" stroke-width="1.5"/>
<text x="14.0" y="38.0" font-size="11.0" fill="#898781">last 31 days · +6,375 stars · +388 forks · updated 2026-07-09</text>
<rect x="10" y="66" width="820" height="290" fill="none" stroke="#2c2c2a"/>
<rect x="10" y="384" width="820" height="86" fill="none" stroke="#2c2c2a"/>
<text x="38.0" y="490.0" font-size="11.0" fill="#898781" text-anchor="middle">2026-06</text>
<line x1="591.9" y1="66.0" x2="591.9" y2="356.0" stroke="#2c2c2a" stroke-width="1.0"/>
<line x1="591.9" y1="384.0" x2="591.9" y2="470.0" stroke="#2c2c2a" stroke-width="1.0"/>
<text x="605.2" y="490.0" font-size="11.0" fill="#898781" text-anchor="middle">2026-07</text>
<text x="14.0" y="58.0" font-size="11.0" fill="#c3c2b7">BOLL(20,2)</text>
<text x="84.5" y="58.0" font-size="11.0" fill="#c98500">UP:289.2</text>
<text x="142.9" y="58.0" font-size="11.0" fill="#3987e5">MID:204.7</text>
<text x="207.4" y="58.0" font-size="11.0" fill="#d55181">LOW:120.2</text>
<text x="271.8" y="58.0" font-size="11.0" fill="#9085e9">MA7:230.9</text>
<line x1="10.0" y1="356.0" x2="830.0" y2="356.0" stroke="#2c2c2a" stroke-width="1.0"/>
<text x="14.0" y="353.0" font-size="11.0" fill="#898781">0</text>
<line x1="10.0" y1="264.5" x2="830.0" y2="264.5" stroke="#2c2c2a" stroke-width="1.0"/>
<text x="14.0" y="261.5" font-size="11.0" fill="#898781">100</text>
<line x1="10.0" y1="173.1" x2="830.0" y2="173.1" stroke="#2c2c2a" stroke-width="1.0"/>
<text x="14.0" y="170.1" font-size="11.0" fill="#898781">200</text>
<line x1="10.0" y1="81.6" x2="830.0" y2="81.6" stroke="#2c2c2a" stroke-width="1.0"/>
<text x="14.0" y="78.6" font-size="11.0" fill="#898781">300</text>
<polyline points="525.8,134.4 552.3,133.6 578.7,133.2 605.2,133.7 631.6,133.8 658.1,133.3 684.5,131.6 711.0,127.9 737.4,123.0 763.9,114.4 790.3,108.2 816.8,91.5" fill="none" stroke="#c98500" stroke-width="1.5" stroke-linejoin="round" stroke-linecap="round"/>
<polyline points="525.8,176.1 552.3,175.9 578.7,175.5 605.2,176.4 631.6,176.6 658.1,176.4 684.5,176.1 711.0,174.6 737.4,173.6 763.9,176.3 790.3,174.0 816.8,168.8" fill="none" stroke="#3987e5" stroke-width="1.5" stroke-linejoin="round" stroke-linecap="round"/>
<polyline points="525.8,217.7 552.3,218.2 578.7,217.7 605.2,219.1 631.6,219.4 658.1,219.6 684.5,220.5 711.0,221.4 737.4,224.2 763.9,238.2 790.3,239.7 816.8,246.1" fill="none" stroke="#d55181" stroke-width="1.5" stroke-linejoin="round" stroke-linecap="round"/>
<polyline points="181.9,161.1 208.4,162.9 234.8,166.4 261.3,166.4 287.7,167.2 314.2,173.7 340.6,179.1 367.1,178.9 393.5,186.9 420.0,184.6 446.5,187.2 472.9,189.9 499.4,187.1 525.8,187.4 552.3,181.0 578.7,177.6 605.2,177.6 631.6,176.4 658.1,169.2 684.5,162.4 711.0,157.0 737.4,156.3 763.9,168.8 790.3,159.5 816.8,144.8" fill="none" stroke="#9085e9" stroke-width="1.5" stroke-linejoin="round" stroke-linecap="round"/>
<rect x="16.0" y="127.4" width="14.5" height="228.6" fill="none" stroke="#e66767" stroke-width="1.3"/>
<rect x="42.4" y="127.4" width="14.5" height="54.9" fill="#008300"/>
<rect x="68.9" y="172.2" width="14.5" height="10.1" fill="none" stroke="#e66767" stroke-width="1.3"/>
<rect x="95.3" y="172.2" width="14.5" height="5.5" fill="#008300"/>
<rect x="121.8" y="155.7" width="14.5" height="21.9" fill="none" stroke="#e66767" stroke-width="1.3"/>
<rect x="148.2" y="141.1" width="14.5" height="14.6" fill="none" stroke="#e66767" stroke-width="1.3"/>
<rect x="174.7" y="141.1" width="14.5" height="30.2" fill="#008300"/>
<rect x="201.1" y="140.2" width="14.5" height="31.1" fill="none" stroke="#e66767" stroke-width="1.3"/>
<rect x="227.6" y="140.2" width="14.5" height="66.8" fill="#008300"/>
<rect x="254.0" y="172.2" width="14.5" height="34.8" fill="none" stroke="#e66767" stroke-width="1.3"/>
<rect x="280.5" y="172.2" width="14.5" height="11.0" fill="#008300"/>
<rect x="306.9" y="183.2" width="14.5" height="18.3" fill="#008300"/>
<rect x="333.4" y="178.6" width="14.5" height="22.9" fill="none" stroke="#e66767" stroke-width="1.3"/>
<rect x="359.8" y="169.4" width="14.5" height="9.1" fill="none" stroke="#e66767" stroke-width="1.3"/>
<rect x="386.3" y="169.4" width="14.5" height="27.4" fill="#008300"/>
<rect x="412.7" y="190.5" width="14.5" height="6.4" fill="none" stroke="#e66767" stroke-width="1.3"/>
<rect x="439.2" y="190.5" width="14.5" height="1.2" fill="#898781"/>
<rect x="465.6" y="190.5" width="14.5" height="11.9" fill="#008300"/>
<rect x="492.1" y="181.3" width="14.5" height="21.0" fill="none" stroke="#e66767" stroke-width="1.3"/>
<rect x="518.5" y="180.4" width="14.5" height="1.2" fill="none" stroke="#e66767" stroke-width="1.3"/>
<rect x="545.0" y="124.6" width="14.5" height="55.8" fill="none" stroke="#e66767" stroke-width="1.3"/>
<rect x="571.4" y="124.6" width="14.5" height="48.5" fill="#008300"/>
<rect x="597.9" y="173.1" width="14.5" height="17.4" fill="#008300"/>
<rect x="624.3" y="182.2" width="14.5" height="8.2" fill="none" stroke="#e66767" stroke-width="1.3"/>
<rect x="650.8" y="152.1" width="14.5" height="30.2" fill="none" stroke="#e66767" stroke-width="1.3"/>
<rect x="677.2" y="133.8" width="14.5" height="18.3" fill="none" stroke="#e66767" stroke-width="1.3"/>
<rect x="703.7" y="133.8" width="14.5" height="9.1" fill="#008300"/>
<rect x="730.1" y="119.1" width="14.5" height="23.8" fill="none" stroke="#e66767" stroke-width="1.3"/>
<rect x="756.6" y="119.1" width="14.5" height="141.8" fill="#008300"/>
<rect x="783.0" y="125.5" width="14.5" height="135.4" fill="none" stroke="#e66767" stroke-width="1.3"/>
<rect x="809.5" y="79.8" width="14.5" height="45.7" fill="none" stroke="#e66767" stroke-width="1.3"/>
<circle cx="816.8" cy="79.8" r="2" fill="#c3c2b7"/>
<line x1="816.8" y1="79.8" x2="808.8" y2="79.8" stroke="#c3c2b7" stroke-width="1.0"/>
<text x="805.8" y="83.8" font-size="11.0" fill="#c3c2b7" text-anchor="end">302</text>
<circle cx="23.2" cy="356.0" r="2" fill="#c3c2b7"/>
<line x1="23.2" y1="356.0" x2="31.2" y2="356.0" stroke="#c3c2b7" stroke-width="1.0"/>
<text x="34.2" y="350.0" font-size="11.0" fill="#c3c2b7">0</text>
<text x="14.0" y="376.0" font-size="11.0" fill="#c3c2b7">VOL 28 forks</text>
<text x="96.6" y="376.0" font-size="11.0" fill="#c98500">MA5:18.6</text>
<text x="155.0" y="376.0" font-size="11.0" fill="#3987e5">MA10:15.8</text>
<text x="14.0" y="395.0" font-size="10" fill="#898781">28</text>
<rect x="16.0" y="431.9" width="14.5" height="38.1" fill="none" stroke="#e66767" stroke-width="1.1"/>
<rect x="42.4" y="437.8" width="14.5" height="32.2" fill="#008300"/>
<rect x="68.9" y="423.1" width="14.5" height="46.9" fill="none" stroke="#e66767" stroke-width="1.1"/>
<rect x="95.3" y="449.5" width="14.5" height="20.5" fill="#008300"/>
<rect x="121.8" y="417.3" width="14.5" height="52.7" fill="none" stroke="#e66767" stroke-width="1.1"/>
<rect x="148.2" y="411.4" width="14.5" height="58.6" fill="none" stroke="#e66767" stroke-width="1.1"/>
<rect x="174.7" y="434.9" width="14.5" height="35.1" fill="#008300"/>
<rect x="201.1" y="437.8" width="14.5" height="32.2" fill="none" stroke="#e66767" stroke-width="1.1"/>
<rect x="227.6" y="434.9" width="14.5" height="35.1" fill="#008300"/>
<rect x="254.0" y="449.5" width="14.5" height="20.5" fill="none" stroke="#e66767" stroke-width="1.1"/>
<rect x="280.5" y="452.4" width="14.5" height="17.6" fill="#008300"/>
<rect x="306.9" y="437.8" width="14.5" height="32.2" fill="#008300"/>
<rect x="333.4" y="429.0" width="14.5" height="41.0" fill="none" stroke="#e66767" stroke-width="1.1"/>
<rect x="359.8" y="452.4" width="14.5" height="17.6" fill="none" stroke="#e66767" stroke-width="1.1"/>
<rect x="386.3" y="449.5" width="14.5" height="20.5" fill="#008300"/>
<rect x="412.7" y="440.7" width="14.5" height="29.3" fill="none" stroke="#e66767" stroke-width="1.1"/>
<rect x="439.2" y="437.8" width="14.5" height="32.2" fill="#898781"/>
<rect x="465.6" y="446.6" width="14.5" height="23.4" fill="#008300"/>
<rect x="492.1" y="467.1" width="14.5" height="2.9" fill="none" stroke="#e66767" stroke-width="1.1"/>
<rect x="518.5" y="440.7" width="14.5" height="29.3" fill="none" stroke="#e66767" stroke-width="1.1"/>
<rect x="545.0" y="414.4" width="14.5" height="55.6" fill="none" stroke="#e66767" stroke-width="1.1"/>
<rect x="571.4" y="434.9" width="14.5" height="35.1" fill="#008300"/>
<rect x="597.9" y="446.6" width="14.5" height="23.4" fill="#008300"/>
<rect x="624.3" y="446.6" width="14.5" height="23.4" fill="none" stroke="#e66767" stroke-width="1.1"/>
<rect x="650.8" y="434.9" width="14.5" height="35.1" fill="none" stroke="#e66767" stroke-width="1.1"/>
<rect x="677.2" y="396.8" width="14.5" height="73.2" fill="none" stroke="#e66767" stroke-width="1.1"/>
<rect x="703.7" y="414.4" width="14.5" height="55.6" fill="#008300"/>
<rect x="730.1" y="420.2" width="14.5" height="49.8" fill="none" stroke="#e66767" stroke-width="1.1"/>
<rect x="756.6" y="437.8" width="14.5" height="32.2" fill="#008300"/>
<rect x="783.0" y="417.3" width="14.5" height="52.7" fill="none" stroke="#e66767" stroke-width="1.1"/>
<rect x="809.5" y="388.0" width="14.5" height="82.0" fill="none" stroke="#e66767" stroke-width="1.1"/>
<polyline points="261.3,432.8 287.7,434.9 314.2,434.9 340.6,435.4 367.1,435.7 393.5,439.0 420.0,441.9 446.5,442.2 472.9,443.1 499.4,446.3 525.8,445.4 552.3,441.6 578.7,441.3 605.2,443.1 631.6,442.5 658.1,441.0 684.5,436.6 711.0,434.3 737.4,431.6 763.9,428.7 790.3,426.4 816.8,423.7" fill="none" stroke="#3987e5" stroke-width="1.5" stroke-linejoin="round" stroke-linecap="round"/>
<polyline points="129.0,431.9 155.5,427.8 181.9,427.2 208.4,430.2 234.8,427.2 261.3,433.7 287.7,441.9 314.2,442.5 340.6,440.7 367.1,444.2 393.5,444.2 420.0,441.9 446.5,441.9 472.9,445.4 499.4,448.3 525.8,446.6 552.3,441.3 578.7,440.7 605.2,440.7 631.6,436.6 658.1,435.4 684.5,431.9 711.0,427.8 737.4,422.6 763.9,420.8 790.3,417.3 816.8,415.5" fill="none" stroke="#c98500" stroke-width="1.5" stroke-linejoin="round" stroke-linecap="round"/>
</svg>