<svg xmlns="http://www.w3.org/2000/svg" viewBox="0 0 840 496" width="840" height="496" font-family="-apple-system,&#39;Segoe UI&#39;,system-ui,sans-serif" role="img" aria-label="awesome-selfhosted/awesome-selfhosted candlestick chart">
<text x="14.0" y="20.0" font-size="15" fill="#0b0b0b" font-weight="650">awesome-selfhosted/awesome-selfhosted</text>
<text x="323.2" y="20.0" font-size="11.5" fill="#52514e">daily · new stars, volume = new forks</text>
<text x="805.8" y="20.0" font-size="11.0" fill="#52514e">fall</text>
<rect x="791" y="10" width="9" height="12" fill="#008300"/>
<text x="750.6" y="20.0" font-size="11.0" fill="#52514e">rise</text>
<rect x="736" y="10" width="9" height="12" fill="none" stroke="#e34948" stroke-width="1.5"/>
<text x="14.0" y="38.0" font-size="11.0" fill="#898781">last 52 days · +11,631 stars · +676 forks · updated 2026-07-30</text>
<rect x="10" y="66" width="820" height="290" fill="none" stroke="#e1e0d9"/>
<rect x="10" y="384" width="820" height="86" fill="none" stroke="#e1e0d9"/>
<text x="38.0" y="490.0" font-size="11.0" fill="#898781" text-anchor="middle">2026-06</text>
<line x1="356.9" y1="66.0" x2="356.9" y2="356.0" stroke="#e1e0d9" stroke-width="1.0"/>
<line x1="356.9" y1="384.0" x2="356.9" y2="470.0" stroke="#e1e0d9" stroke-width="1.0"/>
<text x="364.8" y="490.0" font-size="11.0" fill="#898781" text-anchor="middle">2026-07</text>
<text x="14.0" y="58.0" font-size="11.0" fill="#52514e">BOLL(20,2)</text>
<text x="84.5" y="58.0" font-size="11.0" fill="#eda100">UP:316.7</text>
<text x="142.9" y="58.0" font-size="11.0" fill="#2a78d6">MID:250.2</text>
<text x="207.4" y="58.0" font-size="11.0" fill="#e87ba4">LOW:183.7</text>
<text x="271.8" y="58.0" font-size="11.0" fill="#4a3aa7">MA7:247.6</text>
<line x1="10.0" y1="356.0" x2="830.0" y2="356.0" stroke="#e1e0d9" stroke-width="1.0"/>
<text x="14.0" y="353.0" font-size="11.0" fill="#898781">0</text>
<line x1="10.0" y1="274.2" x2="830.0" y2="274.2" stroke="#e1e0d9" stroke-width="1.0"/>
<text x="14.0" y="271.2" font-size="11.0" fill="#898781">100</text>
<line x1="10.0" y1="192.3" x2="830.0" y2="192.3" stroke="#e1e0d9" stroke-width="1.0"/>
<text x="14.0" y="189.3" font-size="11.0" fill="#898781">200</text>
<line x1="10.0" y1="110.5" x2="830.0" y2="110.5" stroke="#e1e0d9" stroke-width="1.0"/>
<text x="14.0" y="107.5" font-size="11.0" fill="#898781">300</text>
<polyline points="317.5,157.7 333.3,157.0 349.0,156.7 364.8,157.1 380.6,157.2 396.3,156.7 412.1,155.2 427.9,151.9 443.7,147.6 459.4,139.8 475.2,134.3 491.0,119.4 506.7,115.4 522.5,109.1 538.3,106.8 554.0,102.3 569.8,95.8 585.6,94.9 601.3,95.8 617.1,95.8 632.9,93.5 648.7,87.7 664.4,86.4 680.2,87.8 696.0,88.8 711.7,88.8 727.5,88.9 743.3,79.9 759.0,79.8 774.8,99.5 790.6,93.7 806.3,98.7 822.1,96.9" fill="none" stroke="#eda100" stroke-width="1.5" stroke-linejoin="round" stroke-linecap="round"/>
<polyline points="317.5,195.0 333.3,194.9 349.0,194.5 364.8,195.3 380.6,195.5 396.3,195.3 412.1,195.0 427.9,193.7 443.7,192.8 459.4,195.2 475.2,193.1 491.0,188.5 506.7,185.1 522.5,182.0 538.3,180.4 554.0,176.5 569.8,172.2 585.6,169.7 601.3,167.2 617.1,165.6 632.9,162.6 648.7,160.5 664.4,158.1 680.2,156.9 696.0,155.2 711.7,154.9 727.5,155.0 743.3,151.3 759.0,151.2 774.8,145.3 790.6,148.6 806.3,152.3 822.1,151.3" fill="none" stroke="#2a78d6" stroke-width="1.5" stroke-linejoin="round" stroke-linecap="round"/>
<polyline points="317.5,232.3 333.3,232.7 349.0,232.3 364.8,233.5 380.6,233.8 396.3,233.9 412.1,234.8 427.9,235.5 443.7,238.0 459.4,250.6 475.2,251.9 491.0,257.6 506.7,254.8 522.5,254.8 538.3,253.9 554.0,250.8 569.8,248.6 585.6,244.5 601.3,238.6 617.1,235.4 632.9,231.6 648.7,233.3 664.4,229.7 680.2,226.1 696.0,221.5 711.7,220.9 727.5,221.1 743.3,222.7 759.0,222.6 774.8,191.1 790.6,203.4 806.3,205.8 822.1,205.7" fill="none" stroke="#e87ba4" stroke-width="1.5" stroke-linejoin="round" stroke-linecap="round"/>
<polyline points="112.5,181.6 128.3,183.3 144.0,186.4 159.8,186.4 175.6,187.1 191.3,192.9 207.1,197.7 222.9,197.5 238.7,204.7 254.4,202.7 270.2,204.9 286.0,207.4 301.7,204.9 317.5,205.1 333.3,199.4 349.0,196.4 364.8,196.4 380.6,195.3 396.3,188.8 412.1,182.8 427.9,177.9 443.7,177.3 459.4,188.5 475.2,180.2 491.0,167.1 506.7,163.7 522.5,160.4 538.3,159.3 554.0,158.2 569.8,136.9 585.6,138.1 601.3,146.5 617.1,149.1 632.9,149.7 648.7,142.7 664.4,143.6 680.2,152.6 696.0,153.6 711.7,153.6 727.5,152.5 743.3,145.8 759.0,150.7 774.8,152.2 790.6,156.3 806.3,158.8 822.1,153.4" fill="none" stroke="#4a3aa7" stroke-width="1.5" stroke-linejoin="round" stroke-linecap="round"/>
<rect x="13.5" y="151.4" width="8.7" height="204.6" fill="none" stroke="#e34948" stroke-width="1.3"/>
<rect x="29.3" y="151.4" width="8.7" height="49.1" fill="#008300"/>
<rect x="45.1" y="191.5" width="8.7" height="9.0" fill="none" stroke="#e34948" stroke-width="1.3"/>
<rect x="60.9" y="191.5" width="8.7" height="4.9" fill="#008300"/>
<rect x="76.6" y="176.8" width="8.7" height="19.6" fill="none" stroke="#e34948" stroke-width="1.3"/>
<rect x="92.4" y="163.7" width="8.7" height="13.1" fill="none" stroke="#e34948" stroke-width="1.3"/>
<rect x="108.2" y="163.7" width="8.7" height="27.0" fill="#008300"/>
<rect x="123.9" y="162.9" width="8.7" height="27.8" fill="none" stroke="#e34948" stroke-width="1.3"/>
<rect x="139.7" y="162.9" width="8.7" height="59.7" fill="#008300"/>
<rect x="155.5" y="191.5" width="8.7" height="31.1" fill="none" stroke="#e34948" stroke-width="1.3"/>
<rect x="171.2" y="191.5" width="8.7" height="9.8" fill="#008300"/>
<rect x="187.0" y="201.3" width="8.7" height="16.4" fill="#008300"/>
<rect x="202.8" y="197.3" width="8.7" height="20.5" fill="none" stroke="#e34948" stroke-width="1.3"/>
<rect x="218.5" y="189.1" width="8.7" height="8.2" fill="none" stroke="#e34948" stroke-width="1.3"/>
<rect x="234.3" y="189.1" width="8.7" height="24.5" fill="#008300"/>
<rect x="250.1" y="207.9" width="8.7" height="5.7" fill="none" stroke="#e34948" stroke-width="1.3"/>
<rect x="265.9" y="207.9" width="8.7" height="1.2" fill="#898781"/>
<rect x="281.6" y="207.9" width="8.7" height="10.6" fill="#008300"/>
<rect x="297.4" y="199.7" width="8.7" height="18.8" fill="none" stroke="#e34948" stroke-width="1.3"/>
<rect x="313.2" y="198.9" width="8.7" height="1.2" fill="none" stroke="#e34948" stroke-width="1.3"/>
<rect x="328.9" y="149.0" width="8.7" height="49.9" fill="none" stroke="#e34948" stroke-width="1.3"/>
<rect x="344.7" y="149.0" width="8.7" height="43.4" fill="#008300"/>
<rect x="360.5" y="192.3" width="8.7" height="15.5" fill="#008300"/>
<rect x="376.2" y="200.5" width="8.7" height="7.4" fill="none" stroke="#e34948" stroke-width="1.3"/>
<rect x="392.0" y="173.5" width="8.7" height="27.0" fill="none" stroke="#e34948" stroke-width="1.3"/>
<rect x="407.8" y="157.2" width="8.7" height="16.4" fill="none" stroke="#e34948" stroke-width="1.3"/>
<rect x="423.5" y="157.2" width="8.7" height="8.2" fill="#008300"/>
<rect x="439.3" y="144.1" width="8.7" height="21.3" fill="none" stroke="#e34948" stroke-width="1.3"/>
<rect x="455.1" y="144.1" width="8.7" height="126.8" fill="#008300"/>
<rect x="470.9" y="149.8" width="8.7" height="121.1" fill="none" stroke="#e34948" stroke-width="1.3"/>
<rect x="486.6" y="108.9" width="8.7" height="40.9" fill="none" stroke="#e34948" stroke-width="1.3"/>
<rect x="502.4" y="108.9" width="8.7" height="40.9" fill="#008300"/>
<rect x="518.2" y="134.2" width="8.7" height="15.5" fill="none" stroke="#e34948" stroke-width="1.3"/>
<rect x="533.9" y="134.2" width="8.7" height="22.9" fill="#008300"/>
<rect x="549.7" y="136.7" width="8.7" height="20.5" fill="none" stroke="#e34948" stroke-width="1.3"/>
<rect x="565.5" y="122.0" width="8.7" height="14.7" fill="none" stroke="#e34948" stroke-width="1.3"/>
<rect x="581.2" y="122.0" width="8.7" height="36.0" fill="#008300"/>
<rect x="597.0" y="158.0" width="8.7" height="9.8" fill="#008300"/>
<rect x="612.8" y="167.8" width="8.7" height="1.2" fill="#898781"/>
<rect x="628.5" y="138.3" width="8.7" height="29.5" fill="none" stroke="#e34948" stroke-width="1.3"/>
<rect x="644.3" y="108.1" width="8.7" height="30.3" fill="none" stroke="#e34948" stroke-width="1.3"/>
<rect x="660.1" y="108.1" width="8.7" height="35.2" fill="#008300"/>
<rect x="675.9" y="143.2" width="8.7" height="41.7" fill="#008300"/>
<rect x="691.6" y="165.3" width="8.7" height="19.6" fill="none" stroke="#e34948" stroke-width="1.3"/>
<rect x="707.4" y="165.3" width="8.7" height="2.5" fill="#008300"/>
<rect x="723.2" y="159.6" width="8.7" height="8.2" fill="none" stroke="#e34948" stroke-width="1.3"/>
<rect x="738.9" y="91.7" width="8.7" height="67.9" fill="none" stroke="#e34948" stroke-width="1.3"/>
<rect x="754.7" y="91.7" width="8.7" height="50.7" fill="#008300"/>
<rect x="770.5" y="142.4" width="8.7" height="10.6" fill="#008300"/>
<rect x="786.2" y="153.1" width="8.7" height="61.4" fill="#008300"/>
<rect x="802.0" y="182.5" width="8.7" height="31.9" fill="none" stroke="#e34948" stroke-width="1.3"/>
<rect x="817.8" y="130.2" width="8.7" height="52.4" fill="none" stroke="#e34948" stroke-width="1.3"/>
<circle cx="743.3" cy="91.7" r="2" fill="#52514e"/>
<line x1="743.3" y1="91.7" x2="735.3" y2="91.7" stroke="#52514e" stroke-width="1.0"/>
<text x="732.3" y="95.7" font-size="11.0" fill="#52514e" text-anchor="end">323</text>
<circle cx="17.9" cy="356.0" r="2" fill="#52514e"/>
<line x1="17.9" y1="356.0" x2="25.9" y2="356.0" stroke="#52514e" stroke-width="1.0"/>
<text x="28.9" y="350.0" font-size="11.0" fill="#52514e">0</text>
<text x="14.0" y="376.0" font-size="11.0" fill="#52514e">VOL 15 forks</text>
<text x="96.6" y="376.0" font-size="11.0" fill="#eda100">MA5:9.6</text>
<text x="149.0" y="376.0" font-size="11.0" fill="#2a78d6">MA10:11.1</text>
<text x="14.0" y="395.0" font-size="10" fill="#898781">28</text>
<rect x="13.5" y="431.9" width="8.7" height="38.1" fill="none" stroke="#e34948" stroke-width="1.1"/>
<rect x="29.3" y="437.8" width="8.7" height="32.2" fill="#008300"/>
<rect x="45.1" y="423.1" width="8.7" height="46.9" fill="none" stroke="#e34948" stroke-width="1.1"/>
<rect x="60.9" y="449.5" width="8.7" height="20.5" fill="#008300"/>
<rect x="76.6" y="417.3" width="8.7" height="52.7" fill="none" stroke="#e34948" stroke-width="1.1"/>
<rect x="92.4" y="411.4" width="8.7" height="58.6" fill="none" stroke="#e34948" stroke-width="1.1"/>
<rect x="108.2" y="434.9" width="8.7" height="35.1" fill="#008300"/>
<rect x="123.9" y="437.8" width="8.7" height="32.2" fill="none" stroke="#e34948" stroke-width="1.1"/>
<rect x="139.7" y="434.9" width="8.7" height="35.1" fill="#008300"/>
<rect x="155.5" y="449.5" width="8.7" height="20.5" fill="none" stroke="#e34948" stroke-width="1.1"/>
<rect x="171.2" y="452.4" width="8.7" height="17.6" fill="#008300"/>
<rect x="187.0" y="437.8" width="8.7" height="32.2" fill="#008300"/>
<rect x="202.8" y="429.0" width="8.7" height="41.0" fill="none" stroke="#e34948" stroke-width="1.1"/>
<rect x="218.5" y="452.4" width="8.7" height="17.6" fill="none" stroke="#e34948" stroke-width="1.1"/>
<rect x="234.3" y="449.5" width="8.7" height="20.5" fill="#008300"/>
<rect x="250.1" y="440.7" width="8.7" height="29.3" fill="none" stroke="#e34948" stroke-width="1.1"/>
<rect x="265.9" y="437.8" width="8.7" height="32.2" fill="#898781"/>
<rect x="281.6" y="446.6" width="8.7" height="23.4" fill="#008300"/>
<rect x="297.4" y="467.1" width="8.7" height="2.9" fill="none" stroke="#e34948" stroke-width="1.1"/>
<rect x="313.2" y="440.7" width="8.7" height="29.3" fill="none" stroke="#e34948" stroke-width="1.1"/>
<rect x="328.9" y="414.4" width="8.7" height="55.6" fill="none" stroke="#e34948" stroke-width="1.1"/>
<rect x="344.7" y="434.9" width="8.7" height="35.1" fill="#008300"/>
<rect x="360.5" y="446.6" width="8.7" height="23.4" fill="#008300"/>
<rect x="376.2" y="446.6" width="8.7" height="23.4" fill="none" stroke="#e34948" stroke-width="1.1"/>
<rect x="392.0" y="434.9" width="8.7" height="35.1" fill="none" stroke="#e34948" stroke-width="1.1"/>
<rect x="407.8" y="396.8" width="8.7" height="73.2" fill="none" stroke="#e34948" stroke-width="1.1"/>
<rect x="423.5" y="414.4" width="8.7" height="55.6" fill="#008300"/>
<rect x="439.3" y="420.2" width="8.7" height="49.8" fill="none" stroke="#e34948" stroke-width="1.1"/>
<rect x="455.1" y="437.8" width="8.7" height="32.2" fill="#008300"/>
<rect x="470.9" y="417.3" width="8.7" height="52.7" fill="none" stroke="#e34948" stroke-width="1.1"/>
<rect x="486.6" y="388.0" width="8.7" height="82.0" fill="none" stroke="#e34948" stroke-width="1.1"/>
<rect x="502.4" y="408.5" width="8.7" height="61.5" fill="#008300"/>
<rect x="518.2" y="388.0" width="8.7" height="82.0" fill="none" stroke="#e34948" stroke-width="1.1"/>
<rect x="533.9" y="423.1" width="8.7" height="46.9" fill="#008300"/>
<rect x="549.7" y="434.9" width="8.7" height="35.1" fill="none" stroke="#e34948" stroke-width="1.1"/>
<rect x="565.5" y="411.4" width="8.7" height="58.6" fill="none" stroke="#e34948" stroke-width="1.1"/>
<rect x="581.2" y="429.0" width="8.7" height="41.0" fill="#008300"/>
<rect x="597.0" y="437.8" width="8.7" height="32.2" fill="#008300"/>
<rect x="612.8" y="420.2" width="8.7" height="49.8" fill="#898781"/>
<rect x="628.5" y="443.6" width="8.7" height="26.4" fill="none" stroke="#e34948" stroke-width="1.1"/>
<rect x="644.3" y="426.1" width="8.7" height="43.9" fill="none" stroke="#e34948" stroke-width="1.1"/>
<rect x="660.1" y="429.0" width="8.7" height="41.0" fill="#008300"/>
<rect x="675.9" y="431.9" width="8.7" height="38.1" fill="#008300"/>
<rect x="691.6" y="429.0" width="8.7" height="41.0" fill="none" stroke="#e34948" stroke-width="1.1"/>
<rect x="707.4" y="437.8" width="8.7" height="32.2" fill="#008300"/>
<rect x="723.2" y="440.7" width="8.7" height="29.3" fill="none" stroke="#e34948" stroke-width="1.1"/>
<rect x="738.9" y="426.1" width="8.7" height="43.9" fill="none" stroke="#e34948" stroke-width="1.1"/>
<rect x="754.7" y="440.7" width="8.7" height="29.3" fill="#008300"/>
<rect x="770.5" y="434.9" width="8.7" height="35.1" fill="#008300"/>
<rect x="786.2" y="458.3" width="8.7" height="11.7" fill="#008300"/>
<rect x="802.0" y="449.5" width="8.7" height="20.5" fill="none" stroke="#e34948" stroke-width="1.1"/>
<rect x="817.8" y="426.1" width="8.7" height="43.9" fill="none" stroke="#e34948" stroke-width="1.1"/>
<polyline points="159.8,432.8 175.6,434.9 191.3,434.9 207.1,435.4 222.9,435.7 238.7,439.0 254.4,441.9 270.2,442.2 286.0,443.1 301.7,446.3 317.5,445.4 333.3,441.6 349.0,441.3 364.8,443.1 380.6,442.5 396.3,441.0 412.1,436.6 427.9,434.3 443.7,431.6 459.4,428.7 475.2,426.4 491.0,423.7 506.7,421.1 522.5,415.2 538.3,412.9 554.0,412.9 569.8,414.4 585.6,415.8 601.3,417.6 617.1,415.8 632.9,418.5 648.7,422.3 664.4,424.3 680.2,428.7 696.0,429.3 711.7,429.6 727.5,432.5 743.3,432.2 759.0,432.5 774.8,434.0 790.6,435.4 806.3,437.8 822.1,437.5" fill="none" stroke="#2a78d6" stroke-width="1.5" stroke-linejoin="round" stroke-linecap="round"/>
<polyline points="81.0,431.9 96.7,427.8 112.5,427.2 128.3,430.2 144.0,427.2 159.8,433.7 175.6,441.9 191.3,442.5 207.1,440.7 222.9,444.2 238.7,444.2 254.4,441.9 270.2,441.9 286.0,445.4 301.7,448.3 317.5,446.6 333.3,441.3 349.0,440.7 364.8,440.7 380.6,436.6 396.3,435.4 412.1,431.9 427.9,427.8 443.7,422.6 459.4,420.8 475.2,417.3 491.0,415.5 506.7,414.4 522.5,407.9 538.3,405.0 554.0,408.5 569.8,413.2 585.6,417.3 601.3,427.2 617.1,426.7 632.9,428.4 648.7,431.3 664.4,431.3 680.2,430.2 696.0,431.9 711.7,430.8 727.5,433.7 743.3,433.1 759.0,434.9 774.8,436.0 790.6,440.1 806.3,441.9 822.1,441.9" fill="none" stroke="#eda100" stroke-width="1.5" stroke-linejoin="round" stroke-linecap="round"/>
</svg>