<svg xmlns="http://www.w3.org/2000/svg" viewBox="0 0 840 496" width="840" height="496" font-family="-apple-system,&#39;Segoe UI&#39;,system-ui,sans-serif" role="img" aria-label="awesome-selfhosted/awesome-selfhosted candlestick chart">
<text x="14.0" y="20.0" font-size="15" fill="#0b0b0b" font-weight="650">awesome-selfhosted/awesome-selfhosted</text>
<text x="323.2" y="20.0" font-size="11.5" fill="#52514e">daily · new stars, volume = new forks</text>
<text x="805.8" y="20.0" font-size="11.0" fill="#52514e">fall</text>
<rect x="791" y="10" width="9" height="12" fill="#008300"/>
<text x="750.6" y="20.0" font-size="11.0" fill="#52514e">rise</text>
<rect x="736" y="10" width="9" height="12" fill="none" stroke="#e34948" stroke-width="1.5"/>
<text x="14.0" y="38.0" font-size="11.0" fill="#898781">last 29 days · +5,821 stars · +342 forks · updated 2026-07-07</text>
<rect x="10" y="66" width="820" height="290" fill="none" stroke="#e1e0d9"/>
<rect x="10" y="384" width="820" height="86" fill="none" stroke="#e1e0d9"/>
<text x="38.0" y="490.0" font-size="11.0" fill="#898781" text-anchor="middle">2026-06</text>
<line x1="632.1" y1="66.0" x2="632.1" y2="356.0" stroke="#e1e0d9" stroke-width="1.0"/>
<line x1="632.1" y1="384.0" x2="632.1" y2="470.0" stroke="#e1e0d9" stroke-width="1.0"/>
<text x="646.2" y="490.0" font-size="11.0" fill="#898781" text-anchor="middle">2026-07</text>
<text x="14.0" y="58.0" font-size="11.0" fill="#52514e">BOLL(20,2)</text>
<text x="84.5" y="58.0" font-size="11.0" fill="#eda100">UP:264.2</text>
<text x="142.9" y="58.0" font-size="11.0" fill="#2a78d6">MID:196.5</text>
<text x="207.4" y="58.0" font-size="11.0" fill="#e87ba4">LOW:128.8</text>
<text x="271.8" y="58.0" font-size="11.0" fill="#4a3aa7">MA7:204.7</text>
<line x1="10.0" y1="356.0" x2="830.0" y2="356.0" stroke="#e1e0d9" stroke-width="1.0"/>
<text x="14.0" y="353.0" font-size="11.0" fill="#898781">0</text>
<line x1="10.0" y1="251.4" x2="830.0" y2="251.4" stroke="#e1e0d9" stroke-width="1.0"/>
<text x="14.0" y="248.4" font-size="11.0" fill="#898781">100</text>
<line x1="10.0" y1="146.9" x2="830.0" y2="146.9" stroke="#e1e0d9" stroke-width="1.0"/>
<text x="14.0" y="143.9" font-size="11.0" fill="#898781">200</text>
<polyline points="561.4,102.7 589.7,101.8 617.9,101.3 646.2,101.8 674.5,102.0 702.8,101.4 731.0,99.5 759.3,95.3 787.6,89.7 815.9,79.8" fill="none" stroke="#eda100" stroke-width="1.5" stroke-linejoin="round" stroke-linecap="round"/>
<polyline points="561.4,150.3 589.7,150.1 617.9,149.6 646.2,150.7 674.5,150.9 702.8,150.7 731.0,150.3 759.3,148.7 787.6,147.5 815.9,150.6" fill="none" stroke="#2a78d6" stroke-width="1.5" stroke-linejoin="round" stroke-linecap="round"/>
<polyline points="561.4,197.9 589.7,198.5 617.9,197.9 646.2,199.5 674.5,199.8 702.8,200.0 731.0,201.1 759.3,202.1 787.6,205.3 815.9,221.3" fill="none" stroke="#e87ba4" stroke-width="1.5" stroke-linejoin="round" stroke-linecap="round"/>
<polyline points="193.8,133.2 222.1,135.3 250.3,139.3 278.6,139.3 306.9,140.2 335.2,147.6 363.4,153.8 391.7,153.5 420.0,162.7 448.3,160.1 476.6,163.0 504.8,166.1 533.1,162.9 561.4,163.2 589.7,155.9 617.9,152.0 646.2,152.0 674.5,150.7 702.8,142.4 731.0,134.7 759.3,128.5 787.6,127.7 815.9,142.0" fill="none" stroke="#4a3aa7" stroke-width="1.5" stroke-linejoin="round" stroke-linecap="round"/>
<rect x="16.4" y="94.6" width="15.6" height="261.4" fill="none" stroke="#e34948" stroke-width="1.3"/>
<rect x="44.6" y="94.6" width="15.6" height="62.7" fill="#008300"/>
<rect x="72.9" y="145.8" width="15.6" height="11.5" fill="none" stroke="#e34948" stroke-width="1.3"/>
<rect x="101.2" y="145.8" width="15.6" height="6.3" fill="#008300"/>
<rect x="129.5" y="127.0" width="15.6" height="25.1" fill="none" stroke="#e34948" stroke-width="1.3"/>
<rect x="157.7" y="110.3" width="15.6" height="16.7" fill="none" stroke="#e34948" stroke-width="1.3"/>
<rect x="186.0" y="110.3" width="15.6" height="34.5" fill="#008300"/>
<rect x="214.3" y="109.3" width="15.6" height="35.5" fill="none" stroke="#e34948" stroke-width="1.3"/>
<rect x="242.6" y="109.3" width="15.6" height="76.3" fill="#008300"/>
<rect x="270.8" y="145.8" width="15.6" height="39.7" fill="none" stroke="#e34948" stroke-width="1.3"/>
<rect x="299.1" y="145.8" width="15.6" height="12.5" fill="#008300"/>
<rect x="327.4" y="158.4" width="15.6" height="20.9" fill="#008300"/>
<rect x="355.7" y="153.2" width="15.6" height="26.1" fill="none" stroke="#e34948" stroke-width="1.3"/>
<rect x="383.9" y="142.7" width="15.6" height="10.5" fill="none" stroke="#e34948" stroke-width="1.3"/>
<rect x="412.2" y="142.7" width="15.6" height="31.4" fill="#008300"/>
<rect x="440.5" y="166.8" width="15.6" height="7.3" fill="none" stroke="#e34948" stroke-width="1.3"/>
<rect x="468.8" y="166.8" width="15.6" height="1.2" fill="#898781"/>
<rect x="497.1" y="166.8" width="15.6" height="13.6" fill="#008300"/>
<rect x="525.3" y="156.3" width="15.6" height="24.0" fill="none" stroke="#e34948" stroke-width="1.3"/>
<rect x="553.6" y="155.3" width="15.6" height="1.2" fill="none" stroke="#e34948" stroke-width="1.3"/>
<rect x="581.9" y="91.5" width="15.6" height="63.8" fill="none" stroke="#e34948" stroke-width="1.3"/>
<rect x="610.2" y="91.5" width="15.6" height="55.4" fill="#008300"/>
<rect x="638.4" y="146.9" width="15.6" height="19.9" fill="#008300"/>
<rect x="666.7" y="157.3" width="15.6" height="9.4" fill="none" stroke="#e34948" stroke-width="1.3"/>
<rect x="695.0" y="122.8" width="15.6" height="34.5" fill="none" stroke="#e34948" stroke-width="1.3"/>
<rect x="723.3" y="101.9" width="15.6" height="20.9" fill="none" stroke="#e34948" stroke-width="1.3"/>
<rect x="751.5" y="101.9" width="15.6" height="10.5" fill="#008300"/>
<rect x="779.8" y="85.2" width="15.6" height="27.2" fill="none" stroke="#e34948" stroke-width="1.3"/>
<rect x="808.1" y="85.2" width="15.6" height="162.1" fill="#008300"/>
<circle cx="787.6" cy="85.2" r="2" fill="#52514e"/>
<line x1="787.6" y1="85.2" x2="779.6" y2="85.2" stroke="#52514e" stroke-width="1.0"/>
<text x="776.6" y="89.2" font-size="11.0" fill="#52514e" text-anchor="end">259</text>
<circle cx="24.1" cy="356.0" r="2" fill="#52514e"/>
<line x1="24.1" y1="356.0" x2="32.1" y2="356.0" stroke="#52514e" stroke-width="1.0"/>
<text x="35.1" y="350.0" font-size="11.0" fill="#52514e">0</text>
<text x="14.0" y="376.0" font-size="11.0" fill="#52514e">VOL 11 forks</text>
<text x="96.6" y="376.0" font-size="11.0" fill="#eda100">MA5:16.8</text>
<text x="155.0" y="376.0" font-size="11.0" fill="#2a78d6">MA10:14.1</text>
<text x="14.0" y="395.0" font-size="10" fill="#898781">25</text>
<rect x="16.4" y="427.4" width="15.6" height="42.6" fill="none" stroke="#e34948" stroke-width="1.1"/>
<rect x="44.6" y="433.9" width="15.6" height="36.1" fill="#008300"/>
<rect x="72.9" y="417.5" width="15.6" height="52.5" fill="none" stroke="#e34948" stroke-width="1.1"/>
<rect x="101.2" y="447.0" width="15.6" height="23.0" fill="#008300"/>
<rect x="129.5" y="411.0" width="15.6" height="59.0" fill="none" stroke="#e34948" stroke-width="1.1"/>
<rect x="157.7" y="404.4" width="15.6" height="65.6" fill="none" stroke="#e34948" stroke-width="1.1"/>
<rect x="186.0" y="430.6" width="15.6" height="39.4" fill="#008300"/>
<rect x="214.3" y="433.9" width="15.6" height="36.1" fill="none" stroke="#e34948" stroke-width="1.1"/>
<rect x="242.6" y="430.6" width="15.6" height="39.4" fill="#008300"/>
<rect x="270.8" y="447.0" width="15.6" height="23.0" fill="none" stroke="#e34948" stroke-width="1.1"/>
<rect x="299.1" y="450.3" width="15.6" height="19.7" fill="#008300"/>
<rect x="327.4" y="433.9" width="15.6" height="36.1" fill="#008300"/>
<rect x="355.7" y="424.1" width="15.6" height="45.9" fill="none" stroke="#e34948" stroke-width="1.1"/>
<rect x="383.9" y="450.3" width="15.6" height="19.7" fill="none" stroke="#e34948" stroke-width="1.1"/>
<rect x="412.2" y="447.0" width="15.6" height="23.0" fill="#008300"/>
<rect x="440.5" y="437.2" width="15.6" height="32.8" fill="none" stroke="#e34948" stroke-width="1.1"/>
<rect x="468.8" y="433.9" width="15.6" height="36.1" fill="#898781"/>
<rect x="497.1" y="443.8" width="15.6" height="26.2" fill="#008300"/>
<rect x="525.3" y="466.7" width="15.6" height="3.3" fill="none" stroke="#e34948" stroke-width="1.1"/>
<rect x="553.6" y="437.2" width="15.6" height="32.8" fill="none" stroke="#e34948" stroke-width="1.1"/>
<rect x="581.9" y="407.7" width="15.6" height="62.3" fill="none" stroke="#e34948" stroke-width="1.1"/>
<rect x="610.2" y="430.6" width="15.6" height="39.4" fill="#008300"/>
<rect x="638.4" y="443.8" width="15.6" height="26.2" fill="#008300"/>
<rect x="666.7" y="443.8" width="15.6" height="26.2" fill="none" stroke="#e34948" stroke-width="1.1"/>
<rect x="695.0" y="430.6" width="15.6" height="39.4" fill="none" stroke="#e34948" stroke-width="1.1"/>
<rect x="723.3" y="388.0" width="15.6" height="82.0" fill="none" stroke="#e34948" stroke-width="1.1"/>
<rect x="751.5" y="407.7" width="15.6" height="62.3" fill="#008300"/>
<rect x="779.8" y="414.2" width="15.6" height="55.8" fill="none" stroke="#e34948" stroke-width="1.1"/>
<rect x="808.1" y="433.9" width="15.6" height="36.1" fill="#008300"/>
<polyline points="278.6,428.3 306.9,430.6 335.2,430.6 363.4,431.3 391.7,431.6 420.0,435.2 448.3,438.5 476.6,438.8 504.8,439.8 533.1,443.4 561.4,442.4 589.7,438.2 617.9,437.9 646.2,439.8 674.5,439.2 702.8,437.5 731.0,432.6 759.3,430.0 787.6,427.0 815.9,423.8" fill="none" stroke="#2a78d6" stroke-width="1.5" stroke-linejoin="round" stroke-linecap="round"/>
<polyline points="137.2,427.4 165.5,422.8 193.8,422.1 222.1,425.4 250.3,422.1 278.6,429.3 306.9,438.5 335.2,439.2 363.4,437.2 391.7,441.1 420.0,441.1 448.3,438.5 476.6,438.5 504.8,442.4 533.1,445.7 561.4,443.8 589.7,437.9 617.9,437.2 646.2,437.2 674.5,432.6 702.8,431.3 731.0,427.4 759.3,422.8 787.6,416.9 815.9,414.9" fill="none" stroke="#eda100" stroke-width="1.5" stroke-linejoin="round" stroke-linecap="round"/>
</svg>