<svg xmlns="http://www.w3.org/2000/svg" viewBox="0 0 840 496" width="840" height="496" font-family="-apple-system,&#39;Segoe UI&#39;,system-ui,sans-serif" role="img" aria-label="awesome-selfhosted/awesome-selfhosted candlestick chart">
<text x="14.0" y="20.0" font-size="15" fill="#0b0b0b" font-weight="650">awesome-selfhosted/awesome-selfhosted</text>
<text x="323.2" y="20.0" font-size="11.5" fill="#52514e">daily · new stars, volume = new forks</text>
<text x="805.8" y="20.0" font-size="11.0" fill="#52514e">fall</text>
<rect x="791" y="10" width="9" height="12" fill="#008300"/>
<text x="750.6" y="20.0" font-size="11.0" fill="#52514e">rise</text>
<rect x="736" y="10" width="9" height="12" fill="none" stroke="#e34948" stroke-width="1.5"/>
<text x="14.0" y="38.0" font-size="11.0" fill="#898781">last 33 days · +6,898 stars · +437 forks · updated 2026-07-11</text>
<rect x="10" y="66" width="820" height="290" fill="none" stroke="#e1e0d9"/>
<rect x="10" y="384" width="820" height="86" fill="none" stroke="#e1e0d9"/>
<text x="38.0" y="490.0" font-size="11.0" fill="#898781" text-anchor="middle">2026-06</text>
<line x1="556.7" y1="66.0" x2="556.7" y2="356.0" stroke="#e1e0d9" stroke-width="1.0"/>
<line x1="556.7" y1="384.0" x2="556.7" y2="470.0" stroke="#e1e0d9" stroke-width="1.0"/>
<text x="569.1" y="490.0" font-size="11.0" fill="#898781" text-anchor="middle">2026-07</text>
<text x="14.0" y="58.0" font-size="11.0" fill="#52514e">BOLL(20,2)</text>
<text x="84.5" y="58.0" font-size="11.0" fill="#eda100">UP:301.7</text>
<text x="142.9" y="58.0" font-size="11.0" fill="#2a78d6">MID:212.7</text>
<text x="207.4" y="58.0" font-size="11.0" fill="#e87ba4">LOW:123.7</text>
<text x="271.8" y="58.0" font-size="11.0" fill="#4a3aa7">MA7:239</text>
<line x1="10.0" y1="356.0" x2="830.0" y2="356.0" stroke="#e1e0d9" stroke-width="1.0"/>
<text x="14.0" y="353.0" font-size="11.0" fill="#898781">0</text>
<line x1="10.0" y1="264.5" x2="830.0" y2="264.5" stroke="#e1e0d9" stroke-width="1.0"/>
<text x="14.0" y="261.5" font-size="11.0" fill="#898781">100</text>
<line x1="10.0" y1="173.1" x2="830.0" y2="173.1" stroke="#e1e0d9" stroke-width="1.0"/>
<text x="14.0" y="170.1" font-size="11.0" fill="#898781">200</text>
<line x1="10.0" y1="81.6" x2="830.0" y2="81.6" stroke="#e1e0d9" stroke-width="1.0"/>
<text x="14.0" y="78.6" font-size="11.0" fill="#898781">300</text>
<polyline points="494.5,134.4 519.4,133.6 544.2,133.2 569.1,133.7 593.9,133.8 618.8,133.3 643.6,131.6 668.5,127.9 693.3,123.0 718.2,114.4 743.0,108.2 767.9,91.5 792.7,87.1 817.6,80.0" fill="none" stroke="#eda100" stroke-width="1.5" stroke-linejoin="round" stroke-linecap="round"/>
<polyline points="494.5,176.1 519.4,175.9 544.2,175.5 569.1,176.4 593.9,176.6 618.8,176.4 643.6,176.1 668.5,174.6 693.3,173.6 718.2,176.3 743.0,174.0 767.9,168.8 792.7,165.0 817.6,161.5" fill="none" stroke="#2a78d6" stroke-width="1.5" stroke-linejoin="round" stroke-linecap="round"/>
<polyline points="494.5,217.7 519.4,218.2 544.2,217.7 569.1,219.1 593.9,219.4 618.8,219.6 643.6,220.5 668.5,221.4 693.3,224.2 718.2,238.2 743.0,239.7 767.9,246.1 792.7,242.9 817.6,242.9" fill="none" stroke="#e87ba4" stroke-width="1.5" stroke-linejoin="round" stroke-linecap="round"/>
<polyline points="171.5,161.1 196.4,162.9 221.2,166.4 246.1,166.4 270.9,167.2 295.8,173.7 320.6,179.1 345.5,178.9 370.3,186.9 395.2,184.6 420.0,187.2 444.8,189.9 469.7,187.1 494.5,187.4 519.4,181.0 544.2,177.6 569.1,177.6 593.9,176.4 618.8,169.2 643.6,162.4 668.5,157.0 693.3,156.3 718.2,168.8 743.0,159.5 767.9,144.8 792.7,141.1 817.6,137.4" fill="none" stroke="#4a3aa7" stroke-width="1.5" stroke-linejoin="round" stroke-linecap="round"/>
<rect x="15.6" y="127.4" width="13.7" height="228.6" fill="none" stroke="#e34948" stroke-width="1.3"/>
<rect x="40.4" y="127.4" width="13.7" height="54.9" fill="#008300"/>
<rect x="65.3" y="172.2" width="13.7" height="10.1" fill="none" stroke="#e34948" stroke-width="1.3"/>
<rect x="90.1" y="172.2" width="13.7" height="5.5" fill="#008300"/>
<rect x="115.0" y="155.7" width="13.7" height="21.9" fill="none" stroke="#e34948" stroke-width="1.3"/>
<rect x="139.8" y="141.1" width="13.7" height="14.6" fill="none" stroke="#e34948" stroke-width="1.3"/>
<rect x="164.7" y="141.1" width="13.7" height="30.2" fill="#008300"/>
<rect x="189.5" y="140.2" width="13.7" height="31.1" fill="none" stroke="#e34948" stroke-width="1.3"/>
<rect x="214.4" y="140.2" width="13.7" height="66.8" fill="#008300"/>
<rect x="239.2" y="172.2" width="13.7" height="34.8" fill="none" stroke="#e34948" stroke-width="1.3"/>
<rect x="264.1" y="172.2" width="13.7" height="11.0" fill="#008300"/>
<rect x="288.9" y="183.2" width="13.7" height="18.3" fill="#008300"/>
<rect x="313.8" y="178.6" width="13.7" height="22.9" fill="none" stroke="#e34948" stroke-width="1.3"/>
<rect x="338.6" y="169.4" width="13.7" height="9.1" fill="none" stroke="#e34948" stroke-width="1.3"/>
<rect x="363.5" y="169.4" width="13.7" height="27.4" fill="#008300"/>
<rect x="388.3" y="190.5" width="13.7" height="6.4" fill="none" stroke="#e34948" stroke-width="1.3"/>
<rect x="413.2" y="190.5" width="13.7" height="1.2" fill="#898781"/>
<rect x="438.0" y="190.5" width="13.7" height="11.9" fill="#008300"/>
<rect x="462.9" y="181.3" width="13.7" height="21.0" fill="none" stroke="#e34948" stroke-width="1.3"/>
<rect x="487.7" y="180.4" width="13.7" height="1.2" fill="none" stroke="#e34948" stroke-width="1.3"/>
<rect x="512.6" y="124.6" width="13.7" height="55.8" fill="none" stroke="#e34948" stroke-width="1.3"/>
<rect x="537.4" y="124.6" width="13.7" height="48.5" fill="#008300"/>
<rect x="562.3" y="173.1" width="13.7" height="17.4" fill="#008300"/>
<rect x="587.1" y="182.2" width="13.7" height="8.2" fill="none" stroke="#e34948" stroke-width="1.3"/>
<rect x="612.0" y="152.1" width="13.7" height="30.2" fill="none" stroke="#e34948" stroke-width="1.3"/>
<rect x="636.8" y="133.8" width="13.7" height="18.3" fill="none" stroke="#e34948" stroke-width="1.3"/>
<rect x="661.7" y="133.8" width="13.7" height="9.1" fill="#008300"/>
<rect x="686.5" y="119.1" width="13.7" height="23.8" fill="none" stroke="#e34948" stroke-width="1.3"/>
<rect x="711.3" y="119.1" width="13.7" height="141.8" fill="#008300"/>
<rect x="736.2" y="125.5" width="13.7" height="135.4" fill="none" stroke="#e34948" stroke-width="1.3"/>
<rect x="761.0" y="79.8" width="13.7" height="45.7" fill="none" stroke="#e34948" stroke-width="1.3"/>
<rect x="785.9" y="79.8" width="13.7" height="45.7" fill="#008300"/>
<rect x="810.7" y="108.2" width="13.7" height="17.4" fill="none" stroke="#e34948" stroke-width="1.3"/>
<circle cx="767.9" cy="79.8" r="2" fill="#52514e"/>
<line x1="767.9" y1="79.8" x2="759.9" y2="79.8" stroke="#52514e" stroke-width="1.0"/>
<text x="756.9" y="83.8" font-size="11.0" fill="#52514e" text-anchor="end">302</text>
<circle cx="22.4" cy="356.0" r="2" fill="#52514e"/>
<line x1="22.4" y1="356.0" x2="30.4" y2="356.0" stroke="#52514e" stroke-width="1.0"/>
<text x="33.4" y="350.0" font-size="11.0" fill="#52514e">0</text>
<text x="14.0" y="376.0" font-size="11.0" fill="#52514e">VOL 28 forks</text>
<text x="96.6" y="376.0" font-size="11.0" fill="#eda100">MA5:21.2</text>
<text x="155.0" y="376.0" font-size="11.0" fill="#2a78d6">MA10:18.7</text>
<text x="14.0" y="395.0" font-size="10" fill="#898781">28</text>
<rect x="15.6" y="431.9" width="13.7" height="38.1" fill="none" stroke="#e34948" stroke-width="1.1"/>
<rect x="40.4" y="437.8" width="13.7" height="32.2" fill="#008300"/>
<rect x="65.3" y="423.1" width="13.7" height="46.9" fill="none" stroke="#e34948" stroke-width="1.1"/>
<rect x="90.1" y="449.5" width="13.7" height="20.5" fill="#008300"/>
<rect x="115.0" y="417.3" width="13.7" height="52.7" fill="none" stroke="#e34948" stroke-width="1.1"/>
<rect x="139.8" y="411.4" width="13.7" height="58.6" fill="none" stroke="#e34948" stroke-width="1.1"/>
<rect x="164.7" y="434.9" width="13.7" height="35.1" fill="#008300"/>
<rect x="189.5" y="437.8" width="13.7" height="32.2" fill="none" stroke="#e34948" stroke-width="1.1"/>
<rect x="214.4" y="434.9" width="13.7" height="35.1" fill="#008300"/>
<rect x="239.2" y="449.5" width="13.7" height="20.5" fill="none" stroke="#e34948" stroke-width="1.1"/>
<rect x="264.1" y="452.4" width="13.7" height="17.6" fill="#008300"/>
<rect x="288.9" y="437.8" width="13.7" height="32.2" fill="#008300"/>
<rect x="313.8" y="429.0" width="13.7" height="41.0" fill="none" stroke="#e34948" stroke-width="1.1"/>
<rect x="338.6" y="452.4" width="13.7" height="17.6" fill="none" stroke="#e34948" stroke-width="1.1"/>
<rect x="363.5" y="449.5" width="13.7" height="20.5" fill="#008300"/>
<rect x="388.3" y="440.7" width="13.7" height="29.3" fill="none" stroke="#e34948" stroke-width="1.1"/>
<rect x="413.2" y="437.8" width="13.7" height="32.2" fill="#898781"/>
<rect x="438.0" y="446.6" width="13.7" height="23.4" fill="#008300"/>
<rect x="462.9" y="467.1" width="13.7" height="2.9" fill="none" stroke="#e34948" stroke-width="1.1"/>
<rect x="487.7" y="440.7" width="13.7" height="29.3" fill="none" stroke="#e34948" stroke-width="1.1"/>
<rect x="512.6" y="414.4" width="13.7" height="55.6" fill="none" stroke="#e34948" stroke-width="1.1"/>
<rect x="537.4" y="434.9" width="13.7" height="35.1" fill="#008300"/>
<rect x="562.3" y="446.6" width="13.7" height="23.4" fill="#008300"/>
<rect x="587.1" y="446.6" width="13.7" height="23.4" fill="none" stroke="#e34948" stroke-width="1.1"/>
<rect x="612.0" y="434.9" width="13.7" height="35.1" fill="none" stroke="#e34948" stroke-width="1.1"/>
<rect x="636.8" y="396.8" width="13.7" height="73.2" fill="none" stroke="#e34948" stroke-width="1.1"/>
<rect x="661.7" y="414.4" width="13.7" height="55.6" fill="#008300"/>
<rect x="686.5" y="420.2" width="13.7" height="49.8" fill="none" stroke="#e34948" stroke-width="1.1"/>
<rect x="711.3" y="437.8" width="13.7" height="32.2" fill="#008300"/>
<rect x="736.2" y="417.3" width="13.7" height="52.7" fill="none" stroke="#e34948" stroke-width="1.1"/>
<rect x="761.0" y="388.0" width="13.7" height="82.0" fill="none" stroke="#e34948" stroke-width="1.1"/>
<rect x="785.9" y="408.5" width="13.7" height="61.5" fill="#008300"/>
<rect x="810.7" y="388.0" width="13.7" height="82.0" fill="none" stroke="#e34948" stroke-width="1.1"/>
<polyline points="246.1,432.8 270.9,434.9 295.8,434.9 320.6,435.4 345.5,435.7 370.3,439.0 395.2,441.9 420.0,442.2 444.8,443.1 469.7,446.3 494.5,445.4 519.4,441.6 544.2,441.3 569.1,443.1 593.9,442.5 618.8,441.0 643.6,436.6 668.5,434.3 693.3,431.6 718.2,428.7 743.0,426.4 767.9,423.7 792.7,421.1 817.6,415.2" fill="none" stroke="#2a78d6" stroke-width="1.5" stroke-linejoin="round" stroke-linecap="round"/>
<polyline points="121.8,431.9 146.7,427.8 171.5,427.2 196.4,430.2 221.2,427.2 246.1,433.7 270.9,441.9 295.8,442.5 320.6,440.7 345.5,444.2 370.3,444.2 395.2,441.9 420.0,441.9 444.8,445.4 469.7,448.3 494.5,446.6 519.4,441.3 544.2,440.7 569.1,440.7 593.9,436.6 618.8,435.4 643.6,431.9 668.5,427.8 693.3,422.6 718.2,420.8 743.0,417.3 767.9,415.5 792.7,414.4 817.6,407.9" fill="none" stroke="#eda100" stroke-width="1.5" stroke-linejoin="round" stroke-linecap="round"/>
</svg>