<svg xmlns="http://www.w3.org/2000/svg" viewBox="0 0 840 496" width="840" height="496" font-family="-apple-system,&#39;Segoe UI&#39;,system-ui,sans-serif" role="img" aria-label="awesome-selfhosted/awesome-selfhosted candlestick chart">
<text x="14.0" y="20.0" font-size="15" fill="#0b0b0b" font-weight="650">awesome-selfhosted/awesome-selfhosted</text>
<text x="323.2" y="20.0" font-size="11.5" fill="#52514e">daily · new stars, volume = new forks</text>
<text x="805.8" y="20.0" font-size="11.0" fill="#52514e">fall</text>
<rect x="791" y="10" width="9" height="12" fill="#008300"/>
<text x="750.6" y="20.0" font-size="11.0" fill="#52514e">rise</text>
<rect x="736" y="10" width="9" height="12" fill="none" stroke="#e34948" stroke-width="1.5"/>
<text x="14.0" y="38.0" font-size="11.0" fill="#898781">last 41 days · +8,966 stars · +551 forks · updated 2026-07-19</text>
<rect x="10" y="66" width="820" height="290" fill="none" stroke="#e1e0d9"/>
<rect x="10" y="384" width="820" height="86" fill="none" stroke="#e1e0d9"/>
<text x="38.0" y="490.0" font-size="11.0" fill="#898781" text-anchor="middle">2026-06</text>
<line x1="450.0" y1="66.0" x2="450.0" y2="356.0" stroke="#e1e0d9" stroke-width="1.0"/>
<line x1="450.0" y1="384.0" x2="450.0" y2="470.0" stroke="#e1e0d9" stroke-width="1.0"/>
<text x="460.0" y="490.0" font-size="11.0" fill="#898781" text-anchor="middle">2026-07</text>
<text x="14.0" y="58.0" font-size="11.0" fill="#52514e">BOLL(20,2)</text>
<text x="84.5" y="58.0" font-size="11.0" fill="#eda100">UP:327.9</text>
<text x="142.9" y="58.0" font-size="11.0" fill="#2a78d6">MID:238.9</text>
<text x="207.4" y="58.0" font-size="11.0" fill="#e87ba4">LOW:149.9</text>
<text x="271.8" y="58.0" font-size="11.0" fill="#4a3aa7">MA7:260.7</text>
<line x1="10.0" y1="356.0" x2="830.0" y2="356.0" stroke="#e1e0d9" stroke-width="1.0"/>
<text x="14.0" y="353.0" font-size="11.0" fill="#898781">0</text>
<line x1="10.0" y1="271.8" x2="830.0" y2="271.8" stroke="#e1e0d9" stroke-width="1.0"/>
<text x="14.0" y="268.8" font-size="11.0" fill="#898781">100</text>
<line x1="10.0" y1="187.5" x2="830.0" y2="187.5" stroke="#e1e0d9" stroke-width="1.0"/>
<text x="14.0" y="184.5" font-size="11.0" fill="#898781">200</text>
<line x1="10.0" y1="103.3" x2="830.0" y2="103.3" stroke="#e1e0d9" stroke-width="1.0"/>
<text x="14.0" y="100.3" font-size="11.0" fill="#898781">300</text>
<polyline points="400.0,151.9 420.0,151.2 440.0,150.8 460.0,151.3 480.0,151.4 500.0,150.9 520.0,149.3 540.0,146.0 560.0,141.4 580.0,133.5 600.0,127.8 620.0,112.4 640.0,108.3 660.0,101.9 680.0,99.5 700.0,94.8 720.0,88.2 740.0,87.2 760.0,88.2 780.0,88.1 800.0,85.8 820.0,79.8" fill="none" stroke="#eda100" stroke-width="1.5" stroke-linejoin="round" stroke-linecap="round"/>
<polyline points="400.0,190.3 420.0,190.2 440.0,189.7 460.0,190.6 480.0,190.8 500.0,190.6 520.0,190.3 540.0,189.0 560.0,188.0 580.0,190.5 600.0,188.3 620.0,183.6 640.0,180.1 660.0,176.8 680.0,175.2 700.0,171.2 720.0,166.8 740.0,164.3 760.0,161.6 780.0,160.0 800.0,156.9 820.0,154.8" fill="none" stroke="#2a78d6" stroke-width="1.5" stroke-linejoin="round" stroke-linecap="round"/>
<polyline points="400.0,228.6 420.0,229.1 440.0,228.6 460.0,229.9 480.0,230.2 500.0,230.4 520.0,231.2 540.0,232.0 560.0,234.6 580.0,247.5 600.0,248.9 620.0,254.7 640.0,251.9 660.0,251.8 680.0,250.9 700.0,247.7 720.0,245.5 740.0,241.3 760.0,235.1 780.0,231.9 800.0,227.9 820.0,229.8" fill="none" stroke="#e87ba4" stroke-width="1.5" stroke-linejoin="round" stroke-linecap="round"/>
<polyline points="140.0,176.5 160.0,178.2 180.0,181.4 200.0,181.4 220.0,182.2 240.0,188.1 260.0,193.1 280.0,192.9 300.0,200.3 320.0,198.2 340.0,200.5 360.0,203.0 380.0,200.4 400.0,200.7 420.0,194.8 440.0,191.7 460.0,191.7 480.0,190.6 500.0,183.9 520.0,177.7 540.0,172.7 560.0,172.0 580.0,183.6 600.0,175.0 620.0,161.5 640.0,158.1 660.0,154.7 680.0,153.5 700.0,152.4 720.0,130.5 740.0,131.7 760.0,140.4 780.0,143.0 800.0,143.7 820.0,136.4" fill="none" stroke="#4a3aa7" stroke-width="1.5" stroke-linejoin="round" stroke-linecap="round"/>
<rect x="14.5" y="145.4" width="11.0" height="210.6" fill="none" stroke="#e34948" stroke-width="1.3"/>
<rect x="34.5" y="145.4" width="11.0" height="50.5" fill="#008300"/>
<rect x="54.5" y="186.7" width="11.0" height="9.3" fill="none" stroke="#e34948" stroke-width="1.3"/>
<rect x="74.5" y="186.7" width="11.0" height="5.1" fill="#008300"/>
<rect x="94.5" y="171.5" width="11.0" height="20.2" fill="none" stroke="#e34948" stroke-width="1.3"/>
<rect x="114.5" y="158.1" width="11.0" height="13.5" fill="none" stroke="#e34948" stroke-width="1.3"/>
<rect x="134.5" y="158.1" width="11.0" height="27.8" fill="#008300"/>
<rect x="154.5" y="157.2" width="11.0" height="28.6" fill="none" stroke="#e34948" stroke-width="1.3"/>
<rect x="174.5" y="157.2" width="11.0" height="61.5" fill="#008300"/>
<rect x="194.5" y="186.7" width="11.0" height="32.0" fill="none" stroke="#e34948" stroke-width="1.3"/>
<rect x="214.5" y="186.7" width="11.0" height="10.1" fill="#008300"/>
<rect x="234.5" y="196.8" width="11.0" height="16.8" fill="#008300"/>
<rect x="254.5" y="192.6" width="11.0" height="21.1" fill="none" stroke="#e34948" stroke-width="1.3"/>
<rect x="274.5" y="184.2" width="11.0" height="8.4" fill="none" stroke="#e34948" stroke-width="1.3"/>
<rect x="294.5" y="184.2" width="11.0" height="25.3" fill="#008300"/>
<rect x="314.5" y="203.5" width="11.0" height="5.9" fill="none" stroke="#e34948" stroke-width="1.3"/>
<rect x="334.5" y="203.5" width="11.0" height="1.2" fill="#898781"/>
<rect x="354.5" y="203.5" width="11.0" height="10.9" fill="#008300"/>
<rect x="374.5" y="195.1" width="11.0" height="19.4" fill="none" stroke="#e34948" stroke-width="1.3"/>
<rect x="394.5" y="194.3" width="11.0" height="1.2" fill="none" stroke="#e34948" stroke-width="1.3"/>
<rect x="414.5" y="142.9" width="11.0" height="51.4" fill="none" stroke="#e34948" stroke-width="1.3"/>
<rect x="434.5" y="142.9" width="11.0" height="44.6" fill="#008300"/>
<rect x="454.5" y="187.5" width="11.0" height="16.0" fill="#008300"/>
<rect x="474.5" y="196.0" width="11.0" height="7.6" fill="none" stroke="#e34948" stroke-width="1.3"/>
<rect x="494.5" y="168.2" width="11.0" height="27.8" fill="none" stroke="#e34948" stroke-width="1.3"/>
<rect x="514.5" y="151.3" width="11.0" height="16.8" fill="none" stroke="#e34948" stroke-width="1.3"/>
<rect x="534.5" y="151.3" width="11.0" height="8.4" fill="#008300"/>
<rect x="554.5" y="137.9" width="11.0" height="21.9" fill="none" stroke="#e34948" stroke-width="1.3"/>
<rect x="574.5" y="137.9" width="11.0" height="130.6" fill="#008300"/>
<rect x="594.5" y="143.7" width="11.0" height="124.7" fill="none" stroke="#e34948" stroke-width="1.3"/>
<rect x="614.5" y="101.6" width="11.0" height="42.1" fill="none" stroke="#e34948" stroke-width="1.3"/>
<rect x="634.5" y="101.6" width="11.0" height="42.1" fill="#008300"/>
<rect x="654.5" y="127.7" width="11.0" height="16.0" fill="none" stroke="#e34948" stroke-width="1.3"/>
<rect x="674.5" y="127.7" width="11.0" height="23.6" fill="#008300"/>
<rect x="694.5" y="130.3" width="11.0" height="21.1" fill="none" stroke="#e34948" stroke-width="1.3"/>
<rect x="714.5" y="115.1" width="11.0" height="15.2" fill="none" stroke="#e34948" stroke-width="1.3"/>
<rect x="734.5" y="115.1" width="11.0" height="37.1" fill="#008300"/>
<rect x="754.5" y="152.2" width="11.0" height="10.1" fill="#008300"/>
<rect x="774.5" y="162.3" width="11.0" height="1.2" fill="#898781"/>
<rect x="794.5" y="132.0" width="11.0" height="30.3" fill="none" stroke="#e34948" stroke-width="1.3"/>
<rect x="814.5" y="100.8" width="11.0" height="31.2" fill="none" stroke="#e34948" stroke-width="1.3"/>
<circle cx="820.0" cy="100.8" r="2" fill="#52514e"/>
<line x1="820.0" y1="100.8" x2="812.0" y2="100.8" stroke="#52514e" stroke-width="1.0"/>
<text x="809.0" y="104.8" font-size="11.0" fill="#52514e" text-anchor="end">303</text>
<circle cx="20.0" cy="356.0" r="2" fill="#52514e"/>
<line x1="20.0" y1="356.0" x2="28.0" y2="356.0" stroke="#52514e" stroke-width="1.0"/>
<text x="31.0" y="350.0" font-size="11.0" fill="#52514e">0</text>
<text x="14.0" y="376.0" font-size="11.0" fill="#52514e">VOL 15 forks</text>
<text x="96.6" y="376.0" font-size="11.0" fill="#eda100">MA5:13.2</text>
<text x="155.0" y="376.0" font-size="11.0" fill="#2a78d6">MA10:16.3</text>
<text x="14.0" y="395.0" font-size="10" fill="#898781">28</text>
<rect x="14.5" y="431.9" width="11.0" height="38.1" fill="none" stroke="#e34948" stroke-width="1.1"/>
<rect x="34.5" y="437.8" width="11.0" height="32.2" fill="#008300"/>
<rect x="54.5" y="423.1" width="11.0" height="46.9" fill="none" stroke="#e34948" stroke-width="1.1"/>
<rect x="74.5" y="449.5" width="11.0" height="20.5" fill="#008300"/>
<rect x="94.5" y="417.3" width="11.0" height="52.7" fill="none" stroke="#e34948" stroke-width="1.1"/>
<rect x="114.5" y="411.4" width="11.0" height="58.6" fill="none" stroke="#e34948" stroke-width="1.1"/>
<rect x="134.5" y="434.9" width="11.0" height="35.1" fill="#008300"/>
<rect x="154.5" y="437.8" width="11.0" height="32.2" fill="none" stroke="#e34948" stroke-width="1.1"/>
<rect x="174.5" y="434.9" width="11.0" height="35.1" fill="#008300"/>
<rect x="194.5" y="449.5" width="11.0" height="20.5" fill="none" stroke="#e34948" stroke-width="1.1"/>
<rect x="214.5" y="452.4" width="11.0" height="17.6" fill="#008300"/>
<rect x="234.5" y="437.8" width="11.0" height="32.2" fill="#008300"/>
<rect x="254.5" y="429.0" width="11.0" height="41.0" fill="none" stroke="#e34948" stroke-width="1.1"/>
<rect x="274.5" y="452.4" width="11.0" height="17.6" fill="none" stroke="#e34948" stroke-width="1.1"/>
<rect x="294.5" y="449.5" width="11.0" height="20.5" fill="#008300"/>
<rect x="314.5" y="440.7" width="11.0" height="29.3" fill="none" stroke="#e34948" stroke-width="1.1"/>
<rect x="334.5" y="437.8" width="11.0" height="32.2" fill="#898781"/>
<rect x="354.5" y="446.6" width="11.0" height="23.4" fill="#008300"/>
<rect x="374.5" y="467.1" width="11.0" height="2.9" fill="none" stroke="#e34948" stroke-width="1.1"/>
<rect x="394.5" y="440.7" width="11.0" height="29.3" fill="none" stroke="#e34948" stroke-width="1.1"/>
<rect x="414.5" y="414.4" width="11.0" height="55.6" fill="none" stroke="#e34948" stroke-width="1.1"/>
<rect x="434.5" y="434.9" width="11.0" height="35.1" fill="#008300"/>
<rect x="454.5" y="446.6" width="11.0" height="23.4" fill="#008300"/>
<rect x="474.5" y="446.6" width="11.0" height="23.4" fill="none" stroke="#e34948" stroke-width="1.1"/>
<rect x="494.5" y="434.9" width="11.0" height="35.1" fill="none" stroke="#e34948" stroke-width="1.1"/>
<rect x="514.5" y="396.8" width="11.0" height="73.2" fill="none" stroke="#e34948" stroke-width="1.1"/>
<rect x="534.5" y="414.4" width="11.0" height="55.6" fill="#008300"/>
<rect x="554.5" y="420.2" width="11.0" height="49.8" fill="none" stroke="#e34948" stroke-width="1.1"/>
<rect x="574.5" y="437.8" width="11.0" height="32.2" fill="#008300"/>
<rect x="594.5" y="417.3" width="11.0" height="52.7" fill="none" stroke="#e34948" stroke-width="1.1"/>
<rect x="614.5" y="388.0" width="11.0" height="82.0" fill="none" stroke="#e34948" stroke-width="1.1"/>
<rect x="634.5" y="408.5" width="11.0" height="61.5" fill="#008300"/>
<rect x="654.5" y="388.0" width="11.0" height="82.0" fill="none" stroke="#e34948" stroke-width="1.1"/>
<rect x="674.5" y="423.1" width="11.0" height="46.9" fill="#008300"/>
<rect x="694.5" y="434.9" width="11.0" height="35.1" fill="none" stroke="#e34948" stroke-width="1.1"/>
<rect x="714.5" y="411.4" width="11.0" height="58.6" fill="none" stroke="#e34948" stroke-width="1.1"/>
<rect x="734.5" y="429.0" width="11.0" height="41.0" fill="#008300"/>
<rect x="754.5" y="437.8" width="11.0" height="32.2" fill="#008300"/>
<rect x="774.5" y="420.2" width="11.0" height="49.8" fill="#898781"/>
<rect x="794.5" y="443.6" width="11.0" height="26.4" fill="none" stroke="#e34948" stroke-width="1.1"/>
<rect x="814.5" y="426.1" width="11.0" height="43.9" fill="none" stroke="#e34948" stroke-width="1.1"/>
<polyline points="200.0,432.8 220.0,434.9 240.0,434.9 260.0,435.4 280.0,435.7 300.0,439.0 320.0,441.9 340.0,442.2 360.0,443.1 380.0,446.3 400.0,445.4 420.0,441.6 440.0,441.3 460.0,443.1 480.0,442.5 500.0,441.0 520.0,436.6 540.0,434.3 560.0,431.6 580.0,428.7 600.0,426.4 620.0,423.7 640.0,421.1 660.0,415.2 680.0,412.9 700.0,412.9 720.0,414.4 740.0,415.8 760.0,417.6 780.0,415.8 800.0,418.5 820.0,422.3" fill="none" stroke="#2a78d6" stroke-width="1.5" stroke-linejoin="round" stroke-linecap="round"/>
<polyline points="100.0,431.9 120.0,427.8 140.0,427.2 160.0,430.2 180.0,427.2 200.0,433.7 220.0,441.9 240.0,442.5 260.0,440.7 280.0,444.2 300.0,444.2 320.0,441.9 340.0,441.9 360.0,445.4 380.0,448.3 400.0,446.6 420.0,441.3 440.0,440.7 460.0,440.7 480.0,436.6 500.0,435.4 520.0,431.9 540.0,427.8 560.0,422.6 580.0,420.8 600.0,417.3 620.0,415.5 640.0,414.4 660.0,407.9 680.0,405.0 700.0,408.5 720.0,413.2 740.0,417.3 760.0,427.2 780.0,426.7 800.0,428.4 820.0,431.3" fill="none" stroke="#eda100" stroke-width="1.5" stroke-linejoin="round" stroke-linecap="round"/>
</svg>