<svg xmlns="http://www.w3.org/2000/svg" viewBox="0 0 840 496" width="840" height="496" font-family="-apple-system,&#39;Segoe UI&#39;,system-ui,sans-serif" role="img" aria-label="awesome-selfhosted/awesome-selfhosted candlestick chart">
<text x="14.0" y="20.0" font-size="15" fill="#0b0b0b" font-weight="650">awesome-selfhosted/awesome-selfhosted</text>
<text x="323.2" y="20.0" font-size="11.5" fill="#52514e">daily · new stars, volume = new forks</text>
<text x="805.8" y="20.0" font-size="11.0" fill="#52514e">fall</text>
<rect x="791" y="10" width="9" height="12" fill="#008300"/>
<text x="750.6" y="20.0" font-size="11.0" fill="#52514e">rise</text>
<rect x="736" y="10" width="9" height="12" fill="none" stroke="#e34948" stroke-width="1.5"/>
<text x="14.0" y="38.0" font-size="11.0" fill="#898781">last 35 days · +7,409 stars · +465 forks · updated 2026-07-13</text>
<rect x="10" y="66" width="820" height="290" fill="none" stroke="#e1e0d9"/>
<rect x="10" y="384" width="820" height="86" fill="none" stroke="#e1e0d9"/>
<text x="38.0" y="490.0" font-size="11.0" fill="#898781" text-anchor="middle">2026-06</text>
<line x1="525.4" y1="66.0" x2="525.4" y2="356.0" stroke="#e1e0d9" stroke-width="1.0"/>
<line x1="525.4" y1="384.0" x2="525.4" y2="470.0" stroke="#e1e0d9" stroke-width="1.0"/>
<text x="537.1" y="490.0" font-size="11.0" fill="#898781" text-anchor="middle">2026-07</text>
<text x="14.0" y="58.0" font-size="11.0" fill="#52514e">BOLL(20,2)</text>
<text x="84.5" y="58.0" font-size="11.0" fill="#eda100">UP:310.1</text>
<text x="142.9" y="58.0" font-size="11.0" fill="#2a78d6">MID:219.3</text>
<text x="207.4" y="58.0" font-size="11.0" fill="#e87ba4">LOW:128.6</text>
<text x="271.8" y="58.0" font-size="11.0" fill="#4a3aa7">MA7:241.7</text>
<line x1="10.0" y1="356.0" x2="830.0" y2="356.0" stroke="#e1e0d9" stroke-width="1.0"/>
<text x="14.0" y="353.0" font-size="11.0" fill="#898781">0</text>
<line x1="10.0" y1="266.9" x2="830.0" y2="266.9" stroke="#e1e0d9" stroke-width="1.0"/>
<text x="14.0" y="263.9" font-size="11.0" fill="#898781">100</text>
<line x1="10.0" y1="177.9" x2="830.0" y2="177.9" stroke="#e1e0d9" stroke-width="1.0"/>
<text x="14.0" y="174.9" font-size="11.0" fill="#898781">200</text>
<line x1="10.0" y1="88.8" x2="830.0" y2="88.8" stroke="#e1e0d9" stroke-width="1.0"/>
<text x="14.0" y="85.8" font-size="11.0" fill="#898781">300</text>
<polyline points="466.9,140.2 490.3,139.4 513.7,139.1 537.1,139.5 560.6,139.6 584.0,139.1 607.4,137.5 630.9,133.9 654.3,129.1 677.7,120.7 701.1,114.7 724.6,98.4 748.0,94.1 771.4,87.2 794.9,84.7 818.3,79.8" fill="none" stroke="#eda100" stroke-width="1.5" stroke-linejoin="round" stroke-linecap="round"/>
<polyline points="466.9,180.8 490.3,180.6 513.7,180.2 537.1,181.1 560.6,181.3 584.0,181.1 607.4,180.8 630.9,179.4 654.3,178.3 677.7,181.0 701.1,178.7 724.6,173.7 748.0,170.0 771.4,166.5 794.9,164.8 818.3,160.6" fill="none" stroke="#2a78d6" stroke-width="1.5" stroke-linejoin="round" stroke-linecap="round"/>
<polyline points="466.9,221.3 490.3,221.8 513.7,221.3 537.1,222.6 560.6,222.9 584.0,223.1 607.4,224.0 630.9,224.9 654.3,227.6 677.7,241.2 701.1,242.7 724.6,248.9 748.0,245.9 771.4,245.9 794.9,244.9 818.3,241.4" fill="none" stroke="#e87ba4" stroke-width="1.5" stroke-linejoin="round" stroke-linecap="round"/>
<polyline points="162.3,166.2 185.7,168.0 209.1,171.4 232.6,171.4 256.0,172.2 279.4,178.5 302.9,183.7 326.3,183.5 349.7,191.3 373.1,189.1 396.6,191.6 420.0,194.2 443.4,191.5 466.9,191.8 490.3,185.5 513.7,182.2 537.1,182.2 560.6,181.1 584.0,174.0 607.4,167.4 630.9,162.2 654.3,161.5 677.7,173.7 701.1,164.6 724.6,150.3 748.0,146.7 771.4,143.1 794.9,141.9 818.3,140.7" fill="none" stroke="#4a3aa7" stroke-width="1.5" stroke-linejoin="round" stroke-linecap="round"/>
<rect x="15.3" y="133.3" width="12.9" height="222.7" fill="none" stroke="#e34948" stroke-width="1.3"/>
<rect x="38.7" y="133.3" width="12.9" height="53.4" fill="#008300"/>
<rect x="62.1" y="177.0" width="12.9" height="9.8" fill="none" stroke="#e34948" stroke-width="1.3"/>
<rect x="85.6" y="177.0" width="12.9" height="5.3" fill="#008300"/>
<rect x="109.0" y="160.9" width="12.9" height="21.4" fill="none" stroke="#e34948" stroke-width="1.3"/>
<rect x="132.4" y="146.7" width="12.9" height="14.3" fill="none" stroke="#e34948" stroke-width="1.3"/>
<rect x="155.8" y="146.7" width="12.9" height="29.4" fill="#008300"/>
<rect x="179.3" y="145.8" width="12.9" height="30.3" fill="none" stroke="#e34948" stroke-width="1.3"/>
<rect x="202.7" y="145.8" width="12.9" height="65.0" fill="#008300"/>
<rect x="226.1" y="177.0" width="12.9" height="33.8" fill="none" stroke="#e34948" stroke-width="1.3"/>
<rect x="249.6" y="177.0" width="12.9" height="10.7" fill="#008300"/>
<rect x="273.0" y="187.7" width="12.9" height="17.8" fill="#008300"/>
<rect x="296.4" y="183.2" width="12.9" height="22.3" fill="none" stroke="#e34948" stroke-width="1.3"/>
<rect x="319.8" y="174.3" width="12.9" height="8.9" fill="none" stroke="#e34948" stroke-width="1.3"/>
<rect x="343.3" y="174.3" width="12.9" height="26.7" fill="#008300"/>
<rect x="366.7" y="194.8" width="12.9" height="6.2" fill="none" stroke="#e34948" stroke-width="1.3"/>
<rect x="390.1" y="194.8" width="12.9" height="1.2" fill="#898781"/>
<rect x="413.6" y="194.8" width="12.9" height="11.6" fill="#008300"/>
<rect x="437.0" y="185.9" width="12.9" height="20.5" fill="none" stroke="#e34948" stroke-width="1.3"/>
<rect x="460.4" y="185.0" width="12.9" height="1.2" fill="none" stroke="#e34948" stroke-width="1.3"/>
<rect x="483.8" y="130.7" width="12.9" height="54.3" fill="none" stroke="#e34948" stroke-width="1.3"/>
<rect x="507.3" y="130.7" width="12.9" height="47.2" fill="#008300"/>
<rect x="530.7" y="177.9" width="12.9" height="16.9" fill="#008300"/>
<rect x="554.1" y="186.8" width="12.9" height="8.0" fill="none" stroke="#e34948" stroke-width="1.3"/>
<rect x="577.6" y="157.4" width="12.9" height="29.4" fill="none" stroke="#e34948" stroke-width="1.3"/>
<rect x="601.0" y="139.6" width="12.9" height="17.8" fill="none" stroke="#e34948" stroke-width="1.3"/>
<rect x="624.4" y="139.6" width="12.9" height="8.9" fill="#008300"/>
<rect x="647.8" y="125.3" width="12.9" height="23.2" fill="none" stroke="#e34948" stroke-width="1.3"/>
<rect x="671.3" y="125.3" width="12.9" height="138.1" fill="#008300"/>
<rect x="694.7" y="131.5" width="12.9" height="131.8" fill="none" stroke="#e34948" stroke-width="1.3"/>
<rect x="718.1" y="87.0" width="12.9" height="44.5" fill="none" stroke="#e34948" stroke-width="1.3"/>
<rect x="741.6" y="87.0" width="12.9" height="44.5" fill="#008300"/>
<rect x="765.0" y="114.6" width="12.9" height="16.9" fill="none" stroke="#e34948" stroke-width="1.3"/>
<rect x="788.4" y="114.6" width="12.9" height="24.9" fill="#008300"/>
<rect x="811.8" y="117.3" width="12.9" height="22.3" fill="none" stroke="#e34948" stroke-width="1.3"/>
<circle cx="724.6" cy="87.0" r="2" fill="#52514e"/>
<line x1="724.6" y1="87.0" x2="716.6" y2="87.0" stroke="#52514e" stroke-width="1.0"/>
<text x="713.6" y="91.0" font-size="11.0" fill="#52514e" text-anchor="end">302</text>
<circle cx="21.7" cy="356.0" r="2" fill="#52514e"/>
<line x1="21.7" y1="356.0" x2="29.7" y2="356.0" stroke="#52514e" stroke-width="1.0"/>
<text x="32.7" y="350.0" font-size="11.0" fill="#52514e">0</text>
<text x="14.0" y="376.0" font-size="11.0" fill="#52514e">VOL 12 forks</text>
<text x="96.6" y="376.0" font-size="11.0" fill="#eda100">MA5:21</text>
<text x="142.9" y="376.0" font-size="11.0" fill="#2a78d6">MA10:19.5</text>
<text x="14.0" y="395.0" font-size="10" fill="#898781">28</text>
<rect x="15.3" y="431.9" width="12.9" height="38.1" fill="none" stroke="#e34948" stroke-width="1.1"/>
<rect x="38.7" y="437.8" width="12.9" height="32.2" fill="#008300"/>
<rect x="62.1" y="423.1" width="12.9" height="46.9" fill="none" stroke="#e34948" stroke-width="1.1"/>
<rect x="85.6" y="449.5" width="12.9" height="20.5" fill="#008300"/>
<rect x="109.0" y="417.3" width="12.9" height="52.7" fill="none" stroke="#e34948" stroke-width="1.1"/>
<rect x="132.4" y="411.4" width="12.9" height="58.6" fill="none" stroke="#e34948" stroke-width="1.1"/>
<rect x="155.8" y="434.9" width="12.9" height="35.1" fill="#008300"/>
<rect x="179.3" y="437.8" width="12.9" height="32.2" fill="none" stroke="#e34948" stroke-width="1.1"/>
<rect x="202.7" y="434.9" width="12.9" height="35.1" fill="#008300"/>
<rect x="226.1" y="449.5" width="12.9" height="20.5" fill="none" stroke="#e34948" stroke-width="1.1"/>
<rect x="249.6" y="452.4" width="12.9" height="17.6" fill="#008300"/>
<rect x="273.0" y="437.8" width="12.9" height="32.2" fill="#008300"/>
<rect x="296.4" y="429.0" width="12.9" height="41.0" fill="none" stroke="#e34948" stroke-width="1.1"/>
<rect x="319.8" y="452.4" width="12.9" height="17.6" fill="none" stroke="#e34948" stroke-width="1.1"/>
<rect x="343.3" y="449.5" width="12.9" height="20.5" fill="#008300"/>
<rect x="366.7" y="440.7" width="12.9" height="29.3" fill="none" stroke="#e34948" stroke-width="1.1"/>
<rect x="390.1" y="437.8" width="12.9" height="32.2" fill="#898781"/>
<rect x="413.6" y="446.6" width="12.9" height="23.4" fill="#008300"/>
<rect x="437.0" y="467.1" width="12.9" height="2.9" fill="none" stroke="#e34948" stroke-width="1.1"/>
<rect x="460.4" y="440.7" width="12.9" height="29.3" fill="none" stroke="#e34948" stroke-width="1.1"/>
<rect x="483.8" y="414.4" width="12.9" height="55.6" fill="none" stroke="#e34948" stroke-width="1.1"/>
<rect x="507.3" y="434.9" width="12.9" height="35.1" fill="#008300"/>
<rect x="530.7" y="446.6" width="12.9" height="23.4" fill="#008300"/>
<rect x="554.1" y="446.6" width="12.9" height="23.4" fill="none" stroke="#e34948" stroke-width="1.1"/>
<rect x="577.6" y="434.9" width="12.9" height="35.1" fill="none" stroke="#e34948" stroke-width="1.1"/>
<rect x="601.0" y="396.8" width="12.9" height="73.2" fill="none" stroke="#e34948" stroke-width="1.1"/>
<rect x="624.4" y="414.4" width="12.9" height="55.6" fill="#008300"/>
<rect x="647.8" y="420.2" width="12.9" height="49.8" fill="none" stroke="#e34948" stroke-width="1.1"/>
<rect x="671.3" y="437.8" width="12.9" height="32.2" fill="#008300"/>
<rect x="694.7" y="417.3" width="12.9" height="52.7" fill="none" stroke="#e34948" stroke-width="1.1"/>
<rect x="718.1" y="388.0" width="12.9" height="82.0" fill="none" stroke="#e34948" stroke-width="1.1"/>
<rect x="741.6" y="408.5" width="12.9" height="61.5" fill="#008300"/>
<rect x="765.0" y="388.0" width="12.9" height="82.0" fill="none" stroke="#e34948" stroke-width="1.1"/>
<rect x="788.4" y="423.1" width="12.9" height="46.9" fill="#008300"/>
<rect x="811.8" y="434.9" width="12.9" height="35.1" fill="none" stroke="#e34948" stroke-width="1.1"/>
<polyline points="232.6,432.8 256.0,434.9 279.4,434.9 302.9,435.4 326.3,435.7 349.7,439.0 373.1,441.9 396.6,442.2 420.0,443.1 443.4,446.3 466.9,445.4 490.3,441.6 513.7,441.3 537.1,443.1 560.6,442.5 584.0,441.0 607.4,436.6 630.9,434.3 654.3,431.6 677.7,428.7 701.1,426.4 724.6,423.7 748.0,421.1 771.4,415.2 794.9,412.9 818.3,412.9" fill="none" stroke="#2a78d6" stroke-width="1.5" stroke-linejoin="round" stroke-linecap="round"/>
<polyline points="115.4,431.9 138.9,427.8 162.3,427.2 185.7,430.2 209.1,427.2 232.6,433.7 256.0,441.9 279.4,442.5 302.9,440.7 326.3,444.2 349.7,444.2 373.1,441.9 396.6,441.9 420.0,445.4 443.4,448.3 466.9,446.6 490.3,441.3 513.7,440.7 537.1,440.7 560.6,436.6 584.0,435.4 607.4,431.9 630.9,427.8 654.3,422.6 677.7,420.8 701.1,417.3 724.6,415.5 748.0,414.4 771.4,407.9 794.9,405.0 818.3,408.5" fill="none" stroke="#eda100" stroke-width="1.5" stroke-linejoin="round" stroke-linecap="round"/>
</svg>