<svg xmlns="http://www.w3.org/2000/svg" viewBox="0 0 840 496" width="840" height="496" font-family="-apple-system,&#39;Segoe UI&#39;,system-ui,sans-serif" role="img" aria-label="awesome-selfhosted/awesome-selfhosted candlestick chart">
<text x="14.0" y="20.0" font-size="15" fill="#0b0b0b" font-weight="650">awesome-selfhosted/awesome-selfhosted</text>
<text x="323.2" y="20.0" font-size="11.5" fill="#52514e">daily · new stars, volume = new forks</text>
<text x="805.8" y="20.0" font-size="11.0" fill="#52514e">fall</text>
<rect x="791" y="10" width="9" height="12" fill="#008300"/>
<text x="750.6" y="20.0" font-size="11.0" fill="#52514e">rise</text>
<rect x="736" y="10" width="9" height="12" fill="none" stroke="#e34948" stroke-width="1.5"/>
<text x="14.0" y="38.0" font-size="11.0" fill="#898781">last 38 days · +8,167 stars · +510 forks · updated 2026-07-16</text>
<rect x="10" y="66" width="820" height="290" fill="none" stroke="#e1e0d9"/>
<rect x="10" y="384" width="820" height="86" fill="none" stroke="#e1e0d9"/>
<text x="38.0" y="490.0" font-size="11.0" fill="#898781" text-anchor="middle">2026-06</text>
<line x1="484.7" y1="66.0" x2="484.7" y2="356.0" stroke="#e1e0d9" stroke-width="1.0"/>
<line x1="484.7" y1="384.0" x2="484.7" y2="470.0" stroke="#e1e0d9" stroke-width="1.0"/>
<text x="495.5" y="490.0" font-size="11.0" fill="#898781" text-anchor="middle">2026-07</text>
<text x="14.0" y="58.0" font-size="11.0" fill="#52514e">BOLL(20,2)</text>
<text x="84.5" y="58.0" font-size="11.0" fill="#eda100">UP:318.0</text>
<text x="142.9" y="58.0" font-size="11.0" fill="#2a78d6">MID:230.8</text>
<text x="207.4" y="58.0" font-size="11.0" fill="#e87ba4">LOW:143.5</text>
<text x="271.8" y="58.0" font-size="11.0" fill="#4a3aa7">MA7:256</text>
<line x1="10.0" y1="356.0" x2="830.0" y2="356.0" stroke="#e1e0d9" stroke-width="1.0"/>
<text x="14.0" y="353.0" font-size="11.0" fill="#898781">0</text>
<line x1="10.0" y1="269.4" x2="830.0" y2="269.4" stroke="#e1e0d9" stroke-width="1.0"/>
<text x="14.0" y="266.4" font-size="11.0" fill="#898781">100</text>
<line x1="10.0" y1="182.9" x2="830.0" y2="182.9" stroke="#e1e0d9" stroke-width="1.0"/>
<text x="14.0" y="179.9" font-size="11.0" fill="#898781">200</text>
<line x1="10.0" y1="96.3" x2="830.0" y2="96.3" stroke="#e1e0d9" stroke-width="1.0"/>
<text x="14.0" y="93.3" font-size="11.0" fill="#898781">300</text>
<polyline points="430.8,146.3 452.4,145.5 473.9,145.2 495.5,145.6 517.1,145.7 538.7,145.2 560.3,143.6 581.8,140.1 603.4,135.5 625.0,127.3 646.6,121.5 668.2,105.7 689.7,101.5 711.3,94.8 732.9,92.4 754.5,87.6 776.1,80.8 797.6,79.8 819.2,80.8" fill="none" stroke="#eda100" stroke-width="1.5" stroke-linejoin="round" stroke-linecap="round"/>
<polyline points="430.8,185.7 452.4,185.6 473.9,185.1 495.5,186.0 517.1,186.2 538.7,186.0 560.3,185.7 581.8,184.4 603.4,183.4 625.0,185.9 646.6,183.7 668.2,178.8 689.7,175.2 711.3,171.9 732.9,170.2 754.5,166.1 776.1,161.6 797.6,158.9 819.2,156.3" fill="none" stroke="#2a78d6" stroke-width="1.5" stroke-linejoin="round" stroke-linecap="round"/>
<polyline points="430.8,225.1 452.4,225.6 473.9,225.1 495.5,226.4 517.1,226.7 538.7,226.9 560.3,227.8 581.8,228.6 603.4,231.2 625.0,244.5 646.6,245.9 668.2,251.9 689.7,249.0 711.3,249.0 732.9,248.0 754.5,244.7 776.1,242.4 797.6,238.1 819.2,231.8" fill="none" stroke="#e87ba4" stroke-width="1.5" stroke-linejoin="round" stroke-linecap="round"/>
<polyline points="150.3,171.5 171.8,173.3 193.4,176.6 215.0,176.6 236.6,177.3 258.2,183.5 279.7,188.6 301.3,188.3 322.9,196.0 344.5,193.8 366.1,196.2 387.6,198.8 409.2,196.1 430.8,196.4 452.4,190.3 473.9,187.1 495.5,187.1 517.1,186.0 538.7,179.2 560.3,172.8 581.8,167.6 603.4,167.0 625.0,178.8 646.6,170.0 668.2,156.1 689.7,152.6 711.3,149.1 732.9,147.9 754.5,146.8 776.1,124.3 797.6,125.5 819.2,134.4" fill="none" stroke="#4a3aa7" stroke-width="1.5" stroke-linejoin="round" stroke-linecap="round"/>
<rect x="14.9" y="139.6" width="11.9" height="216.4" fill="none" stroke="#e34948" stroke-width="1.3"/>
<rect x="36.4" y="139.6" width="11.9" height="51.9" fill="#008300"/>
<rect x="58.0" y="182.0" width="11.9" height="9.5" fill="none" stroke="#e34948" stroke-width="1.3"/>
<rect x="79.6" y="182.0" width="11.9" height="5.2" fill="#008300"/>
<rect x="101.2" y="166.4" width="11.9" height="20.8" fill="none" stroke="#e34948" stroke-width="1.3"/>
<rect x="122.7" y="152.6" width="11.9" height="13.8" fill="none" stroke="#e34948" stroke-width="1.3"/>
<rect x="144.3" y="152.6" width="11.9" height="28.6" fill="#008300"/>
<rect x="165.9" y="151.7" width="11.9" height="29.4" fill="none" stroke="#e34948" stroke-width="1.3"/>
<rect x="187.5" y="151.7" width="11.9" height="63.2" fill="#008300"/>
<rect x="209.1" y="182.0" width="11.9" height="32.9" fill="none" stroke="#e34948" stroke-width="1.3"/>
<rect x="230.6" y="182.0" width="11.9" height="10.4" fill="#008300"/>
<rect x="252.2" y="192.4" width="11.9" height="17.3" fill="#008300"/>
<rect x="273.8" y="188.1" width="11.9" height="21.6" fill="none" stroke="#e34948" stroke-width="1.3"/>
<rect x="295.4" y="179.4" width="11.9" height="8.7" fill="none" stroke="#e34948" stroke-width="1.3"/>
<rect x="317.0" y="179.4" width="11.9" height="26.0" fill="#008300"/>
<rect x="338.5" y="199.3" width="11.9" height="6.1" fill="none" stroke="#e34948" stroke-width="1.3"/>
<rect x="360.1" y="199.3" width="11.9" height="1.2" fill="#898781"/>
<rect x="381.7" y="199.3" width="11.9" height="11.3" fill="#008300"/>
<rect x="403.3" y="190.7" width="11.9" height="19.9" fill="none" stroke="#e34948" stroke-width="1.3"/>
<rect x="424.9" y="189.8" width="11.9" height="1.2" fill="none" stroke="#e34948" stroke-width="1.3"/>
<rect x="446.4" y="137.0" width="11.9" height="52.8" fill="none" stroke="#e34948" stroke-width="1.3"/>
<rect x="468.0" y="137.0" width="11.9" height="45.9" fill="#008300"/>
<rect x="489.6" y="182.9" width="11.9" height="16.4" fill="#008300"/>
<rect x="511.2" y="191.5" width="11.9" height="7.8" fill="none" stroke="#e34948" stroke-width="1.3"/>
<rect x="532.7" y="163.0" width="11.9" height="28.6" fill="none" stroke="#e34948" stroke-width="1.3"/>
<rect x="554.3" y="145.7" width="11.9" height="17.3" fill="none" stroke="#e34948" stroke-width="1.3"/>
<rect x="575.9" y="145.7" width="11.9" height="8.7" fill="#008300"/>
<rect x="597.5" y="131.8" width="11.9" height="22.5" fill="none" stroke="#e34948" stroke-width="1.3"/>
<rect x="619.1" y="131.8" width="11.9" height="134.2" fill="#008300"/>
<rect x="640.6" y="137.9" width="11.9" height="128.1" fill="none" stroke="#e34948" stroke-width="1.3"/>
<rect x="662.2" y="94.6" width="11.9" height="43.3" fill="none" stroke="#e34948" stroke-width="1.3"/>
<rect x="683.8" y="94.6" width="11.9" height="43.3" fill="#008300"/>
<rect x="705.4" y="121.4" width="11.9" height="16.4" fill="none" stroke="#e34948" stroke-width="1.3"/>
<rect x="727.0" y="121.4" width="11.9" height="24.2" fill="#008300"/>
<rect x="748.5" y="124.0" width="11.9" height="21.6" fill="none" stroke="#e34948" stroke-width="1.3"/>
<rect x="770.1" y="108.4" width="11.9" height="15.6" fill="none" stroke="#e34948" stroke-width="1.3"/>
<rect x="791.7" y="108.4" width="11.9" height="38.1" fill="#008300"/>
<rect x="813.3" y="146.5" width="11.9" height="10.4" fill="#008300"/>
<circle cx="668.2" cy="94.6" r="2" fill="#52514e"/>
<line x1="668.2" y1="94.6" x2="660.2" y2="94.6" stroke="#52514e" stroke-width="1.0"/>
<text x="657.2" y="98.6" font-size="11.0" fill="#52514e" text-anchor="end">302</text>
<circle cx="20.8" cy="356.0" r="2" fill="#52514e"/>
<line x1="20.8" y1="356.0" x2="28.8" y2="356.0" stroke="#52514e" stroke-width="1.0"/>
<text x="31.8" y="350.0" font-size="11.0" fill="#52514e">0</text>
<text x="14.0" y="376.0" font-size="11.0" fill="#52514e">VOL 11 forks</text>
<text x="96.6" y="376.0" font-size="11.0" fill="#eda100">MA5:14.6</text>
<text x="155.0" y="376.0" font-size="11.0" fill="#2a78d6">MA10:17.9</text>
<text x="14.0" y="395.0" font-size="10" fill="#898781">28</text>
<rect x="14.9" y="431.9" width="11.9" height="38.1" fill="none" stroke="#e34948" stroke-width="1.1"/>
<rect x="36.4" y="437.8" width="11.9" height="32.2" fill="#008300"/>
<rect x="58.0" y="423.1" width="11.9" height="46.9" fill="none" stroke="#e34948" stroke-width="1.1"/>
<rect x="79.6" y="449.5" width="11.9" height="20.5" fill="#008300"/>
<rect x="101.2" y="417.3" width="11.9" height="52.7" fill="none" stroke="#e34948" stroke-width="1.1"/>
<rect x="122.7" y="411.4" width="11.9" height="58.6" fill="none" stroke="#e34948" stroke-width="1.1"/>
<rect x="144.3" y="434.9" width="11.9" height="35.1" fill="#008300"/>
<rect x="165.9" y="437.8" width="11.9" height="32.2" fill="none" stroke="#e34948" stroke-width="1.1"/>
<rect x="187.5" y="434.9" width="11.9" height="35.1" fill="#008300"/>
<rect x="209.1" y="449.5" width="11.9" height="20.5" fill="none" stroke="#e34948" stroke-width="1.1"/>
<rect x="230.6" y="452.4" width="11.9" height="17.6" fill="#008300"/>
<rect x="252.2" y="437.8" width="11.9" height="32.2" fill="#008300"/>
<rect x="273.8" y="429.0" width="11.9" height="41.0" fill="none" stroke="#e34948" stroke-width="1.1"/>
<rect x="295.4" y="452.4" width="11.9" height="17.6" fill="none" stroke="#e34948" stroke-width="1.1"/>
<rect x="317.0" y="449.5" width="11.9" height="20.5" fill="#008300"/>
<rect x="338.5" y="440.7" width="11.9" height="29.3" fill="none" stroke="#e34948" stroke-width="1.1"/>
<rect x="360.1" y="437.8" width="11.9" height="32.2" fill="#898781"/>
<rect x="381.7" y="446.6" width="11.9" height="23.4" fill="#008300"/>
<rect x="403.3" y="467.1" width="11.9" height="2.9" fill="none" stroke="#e34948" stroke-width="1.1"/>
<rect x="424.9" y="440.7" width="11.9" height="29.3" fill="none" stroke="#e34948" stroke-width="1.1"/>
<rect x="446.4" y="414.4" width="11.9" height="55.6" fill="none" stroke="#e34948" stroke-width="1.1"/>
<rect x="468.0" y="434.9" width="11.9" height="35.1" fill="#008300"/>
<rect x="489.6" y="446.6" width="11.9" height="23.4" fill="#008300"/>
<rect x="511.2" y="446.6" width="11.9" height="23.4" fill="none" stroke="#e34948" stroke-width="1.1"/>
<rect x="532.7" y="434.9" width="11.9" height="35.1" fill="none" stroke="#e34948" stroke-width="1.1"/>
<rect x="554.3" y="396.8" width="11.9" height="73.2" fill="none" stroke="#e34948" stroke-width="1.1"/>
<rect x="575.9" y="414.4" width="11.9" height="55.6" fill="#008300"/>
<rect x="597.5" y="420.2" width="11.9" height="49.8" fill="none" stroke="#e34948" stroke-width="1.1"/>
<rect x="619.1" y="437.8" width="11.9" height="32.2" fill="#008300"/>
<rect x="640.6" y="417.3" width="11.9" height="52.7" fill="none" stroke="#e34948" stroke-width="1.1"/>
<rect x="662.2" y="388.0" width="11.9" height="82.0" fill="none" stroke="#e34948" stroke-width="1.1"/>
<rect x="683.8" y="408.5" width="11.9" height="61.5" fill="#008300"/>
<rect x="705.4" y="388.0" width="11.9" height="82.0" fill="none" stroke="#e34948" stroke-width="1.1"/>
<rect x="727.0" y="423.1" width="11.9" height="46.9" fill="#008300"/>
<rect x="748.5" y="434.9" width="11.9" height="35.1" fill="none" stroke="#e34948" stroke-width="1.1"/>
<rect x="770.1" y="411.4" width="11.9" height="58.6" fill="none" stroke="#e34948" stroke-width="1.1"/>
<rect x="791.7" y="429.0" width="11.9" height="41.0" fill="#008300"/>
<rect x="813.3" y="437.8" width="11.9" height="32.2" fill="#008300"/>
<polyline points="215.0,432.8 236.6,434.9 258.2,434.9 279.7,435.4 301.3,435.7 322.9,439.0 344.5,441.9 366.1,442.2 387.6,443.1 409.2,446.3 430.8,445.4 452.4,441.6 473.9,441.3 495.5,443.1 517.1,442.5 538.7,441.0 560.3,436.6 581.8,434.3 603.4,431.6 625.0,428.7 646.6,426.4 668.2,423.7 689.7,421.1 711.3,415.2 732.9,412.9 754.5,412.9 776.1,414.4 797.6,415.8 819.2,417.6" fill="none" stroke="#2a78d6" stroke-width="1.5" stroke-linejoin="round" stroke-linecap="round"/>
<polyline points="107.1,431.9 128.7,427.8 150.3,427.2 171.8,430.2 193.4,427.2 215.0,433.7 236.6,441.9 258.2,442.5 279.7,440.7 301.3,444.2 322.9,444.2 344.5,441.9 366.1,441.9 387.6,445.4 409.2,448.3 430.8,446.6 452.4,441.3 473.9,440.7 495.5,440.7 517.1,436.6 538.7,435.4 560.3,431.9 581.8,427.8 603.4,422.6 625.0,420.8 646.6,417.3 668.2,415.5 689.7,414.4 711.3,407.9 732.9,405.0 754.5,408.5 776.1,413.2 797.6,417.3 819.2,427.2" fill="none" stroke="#eda100" stroke-width="1.5" stroke-linejoin="round" stroke-linecap="round"/>
</svg>