<svg xmlns="http://www.w3.org/2000/svg" viewBox="0 0 840 496" width="840" height="496" font-family="-apple-system,&#39;Segoe UI&#39;,system-ui,sans-serif" role="img" aria-label="awesome-selfhosted/awesome-selfhosted candlestick chart">
<text x="14.0" y="20.0" font-size="15" fill="#ffffff" font-weight="650">awesome-selfhosted/awesome-selfhosted</text>
<text x="323.2" y="20.0" font-size="11.5" fill="#c3c2b7">daily · new stars, volume = new forks</text>
<text x="805.8" y="20.0" font-size="11.0" fill="#c3c2b7">fall</text>
<rect x="791" y="10" width="9" height="12" fill="#008300"/>
<text x="750.6" y="20.0" font-size="11.0" fill="#c3c2b7">rise</text>
<rect x="736" y="10" width="9" height="12" fill="none" stroke="#e66767" stroke-width="1.5"/>
<text x="14.0" y="38.0" font-size="11.0" fill="#898781">last 42 days · +9,226 stars · +565 forks · updated 2026-07-20</text>
<rect x="10" y="66" width="820" height="290" fill="none" stroke="#2c2c2a"/>
<rect x="10" y="384" width="820" height="86" fill="none" stroke="#2c2c2a"/>
<text x="38.0" y="490.0" font-size="11.0" fill="#898781" text-anchor="middle">2026-06</text>
<line x1="439.5" y1="66.0" x2="439.5" y2="356.0" stroke="#2c2c2a" stroke-width="1.0"/>
<line x1="439.5" y1="384.0" x2="439.5" y2="470.0" stroke="#2c2c2a" stroke-width="1.0"/>
<text x="449.3" y="490.0" font-size="11.0" fill="#898781" text-anchor="middle">2026-07</text>
<text x="14.0" y="58.0" font-size="11.0" fill="#c3c2b7">BOLL(20,2)</text>
<text x="84.5" y="58.0" font-size="11.0" fill="#c98500">UP:329.5</text>
<text x="142.9" y="58.0" font-size="11.0" fill="#3987e5">MID:241.9</text>
<text x="207.4" y="58.0" font-size="11.0" fill="#d55181">LOW:154.3</text>
<text x="271.8" y="58.0" font-size="11.0" fill="#9085e9">MA7:259.6</text>
<line x1="10.0" y1="356.0" x2="830.0" y2="356.0" stroke="#2c2c2a" stroke-width="1.0"/>
<text x="14.0" y="353.0" font-size="11.0" fill="#898781">0</text>
<line x1="10.0" y1="272.2" x2="830.0" y2="272.2" stroke="#2c2c2a" stroke-width="1.0"/>
<text x="14.0" y="269.2" font-size="11.0" fill="#898781">100</text>
<line x1="10.0" y1="188.4" x2="830.0" y2="188.4" stroke="#2c2c2a" stroke-width="1.0"/>
<text x="14.0" y="185.4" font-size="11.0" fill="#898781">200</text>
<line x1="10.0" y1="104.5" x2="830.0" y2="104.5" stroke="#2c2c2a" stroke-width="1.0"/>
<text x="14.0" y="101.5" font-size="11.0" fill="#898781">300</text>
<polyline points="390.7,152.9 410.2,152.2 429.8,151.8 449.3,152.2 468.8,152.4 488.3,151.9 507.9,150.3 527.4,147.0 546.9,142.5 566.4,134.6 586.0,128.9 605.5,113.6 625.0,109.5 644.5,103.1 664.0,100.7 683.6,96.1 703.1,89.5 722.6,88.5 742.1,89.4 761.7,89.4 781.2,87.1 800.7,81.1 820.2,79.8" fill="none" stroke="#c98500" stroke-width="1.5" stroke-linejoin="round" stroke-linecap="round"/>
<polyline points="390.7,191.1 410.2,191.0 429.8,190.5 449.3,191.4 468.8,191.6 488.3,191.4 507.9,191.1 527.4,189.8 546.9,188.8 566.4,191.3 586.0,189.1 605.5,184.4 625.0,180.9 644.5,177.7 664.0,176.1 683.6,172.1 703.1,167.7 722.6,165.2 742.1,162.6 761.7,160.9 781.2,157.8 800.7,155.7 820.2,153.2" fill="none" stroke="#3987e5" stroke-width="1.5" stroke-linejoin="round" stroke-linecap="round"/>
<polyline points="390.7,229.3 410.2,229.7 429.8,229.2 449.3,230.5 468.8,230.8 488.3,231.0 507.9,231.8 527.4,232.6 546.9,235.2 566.4,248.0 586.0,249.4 605.5,255.2 625.0,252.4 644.5,252.3 664.0,251.4 683.6,248.2 703.1,246.0 722.6,241.8 742.1,235.7 761.7,232.5 781.2,228.5 800.7,230.4 820.2,226.7" fill="none" stroke="#d55181" stroke-width="1.5" stroke-linejoin="round" stroke-linecap="round"/>
<polyline points="136.9,177.4 156.4,179.0 176.0,182.2 195.5,182.2 215.0,183.0 234.5,188.9 254.0,193.9 273.6,193.6 293.1,201.0 312.6,198.9 332.1,201.3 351.7,203.8 371.2,201.2 390.7,201.4 410.2,195.6 429.8,192.5 449.3,192.5 468.8,191.4 488.3,184.7 507.9,178.5 527.4,173.6 546.9,172.9 566.4,184.4 586.0,175.9 605.5,162.5 625.0,159.0 644.5,155.7 664.0,154.5 683.6,153.4 703.1,131.6 722.6,132.8 742.1,141.4 761.7,144.0 781.2,144.7 800.7,137.5 820.2,138.4" fill="none" stroke="#9085e9" stroke-width="1.5" stroke-linejoin="round" stroke-linecap="round"/>
<rect x="14.4" y="146.4" width="10.7" height="209.6" fill="none" stroke="#e66767" stroke-width="1.3"/>
<rect x="33.9" y="146.4" width="10.7" height="50.3" fill="#008300"/>
<rect x="53.4" y="187.5" width="10.7" height="9.2" fill="none" stroke="#e66767" stroke-width="1.3"/>
<rect x="73.0" y="187.5" width="10.7" height="5.0" fill="#008300"/>
<rect x="92.5" y="172.4" width="10.7" height="20.1" fill="none" stroke="#e66767" stroke-width="1.3"/>
<rect x="112.0" y="159.0" width="10.7" height="13.4" fill="none" stroke="#e66767" stroke-width="1.3"/>
<rect x="131.5" y="159.0" width="10.7" height="27.7" fill="#008300"/>
<rect x="151.1" y="158.2" width="10.7" height="28.5" fill="none" stroke="#e66767" stroke-width="1.3"/>
<rect x="170.6" y="158.2" width="10.7" height="61.2" fill="#008300"/>
<rect x="190.1" y="187.5" width="10.7" height="31.9" fill="none" stroke="#e66767" stroke-width="1.3"/>
<rect x="209.6" y="187.5" width="10.7" height="10.1" fill="#008300"/>
<rect x="229.2" y="197.6" width="10.7" height="16.8" fill="#008300"/>
<rect x="248.7" y="193.4" width="10.7" height="21.0" fill="none" stroke="#e66767" stroke-width="1.3"/>
<rect x="268.2" y="185.0" width="10.7" height="8.4" fill="none" stroke="#e66767" stroke-width="1.3"/>
<rect x="287.7" y="185.0" width="10.7" height="25.1" fill="#008300"/>
<rect x="307.3" y="204.3" width="10.7" height="5.9" fill="none" stroke="#e66767" stroke-width="1.3"/>
<rect x="326.8" y="204.3" width="10.7" height="1.2" fill="#898781"/>
<rect x="346.3" y="204.3" width="10.7" height="10.9" fill="#008300"/>
<rect x="365.8" y="195.9" width="10.7" height="19.3" fill="none" stroke="#e66767" stroke-width="1.3"/>
<rect x="385.3" y="195.1" width="10.7" height="1.2" fill="none" stroke="#e66767" stroke-width="1.3"/>
<rect x="404.9" y="143.9" width="10.7" height="51.1" fill="none" stroke="#e66767" stroke-width="1.3"/>
<rect x="424.4" y="143.9" width="10.7" height="44.4" fill="#008300"/>
<rect x="443.9" y="188.4" width="10.7" height="15.9" fill="#008300"/>
<rect x="463.4" y="196.7" width="10.7" height="7.5" fill="none" stroke="#e66767" stroke-width="1.3"/>
<rect x="483.0" y="169.1" width="10.7" height="27.7" fill="none" stroke="#e66767" stroke-width="1.3"/>
<rect x="502.5" y="152.3" width="10.7" height="16.8" fill="none" stroke="#e66767" stroke-width="1.3"/>
<rect x="522.0" y="152.3" width="10.7" height="8.4" fill="#008300"/>
<rect x="541.5" y="138.9" width="10.7" height="21.8" fill="none" stroke="#e66767" stroke-width="1.3"/>
<rect x="561.1" y="138.9" width="10.7" height="129.9" fill="#008300"/>
<rect x="580.6" y="144.8" width="10.7" height="124.1" fill="none" stroke="#e66767" stroke-width="1.3"/>
<rect x="600.1" y="102.9" width="10.7" height="41.9" fill="none" stroke="#e66767" stroke-width="1.3"/>
<rect x="619.6" y="102.9" width="10.7" height="41.9" fill="#008300"/>
<rect x="639.2" y="128.8" width="10.7" height="15.9" fill="none" stroke="#e66767" stroke-width="1.3"/>
<rect x="658.7" y="128.8" width="10.7" height="23.5" fill="#008300"/>
<rect x="678.2" y="131.4" width="10.7" height="21.0" fill="none" stroke="#e66767" stroke-width="1.3"/>
<rect x="697.7" y="116.3" width="10.7" height="15.1" fill="none" stroke="#e66767" stroke-width="1.3"/>
<rect x="717.3" y="116.3" width="10.7" height="36.9" fill="#008300"/>
<rect x="736.8" y="153.1" width="10.7" height="10.1" fill="#008300"/>
<rect x="756.3" y="163.2" width="10.7" height="1.2" fill="#898781"/>
<rect x="775.8" y="133.0" width="10.7" height="30.2" fill="none" stroke="#e66767" stroke-width="1.3"/>
<rect x="795.3" y="102.0" width="10.7" height="31.0" fill="none" stroke="#e66767" stroke-width="1.3"/>
<rect x="814.9" y="102.0" width="10.7" height="36.0" fill="#008300"/>
<circle cx="800.7" cy="102.0" r="2" fill="#c3c2b7"/>
<line x1="800.7" y1="102.0" x2="792.7" y2="102.0" stroke="#c3c2b7" stroke-width="1.0"/>
<text x="789.7" y="106.0" font-size="11.0" fill="#c3c2b7" text-anchor="end">303</text>
<circle cx="19.8" cy="356.0" r="2" fill="#c3c2b7"/>
<line x1="19.8" y1="356.0" x2="27.8" y2="356.0" stroke="#c3c2b7" stroke-width="1.0"/>
<text x="30.8" y="350.0" font-size="11.0" fill="#c3c2b7">0</text>
<text x="14.0" y="376.0" font-size="11.0" fill="#c3c2b7">VOL 14 forks</text>
<text x="96.6" y="376.0" font-size="11.0" fill="#c98500">MA5:13.2</text>
<text x="155.0" y="376.0" font-size="11.0" fill="#3987e5">MA10:15.6</text>
<text x="14.0" y="395.0" font-size="10" fill="#898781">28</text>
<rect x="14.4" y="431.9" width="10.7" height="38.1" fill="none" stroke="#e66767" stroke-width="1.1"/>
<rect x="33.9" y="437.8" width="10.7" height="32.2" fill="#008300"/>
<rect x="53.4" y="423.1" width="10.7" height="46.9" fill="none" stroke="#e66767" stroke-width="1.1"/>
<rect x="73.0" y="449.5" width="10.7" height="20.5" fill="#008300"/>
<rect x="92.5" y="417.3" width="10.7" height="52.7" fill="none" stroke="#e66767" stroke-width="1.1"/>
<rect x="112.0" y="411.4" width="10.7" height="58.6" fill="none" stroke="#e66767" stroke-width="1.1"/>
<rect x="131.5" y="434.9" width="10.7" height="35.1" fill="#008300"/>
<rect x="151.1" y="437.8" width="10.7" height="32.2" fill="none" stroke="#e66767" stroke-width="1.1"/>
<rect x="170.6" y="434.9" width="10.7" height="35.1" fill="#008300"/>
<rect x="190.1" y="449.5" width="10.7" height="20.5" fill="none" stroke="#e66767" stroke-width="1.1"/>
<rect x="209.6" y="452.4" width="10.7" height="17.6" fill="#008300"/>
<rect x="229.2" y="437.8" width="10.7" height="32.2" fill="#008300"/>
<rect x="248.7" y="429.0" width="10.7" height="41.0" fill="none" stroke="#e66767" stroke-width="1.1"/>
<rect x="268.2" y="452.4" width="10.7" height="17.6" fill="none" stroke="#e66767" stroke-width="1.1"/>
<rect x="287.7" y="449.5" width="10.7" height="20.5" fill="#008300"/>
<rect x="307.3" y="440.7" width="10.7" height="29.3" fill="none" stroke="#e66767" stroke-width="1.1"/>
<rect x="326.8" y="437.8" width="10.7" height="32.2" fill="#898781"/>
<rect x="346.3" y="446.6" width="10.7" height="23.4" fill="#008300"/>
<rect x="365.8" y="467.1" width="10.7" height="2.9" fill="none" stroke="#e66767" stroke-width="1.1"/>
<rect x="385.3" y="440.7" width="10.7" height="29.3" fill="none" stroke="#e66767" stroke-width="1.1"/>
<rect x="404.9" y="414.4" width="10.7" height="55.6" fill="none" stroke="#e66767" stroke-width="1.1"/>
<rect x="424.4" y="434.9" width="10.7" height="35.1" fill="#008300"/>
<rect x="443.9" y="446.6" width="10.7" height="23.4" fill="#008300"/>
<rect x="463.4" y="446.6" width="10.7" height="23.4" fill="none" stroke="#e66767" stroke-width="1.1"/>
<rect x="483.0" y="434.9" width="10.7" height="35.1" fill="none" stroke="#e66767" stroke-width="1.1"/>
<rect x="502.5" y="396.8" width="10.7" height="73.2" fill="none" stroke="#e66767" stroke-width="1.1"/>
<rect x="522.0" y="414.4" width="10.7" height="55.6" fill="#008300"/>
<rect x="541.5" y="420.2" width="10.7" height="49.8" fill="none" stroke="#e66767" stroke-width="1.1"/>
<rect x="561.1" y="437.8" width="10.7" height="32.2" fill="#008300"/>
<rect x="580.6" y="417.3" width="10.7" height="52.7" fill="none" stroke="#e66767" stroke-width="1.1"/>
<rect x="600.1" y="388.0" width="10.7" height="82.0" fill="none" stroke="#e66767" stroke-width="1.1"/>
<rect x="619.6" y="408.5" width="10.7" height="61.5" fill="#008300"/>
<rect x="639.2" y="388.0" width="10.7" height="82.0" fill="none" stroke="#e66767" stroke-width="1.1"/>
<rect x="658.7" y="423.1" width="10.7" height="46.9" fill="#008300"/>
<rect x="678.2" y="434.9" width="10.7" height="35.1" fill="none" stroke="#e66767" stroke-width="1.1"/>
<rect x="697.7" y="411.4" width="10.7" height="58.6" fill="none" stroke="#e66767" stroke-width="1.1"/>
<rect x="717.3" y="429.0" width="10.7" height="41.0" fill="#008300"/>
<rect x="736.8" y="437.8" width="10.7" height="32.2" fill="#008300"/>
<rect x="756.3" y="420.2" width="10.7" height="49.8" fill="#898781"/>
<rect x="775.8" y="443.6" width="10.7" height="26.4" fill="none" stroke="#e66767" stroke-width="1.1"/>
<rect x="795.3" y="426.1" width="10.7" height="43.9" fill="none" stroke="#e66767" stroke-width="1.1"/>
<rect x="814.9" y="429.0" width="10.7" height="41.0" fill="#008300"/>
<polyline points="195.5,432.8 215.0,434.9 234.5,434.9 254.0,435.4 273.6,435.7 293.1,439.0 312.6,441.9 332.1,442.2 351.7,443.1 371.2,446.3 390.7,445.4 410.2,441.6 429.8,441.3 449.3,443.1 468.8,442.5 488.3,441.0 507.9,436.6 527.4,434.3 546.9,431.6 566.4,428.7 586.0,426.4 605.5,423.7 625.0,421.1 644.5,415.2 664.0,412.9 683.6,412.9 703.1,414.4 722.6,415.8 742.1,417.6 761.7,415.8 781.2,418.5 800.7,422.3 820.2,424.3" fill="none" stroke="#3987e5" stroke-width="1.5" stroke-linejoin="round" stroke-linecap="round"/>
<polyline points="97.9,431.9 117.4,427.8 136.9,427.2 156.4,430.2 176.0,427.2 195.5,433.7 215.0,441.9 234.5,442.5 254.0,440.7 273.6,444.2 293.1,444.2 312.6,441.9 332.1,441.9 351.7,445.4 371.2,448.3 390.7,446.6 410.2,441.3 429.8,440.7 449.3,440.7 468.8,436.6 488.3,435.4 507.9,431.9 527.4,427.8 546.9,422.6 566.4,420.8 586.0,417.3 605.5,415.5 625.0,414.4 644.5,407.9 664.0,405.0 683.6,408.5 703.1,413.2 722.6,417.3 742.1,427.2 761.7,426.7 781.2,428.4 800.7,431.3 820.2,431.3" fill="none" stroke="#c98500" stroke-width="1.5" stroke-linejoin="round" stroke-linecap="round"/>
</svg>