<svg xmlns="http://www.w3.org/2000/svg" viewBox="0 0 840 496" width="840" height="496" font-family="-apple-system,&#39;Segoe UI&#39;,system-ui,sans-serif" role="img" aria-label="awesome-selfhosted/awesome-selfhosted candlestick chart">
<text x="14.0" y="20.0" font-size="15" fill="#ffffff" font-weight="650">awesome-selfhosted/awesome-selfhosted</text>
<text x="323.2" y="20.0" font-size="11.5" fill="#c3c2b7">daily · new stars, volume = new forks</text>
<text x="805.8" y="20.0" font-size="11.0" fill="#c3c2b7">fall</text>
<rect x="791" y="10" width="9" height="12" fill="#008300"/>
<text x="750.6" y="20.0" font-size="11.0" fill="#c3c2b7">rise</text>
<rect x="736" y="10" width="9" height="12" fill="none" stroke="#e66767" stroke-width="1.5"/>
<text x="14.0" y="38.0" font-size="11.0" fill="#898781">last 30 days · +6,073 stars · +360 forks · updated 2026-07-08</text>
<rect x="10" y="66" width="820" height="290" fill="none" stroke="#2c2c2a"/>
<rect x="10" y="384" width="820" height="86" fill="none" stroke="#2c2c2a"/>
<text x="38.0" y="490.0" font-size="11.0" fill="#898781" text-anchor="middle">2026-06</text>
<line x1="611.3" y1="66.0" x2="611.3" y2="356.0" stroke="#2c2c2a" stroke-width="1.0"/>
<line x1="611.3" y1="384.0" x2="611.3" y2="470.0" stroke="#2c2c2a" stroke-width="1.0"/>
<text x="625.0" y="490.0" font-size="11.0" fill="#898781" text-anchor="middle">2026-07</text>
<text x="14.0" y="58.0" font-size="11.0" fill="#c3c2b7">BOLL(20,2)</text>
<text x="84.5" y="58.0" font-size="11.0" fill="#c98500">UP:270.9</text>
<text x="142.9" y="58.0" font-size="11.0" fill="#3987e5">MID:199.1</text>
<text x="207.4" y="58.0" font-size="11.0" fill="#d55181">LOW:127.2</text>
<text x="271.8" y="58.0" font-size="11.0" fill="#9085e9">MA7:214.9</text>
<line x1="10.0" y1="356.0" x2="830.0" y2="356.0" stroke="#2c2c2a" stroke-width="1.0"/>
<text x="14.0" y="353.0" font-size="11.0" fill="#898781">0</text>
<line x1="10.0" y1="254.1" x2="830.0" y2="254.1" stroke="#2c2c2a" stroke-width="1.0"/>
<text x="14.0" y="251.1" font-size="11.0" fill="#898781">100</text>
<line x1="10.0" y1="152.1" x2="830.0" y2="152.1" stroke="#2c2c2a" stroke-width="1.0"/>
<text x="14.0" y="149.1" font-size="11.0" fill="#898781">200</text>
<polyline points="543.0,109.0 570.3,108.1 597.7,107.7 625.0,108.2 652.3,108.4 679.7,107.7 707.0,105.9 734.3,101.8 761.7,96.3 789.0,86.7 816.3,79.8" fill="none" stroke="#c98500" stroke-width="1.5" stroke-linejoin="round" stroke-linecap="round"/>
<polyline points="543.0,155.4 570.3,155.3 597.7,154.8 625.0,155.8 652.3,156.0 679.7,155.8 707.0,155.4 734.3,153.8 761.7,152.7 789.0,155.7 816.3,153.1" fill="none" stroke="#3987e5" stroke-width="1.5" stroke-linejoin="round" stroke-linecap="round"/>
<polyline points="543.0,201.9 570.3,202.4 597.7,201.8 625.0,203.4 652.3,203.7 679.7,203.9 707.0,205.0 734.3,205.9 761.7,209.0 789.0,224.6 816.3,226.3" fill="none" stroke="#d55181" stroke-width="1.5" stroke-linejoin="round" stroke-linecap="round"/>
<polyline points="187.7,138.7 215.0,140.8 242.3,144.7 269.7,144.7 297.0,145.6 324.3,152.8 351.7,158.8 379.0,158.5 406.3,167.5 433.7,164.9 461.0,167.8 488.3,170.9 515.7,167.7 543.0,168.0 570.3,160.9 597.7,157.1 625.0,157.1 652.3,155.8 679.7,147.7 707.0,140.2 734.3,134.2 761.7,133.3 789.0,147.3 816.3,136.9" fill="none" stroke="#9085e9" stroke-width="1.5" stroke-linejoin="round" stroke-linecap="round"/>
<rect x="16.1" y="101.1" width="15.0" height="254.9" fill="none" stroke="#e66767" stroke-width="1.3"/>
<rect x="43.5" y="101.1" width="15.0" height="61.2" fill="#008300"/>
<rect x="70.8" y="151.1" width="15.0" height="11.2" fill="none" stroke="#e66767" stroke-width="1.3"/>
<rect x="98.1" y="151.1" width="15.0" height="6.1" fill="#008300"/>
<rect x="125.5" y="132.7" width="15.0" height="24.5" fill="none" stroke="#e66767" stroke-width="1.3"/>
<rect x="152.8" y="116.4" width="15.0" height="16.3" fill="none" stroke="#e66767" stroke-width="1.3"/>
<rect x="180.1" y="116.4" width="15.0" height="33.6" fill="#008300"/>
<rect x="207.5" y="115.4" width="15.0" height="34.7" fill="none" stroke="#e66767" stroke-width="1.3"/>
<rect x="234.8" y="115.4" width="15.0" height="74.4" fill="#008300"/>
<rect x="262.1" y="151.1" width="15.0" height="38.7" fill="none" stroke="#e66767" stroke-width="1.3"/>
<rect x="289.5" y="151.1" width="15.0" height="12.2" fill="#008300"/>
<rect x="316.8" y="163.3" width="15.0" height="20.4" fill="#008300"/>
<rect x="344.1" y="158.2" width="15.0" height="25.5" fill="none" stroke="#e66767" stroke-width="1.3"/>
<rect x="371.5" y="148.0" width="15.0" height="10.2" fill="none" stroke="#e66767" stroke-width="1.3"/>
<rect x="398.8" y="148.0" width="15.0" height="30.6" fill="#008300"/>
<rect x="426.1" y="171.5" width="15.0" height="7.1" fill="none" stroke="#e66767" stroke-width="1.3"/>
<rect x="453.5" y="171.5" width="15.0" height="1.2" fill="#898781"/>
<rect x="480.8" y="171.5" width="15.0" height="13.3" fill="#008300"/>
<rect x="508.1" y="161.3" width="15.0" height="23.4" fill="none" stroke="#e66767" stroke-width="1.3"/>
<rect x="535.5" y="160.3" width="15.0" height="1.2" fill="none" stroke="#e66767" stroke-width="1.3"/>
<rect x="562.8" y="98.1" width="15.0" height="62.2" fill="none" stroke="#e66767" stroke-width="1.3"/>
<rect x="590.1" y="98.1" width="15.0" height="54.0" fill="#008300"/>
<rect x="617.5" y="152.1" width="15.0" height="19.4" fill="#008300"/>
<rect x="644.8" y="162.3" width="15.0" height="9.2" fill="none" stroke="#e66767" stroke-width="1.3"/>
<rect x="672.1" y="128.7" width="15.0" height="33.6" fill="none" stroke="#e66767" stroke-width="1.3"/>
<rect x="699.5" y="108.3" width="15.0" height="20.4" fill="none" stroke="#e66767" stroke-width="1.3"/>
<rect x="726.8" y="108.3" width="15.0" height="10.2" fill="#008300"/>
<rect x="754.1" y="92.0" width="15.0" height="26.5" fill="none" stroke="#e66767" stroke-width="1.3"/>
<rect x="781.5" y="92.0" width="15.0" height="158.0" fill="#008300"/>
<rect x="808.8" y="99.1" width="15.0" height="150.9" fill="none" stroke="#e66767" stroke-width="1.3"/>
<circle cx="761.7" cy="92.0" r="2" fill="#c3c2b7"/>
<line x1="761.7" y1="92.0" x2="753.7" y2="92.0" stroke="#c3c2b7" stroke-width="1.0"/>
<text x="750.7" y="96.0" font-size="11.0" fill="#c3c2b7" text-anchor="end">259</text>
<circle cx="23.7" cy="356.0" r="2" fill="#c3c2b7"/>
<line x1="23.7" y1="356.0" x2="31.7" y2="356.0" stroke="#c3c2b7" stroke-width="1.0"/>
<text x="34.7" y="350.0" font-size="11.0" fill="#c3c2b7">0</text>
<text x="14.0" y="376.0" font-size="11.0" fill="#c3c2b7">VOL 18 forks</text>
<text x="96.6" y="376.0" font-size="11.0" fill="#c98500">MA5:18</text>
<text x="142.9" y="376.0" font-size="11.0" fill="#3987e5">MA10:14.9</text>
<text x="14.0" y="395.0" font-size="10" fill="#898781">25</text>
<rect x="16.1" y="427.4" width="15.0" height="42.6" fill="none" stroke="#e66767" stroke-width="1.1"/>
<rect x="43.5" y="433.9" width="15.0" height="36.1" fill="#008300"/>
<rect x="70.8" y="417.5" width="15.0" height="52.5" fill="none" stroke="#e66767" stroke-width="1.1"/>
<rect x="98.1" y="447.0" width="15.0" height="23.0" fill="#008300"/>
<rect x="125.5" y="411.0" width="15.0" height="59.0" fill="none" stroke="#e66767" stroke-width="1.1"/>
<rect x="152.8" y="404.4" width="15.0" height="65.6" fill="none" stroke="#e66767" stroke-width="1.1"/>
<rect x="180.1" y="430.6" width="15.0" height="39.4" fill="#008300"/>
<rect x="207.5" y="433.9" width="15.0" height="36.1" fill="none" stroke="#e66767" stroke-width="1.1"/>
<rect x="234.8" y="430.6" width="15.0" height="39.4" fill="#008300"/>
<rect x="262.1" y="447.0" width="15.0" height="23.0" fill="none" stroke="#e66767" stroke-width="1.1"/>
<rect x="289.5" y="450.3" width="15.0" height="19.7" fill="#008300"/>
<rect x="316.8" y="433.9" width="15.0" height="36.1" fill="#008300"/>
<rect x="344.1" y="424.1" width="15.0" height="45.9" fill="none" stroke="#e66767" stroke-width="1.1"/>
<rect x="371.5" y="450.3" width="15.0" height="19.7" fill="none" stroke="#e66767" stroke-width="1.1"/>
<rect x="398.8" y="447.0" width="15.0" height="23.0" fill="#008300"/>
<rect x="426.1" y="437.2" width="15.0" height="32.8" fill="none" stroke="#e66767" stroke-width="1.1"/>
<rect x="453.5" y="433.9" width="15.0" height="36.1" fill="#898781"/>
<rect x="480.8" y="443.8" width="15.0" height="26.2" fill="#008300"/>
<rect x="508.1" y="466.7" width="15.0" height="3.3" fill="none" stroke="#e66767" stroke-width="1.1"/>
<rect x="535.5" y="437.2" width="15.0" height="32.8" fill="none" stroke="#e66767" stroke-width="1.1"/>
<rect x="562.8" y="407.7" width="15.0" height="62.3" fill="none" stroke="#e66767" stroke-width="1.1"/>
<rect x="590.1" y="430.6" width="15.0" height="39.4" fill="#008300"/>
<rect x="617.5" y="443.8" width="15.0" height="26.2" fill="#008300"/>
<rect x="644.8" y="443.8" width="15.0" height="26.2" fill="none" stroke="#e66767" stroke-width="1.1"/>
<rect x="672.1" y="430.6" width="15.0" height="39.4" fill="none" stroke="#e66767" stroke-width="1.1"/>
<rect x="699.5" y="388.0" width="15.0" height="82.0" fill="none" stroke="#e66767" stroke-width="1.1"/>
<rect x="726.8" y="407.7" width="15.0" height="62.3" fill="#008300"/>
<rect x="754.1" y="414.2" width="15.0" height="55.8" fill="none" stroke="#e66767" stroke-width="1.1"/>
<rect x="781.5" y="433.9" width="15.0" height="36.1" fill="#008300"/>
<rect x="808.8" y="411.0" width="15.0" height="59.0" fill="none" stroke="#e66767" stroke-width="1.1"/>
<polyline points="269.7,428.3 297.0,430.6 324.3,430.6 351.7,431.3 379.0,431.6 406.3,435.2 433.7,438.5 461.0,438.8 488.3,439.8 515.7,443.4 543.0,442.4 570.3,438.2 597.7,437.9 625.0,439.8 652.3,439.2 679.7,437.5 707.0,432.6 734.3,430.0 761.7,427.0 789.0,423.8 816.3,421.1" fill="none" stroke="#3987e5" stroke-width="1.5" stroke-linejoin="round" stroke-linecap="round"/>
<polyline points="133.0,427.4 160.3,422.8 187.7,422.1 215.0,425.4 242.3,422.1 269.7,429.3 297.0,438.5 324.3,439.2 351.7,437.2 379.0,441.1 406.3,441.1 433.7,438.5 461.0,438.5 488.3,442.4 515.7,445.7 543.0,443.8 570.3,437.9 597.7,437.2 625.0,437.2 652.3,432.6 679.7,431.3 707.0,427.4 734.3,422.8 761.7,416.9 789.0,414.9 816.3,411.0" fill="none" stroke="#c98500" stroke-width="1.5" stroke-linejoin="round" stroke-linecap="round"/>
</svg>