<svg xmlns="http://www.w3.org/2000/svg" viewBox="0 0 840 496" width="840" height="496" font-family="-apple-system,&#39;Segoe UI&#39;,system-ui,sans-serif" role="img" aria-label="awesome-selfhosted/awesome-selfhosted candlestick chart">
<text x="14.0" y="20.0" font-size="15" fill="#ffffff" font-weight="650">awesome-selfhosted/awesome-selfhosted</text>
<text x="323.2" y="20.0" font-size="11.5" fill="#c3c2b7">daily · new stars, volume = new forks</text>
<text x="805.8" y="20.0" font-size="11.0" fill="#c3c2b7">fall</text>
<rect x="791" y="10" width="9" height="12" fill="#008300"/>
<text x="750.6" y="20.0" font-size="11.0" fill="#c3c2b7">rise</text>
<rect x="736" y="10" width="9" height="12" fill="none" stroke="#e66767" stroke-width="1.5"/>
<text x="14.0" y="38.0" font-size="11.0" fill="#898781">last 40 days · +8,663 stars · +536 forks · updated 2026-07-18</text>
<rect x="10" y="66" width="820" height="290" fill="none" stroke="#2c2c2a"/>
<rect x="10" y="384" width="820" height="86" fill="none" stroke="#2c2c2a"/>
<text x="38.0" y="490.0" font-size="11.0" fill="#898781" text-anchor="middle">2026-06</text>
<line x1="461.0" y1="66.0" x2="461.0" y2="356.0" stroke="#2c2c2a" stroke-width="1.0"/>
<line x1="461.0" y1="384.0" x2="461.0" y2="470.0" stroke="#2c2c2a" stroke-width="1.0"/>
<text x="471.2" y="490.0" font-size="11.0" fill="#898781" text-anchor="middle">2026-07</text>
<text x="14.0" y="58.0" font-size="11.0" fill="#c3c2b7">BOLL(20,2)</text>
<text x="84.5" y="58.0" font-size="11.0" fill="#c98500">UP:320.8</text>
<text x="142.9" y="58.0" font-size="11.0" fill="#3987e5">MID:236.4</text>
<text x="207.4" y="58.0" font-size="11.0" fill="#d55181">LOW:152.1</text>
<text x="271.8" y="58.0" font-size="11.0" fill="#9085e9">MA7:252.1</text>
<line x1="10.0" y1="356.0" x2="830.0" y2="356.0" stroke="#2c2c2a" stroke-width="1.0"/>
<text x="14.0" y="353.0" font-size="11.0" fill="#898781">0</text>
<line x1="10.0" y1="269.9" x2="830.0" y2="269.9" stroke="#2c2c2a" stroke-width="1.0"/>
<text x="14.0" y="266.9" font-size="11.0" fill="#898781">100</text>
<line x1="10.0" y1="183.8" x2="830.0" y2="183.8" stroke="#2c2c2a" stroke-width="1.0"/>
<text x="14.0" y="180.8" font-size="11.0" fill="#898781">200</text>
<line x1="10.0" y1="97.7" x2="830.0" y2="97.7" stroke="#2c2c2a" stroke-width="1.0"/>
<text x="14.0" y="94.7" font-size="11.0" fill="#898781">300</text>
<polyline points="409.8,147.4 430.2,146.6 450.8,146.3 471.2,146.7 491.8,146.8 512.2,146.3 532.8,144.7 553.2,141.3 573.8,136.6 594.2,128.5 614.8,122.7 635.2,107.0 655.8,102.8 676.2,96.2 696.8,93.8 717.2,89.0 737.8,82.2 758.2,81.2 778.8,82.2 799.2,82.2 819.8,79.8" fill="none" stroke="#c98500" stroke-width="1.5" stroke-linejoin="round" stroke-linecap="round"/>
<polyline points="409.8,186.6 430.2,186.5 450.8,186.0 471.2,186.9 491.8,187.1 512.2,186.9 532.8,186.6 553.2,185.2 573.8,184.3 594.2,186.8 614.8,184.6 635.2,179.7 655.8,176.2 676.2,172.8 696.8,171.2 717.2,167.1 737.8,162.6 758.2,160.0 778.8,157.3 799.2,155.6 819.8,152.4" fill="none" stroke="#3987e5" stroke-width="1.5" stroke-linejoin="round" stroke-linecap="round"/>
<polyline points="409.8,225.8 430.2,226.3 450.8,225.8 471.2,227.1 491.8,227.4 512.2,227.6 532.8,228.4 553.2,229.2 573.8,231.9 594.2,245.1 614.8,246.5 635.2,252.5 655.8,249.5 676.2,249.5 696.8,248.6 717.2,245.2 737.8,243.0 758.2,238.7 778.8,232.4 799.2,229.1 819.8,225.1" fill="none" stroke="#d55181" stroke-width="1.5" stroke-linejoin="round" stroke-linecap="round"/>
<polyline points="143.2,172.5 163.8,174.2 184.2,177.5 204.8,177.5 225.2,178.3 245.8,184.4 266.2,189.5 286.8,189.2 307.2,196.8 327.8,194.6 348.2,197.0 368.8,199.6 389.2,197.0 409.8,197.2 430.2,191.2 450.8,188.0 471.2,188.0 491.8,186.9 512.2,180.1 532.8,173.7 553.2,168.6 573.8,167.9 594.2,179.7 614.8,171.0 635.2,157.2 655.8,153.6 676.2,150.2 696.8,149.0 717.2,147.9 737.8,125.5 758.2,126.7 778.8,135.6 799.2,138.2 819.8,138.9" fill="none" stroke="#9085e9" stroke-width="1.5" stroke-linejoin="round" stroke-linecap="round"/>
<rect x="14.6" y="140.7" width="11.3" height="215.3" fill="none" stroke="#e66767" stroke-width="1.3"/>
<rect x="35.1" y="140.7" width="11.3" height="51.7" fill="#008300"/>
<rect x="55.6" y="182.9" width="11.3" height="9.5" fill="none" stroke="#e66767" stroke-width="1.3"/>
<rect x="76.1" y="182.9" width="11.3" height="5.2" fill="#008300"/>
<rect x="96.6" y="167.4" width="11.3" height="20.7" fill="none" stroke="#e66767" stroke-width="1.3"/>
<rect x="117.1" y="153.6" width="11.3" height="13.8" fill="none" stroke="#e66767" stroke-width="1.3"/>
<rect x="137.6" y="153.6" width="11.3" height="28.4" fill="#008300"/>
<rect x="158.1" y="152.8" width="11.3" height="29.3" fill="none" stroke="#e66767" stroke-width="1.3"/>
<rect x="178.6" y="152.8" width="11.3" height="62.9" fill="#008300"/>
<rect x="199.1" y="182.9" width="11.3" height="32.7" fill="none" stroke="#e66767" stroke-width="1.3"/>
<rect x="219.6" y="182.9" width="11.3" height="10.3" fill="#008300"/>
<rect x="240.1" y="193.3" width="11.3" height="17.2" fill="#008300"/>
<rect x="260.6" y="189.0" width="11.3" height="21.5" fill="none" stroke="#e66767" stroke-width="1.3"/>
<rect x="281.1" y="180.3" width="11.3" height="8.6" fill="none" stroke="#e66767" stroke-width="1.3"/>
<rect x="301.6" y="180.3" width="11.3" height="25.8" fill="#008300"/>
<rect x="322.1" y="200.1" width="11.3" height="6.0" fill="none" stroke="#e66767" stroke-width="1.3"/>
<rect x="342.6" y="200.1" width="11.3" height="1.2" fill="#898781"/>
<rect x="363.1" y="200.1" width="11.3" height="11.2" fill="#008300"/>
<rect x="383.6" y="191.5" width="11.3" height="19.8" fill="none" stroke="#e66767" stroke-width="1.3"/>
<rect x="404.1" y="190.7" width="11.3" height="1.2" fill="none" stroke="#e66767" stroke-width="1.3"/>
<rect x="424.6" y="138.1" width="11.3" height="52.5" fill="none" stroke="#e66767" stroke-width="1.3"/>
<rect x="445.1" y="138.1" width="11.3" height="45.6" fill="#008300"/>
<rect x="465.6" y="183.8" width="11.3" height="16.4" fill="#008300"/>
<rect x="486.1" y="192.4" width="11.3" height="7.7" fill="none" stroke="#e66767" stroke-width="1.3"/>
<rect x="506.6" y="164.0" width="11.3" height="28.4" fill="none" stroke="#e66767" stroke-width="1.3"/>
<rect x="527.1" y="146.8" width="11.3" height="17.2" fill="none" stroke="#e66767" stroke-width="1.3"/>
<rect x="547.6" y="146.8" width="11.3" height="8.6" fill="#008300"/>
<rect x="568.1" y="133.0" width="11.3" height="22.4" fill="none" stroke="#e66767" stroke-width="1.3"/>
<rect x="588.6" y="133.0" width="11.3" height="133.5" fill="#008300"/>
<rect x="609.1" y="139.0" width="11.3" height="127.4" fill="none" stroke="#e66767" stroke-width="1.3"/>
<rect x="629.6" y="96.0" width="11.3" height="43.1" fill="none" stroke="#e66767" stroke-width="1.3"/>
<rect x="650.1" y="96.0" width="11.3" height="43.1" fill="#008300"/>
<rect x="670.6" y="122.6" width="11.3" height="16.4" fill="none" stroke="#e66767" stroke-width="1.3"/>
<rect x="691.1" y="122.6" width="11.3" height="24.1" fill="#008300"/>
<rect x="711.6" y="125.2" width="11.3" height="21.5" fill="none" stroke="#e66767" stroke-width="1.3"/>
<rect x="732.1" y="109.7" width="11.3" height="15.5" fill="none" stroke="#e66767" stroke-width="1.3"/>
<rect x="752.6" y="109.7" width="11.3" height="37.9" fill="#008300"/>
<rect x="773.1" y="147.6" width="11.3" height="10.3" fill="#008300"/>
<rect x="793.6" y="158.0" width="11.3" height="1.2" fill="#898781"/>
<rect x="814.1" y="127.0" width="11.3" height="31.0" fill="none" stroke="#e66767" stroke-width="1.3"/>
<circle cx="635.2" cy="96.0" r="2" fill="#c3c2b7"/>
<line x1="635.2" y1="96.0" x2="627.2" y2="96.0" stroke="#c3c2b7" stroke-width="1.0"/>
<text x="624.2" y="100.0" font-size="11.0" fill="#c3c2b7" text-anchor="end">302</text>
<circle cx="20.2" cy="356.0" r="2" fill="#c3c2b7"/>
<line x1="20.2" y1="356.0" x2="28.2" y2="356.0" stroke="#c3c2b7" stroke-width="1.0"/>
<text x="31.2" y="350.0" font-size="11.0" fill="#c3c2b7">0</text>
<text x="14.0" y="376.0" font-size="11.0" fill="#c3c2b7">VOL 9 forks</text>
<text x="90.6" y="376.0" font-size="11.0" fill="#c98500">MA5:14.2</text>
<text x="149.0" y="376.0" font-size="11.0" fill="#3987e5">MA10:17.6</text>
<text x="14.0" y="395.0" font-size="10" fill="#898781">28</text>
<rect x="14.6" y="431.9" width="11.3" height="38.1" fill="none" stroke="#e66767" stroke-width="1.1"/>
<rect x="35.1" y="437.8" width="11.3" height="32.2" fill="#008300"/>
<rect x="55.6" y="423.1" width="11.3" height="46.9" fill="none" stroke="#e66767" stroke-width="1.1"/>
<rect x="76.1" y="449.5" width="11.3" height="20.5" fill="#008300"/>
<rect x="96.6" y="417.3" width="11.3" height="52.7" fill="none" stroke="#e66767" stroke-width="1.1"/>
<rect x="117.1" y="411.4" width="11.3" height="58.6" fill="none" stroke="#e66767" stroke-width="1.1"/>
<rect x="137.6" y="434.9" width="11.3" height="35.1" fill="#008300"/>
<rect x="158.1" y="437.8" width="11.3" height="32.2" fill="none" stroke="#e66767" stroke-width="1.1"/>
<rect x="178.6" y="434.9" width="11.3" height="35.1" fill="#008300"/>
<rect x="199.1" y="449.5" width="11.3" height="20.5" fill="none" stroke="#e66767" stroke-width="1.1"/>
<rect x="219.6" y="452.4" width="11.3" height="17.6" fill="#008300"/>
<rect x="240.1" y="437.8" width="11.3" height="32.2" fill="#008300"/>
<rect x="260.6" y="429.0" width="11.3" height="41.0" fill="none" stroke="#e66767" stroke-width="1.1"/>
<rect x="281.1" y="452.4" width="11.3" height="17.6" fill="none" stroke="#e66767" stroke-width="1.1"/>
<rect x="301.6" y="449.5" width="11.3" height="20.5" fill="#008300"/>
<rect x="322.1" y="440.7" width="11.3" height="29.3" fill="none" stroke="#e66767" stroke-width="1.1"/>
<rect x="342.6" y="437.8" width="11.3" height="32.2" fill="#898781"/>
<rect x="363.1" y="446.6" width="11.3" height="23.4" fill="#008300"/>
<rect x="383.6" y="467.1" width="11.3" height="2.9" fill="none" stroke="#e66767" stroke-width="1.1"/>
<rect x="404.1" y="440.7" width="11.3" height="29.3" fill="none" stroke="#e66767" stroke-width="1.1"/>
<rect x="424.6" y="414.4" width="11.3" height="55.6" fill="none" stroke="#e66767" stroke-width="1.1"/>
<rect x="445.1" y="434.9" width="11.3" height="35.1" fill="#008300"/>
<rect x="465.6" y="446.6" width="11.3" height="23.4" fill="#008300"/>
<rect x="486.1" y="446.6" width="11.3" height="23.4" fill="none" stroke="#e66767" stroke-width="1.1"/>
<rect x="506.6" y="434.9" width="11.3" height="35.1" fill="none" stroke="#e66767" stroke-width="1.1"/>
<rect x="527.1" y="396.8" width="11.3" height="73.2" fill="none" stroke="#e66767" stroke-width="1.1"/>
<rect x="547.6" y="414.4" width="11.3" height="55.6" fill="#008300"/>
<rect x="568.1" y="420.2" width="11.3" height="49.8" fill="none" stroke="#e66767" stroke-width="1.1"/>
<rect x="588.6" y="437.8" width="11.3" height="32.2" fill="#008300"/>
<rect x="609.1" y="417.3" width="11.3" height="52.7" fill="none" stroke="#e66767" stroke-width="1.1"/>
<rect x="629.6" y="388.0" width="11.3" height="82.0" fill="none" stroke="#e66767" stroke-width="1.1"/>
<rect x="650.1" y="408.5" width="11.3" height="61.5" fill="#008300"/>
<rect x="670.6" y="388.0" width="11.3" height="82.0" fill="none" stroke="#e66767" stroke-width="1.1"/>
<rect x="691.1" y="423.1" width="11.3" height="46.9" fill="#008300"/>
<rect x="711.6" y="434.9" width="11.3" height="35.1" fill="none" stroke="#e66767" stroke-width="1.1"/>
<rect x="732.1" y="411.4" width="11.3" height="58.6" fill="none" stroke="#e66767" stroke-width="1.1"/>
<rect x="752.6" y="429.0" width="11.3" height="41.0" fill="#008300"/>
<rect x="773.1" y="437.8" width="11.3" height="32.2" fill="#008300"/>
<rect x="793.6" y="420.2" width="11.3" height="49.8" fill="#898781"/>
<rect x="814.1" y="443.6" width="11.3" height="26.4" fill="none" stroke="#e66767" stroke-width="1.1"/>
<polyline points="204.8,432.8 225.2,434.9 245.8,434.9 266.2,435.4 286.8,435.7 307.2,439.0 327.8,441.9 348.2,442.2 368.8,443.1 389.2,446.3 409.8,445.4 430.2,441.6 450.8,441.3 471.2,443.1 491.8,442.5 512.2,441.0 532.8,436.6 553.2,434.3 573.8,431.6 594.2,428.7 614.8,426.4 635.2,423.7 655.8,421.1 676.2,415.2 696.8,412.9 717.2,412.9 737.8,414.4 758.2,415.8 778.8,417.6 799.2,415.8 819.8,418.5" fill="none" stroke="#3987e5" stroke-width="1.5" stroke-linejoin="round" stroke-linecap="round"/>
<polyline points="102.2,431.9 122.8,427.8 143.2,427.2 163.8,430.2 184.2,427.2 204.8,433.7 225.2,441.9 245.8,442.5 266.2,440.7 286.8,444.2 307.2,444.2 327.8,441.9 348.2,441.9 368.8,445.4 389.2,448.3 409.8,446.6 430.2,441.3 450.8,440.7 471.2,440.7 491.8,436.6 512.2,435.4 532.8,431.9 553.2,427.8 573.8,422.6 594.2,420.8 614.8,417.3 635.2,415.5 655.8,414.4 676.2,407.9 696.8,405.0 717.2,408.5 737.8,413.2 758.2,417.3 778.8,427.2 799.2,426.7 819.8,428.4" fill="none" stroke="#c98500" stroke-width="1.5" stroke-linejoin="round" stroke-linecap="round"/>
</svg>