<svg xmlns="http://www.w3.org/2000/svg" viewBox="0 0 840 496" width="840" height="496" font-family="-apple-system,&#39;Segoe UI&#39;,system-ui,sans-serif" role="img" aria-label="awesome-selfhosted/awesome-selfhosted candlestick chart">
<text x="14.0" y="20.0" font-size="15" fill="#0b0b0b" font-weight="650">awesome-selfhosted/awesome-selfhosted</text>
<text x="323.2" y="20.0" font-size="11.5" fill="#52514e">daily · new stars, volume = new forks</text>
<text x="805.8" y="20.0" font-size="11.0" fill="#52514e">fall</text>
<rect x="791" y="10" width="9" height="12" fill="#008300"/>
<text x="750.6" y="20.0" font-size="11.0" fill="#52514e">rise</text>
<rect x="736" y="10" width="9" height="12" fill="none" stroke="#e34948" stroke-width="1.5"/>
<text x="14.0" y="38.0" font-size="11.0" fill="#898781">last 34 days · +7,141 stars · +453 forks · updated 2026-07-12</text>
<rect x="10" y="66" width="820" height="290" fill="none" stroke="#e1e0d9"/>
<rect x="10" y="384" width="820" height="86" fill="none" stroke="#e1e0d9"/>
<text x="38.0" y="490.0" font-size="11.0" fill="#898781" text-anchor="middle">2026-06</text>
<line x1="540.6" y1="66.0" x2="540.6" y2="356.0" stroke="#e1e0d9" stroke-width="1.0"/>
<line x1="540.6" y1="384.0" x2="540.6" y2="470.0" stroke="#e1e0d9" stroke-width="1.0"/>
<text x="552.6" y="490.0" font-size="11.0" fill="#898781" text-anchor="middle">2026-07</text>
<text x="14.0" y="58.0" font-size="11.0" fill="#52514e">BOLL(20,2)</text>
<text x="84.5" y="58.0" font-size="11.0" fill="#eda100">UP:304.6</text>
<text x="142.9" y="58.0" font-size="11.0" fill="#2a78d6">MID:214.7</text>
<text x="207.4" y="58.0" font-size="11.0" fill="#e87ba4">LOW:124.8</text>
<text x="271.8" y="58.0" font-size="11.0" fill="#4a3aa7">MA7:240.4</text>
<line x1="10.0" y1="356.0" x2="830.0" y2="356.0" stroke="#e1e0d9" stroke-width="1.0"/>
<text x="14.0" y="353.0" font-size="11.0" fill="#898781">0</text>
<line x1="10.0" y1="265.3" x2="830.0" y2="265.3" stroke="#e1e0d9" stroke-width="1.0"/>
<text x="14.0" y="262.3" font-size="11.0" fill="#898781">100</text>
<line x1="10.0" y1="174.6" x2="830.0" y2="174.6" stroke="#e1e0d9" stroke-width="1.0"/>
<text x="14.0" y="171.6" font-size="11.0" fill="#898781">200</text>
<line x1="10.0" y1="83.9" x2="830.0" y2="83.9" stroke="#e1e0d9" stroke-width="1.0"/>
<text x="14.0" y="80.9" font-size="11.0" fill="#898781">300</text>
<polyline points="480.3,136.3 504.4,135.5 528.5,135.1 552.6,135.6 576.8,135.7 600.9,135.1 625.0,133.5 649.1,129.8 673.2,125.0 697.4,116.4 721.5,110.3 745.6,93.7 769.7,89.3 793.8,82.4 817.9,79.8" fill="none" stroke="#eda100" stroke-width="1.5" stroke-linejoin="round" stroke-linecap="round"/>
<polyline points="480.3,177.6 504.4,177.4 528.5,177.0 552.6,177.9 576.8,178.1 600.9,177.9 625.0,177.6 649.1,176.2 673.2,175.1 697.4,177.8 721.5,175.5 745.6,170.4 769.7,166.6 793.8,163.1 817.9,161.3" fill="none" stroke="#2a78d6" stroke-width="1.5" stroke-linejoin="round" stroke-linecap="round"/>
<polyline points="480.3,218.9 504.4,219.4 528.5,218.9 552.6,220.2 576.8,220.5 600.9,220.7 625.0,221.6 649.1,222.5 673.2,225.3 697.4,239.2 721.5,240.7 745.6,247.0 769.7,243.9 793.8,243.9 817.9,242.9" fill="none" stroke="#e87ba4" stroke-width="1.5" stroke-linejoin="round" stroke-linecap="round"/>
<polyline points="166.8,162.7 190.9,164.6 215.0,168.0 239.1,168.0 263.2,168.8 287.4,175.3 311.5,180.6 335.6,180.3 359.7,188.3 383.8,186.1 407.9,188.6 432.1,191.3 456.2,188.5 480.3,188.8 504.4,182.4 528.5,179.1 552.6,179.1 576.8,177.9 600.9,170.7 625.0,164.0 649.1,158.7 673.2,157.9 697.4,170.4 721.5,161.1 745.6,146.6 769.7,142.9 793.8,139.3 817.9,138.0" fill="none" stroke="#4a3aa7" stroke-width="1.5" stroke-linejoin="round" stroke-linecap="round"/>
<rect x="15.4" y="129.3" width="13.3" height="226.7" fill="none" stroke="#e34948" stroke-width="1.3"/>
<rect x="39.5" y="129.3" width="13.3" height="54.4" fill="#008300"/>
<rect x="63.7" y="173.7" width="13.3" height="10.0" fill="none" stroke="#e34948" stroke-width="1.3"/>
<rect x="87.8" y="173.7" width="13.3" height="5.4" fill="#008300"/>
<rect x="111.9" y="157.4" width="13.3" height="21.8" fill="none" stroke="#e34948" stroke-width="1.3"/>
<rect x="136.0" y="142.9" width="13.3" height="14.5" fill="none" stroke="#e34948" stroke-width="1.3"/>
<rect x="160.1" y="142.9" width="13.3" height="29.9" fill="#008300"/>
<rect x="184.2" y="142.0" width="13.3" height="30.8" fill="none" stroke="#e34948" stroke-width="1.3"/>
<rect x="208.4" y="142.0" width="13.3" height="66.2" fill="#008300"/>
<rect x="232.5" y="173.7" width="13.3" height="34.5" fill="none" stroke="#e34948" stroke-width="1.3"/>
<rect x="256.6" y="173.7" width="13.3" height="10.9" fill="#008300"/>
<rect x="280.7" y="184.6" width="13.3" height="18.1" fill="#008300"/>
<rect x="304.8" y="180.1" width="13.3" height="22.7" fill="none" stroke="#e34948" stroke-width="1.3"/>
<rect x="329.0" y="171.0" width="13.3" height="9.1" fill="none" stroke="#e34948" stroke-width="1.3"/>
<rect x="353.1" y="171.0" width="13.3" height="27.2" fill="#008300"/>
<rect x="377.2" y="191.9" width="13.3" height="6.3" fill="none" stroke="#e34948" stroke-width="1.3"/>
<rect x="401.3" y="191.9" width="13.3" height="1.2" fill="#898781"/>
<rect x="425.4" y="191.9" width="13.3" height="11.8" fill="#008300"/>
<rect x="449.5" y="182.8" width="13.3" height="20.9" fill="none" stroke="#e34948" stroke-width="1.3"/>
<rect x="473.7" y="181.9" width="13.3" height="1.2" fill="none" stroke="#e34948" stroke-width="1.3"/>
<rect x="497.8" y="126.6" width="13.3" height="55.3" fill="none" stroke="#e34948" stroke-width="1.3"/>
<rect x="521.9" y="126.6" width="13.3" height="48.1" fill="#008300"/>
<rect x="546.0" y="174.6" width="13.3" height="17.2" fill="#008300"/>
<rect x="570.1" y="183.7" width="13.3" height="8.2" fill="none" stroke="#e34948" stroke-width="1.3"/>
<rect x="594.2" y="153.8" width="13.3" height="29.9" fill="none" stroke="#e34948" stroke-width="1.3"/>
<rect x="618.4" y="135.6" width="13.3" height="18.1" fill="none" stroke="#e34948" stroke-width="1.3"/>
<rect x="642.5" y="135.6" width="13.3" height="9.1" fill="#008300"/>
<rect x="666.6" y="121.1" width="13.3" height="23.6" fill="none" stroke="#e34948" stroke-width="1.3"/>
<rect x="690.7" y="121.1" width="13.3" height="140.6" fill="#008300"/>
<rect x="714.8" y="127.5" width="13.3" height="134.2" fill="none" stroke="#e34948" stroke-width="1.3"/>
<rect x="739.0" y="82.1" width="13.3" height="45.3" fill="none" stroke="#e34948" stroke-width="1.3"/>
<rect x="763.1" y="82.1" width="13.3" height="45.3" fill="#008300"/>
<rect x="787.2" y="110.2" width="13.3" height="17.2" fill="none" stroke="#e34948" stroke-width="1.3"/>
<rect x="811.3" y="110.2" width="13.3" height="25.4" fill="#008300"/>
<circle cx="745.6" cy="82.1" r="2" fill="#52514e"/>
<line x1="745.6" y1="82.1" x2="737.6" y2="82.1" stroke="#52514e" stroke-width="1.0"/>
<text x="734.6" y="86.1" font-size="11.0" fill="#52514e" text-anchor="end">302</text>
<circle cx="22.1" cy="356.0" r="2" fill="#52514e"/>
<line x1="22.1" y1="356.0" x2="30.1" y2="356.0" stroke="#52514e" stroke-width="1.0"/>
<text x="33.1" y="350.0" font-size="11.0" fill="#52514e">0</text>
<text x="14.0" y="376.0" font-size="11.0" fill="#52514e">VOL 16 forks</text>
<text x="96.6" y="376.0" font-size="11.0" fill="#eda100">MA5:22.2</text>
<text x="155.0" y="376.0" font-size="11.0" fill="#2a78d6">MA10:19.5</text>
<text x="14.0" y="395.0" font-size="10" fill="#898781">28</text>
<rect x="15.4" y="431.9" width="13.3" height="38.1" fill="none" stroke="#e34948" stroke-width="1.1"/>
<rect x="39.5" y="437.8" width="13.3" height="32.2" fill="#008300"/>
<rect x="63.7" y="423.1" width="13.3" height="46.9" fill="none" stroke="#e34948" stroke-width="1.1"/>
<rect x="87.8" y="449.5" width="13.3" height="20.5" fill="#008300"/>
<rect x="111.9" y="417.3" width="13.3" height="52.7" fill="none" stroke="#e34948" stroke-width="1.1"/>
<rect x="136.0" y="411.4" width="13.3" height="58.6" fill="none" stroke="#e34948" stroke-width="1.1"/>
<rect x="160.1" y="434.9" width="13.3" height="35.1" fill="#008300"/>
<rect x="184.2" y="437.8" width="13.3" height="32.2" fill="none" stroke="#e34948" stroke-width="1.1"/>
<rect x="208.4" y="434.9" width="13.3" height="35.1" fill="#008300"/>
<rect x="232.5" y="449.5" width="13.3" height="20.5" fill="none" stroke="#e34948" stroke-width="1.1"/>
<rect x="256.6" y="452.4" width="13.3" height="17.6" fill="#008300"/>
<rect x="280.7" y="437.8" width="13.3" height="32.2" fill="#008300"/>
<rect x="304.8" y="429.0" width="13.3" height="41.0" fill="none" stroke="#e34948" stroke-width="1.1"/>
<rect x="329.0" y="452.4" width="13.3" height="17.6" fill="none" stroke="#e34948" stroke-width="1.1"/>
<rect x="353.1" y="449.5" width="13.3" height="20.5" fill="#008300"/>
<rect x="377.2" y="440.7" width="13.3" height="29.3" fill="none" stroke="#e34948" stroke-width="1.1"/>
<rect x="401.3" y="437.8" width="13.3" height="32.2" fill="#898781"/>
<rect x="425.4" y="446.6" width="13.3" height="23.4" fill="#008300"/>
<rect x="449.5" y="467.1" width="13.3" height="2.9" fill="none" stroke="#e34948" stroke-width="1.1"/>
<rect x="473.7" y="440.7" width="13.3" height="29.3" fill="none" stroke="#e34948" stroke-width="1.1"/>
<rect x="497.8" y="414.4" width="13.3" height="55.6" fill="none" stroke="#e34948" stroke-width="1.1"/>
<rect x="521.9" y="434.9" width="13.3" height="35.1" fill="#008300"/>
<rect x="546.0" y="446.6" width="13.3" height="23.4" fill="#008300"/>
<rect x="570.1" y="446.6" width="13.3" height="23.4" fill="none" stroke="#e34948" stroke-width="1.1"/>
<rect x="594.2" y="434.9" width="13.3" height="35.1" fill="none" stroke="#e34948" stroke-width="1.1"/>
<rect x="618.4" y="396.8" width="13.3" height="73.2" fill="none" stroke="#e34948" stroke-width="1.1"/>
<rect x="642.5" y="414.4" width="13.3" height="55.6" fill="#008300"/>
<rect x="666.6" y="420.2" width="13.3" height="49.8" fill="none" stroke="#e34948" stroke-width="1.1"/>
<rect x="690.7" y="437.8" width="13.3" height="32.2" fill="#008300"/>
<rect x="714.8" y="417.3" width="13.3" height="52.7" fill="none" stroke="#e34948" stroke-width="1.1"/>
<rect x="739.0" y="388.0" width="13.3" height="82.0" fill="none" stroke="#e34948" stroke-width="1.1"/>
<rect x="763.1" y="408.5" width="13.3" height="61.5" fill="#008300"/>
<rect x="787.2" y="388.0" width="13.3" height="82.0" fill="none" stroke="#e34948" stroke-width="1.1"/>
<rect x="811.3" y="423.1" width="13.3" height="46.9" fill="#008300"/>
<polyline points="239.1,432.8 263.2,434.9 287.4,434.9 311.5,435.4 335.6,435.7 359.7,439.0 383.8,441.9 407.9,442.2 432.1,443.1 456.2,446.3 480.3,445.4 504.4,441.6 528.5,441.3 552.6,443.1 576.8,442.5 600.9,441.0 625.0,436.6 649.1,434.3 673.2,431.6 697.4,428.7 721.5,426.4 745.6,423.7 769.7,421.1 793.8,415.2 817.9,412.9" fill="none" stroke="#2a78d6" stroke-width="1.5" stroke-linejoin="round" stroke-linecap="round"/>
<polyline points="118.5,431.9 142.6,427.8 166.8,427.2 190.9,430.2 215.0,427.2 239.1,433.7 263.2,441.9 287.4,442.5 311.5,440.7 335.6,444.2 359.7,444.2 383.8,441.9 407.9,441.9 432.1,445.4 456.2,448.3 480.3,446.6 504.4,441.3 528.5,440.7 552.6,440.7 576.8,436.6 600.9,435.4 625.0,431.9 649.1,427.8 673.2,422.6 697.4,420.8 721.5,417.3 745.6,415.5 769.7,414.4 793.8,407.9 817.9,405.0" fill="none" stroke="#eda100" stroke-width="1.5" stroke-linejoin="round" stroke-linecap="round"/>
</svg>