<svg xmlns="http://www.w3.org/2000/svg" viewBox="0 0 840 496" width="840" height="496" font-family="-apple-system,&#39;Segoe UI&#39;,system-ui,sans-serif" role="img" aria-label="awesome-selfhosted/awesome-selfhosted candlestick chart">
<text x="14.0" y="20.0" font-size="15" fill="#ffffff" font-weight="650">awesome-selfhosted/awesome-selfhosted</text>
<text x="323.2" y="20.0" font-size="11.5" fill="#c3c2b7">daily · new stars, volume = new forks</text>
<text x="805.8" y="20.0" font-size="11.0" fill="#c3c2b7">fall</text>
<rect x="791" y="10" width="9" height="12" fill="#008300"/>
<text x="750.6" y="20.0" font-size="11.0" fill="#c3c2b7">rise</text>
<rect x="736" y="10" width="9" height="12" fill="none" stroke="#e66767" stroke-width="1.5"/>
<text x="14.0" y="38.0" font-size="11.0" fill="#898781">last 36 days · +7,695 stars · +485 forks · updated 2026-07-14</text>
<rect x="10" y="66" width="820" height="290" fill="none" stroke="#2c2c2a"/>
<rect x="10" y="384" width="820" height="86" fill="none" stroke="#2c2c2a"/>
<text x="38.0" y="490.0" font-size="11.0" fill="#898781" text-anchor="middle">2026-06</text>
<line x1="511.1" y1="66.0" x2="511.1" y2="356.0" stroke="#2c2c2a" stroke-width="1.0"/>
<line x1="511.1" y1="384.0" x2="511.1" y2="470.0" stroke="#2c2c2a" stroke-width="1.0"/>
<text x="522.5" y="490.0" font-size="11.0" fill="#898781" text-anchor="middle">2026-07</text>
<text x="14.0" y="58.0" font-size="11.0" fill="#c3c2b7">BOLL(20,2)</text>
<text x="84.5" y="58.0" font-size="11.0" fill="#c98500">UP:318.0</text>
<text x="142.9" y="58.0" font-size="11.0" fill="#3987e5">MID:224.6</text>
<text x="207.4" y="58.0" font-size="11.0" fill="#d55181">LOW:131.2</text>
<text x="271.8" y="58.0" font-size="11.0" fill="#9085e9">MA7:267.7</text>
<line x1="10.0" y1="356.0" x2="830.0" y2="356.0" stroke="#2c2c2a" stroke-width="1.0"/>
<text x="14.0" y="353.0" font-size="11.0" fill="#898781">0</text>
<line x1="10.0" y1="269.1" x2="830.0" y2="269.1" stroke="#2c2c2a" stroke-width="1.0"/>
<text x="14.0" y="266.1" font-size="11.0" fill="#898781">100</text>
<line x1="10.0" y1="182.3" x2="830.0" y2="182.3" stroke="#2c2c2a" stroke-width="1.0"/>
<text x="14.0" y="179.3" font-size="11.0" fill="#898781">200</text>
<line x1="10.0" y1="95.4" x2="830.0" y2="95.4" stroke="#2c2c2a" stroke-width="1.0"/>
<text x="14.0" y="92.4" font-size="11.0" fill="#898781">300</text>
<polyline points="454.2,145.5 476.9,144.8 499.7,144.4 522.5,144.9 545.3,145.0 568.1,144.5 590.8,142.9 613.6,139.4 636.4,134.7 659.2,126.5 681.9,120.7 704.7,104.8 727.5,100.6 750.3,93.9 773.1,91.5 795.8,86.7 818.6,79.8" fill="none" stroke="#c98500" stroke-width="1.5" stroke-linejoin="round" stroke-linecap="round"/>
<polyline points="454.2,185.1 476.9,185.0 499.7,184.5 522.5,185.4 545.3,185.6 568.1,185.4 590.8,185.1 613.6,183.8 636.4,182.8 659.2,185.3 681.9,183.1 704.7,178.2 727.5,174.6 750.3,171.2 773.1,169.5 795.8,165.5 818.6,160.9" fill="none" stroke="#3987e5" stroke-width="1.5" stroke-linejoin="round" stroke-linecap="round"/>
<polyline points="454.2,224.7 476.9,225.1 499.7,224.6 522.5,225.9 545.3,226.2 568.1,226.4 590.8,227.3 613.6,228.1 636.4,230.8 659.2,244.1 681.9,245.5 704.7,251.6 727.5,248.6 750.3,248.6 773.1,247.6 795.8,244.3 818.6,242.0" fill="none" stroke="#d55181" stroke-width="1.5" stroke-linejoin="round" stroke-linecap="round"/>
<polyline points="158.1,170.9 180.8,172.6 203.6,175.9 226.4,175.9 249.2,176.7 271.9,182.9 294.7,188.0 317.5,187.7 340.3,195.4 363.1,193.2 385.8,195.7 408.6,198.3 431.4,195.6 454.2,195.8 476.9,189.7 499.7,186.5 522.5,186.5 545.3,185.4 568.1,178.5 590.8,172.1 613.6,167.0 636.4,166.3 659.2,178.2 681.9,169.3 704.7,155.4 727.5,151.9 750.3,148.4 773.1,147.2 795.8,146.1 818.6,123.5" fill="none" stroke="#9085e9" stroke-width="1.5" stroke-linejoin="round" stroke-linecap="round"/>
<rect x="15.1" y="138.8" width="12.5" height="217.2" fill="none" stroke="#e66767" stroke-width="1.3"/>
<rect x="37.9" y="138.8" width="12.5" height="52.1" fill="#008300"/>
<rect x="60.7" y="181.4" width="12.5" height="9.6" fill="none" stroke="#e66767" stroke-width="1.3"/>
<rect x="83.5" y="181.4" width="12.5" height="5.2" fill="#008300"/>
<rect x="106.2" y="165.8" width="12.5" height="20.8" fill="none" stroke="#e66767" stroke-width="1.3"/>
<rect x="129.0" y="151.9" width="12.5" height="13.9" fill="none" stroke="#e66767" stroke-width="1.3"/>
<rect x="151.8" y="151.9" width="12.5" height="28.7" fill="#008300"/>
<rect x="174.6" y="151.0" width="12.5" height="29.5" fill="none" stroke="#e66767" stroke-width="1.3"/>
<rect x="197.3" y="151.0" width="12.5" height="63.4" fill="#008300"/>
<rect x="220.1" y="181.4" width="12.5" height="33.0" fill="none" stroke="#e66767" stroke-width="1.3"/>
<rect x="242.9" y="181.4" width="12.5" height="10.4" fill="#008300"/>
<rect x="265.7" y="191.8" width="12.5" height="17.4" fill="#008300"/>
<rect x="288.5" y="187.5" width="12.5" height="21.7" fill="none" stroke="#e66767" stroke-width="1.3"/>
<rect x="311.2" y="178.8" width="12.5" height="8.7" fill="none" stroke="#e66767" stroke-width="1.3"/>
<rect x="334.0" y="178.8" width="12.5" height="26.1" fill="#008300"/>
<rect x="356.8" y="198.8" width="12.5" height="6.1" fill="none" stroke="#e66767" stroke-width="1.3"/>
<rect x="379.6" y="198.8" width="12.5" height="1.2" fill="#898781"/>
<rect x="402.3" y="198.8" width="12.5" height="11.3" fill="#008300"/>
<rect x="425.1" y="190.1" width="12.5" height="20.0" fill="none" stroke="#e66767" stroke-width="1.3"/>
<rect x="447.9" y="189.2" width="12.5" height="1.2" fill="none" stroke="#e66767" stroke-width="1.3"/>
<rect x="470.7" y="136.2" width="12.5" height="53.0" fill="none" stroke="#e66767" stroke-width="1.3"/>
<rect x="493.5" y="136.2" width="12.5" height="46.0" fill="#008300"/>
<rect x="516.2" y="182.3" width="12.5" height="16.5" fill="#008300"/>
<rect x="539.0" y="191.0" width="12.5" height="7.8" fill="none" stroke="#e66767" stroke-width="1.3"/>
<rect x="561.8" y="162.3" width="12.5" height="28.7" fill="none" stroke="#e66767" stroke-width="1.3"/>
<rect x="584.6" y="144.9" width="12.5" height="17.4" fill="none" stroke="#e66767" stroke-width="1.3"/>
<rect x="607.3" y="144.9" width="12.5" height="8.7" fill="#008300"/>
<rect x="630.1" y="131.0" width="12.5" height="22.6" fill="none" stroke="#e66767" stroke-width="1.3"/>
<rect x="652.9" y="131.0" width="12.5" height="134.6" fill="#008300"/>
<rect x="675.7" y="137.1" width="12.5" height="128.6" fill="none" stroke="#e66767" stroke-width="1.3"/>
<rect x="698.5" y="93.7" width="12.5" height="43.4" fill="none" stroke="#e66767" stroke-width="1.3"/>
<rect x="721.2" y="93.7" width="12.5" height="43.4" fill="#008300"/>
<rect x="744.0" y="120.6" width="12.5" height="16.5" fill="none" stroke="#e66767" stroke-width="1.3"/>
<rect x="766.8" y="120.6" width="12.5" height="24.3" fill="#008300"/>
<rect x="789.6" y="123.2" width="12.5" height="21.7" fill="none" stroke="#e66767" stroke-width="1.3"/>
<rect x="812.3" y="107.6" width="12.5" height="15.6" fill="none" stroke="#e66767" stroke-width="1.3"/>
<circle cx="704.7" cy="93.7" r="2" fill="#c3c2b7"/>
<line x1="704.7" y1="93.7" x2="696.7" y2="93.7" stroke="#c3c2b7" stroke-width="1.0"/>
<text x="693.7" y="97.7" font-size="11.0" fill="#c3c2b7" text-anchor="end">302</text>
<circle cx="21.4" cy="356.0" r="2" fill="#c3c2b7"/>
<line x1="21.4" y1="356.0" x2="29.4" y2="356.0" stroke="#c3c2b7" stroke-width="1.0"/>
<text x="32.4" y="350.0" font-size="11.0" fill="#c3c2b7">0</text>
<text x="14.0" y="376.0" font-size="11.0" fill="#c3c2b7">VOL 20 forks</text>
<text x="96.6" y="376.0" font-size="11.0" fill="#c98500">MA5:19.4</text>
<text x="155.0" y="376.0" font-size="11.0" fill="#3987e5">MA10:19</text>
<text x="14.0" y="395.0" font-size="10" fill="#898781">28</text>
<rect x="15.1" y="431.9" width="12.5" height="38.1" fill="none" stroke="#e66767" stroke-width="1.1"/>
<rect x="37.9" y="437.8" width="12.5" height="32.2" fill="#008300"/>
<rect x="60.7" y="423.1" width="12.5" height="46.9" fill="none" stroke="#e66767" stroke-width="1.1"/>
<rect x="83.5" y="449.5" width="12.5" height="20.5" fill="#008300"/>
<rect x="106.2" y="417.3" width="12.5" height="52.7" fill="none" stroke="#e66767" stroke-width="1.1"/>
<rect x="129.0" y="411.4" width="12.5" height="58.6" fill="none" stroke="#e66767" stroke-width="1.1"/>
<rect x="151.8" y="434.9" width="12.5" height="35.1" fill="#008300"/>
<rect x="174.6" y="437.8" width="12.5" height="32.2" fill="none" stroke="#e66767" stroke-width="1.1"/>
<rect x="197.3" y="434.9" width="12.5" height="35.1" fill="#008300"/>
<rect x="220.1" y="449.5" width="12.5" height="20.5" fill="none" stroke="#e66767" stroke-width="1.1"/>
<rect x="242.9" y="452.4" width="12.5" height="17.6" fill="#008300"/>
<rect x="265.7" y="437.8" width="12.5" height="32.2" fill="#008300"/>
<rect x="288.5" y="429.0" width="12.5" height="41.0" fill="none" stroke="#e66767" stroke-width="1.1"/>
<rect x="311.2" y="452.4" width="12.5" height="17.6" fill="none" stroke="#e66767" stroke-width="1.1"/>
<rect x="334.0" y="449.5" width="12.5" height="20.5" fill="#008300"/>
<rect x="356.8" y="440.7" width="12.5" height="29.3" fill="none" stroke="#e66767" stroke-width="1.1"/>
<rect x="379.6" y="437.8" width="12.5" height="32.2" fill="#898781"/>
<rect x="402.3" y="446.6" width="12.5" height="23.4" fill="#008300"/>
<rect x="425.1" y="467.1" width="12.5" height="2.9" fill="none" stroke="#e66767" stroke-width="1.1"/>
<rect x="447.9" y="440.7" width="12.5" height="29.3" fill="none" stroke="#e66767" stroke-width="1.1"/>
<rect x="470.7" y="414.4" width="12.5" height="55.6" fill="none" stroke="#e66767" stroke-width="1.1"/>
<rect x="493.5" y="434.9" width="12.5" height="35.1" fill="#008300"/>
<rect x="516.2" y="446.6" width="12.5" height="23.4" fill="#008300"/>
<rect x="539.0" y="446.6" width="12.5" height="23.4" fill="none" stroke="#e66767" stroke-width="1.1"/>
<rect x="561.8" y="434.9" width="12.5" height="35.1" fill="none" stroke="#e66767" stroke-width="1.1"/>
<rect x="584.6" y="396.8" width="12.5" height="73.2" fill="none" stroke="#e66767" stroke-width="1.1"/>
<rect x="607.3" y="414.4" width="12.5" height="55.6" fill="#008300"/>
<rect x="630.1" y="420.2" width="12.5" height="49.8" fill="none" stroke="#e66767" stroke-width="1.1"/>
<rect x="652.9" y="437.8" width="12.5" height="32.2" fill="#008300"/>
<rect x="675.7" y="417.3" width="12.5" height="52.7" fill="none" stroke="#e66767" stroke-width="1.1"/>
<rect x="698.5" y="388.0" width="12.5" height="82.0" fill="none" stroke="#e66767" stroke-width="1.1"/>
<rect x="721.2" y="408.5" width="12.5" height="61.5" fill="#008300"/>
<rect x="744.0" y="388.0" width="12.5" height="82.0" fill="none" stroke="#e66767" stroke-width="1.1"/>
<rect x="766.8" y="423.1" width="12.5" height="46.9" fill="#008300"/>
<rect x="789.6" y="434.9" width="12.5" height="35.1" fill="none" stroke="#e66767" stroke-width="1.1"/>
<rect x="812.3" y="411.4" width="12.5" height="58.6" fill="none" stroke="#e66767" stroke-width="1.1"/>
<polyline points="226.4,432.8 249.2,434.9 271.9,434.9 294.7,435.4 317.5,435.7 340.3,439.0 363.1,441.9 385.8,442.2 408.6,443.1 431.4,446.3 454.2,445.4 476.9,441.6 499.7,441.3 522.5,443.1 545.3,442.5 568.1,441.0 590.8,436.6 613.6,434.3 636.4,431.6 659.2,428.7 681.9,426.4 704.7,423.7 727.5,421.1 750.3,415.2 773.1,412.9 795.8,412.9 818.6,414.4" fill="none" stroke="#3987e5" stroke-width="1.5" stroke-linejoin="round" stroke-linecap="round"/>
<polyline points="112.5,431.9 135.3,427.8 158.1,427.2 180.8,430.2 203.6,427.2 226.4,433.7 249.2,441.9 271.9,442.5 294.7,440.7 317.5,444.2 340.3,444.2 363.1,441.9 385.8,441.9 408.6,445.4 431.4,448.3 454.2,446.6 476.9,441.3 499.7,440.7 522.5,440.7 545.3,436.6 568.1,435.4 590.8,431.9 613.6,427.8 636.4,422.6 659.2,420.8 681.9,417.3 704.7,415.5 727.5,414.4 750.3,407.9 773.1,405.0 795.8,408.5 818.6,413.2" fill="none" stroke="#c98500" stroke-width="1.5" stroke-linejoin="round" stroke-linecap="round"/>
</svg>