<svg xmlns="http://www.w3.org/2000/svg" viewBox="0 0 840 496" width="840" height="496" font-family="-apple-system,&#39;Segoe UI&#39;,system-ui,sans-serif" role="img" aria-label="react/react candlestick chart">
<text x="14.0" y="20.0" font-size="15" fill="#ffffff" font-weight="650">react/react</text>
<text x="108.8" y="20.0" font-size="11.5" fill="#c3c2b7">daily · new stars, volume = new forks</text>
<text x="805.8" y="20.0" font-size="11.0" fill="#c3c2b7">fall</text>
<rect x="791" y="10" width="9" height="12" fill="#008300"/>
<text x="750.6" y="20.0" font-size="11.0" fill="#c3c2b7">rise</text>
<rect x="736" y="10" width="9" height="12" fill="none" stroke="#e66767" stroke-width="1.5"/>
<text x="14.0" y="38.0" font-size="11.0" fill="#898781">last 60 days · +2,110 stars · +628 forks · updated 2026-07-12</text>
<rect x="10" y="66" width="820" height="290" fill="none" stroke="#2c2c2a"/>
<rect x="10" y="384" width="820" height="86" fill="none" stroke="#2c2c2a"/>
<text x="38.0" y="490.0" font-size="11.0" fill="#898781" text-anchor="middle">2026-05</text>
<line x1="269.7" y1="66.0" x2="269.7" y2="356.0" stroke="#2c2c2a" stroke-width="1.0"/>
<line x1="269.7" y1="384.0" x2="269.7" y2="470.0" stroke="#2c2c2a" stroke-width="1.0"/>
<text x="276.5" y="490.0" font-size="11.0" fill="#898781" text-anchor="middle">2026-06</text>
<line x1="679.7" y1="66.0" x2="679.7" y2="356.0" stroke="#2c2c2a" stroke-width="1.0"/>
<line x1="679.7" y1="384.0" x2="679.7" y2="470.0" stroke="#2c2c2a" stroke-width="1.0"/>
<text x="686.5" y="490.0" font-size="11.0" fill="#898781" text-anchor="middle">2026-07</text>
<text x="14.0" y="58.0" font-size="11.0" fill="#c3c2b7">BOLL(20,2)</text>
<text x="84.5" y="58.0" font-size="11.0" fill="#c98500">UP:59.8</text>
<text x="136.9" y="58.0" font-size="11.0" fill="#3987e5">MID:38.3</text>
<text x="195.3" y="58.0" font-size="11.0" fill="#d55181">LOW:16.9</text>
<text x="253.7" y="58.0" font-size="11.0" fill="#9085e9">MA7:31.7</text>
<line x1="10.0" y1="356.0" x2="830.0" y2="356.0" stroke="#2c2c2a" stroke-width="1.0"/>
<text x="14.0" y="353.0" font-size="11.0" fill="#898781">0</text>
<line x1="10.0" y1="275.9" x2="830.0" y2="275.9" stroke="#2c2c2a" stroke-width="1.0"/>
<text x="14.0" y="272.9" font-size="11.0" fill="#898781">20</text>
<line x1="10.0" y1="195.9" x2="830.0" y2="195.9" stroke="#2c2c2a" stroke-width="1.0"/>
<text x="14.0" y="192.9" font-size="11.0" fill="#898781">40</text>
<line x1="10.0" y1="115.8" x2="830.0" y2="115.8" stroke="#2c2c2a" stroke-width="1.0"/>
<text x="14.0" y="112.8" font-size="11.0" fill="#898781">60</text>
<polyline points="16.8,177.9 30.5,178.4 44.2,177.2 57.8,185.7 71.5,185.7 85.2,186.7 98.8,185.6 112.5,185.7 126.2,183.2 139.8,182.0 153.5,182.2 167.2,183.5 180.8,178.0 194.5,178.6 208.2,187.7 221.8,188.1 235.5,183.6 249.2,186.3 262.8,186.0 276.5,186.0 290.2,184.7 303.8,184.2 317.5,175.6 331.2,137.2 344.8,137.2 358.5,137.3 372.2,138.8 385.8,121.0 399.5,112.0 413.2,110.8 426.8,106.9 440.5,106.9 454.2,109.8 467.8,109.3 481.5,109.3 495.2,110.2 508.8,113.6 522.5,113.1 536.2,111.5 549.8,109.2 563.5,108.6 577.2,102.5 590.8,104.5 604.5,110.2 618.2,110.2 631.8,108.0 645.5,107.9 659.2,121.3 672.8,127.5 686.5,128.6 700.2,133.2 713.8,123.0 727.5,122.0 741.2,122.3 754.8,121.8 768.5,116.4 782.2,115.6 795.8,114.0 809.5,115.4 823.2,116.8" fill="none" stroke="#c98500" stroke-width="1.5" stroke-linejoin="round" stroke-linecap="round"/>
<polyline points="16.8,233.7 30.5,233.9 44.2,231.5 57.8,234.7 71.5,234.7 85.2,235.3 98.8,234.9 112.5,234.5 126.2,233.3 139.8,231.1 153.5,231.9 167.2,230.5 180.8,225.9 194.5,224.5 208.2,228.7 221.8,228.5 235.5,231.5 249.2,233.5 262.8,233.1 276.5,233.1 290.2,231.1 303.8,230.9 317.5,228.7 331.2,220.5 344.8,220.5 358.5,221.3 372.2,222.9 385.8,216.3 399.5,212.9 413.2,211.9 426.8,208.1 440.5,208.3 454.2,210.7 467.8,209.9 481.5,207.7 495.2,206.1 508.8,204.1 522.5,204.5 536.2,206.3 549.8,209.9 563.5,209.3 577.2,206.3 590.8,207.3 604.5,208.3 618.2,209.1 631.8,205.9 645.5,204.7 659.2,209.1 672.8,210.9 686.5,211.7 700.2,214.5 713.8,209.3 727.5,207.9 741.2,208.5 754.8,210.9 768.5,214.9 782.2,212.9 795.8,209.7 809.5,207.7 823.2,202.7" fill="none" stroke="#3987e5" stroke-width="1.5" stroke-linejoin="round" stroke-linecap="round"/>
<polyline points="16.8,289.6 30.5,289.5 44.2,285.8 57.8,283.8 71.5,283.8 85.2,283.9 98.8,284.3 112.5,283.3 126.2,283.5 139.8,280.2 153.5,281.6 167.2,277.5 180.8,273.8 194.5,270.5 208.2,269.7 221.8,268.9 235.5,279.5 249.2,280.7 262.8,280.2 276.5,280.2 290.2,277.5 303.8,277.7 317.5,281.8 331.2,303.8 344.8,303.8 358.5,305.3 372.2,307.0 385.8,311.6 399.5,313.8 413.2,313.1 426.8,309.3 440.5,309.7 454.2,311.6 467.8,310.5 481.5,306.1 495.2,302.0 508.8,294.6 522.5,295.9 536.2,301.1 549.8,310.6 563.5,310.0 577.2,310.0 590.8,310.1 604.5,306.4 618.2,308.0 631.8,303.8 645.5,301.4 659.2,296.9 672.8,294.3 686.5,294.8 700.2,295.8 713.8,295.6 727.5,293.8 741.2,294.7 754.8,300.0 768.5,313.4 782.2,310.2 795.8,305.4 809.5,300.0 823.2,288.6" fill="none" stroke="#d55181" stroke-width="1.5" stroke-linejoin="round" stroke-linecap="round"/>
<polyline points="16.8,225.5 30.5,231.9 44.2,225.1 57.8,227.5 71.5,230.3 85.2,229.1 98.8,228.3 112.5,227.5 126.2,226.3 139.8,226.3 153.5,226.7 167.2,228.3 180.8,221.1 194.5,223.9 208.2,225.1 221.8,232.3 235.5,242.7 249.2,242.7 262.8,241.5 276.5,246.3 290.2,244.3 303.8,238.3 317.5,225.5 331.2,195.9 344.8,193.1 358.5,195.5 372.2,199.5 385.8,185.1 399.5,174.7 413.2,178.3 426.8,191.5 440.5,193.5 454.2,190.7 467.8,186.7 481.5,200.3 495.2,213.1 508.8,220.3 522.5,232.3 536.2,235.9 549.8,243.9 563.5,242.7 577.2,234.3 590.8,229.1 604.5,207.9 618.2,206.3 631.8,194.3 645.5,184.3 659.2,184.3 672.8,187.9 686.5,190.7 700.2,209.1 713.8,194.3 727.5,196.3 741.2,197.5 754.8,205.5 768.5,224.3 782.2,223.9 795.8,218.7 809.5,231.5 823.2,229.1" fill="none" stroke="#9085e9" stroke-width="1.5" stroke-linejoin="round" stroke-linecap="round"/>
<rect x="13.1" y="211.9" width="7.5" height="44.0" fill="#008300"/>
<rect x="26.7" y="215.9" width="7.5" height="40.0" fill="none" stroke="#e66767" stroke-width="1.3"/>
<rect x="40.4" y="215.9" width="7.5" height="1.2" fill="#898781"/>
<rect x="54.1" y="215.9" width="7.5" height="28.0" fill="#008300"/>
<rect x="67.7" y="227.9" width="7.5" height="16.0" fill="none" stroke="#e66767" stroke-width="1.3"/>
<rect x="81.4" y="227.9" width="7.5" height="4.0" fill="#008300"/>
<rect x="95.1" y="207.9" width="7.5" height="24.0" fill="none" stroke="#e66767" stroke-width="1.3"/>
<rect x="108.7" y="207.9" width="7.5" height="40.0" fill="#008300"/>
<rect x="122.4" y="207.9" width="7.5" height="40.0" fill="none" stroke="#e66767" stroke-width="1.3"/>
<rect x="136.1" y="207.9" width="7.5" height="8.0" fill="#008300"/>
<rect x="149.7" y="215.9" width="7.5" height="32.0" fill="#008300"/>
<rect x="163.4" y="239.9" width="7.5" height="8.0" fill="none" stroke="#e66767" stroke-width="1.3"/>
<rect x="177.1" y="179.9" width="7.5" height="60.0" fill="none" stroke="#e66767" stroke-width="1.3"/>
<rect x="190.7" y="179.9" width="7.5" height="48.0" fill="#008300"/>
<rect x="204.4" y="227.9" width="7.5" height="28.0" fill="#008300"/>
<rect x="218.1" y="255.9" width="7.5" height="4.0" fill="#008300"/>
<rect x="231.7" y="259.9" width="7.5" height="28.0" fill="#008300"/>
<rect x="245.4" y="247.9" width="7.5" height="40.0" fill="none" stroke="#e66767" stroke-width="1.3"/>
<rect x="259.1" y="231.9" width="7.5" height="16.0" fill="none" stroke="#e66767" stroke-width="1.3"/>
<rect x="272.7" y="211.9" width="7.5" height="20.0" fill="none" stroke="#e66767" stroke-width="1.3"/>
<rect x="286.4" y="211.9" width="7.5" height="4.0" fill="#008300"/>
<rect x="300.1" y="211.9" width="7.5" height="4.0" fill="none" stroke="#e66767" stroke-width="1.3"/>
<rect x="313.7" y="171.9" width="7.5" height="40.0" fill="none" stroke="#e66767" stroke-width="1.3"/>
<rect x="327.4" y="79.8" width="7.5" height="92.1" fill="none" stroke="#e66767" stroke-width="1.3"/>
<rect x="341.1" y="79.8" width="7.5" height="148.1" fill="#008300"/>
<rect x="354.7" y="227.9" width="7.5" height="20.0" fill="#008300"/>
<rect x="368.4" y="239.9" width="7.5" height="8.0" fill="none" stroke="#e66767" stroke-width="1.3"/>
<rect x="382.1" y="115.8" width="7.5" height="124.1" fill="none" stroke="#e66767" stroke-width="1.3"/>
<rect x="395.7" y="115.8" width="7.5" height="24.0" fill="#008300"/>
<rect x="409.4" y="139.9" width="7.5" height="56.0" fill="#008300"/>
<rect x="423.1" y="171.9" width="7.5" height="24.0" fill="none" stroke="#e66767" stroke-width="1.3"/>
<rect x="436.7" y="171.9" width="7.5" height="72.0" fill="#008300"/>
<rect x="450.4" y="227.9" width="7.5" height="16.0" fill="none" stroke="#e66767" stroke-width="1.3"/>
<rect x="464.1" y="211.9" width="7.5" height="16.0" fill="none" stroke="#e66767" stroke-width="1.3"/>
<rect x="477.7" y="211.9" width="7.5" height="1.2" fill="#898781"/>
<rect x="491.4" y="211.9" width="7.5" height="16.0" fill="#008300"/>
<rect x="505.1" y="227.9" width="7.5" height="20.0" fill="#008300"/>
<rect x="518.7" y="247.9" width="7.5" height="8.0" fill="#008300"/>
<rect x="532.4" y="255.9" width="7.5" height="12.0" fill="#008300"/>
<rect x="546.1" y="267.9" width="7.5" height="16.0" fill="#008300"/>
<rect x="559.7" y="203.9" width="7.5" height="80.1" fill="none" stroke="#e66767" stroke-width="1.3"/>
<rect x="573.4" y="151.9" width="7.5" height="52.0" fill="none" stroke="#e66767" stroke-width="1.3"/>
<rect x="587.1" y="151.9" width="7.5" height="40.0" fill="#008300"/>
<rect x="600.7" y="99.8" width="7.5" height="92.1" fill="none" stroke="#e66767" stroke-width="1.3"/>
<rect x="614.4" y="99.8" width="7.5" height="144.1" fill="#008300"/>
<rect x="628.1" y="183.9" width="7.5" height="60.0" fill="none" stroke="#e66767" stroke-width="1.3"/>
<rect x="641.7" y="183.9" width="7.5" height="32.0" fill="#008300"/>
<rect x="655.4" y="203.9" width="7.5" height="12.0" fill="none" stroke="#e66767" stroke-width="1.3"/>
<rect x="669.1" y="175.9" width="7.5" height="28.0" fill="none" stroke="#e66767" stroke-width="1.3"/>
<rect x="682.7" y="175.9" width="7.5" height="36.0" fill="#008300"/>
<rect x="696.4" y="211.9" width="7.5" height="16.0" fill="#008300"/>
<rect x="710.1" y="139.9" width="7.5" height="88.1" fill="none" stroke="#e66767" stroke-width="1.3"/>
<rect x="723.7" y="139.9" width="7.5" height="60.0" fill="#008300"/>
<rect x="737.4" y="199.9" width="7.5" height="24.0" fill="#008300"/>
<rect x="751.1" y="223.9" width="7.5" height="36.0" fill="#008300"/>
<rect x="764.7" y="259.9" width="7.5" height="48.0" fill="#008300"/>
<rect x="778.4" y="207.9" width="7.5" height="148.1" fill="none" stroke="#e66767" stroke-width="1.3"/>
<rect x="792.1" y="191.9" width="7.5" height="16.0" fill="none" stroke="#e66767" stroke-width="1.3"/>
<rect x="805.7" y="191.9" width="7.5" height="36.0" fill="#008300"/>
<rect x="819.4" y="183.9" width="7.5" height="44.0" fill="none" stroke="#e66767" stroke-width="1.3"/>
<circle cx="331.2" cy="79.8" r="2" fill="#c3c2b7"/>
<line x1="331.2" y1="79.8" x2="339.2" y2="79.8" stroke="#c3c2b7" stroke-width="1.0"/>
<text x="342.2" y="83.8" font-size="11.0" fill="#c3c2b7">69</text>
<circle cx="782.2" cy="356.0" r="2" fill="#c3c2b7"/>
<line x1="782.2" y1="356.0" x2="774.2" y2="356.0" stroke="#c3c2b7" stroke-width="1.0"/>
<text x="771.2" y="350.0" font-size="11.0" fill="#c3c2b7" text-anchor="end">0</text>
<text x="14.0" y="376.0" font-size="11.0" fill="#c3c2b7">VOL 11 forks</text>
<text x="96.6" y="376.0" font-size="11.0" fill="#c98500">MA5:9.2</text>
<text x="149.0" y="376.0" font-size="11.0" fill="#3987e5">MA10:16.4</text>
<text x="14.0" y="395.0" font-size="10" fill="#898781">35</text>
<rect x="13.1" y="446.6" width="7.5" height="23.4" fill="#008300"/>
<rect x="26.7" y="451.3" width="7.5" height="18.7" fill="none" stroke="#e66767" stroke-width="1.1"/>
<rect x="40.4" y="441.9" width="7.5" height="28.1" fill="#898781"/>
<rect x="54.1" y="453.6" width="7.5" height="16.4" fill="#008300"/>
<rect x="67.7" y="448.9" width="7.5" height="21.1" fill="none" stroke="#e66767" stroke-width="1.1"/>
<rect x="81.4" y="441.9" width="7.5" height="28.1" fill="#008300"/>
<rect x="95.1" y="420.8" width="7.5" height="49.2" fill="none" stroke="#e66767" stroke-width="1.1"/>
<rect x="108.7" y="451.3" width="7.5" height="18.7" fill="#008300"/>
<rect x="122.4" y="458.3" width="7.5" height="11.7" fill="none" stroke="#e66767" stroke-width="1.1"/>
<rect x="136.1" y="460.6" width="7.5" height="9.4" fill="#008300"/>
<rect x="149.7" y="460.6" width="7.5" height="9.4" fill="#008300"/>
<rect x="163.4" y="460.6" width="7.5" height="9.4" fill="none" stroke="#e66767" stroke-width="1.1"/>
<rect x="177.1" y="465.3" width="7.5" height="4.7" fill="none" stroke="#e66767" stroke-width="1.1"/>
<rect x="190.7" y="444.2" width="7.5" height="25.8" fill="#008300"/>
<rect x="204.4" y="444.2" width="7.5" height="25.8" fill="#008300"/>
<rect x="218.1" y="448.9" width="7.5" height="21.1" fill="#008300"/>
<rect x="231.7" y="458.3" width="7.5" height="11.7" fill="#008300"/>
<rect x="245.4" y="463.0" width="7.5" height="7.0" fill="none" stroke="#e66767" stroke-width="1.1"/>
<rect x="259.1" y="453.6" width="7.5" height="16.4" fill="none" stroke="#e66767" stroke-width="1.1"/>
<rect x="272.7" y="444.2" width="7.5" height="25.8" fill="none" stroke="#e66767" stroke-width="1.1"/>
<rect x="286.4" y="441.9" width="7.5" height="28.1" fill="#008300"/>
<rect x="300.1" y="453.6" width="7.5" height="16.4" fill="none" stroke="#e66767" stroke-width="1.1"/>
<rect x="313.7" y="453.6" width="7.5" height="16.4" fill="none" stroke="#e66767" stroke-width="1.1"/>
<rect x="327.4" y="448.9" width="7.5" height="21.1" fill="none" stroke="#e66767" stroke-width="1.1"/>
<rect x="341.1" y="444.2" width="7.5" height="25.8" fill="#008300"/>
<rect x="354.7" y="463.0" width="7.5" height="7.0" fill="#008300"/>
<rect x="368.4" y="441.9" width="7.5" height="28.1" fill="none" stroke="#e66767" stroke-width="1.1"/>
<rect x="382.1" y="448.9" width="7.5" height="21.1" fill="none" stroke="#e66767" stroke-width="1.1"/>
<rect x="395.7" y="439.5" width="7.5" height="30.5" fill="#008300"/>
<rect x="409.4" y="444.2" width="7.5" height="25.8" fill="#008300"/>
<rect x="423.1" y="444.2" width="7.5" height="25.8" fill="none" stroke="#e66767" stroke-width="1.1"/>
<rect x="436.7" y="453.6" width="7.5" height="16.4" fill="#008300"/>
<rect x="450.4" y="463.0" width="7.5" height="7.0" fill="none" stroke="#e66767" stroke-width="1.1"/>
<rect x="464.1" y="451.3" width="7.5" height="18.7" fill="none" stroke="#e66767" stroke-width="1.1"/>
<rect x="477.7" y="446.6" width="7.5" height="23.4" fill="#898781"/>
<rect x="491.4" y="441.9" width="7.5" height="28.1" fill="#008300"/>
<rect x="505.1" y="446.6" width="7.5" height="23.4" fill="#008300"/>
<rect x="518.7" y="455.9" width="7.5" height="14.1" fill="#008300"/>
<rect x="532.4" y="458.3" width="7.5" height="11.7" fill="#008300"/>
<rect x="546.1" y="437.2" width="7.5" height="32.8" fill="#008300"/>
<rect x="559.7" y="453.6" width="7.5" height="16.4" fill="none" stroke="#e66767" stroke-width="1.1"/>
<rect x="573.4" y="455.9" width="7.5" height="14.1" fill="none" stroke="#e66767" stroke-width="1.1"/>
<rect x="587.1" y="448.9" width="7.5" height="21.1" fill="#008300"/>
<rect x="600.7" y="451.3" width="7.5" height="18.7" fill="none" stroke="#e66767" stroke-width="1.1"/>
<rect x="614.4" y="434.9" width="7.5" height="35.1" fill="#008300"/>
<rect x="628.1" y="458.3" width="7.5" height="11.7" fill="none" stroke="#e66767" stroke-width="1.1"/>
<rect x="641.7" y="453.6" width="7.5" height="16.4" fill="#008300"/>
<rect x="655.4" y="448.9" width="7.5" height="21.1" fill="none" stroke="#e66767" stroke-width="1.1"/>
<rect x="669.1" y="388.0" width="7.5" height="82.0" fill="none" stroke="#e66767" stroke-width="1.1"/>
<rect x="682.7" y="423.1" width="7.5" height="46.9" fill="#008300"/>
<rect x="696.4" y="432.5" width="7.5" height="37.5" fill="#008300"/>
<rect x="710.1" y="409.1" width="7.5" height="60.9" fill="none" stroke="#e66767" stroke-width="1.1"/>
<rect x="723.7" y="406.7" width="7.5" height="63.3" fill="#008300"/>
<rect x="737.4" y="402.1" width="7.5" height="67.9" fill="#008300"/>
<rect x="751.1" y="423.1" width="7.5" height="46.9" fill="#008300"/>
<rect x="764.7" y="453.6" width="7.5" height="16.4" fill="#008300"/>
<rect x="778.4" y="455.9" width="7.5" height="14.1" fill="none" stroke="#e66767" stroke-width="1.1"/>
<rect x="792.1" y="453.6" width="7.5" height="16.4" fill="none" stroke="#e66767" stroke-width="1.1"/>
<rect x="805.7" y="434.9" width="7.5" height="35.1" fill="#008300"/>
<rect x="819.4" y="444.2" width="7.5" height="25.8" fill="none" stroke="#e66767" stroke-width="1.1"/>
<polyline points="16.8,450.3 30.5,449.9 44.2,448.9 57.8,448.4 71.5,448.4 85.2,447.5 98.8,444.0 112.5,443.8 126.2,445.4 139.8,447.5 153.5,448.9 167.2,449.9 180.8,452.2 194.5,451.3 208.2,450.8 221.8,451.5 235.5,455.2 249.2,456.4 262.8,455.9 276.5,454.3 290.2,452.4 303.8,451.7 317.5,450.6 331.2,451.0 344.8,451.0 358.5,452.4 372.2,450.8 385.8,449.4 399.5,448.0 413.2,448.0 426.8,448.2 440.5,448.2 454.2,449.1 467.8,449.4 481.5,449.6 495.2,447.5 508.8,448.0 522.5,448.7 536.2,450.6 549.8,449.9 563.5,450.8 577.2,451.0 590.8,449.6 604.5,449.6 618.2,448.4 631.8,450.1 645.5,450.8 659.2,450.1 672.8,443.1 686.5,441.7 700.2,439.5 713.8,434.9 727.5,430.6 741.2,425.7 754.8,424.5 768.5,424.1 782.2,424.3 795.8,424.8 809.5,429.5 823.2,431.6" fill="none" stroke="#3987e5" stroke-width="1.5" stroke-linejoin="round" stroke-linecap="round"/>
<polyline points="16.8,447.5 30.5,446.6 44.2,444.2 57.8,446.6 71.5,448.4 85.2,447.5 98.8,441.4 112.5,443.3 126.2,444.2 139.8,446.6 153.5,450.3 167.2,458.3 180.8,461.1 194.5,458.3 208.2,455.0 221.8,452.7 235.5,452.2 249.2,451.7 262.8,453.6 276.5,453.6 290.2,452.2 303.8,451.3 317.5,449.4 331.2,448.4 344.8,448.4 358.5,452.7 372.2,450.3 385.8,449.4 399.5,447.5 413.2,447.5 426.8,443.8 440.5,446.1 454.2,448.9 467.8,451.3 481.5,451.7 495.2,451.3 508.8,449.9 522.5,448.4 536.2,449.9 549.8,448.0 563.5,450.3 577.2,452.2 590.8,450.8 604.5,449.4 618.2,448.9 631.8,449.9 645.5,449.4 659.2,449.4 672.8,436.7 686.5,434.4 700.2,429.2 713.8,420.3 727.5,411.9 741.2,414.7 754.8,414.7 768.5,418.9 782.2,428.3 795.8,437.7 809.5,444.2 823.2,448.4" fill="none" stroke="#c98500" stroke-width="1.5" stroke-linejoin="round" stroke-linecap="round"/>
</svg>