<svg xmlns="http://www.w3.org/2000/svg" viewBox="0 0 840 496" width="840" height="496" font-family="-apple-system,&#39;Segoe UI&#39;,system-ui,sans-serif" role="img" aria-label="react/react candlestick chart">
<text x="14.0" y="20.0" font-size="15" fill="#ffffff" font-weight="650">react/react</text>
<text x="108.8" y="20.0" font-size="11.5" fill="#c3c2b7">daily · new stars, volume = new forks</text>
<text x="805.8" y="20.0" font-size="11.0" fill="#c3c2b7">fall</text>
<rect x="791" y="10" width="9" height="12" fill="#008300"/>
<text x="750.6" y="20.0" font-size="11.0" fill="#c3c2b7">rise</text>
<rect x="736" y="10" width="9" height="12" fill="none" stroke="#e66767" stroke-width="1.5"/>
<text x="14.0" y="38.0" font-size="11.0" fill="#898781">last 60 days · +2,113 stars · +629 forks · updated 2026-07-13</text>
<rect x="10" y="66" width="820" height="290" fill="none" stroke="#2c2c2a"/>
<rect x="10" y="384" width="820" height="86" fill="none" stroke="#2c2c2a"/>
<text x="38.0" y="490.0" font-size="11.0" fill="#898781" text-anchor="middle">2026-05</text>
<line x1="256.0" y1="66.0" x2="256.0" y2="356.0" stroke="#2c2c2a" stroke-width="1.0"/>
<line x1="256.0" y1="384.0" x2="256.0" y2="470.0" stroke="#2c2c2a" stroke-width="1.0"/>
<text x="262.8" y="490.0" font-size="11.0" fill="#898781" text-anchor="middle">2026-06</text>
<line x1="666.0" y1="66.0" x2="666.0" y2="356.0" stroke="#2c2c2a" stroke-width="1.0"/>
<line x1="666.0" y1="384.0" x2="666.0" y2="470.0" stroke="#2c2c2a" stroke-width="1.0"/>
<text x="672.8" y="490.0" font-size="11.0" fill="#898781" text-anchor="middle">2026-07</text>
<text x="14.0" y="58.0" font-size="11.0" fill="#c3c2b7">BOLL(20,2)</text>
<text x="84.5" y="58.0" font-size="11.0" fill="#c98500">UP:59.7</text>
<text x="136.9" y="58.0" font-size="11.0" fill="#3987e5">MID:37.8</text>
<text x="195.3" y="58.0" font-size="11.0" fill="#d55181">LOW:15.9</text>
<text x="253.7" y="58.0" font-size="11.0" fill="#9085e9">MA7:31</text>
<line x1="10.0" y1="356.0" x2="830.0" y2="356.0" stroke="#2c2c2a" stroke-width="1.0"/>
<text x="14.0" y="353.0" font-size="11.0" fill="#898781">0</text>
<line x1="10.0" y1="275.9" x2="830.0" y2="275.9" stroke="#2c2c2a" stroke-width="1.0"/>
<text x="14.0" y="272.9" font-size="11.0" fill="#898781">20</text>
<line x1="10.0" y1="195.9" x2="830.0" y2="195.9" stroke="#2c2c2a" stroke-width="1.0"/>
<text x="14.0" y="192.9" font-size="11.0" fill="#898781">40</text>
<line x1="10.0" y1="115.8" x2="830.0" y2="115.8" stroke="#2c2c2a" stroke-width="1.0"/>
<text x="14.0" y="112.8" font-size="11.0" fill="#898781">60</text>
<polyline points="16.8,178.4 30.5,177.2 44.2,185.7 57.8,185.7 71.5,186.7 85.2,185.6 98.8,185.7 112.5,183.2 126.2,182.0 139.8,182.2 153.5,183.5 167.2,178.0 180.8,178.6 194.5,187.7 208.2,188.1 221.8,183.6 235.5,186.3 249.2,186.0 262.8,186.0 276.5,184.7 290.2,184.2 303.8,175.6 317.5,137.2 331.2,137.2 344.8,137.3 358.5,138.8 372.2,121.0 385.8,112.0 399.5,110.8 413.2,106.9 426.8,106.9 440.5,109.8 454.2,109.3 467.8,109.3 481.5,110.2 495.2,113.6 508.8,113.1 522.5,111.5 536.2,109.2 549.8,108.6 563.5,102.5 577.2,104.5 590.8,110.2 604.5,110.2 618.2,108.0 631.8,107.9 645.5,121.3 659.2,127.5 672.8,128.6 686.5,133.2 700.2,123.0 713.8,122.0 727.5,122.3 741.2,121.8 754.8,116.4 768.5,115.6 782.2,114.0 795.8,115.4 809.5,116.8 823.2,117.0" fill="none" stroke="#c98500" stroke-width="1.5" stroke-linejoin="round" stroke-linecap="round"/>
<polyline points="16.8,233.9 30.5,231.5 44.2,234.7 57.8,234.7 71.5,235.3 85.2,234.9 98.8,234.5 112.5,233.3 126.2,231.1 139.8,231.9 153.5,230.5 167.2,225.9 180.8,224.5 194.5,228.7 208.2,228.5 221.8,231.5 235.5,233.5 249.2,233.1 262.8,233.1 276.5,231.1 290.2,230.9 303.8,228.7 317.5,220.5 331.2,220.5 344.8,221.3 358.5,222.9 372.2,216.3 385.8,212.9 399.5,211.9 413.2,208.1 426.8,208.3 440.5,210.7 454.2,209.9 467.8,207.7 481.5,206.1 495.2,204.1 508.8,204.5 522.5,206.3 536.2,209.9 549.8,209.3 563.5,206.3 577.2,207.3 590.8,208.3 604.5,209.1 618.2,205.9 631.8,204.7 645.5,209.1 659.2,210.9 672.8,211.7 686.5,214.5 700.2,209.3 713.8,207.9 727.5,208.5 741.2,210.9 754.8,214.9 768.5,212.9 782.2,209.7 795.8,207.7 809.5,202.7 823.2,204.7" fill="none" stroke="#3987e5" stroke-width="1.5" stroke-linejoin="round" stroke-linecap="round"/>
<polyline points="16.8,289.5 30.5,285.8 44.2,283.8 57.8,283.8 71.5,283.9 85.2,284.3 98.8,283.3 112.5,283.5 126.2,280.2 139.8,281.6 153.5,277.5 167.2,273.8 180.8,270.5 194.5,269.7 208.2,268.9 221.8,279.5 235.5,280.7 249.2,280.2 262.8,280.2 276.5,277.5 290.2,277.7 303.8,281.8 317.5,303.8 331.2,303.8 344.8,305.3 358.5,307.0 372.2,311.6 385.8,313.8 399.5,313.1 413.2,309.3 426.8,309.7 440.5,311.6 454.2,310.5 467.8,306.1 481.5,302.0 495.2,294.6 508.8,295.9 522.5,301.1 536.2,310.6 549.8,310.0 563.5,310.0 577.2,310.1 590.8,306.4 604.5,308.0 618.2,303.8 631.8,301.4 645.5,296.9 659.2,294.3 672.8,294.8 686.5,295.8 700.2,295.6 713.8,293.8 727.5,294.7 741.2,300.0 754.8,313.4 768.5,310.2 782.2,305.4 795.8,300.0 809.5,288.6 823.2,292.4" fill="none" stroke="#d55181" stroke-width="1.5" stroke-linejoin="round" stroke-linecap="round"/>
<polyline points="16.8,231.9 30.5,225.1 44.2,227.5 57.8,230.3 71.5,229.1 85.2,228.3 98.8,227.5 112.5,226.3 126.2,226.3 139.8,226.7 153.5,228.3 167.2,221.1 180.8,223.9 194.5,225.1 208.2,232.3 221.8,242.7 235.5,242.7 249.2,241.5 262.8,246.3 276.5,244.3 290.2,238.3 303.8,225.5 317.5,195.9 331.2,193.1 344.8,195.5 358.5,199.5 372.2,185.1 385.8,174.7 399.5,178.3 413.2,191.5 426.8,193.5 440.5,190.7 454.2,186.7 467.8,200.3 481.5,213.1 495.2,220.3 508.8,232.3 522.5,235.9 536.2,243.9 549.8,242.7 563.5,234.3 577.2,229.1 590.8,207.9 604.5,206.3 618.2,194.3 631.8,184.3 645.5,184.3 659.2,187.9 672.8,190.7 686.5,209.1 700.2,194.3 713.8,196.3 727.5,197.5 741.2,205.5 754.8,224.3 768.5,223.9 782.2,218.7 795.8,231.5 809.5,229.1 823.2,231.9" fill="none" stroke="#9085e9" stroke-width="1.5" stroke-linejoin="round" stroke-linecap="round"/>
<rect x="13.1" y="215.9" width="7.5" height="40.0" fill="none" stroke="#e66767" stroke-width="1.3"/>
<rect x="26.7" y="215.9" width="7.5" height="1.2" fill="#898781"/>
<rect x="40.4" y="215.9" width="7.5" height="28.0" fill="#008300"/>
<rect x="54.1" y="227.9" width="7.5" height="16.0" fill="none" stroke="#e66767" stroke-width="1.3"/>
<rect x="67.7" y="227.9" width="7.5" height="4.0" fill="#008300"/>
<rect x="81.4" y="207.9" width="7.5" height="24.0" fill="none" stroke="#e66767" stroke-width="1.3"/>
<rect x="95.1" y="207.9" width="7.5" height="40.0" fill="#008300"/>
<rect x="108.7" y="207.9" width="7.5" height="40.0" fill="none" stroke="#e66767" stroke-width="1.3"/>
<rect x="122.4" y="207.9" width="7.5" height="8.0" fill="#008300"/>
<rect x="136.1" y="215.9" width="7.5" height="32.0" fill="#008300"/>
<rect x="149.7" y="239.9" width="7.5" height="8.0" fill="none" stroke="#e66767" stroke-width="1.3"/>
<rect x="163.4" y="179.9" width="7.5" height="60.0" fill="none" stroke="#e66767" stroke-width="1.3"/>
<rect x="177.1" y="179.9" width="7.5" height="48.0" fill="#008300"/>
<rect x="190.7" y="227.9" width="7.5" height="28.0" fill="#008300"/>
<rect x="204.4" y="255.9" width="7.5" height="4.0" fill="#008300"/>
<rect x="218.1" y="259.9" width="7.5" height="28.0" fill="#008300"/>
<rect x="231.7" y="247.9" width="7.5" height="40.0" fill="none" stroke="#e66767" stroke-width="1.3"/>
<rect x="245.4" y="231.9" width="7.5" height="16.0" fill="none" stroke="#e66767" stroke-width="1.3"/>
<rect x="259.1" y="211.9" width="7.5" height="20.0" fill="none" stroke="#e66767" stroke-width="1.3"/>
<rect x="272.7" y="211.9" width="7.5" height="4.0" fill="#008300"/>
<rect x="286.4" y="211.9" width="7.5" height="4.0" fill="none" stroke="#e66767" stroke-width="1.3"/>
<rect x="300.1" y="171.9" width="7.5" height="40.0" fill="none" stroke="#e66767" stroke-width="1.3"/>
<rect x="313.7" y="79.8" width="7.5" height="92.1" fill="none" stroke="#e66767" stroke-width="1.3"/>
<rect x="327.4" y="79.8" width="7.5" height="148.1" fill="#008300"/>
<rect x="341.1" y="227.9" width="7.5" height="20.0" fill="#008300"/>
<rect x="354.7" y="239.9" width="7.5" height="8.0" fill="none" stroke="#e66767" stroke-width="1.3"/>
<rect x="368.4" y="115.8" width="7.5" height="124.1" fill="none" stroke="#e66767" stroke-width="1.3"/>
<rect x="382.1" y="115.8" width="7.5" height="24.0" fill="#008300"/>
<rect x="395.7" y="139.9" width="7.5" height="56.0" fill="#008300"/>
<rect x="409.4" y="171.9" width="7.5" height="24.0" fill="none" stroke="#e66767" stroke-width="1.3"/>
<rect x="423.1" y="171.9" width="7.5" height="72.0" fill="#008300"/>
<rect x="436.7" y="227.9" width="7.5" height="16.0" fill="none" stroke="#e66767" stroke-width="1.3"/>
<rect x="450.4" y="211.9" width="7.5" height="16.0" fill="none" stroke="#e66767" stroke-width="1.3"/>
<rect x="464.1" y="211.9" width="7.5" height="1.2" fill="#898781"/>
<rect x="477.7" y="211.9" width="7.5" height="16.0" fill="#008300"/>
<rect x="491.4" y="227.9" width="7.5" height="20.0" fill="#008300"/>
<rect x="505.1" y="247.9" width="7.5" height="8.0" fill="#008300"/>
<rect x="518.7" y="255.9" width="7.5" height="12.0" fill="#008300"/>
<rect x="532.4" y="267.9" width="7.5" height="16.0" fill="#008300"/>
<rect x="546.1" y="203.9" width="7.5" height="80.1" fill="none" stroke="#e66767" stroke-width="1.3"/>
<rect x="559.7" y="151.9" width="7.5" height="52.0" fill="none" stroke="#e66767" stroke-width="1.3"/>
<rect x="573.4" y="151.9" width="7.5" height="40.0" fill="#008300"/>
<rect x="587.1" y="99.8" width="7.5" height="92.1" fill="none" stroke="#e66767" stroke-width="1.3"/>
<rect x="600.7" y="99.8" width="7.5" height="144.1" fill="#008300"/>
<rect x="614.4" y="183.9" width="7.5" height="60.0" fill="none" stroke="#e66767" stroke-width="1.3"/>
<rect x="628.1" y="183.9" width="7.5" height="32.0" fill="#008300"/>
<rect x="641.7" y="203.9" width="7.5" height="12.0" fill="none" stroke="#e66767" stroke-width="1.3"/>
<rect x="655.4" y="175.9" width="7.5" height="28.0" fill="none" stroke="#e66767" stroke-width="1.3"/>
<rect x="669.1" y="175.9" width="7.5" height="36.0" fill="#008300"/>
<rect x="682.7" y="211.9" width="7.5" height="16.0" fill="#008300"/>
<rect x="696.4" y="139.9" width="7.5" height="88.1" fill="none" stroke="#e66767" stroke-width="1.3"/>
<rect x="710.1" y="139.9" width="7.5" height="60.0" fill="#008300"/>
<rect x="723.7" y="199.9" width="7.5" height="24.0" fill="#008300"/>
<rect x="737.4" y="223.9" width="7.5" height="36.0" fill="#008300"/>
<rect x="751.1" y="259.9" width="7.5" height="48.0" fill="#008300"/>
<rect x="764.7" y="207.9" width="7.5" height="148.1" fill="none" stroke="#e66767" stroke-width="1.3"/>
<rect x="778.4" y="191.9" width="7.5" height="16.0" fill="none" stroke="#e66767" stroke-width="1.3"/>
<rect x="792.1" y="191.9" width="7.5" height="36.0" fill="#008300"/>
<rect x="805.7" y="183.9" width="7.5" height="44.0" fill="none" stroke="#e66767" stroke-width="1.3"/>
<rect x="819.4" y="183.9" width="7.5" height="60.0" fill="#008300"/>
<circle cx="317.5" cy="79.8" r="2" fill="#c3c2b7"/>
<line x1="317.5" y1="79.8" x2="325.5" y2="79.8" stroke="#c3c2b7" stroke-width="1.0"/>
<text x="328.5" y="83.8" font-size="11.0" fill="#c3c2b7">69</text>
<circle cx="768.5" cy="356.0" r="2" fill="#c3c2b7"/>
<line x1="768.5" y1="356.0" x2="760.5" y2="356.0" stroke="#c3c2b7" stroke-width="1.0"/>
<text x="757.5" y="350.0" font-size="11.0" fill="#c3c2b7" text-anchor="end">0</text>
<text x="14.0" y="376.0" font-size="11.0" fill="#c3c2b7">VOL 11 forks</text>
<text x="96.6" y="376.0" font-size="11.0" fill="#c98500">MA5:10</text>
<text x="142.9" y="376.0" font-size="11.0" fill="#3987e5">MA10:15.9</text>
<text x="14.0" y="395.0" font-size="10" fill="#898781">35</text>
<rect x="13.1" y="451.3" width="7.5" height="18.7" fill="none" stroke="#e66767" stroke-width="1.1"/>
<rect x="26.7" y="441.9" width="7.5" height="28.1" fill="#898781"/>
<rect x="40.4" y="453.6" width="7.5" height="16.4" fill="#008300"/>
<rect x="54.1" y="448.9" width="7.5" height="21.1" fill="none" stroke="#e66767" stroke-width="1.1"/>
<rect x="67.7" y="441.9" width="7.5" height="28.1" fill="#008300"/>
<rect x="81.4" y="420.8" width="7.5" height="49.2" fill="none" stroke="#e66767" stroke-width="1.1"/>
<rect x="95.1" y="451.3" width="7.5" height="18.7" fill="#008300"/>
<rect x="108.7" y="458.3" width="7.5" height="11.7" fill="none" stroke="#e66767" stroke-width="1.1"/>
<rect x="122.4" y="460.6" width="7.5" height="9.4" fill="#008300"/>
<rect x="136.1" y="460.6" width="7.5" height="9.4" fill="#008300"/>
<rect x="149.7" y="460.6" width="7.5" height="9.4" fill="none" stroke="#e66767" stroke-width="1.1"/>
<rect x="163.4" y="465.3" width="7.5" height="4.7" fill="none" stroke="#e66767" stroke-width="1.1"/>
<rect x="177.1" y="444.2" width="7.5" height="25.8" fill="#008300"/>
<rect x="190.7" y="444.2" width="7.5" height="25.8" fill="#008300"/>
<rect x="204.4" y="448.9" width="7.5" height="21.1" fill="#008300"/>
<rect x="218.1" y="458.3" width="7.5" height="11.7" fill="#008300"/>
<rect x="231.7" y="463.0" width="7.5" height="7.0" fill="none" stroke="#e66767" stroke-width="1.1"/>
<rect x="245.4" y="453.6" width="7.5" height="16.4" fill="none" stroke="#e66767" stroke-width="1.1"/>
<rect x="259.1" y="444.2" width="7.5" height="25.8" fill="none" stroke="#e66767" stroke-width="1.1"/>
<rect x="272.7" y="441.9" width="7.5" height="28.1" fill="#008300"/>
<rect x="286.4" y="453.6" width="7.5" height="16.4" fill="none" stroke="#e66767" stroke-width="1.1"/>
<rect x="300.1" y="453.6" width="7.5" height="16.4" fill="none" stroke="#e66767" stroke-width="1.1"/>
<rect x="313.7" y="448.9" width="7.5" height="21.1" fill="none" stroke="#e66767" stroke-width="1.1"/>
<rect x="327.4" y="444.2" width="7.5" height="25.8" fill="#008300"/>
<rect x="341.1" y="463.0" width="7.5" height="7.0" fill="#008300"/>
<rect x="354.7" y="441.9" width="7.5" height="28.1" fill="none" stroke="#e66767" stroke-width="1.1"/>
<rect x="368.4" y="448.9" width="7.5" height="21.1" fill="none" stroke="#e66767" stroke-width="1.1"/>
<rect x="382.1" y="439.5" width="7.5" height="30.5" fill="#008300"/>
<rect x="395.7" y="444.2" width="7.5" height="25.8" fill="#008300"/>
<rect x="409.4" y="444.2" width="7.5" height="25.8" fill="none" stroke="#e66767" stroke-width="1.1"/>
<rect x="423.1" y="453.6" width="7.5" height="16.4" fill="#008300"/>
<rect x="436.7" y="463.0" width="7.5" height="7.0" fill="none" stroke="#e66767" stroke-width="1.1"/>
<rect x="450.4" y="451.3" width="7.5" height="18.7" fill="none" stroke="#e66767" stroke-width="1.1"/>
<rect x="464.1" y="446.6" width="7.5" height="23.4" fill="#898781"/>
<rect x="477.7" y="441.9" width="7.5" height="28.1" fill="#008300"/>
<rect x="491.4" y="446.6" width="7.5" height="23.4" fill="#008300"/>
<rect x="505.1" y="455.9" width="7.5" height="14.1" fill="#008300"/>
<rect x="518.7" y="458.3" width="7.5" height="11.7" fill="#008300"/>
<rect x="532.4" y="437.2" width="7.5" height="32.8" fill="#008300"/>
<rect x="546.1" y="453.6" width="7.5" height="16.4" fill="none" stroke="#e66767" stroke-width="1.1"/>
<rect x="559.7" y="455.9" width="7.5" height="14.1" fill="none" stroke="#e66767" stroke-width="1.1"/>
<rect x="573.4" y="448.9" width="7.5" height="21.1" fill="#008300"/>
<rect x="587.1" y="451.3" width="7.5" height="18.7" fill="none" stroke="#e66767" stroke-width="1.1"/>
<rect x="600.7" y="434.9" width="7.5" height="35.1" fill="#008300"/>
<rect x="614.4" y="458.3" width="7.5" height="11.7" fill="none" stroke="#e66767" stroke-width="1.1"/>
<rect x="628.1" y="453.6" width="7.5" height="16.4" fill="#008300"/>
<rect x="641.7" y="448.9" width="7.5" height="21.1" fill="none" stroke="#e66767" stroke-width="1.1"/>
<rect x="655.4" y="388.0" width="7.5" height="82.0" fill="none" stroke="#e66767" stroke-width="1.1"/>
<rect x="669.1" y="423.1" width="7.5" height="46.9" fill="#008300"/>
<rect x="682.7" y="432.5" width="7.5" height="37.5" fill="#008300"/>
<rect x="696.4" y="409.1" width="7.5" height="60.9" fill="none" stroke="#e66767" stroke-width="1.1"/>
<rect x="710.1" y="406.7" width="7.5" height="63.3" fill="#008300"/>
<rect x="723.7" y="402.1" width="7.5" height="67.9" fill="#008300"/>
<rect x="737.4" y="423.1" width="7.5" height="46.9" fill="#008300"/>
<rect x="751.1" y="453.6" width="7.5" height="16.4" fill="#008300"/>
<rect x="764.7" y="455.9" width="7.5" height="14.1" fill="none" stroke="#e66767" stroke-width="1.1"/>
<rect x="778.4" y="453.6" width="7.5" height="16.4" fill="none" stroke="#e66767" stroke-width="1.1"/>
<rect x="792.1" y="434.9" width="7.5" height="35.1" fill="#008300"/>
<rect x="805.7" y="444.2" width="7.5" height="25.8" fill="none" stroke="#e66767" stroke-width="1.1"/>
<rect x="819.4" y="444.2" width="7.5" height="25.8" fill="#008300"/>
<polyline points="16.8,449.9 30.5,448.9 44.2,448.4 57.8,448.4 71.5,447.5 85.2,444.0 98.8,443.8 112.5,445.4 126.2,447.5 139.8,448.9 153.5,449.9 167.2,452.2 180.8,451.3 194.5,450.8 208.2,451.5 221.8,455.2 235.5,456.4 249.2,455.9 262.8,454.3 276.5,452.4 290.2,451.7 303.8,450.6 317.5,451.0 331.2,451.0 344.8,452.4 358.5,450.8 372.2,449.4 385.8,448.0 399.5,448.0 413.2,448.2 426.8,448.2 440.5,449.1 454.2,449.4 467.8,449.6 481.5,447.5 495.2,448.0 508.8,448.7 522.5,450.6 536.2,449.9 549.8,450.8 563.5,451.0 577.2,449.6 590.8,449.6 604.5,448.4 618.2,450.1 631.8,450.8 645.5,450.1 659.2,443.1 672.8,441.7 686.5,439.5 700.2,434.9 713.8,430.6 727.5,425.7 741.2,424.5 754.8,424.1 768.5,424.3 782.2,424.8 795.8,429.5 809.5,431.6 823.2,432.7" fill="none" stroke="#3987e5" stroke-width="1.5" stroke-linejoin="round" stroke-linecap="round"/>
<polyline points="16.8,446.6 30.5,444.2 44.2,446.6 57.8,448.4 71.5,447.5 85.2,441.4 98.8,443.3 112.5,444.2 126.2,446.6 139.8,450.3 153.5,458.3 167.2,461.1 180.8,458.3 194.5,455.0 208.2,452.7 221.8,452.2 235.5,451.7 249.2,453.6 262.8,453.6 276.5,452.2 290.2,451.3 303.8,449.4 317.5,448.4 331.2,448.4 344.8,452.7 358.5,450.3 372.2,449.4 385.8,447.5 399.5,447.5 413.2,443.8 426.8,446.1 440.5,448.9 454.2,451.3 467.8,451.7 481.5,451.3 495.2,449.9 508.8,448.4 522.5,449.9 536.2,448.0 549.8,450.3 563.5,452.2 577.2,450.8 590.8,449.4 604.5,448.9 618.2,449.9 631.8,449.4 645.5,449.4 659.2,436.7 672.8,434.4 686.5,429.2 700.2,420.3 713.8,411.9 727.5,414.7 741.2,414.7 754.8,418.9 768.5,428.3 782.2,437.7 795.8,444.2 809.5,448.4 823.2,446.6" fill="none" stroke="#c98500" stroke-width="1.5" stroke-linejoin="round" stroke-linecap="round"/>
</svg>