<svg xmlns="http://www.w3.org/2000/svg" viewBox="0 0 840 496" width="840" height="496" font-family="-apple-system,&#39;Segoe UI&#39;,system-ui,sans-serif" role="img" aria-label="react/react candlestick chart">
<text x="14.0" y="20.0" font-size="15" fill="#0b0b0b" font-weight="650">react/react</text>
<text x="108.8" y="20.0" font-size="11.5" fill="#52514e">daily · new stars, volume = new forks</text>
<text x="805.8" y="20.0" font-size="11.0" fill="#52514e">fall</text>
<rect x="791" y="10" width="9" height="12" fill="#008300"/>
<text x="750.6" y="20.0" font-size="11.0" fill="#52514e">rise</text>
<rect x="736" y="10" width="9" height="12" fill="none" stroke="#e34948" stroke-width="1.5"/>
<text x="14.0" y="38.0" font-size="11.0" fill="#898781">last 60 days · +2,096 stars · +627 forks · updated 2026-07-09</text>
<rect x="10" y="66" width="820" height="290" fill="none" stroke="#e1e0d9"/>
<rect x="10" y="384" width="820" height="86" fill="none" stroke="#e1e0d9"/>
<text x="38.0" y="490.0" font-size="11.0" fill="#898781" text-anchor="middle">2026-05</text>
<line x1="310.7" y1="66.0" x2="310.7" y2="356.0" stroke="#e1e0d9" stroke-width="1.0"/>
<line x1="310.7" y1="384.0" x2="310.7" y2="470.0" stroke="#e1e0d9" stroke-width="1.0"/>
<text x="317.5" y="490.0" font-size="11.0" fill="#898781" text-anchor="middle">2026-06</text>
<line x1="720.7" y1="66.0" x2="720.7" y2="356.0" stroke="#e1e0d9" stroke-width="1.0"/>
<line x1="720.7" y1="384.0" x2="720.7" y2="470.0" stroke="#e1e0d9" stroke-width="1.0"/>
<text x="727.5" y="490.0" font-size="11.0" fill="#898781" text-anchor="middle">2026-07</text>
<text x="14.0" y="58.0" font-size="11.0" fill="#52514e">BOLL(20,2)</text>
<text x="84.5" y="58.0" font-size="11.0" fill="#eda100">UP:60.1</text>
<text x="136.9" y="58.0" font-size="11.0" fill="#2a78d6">MID:35.8</text>
<text x="195.3" y="58.0" font-size="11.0" fill="#e87ba4">LOW:11.4</text>
<text x="253.7" y="58.0" font-size="11.0" fill="#4a3aa7">MA7:33</text>
<line x1="10.0" y1="356.0" x2="830.0" y2="356.0" stroke="#e1e0d9" stroke-width="1.0"/>
<text x="14.0" y="353.0" font-size="11.0" fill="#898781">0</text>
<line x1="10.0" y1="275.9" x2="830.0" y2="275.9" stroke="#e1e0d9" stroke-width="1.0"/>
<text x="14.0" y="272.9" font-size="11.0" fill="#898781">20</text>
<line x1="10.0" y1="195.9" x2="830.0" y2="195.9" stroke="#e1e0d9" stroke-width="1.0"/>
<text x="14.0" y="192.9" font-size="11.0" fill="#898781">40</text>
<line x1="10.0" y1="115.8" x2="830.0" y2="115.8" stroke="#e1e0d9" stroke-width="1.0"/>
<text x="14.0" y="112.8" font-size="11.0" fill="#898781">60</text>
<polyline points="16.8,166.5 30.5,179.2 44.2,177.4 57.8,177.9 71.5,178.4 85.2,177.2 98.8,185.7 112.5,185.7 126.2,186.7 139.8,185.6 153.5,185.7 167.2,183.2 180.8,182.0 194.5,182.2 208.2,183.5 221.8,178.0 235.5,178.6 249.2,187.7 262.8,188.1 276.5,183.6 290.2,186.3 303.8,186.0 317.5,186.0 331.2,184.7 344.8,184.2 358.5,175.6 372.2,137.2 385.8,137.2 399.5,137.3 413.2,138.8 426.8,121.0 440.5,112.0 454.2,110.8 467.8,106.9 481.5,106.9 495.2,109.8 508.8,109.3 522.5,109.3 536.2,110.2 549.8,113.6 563.5,113.1 577.2,111.5 590.8,109.2 604.5,108.6 618.2,102.5 631.8,104.5 645.5,110.2 659.2,110.2 672.8,108.0 686.5,107.9 700.2,121.3 713.8,127.5 727.5,128.6 741.2,133.2 754.8,123.0 768.5,122.0 782.2,122.3 795.8,121.8 809.5,116.4 823.2,115.6" fill="none" stroke="#eda100" stroke-width="1.5" stroke-linejoin="round" stroke-linecap="round"/>
<polyline points="16.8,229.3 30.5,233.3 44.2,232.3 57.8,233.7 71.5,233.9 85.2,231.5 98.8,234.7 112.5,234.7 126.2,235.3 139.8,234.9 153.5,234.5 167.2,233.3 180.8,231.1 194.5,231.9 208.2,230.5 221.8,225.9 235.5,224.5 249.2,228.7 262.8,228.5 276.5,231.5 290.2,233.5 303.8,233.1 317.5,233.1 331.2,231.1 344.8,230.9 358.5,228.7 372.2,220.5 385.8,220.5 399.5,221.3 413.2,222.9 426.8,216.3 440.5,212.9 454.2,211.9 467.8,208.1 481.5,208.3 495.2,210.7 508.8,209.9 522.5,207.7 536.2,206.1 549.8,204.1 563.5,204.5 577.2,206.3 590.8,209.9 604.5,209.3 618.2,206.3 631.8,207.3 645.5,208.3 659.2,209.1 672.8,205.9 686.5,204.7 700.2,209.1 713.8,210.9 727.5,211.7 741.2,214.5 754.8,209.3 768.5,207.9 782.2,208.5 795.8,210.9 809.5,214.9 823.2,212.9" fill="none" stroke="#2a78d6" stroke-width="1.5" stroke-linejoin="round" stroke-linecap="round"/>
<polyline points="16.8,292.1 30.5,287.4 44.2,287.2 57.8,289.6 71.5,289.5 85.2,285.8 98.8,283.8 112.5,283.8 126.2,283.9 139.8,284.3 153.5,283.3 167.2,283.5 180.8,280.2 194.5,281.6 208.2,277.5 221.8,273.8 235.5,270.5 249.2,269.7 262.8,268.9 276.5,279.5 290.2,280.7 303.8,280.2 317.5,280.2 331.2,277.5 344.8,277.7 358.5,281.8 372.2,303.8 385.8,303.8 399.5,305.3 413.2,307.0 426.8,311.6 440.5,313.8 454.2,313.1 467.8,309.3 481.5,309.7 495.2,311.6 508.8,310.5 522.5,306.1 536.2,302.0 549.8,294.6 563.5,295.9 577.2,301.1 590.8,310.6 604.5,310.0 618.2,310.0 631.8,310.1 645.5,306.4 659.2,308.0 672.8,303.8 686.5,301.4 700.2,296.9 713.8,294.3 727.5,294.8 741.2,295.8 754.8,295.6 768.5,293.8 782.2,294.7 795.8,300.0 809.5,313.4 823.2,310.2" fill="none" stroke="#e87ba4" stroke-width="1.5" stroke-linejoin="round" stroke-linecap="round"/>
<polyline points="16.8,238.3 30.5,234.3 44.2,225.5 57.8,225.5 71.5,231.9 85.2,225.1 98.8,227.5 112.5,230.3 126.2,229.1 139.8,228.3 153.5,227.5 167.2,226.3 180.8,226.3 194.5,226.7 208.2,228.3 221.8,221.1 235.5,223.9 249.2,225.1 262.8,232.3 276.5,242.7 290.2,242.7 303.8,241.5 317.5,246.3 331.2,244.3 344.8,238.3 358.5,225.5 372.2,195.9 385.8,193.1 399.5,195.5 413.2,199.5 426.8,185.1 440.5,174.7 454.2,178.3 467.8,191.5 481.5,193.5 495.2,190.7 508.8,186.7 522.5,200.3 536.2,213.1 549.8,220.3 563.5,232.3 577.2,235.9 590.8,243.9 604.5,242.7 618.2,234.3 631.8,229.1 645.5,207.9 659.2,206.3 672.8,194.3 686.5,184.3 700.2,184.3 713.8,187.9 727.5,190.7 741.2,209.1 754.8,194.3 768.5,196.3 782.2,197.5 795.8,205.5 809.5,224.3 823.2,223.9" fill="none" stroke="#4a3aa7" stroke-width="1.5" stroke-linejoin="round" stroke-linecap="round"/>
<rect x="13.1" y="207.9" width="7.5" height="20.0" fill="none" stroke="#e34948" stroke-width="1.3"/>
<rect x="26.7" y="207.9" width="7.5" height="32.0" fill="#008300"/>
<rect x="40.4" y="211.9" width="7.5" height="28.0" fill="none" stroke="#e34948" stroke-width="1.3"/>
<rect x="54.1" y="211.9" width="7.5" height="44.0" fill="#008300"/>
<rect x="67.7" y="215.9" width="7.5" height="40.0" fill="none" stroke="#e34948" stroke-width="1.3"/>
<rect x="81.4" y="215.9" width="7.5" height="1.2" fill="#898781"/>
<rect x="95.1" y="215.9" width="7.5" height="28.0" fill="#008300"/>
<rect x="108.7" y="227.9" width="7.5" height="16.0" fill="none" stroke="#e34948" stroke-width="1.3"/>
<rect x="122.4" y="227.9" width="7.5" height="4.0" fill="#008300"/>
<rect x="136.1" y="207.9" width="7.5" height="24.0" fill="none" stroke="#e34948" stroke-width="1.3"/>
<rect x="149.7" y="207.9" width="7.5" height="40.0" fill="#008300"/>
<rect x="163.4" y="207.9" width="7.5" height="40.0" fill="none" stroke="#e34948" stroke-width="1.3"/>
<rect x="177.1" y="207.9" width="7.5" height="8.0" fill="#008300"/>
<rect x="190.7" y="215.9" width="7.5" height="32.0" fill="#008300"/>
<rect x="204.4" y="239.9" width="7.5" height="8.0" fill="none" stroke="#e34948" stroke-width="1.3"/>
<rect x="218.1" y="179.9" width="7.5" height="60.0" fill="none" stroke="#e34948" stroke-width="1.3"/>
<rect x="231.7" y="179.9" width="7.5" height="48.0" fill="#008300"/>
<rect x="245.4" y="227.9" width="7.5" height="28.0" fill="#008300"/>
<rect x="259.1" y="255.9" width="7.5" height="4.0" fill="#008300"/>
<rect x="272.7" y="259.9" width="7.5" height="28.0" fill="#008300"/>
<rect x="286.4" y="247.9" width="7.5" height="40.0" fill="none" stroke="#e34948" stroke-width="1.3"/>
<rect x="300.1" y="231.9" width="7.5" height="16.0" fill="none" stroke="#e34948" stroke-width="1.3"/>
<rect x="313.7" y="211.9" width="7.5" height="20.0" fill="none" stroke="#e34948" stroke-width="1.3"/>
<rect x="327.4" y="211.9" width="7.5" height="4.0" fill="#008300"/>
<rect x="341.1" y="211.9" width="7.5" height="4.0" fill="none" stroke="#e34948" stroke-width="1.3"/>
<rect x="354.7" y="171.9" width="7.5" height="40.0" fill="none" stroke="#e34948" stroke-width="1.3"/>
<rect x="368.4" y="79.8" width="7.5" height="92.1" fill="none" stroke="#e34948" stroke-width="1.3"/>
<rect x="382.1" y="79.8" width="7.5" height="148.1" fill="#008300"/>
<rect x="395.7" y="227.9" width="7.5" height="20.0" fill="#008300"/>
<rect x="409.4" y="239.9" width="7.5" height="8.0" fill="none" stroke="#e34948" stroke-width="1.3"/>
<rect x="423.1" y="115.8" width="7.5" height="124.1" fill="none" stroke="#e34948" stroke-width="1.3"/>
<rect x="436.7" y="115.8" width="7.5" height="24.0" fill="#008300"/>
<rect x="450.4" y="139.9" width="7.5" height="56.0" fill="#008300"/>
<rect x="464.1" y="171.9" width="7.5" height="24.0" fill="none" stroke="#e34948" stroke-width="1.3"/>
<rect x="477.7" y="171.9" width="7.5" height="72.0" fill="#008300"/>
<rect x="491.4" y="227.9" width="7.5" height="16.0" fill="none" stroke="#e34948" stroke-width="1.3"/>
<rect x="505.1" y="211.9" width="7.5" height="16.0" fill="none" stroke="#e34948" stroke-width="1.3"/>
<rect x="518.7" y="211.9" width="7.5" height="1.2" fill="#898781"/>
<rect x="532.4" y="211.9" width="7.5" height="16.0" fill="#008300"/>
<rect x="546.1" y="227.9" width="7.5" height="20.0" fill="#008300"/>
<rect x="559.7" y="247.9" width="7.5" height="8.0" fill="#008300"/>
<rect x="573.4" y="255.9" width="7.5" height="12.0" fill="#008300"/>
<rect x="587.1" y="267.9" width="7.5" height="16.0" fill="#008300"/>
<rect x="600.7" y="203.9" width="7.5" height="80.1" fill="none" stroke="#e34948" stroke-width="1.3"/>
<rect x="614.4" y="151.9" width="7.5" height="52.0" fill="none" stroke="#e34948" stroke-width="1.3"/>
<rect x="628.1" y="151.9" width="7.5" height="40.0" fill="#008300"/>
<rect x="641.7" y="99.8" width="7.5" height="92.1" fill="none" stroke="#e34948" stroke-width="1.3"/>
<rect x="655.4" y="99.8" width="7.5" height="144.1" fill="#008300"/>
<rect x="669.1" y="183.9" width="7.5" height="60.0" fill="none" stroke="#e34948" stroke-width="1.3"/>
<rect x="682.7" y="183.9" width="7.5" height="32.0" fill="#008300"/>
<rect x="696.4" y="203.9" width="7.5" height="12.0" fill="none" stroke="#e34948" stroke-width="1.3"/>
<rect x="710.1" y="175.9" width="7.5" height="28.0" fill="none" stroke="#e34948" stroke-width="1.3"/>
<rect x="723.7" y="175.9" width="7.5" height="36.0" fill="#008300"/>
<rect x="737.4" y="211.9" width="7.5" height="16.0" fill="#008300"/>
<rect x="751.1" y="139.9" width="7.5" height="88.1" fill="none" stroke="#e34948" stroke-width="1.3"/>
<rect x="764.7" y="139.9" width="7.5" height="60.0" fill="#008300"/>
<rect x="778.4" y="199.9" width="7.5" height="24.0" fill="#008300"/>
<rect x="792.1" y="223.9" width="7.5" height="36.0" fill="#008300"/>
<rect x="805.7" y="259.9" width="7.5" height="48.0" fill="#008300"/>
<rect x="819.4" y="207.9" width="7.5" height="148.1" fill="none" stroke="#e34948" stroke-width="1.3"/>
<circle cx="372.2" cy="79.8" r="2" fill="#52514e"/>
<line x1="372.2" y1="79.8" x2="380.2" y2="79.8" stroke="#52514e" stroke-width="1.0"/>
<text x="383.2" y="83.8" font-size="11.0" fill="#52514e">69</text>
<circle cx="823.2" cy="356.0" r="2" fill="#52514e"/>
<line x1="823.2" y1="356.0" x2="815.2" y2="356.0" stroke="#52514e" stroke-width="1.0"/>
<text x="812.2" y="350.0" font-size="11.0" fill="#52514e" text-anchor="end">0</text>
<text x="14.0" y="376.0" font-size="11.0" fill="#52514e">VOL 6 forks</text>
<text x="90.6" y="376.0" font-size="11.0" fill="#eda100">MA5:17.8</text>
<text x="149.0" y="376.0" font-size="11.0" fill="#2a78d6">MA10:19.5</text>
<text x="14.0" y="395.0" font-size="10" fill="#898781">35</text>
<rect x="13.1" y="453.6" width="7.5" height="16.4" fill="none" stroke="#e34948" stroke-width="1.1"/>
<rect x="26.7" y="441.9" width="7.5" height="28.1" fill="#008300"/>
<rect x="40.4" y="439.5" width="7.5" height="30.5" fill="none" stroke="#e34948" stroke-width="1.1"/>
<rect x="54.1" y="446.6" width="7.5" height="23.4" fill="#008300"/>
<rect x="67.7" y="451.3" width="7.5" height="18.7" fill="none" stroke="#e34948" stroke-width="1.1"/>
<rect x="81.4" y="441.9" width="7.5" height="28.1" fill="#898781"/>
<rect x="95.1" y="453.6" width="7.5" height="16.4" fill="#008300"/>
<rect x="108.7" y="448.9" width="7.5" height="21.1" fill="none" stroke="#e34948" stroke-width="1.1"/>
<rect x="122.4" y="441.9" width="7.5" height="28.1" fill="#008300"/>
<rect x="136.1" y="420.8" width="7.5" height="49.2" fill="none" stroke="#e34948" stroke-width="1.1"/>
<rect x="149.7" y="451.3" width="7.5" height="18.7" fill="#008300"/>
<rect x="163.4" y="458.3" width="7.5" height="11.7" fill="none" stroke="#e34948" stroke-width="1.1"/>
<rect x="177.1" y="460.6" width="7.5" height="9.4" fill="#008300"/>
<rect x="190.7" y="460.6" width="7.5" height="9.4" fill="#008300"/>
<rect x="204.4" y="460.6" width="7.5" height="9.4" fill="none" stroke="#e34948" stroke-width="1.1"/>
<rect x="218.1" y="465.3" width="7.5" height="4.7" fill="none" stroke="#e34948" stroke-width="1.1"/>
<rect x="231.7" y="444.2" width="7.5" height="25.8" fill="#008300"/>
<rect x="245.4" y="444.2" width="7.5" height="25.8" fill="#008300"/>
<rect x="259.1" y="448.9" width="7.5" height="21.1" fill="#008300"/>
<rect x="272.7" y="458.3" width="7.5" height="11.7" fill="#008300"/>
<rect x="286.4" y="463.0" width="7.5" height="7.0" fill="none" stroke="#e34948" stroke-width="1.1"/>
<rect x="300.1" y="453.6" width="7.5" height="16.4" fill="none" stroke="#e34948" stroke-width="1.1"/>
<rect x="313.7" y="444.2" width="7.5" height="25.8" fill="none" stroke="#e34948" stroke-width="1.1"/>
<rect x="327.4" y="441.9" width="7.5" height="28.1" fill="#008300"/>
<rect x="341.1" y="453.6" width="7.5" height="16.4" fill="none" stroke="#e34948" stroke-width="1.1"/>
<rect x="354.7" y="453.6" width="7.5" height="16.4" fill="none" stroke="#e34948" stroke-width="1.1"/>
<rect x="368.4" y="448.9" width="7.5" height="21.1" fill="none" stroke="#e34948" stroke-width="1.1"/>
<rect x="382.1" y="444.2" width="7.5" height="25.8" fill="#008300"/>
<rect x="395.7" y="463.0" width="7.5" height="7.0" fill="#008300"/>
<rect x="409.4" y="441.9" width="7.5" height="28.1" fill="none" stroke="#e34948" stroke-width="1.1"/>
<rect x="423.1" y="448.9" width="7.5" height="21.1" fill="none" stroke="#e34948" stroke-width="1.1"/>
<rect x="436.7" y="439.5" width="7.5" height="30.5" fill="#008300"/>
<rect x="450.4" y="444.2" width="7.5" height="25.8" fill="#008300"/>
<rect x="464.1" y="444.2" width="7.5" height="25.8" fill="none" stroke="#e34948" stroke-width="1.1"/>
<rect x="477.7" y="453.6" width="7.5" height="16.4" fill="#008300"/>
<rect x="491.4" y="463.0" width="7.5" height="7.0" fill="none" stroke="#e34948" stroke-width="1.1"/>
<rect x="505.1" y="451.3" width="7.5" height="18.7" fill="none" stroke="#e34948" stroke-width="1.1"/>
<rect x="518.7" y="446.6" width="7.5" height="23.4" fill="#898781"/>
<rect x="532.4" y="441.9" width="7.5" height="28.1" fill="#008300"/>
<rect x="546.1" y="446.6" width="7.5" height="23.4" fill="#008300"/>
<rect x="559.7" y="455.9" width="7.5" height="14.1" fill="#008300"/>
<rect x="573.4" y="458.3" width="7.5" height="11.7" fill="#008300"/>
<rect x="587.1" y="437.2" width="7.5" height="32.8" fill="#008300"/>
<rect x="600.7" y="453.6" width="7.5" height="16.4" fill="none" stroke="#e34948" stroke-width="1.1"/>
<rect x="614.4" y="455.9" width="7.5" height="14.1" fill="none" stroke="#e34948" stroke-width="1.1"/>
<rect x="628.1" y="448.9" width="7.5" height="21.1" fill="#008300"/>
<rect x="641.7" y="451.3" width="7.5" height="18.7" fill="none" stroke="#e34948" stroke-width="1.1"/>
<rect x="655.4" y="434.9" width="7.5" height="35.1" fill="#008300"/>
<rect x="669.1" y="458.3" width="7.5" height="11.7" fill="none" stroke="#e34948" stroke-width="1.1"/>
<rect x="682.7" y="453.6" width="7.5" height="16.4" fill="#008300"/>
<rect x="696.4" y="448.9" width="7.5" height="21.1" fill="none" stroke="#e34948" stroke-width="1.1"/>
<rect x="710.1" y="388.0" width="7.5" height="82.0" fill="none" stroke="#e34948" stroke-width="1.1"/>
<rect x="723.7" y="423.1" width="7.5" height="46.9" fill="#008300"/>
<rect x="737.4" y="432.5" width="7.5" height="37.5" fill="#008300"/>
<rect x="751.1" y="409.1" width="7.5" height="60.9" fill="none" stroke="#e34948" stroke-width="1.1"/>
<rect x="764.7" y="406.7" width="7.5" height="63.3" fill="#008300"/>
<rect x="778.4" y="402.1" width="7.5" height="67.9" fill="#008300"/>
<rect x="792.1" y="423.1" width="7.5" height="46.9" fill="#008300"/>
<rect x="805.7" y="453.6" width="7.5" height="16.4" fill="#008300"/>
<rect x="819.4" y="455.9" width="7.5" height="14.1" fill="none" stroke="#e34948" stroke-width="1.1"/>
<polyline points="16.8,454.3 30.5,453.4 44.2,451.7 57.8,450.3 71.5,449.9 85.2,448.9 98.8,448.4 112.5,448.4 126.2,447.5 139.8,444.0 153.5,443.8 167.2,445.4 180.8,447.5 194.5,448.9 208.2,449.9 221.8,452.2 235.5,451.3 249.2,450.8 262.8,451.5 276.5,455.2 290.2,456.4 303.8,455.9 317.5,454.3 331.2,452.4 344.8,451.7 358.5,450.6 372.2,451.0 385.8,451.0 399.5,452.4 413.2,450.8 426.8,449.4 440.5,448.0 454.2,448.0 467.8,448.2 481.5,448.2 495.2,449.1 508.8,449.4 522.5,449.6 536.2,447.5 549.8,448.0 563.5,448.7 577.2,450.6 590.8,449.9 604.5,450.8 618.2,451.0 631.8,449.6 645.5,449.6 659.2,448.4 672.8,450.1 686.5,450.8 700.2,450.1 713.8,443.1 727.5,441.7 741.2,439.5 754.8,434.9 768.5,430.6 782.2,425.7 795.8,424.5 809.5,424.1 823.2,424.3" fill="none" stroke="#2a78d6" stroke-width="1.5" stroke-linejoin="round" stroke-linecap="round"/>
<polyline points="16.8,453.6 30.5,450.3 44.2,448.4 57.8,447.5 71.5,446.6 85.2,444.2 98.8,446.6 112.5,448.4 126.2,447.5 139.8,441.4 153.5,443.3 167.2,444.2 180.8,446.6 194.5,450.3 208.2,458.3 221.8,461.1 235.5,458.3 249.2,455.0 262.8,452.7 276.5,452.2 290.2,451.7 303.8,453.6 317.5,453.6 331.2,452.2 344.8,451.3 358.5,449.4 372.2,448.4 385.8,448.4 399.5,452.7 413.2,450.3 426.8,449.4 440.5,447.5 454.2,447.5 467.8,443.8 481.5,446.1 495.2,448.9 508.8,451.3 522.5,451.7 536.2,451.3 549.8,449.9 563.5,448.4 577.2,449.9 590.8,448.0 604.5,450.3 618.2,452.2 631.8,450.8 645.5,449.4 659.2,448.9 672.8,449.9 686.5,449.4 700.2,449.4 713.8,436.7 727.5,434.4 741.2,429.2 754.8,420.3 768.5,411.9 782.2,414.7 795.8,414.7 809.5,418.9 823.2,428.3" fill="none" stroke="#eda100" stroke-width="1.5" stroke-linejoin="round" stroke-linecap="round"/>
</svg>