<svg xmlns="http://www.w3.org/2000/svg" viewBox="0 0 840 496" width="840" height="496" font-family="-apple-system,&#39;Segoe UI&#39;,system-ui,sans-serif" role="img" aria-label="react/react candlestick chart">
<text x="14.0" y="20.0" font-size="15" fill="#0b0b0b" font-weight="650">react/react</text>
<text x="108.8" y="20.0" font-size="11.5" fill="#52514e">daily · new stars, volume = new forks</text>
<text x="805.8" y="20.0" font-size="11.0" fill="#52514e">fall</text>
<rect x="791" y="10" width="9" height="12" fill="#008300"/>
<text x="750.6" y="20.0" font-size="11.0" fill="#52514e">rise</text>
<rect x="736" y="10" width="9" height="12" fill="none" stroke="#e34948" stroke-width="1.5"/>
<text x="14.0" y="38.0" font-size="11.0" fill="#898781">last 60 days · +2,081 stars · +623 forks · updated 2026-07-14</text>
<rect x="10" y="66" width="820" height="290" fill="none" stroke="#e1e0d9"/>
<rect x="10" y="384" width="820" height="86" fill="none" stroke="#e1e0d9"/>
<text x="38.0" y="490.0" font-size="11.0" fill="#898781" text-anchor="middle">2026-05</text>
<line x1="242.3" y1="66.0" x2="242.3" y2="356.0" stroke="#e1e0d9" stroke-width="1.0"/>
<line x1="242.3" y1="384.0" x2="242.3" y2="470.0" stroke="#e1e0d9" stroke-width="1.0"/>
<text x="249.2" y="490.0" font-size="11.0" fill="#898781" text-anchor="middle">2026-06</text>
<line x1="652.3" y1="66.0" x2="652.3" y2="356.0" stroke="#e1e0d9" stroke-width="1.0"/>
<line x1="652.3" y1="384.0" x2="652.3" y2="470.0" stroke="#e1e0d9" stroke-width="1.0"/>
<text x="659.2" y="490.0" font-size="11.0" fill="#898781" text-anchor="middle">2026-07</text>
<text x="14.0" y="58.0" font-size="11.0" fill="#52514e">BOLL(20,2)</text>
<text x="84.5" y="58.0" font-size="11.0" fill="#eda100">UP:61.2</text>
<text x="136.9" y="58.0" font-size="11.0" fill="#2a78d6">MID:35.4</text>
<text x="195.3" y="58.0" font-size="11.0" fill="#e87ba4">LOW:9.6</text>
<text x="247.6" y="58.0" font-size="11.0" fill="#4a3aa7">MA7:28</text>
<line x1="10.0" y1="356.0" x2="830.0" y2="356.0" stroke="#e1e0d9" stroke-width="1.0"/>
<text x="14.0" y="353.0" font-size="11.0" fill="#898781">0</text>
<line x1="10.0" y1="275.9" x2="830.0" y2="275.9" stroke="#e1e0d9" stroke-width="1.0"/>
<text x="14.0" y="272.9" font-size="11.0" fill="#898781">20</text>
<line x1="10.0" y1="195.9" x2="830.0" y2="195.9" stroke="#e1e0d9" stroke-width="1.0"/>
<text x="14.0" y="192.9" font-size="11.0" fill="#898781">40</text>
<line x1="10.0" y1="115.8" x2="830.0" y2="115.8" stroke="#e1e0d9" stroke-width="1.0"/>
<text x="14.0" y="112.8" font-size="11.0" fill="#898781">60</text>
<polyline points="16.8,177.2 30.5,185.7 44.2,185.7 57.8,186.7 71.5,185.6 85.2,185.7 98.8,183.2 112.5,182.0 126.2,182.2 139.8,183.5 153.5,178.0 167.2,178.6 180.8,187.7 194.5,188.1 208.2,183.6 221.8,186.3 235.5,186.0 249.2,186.0 262.8,184.7 276.5,184.2 290.2,175.6 303.8,137.2 317.5,137.2 331.2,137.3 344.8,138.8 358.5,121.0 372.2,112.0 385.8,110.8 399.5,106.9 413.2,106.9 426.8,109.8 440.5,109.3 454.2,109.3 467.8,110.2 481.5,113.6 495.2,113.1 508.8,111.5 522.5,109.2 536.2,108.6 549.8,102.5 563.5,104.5 577.2,110.2 590.8,110.2 604.5,108.0 618.2,107.9 631.8,121.3 645.5,127.5 659.2,128.6 672.8,133.2 686.5,123.0 700.2,122.0 713.8,122.3 727.5,121.8 741.2,116.4 754.8,115.6 768.5,114.0 782.2,115.4 795.8,116.8 809.5,117.0 823.2,111.1" fill="none" stroke="#eda100" stroke-width="1.5" stroke-linejoin="round" stroke-linecap="round"/>
<polyline points="16.8,231.5 30.5,234.7 44.2,234.7 57.8,235.3 71.5,234.9 85.2,234.5 98.8,233.3 112.5,231.1 126.2,231.9 139.8,230.5 153.5,225.9 167.2,224.5 180.8,228.7 194.5,228.5 208.2,231.5 221.8,233.5 235.5,233.1 249.2,233.1 262.8,231.1 276.5,230.9 290.2,228.7 303.8,220.5 317.5,220.5 331.2,221.3 344.8,222.9 358.5,216.3 372.2,212.9 385.8,211.9 399.5,208.1 413.2,208.3 426.8,210.7 440.5,209.9 454.2,207.7 467.8,206.1 481.5,204.1 495.2,204.5 508.8,206.3 522.5,209.9 536.2,209.3 549.8,206.3 563.5,207.3 577.2,208.3 590.8,209.1 604.5,205.9 618.2,204.7 631.8,209.1 645.5,210.9 659.2,211.7 672.8,214.5 686.5,209.3 700.2,207.9 713.8,208.5 727.5,210.9 741.2,214.9 754.8,212.9 768.5,209.7 782.2,207.7 795.8,202.7 809.5,204.7 823.2,214.3" fill="none" stroke="#2a78d6" stroke-width="1.5" stroke-linejoin="round" stroke-linecap="round"/>
<polyline points="16.8,285.8 30.5,283.8 44.2,283.8 57.8,283.9 71.5,284.3 85.2,283.3 98.8,283.5 112.5,280.2 126.2,281.6 139.8,277.5 153.5,273.8 167.2,270.5 180.8,269.7 194.5,268.9 208.2,279.5 221.8,280.7 235.5,280.2 249.2,280.2 262.8,277.5 276.5,277.7 290.2,281.8 303.8,303.8 317.5,303.8 331.2,305.3 344.8,307.0 358.5,311.6 372.2,313.8 385.8,313.1 399.5,309.3 413.2,309.7 426.8,311.6 440.5,310.5 454.2,306.1 467.8,302.0 481.5,294.6 495.2,295.9 508.8,301.1 522.5,310.6 536.2,310.0 549.8,310.0 563.5,310.1 577.2,306.4 590.8,308.0 604.5,303.8 618.2,301.4 631.8,296.9 645.5,294.3 659.2,294.8 672.8,295.8 686.5,295.6 700.2,293.8 713.8,294.7 727.5,300.0 741.2,313.4 754.8,310.2 768.5,305.4 782.2,300.0 795.8,288.6 809.5,292.4 823.2,317.5" fill="none" stroke="#e87ba4" stroke-width="1.5" stroke-linejoin="round" stroke-linecap="round"/>
<polyline points="16.8,225.1 30.5,227.5 44.2,230.3 57.8,229.1 71.5,228.3 85.2,227.5 98.8,226.3 112.5,226.3 126.2,226.7 139.8,228.3 153.5,221.1 167.2,223.9 180.8,225.1 194.5,232.3 208.2,242.7 221.8,242.7 235.5,241.5 249.2,246.3 262.8,244.3 276.5,238.3 290.2,225.5 303.8,195.9 317.5,193.1 331.2,195.5 344.8,199.5 358.5,185.1 372.2,174.7 385.8,178.3 399.5,191.5 413.2,193.5 426.8,190.7 440.5,186.7 454.2,200.3 467.8,213.1 481.5,220.3 495.2,232.3 508.8,235.9 522.5,243.9 536.2,242.7 549.8,234.3 563.5,229.1 577.2,207.9 590.8,206.3 604.5,194.3 618.2,184.3 631.8,184.3 645.5,187.9 659.2,190.7 672.8,209.1 686.5,194.3 700.2,196.3 713.8,197.5 727.5,205.5 741.2,224.3 754.8,223.9 768.5,218.7 782.2,231.5 795.8,229.1 809.5,231.9 823.2,243.9" fill="none" stroke="#4a3aa7" stroke-width="1.5" stroke-linejoin="round" stroke-linecap="round"/>
<rect x="13.1" y="215.9" width="7.5" height="1.2" fill="#898781"/>
<rect x="26.7" y="215.9" width="7.5" height="28.0" fill="#008300"/>
<rect x="40.4" y="227.9" width="7.5" height="16.0" fill="none" stroke="#e34948" stroke-width="1.3"/>
<rect x="54.1" y="227.9" width="7.5" height="4.0" fill="#008300"/>
<rect x="67.7" y="207.9" width="7.5" height="24.0" fill="none" stroke="#e34948" stroke-width="1.3"/>
<rect x="81.4" y="207.9" width="7.5" height="40.0" fill="#008300"/>
<rect x="95.1" y="207.9" width="7.5" height="40.0" fill="none" stroke="#e34948" stroke-width="1.3"/>
<rect x="108.7" y="207.9" width="7.5" height="8.0" fill="#008300"/>
<rect x="122.4" y="215.9" width="7.5" height="32.0" fill="#008300"/>
<rect x="136.1" y="239.9" width="7.5" height="8.0" fill="none" stroke="#e34948" stroke-width="1.3"/>
<rect x="149.7" y="179.9" width="7.5" height="60.0" fill="none" stroke="#e34948" stroke-width="1.3"/>
<rect x="163.4" y="179.9" width="7.5" height="48.0" fill="#008300"/>
<rect x="177.1" y="227.9" width="7.5" height="28.0" fill="#008300"/>
<rect x="190.7" y="255.9" width="7.5" height="4.0" fill="#008300"/>
<rect x="204.4" y="259.9" width="7.5" height="28.0" fill="#008300"/>
<rect x="218.1" y="247.9" width="7.5" height="40.0" fill="none" stroke="#e34948" stroke-width="1.3"/>
<rect x="231.7" y="231.9" width="7.5" height="16.0" fill="none" stroke="#e34948" stroke-width="1.3"/>
<rect x="245.4" y="211.9" width="7.5" height="20.0" fill="none" stroke="#e34948" stroke-width="1.3"/>
<rect x="259.1" y="211.9" width="7.5" height="4.0" fill="#008300"/>
<rect x="272.7" y="211.9" width="7.5" height="4.0" fill="none" stroke="#e34948" stroke-width="1.3"/>
<rect x="286.4" y="171.9" width="7.5" height="40.0" fill="none" stroke="#e34948" stroke-width="1.3"/>
<rect x="300.1" y="79.8" width="7.5" height="92.1" fill="none" stroke="#e34948" stroke-width="1.3"/>
<rect x="313.7" y="79.8" width="7.5" height="148.1" fill="#008300"/>
<rect x="327.4" y="227.9" width="7.5" height="20.0" fill="#008300"/>
<rect x="341.1" y="239.9" width="7.5" height="8.0" fill="none" stroke="#e34948" stroke-width="1.3"/>
<rect x="354.7" y="115.8" width="7.5" height="124.1" fill="none" stroke="#e34948" stroke-width="1.3"/>
<rect x="368.4" y="115.8" width="7.5" height="24.0" fill="#008300"/>
<rect x="382.1" y="139.9" width="7.5" height="56.0" fill="#008300"/>
<rect x="395.7" y="171.9" width="7.5" height="24.0" fill="none" stroke="#e34948" stroke-width="1.3"/>
<rect x="409.4" y="171.9" width="7.5" height="72.0" fill="#008300"/>
<rect x="423.1" y="227.9" width="7.5" height="16.0" fill="none" stroke="#e34948" stroke-width="1.3"/>
<rect x="436.7" y="211.9" width="7.5" height="16.0" fill="none" stroke="#e34948" stroke-width="1.3"/>
<rect x="450.4" y="211.9" width="7.5" height="1.2" fill="#898781"/>
<rect x="464.1" y="211.9" width="7.5" height="16.0" fill="#008300"/>
<rect x="477.7" y="227.9" width="7.5" height="20.0" fill="#008300"/>
<rect x="491.4" y="247.9" width="7.5" height="8.0" fill="#008300"/>
<rect x="505.1" y="255.9" width="7.5" height="12.0" fill="#008300"/>
<rect x="518.7" y="267.9" width="7.5" height="16.0" fill="#008300"/>
<rect x="532.4" y="203.9" width="7.5" height="80.1" fill="none" stroke="#e34948" stroke-width="1.3"/>
<rect x="546.1" y="151.9" width="7.5" height="52.0" fill="none" stroke="#e34948" stroke-width="1.3"/>
<rect x="559.7" y="151.9" width="7.5" height="40.0" fill="#008300"/>
<rect x="573.4" y="99.8" width="7.5" height="92.1" fill="none" stroke="#e34948" stroke-width="1.3"/>
<rect x="587.1" y="99.8" width="7.5" height="144.1" fill="#008300"/>
<rect x="600.7" y="183.9" width="7.5" height="60.0" fill="none" stroke="#e34948" stroke-width="1.3"/>
<rect x="614.4" y="183.9" width="7.5" height="32.0" fill="#008300"/>
<rect x="628.1" y="203.9" width="7.5" height="12.0" fill="none" stroke="#e34948" stroke-width="1.3"/>
<rect x="641.7" y="175.9" width="7.5" height="28.0" fill="none" stroke="#e34948" stroke-width="1.3"/>
<rect x="655.4" y="175.9" width="7.5" height="36.0" fill="#008300"/>
<rect x="669.1" y="211.9" width="7.5" height="16.0" fill="#008300"/>
<rect x="682.7" y="139.9" width="7.5" height="88.1" fill="none" stroke="#e34948" stroke-width="1.3"/>
<rect x="696.4" y="139.9" width="7.5" height="60.0" fill="#008300"/>
<rect x="710.1" y="199.9" width="7.5" height="24.0" fill="#008300"/>
<rect x="723.7" y="223.9" width="7.5" height="36.0" fill="#008300"/>
<rect x="737.4" y="259.9" width="7.5" height="48.0" fill="#008300"/>
<rect x="751.1" y="207.9" width="7.5" height="148.1" fill="none" stroke="#e34948" stroke-width="1.3"/>
<rect x="764.7" y="191.9" width="7.5" height="16.0" fill="none" stroke="#e34948" stroke-width="1.3"/>
<rect x="778.4" y="191.9" width="7.5" height="36.0" fill="#008300"/>
<rect x="792.1" y="183.9" width="7.5" height="44.0" fill="none" stroke="#e34948" stroke-width="1.3"/>
<rect x="805.7" y="183.9" width="7.5" height="60.0" fill="#008300"/>
<rect x="819.4" y="243.9" width="7.5" height="100.1" fill="#008300"/>
<circle cx="303.8" cy="79.8" r="2" fill="#52514e"/>
<line x1="303.8" y1="79.8" x2="311.8" y2="79.8" stroke="#52514e" stroke-width="1.0"/>
<text x="314.8" y="83.8" font-size="11.0" fill="#52514e">69</text>
<circle cx="754.8" cy="356.0" r="2" fill="#52514e"/>
<line x1="754.8" y1="356.0" x2="746.8" y2="356.0" stroke="#52514e" stroke-width="1.0"/>
<text x="743.8" y="350.0" font-size="11.0" fill="#52514e" text-anchor="end">0</text>
<text x="14.0" y="376.0" font-size="11.0" fill="#52514e">VOL 2 forks</text>
<text x="90.6" y="376.0" font-size="11.0" fill="#eda100">MA5:9.2</text>
<text x="142.9" y="376.0" font-size="11.0" fill="#2a78d6">MA10:13.5</text>
<text x="14.0" y="395.0" font-size="10" fill="#898781">35</text>
<rect x="13.1" y="441.9" width="7.5" height="28.1" fill="#898781"/>
<rect x="26.7" y="453.6" width="7.5" height="16.4" fill="#008300"/>
<rect x="40.4" y="448.9" width="7.5" height="21.1" fill="none" stroke="#e34948" stroke-width="1.1"/>
<rect x="54.1" y="441.9" width="7.5" height="28.1" fill="#008300"/>
<rect x="67.7" y="420.8" width="7.5" height="49.2" fill="none" stroke="#e34948" stroke-width="1.1"/>
<rect x="81.4" y="451.3" width="7.5" height="18.7" fill="#008300"/>
<rect x="95.1" y="458.3" width="7.5" height="11.7" fill="none" stroke="#e34948" stroke-width="1.1"/>
<rect x="108.7" y="460.6" width="7.5" height="9.4" fill="#008300"/>
<rect x="122.4" y="460.6" width="7.5" height="9.4" fill="#008300"/>
<rect x="136.1" y="460.6" width="7.5" height="9.4" fill="none" stroke="#e34948" stroke-width="1.1"/>
<rect x="149.7" y="465.3" width="7.5" height="4.7" fill="none" stroke="#e34948" stroke-width="1.1"/>
<rect x="163.4" y="444.2" width="7.5" height="25.8" fill="#008300"/>
<rect x="177.1" y="444.2" width="7.5" height="25.8" fill="#008300"/>
<rect x="190.7" y="448.9" width="7.5" height="21.1" fill="#008300"/>
<rect x="204.4" y="458.3" width="7.5" height="11.7" fill="#008300"/>
<rect x="218.1" y="463.0" width="7.5" height="7.0" fill="none" stroke="#e34948" stroke-width="1.1"/>
<rect x="231.7" y="453.6" width="7.5" height="16.4" fill="none" stroke="#e34948" stroke-width="1.1"/>
<rect x="245.4" y="444.2" width="7.5" height="25.8" fill="none" stroke="#e34948" stroke-width="1.1"/>
<rect x="259.1" y="441.9" width="7.5" height="28.1" fill="#008300"/>
<rect x="272.7" y="453.6" width="7.5" height="16.4" fill="none" stroke="#e34948" stroke-width="1.1"/>
<rect x="286.4" y="453.6" width="7.5" height="16.4" fill="none" stroke="#e34948" stroke-width="1.1"/>
<rect x="300.1" y="448.9" width="7.5" height="21.1" fill="none" stroke="#e34948" stroke-width="1.1"/>
<rect x="313.7" y="444.2" width="7.5" height="25.8" fill="#008300"/>
<rect x="327.4" y="463.0" width="7.5" height="7.0" fill="#008300"/>
<rect x="341.1" y="441.9" width="7.5" height="28.1" fill="none" stroke="#e34948" stroke-width="1.1"/>
<rect x="354.7" y="448.9" width="7.5" height="21.1" fill="none" stroke="#e34948" stroke-width="1.1"/>
<rect x="368.4" y="439.5" width="7.5" height="30.5" fill="#008300"/>
<rect x="382.1" y="444.2" width="7.5" height="25.8" fill="#008300"/>
<rect x="395.7" y="444.2" width="7.5" height="25.8" fill="none" stroke="#e34948" stroke-width="1.1"/>
<rect x="409.4" y="453.6" width="7.5" height="16.4" fill="#008300"/>
<rect x="423.1" y="463.0" width="7.5" height="7.0" fill="none" stroke="#e34948" stroke-width="1.1"/>
<rect x="436.7" y="451.3" width="7.5" height="18.7" fill="none" stroke="#e34948" stroke-width="1.1"/>
<rect x="450.4" y="446.6" width="7.5" height="23.4" fill="#898781"/>
<rect x="464.1" y="441.9" width="7.5" height="28.1" fill="#008300"/>
<rect x="477.7" y="446.6" width="7.5" height="23.4" fill="#008300"/>
<rect x="491.4" y="455.9" width="7.5" height="14.1" fill="#008300"/>
<rect x="505.1" y="458.3" width="7.5" height="11.7" fill="#008300"/>
<rect x="518.7" y="437.2" width="7.5" height="32.8" fill="#008300"/>
<rect x="532.4" y="453.6" width="7.5" height="16.4" fill="none" stroke="#e34948" stroke-width="1.1"/>
<rect x="546.1" y="455.9" width="7.5" height="14.1" fill="none" stroke="#e34948" stroke-width="1.1"/>
<rect x="559.7" y="448.9" width="7.5" height="21.1" fill="#008300"/>
<rect x="573.4" y="451.3" width="7.5" height="18.7" fill="none" stroke="#e34948" stroke-width="1.1"/>
<rect x="587.1" y="434.9" width="7.5" height="35.1" fill="#008300"/>
<rect x="600.7" y="458.3" width="7.5" height="11.7" fill="none" stroke="#e34948" stroke-width="1.1"/>
<rect x="614.4" y="453.6" width="7.5" height="16.4" fill="#008300"/>
<rect x="628.1" y="448.9" width="7.5" height="21.1" fill="none" stroke="#e34948" stroke-width="1.1"/>
<rect x="641.7" y="388.0" width="7.5" height="82.0" fill="none" stroke="#e34948" stroke-width="1.1"/>
<rect x="655.4" y="423.1" width="7.5" height="46.9" fill="#008300"/>
<rect x="669.1" y="432.5" width="7.5" height="37.5" fill="#008300"/>
<rect x="682.7" y="409.1" width="7.5" height="60.9" fill="none" stroke="#e34948" stroke-width="1.1"/>
<rect x="696.4" y="406.7" width="7.5" height="63.3" fill="#008300"/>
<rect x="710.1" y="402.1" width="7.5" height="67.9" fill="#008300"/>
<rect x="723.7" y="423.1" width="7.5" height="46.9" fill="#008300"/>
<rect x="737.4" y="453.6" width="7.5" height="16.4" fill="#008300"/>
<rect x="751.1" y="455.9" width="7.5" height="14.1" fill="none" stroke="#e34948" stroke-width="1.1"/>
<rect x="764.7" y="453.6" width="7.5" height="16.4" fill="none" stroke="#e34948" stroke-width="1.1"/>
<rect x="778.4" y="434.9" width="7.5" height="35.1" fill="#008300"/>
<rect x="792.1" y="444.2" width="7.5" height="25.8" fill="none" stroke="#e34948" stroke-width="1.1"/>
<rect x="805.7" y="444.2" width="7.5" height="25.8" fill="#008300"/>
<rect x="819.4" y="465.3" width="7.5" height="4.7" fill="#008300"/>
<polyline points="16.8,448.9 30.5,448.4 44.2,448.4 57.8,447.5 71.5,444.0 85.2,443.8 98.8,445.4 112.5,447.5 126.2,448.9 139.8,449.9 153.5,452.2 167.2,451.3 180.8,450.8 194.5,451.5 208.2,455.2 221.8,456.4 235.5,455.9 249.2,454.3 262.8,452.4 276.5,451.7 290.2,450.6 303.8,451.0 317.5,451.0 331.2,452.4 344.8,450.8 358.5,449.4 372.2,448.0 385.8,448.0 399.5,448.2 413.2,448.2 426.8,449.1 440.5,449.4 454.2,449.6 467.8,447.5 481.5,448.0 495.2,448.7 508.8,450.6 522.5,449.9 536.2,450.8 549.8,451.0 563.5,449.6 577.2,449.6 590.8,448.4 604.5,450.1 618.2,450.8 631.8,450.1 645.5,443.1 659.2,441.7 672.8,439.5 686.5,434.9 700.2,430.6 713.8,425.7 727.5,424.5 741.2,424.1 754.8,424.3 768.5,424.8 782.2,429.5 795.8,431.6 809.5,432.7 823.2,438.4" fill="none" stroke="#2a78d6" stroke-width="1.5" stroke-linejoin="round" stroke-linecap="round"/>
<polyline points="16.8,444.2 30.5,446.6 44.2,448.4 57.8,447.5 71.5,441.4 85.2,443.3 98.8,444.2 112.5,446.6 126.2,450.3 139.8,458.3 153.5,461.1 167.2,458.3 180.8,455.0 194.5,452.7 208.2,452.2 221.8,451.7 235.5,453.6 249.2,453.6 262.8,452.2 276.5,451.3 290.2,449.4 303.8,448.4 317.5,448.4 331.2,452.7 344.8,450.3 358.5,449.4 372.2,447.5 385.8,447.5 399.5,443.8 413.2,446.1 426.8,448.9 440.5,451.3 454.2,451.7 467.8,451.3 481.5,449.9 495.2,448.4 508.8,449.9 522.5,448.0 536.2,450.3 549.8,452.2 563.5,450.8 577.2,449.4 590.8,448.9 604.5,449.9 618.2,449.4 631.8,449.4 645.5,436.7 659.2,434.4 672.8,429.2 686.5,420.3 700.2,411.9 713.8,414.7 727.5,414.7 741.2,418.9 754.8,428.3 768.5,437.7 782.2,444.2 795.8,448.4 809.5,446.6 823.2,448.4" fill="none" stroke="#eda100" stroke-width="1.5" stroke-linejoin="round" stroke-linecap="round"/>
</svg>