<svg xmlns="http://www.w3.org/2000/svg" viewBox="0 0 840 496" width="840" height="496" font-family="-apple-system,&#39;Segoe UI&#39;,system-ui,sans-serif" role="img" aria-label="react/react candlestick chart">
<text x="14.0" y="20.0" font-size="15" fill="#0b0b0b" font-weight="650">react/react</text>
<text x="108.8" y="20.0" font-size="11.5" fill="#52514e">daily · new stars, volume = new forks</text>
<text x="805.8" y="20.0" font-size="11.0" fill="#52514e">fall</text>
<rect x="791" y="10" width="9" height="12" fill="#008300"/>
<text x="750.6" y="20.0" font-size="11.0" fill="#52514e">rise</text>
<rect x="736" y="10" width="9" height="12" fill="none" stroke="#e34948" stroke-width="1.5"/>
<text x="14.0" y="38.0" font-size="11.0" fill="#898781">last 60 days · +2,061 stars · +611 forks · updated 2026-07-22</text>
<rect x="10" y="66" width="820" height="290" fill="none" stroke="#e1e0d9"/>
<rect x="10" y="384" width="820" height="86" fill="none" stroke="#e1e0d9"/>
<text x="38.0" y="490.0" font-size="11.0" fill="#898781" text-anchor="middle">2026-05</text>
<line x1="146.7" y1="66.0" x2="146.7" y2="356.0" stroke="#e1e0d9" stroke-width="1.0"/>
<line x1="146.7" y1="384.0" x2="146.7" y2="470.0" stroke="#e1e0d9" stroke-width="1.0"/>
<text x="153.5" y="490.0" font-size="11.0" fill="#898781" text-anchor="middle">2026-06</text>
<line x1="556.7" y1="66.0" x2="556.7" y2="356.0" stroke="#e1e0d9" stroke-width="1.0"/>
<line x1="556.7" y1="384.0" x2="556.7" y2="470.0" stroke="#e1e0d9" stroke-width="1.0"/>
<text x="563.5" y="490.0" font-size="11.0" fill="#898781" text-anchor="middle">2026-07</text>
<text x="14.0" y="58.0" font-size="11.0" fill="#52514e">BOLL(20,2)</text>
<text x="84.5" y="58.0" font-size="11.0" fill="#eda100">UP:59.9</text>
<text x="136.9" y="58.0" font-size="11.0" fill="#2a78d6">MID:31.1</text>
<text x="195.3" y="58.0" font-size="11.0" fill="#e87ba4">LOW:2.2</text>
<text x="247.6" y="58.0" font-size="11.0" fill="#4a3aa7">MA7:29.6</text>
<line x1="10.0" y1="356.0" x2="830.0" y2="356.0" stroke="#e1e0d9" stroke-width="1.0"/>
<text x="14.0" y="353.0" font-size="11.0" fill="#898781">0</text>
<line x1="10.0" y1="275.9" x2="830.0" y2="275.9" stroke="#e1e0d9" stroke-width="1.0"/>
<text x="14.0" y="272.9" font-size="11.0" fill="#898781">20</text>
<line x1="10.0" y1="195.9" x2="830.0" y2="195.9" stroke="#e1e0d9" stroke-width="1.0"/>
<text x="14.0" y="192.9" font-size="11.0" fill="#898781">40</text>
<line x1="10.0" y1="115.8" x2="830.0" y2="115.8" stroke="#e1e0d9" stroke-width="1.0"/>
<text x="14.0" y="112.8" font-size="11.0" fill="#898781">60</text>
<polyline points="16.8,182.0 30.5,182.2 44.2,183.5 57.8,178.0 71.5,178.6 85.2,187.7 98.8,188.1 112.5,183.6 126.2,186.3 139.8,186.0 153.5,186.0 167.2,184.7 180.8,184.2 194.5,175.6 208.2,137.2 221.8,137.2 235.5,137.3 249.2,138.8 262.8,121.0 276.5,112.0 290.2,110.8 303.8,106.9 317.5,106.9 331.2,109.8 344.8,109.3 358.5,109.3 372.2,110.2 385.8,113.6 399.5,113.1 413.2,111.5 426.8,109.2 440.5,108.6 454.2,102.5 467.8,104.5 481.5,110.2 495.2,110.2 508.8,108.0 522.5,107.9 536.2,121.3 549.8,127.5 563.5,128.6 577.2,133.2 590.8,123.0 604.5,122.0 618.2,122.3 631.8,121.8 645.5,116.4 659.2,115.6 672.8,114.0 686.5,115.4 700.2,116.8 713.8,117.0 727.5,111.1 741.2,112.6 754.8,128.4 768.5,114.1 782.2,115.2 795.8,116.3 809.5,119.0 823.2,116.4" fill="none" stroke="#eda100" stroke-width="1.5" stroke-linejoin="round" stroke-linecap="round"/>
<polyline points="16.8,231.1 30.5,231.9 44.2,230.5 57.8,225.9 71.5,224.5 85.2,228.7 98.8,228.5 112.5,231.5 126.2,233.5 139.8,233.1 153.5,233.1 167.2,231.1 180.8,230.9 194.5,228.7 208.2,220.5 221.8,220.5 235.5,221.3 249.2,222.9 262.8,216.3 276.5,212.9 290.2,211.9 303.8,208.1 317.5,208.3 331.2,210.7 344.8,209.9 358.5,207.7 372.2,206.1 385.8,204.1 399.5,204.5 413.2,206.3 426.8,209.9 440.5,209.3 454.2,206.3 467.8,207.3 481.5,208.3 495.2,209.1 508.8,205.9 522.5,204.7 536.2,209.1 549.8,210.9 563.5,211.7 577.2,214.5 590.8,209.3 604.5,207.9 618.2,208.5 631.8,210.9 645.5,214.9 659.2,212.9 672.8,209.7 686.5,207.7 700.2,202.7 713.8,204.7 727.5,214.3 741.2,215.3 754.8,226.3 768.5,220.5 782.2,226.7 795.8,229.7 809.5,232.5 823.2,231.7" fill="none" stroke="#2a78d6" stroke-width="1.5" stroke-linejoin="round" stroke-linecap="round"/>
<polyline points="16.8,280.2 30.5,281.6 44.2,277.5 57.8,273.8 71.5,270.5 85.2,269.7 98.8,268.9 112.5,279.5 126.2,280.7 139.8,280.2 153.5,280.2 167.2,277.5 180.8,277.7 194.5,281.8 208.2,303.8 221.8,303.8 235.5,305.3 249.2,307.0 262.8,311.6 276.5,313.8 290.2,313.1 303.8,309.3 317.5,309.7 331.2,311.6 344.8,310.5 358.5,306.1 372.2,302.0 385.8,294.6 399.5,295.9 413.2,301.1 426.8,310.6 440.5,310.0 454.2,310.0 467.8,310.1 481.5,306.4 495.2,308.0 508.8,303.8 522.5,301.4 536.2,296.9 549.8,294.3 563.5,294.8 577.2,295.8 590.8,295.6 604.5,293.8 618.2,294.7 631.8,300.0 645.5,313.4 659.2,310.2 672.8,305.4 686.5,300.0 700.2,288.6 713.8,292.4 727.5,317.5 741.2,318.0 754.8,324.2 768.5,326.9 782.2,338.2 795.8,343.1 809.5,346.0 823.2,347.0" fill="none" stroke="#e87ba4" stroke-width="1.5" stroke-linejoin="round" stroke-linecap="round"/>
<polyline points="16.8,226.3 30.5,226.7 44.2,228.3 57.8,221.1 71.5,223.9 85.2,225.1 98.8,232.3 112.5,242.7 126.2,242.7 139.8,241.5 153.5,246.3 167.2,244.3 180.8,238.3 194.5,225.5 208.2,195.9 221.8,193.1 235.5,195.5 249.2,199.5 262.8,185.1 276.5,174.7 290.2,178.3 303.8,191.5 317.5,193.5 331.2,190.7 344.8,186.7 358.5,200.3 372.2,213.1 385.8,220.3 399.5,232.3 413.2,235.9 426.8,243.9 440.5,242.7 454.2,234.3 467.8,229.1 481.5,207.9 495.2,206.3 508.8,194.3 522.5,184.3 536.2,184.3 549.8,187.9 563.5,190.7 577.2,209.1 590.8,194.3 604.5,196.3 618.2,197.5 631.8,205.5 645.5,224.3 659.2,223.9 672.8,218.7 686.5,231.5 700.2,229.1 713.8,231.9 727.5,243.9 741.2,230.3 754.8,246.3 768.5,237.1 782.2,248.3 795.8,261.5 809.5,263.9 823.2,237.5" fill="none" stroke="#4a3aa7" stroke-width="1.5" stroke-linejoin="round" stroke-linecap="round"/>
<rect x="13.1" y="207.9" width="7.5" height="8.0" fill="#008300"/>
<rect x="26.7" y="215.9" width="7.5" height="32.0" fill="#008300"/>
<rect x="40.4" y="239.9" width="7.5" height="8.0" fill="none" stroke="#e34948" stroke-width="1.3"/>
<rect x="54.1" y="179.9" width="7.5" height="60.0" fill="none" stroke="#e34948" stroke-width="1.3"/>
<rect x="67.7" y="179.9" width="7.5" height="48.0" fill="#008300"/>
<rect x="81.4" y="227.9" width="7.5" height="28.0" fill="#008300"/>
<rect x="95.1" y="255.9" width="7.5" height="4.0" fill="#008300"/>
<rect x="108.7" y="259.9" width="7.5" height="28.0" fill="#008300"/>
<rect x="122.4" y="247.9" width="7.5" height="40.0" fill="none" stroke="#e34948" stroke-width="1.3"/>
<rect x="136.1" y="231.9" width="7.5" height="16.0" fill="none" stroke="#e34948" stroke-width="1.3"/>
<rect x="149.7" y="211.9" width="7.5" height="20.0" fill="none" stroke="#e34948" stroke-width="1.3"/>
<rect x="163.4" y="211.9" width="7.5" height="4.0" fill="#008300"/>
<rect x="177.1" y="211.9" width="7.5" height="4.0" fill="none" stroke="#e34948" stroke-width="1.3"/>
<rect x="190.7" y="171.9" width="7.5" height="40.0" fill="none" stroke="#e34948" stroke-width="1.3"/>
<rect x="204.4" y="79.8" width="7.5" height="92.1" fill="none" stroke="#e34948" stroke-width="1.3"/>
<rect x="218.1" y="79.8" width="7.5" height="148.1" fill="#008300"/>
<rect x="231.7" y="227.9" width="7.5" height="20.0" fill="#008300"/>
<rect x="245.4" y="239.9" width="7.5" height="8.0" fill="none" stroke="#e34948" stroke-width="1.3"/>
<rect x="259.1" y="115.8" width="7.5" height="124.1" fill="none" stroke="#e34948" stroke-width="1.3"/>
<rect x="272.7" y="115.8" width="7.5" height="24.0" fill="#008300"/>
<rect x="286.4" y="139.9" width="7.5" height="56.0" fill="#008300"/>
<rect x="300.1" y="171.9" width="7.5" height="24.0" fill="none" stroke="#e34948" stroke-width="1.3"/>
<rect x="313.7" y="171.9" width="7.5" height="72.0" fill="#008300"/>
<rect x="327.4" y="227.9" width="7.5" height="16.0" fill="none" stroke="#e34948" stroke-width="1.3"/>
<rect x="341.1" y="211.9" width="7.5" height="16.0" fill="none" stroke="#e34948" stroke-width="1.3"/>
<rect x="354.7" y="211.9" width="7.5" height="1.2" fill="#898781"/>
<rect x="368.4" y="211.9" width="7.5" height="16.0" fill="#008300"/>
<rect x="382.1" y="227.9" width="7.5" height="20.0" fill="#008300"/>
<rect x="395.7" y="247.9" width="7.5" height="8.0" fill="#008300"/>
<rect x="409.4" y="255.9" width="7.5" height="12.0" fill="#008300"/>
<rect x="423.1" y="267.9" width="7.5" height="16.0" fill="#008300"/>
<rect x="436.7" y="203.9" width="7.5" height="80.1" fill="none" stroke="#e34948" stroke-width="1.3"/>
<rect x="450.4" y="151.9" width="7.5" height="52.0" fill="none" stroke="#e34948" stroke-width="1.3"/>
<rect x="464.1" y="151.9" width="7.5" height="40.0" fill="#008300"/>
<rect x="477.7" y="99.8" width="7.5" height="92.1" fill="none" stroke="#e34948" stroke-width="1.3"/>
<rect x="491.4" y="99.8" width="7.5" height="144.1" fill="#008300"/>
<rect x="505.1" y="183.9" width="7.5" height="60.0" fill="none" stroke="#e34948" stroke-width="1.3"/>
<rect x="518.7" y="183.9" width="7.5" height="32.0" fill="#008300"/>
<rect x="532.4" y="203.9" width="7.5" height="12.0" fill="none" stroke="#e34948" stroke-width="1.3"/>
<rect x="546.1" y="175.9" width="7.5" height="28.0" fill="none" stroke="#e34948" stroke-width="1.3"/>
<rect x="559.7" y="175.9" width="7.5" height="36.0" fill="#008300"/>
<rect x="573.4" y="211.9" width="7.5" height="16.0" fill="#008300"/>
<rect x="587.1" y="139.9" width="7.5" height="88.1" fill="none" stroke="#e34948" stroke-width="1.3"/>
<rect x="600.7" y="139.9" width="7.5" height="60.0" fill="#008300"/>
<rect x="614.4" y="199.9" width="7.5" height="24.0" fill="#008300"/>
<rect x="628.1" y="223.9" width="7.5" height="36.0" fill="#008300"/>
<rect x="641.7" y="259.9" width="7.5" height="48.0" fill="#008300"/>
<rect x="655.4" y="207.9" width="7.5" height="148.1" fill="none" stroke="#e34948" stroke-width="1.3"/>
<rect x="669.1" y="191.9" width="7.5" height="16.0" fill="none" stroke="#e34948" stroke-width="1.3"/>
<rect x="682.7" y="191.9" width="7.5" height="36.0" fill="#008300"/>
<rect x="696.4" y="183.9" width="7.5" height="44.0" fill="none" stroke="#e34948" stroke-width="1.3"/>
<rect x="710.1" y="183.9" width="7.5" height="60.0" fill="#008300"/>
<rect x="723.7" y="243.9" width="7.5" height="100.1" fill="#008300"/>
<rect x="737.4" y="211.9" width="7.5" height="132.1" fill="none" stroke="#e34948" stroke-width="1.3"/>
<rect x="751.1" y="211.9" width="7.5" height="108.1" fill="#008300"/>
<rect x="764.7" y="127.8" width="7.5" height="192.1" fill="none" stroke="#e34948" stroke-width="1.3"/>
<rect x="778.4" y="308.0" width="7.5" height="48.0" fill="none" stroke="#e34948" stroke-width="1.3"/>
<rect x="792.1" y="275.9" width="7.5" height="32.0" fill="none" stroke="#e34948" stroke-width="1.3"/>
<rect x="805.7" y="259.9" width="7.5" height="16.0" fill="none" stroke="#e34948" stroke-width="1.3"/>
<rect x="819.4" y="159.9" width="7.5" height="100.1" fill="none" stroke="#e34948" stroke-width="1.3"/>
<circle cx="208.2" cy="79.8" r="2" fill="#52514e"/>
<line x1="208.2" y1="79.8" x2="216.2" y2="79.8" stroke="#52514e" stroke-width="1.0"/>
<text x="219.2" y="83.8" font-size="11.0" fill="#52514e">69</text>
<circle cx="659.2" cy="356.0" r="2" fill="#52514e"/>
<line x1="659.2" y1="356.0" x2="651.2" y2="356.0" stroke="#52514e" stroke-width="1.0"/>
<text x="648.2" y="350.0" font-size="11.0" fill="#52514e" text-anchor="end">0</text>
<text x="14.0" y="376.0" font-size="11.0" fill="#52514e">VOL 7 forks</text>
<text x="90.6" y="376.0" font-size="11.0" fill="#eda100">MA5:7.8</text>
<text x="142.9" y="376.0" font-size="11.0" fill="#2a78d6">MA10:8.6</text>
<text x="14.0" y="395.0" font-size="10" fill="#898781">35</text>
<rect x="13.1" y="460.6" width="7.5" height="9.4" fill="#008300"/>
<rect x="26.7" y="460.6" width="7.5" height="9.4" fill="#008300"/>
<rect x="40.4" y="460.6" width="7.5" height="9.4" fill="none" stroke="#e34948" stroke-width="1.1"/>
<rect x="54.1" y="465.3" width="7.5" height="4.7" fill="none" stroke="#e34948" stroke-width="1.1"/>
<rect x="67.7" y="444.2" width="7.5" height="25.8" fill="#008300"/>
<rect x="81.4" y="444.2" width="7.5" height="25.8" fill="#008300"/>
<rect x="95.1" y="448.9" width="7.5" height="21.1" fill="#008300"/>
<rect x="108.7" y="458.3" width="7.5" height="11.7" fill="#008300"/>
<rect x="122.4" y="463.0" width="7.5" height="7.0" fill="none" stroke="#e34948" stroke-width="1.1"/>
<rect x="136.1" y="453.6" width="7.5" height="16.4" fill="none" stroke="#e34948" stroke-width="1.1"/>
<rect x="149.7" y="444.2" width="7.5" height="25.8" fill="none" stroke="#e34948" stroke-width="1.1"/>
<rect x="163.4" y="441.9" width="7.5" height="28.1" fill="#008300"/>
<rect x="177.1" y="453.6" width="7.5" height="16.4" fill="none" stroke="#e34948" stroke-width="1.1"/>
<rect x="190.7" y="453.6" width="7.5" height="16.4" fill="none" stroke="#e34948" stroke-width="1.1"/>
<rect x="204.4" y="448.9" width="7.5" height="21.1" fill="none" stroke="#e34948" stroke-width="1.1"/>
<rect x="218.1" y="444.2" width="7.5" height="25.8" fill="#008300"/>
<rect x="231.7" y="463.0" width="7.5" height="7.0" fill="#008300"/>
<rect x="245.4" y="441.9" width="7.5" height="28.1" fill="none" stroke="#e34948" stroke-width="1.1"/>
<rect x="259.1" y="448.9" width="7.5" height="21.1" fill="none" stroke="#e34948" stroke-width="1.1"/>
<rect x="272.7" y="439.5" width="7.5" height="30.5" fill="#008300"/>
<rect x="286.4" y="444.2" width="7.5" height="25.8" fill="#008300"/>
<rect x="300.1" y="444.2" width="7.5" height="25.8" fill="none" stroke="#e34948" stroke-width="1.1"/>
<rect x="313.7" y="453.6" width="7.5" height="16.4" fill="#008300"/>
<rect x="327.4" y="463.0" width="7.5" height="7.0" fill="none" stroke="#e34948" stroke-width="1.1"/>
<rect x="341.1" y="451.3" width="7.5" height="18.7" fill="none" stroke="#e34948" stroke-width="1.1"/>
<rect x="354.7" y="446.6" width="7.5" height="23.4" fill="#898781"/>
<rect x="368.4" y="441.9" width="7.5" height="28.1" fill="#008300"/>
<rect x="382.1" y="446.6" width="7.5" height="23.4" fill="#008300"/>
<rect x="395.7" y="455.9" width="7.5" height="14.1" fill="#008300"/>
<rect x="409.4" y="458.3" width="7.5" height="11.7" fill="#008300"/>
<rect x="423.1" y="437.2" width="7.5" height="32.8" fill="#008300"/>
<rect x="436.7" y="453.6" width="7.5" height="16.4" fill="none" stroke="#e34948" stroke-width="1.1"/>
<rect x="450.4" y="455.9" width="7.5" height="14.1" fill="none" stroke="#e34948" stroke-width="1.1"/>
<rect x="464.1" y="448.9" width="7.5" height="21.1" fill="#008300"/>
<rect x="477.7" y="451.3" width="7.5" height="18.7" fill="none" stroke="#e34948" stroke-width="1.1"/>
<rect x="491.4" y="434.9" width="7.5" height="35.1" fill="#008300"/>
<rect x="505.1" y="458.3" width="7.5" height="11.7" fill="none" stroke="#e34948" stroke-width="1.1"/>
<rect x="518.7" y="453.6" width="7.5" height="16.4" fill="#008300"/>
<rect x="532.4" y="448.9" width="7.5" height="21.1" fill="none" stroke="#e34948" stroke-width="1.1"/>
<rect x="546.1" y="388.0" width="7.5" height="82.0" fill="none" stroke="#e34948" stroke-width="1.1"/>
<rect x="559.7" y="423.1" width="7.5" height="46.9" fill="#008300"/>
<rect x="573.4" y="432.5" width="7.5" height="37.5" fill="#008300"/>
<rect x="587.1" y="409.1" width="7.5" height="60.9" fill="none" stroke="#e34948" stroke-width="1.1"/>
<rect x="600.7" y="406.7" width="7.5" height="63.3" fill="#008300"/>
<rect x="614.4" y="402.1" width="7.5" height="67.9" fill="#008300"/>
<rect x="628.1" y="423.1" width="7.5" height="46.9" fill="#008300"/>
<rect x="641.7" y="453.6" width="7.5" height="16.4" fill="#008300"/>
<rect x="655.4" y="455.9" width="7.5" height="14.1" fill="none" stroke="#e34948" stroke-width="1.1"/>
<rect x="669.1" y="453.6" width="7.5" height="16.4" fill="none" stroke="#e34948" stroke-width="1.1"/>
<rect x="682.7" y="434.9" width="7.5" height="35.1" fill="#008300"/>
<rect x="696.4" y="444.2" width="7.5" height="25.8" fill="none" stroke="#e34948" stroke-width="1.1"/>
<rect x="710.1" y="444.2" width="7.5" height="25.8" fill="#008300"/>
<rect x="723.7" y="465.3" width="7.5" height="4.7" fill="#008300"/>
<rect x="737.4" y="416.1" width="7.5" height="53.9" fill="none" stroke="#e34948" stroke-width="1.1"/>
<rect x="778.4" y="430.2" width="7.5" height="39.8" fill="none" stroke="#e34948" stroke-width="1.1"/>
<rect x="805.7" y="434.9" width="7.5" height="35.1" fill="none" stroke="#e34948" stroke-width="1.1"/>
<rect x="819.4" y="453.6" width="7.5" height="16.4" fill="none" stroke="#e34948" stroke-width="1.1"/>
<polyline points="16.8,447.5 30.5,448.9 44.2,449.9 57.8,452.2 71.5,451.3 85.2,450.8 98.8,451.5 112.5,455.2 126.2,456.4 139.8,455.9 153.5,454.3 167.2,452.4 180.8,451.7 194.5,450.6 208.2,451.0 221.8,451.0 235.5,452.4 249.2,450.8 262.8,449.4 276.5,448.0 290.2,448.0 303.8,448.2 317.5,448.2 331.2,449.1 344.8,449.4 358.5,449.6 372.2,447.5 385.8,448.0 399.5,448.7 413.2,450.6 426.8,449.9 440.5,450.8 454.2,451.0 467.8,449.6 481.5,449.6 495.2,448.4 508.8,450.1 522.5,450.8 536.2,450.1 549.8,443.1 563.5,441.7 577.2,439.5 590.8,434.9 604.5,430.6 618.2,425.7 631.8,424.5 645.5,424.1 659.2,424.3 672.8,424.8 686.5,429.5 700.2,431.6 713.8,432.7 727.5,438.4 741.2,439.3 754.8,446.1 768.5,450.8 782.2,448.4 795.8,449.9 809.5,448.0 823.2,449.9" fill="none" stroke="#2a78d6" stroke-width="1.5" stroke-linejoin="round" stroke-linecap="round"/>
<polyline points="16.8,446.6 30.5,450.3 44.2,458.3 57.8,461.1 71.5,458.3 85.2,455.0 98.8,452.7 112.5,452.2 126.2,451.7 139.8,453.6 153.5,453.6 167.2,452.2 180.8,451.3 194.5,449.4 208.2,448.4 221.8,448.4 235.5,452.7 249.2,450.3 262.8,449.4 276.5,447.5 290.2,447.5 303.8,443.8 317.5,446.1 331.2,448.9 344.8,451.3 358.5,451.7 372.2,451.3 385.8,449.9 399.5,448.4 413.2,449.9 426.8,448.0 440.5,450.3 454.2,452.2 467.8,450.8 481.5,449.4 495.2,448.9 508.8,449.9 522.5,449.4 536.2,449.4 549.8,436.7 563.5,434.4 577.2,429.2 590.8,420.3 604.5,411.9 618.2,414.7 631.8,414.7 645.5,418.9 659.2,428.3 672.8,437.7 686.5,444.2 700.2,448.4 713.8,446.6 727.5,448.4 741.2,440.9 754.8,448.0 768.5,453.1 782.2,450.3 795.8,451.3 809.5,455.0 823.2,451.7" fill="none" stroke="#eda100" stroke-width="1.5" stroke-linejoin="round" stroke-linecap="round"/>
</svg>