<svg xmlns="http://www.w3.org/2000/svg" viewBox="0 0 840 496" width="840" height="496" font-family="-apple-system,&#39;Segoe UI&#39;,system-ui,sans-serif" role="img" aria-label="react/react candlestick chart">
<text x="14.0" y="20.0" font-size="15" fill="#0b0b0b" font-weight="650">react/react</text>
<text x="108.8" y="20.0" font-size="11.5" fill="#52514e">daily · new stars, volume = new forks</text>
<text x="805.8" y="20.0" font-size="11.0" fill="#52514e">fall</text>
<rect x="791" y="10" width="9" height="12" fill="#008300"/>
<text x="750.6" y="20.0" font-size="11.0" fill="#52514e">rise</text>
<rect x="736" y="10" width="9" height="12" fill="none" stroke="#e34948" stroke-width="1.5"/>
<text x="14.0" y="38.0" font-size="11.0" fill="#898781">last 60 days · +2,028 stars · +616 forks · updated 2026-07-24</text>
<rect x="10" y="66" width="820" height="290" fill="none" stroke="#e1e0d9"/>
<rect x="10" y="384" width="820" height="86" fill="none" stroke="#e1e0d9"/>
<text x="38.0" y="490.0" font-size="11.0" fill="#898781" text-anchor="middle">2026-05</text>
<line x1="119.3" y1="66.0" x2="119.3" y2="356.0" stroke="#e1e0d9" stroke-width="1.0"/>
<line x1="119.3" y1="384.0" x2="119.3" y2="470.0" stroke="#e1e0d9" stroke-width="1.0"/>
<text x="126.2" y="490.0" font-size="11.0" fill="#898781" text-anchor="middle">2026-06</text>
<line x1="529.3" y1="66.0" x2="529.3" y2="356.0" stroke="#e1e0d9" stroke-width="1.0"/>
<line x1="529.3" y1="384.0" x2="529.3" y2="470.0" stroke="#e1e0d9" stroke-width="1.0"/>
<text x="536.2" y="490.0" font-size="11.0" fill="#898781" text-anchor="middle">2026-07</text>
<text x="14.0" y="58.0" font-size="11.0" fill="#52514e">BOLL(20,2)</text>
<text x="84.5" y="58.0" font-size="11.0" fill="#eda100">UP:59.9</text>
<text x="136.9" y="58.0" font-size="11.0" fill="#2a78d6">MID:29.1</text>
<text x="195.3" y="58.0" font-size="11.0" fill="#e87ba4">LOW:0</text>
<text x="235.5" y="58.0" font-size="11.0" fill="#4a3aa7">MA7:27.3</text>
<line x1="10.0" y1="356.0" x2="830.0" y2="356.0" stroke="#e1e0d9" stroke-width="1.0"/>
<text x="14.0" y="353.0" font-size="11.0" fill="#898781">0</text>
<line x1="10.0" y1="275.9" x2="830.0" y2="275.9" stroke="#e1e0d9" stroke-width="1.0"/>
<text x="14.0" y="272.9" font-size="11.0" fill="#898781">20</text>
<line x1="10.0" y1="195.9" x2="830.0" y2="195.9" stroke="#e1e0d9" stroke-width="1.0"/>
<text x="14.0" y="192.9" font-size="11.0" fill="#898781">40</text>
<line x1="10.0" y1="115.8" x2="830.0" y2="115.8" stroke="#e1e0d9" stroke-width="1.0"/>
<text x="14.0" y="112.8" font-size="11.0" fill="#898781">60</text>
<polyline points="16.8,183.5 30.5,178.0 44.2,178.6 57.8,187.7 71.5,188.1 85.2,183.6 98.8,186.3 112.5,186.0 126.2,186.0 139.8,184.7 153.5,184.2 167.2,175.6 180.8,137.2 194.5,137.2 208.2,137.3 221.8,138.8 235.5,121.0 249.2,112.0 262.8,110.8 276.5,106.9 290.2,106.9 303.8,109.8 317.5,109.3 331.2,109.3 344.8,110.2 358.5,113.6 372.2,113.1 385.8,111.5 399.5,109.2 413.2,108.6 426.8,102.5 440.5,104.5 454.2,110.2 467.8,110.2 481.5,108.0 495.2,107.9 508.8,121.3 522.5,127.5 536.2,128.6 549.8,133.2 563.5,123.0 577.2,122.0 590.8,122.3 604.5,121.8 618.2,116.4 631.8,115.6 645.5,114.0 659.2,115.4 672.8,116.8 686.5,117.0 700.2,111.1 713.8,112.6 727.5,128.4 741.2,114.1 754.8,115.2 768.5,116.3 782.2,119.0 795.8,116.4 809.5,114.9 823.2,116.3" fill="none" stroke="#eda100" stroke-width="1.5" stroke-linejoin="round" stroke-linecap="round"/>
<polyline points="16.8,230.5 30.5,225.9 44.2,224.5 57.8,228.7 71.5,228.5 85.2,231.5 98.8,233.5 112.5,233.1 126.2,233.1 139.8,231.1 153.5,230.9 167.2,228.7 180.8,220.5 194.5,220.5 208.2,221.3 221.8,222.9 235.5,216.3 249.2,212.9 262.8,211.9 276.5,208.1 290.2,208.3 303.8,210.7 317.5,209.9 331.2,207.7 344.8,206.1 358.5,204.1 372.2,204.5 385.8,206.3 399.5,209.9 413.2,209.3 426.8,206.3 440.5,207.3 454.2,208.3 467.8,209.1 481.5,205.9 495.2,204.7 508.8,209.1 522.5,210.9 536.2,211.7 549.8,214.5 563.5,209.3 577.2,207.9 590.8,208.5 604.5,210.9 618.2,214.9 631.8,212.9 645.5,209.7 659.2,207.7 672.8,202.7 686.5,204.7 700.2,214.3 713.8,215.3 727.5,226.3 741.2,220.5 754.8,226.7 768.5,229.7 782.2,232.5 795.8,231.7 809.5,237.7 823.2,239.5" fill="none" stroke="#2a78d6" stroke-width="1.5" stroke-linejoin="round" stroke-linecap="round"/>
<polyline points="16.8,277.5 30.5,273.8 44.2,270.5 57.8,269.7 71.5,268.9 85.2,279.5 98.8,280.7 112.5,280.2 126.2,280.2 139.8,277.5 153.5,277.7 167.2,281.8 180.8,303.8 194.5,303.8 208.2,305.3 221.8,307.0 235.5,311.6 249.2,313.8 262.8,313.1 276.5,309.3 290.2,309.7 303.8,311.6 317.5,310.5 331.2,306.1 344.8,302.0 358.5,294.6 372.2,295.9 385.8,301.1 399.5,310.6 413.2,310.0 426.8,310.0 440.5,310.1 454.2,306.4 467.8,308.0 481.5,303.8 495.2,301.4 508.8,296.9 522.5,294.3 536.2,294.8 549.8,295.8 563.5,295.6 577.2,293.8 590.8,294.7 604.5,300.0 618.2,313.4 631.8,310.2 645.5,305.4 659.2,300.0 672.8,288.6 686.5,292.4 700.2,317.5 713.8,318.0 727.5,324.2 741.2,326.9 754.8,338.2 768.5,343.1 782.2,346.0 795.8,347.0 809.5,356.0 823.2,356.0" fill="none" stroke="#e87ba4" stroke-width="1.5" stroke-linejoin="round" stroke-linecap="round"/>
<polyline points="16.8,228.3 30.5,221.1 44.2,223.9 57.8,225.1 71.5,232.3 85.2,242.7 98.8,242.7 112.5,241.5 126.2,246.3 139.8,244.3 153.5,238.3 167.2,225.5 180.8,195.9 194.5,193.1 208.2,195.5 221.8,199.5 235.5,185.1 249.2,174.7 262.8,178.3 276.5,191.5 290.2,193.5 303.8,190.7 317.5,186.7 331.2,200.3 344.8,213.1 358.5,220.3 372.2,232.3 385.8,235.9 399.5,243.9 413.2,242.7 426.8,234.3 440.5,229.1 454.2,207.9 467.8,206.3 481.5,194.3 495.2,184.3 508.8,184.3 522.5,187.9 536.2,190.7 549.8,209.1 563.5,194.3 577.2,196.3 590.8,197.5 604.5,205.5 618.2,224.3 631.8,223.9 645.5,218.7 659.2,231.5 672.8,229.1 686.5,231.9 700.2,243.9 713.8,230.3 727.5,246.3 741.2,237.1 754.8,248.3 768.5,261.5 782.2,263.9 795.8,237.5 809.5,254.7 823.2,246.7" fill="none" stroke="#4a3aa7" stroke-width="1.5" stroke-linejoin="round" stroke-linecap="round"/>
<rect x="13.1" y="239.9" width="7.5" height="8.0" fill="none" stroke="#e34948" stroke-width="1.3"/>
<rect x="26.7" y="179.9" width="7.5" height="60.0" fill="none" stroke="#e34948" stroke-width="1.3"/>
<rect x="40.4" y="179.9" width="7.5" height="48.0" fill="#008300"/>
<rect x="54.1" y="227.9" width="7.5" height="28.0" fill="#008300"/>
<rect x="67.7" y="255.9" width="7.5" height="4.0" fill="#008300"/>
<rect x="81.4" y="259.9" width="7.5" height="28.0" fill="#008300"/>
<rect x="95.1" y="247.9" width="7.5" height="40.0" fill="none" stroke="#e34948" stroke-width="1.3"/>
<rect x="108.7" y="231.9" width="7.5" height="16.0" fill="none" stroke="#e34948" stroke-width="1.3"/>
<rect x="122.4" y="211.9" width="7.5" height="20.0" fill="none" stroke="#e34948" stroke-width="1.3"/>
<rect x="136.1" y="211.9" width="7.5" height="4.0" fill="#008300"/>
<rect x="149.7" y="211.9" width="7.5" height="4.0" fill="none" stroke="#e34948" stroke-width="1.3"/>
<rect x="163.4" y="171.9" width="7.5" height="40.0" fill="none" stroke="#e34948" stroke-width="1.3"/>
<rect x="177.1" y="79.8" width="7.5" height="92.1" fill="none" stroke="#e34948" stroke-width="1.3"/>
<rect x="190.7" y="79.8" width="7.5" height="148.1" fill="#008300"/>
<rect x="204.4" y="227.9" width="7.5" height="20.0" fill="#008300"/>
<rect x="218.1" y="239.9" width="7.5" height="8.0" fill="none" stroke="#e34948" stroke-width="1.3"/>
<rect x="231.7" y="115.8" width="7.5" height="124.1" fill="none" stroke="#e34948" stroke-width="1.3"/>
<rect x="245.4" y="115.8" width="7.5" height="24.0" fill="#008300"/>
<rect x="259.1" y="139.9" width="7.5" height="56.0" fill="#008300"/>
<rect x="272.7" y="171.9" width="7.5" height="24.0" fill="none" stroke="#e34948" stroke-width="1.3"/>
<rect x="286.4" y="171.9" width="7.5" height="72.0" fill="#008300"/>
<rect x="300.1" y="227.9" width="7.5" height="16.0" fill="none" stroke="#e34948" stroke-width="1.3"/>
<rect x="313.7" y="211.9" width="7.5" height="16.0" fill="none" stroke="#e34948" stroke-width="1.3"/>
<rect x="327.4" y="211.9" width="7.5" height="1.2" fill="#898781"/>
<rect x="341.1" y="211.9" width="7.5" height="16.0" fill="#008300"/>
<rect x="354.7" y="227.9" width="7.5" height="20.0" fill="#008300"/>
<rect x="368.4" y="247.9" width="7.5" height="8.0" fill="#008300"/>
<rect x="382.1" y="255.9" width="7.5" height="12.0" fill="#008300"/>
<rect x="395.7" y="267.9" width="7.5" height="16.0" fill="#008300"/>
<rect x="409.4" y="203.9" width="7.5" height="80.1" fill="none" stroke="#e34948" stroke-width="1.3"/>
<rect x="423.1" y="151.9" width="7.5" height="52.0" fill="none" stroke="#e34948" stroke-width="1.3"/>
<rect x="436.7" y="151.9" width="7.5" height="40.0" fill="#008300"/>
<rect x="450.4" y="99.8" width="7.5" height="92.1" fill="none" stroke="#e34948" stroke-width="1.3"/>
<rect x="464.1" y="99.8" width="7.5" height="144.1" fill="#008300"/>
<rect x="477.7" y="183.9" width="7.5" height="60.0" fill="none" stroke="#e34948" stroke-width="1.3"/>
<rect x="491.4" y="183.9" width="7.5" height="32.0" fill="#008300"/>
<rect x="505.1" y="203.9" width="7.5" height="12.0" fill="none" stroke="#e34948" stroke-width="1.3"/>
<rect x="518.7" y="175.9" width="7.5" height="28.0" fill="none" stroke="#e34948" stroke-width="1.3"/>
<rect x="532.4" y="175.9" width="7.5" height="36.0" fill="#008300"/>
<rect x="546.1" y="211.9" width="7.5" height="16.0" fill="#008300"/>
<rect x="559.7" y="139.9" width="7.5" height="88.1" fill="none" stroke="#e34948" stroke-width="1.3"/>
<rect x="573.4" y="139.9" width="7.5" height="60.0" fill="#008300"/>
<rect x="587.1" y="199.9" width="7.5" height="24.0" fill="#008300"/>
<rect x="600.7" y="223.9" width="7.5" height="36.0" fill="#008300"/>
<rect x="614.4" y="259.9" width="7.5" height="48.0" fill="#008300"/>
<rect x="628.1" y="207.9" width="7.5" height="148.1" fill="none" stroke="#e34948" stroke-width="1.3"/>
<rect x="641.7" y="191.9" width="7.5" height="16.0" fill="none" stroke="#e34948" stroke-width="1.3"/>
<rect x="655.4" y="191.9" width="7.5" height="36.0" fill="#008300"/>
<rect x="669.1" y="183.9" width="7.5" height="44.0" fill="none" stroke="#e34948" stroke-width="1.3"/>
<rect x="682.7" y="183.9" width="7.5" height="60.0" fill="#008300"/>
<rect x="696.4" y="243.9" width="7.5" height="100.1" fill="#008300"/>
<rect x="710.1" y="211.9" width="7.5" height="132.1" fill="none" stroke="#e34948" stroke-width="1.3"/>
<rect x="723.7" y="211.9" width="7.5" height="108.1" fill="#008300"/>
<rect x="737.4" y="127.8" width="7.5" height="192.1" fill="none" stroke="#e34948" stroke-width="1.3"/>
<rect x="751.1" y="308.0" width="7.5" height="48.0" fill="none" stroke="#e34948" stroke-width="1.3"/>
<rect x="764.7" y="275.9" width="7.5" height="32.0" fill="none" stroke="#e34948" stroke-width="1.3"/>
<rect x="778.4" y="259.9" width="7.5" height="16.0" fill="none" stroke="#e34948" stroke-width="1.3"/>
<rect x="792.1" y="159.9" width="7.5" height="100.1" fill="none" stroke="#e34948" stroke-width="1.3"/>
<rect x="805.7" y="159.9" width="7.5" height="172.1" fill="#008300"/>
<rect x="819.4" y="263.9" width="7.5" height="68.0" fill="none" stroke="#e34948" stroke-width="1.3"/>
<circle cx="180.8" cy="79.8" r="2" fill="#52514e"/>
<line x1="180.8" y1="79.8" x2="188.8" y2="79.8" stroke="#52514e" stroke-width="1.0"/>
<text x="191.8" y="83.8" font-size="11.0" fill="#52514e">69</text>
<circle cx="631.8" cy="356.0" r="2" fill="#52514e"/>
<line x1="631.8" y1="356.0" x2="623.8" y2="356.0" stroke="#52514e" stroke-width="1.0"/>
<text x="620.8" y="350.0" font-size="11.0" fill="#52514e" text-anchor="end">0</text>
<text x="14.0" y="376.0" font-size="11.0" fill="#52514e">VOL 0 forks</text>
<text x="90.6" y="376.0" font-size="11.0" fill="#eda100">MA5:7</text>
<text x="130.8" y="376.0" font-size="11.0" fill="#2a78d6">MA10:7.7</text>
<text x="14.0" y="395.0" font-size="10" fill="#898781">35</text>
<rect x="13.1" y="460.6" width="7.5" height="9.4" fill="none" stroke="#e34948" stroke-width="1.1"/>
<rect x="26.7" y="465.3" width="7.5" height="4.7" fill="none" stroke="#e34948" stroke-width="1.1"/>
<rect x="40.4" y="444.2" width="7.5" height="25.8" fill="#008300"/>
<rect x="54.1" y="444.2" width="7.5" height="25.8" fill="#008300"/>
<rect x="67.7" y="448.9" width="7.5" height="21.1" fill="#008300"/>
<rect x="81.4" y="458.3" width="7.5" height="11.7" fill="#008300"/>
<rect x="95.1" y="463.0" width="7.5" height="7.0" fill="none" stroke="#e34948" stroke-width="1.1"/>
<rect x="108.7" y="453.6" width="7.5" height="16.4" fill="none" stroke="#e34948" stroke-width="1.1"/>
<rect x="122.4" y="444.2" width="7.5" height="25.8" fill="none" stroke="#e34948" stroke-width="1.1"/>
<rect x="136.1" y="441.9" width="7.5" height="28.1" fill="#008300"/>
<rect x="149.7" y="453.6" width="7.5" height="16.4" fill="none" stroke="#e34948" stroke-width="1.1"/>
<rect x="163.4" y="453.6" width="7.5" height="16.4" fill="none" stroke="#e34948" stroke-width="1.1"/>
<rect x="177.1" y="448.9" width="7.5" height="21.1" fill="none" stroke="#e34948" stroke-width="1.1"/>
<rect x="190.7" y="444.2" width="7.5" height="25.8" fill="#008300"/>
<rect x="204.4" y="463.0" width="7.5" height="7.0" fill="#008300"/>
<rect x="218.1" y="441.9" width="7.5" height="28.1" fill="none" stroke="#e34948" stroke-width="1.1"/>
<rect x="231.7" y="448.9" width="7.5" height="21.1" fill="none" stroke="#e34948" stroke-width="1.1"/>
<rect x="245.4" y="439.5" width="7.5" height="30.5" fill="#008300"/>
<rect x="259.1" y="444.2" width="7.5" height="25.8" fill="#008300"/>
<rect x="272.7" y="444.2" width="7.5" height="25.8" fill="none" stroke="#e34948" stroke-width="1.1"/>
<rect x="286.4" y="453.6" width="7.5" height="16.4" fill="#008300"/>
<rect x="300.1" y="463.0" width="7.5" height="7.0" fill="none" stroke="#e34948" stroke-width="1.1"/>
<rect x="313.7" y="451.3" width="7.5" height="18.7" fill="none" stroke="#e34948" stroke-width="1.1"/>
<rect x="327.4" y="446.6" width="7.5" height="23.4" fill="#898781"/>
<rect x="341.1" y="441.9" width="7.5" height="28.1" fill="#008300"/>
<rect x="354.7" y="446.6" width="7.5" height="23.4" fill="#008300"/>
<rect x="368.4" y="455.9" width="7.5" height="14.1" fill="#008300"/>
<rect x="382.1" y="458.3" width="7.5" height="11.7" fill="#008300"/>
<rect x="395.7" y="437.2" width="7.5" height="32.8" fill="#008300"/>
<rect x="409.4" y="453.6" width="7.5" height="16.4" fill="none" stroke="#e34948" stroke-width="1.1"/>
<rect x="423.1" y="455.9" width="7.5" height="14.1" fill="none" stroke="#e34948" stroke-width="1.1"/>
<rect x="436.7" y="448.9" width="7.5" height="21.1" fill="#008300"/>
<rect x="450.4" y="451.3" width="7.5" height="18.7" fill="none" stroke="#e34948" stroke-width="1.1"/>
<rect x="464.1" y="434.9" width="7.5" height="35.1" fill="#008300"/>
<rect x="477.7" y="458.3" width="7.5" height="11.7" fill="none" stroke="#e34948" stroke-width="1.1"/>
<rect x="491.4" y="453.6" width="7.5" height="16.4" fill="#008300"/>
<rect x="505.1" y="448.9" width="7.5" height="21.1" fill="none" stroke="#e34948" stroke-width="1.1"/>
<rect x="518.7" y="388.0" width="7.5" height="82.0" fill="none" stroke="#e34948" stroke-width="1.1"/>
<rect x="532.4" y="423.1" width="7.5" height="46.9" fill="#008300"/>
<rect x="546.1" y="432.5" width="7.5" height="37.5" fill="#008300"/>
<rect x="559.7" y="409.1" width="7.5" height="60.9" fill="none" stroke="#e34948" stroke-width="1.1"/>
<rect x="573.4" y="406.7" width="7.5" height="63.3" fill="#008300"/>
<rect x="587.1" y="402.1" width="7.5" height="67.9" fill="#008300"/>
<rect x="600.7" y="423.1" width="7.5" height="46.9" fill="#008300"/>
<rect x="614.4" y="453.6" width="7.5" height="16.4" fill="#008300"/>
<rect x="628.1" y="455.9" width="7.5" height="14.1" fill="none" stroke="#e34948" stroke-width="1.1"/>
<rect x="641.7" y="453.6" width="7.5" height="16.4" fill="none" stroke="#e34948" stroke-width="1.1"/>
<rect x="655.4" y="434.9" width="7.5" height="35.1" fill="#008300"/>
<rect x="669.1" y="444.2" width="7.5" height="25.8" fill="none" stroke="#e34948" stroke-width="1.1"/>
<rect x="682.7" y="444.2" width="7.5" height="25.8" fill="#008300"/>
<rect x="696.4" y="465.3" width="7.5" height="4.7" fill="#008300"/>
<rect x="710.1" y="416.1" width="7.5" height="53.9" fill="none" stroke="#e34948" stroke-width="1.1"/>
<rect x="751.1" y="430.2" width="7.5" height="39.8" fill="none" stroke="#e34948" stroke-width="1.1"/>
<rect x="778.4" y="434.9" width="7.5" height="35.1" fill="none" stroke="#e34948" stroke-width="1.1"/>
<rect x="792.1" y="453.6" width="7.5" height="16.4" fill="none" stroke="#e34948" stroke-width="1.1"/>
<rect x="805.7" y="439.5" width="7.5" height="30.5" fill="#008300"/>
<polyline points="16.8,449.9 30.5,452.2 44.2,451.3 57.8,450.8 71.5,451.5 85.2,455.2 98.8,456.4 112.5,455.9 126.2,454.3 139.8,452.4 153.5,451.7 167.2,450.6 180.8,451.0 194.5,451.0 208.2,452.4 221.8,450.8 235.5,449.4 249.2,448.0 262.8,448.0 276.5,448.2 290.2,448.2 303.8,449.1 317.5,449.4 331.2,449.6 344.8,447.5 358.5,448.0 372.2,448.7 385.8,450.6 399.5,449.9 413.2,450.8 426.8,451.0 440.5,449.6 454.2,449.6 467.8,448.4 481.5,450.1 495.2,450.8 508.8,450.1 522.5,443.1 536.2,441.7 549.8,439.5 563.5,434.9 577.2,430.6 590.8,425.7 604.5,424.5 618.2,424.1 631.8,424.3 645.5,424.8 659.2,429.5 672.8,431.6 686.5,432.7 700.2,438.4 713.8,439.3 727.5,446.1 741.2,450.8 754.8,448.4 768.5,449.9 782.2,448.0 795.8,449.9 809.5,449.4 823.2,452.0" fill="none" stroke="#2a78d6" stroke-width="1.5" stroke-linejoin="round" stroke-linecap="round"/>
<polyline points="16.8,458.3 30.5,461.1 44.2,458.3 57.8,455.0 71.5,452.7 85.2,452.2 98.8,451.7 112.5,453.6 126.2,453.6 139.8,452.2 153.5,451.3 167.2,449.4 180.8,448.4 194.5,448.4 208.2,452.7 221.8,450.3 235.5,449.4 249.2,447.5 262.8,447.5 276.5,443.8 290.2,446.1 303.8,448.9 317.5,451.3 331.2,451.7 344.8,451.3 358.5,449.9 372.2,448.4 385.8,449.9 399.5,448.0 413.2,450.3 426.8,452.2 440.5,450.8 454.2,449.4 467.8,448.9 481.5,449.9 495.2,449.4 508.8,449.4 522.5,436.7 536.2,434.4 549.8,429.2 563.5,420.3 577.2,411.9 590.8,414.7 604.5,414.7 618.2,418.9 631.8,428.3 645.5,437.7 659.2,444.2 672.8,448.4 686.5,446.6 700.2,448.4 713.8,440.9 727.5,448.0 741.2,453.1 754.8,450.3 768.5,451.3 782.2,455.0 795.8,451.7 809.5,445.6 823.2,453.6" fill="none" stroke="#eda100" stroke-width="1.5" stroke-linejoin="round" stroke-linecap="round"/>
</svg>