<svg xmlns="http://www.w3.org/2000/svg" viewBox="0 0 840 496" width="840" height="496" font-family="-apple-system,&#39;Segoe UI&#39;,system-ui,sans-serif" role="img" aria-label="react/react candlestick chart">
<text x="14.0" y="20.0" font-size="15" fill="#0b0b0b" font-weight="650">react/react</text>
<text x="108.8" y="20.0" font-size="11.5" fill="#52514e">daily · new stars, volume = new forks</text>
<text x="805.8" y="20.0" font-size="11.0" fill="#52514e">fall</text>
<rect x="791" y="10" width="9" height="12" fill="#008300"/>
<text x="750.6" y="20.0" font-size="11.0" fill="#52514e">rise</text>
<rect x="736" y="10" width="9" height="12" fill="none" stroke="#e34948" stroke-width="1.5"/>
<text x="14.0" y="38.0" font-size="11.0" fill="#898781">last 60 days · +2,091 stars · +627 forks · updated 2026-07-08</text>
<rect x="10" y="66" width="820" height="290" fill="none" stroke="#e1e0d9"/>
<rect x="10" y="384" width="820" height="86" fill="none" stroke="#e1e0d9"/>
<text x="38.0" y="490.0" font-size="11.0" fill="#898781" text-anchor="middle">2026-05</text>
<line x1="324.3" y1="66.0" x2="324.3" y2="356.0" stroke="#e1e0d9" stroke-width="1.0"/>
<line x1="324.3" y1="384.0" x2="324.3" y2="470.0" stroke="#e1e0d9" stroke-width="1.0"/>
<text x="331.2" y="490.0" font-size="11.0" fill="#898781" text-anchor="middle">2026-06</text>
<line x1="734.3" y1="66.0" x2="734.3" y2="356.0" stroke="#e1e0d9" stroke-width="1.0"/>
<line x1="734.3" y1="384.0" x2="734.3" y2="470.0" stroke="#e1e0d9" stroke-width="1.0"/>
<text x="741.2" y="490.0" font-size="11.0" fill="#898781" text-anchor="middle">2026-07</text>
<text x="14.0" y="58.0" font-size="11.0" fill="#52514e">BOLL(20,2)</text>
<text x="84.5" y="58.0" font-size="11.0" fill="#eda100">UP:59.9</text>
<text x="136.9" y="58.0" font-size="11.0" fill="#2a78d6">MID:35.2</text>
<text x="195.3" y="58.0" font-size="11.0" fill="#e87ba4">LOW:10.7</text>
<text x="253.7" y="58.0" font-size="11.0" fill="#4a3aa7">MA7:32.9</text>
<line x1="10.0" y1="300.2" x2="830.0" y2="300.2" stroke="#e1e0d9" stroke-width="1.0"/>
<text x="14.0" y="297.2" font-size="11.0" fill="#898781">20</text>
<line x1="10.0" y1="210.0" x2="830.0" y2="210.0" stroke="#e1e0d9" stroke-width="1.0"/>
<text x="14.0" y="207.0" font-size="11.0" fill="#898781">40</text>
<line x1="10.0" y1="119.8" x2="830.0" y2="119.8" stroke="#e1e0d9" stroke-width="1.0"/>
<text x="14.0" y="116.8" font-size="11.0" fill="#898781">60</text>
<polyline points="16.8,177.9 30.5,176.9 44.2,191.2 57.8,189.1 71.5,189.7 85.2,190.2 98.8,188.9 112.5,198.5 126.2,198.5 139.8,199.6 153.5,198.3 167.2,198.5 180.8,195.6 194.5,194.3 208.2,194.6 221.8,196.0 235.5,189.8 249.2,190.4 262.8,200.7 276.5,201.2 290.2,196.1 303.8,199.2 317.5,198.8 331.2,198.8 344.8,197.3 358.5,196.7 372.2,187.1 385.8,143.9 399.5,143.9 413.2,143.9 426.8,145.6 440.5,125.6 454.2,115.4 467.8,114.0 481.5,109.7 495.2,109.7 508.8,113.0 522.5,112.4 536.2,112.4 549.8,113.4 563.5,117.2 577.2,116.7 590.8,114.9 604.5,112.3 618.2,111.6 631.8,104.8 645.5,107.0 659.2,113.5 672.8,113.4 686.5,111.0 700.2,110.9 713.8,125.9 727.5,132.9 741.2,134.2 754.8,139.3 768.5,127.9 782.2,126.7 795.8,127.1 809.5,126.5 823.2,120.4" fill="none" stroke="#eda100" stroke-width="1.5" stroke-linejoin="round" stroke-linecap="round"/>
<polyline points="16.8,248.1 30.5,247.6 44.2,252.1 57.8,251.0 71.5,252.6 85.2,252.8 98.8,250.1 112.5,253.7 126.2,253.7 139.8,254.4 153.5,253.9 167.2,253.5 180.8,252.1 194.5,249.6 208.2,250.5 221.8,249.0 235.5,243.8 249.2,242.2 262.8,246.9 276.5,246.7 290.2,250.1 303.8,252.4 317.5,251.9 331.2,251.9 344.8,249.6 358.5,249.4 372.2,246.9 385.8,237.7 399.5,237.7 413.2,238.6 426.8,240.4 440.5,233.0 454.2,229.1 467.8,228.0 481.5,223.7 495.2,223.9 508.8,226.6 522.5,225.7 536.2,223.3 549.8,221.5 563.5,219.2 577.2,219.7 590.8,221.7 604.5,225.7 618.2,225.1 631.8,221.7 645.5,222.8 659.2,223.9 672.8,224.8 686.5,221.2 700.2,219.9 713.8,224.8 727.5,226.9 741.2,227.8 754.8,230.9 768.5,225.1 782.2,223.5 795.8,224.2 809.5,226.9 823.2,231.4" fill="none" stroke="#2a78d6" stroke-width="1.5" stroke-linejoin="round" stroke-linecap="round"/>
<polyline points="16.8,318.2 30.5,318.3 44.2,313.1 57.8,312.9 71.5,315.5 85.2,315.4 98.8,311.3 112.5,309.0 126.2,309.0 139.8,309.1 153.5,309.5 167.2,308.5 180.8,308.6 194.5,305.0 208.2,306.5 221.8,302.0 235.5,297.8 249.2,294.0 262.8,293.2 276.5,292.2 290.2,304.1 303.8,305.5 317.5,305.0 331.2,305.0 344.8,302.0 358.5,302.1 372.2,306.7 385.8,331.5 399.5,331.5 413.2,333.3 426.8,335.2 440.5,340.3 454.2,342.8 467.8,342.0 481.5,337.7 495.2,338.2 508.8,340.3 522.5,339.1 536.2,334.1 549.8,329.6 563.5,321.2 577.2,322.6 590.8,328.5 604.5,339.2 618.2,338.5 631.8,338.6 645.5,338.6 659.2,334.4 672.8,336.3 686.5,331.5 700.2,328.9 713.8,323.7 727.5,320.8 741.2,321.4 754.8,322.5 768.5,322.3 782.2,320.3 795.8,321.3 809.5,327.2 823.2,342.3" fill="none" stroke="#e87ba4" stroke-width="1.5" stroke-linejoin="round" stroke-linecap="round"/>
<polyline points="16.8,261.4 30.5,257.8 44.2,253.3 57.8,243.3 71.5,243.3 85.2,250.5 98.8,242.9 112.5,245.6 126.2,248.7 139.8,247.4 153.5,246.5 167.2,245.6 180.8,244.2 194.5,244.2 208.2,244.7 221.8,246.5 235.5,238.4 249.2,241.5 262.8,242.9 276.5,251.0 290.2,262.7 303.8,262.7 317.5,261.4 331.2,266.8 344.8,264.5 358.5,257.8 372.2,243.3 385.8,210.0 399.5,206.8 413.2,209.5 426.8,214.0 440.5,197.8 454.2,186.1 467.8,190.1 481.5,205.0 495.2,207.3 508.8,204.1 522.5,199.6 536.2,214.9 549.8,229.4 563.5,237.5 577.2,251.0 590.8,255.1 604.5,264.1 618.2,262.7 631.8,253.3 645.5,247.4 659.2,223.5 672.8,221.7 686.5,208.2 700.2,196.9 713.8,196.9 727.5,200.9 741.2,204.1 754.8,224.8 768.5,208.2 782.2,210.4 795.8,211.8 809.5,220.8 823.2,242.0" fill="none" stroke="#4a3aa7" stroke-width="1.5" stroke-linejoin="round" stroke-linecap="round"/>
<rect x="13.1" y="246.0" width="7.5" height="40.6" fill="none" stroke="#e34948" stroke-width="1.3"/>
<rect x="26.7" y="223.5" width="7.5" height="22.5" fill="none" stroke="#e34948" stroke-width="1.3"/>
<rect x="40.4" y="223.5" width="7.5" height="36.1" fill="#008300"/>
<rect x="54.1" y="228.0" width="7.5" height="31.6" fill="none" stroke="#e34948" stroke-width="1.3"/>
<rect x="67.7" y="228.0" width="7.5" height="49.6" fill="#008300"/>
<rect x="81.4" y="232.5" width="7.5" height="45.1" fill="none" stroke="#e34948" stroke-width="1.3"/>
<rect x="95.1" y="232.5" width="7.5" height="1.2" fill="#898781"/>
<rect x="108.7" y="232.5" width="7.5" height="31.6" fill="#008300"/>
<rect x="122.4" y="246.0" width="7.5" height="18.0" fill="none" stroke="#e34948" stroke-width="1.3"/>
<rect x="136.1" y="246.0" width="7.5" height="4.5" fill="#008300"/>
<rect x="149.7" y="223.5" width="7.5" height="27.1" fill="none" stroke="#e34948" stroke-width="1.3"/>
<rect x="163.4" y="223.5" width="7.5" height="45.1" fill="#008300"/>
<rect x="177.1" y="223.5" width="7.5" height="45.1" fill="none" stroke="#e34948" stroke-width="1.3"/>
<rect x="190.7" y="223.5" width="7.5" height="9.0" fill="#008300"/>
<rect x="204.4" y="232.5" width="7.5" height="36.1" fill="#008300"/>
<rect x="218.1" y="259.6" width="7.5" height="9.0" fill="none" stroke="#e34948" stroke-width="1.3"/>
<rect x="231.7" y="191.9" width="7.5" height="67.6" fill="none" stroke="#e34948" stroke-width="1.3"/>
<rect x="245.4" y="191.9" width="7.5" height="54.1" fill="#008300"/>
<rect x="259.1" y="246.0" width="7.5" height="31.6" fill="#008300"/>
<rect x="272.7" y="277.6" width="7.5" height="4.5" fill="#008300"/>
<rect x="286.4" y="282.1" width="7.5" height="31.6" fill="#008300"/>
<rect x="300.1" y="268.6" width="7.5" height="45.1" fill="none" stroke="#e34948" stroke-width="1.3"/>
<rect x="313.7" y="250.5" width="7.5" height="18.0" fill="none" stroke="#e34948" stroke-width="1.3"/>
<rect x="327.4" y="228.0" width="7.5" height="22.5" fill="none" stroke="#e34948" stroke-width="1.3"/>
<rect x="341.1" y="228.0" width="7.5" height="4.5" fill="#008300"/>
<rect x="354.7" y="228.0" width="7.5" height="4.5" fill="none" stroke="#e34948" stroke-width="1.3"/>
<rect x="368.4" y="182.9" width="7.5" height="45.1" fill="none" stroke="#e34948" stroke-width="1.3"/>
<rect x="382.1" y="79.2" width="7.5" height="103.7" fill="none" stroke="#e34948" stroke-width="1.3"/>
<rect x="395.7" y="79.2" width="7.5" height="166.9" fill="#008300"/>
<rect x="409.4" y="246.0" width="7.5" height="22.5" fill="#008300"/>
<rect x="423.1" y="259.6" width="7.5" height="9.0" fill="none" stroke="#e34948" stroke-width="1.3"/>
<rect x="436.7" y="119.8" width="7.5" height="139.8" fill="none" stroke="#e34948" stroke-width="1.3"/>
<rect x="450.4" y="119.8" width="7.5" height="27.1" fill="#008300"/>
<rect x="464.1" y="146.8" width="7.5" height="63.1" fill="#008300"/>
<rect x="477.7" y="182.9" width="7.5" height="27.1" fill="none" stroke="#e34948" stroke-width="1.3"/>
<rect x="491.4" y="182.9" width="7.5" height="81.2" fill="#008300"/>
<rect x="505.1" y="246.0" width="7.5" height="18.0" fill="none" stroke="#e34948" stroke-width="1.3"/>
<rect x="518.7" y="228.0" width="7.5" height="18.0" fill="none" stroke="#e34948" stroke-width="1.3"/>
<rect x="532.4" y="228.0" width="7.5" height="1.2" fill="#898781"/>
<rect x="546.1" y="228.0" width="7.5" height="18.0" fill="#008300"/>
<rect x="559.7" y="246.0" width="7.5" height="22.5" fill="#008300"/>
<rect x="573.4" y="268.6" width="7.5" height="9.0" fill="#008300"/>
<rect x="587.1" y="277.6" width="7.5" height="13.5" fill="#008300"/>
<rect x="600.7" y="291.1" width="7.5" height="18.0" fill="#008300"/>
<rect x="614.4" y="219.0" width="7.5" height="90.2" fill="none" stroke="#e34948" stroke-width="1.3"/>
<rect x="628.1" y="160.4" width="7.5" height="58.6" fill="none" stroke="#e34948" stroke-width="1.3"/>
<rect x="641.7" y="160.4" width="7.5" height="45.1" fill="#008300"/>
<rect x="655.4" y="101.7" width="7.5" height="103.7" fill="none" stroke="#e34948" stroke-width="1.3"/>
<rect x="669.1" y="101.7" width="7.5" height="162.3" fill="#008300"/>
<rect x="682.7" y="196.4" width="7.5" height="67.6" fill="none" stroke="#e34948" stroke-width="1.3"/>
<rect x="696.4" y="196.4" width="7.5" height="36.1" fill="#008300"/>
<rect x="710.1" y="219.0" width="7.5" height="13.5" fill="none" stroke="#e34948" stroke-width="1.3"/>
<rect x="723.7" y="187.4" width="7.5" height="31.6" fill="none" stroke="#e34948" stroke-width="1.3"/>
<rect x="737.4" y="187.4" width="7.5" height="40.6" fill="#008300"/>
<rect x="751.1" y="228.0" width="7.5" height="18.0" fill="#008300"/>
<rect x="764.7" y="146.8" width="7.5" height="99.2" fill="none" stroke="#e34948" stroke-width="1.3"/>
<rect x="778.4" y="146.8" width="7.5" height="67.6" fill="#008300"/>
<rect x="792.1" y="214.5" width="7.5" height="27.1" fill="#008300"/>
<rect x="805.7" y="241.5" width="7.5" height="40.6" fill="#008300"/>
<rect x="819.4" y="282.1" width="7.5" height="54.1" fill="#008300"/>
<circle cx="385.8" cy="79.2" r="2" fill="#52514e"/>
<line x1="385.8" y1="79.2" x2="393.8" y2="79.2" stroke="#52514e" stroke-width="1.0"/>
<text x="396.8" y="83.2" font-size="11.0" fill="#52514e">69</text>
<circle cx="823.2" cy="336.2" r="2" fill="#52514e"/>
<line x1="823.2" y1="336.2" x2="815.2" y2="336.2" stroke="#52514e" stroke-width="1.0"/>
<text x="812.2" y="340.2" font-size="11.0" fill="#52514e" text-anchor="end">12</text>
<text x="14.0" y="376.0" font-size="11.0" fill="#52514e">VOL 7 forks</text>
<text x="90.6" y="376.0" font-size="11.0" fill="#eda100">MA5:21.8</text>
<text x="149.0" y="376.0" font-size="11.0" fill="#2a78d6">MA10:19.6</text>
<text x="14.0" y="395.0" font-size="10" fill="#898781">35</text>
<rect x="13.1" y="455.9" width="7.5" height="14.1" fill="none" stroke="#e34948" stroke-width="1.1"/>
<rect x="26.7" y="453.6" width="7.5" height="16.4" fill="none" stroke="#e34948" stroke-width="1.1"/>
<rect x="40.4" y="441.9" width="7.5" height="28.1" fill="#008300"/>
<rect x="54.1" y="439.5" width="7.5" height="30.5" fill="none" stroke="#e34948" stroke-width="1.1"/>
<rect x="67.7" y="446.6" width="7.5" height="23.4" fill="#008300"/>
<rect x="81.4" y="451.3" width="7.5" height="18.7" fill="none" stroke="#e34948" stroke-width="1.1"/>
<rect x="95.1" y="441.9" width="7.5" height="28.1" fill="#898781"/>
<rect x="108.7" y="453.6" width="7.5" height="16.4" fill="#008300"/>
<rect x="122.4" y="448.9" width="7.5" height="21.1" fill="none" stroke="#e34948" stroke-width="1.1"/>
<rect x="136.1" y="441.9" width="7.5" height="28.1" fill="#008300"/>
<rect x="149.7" y="420.8" width="7.5" height="49.2" fill="none" stroke="#e34948" stroke-width="1.1"/>
<rect x="163.4" y="451.3" width="7.5" height="18.7" fill="#008300"/>
<rect x="177.1" y="458.3" width="7.5" height="11.7" fill="none" stroke="#e34948" stroke-width="1.1"/>
<rect x="190.7" y="460.6" width="7.5" height="9.4" fill="#008300"/>
<rect x="204.4" y="460.6" width="7.5" height="9.4" fill="#008300"/>
<rect x="218.1" y="460.6" width="7.5" height="9.4" fill="none" stroke="#e34948" stroke-width="1.1"/>
<rect x="231.7" y="465.3" width="7.5" height="4.7" fill="none" stroke="#e34948" stroke-width="1.1"/>
<rect x="245.4" y="444.2" width="7.5" height="25.8" fill="#008300"/>
<rect x="259.1" y="444.2" width="7.5" height="25.8" fill="#008300"/>
<rect x="272.7" y="448.9" width="7.5" height="21.1" fill="#008300"/>
<rect x="286.4" y="458.3" width="7.5" height="11.7" fill="#008300"/>
<rect x="300.1" y="463.0" width="7.5" height="7.0" fill="none" stroke="#e34948" stroke-width="1.1"/>
<rect x="313.7" y="453.6" width="7.5" height="16.4" fill="none" stroke="#e34948" stroke-width="1.1"/>
<rect x="327.4" y="444.2" width="7.5" height="25.8" fill="none" stroke="#e34948" stroke-width="1.1"/>
<rect x="341.1" y="441.9" width="7.5" height="28.1" fill="#008300"/>
<rect x="354.7" y="453.6" width="7.5" height="16.4" fill="none" stroke="#e34948" stroke-width="1.1"/>
<rect x="368.4" y="453.6" width="7.5" height="16.4" fill="none" stroke="#e34948" stroke-width="1.1"/>
<rect x="382.1" y="448.9" width="7.5" height="21.1" fill="none" stroke="#e34948" stroke-width="1.1"/>
<rect x="395.7" y="444.2" width="7.5" height="25.8" fill="#008300"/>
<rect x="409.4" y="463.0" width="7.5" height="7.0" fill="#008300"/>
<rect x="423.1" y="441.9" width="7.5" height="28.1" fill="none" stroke="#e34948" stroke-width="1.1"/>
<rect x="436.7" y="448.9" width="7.5" height="21.1" fill="none" stroke="#e34948" stroke-width="1.1"/>
<rect x="450.4" y="439.5" width="7.5" height="30.5" fill="#008300"/>
<rect x="464.1" y="444.2" width="7.5" height="25.8" fill="#008300"/>
<rect x="477.7" y="444.2" width="7.5" height="25.8" fill="none" stroke="#e34948" stroke-width="1.1"/>
<rect x="491.4" y="453.6" width="7.5" height="16.4" fill="#008300"/>
<rect x="505.1" y="463.0" width="7.5" height="7.0" fill="none" stroke="#e34948" stroke-width="1.1"/>
<rect x="518.7" y="451.3" width="7.5" height="18.7" fill="none" stroke="#e34948" stroke-width="1.1"/>
<rect x="532.4" y="446.6" width="7.5" height="23.4" fill="#898781"/>
<rect x="546.1" y="441.9" width="7.5" height="28.1" fill="#008300"/>
<rect x="559.7" y="446.6" width="7.5" height="23.4" fill="#008300"/>
<rect x="573.4" y="455.9" width="7.5" height="14.1" fill="#008300"/>
<rect x="587.1" y="458.3" width="7.5" height="11.7" fill="#008300"/>
<rect x="600.7" y="437.2" width="7.5" height="32.8" fill="#008300"/>
<rect x="614.4" y="453.6" width="7.5" height="16.4" fill="none" stroke="#e34948" stroke-width="1.1"/>
<rect x="628.1" y="455.9" width="7.5" height="14.1" fill="none" stroke="#e34948" stroke-width="1.1"/>
<rect x="641.7" y="448.9" width="7.5" height="21.1" fill="#008300"/>
<rect x="655.4" y="451.3" width="7.5" height="18.7" fill="none" stroke="#e34948" stroke-width="1.1"/>
<rect x="669.1" y="434.9" width="7.5" height="35.1" fill="#008300"/>
<rect x="682.7" y="458.3" width="7.5" height="11.7" fill="none" stroke="#e34948" stroke-width="1.1"/>
<rect x="696.4" y="453.6" width="7.5" height="16.4" fill="#008300"/>
<rect x="710.1" y="448.9" width="7.5" height="21.1" fill="none" stroke="#e34948" stroke-width="1.1"/>
<rect x="723.7" y="388.0" width="7.5" height="82.0" fill="none" stroke="#e34948" stroke-width="1.1"/>
<rect x="737.4" y="423.1" width="7.5" height="46.9" fill="#008300"/>
<rect x="751.1" y="432.5" width="7.5" height="37.5" fill="#008300"/>
<rect x="764.7" y="409.1" width="7.5" height="60.9" fill="none" stroke="#e34948" stroke-width="1.1"/>
<rect x="778.4" y="406.7" width="7.5" height="63.3" fill="#008300"/>
<rect x="792.1" y="402.1" width="7.5" height="67.9" fill="#008300"/>
<rect x="805.7" y="423.1" width="7.5" height="46.9" fill="#008300"/>
<rect x="819.4" y="453.6" width="7.5" height="16.4" fill="#008300"/>
<polyline points="16.8,454.3 30.5,454.3 44.2,453.4 57.8,451.7 71.5,450.3 85.2,449.9 98.8,448.9 112.5,448.4 126.2,448.4 139.8,447.5 153.5,444.0 167.2,443.8 180.8,445.4 194.5,447.5 208.2,448.9 221.8,449.9 235.5,452.2 249.2,451.3 262.8,450.8 276.5,451.5 290.2,455.2 303.8,456.4 317.5,455.9 331.2,454.3 344.8,452.4 358.5,451.7 372.2,450.6 385.8,451.0 399.5,451.0 413.2,452.4 426.8,450.8 440.5,449.4 454.2,448.0 467.8,448.0 481.5,448.2 495.2,448.2 508.8,449.1 522.5,449.4 536.2,449.6 549.8,447.5 563.5,448.0 577.2,448.7 590.8,450.6 604.5,449.9 618.2,450.8 631.8,451.0 645.5,449.6 659.2,449.6 672.8,448.4 686.5,450.1 700.2,450.8 713.8,450.1 727.5,443.1 741.2,441.7 754.8,439.5 768.5,434.9 782.2,430.6 795.8,425.7 809.5,424.5 823.2,424.1" fill="none" stroke="#2a78d6" stroke-width="1.5" stroke-linejoin="round" stroke-linecap="round"/>
<polyline points="16.8,453.1 30.5,453.6 44.2,450.3 57.8,448.4 71.5,447.5 85.2,446.6 98.8,444.2 112.5,446.6 126.2,448.4 139.8,447.5 153.5,441.4 167.2,443.3 180.8,444.2 194.5,446.6 208.2,450.3 221.8,458.3 235.5,461.1 249.2,458.3 262.8,455.0 276.5,452.7 290.2,452.2 303.8,451.7 317.5,453.6 331.2,453.6 344.8,452.2 358.5,451.3 372.2,449.4 385.8,448.4 399.5,448.4 413.2,452.7 426.8,450.3 440.5,449.4 454.2,447.5 467.8,447.5 481.5,443.8 495.2,446.1 508.8,448.9 522.5,451.3 536.2,451.7 549.8,451.3 563.5,449.9 577.2,448.4 590.8,449.9 604.5,448.0 618.2,450.3 631.8,452.2 645.5,450.8 659.2,449.4 672.8,448.9 686.5,449.9 700.2,449.4 713.8,449.4 727.5,436.7 741.2,434.4 754.8,429.2 768.5,420.3 782.2,411.9 795.8,414.7 809.5,414.7 823.2,418.9" fill="none" stroke="#eda100" stroke-width="1.5" stroke-linejoin="round" stroke-linecap="round"/>
</svg>