<svg xmlns="http://www.w3.org/2000/svg" viewBox="0 0 840 496" width="840" height="496" font-family="-apple-system,&#39;Segoe UI&#39;,system-ui,sans-serif" role="img" aria-label="practical-tutorials/project-based-learning candlestick chart">
<text x="14.0" y="20.0" font-size="15" fill="#ffffff" font-weight="650">practical-tutorials/project-based-learning</text>
<text x="364.5" y="20.0" font-size="11.5" fill="#c3c2b7">daily · commits, volume = lines changed</text>
<text x="805.8" y="20.0" font-size="11.0" fill="#c3c2b7">fall</text>
<rect x="791" y="10" width="9" height="12" fill="#008300"/>
<text x="750.6" y="20.0" font-size="11.0" fill="#c3c2b7">rise</text>
<rect x="736" y="10" width="9" height="12" fill="none" stroke="#e66767" stroke-width="1.5"/>
<text x="14.0" y="38.0" font-size="11.0" fill="#898781">last 60 active days · 137 commits · 6,262 lines changed · updated 2026-07-07</text>
<rect x="10" y="66" width="820" height="290" fill="none" stroke="#2c2c2a"/>
<rect x="10" y="384" width="820" height="86" fill="none" stroke="#2c2c2a"/>
<text x="38.0" y="490.0" font-size="11.0" fill="#898781" text-anchor="middle">2020-02</text>
<line x1="51.0" y1="66.0" x2="51.0" y2="356.0" stroke="#2c2c2a" stroke-width="1.0"/>
<line x1="51.0" y1="384.0" x2="51.0" y2="470.0" stroke="#2c2c2a" stroke-width="1.0"/>
<line x1="64.7" y1="66.0" x2="64.7" y2="356.0" stroke="#2c2c2a" stroke-width="1.0"/>
<line x1="64.7" y1="384.0" x2="64.7" y2="470.0" stroke="#2c2c2a" stroke-width="1.0"/>
<line x1="119.3" y1="66.0" x2="119.3" y2="356.0" stroke="#2c2c2a" stroke-width="1.0"/>
<line x1="119.3" y1="384.0" x2="119.3" y2="470.0" stroke="#2c2c2a" stroke-width="1.0"/>
<text x="126.2" y="490.0" font-size="11.0" fill="#898781" text-anchor="middle">2020-06</text>
<line x1="146.7" y1="66.0" x2="146.7" y2="356.0" stroke="#2c2c2a" stroke-width="1.0"/>
<line x1="146.7" y1="384.0" x2="146.7" y2="470.0" stroke="#2c2c2a" stroke-width="1.0"/>
<line x1="160.3" y1="66.0" x2="160.3" y2="356.0" stroke="#2c2c2a" stroke-width="1.0"/>
<line x1="160.3" y1="384.0" x2="160.3" y2="470.0" stroke="#2c2c2a" stroke-width="1.0"/>
<line x1="201.3" y1="66.0" x2="201.3" y2="356.0" stroke="#2c2c2a" stroke-width="1.0"/>
<line x1="201.3" y1="384.0" x2="201.3" y2="470.0" stroke="#2c2c2a" stroke-width="1.0"/>
<text x="208.2" y="490.0" font-size="11.0" fill="#898781" text-anchor="middle">2020-09</text>
<line x1="228.7" y1="66.0" x2="228.7" y2="356.0" stroke="#2c2c2a" stroke-width="1.0"/>
<line x1="228.7" y1="384.0" x2="228.7" y2="470.0" stroke="#2c2c2a" stroke-width="1.0"/>
<line x1="242.3" y1="66.0" x2="242.3" y2="356.0" stroke="#2c2c2a" stroke-width="1.0"/>
<line x1="242.3" y1="384.0" x2="242.3" y2="470.0" stroke="#2c2c2a" stroke-width="1.0"/>
<line x1="256.0" y1="66.0" x2="256.0" y2="356.0" stroke="#2c2c2a" stroke-width="1.0"/>
<line x1="256.0" y1="384.0" x2="256.0" y2="470.0" stroke="#2c2c2a" stroke-width="1.0"/>
<line x1="283.3" y1="66.0" x2="283.3" y2="356.0" stroke="#2c2c2a" stroke-width="1.0"/>
<line x1="283.3" y1="384.0" x2="283.3" y2="470.0" stroke="#2c2c2a" stroke-width="1.0"/>
<text x="290.2" y="490.0" font-size="11.0" fill="#898781" text-anchor="middle">2021-01</text>
<line x1="338.0" y1="66.0" x2="338.0" y2="356.0" stroke="#2c2c2a" stroke-width="1.0"/>
<line x1="338.0" y1="384.0" x2="338.0" y2="470.0" stroke="#2c2c2a" stroke-width="1.0"/>
<line x1="379.0" y1="66.0" x2="379.0" y2="356.0" stroke="#2c2c2a" stroke-width="1.0"/>
<line x1="379.0" y1="384.0" x2="379.0" y2="470.0" stroke="#2c2c2a" stroke-width="1.0"/>
<text x="385.8" y="490.0" font-size="11.0" fill="#898781" text-anchor="middle">2021-05</text>
<line x1="392.7" y1="66.0" x2="392.7" y2="356.0" stroke="#2c2c2a" stroke-width="1.0"/>
<line x1="392.7" y1="384.0" x2="392.7" y2="470.0" stroke="#2c2c2a" stroke-width="1.0"/>
<line x1="433.7" y1="66.0" x2="433.7" y2="356.0" stroke="#2c2c2a" stroke-width="1.0"/>
<line x1="433.7" y1="384.0" x2="433.7" y2="470.0" stroke="#2c2c2a" stroke-width="1.0"/>
<line x1="474.7" y1="66.0" x2="474.7" y2="356.0" stroke="#2c2c2a" stroke-width="1.0"/>
<line x1="474.7" y1="384.0" x2="474.7" y2="470.0" stroke="#2c2c2a" stroke-width="1.0"/>
<text x="481.5" y="490.0" font-size="11.0" fill="#898781" text-anchor="middle">2021-08</text>
<line x1="638.7" y1="66.0" x2="638.7" y2="356.0" stroke="#2c2c2a" stroke-width="1.0"/>
<line x1="638.7" y1="384.0" x2="638.7" y2="470.0" stroke="#2c2c2a" stroke-width="1.0"/>
<text x="645.5" y="490.0" font-size="11.0" fill="#898781" text-anchor="middle">2021-09</text>
<line x1="679.7" y1="66.0" x2="679.7" y2="356.0" stroke="#2c2c2a" stroke-width="1.0"/>
<line x1="679.7" y1="384.0" x2="679.7" y2="470.0" stroke="#2c2c2a" stroke-width="1.0"/>
<line x1="693.3" y1="66.0" x2="693.3" y2="356.0" stroke="#2c2c2a" stroke-width="1.0"/>
<line x1="693.3" y1="384.0" x2="693.3" y2="470.0" stroke="#2c2c2a" stroke-width="1.0"/>
<line x1="720.7" y1="66.0" x2="720.7" y2="356.0" stroke="#2c2c2a" stroke-width="1.0"/>
<line x1="720.7" y1="384.0" x2="720.7" y2="470.0" stroke="#2c2c2a" stroke-width="1.0"/>
<text x="727.5" y="490.0" font-size="11.0" fill="#898781" text-anchor="middle">2022-04</text>
<line x1="748.0" y1="66.0" x2="748.0" y2="356.0" stroke="#2c2c2a" stroke-width="1.0"/>
<line x1="748.0" y1="384.0" x2="748.0" y2="470.0" stroke="#2c2c2a" stroke-width="1.0"/>
<line x1="775.3" y1="66.0" x2="775.3" y2="356.0" stroke="#2c2c2a" stroke-width="1.0"/>
<line x1="775.3" y1="384.0" x2="775.3" y2="470.0" stroke="#2c2c2a" stroke-width="1.0"/>
<line x1="802.7" y1="66.0" x2="802.7" y2="356.0" stroke="#2c2c2a" stroke-width="1.0"/>
<line x1="802.7" y1="384.0" x2="802.7" y2="470.0" stroke="#2c2c2a" stroke-width="1.0"/>
<text x="802.0" y="490.0" font-size="11.0" fill="#898781" text-anchor="middle">2026-07</text>
<text x="14.0" y="58.0" font-size="11.0" fill="#c3c2b7">BOLL(20,2)</text>
<text x="84.5" y="58.0" font-size="11.0" fill="#c98500">UP:16.3</text>
<text x="136.9" y="58.0" font-size="11.0" fill="#3987e5">MID:4.1</text>
<text x="189.2" y="58.0" font-size="11.0" fill="#d55181">LOW:0</text>
<text x="229.5" y="58.0" font-size="11.0" fill="#9085e9">MA7:4.4</text>
<line x1="10.0" y1="356.0" x2="830.0" y2="356.0" stroke="#2c2c2a" stroke-width="1.0"/>
<text x="14.0" y="353.0" font-size="11.0" fill="#898781">0</text>
<line x1="10.0" y1="235.9" x2="830.0" y2="235.9" stroke="#2c2c2a" stroke-width="1.0"/>
<text x="14.0" y="232.9" font-size="11.0" fill="#898781">10</text>
<line x1="10.0" y1="115.8" x2="830.0" y2="115.8" stroke="#2c2c2a" stroke-width="1.0"/>
<text x="14.0" y="112.8" font-size="11.0" fill="#898781">20</text>
<polyline points="16.8,323.2 30.5,322.4 44.2,322.4 57.8,322.4 71.5,323.2 85.2,333.7 98.8,333.7 112.5,335.6 126.2,338.1 139.8,338.1 153.5,338.1 167.2,330.8 180.8,330.8 194.5,329.3 208.2,329.3 221.8,329.3 235.5,320.8 249.2,320.8 262.8,320.8 276.5,320.8 290.2,320.8 303.8,321.7 317.5,321.7 331.2,321.7 344.8,321.7 358.5,321.7 372.2,321.7 385.8,321.7 399.5,321.7 413.2,321.7 426.8,321.7 440.5,324.2 454.2,324.2 467.8,325.3 481.5,325.3 495.2,303.6 508.8,308.2 522.5,308.2 536.2,307.5 549.8,307.5 563.5,236.6 577.2,230.0 590.8,211.9 604.5,211.9 618.2,211.9 631.8,211.9 645.5,211.9 659.2,211.9 672.8,211.8 686.5,211.2 700.2,211.2 713.8,211.2 727.5,211.2 741.2,211.2 754.8,211.1 768.5,216.1 782.2,216.0 795.8,216.0 809.5,160.1 823.2,160.1" fill="none" stroke="#c98500" stroke-width="1.5" stroke-linejoin="round" stroke-linecap="round"/>
<polyline points="16.8,340.4 30.5,339.8 44.2,339.8 57.8,339.8 71.5,340.4 85.2,342.2 98.8,342.2 112.5,342.8 126.2,343.4 139.8,343.4 153.5,343.4 167.2,342.2 180.8,342.2 194.5,341.6 208.2,341.6 221.8,341.6 235.5,339.8 249.2,339.8 262.8,339.8 276.5,339.8 290.2,339.8 303.8,340.4 317.5,340.4 331.2,340.4 344.8,340.4 358.5,340.4 372.2,340.4 385.8,340.4 399.5,340.4 413.2,340.4 426.8,340.4 440.5,341.0 454.2,341.0 467.8,341.6 481.5,341.6 495.2,338.0 508.8,339.8 522.5,339.8 536.2,339.2 549.8,339.2 563.5,329.0 577.2,325.4 590.8,318.8 604.5,318.8 618.2,318.8 631.8,318.8 645.5,318.8 659.2,318.8 672.8,318.2 686.5,317.0 700.2,317.0 713.8,317.0 727.5,317.0 741.2,317.0 754.8,316.4 768.5,320.0 782.2,319.4 795.8,319.4 809.5,306.8 823.2,306.8" fill="none" stroke="#3987e5" stroke-width="1.5" stroke-linejoin="round" stroke-linecap="round"/>
<polyline points="16.8,356.0 30.5,356.0 44.2,356.0 57.8,356.0 71.5,356.0 85.2,350.7 98.8,350.7 112.5,350.0 126.2,348.7 139.8,348.7 153.5,348.7 167.2,353.6 180.8,353.6 194.5,353.8 208.2,353.8 221.8,353.8 235.5,356.0 249.2,356.0 262.8,356.0 276.5,356.0 290.2,356.0 303.8,356.0 317.5,356.0 331.2,356.0 344.8,356.0 358.5,356.0 372.2,356.0 385.8,356.0 399.5,356.0 413.2,356.0 426.8,356.0 440.5,356.0 454.2,356.0 467.8,356.0 481.5,356.0 495.2,356.0 508.8,356.0 522.5,356.0 536.2,356.0 549.8,356.0 563.5,356.0 577.2,356.0 590.8,356.0 604.5,356.0 618.2,356.0 631.8,356.0 645.5,356.0 659.2,356.0 672.8,356.0 686.5,356.0 700.2,356.0 713.8,356.0 727.5,356.0 741.2,356.0 754.8,356.0 768.5,356.0 782.2,356.0 795.8,356.0 809.5,356.0 823.2,356.0" fill="none" stroke="#d55181" stroke-width="1.5" stroke-linejoin="round" stroke-linecap="round"/>
<polyline points="16.8,344.0 30.5,342.8 44.2,342.8 57.8,342.8 71.5,342.8 85.2,342.8 98.8,342.8 112.5,342.8 126.2,344.0 139.8,344.0 153.5,344.0 167.2,340.4 180.8,340.4 194.5,339.2 208.2,339.2 221.8,339.2 235.5,333.2 249.2,333.2 262.8,336.8 276.5,336.8 290.2,339.2 303.8,339.2 317.5,339.2 331.2,344.0 344.8,344.0 358.5,344.0 372.2,344.0 385.8,344.0 399.5,344.0 413.2,344.0 426.8,344.0 440.5,342.8 454.2,342.8 467.8,342.8 481.5,342.8 495.2,332.0 508.8,332.0 522.5,332.0 536.2,332.0 549.8,332.0 563.5,303.2 577.2,292.4 590.8,284.0 604.5,284.0 618.2,284.0 631.8,285.2 645.5,285.2 659.2,315.2 672.8,323.6 686.5,339.2 700.2,339.2 713.8,336.8 727.5,336.8 741.2,336.8 754.8,335.6 768.5,336.8 782.2,339.2 795.8,339.2 809.5,303.2 823.2,303.2" fill="none" stroke="#9085e9" stroke-width="1.5" stroke-linejoin="round" stroke-linecap="round"/>
<rect x="13.1" y="344.0" width="7.5" height="1.2" fill="#898781"/>
<rect x="26.7" y="332.0" width="7.5" height="24.0" fill="none" stroke="#e66767" stroke-width="1.3"/>
<rect x="40.4" y="344.0" width="7.5" height="12.0" fill="none" stroke="#e66767" stroke-width="1.3"/>
<rect x="54.1" y="344.0" width="7.5" height="12.0" fill="none" stroke="#e66767" stroke-width="1.3"/>
<rect x="67.7" y="344.0" width="7.5" height="12.0" fill="none" stroke="#e66767" stroke-width="1.3"/>
<rect x="81.4" y="344.0" width="7.5" height="12.0" fill="none" stroke="#e66767" stroke-width="1.3"/>
<rect x="95.1" y="344.0" width="7.5" height="12.0" fill="none" stroke="#e66767" stroke-width="1.3"/>
<rect x="108.7" y="344.0" width="7.5" height="12.0" fill="none" stroke="#e66767" stroke-width="1.3"/>
<rect x="122.4" y="344.0" width="7.5" height="12.0" fill="none" stroke="#e66767" stroke-width="1.3"/>
<rect x="136.1" y="344.0" width="7.5" height="12.0" fill="none" stroke="#e66767" stroke-width="1.3"/>
<rect x="149.7" y="344.0" width="7.5" height="12.0" fill="none" stroke="#e66767" stroke-width="1.3"/>
<rect x="163.4" y="320.0" width="7.5" height="36.0" fill="none" stroke="#e66767" stroke-width="1.3"/>
<rect x="177.1" y="344.0" width="7.5" height="12.0" fill="none" stroke="#e66767" stroke-width="1.3"/>
<rect x="190.7" y="332.0" width="7.5" height="12.0" fill="none" stroke="#e66767" stroke-width="1.3"/>
<rect x="204.4" y="344.0" width="7.5" height="12.0" fill="none" stroke="#e66767" stroke-width="1.3"/>
<rect x="218.1" y="344.0" width="7.5" height="12.0" fill="none" stroke="#e66767" stroke-width="1.3"/>
<rect x="231.7" y="308.0" width="7.5" height="48.0" fill="none" stroke="#e66767" stroke-width="1.3"/>
<rect x="245.4" y="344.0" width="7.5" height="12.0" fill="none" stroke="#e66767" stroke-width="1.3"/>
<rect x="259.1" y="344.0" width="7.5" height="12.0" fill="none" stroke="#e66767" stroke-width="1.3"/>
<rect x="272.7" y="344.0" width="7.5" height="12.0" fill="none" stroke="#e66767" stroke-width="1.3"/>
<rect x="286.4" y="344.0" width="7.5" height="12.0" fill="none" stroke="#e66767" stroke-width="1.3"/>
<rect x="300.1" y="344.0" width="7.5" height="12.0" fill="none" stroke="#e66767" stroke-width="1.3"/>
<rect x="313.7" y="344.0" width="7.5" height="1.2" fill="#898781"/>
<rect x="327.4" y="344.0" width="7.5" height="12.0" fill="none" stroke="#e66767" stroke-width="1.3"/>
<rect x="341.1" y="344.0" width="7.5" height="12.0" fill="none" stroke="#e66767" stroke-width="1.3"/>
<rect x="354.7" y="344.0" width="7.5" height="12.0" fill="none" stroke="#e66767" stroke-width="1.3"/>
<rect x="368.4" y="344.0" width="7.5" height="12.0" fill="none" stroke="#e66767" stroke-width="1.3"/>
<rect x="382.1" y="344.0" width="7.5" height="12.0" fill="none" stroke="#e66767" stroke-width="1.3"/>
<rect x="395.7" y="344.0" width="7.5" height="12.0" fill="none" stroke="#e66767" stroke-width="1.3"/>
<rect x="409.4" y="344.0" width="7.5" height="1.2" fill="#898781"/>
<rect x="423.1" y="344.0" width="7.5" height="12.0" fill="none" stroke="#e66767" stroke-width="1.3"/>
<rect x="436.7" y="332.0" width="7.5" height="24.0" fill="none" stroke="#e66767" stroke-width="1.3"/>
<rect x="450.4" y="344.0" width="7.5" height="12.0" fill="none" stroke="#e66767" stroke-width="1.3"/>
<rect x="464.1" y="344.0" width="7.5" height="12.0" fill="none" stroke="#e66767" stroke-width="1.3"/>
<rect x="477.7" y="344.0" width="7.5" height="12.0" fill="none" stroke="#e66767" stroke-width="1.3"/>
<rect x="491.4" y="271.9" width="7.5" height="84.1" fill="none" stroke="#e66767" stroke-width="1.3"/>
<rect x="505.1" y="344.0" width="7.5" height="12.0" fill="none" stroke="#e66767" stroke-width="1.3"/>
<rect x="518.7" y="344.0" width="7.5" height="12.0" fill="none" stroke="#e66767" stroke-width="1.3"/>
<rect x="532.4" y="332.0" width="7.5" height="24.0" fill="none" stroke="#e66767" stroke-width="1.3"/>
<rect x="546.1" y="332.0" width="7.5" height="12.0" fill="#008300"/>
<rect x="559.7" y="139.9" width="7.5" height="204.1" fill="none" stroke="#e66767" stroke-width="1.3"/>
<rect x="573.4" y="139.9" width="7.5" height="132.1" fill="#008300"/>
<rect x="587.1" y="211.9" width="7.5" height="60.0" fill="none" stroke="#e66767" stroke-width="1.3"/>
<rect x="600.7" y="211.9" width="7.5" height="132.1" fill="#008300"/>
<rect x="614.4" y="344.0" width="7.5" height="1.2" fill="#898781"/>
<rect x="628.1" y="344.0" width="7.5" height="12.0" fill="none" stroke="#e66767" stroke-width="1.3"/>
<rect x="641.7" y="344.0" width="7.5" height="12.0" fill="none" stroke="#e66767" stroke-width="1.3"/>
<rect x="655.4" y="344.0" width="7.5" height="12.0" fill="none" stroke="#e66767" stroke-width="1.3"/>
<rect x="669.1" y="332.0" width="7.5" height="24.0" fill="none" stroke="#e66767" stroke-width="1.3"/>
<rect x="682.7" y="320.0" width="7.5" height="36.0" fill="none" stroke="#e66767" stroke-width="1.3"/>
<rect x="696.4" y="344.0" width="7.5" height="12.0" fill="none" stroke="#e66767" stroke-width="1.3"/>
<rect x="710.1" y="332.0" width="7.5" height="12.0" fill="none" stroke="#e66767" stroke-width="1.3"/>
<rect x="723.7" y="344.0" width="7.5" height="12.0" fill="none" stroke="#e66767" stroke-width="1.3"/>
<rect x="737.4" y="344.0" width="7.5" height="12.0" fill="none" stroke="#e66767" stroke-width="1.3"/>
<rect x="751.1" y="332.0" width="7.5" height="24.0" fill="none" stroke="#e66767" stroke-width="1.3"/>
<rect x="764.7" y="344.0" width="7.5" height="12.0" fill="none" stroke="#e66767" stroke-width="1.3"/>
<rect x="778.4" y="332.0" width="7.5" height="24.0" fill="none" stroke="#e66767" stroke-width="1.3"/>
<rect x="792.1" y="332.0" width="7.5" height="12.0" fill="#008300"/>
<rect x="805.7" y="79.8" width="7.5" height="276.2" fill="none" stroke="#e66767" stroke-width="1.3"/>
<rect x="819.4" y="344.0" width="7.5" height="12.0" fill="none" stroke="#e66767" stroke-width="1.3"/>
<circle cx="809.5" cy="79.8" r="2" fill="#c3c2b7"/>
<line x1="809.5" y1="79.8" x2="801.5" y2="79.8" stroke="#c3c2b7" stroke-width="1.0"/>
<text x="798.5" y="83.8" font-size="11.0" fill="#c3c2b7" text-anchor="end">23</text>
<circle cx="30.5" cy="356.0" r="2" fill="#c3c2b7"/>
<line x1="30.5" y1="356.0" x2="38.5" y2="356.0" stroke="#c3c2b7" stroke-width="1.0"/>
<text x="41.5" y="350.0" font-size="11.0" fill="#c3c2b7">0</text>
<text x="14.0" y="376.0" font-size="11.0" fill="#c3c2b7">VOL 28 lines</text>
<text x="96.6" y="376.0" font-size="11.0" fill="#c98500">MA5:1,100.4</text>
<text x="173.1" y="376.0" font-size="11.0" fill="#3987e5">MA10:553.4</text>
<text x="14.0" y="395.0" font-size="10" fill="#898781">5,452</text>
<rect x="450.4" y="469.4" width="7.5" height="0.6" fill="none" stroke="#e66767" stroke-width="1.1"/>
<rect x="491.4" y="469.0" width="7.5" height="1.0" fill="none" stroke="#e66767" stroke-width="1.1"/>
<rect x="559.7" y="467.6" width="7.5" height="2.4" fill="none" stroke="#e66767" stroke-width="1.1"/>
<rect x="573.4" y="468.5" width="7.5" height="1.5" fill="#008300"/>
<rect x="587.1" y="467.4" width="7.5" height="2.6" fill="none" stroke="#e66767" stroke-width="1.1"/>
<rect x="805.7" y="388.0" width="7.5" height="82.0" fill="none" stroke="#e66767" stroke-width="1.1"/>
<polyline points="16.8,470.0 30.5,470.0 44.2,470.0 57.8,470.0 71.5,470.0 85.2,470.0 98.8,469.9 112.5,470.0 126.2,470.0 139.8,470.0 153.5,470.0 167.2,470.0 180.8,470.0 194.5,470.0 208.2,470.0 221.8,470.0 235.5,470.0 249.2,470.0 262.8,470.0 276.5,470.0 290.2,470.0 303.8,470.0 317.5,470.0 331.2,470.0 344.8,470.0 358.5,470.0 372.2,470.0 385.8,470.0 399.5,470.0 413.2,470.0 426.8,470.0 440.5,469.9 454.2,469.9 467.8,469.9 481.5,469.9 495.2,469.8 508.8,469.7 522.5,469.7 536.2,469.7 549.8,469.7 563.5,469.5 577.2,469.4 590.8,469.2 604.5,469.2 618.2,469.2 631.8,469.3 645.5,469.3 659.2,469.3 672.8,469.3 686.5,469.3 700.2,469.5 713.8,469.7 727.5,469.9 741.2,469.9 754.8,469.9 768.5,469.9 782.2,469.9 795.8,469.9 809.5,461.7 823.2,461.7" fill="none" stroke="#3987e5" stroke-width="1.5" stroke-linejoin="round" stroke-linecap="round"/>
<polyline points="16.8,470.0 30.5,469.9 44.2,469.9 57.8,469.9 71.5,469.9 85.2,470.0 98.8,470.0 112.5,470.0 126.2,470.0 139.8,470.0 153.5,470.0 167.2,470.0 180.8,470.0 194.5,470.0 208.2,470.0 221.8,470.0 235.5,470.0 249.2,470.0 262.8,470.0 276.5,470.0 290.2,470.0 303.8,470.0 317.5,470.0 331.2,470.0 344.8,470.0 358.5,470.0 372.2,469.9 385.8,469.9 399.5,469.9 413.2,469.9 426.8,469.9 440.5,469.9 454.2,469.8 467.8,469.8 481.5,469.8 495.2,469.6 508.8,469.6 522.5,469.7 536.2,469.7 549.8,469.7 563.5,469.4 577.2,469.2 590.8,468.7 604.5,468.7 618.2,468.7 631.8,469.1 645.5,469.4 659.2,469.9 672.8,469.9 686.5,469.9 700.2,470.0 713.8,470.0 727.5,470.0 741.2,469.9 754.8,469.9 768.5,469.8 782.2,469.8 795.8,469.8 809.5,453.5 823.2,453.4" fill="none" stroke="#c98500" stroke-width="1.5" stroke-linejoin="round" stroke-linecap="round"/>
</svg>