<svg xmlns="http://www.w3.org/2000/svg" viewBox="0 0 840 496" width="840" height="496" font-family="-apple-system,&#39;Segoe UI&#39;,system-ui,sans-serif" role="img" aria-label="practical-tutorials/project-based-learning candlestick chart">
<text x="14.0" y="20.0" font-size="15" fill="#0b0b0b" font-weight="650">practical-tutorials/project-based-learning</text>
<text x="364.5" y="20.0" font-size="11.5" fill="#52514e">daily · new stars, volume = new forks</text>
<text x="805.8" y="20.0" font-size="11.0" fill="#52514e">fall</text>
<rect x="791" y="10" width="9" height="12" fill="#008300"/>
<text x="750.6" y="20.0" font-size="11.0" fill="#52514e">rise</text>
<rect x="736" y="10" width="9" height="12" fill="none" stroke="#e34948" stroke-width="1.5"/>
<text x="14.0" y="38.0" font-size="11.0" fill="#898781">last 49 days · +7,498 stars · +837 forks · updated 2026-07-19</text>
<rect x="10" y="66" width="820" height="290" fill="none" stroke="#e1e0d9"/>
<rect x="10" y="384" width="820" height="86" fill="none" stroke="#e1e0d9"/>
<text x="38.0" y="490.0" font-size="11.0" fill="#898781" text-anchor="middle">2026-06</text>
<line x1="512.0" y1="66.0" x2="512.0" y2="356.0" stroke="#e1e0d9" stroke-width="1.0"/>
<line x1="512.0" y1="384.0" x2="512.0" y2="470.0" stroke="#e1e0d9" stroke-width="1.0"/>
<text x="520.4" y="490.0" font-size="11.0" fill="#898781" text-anchor="middle">2026-07</text>
<text x="14.0" y="58.0" font-size="11.0" fill="#52514e">BOLL(20,2)</text>
<text x="84.5" y="58.0" font-size="11.0" fill="#eda100">UP:209.5</text>
<text x="142.9" y="58.0" font-size="11.0" fill="#2a78d6">MID:134.8</text>
<text x="207.4" y="58.0" font-size="11.0" fill="#e87ba4">LOW:60.1</text>
<text x="265.8" y="58.0" font-size="11.0" fill="#4a3aa7">MA7:144.1</text>
<line x1="10.0" y1="356.0" x2="830.0" y2="356.0" stroke="#e1e0d9" stroke-width="1.0"/>
<text x="14.0" y="353.0" font-size="11.0" fill="#898781">0</text>
<line x1="10.0" y1="213.6" x2="830.0" y2="213.6" stroke="#e1e0d9" stroke-width="1.0"/>
<text x="14.0" y="210.6" font-size="11.0" fill="#898781">200</text>
<line x1="10.0" y1="71.3" x2="830.0" y2="71.3" stroke="#e1e0d9" stroke-width="1.0"/>
<text x="14.0" y="68.3" font-size="11.0" fill="#898781">400</text>
<polyline points="336.3,144.5 353.1,144.7 369.8,144.6 386.5,144.7 403.3,144.6 420.0,146.3 436.7,146.4 453.5,146.3 470.2,146.2 486.9,146.2 503.7,148.1 520.4,145.4 537.1,145.4 553.9,145.6 570.6,189.0 587.3,211.0 604.1,216.8 620.8,207.6 637.6,209.7 654.3,209.6 671.0,209.8 687.8,209.7 704.5,211.3 721.2,211.9 738.0,212.8 754.7,212.4 771.4,206.3 788.2,206.4 804.9,206.4 821.6,206.9" fill="none" stroke="#eda100" stroke-width="1.5" stroke-linejoin="round" stroke-linecap="round"/>
<polyline points="336.3,230.8 353.1,232.8 369.8,232.2 386.5,231.7 403.3,231.4 420.0,233.0 436.7,233.2 453.5,233.4 470.2,233.8 486.9,233.8 503.7,235.3 520.4,233.9 537.1,233.0 553.9,234.8 570.6,244.6 587.3,248.6 604.1,250.7 620.8,255.4 637.6,257.7 654.3,258.1 671.0,259.3 687.8,258.8 704.5,260.1 721.2,260.6 738.0,261.0 754.7,260.9 771.4,258.8 788.2,259.0 804.9,259.8 821.6,260.0" fill="none" stroke="#2a78d6" stroke-width="1.5" stroke-linejoin="round" stroke-linecap="round"/>
<polyline points="336.3,317.0 353.1,320.9 369.8,319.9 386.5,318.8 403.3,318.2 420.0,319.6 436.7,320.0 453.5,320.4 470.2,321.5 486.9,321.5 503.7,322.5 520.4,322.4 537.1,320.5 553.9,324.1 570.6,300.1 587.3,286.3 604.1,284.6 620.8,303.2 637.6,305.7 654.3,306.5 671.0,308.7 687.8,307.9 704.5,308.9 721.2,309.3 738.0,309.3 754.7,309.4 771.4,311.3 788.2,311.7 804.9,313.2 821.6,313.2" fill="none" stroke="#e87ba4" stroke-width="1.5" stroke-linejoin="round" stroke-linecap="round"/>
<polyline points="118.8,246.6 135.5,250.2 152.2,249.0 169.0,241.9 185.7,238.8 202.4,246.3 219.2,243.8 235.9,218.0 252.7,203.5 269.4,198.7 286.1,202.0 302.9,202.7 319.6,203.0 336.3,206.1 353.1,233.6 369.8,246.3 386.5,252.0 403.3,253.2 420.0,254.6 436.7,252.9 453.5,254.0 470.2,253.1 486.9,253.6 503.7,252.1 520.4,245.9 537.1,246.3 553.9,248.6 570.6,250.0 587.3,245.7 604.1,246.8 620.8,259.3 637.6,270.8 654.3,274.8 671.0,275.8 687.8,274.2 704.5,279.1 721.2,280.3 738.0,269.2 754.7,263.7 771.4,255.0 788.2,253.4 804.9,255.9 821.6,253.4" fill="none" stroke="#4a3aa7" stroke-width="1.5" stroke-linejoin="round" stroke-linecap="round"/>
<rect x="13.8" y="231.4" width="9.2" height="124.6" fill="none" stroke="#e34948" stroke-width="1.3"/>
<rect x="30.5" y="231.4" width="9.2" height="22.8" fill="#008300"/>
<rect x="47.2" y="254.2" width="9.2" height="8.5" fill="#008300"/>
<rect x="64.0" y="251.4" width="9.2" height="11.4" fill="none" stroke="#e34948" stroke-width="1.3"/>
<rect x="80.7" y="213.6" width="9.2" height="37.7" fill="none" stroke="#e34948" stroke-width="1.3"/>
<rect x="97.4" y="213.6" width="9.2" height="38.4" fill="#008300"/>
<rect x="114.2" y="252.1" width="9.2" height="8.5" fill="#008300"/>
<rect x="130.9" y="256.3" width="9.2" height="4.3" fill="none" stroke="#e34948" stroke-width="1.3"/>
<rect x="147.6" y="246.4" width="9.2" height="10.0" fill="none" stroke="#e34948" stroke-width="1.3"/>
<rect x="164.4" y="212.9" width="9.2" height="33.5" fill="none" stroke="#e34948" stroke-width="1.3"/>
<rect x="181.1" y="212.9" width="9.2" height="16.4" fill="#008300"/>
<rect x="197.8" y="229.3" width="9.2" height="37.0" fill="#008300"/>
<rect x="214.6" y="235.0" width="9.2" height="31.3" fill="none" stroke="#e34948" stroke-width="1.3"/>
<rect x="231.3" y="79.8" width="9.2" height="155.2" fill="none" stroke="#e34948" stroke-width="1.3"/>
<rect x="248.1" y="79.8" width="9.2" height="74.7" fill="#008300"/>
<rect x="264.8" y="154.6" width="9.2" height="58.4" fill="#008300"/>
<rect x="281.5" y="212.9" width="9.2" height="22.8" fill="#008300"/>
<rect x="298.3" y="235.0" width="9.2" height="1.2" fill="none" stroke="#e34948" stroke-width="1.3"/>
<rect x="315.0" y="235.0" width="9.2" height="33.5" fill="#008300"/>
<rect x="331.7" y="256.3" width="9.2" height="12.1" fill="none" stroke="#e34948" stroke-width="1.3"/>
<rect x="348.5" y="256.3" width="9.2" height="15.7" fill="#008300"/>
<rect x="365.2" y="243.5" width="9.2" height="28.5" fill="none" stroke="#e34948" stroke-width="1.3"/>
<rect x="381.9" y="243.5" width="9.2" height="9.3" fill="#008300"/>
<rect x="398.7" y="244.2" width="9.2" height="8.5" fill="none" stroke="#e34948" stroke-width="1.3"/>
<rect x="415.4" y="244.2" width="9.2" height="1.2" fill="#008300"/>
<rect x="432.1" y="245.0" width="9.2" height="11.4" fill="#008300"/>
<rect x="448.9" y="256.3" width="9.2" height="7.8" fill="#008300"/>
<rect x="465.6" y="264.2" width="9.2" height="1.4" fill="#008300"/>
<rect x="482.3" y="247.1" width="9.2" height="18.5" fill="none" stroke="#e34948" stroke-width="1.3"/>
<rect x="499.1" y="242.8" width="9.2" height="4.3" fill="none" stroke="#e34948" stroke-width="1.3"/>
<rect x="515.8" y="200.1" width="9.2" height="42.7" fill="none" stroke="#e34948" stroke-width="1.3"/>
<rect x="532.5" y="200.1" width="9.2" height="47.7" fill="#008300"/>
<rect x="549.3" y="247.8" width="9.2" height="24.9" fill="#008300"/>
<rect x="566.0" y="272.7" width="9.2" height="1.4" fill="#008300"/>
<rect x="582.7" y="235.7" width="9.2" height="38.4" fill="none" stroke="#e34948" stroke-width="1.3"/>
<rect x="599.5" y="235.7" width="9.2" height="18.5" fill="#008300"/>
<rect x="616.2" y="254.2" width="9.2" height="76.2" fill="#008300"/>
<rect x="632.9" y="280.5" width="9.2" height="49.8" fill="none" stroke="#e34948" stroke-width="1.3"/>
<rect x="649.7" y="275.6" width="9.2" height="5.0" fill="none" stroke="#e34948" stroke-width="1.3"/>
<rect x="666.4" y="275.6" width="9.2" height="5.0" fill="#008300"/>
<rect x="683.2" y="262.8" width="9.2" height="17.8" fill="none" stroke="#e34948" stroke-width="1.3"/>
<rect x="699.9" y="262.8" width="9.2" height="7.1" fill="#008300"/>
<rect x="716.6" y="262.0" width="9.2" height="7.8" fill="none" stroke="#e34948" stroke-width="1.3"/>
<rect x="733.4" y="253.5" width="9.2" height="8.5" fill="none" stroke="#e34948" stroke-width="1.3"/>
<rect x="750.1" y="241.4" width="9.2" height="12.1" fill="none" stroke="#e34948" stroke-width="1.3"/>
<rect x="766.8" y="215.1" width="9.2" height="26.3" fill="none" stroke="#e34948" stroke-width="1.3"/>
<rect x="783.6" y="215.1" width="9.2" height="54.1" fill="#008300"/>
<rect x="800.3" y="269.2" width="9.2" height="11.4" fill="#008300"/>
<rect x="817.0" y="252.1" width="9.2" height="28.5" fill="none" stroke="#e34948" stroke-width="1.3"/>
<circle cx="235.9" cy="79.8" r="2" fill="#52514e"/>
<line x1="235.9" y1="79.8" x2="243.9" y2="79.8" stroke="#52514e" stroke-width="1.0"/>
<text x="246.9" y="83.8" font-size="11.0" fill="#52514e">388</text>
<circle cx="18.4" cy="356.0" r="2" fill="#52514e"/>
<line x1="18.4" y1="356.0" x2="26.4" y2="356.0" stroke="#52514e" stroke-width="1.0"/>
<text x="29.4" y="350.0" font-size="11.0" fill="#52514e">0</text>
<text x="14.0" y="376.0" font-size="11.0" fill="#52514e">VOL 7 forks</text>
<text x="90.6" y="376.0" font-size="11.0" fill="#eda100">MA5:15.6</text>
<text x="149.0" y="376.0" font-size="11.0" fill="#2a78d6">MA10:12.5</text>
<text x="14.0" y="395.0" font-size="10" fill="#898781">30</text>
<rect x="13.8" y="420.8" width="9.2" height="49.2" fill="none" stroke="#e34948" stroke-width="1.1"/>
<rect x="30.5" y="426.3" width="9.2" height="43.7" fill="#008300"/>
<rect x="47.2" y="420.8" width="9.2" height="49.2" fill="#008300"/>
<rect x="64.0" y="429.0" width="9.2" height="41.0" fill="none" stroke="#e34948" stroke-width="1.1"/>
<rect x="80.7" y="407.1" width="9.2" height="62.9" fill="none" stroke="#e34948" stroke-width="1.1"/>
<rect x="97.4" y="423.5" width="9.2" height="46.5" fill="#008300"/>
<rect x="114.2" y="431.7" width="9.2" height="38.3" fill="#008300"/>
<rect x="130.9" y="445.4" width="9.2" height="24.6" fill="none" stroke="#e34948" stroke-width="1.1"/>
<rect x="147.6" y="407.1" width="9.2" height="62.9" fill="none" stroke="#e34948" stroke-width="1.1"/>
<rect x="164.4" y="409.9" width="9.2" height="60.1" fill="none" stroke="#e34948" stroke-width="1.1"/>
<rect x="181.1" y="393.5" width="9.2" height="76.5" fill="#008300"/>
<rect x="197.8" y="409.9" width="9.2" height="60.1" fill="#008300"/>
<rect x="214.6" y="423.5" width="9.2" height="46.5" fill="none" stroke="#e34948" stroke-width="1.1"/>
<rect x="231.3" y="404.4" width="9.2" height="65.6" fill="none" stroke="#e34948" stroke-width="1.1"/>
<rect x="248.1" y="396.2" width="9.2" height="73.8" fill="#008300"/>
<rect x="264.8" y="404.4" width="9.2" height="65.6" fill="#008300"/>
<rect x="281.5" y="401.7" width="9.2" height="68.3" fill="#008300"/>
<rect x="298.3" y="401.7" width="9.2" height="68.3" fill="none" stroke="#e34948" stroke-width="1.1"/>
<rect x="315.0" y="445.4" width="9.2" height="24.6" fill="#008300"/>
<rect x="331.7" y="439.9" width="9.2" height="30.1" fill="none" stroke="#e34948" stroke-width="1.1"/>
<rect x="348.5" y="426.3" width="9.2" height="43.7" fill="#008300"/>
<rect x="365.2" y="412.6" width="9.2" height="57.4" fill="none" stroke="#e34948" stroke-width="1.1"/>
<rect x="381.9" y="434.5" width="9.2" height="35.5" fill="#008300"/>
<rect x="398.7" y="434.5" width="9.2" height="35.5" fill="none" stroke="#e34948" stroke-width="1.1"/>
<rect x="415.4" y="423.5" width="9.2" height="46.5" fill="#008300"/>
<rect x="432.1" y="412.6" width="9.2" height="57.4" fill="#008300"/>
<rect x="448.9" y="426.3" width="9.2" height="43.7" fill="#008300"/>
<rect x="465.6" y="423.5" width="9.2" height="46.5" fill="#008300"/>
<rect x="482.3" y="420.8" width="9.2" height="49.2" fill="none" stroke="#e34948" stroke-width="1.1"/>
<rect x="499.1" y="388.0" width="9.2" height="82.0" fill="none" stroke="#e34948" stroke-width="1.1"/>
<rect x="515.8" y="407.1" width="9.2" height="62.9" fill="none" stroke="#e34948" stroke-width="1.1"/>
<rect x="532.5" y="420.8" width="9.2" height="49.2" fill="#008300"/>
<rect x="549.3" y="431.7" width="9.2" height="38.3" fill="#008300"/>
<rect x="566.0" y="434.5" width="9.2" height="35.5" fill="#008300"/>
<rect x="582.7" y="420.8" width="9.2" height="49.2" fill="none" stroke="#e34948" stroke-width="1.1"/>
<rect x="599.5" y="415.3" width="9.2" height="54.7" fill="#008300"/>
<rect x="616.2" y="450.9" width="9.2" height="19.1" fill="#008300"/>
<rect x="632.9" y="429.0" width="9.2" height="41.0" fill="none" stroke="#e34948" stroke-width="1.1"/>
<rect x="649.7" y="429.0" width="9.2" height="41.0" fill="none" stroke="#e34948" stroke-width="1.1"/>
<rect x="666.4" y="461.8" width="9.2" height="8.2" fill="#008300"/>
<rect x="683.2" y="434.5" width="9.2" height="35.5" fill="none" stroke="#e34948" stroke-width="1.1"/>
<rect x="699.9" y="448.1" width="9.2" height="21.9" fill="#008300"/>
<rect x="716.6" y="437.2" width="9.2" height="32.8" fill="none" stroke="#e34948" stroke-width="1.1"/>
<rect x="733.4" y="439.9" width="9.2" height="30.1" fill="none" stroke="#e34948" stroke-width="1.1"/>
<rect x="750.1" y="407.1" width="9.2" height="62.9" fill="none" stroke="#e34948" stroke-width="1.1"/>
<rect x="766.8" y="426.3" width="9.2" height="43.7" fill="none" stroke="#e34948" stroke-width="1.1"/>
<rect x="783.6" y="415.3" width="9.2" height="54.7" fill="#008300"/>
<rect x="800.3" y="437.2" width="9.2" height="32.8" fill="#008300"/>
<rect x="817.0" y="450.9" width="9.2" height="19.1" fill="none" stroke="#e34948" stroke-width="1.1"/>
<polyline points="169.0,422.2 185.7,419.4 202.4,417.8 219.2,418.1 235.9,415.6 252.7,414.5 269.4,412.6 286.1,409.6 302.9,405.2 319.6,409.0 336.3,412.1 353.1,415.3 369.8,415.6 386.5,416.7 403.3,419.7 420.0,422.4 436.7,423.3 453.5,425.7 470.2,427.9 486.9,425.4 503.7,420.3 520.4,418.3 537.1,419.2 553.9,418.9 570.6,418.9 587.3,418.6 604.1,418.9 620.8,421.3 637.6,421.9 654.3,422.7 671.0,430.1 687.8,432.8 704.5,435.6 721.2,436.1 738.0,436.7 754.7,435.3 771.4,436.4 788.2,432.8 804.9,433.6 821.6,435.8" fill="none" stroke="#2a78d6" stroke-width="1.5" stroke-linejoin="round" stroke-linecap="round"/>
<polyline points="85.3,420.8 102.0,421.3 118.8,422.4 135.5,427.4 152.2,423.0 169.0,423.5 185.7,417.5 202.4,413.1 219.2,408.8 235.9,408.2 252.7,405.5 269.4,407.7 286.1,406.0 302.9,401.7 319.6,409.9 336.3,418.6 353.1,423.0 369.8,425.2 386.5,431.7 403.3,429.5 420.0,426.3 436.7,423.5 453.5,426.3 470.2,424.1 486.9,421.3 503.7,414.2 520.4,413.1 537.1,412.1 553.9,413.7 570.6,416.4 587.3,423.0 604.1,424.6 620.8,430.6 637.6,430.1 654.3,429.0 671.0,437.2 687.8,441.0 704.5,440.5 721.2,442.1 738.0,444.3 754.7,433.4 771.4,431.7 788.2,425.2 804.9,425.2 821.6,427.4" fill="none" stroke="#eda100" stroke-width="1.5" stroke-linejoin="round" stroke-linecap="round"/>
</svg>