<svg xmlns="http://www.w3.org/2000/svg" viewBox="0 0 840 496" width="840" height="496" font-family="-apple-system,&#39;Segoe UI&#39;,system-ui,sans-serif" role="img" aria-label="practical-tutorials/project-based-learning candlestick chart">
<text x="14.0" y="20.0" font-size="15" fill="#ffffff" font-weight="650">practical-tutorials/project-based-learning</text>
<text x="364.5" y="20.0" font-size="11.5" fill="#c3c2b7">daily · new stars, volume = new forks</text>
<text x="805.8" y="20.0" font-size="11.0" fill="#c3c2b7">fall</text>
<rect x="791" y="10" width="9" height="12" fill="#008300"/>
<text x="750.6" y="20.0" font-size="11.0" fill="#c3c2b7">rise</text>
<rect x="736" y="10" width="9" height="12" fill="none" stroke="#e66767" stroke-width="1.5"/>
<text x="14.0" y="38.0" font-size="11.0" fill="#898781">last 37 days · +5,912 stars · +682 forks · updated 2026-07-07</text>
<rect x="10" y="66" width="820" height="290" fill="none" stroke="#2c2c2a"/>
<rect x="10" y="384" width="820" height="86" fill="none" stroke="#2c2c2a"/>
<text x="38.0" y="490.0" font-size="11.0" fill="#898781" text-anchor="middle">2026-06</text>
<line x1="674.9" y1="66.0" x2="674.9" y2="356.0" stroke="#2c2c2a" stroke-width="1.0"/>
<line x1="674.9" y1="384.0" x2="674.9" y2="470.0" stroke="#2c2c2a" stroke-width="1.0"/>
<text x="685.9" y="490.0" font-size="11.0" fill="#898781" text-anchor="middle">2026-07</text>
<text x="14.0" y="58.0" font-size="11.0" fill="#c3c2b7">BOLL(20,2)</text>
<text x="84.5" y="58.0" font-size="11.0" fill="#c98500">UP:208.5</text>
<text x="142.9" y="58.0" font-size="11.0" fill="#3987e5">MID:141.3</text>
<text x="207.4" y="58.0" font-size="11.0" fill="#d55181">LOW:74.1</text>
<text x="265.8" y="58.0" font-size="11.0" fill="#9085e9">MA7:135.9</text>
<line x1="10.0" y1="356.0" x2="830.0" y2="356.0" stroke="#2c2c2a" stroke-width="1.0"/>
<text x="14.0" y="353.0" font-size="11.0" fill="#898781">0</text>
<line x1="10.0" y1="213.6" x2="830.0" y2="213.6" stroke="#2c2c2a" stroke-width="1.0"/>
<text x="14.0" y="210.6" font-size="11.0" fill="#898781">200</text>
<line x1="10.0" y1="71.3" x2="830.0" y2="71.3" stroke="#2c2c2a" stroke-width="1.0"/>
<text x="14.0" y="68.3" font-size="11.0" fill="#898781">400</text>
<polyline points="442.2,144.5 464.3,144.7 486.5,144.6 508.6,144.7 530.8,144.6 553.0,146.3 575.1,146.4 597.3,146.3 619.5,146.2 641.6,146.2 663.8,148.1 685.9,145.4 708.1,145.4 730.3,145.6 752.4,189.0 774.6,211.0 796.8,216.8 818.9,207.6" fill="none" stroke="#c98500" stroke-width="1.5" stroke-linejoin="round" stroke-linecap="round"/>
<polyline points="442.2,230.8 464.3,232.8 486.5,232.2 508.6,231.7 530.8,231.4 553.0,233.0 575.1,233.2 597.3,233.4 619.5,233.8 641.6,233.8 663.8,235.3 685.9,233.9 708.1,233.0 730.3,234.8 752.4,244.6 774.6,248.6 796.8,250.7 818.9,255.4" fill="none" stroke="#3987e5" stroke-width="1.5" stroke-linejoin="round" stroke-linecap="round"/>
<polyline points="442.2,317.0 464.3,320.9 486.5,319.9 508.6,318.8 530.8,318.2 553.0,319.6 575.1,320.0 597.3,320.4 619.5,321.5 641.6,321.5 663.8,322.5 685.9,322.4 708.1,320.5 730.3,324.1 752.4,300.1 774.6,286.3 796.8,284.6 818.9,303.2" fill="none" stroke="#d55181" stroke-width="1.5" stroke-linejoin="round" stroke-linecap="round"/>
<polyline points="154.1,246.6 176.2,250.2 198.4,249.0 220.5,241.9 242.7,238.8 264.9,246.3 287.0,243.8 309.2,218.0 331.4,203.5 353.5,198.7 375.7,202.0 397.8,202.7 420.0,203.0 442.2,206.1 464.3,233.6 486.5,246.3 508.6,252.0 530.8,253.2 553.0,254.6 575.1,252.9 597.3,254.0 619.5,253.1 641.6,253.6 663.8,252.1 685.9,245.9 708.1,246.3 730.3,248.6 752.4,250.0 774.6,245.7 796.8,246.8 818.9,259.3" fill="none" stroke="#9085e9" stroke-width="1.5" stroke-linejoin="round" stroke-linecap="round"/>
<rect x="15.0" y="231.4" width="12.2" height="124.6" fill="none" stroke="#e66767" stroke-width="1.3"/>
<rect x="37.1" y="231.4" width="12.2" height="22.8" fill="#008300"/>
<rect x="59.3" y="254.2" width="12.2" height="8.5" fill="#008300"/>
<rect x="81.5" y="251.4" width="12.2" height="11.4" fill="none" stroke="#e66767" stroke-width="1.3"/>
<rect x="103.6" y="213.6" width="12.2" height="37.7" fill="none" stroke="#e66767" stroke-width="1.3"/>
<rect x="125.8" y="213.6" width="12.2" height="38.4" fill="#008300"/>
<rect x="148.0" y="252.1" width="12.2" height="8.5" fill="#008300"/>
<rect x="170.1" y="256.3" width="12.2" height="4.3" fill="none" stroke="#e66767" stroke-width="1.3"/>
<rect x="192.3" y="246.4" width="12.2" height="10.0" fill="none" stroke="#e66767" stroke-width="1.3"/>
<rect x="214.4" y="212.9" width="12.2" height="33.5" fill="none" stroke="#e66767" stroke-width="1.3"/>
<rect x="236.6" y="212.9" width="12.2" height="16.4" fill="#008300"/>
<rect x="258.8" y="229.3" width="12.2" height="37.0" fill="#008300"/>
<rect x="280.9" y="235.0" width="12.2" height="31.3" fill="none" stroke="#e66767" stroke-width="1.3"/>
<rect x="303.1" y="79.8" width="12.2" height="155.2" fill="none" stroke="#e66767" stroke-width="1.3"/>
<rect x="325.3" y="79.8" width="12.2" height="74.7" fill="#008300"/>
<rect x="347.4" y="154.6" width="12.2" height="58.4" fill="#008300"/>
<rect x="369.6" y="212.9" width="12.2" height="22.8" fill="#008300"/>
<rect x="391.7" y="235.0" width="12.2" height="1.2" fill="none" stroke="#e66767" stroke-width="1.3"/>
<rect x="413.9" y="235.0" width="12.2" height="33.5" fill="#008300"/>
<rect x="436.1" y="256.3" width="12.2" height="12.1" fill="none" stroke="#e66767" stroke-width="1.3"/>
<rect x="458.2" y="256.3" width="12.2" height="15.7" fill="#008300"/>
<rect x="480.4" y="243.5" width="12.2" height="28.5" fill="none" stroke="#e66767" stroke-width="1.3"/>
<rect x="502.6" y="243.5" width="12.2" height="9.3" fill="#008300"/>
<rect x="524.7" y="244.2" width="12.2" height="8.5" fill="none" stroke="#e66767" stroke-width="1.3"/>
<rect x="546.9" y="244.2" width="12.2" height="1.2" fill="#008300"/>
<rect x="569.0" y="245.0" width="12.2" height="11.4" fill="#008300"/>
<rect x="591.2" y="256.3" width="12.2" height="7.8" fill="#008300"/>
<rect x="613.4" y="264.2" width="12.2" height="1.4" fill="#008300"/>
<rect x="635.5" y="247.1" width="12.2" height="18.5" fill="none" stroke="#e66767" stroke-width="1.3"/>
<rect x="657.7" y="242.8" width="12.2" height="4.3" fill="none" stroke="#e66767" stroke-width="1.3"/>
<rect x="679.9" y="200.1" width="12.2" height="42.7" fill="none" stroke="#e66767" stroke-width="1.3"/>
<rect x="702.0" y="200.1" width="12.2" height="47.7" fill="#008300"/>
<rect x="724.2" y="247.8" width="12.2" height="24.9" fill="#008300"/>
<rect x="746.3" y="272.7" width="12.2" height="1.4" fill="#008300"/>
<rect x="768.5" y="235.7" width="12.2" height="38.4" fill="none" stroke="#e66767" stroke-width="1.3"/>
<rect x="790.7" y="235.7" width="12.2" height="18.5" fill="#008300"/>
<rect x="812.8" y="254.2" width="12.2" height="76.2" fill="#008300"/>
<circle cx="309.2" cy="79.8" r="2" fill="#c3c2b7"/>
<line x1="309.2" y1="79.8" x2="317.2" y2="79.8" stroke="#c3c2b7" stroke-width="1.0"/>
<text x="320.2" y="83.8" font-size="11.0" fill="#c3c2b7">388</text>
<circle cx="21.1" cy="356.0" r="2" fill="#c3c2b7"/>
<line x1="21.1" y1="356.0" x2="29.1" y2="356.0" stroke="#c3c2b7" stroke-width="1.0"/>
<text x="32.1" y="350.0" font-size="11.0" fill="#c3c2b7">0</text>
<text x="14.0" y="376.0" font-size="11.0" fill="#c3c2b7">VOL 7 forks</text>
<text x="90.5" y="376.0" font-size="11.0" fill="#c98500">MA5:14.4</text>
<text x="148.9" y="376.0" font-size="11.0" fill="#3987e5">MA10:17.8</text>
<text x="14.0" y="395.0" font-size="10" fill="#898781">30</text>
<rect x="15.0" y="420.8" width="12.2" height="49.2" fill="none" stroke="#e66767" stroke-width="1.1"/>
<rect x="37.1" y="426.3" width="12.2" height="43.7" fill="#008300"/>
<rect x="59.3" y="420.8" width="12.2" height="49.2" fill="#008300"/>
<rect x="81.5" y="429.0" width="12.2" height="41.0" fill="none" stroke="#e66767" stroke-width="1.1"/>
<rect x="103.6" y="407.1" width="12.2" height="62.9" fill="none" stroke="#e66767" stroke-width="1.1"/>
<rect x="125.8" y="423.5" width="12.2" height="46.5" fill="#008300"/>
<rect x="148.0" y="431.7" width="12.2" height="38.3" fill="#008300"/>
<rect x="170.1" y="445.4" width="12.2" height="24.6" fill="none" stroke="#e66767" stroke-width="1.1"/>
<rect x="192.3" y="407.1" width="12.2" height="62.9" fill="none" stroke="#e66767" stroke-width="1.1"/>
<rect x="214.4" y="409.9" width="12.2" height="60.1" fill="none" stroke="#e66767" stroke-width="1.1"/>
<rect x="236.6" y="393.5" width="12.2" height="76.5" fill="#008300"/>
<rect x="258.8" y="409.9" width="12.2" height="60.1" fill="#008300"/>
<rect x="280.9" y="423.5" width="12.2" height="46.5" fill="none" stroke="#e66767" stroke-width="1.1"/>
<rect x="303.1" y="404.4" width="12.2" height="65.6" fill="none" stroke="#e66767" stroke-width="1.1"/>
<rect x="325.3" y="396.2" width="12.2" height="73.8" fill="#008300"/>
<rect x="347.4" y="404.4" width="12.2" height="65.6" fill="#008300"/>
<rect x="369.6" y="401.7" width="12.2" height="68.3" fill="#008300"/>
<rect x="391.7" y="401.7" width="12.2" height="68.3" fill="none" stroke="#e66767" stroke-width="1.1"/>
<rect x="413.9" y="445.4" width="12.2" height="24.6" fill="#008300"/>
<rect x="436.1" y="439.9" width="12.2" height="30.1" fill="none" stroke="#e66767" stroke-width="1.1"/>
<rect x="458.2" y="426.3" width="12.2" height="43.7" fill="#008300"/>
<rect x="480.4" y="412.6" width="12.2" height="57.4" fill="none" stroke="#e66767" stroke-width="1.1"/>
<rect x="502.6" y="434.5" width="12.2" height="35.5" fill="#008300"/>
<rect x="524.7" y="434.5" width="12.2" height="35.5" fill="none" stroke="#e66767" stroke-width="1.1"/>
<rect x="546.9" y="423.5" width="12.2" height="46.5" fill="#008300"/>
<rect x="569.0" y="412.6" width="12.2" height="57.4" fill="#008300"/>
<rect x="591.2" y="426.3" width="12.2" height="43.7" fill="#008300"/>
<rect x="613.4" y="423.5" width="12.2" height="46.5" fill="#008300"/>
<rect x="635.5" y="420.8" width="12.2" height="49.2" fill="none" stroke="#e66767" stroke-width="1.1"/>
<rect x="657.7" y="388.0" width="12.2" height="82.0" fill="none" stroke="#e66767" stroke-width="1.1"/>
<rect x="679.9" y="407.1" width="12.2" height="62.9" fill="none" stroke="#e66767" stroke-width="1.1"/>
<rect x="702.0" y="420.8" width="12.2" height="49.2" fill="#008300"/>
<rect x="724.2" y="431.7" width="12.2" height="38.3" fill="#008300"/>
<rect x="746.3" y="434.5" width="12.2" height="35.5" fill="#008300"/>
<rect x="768.5" y="420.8" width="12.2" height="49.2" fill="none" stroke="#e66767" stroke-width="1.1"/>
<rect x="790.7" y="415.3" width="12.2" height="54.7" fill="#008300"/>
<rect x="812.8" y="450.9" width="12.2" height="19.1" fill="#008300"/>
<polyline points="220.5,422.2 242.7,419.4 264.9,417.8 287.0,418.1 309.2,415.6 331.4,414.5 353.5,412.6 375.7,409.6 397.8,405.2 420.0,409.0 442.2,412.1 464.3,415.3 486.5,415.6 508.6,416.7 530.8,419.7 553.0,422.4 575.1,423.3 597.3,425.7 619.5,427.9 641.6,425.4 663.8,420.3 685.9,418.3 708.1,419.2 730.3,418.9 752.4,418.9 774.6,418.6 796.8,418.9 818.9,421.3" fill="none" stroke="#3987e5" stroke-width="1.5" stroke-linejoin="round" stroke-linecap="round"/>
<polyline points="109.7,420.8 131.9,421.3 154.1,422.4 176.2,427.4 198.4,423.0 220.5,423.5 242.7,417.5 264.9,413.1 287.0,408.8 309.2,408.2 331.4,405.5 353.5,407.7 375.7,406.0 397.8,401.7 420.0,409.9 442.2,418.6 464.3,423.0 486.5,425.2 508.6,431.7 530.8,429.5 553.0,426.3 575.1,423.5 597.3,426.3 619.5,424.1 641.6,421.3 663.8,414.2 685.9,413.1 708.1,412.1 730.3,413.7 752.4,416.4 774.6,423.0 796.8,424.6 818.9,430.6" fill="none" stroke="#c98500" stroke-width="1.5" stroke-linejoin="round" stroke-linecap="round"/>
</svg>