<svg xmlns="http://www.w3.org/2000/svg" viewBox="0 0 840 496" width="840" height="496" font-family="-apple-system,&#39;Segoe UI&#39;,system-ui,sans-serif" role="img" aria-label="practical-tutorials/project-based-learning candlestick chart">
<text x="14.0" y="20.0" font-size="15" fill="#0b0b0b" font-weight="650">practical-tutorials/project-based-learning</text>
<text x="364.5" y="20.0" font-size="11.5" fill="#52514e">daily · new stars, volume = new forks</text>
<text x="805.8" y="20.0" font-size="11.0" fill="#52514e">fall</text>
<rect x="791" y="10" width="9" height="12" fill="#008300"/>
<text x="750.6" y="20.0" font-size="11.0" fill="#52514e">rise</text>
<rect x="736" y="10" width="9" height="12" fill="none" stroke="#e34948" stroke-width="1.5"/>
<text x="14.0" y="38.0" font-size="11.0" fill="#898781">last 41 days · +6,368 stars · +728 forks · updated 2026-07-11</text>
<rect x="10" y="66" width="820" height="290" fill="none" stroke="#e1e0d9"/>
<rect x="10" y="384" width="820" height="86" fill="none" stroke="#e1e0d9"/>
<text x="38.0" y="490.0" font-size="11.0" fill="#898781" text-anchor="middle">2026-06</text>
<line x1="610.0" y1="66.0" x2="610.0" y2="356.0" stroke="#e1e0d9" stroke-width="1.0"/>
<line x1="610.0" y1="384.0" x2="610.0" y2="470.0" stroke="#e1e0d9" stroke-width="1.0"/>
<text x="620.0" y="490.0" font-size="11.0" fill="#898781" text-anchor="middle">2026-07</text>
<text x="14.0" y="58.0" font-size="11.0" fill="#52514e">BOLL(20,2)</text>
<text x="84.5" y="58.0" font-size="11.0" fill="#eda100">UP:205.6</text>
<text x="142.9" y="58.0" font-size="11.0" fill="#2a78d6">MID:136.6</text>
<text x="207.4" y="58.0" font-size="11.0" fill="#e87ba4">LOW:67.5</text>
<text x="265.8" y="58.0" font-size="11.0" fill="#4a3aa7">MA7:114.9</text>
<line x1="10.0" y1="356.0" x2="830.0" y2="356.0" stroke="#e1e0d9" stroke-width="1.0"/>
<text x="14.0" y="353.0" font-size="11.0" fill="#898781">0</text>
<line x1="10.0" y1="213.6" x2="830.0" y2="213.6" stroke="#e1e0d9" stroke-width="1.0"/>
<text x="14.0" y="210.6" font-size="11.0" fill="#898781">200</text>
<line x1="10.0" y1="71.3" x2="830.0" y2="71.3" stroke="#e1e0d9" stroke-width="1.0"/>
<text x="14.0" y="68.3" font-size="11.0" fill="#898781">400</text>
<polyline points="400.0,144.5 420.0,144.7 440.0,144.6 460.0,144.7 480.0,144.6 500.0,146.3 520.0,146.4 540.0,146.3 560.0,146.2 580.0,146.2 600.0,148.1 620.0,145.4 640.0,145.4 660.0,145.6 680.0,189.0 700.0,211.0 720.0,216.8 740.0,207.6 760.0,209.7 780.0,209.6 800.0,209.8 820.0,209.7" fill="none" stroke="#eda100" stroke-width="1.5" stroke-linejoin="round" stroke-linecap="round"/>
<polyline points="400.0,230.8 420.0,232.8 440.0,232.2 460.0,231.7 480.0,231.4 500.0,233.0 520.0,233.2 540.0,233.4 560.0,233.8 580.0,233.8 600.0,235.3 620.0,233.9 640.0,233.0 660.0,234.8 680.0,244.6 700.0,248.6 720.0,250.7 740.0,255.4 760.0,257.7 780.0,258.1 800.0,259.3 820.0,258.8" fill="none" stroke="#2a78d6" stroke-width="1.5" stroke-linejoin="round" stroke-linecap="round"/>
<polyline points="400.0,317.0 420.0,320.9 440.0,319.9 460.0,318.8 480.0,318.2 500.0,319.6 520.0,320.0 540.0,320.4 560.0,321.5 580.0,321.5 600.0,322.5 620.0,322.4 640.0,320.5 660.0,324.1 680.0,300.1 700.0,286.3 720.0,284.6 740.0,303.2 760.0,305.7 780.0,306.5 800.0,308.7 820.0,307.9" fill="none" stroke="#e87ba4" stroke-width="1.5" stroke-linejoin="round" stroke-linecap="round"/>
<polyline points="140.0,246.6 160.0,250.2 180.0,249.0 200.0,241.9 220.0,238.8 240.0,246.3 260.0,243.8 280.0,218.0 300.0,203.5 320.0,198.7 340.0,202.0 360.0,202.7 380.0,203.0 400.0,206.1 420.0,233.6 440.0,246.3 460.0,252.0 480.0,253.2 500.0,254.6 520.0,252.9 540.0,254.0 560.0,253.1 580.0,253.6 600.0,252.1 620.0,245.9 640.0,246.3 660.0,248.6 680.0,250.0 700.0,245.7 720.0,246.8 740.0,259.3 760.0,270.8 780.0,274.8 800.0,275.8 820.0,274.2" fill="none" stroke="#4a3aa7" stroke-width="1.5" stroke-linejoin="round" stroke-linecap="round"/>
<rect x="14.5" y="231.4" width="11.0" height="124.6" fill="none" stroke="#e34948" stroke-width="1.3"/>
<rect x="34.5" y="231.4" width="11.0" height="22.8" fill="#008300"/>
<rect x="54.5" y="254.2" width="11.0" height="8.5" fill="#008300"/>
<rect x="74.5" y="251.4" width="11.0" height="11.4" fill="none" stroke="#e34948" stroke-width="1.3"/>
<rect x="94.5" y="213.6" width="11.0" height="37.7" fill="none" stroke="#e34948" stroke-width="1.3"/>
<rect x="114.5" y="213.6" width="11.0" height="38.4" fill="#008300"/>
<rect x="134.5" y="252.1" width="11.0" height="8.5" fill="#008300"/>
<rect x="154.5" y="256.3" width="11.0" height="4.3" fill="none" stroke="#e34948" stroke-width="1.3"/>
<rect x="174.5" y="246.4" width="11.0" height="10.0" fill="none" stroke="#e34948" stroke-width="1.3"/>
<rect x="194.5" y="212.9" width="11.0" height="33.5" fill="none" stroke="#e34948" stroke-width="1.3"/>
<rect x="214.5" y="212.9" width="11.0" height="16.4" fill="#008300"/>
<rect x="234.5" y="229.3" width="11.0" height="37.0" fill="#008300"/>
<rect x="254.5" y="235.0" width="11.0" height="31.3" fill="none" stroke="#e34948" stroke-width="1.3"/>
<rect x="274.5" y="79.8" width="11.0" height="155.2" fill="none" stroke="#e34948" stroke-width="1.3"/>
<rect x="294.5" y="79.8" width="11.0" height="74.7" fill="#008300"/>
<rect x="314.5" y="154.6" width="11.0" height="58.4" fill="#008300"/>
<rect x="334.5" y="212.9" width="11.0" height="22.8" fill="#008300"/>
<rect x="354.5" y="235.0" width="11.0" height="1.2" fill="none" stroke="#e34948" stroke-width="1.3"/>
<rect x="374.5" y="235.0" width="11.0" height="33.5" fill="#008300"/>
<rect x="394.5" y="256.3" width="11.0" height="12.1" fill="none" stroke="#e34948" stroke-width="1.3"/>
<rect x="414.5" y="256.3" width="11.0" height="15.7" fill="#008300"/>
<rect x="434.5" y="243.5" width="11.0" height="28.5" fill="none" stroke="#e34948" stroke-width="1.3"/>
<rect x="454.5" y="243.5" width="11.0" height="9.3" fill="#008300"/>
<rect x="474.5" y="244.2" width="11.0" height="8.5" fill="none" stroke="#e34948" stroke-width="1.3"/>
<rect x="494.5" y="244.2" width="11.0" height="1.2" fill="#008300"/>
<rect x="514.5" y="245.0" width="11.0" height="11.4" fill="#008300"/>
<rect x="534.5" y="256.3" width="11.0" height="7.8" fill="#008300"/>
<rect x="554.5" y="264.2" width="11.0" height="1.4" fill="#008300"/>
<rect x="574.5" y="247.1" width="11.0" height="18.5" fill="none" stroke="#e34948" stroke-width="1.3"/>
<rect x="594.5" y="242.8" width="11.0" height="4.3" fill="none" stroke="#e34948" stroke-width="1.3"/>
<rect x="614.5" y="200.1" width="11.0" height="42.7" fill="none" stroke="#e34948" stroke-width="1.3"/>
<rect x="634.5" y="200.1" width="11.0" height="47.7" fill="#008300"/>
<rect x="654.5" y="247.8" width="11.0" height="24.9" fill="#008300"/>
<rect x="674.5" y="272.7" width="11.0" height="1.4" fill="#008300"/>
<rect x="694.5" y="235.7" width="11.0" height="38.4" fill="none" stroke="#e34948" stroke-width="1.3"/>
<rect x="714.5" y="235.7" width="11.0" height="18.5" fill="#008300"/>
<rect x="734.5" y="254.2" width="11.0" height="76.2" fill="#008300"/>
<rect x="754.5" y="280.5" width="11.0" height="49.8" fill="none" stroke="#e34948" stroke-width="1.3"/>
<rect x="774.5" y="275.6" width="11.0" height="5.0" fill="none" stroke="#e34948" stroke-width="1.3"/>
<rect x="794.5" y="275.6" width="11.0" height="5.0" fill="#008300"/>
<rect x="814.5" y="262.8" width="11.0" height="17.8" fill="none" stroke="#e34948" stroke-width="1.3"/>
<circle cx="280.0" cy="79.8" r="2" fill="#52514e"/>
<line x1="280.0" y1="79.8" x2="288.0" y2="79.8" stroke="#52514e" stroke-width="1.0"/>
<text x="291.0" y="83.8" font-size="11.0" fill="#52514e">388</text>
<circle cx="20.0" cy="356.0" r="2" fill="#52514e"/>
<line x1="20.0" y1="356.0" x2="28.0" y2="356.0" stroke="#52514e" stroke-width="1.0"/>
<text x="31.0" y="350.0" font-size="11.0" fill="#52514e">0</text>
<text x="14.0" y="376.0" font-size="11.0" fill="#52514e">VOL 13 forks</text>
<text x="96.6" y="376.0" font-size="11.0" fill="#eda100">MA5:10.6</text>
<text x="155.0" y="376.0" font-size="11.0" fill="#2a78d6">MA10:13.6</text>
<text x="14.0" y="395.0" font-size="10" fill="#898781">30</text>
<rect x="14.5" y="420.8" width="11.0" height="49.2" fill="none" stroke="#e34948" stroke-width="1.1"/>
<rect x="34.5" y="426.3" width="11.0" height="43.7" fill="#008300"/>
<rect x="54.5" y="420.8" width="11.0" height="49.2" fill="#008300"/>
<rect x="74.5" y="429.0" width="11.0" height="41.0" fill="none" stroke="#e34948" stroke-width="1.1"/>
<rect x="94.5" y="407.1" width="11.0" height="62.9" fill="none" stroke="#e34948" stroke-width="1.1"/>
<rect x="114.5" y="423.5" width="11.0" height="46.5" fill="#008300"/>
<rect x="134.5" y="431.7" width="11.0" height="38.3" fill="#008300"/>
<rect x="154.5" y="445.4" width="11.0" height="24.6" fill="none" stroke="#e34948" stroke-width="1.1"/>
<rect x="174.5" y="407.1" width="11.0" height="62.9" fill="none" stroke="#e34948" stroke-width="1.1"/>
<rect x="194.5" y="409.9" width="11.0" height="60.1" fill="none" stroke="#e34948" stroke-width="1.1"/>
<rect x="214.5" y="393.5" width="11.0" height="76.5" fill="#008300"/>
<rect x="234.5" y="409.9" width="11.0" height="60.1" fill="#008300"/>
<rect x="254.5" y="423.5" width="11.0" height="46.5" fill="none" stroke="#e34948" stroke-width="1.1"/>
<rect x="274.5" y="404.4" width="11.0" height="65.6" fill="none" stroke="#e34948" stroke-width="1.1"/>
<rect x="294.5" y="396.2" width="11.0" height="73.8" fill="#008300"/>
<rect x="314.5" y="404.4" width="11.0" height="65.6" fill="#008300"/>
<rect x="334.5" y="401.7" width="11.0" height="68.3" fill="#008300"/>
<rect x="354.5" y="401.7" width="11.0" height="68.3" fill="none" stroke="#e34948" stroke-width="1.1"/>
<rect x="374.5" y="445.4" width="11.0" height="24.6" fill="#008300"/>
<rect x="394.5" y="439.9" width="11.0" height="30.1" fill="none" stroke="#e34948" stroke-width="1.1"/>
<rect x="414.5" y="426.3" width="11.0" height="43.7" fill="#008300"/>
<rect x="434.5" y="412.6" width="11.0" height="57.4" fill="none" stroke="#e34948" stroke-width="1.1"/>
<rect x="454.5" y="434.5" width="11.0" height="35.5" fill="#008300"/>
<rect x="474.5" y="434.5" width="11.0" height="35.5" fill="none" stroke="#e34948" stroke-width="1.1"/>
<rect x="494.5" y="423.5" width="11.0" height="46.5" fill="#008300"/>
<rect x="514.5" y="412.6" width="11.0" height="57.4" fill="#008300"/>
<rect x="534.5" y="426.3" width="11.0" height="43.7" fill="#008300"/>
<rect x="554.5" y="423.5" width="11.0" height="46.5" fill="#008300"/>
<rect x="574.5" y="420.8" width="11.0" height="49.2" fill="none" stroke="#e34948" stroke-width="1.1"/>
<rect x="594.5" y="388.0" width="11.0" height="82.0" fill="none" stroke="#e34948" stroke-width="1.1"/>
<rect x="614.5" y="407.1" width="11.0" height="62.9" fill="none" stroke="#e34948" stroke-width="1.1"/>
<rect x="634.5" y="420.8" width="11.0" height="49.2" fill="#008300"/>
<rect x="654.5" y="431.7" width="11.0" height="38.3" fill="#008300"/>
<rect x="674.5" y="434.5" width="11.0" height="35.5" fill="#008300"/>
<rect x="694.5" y="420.8" width="11.0" height="49.2" fill="none" stroke="#e34948" stroke-width="1.1"/>
<rect x="714.5" y="415.3" width="11.0" height="54.7" fill="#008300"/>
<rect x="734.5" y="450.9" width="11.0" height="19.1" fill="#008300"/>
<rect x="754.5" y="429.0" width="11.0" height="41.0" fill="none" stroke="#e34948" stroke-width="1.1"/>
<rect x="774.5" y="429.0" width="11.0" height="41.0" fill="none" stroke="#e34948" stroke-width="1.1"/>
<rect x="794.5" y="461.8" width="11.0" height="8.2" fill="#008300"/>
<rect x="814.5" y="434.5" width="11.0" height="35.5" fill="none" stroke="#e34948" stroke-width="1.1"/>
<polyline points="200.0,422.2 220.0,419.4 240.0,417.8 260.0,418.1 280.0,415.6 300.0,414.5 320.0,412.6 340.0,409.6 360.0,405.2 380.0,409.0 400.0,412.1 420.0,415.3 440.0,415.6 460.0,416.7 480.0,419.7 500.0,422.4 520.0,423.3 540.0,425.7 560.0,427.9 580.0,425.4 600.0,420.3 620.0,418.3 640.0,419.2 660.0,418.9 680.0,418.9 700.0,418.6 720.0,418.9 740.0,421.3 760.0,421.9 780.0,422.7 800.0,430.1 820.0,432.8" fill="none" stroke="#2a78d6" stroke-width="1.5" stroke-linejoin="round" stroke-linecap="round"/>
<polyline points="100.0,420.8 120.0,421.3 140.0,422.4 160.0,427.4 180.0,423.0 200.0,423.5 220.0,417.5 240.0,413.1 260.0,408.8 280.0,408.2 300.0,405.5 320.0,407.7 340.0,406.0 360.0,401.7 380.0,409.9 400.0,418.6 420.0,423.0 440.0,425.2 460.0,431.7 480.0,429.5 500.0,426.3 520.0,423.5 540.0,426.3 560.0,424.1 580.0,421.3 600.0,414.2 620.0,413.1 640.0,412.1 660.0,413.7 680.0,416.4 700.0,423.0 720.0,424.6 740.0,430.6 760.0,430.1 780.0,429.0 800.0,437.2 820.0,441.0" fill="none" stroke="#eda100" stroke-width="1.5" stroke-linejoin="round" stroke-linecap="round"/>
</svg>