<svg xmlns="http://www.w3.org/2000/svg" viewBox="0 0 840 496" width="840" height="496" font-family="-apple-system,&#39;Segoe UI&#39;,system-ui,sans-serif" role="img" aria-label="practical-tutorials/project-based-learning candlestick chart">
<text x="14.0" y="20.0" font-size="15" fill="#0b0b0b" font-weight="650">practical-tutorials/project-based-learning</text>
<text x="364.5" y="20.0" font-size="11.5" fill="#52514e">daily · new stars, volume = new forks</text>
<text x="805.8" y="20.0" font-size="11.0" fill="#52514e">fall</text>
<rect x="791" y="10" width="9" height="12" fill="#008300"/>
<text x="750.6" y="20.0" font-size="11.0" fill="#52514e">rise</text>
<rect x="736" y="10" width="9" height="12" fill="none" stroke="#e34948" stroke-width="1.5"/>
<text x="14.0" y="38.0" font-size="11.0" fill="#898781">last 53 days · +8,354 stars · +939 forks · updated 2026-07-23</text>
<rect x="10" y="66" width="820" height="290" fill="none" stroke="#e1e0d9"/>
<rect x="10" y="384" width="820" height="86" fill="none" stroke="#e1e0d9"/>
<text x="38.0" y="490.0" font-size="11.0" fill="#898781" text-anchor="middle">2026-06</text>
<line x1="474.2" y1="66.0" x2="474.2" y2="356.0" stroke="#e1e0d9" stroke-width="1.0"/>
<line x1="474.2" y1="384.0" x2="474.2" y2="470.0" stroke="#e1e0d9" stroke-width="1.0"/>
<text x="481.9" y="490.0" font-size="11.0" fill="#898781" text-anchor="middle">2026-07</text>
<text x="14.0" y="58.0" font-size="11.0" fill="#52514e">BOLL(20,2)</text>
<text x="84.5" y="58.0" font-size="11.0" fill="#eda100">UP:247.2</text>
<text x="142.9" y="58.0" font-size="11.0" fill="#2a78d6">MID:145.2</text>
<text x="207.4" y="58.0" font-size="11.0" fill="#e87ba4">LOW:43.3</text>
<text x="265.8" y="58.0" font-size="11.0" fill="#4a3aa7">MA7:175.7</text>
<line x1="10.0" y1="356.0" x2="830.0" y2="356.0" stroke="#e1e0d9" stroke-width="1.0"/>
<text x="14.0" y="353.0" font-size="11.0" fill="#898781">0</text>
<line x1="10.0" y1="213.6" x2="830.0" y2="213.6" stroke="#e1e0d9" stroke-width="1.0"/>
<text x="14.0" y="210.6" font-size="11.0" fill="#898781">200</text>
<line x1="10.0" y1="71.3" x2="830.0" y2="71.3" stroke="#e1e0d9" stroke-width="1.0"/>
<text x="14.0" y="68.3" font-size="11.0" fill="#898781">400</text>
<polyline points="311.7,144.5 327.2,144.7 342.6,144.6 358.1,144.7 373.6,144.6 389.1,146.3 404.5,146.4 420.0,146.3 435.5,146.2 450.9,146.2 466.4,148.1 481.9,145.4 497.4,145.4 512.8,145.6 528.3,189.0 543.8,211.0 559.2,216.8 574.7,207.6 590.2,209.7 605.7,209.6 621.1,209.8 636.6,209.7 652.1,211.3 667.5,211.9 683.0,212.8 698.5,212.4 714.0,206.3 729.4,206.4 744.9,206.4 760.4,206.9 775.8,201.9 791.3,186.5 806.8,180.9 822.3,180.1" fill="none" stroke="#eda100" stroke-width="1.5" stroke-linejoin="round" stroke-linecap="round"/>
<polyline points="311.7,230.8 327.2,232.8 342.6,232.2 358.1,231.7 373.6,231.4 389.1,233.0 404.5,233.2 420.0,233.4 435.5,233.8 450.9,233.8 466.4,235.3 481.9,233.9 497.4,233.0 512.8,234.8 528.3,244.6 543.8,248.6 559.2,250.7 574.7,255.4 590.2,257.7 605.7,258.1 621.1,259.3 636.6,258.8 652.1,260.1 667.5,260.6 683.0,261.0 698.5,260.9 714.0,258.8 729.4,259.0 744.9,259.8 760.4,260.0 775.8,258.6 791.3,256.1 806.8,253.9 822.3,252.6" fill="none" stroke="#2a78d6" stroke-width="1.5" stroke-linejoin="round" stroke-linecap="round"/>
<polyline points="311.7,317.0 327.2,320.9 342.6,319.9 358.1,318.8 373.6,318.2 389.1,319.6 404.5,320.0 420.0,320.4 435.5,321.5 450.9,321.5 466.4,322.5 481.9,322.4 497.4,320.5 512.8,324.1 528.3,300.1 543.8,286.3 559.2,284.6 574.7,303.2 590.2,305.7 605.7,306.5 621.1,308.7 636.6,307.9 652.1,308.9 667.5,309.3 683.0,309.3 698.5,309.4 714.0,311.3 729.4,311.7 744.9,313.2 760.4,313.2 775.8,315.2 791.3,325.6 806.8,326.9 822.3,325.1" fill="none" stroke="#e87ba4" stroke-width="1.5" stroke-linejoin="round" stroke-linecap="round"/>
<polyline points="110.6,246.6 126.0,250.2 141.5,249.0 157.0,241.9 172.5,238.8 187.9,246.3 203.4,243.8 218.9,218.0 234.3,203.5 249.8,198.7 265.3,202.0 280.8,202.7 296.2,203.0 311.7,206.1 327.2,233.6 342.6,246.3 358.1,252.0 373.6,253.2 389.1,254.6 404.5,252.9 420.0,254.0 435.5,253.1 450.9,253.6 466.4,252.1 481.9,245.9 497.4,246.3 512.8,248.6 528.3,250.0 543.8,245.7 559.2,246.8 574.7,259.3 590.2,270.8 605.7,274.8 621.1,275.8 636.6,274.2 652.1,279.1 667.5,280.3 683.0,269.2 698.5,263.7 714.0,255.0 729.4,253.4 744.9,255.9 760.4,253.4 775.8,246.4 791.3,231.6 806.8,226.4 822.3,230.9" fill="none" stroke="#4a3aa7" stroke-width="1.5" stroke-linejoin="round" stroke-linecap="round"/>
<rect x="13.5" y="231.4" width="8.5" height="124.6" fill="none" stroke="#e34948" stroke-width="1.3"/>
<rect x="29.0" y="231.4" width="8.5" height="22.8" fill="#008300"/>
<rect x="44.4" y="254.2" width="8.5" height="8.5" fill="#008300"/>
<rect x="59.9" y="251.4" width="8.5" height="11.4" fill="none" stroke="#e34948" stroke-width="1.3"/>
<rect x="75.4" y="213.6" width="8.5" height="37.7" fill="none" stroke="#e34948" stroke-width="1.3"/>
<rect x="90.8" y="213.6" width="8.5" height="38.4" fill="#008300"/>
<rect x="106.3" y="252.1" width="8.5" height="8.5" fill="#008300"/>
<rect x="121.8" y="256.3" width="8.5" height="4.3" fill="none" stroke="#e34948" stroke-width="1.3"/>
<rect x="137.3" y="246.4" width="8.5" height="10.0" fill="none" stroke="#e34948" stroke-width="1.3"/>
<rect x="152.7" y="212.9" width="8.5" height="33.5" fill="none" stroke="#e34948" stroke-width="1.3"/>
<rect x="168.2" y="212.9" width="8.5" height="16.4" fill="#008300"/>
<rect x="183.7" y="229.3" width="8.5" height="37.0" fill="#008300"/>
<rect x="199.1" y="235.0" width="8.5" height="31.3" fill="none" stroke="#e34948" stroke-width="1.3"/>
<rect x="214.6" y="79.8" width="8.5" height="155.2" fill="none" stroke="#e34948" stroke-width="1.3"/>
<rect x="230.1" y="79.8" width="8.5" height="74.7" fill="#008300"/>
<rect x="245.6" y="154.6" width="8.5" height="58.4" fill="#008300"/>
<rect x="261.0" y="212.9" width="8.5" height="22.8" fill="#008300"/>
<rect x="276.5" y="235.0" width="8.5" height="1.2" fill="none" stroke="#e34948" stroke-width="1.3"/>
<rect x="292.0" y="235.0" width="8.5" height="33.5" fill="#008300"/>
<rect x="307.4" y="256.3" width="8.5" height="12.1" fill="none" stroke="#e34948" stroke-width="1.3"/>
<rect x="322.9" y="256.3" width="8.5" height="15.7" fill="#008300"/>
<rect x="338.4" y="243.5" width="8.5" height="28.5" fill="none" stroke="#e34948" stroke-width="1.3"/>
<rect x="353.9" y="243.5" width="8.5" height="9.3" fill="#008300"/>
<rect x="369.3" y="244.2" width="8.5" height="8.5" fill="none" stroke="#e34948" stroke-width="1.3"/>
<rect x="384.8" y="244.2" width="8.5" height="1.2" fill="#008300"/>
<rect x="400.3" y="245.0" width="8.5" height="11.4" fill="#008300"/>
<rect x="415.7" y="256.3" width="8.5" height="7.8" fill="#008300"/>
<rect x="431.2" y="264.2" width="8.5" height="1.4" fill="#008300"/>
<rect x="446.7" y="247.1" width="8.5" height="18.5" fill="none" stroke="#e34948" stroke-width="1.3"/>
<rect x="462.2" y="242.8" width="8.5" height="4.3" fill="none" stroke="#e34948" stroke-width="1.3"/>
<rect x="477.6" y="200.1" width="8.5" height="42.7" fill="none" stroke="#e34948" stroke-width="1.3"/>
<rect x="493.1" y="200.1" width="8.5" height="47.7" fill="#008300"/>
<rect x="508.6" y="247.8" width="8.5" height="24.9" fill="#008300"/>
<rect x="524.0" y="272.7" width="8.5" height="1.4" fill="#008300"/>
<rect x="539.5" y="235.7" width="8.5" height="38.4" fill="none" stroke="#e34948" stroke-width="1.3"/>
<rect x="555.0" y="235.7" width="8.5" height="18.5" fill="#008300"/>
<rect x="570.5" y="254.2" width="8.5" height="76.2" fill="#008300"/>
<rect x="585.9" y="280.5" width="8.5" height="49.8" fill="none" stroke="#e34948" stroke-width="1.3"/>
<rect x="601.4" y="275.6" width="8.5" height="5.0" fill="none" stroke="#e34948" stroke-width="1.3"/>
<rect x="616.9" y="275.6" width="8.5" height="5.0" fill="#008300"/>
<rect x="632.3" y="262.8" width="8.5" height="17.8" fill="none" stroke="#e34948" stroke-width="1.3"/>
<rect x="647.8" y="262.8" width="8.5" height="7.1" fill="#008300"/>
<rect x="663.3" y="262.0" width="8.5" height="7.8" fill="none" stroke="#e34948" stroke-width="1.3"/>
<rect x="678.8" y="253.5" width="8.5" height="8.5" fill="none" stroke="#e34948" stroke-width="1.3"/>
<rect x="694.2" y="241.4" width="8.5" height="12.1" fill="none" stroke="#e34948" stroke-width="1.3"/>
<rect x="709.7" y="215.1" width="8.5" height="26.3" fill="none" stroke="#e34948" stroke-width="1.3"/>
<rect x="725.2" y="215.1" width="8.5" height="54.1" fill="#008300"/>
<rect x="740.7" y="269.2" width="8.5" height="11.4" fill="#008300"/>
<rect x="756.1" y="252.1" width="8.5" height="28.5" fill="none" stroke="#e34948" stroke-width="1.3"/>
<rect x="771.6" y="212.9" width="8.5" height="39.2" fill="none" stroke="#e34948" stroke-width="1.3"/>
<rect x="787.1" y="150.3" width="8.5" height="62.6" fill="none" stroke="#e34948" stroke-width="1.3"/>
<rect x="802.5" y="150.3" width="8.5" height="54.8" fill="#008300"/>
<rect x="818.0" y="205.1" width="8.5" height="41.3" fill="#008300"/>
<circle cx="218.9" cy="79.8" r="2" fill="#52514e"/>
<line x1="218.9" y1="79.8" x2="226.9" y2="79.8" stroke="#52514e" stroke-width="1.0"/>
<text x="229.9" y="83.8" font-size="11.0" fill="#52514e">388</text>
<circle cx="17.7" cy="356.0" r="2" fill="#52514e"/>
<line x1="17.7" y1="356.0" x2="25.7" y2="356.0" stroke="#52514e" stroke-width="1.0"/>
<text x="28.7" y="350.0" font-size="11.0" fill="#52514e">0</text>
<text x="14.0" y="376.0" font-size="11.0" fill="#52514e">VOL 26 forks</text>
<text x="96.6" y="376.0" font-size="11.0" fill="#eda100">MA5:21.8</text>
<text x="155.0" y="376.0" font-size="11.0" fill="#2a78d6">MA10:19.1</text>
<text x="14.0" y="395.0" font-size="10" fill="#898781">43</text>
<rect x="13.5" y="435.7" width="8.5" height="34.3" fill="none" stroke="#e34948" stroke-width="1.1"/>
<rect x="29.0" y="439.5" width="8.5" height="30.5" fill="#008300"/>
<rect x="44.4" y="435.7" width="8.5" height="34.3" fill="#008300"/>
<rect x="59.9" y="441.4" width="8.5" height="28.6" fill="none" stroke="#e34948" stroke-width="1.1"/>
<rect x="75.4" y="426.1" width="8.5" height="43.9" fill="none" stroke="#e34948" stroke-width="1.1"/>
<rect x="90.8" y="437.6" width="8.5" height="32.4" fill="#008300"/>
<rect x="106.3" y="443.3" width="8.5" height="26.7" fill="#008300"/>
<rect x="121.8" y="452.8" width="8.5" height="17.2" fill="none" stroke="#e34948" stroke-width="1.1"/>
<rect x="137.3" y="426.1" width="8.5" height="43.9" fill="none" stroke="#e34948" stroke-width="1.1"/>
<rect x="152.7" y="428.0" width="8.5" height="42.0" fill="none" stroke="#e34948" stroke-width="1.1"/>
<rect x="168.2" y="416.6" width="8.5" height="53.4" fill="#008300"/>
<rect x="183.7" y="428.0" width="8.5" height="42.0" fill="#008300"/>
<rect x="199.1" y="437.6" width="8.5" height="32.4" fill="none" stroke="#e34948" stroke-width="1.1"/>
<rect x="214.6" y="424.2" width="8.5" height="45.8" fill="none" stroke="#e34948" stroke-width="1.1"/>
<rect x="230.1" y="418.5" width="8.5" height="51.5" fill="#008300"/>
<rect x="245.6" y="424.2" width="8.5" height="45.8" fill="#008300"/>
<rect x="261.0" y="422.3" width="8.5" height="47.7" fill="#008300"/>
<rect x="276.5" y="422.3" width="8.5" height="47.7" fill="none" stroke="#e34948" stroke-width="1.1"/>
<rect x="292.0" y="452.8" width="8.5" height="17.2" fill="#008300"/>
<rect x="307.4" y="449.0" width="8.5" height="21.0" fill="none" stroke="#e34948" stroke-width="1.1"/>
<rect x="322.9" y="439.5" width="8.5" height="30.5" fill="#008300"/>
<rect x="338.4" y="430.0" width="8.5" height="40.0" fill="none" stroke="#e34948" stroke-width="1.1"/>
<rect x="353.9" y="445.2" width="8.5" height="24.8" fill="#008300"/>
<rect x="369.3" y="445.2" width="8.5" height="24.8" fill="none" stroke="#e34948" stroke-width="1.1"/>
<rect x="384.8" y="437.6" width="8.5" height="32.4" fill="#008300"/>
<rect x="400.3" y="430.0" width="8.5" height="40.0" fill="#008300"/>
<rect x="415.7" y="439.5" width="8.5" height="30.5" fill="#008300"/>
<rect x="431.2" y="437.6" width="8.5" height="32.4" fill="#008300"/>
<rect x="446.7" y="435.7" width="8.5" height="34.3" fill="none" stroke="#e34948" stroke-width="1.1"/>
<rect x="462.2" y="412.8" width="8.5" height="57.2" fill="none" stroke="#e34948" stroke-width="1.1"/>
<rect x="477.6" y="426.1" width="8.5" height="43.9" fill="none" stroke="#e34948" stroke-width="1.1"/>
<rect x="493.1" y="435.7" width="8.5" height="34.3" fill="#008300"/>
<rect x="508.6" y="443.3" width="8.5" height="26.7" fill="#008300"/>
<rect x="524.0" y="445.2" width="8.5" height="24.8" fill="#008300"/>
<rect x="539.5" y="435.7" width="8.5" height="34.3" fill="none" stroke="#e34948" stroke-width="1.1"/>
<rect x="555.0" y="431.9" width="8.5" height="38.1" fill="#008300"/>
<rect x="570.5" y="456.7" width="8.5" height="13.3" fill="#008300"/>
<rect x="585.9" y="441.4" width="8.5" height="28.6" fill="none" stroke="#e34948" stroke-width="1.1"/>
<rect x="601.4" y="441.4" width="8.5" height="28.6" fill="none" stroke="#e34948" stroke-width="1.1"/>
<rect x="616.9" y="464.3" width="8.5" height="5.7" fill="#008300"/>
<rect x="632.3" y="445.2" width="8.5" height="24.8" fill="none" stroke="#e34948" stroke-width="1.1"/>
<rect x="647.8" y="454.7" width="8.5" height="15.3" fill="#008300"/>
<rect x="663.3" y="447.1" width="8.5" height="22.9" fill="none" stroke="#e34948" stroke-width="1.1"/>
<rect x="678.8" y="449.0" width="8.5" height="21.0" fill="none" stroke="#e34948" stroke-width="1.1"/>
<rect x="694.2" y="426.1" width="8.5" height="43.9" fill="none" stroke="#e34948" stroke-width="1.1"/>
<rect x="709.7" y="439.5" width="8.5" height="30.5" fill="none" stroke="#e34948" stroke-width="1.1"/>
<rect x="725.2" y="431.9" width="8.5" height="38.1" fill="#008300"/>
<rect x="740.7" y="447.1" width="8.5" height="22.9" fill="#008300"/>
<rect x="756.1" y="456.7" width="8.5" height="13.3" fill="none" stroke="#e34948" stroke-width="1.1"/>
<rect x="771.6" y="443.3" width="8.5" height="26.7" fill="none" stroke="#e34948" stroke-width="1.1"/>
<rect x="787.1" y="388.0" width="8.5" height="82.0" fill="none" stroke="#e34948" stroke-width="1.1"/>
<rect x="802.5" y="433.8" width="8.5" height="36.2" fill="#008300"/>
<rect x="818.0" y="420.4" width="8.5" height="49.6" fill="#008300"/>
<polyline points="157.0,436.6 172.5,434.7 187.9,433.6 203.4,433.8 218.9,432.1 234.3,431.3 249.8,430.0 265.3,427.9 280.8,424.8 296.2,427.5 311.7,429.6 327.2,431.9 342.6,432.1 358.1,432.8 373.6,434.9 389.1,436.8 404.5,437.4 420.0,439.1 435.5,440.6 450.9,438.9 466.4,435.3 481.9,434.0 497.4,434.5 512.8,434.3 528.3,434.3 543.8,434.1 559.2,434.3 574.7,436.1 590.2,436.4 605.7,437.0 621.1,442.2 636.6,444.1 652.1,446.0 667.5,446.4 683.0,446.7 698.5,445.8 714.0,446.5 729.4,444.1 744.9,444.6 760.4,446.2 775.8,444.1 791.3,438.3 806.8,436.2 822.3,433.6" fill="none" stroke="#2a78d6" stroke-width="1.5" stroke-linejoin="round" stroke-linecap="round"/>
<polyline points="79.6,435.7 95.1,436.1 110.6,436.8 126.0,440.3 141.5,437.2 157.0,437.6 172.5,433.4 187.9,430.3 203.4,427.3 218.9,426.9 234.3,425.0 249.8,426.5 265.3,425.4 280.8,422.3 296.2,428.0 311.7,434.1 327.2,437.2 342.6,438.7 358.1,443.3 373.6,441.8 389.1,439.5 404.5,437.6 420.0,439.5 435.5,438.0 450.9,436.1 466.4,431.1 481.9,430.3 497.4,429.6 512.8,430.7 528.3,432.6 543.8,437.2 559.2,438.3 574.7,442.5 590.2,442.2 605.7,441.4 621.1,447.1 636.6,449.8 652.1,449.4 667.5,450.5 683.0,452.1 698.5,444.4 714.0,443.3 729.4,438.7 744.9,438.7 760.4,440.3 775.8,443.7 791.3,433.4 806.8,433.8 822.3,428.4" fill="none" stroke="#eda100" stroke-width="1.5" stroke-linejoin="round" stroke-linecap="round"/>
</svg>