<svg xmlns="http://www.w3.org/2000/svg" viewBox="0 0 840 496" width="840" height="496" font-family="-apple-system,&#39;Segoe UI&#39;,system-ui,sans-serif" role="img" aria-label="practical-tutorials/project-based-learning candlestick chart">
<text x="14.0" y="20.0" font-size="15" fill="#0b0b0b" font-weight="650">practical-tutorials/project-based-learning</text>
<text x="364.5" y="20.0" font-size="11.5" fill="#52514e">daily · new stars, volume = new forks</text>
<text x="805.8" y="20.0" font-size="11.0" fill="#52514e">fall</text>
<rect x="791" y="10" width="9" height="12" fill="#008300"/>
<text x="750.6" y="20.0" font-size="11.0" fill="#52514e">rise</text>
<rect x="736" y="10" width="9" height="12" fill="none" stroke="#e34948" stroke-width="1.5"/>
<text x="14.0" y="38.0" font-size="11.0" fill="#898781">last 52 days · +8,200 stars · +913 forks · updated 2026-07-22</text>
<rect x="10" y="66" width="820" height="290" fill="none" stroke="#e1e0d9"/>
<rect x="10" y="384" width="820" height="86" fill="none" stroke="#e1e0d9"/>
<text x="38.0" y="490.0" font-size="11.0" fill="#898781" text-anchor="middle">2026-06</text>
<line x1="483.1" y1="66.0" x2="483.1" y2="356.0" stroke="#e1e0d9" stroke-width="1.0"/>
<line x1="483.1" y1="384.0" x2="483.1" y2="470.0" stroke="#e1e0d9" stroke-width="1.0"/>
<text x="491.0" y="490.0" font-size="11.0" fill="#898781" text-anchor="middle">2026-07</text>
<text x="14.0" y="58.0" font-size="11.0" fill="#52514e">BOLL(20,2)</text>
<text x="84.5" y="58.0" font-size="11.0" fill="#eda100">UP:245.9</text>
<text x="142.9" y="58.0" font-size="11.0" fill="#2a78d6">MID:143.4</text>
<text x="207.4" y="58.0" font-size="11.0" fill="#e87ba4">LOW:40.9</text>
<text x="265.8" y="58.0" font-size="11.0" fill="#4a3aa7">MA7:182</text>
<line x1="10.0" y1="356.0" x2="830.0" y2="356.0" stroke="#e1e0d9" stroke-width="1.0"/>
<text x="14.0" y="353.0" font-size="11.0" fill="#898781">0</text>
<line x1="10.0" y1="213.6" x2="830.0" y2="213.6" stroke="#e1e0d9" stroke-width="1.0"/>
<text x="14.0" y="210.6" font-size="11.0" fill="#898781">200</text>
<line x1="10.0" y1="71.3" x2="830.0" y2="71.3" stroke="#e1e0d9" stroke-width="1.0"/>
<text x="14.0" y="68.3" font-size="11.0" fill="#898781">400</text>
<polyline points="317.5,144.5 333.3,144.7 349.0,144.6 364.8,144.7 380.6,144.6 396.3,146.3 412.1,146.4 427.9,146.3 443.7,146.2 459.4,146.2 475.2,148.1 491.0,145.4 506.7,145.4 522.5,145.6 538.3,189.0 554.0,211.0 569.8,216.8 585.6,207.6 601.3,209.7 617.1,209.6 632.9,209.8 648.7,209.7 664.4,211.3 680.2,211.9 696.0,212.8 711.7,212.4 727.5,206.3 743.3,206.4 759.0,206.4 774.8,206.9 790.6,201.9 806.3,186.5 822.1,180.9" fill="none" stroke="#eda100" stroke-width="1.5" stroke-linejoin="round" stroke-linecap="round"/>
<polyline points="317.5,230.8 333.3,232.8 349.0,232.2 364.8,231.7 380.6,231.4 396.3,233.0 412.1,233.2 427.9,233.4 443.7,233.8 459.4,233.8 475.2,235.3 491.0,233.9 506.7,233.0 522.5,234.8 538.3,244.6 554.0,248.6 569.8,250.7 585.6,255.4 601.3,257.7 617.1,258.1 632.9,259.3 648.7,258.8 664.4,260.1 680.2,260.6 696.0,261.0 711.7,260.9 727.5,258.8 743.3,259.0 759.0,259.8 774.8,260.0 790.6,258.6 806.3,256.1 822.1,253.9" fill="none" stroke="#2a78d6" stroke-width="1.5" stroke-linejoin="round" stroke-linecap="round"/>
<polyline points="317.5,317.0 333.3,320.9 349.0,319.9 364.8,318.8 380.6,318.2 396.3,319.6 412.1,320.0 427.9,320.4 443.7,321.5 459.4,321.5 475.2,322.5 491.0,322.4 506.7,320.5 522.5,324.1 538.3,300.1 554.0,286.3 569.8,284.6 585.6,303.2 601.3,305.7 617.1,306.5 632.9,308.7 648.7,307.9 664.4,308.9 680.2,309.3 696.0,309.3 711.7,309.4 727.5,311.3 743.3,311.7 759.0,313.2 774.8,313.2 790.6,315.2 806.3,325.6 822.1,326.9" fill="none" stroke="#e87ba4" stroke-width="1.5" stroke-linejoin="round" stroke-linecap="round"/>
<polyline points="112.5,246.6 128.3,250.2 144.0,249.0 159.8,241.9 175.6,238.8 191.3,246.3 207.1,243.8 222.9,218.0 238.7,203.5 254.4,198.7 270.2,202.0 286.0,202.7 301.7,203.0 317.5,206.1 333.3,233.6 349.0,246.3 364.8,252.0 380.6,253.2 396.3,254.6 412.1,252.9 427.9,254.0 443.7,253.1 459.4,253.6 475.2,252.1 491.0,245.9 506.7,246.3 522.5,248.6 538.3,250.0 554.0,245.7 569.8,246.8 585.6,259.3 601.3,270.8 617.1,274.8 632.9,275.8 648.7,274.2 664.4,279.1 680.2,280.3 696.0,269.2 711.7,263.7 727.5,255.0 743.3,253.4 759.0,255.9 774.8,253.4 790.6,246.4 806.3,231.6 822.1,226.4" fill="none" stroke="#4a3aa7" stroke-width="1.5" stroke-linejoin="round" stroke-linecap="round"/>
<rect x="13.5" y="231.4" width="8.7" height="124.6" fill="none" stroke="#e34948" stroke-width="1.3"/>
<rect x="29.3" y="231.4" width="8.7" height="22.8" fill="#008300"/>
<rect x="45.1" y="254.2" width="8.7" height="8.5" fill="#008300"/>
<rect x="60.9" y="251.4" width="8.7" height="11.4" fill="none" stroke="#e34948" stroke-width="1.3"/>
<rect x="76.6" y="213.6" width="8.7" height="37.7" fill="none" stroke="#e34948" stroke-width="1.3"/>
<rect x="92.4" y="213.6" width="8.7" height="38.4" fill="#008300"/>
<rect x="108.2" y="252.1" width="8.7" height="8.5" fill="#008300"/>
<rect x="123.9" y="256.3" width="8.7" height="4.3" fill="none" stroke="#e34948" stroke-width="1.3"/>
<rect x="139.7" y="246.4" width="8.7" height="10.0" fill="none" stroke="#e34948" stroke-width="1.3"/>
<rect x="155.5" y="212.9" width="8.7" height="33.5" fill="none" stroke="#e34948" stroke-width="1.3"/>
<rect x="171.2" y="212.9" width="8.7" height="16.4" fill="#008300"/>
<rect x="187.0" y="229.3" width="8.7" height="37.0" fill="#008300"/>
<rect x="202.8" y="235.0" width="8.7" height="31.3" fill="none" stroke="#e34948" stroke-width="1.3"/>
<rect x="218.5" y="79.8" width="8.7" height="155.2" fill="none" stroke="#e34948" stroke-width="1.3"/>
<rect x="234.3" y="79.8" width="8.7" height="74.7" fill="#008300"/>
<rect x="250.1" y="154.6" width="8.7" height="58.4" fill="#008300"/>
<rect x="265.9" y="212.9" width="8.7" height="22.8" fill="#008300"/>
<rect x="281.6" y="235.0" width="8.7" height="1.2" fill="none" stroke="#e34948" stroke-width="1.3"/>
<rect x="297.4" y="235.0" width="8.7" height="33.5" fill="#008300"/>
<rect x="313.2" y="256.3" width="8.7" height="12.1" fill="none" stroke="#e34948" stroke-width="1.3"/>
<rect x="328.9" y="256.3" width="8.7" height="15.7" fill="#008300"/>
<rect x="344.7" y="243.5" width="8.7" height="28.5" fill="none" stroke="#e34948" stroke-width="1.3"/>
<rect x="360.5" y="243.5" width="8.7" height="9.3" fill="#008300"/>
<rect x="376.2" y="244.2" width="8.7" height="8.5" fill="none" stroke="#e34948" stroke-width="1.3"/>
<rect x="392.0" y="244.2" width="8.7" height="1.2" fill="#008300"/>
<rect x="407.8" y="245.0" width="8.7" height="11.4" fill="#008300"/>
<rect x="423.5" y="256.3" width="8.7" height="7.8" fill="#008300"/>
<rect x="439.3" y="264.2" width="8.7" height="1.4" fill="#008300"/>
<rect x="455.1" y="247.1" width="8.7" height="18.5" fill="none" stroke="#e34948" stroke-width="1.3"/>
<rect x="470.9" y="242.8" width="8.7" height="4.3" fill="none" stroke="#e34948" stroke-width="1.3"/>
<rect x="486.6" y="200.1" width="8.7" height="42.7" fill="none" stroke="#e34948" stroke-width="1.3"/>
<rect x="502.4" y="200.1" width="8.7" height="47.7" fill="#008300"/>
<rect x="518.2" y="247.8" width="8.7" height="24.9" fill="#008300"/>
<rect x="533.9" y="272.7" width="8.7" height="1.4" fill="#008300"/>
<rect x="549.7" y="235.7" width="8.7" height="38.4" fill="none" stroke="#e34948" stroke-width="1.3"/>
<rect x="565.5" y="235.7" width="8.7" height="18.5" fill="#008300"/>
<rect x="581.2" y="254.2" width="8.7" height="76.2" fill="#008300"/>
<rect x="597.0" y="280.5" width="8.7" height="49.8" fill="none" stroke="#e34948" stroke-width="1.3"/>
<rect x="612.8" y="275.6" width="8.7" height="5.0" fill="none" stroke="#e34948" stroke-width="1.3"/>
<rect x="628.5" y="275.6" width="8.7" height="5.0" fill="#008300"/>
<rect x="644.3" y="262.8" width="8.7" height="17.8" fill="none" stroke="#e34948" stroke-width="1.3"/>
<rect x="660.1" y="262.8" width="8.7" height="7.1" fill="#008300"/>
<rect x="675.9" y="262.0" width="8.7" height="7.8" fill="none" stroke="#e34948" stroke-width="1.3"/>
<rect x="691.6" y="253.5" width="8.7" height="8.5" fill="none" stroke="#e34948" stroke-width="1.3"/>
<rect x="707.4" y="241.4" width="8.7" height="12.1" fill="none" stroke="#e34948" stroke-width="1.3"/>
<rect x="723.2" y="215.1" width="8.7" height="26.3" fill="none" stroke="#e34948" stroke-width="1.3"/>
<rect x="738.9" y="215.1" width="8.7" height="54.1" fill="#008300"/>
<rect x="754.7" y="269.2" width="8.7" height="11.4" fill="#008300"/>
<rect x="770.5" y="252.1" width="8.7" height="28.5" fill="none" stroke="#e34948" stroke-width="1.3"/>
<rect x="786.2" y="212.9" width="8.7" height="39.2" fill="none" stroke="#e34948" stroke-width="1.3"/>
<rect x="802.0" y="150.3" width="8.7" height="62.6" fill="none" stroke="#e34948" stroke-width="1.3"/>
<rect x="817.8" y="150.3" width="8.7" height="54.8" fill="#008300"/>
<circle cx="222.9" cy="79.8" r="2" fill="#52514e"/>
<line x1="222.9" y1="79.8" x2="230.9" y2="79.8" stroke="#52514e" stroke-width="1.0"/>
<text x="233.9" y="83.8" font-size="11.0" fill="#52514e">388</text>
<circle cx="17.9" cy="356.0" r="2" fill="#52514e"/>
<line x1="17.9" y1="356.0" x2="25.9" y2="356.0" stroke="#52514e" stroke-width="1.0"/>
<text x="28.9" y="350.0" font-size="11.0" fill="#52514e">0</text>
<text x="14.0" y="376.0" font-size="11.0" fill="#52514e">VOL 19 forks</text>
<text x="96.6" y="376.0" font-size="11.0" fill="#eda100">MA5:19</text>
<text x="142.9" y="376.0" font-size="11.0" fill="#2a78d6">MA10:17.7</text>
<text x="14.0" y="395.0" font-size="10" fill="#898781">43</text>
<rect x="13.5" y="435.7" width="8.7" height="34.3" fill="none" stroke="#e34948" stroke-width="1.1"/>
<rect x="29.3" y="439.5" width="8.7" height="30.5" fill="#008300"/>
<rect x="45.1" y="435.7" width="8.7" height="34.3" fill="#008300"/>
<rect x="60.9" y="441.4" width="8.7" height="28.6" fill="none" stroke="#e34948" stroke-width="1.1"/>
<rect x="76.6" y="426.1" width="8.7" height="43.9" fill="none" stroke="#e34948" stroke-width="1.1"/>
<rect x="92.4" y="437.6" width="8.7" height="32.4" fill="#008300"/>
<rect x="108.2" y="443.3" width="8.7" height="26.7" fill="#008300"/>
<rect x="123.9" y="452.8" width="8.7" height="17.2" fill="none" stroke="#e34948" stroke-width="1.1"/>
<rect x="139.7" y="426.1" width="8.7" height="43.9" fill="none" stroke="#e34948" stroke-width="1.1"/>
<rect x="155.5" y="428.0" width="8.7" height="42.0" fill="none" stroke="#e34948" stroke-width="1.1"/>
<rect x="171.2" y="416.6" width="8.7" height="53.4" fill="#008300"/>
<rect x="187.0" y="428.0" width="8.7" height="42.0" fill="#008300"/>
<rect x="202.8" y="437.6" width="8.7" height="32.4" fill="none" stroke="#e34948" stroke-width="1.1"/>
<rect x="218.5" y="424.2" width="8.7" height="45.8" fill="none" stroke="#e34948" stroke-width="1.1"/>
<rect x="234.3" y="418.5" width="8.7" height="51.5" fill="#008300"/>
<rect x="250.1" y="424.2" width="8.7" height="45.8" fill="#008300"/>
<rect x="265.9" y="422.3" width="8.7" height="47.7" fill="#008300"/>
<rect x="281.6" y="422.3" width="8.7" height="47.7" fill="none" stroke="#e34948" stroke-width="1.1"/>
<rect x="297.4" y="452.8" width="8.7" height="17.2" fill="#008300"/>
<rect x="313.2" y="449.0" width="8.7" height="21.0" fill="none" stroke="#e34948" stroke-width="1.1"/>
<rect x="328.9" y="439.5" width="8.7" height="30.5" fill="#008300"/>
<rect x="344.7" y="430.0" width="8.7" height="40.0" fill="none" stroke="#e34948" stroke-width="1.1"/>
<rect x="360.5" y="445.2" width="8.7" height="24.8" fill="#008300"/>
<rect x="376.2" y="445.2" width="8.7" height="24.8" fill="none" stroke="#e34948" stroke-width="1.1"/>
<rect x="392.0" y="437.6" width="8.7" height="32.4" fill="#008300"/>
<rect x="407.8" y="430.0" width="8.7" height="40.0" fill="#008300"/>
<rect x="423.5" y="439.5" width="8.7" height="30.5" fill="#008300"/>
<rect x="439.3" y="437.6" width="8.7" height="32.4" fill="#008300"/>
<rect x="455.1" y="435.7" width="8.7" height="34.3" fill="none" stroke="#e34948" stroke-width="1.1"/>
<rect x="470.9" y="412.8" width="8.7" height="57.2" fill="none" stroke="#e34948" stroke-width="1.1"/>
<rect x="486.6" y="426.1" width="8.7" height="43.9" fill="none" stroke="#e34948" stroke-width="1.1"/>
<rect x="502.4" y="435.7" width="8.7" height="34.3" fill="#008300"/>
<rect x="518.2" y="443.3" width="8.7" height="26.7" fill="#008300"/>
<rect x="533.9" y="445.2" width="8.7" height="24.8" fill="#008300"/>
<rect x="549.7" y="435.7" width="8.7" height="34.3" fill="none" stroke="#e34948" stroke-width="1.1"/>
<rect x="565.5" y="431.9" width="8.7" height="38.1" fill="#008300"/>
<rect x="581.2" y="456.7" width="8.7" height="13.3" fill="#008300"/>
<rect x="597.0" y="441.4" width="8.7" height="28.6" fill="none" stroke="#e34948" stroke-width="1.1"/>
<rect x="612.8" y="441.4" width="8.7" height="28.6" fill="none" stroke="#e34948" stroke-width="1.1"/>
<rect x="628.5" y="464.3" width="8.7" height="5.7" fill="#008300"/>
<rect x="644.3" y="445.2" width="8.7" height="24.8" fill="none" stroke="#e34948" stroke-width="1.1"/>
<rect x="660.1" y="454.7" width="8.7" height="15.3" fill="#008300"/>
<rect x="675.9" y="447.1" width="8.7" height="22.9" fill="none" stroke="#e34948" stroke-width="1.1"/>
<rect x="691.6" y="449.0" width="8.7" height="21.0" fill="none" stroke="#e34948" stroke-width="1.1"/>
<rect x="707.4" y="426.1" width="8.7" height="43.9" fill="none" stroke="#e34948" stroke-width="1.1"/>
<rect x="723.2" y="439.5" width="8.7" height="30.5" fill="none" stroke="#e34948" stroke-width="1.1"/>
<rect x="738.9" y="431.9" width="8.7" height="38.1" fill="#008300"/>
<rect x="754.7" y="447.1" width="8.7" height="22.9" fill="#008300"/>
<rect x="770.5" y="456.7" width="8.7" height="13.3" fill="none" stroke="#e34948" stroke-width="1.1"/>
<rect x="786.2" y="443.3" width="8.7" height="26.7" fill="none" stroke="#e34948" stroke-width="1.1"/>
<rect x="802.0" y="388.0" width="8.7" height="82.0" fill="none" stroke="#e34948" stroke-width="1.1"/>
<rect x="817.8" y="433.8" width="8.7" height="36.2" fill="#008300"/>
<polyline points="159.8,436.6 175.6,434.7 191.3,433.6 207.1,433.8 222.9,432.1 238.7,431.3 254.4,430.0 270.2,427.9 286.0,424.8 301.7,427.5 317.5,429.6 333.3,431.9 349.0,432.1 364.8,432.8 380.6,434.9 396.3,436.8 412.1,437.4 427.9,439.1 443.7,440.6 459.4,438.9 475.2,435.3 491.0,434.0 506.7,434.5 522.5,434.3 538.3,434.3 554.0,434.1 569.8,434.3 585.6,436.1 601.3,436.4 617.1,437.0 632.9,442.2 648.7,444.1 664.4,446.0 680.2,446.4 696.0,446.7 711.7,445.8 727.5,446.5 743.3,444.1 759.0,444.6 774.8,446.2 790.6,444.1 806.3,438.3 822.1,436.2" fill="none" stroke="#2a78d6" stroke-width="1.5" stroke-linejoin="round" stroke-linecap="round"/>
<polyline points="81.0,435.7 96.7,436.1 112.5,436.8 128.3,440.3 144.0,437.2 159.8,437.6 175.6,433.4 191.3,430.3 207.1,427.3 222.9,426.9 238.7,425.0 254.4,426.5 270.2,425.4 286.0,422.3 301.7,428.0 317.5,434.1 333.3,437.2 349.0,438.7 364.8,443.3 380.6,441.8 396.3,439.5 412.1,437.6 427.9,439.5 443.7,438.0 459.4,436.1 475.2,431.1 491.0,430.3 506.7,429.6 522.5,430.7 538.3,432.6 554.0,437.2 569.8,438.3 585.6,442.5 601.3,442.2 617.1,441.4 632.9,447.1 648.7,449.8 664.4,449.4 680.2,450.5 696.0,452.1 711.7,444.4 727.5,443.3 743.3,438.7 759.0,438.7 774.8,440.3 790.6,443.7 806.3,433.4 822.1,433.8" fill="none" stroke="#eda100" stroke-width="1.5" stroke-linejoin="round" stroke-linecap="round"/>
</svg>