<svg xmlns="http://www.w3.org/2000/svg" viewBox="0 0 840 496" width="840" height="496" font-family="-apple-system,&#39;Segoe UI&#39;,system-ui,sans-serif" role="img" aria-label="practical-tutorials/project-based-learning candlestick chart">
<text x="14.0" y="20.0" font-size="15" fill="#0b0b0b" font-weight="650">practical-tutorials/project-based-learning</text>
<text x="364.5" y="20.0" font-size="11.5" fill="#52514e">daily · new stars, volume = new forks</text>
<text x="805.8" y="20.0" font-size="11.0" fill="#52514e">fall</text>
<rect x="791" y="10" width="9" height="12" fill="#008300"/>
<text x="750.6" y="20.0" font-size="11.0" fill="#52514e">rise</text>
<rect x="736" y="10" width="9" height="12" fill="none" stroke="#e34948" stroke-width="1.5"/>
<text x="14.0" y="38.0" font-size="11.0" fill="#898781">last 42 days · +6,489 stars · +736 forks · updated 2026-07-12</text>
<rect x="10" y="66" width="820" height="290" fill="none" stroke="#e1e0d9"/>
<rect x="10" y="384" width="820" height="86" fill="none" stroke="#e1e0d9"/>
<text x="38.0" y="490.0" font-size="11.0" fill="#898781" text-anchor="middle">2026-06</text>
<line x1="595.7" y1="66.0" x2="595.7" y2="356.0" stroke="#e1e0d9" stroke-width="1.0"/>
<line x1="595.7" y1="384.0" x2="595.7" y2="470.0" stroke="#e1e0d9" stroke-width="1.0"/>
<text x="605.5" y="490.0" font-size="11.0" fill="#898781" text-anchor="middle">2026-07</text>
<text x="14.0" y="58.0" font-size="11.0" fill="#52514e">BOLL(20,2)</text>
<text x="84.5" y="58.0" font-size="11.0" fill="#eda100">UP:203.3</text>
<text x="142.9" y="58.0" font-size="11.0" fill="#2a78d6">MID:134.7</text>
<text x="207.4" y="58.0" font-size="11.0" fill="#e87ba4">LOW:66.1</text>
<text x="265.8" y="58.0" font-size="11.0" fill="#4a3aa7">MA7:108</text>
<line x1="10.0" y1="356.0" x2="830.0" y2="356.0" stroke="#e1e0d9" stroke-width="1.0"/>
<text x="14.0" y="353.0" font-size="11.0" fill="#898781">0</text>
<line x1="10.0" y1="213.6" x2="830.0" y2="213.6" stroke="#e1e0d9" stroke-width="1.0"/>
<text x="14.0" y="210.6" font-size="11.0" fill="#898781">200</text>
<line x1="10.0" y1="71.3" x2="830.0" y2="71.3" stroke="#e1e0d9" stroke-width="1.0"/>
<text x="14.0" y="68.3" font-size="11.0" fill="#898781">400</text>
<polyline points="390.7,144.5 410.2,144.7 429.8,144.6 449.3,144.7 468.8,144.6 488.3,146.3 507.9,146.4 527.4,146.3 546.9,146.2 566.4,146.2 586.0,148.1 605.5,145.4 625.0,145.4 644.5,145.6 664.0,189.0 683.6,211.0 703.1,216.8 722.6,207.6 742.1,209.7 761.7,209.6 781.2,209.8 800.7,209.7 820.2,211.3" fill="none" stroke="#eda100" stroke-width="1.5" stroke-linejoin="round" stroke-linecap="round"/>
<polyline points="390.7,230.8 410.2,232.8 429.8,232.2 449.3,231.7 468.8,231.4 488.3,233.0 507.9,233.2 527.4,233.4 546.9,233.8 566.4,233.8 586.0,235.3 605.5,233.9 625.0,233.0 644.5,234.8 664.0,244.6 683.6,248.6 703.1,250.7 722.6,255.4 742.1,257.7 761.7,258.1 781.2,259.3 800.7,258.8 820.2,260.1" fill="none" stroke="#2a78d6" stroke-width="1.5" stroke-linejoin="round" stroke-linecap="round"/>
<polyline points="390.7,317.0 410.2,320.9 429.8,319.9 449.3,318.8 468.8,318.2 488.3,319.6 507.9,320.0 527.4,320.4 546.9,321.5 566.4,321.5 586.0,322.5 605.5,322.4 625.0,320.5 644.5,324.1 664.0,300.1 683.6,286.3 703.1,284.6 722.6,303.2 742.1,305.7 761.7,306.5 781.2,308.7 800.7,307.9 820.2,308.9" fill="none" stroke="#e87ba4" stroke-width="1.5" stroke-linejoin="round" stroke-linecap="round"/>
<polyline points="136.9,246.6 156.4,250.2 176.0,249.0 195.5,241.9 215.0,238.8 234.5,246.3 254.0,243.8 273.6,218.0 293.1,203.5 312.6,198.7 332.1,202.0 351.7,202.7 371.2,203.0 390.7,206.1 410.2,233.6 429.8,246.3 449.3,252.0 468.8,253.2 488.3,254.6 507.9,252.9 527.4,254.0 546.9,253.1 566.4,253.6 586.0,252.1 605.5,245.9 625.0,246.3 644.5,248.6 664.0,250.0 683.6,245.7 703.1,246.8 722.6,259.3 742.1,270.8 761.7,274.8 781.2,275.8 800.7,274.2 820.2,279.1" fill="none" stroke="#4a3aa7" stroke-width="1.5" stroke-linejoin="round" stroke-linecap="round"/>
<rect x="14.4" y="231.4" width="10.7" height="124.6" fill="none" stroke="#e34948" stroke-width="1.3"/>
<rect x="33.9" y="231.4" width="10.7" height="22.8" fill="#008300"/>
<rect x="53.4" y="254.2" width="10.7" height="8.5" fill="#008300"/>
<rect x="73.0" y="251.4" width="10.7" height="11.4" fill="none" stroke="#e34948" stroke-width="1.3"/>
<rect x="92.5" y="213.6" width="10.7" height="37.7" fill="none" stroke="#e34948" stroke-width="1.3"/>
<rect x="112.0" y="213.6" width="10.7" height="38.4" fill="#008300"/>
<rect x="131.5" y="252.1" width="10.7" height="8.5" fill="#008300"/>
<rect x="151.1" y="256.3" width="10.7" height="4.3" fill="none" stroke="#e34948" stroke-width="1.3"/>
<rect x="170.6" y="246.4" width="10.7" height="10.0" fill="none" stroke="#e34948" stroke-width="1.3"/>
<rect x="190.1" y="212.9" width="10.7" height="33.5" fill="none" stroke="#e34948" stroke-width="1.3"/>
<rect x="209.6" y="212.9" width="10.7" height="16.4" fill="#008300"/>
<rect x="229.2" y="229.3" width="10.7" height="37.0" fill="#008300"/>
<rect x="248.7" y="235.0" width="10.7" height="31.3" fill="none" stroke="#e34948" stroke-width="1.3"/>
<rect x="268.2" y="79.8" width="10.7" height="155.2" fill="none" stroke="#e34948" stroke-width="1.3"/>
<rect x="287.7" y="79.8" width="10.7" height="74.7" fill="#008300"/>
<rect x="307.3" y="154.6" width="10.7" height="58.4" fill="#008300"/>
<rect x="326.8" y="212.9" width="10.7" height="22.8" fill="#008300"/>
<rect x="346.3" y="235.0" width="10.7" height="1.2" fill="none" stroke="#e34948" stroke-width="1.3"/>
<rect x="365.8" y="235.0" width="10.7" height="33.5" fill="#008300"/>
<rect x="385.3" y="256.3" width="10.7" height="12.1" fill="none" stroke="#e34948" stroke-width="1.3"/>
<rect x="404.9" y="256.3" width="10.7" height="15.7" fill="#008300"/>
<rect x="424.4" y="243.5" width="10.7" height="28.5" fill="none" stroke="#e34948" stroke-width="1.3"/>
<rect x="443.9" y="243.5" width="10.7" height="9.3" fill="#008300"/>
<rect x="463.4" y="244.2" width="10.7" height="8.5" fill="none" stroke="#e34948" stroke-width="1.3"/>
<rect x="483.0" y="244.2" width="10.7" height="1.2" fill="#008300"/>
<rect x="502.5" y="245.0" width="10.7" height="11.4" fill="#008300"/>
<rect x="522.0" y="256.3" width="10.7" height="7.8" fill="#008300"/>
<rect x="541.5" y="264.2" width="10.7" height="1.4" fill="#008300"/>
<rect x="561.1" y="247.1" width="10.7" height="18.5" fill="none" stroke="#e34948" stroke-width="1.3"/>
<rect x="580.6" y="242.8" width="10.7" height="4.3" fill="none" stroke="#e34948" stroke-width="1.3"/>
<rect x="600.1" y="200.1" width="10.7" height="42.7" fill="none" stroke="#e34948" stroke-width="1.3"/>
<rect x="619.6" y="200.1" width="10.7" height="47.7" fill="#008300"/>
<rect x="639.2" y="247.8" width="10.7" height="24.9" fill="#008300"/>
<rect x="658.7" y="272.7" width="10.7" height="1.4" fill="#008300"/>
<rect x="678.2" y="235.7" width="10.7" height="38.4" fill="none" stroke="#e34948" stroke-width="1.3"/>
<rect x="697.7" y="235.7" width="10.7" height="18.5" fill="#008300"/>
<rect x="717.3" y="254.2" width="10.7" height="76.2" fill="#008300"/>
<rect x="736.8" y="280.5" width="10.7" height="49.8" fill="none" stroke="#e34948" stroke-width="1.3"/>
<rect x="756.3" y="275.6" width="10.7" height="5.0" fill="none" stroke="#e34948" stroke-width="1.3"/>
<rect x="775.8" y="275.6" width="10.7" height="5.0" fill="#008300"/>
<rect x="795.3" y="262.8" width="10.7" height="17.8" fill="none" stroke="#e34948" stroke-width="1.3"/>
<rect x="814.9" y="262.8" width="10.7" height="7.1" fill="#008300"/>
<circle cx="273.6" cy="79.8" r="2" fill="#52514e"/>
<line x1="273.6" y1="79.8" x2="281.6" y2="79.8" stroke="#52514e" stroke-width="1.0"/>
<text x="284.6" y="83.8" font-size="11.0" fill="#52514e">388</text>
<circle cx="19.8" cy="356.0" r="2" fill="#52514e"/>
<line x1="19.8" y1="356.0" x2="27.8" y2="356.0" stroke="#52514e" stroke-width="1.0"/>
<text x="30.8" y="350.0" font-size="11.0" fill="#52514e">0</text>
<text x="14.0" y="376.0" font-size="11.0" fill="#52514e">VOL 8 forks</text>
<text x="90.6" y="376.0" font-size="11.0" fill="#eda100">MA5:10.8</text>
<text x="149.0" y="376.0" font-size="11.0" fill="#2a78d6">MA10:12.6</text>
<text x="14.0" y="395.0" font-size="10" fill="#898781">30</text>
<rect x="14.4" y="420.8" width="10.7" height="49.2" fill="none" stroke="#e34948" stroke-width="1.1"/>
<rect x="33.9" y="426.3" width="10.7" height="43.7" fill="#008300"/>
<rect x="53.4" y="420.8" width="10.7" height="49.2" fill="#008300"/>
<rect x="73.0" y="429.0" width="10.7" height="41.0" fill="none" stroke="#e34948" stroke-width="1.1"/>
<rect x="92.5" y="407.1" width="10.7" height="62.9" fill="none" stroke="#e34948" stroke-width="1.1"/>
<rect x="112.0" y="423.5" width="10.7" height="46.5" fill="#008300"/>
<rect x="131.5" y="431.7" width="10.7" height="38.3" fill="#008300"/>
<rect x="151.1" y="445.4" width="10.7" height="24.6" fill="none" stroke="#e34948" stroke-width="1.1"/>
<rect x="170.6" y="407.1" width="10.7" height="62.9" fill="none" stroke="#e34948" stroke-width="1.1"/>
<rect x="190.1" y="409.9" width="10.7" height="60.1" fill="none" stroke="#e34948" stroke-width="1.1"/>
<rect x="209.6" y="393.5" width="10.7" height="76.5" fill="#008300"/>
<rect x="229.2" y="409.9" width="10.7" height="60.1" fill="#008300"/>
<rect x="248.7" y="423.5" width="10.7" height="46.5" fill="none" stroke="#e34948" stroke-width="1.1"/>
<rect x="268.2" y="404.4" width="10.7" height="65.6" fill="none" stroke="#e34948" stroke-width="1.1"/>
<rect x="287.7" y="396.2" width="10.7" height="73.8" fill="#008300"/>
<rect x="307.3" y="404.4" width="10.7" height="65.6" fill="#008300"/>
<rect x="326.8" y="401.7" width="10.7" height="68.3" fill="#008300"/>
<rect x="346.3" y="401.7" width="10.7" height="68.3" fill="none" stroke="#e34948" stroke-width="1.1"/>
<rect x="365.8" y="445.4" width="10.7" height="24.6" fill="#008300"/>
<rect x="385.3" y="439.9" width="10.7" height="30.1" fill="none" stroke="#e34948" stroke-width="1.1"/>
<rect x="404.9" y="426.3" width="10.7" height="43.7" fill="#008300"/>
<rect x="424.4" y="412.6" width="10.7" height="57.4" fill="none" stroke="#e34948" stroke-width="1.1"/>
<rect x="443.9" y="434.5" width="10.7" height="35.5" fill="#008300"/>
<rect x="463.4" y="434.5" width="10.7" height="35.5" fill="none" stroke="#e34948" stroke-width="1.1"/>
<rect x="483.0" y="423.5" width="10.7" height="46.5" fill="#008300"/>
<rect x="502.5" y="412.6" width="10.7" height="57.4" fill="#008300"/>
<rect x="522.0" y="426.3" width="10.7" height="43.7" fill="#008300"/>
<rect x="541.5" y="423.5" width="10.7" height="46.5" fill="#008300"/>
<rect x="561.1" y="420.8" width="10.7" height="49.2" fill="none" stroke="#e34948" stroke-width="1.1"/>
<rect x="580.6" y="388.0" width="10.7" height="82.0" fill="none" stroke="#e34948" stroke-width="1.1"/>
<rect x="600.1" y="407.1" width="10.7" height="62.9" fill="none" stroke="#e34948" stroke-width="1.1"/>
<rect x="619.6" y="420.8" width="10.7" height="49.2" fill="#008300"/>
<rect x="639.2" y="431.7" width="10.7" height="38.3" fill="#008300"/>
<rect x="658.7" y="434.5" width="10.7" height="35.5" fill="#008300"/>
<rect x="678.2" y="420.8" width="10.7" height="49.2" fill="none" stroke="#e34948" stroke-width="1.1"/>
<rect x="697.7" y="415.3" width="10.7" height="54.7" fill="#008300"/>
<rect x="717.3" y="450.9" width="10.7" height="19.1" fill="#008300"/>
<rect x="736.8" y="429.0" width="10.7" height="41.0" fill="none" stroke="#e34948" stroke-width="1.1"/>
<rect x="756.3" y="429.0" width="10.7" height="41.0" fill="none" stroke="#e34948" stroke-width="1.1"/>
<rect x="775.8" y="461.8" width="10.7" height="8.2" fill="#008300"/>
<rect x="795.3" y="434.5" width="10.7" height="35.5" fill="none" stroke="#e34948" stroke-width="1.1"/>
<rect x="814.9" y="448.1" width="10.7" height="21.9" fill="#008300"/>
<polyline points="195.5,422.2 215.0,419.4 234.5,417.8 254.0,418.1 273.6,415.6 293.1,414.5 312.6,412.6 332.1,409.6 351.7,405.2 371.2,409.0 390.7,412.1 410.2,415.3 429.8,415.6 449.3,416.7 468.8,419.7 488.3,422.4 507.9,423.3 527.4,425.7 546.9,427.9 566.4,425.4 586.0,420.3 605.5,418.3 625.0,419.2 644.5,418.9 664.0,418.9 683.6,418.6 703.1,418.9 722.6,421.3 742.1,421.9 761.7,422.7 781.2,430.1 800.7,432.8 820.2,435.6" fill="none" stroke="#2a78d6" stroke-width="1.5" stroke-linejoin="round" stroke-linecap="round"/>
<polyline points="97.9,420.8 117.4,421.3 136.9,422.4 156.4,427.4 176.0,423.0 195.5,423.5 215.0,417.5 234.5,413.1 254.0,408.8 273.6,408.2 293.1,405.5 312.6,407.7 332.1,406.0 351.7,401.7 371.2,409.9 390.7,418.6 410.2,423.0 429.8,425.2 449.3,431.7 468.8,429.5 488.3,426.3 507.9,423.5 527.4,426.3 546.9,424.1 566.4,421.3 586.0,414.2 605.5,413.1 625.0,412.1 644.5,413.7 664.0,416.4 683.6,423.0 703.1,424.6 722.6,430.6 742.1,430.1 761.7,429.0 781.2,437.2 800.7,441.0 820.2,440.5" fill="none" stroke="#eda100" stroke-width="1.5" stroke-linejoin="round" stroke-linecap="round"/>
</svg>