<svg xmlns="http://www.w3.org/2000/svg" viewBox="0 0 840 496" width="840" height="496" font-family="-apple-system,&#39;Segoe UI&#39;,system-ui,sans-serif" role="img" aria-label="practical-tutorials/project-based-learning candlestick chart">
<text x="14.0" y="20.0" font-size="15" fill="#0b0b0b" font-weight="650">practical-tutorials/project-based-learning</text>
<text x="364.5" y="20.0" font-size="11.5" fill="#52514e">daily · new stars, volume = new forks</text>
<text x="805.8" y="20.0" font-size="11.0" fill="#52514e">fall</text>
<rect x="791" y="10" width="9" height="12" fill="#008300"/>
<text x="750.6" y="20.0" font-size="11.0" fill="#52514e">rise</text>
<rect x="736" y="10" width="9" height="12" fill="none" stroke="#e34948" stroke-width="1.5"/>
<text x="14.0" y="38.0" font-size="11.0" fill="#898781">last 50 days · +7,699 stars · +851 forks · updated 2026-07-20</text>
<rect x="10" y="66" width="820" height="290" fill="none" stroke="#e1e0d9"/>
<rect x="10" y="384" width="820" height="86" fill="none" stroke="#e1e0d9"/>
<text x="38.0" y="490.0" font-size="11.0" fill="#898781" text-anchor="middle">2026-06</text>
<line x1="502.0" y1="66.0" x2="502.0" y2="356.0" stroke="#e1e0d9" stroke-width="1.0"/>
<line x1="502.0" y1="384.0" x2="502.0" y2="470.0" stroke="#e1e0d9" stroke-width="1.0"/>
<text x="510.2" y="490.0" font-size="11.0" fill="#898781" text-anchor="middle">2026-07</text>
<text x="14.0" y="58.0" font-size="11.0" fill="#52514e">BOLL(20,2)</text>
<text x="84.5" y="58.0" font-size="11.0" fill="#eda100">UP:216.4</text>
<text x="142.9" y="58.0" font-size="11.0" fill="#2a78d6">MID:136.9</text>
<text x="207.4" y="58.0" font-size="11.0" fill="#e87ba4">LOW:57.4</text>
<text x="265.8" y="58.0" font-size="11.0" fill="#4a3aa7">MA7:154</text>
<line x1="10.0" y1="356.0" x2="830.0" y2="356.0" stroke="#e1e0d9" stroke-width="1.0"/>
<text x="14.0" y="353.0" font-size="11.0" fill="#898781">0</text>
<line x1="10.0" y1="213.6" x2="830.0" y2="213.6" stroke="#e1e0d9" stroke-width="1.0"/>
<text x="14.0" y="210.6" font-size="11.0" fill="#898781">200</text>
<line x1="10.0" y1="71.3" x2="830.0" y2="71.3" stroke="#e1e0d9" stroke-width="1.0"/>
<text x="14.0" y="68.3" font-size="11.0" fill="#898781">400</text>
<polyline points="329.8,144.5 346.2,144.7 362.6,144.6 379.0,144.7 395.4,144.6 411.8,146.3 428.2,146.4 444.6,146.3 461.0,146.2 477.4,146.2 493.8,148.1 510.2,145.4 526.6,145.4 543.0,145.6 559.4,189.0 575.8,211.0 592.2,216.8 608.6,207.6 625.0,209.7 641.4,209.6 657.8,209.8 674.2,209.7 690.6,211.3 707.0,211.9 723.4,212.8 739.8,212.4 756.2,206.3 772.6,206.4 789.0,206.4 805.4,206.9 821.8,201.9" fill="none" stroke="#eda100" stroke-width="1.5" stroke-linejoin="round" stroke-linecap="round"/>
<polyline points="329.8,230.8 346.2,232.8 362.6,232.2 379.0,231.7 395.4,231.4 411.8,233.0 428.2,233.2 444.6,233.4 461.0,233.8 477.4,233.8 493.8,235.3 510.2,233.9 526.6,233.0 543.0,234.8 559.4,244.6 575.8,248.6 592.2,250.7 608.6,255.4 625.0,257.7 641.4,258.1 657.8,259.3 674.2,258.8 690.6,260.1 707.0,260.6 723.4,261.0 739.8,260.9 756.2,258.8 772.6,259.0 789.0,259.8 805.4,260.0 821.8,258.6" fill="none" stroke="#2a78d6" stroke-width="1.5" stroke-linejoin="round" stroke-linecap="round"/>
<polyline points="329.8,317.0 346.2,320.9 362.6,319.9 379.0,318.8 395.4,318.2 411.8,319.6 428.2,320.0 444.6,320.4 461.0,321.5 477.4,321.5 493.8,322.5 510.2,322.4 526.6,320.5 543.0,324.1 559.4,300.1 575.8,286.3 592.2,284.6 608.6,303.2 625.0,305.7 641.4,306.5 657.8,308.7 674.2,307.9 690.6,308.9 707.0,309.3 723.4,309.3 739.8,309.4 756.2,311.3 772.6,311.7 789.0,313.2 805.4,313.2 821.8,315.2" fill="none" stroke="#e87ba4" stroke-width="1.5" stroke-linejoin="round" stroke-linecap="round"/>
<polyline points="116.6,246.6 133.0,250.2 149.4,249.0 165.8,241.9 182.2,238.8 198.6,246.3 215.0,243.8 231.4,218.0 247.8,203.5 264.2,198.7 280.6,202.0 297.0,202.7 313.4,203.0 329.8,206.1 346.2,233.6 362.6,246.3 379.0,252.0 395.4,253.2 411.8,254.6 428.2,252.9 444.6,254.0 461.0,253.1 477.4,253.6 493.8,252.1 510.2,245.9 526.6,246.3 543.0,248.6 559.4,250.0 575.8,245.7 592.2,246.8 608.6,259.3 625.0,270.8 641.4,274.8 657.8,275.8 674.2,274.2 690.6,279.1 707.0,280.3 723.4,269.2 739.8,263.7 756.2,255.0 772.6,253.4 789.0,255.9 805.4,253.4 821.8,246.4" fill="none" stroke="#4a3aa7" stroke-width="1.5" stroke-linejoin="round" stroke-linecap="round"/>
<rect x="13.7" y="231.4" width="9.0" height="124.6" fill="none" stroke="#e34948" stroke-width="1.3"/>
<rect x="30.1" y="231.4" width="9.0" height="22.8" fill="#008300"/>
<rect x="46.5" y="254.2" width="9.0" height="8.5" fill="#008300"/>
<rect x="62.9" y="251.4" width="9.0" height="11.4" fill="none" stroke="#e34948" stroke-width="1.3"/>
<rect x="79.3" y="213.6" width="9.0" height="37.7" fill="none" stroke="#e34948" stroke-width="1.3"/>
<rect x="95.7" y="213.6" width="9.0" height="38.4" fill="#008300"/>
<rect x="112.1" y="252.1" width="9.0" height="8.5" fill="#008300"/>
<rect x="128.5" y="256.3" width="9.0" height="4.3" fill="none" stroke="#e34948" stroke-width="1.3"/>
<rect x="144.9" y="246.4" width="9.0" height="10.0" fill="none" stroke="#e34948" stroke-width="1.3"/>
<rect x="161.3" y="212.9" width="9.0" height="33.5" fill="none" stroke="#e34948" stroke-width="1.3"/>
<rect x="177.7" y="212.9" width="9.0" height="16.4" fill="#008300"/>
<rect x="194.1" y="229.3" width="9.0" height="37.0" fill="#008300"/>
<rect x="210.5" y="235.0" width="9.0" height="31.3" fill="none" stroke="#e34948" stroke-width="1.3"/>
<rect x="226.9" y="79.8" width="9.0" height="155.2" fill="none" stroke="#e34948" stroke-width="1.3"/>
<rect x="243.3" y="79.8" width="9.0" height="74.7" fill="#008300"/>
<rect x="259.7" y="154.6" width="9.0" height="58.4" fill="#008300"/>
<rect x="276.1" y="212.9" width="9.0" height="22.8" fill="#008300"/>
<rect x="292.5" y="235.0" width="9.0" height="1.2" fill="none" stroke="#e34948" stroke-width="1.3"/>
<rect x="308.9" y="235.0" width="9.0" height="33.5" fill="#008300"/>
<rect x="325.3" y="256.3" width="9.0" height="12.1" fill="none" stroke="#e34948" stroke-width="1.3"/>
<rect x="341.7" y="256.3" width="9.0" height="15.7" fill="#008300"/>
<rect x="358.1" y="243.5" width="9.0" height="28.5" fill="none" stroke="#e34948" stroke-width="1.3"/>
<rect x="374.5" y="243.5" width="9.0" height="9.3" fill="#008300"/>
<rect x="390.9" y="244.2" width="9.0" height="8.5" fill="none" stroke="#e34948" stroke-width="1.3"/>
<rect x="407.3" y="244.2" width="9.0" height="1.2" fill="#008300"/>
<rect x="423.7" y="245.0" width="9.0" height="11.4" fill="#008300"/>
<rect x="440.1" y="256.3" width="9.0" height="7.8" fill="#008300"/>
<rect x="456.5" y="264.2" width="9.0" height="1.4" fill="#008300"/>
<rect x="472.9" y="247.1" width="9.0" height="18.5" fill="none" stroke="#e34948" stroke-width="1.3"/>
<rect x="489.3" y="242.8" width="9.0" height="4.3" fill="none" stroke="#e34948" stroke-width="1.3"/>
<rect x="505.7" y="200.1" width="9.0" height="42.7" fill="none" stroke="#e34948" stroke-width="1.3"/>
<rect x="522.1" y="200.1" width="9.0" height="47.7" fill="#008300"/>
<rect x="538.5" y="247.8" width="9.0" height="24.9" fill="#008300"/>
<rect x="554.9" y="272.7" width="9.0" height="1.4" fill="#008300"/>
<rect x="571.3" y="235.7" width="9.0" height="38.4" fill="none" stroke="#e34948" stroke-width="1.3"/>
<rect x="587.7" y="235.7" width="9.0" height="18.5" fill="#008300"/>
<rect x="604.1" y="254.2" width="9.0" height="76.2" fill="#008300"/>
<rect x="620.5" y="280.5" width="9.0" height="49.8" fill="none" stroke="#e34948" stroke-width="1.3"/>
<rect x="636.9" y="275.6" width="9.0" height="5.0" fill="none" stroke="#e34948" stroke-width="1.3"/>
<rect x="653.3" y="275.6" width="9.0" height="5.0" fill="#008300"/>
<rect x="669.7" y="262.8" width="9.0" height="17.8" fill="none" stroke="#e34948" stroke-width="1.3"/>
<rect x="686.1" y="262.8" width="9.0" height="7.1" fill="#008300"/>
<rect x="702.5" y="262.0" width="9.0" height="7.8" fill="none" stroke="#e34948" stroke-width="1.3"/>
<rect x="718.9" y="253.5" width="9.0" height="8.5" fill="none" stroke="#e34948" stroke-width="1.3"/>
<rect x="735.3" y="241.4" width="9.0" height="12.1" fill="none" stroke="#e34948" stroke-width="1.3"/>
<rect x="751.7" y="215.1" width="9.0" height="26.3" fill="none" stroke="#e34948" stroke-width="1.3"/>
<rect x="768.1" y="215.1" width="9.0" height="54.1" fill="#008300"/>
<rect x="784.5" y="269.2" width="9.0" height="11.4" fill="#008300"/>
<rect x="800.9" y="252.1" width="9.0" height="28.5" fill="none" stroke="#e34948" stroke-width="1.3"/>
<rect x="817.3" y="212.9" width="9.0" height="39.2" fill="none" stroke="#e34948" stroke-width="1.3"/>
<circle cx="231.4" cy="79.8" r="2" fill="#52514e"/>
<line x1="231.4" y1="79.8" x2="239.4" y2="79.8" stroke="#52514e" stroke-width="1.0"/>
<text x="242.4" y="83.8" font-size="11.0" fill="#52514e">388</text>
<circle cx="18.2" cy="356.0" r="2" fill="#52514e"/>
<line x1="18.2" y1="356.0" x2="26.2" y2="356.0" stroke="#52514e" stroke-width="1.0"/>
<text x="29.2" y="350.0" font-size="11.0" fill="#52514e">0</text>
<text x="14.0" y="376.0" font-size="11.0" fill="#52514e">VOL 14 forks</text>
<text x="96.6" y="376.0" font-size="11.0" fill="#eda100">MA5:13.8</text>
<text x="155.0" y="376.0" font-size="11.0" fill="#2a78d6">MA10:13.6</text>
<text x="14.0" y="395.0" font-size="10" fill="#898781">30</text>
<rect x="13.7" y="420.8" width="9.0" height="49.2" fill="none" stroke="#e34948" stroke-width="1.1"/>
<rect x="30.1" y="426.3" width="9.0" height="43.7" fill="#008300"/>
<rect x="46.5" y="420.8" width="9.0" height="49.2" fill="#008300"/>
<rect x="62.9" y="429.0" width="9.0" height="41.0" fill="none" stroke="#e34948" stroke-width="1.1"/>
<rect x="79.3" y="407.1" width="9.0" height="62.9" fill="none" stroke="#e34948" stroke-width="1.1"/>
<rect x="95.7" y="423.5" width="9.0" height="46.5" fill="#008300"/>
<rect x="112.1" y="431.7" width="9.0" height="38.3" fill="#008300"/>
<rect x="128.5" y="445.4" width="9.0" height="24.6" fill="none" stroke="#e34948" stroke-width="1.1"/>
<rect x="144.9" y="407.1" width="9.0" height="62.9" fill="none" stroke="#e34948" stroke-width="1.1"/>
<rect x="161.3" y="409.9" width="9.0" height="60.1" fill="none" stroke="#e34948" stroke-width="1.1"/>
<rect x="177.7" y="393.5" width="9.0" height="76.5" fill="#008300"/>
<rect x="194.1" y="409.9" width="9.0" height="60.1" fill="#008300"/>
<rect x="210.5" y="423.5" width="9.0" height="46.5" fill="none" stroke="#e34948" stroke-width="1.1"/>
<rect x="226.9" y="404.4" width="9.0" height="65.6" fill="none" stroke="#e34948" stroke-width="1.1"/>
<rect x="243.3" y="396.2" width="9.0" height="73.8" fill="#008300"/>
<rect x="259.7" y="404.4" width="9.0" height="65.6" fill="#008300"/>
<rect x="276.1" y="401.7" width="9.0" height="68.3" fill="#008300"/>
<rect x="292.5" y="401.7" width="9.0" height="68.3" fill="none" stroke="#e34948" stroke-width="1.1"/>
<rect x="308.9" y="445.4" width="9.0" height="24.6" fill="#008300"/>
<rect x="325.3" y="439.9" width="9.0" height="30.1" fill="none" stroke="#e34948" stroke-width="1.1"/>
<rect x="341.7" y="426.3" width="9.0" height="43.7" fill="#008300"/>
<rect x="358.1" y="412.6" width="9.0" height="57.4" fill="none" stroke="#e34948" stroke-width="1.1"/>
<rect x="374.5" y="434.5" width="9.0" height="35.5" fill="#008300"/>
<rect x="390.9" y="434.5" width="9.0" height="35.5" fill="none" stroke="#e34948" stroke-width="1.1"/>
<rect x="407.3" y="423.5" width="9.0" height="46.5" fill="#008300"/>
<rect x="423.7" y="412.6" width="9.0" height="57.4" fill="#008300"/>
<rect x="440.1" y="426.3" width="9.0" height="43.7" fill="#008300"/>
<rect x="456.5" y="423.5" width="9.0" height="46.5" fill="#008300"/>
<rect x="472.9" y="420.8" width="9.0" height="49.2" fill="none" stroke="#e34948" stroke-width="1.1"/>
<rect x="489.3" y="388.0" width="9.0" height="82.0" fill="none" stroke="#e34948" stroke-width="1.1"/>
<rect x="505.7" y="407.1" width="9.0" height="62.9" fill="none" stroke="#e34948" stroke-width="1.1"/>
<rect x="522.1" y="420.8" width="9.0" height="49.2" fill="#008300"/>
<rect x="538.5" y="431.7" width="9.0" height="38.3" fill="#008300"/>
<rect x="554.9" y="434.5" width="9.0" height="35.5" fill="#008300"/>
<rect x="571.3" y="420.8" width="9.0" height="49.2" fill="none" stroke="#e34948" stroke-width="1.1"/>
<rect x="587.7" y="415.3" width="9.0" height="54.7" fill="#008300"/>
<rect x="604.1" y="450.9" width="9.0" height="19.1" fill="#008300"/>
<rect x="620.5" y="429.0" width="9.0" height="41.0" fill="none" stroke="#e34948" stroke-width="1.1"/>
<rect x="636.9" y="429.0" width="9.0" height="41.0" fill="none" stroke="#e34948" stroke-width="1.1"/>
<rect x="653.3" y="461.8" width="9.0" height="8.2" fill="#008300"/>
<rect x="669.7" y="434.5" width="9.0" height="35.5" fill="none" stroke="#e34948" stroke-width="1.1"/>
<rect x="686.1" y="448.1" width="9.0" height="21.9" fill="#008300"/>
<rect x="702.5" y="437.2" width="9.0" height="32.8" fill="none" stroke="#e34948" stroke-width="1.1"/>
<rect x="718.9" y="439.9" width="9.0" height="30.1" fill="none" stroke="#e34948" stroke-width="1.1"/>
<rect x="735.3" y="407.1" width="9.0" height="62.9" fill="none" stroke="#e34948" stroke-width="1.1"/>
<rect x="751.7" y="426.3" width="9.0" height="43.7" fill="none" stroke="#e34948" stroke-width="1.1"/>
<rect x="768.1" y="415.3" width="9.0" height="54.7" fill="#008300"/>
<rect x="784.5" y="437.2" width="9.0" height="32.8" fill="#008300"/>
<rect x="800.9" y="450.9" width="9.0" height="19.1" fill="none" stroke="#e34948" stroke-width="1.1"/>
<rect x="817.3" y="431.7" width="9.0" height="38.3" fill="none" stroke="#e34948" stroke-width="1.1"/>
<polyline points="165.8,422.2 182.2,419.4 198.6,417.8 215.0,418.1 231.4,415.6 247.8,414.5 264.2,412.6 280.6,409.6 297.0,405.2 313.4,409.0 329.8,412.1 346.2,415.3 362.6,415.6 379.0,416.7 395.4,419.7 411.8,422.4 428.2,423.3 444.6,425.7 461.0,427.9 477.4,425.4 493.8,420.3 510.2,418.3 526.6,419.2 543.0,418.9 559.4,418.9 575.8,418.6 592.2,418.9 608.6,421.3 625.0,421.9 641.4,422.7 657.8,430.1 674.2,432.8 690.6,435.6 707.0,436.1 723.4,436.7 739.8,435.3 756.2,436.4 772.6,432.8 789.0,433.6 805.4,435.8 821.8,432.8" fill="none" stroke="#2a78d6" stroke-width="1.5" stroke-linejoin="round" stroke-linecap="round"/>
<polyline points="83.8,420.8 100.2,421.3 116.6,422.4 133.0,427.4 149.4,423.0 165.8,423.5 182.2,417.5 198.6,413.1 215.0,408.8 231.4,408.2 247.8,405.5 264.2,407.7 280.6,406.0 297.0,401.7 313.4,409.9 329.8,418.6 346.2,423.0 362.6,425.2 379.0,431.7 395.4,429.5 411.8,426.3 428.2,423.5 444.6,426.3 461.0,424.1 477.4,421.3 493.8,414.2 510.2,413.1 526.6,412.1 543.0,413.7 559.4,416.4 575.8,423.0 592.2,424.6 608.6,430.6 625.0,430.1 641.4,429.0 657.8,437.2 674.2,441.0 690.6,440.5 707.0,442.1 723.4,444.3 739.8,433.4 756.2,431.7 772.6,425.2 789.0,425.2 805.4,427.4 821.8,432.3" fill="none" stroke="#eda100" stroke-width="1.5" stroke-linejoin="round" stroke-linecap="round"/>
</svg>