<svg xmlns="http://www.w3.org/2000/svg" viewBox="0 0 840 496" width="840" height="496" font-family="-apple-system,&#39;Segoe UI&#39;,system-ui,sans-serif" role="img" aria-label="practical-tutorials/project-based-learning candlestick chart">
<text x="14.0" y="20.0" font-size="15" fill="#0b0b0b" font-weight="650">practical-tutorials/project-based-learning</text>
<text x="364.5" y="20.0" font-size="11.5" fill="#52514e">daily · new stars, volume = new forks</text>
<text x="805.8" y="20.0" font-size="11.0" fill="#52514e">fall</text>
<rect x="791" y="10" width="9" height="12" fill="#008300"/>
<text x="750.6" y="20.0" font-size="11.0" fill="#52514e">rise</text>
<rect x="736" y="10" width="9" height="12" fill="none" stroke="#e34948" stroke-width="1.5"/>
<text x="14.0" y="38.0" font-size="11.0" fill="#898781">last 38 days · +6,018 stars · +697 forks · updated 2026-07-08</text>
<rect x="10" y="66" width="820" height="290" fill="none" stroke="#e1e0d9"/>
<rect x="10" y="384" width="820" height="86" fill="none" stroke="#e1e0d9"/>
<text x="38.0" y="490.0" font-size="11.0" fill="#898781" text-anchor="middle">2026-06</text>
<line x1="657.4" y1="66.0" x2="657.4" y2="356.0" stroke="#e1e0d9" stroke-width="1.0"/>
<line x1="657.4" y1="384.0" x2="657.4" y2="470.0" stroke="#e1e0d9" stroke-width="1.0"/>
<text x="668.2" y="490.0" font-size="11.0" fill="#898781" text-anchor="middle">2026-07</text>
<text x="14.0" y="58.0" font-size="11.0" fill="#52514e">BOLL(20,2)</text>
<text x="84.5" y="58.0" font-size="11.0" fill="#eda100">UP:205.6</text>
<text x="142.9" y="58.0" font-size="11.0" fill="#2a78d6">MID:138.1</text>
<text x="207.4" y="58.0" font-size="11.0" fill="#e87ba4">LOW:70.6</text>
<text x="265.8" y="58.0" font-size="11.0" fill="#4a3aa7">MA7:119.7</text>
<line x1="10.0" y1="356.0" x2="830.0" y2="356.0" stroke="#e1e0d9" stroke-width="1.0"/>
<text x="14.0" y="353.0" font-size="11.0" fill="#898781">0</text>
<line x1="10.0" y1="213.6" x2="830.0" y2="213.6" stroke="#e1e0d9" stroke-width="1.0"/>
<text x="14.0" y="210.6" font-size="11.0" fill="#898781">200</text>
<line x1="10.0" y1="71.3" x2="830.0" y2="71.3" stroke="#e1e0d9" stroke-width="1.0"/>
<text x="14.0" y="68.3" font-size="11.0" fill="#898781">400</text>
<polyline points="430.8,144.5 452.4,144.7 473.9,144.6 495.5,144.7 517.1,144.6 538.7,146.3 560.3,146.4 581.8,146.3 603.4,146.2 625.0,146.2 646.6,148.1 668.2,145.4 689.7,145.4 711.3,145.6 732.9,189.0 754.5,211.0 776.1,216.8 797.6,207.6 819.2,209.7" fill="none" stroke="#eda100" stroke-width="1.5" stroke-linejoin="round" stroke-linecap="round"/>
<polyline points="430.8,230.8 452.4,232.8 473.9,232.2 495.5,231.7 517.1,231.4 538.7,233.0 560.3,233.2 581.8,233.4 603.4,233.8 625.0,233.8 646.6,235.3 668.2,233.9 689.7,233.0 711.3,234.8 732.9,244.6 754.5,248.6 776.1,250.7 797.6,255.4 819.2,257.7" fill="none" stroke="#2a78d6" stroke-width="1.5" stroke-linejoin="round" stroke-linecap="round"/>
<polyline points="430.8,317.0 452.4,320.9 473.9,319.9 495.5,318.8 517.1,318.2 538.7,319.6 560.3,320.0 581.8,320.4 603.4,321.5 625.0,321.5 646.6,322.5 668.2,322.4 689.7,320.5 711.3,324.1 732.9,300.1 754.5,286.3 776.1,284.6 797.6,303.2 819.2,305.7" fill="none" stroke="#e87ba4" stroke-width="1.5" stroke-linejoin="round" stroke-linecap="round"/>
<polyline points="150.3,246.6 171.8,250.2 193.4,249.0 215.0,241.9 236.6,238.8 258.2,246.3 279.7,243.8 301.3,218.0 322.9,203.5 344.5,198.7 366.1,202.0 387.6,202.7 409.2,203.0 430.8,206.1 452.4,233.6 473.9,246.3 495.5,252.0 517.1,253.2 538.7,254.6 560.3,252.9 581.8,254.0 603.4,253.1 625.0,253.6 646.6,252.1 668.2,245.9 689.7,246.3 711.3,248.6 732.9,250.0 754.5,245.7 776.1,246.8 797.6,259.3 819.2,270.8" fill="none" stroke="#4a3aa7" stroke-width="1.5" stroke-linejoin="round" stroke-linecap="round"/>
<rect x="14.9" y="231.4" width="11.9" height="124.6" fill="none" stroke="#e34948" stroke-width="1.3"/>
<rect x="36.4" y="231.4" width="11.9" height="22.8" fill="#008300"/>
<rect x="58.0" y="254.2" width="11.9" height="8.5" fill="#008300"/>
<rect x="79.6" y="251.4" width="11.9" height="11.4" fill="none" stroke="#e34948" stroke-width="1.3"/>
<rect x="101.2" y="213.6" width="11.9" height="37.7" fill="none" stroke="#e34948" stroke-width="1.3"/>
<rect x="122.7" y="213.6" width="11.9" height="38.4" fill="#008300"/>
<rect x="144.3" y="252.1" width="11.9" height="8.5" fill="#008300"/>
<rect x="165.9" y="256.3" width="11.9" height="4.3" fill="none" stroke="#e34948" stroke-width="1.3"/>
<rect x="187.5" y="246.4" width="11.9" height="10.0" fill="none" stroke="#e34948" stroke-width="1.3"/>
<rect x="209.1" y="212.9" width="11.9" height="33.5" fill="none" stroke="#e34948" stroke-width="1.3"/>
<rect x="230.6" y="212.9" width="11.9" height="16.4" fill="#008300"/>
<rect x="252.2" y="229.3" width="11.9" height="37.0" fill="#008300"/>
<rect x="273.8" y="235.0" width="11.9" height="31.3" fill="none" stroke="#e34948" stroke-width="1.3"/>
<rect x="295.4" y="79.8" width="11.9" height="155.2" fill="none" stroke="#e34948" stroke-width="1.3"/>
<rect x="317.0" y="79.8" width="11.9" height="74.7" fill="#008300"/>
<rect x="338.5" y="154.6" width="11.9" height="58.4" fill="#008300"/>
<rect x="360.1" y="212.9" width="11.9" height="22.8" fill="#008300"/>
<rect x="381.7" y="235.0" width="11.9" height="1.2" fill="none" stroke="#e34948" stroke-width="1.3"/>
<rect x="403.3" y="235.0" width="11.9" height="33.5" fill="#008300"/>
<rect x="424.9" y="256.3" width="11.9" height="12.1" fill="none" stroke="#e34948" stroke-width="1.3"/>
<rect x="446.4" y="256.3" width="11.9" height="15.7" fill="#008300"/>
<rect x="468.0" y="243.5" width="11.9" height="28.5" fill="none" stroke="#e34948" stroke-width="1.3"/>
<rect x="489.6" y="243.5" width="11.9" height="9.3" fill="#008300"/>
<rect x="511.2" y="244.2" width="11.9" height="8.5" fill="none" stroke="#e34948" stroke-width="1.3"/>
<rect x="532.7" y="244.2" width="11.9" height="1.2" fill="#008300"/>
<rect x="554.3" y="245.0" width="11.9" height="11.4" fill="#008300"/>
<rect x="575.9" y="256.3" width="11.9" height="7.8" fill="#008300"/>
<rect x="597.5" y="264.2" width="11.9" height="1.4" fill="#008300"/>
<rect x="619.1" y="247.1" width="11.9" height="18.5" fill="none" stroke="#e34948" stroke-width="1.3"/>
<rect x="640.6" y="242.8" width="11.9" height="4.3" fill="none" stroke="#e34948" stroke-width="1.3"/>
<rect x="662.2" y="200.1" width="11.9" height="42.7" fill="none" stroke="#e34948" stroke-width="1.3"/>
<rect x="683.8" y="200.1" width="11.9" height="47.7" fill="#008300"/>
<rect x="705.4" y="247.8" width="11.9" height="24.9" fill="#008300"/>
<rect x="727.0" y="272.7" width="11.9" height="1.4" fill="#008300"/>
<rect x="748.5" y="235.7" width="11.9" height="38.4" fill="none" stroke="#e34948" stroke-width="1.3"/>
<rect x="770.1" y="235.7" width="11.9" height="18.5" fill="#008300"/>
<rect x="791.7" y="254.2" width="11.9" height="76.2" fill="#008300"/>
<rect x="813.3" y="280.5" width="11.9" height="49.8" fill="none" stroke="#e34948" stroke-width="1.3"/>
<circle cx="301.3" cy="79.8" r="2" fill="#52514e"/>
<line x1="301.3" y1="79.8" x2="309.3" y2="79.8" stroke="#52514e" stroke-width="1.0"/>
<text x="312.3" y="83.8" font-size="11.0" fill="#52514e">388</text>
<circle cx="20.8" cy="356.0" r="2" fill="#52514e"/>
<line x1="20.8" y1="356.0" x2="28.8" y2="356.0" stroke="#52514e" stroke-width="1.0"/>
<text x="31.8" y="350.0" font-size="11.0" fill="#52514e">0</text>
<text x="14.0" y="376.0" font-size="11.0" fill="#52514e">VOL 15 forks</text>
<text x="96.6" y="376.0" font-size="11.0" fill="#eda100">MA5:14.6</text>
<text x="155.0" y="376.0" font-size="11.0" fill="#2a78d6">MA10:17.6</text>
<text x="14.0" y="395.0" font-size="10" fill="#898781">30</text>
<rect x="14.9" y="420.8" width="11.9" height="49.2" fill="none" stroke="#e34948" stroke-width="1.1"/>
<rect x="36.4" y="426.3" width="11.9" height="43.7" fill="#008300"/>
<rect x="58.0" y="420.8" width="11.9" height="49.2" fill="#008300"/>
<rect x="79.6" y="429.0" width="11.9" height="41.0" fill="none" stroke="#e34948" stroke-width="1.1"/>
<rect x="101.2" y="407.1" width="11.9" height="62.9" fill="none" stroke="#e34948" stroke-width="1.1"/>
<rect x="122.7" y="423.5" width="11.9" height="46.5" fill="#008300"/>
<rect x="144.3" y="431.7" width="11.9" height="38.3" fill="#008300"/>
<rect x="165.9" y="445.4" width="11.9" height="24.6" fill="none" stroke="#e34948" stroke-width="1.1"/>
<rect x="187.5" y="407.1" width="11.9" height="62.9" fill="none" stroke="#e34948" stroke-width="1.1"/>
<rect x="209.1" y="409.9" width="11.9" height="60.1" fill="none" stroke="#e34948" stroke-width="1.1"/>
<rect x="230.6" y="393.5" width="11.9" height="76.5" fill="#008300"/>
<rect x="252.2" y="409.9" width="11.9" height="60.1" fill="#008300"/>
<rect x="273.8" y="423.5" width="11.9" height="46.5" fill="none" stroke="#e34948" stroke-width="1.1"/>
<rect x="295.4" y="404.4" width="11.9" height="65.6" fill="none" stroke="#e34948" stroke-width="1.1"/>
<rect x="317.0" y="396.2" width="11.9" height="73.8" fill="#008300"/>
<rect x="338.5" y="404.4" width="11.9" height="65.6" fill="#008300"/>
<rect x="360.1" y="401.7" width="11.9" height="68.3" fill="#008300"/>
<rect x="381.7" y="401.7" width="11.9" height="68.3" fill="none" stroke="#e34948" stroke-width="1.1"/>
<rect x="403.3" y="445.4" width="11.9" height="24.6" fill="#008300"/>
<rect x="424.9" y="439.9" width="11.9" height="30.1" fill="none" stroke="#e34948" stroke-width="1.1"/>
<rect x="446.4" y="426.3" width="11.9" height="43.7" fill="#008300"/>
<rect x="468.0" y="412.6" width="11.9" height="57.4" fill="none" stroke="#e34948" stroke-width="1.1"/>
<rect x="489.6" y="434.5" width="11.9" height="35.5" fill="#008300"/>
<rect x="511.2" y="434.5" width="11.9" height="35.5" fill="none" stroke="#e34948" stroke-width="1.1"/>
<rect x="532.7" y="423.5" width="11.9" height="46.5" fill="#008300"/>
<rect x="554.3" y="412.6" width="11.9" height="57.4" fill="#008300"/>
<rect x="575.9" y="426.3" width="11.9" height="43.7" fill="#008300"/>
<rect x="597.5" y="423.5" width="11.9" height="46.5" fill="#008300"/>
<rect x="619.1" y="420.8" width="11.9" height="49.2" fill="none" stroke="#e34948" stroke-width="1.1"/>
<rect x="640.6" y="388.0" width="11.9" height="82.0" fill="none" stroke="#e34948" stroke-width="1.1"/>
<rect x="662.2" y="407.1" width="11.9" height="62.9" fill="none" stroke="#e34948" stroke-width="1.1"/>
<rect x="683.8" y="420.8" width="11.9" height="49.2" fill="#008300"/>
<rect x="705.4" y="431.7" width="11.9" height="38.3" fill="#008300"/>
<rect x="727.0" y="434.5" width="11.9" height="35.5" fill="#008300"/>
<rect x="748.5" y="420.8" width="11.9" height="49.2" fill="none" stroke="#e34948" stroke-width="1.1"/>
<rect x="770.1" y="415.3" width="11.9" height="54.7" fill="#008300"/>
<rect x="791.7" y="450.9" width="11.9" height="19.1" fill="#008300"/>
<rect x="813.3" y="429.0" width="11.9" height="41.0" fill="none" stroke="#e34948" stroke-width="1.1"/>
<polyline points="215.0,422.2 236.6,419.4 258.2,417.8 279.7,418.1 301.3,415.6 322.9,414.5 344.5,412.6 366.1,409.6 387.6,405.2 409.2,409.0 430.8,412.1 452.4,415.3 473.9,415.6 495.5,416.7 517.1,419.7 538.7,422.4 560.3,423.3 581.8,425.7 603.4,427.9 625.0,425.4 646.6,420.3 668.2,418.3 689.7,419.2 711.3,418.9 732.9,418.9 754.5,418.6 776.1,418.9 797.6,421.3 819.2,421.9" fill="none" stroke="#2a78d6" stroke-width="1.5" stroke-linejoin="round" stroke-linecap="round"/>
<polyline points="107.1,420.8 128.7,421.3 150.3,422.4 171.8,427.4 193.4,423.0 215.0,423.5 236.6,417.5 258.2,413.1 279.7,408.8 301.3,408.2 322.9,405.5 344.5,407.7 366.1,406.0 387.6,401.7 409.2,409.9 430.8,418.6 452.4,423.0 473.9,425.2 495.5,431.7 517.1,429.5 538.7,426.3 560.3,423.5 581.8,426.3 603.4,424.1 625.0,421.3 646.6,414.2 668.2,413.1 689.7,412.1 711.3,413.7 732.9,416.4 754.5,423.0 776.1,424.6 797.6,430.6 819.2,430.1" fill="none" stroke="#eda100" stroke-width="1.5" stroke-linejoin="round" stroke-linecap="round"/>
</svg>