<svg xmlns="http://www.w3.org/2000/svg" viewBox="0 0 840 496" width="840" height="496" font-family="-apple-system,&#39;Segoe UI&#39;,system-ui,sans-serif" role="img" aria-label="practical-tutorials/project-based-learning candlestick chart">
<text x="14.0" y="20.0" font-size="15" fill="#0b0b0b" font-weight="650">practical-tutorials/project-based-learning</text>
<text x="364.5" y="20.0" font-size="11.5" fill="#52514e">daily · new stars, volume = new forks</text>
<text x="805.8" y="20.0" font-size="11.0" fill="#52514e">fall</text>
<rect x="791" y="10" width="9" height="12" fill="#008300"/>
<text x="750.6" y="20.0" font-size="11.0" fill="#52514e">rise</text>
<rect x="736" y="10" width="9" height="12" fill="none" stroke="#e34948" stroke-width="1.5"/>
<text x="14.0" y="38.0" font-size="11.0" fill="#898781">last 51 days · +7,988 stars · +894 forks · updated 2026-07-21</text>
<rect x="10" y="66" width="820" height="290" fill="none" stroke="#e1e0d9"/>
<rect x="10" y="384" width="820" height="86" fill="none" stroke="#e1e0d9"/>
<text x="38.0" y="490.0" font-size="11.0" fill="#898781" text-anchor="middle">2026-06</text>
<line x1="492.4" y1="66.0" x2="492.4" y2="356.0" stroke="#e1e0d9" stroke-width="1.0"/>
<line x1="492.4" y1="384.0" x2="492.4" y2="470.0" stroke="#e1e0d9" stroke-width="1.0"/>
<text x="500.4" y="490.0" font-size="11.0" fill="#898781" text-anchor="middle">2026-07</text>
<text x="14.0" y="58.0" font-size="11.0" fill="#52514e">BOLL(20,2)</text>
<text x="84.5" y="58.0" font-size="11.0" fill="#eda100">UP:238.1</text>
<text x="142.9" y="58.0" font-size="11.0" fill="#2a78d6">MID:140.4</text>
<text x="207.4" y="58.0" font-size="11.0" fill="#e87ba4">LOW:42.7</text>
<text x="265.8" y="58.0" font-size="11.0" fill="#4a3aa7">MA7:174.7</text>
<line x1="10.0" y1="356.0" x2="830.0" y2="356.0" stroke="#e1e0d9" stroke-width="1.0"/>
<text x="14.0" y="353.0" font-size="11.0" fill="#898781">0</text>
<line x1="10.0" y1="213.6" x2="830.0" y2="213.6" stroke="#e1e0d9" stroke-width="1.0"/>
<text x="14.0" y="210.6" font-size="11.0" fill="#898781">200</text>
<line x1="10.0" y1="71.3" x2="830.0" y2="71.3" stroke="#e1e0d9" stroke-width="1.0"/>
<text x="14.0" y="68.3" font-size="11.0" fill="#898781">400</text>
<polyline points="323.5,144.5 339.6,144.7 355.7,144.6 371.8,144.7 387.8,144.6 403.9,146.3 420.0,146.4 436.1,146.3 452.2,146.2 468.2,146.2 484.3,148.1 500.4,145.4 516.5,145.4 532.5,145.6 548.6,189.0 564.7,211.0 580.8,216.8 596.9,207.6 612.9,209.7 629.0,209.6 645.1,209.8 661.2,209.7 677.3,211.3 693.3,211.9 709.4,212.8 725.5,212.4 741.6,206.3 757.6,206.4 773.7,206.4 789.8,206.9 805.9,201.9 822.0,186.5" fill="none" stroke="#eda100" stroke-width="1.5" stroke-linejoin="round" stroke-linecap="round"/>
<polyline points="323.5,230.8 339.6,232.8 355.7,232.2 371.8,231.7 387.8,231.4 403.9,233.0 420.0,233.2 436.1,233.4 452.2,233.8 468.2,233.8 484.3,235.3 500.4,233.9 516.5,233.0 532.5,234.8 548.6,244.6 564.7,248.6 580.8,250.7 596.9,255.4 612.9,257.7 629.0,258.1 645.1,259.3 661.2,258.8 677.3,260.1 693.3,260.6 709.4,261.0 725.5,260.9 741.6,258.8 757.6,259.0 773.7,259.8 789.8,260.0 805.9,258.6 822.0,256.1" fill="none" stroke="#2a78d6" stroke-width="1.5" stroke-linejoin="round" stroke-linecap="round"/>
<polyline points="323.5,317.0 339.6,320.9 355.7,319.9 371.8,318.8 387.8,318.2 403.9,319.6 420.0,320.0 436.1,320.4 452.2,321.5 468.2,321.5 484.3,322.5 500.4,322.4 516.5,320.5 532.5,324.1 548.6,300.1 564.7,286.3 580.8,284.6 596.9,303.2 612.9,305.7 629.0,306.5 645.1,308.7 661.2,307.9 677.3,308.9 693.3,309.3 709.4,309.3 725.5,309.4 741.6,311.3 757.6,311.7 773.7,313.2 789.8,313.2 805.9,315.2 822.0,325.6" fill="none" stroke="#e87ba4" stroke-width="1.5" stroke-linejoin="round" stroke-linecap="round"/>
<polyline points="114.5,246.6 130.6,250.2 146.7,249.0 162.7,241.9 178.8,238.8 194.9,246.3 211.0,243.8 227.1,218.0 243.1,203.5 259.2,198.7 275.3,202.0 291.4,202.7 307.5,203.0 323.5,206.1 339.6,233.6 355.7,246.3 371.8,252.0 387.8,253.2 403.9,254.6 420.0,252.9 436.1,254.0 452.2,253.1 468.2,253.6 484.3,252.1 500.4,245.9 516.5,246.3 532.5,248.6 548.6,250.0 564.7,245.7 580.8,246.8 596.9,259.3 612.9,270.8 629.0,274.8 645.1,275.8 661.2,274.2 677.3,279.1 693.3,280.3 709.4,269.2 725.5,263.7 741.6,255.0 757.6,253.4 773.7,255.9 789.8,253.4 805.9,246.4 822.0,231.6" fill="none" stroke="#4a3aa7" stroke-width="1.5" stroke-linejoin="round" stroke-linecap="round"/>
<rect x="13.6" y="231.4" width="8.8" height="124.6" fill="none" stroke="#e34948" stroke-width="1.3"/>
<rect x="29.7" y="231.4" width="8.8" height="22.8" fill="#008300"/>
<rect x="45.8" y="254.2" width="8.8" height="8.5" fill="#008300"/>
<rect x="61.9" y="251.4" width="8.8" height="11.4" fill="none" stroke="#e34948" stroke-width="1.3"/>
<rect x="77.9" y="213.6" width="8.8" height="37.7" fill="none" stroke="#e34948" stroke-width="1.3"/>
<rect x="94.0" y="213.6" width="8.8" height="38.4" fill="#008300"/>
<rect x="110.1" y="252.1" width="8.8" height="8.5" fill="#008300"/>
<rect x="126.2" y="256.3" width="8.8" height="4.3" fill="none" stroke="#e34948" stroke-width="1.3"/>
<rect x="142.2" y="246.4" width="8.8" height="10.0" fill="none" stroke="#e34948" stroke-width="1.3"/>
<rect x="158.3" y="212.9" width="8.8" height="33.5" fill="none" stroke="#e34948" stroke-width="1.3"/>
<rect x="174.4" y="212.9" width="8.8" height="16.4" fill="#008300"/>
<rect x="190.5" y="229.3" width="8.8" height="37.0" fill="#008300"/>
<rect x="206.6" y="235.0" width="8.8" height="31.3" fill="none" stroke="#e34948" stroke-width="1.3"/>
<rect x="222.6" y="79.8" width="8.8" height="155.2" fill="none" stroke="#e34948" stroke-width="1.3"/>
<rect x="238.7" y="79.8" width="8.8" height="74.7" fill="#008300"/>
<rect x="254.8" y="154.6" width="8.8" height="58.4" fill="#008300"/>
<rect x="270.9" y="212.9" width="8.8" height="22.8" fill="#008300"/>
<rect x="287.0" y="235.0" width="8.8" height="1.2" fill="none" stroke="#e34948" stroke-width="1.3"/>
<rect x="303.0" y="235.0" width="8.8" height="33.5" fill="#008300"/>
<rect x="319.1" y="256.3" width="8.8" height="12.1" fill="none" stroke="#e34948" stroke-width="1.3"/>
<rect x="335.2" y="256.3" width="8.8" height="15.7" fill="#008300"/>
<rect x="351.3" y="243.5" width="8.8" height="28.5" fill="none" stroke="#e34948" stroke-width="1.3"/>
<rect x="367.3" y="243.5" width="8.8" height="9.3" fill="#008300"/>
<rect x="383.4" y="244.2" width="8.8" height="8.5" fill="none" stroke="#e34948" stroke-width="1.3"/>
<rect x="399.5" y="244.2" width="8.8" height="1.2" fill="#008300"/>
<rect x="415.6" y="245.0" width="8.8" height="11.4" fill="#008300"/>
<rect x="431.7" y="256.3" width="8.8" height="7.8" fill="#008300"/>
<rect x="447.7" y="264.2" width="8.8" height="1.4" fill="#008300"/>
<rect x="463.8" y="247.1" width="8.8" height="18.5" fill="none" stroke="#e34948" stroke-width="1.3"/>
<rect x="479.9" y="242.8" width="8.8" height="4.3" fill="none" stroke="#e34948" stroke-width="1.3"/>
<rect x="496.0" y="200.1" width="8.8" height="42.7" fill="none" stroke="#e34948" stroke-width="1.3"/>
<rect x="512.0" y="200.1" width="8.8" height="47.7" fill="#008300"/>
<rect x="528.1" y="247.8" width="8.8" height="24.9" fill="#008300"/>
<rect x="544.2" y="272.7" width="8.8" height="1.4" fill="#008300"/>
<rect x="560.3" y="235.7" width="8.8" height="38.4" fill="none" stroke="#e34948" stroke-width="1.3"/>
<rect x="576.4" y="235.7" width="8.8" height="18.5" fill="#008300"/>
<rect x="592.4" y="254.2" width="8.8" height="76.2" fill="#008300"/>
<rect x="608.5" y="280.5" width="8.8" height="49.8" fill="none" stroke="#e34948" stroke-width="1.3"/>
<rect x="624.6" y="275.6" width="8.8" height="5.0" fill="none" stroke="#e34948" stroke-width="1.3"/>
<rect x="640.7" y="275.6" width="8.8" height="5.0" fill="#008300"/>
<rect x="656.8" y="262.8" width="8.8" height="17.8" fill="none" stroke="#e34948" stroke-width="1.3"/>
<rect x="672.8" y="262.8" width="8.8" height="7.1" fill="#008300"/>
<rect x="688.9" y="262.0" width="8.8" height="7.8" fill="none" stroke="#e34948" stroke-width="1.3"/>
<rect x="705.0" y="253.5" width="8.8" height="8.5" fill="none" stroke="#e34948" stroke-width="1.3"/>
<rect x="721.1" y="241.4" width="8.8" height="12.1" fill="none" stroke="#e34948" stroke-width="1.3"/>
<rect x="737.1" y="215.1" width="8.8" height="26.3" fill="none" stroke="#e34948" stroke-width="1.3"/>
<rect x="753.2" y="215.1" width="8.8" height="54.1" fill="#008300"/>
<rect x="769.3" y="269.2" width="8.8" height="11.4" fill="#008300"/>
<rect x="785.4" y="252.1" width="8.8" height="28.5" fill="none" stroke="#e34948" stroke-width="1.3"/>
<rect x="801.5" y="212.9" width="8.8" height="39.2" fill="none" stroke="#e34948" stroke-width="1.3"/>
<rect x="817.5" y="150.3" width="8.8" height="62.6" fill="none" stroke="#e34948" stroke-width="1.3"/>
<circle cx="227.1" cy="79.8" r="2" fill="#52514e"/>
<line x1="227.1" y1="79.8" x2="235.1" y2="79.8" stroke="#52514e" stroke-width="1.0"/>
<text x="238.1" y="83.8" font-size="11.0" fill="#52514e">388</text>
<circle cx="18.0" cy="356.0" r="2" fill="#52514e"/>
<line x1="18.0" y1="356.0" x2="26.0" y2="356.0" stroke="#52514e" stroke-width="1.0"/>
<text x="29.0" y="350.0" font-size="11.0" fill="#52514e">0</text>
<text x="14.0" y="376.0" font-size="11.0" fill="#52514e">VOL 43 forks</text>
<text x="96.6" y="376.0" font-size="11.0" fill="#eda100">MA5:19.2</text>
<text x="155.0" y="376.0" font-size="11.0" fill="#2a78d6">MA10:16.6</text>
<text x="14.0" y="395.0" font-size="10" fill="#898781">43</text>
<rect x="13.6" y="435.7" width="8.8" height="34.3" fill="none" stroke="#e34948" stroke-width="1.1"/>
<rect x="29.7" y="439.5" width="8.8" height="30.5" fill="#008300"/>
<rect x="45.8" y="435.7" width="8.8" height="34.3" fill="#008300"/>
<rect x="61.9" y="441.4" width="8.8" height="28.6" fill="none" stroke="#e34948" stroke-width="1.1"/>
<rect x="77.9" y="426.1" width="8.8" height="43.9" fill="none" stroke="#e34948" stroke-width="1.1"/>
<rect x="94.0" y="437.6" width="8.8" height="32.4" fill="#008300"/>
<rect x="110.1" y="443.3" width="8.8" height="26.7" fill="#008300"/>
<rect x="126.2" y="452.8" width="8.8" height="17.2" fill="none" stroke="#e34948" stroke-width="1.1"/>
<rect x="142.2" y="426.1" width="8.8" height="43.9" fill="none" stroke="#e34948" stroke-width="1.1"/>
<rect x="158.3" y="428.0" width="8.8" height="42.0" fill="none" stroke="#e34948" stroke-width="1.1"/>
<rect x="174.4" y="416.6" width="8.8" height="53.4" fill="#008300"/>
<rect x="190.5" y="428.0" width="8.8" height="42.0" fill="#008300"/>
<rect x="206.6" y="437.6" width="8.8" height="32.4" fill="none" stroke="#e34948" stroke-width="1.1"/>
<rect x="222.6" y="424.2" width="8.8" height="45.8" fill="none" stroke="#e34948" stroke-width="1.1"/>
<rect x="238.7" y="418.5" width="8.8" height="51.5" fill="#008300"/>
<rect x="254.8" y="424.2" width="8.8" height="45.8" fill="#008300"/>
<rect x="270.9" y="422.3" width="8.8" height="47.7" fill="#008300"/>
<rect x="287.0" y="422.3" width="8.8" height="47.7" fill="none" stroke="#e34948" stroke-width="1.1"/>
<rect x="303.0" y="452.8" width="8.8" height="17.2" fill="#008300"/>
<rect x="319.1" y="449.0" width="8.8" height="21.0" fill="none" stroke="#e34948" stroke-width="1.1"/>
<rect x="335.2" y="439.5" width="8.8" height="30.5" fill="#008300"/>
<rect x="351.3" y="430.0" width="8.8" height="40.0" fill="none" stroke="#e34948" stroke-width="1.1"/>
<rect x="367.3" y="445.2" width="8.8" height="24.8" fill="#008300"/>
<rect x="383.4" y="445.2" width="8.8" height="24.8" fill="none" stroke="#e34948" stroke-width="1.1"/>
<rect x="399.5" y="437.6" width="8.8" height="32.4" fill="#008300"/>
<rect x="415.6" y="430.0" width="8.8" height="40.0" fill="#008300"/>
<rect x="431.7" y="439.5" width="8.8" height="30.5" fill="#008300"/>
<rect x="447.7" y="437.6" width="8.8" height="32.4" fill="#008300"/>
<rect x="463.8" y="435.7" width="8.8" height="34.3" fill="none" stroke="#e34948" stroke-width="1.1"/>
<rect x="479.9" y="412.8" width="8.8" height="57.2" fill="none" stroke="#e34948" stroke-width="1.1"/>
<rect x="496.0" y="426.1" width="8.8" height="43.9" fill="none" stroke="#e34948" stroke-width="1.1"/>
<rect x="512.0" y="435.7" width="8.8" height="34.3" fill="#008300"/>
<rect x="528.1" y="443.3" width="8.8" height="26.7" fill="#008300"/>
<rect x="544.2" y="445.2" width="8.8" height="24.8" fill="#008300"/>
<rect x="560.3" y="435.7" width="8.8" height="34.3" fill="none" stroke="#e34948" stroke-width="1.1"/>
<rect x="576.4" y="431.9" width="8.8" height="38.1" fill="#008300"/>
<rect x="592.4" y="456.7" width="8.8" height="13.3" fill="#008300"/>
<rect x="608.5" y="441.4" width="8.8" height="28.6" fill="none" stroke="#e34948" stroke-width="1.1"/>
<rect x="624.6" y="441.4" width="8.8" height="28.6" fill="none" stroke="#e34948" stroke-width="1.1"/>
<rect x="640.7" y="464.3" width="8.8" height="5.7" fill="#008300"/>
<rect x="656.8" y="445.2" width="8.8" height="24.8" fill="none" stroke="#e34948" stroke-width="1.1"/>
<rect x="672.8" y="454.7" width="8.8" height="15.3" fill="#008300"/>
<rect x="688.9" y="447.1" width="8.8" height="22.9" fill="none" stroke="#e34948" stroke-width="1.1"/>
<rect x="705.0" y="449.0" width="8.8" height="21.0" fill="none" stroke="#e34948" stroke-width="1.1"/>
<rect x="721.1" y="426.1" width="8.8" height="43.9" fill="none" stroke="#e34948" stroke-width="1.1"/>
<rect x="737.1" y="439.5" width="8.8" height="30.5" fill="none" stroke="#e34948" stroke-width="1.1"/>
<rect x="753.2" y="431.9" width="8.8" height="38.1" fill="#008300"/>
<rect x="769.3" y="447.1" width="8.8" height="22.9" fill="#008300"/>
<rect x="785.4" y="456.7" width="8.8" height="13.3" fill="none" stroke="#e34948" stroke-width="1.1"/>
<rect x="801.5" y="443.3" width="8.8" height="26.7" fill="none" stroke="#e34948" stroke-width="1.1"/>
<rect x="817.5" y="388.0" width="8.8" height="82.0" fill="none" stroke="#e34948" stroke-width="1.1"/>
<polyline points="162.7,436.6 178.8,434.7 194.9,433.6 211.0,433.8 227.1,432.1 243.1,431.3 259.2,430.0 275.3,427.9 291.4,424.8 307.5,427.5 323.5,429.6 339.6,431.9 355.7,432.1 371.8,432.8 387.8,434.9 403.9,436.8 420.0,437.4 436.1,439.1 452.2,440.6 468.2,438.9 484.3,435.3 500.4,434.0 516.5,434.5 532.5,434.3 548.6,434.3 564.7,434.1 580.8,434.3 596.9,436.1 612.9,436.4 629.0,437.0 645.1,442.2 661.2,444.1 677.3,446.0 693.3,446.4 709.4,446.7 725.5,445.8 741.6,446.5 757.6,444.1 773.7,444.6 789.8,446.2 805.9,444.1 822.0,438.3" fill="none" stroke="#2a78d6" stroke-width="1.5" stroke-linejoin="round" stroke-linecap="round"/>
<polyline points="82.4,435.7 98.4,436.1 114.5,436.8 130.6,440.3 146.7,437.2 162.7,437.6 178.8,433.4 194.9,430.3 211.0,427.3 227.1,426.9 243.1,425.0 259.2,426.5 275.3,425.4 291.4,422.3 307.5,428.0 323.5,434.1 339.6,437.2 355.7,438.7 371.8,443.3 387.8,441.8 403.9,439.5 420.0,437.6 436.1,439.5 452.2,438.0 468.2,436.1 484.3,431.1 500.4,430.3 516.5,429.6 532.5,430.7 548.6,432.6 564.7,437.2 580.8,438.3 596.9,442.5 612.9,442.2 629.0,441.4 645.1,447.1 661.2,449.8 677.3,449.4 693.3,450.5 709.4,452.1 725.5,444.4 741.6,443.3 757.6,438.7 773.7,438.7 789.8,440.3 805.9,443.7 822.0,433.4" fill="none" stroke="#eda100" stroke-width="1.5" stroke-linejoin="round" stroke-linecap="round"/>
</svg>