<svg xmlns="http://www.w3.org/2000/svg" viewBox="0 0 840 496" width="840" height="496" font-family="-apple-system,&#39;Segoe UI&#39;,system-ui,sans-serif" role="img" aria-label="practical-tutorials/project-based-learning candlestick chart">
<text x="14.0" y="20.0" font-size="15" fill="#ffffff" font-weight="650">practical-tutorials/project-based-learning</text>
<text x="364.5" y="20.0" font-size="11.5" fill="#c3c2b7">daily · new stars, volume = new forks</text>
<text x="805.8" y="20.0" font-size="11.0" fill="#c3c2b7">fall</text>
<rect x="791" y="10" width="9" height="12" fill="#008300"/>
<text x="750.6" y="20.0" font-size="11.0" fill="#c3c2b7">rise</text>
<rect x="736" y="10" width="9" height="12" fill="none" stroke="#e66767" stroke-width="1.5"/>
<text x="14.0" y="38.0" font-size="11.0" fill="#898781">last 54 days · +8,534 stars · +963 forks · updated 2026-07-24</text>
<rect x="10" y="66" width="820" height="290" fill="none" stroke="#2c2c2a"/>
<rect x="10" y="384" width="820" height="86" fill="none" stroke="#2c2c2a"/>
<text x="38.0" y="490.0" font-size="11.0" fill="#898781" text-anchor="middle">2026-06</text>
<line x1="465.6" y1="66.0" x2="465.6" y2="356.0" stroke="#2c2c2a" stroke-width="1.0"/>
<line x1="465.6" y1="384.0" x2="465.6" y2="470.0" stroke="#2c2c2a" stroke-width="1.0"/>
<text x="473.1" y="490.0" font-size="11.0" fill="#898781" text-anchor="middle">2026-07</text>
<text x="14.0" y="58.0" font-size="11.0" fill="#c3c2b7">BOLL(20,2)</text>
<text x="84.5" y="58.0" font-size="11.0" fill="#c98500">UP:250.5</text>
<text x="142.9" y="58.0" font-size="11.0" fill="#3987e5">MID:148.5</text>
<text x="207.4" y="58.0" font-size="11.0" fill="#d55181">LOW:46.5</text>
<text x="265.8" y="58.0" font-size="11.0" fill="#9085e9">MA7:184</text>
<line x1="10.0" y1="356.0" x2="830.0" y2="356.0" stroke="#2c2c2a" stroke-width="1.0"/>
<text x="14.0" y="353.0" font-size="11.0" fill="#898781">0</text>
<line x1="10.0" y1="213.6" x2="830.0" y2="213.6" stroke="#2c2c2a" stroke-width="1.0"/>
<text x="14.0" y="210.6" font-size="11.0" fill="#898781">200</text>
<line x1="10.0" y1="71.3" x2="830.0" y2="71.3" stroke="#2c2c2a" stroke-width="1.0"/>
<text x="14.0" y="68.3" font-size="11.0" fill="#898781">400</text>
<polyline points="306.1,144.5 321.3,144.7 336.5,144.6 351.7,144.7 366.9,144.6 382.0,146.3 397.2,146.4 412.4,146.3 427.6,146.2 442.8,146.2 458.0,148.1 473.1,145.4 488.3,145.4 503.5,145.6 518.7,189.0 533.9,211.0 549.1,216.8 564.3,207.6 579.4,209.7 594.6,209.6 609.8,209.8 625.0,209.7 640.2,211.3 655.4,211.9 670.6,212.8 685.7,212.4 700.9,206.3 716.1,206.4 731.3,206.4 746.5,206.9 761.7,201.9 776.9,186.5 792.0,180.9 807.2,180.1 822.4,177.7" fill="none" stroke="#c98500" stroke-width="1.5" stroke-linejoin="round" stroke-linecap="round"/>
<polyline points="306.1,230.8 321.3,232.8 336.5,232.2 351.7,231.7 366.9,231.4 382.0,233.0 397.2,233.2 412.4,233.4 427.6,233.8 442.8,233.8 458.0,235.3 473.1,233.9 488.3,233.0 503.5,234.8 518.7,244.6 533.9,248.6 549.1,250.7 564.3,255.4 579.4,257.7 594.6,258.1 609.8,259.3 625.0,258.8 640.2,260.1 655.4,260.6 670.6,261.0 685.7,260.9 700.9,258.8 716.1,259.0 731.3,259.8 746.5,260.0 761.7,258.6 776.9,256.1 792.0,253.9 807.2,252.6 822.4,250.3" fill="none" stroke="#3987e5" stroke-width="1.5" stroke-linejoin="round" stroke-linecap="round"/>
<polyline points="306.1,317.0 321.3,320.9 336.5,319.9 351.7,318.8 366.9,318.2 382.0,319.6 397.2,320.0 412.4,320.4 427.6,321.5 442.8,321.5 458.0,322.5 473.1,322.4 488.3,320.5 503.5,324.1 518.7,300.1 533.9,286.3 549.1,284.6 564.3,303.2 579.4,305.7 594.6,306.5 609.8,308.7 625.0,307.9 640.2,308.9 655.4,309.3 670.6,309.3 685.7,309.4 700.9,311.3 716.1,311.7 731.3,313.2 746.5,313.2 761.7,315.2 776.9,325.6 792.0,326.9 807.2,325.1 822.4,322.9" fill="none" stroke="#d55181" stroke-width="1.5" stroke-linejoin="round" stroke-linecap="round"/>
<polyline points="108.7,246.6 123.9,250.2 139.1,249.0 154.3,241.9 169.4,238.8 184.6,246.3 199.8,243.8 215.0,218.0 230.2,203.5 245.4,198.7 260.6,202.0 275.7,202.7 290.9,203.0 306.1,206.1 321.3,233.6 336.5,246.3 351.7,252.0 366.9,253.2 382.0,254.6 397.2,252.9 412.4,254.0 427.6,253.1 442.8,253.6 458.0,252.1 473.1,245.9 488.3,246.3 503.5,248.6 518.7,250.0 533.9,245.7 549.1,246.8 564.3,259.3 579.4,270.8 594.6,274.8 609.8,275.8 625.0,274.2 640.2,279.1 655.4,280.3 670.6,269.2 685.7,263.7 700.9,255.0 716.1,253.4 731.3,255.9 746.5,253.4 761.7,246.4 776.9,231.6 792.0,226.4 807.2,230.9 822.4,225.0" fill="none" stroke="#9085e9" stroke-width="1.5" stroke-linejoin="round" stroke-linecap="round"/>
<rect x="13.4" y="231.4" width="8.4" height="124.6" fill="none" stroke="#e66767" stroke-width="1.3"/>
<rect x="28.6" y="231.4" width="8.4" height="22.8" fill="#008300"/>
<rect x="43.8" y="254.2" width="8.4" height="8.5" fill="#008300"/>
<rect x="59.0" y="251.4" width="8.4" height="11.4" fill="none" stroke="#e66767" stroke-width="1.3"/>
<rect x="74.2" y="213.6" width="8.4" height="37.7" fill="none" stroke="#e66767" stroke-width="1.3"/>
<rect x="89.3" y="213.6" width="8.4" height="38.4" fill="#008300"/>
<rect x="104.5" y="252.1" width="8.4" height="8.5" fill="#008300"/>
<rect x="119.7" y="256.3" width="8.4" height="4.3" fill="none" stroke="#e66767" stroke-width="1.3"/>
<rect x="134.9" y="246.4" width="8.4" height="10.0" fill="none" stroke="#e66767" stroke-width="1.3"/>
<rect x="150.1" y="212.9" width="8.4" height="33.5" fill="none" stroke="#e66767" stroke-width="1.3"/>
<rect x="165.3" y="212.9" width="8.4" height="16.4" fill="#008300"/>
<rect x="180.5" y="229.3" width="8.4" height="37.0" fill="#008300"/>
<rect x="195.6" y="235.0" width="8.4" height="31.3" fill="none" stroke="#e66767" stroke-width="1.3"/>
<rect x="210.8" y="79.8" width="8.4" height="155.2" fill="none" stroke="#e66767" stroke-width="1.3"/>
<rect x="226.0" y="79.8" width="8.4" height="74.7" fill="#008300"/>
<rect x="241.2" y="154.6" width="8.4" height="58.4" fill="#008300"/>
<rect x="256.4" y="212.9" width="8.4" height="22.8" fill="#008300"/>
<rect x="271.6" y="235.0" width="8.4" height="1.2" fill="none" stroke="#e66767" stroke-width="1.3"/>
<rect x="286.8" y="235.0" width="8.4" height="33.5" fill="#008300"/>
<rect x="301.9" y="256.3" width="8.4" height="12.1" fill="none" stroke="#e66767" stroke-width="1.3"/>
<rect x="317.1" y="256.3" width="8.4" height="15.7" fill="#008300"/>
<rect x="332.3" y="243.5" width="8.4" height="28.5" fill="none" stroke="#e66767" stroke-width="1.3"/>
<rect x="347.5" y="243.5" width="8.4" height="9.3" fill="#008300"/>
<rect x="362.7" y="244.2" width="8.4" height="8.5" fill="none" stroke="#e66767" stroke-width="1.3"/>
<rect x="377.9" y="244.2" width="8.4" height="1.2" fill="#008300"/>
<rect x="393.0" y="245.0" width="8.4" height="11.4" fill="#008300"/>
<rect x="408.2" y="256.3" width="8.4" height="7.8" fill="#008300"/>
<rect x="423.4" y="264.2" width="8.4" height="1.4" fill="#008300"/>
<rect x="438.6" y="247.1" width="8.4" height="18.5" fill="none" stroke="#e66767" stroke-width="1.3"/>
<rect x="453.8" y="242.8" width="8.4" height="4.3" fill="none" stroke="#e66767" stroke-width="1.3"/>
<rect x="469.0" y="200.1" width="8.4" height="42.7" fill="none" stroke="#e66767" stroke-width="1.3"/>
<rect x="484.2" y="200.1" width="8.4" height="47.7" fill="#008300"/>
<rect x="499.3" y="247.8" width="8.4" height="24.9" fill="#008300"/>
<rect x="514.5" y="272.7" width="8.4" height="1.4" fill="#008300"/>
<rect x="529.7" y="235.7" width="8.4" height="38.4" fill="none" stroke="#e66767" stroke-width="1.3"/>
<rect x="544.9" y="235.7" width="8.4" height="18.5" fill="#008300"/>
<rect x="560.1" y="254.2" width="8.4" height="76.2" fill="#008300"/>
<rect x="575.3" y="280.5" width="8.4" height="49.8" fill="none" stroke="#e66767" stroke-width="1.3"/>
<rect x="590.5" y="275.6" width="8.4" height="5.0" fill="none" stroke="#e66767" stroke-width="1.3"/>
<rect x="605.6" y="275.6" width="8.4" height="5.0" fill="#008300"/>
<rect x="620.8" y="262.8" width="8.4" height="17.8" fill="none" stroke="#e66767" stroke-width="1.3"/>
<rect x="636.0" y="262.8" width="8.4" height="7.1" fill="#008300"/>
<rect x="651.2" y="262.0" width="8.4" height="7.8" fill="none" stroke="#e66767" stroke-width="1.3"/>
<rect x="666.4" y="253.5" width="8.4" height="8.5" fill="none" stroke="#e66767" stroke-width="1.3"/>
<rect x="681.6" y="241.4" width="8.4" height="12.1" fill="none" stroke="#e66767" stroke-width="1.3"/>
<rect x="696.7" y="215.1" width="8.4" height="26.3" fill="none" stroke="#e66767" stroke-width="1.3"/>
<rect x="711.9" y="215.1" width="8.4" height="54.1" fill="#008300"/>
<rect x="727.1" y="269.2" width="8.4" height="11.4" fill="#008300"/>
<rect x="742.3" y="252.1" width="8.4" height="28.5" fill="none" stroke="#e66767" stroke-width="1.3"/>
<rect x="757.5" y="212.9" width="8.4" height="39.2" fill="none" stroke="#e66767" stroke-width="1.3"/>
<rect x="772.7" y="150.3" width="8.4" height="62.6" fill="none" stroke="#e66767" stroke-width="1.3"/>
<rect x="787.9" y="150.3" width="8.4" height="54.8" fill="#008300"/>
<rect x="803.0" y="205.1" width="8.4" height="41.3" fill="#008300"/>
<rect x="818.2" y="227.9" width="8.4" height="18.5" fill="none" stroke="#e66767" stroke-width="1.3"/>
<circle cx="215.0" cy="79.8" r="2" fill="#c3c2b7"/>
<line x1="215.0" y1="79.8" x2="223.0" y2="79.8" stroke="#c3c2b7" stroke-width="1.0"/>
<text x="226.0" y="83.8" font-size="11.0" fill="#c3c2b7">388</text>
<circle cx="17.6" cy="356.0" r="2" fill="#c3c2b7"/>
<line x1="17.6" y1="356.0" x2="25.6" y2="356.0" stroke="#c3c2b7" stroke-width="1.0"/>
<text x="28.6" y="350.0" font-size="11.0" fill="#c3c2b7">0</text>
<text x="14.0" y="376.0" font-size="11.0" fill="#c3c2b7">VOL 24 forks</text>
<text x="96.6" y="376.0" font-size="11.0" fill="#c98500">MA5:25.2</text>
<text x="155.0" y="376.0" font-size="11.0" fill="#3987e5">MA10:20.4</text>
<text x="14.0" y="395.0" font-size="10" fill="#898781">43</text>
<rect x="13.4" y="435.7" width="8.4" height="34.3" fill="none" stroke="#e66767" stroke-width="1.1"/>
<rect x="28.6" y="439.5" width="8.4" height="30.5" fill="#008300"/>
<rect x="43.8" y="435.7" width="8.4" height="34.3" fill="#008300"/>
<rect x="59.0" y="441.4" width="8.4" height="28.6" fill="none" stroke="#e66767" stroke-width="1.1"/>
<rect x="74.2" y="426.1" width="8.4" height="43.9" fill="none" stroke="#e66767" stroke-width="1.1"/>
<rect x="89.3" y="437.6" width="8.4" height="32.4" fill="#008300"/>
<rect x="104.5" y="443.3" width="8.4" height="26.7" fill="#008300"/>
<rect x="119.7" y="452.8" width="8.4" height="17.2" fill="none" stroke="#e66767" stroke-width="1.1"/>
<rect x="134.9" y="426.1" width="8.4" height="43.9" fill="none" stroke="#e66767" stroke-width="1.1"/>
<rect x="150.1" y="428.0" width="8.4" height="42.0" fill="none" stroke="#e66767" stroke-width="1.1"/>
<rect x="165.3" y="416.6" width="8.4" height="53.4" fill="#008300"/>
<rect x="180.5" y="428.0" width="8.4" height="42.0" fill="#008300"/>
<rect x="195.6" y="437.6" width="8.4" height="32.4" fill="none" stroke="#e66767" stroke-width="1.1"/>
<rect x="210.8" y="424.2" width="8.4" height="45.8" fill="none" stroke="#e66767" stroke-width="1.1"/>
<rect x="226.0" y="418.5" width="8.4" height="51.5" fill="#008300"/>
<rect x="241.2" y="424.2" width="8.4" height="45.8" fill="#008300"/>
<rect x="256.4" y="422.3" width="8.4" height="47.7" fill="#008300"/>
<rect x="271.6" y="422.3" width="8.4" height="47.7" fill="none" stroke="#e66767" stroke-width="1.1"/>
<rect x="286.8" y="452.8" width="8.4" height="17.2" fill="#008300"/>
<rect x="301.9" y="449.0" width="8.4" height="21.0" fill="none" stroke="#e66767" stroke-width="1.1"/>
<rect x="317.1" y="439.5" width="8.4" height="30.5" fill="#008300"/>
<rect x="332.3" y="430.0" width="8.4" height="40.0" fill="none" stroke="#e66767" stroke-width="1.1"/>
<rect x="347.5" y="445.2" width="8.4" height="24.8" fill="#008300"/>
<rect x="362.7" y="445.2" width="8.4" height="24.8" fill="none" stroke="#e66767" stroke-width="1.1"/>
<rect x="377.9" y="437.6" width="8.4" height="32.4" fill="#008300"/>
<rect x="393.0" y="430.0" width="8.4" height="40.0" fill="#008300"/>
<rect x="408.2" y="439.5" width="8.4" height="30.5" fill="#008300"/>
<rect x="423.4" y="437.6" width="8.4" height="32.4" fill="#008300"/>
<rect x="438.6" y="435.7" width="8.4" height="34.3" fill="none" stroke="#e66767" stroke-width="1.1"/>
<rect x="453.8" y="412.8" width="8.4" height="57.2" fill="none" stroke="#e66767" stroke-width="1.1"/>
<rect x="469.0" y="426.1" width="8.4" height="43.9" fill="none" stroke="#e66767" stroke-width="1.1"/>
<rect x="484.2" y="435.7" width="8.4" height="34.3" fill="#008300"/>
<rect x="499.3" y="443.3" width="8.4" height="26.7" fill="#008300"/>
<rect x="514.5" y="445.2" width="8.4" height="24.8" fill="#008300"/>
<rect x="529.7" y="435.7" width="8.4" height="34.3" fill="none" stroke="#e66767" stroke-width="1.1"/>
<rect x="544.9" y="431.9" width="8.4" height="38.1" fill="#008300"/>
<rect x="560.1" y="456.7" width="8.4" height="13.3" fill="#008300"/>
<rect x="575.3" y="441.4" width="8.4" height="28.6" fill="none" stroke="#e66767" stroke-width="1.1"/>
<rect x="590.5" y="441.4" width="8.4" height="28.6" fill="none" stroke="#e66767" stroke-width="1.1"/>
<rect x="605.6" y="464.3" width="8.4" height="5.7" fill="#008300"/>
<rect x="620.8" y="445.2" width="8.4" height="24.8" fill="none" stroke="#e66767" stroke-width="1.1"/>
<rect x="636.0" y="454.7" width="8.4" height="15.3" fill="#008300"/>
<rect x="651.2" y="447.1" width="8.4" height="22.9" fill="none" stroke="#e66767" stroke-width="1.1"/>
<rect x="666.4" y="449.0" width="8.4" height="21.0" fill="none" stroke="#e66767" stroke-width="1.1"/>
<rect x="681.6" y="426.1" width="8.4" height="43.9" fill="none" stroke="#e66767" stroke-width="1.1"/>
<rect x="696.7" y="439.5" width="8.4" height="30.5" fill="none" stroke="#e66767" stroke-width="1.1"/>
<rect x="711.9" y="431.9" width="8.4" height="38.1" fill="#008300"/>
<rect x="727.1" y="447.1" width="8.4" height="22.9" fill="#008300"/>
<rect x="742.3" y="456.7" width="8.4" height="13.3" fill="none" stroke="#e66767" stroke-width="1.1"/>
<rect x="757.5" y="443.3" width="8.4" height="26.7" fill="none" stroke="#e66767" stroke-width="1.1"/>
<rect x="772.7" y="388.0" width="8.4" height="82.0" fill="none" stroke="#e66767" stroke-width="1.1"/>
<rect x="787.9" y="433.8" width="8.4" height="36.2" fill="#008300"/>
<rect x="803.0" y="420.4" width="8.4" height="49.6" fill="#008300"/>
<rect x="818.2" y="424.2" width="8.4" height="45.8" fill="none" stroke="#e66767" stroke-width="1.1"/>
<polyline points="154.3,436.6 169.4,434.7 184.6,433.6 199.8,433.8 215.0,432.1 230.2,431.3 245.4,430.0 260.6,427.9 275.7,424.8 290.9,427.5 306.1,429.6 321.3,431.9 336.5,432.1 351.7,432.8 366.9,434.9 382.0,436.8 397.2,437.4 412.4,439.1 427.6,440.6 442.8,438.9 458.0,435.3 473.1,434.0 488.3,434.5 503.5,434.3 518.7,434.3 533.9,434.1 549.1,434.3 564.3,436.1 579.4,436.4 594.6,437.0 609.8,442.2 625.0,444.1 640.2,446.0 655.4,446.4 670.6,446.7 685.7,445.8 700.9,446.5 716.1,444.1 731.3,444.6 746.5,446.2 761.7,444.1 776.9,438.3 792.0,436.2 807.2,433.6 822.4,431.1" fill="none" stroke="#3987e5" stroke-width="1.5" stroke-linejoin="round" stroke-linecap="round"/>
<polyline points="78.3,435.7 93.5,436.1 108.7,436.8 123.9,440.3 139.1,437.2 154.3,437.6 169.4,433.4 184.6,430.3 199.8,427.3 215.0,426.9 230.2,425.0 245.4,426.5 260.6,425.4 275.7,422.3 290.9,428.0 306.1,434.1 321.3,437.2 336.5,438.7 351.7,443.3 366.9,441.8 382.0,439.5 397.2,437.6 412.4,439.5 427.6,438.0 442.8,436.1 458.0,431.1 473.1,430.3 488.3,429.6 503.5,430.7 518.7,432.6 533.9,437.2 549.1,438.3 564.3,442.5 579.4,442.2 594.6,441.4 609.8,447.1 625.0,449.8 640.2,449.4 655.4,450.5 670.6,452.1 685.7,444.4 700.9,443.3 716.1,438.7 731.3,438.7 746.5,440.3 761.7,443.7 776.9,433.4 792.0,433.8 807.2,428.4 822.4,421.9" fill="none" stroke="#c98500" stroke-width="1.5" stroke-linejoin="round" stroke-linecap="round"/>
</svg>