<svg xmlns="http://www.w3.org/2000/svg" viewBox="0 0 840 496" width="840" height="496" font-family="-apple-system,&#39;Segoe UI&#39;,system-ui,sans-serif" role="img" aria-label="donnemartin/system-design-primer candlestick chart">
<text x="14.0" y="20.0" font-size="15" fill="#ffffff" font-weight="650">donnemartin/system-design-primer</text>
<text x="282.0" y="20.0" font-size="11.5" fill="#c3c2b7">daily · new stars, volume = new forks</text>
<text x="805.8" y="20.0" font-size="11.0" fill="#c3c2b7">fall</text>
<rect x="791" y="10" width="9" height="12" fill="#008300"/>
<text x="750.6" y="20.0" font-size="11.0" fill="#c3c2b7">rise</text>
<rect x="736" y="10" width="9" height="12" fill="none" stroke="#e66767" stroke-width="1.5"/>
<text x="14.0" y="38.0" font-size="11.0" fill="#898781">last 49 days · +7,534 stars · +945 forks · updated 2026-07-18</text>
<rect x="10" y="66" width="820" height="290" fill="none" stroke="#2c2c2a"/>
<rect x="10" y="384" width="820" height="86" fill="none" stroke="#2c2c2a"/>
<text x="38.0" y="490.0" font-size="11.0" fill="#898781" text-anchor="middle">2026-05</text>
<line x1="26.7" y1="66.0" x2="26.7" y2="356.0" stroke="#2c2c2a" stroke-width="1.0"/>
<line x1="26.7" y1="384.0" x2="26.7" y2="470.0" stroke="#2c2c2a" stroke-width="1.0"/>
<line x1="528.8" y1="66.0" x2="528.8" y2="356.0" stroke="#2c2c2a" stroke-width="1.0"/>
<line x1="528.8" y1="384.0" x2="528.8" y2="470.0" stroke="#2c2c2a" stroke-width="1.0"/>
<text x="537.1" y="490.0" font-size="11.0" fill="#898781" text-anchor="middle">2026-07</text>
<text x="14.0" y="58.0" font-size="11.0" fill="#c3c2b7">BOLL(20,2)</text>
<text x="84.5" y="58.0" font-size="11.0" fill="#c98500">UP:193.7</text>
<text x="142.9" y="58.0" font-size="11.0" fill="#3987e5">MID:141.7</text>
<text x="207.4" y="58.0" font-size="11.0" fill="#d55181">LOW:89.6</text>
<text x="265.8" y="58.0" font-size="11.0" fill="#9085e9">MA7:143.4</text>
<line x1="10.0" y1="356.0" x2="830.0" y2="356.0" stroke="#2c2c2a" stroke-width="1.0"/>
<text x="14.0" y="353.0" font-size="11.0" fill="#898781">0</text>
<line x1="10.0" y1="226.1" x2="830.0" y2="226.1" stroke="#2c2c2a" stroke-width="1.0"/>
<text x="14.0" y="223.1" font-size="11.0" fill="#898781">100</text>
<line x1="10.0" y1="96.2" x2="830.0" y2="96.2" stroke="#2c2c2a" stroke-width="1.0"/>
<text x="14.0" y="93.2" font-size="11.0" fill="#898781">200</text>
<polyline points="336.3,90.5 353.1,91.7 369.8,97.8 386.5,95.8 403.3,94.8 420.0,91.3 436.7,91.7 453.5,96.2 470.2,96.8 486.9,97.0 503.7,96.9 520.4,96.7 537.1,95.8 553.9,94.9 570.6,94.9 587.3,106.2 604.1,109.2 620.8,105.0 637.6,79.8 654.3,86.0 671.0,87.8 687.8,87.8 704.5,86.7 721.2,89.4 738.0,92.4 754.7,96.3 771.4,99.7 788.2,102.2 804.9,104.1 821.6,104.3" fill="none" stroke="#c98500" stroke-width="1.5" stroke-linejoin="round" stroke-linecap="round"/>
<polyline points="336.3,146.7 353.1,148.1 369.8,151.3 386.5,150.4 403.3,147.6 420.0,145.9 436.7,143.3 453.5,140.3 470.2,139.2 486.9,139.1 503.7,139.2 520.4,139.0 537.1,139.8 553.9,140.4 570.6,140.3 587.3,144.8 604.1,146.8 620.8,145.2 637.6,152.5 654.3,155.5 671.0,157.0 687.8,158.3 704.5,160.2 721.2,161.3 738.0,162.8 754.7,164.1 771.4,166.3 788.2,168.7 804.9,171.8 821.6,172.0" fill="none" stroke="#3987e5" stroke-width="1.5" stroke-linejoin="round" stroke-linecap="round"/>
<polyline points="336.3,202.9 353.1,204.4 369.8,204.7 386.5,205.0 403.3,200.4 420.0,200.4 436.7,194.8 453.5,184.5 470.2,181.7 486.9,181.2 503.7,181.6 520.4,181.4 537.1,183.8 553.9,185.9 570.6,185.6 587.3,183.3 604.1,184.5 620.8,185.4 637.6,225.2 654.3,225.1 671.0,226.3 687.8,228.7 704.5,233.6 721.2,233.1 738.0,233.2 754.7,231.9 771.4,232.8 788.2,235.3 804.9,239.6 821.6,239.6" fill="none" stroke="#d55181" stroke-width="1.5" stroke-linejoin="round" stroke-linecap="round"/>
<polyline points="118.8,157.7 135.5,162.4 152.2,170.6 169.0,172.7 185.7,166.5 202.4,167.1 219.2,163.7 235.9,156.8 252.7,144.6 269.4,138.6 286.1,137.6 302.9,137.0 319.6,129.9 336.3,126.4 353.1,127.7 369.8,140.2 386.5,140.5 403.3,138.1 420.0,134.8 436.7,138.9 453.5,139.6 470.2,137.2 486.9,135.9 503.7,140.7 520.4,142.0 537.1,149.8 553.9,155.5 570.6,156.7 587.3,160.3 604.1,160.7 620.8,154.6 637.6,175.4 654.3,174.9 671.0,174.0 687.8,179.2 704.5,184.1 721.2,181.8 738.0,188.4 754.7,168.0 771.4,169.4 788.2,172.9 804.9,175.9 821.6,169.7" fill="none" stroke="#9085e9" stroke-width="1.5" stroke-linejoin="round" stroke-linecap="round"/>
<rect x="13.8" y="135.1" width="9.2" height="220.9" fill="none" stroke="#e66767" stroke-width="1.3"/>
<rect x="30.5" y="105.3" width="9.2" height="29.9" fill="none" stroke="#e66767" stroke-width="1.3"/>
<rect x="47.2" y="105.3" width="9.2" height="35.1" fill="#008300"/>
<rect x="64.0" y="140.3" width="9.2" height="45.5" fill="#008300"/>
<rect x="80.7" y="150.7" width="9.2" height="35.1" fill="none" stroke="#e66767" stroke-width="1.3"/>
<rect x="97.4" y="150.7" width="9.2" height="35.1" fill="#008300"/>
<rect x="114.2" y="185.8" width="9.2" height="15.6" fill="#008300"/>
<rect x="130.9" y="167.6" width="9.2" height="33.8" fill="none" stroke="#e66767" stroke-width="1.3"/>
<rect x="147.6" y="162.4" width="9.2" height="5.2" fill="none" stroke="#e66767" stroke-width="1.3"/>
<rect x="164.4" y="154.6" width="9.2" height="7.8" fill="none" stroke="#e66767" stroke-width="1.3"/>
<rect x="181.1" y="142.9" width="9.2" height="11.7" fill="none" stroke="#e66767" stroke-width="1.3"/>
<rect x="197.8" y="142.9" width="9.2" height="11.7" fill="#008300"/>
<rect x="214.6" y="154.6" width="9.2" height="7.8" fill="#008300"/>
<rect x="231.3" y="153.3" width="9.2" height="9.1" fill="none" stroke="#e66767" stroke-width="1.3"/>
<rect x="248.1" y="81.9" width="9.2" height="71.5" fill="none" stroke="#e66767" stroke-width="1.3"/>
<rect x="264.8" y="81.9" width="9.2" height="39.0" fill="#008300"/>
<rect x="281.5" y="120.9" width="9.2" height="26.0" fill="#008300"/>
<rect x="298.3" y="139.0" width="9.2" height="7.8" fill="none" stroke="#e66767" stroke-width="1.3"/>
<rect x="315.0" y="105.3" width="9.2" height="33.8" fill="none" stroke="#e66767" stroke-width="1.3"/>
<rect x="331.7" y="105.3" width="9.2" height="32.5" fill="#008300"/>
<rect x="348.5" y="137.7" width="9.2" height="24.7" fill="#008300"/>
<rect x="365.2" y="162.4" width="9.2" height="6.5" fill="#008300"/>
<rect x="381.9" y="123.4" width="9.2" height="45.5" fill="none" stroke="#e66767" stroke-width="1.3"/>
<rect x="398.7" y="123.4" width="9.2" height="6.5" fill="#008300"/>
<rect x="415.4" y="115.7" width="9.2" height="14.3" fill="none" stroke="#e66767" stroke-width="1.3"/>
<rect x="432.1" y="115.7" width="9.2" height="18.2" fill="#008300"/>
<rect x="448.9" y="133.8" width="9.2" height="9.1" fill="#008300"/>
<rect x="465.6" y="142.9" width="9.2" height="2.6" fill="#008300"/>
<rect x="482.3" y="145.5" width="9.2" height="14.3" fill="#008300"/>
<rect x="499.1" y="157.2" width="9.2" height="2.6" fill="none" stroke="#e66767" stroke-width="1.3"/>
<rect x="515.8" y="139.0" width="9.2" height="18.2" fill="none" stroke="#e66767" stroke-width="1.3"/>
<rect x="532.5" y="139.0" width="9.2" height="31.2" fill="#008300"/>
<rect x="549.3" y="170.2" width="9.2" height="3.9" fill="#008300"/>
<rect x="566.0" y="150.7" width="9.2" height="23.4" fill="none" stroke="#e66767" stroke-width="1.3"/>
<rect x="582.7" y="150.7" width="9.2" height="20.8" fill="#008300"/>
<rect x="599.5" y="162.4" width="9.2" height="9.1" fill="none" stroke="#e66767" stroke-width="1.3"/>
<rect x="616.2" y="114.4" width="9.2" height="48.1" fill="none" stroke="#e66767" stroke-width="1.3"/>
<rect x="632.9" y="114.4" width="9.2" height="170.2" fill="#008300"/>
<rect x="649.7" y="166.3" width="9.2" height="118.2" fill="none" stroke="#e66767" stroke-width="1.3"/>
<rect x="666.4" y="166.3" width="9.2" height="1.3" fill="#008300"/>
<rect x="683.2" y="167.6" width="9.2" height="19.5" fill="#008300"/>
<rect x="699.9" y="187.1" width="9.2" height="19.5" fill="#008300"/>
<rect x="716.6" y="145.5" width="9.2" height="61.1" fill="none" stroke="#e66767" stroke-width="1.3"/>
<rect x="733.4" y="145.5" width="9.2" height="15.6" fill="#008300"/>
<rect x="750.1" y="141.6" width="9.2" height="19.5" fill="none" stroke="#e66767" stroke-width="1.3"/>
<rect x="766.8" y="141.6" width="9.2" height="35.1" fill="#008300"/>
<rect x="783.6" y="176.7" width="9.2" height="15.6" fill="#008300"/>
<rect x="800.3" y="192.3" width="9.2" height="15.6" fill="#008300"/>
<rect x="817.0" y="162.4" width="9.2" height="45.5" fill="none" stroke="#e66767" stroke-width="1.3"/>
<circle cx="252.7" cy="81.9" r="2" fill="#c3c2b7"/>
<line x1="252.7" y1="81.9" x2="260.7" y2="81.9" stroke="#c3c2b7" stroke-width="1.0"/>
<text x="263.7" y="85.9" font-size="11.0" fill="#c3c2b7">211</text>
<circle cx="18.4" cy="356.0" r="2" fill="#c3c2b7"/>
<line x1="18.4" y1="356.0" x2="26.4" y2="356.0" stroke="#c3c2b7" stroke-width="1.0"/>
<text x="29.4" y="350.0" font-size="11.0" fill="#c3c2b7">0</text>
<text x="14.0" y="376.0" font-size="11.0" fill="#c3c2b7">VOL 15 forks</text>
<text x="96.6" y="376.0" font-size="11.0" fill="#c98500">MA5:20.4</text>
<text x="155.0" y="376.0" font-size="11.0" fill="#3987e5">MA10:16.7</text>
<text x="14.0" y="395.0" font-size="10" fill="#898781">46</text>
<rect x="13.8" y="436.1" width="9.2" height="33.9" fill="none" stroke="#e66767" stroke-width="1.1"/>
<rect x="30.5" y="429.0" width="9.2" height="41.0" fill="none" stroke="#e66767" stroke-width="1.1"/>
<rect x="47.2" y="413.0" width="9.2" height="57.0" fill="#008300"/>
<rect x="64.0" y="418.3" width="9.2" height="51.7" fill="#008300"/>
<rect x="80.7" y="437.9" width="9.2" height="32.1" fill="none" stroke="#e66767" stroke-width="1.1"/>
<rect x="97.4" y="434.3" width="9.2" height="35.7" fill="#008300"/>
<rect x="114.2" y="446.8" width="9.2" height="23.2" fill="#008300"/>
<rect x="130.9" y="445.0" width="9.2" height="25.0" fill="none" stroke="#e66767" stroke-width="1.1"/>
<rect x="147.6" y="446.8" width="9.2" height="23.2" fill="none" stroke="#e66767" stroke-width="1.1"/>
<rect x="164.4" y="436.1" width="9.2" height="33.9" fill="none" stroke="#e66767" stroke-width="1.1"/>
<rect x="181.1" y="409.4" width="9.2" height="60.6" fill="none" stroke="#e66767" stroke-width="1.1"/>
<rect x="197.8" y="436.1" width="9.2" height="33.9" fill="#008300"/>
<rect x="214.6" y="445.0" width="9.2" height="25.0" fill="#008300"/>
<rect x="231.3" y="436.1" width="9.2" height="33.9" fill="none" stroke="#e66767" stroke-width="1.1"/>
<rect x="248.1" y="427.2" width="9.2" height="42.8" fill="none" stroke="#e66767" stroke-width="1.1"/>
<rect x="264.8" y="429.0" width="9.2" height="41.0" fill="#008300"/>
<rect x="281.5" y="434.3" width="9.2" height="35.7" fill="#008300"/>
<rect x="298.3" y="423.7" width="9.2" height="46.3" fill="none" stroke="#e66767" stroke-width="1.1"/>
<rect x="315.0" y="432.6" width="9.2" height="37.4" fill="none" stroke="#e66767" stroke-width="1.1"/>
<rect x="331.7" y="443.3" width="9.2" height="26.7" fill="#008300"/>
<rect x="348.5" y="434.3" width="9.2" height="35.7" fill="#008300"/>
<rect x="365.2" y="423.7" width="9.2" height="46.3" fill="#008300"/>
<rect x="381.9" y="427.2" width="9.2" height="42.8" fill="none" stroke="#e66767" stroke-width="1.1"/>
<rect x="398.7" y="430.8" width="9.2" height="39.2" fill="#008300"/>
<rect x="415.4" y="427.2" width="9.2" height="42.8" fill="none" stroke="#e66767" stroke-width="1.1"/>
<rect x="432.1" y="430.8" width="9.2" height="39.2" fill="#008300"/>
<rect x="448.9" y="429.0" width="9.2" height="41.0" fill="#008300"/>
<rect x="465.6" y="443.3" width="9.2" height="26.7" fill="#008300"/>
<rect x="482.3" y="437.9" width="9.2" height="32.1" fill="#008300"/>
<rect x="499.1" y="432.6" width="9.2" height="37.4" fill="none" stroke="#e66767" stroke-width="1.1"/>
<rect x="515.8" y="446.8" width="9.2" height="23.2" fill="none" stroke="#e66767" stroke-width="1.1"/>
<rect x="532.5" y="445.0" width="9.2" height="25.0" fill="#008300"/>
<rect x="549.3" y="436.1" width="9.2" height="33.9" fill="#008300"/>
<rect x="566.0" y="423.7" width="9.2" height="46.3" fill="none" stroke="#e66767" stroke-width="1.1"/>
<rect x="582.7" y="443.3" width="9.2" height="26.7" fill="#008300"/>
<rect x="599.5" y="448.6" width="9.2" height="21.4" fill="none" stroke="#e66767" stroke-width="1.1"/>
<rect x="616.2" y="427.2" width="9.2" height="42.8" fill="none" stroke="#e66767" stroke-width="1.1"/>
<rect x="632.9" y="455.7" width="9.2" height="14.3" fill="#008300"/>
<rect x="649.7" y="439.7" width="9.2" height="30.3" fill="none" stroke="#e66767" stroke-width="1.1"/>
<rect x="666.4" y="448.6" width="9.2" height="21.4" fill="#008300"/>
<rect x="683.2" y="437.9" width="9.2" height="32.1" fill="#008300"/>
<rect x="699.9" y="452.2" width="9.2" height="17.8" fill="#008300"/>
<rect x="716.6" y="454.0" width="9.2" height="16.0" fill="none" stroke="#e66767" stroke-width="1.1"/>
<rect x="733.4" y="441.5" width="9.2" height="28.5" fill="#008300"/>
<rect x="750.1" y="388.0" width="9.2" height="82.0" fill="none" stroke="#e66767" stroke-width="1.1"/>
<rect x="766.8" y="439.7" width="9.2" height="30.3" fill="#008300"/>
<rect x="783.6" y="461.1" width="9.2" height="8.9" fill="#008300"/>
<rect x="800.3" y="436.1" width="9.2" height="33.9" fill="#008300"/>
<rect x="817.0" y="443.3" width="9.2" height="26.7" fill="none" stroke="#e66767" stroke-width="1.1"/>
<polyline points="169.0,434.3 185.7,431.7 202.4,432.4 219.2,435.6 235.9,437.4 252.7,436.3 269.4,435.8 286.1,434.5 302.9,432.4 319.6,431.0 336.3,431.7 353.1,434.2 369.8,432.9 386.5,431.1 403.3,430.6 420.0,430.6 436.7,430.8 453.5,430.2 470.2,432.2 486.9,432.7 503.7,431.7 520.4,432.9 537.1,435.1 553.9,436.0 570.6,435.2 587.3,436.8 604.1,438.6 620.8,438.4 637.6,439.7 654.3,439.9 671.0,441.5 687.8,440.6 704.5,441.3 721.2,443.1 738.0,444.9 754.7,439.3 771.4,438.4 788.2,441.8 804.9,439.9 821.6,440.2" fill="none" stroke="#3987e5" stroke-width="1.5" stroke-linejoin="round" stroke-linecap="round"/>
<polyline points="85.3,426.9 102.0,426.5 118.8,430.1 135.5,436.5 152.2,442.2 169.0,441.8 185.7,436.8 202.4,434.7 219.2,434.7 235.9,432.6 252.7,430.8 269.4,434.7 286.1,434.3 302.9,430.1 319.6,429.4 336.3,432.6 353.1,433.6 369.8,431.5 386.5,432.2 403.3,431.9 420.0,428.6 436.7,427.9 453.5,429.0 470.2,432.2 486.9,433.6 503.7,434.7 520.4,437.9 537.1,441.1 553.9,439.7 570.6,436.8 587.3,439.0 604.1,439.3 620.8,435.8 637.6,439.7 654.3,442.9 671.0,444.0 687.8,441.8 704.5,446.8 721.2,446.5 738.0,446.8 754.7,434.7 771.4,435.1 788.2,436.8 804.9,433.3 821.6,433.6" fill="none" stroke="#c98500" stroke-width="1.5" stroke-linejoin="round" stroke-linecap="round"/>
</svg>