<svg xmlns="http://www.w3.org/2000/svg" viewBox="0 0 840 496" width="840" height="496" font-family="-apple-system,&#39;Segoe UI&#39;,system-ui,sans-serif" role="img" aria-label="donnemartin/system-design-primer candlestick chart">
<text x="14.0" y="20.0" font-size="15" fill="#ffffff" font-weight="650">donnemartin/system-design-primer</text>
<text x="282.0" y="20.0" font-size="11.5" fill="#c3c2b7">daily · new stars, volume = new forks</text>
<text x="805.8" y="20.0" font-size="11.0" fill="#c3c2b7">fall</text>
<rect x="791" y="10" width="9" height="12" fill="#008300"/>
<text x="750.6" y="20.0" font-size="11.0" fill="#c3c2b7">rise</text>
<rect x="736" y="10" width="9" height="12" fill="none" stroke="#e66767" stroke-width="1.5"/>
<text x="14.0" y="38.0" font-size="11.0" fill="#898781">last 39 days · +6,140 stars · +778 forks · updated 2026-07-08</text>
<rect x="10" y="66" width="820" height="290" fill="none" stroke="#2c2c2a"/>
<rect x="10" y="384" width="820" height="86" fill="none" stroke="#2c2c2a"/>
<text x="38.0" y="490.0" font-size="11.0" fill="#898781" text-anchor="middle">2026-05</text>
<line x1="31.0" y1="66.0" x2="31.0" y2="356.0" stroke="#2c2c2a" stroke-width="1.0"/>
<line x1="31.0" y1="384.0" x2="31.0" y2="470.0" stroke="#2c2c2a" stroke-width="1.0"/>
<line x1="661.8" y1="66.0" x2="661.8" y2="356.0" stroke="#2c2c2a" stroke-width="1.0"/>
<line x1="661.8" y1="384.0" x2="661.8" y2="470.0" stroke="#2c2c2a" stroke-width="1.0"/>
<text x="672.3" y="490.0" font-size="11.0" fill="#898781" text-anchor="middle">2026-07</text>
<text x="14.0" y="58.0" font-size="11.0" fill="#c3c2b7">BOLL(20,2)</text>
<text x="84.5" y="58.0" font-size="11.0" fill="#c98500">UP:207.8</text>
<text x="142.9" y="58.0" font-size="11.0" fill="#3987e5">MID:154.3</text>
<text x="207.4" y="58.0" font-size="11.0" fill="#d55181">LOW:100.8</text>
<text x="271.8" y="58.0" font-size="11.0" fill="#9085e9">MA7:139.4</text>
<line x1="10.0" y1="356.0" x2="830.0" y2="356.0" stroke="#2c2c2a" stroke-width="1.0"/>
<text x="14.0" y="353.0" font-size="11.0" fill="#898781">0</text>
<line x1="10.0" y1="226.1" x2="830.0" y2="226.1" stroke="#2c2c2a" stroke-width="1.0"/>
<text x="14.0" y="223.1" font-size="11.0" fill="#898781">100</text>
<line x1="10.0" y1="96.2" x2="830.0" y2="96.2" stroke="#2c2c2a" stroke-width="1.0"/>
<text x="14.0" y="93.2" font-size="11.0" fill="#898781">200</text>
<polyline points="420.0,90.5 441.0,91.7 462.1,97.8 483.1,95.8 504.1,94.8 525.1,91.3 546.2,91.7 567.2,96.2 588.2,96.8 609.2,97.0 630.3,96.9 651.3,96.7 672.3,95.8 693.3,94.9 714.4,94.9 735.4,106.2 756.4,109.2 777.4,105.0 798.5,79.8 819.5,86.0" fill="none" stroke="#c98500" stroke-width="1.5" stroke-linejoin="round" stroke-linecap="round"/>
<polyline points="420.0,146.7 441.0,148.1 462.1,151.3 483.1,150.4 504.1,147.6 525.1,145.9 546.2,143.3 567.2,140.3 588.2,139.2 609.2,139.1 630.3,139.2 651.3,139.0 672.3,139.8 693.3,140.4 714.4,140.3 735.4,144.8 756.4,146.8 777.4,145.2 798.5,152.5 819.5,155.5" fill="none" stroke="#3987e5" stroke-width="1.5" stroke-linejoin="round" stroke-linecap="round"/>
<polyline points="420.0,202.9 441.0,204.4 462.1,204.7 483.1,205.0 504.1,200.4 525.1,200.4 546.2,194.8 567.2,184.5 588.2,181.7 609.2,181.2 630.3,181.6 651.3,181.4 672.3,183.8 693.3,185.9 714.4,185.6 735.4,183.3 756.4,184.5 777.4,185.4 798.5,225.2 819.5,225.1" fill="none" stroke="#d55181" stroke-width="1.5" stroke-linejoin="round" stroke-linecap="round"/>
<polyline points="146.7,157.7 167.7,162.4 188.7,170.6 209.7,172.7 230.8,166.5 251.8,167.1 272.8,163.7 293.8,156.8 314.9,144.6 335.9,138.6 356.9,137.6 377.9,137.0 399.0,129.9 420.0,126.4 441.0,127.7 462.1,140.2 483.1,140.5 504.1,138.1 525.1,134.8 546.2,138.9 567.2,139.6 588.2,137.2 609.2,135.9 630.3,140.7 651.3,142.0 672.3,149.8 693.3,155.5 714.4,156.7 735.4,160.3 756.4,160.7 777.4,154.6 798.5,175.4 819.5,174.9" fill="none" stroke="#9085e9" stroke-width="1.5" stroke-linejoin="round" stroke-linecap="round"/>
<rect x="14.7" y="135.1" width="11.6" height="220.9" fill="none" stroke="#e66767" stroke-width="1.3"/>
<rect x="35.8" y="105.3" width="11.6" height="29.9" fill="none" stroke="#e66767" stroke-width="1.3"/>
<rect x="56.8" y="105.3" width="11.6" height="35.1" fill="#008300"/>
<rect x="77.8" y="140.3" width="11.6" height="45.5" fill="#008300"/>
<rect x="98.8" y="150.7" width="11.6" height="35.1" fill="none" stroke="#e66767" stroke-width="1.3"/>
<rect x="119.9" y="150.7" width="11.6" height="35.1" fill="#008300"/>
<rect x="140.9" y="185.8" width="11.6" height="15.6" fill="#008300"/>
<rect x="161.9" y="167.6" width="11.6" height="33.8" fill="none" stroke="#e66767" stroke-width="1.3"/>
<rect x="182.9" y="162.4" width="11.6" height="5.2" fill="none" stroke="#e66767" stroke-width="1.3"/>
<rect x="204.0" y="154.6" width="11.6" height="7.8" fill="none" stroke="#e66767" stroke-width="1.3"/>
<rect x="225.0" y="142.9" width="11.6" height="11.7" fill="none" stroke="#e66767" stroke-width="1.3"/>
<rect x="246.0" y="142.9" width="11.6" height="11.7" fill="#008300"/>
<rect x="267.0" y="154.6" width="11.6" height="7.8" fill="#008300"/>
<rect x="288.1" y="153.3" width="11.6" height="9.1" fill="none" stroke="#e66767" stroke-width="1.3"/>
<rect x="309.1" y="81.9" width="11.6" height="71.5" fill="none" stroke="#e66767" stroke-width="1.3"/>
<rect x="330.1" y="81.9" width="11.6" height="39.0" fill="#008300"/>
<rect x="351.1" y="120.9" width="11.6" height="26.0" fill="#008300"/>
<rect x="372.2" y="139.0" width="11.6" height="7.8" fill="none" stroke="#e66767" stroke-width="1.3"/>
<rect x="393.2" y="105.3" width="11.6" height="33.8" fill="none" stroke="#e66767" stroke-width="1.3"/>
<rect x="414.2" y="105.3" width="11.6" height="32.5" fill="#008300"/>
<rect x="435.2" y="137.7" width="11.6" height="24.7" fill="#008300"/>
<rect x="456.3" y="162.4" width="11.6" height="6.5" fill="#008300"/>
<rect x="477.3" y="123.4" width="11.6" height="45.5" fill="none" stroke="#e66767" stroke-width="1.3"/>
<rect x="498.3" y="123.4" width="11.6" height="6.5" fill="#008300"/>
<rect x="519.3" y="115.7" width="11.6" height="14.3" fill="none" stroke="#e66767" stroke-width="1.3"/>
<rect x="540.4" y="115.7" width="11.6" height="18.2" fill="#008300"/>
<rect x="561.4" y="133.8" width="11.6" height="9.1" fill="#008300"/>
<rect x="582.4" y="142.9" width="11.6" height="2.6" fill="#008300"/>
<rect x="603.4" y="145.5" width="11.6" height="14.3" fill="#008300"/>
<rect x="624.5" y="157.2" width="11.6" height="2.6" fill="none" stroke="#e66767" stroke-width="1.3"/>
<rect x="645.5" y="139.0" width="11.6" height="18.2" fill="none" stroke="#e66767" stroke-width="1.3"/>
<rect x="666.5" y="139.0" width="11.6" height="31.2" fill="#008300"/>
<rect x="687.6" y="170.2" width="11.6" height="3.9" fill="#008300"/>
<rect x="708.6" y="150.7" width="11.6" height="23.4" fill="none" stroke="#e66767" stroke-width="1.3"/>
<rect x="729.6" y="150.7" width="11.6" height="20.8" fill="#008300"/>
<rect x="750.6" y="162.4" width="11.6" height="9.1" fill="none" stroke="#e66767" stroke-width="1.3"/>
<rect x="771.7" y="114.4" width="11.6" height="48.1" fill="none" stroke="#e66767" stroke-width="1.3"/>
<rect x="792.7" y="114.4" width="11.6" height="170.2" fill="#008300"/>
<rect x="813.7" y="166.3" width="11.6" height="118.2" fill="none" stroke="#e66767" stroke-width="1.3"/>
<circle cx="314.9" cy="81.9" r="2" fill="#c3c2b7"/>
<line x1="314.9" y1="81.9" x2="322.9" y2="81.9" stroke="#c3c2b7" stroke-width="1.0"/>
<text x="325.9" y="85.9" font-size="11.0" fill="#c3c2b7">211</text>
<circle cx="20.5" cy="356.0" r="2" fill="#c3c2b7"/>
<line x1="20.5" y1="356.0" x2="28.5" y2="356.0" stroke="#c3c2b7" stroke-width="1.0"/>
<text x="31.5" y="350.0" font-size="11.0" fill="#c3c2b7">0</text>
<text x="14.0" y="376.0" font-size="11.0" fill="#c3c2b7">VOL 17 forks</text>
<text x="96.6" y="376.0" font-size="11.0" fill="#c98500">MA5:15.2</text>
<text x="155.0" y="376.0" font-size="11.0" fill="#3987e5">MA10:16.9</text>
<text x="14.0" y="395.0" font-size="10" fill="#898781">34</text>
<rect x="14.7" y="424.2" width="11.6" height="45.8" fill="none" stroke="#e66767" stroke-width="1.1"/>
<rect x="35.8" y="414.5" width="11.6" height="55.5" fill="none" stroke="#e66767" stroke-width="1.1"/>
<rect x="56.8" y="392.8" width="11.6" height="77.2" fill="#008300"/>
<rect x="77.8" y="400.1" width="11.6" height="69.9" fill="#008300"/>
<rect x="98.8" y="426.6" width="11.6" height="43.4" fill="none" stroke="#e66767" stroke-width="1.1"/>
<rect x="119.9" y="421.8" width="11.6" height="48.2" fill="#008300"/>
<rect x="140.9" y="438.6" width="11.6" height="31.4" fill="#008300"/>
<rect x="161.9" y="436.2" width="11.6" height="33.8" fill="none" stroke="#e66767" stroke-width="1.1"/>
<rect x="182.9" y="438.6" width="11.6" height="31.4" fill="none" stroke="#e66767" stroke-width="1.1"/>
<rect x="204.0" y="424.2" width="11.6" height="45.8" fill="none" stroke="#e66767" stroke-width="1.1"/>
<rect x="225.0" y="388.0" width="11.6" height="82.0" fill="none" stroke="#e66767" stroke-width="1.1"/>
<rect x="246.0" y="424.2" width="11.6" height="45.8" fill="#008300"/>
<rect x="267.0" y="436.2" width="11.6" height="33.8" fill="#008300"/>
<rect x="288.1" y="424.2" width="11.6" height="45.8" fill="none" stroke="#e66767" stroke-width="1.1"/>
<rect x="309.1" y="412.1" width="11.6" height="57.9" fill="none" stroke="#e66767" stroke-width="1.1"/>
<rect x="330.1" y="414.5" width="11.6" height="55.5" fill="#008300"/>
<rect x="351.1" y="421.8" width="11.6" height="48.2" fill="#008300"/>
<rect x="372.2" y="407.3" width="11.6" height="62.7" fill="none" stroke="#e66767" stroke-width="1.1"/>
<rect x="393.2" y="419.4" width="11.6" height="50.6" fill="none" stroke="#e66767" stroke-width="1.1"/>
<rect x="414.2" y="433.8" width="11.6" height="36.2" fill="#008300"/>
<rect x="435.2" y="421.8" width="11.6" height="48.2" fill="#008300"/>
<rect x="456.3" y="407.3" width="11.6" height="62.7" fill="#008300"/>
<rect x="477.3" y="412.1" width="11.6" height="57.9" fill="none" stroke="#e66767" stroke-width="1.1"/>
<rect x="498.3" y="416.9" width="11.6" height="53.1" fill="#008300"/>
<rect x="519.3" y="412.1" width="11.6" height="57.9" fill="none" stroke="#e66767" stroke-width="1.1"/>
<rect x="540.4" y="416.9" width="11.6" height="53.1" fill="#008300"/>
<rect x="561.4" y="414.5" width="11.6" height="55.5" fill="#008300"/>
<rect x="582.4" y="433.8" width="11.6" height="36.2" fill="#008300"/>
<rect x="603.4" y="426.6" width="11.6" height="43.4" fill="#008300"/>
<rect x="624.5" y="419.4" width="11.6" height="50.6" fill="none" stroke="#e66767" stroke-width="1.1"/>
<rect x="645.5" y="438.6" width="11.6" height="31.4" fill="none" stroke="#e66767" stroke-width="1.1"/>
<rect x="666.5" y="436.2" width="11.6" height="33.8" fill="#008300"/>
<rect x="687.6" y="424.2" width="11.6" height="45.8" fill="#008300"/>
<rect x="708.6" y="407.3" width="11.6" height="62.7" fill="none" stroke="#e66767" stroke-width="1.1"/>
<rect x="729.6" y="433.8" width="11.6" height="36.2" fill="#008300"/>
<rect x="750.6" y="441.1" width="11.6" height="28.9" fill="none" stroke="#e66767" stroke-width="1.1"/>
<rect x="771.7" y="412.1" width="11.6" height="57.9" fill="none" stroke="#e66767" stroke-width="1.1"/>
<rect x="792.7" y="450.7" width="11.6" height="19.3" fill="#008300"/>
<rect x="813.7" y="429.0" width="11.6" height="41.0" fill="none" stroke="#e66767" stroke-width="1.1"/>
<polyline points="209.7,421.8 230.8,418.1 251.8,419.1 272.8,423.5 293.8,425.9 314.9,424.4 335.9,423.7 356.9,422.0 377.9,419.1 399.0,417.2 420.0,418.1 441.0,421.5 462.1,419.8 483.1,417.4 504.1,416.7 525.1,416.7 546.2,416.9 567.2,416.2 588.2,418.9 609.2,419.6 630.3,418.1 651.3,419.8 672.3,422.7 693.3,423.9 714.4,423.0 735.4,425.1 756.4,427.6 777.4,427.3 798.5,429.0 819.5,429.2" fill="none" stroke="#3987e5" stroke-width="1.5" stroke-linejoin="round" stroke-linecap="round"/>
<polyline points="104.6,411.6 125.6,411.2 146.7,416.0 167.7,424.7 188.7,432.4 209.7,431.9 230.8,425.1 251.8,422.2 272.8,422.2 293.8,419.4 314.9,416.9 335.9,422.2 356.9,421.8 377.9,416.0 399.0,415.0 420.0,419.4 441.0,420.8 462.1,417.9 483.1,418.9 504.1,418.4 525.1,414.0 546.2,413.1 567.2,414.5 588.2,418.9 609.2,420.8 630.3,422.2 651.3,426.6 672.3,430.9 693.3,429.0 714.4,425.1 735.4,428.0 756.4,428.5 777.4,423.7 798.5,429.0 819.5,433.3" fill="none" stroke="#c98500" stroke-width="1.5" stroke-linejoin="round" stroke-linecap="round"/>
</svg>