<svg xmlns="http://www.w3.org/2000/svg" viewBox="0 0 840 496" width="840" height="496" font-family="-apple-system,&#39;Segoe UI&#39;,system-ui,sans-serif" role="img" aria-label="donnemartin/system-design-primer candlestick chart">
<text x="14.0" y="20.0" font-size="15" fill="#0b0b0b" font-weight="650">donnemartin/system-design-primer</text>
<text x="282.0" y="20.0" font-size="11.5" fill="#52514e">daily · new stars, volume = new forks</text>
<text x="805.8" y="20.0" font-size="11.0" fill="#52514e">fall</text>
<rect x="791" y="10" width="9" height="12" fill="#008300"/>
<text x="750.6" y="20.0" font-size="11.0" fill="#52514e">rise</text>
<rect x="736" y="10" width="9" height="12" fill="none" stroke="#e34948" stroke-width="1.5"/>
<text x="14.0" y="38.0" font-size="11.0" fill="#898781">last 42 days · +6,530 stars · +818 forks · updated 2026-07-11</text>
<rect x="10" y="66" width="820" height="290" fill="none" stroke="#e1e0d9"/>
<rect x="10" y="384" width="820" height="86" fill="none" stroke="#e1e0d9"/>
<text x="38.0" y="490.0" font-size="11.0" fill="#898781" text-anchor="middle">2026-05</text>
<line x1="29.5" y1="66.0" x2="29.5" y2="356.0" stroke="#e1e0d9" stroke-width="1.0"/>
<line x1="29.5" y1="384.0" x2="29.5" y2="470.0" stroke="#e1e0d9" stroke-width="1.0"/>
<line x1="615.2" y1="66.0" x2="615.2" y2="356.0" stroke="#e1e0d9" stroke-width="1.0"/>
<line x1="615.2" y1="384.0" x2="615.2" y2="470.0" stroke="#e1e0d9" stroke-width="1.0"/>
<text x="625.0" y="490.0" font-size="11.0" fill="#898781" text-anchor="middle">2026-07</text>
<text x="14.0" y="58.0" font-size="11.0" fill="#52514e">BOLL(20,2)</text>
<text x="84.5" y="58.0" font-size="11.0" fill="#eda100">UP:207.3</text>
<text x="142.9" y="58.0" font-size="11.0" fill="#2a78d6">MID:150.8</text>
<text x="207.4" y="58.0" font-size="11.0" fill="#e87ba4">LOW:94.2</text>
<text x="265.8" y="58.0" font-size="11.0" fill="#4a3aa7">MA7:132.3</text>
<line x1="10.0" y1="356.0" x2="830.0" y2="356.0" stroke="#e1e0d9" stroke-width="1.0"/>
<text x="14.0" y="353.0" font-size="11.0" fill="#898781">0</text>
<line x1="10.0" y1="226.1" x2="830.0" y2="226.1" stroke="#e1e0d9" stroke-width="1.0"/>
<text x="14.0" y="223.1" font-size="11.0" fill="#898781">100</text>
<line x1="10.0" y1="96.2" x2="830.0" y2="96.2" stroke="#e1e0d9" stroke-width="1.0"/>
<text x="14.0" y="93.2" font-size="11.0" fill="#898781">200</text>
<polyline points="390.7,90.5 410.2,91.7 429.8,97.8 449.3,95.8 468.8,94.8 488.3,91.3 507.9,91.7 527.4,96.2 546.9,96.8 566.4,97.0 586.0,96.9 605.5,96.7 625.0,95.8 644.5,94.9 664.0,94.9 683.6,106.2 703.1,109.2 722.6,105.0 742.1,79.8 761.7,86.0 781.2,87.8 800.7,87.8 820.2,86.7" fill="none" stroke="#eda100" stroke-width="1.5" stroke-linejoin="round" stroke-linecap="round"/>
<polyline points="390.7,146.7 410.2,148.1 429.8,151.3 449.3,150.4 468.8,147.6 488.3,145.9 507.9,143.3 527.4,140.3 546.9,139.2 566.4,139.1 586.0,139.2 605.5,139.0 625.0,139.8 644.5,140.4 664.0,140.3 683.6,144.8 703.1,146.8 722.6,145.2 742.1,152.5 761.7,155.5 781.2,157.0 800.7,158.3 820.2,160.2" fill="none" stroke="#2a78d6" stroke-width="1.5" stroke-linejoin="round" stroke-linecap="round"/>
<polyline points="390.7,202.9 410.2,204.4 429.8,204.7 449.3,205.0 468.8,200.4 488.3,200.4 507.9,194.8 527.4,184.5 546.9,181.7 566.4,181.2 586.0,181.6 605.5,181.4 625.0,183.8 644.5,185.9 664.0,185.6 683.6,183.3 703.1,184.5 722.6,185.4 742.1,225.2 761.7,225.1 781.2,226.3 800.7,228.7 820.2,233.6" fill="none" stroke="#e87ba4" stroke-width="1.5" stroke-linejoin="round" stroke-linecap="round"/>
<polyline points="136.9,157.7 156.4,162.4 176.0,170.6 195.5,172.7 215.0,166.5 234.5,167.1 254.0,163.7 273.6,156.8 293.1,144.6 312.6,138.6 332.1,137.6 351.7,137.0 371.2,129.9 390.7,126.4 410.2,127.7 429.8,140.2 449.3,140.5 468.8,138.1 488.3,134.8 507.9,138.9 527.4,139.6 546.9,137.2 566.4,135.9 586.0,140.7 605.5,142.0 625.0,149.8 644.5,155.5 664.0,156.7 683.6,160.3 703.1,160.7 722.6,154.6 742.1,175.4 761.7,174.9 781.2,174.0 800.7,179.2 820.2,184.1" fill="none" stroke="#4a3aa7" stroke-width="1.5" stroke-linejoin="round" stroke-linecap="round"/>
<rect x="14.4" y="135.1" width="10.7" height="220.9" fill="none" stroke="#e34948" stroke-width="1.3"/>
<rect x="33.9" y="105.3" width="10.7" height="29.9" fill="none" stroke="#e34948" stroke-width="1.3"/>
<rect x="53.4" y="105.3" width="10.7" height="35.1" fill="#008300"/>
<rect x="73.0" y="140.3" width="10.7" height="45.5" fill="#008300"/>
<rect x="92.5" y="150.7" width="10.7" height="35.1" fill="none" stroke="#e34948" stroke-width="1.3"/>
<rect x="112.0" y="150.7" width="10.7" height="35.1" fill="#008300"/>
<rect x="131.5" y="185.8" width="10.7" height="15.6" fill="#008300"/>
<rect x="151.1" y="167.6" width="10.7" height="33.8" fill="none" stroke="#e34948" stroke-width="1.3"/>
<rect x="170.6" y="162.4" width="10.7" height="5.2" fill="none" stroke="#e34948" stroke-width="1.3"/>
<rect x="190.1" y="154.6" width="10.7" height="7.8" fill="none" stroke="#e34948" stroke-width="1.3"/>
<rect x="209.6" y="142.9" width="10.7" height="11.7" fill="none" stroke="#e34948" stroke-width="1.3"/>
<rect x="229.2" y="142.9" width="10.7" height="11.7" fill="#008300"/>
<rect x="248.7" y="154.6" width="10.7" height="7.8" fill="#008300"/>
<rect x="268.2" y="153.3" width="10.7" height="9.1" fill="none" stroke="#e34948" stroke-width="1.3"/>
<rect x="287.7" y="81.9" width="10.7" height="71.5" fill="none" stroke="#e34948" stroke-width="1.3"/>
<rect x="307.3" y="81.9" width="10.7" height="39.0" fill="#008300"/>
<rect x="326.8" y="120.9" width="10.7" height="26.0" fill="#008300"/>
<rect x="346.3" y="139.0" width="10.7" height="7.8" fill="none" stroke="#e34948" stroke-width="1.3"/>
<rect x="365.8" y="105.3" width="10.7" height="33.8" fill="none" stroke="#e34948" stroke-width="1.3"/>
<rect x="385.3" y="105.3" width="10.7" height="32.5" fill="#008300"/>
<rect x="404.9" y="137.7" width="10.7" height="24.7" fill="#008300"/>
<rect x="424.4" y="162.4" width="10.7" height="6.5" fill="#008300"/>
<rect x="443.9" y="123.4" width="10.7" height="45.5" fill="none" stroke="#e34948" stroke-width="1.3"/>
<rect x="463.4" y="123.4" width="10.7" height="6.5" fill="#008300"/>
<rect x="483.0" y="115.7" width="10.7" height="14.3" fill="none" stroke="#e34948" stroke-width="1.3"/>
<rect x="502.5" y="115.7" width="10.7" height="18.2" fill="#008300"/>
<rect x="522.0" y="133.8" width="10.7" height="9.1" fill="#008300"/>
<rect x="541.5" y="142.9" width="10.7" height="2.6" fill="#008300"/>
<rect x="561.1" y="145.5" width="10.7" height="14.3" fill="#008300"/>
<rect x="580.6" y="157.2" width="10.7" height="2.6" fill="none" stroke="#e34948" stroke-width="1.3"/>
<rect x="600.1" y="139.0" width="10.7" height="18.2" fill="none" stroke="#e34948" stroke-width="1.3"/>
<rect x="619.6" y="139.0" width="10.7" height="31.2" fill="#008300"/>
<rect x="639.2" y="170.2" width="10.7" height="3.9" fill="#008300"/>
<rect x="658.7" y="150.7" width="10.7" height="23.4" fill="none" stroke="#e34948" stroke-width="1.3"/>
<rect x="678.2" y="150.7" width="10.7" height="20.8" fill="#008300"/>
<rect x="697.7" y="162.4" width="10.7" height="9.1" fill="none" stroke="#e34948" stroke-width="1.3"/>
<rect x="717.3" y="114.4" width="10.7" height="48.1" fill="none" stroke="#e34948" stroke-width="1.3"/>
<rect x="736.8" y="114.4" width="10.7" height="170.2" fill="#008300"/>
<rect x="756.3" y="166.3" width="10.7" height="118.2" fill="none" stroke="#e34948" stroke-width="1.3"/>
<rect x="775.8" y="166.3" width="10.7" height="1.3" fill="#008300"/>
<rect x="795.3" y="167.6" width="10.7" height="19.5" fill="#008300"/>
<rect x="814.9" y="187.1" width="10.7" height="19.5" fill="#008300"/>
<circle cx="293.1" cy="81.9" r="2" fill="#52514e"/>
<line x1="293.1" y1="81.9" x2="301.1" y2="81.9" stroke="#52514e" stroke-width="1.0"/>
<text x="304.1" y="85.9" font-size="11.0" fill="#52514e">211</text>
<circle cx="19.8" cy="356.0" r="2" fill="#52514e"/>
<line x1="19.8" y1="356.0" x2="27.8" y2="356.0" stroke="#52514e" stroke-width="1.0"/>
<text x="30.8" y="350.0" font-size="11.0" fill="#52514e">0</text>
<text x="14.0" y="376.0" font-size="11.0" fill="#52514e">VOL 10 forks</text>
<text x="96.6" y="376.0" font-size="11.0" fill="#eda100">MA5:13</text>
<text x="142.9" y="376.0" font-size="11.0" fill="#2a78d6">MA10:16.1</text>
<text x="14.0" y="395.0" font-size="10" fill="#898781">34</text>
<rect x="14.4" y="424.2" width="10.7" height="45.8" fill="none" stroke="#e34948" stroke-width="1.1"/>
<rect x="33.9" y="414.5" width="10.7" height="55.5" fill="none" stroke="#e34948" stroke-width="1.1"/>
<rect x="53.4" y="392.8" width="10.7" height="77.2" fill="#008300"/>
<rect x="73.0" y="400.1" width="10.7" height="69.9" fill="#008300"/>
<rect x="92.5" y="426.6" width="10.7" height="43.4" fill="none" stroke="#e34948" stroke-width="1.1"/>
<rect x="112.0" y="421.8" width="10.7" height="48.2" fill="#008300"/>
<rect x="131.5" y="438.6" width="10.7" height="31.4" fill="#008300"/>
<rect x="151.1" y="436.2" width="10.7" height="33.8" fill="none" stroke="#e34948" stroke-width="1.1"/>
<rect x="170.6" y="438.6" width="10.7" height="31.4" fill="none" stroke="#e34948" stroke-width="1.1"/>
<rect x="190.1" y="424.2" width="10.7" height="45.8" fill="none" stroke="#e34948" stroke-width="1.1"/>
<rect x="209.6" y="388.0" width="10.7" height="82.0" fill="none" stroke="#e34948" stroke-width="1.1"/>
<rect x="229.2" y="424.2" width="10.7" height="45.8" fill="#008300"/>
<rect x="248.7" y="436.2" width="10.7" height="33.8" fill="#008300"/>
<rect x="268.2" y="424.2" width="10.7" height="45.8" fill="none" stroke="#e34948" stroke-width="1.1"/>
<rect x="287.7" y="412.1" width="10.7" height="57.9" fill="none" stroke="#e34948" stroke-width="1.1"/>
<rect x="307.3" y="414.5" width="10.7" height="55.5" fill="#008300"/>
<rect x="326.8" y="421.8" width="10.7" height="48.2" fill="#008300"/>
<rect x="346.3" y="407.3" width="10.7" height="62.7" fill="none" stroke="#e34948" stroke-width="1.1"/>
<rect x="365.8" y="419.4" width="10.7" height="50.6" fill="none" stroke="#e34948" stroke-width="1.1"/>
<rect x="385.3" y="433.8" width="10.7" height="36.2" fill="#008300"/>
<rect x="404.9" y="421.8" width="10.7" height="48.2" fill="#008300"/>
<rect x="424.4" y="407.3" width="10.7" height="62.7" fill="#008300"/>
<rect x="443.9" y="412.1" width="10.7" height="57.9" fill="none" stroke="#e34948" stroke-width="1.1"/>
<rect x="463.4" y="416.9" width="10.7" height="53.1" fill="#008300"/>
<rect x="483.0" y="412.1" width="10.7" height="57.9" fill="none" stroke="#e34948" stroke-width="1.1"/>
<rect x="502.5" y="416.9" width="10.7" height="53.1" fill="#008300"/>
<rect x="522.0" y="414.5" width="10.7" height="55.5" fill="#008300"/>
<rect x="541.5" y="433.8" width="10.7" height="36.2" fill="#008300"/>
<rect x="561.1" y="426.6" width="10.7" height="43.4" fill="#008300"/>
<rect x="580.6" y="419.4" width="10.7" height="50.6" fill="none" stroke="#e34948" stroke-width="1.1"/>
<rect x="600.1" y="438.6" width="10.7" height="31.4" fill="none" stroke="#e34948" stroke-width="1.1"/>
<rect x="619.6" y="436.2" width="10.7" height="33.8" fill="#008300"/>
<rect x="639.2" y="424.2" width="10.7" height="45.8" fill="#008300"/>
<rect x="658.7" y="407.3" width="10.7" height="62.7" fill="none" stroke="#e34948" stroke-width="1.1"/>
<rect x="678.2" y="433.8" width="10.7" height="36.2" fill="#008300"/>
<rect x="697.7" y="441.1" width="10.7" height="28.9" fill="none" stroke="#e34948" stroke-width="1.1"/>
<rect x="717.3" y="412.1" width="10.7" height="57.9" fill="none" stroke="#e34948" stroke-width="1.1"/>
<rect x="736.8" y="450.7" width="10.7" height="19.3" fill="#008300"/>
<rect x="756.3" y="429.0" width="10.7" height="41.0" fill="none" stroke="#e34948" stroke-width="1.1"/>
<rect x="775.8" y="441.1" width="10.7" height="28.9" fill="#008300"/>
<rect x="795.3" y="426.6" width="10.7" height="43.4" fill="#008300"/>
<rect x="814.9" y="445.9" width="10.7" height="24.1" fill="#008300"/>
<polyline points="195.5,421.8 215.0,418.1 234.5,419.1 254.0,423.5 273.6,425.9 293.1,424.4 312.6,423.7 332.1,422.0 351.7,419.1 371.2,417.2 390.7,418.1 410.2,421.5 429.8,419.8 449.3,417.4 468.8,416.7 488.3,416.7 507.9,416.9 527.4,416.2 546.9,418.9 566.4,419.6 586.0,418.1 605.5,419.8 625.0,422.7 644.5,423.9 664.0,423.0 683.6,425.1 703.1,427.6 722.6,427.3 742.1,429.0 761.7,429.2 781.2,431.4 800.7,430.2 820.2,431.2" fill="none" stroke="#2a78d6" stroke-width="1.5" stroke-linejoin="round" stroke-linecap="round"/>
<polyline points="97.9,411.6 117.4,411.2 136.9,416.0 156.4,424.7 176.0,432.4 195.5,431.9 215.0,425.1 234.5,422.2 254.0,422.2 273.6,419.4 293.1,416.9 312.6,422.2 332.1,421.8 351.7,416.0 371.2,415.0 390.7,419.4 410.2,420.8 429.8,417.9 449.3,418.9 468.8,418.4 488.3,414.0 507.9,413.1 527.4,414.5 546.9,418.9 566.4,420.8 586.0,422.2 605.5,426.6 625.0,430.9 644.5,429.0 664.0,425.1 683.6,428.0 703.1,428.5 722.6,423.7 742.1,429.0 761.7,433.3 781.2,434.8 800.7,431.9 820.2,438.6" fill="none" stroke="#eda100" stroke-width="1.5" stroke-linejoin="round" stroke-linecap="round"/>
</svg>