<svg xmlns="http://www.w3.org/2000/svg" viewBox="0 0 840 496" width="840" height="496" font-family="-apple-system,&#39;Segoe UI&#39;,system-ui,sans-serif" role="img" aria-label="donnemartin/system-design-primer candlestick chart">
<text x="14.0" y="20.0" font-size="15" fill="#ffffff" font-weight="650">donnemartin/system-design-primer</text>
<text x="282.0" y="20.0" font-size="11.5" fill="#c3c2b7">daily · new stars, volume = new forks</text>
<text x="805.8" y="20.0" font-size="11.0" fill="#c3c2b7">fall</text>
<rect x="791" y="10" width="9" height="12" fill="#008300"/>
<text x="750.6" y="20.0" font-size="11.0" fill="#c3c2b7">rise</text>
<rect x="736" y="10" width="9" height="12" fill="none" stroke="#e66767" stroke-width="1.5"/>
<text x="14.0" y="38.0" font-size="11.0" fill="#898781">last 47 days · +7,271 stars · +911 forks · updated 2026-07-16</text>
<rect x="10" y="66" width="820" height="290" fill="none" stroke="#2c2c2a"/>
<rect x="10" y="384" width="820" height="86" fill="none" stroke="#2c2c2a"/>
<text x="38.0" y="490.0" font-size="11.0" fill="#898781" text-anchor="middle">2026-05</text>
<line x1="27.4" y1="66.0" x2="27.4" y2="356.0" stroke="#2c2c2a" stroke-width="1.0"/>
<line x1="27.4" y1="384.0" x2="27.4" y2="470.0" stroke="#2c2c2a" stroke-width="1.0"/>
<line x1="550.9" y1="66.0" x2="550.9" y2="356.0" stroke="#2c2c2a" stroke-width="1.0"/>
<line x1="550.9" y1="384.0" x2="550.9" y2="470.0" stroke="#2c2c2a" stroke-width="1.0"/>
<text x="559.6" y="490.0" font-size="11.0" fill="#898781" text-anchor="middle">2026-07</text>
<text x="14.0" y="58.0" font-size="11.0" fill="#c3c2b7">BOLL(20,2)</text>
<text x="84.5" y="58.0" font-size="11.0" fill="#c98500">UP:195.4</text>
<text x="142.9" y="58.0" font-size="11.0" fill="#3987e5">MID:144.2</text>
<text x="207.4" y="58.0" font-size="11.0" fill="#d55181">LOW:92.9</text>
<text x="265.8" y="58.0" font-size="11.0" fill="#9085e9">MA7:140.9</text>
<line x1="10.0" y1="356.0" x2="830.0" y2="356.0" stroke="#2c2c2a" stroke-width="1.0"/>
<text x="14.0" y="353.0" font-size="11.0" fill="#898781">0</text>
<line x1="10.0" y1="226.1" x2="830.0" y2="226.1" stroke="#2c2c2a" stroke-width="1.0"/>
<text x="14.0" y="223.1" font-size="11.0" fill="#898781">100</text>
<line x1="10.0" y1="96.2" x2="830.0" y2="96.2" stroke="#2c2c2a" stroke-width="1.0"/>
<text x="14.0" y="93.2" font-size="11.0" fill="#898781">200</text>
<polyline points="350.2,90.5 367.7,91.7 385.1,97.8 402.6,95.8 420.0,94.8 437.4,91.3 454.9,91.7 472.3,96.2 489.8,96.8 507.2,97.0 524.7,96.9 542.1,96.7 559.6,95.8 577.0,94.9 594.5,94.9 611.9,106.2 629.4,109.2 646.8,105.0 664.3,79.8 681.7,86.0 699.1,87.8 716.6,87.8 734.0,86.7 751.5,89.4 768.9,92.4 786.4,96.3 803.8,99.7 821.3,102.2" fill="none" stroke="#c98500" stroke-width="1.5" stroke-linejoin="round" stroke-linecap="round"/>
<polyline points="350.2,146.7 367.7,148.1 385.1,151.3 402.6,150.4 420.0,147.6 437.4,145.9 454.9,143.3 472.3,140.3 489.8,139.2 507.2,139.1 524.7,139.2 542.1,139.0 559.6,139.8 577.0,140.4 594.5,140.3 611.9,144.8 629.4,146.8 646.8,145.2 664.3,152.5 681.7,155.5 699.1,157.0 716.6,158.3 734.0,160.2 751.5,161.3 768.9,162.8 786.4,164.1 803.8,166.3 821.3,168.7" fill="none" stroke="#3987e5" stroke-width="1.5" stroke-linejoin="round" stroke-linecap="round"/>
<polyline points="350.2,202.9 367.7,204.4 385.1,204.7 402.6,205.0 420.0,200.4 437.4,200.4 454.9,194.8 472.3,184.5 489.8,181.7 507.2,181.2 524.7,181.6 542.1,181.4 559.6,183.8 577.0,185.9 594.5,185.6 611.9,183.3 629.4,184.5 646.8,185.4 664.3,225.2 681.7,225.1 699.1,226.3 716.6,228.7 734.0,233.6 751.5,233.1 768.9,233.2 786.4,231.9 803.8,232.8 821.3,235.3" fill="none" stroke="#d55181" stroke-width="1.5" stroke-linejoin="round" stroke-linecap="round"/>
<polyline points="123.4,157.7 140.9,162.4 158.3,170.6 175.7,172.7 193.2,166.5 210.6,167.1 228.1,163.7 245.5,156.8 263.0,144.6 280.4,138.6 297.9,137.6 315.3,137.0 332.8,129.9 350.2,126.4 367.7,127.7 385.1,140.2 402.6,140.5 420.0,138.1 437.4,134.8 454.9,138.9 472.3,139.6 489.8,137.2 507.2,135.9 524.7,140.7 542.1,142.0 559.6,149.8 577.0,155.5 594.5,156.7 611.9,160.3 629.4,160.7 646.8,154.6 664.3,175.4 681.7,174.9 699.1,174.0 716.6,179.2 734.0,184.1 751.5,181.8 768.9,188.4 786.4,168.0 803.8,169.4 821.3,172.9" fill="none" stroke="#9085e9" stroke-width="1.5" stroke-linejoin="round" stroke-linecap="round"/>
<rect x="13.9" y="135.1" width="9.6" height="220.9" fill="none" stroke="#e66767" stroke-width="1.3"/>
<rect x="31.4" y="105.3" width="9.6" height="29.9" fill="none" stroke="#e66767" stroke-width="1.3"/>
<rect x="48.8" y="105.3" width="9.6" height="35.1" fill="#008300"/>
<rect x="66.3" y="140.3" width="9.6" height="45.5" fill="#008300"/>
<rect x="83.7" y="150.7" width="9.6" height="35.1" fill="none" stroke="#e66767" stroke-width="1.3"/>
<rect x="101.2" y="150.7" width="9.6" height="35.1" fill="#008300"/>
<rect x="118.6" y="185.8" width="9.6" height="15.6" fill="#008300"/>
<rect x="136.1" y="167.6" width="9.6" height="33.8" fill="none" stroke="#e66767" stroke-width="1.3"/>
<rect x="153.5" y="162.4" width="9.6" height="5.2" fill="none" stroke="#e66767" stroke-width="1.3"/>
<rect x="170.9" y="154.6" width="9.6" height="7.8" fill="none" stroke="#e66767" stroke-width="1.3"/>
<rect x="188.4" y="142.9" width="9.6" height="11.7" fill="none" stroke="#e66767" stroke-width="1.3"/>
<rect x="205.8" y="142.9" width="9.6" height="11.7" fill="#008300"/>
<rect x="223.3" y="154.6" width="9.6" height="7.8" fill="#008300"/>
<rect x="240.7" y="153.3" width="9.6" height="9.1" fill="none" stroke="#e66767" stroke-width="1.3"/>
<rect x="258.2" y="81.9" width="9.6" height="71.5" fill="none" stroke="#e66767" stroke-width="1.3"/>
<rect x="275.6" y="81.9" width="9.6" height="39.0" fill="#008300"/>
<rect x="293.1" y="120.9" width="9.6" height="26.0" fill="#008300"/>
<rect x="310.5" y="139.0" width="9.6" height="7.8" fill="none" stroke="#e66767" stroke-width="1.3"/>
<rect x="328.0" y="105.3" width="9.6" height="33.8" fill="none" stroke="#e66767" stroke-width="1.3"/>
<rect x="345.4" y="105.3" width="9.6" height="32.5" fill="#008300"/>
<rect x="362.9" y="137.7" width="9.6" height="24.7" fill="#008300"/>
<rect x="380.3" y="162.4" width="9.6" height="6.5" fill="#008300"/>
<rect x="397.8" y="123.4" width="9.6" height="45.5" fill="none" stroke="#e66767" stroke-width="1.3"/>
<rect x="415.2" y="123.4" width="9.6" height="6.5" fill="#008300"/>
<rect x="432.6" y="115.7" width="9.6" height="14.3" fill="none" stroke="#e66767" stroke-width="1.3"/>
<rect x="450.1" y="115.7" width="9.6" height="18.2" fill="#008300"/>
<rect x="467.5" y="133.8" width="9.6" height="9.1" fill="#008300"/>
<rect x="485.0" y="142.9" width="9.6" height="2.6" fill="#008300"/>
<rect x="502.4" y="145.5" width="9.6" height="14.3" fill="#008300"/>
<rect x="519.9" y="157.2" width="9.6" height="2.6" fill="none" stroke="#e66767" stroke-width="1.3"/>
<rect x="537.3" y="139.0" width="9.6" height="18.2" fill="none" stroke="#e66767" stroke-width="1.3"/>
<rect x="554.8" y="139.0" width="9.6" height="31.2" fill="#008300"/>
<rect x="572.2" y="170.2" width="9.6" height="3.9" fill="#008300"/>
<rect x="589.7" y="150.7" width="9.6" height="23.4" fill="none" stroke="#e66767" stroke-width="1.3"/>
<rect x="607.1" y="150.7" width="9.6" height="20.8" fill="#008300"/>
<rect x="624.6" y="162.4" width="9.6" height="9.1" fill="none" stroke="#e66767" stroke-width="1.3"/>
<rect x="642.0" y="114.4" width="9.6" height="48.1" fill="none" stroke="#e66767" stroke-width="1.3"/>
<rect x="659.5" y="114.4" width="9.6" height="170.2" fill="#008300"/>
<rect x="676.9" y="166.3" width="9.6" height="118.2" fill="none" stroke="#e66767" stroke-width="1.3"/>
<rect x="694.4" y="166.3" width="9.6" height="1.3" fill="#008300"/>
<rect x="711.8" y="167.6" width="9.6" height="19.5" fill="#008300"/>
<rect x="729.2" y="187.1" width="9.6" height="19.5" fill="#008300"/>
<rect x="746.7" y="145.5" width="9.6" height="61.1" fill="none" stroke="#e66767" stroke-width="1.3"/>
<rect x="764.1" y="145.5" width="9.6" height="15.6" fill="#008300"/>
<rect x="781.6" y="141.6" width="9.6" height="19.5" fill="none" stroke="#e66767" stroke-width="1.3"/>
<rect x="799.0" y="141.6" width="9.6" height="35.1" fill="#008300"/>
<rect x="816.5" y="176.7" width="9.6" height="15.6" fill="#008300"/>
<circle cx="263.0" cy="81.9" r="2" fill="#c3c2b7"/>
<line x1="263.0" y1="81.9" x2="271.0" y2="81.9" stroke="#c3c2b7" stroke-width="1.0"/>
<text x="274.0" y="85.9" font-size="11.0" fill="#c3c2b7">211</text>
<circle cx="18.7" cy="356.0" r="2" fill="#c3c2b7"/>
<line x1="18.7" y1="356.0" x2="26.7" y2="356.0" stroke="#c3c2b7" stroke-width="1.0"/>
<text x="29.7" y="350.0" font-size="11.0" fill="#c3c2b7">0</text>
<text x="14.0" y="376.0" font-size="11.0" fill="#c3c2b7">VOL 5 forks</text>
<text x="90.6" y="376.0" font-size="11.0" fill="#c98500">MA5:18.6</text>
<text x="149.0" y="376.0" font-size="11.0" fill="#3987e5">MA10:15.8</text>
<text x="14.0" y="395.0" font-size="10" fill="#898781">46</text>
<rect x="13.9" y="436.1" width="9.6" height="33.9" fill="none" stroke="#e66767" stroke-width="1.1"/>
<rect x="31.4" y="429.0" width="9.6" height="41.0" fill="none" stroke="#e66767" stroke-width="1.1"/>
<rect x="48.8" y="413.0" width="9.6" height="57.0" fill="#008300"/>
<rect x="66.3" y="418.3" width="9.6" height="51.7" fill="#008300"/>
<rect x="83.7" y="437.9" width="9.6" height="32.1" fill="none" stroke="#e66767" stroke-width="1.1"/>
<rect x="101.2" y="434.3" width="9.6" height="35.7" fill="#008300"/>
<rect x="118.6" y="446.8" width="9.6" height="23.2" fill="#008300"/>
<rect x="136.1" y="445.0" width="9.6" height="25.0" fill="none" stroke="#e66767" stroke-width="1.1"/>
<rect x="153.5" y="446.8" width="9.6" height="23.2" fill="none" stroke="#e66767" stroke-width="1.1"/>
<rect x="170.9" y="436.1" width="9.6" height="33.9" fill="none" stroke="#e66767" stroke-width="1.1"/>
<rect x="188.4" y="409.4" width="9.6" height="60.6" fill="none" stroke="#e66767" stroke-width="1.1"/>
<rect x="205.8" y="436.1" width="9.6" height="33.9" fill="#008300"/>
<rect x="223.3" y="445.0" width="9.6" height="25.0" fill="#008300"/>
<rect x="240.7" y="436.1" width="9.6" height="33.9" fill="none" stroke="#e66767" stroke-width="1.1"/>
<rect x="258.2" y="427.2" width="9.6" height="42.8" fill="none" stroke="#e66767" stroke-width="1.1"/>
<rect x="275.6" y="429.0" width="9.6" height="41.0" fill="#008300"/>
<rect x="293.1" y="434.3" width="9.6" height="35.7" fill="#008300"/>
<rect x="310.5" y="423.7" width="9.6" height="46.3" fill="none" stroke="#e66767" stroke-width="1.1"/>
<rect x="328.0" y="432.6" width="9.6" height="37.4" fill="none" stroke="#e66767" stroke-width="1.1"/>
<rect x="345.4" y="443.3" width="9.6" height="26.7" fill="#008300"/>
<rect x="362.9" y="434.3" width="9.6" height="35.7" fill="#008300"/>
<rect x="380.3" y="423.7" width="9.6" height="46.3" fill="#008300"/>
<rect x="397.8" y="427.2" width="9.6" height="42.8" fill="none" stroke="#e66767" stroke-width="1.1"/>
<rect x="415.2" y="430.8" width="9.6" height="39.2" fill="#008300"/>
<rect x="432.6" y="427.2" width="9.6" height="42.8" fill="none" stroke="#e66767" stroke-width="1.1"/>
<rect x="450.1" y="430.8" width="9.6" height="39.2" fill="#008300"/>
<rect x="467.5" y="429.0" width="9.6" height="41.0" fill="#008300"/>
<rect x="485.0" y="443.3" width="9.6" height="26.7" fill="#008300"/>
<rect x="502.4" y="437.9" width="9.6" height="32.1" fill="#008300"/>
<rect x="519.9" y="432.6" width="9.6" height="37.4" fill="none" stroke="#e66767" stroke-width="1.1"/>
<rect x="537.3" y="446.8" width="9.6" height="23.2" fill="none" stroke="#e66767" stroke-width="1.1"/>
<rect x="554.8" y="445.0" width="9.6" height="25.0" fill="#008300"/>
<rect x="572.2" y="436.1" width="9.6" height="33.9" fill="#008300"/>
<rect x="589.7" y="423.7" width="9.6" height="46.3" fill="none" stroke="#e66767" stroke-width="1.1"/>
<rect x="607.1" y="443.3" width="9.6" height="26.7" fill="#008300"/>
<rect x="624.6" y="448.6" width="9.6" height="21.4" fill="none" stroke="#e66767" stroke-width="1.1"/>
<rect x="642.0" y="427.2" width="9.6" height="42.8" fill="none" stroke="#e66767" stroke-width="1.1"/>
<rect x="659.5" y="455.7" width="9.6" height="14.3" fill="#008300"/>
<rect x="676.9" y="439.7" width="9.6" height="30.3" fill="none" stroke="#e66767" stroke-width="1.1"/>
<rect x="694.4" y="448.6" width="9.6" height="21.4" fill="#008300"/>
<rect x="711.8" y="437.9" width="9.6" height="32.1" fill="#008300"/>
<rect x="729.2" y="452.2" width="9.6" height="17.8" fill="#008300"/>
<rect x="746.7" y="454.0" width="9.6" height="16.0" fill="none" stroke="#e66767" stroke-width="1.1"/>
<rect x="764.1" y="441.5" width="9.6" height="28.5" fill="#008300"/>
<rect x="781.6" y="388.0" width="9.6" height="82.0" fill="none" stroke="#e66767" stroke-width="1.1"/>
<rect x="799.0" y="439.7" width="9.6" height="30.3" fill="#008300"/>
<rect x="816.5" y="461.1" width="9.6" height="8.9" fill="#008300"/>
<polyline points="175.7,434.3 193.2,431.7 210.6,432.4 228.1,435.6 245.5,437.4 263.0,436.3 280.4,435.8 297.9,434.5 315.3,432.4 332.8,431.0 350.2,431.7 367.7,434.2 385.1,432.9 402.6,431.1 420.0,430.6 437.4,430.6 454.9,430.8 472.3,430.2 489.8,432.2 507.2,432.7 524.7,431.7 542.1,432.9 559.6,435.1 577.0,436.0 594.5,435.2 611.9,436.8 629.4,438.6 646.8,438.4 664.3,439.7 681.7,439.9 699.1,441.5 716.6,440.6 734.0,441.3 751.5,443.1 768.9,444.9 786.4,439.3 803.8,438.4 821.3,441.8" fill="none" stroke="#3987e5" stroke-width="1.5" stroke-linejoin="round" stroke-linecap="round"/>
<polyline points="88.5,426.9 106.0,426.5 123.4,430.1 140.9,436.5 158.3,442.2 175.7,441.8 193.2,436.8 210.6,434.7 228.1,434.7 245.5,432.6 263.0,430.8 280.4,434.7 297.9,434.3 315.3,430.1 332.8,429.4 350.2,432.6 367.7,433.6 385.1,431.5 402.6,432.2 420.0,431.9 437.4,428.6 454.9,427.9 472.3,429.0 489.8,432.2 507.2,433.6 524.7,434.7 542.1,437.9 559.6,441.1 577.0,439.7 594.5,436.8 611.9,439.0 629.4,439.3 646.8,435.8 664.3,439.7 681.7,442.9 699.1,444.0 716.6,441.8 734.0,446.8 751.5,446.5 768.9,446.8 786.4,434.7 803.8,435.1 821.3,436.8" fill="none" stroke="#c98500" stroke-width="1.5" stroke-linejoin="round" stroke-linecap="round"/>
</svg>