<svg xmlns="http://www.w3.org/2000/svg" viewBox="0 0 840 496" width="840" height="496" font-family="-apple-system,&#39;Segoe UI&#39;,system-ui,sans-serif" role="img" aria-label="donnemartin/system-design-primer candlestick chart">
<text x="14.0" y="20.0" font-size="15" fill="#ffffff" font-weight="650">donnemartin/system-design-primer</text>
<text x="282.0" y="20.0" font-size="11.5" fill="#c3c2b7">daily · new stars, volume = new forks</text>
<text x="805.8" y="20.0" font-size="11.0" fill="#c3c2b7">fall</text>
<rect x="791" y="10" width="9" height="12" fill="#008300"/>
<text x="750.6" y="20.0" font-size="11.0" fill="#c3c2b7">rise</text>
<rect x="736" y="10" width="9" height="12" fill="none" stroke="#e66767" stroke-width="1.5"/>
<text x="14.0" y="38.0" font-size="11.0" fill="#898781">last 41 days · +6,415 stars · +808 forks · updated 2026-07-10</text>
<rect x="10" y="66" width="820" height="290" fill="none" stroke="#2c2c2a"/>
<rect x="10" y="384" width="820" height="86" fill="none" stroke="#2c2c2a"/>
<text x="38.0" y="490.0" font-size="11.0" fill="#898781" text-anchor="middle">2026-05</text>
<line x1="30.0" y1="66.0" x2="30.0" y2="356.0" stroke="#2c2c2a" stroke-width="1.0"/>
<line x1="30.0" y1="384.0" x2="30.0" y2="470.0" stroke="#2c2c2a" stroke-width="1.0"/>
<line x1="630.0" y1="66.0" x2="630.0" y2="356.0" stroke="#2c2c2a" stroke-width="1.0"/>
<line x1="630.0" y1="384.0" x2="630.0" y2="470.0" stroke="#2c2c2a" stroke-width="1.0"/>
<text x="640.0" y="490.0" font-size="11.0" fill="#898781" text-anchor="middle">2026-07</text>
<text x="14.0" y="58.0" font-size="11.0" fill="#c3c2b7">BOLL(20,2)</text>
<text x="84.5" y="58.0" font-size="11.0" fill="#c98500">UP:206.4</text>
<text x="142.9" y="58.0" font-size="11.0" fill="#3987e5">MID:152.2</text>
<text x="207.4" y="58.0" font-size="11.0" fill="#d55181">LOW:98.0</text>
<text x="265.8" y="58.0" font-size="11.0" fill="#9085e9">MA7:136.1</text>
<line x1="10.0" y1="356.0" x2="830.0" y2="356.0" stroke="#2c2c2a" stroke-width="1.0"/>
<text x="14.0" y="353.0" font-size="11.0" fill="#898781">0</text>
<line x1="10.0" y1="226.1" x2="830.0" y2="226.1" stroke="#2c2c2a" stroke-width="1.0"/>
<text x="14.0" y="223.1" font-size="11.0" fill="#898781">100</text>
<line x1="10.0" y1="96.2" x2="830.0" y2="96.2" stroke="#2c2c2a" stroke-width="1.0"/>
<text x="14.0" y="93.2" font-size="11.0" fill="#898781">200</text>
<polyline points="400.0,90.5 420.0,91.7 440.0,97.8 460.0,95.8 480.0,94.8 500.0,91.3 520.0,91.7 540.0,96.2 560.0,96.8 580.0,97.0 600.0,96.9 620.0,96.7 640.0,95.8 660.0,94.9 680.0,94.9 700.0,106.2 720.0,109.2 740.0,105.0 760.0,79.8 780.0,86.0 800.0,87.8 820.0,87.8" fill="none" stroke="#c98500" stroke-width="1.5" stroke-linejoin="round" stroke-linecap="round"/>
<polyline points="400.0,146.7 420.0,148.1 440.0,151.3 460.0,150.4 480.0,147.6 500.0,145.9 520.0,143.3 540.0,140.3 560.0,139.2 580.0,139.1 600.0,139.2 620.0,139.0 640.0,139.8 660.0,140.4 680.0,140.3 700.0,144.8 720.0,146.8 740.0,145.2 760.0,152.5 780.0,155.5 800.0,157.0 820.0,158.3" fill="none" stroke="#3987e5" stroke-width="1.5" stroke-linejoin="round" stroke-linecap="round"/>
<polyline points="400.0,202.9 420.0,204.4 440.0,204.7 460.0,205.0 480.0,200.4 500.0,200.4 520.0,194.8 540.0,184.5 560.0,181.7 580.0,181.2 600.0,181.6 620.0,181.4 640.0,183.8 660.0,185.9 680.0,185.6 700.0,183.3 720.0,184.5 740.0,185.4 760.0,225.2 780.0,225.1 800.0,226.3 820.0,228.7" fill="none" stroke="#d55181" stroke-width="1.5" stroke-linejoin="round" stroke-linecap="round"/>
<polyline points="140.0,157.7 160.0,162.4 180.0,170.6 200.0,172.7 220.0,166.5 240.0,167.1 260.0,163.7 280.0,156.8 300.0,144.6 320.0,138.6 340.0,137.6 360.0,137.0 380.0,129.9 400.0,126.4 420.0,127.7 440.0,140.2 460.0,140.5 480.0,138.1 500.0,134.8 520.0,138.9 540.0,139.6 560.0,137.2 580.0,135.9 600.0,140.7 620.0,142.0 640.0,149.8 660.0,155.5 680.0,156.7 700.0,160.3 720.0,160.7 740.0,154.6 760.0,175.4 780.0,174.9 800.0,174.0 820.0,179.2" fill="none" stroke="#9085e9" stroke-width="1.5" stroke-linejoin="round" stroke-linecap="round"/>
<rect x="14.5" y="135.1" width="11.0" height="220.9" fill="none" stroke="#e66767" stroke-width="1.3"/>
<rect x="34.5" y="105.3" width="11.0" height="29.9" fill="none" stroke="#e66767" stroke-width="1.3"/>
<rect x="54.5" y="105.3" width="11.0" height="35.1" fill="#008300"/>
<rect x="74.5" y="140.3" width="11.0" height="45.5" fill="#008300"/>
<rect x="94.5" y="150.7" width="11.0" height="35.1" fill="none" stroke="#e66767" stroke-width="1.3"/>
<rect x="114.5" y="150.7" width="11.0" height="35.1" fill="#008300"/>
<rect x="134.5" y="185.8" width="11.0" height="15.6" fill="#008300"/>
<rect x="154.5" y="167.6" width="11.0" height="33.8" fill="none" stroke="#e66767" stroke-width="1.3"/>
<rect x="174.5" y="162.4" width="11.0" height="5.2" fill="none" stroke="#e66767" stroke-width="1.3"/>
<rect x="194.5" y="154.6" width="11.0" height="7.8" fill="none" stroke="#e66767" stroke-width="1.3"/>
<rect x="214.5" y="142.9" width="11.0" height="11.7" fill="none" stroke="#e66767" stroke-width="1.3"/>
<rect x="234.5" y="142.9" width="11.0" height="11.7" fill="#008300"/>
<rect x="254.5" y="154.6" width="11.0" height="7.8" fill="#008300"/>
<rect x="274.5" y="153.3" width="11.0" height="9.1" fill="none" stroke="#e66767" stroke-width="1.3"/>
<rect x="294.5" y="81.9" width="11.0" height="71.5" fill="none" stroke="#e66767" stroke-width="1.3"/>
<rect x="314.5" y="81.9" width="11.0" height="39.0" fill="#008300"/>
<rect x="334.5" y="120.9" width="11.0" height="26.0" fill="#008300"/>
<rect x="354.5" y="139.0" width="11.0" height="7.8" fill="none" stroke="#e66767" stroke-width="1.3"/>
<rect x="374.5" y="105.3" width="11.0" height="33.8" fill="none" stroke="#e66767" stroke-width="1.3"/>
<rect x="394.5" y="105.3" width="11.0" height="32.5" fill="#008300"/>
<rect x="414.5" y="137.7" width="11.0" height="24.7" fill="#008300"/>
<rect x="434.5" y="162.4" width="11.0" height="6.5" fill="#008300"/>
<rect x="454.5" y="123.4" width="11.0" height="45.5" fill="none" stroke="#e66767" stroke-width="1.3"/>
<rect x="474.5" y="123.4" width="11.0" height="6.5" fill="#008300"/>
<rect x="494.5" y="115.7" width="11.0" height="14.3" fill="none" stroke="#e66767" stroke-width="1.3"/>
<rect x="514.5" y="115.7" width="11.0" height="18.2" fill="#008300"/>
<rect x="534.5" y="133.8" width="11.0" height="9.1" fill="#008300"/>
<rect x="554.5" y="142.9" width="11.0" height="2.6" fill="#008300"/>
<rect x="574.5" y="145.5" width="11.0" height="14.3" fill="#008300"/>
<rect x="594.5" y="157.2" width="11.0" height="2.6" fill="none" stroke="#e66767" stroke-width="1.3"/>
<rect x="614.5" y="139.0" width="11.0" height="18.2" fill="none" stroke="#e66767" stroke-width="1.3"/>
<rect x="634.5" y="139.0" width="11.0" height="31.2" fill="#008300"/>
<rect x="654.5" y="170.2" width="11.0" height="3.9" fill="#008300"/>
<rect x="674.5" y="150.7" width="11.0" height="23.4" fill="none" stroke="#e66767" stroke-width="1.3"/>
<rect x="694.5" y="150.7" width="11.0" height="20.8" fill="#008300"/>
<rect x="714.5" y="162.4" width="11.0" height="9.1" fill="none" stroke="#e66767" stroke-width="1.3"/>
<rect x="734.5" y="114.4" width="11.0" height="48.1" fill="none" stroke="#e66767" stroke-width="1.3"/>
<rect x="754.5" y="114.4" width="11.0" height="170.2" fill="#008300"/>
<rect x="774.5" y="166.3" width="11.0" height="118.2" fill="none" stroke="#e66767" stroke-width="1.3"/>
<rect x="794.5" y="166.3" width="11.0" height="1.3" fill="#008300"/>
<rect x="814.5" y="167.6" width="11.0" height="19.5" fill="#008300"/>
<circle cx="300.0" cy="81.9" r="2" fill="#c3c2b7"/>
<line x1="300.0" y1="81.9" x2="308.0" y2="81.9" stroke="#c3c2b7" stroke-width="1.0"/>
<text x="311.0" y="85.9" font-size="11.0" fill="#c3c2b7">211</text>
<circle cx="20.0" cy="356.0" r="2" fill="#c3c2b7"/>
<line x1="20.0" y1="356.0" x2="28.0" y2="356.0" stroke="#c3c2b7" stroke-width="1.0"/>
<text x="31.0" y="350.0" font-size="11.0" fill="#c3c2b7">0</text>
<text x="14.0" y="376.0" font-size="11.0" fill="#c3c2b7">VOL 18 forks</text>
<text x="96.6" y="376.0" font-size="11.0" fill="#c98500">MA5:15.8</text>
<text x="155.0" y="376.0" font-size="11.0" fill="#3987e5">MA10:16.5</text>
<text x="14.0" y="395.0" font-size="10" fill="#898781">34</text>
<rect x="14.5" y="424.2" width="11.0" height="45.8" fill="none" stroke="#e66767" stroke-width="1.1"/>
<rect x="34.5" y="414.5" width="11.0" height="55.5" fill="none" stroke="#e66767" stroke-width="1.1"/>
<rect x="54.5" y="392.8" width="11.0" height="77.2" fill="#008300"/>
<rect x="74.5" y="400.1" width="11.0" height="69.9" fill="#008300"/>
<rect x="94.5" y="426.6" width="11.0" height="43.4" fill="none" stroke="#e66767" stroke-width="1.1"/>
<rect x="114.5" y="421.8" width="11.0" height="48.2" fill="#008300"/>
<rect x="134.5" y="438.6" width="11.0" height="31.4" fill="#008300"/>
<rect x="154.5" y="436.2" width="11.0" height="33.8" fill="none" stroke="#e66767" stroke-width="1.1"/>
<rect x="174.5" y="438.6" width="11.0" height="31.4" fill="none" stroke="#e66767" stroke-width="1.1"/>
<rect x="194.5" y="424.2" width="11.0" height="45.8" fill="none" stroke="#e66767" stroke-width="1.1"/>
<rect x="214.5" y="388.0" width="11.0" height="82.0" fill="none" stroke="#e66767" stroke-width="1.1"/>
<rect x="234.5" y="424.2" width="11.0" height="45.8" fill="#008300"/>
<rect x="254.5" y="436.2" width="11.0" height="33.8" fill="#008300"/>
<rect x="274.5" y="424.2" width="11.0" height="45.8" fill="none" stroke="#e66767" stroke-width="1.1"/>
<rect x="294.5" y="412.1" width="11.0" height="57.9" fill="none" stroke="#e66767" stroke-width="1.1"/>
<rect x="314.5" y="414.5" width="11.0" height="55.5" fill="#008300"/>
<rect x="334.5" y="421.8" width="11.0" height="48.2" fill="#008300"/>
<rect x="354.5" y="407.3" width="11.0" height="62.7" fill="none" stroke="#e66767" stroke-width="1.1"/>
<rect x="374.5" y="419.4" width="11.0" height="50.6" fill="none" stroke="#e66767" stroke-width="1.1"/>
<rect x="394.5" y="433.8" width="11.0" height="36.2" fill="#008300"/>
<rect x="414.5" y="421.8" width="11.0" height="48.2" fill="#008300"/>
<rect x="434.5" y="407.3" width="11.0" height="62.7" fill="#008300"/>
<rect x="454.5" y="412.1" width="11.0" height="57.9" fill="none" stroke="#e66767" stroke-width="1.1"/>
<rect x="474.5" y="416.9" width="11.0" height="53.1" fill="#008300"/>
<rect x="494.5" y="412.1" width="11.0" height="57.9" fill="none" stroke="#e66767" stroke-width="1.1"/>
<rect x="514.5" y="416.9" width="11.0" height="53.1" fill="#008300"/>
<rect x="534.5" y="414.5" width="11.0" height="55.5" fill="#008300"/>
<rect x="554.5" y="433.8" width="11.0" height="36.2" fill="#008300"/>
<rect x="574.5" y="426.6" width="11.0" height="43.4" fill="#008300"/>
<rect x="594.5" y="419.4" width="11.0" height="50.6" fill="none" stroke="#e66767" stroke-width="1.1"/>
<rect x="614.5" y="438.6" width="11.0" height="31.4" fill="none" stroke="#e66767" stroke-width="1.1"/>
<rect x="634.5" y="436.2" width="11.0" height="33.8" fill="#008300"/>
<rect x="654.5" y="424.2" width="11.0" height="45.8" fill="#008300"/>
<rect x="674.5" y="407.3" width="11.0" height="62.7" fill="none" stroke="#e66767" stroke-width="1.1"/>
<rect x="694.5" y="433.8" width="11.0" height="36.2" fill="#008300"/>
<rect x="714.5" y="441.1" width="11.0" height="28.9" fill="none" stroke="#e66767" stroke-width="1.1"/>
<rect x="734.5" y="412.1" width="11.0" height="57.9" fill="none" stroke="#e66767" stroke-width="1.1"/>
<rect x="754.5" y="450.7" width="11.0" height="19.3" fill="#008300"/>
<rect x="774.5" y="429.0" width="11.0" height="41.0" fill="none" stroke="#e66767" stroke-width="1.1"/>
<rect x="794.5" y="441.1" width="11.0" height="28.9" fill="#008300"/>
<rect x="814.5" y="426.6" width="11.0" height="43.4" fill="#008300"/>
<polyline points="200.0,421.8 220.0,418.1 240.0,419.1 260.0,423.5 280.0,425.9 300.0,424.4 320.0,423.7 340.0,422.0 360.0,419.1 380.0,417.2 400.0,418.1 420.0,421.5 440.0,419.8 460.0,417.4 480.0,416.7 500.0,416.7 520.0,416.9 540.0,416.2 560.0,418.9 580.0,419.6 600.0,418.1 620.0,419.8 640.0,422.7 660.0,423.9 680.0,423.0 700.0,425.1 720.0,427.6 740.0,427.3 760.0,429.0 780.0,429.2 800.0,431.4 820.0,430.2" fill="none" stroke="#3987e5" stroke-width="1.5" stroke-linejoin="round" stroke-linecap="round"/>
<polyline points="100.0,411.6 120.0,411.2 140.0,416.0 160.0,424.7 180.0,432.4 200.0,431.9 220.0,425.1 240.0,422.2 260.0,422.2 280.0,419.4 300.0,416.9 320.0,422.2 340.0,421.8 360.0,416.0 380.0,415.0 400.0,419.4 420.0,420.8 440.0,417.9 460.0,418.9 480.0,418.4 500.0,414.0 520.0,413.1 540.0,414.5 560.0,418.9 580.0,420.8 600.0,422.2 620.0,426.6 640.0,430.9 660.0,429.0 680.0,425.1 700.0,428.0 720.0,428.5 740.0,423.7 760.0,429.0 780.0,433.3 800.0,434.8 820.0,431.9" fill="none" stroke="#c98500" stroke-width="1.5" stroke-linejoin="round" stroke-linecap="round"/>
</svg>