<svg xmlns="http://www.w3.org/2000/svg" viewBox="0 0 840 496" width="840" height="496" font-family="-apple-system,&#39;Segoe UI&#39;,system-ui,sans-serif" role="img" aria-label="donnemartin/system-design-primer candlestick chart">
<text x="14.0" y="20.0" font-size="15" fill="#0b0b0b" font-weight="650">donnemartin/system-design-primer</text>
<text x="282.0" y="20.0" font-size="11.5" fill="#52514e">daily · new stars, volume = new forks</text>
<text x="805.8" y="20.0" font-size="11.0" fill="#52514e">fall</text>
<rect x="791" y="10" width="9" height="12" fill="#008300"/>
<text x="750.6" y="20.0" font-size="11.0" fill="#52514e">rise</text>
<rect x="736" y="10" width="9" height="12" fill="none" stroke="#e34948" stroke-width="1.5"/>
<text x="14.0" y="38.0" font-size="11.0" fill="#898781">last 51 days · +7,835 stars · +974 forks · updated 2026-07-20</text>
<rect x="10" y="66" width="820" height="290" fill="none" stroke="#e1e0d9"/>
<rect x="10" y="384" width="820" height="86" fill="none" stroke="#e1e0d9"/>
<text x="38.0" y="490.0" font-size="11.0" fill="#898781" text-anchor="middle">2026-05</text>
<line x1="26.1" y1="66.0" x2="26.1" y2="356.0" stroke="#e1e0d9" stroke-width="1.0"/>
<line x1="26.1" y1="384.0" x2="26.1" y2="470.0" stroke="#e1e0d9" stroke-width="1.0"/>
<line x1="508.4" y1="66.0" x2="508.4" y2="356.0" stroke="#e1e0d9" stroke-width="1.0"/>
<line x1="508.4" y1="384.0" x2="508.4" y2="470.0" stroke="#e1e0d9" stroke-width="1.0"/>
<text x="516.5" y="490.0" font-size="11.0" fill="#898781" text-anchor="middle">2026-07</text>
<text x="14.0" y="58.0" font-size="11.0" fill="#52514e">BOLL(20,2)</text>
<text x="84.5" y="58.0" font-size="11.0" fill="#eda100">UP:193.8</text>
<text x="142.9" y="58.0" font-size="11.0" fill="#2a78d6">MID:140.7</text>
<text x="207.4" y="58.0" font-size="11.0" fill="#e87ba4">LOW:87.5</text>
<text x="265.8" y="58.0" font-size="11.0" fill="#4a3aa7">MA7:141.9</text>
<line x1="10.0" y1="356.0" x2="830.0" y2="356.0" stroke="#e1e0d9" stroke-width="1.0"/>
<text x="14.0" y="353.0" font-size="11.0" fill="#898781">0</text>
<line x1="10.0" y1="226.1" x2="830.0" y2="226.1" stroke="#e1e0d9" stroke-width="1.0"/>
<text x="14.0" y="223.1" font-size="11.0" fill="#898781">100</text>
<line x1="10.0" y1="96.2" x2="830.0" y2="96.2" stroke="#e1e0d9" stroke-width="1.0"/>
<text x="14.0" y="93.2" font-size="11.0" fill="#898781">200</text>
<polyline points="323.5,90.5 339.6,91.7 355.7,97.8 371.8,95.8 387.8,94.8 403.9,91.3 420.0,91.7 436.1,96.2 452.2,96.8 468.2,97.0 484.3,96.9 500.4,96.7 516.5,95.8 532.5,94.9 548.6,94.9 564.7,106.2 580.8,109.2 596.9,105.0 612.9,79.8 629.0,86.0 645.1,87.8 661.2,87.8 677.3,86.7 693.3,89.4 709.4,92.4 725.5,96.3 741.6,99.7 757.6,102.2 773.7,104.1 789.8,104.3 805.9,105.9 822.0,104.2" fill="none" stroke="#eda100" stroke-width="1.5" stroke-linejoin="round" stroke-linecap="round"/>
<polyline points="323.5,146.7 339.6,148.1 355.7,151.3 371.8,150.4 387.8,147.6 403.9,145.9 420.0,143.3 436.1,140.3 452.2,139.2 468.2,139.1 484.3,139.2 500.4,139.0 516.5,139.8 532.5,140.4 548.6,140.3 564.7,144.8 580.8,146.8 596.9,145.2 612.9,152.5 629.0,155.5 645.1,157.0 661.2,158.3 677.3,160.2 693.3,161.3 709.4,162.8 725.5,164.1 741.6,166.3 757.6,168.7 773.7,171.8 789.8,172.0 805.9,173.7 822.0,173.2" fill="none" stroke="#2a78d6" stroke-width="1.5" stroke-linejoin="round" stroke-linecap="round"/>
<polyline points="323.5,202.9 339.6,204.4 355.7,204.7 371.8,205.0 387.8,200.4 403.9,200.4 420.0,194.8 436.1,184.5 452.2,181.7 468.2,181.2 484.3,181.6 500.4,181.4 516.5,183.8 532.5,185.9 548.6,185.6 564.7,183.3 580.8,184.5 596.9,185.4 612.9,225.2 629.0,225.1 645.1,226.3 661.2,228.7 677.3,233.6 693.3,233.1 709.4,233.2 725.5,231.9 741.6,232.8 757.6,235.3 773.7,239.6 789.8,239.6 805.9,241.6 822.0,242.3" fill="none" stroke="#e87ba4" stroke-width="1.5" stroke-linejoin="round" stroke-linecap="round"/>
<polyline points="114.5,157.7 130.6,162.4 146.7,170.6 162.7,172.7 178.8,166.5 194.9,167.1 211.0,163.7 227.1,156.8 243.1,144.6 259.2,138.6 275.3,137.6 291.4,137.0 307.5,129.9 323.5,126.4 339.6,127.7 355.7,140.2 371.8,140.5 387.8,138.1 403.9,134.8 420.0,138.9 436.1,139.6 452.2,137.2 468.2,135.9 484.3,140.7 500.4,142.0 516.5,149.8 532.5,155.5 548.6,156.7 564.7,160.3 580.8,160.7 596.9,154.6 612.9,175.4 629.0,174.9 645.1,174.0 661.2,179.2 677.3,184.1 693.3,181.8 709.4,188.4 725.5,168.0 741.6,169.4 757.6,172.9 773.7,175.9 789.8,169.7 805.9,176.3 822.0,171.6" fill="none" stroke="#4a3aa7" stroke-width="1.5" stroke-linejoin="round" stroke-linecap="round"/>
<rect x="13.6" y="135.1" width="8.8" height="220.9" fill="none" stroke="#e34948" stroke-width="1.3"/>
<rect x="29.7" y="105.3" width="8.8" height="29.9" fill="none" stroke="#e34948" stroke-width="1.3"/>
<rect x="45.8" y="105.3" width="8.8" height="35.1" fill="#008300"/>
<rect x="61.9" y="140.3" width="8.8" height="45.5" fill="#008300"/>
<rect x="77.9" y="150.7" width="8.8" height="35.1" fill="none" stroke="#e34948" stroke-width="1.3"/>
<rect x="94.0" y="150.7" width="8.8" height="35.1" fill="#008300"/>
<rect x="110.1" y="185.8" width="8.8" height="15.6" fill="#008300"/>
<rect x="126.2" y="167.6" width="8.8" height="33.8" fill="none" stroke="#e34948" stroke-width="1.3"/>
<rect x="142.2" y="162.4" width="8.8" height="5.2" fill="none" stroke="#e34948" stroke-width="1.3"/>
<rect x="158.3" y="154.6" width="8.8" height="7.8" fill="none" stroke="#e34948" stroke-width="1.3"/>
<rect x="174.4" y="142.9" width="8.8" height="11.7" fill="none" stroke="#e34948" stroke-width="1.3"/>
<rect x="190.5" y="142.9" width="8.8" height="11.7" fill="#008300"/>
<rect x="206.6" y="154.6" width="8.8" height="7.8" fill="#008300"/>
<rect x="222.6" y="153.3" width="8.8" height="9.1" fill="none" stroke="#e34948" stroke-width="1.3"/>
<rect x="238.7" y="81.9" width="8.8" height="71.5" fill="none" stroke="#e34948" stroke-width="1.3"/>
<rect x="254.8" y="81.9" width="8.8" height="39.0" fill="#008300"/>
<rect x="270.9" y="120.9" width="8.8" height="26.0" fill="#008300"/>
<rect x="287.0" y="139.0" width="8.8" height="7.8" fill="none" stroke="#e34948" stroke-width="1.3"/>
<rect x="303.0" y="105.3" width="8.8" height="33.8" fill="none" stroke="#e34948" stroke-width="1.3"/>
<rect x="319.1" y="105.3" width="8.8" height="32.5" fill="#008300"/>
<rect x="335.2" y="137.7" width="8.8" height="24.7" fill="#008300"/>
<rect x="351.3" y="162.4" width="8.8" height="6.5" fill="#008300"/>
<rect x="367.3" y="123.4" width="8.8" height="45.5" fill="none" stroke="#e34948" stroke-width="1.3"/>
<rect x="383.4" y="123.4" width="8.8" height="6.5" fill="#008300"/>
<rect x="399.5" y="115.7" width="8.8" height="14.3" fill="none" stroke="#e34948" stroke-width="1.3"/>
<rect x="415.6" y="115.7" width="8.8" height="18.2" fill="#008300"/>
<rect x="431.7" y="133.8" width="8.8" height="9.1" fill="#008300"/>
<rect x="447.7" y="142.9" width="8.8" height="2.6" fill="#008300"/>
<rect x="463.8" y="145.5" width="8.8" height="14.3" fill="#008300"/>
<rect x="479.9" y="157.2" width="8.8" height="2.6" fill="none" stroke="#e34948" stroke-width="1.3"/>
<rect x="496.0" y="139.0" width="8.8" height="18.2" fill="none" stroke="#e34948" stroke-width="1.3"/>
<rect x="512.0" y="139.0" width="8.8" height="31.2" fill="#008300"/>
<rect x="528.1" y="170.2" width="8.8" height="3.9" fill="#008300"/>
<rect x="544.2" y="150.7" width="8.8" height="23.4" fill="none" stroke="#e34948" stroke-width="1.3"/>
<rect x="560.3" y="150.7" width="8.8" height="20.8" fill="#008300"/>
<rect x="576.4" y="162.4" width="8.8" height="9.1" fill="none" stroke="#e34948" stroke-width="1.3"/>
<rect x="592.4" y="114.4" width="8.8" height="48.1" fill="none" stroke="#e34948" stroke-width="1.3"/>
<rect x="608.5" y="114.4" width="8.8" height="170.2" fill="#008300"/>
<rect x="624.6" y="166.3" width="8.8" height="118.2" fill="none" stroke="#e34948" stroke-width="1.3"/>
<rect x="640.7" y="166.3" width="8.8" height="1.3" fill="#008300"/>
<rect x="656.8" y="167.6" width="8.8" height="19.5" fill="#008300"/>
<rect x="672.8" y="187.1" width="8.8" height="19.5" fill="#008300"/>
<rect x="688.9" y="145.5" width="8.8" height="61.1" fill="none" stroke="#e34948" stroke-width="1.3"/>
<rect x="705.0" y="145.5" width="8.8" height="15.6" fill="#008300"/>
<rect x="721.1" y="141.6" width="8.8" height="19.5" fill="none" stroke="#e34948" stroke-width="1.3"/>
<rect x="737.1" y="141.6" width="8.8" height="35.1" fill="#008300"/>
<rect x="753.2" y="176.7" width="8.8" height="15.6" fill="#008300"/>
<rect x="769.3" y="192.3" width="8.8" height="15.6" fill="#008300"/>
<rect x="785.4" y="162.4" width="8.8" height="45.5" fill="none" stroke="#e34948" stroke-width="1.3"/>
<rect x="801.5" y="162.4" width="8.8" height="29.9" fill="#008300"/>
<rect x="817.5" y="128.6" width="8.8" height="63.7" fill="none" stroke="#e34948" stroke-width="1.3"/>
<circle cx="243.1" cy="81.9" r="2" fill="#52514e"/>
<line x1="243.1" y1="81.9" x2="251.1" y2="81.9" stroke="#52514e" stroke-width="1.0"/>
<text x="254.1" y="85.9" font-size="11.0" fill="#52514e">211</text>
<circle cx="18.0" cy="356.0" r="2" fill="#52514e"/>
<line x1="18.0" y1="356.0" x2="26.0" y2="356.0" stroke="#52514e" stroke-width="1.0"/>
<text x="29.0" y="350.0" font-size="11.0" fill="#52514e">0</text>
<text x="14.0" y="376.0" font-size="11.0" fill="#52514e">VOL 23 forks</text>
<text x="96.6" y="376.0" font-size="11.0" fill="#eda100">MA5:13.6</text>
<text x="155.0" y="376.0" font-size="11.0" fill="#2a78d6">MA10:16.6</text>
<text x="14.0" y="395.0" font-size="10" fill="#898781">46</text>
<rect x="13.6" y="436.1" width="8.8" height="33.9" fill="none" stroke="#e34948" stroke-width="1.1"/>
<rect x="29.7" y="429.0" width="8.8" height="41.0" fill="none" stroke="#e34948" stroke-width="1.1"/>
<rect x="45.8" y="413.0" width="8.8" height="57.0" fill="#008300"/>
<rect x="61.9" y="418.3" width="8.8" height="51.7" fill="#008300"/>
<rect x="77.9" y="437.9" width="8.8" height="32.1" fill="none" stroke="#e34948" stroke-width="1.1"/>
<rect x="94.0" y="434.3" width="8.8" height="35.7" fill="#008300"/>
<rect x="110.1" y="446.8" width="8.8" height="23.2" fill="#008300"/>
<rect x="126.2" y="445.0" width="8.8" height="25.0" fill="none" stroke="#e34948" stroke-width="1.1"/>
<rect x="142.2" y="446.8" width="8.8" height="23.2" fill="none" stroke="#e34948" stroke-width="1.1"/>
<rect x="158.3" y="436.1" width="8.8" height="33.9" fill="none" stroke="#e34948" stroke-width="1.1"/>
<rect x="174.4" y="409.4" width="8.8" height="60.6" fill="none" stroke="#e34948" stroke-width="1.1"/>
<rect x="190.5" y="436.1" width="8.8" height="33.9" fill="#008300"/>
<rect x="206.6" y="445.0" width="8.8" height="25.0" fill="#008300"/>
<rect x="222.6" y="436.1" width="8.8" height="33.9" fill="none" stroke="#e34948" stroke-width="1.1"/>
<rect x="238.7" y="427.2" width="8.8" height="42.8" fill="none" stroke="#e34948" stroke-width="1.1"/>
<rect x="254.8" y="429.0" width="8.8" height="41.0" fill="#008300"/>
<rect x="270.9" y="434.3" width="8.8" height="35.7" fill="#008300"/>
<rect x="287.0" y="423.7" width="8.8" height="46.3" fill="none" stroke="#e34948" stroke-width="1.1"/>
<rect x="303.0" y="432.6" width="8.8" height="37.4" fill="none" stroke="#e34948" stroke-width="1.1"/>
<rect x="319.1" y="443.3" width="8.8" height="26.7" fill="#008300"/>
<rect x="335.2" y="434.3" width="8.8" height="35.7" fill="#008300"/>
<rect x="351.3" y="423.7" width="8.8" height="46.3" fill="#008300"/>
<rect x="367.3" y="427.2" width="8.8" height="42.8" fill="none" stroke="#e34948" stroke-width="1.1"/>
<rect x="383.4" y="430.8" width="8.8" height="39.2" fill="#008300"/>
<rect x="399.5" y="427.2" width="8.8" height="42.8" fill="none" stroke="#e34948" stroke-width="1.1"/>
<rect x="415.6" y="430.8" width="8.8" height="39.2" fill="#008300"/>
<rect x="431.7" y="429.0" width="8.8" height="41.0" fill="#008300"/>
<rect x="447.7" y="443.3" width="8.8" height="26.7" fill="#008300"/>
<rect x="463.8" y="437.9" width="8.8" height="32.1" fill="#008300"/>
<rect x="479.9" y="432.6" width="8.8" height="37.4" fill="none" stroke="#e34948" stroke-width="1.1"/>
<rect x="496.0" y="446.8" width="8.8" height="23.2" fill="none" stroke="#e34948" stroke-width="1.1"/>
<rect x="512.0" y="445.0" width="8.8" height="25.0" fill="#008300"/>
<rect x="528.1" y="436.1" width="8.8" height="33.9" fill="#008300"/>
<rect x="544.2" y="423.7" width="8.8" height="46.3" fill="none" stroke="#e34948" stroke-width="1.1"/>
<rect x="560.3" y="443.3" width="8.8" height="26.7" fill="#008300"/>
<rect x="576.4" y="448.6" width="8.8" height="21.4" fill="none" stroke="#e34948" stroke-width="1.1"/>
<rect x="592.4" y="427.2" width="8.8" height="42.8" fill="none" stroke="#e34948" stroke-width="1.1"/>
<rect x="608.5" y="455.7" width="8.8" height="14.3" fill="#008300"/>
<rect x="624.6" y="439.7" width="8.8" height="30.3" fill="none" stroke="#e34948" stroke-width="1.1"/>
<rect x="640.7" y="448.6" width="8.8" height="21.4" fill="#008300"/>
<rect x="656.8" y="437.9" width="8.8" height="32.1" fill="#008300"/>
<rect x="672.8" y="452.2" width="8.8" height="17.8" fill="#008300"/>
<rect x="688.9" y="454.0" width="8.8" height="16.0" fill="none" stroke="#e34948" stroke-width="1.1"/>
<rect x="705.0" y="441.5" width="8.8" height="28.5" fill="#008300"/>
<rect x="721.1" y="388.0" width="8.8" height="82.0" fill="none" stroke="#e34948" stroke-width="1.1"/>
<rect x="737.1" y="439.7" width="8.8" height="30.3" fill="#008300"/>
<rect x="753.2" y="461.1" width="8.8" height="8.9" fill="#008300"/>
<rect x="769.3" y="436.1" width="8.8" height="33.9" fill="#008300"/>
<rect x="785.4" y="443.3" width="8.8" height="26.7" fill="none" stroke="#e34948" stroke-width="1.1"/>
<rect x="801.5" y="459.3" width="8.8" height="10.7" fill="#008300"/>
<rect x="817.5" y="429.0" width="8.8" height="41.0" fill="none" stroke="#e34948" stroke-width="1.1"/>
<polyline points="162.7,434.3 178.8,431.7 194.9,432.4 211.0,435.6 227.1,437.4 243.1,436.3 259.2,435.8 275.3,434.5 291.4,432.4 307.5,431.0 323.5,431.7 339.6,434.2 355.7,432.9 371.8,431.1 387.8,430.6 403.9,430.6 420.0,430.8 436.1,430.2 452.2,432.2 468.2,432.7 484.3,431.7 500.4,432.9 516.5,435.1 532.5,436.0 548.6,435.2 564.7,436.8 580.8,438.6 596.9,438.4 612.9,439.7 629.0,439.9 645.1,441.5 661.2,440.6 677.3,441.3 693.3,443.1 709.4,444.9 725.5,439.3 741.6,438.4 757.6,441.8 773.7,439.9 789.8,440.2 805.9,441.3 822.0,440.4" fill="none" stroke="#2a78d6" stroke-width="1.5" stroke-linejoin="round" stroke-linecap="round"/>
<polyline points="82.4,426.9 98.4,426.5 114.5,430.1 130.6,436.5 146.7,442.2 162.7,441.8 178.8,436.8 194.9,434.7 211.0,434.7 227.1,432.6 243.1,430.8 259.2,434.7 275.3,434.3 291.4,430.1 307.5,429.4 323.5,432.6 339.6,433.6 355.7,431.5 371.8,432.2 387.8,431.9 403.9,428.6 420.0,427.9 436.1,429.0 452.2,432.2 468.2,433.6 484.3,434.7 500.4,437.9 516.5,441.1 532.5,439.7 548.6,436.8 564.7,439.0 580.8,439.3 596.9,435.8 612.9,439.7 629.0,442.9 645.1,444.0 661.2,441.8 677.3,446.8 693.3,446.5 709.4,446.8 725.5,434.7 741.6,435.1 757.6,436.8 773.7,433.3 789.8,433.6 805.9,447.9 822.0,445.8" fill="none" stroke="#eda100" stroke-width="1.5" stroke-linejoin="round" stroke-linecap="round"/>
</svg>