<svg xmlns="http://www.w3.org/2000/svg" viewBox="0 0 840 496" width="840" height="496" font-family="-apple-system,&#39;Segoe UI&#39;,system-ui,sans-serif" role="img" aria-label="donnemartin/system-design-primer candlestick chart">
<text x="14.0" y="20.0" font-size="15" fill="#0b0b0b" font-weight="650">donnemartin/system-design-primer</text>
<text x="282.0" y="20.0" font-size="11.5" fill="#52514e">daily · new stars, volume = new forks</text>
<text x="805.8" y="20.0" font-size="11.0" fill="#52514e">fall</text>
<rect x="791" y="10" width="9" height="12" fill="#008300"/>
<text x="750.6" y="20.0" font-size="11.0" fill="#52514e">rise</text>
<rect x="736" y="10" width="9" height="12" fill="none" stroke="#e34948" stroke-width="1.5"/>
<text x="14.0" y="38.0" font-size="11.0" fill="#898781">last 46 days · +7,145 stars · +906 forks · updated 2026-07-15</text>
<rect x="10" y="66" width="820" height="290" fill="none" stroke="#e1e0d9"/>
<rect x="10" y="384" width="820" height="86" fill="none" stroke="#e1e0d9"/>
<text x="38.0" y="490.0" font-size="11.0" fill="#898781" text-anchor="middle">2026-05</text>
<line x1="27.8" y1="66.0" x2="27.8" y2="356.0" stroke="#e1e0d9" stroke-width="1.0"/>
<line x1="27.8" y1="384.0" x2="27.8" y2="470.0" stroke="#e1e0d9" stroke-width="1.0"/>
<line x1="562.6" y1="66.0" x2="562.6" y2="356.0" stroke="#e1e0d9" stroke-width="1.0"/>
<line x1="562.6" y1="384.0" x2="562.6" y2="470.0" stroke="#e1e0d9" stroke-width="1.0"/>
<text x="571.5" y="490.0" font-size="11.0" fill="#898781" text-anchor="middle">2026-07</text>
<text x="14.0" y="58.0" font-size="11.0" fill="#52514e">BOLL(20,2)</text>
<text x="84.5" y="58.0" font-size="11.0" fill="#eda100">UP:197.2</text>
<text x="142.9" y="58.0" font-size="11.0" fill="#2a78d6">MID:146.1</text>
<text x="207.4" y="58.0" font-size="11.0" fill="#e87ba4">LOW:94.8</text>
<text x="265.8" y="58.0" font-size="11.0" fill="#4a3aa7">MA7:143.6</text>
<line x1="10.0" y1="356.0" x2="830.0" y2="356.0" stroke="#e1e0d9" stroke-width="1.0"/>
<text x="14.0" y="353.0" font-size="11.0" fill="#898781">0</text>
<line x1="10.0" y1="226.1" x2="830.0" y2="226.1" stroke="#e1e0d9" stroke-width="1.0"/>
<text x="14.0" y="223.1" font-size="11.0" fill="#898781">100</text>
<line x1="10.0" y1="96.2" x2="830.0" y2="96.2" stroke="#e1e0d9" stroke-width="1.0"/>
<text x="14.0" y="93.2" font-size="11.0" fill="#898781">200</text>
<polyline points="357.6,90.5 375.4,91.7 393.3,97.8 411.1,95.8 428.9,94.8 446.7,91.3 464.6,91.7 482.4,96.2 500.2,96.8 518.0,97.0 535.9,96.9 553.7,96.7 571.5,95.8 589.3,94.9 607.2,94.9 625.0,106.2 642.8,109.2 660.7,105.0 678.5,79.8 696.3,86.0 714.1,87.8 732.0,87.8 749.8,86.7 767.6,89.4 785.4,92.4 803.3,96.3 821.1,99.7" fill="none" stroke="#eda100" stroke-width="1.5" stroke-linejoin="round" stroke-linecap="round"/>
<polyline points="357.6,146.7 375.4,148.1 393.3,151.3 411.1,150.4 428.9,147.6 446.7,145.9 464.6,143.3 482.4,140.3 500.2,139.2 518.0,139.1 535.9,139.2 553.7,139.0 571.5,139.8 589.3,140.4 607.2,140.3 625.0,144.8 642.8,146.8 660.7,145.2 678.5,152.5 696.3,155.5 714.1,157.0 732.0,158.3 749.8,160.2 767.6,161.3 785.4,162.8 803.3,164.1 821.1,166.3" fill="none" stroke="#2a78d6" stroke-width="1.5" stroke-linejoin="round" stroke-linecap="round"/>
<polyline points="357.6,202.9 375.4,204.4 393.3,204.7 411.1,205.0 428.9,200.4 446.7,200.4 464.6,194.8 482.4,184.5 500.2,181.7 518.0,181.2 535.9,181.6 553.7,181.4 571.5,183.8 589.3,185.9 607.2,185.6 625.0,183.3 642.8,184.5 660.7,185.4 678.5,225.2 696.3,225.1 714.1,226.3 732.0,228.7 749.8,233.6 767.6,233.1 785.4,233.2 803.3,231.9 821.1,232.8" fill="none" stroke="#e87ba4" stroke-width="1.5" stroke-linejoin="round" stroke-linecap="round"/>
<polyline points="125.9,157.7 143.7,162.4 161.5,170.6 179.3,172.7 197.2,166.5 215.0,167.1 232.8,163.7 250.7,156.8 268.5,144.6 286.3,138.6 304.1,137.6 322.0,137.0 339.8,129.9 357.6,126.4 375.4,127.7 393.3,140.2 411.1,140.5 428.9,138.1 446.7,134.8 464.6,138.9 482.4,139.6 500.2,137.2 518.0,135.9 535.9,140.7 553.7,142.0 571.5,149.8 589.3,155.5 607.2,156.7 625.0,160.3 642.8,160.7 660.7,154.6 678.5,175.4 696.3,174.9 714.1,174.0 732.0,179.2 749.8,184.1 767.6,181.8 785.4,188.4 803.3,168.0 821.1,169.4" fill="none" stroke="#4a3aa7" stroke-width="1.5" stroke-linejoin="round" stroke-linecap="round"/>
<rect x="14.0" y="135.1" width="9.8" height="220.9" fill="none" stroke="#e34948" stroke-width="1.3"/>
<rect x="31.8" y="105.3" width="9.8" height="29.9" fill="none" stroke="#e34948" stroke-width="1.3"/>
<rect x="49.7" y="105.3" width="9.8" height="35.1" fill="#008300"/>
<rect x="67.5" y="140.3" width="9.8" height="45.5" fill="#008300"/>
<rect x="85.3" y="150.7" width="9.8" height="35.1" fill="none" stroke="#e34948" stroke-width="1.3"/>
<rect x="103.1" y="150.7" width="9.8" height="35.1" fill="#008300"/>
<rect x="121.0" y="185.8" width="9.8" height="15.6" fill="#008300"/>
<rect x="138.8" y="167.6" width="9.8" height="33.8" fill="none" stroke="#e34948" stroke-width="1.3"/>
<rect x="156.6" y="162.4" width="9.8" height="5.2" fill="none" stroke="#e34948" stroke-width="1.3"/>
<rect x="174.4" y="154.6" width="9.8" height="7.8" fill="none" stroke="#e34948" stroke-width="1.3"/>
<rect x="192.3" y="142.9" width="9.8" height="11.7" fill="none" stroke="#e34948" stroke-width="1.3"/>
<rect x="210.1" y="142.9" width="9.8" height="11.7" fill="#008300"/>
<rect x="227.9" y="154.6" width="9.8" height="7.8" fill="#008300"/>
<rect x="245.8" y="153.3" width="9.8" height="9.1" fill="none" stroke="#e34948" stroke-width="1.3"/>
<rect x="263.6" y="81.9" width="9.8" height="71.5" fill="none" stroke="#e34948" stroke-width="1.3"/>
<rect x="281.4" y="81.9" width="9.8" height="39.0" fill="#008300"/>
<rect x="299.2" y="120.9" width="9.8" height="26.0" fill="#008300"/>
<rect x="317.1" y="139.0" width="9.8" height="7.8" fill="none" stroke="#e34948" stroke-width="1.3"/>
<rect x="334.9" y="105.3" width="9.8" height="33.8" fill="none" stroke="#e34948" stroke-width="1.3"/>
<rect x="352.7" y="105.3" width="9.8" height="32.5" fill="#008300"/>
<rect x="370.5" y="137.7" width="9.8" height="24.7" fill="#008300"/>
<rect x="388.4" y="162.4" width="9.8" height="6.5" fill="#008300"/>
<rect x="406.2" y="123.4" width="9.8" height="45.5" fill="none" stroke="#e34948" stroke-width="1.3"/>
<rect x="424.0" y="123.4" width="9.8" height="6.5" fill="#008300"/>
<rect x="441.8" y="115.7" width="9.8" height="14.3" fill="none" stroke="#e34948" stroke-width="1.3"/>
<rect x="459.7" y="115.7" width="9.8" height="18.2" fill="#008300"/>
<rect x="477.5" y="133.8" width="9.8" height="9.1" fill="#008300"/>
<rect x="495.3" y="142.9" width="9.8" height="2.6" fill="#008300"/>
<rect x="513.1" y="145.5" width="9.8" height="14.3" fill="#008300"/>
<rect x="531.0" y="157.2" width="9.8" height="2.6" fill="none" stroke="#e34948" stroke-width="1.3"/>
<rect x="548.8" y="139.0" width="9.8" height="18.2" fill="none" stroke="#e34948" stroke-width="1.3"/>
<rect x="566.6" y="139.0" width="9.8" height="31.2" fill="#008300"/>
<rect x="584.4" y="170.2" width="9.8" height="3.9" fill="#008300"/>
<rect x="602.3" y="150.7" width="9.8" height="23.4" fill="none" stroke="#e34948" stroke-width="1.3"/>
<rect x="620.1" y="150.7" width="9.8" height="20.8" fill="#008300"/>
<rect x="637.9" y="162.4" width="9.8" height="9.1" fill="none" stroke="#e34948" stroke-width="1.3"/>
<rect x="655.8" y="114.4" width="9.8" height="48.1" fill="none" stroke="#e34948" stroke-width="1.3"/>
<rect x="673.6" y="114.4" width="9.8" height="170.2" fill="#008300"/>
<rect x="691.4" y="166.3" width="9.8" height="118.2" fill="none" stroke="#e34948" stroke-width="1.3"/>
<rect x="709.2" y="166.3" width="9.8" height="1.3" fill="#008300"/>
<rect x="727.1" y="167.6" width="9.8" height="19.5" fill="#008300"/>
<rect x="744.9" y="187.1" width="9.8" height="19.5" fill="#008300"/>
<rect x="762.7" y="145.5" width="9.8" height="61.1" fill="none" stroke="#e34948" stroke-width="1.3"/>
<rect x="780.5" y="145.5" width="9.8" height="15.6" fill="#008300"/>
<rect x="798.4" y="141.6" width="9.8" height="19.5" fill="none" stroke="#e34948" stroke-width="1.3"/>
<rect x="816.2" y="141.6" width="9.8" height="35.1" fill="#008300"/>
<circle cx="268.5" cy="81.9" r="2" fill="#52514e"/>
<line x1="268.5" y1="81.9" x2="276.5" y2="81.9" stroke="#52514e" stroke-width="1.0"/>
<text x="279.5" y="85.9" font-size="11.0" fill="#52514e">211</text>
<circle cx="18.9" cy="356.0" r="2" fill="#52514e"/>
<line x1="18.9" y1="356.0" x2="26.9" y2="356.0" stroke="#52514e" stroke-width="1.0"/>
<text x="29.9" y="350.0" font-size="11.0" fill="#52514e">0</text>
<text x="14.0" y="376.0" font-size="11.0" fill="#52514e">VOL 17 forks</text>
<text x="96.6" y="376.0" font-size="11.0" fill="#eda100">MA5:19.6</text>
<text x="155.0" y="376.0" font-size="11.0" fill="#2a78d6">MA10:17.7</text>
<text x="14.0" y="395.0" font-size="10" fill="#898781">46</text>
<rect x="14.0" y="436.1" width="9.8" height="33.9" fill="none" stroke="#e34948" stroke-width="1.1"/>
<rect x="31.8" y="429.0" width="9.8" height="41.0" fill="none" stroke="#e34948" stroke-width="1.1"/>
<rect x="49.7" y="413.0" width="9.8" height="57.0" fill="#008300"/>
<rect x="67.5" y="418.3" width="9.8" height="51.7" fill="#008300"/>
<rect x="85.3" y="437.9" width="9.8" height="32.1" fill="none" stroke="#e34948" stroke-width="1.1"/>
<rect x="103.1" y="434.3" width="9.8" height="35.7" fill="#008300"/>
<rect x="121.0" y="446.8" width="9.8" height="23.2" fill="#008300"/>
<rect x="138.8" y="445.0" width="9.8" height="25.0" fill="none" stroke="#e34948" stroke-width="1.1"/>
<rect x="156.6" y="446.8" width="9.8" height="23.2" fill="none" stroke="#e34948" stroke-width="1.1"/>
<rect x="174.4" y="436.1" width="9.8" height="33.9" fill="none" stroke="#e34948" stroke-width="1.1"/>
<rect x="192.3" y="409.4" width="9.8" height="60.6" fill="none" stroke="#e34948" stroke-width="1.1"/>
<rect x="210.1" y="436.1" width="9.8" height="33.9" fill="#008300"/>
<rect x="227.9" y="445.0" width="9.8" height="25.0" fill="#008300"/>
<rect x="245.8" y="436.1" width="9.8" height="33.9" fill="none" stroke="#e34948" stroke-width="1.1"/>
<rect x="263.6" y="427.2" width="9.8" height="42.8" fill="none" stroke="#e34948" stroke-width="1.1"/>
<rect x="281.4" y="429.0" width="9.8" height="41.0" fill="#008300"/>
<rect x="299.2" y="434.3" width="9.8" height="35.7" fill="#008300"/>
<rect x="317.1" y="423.7" width="9.8" height="46.3" fill="none" stroke="#e34948" stroke-width="1.1"/>
<rect x="334.9" y="432.6" width="9.8" height="37.4" fill="none" stroke="#e34948" stroke-width="1.1"/>
<rect x="352.7" y="443.3" width="9.8" height="26.7" fill="#008300"/>
<rect x="370.5" y="434.3" width="9.8" height="35.7" fill="#008300"/>
<rect x="388.4" y="423.7" width="9.8" height="46.3" fill="#008300"/>
<rect x="406.2" y="427.2" width="9.8" height="42.8" fill="none" stroke="#e34948" stroke-width="1.1"/>
<rect x="424.0" y="430.8" width="9.8" height="39.2" fill="#008300"/>
<rect x="441.8" y="427.2" width="9.8" height="42.8" fill="none" stroke="#e34948" stroke-width="1.1"/>
<rect x="459.7" y="430.8" width="9.8" height="39.2" fill="#008300"/>
<rect x="477.5" y="429.0" width="9.8" height="41.0" fill="#008300"/>
<rect x="495.3" y="443.3" width="9.8" height="26.7" fill="#008300"/>
<rect x="513.1" y="437.9" width="9.8" height="32.1" fill="#008300"/>
<rect x="531.0" y="432.6" width="9.8" height="37.4" fill="none" stroke="#e34948" stroke-width="1.1"/>
<rect x="548.8" y="446.8" width="9.8" height="23.2" fill="none" stroke="#e34948" stroke-width="1.1"/>
<rect x="566.6" y="445.0" width="9.8" height="25.0" fill="#008300"/>
<rect x="584.4" y="436.1" width="9.8" height="33.9" fill="#008300"/>
<rect x="602.3" y="423.7" width="9.8" height="46.3" fill="none" stroke="#e34948" stroke-width="1.1"/>
<rect x="620.1" y="443.3" width="9.8" height="26.7" fill="#008300"/>
<rect x="637.9" y="448.6" width="9.8" height="21.4" fill="none" stroke="#e34948" stroke-width="1.1"/>
<rect x="655.8" y="427.2" width="9.8" height="42.8" fill="none" stroke="#e34948" stroke-width="1.1"/>
<rect x="673.6" y="455.7" width="9.8" height="14.3" fill="#008300"/>
<rect x="691.4" y="439.7" width="9.8" height="30.3" fill="none" stroke="#e34948" stroke-width="1.1"/>
<rect x="709.2" y="448.6" width="9.8" height="21.4" fill="#008300"/>
<rect x="727.1" y="437.9" width="9.8" height="32.1" fill="#008300"/>
<rect x="744.9" y="452.2" width="9.8" height="17.8" fill="#008300"/>
<rect x="762.7" y="454.0" width="9.8" height="16.0" fill="none" stroke="#e34948" stroke-width="1.1"/>
<rect x="780.5" y="441.5" width="9.8" height="28.5" fill="#008300"/>
<rect x="798.4" y="388.0" width="9.8" height="82.0" fill="none" stroke="#e34948" stroke-width="1.1"/>
<rect x="816.2" y="439.7" width="9.8" height="30.3" fill="#008300"/>
<polyline points="179.3,434.3 197.2,431.7 215.0,432.4 232.8,435.6 250.7,437.4 268.5,436.3 286.3,435.8 304.1,434.5 322.0,432.4 339.8,431.0 357.6,431.7 375.4,434.2 393.3,432.9 411.1,431.1 428.9,430.6 446.7,430.6 464.6,430.8 482.4,430.2 500.2,432.2 518.0,432.7 535.9,431.7 553.7,432.9 571.5,435.1 589.3,436.0 607.2,435.2 625.0,436.8 642.8,438.6 660.7,438.4 678.5,439.7 696.3,439.9 714.1,441.5 732.0,440.6 749.8,441.3 767.6,443.1 785.4,444.9 803.3,439.3 821.1,438.4" fill="none" stroke="#2a78d6" stroke-width="1.5" stroke-linejoin="round" stroke-linecap="round"/>
<polyline points="90.2,426.9 108.0,426.5 125.9,430.1 143.7,436.5 161.5,442.2 179.3,441.8 197.2,436.8 215.0,434.7 232.8,434.7 250.7,432.6 268.5,430.8 286.3,434.7 304.1,434.3 322.0,430.1 339.8,429.4 357.6,432.6 375.4,433.6 393.3,431.5 411.1,432.2 428.9,431.9 446.7,428.6 464.6,427.9 482.4,429.0 500.2,432.2 518.0,433.6 535.9,434.7 553.7,437.9 571.5,441.1 589.3,439.7 607.2,436.8 625.0,439.0 642.8,439.3 660.7,435.8 678.5,439.7 696.3,442.9 714.1,444.0 732.0,441.8 749.8,446.8 767.6,446.5 785.4,446.8 803.3,434.7 821.1,435.1" fill="none" stroke="#eda100" stroke-width="1.5" stroke-linejoin="round" stroke-linecap="round"/>
</svg>