<svg xmlns="http://www.w3.org/2000/svg" viewBox="0 0 840 496" width="840" height="496" font-family="-apple-system,&#39;Segoe UI&#39;,system-ui,sans-serif" role="img" aria-label="donnemartin/system-design-primer candlestick chart">
<text x="14.0" y="20.0" font-size="15" fill="#0b0b0b" font-weight="650">donnemartin/system-design-primer</text>
<text x="282.0" y="20.0" font-size="11.5" fill="#52514e">daily · new stars, volume = new forks</text>
<text x="805.8" y="20.0" font-size="11.0" fill="#52514e">fall</text>
<rect x="791" y="10" width="9" height="12" fill="#008300"/>
<text x="750.6" y="20.0" font-size="11.0" fill="#52514e">rise</text>
<rect x="736" y="10" width="9" height="12" fill="none" stroke="#e34948" stroke-width="1.5"/>
<text x="14.0" y="38.0" font-size="11.0" fill="#898781">last 43 days · +6,692 stars · +827 forks · updated 2026-07-12</text>
<rect x="10" y="66" width="820" height="290" fill="none" stroke="#e1e0d9"/>
<rect x="10" y="384" width="820" height="86" fill="none" stroke="#e1e0d9"/>
<text x="38.0" y="490.0" font-size="11.0" fill="#898781" text-anchor="middle">2026-05</text>
<line x1="29.1" y1="66.0" x2="29.1" y2="356.0" stroke="#e1e0d9" stroke-width="1.0"/>
<line x1="29.1" y1="384.0" x2="29.1" y2="470.0" stroke="#e1e0d9" stroke-width="1.0"/>
<line x1="601.2" y1="66.0" x2="601.2" y2="356.0" stroke="#e1e0d9" stroke-width="1.0"/>
<line x1="601.2" y1="384.0" x2="601.2" y2="470.0" stroke="#e1e0d9" stroke-width="1.0"/>
<text x="610.7" y="490.0" font-size="11.0" fill="#898781" text-anchor="middle">2026-07</text>
<text x="14.0" y="58.0" font-size="11.0" fill="#52514e">BOLL(20,2)</text>
<text x="84.5" y="58.0" font-size="11.0" fill="#eda100">UP:205.2</text>
<text x="142.9" y="58.0" font-size="11.0" fill="#2a78d6">MID:149.9</text>
<text x="207.4" y="58.0" font-size="11.0" fill="#e87ba4">LOW:94.6</text>
<text x="265.8" y="58.0" font-size="11.0" fill="#4a3aa7">MA7:134.1</text>
<line x1="10.0" y1="356.0" x2="830.0" y2="356.0" stroke="#e1e0d9" stroke-width="1.0"/>
<text x="14.0" y="353.0" font-size="11.0" fill="#898781">0</text>
<line x1="10.0" y1="226.1" x2="830.0" y2="226.1" stroke="#e1e0d9" stroke-width="1.0"/>
<text x="14.0" y="223.1" font-size="11.0" fill="#898781">100</text>
<line x1="10.0" y1="96.2" x2="830.0" y2="96.2" stroke="#e1e0d9" stroke-width="1.0"/>
<text x="14.0" y="93.2" font-size="11.0" fill="#898781">200</text>
<polyline points="381.9,90.5 400.9,91.7 420.0,97.8 439.1,95.8 458.1,94.8 477.2,91.3 496.3,91.7 515.3,96.2 534.4,96.8 553.5,97.0 572.6,96.9 591.6,96.7 610.7,95.8 629.8,94.9 648.8,94.9 667.9,106.2 687.0,109.2 706.0,105.0 725.1,79.8 744.2,86.0 763.3,87.8 782.3,87.8 801.4,86.7 820.5,89.4" fill="none" stroke="#eda100" stroke-width="1.5" stroke-linejoin="round" stroke-linecap="round"/>
<polyline points="381.9,146.7 400.9,148.1 420.0,151.3 439.1,150.4 458.1,147.6 477.2,145.9 496.3,143.3 515.3,140.3 534.4,139.2 553.5,139.1 572.6,139.2 591.6,139.0 610.7,139.8 629.8,140.4 648.8,140.3 667.9,144.8 687.0,146.8 706.0,145.2 725.1,152.5 744.2,155.5 763.3,157.0 782.3,158.3 801.4,160.2 820.5,161.3" fill="none" stroke="#2a78d6" stroke-width="1.5" stroke-linejoin="round" stroke-linecap="round"/>
<polyline points="381.9,202.9 400.9,204.4 420.0,204.7 439.1,205.0 458.1,200.4 477.2,200.4 496.3,194.8 515.3,184.5 534.4,181.7 553.5,181.2 572.6,181.6 591.6,181.4 610.7,183.8 629.8,185.9 648.8,185.6 667.9,183.3 687.0,184.5 706.0,185.4 725.1,225.2 744.2,225.1 763.3,226.3 782.3,228.7 801.4,233.6 820.5,233.1" fill="none" stroke="#e87ba4" stroke-width="1.5" stroke-linejoin="round" stroke-linecap="round"/>
<polyline points="134.0,157.7 153.0,162.4 172.1,170.6 191.2,172.7 210.2,166.5 229.3,167.1 248.4,163.7 267.4,156.8 286.5,144.6 305.6,138.6 324.7,137.6 343.7,137.0 362.8,129.9 381.9,126.4 400.9,127.7 420.0,140.2 439.1,140.5 458.1,138.1 477.2,134.8 496.3,138.9 515.3,139.6 534.4,137.2 553.5,135.9 572.6,140.7 591.6,142.0 610.7,149.8 629.8,155.5 648.8,156.7 667.9,160.3 687.0,160.7 706.0,154.6 725.1,175.4 744.2,174.9 763.3,174.0 782.3,179.2 801.4,184.1 820.5,181.8" fill="none" stroke="#4a3aa7" stroke-width="1.5" stroke-linejoin="round" stroke-linecap="round"/>
<rect x="14.3" y="135.1" width="10.5" height="220.9" fill="none" stroke="#e34948" stroke-width="1.3"/>
<rect x="33.4" y="105.3" width="10.5" height="29.9" fill="none" stroke="#e34948" stroke-width="1.3"/>
<rect x="52.4" y="105.3" width="10.5" height="35.1" fill="#008300"/>
<rect x="71.5" y="140.3" width="10.5" height="45.5" fill="#008300"/>
<rect x="90.6" y="150.7" width="10.5" height="35.1" fill="none" stroke="#e34948" stroke-width="1.3"/>
<rect x="109.6" y="150.7" width="10.5" height="35.1" fill="#008300"/>
<rect x="128.7" y="185.8" width="10.5" height="15.6" fill="#008300"/>
<rect x="147.8" y="167.6" width="10.5" height="33.8" fill="none" stroke="#e34948" stroke-width="1.3"/>
<rect x="166.8" y="162.4" width="10.5" height="5.2" fill="none" stroke="#e34948" stroke-width="1.3"/>
<rect x="185.9" y="154.6" width="10.5" height="7.8" fill="none" stroke="#e34948" stroke-width="1.3"/>
<rect x="205.0" y="142.9" width="10.5" height="11.7" fill="none" stroke="#e34948" stroke-width="1.3"/>
<rect x="224.1" y="142.9" width="10.5" height="11.7" fill="#008300"/>
<rect x="243.1" y="154.6" width="10.5" height="7.8" fill="#008300"/>
<rect x="262.2" y="153.3" width="10.5" height="9.1" fill="none" stroke="#e34948" stroke-width="1.3"/>
<rect x="281.3" y="81.9" width="10.5" height="71.5" fill="none" stroke="#e34948" stroke-width="1.3"/>
<rect x="300.3" y="81.9" width="10.5" height="39.0" fill="#008300"/>
<rect x="319.4" y="120.9" width="10.5" height="26.0" fill="#008300"/>
<rect x="338.5" y="139.0" width="10.5" height="7.8" fill="none" stroke="#e34948" stroke-width="1.3"/>
<rect x="357.5" y="105.3" width="10.5" height="33.8" fill="none" stroke="#e34948" stroke-width="1.3"/>
<rect x="376.6" y="105.3" width="10.5" height="32.5" fill="#008300"/>
<rect x="395.7" y="137.7" width="10.5" height="24.7" fill="#008300"/>
<rect x="414.8" y="162.4" width="10.5" height="6.5" fill="#008300"/>
<rect x="433.8" y="123.4" width="10.5" height="45.5" fill="none" stroke="#e34948" stroke-width="1.3"/>
<rect x="452.9" y="123.4" width="10.5" height="6.5" fill="#008300"/>
<rect x="472.0" y="115.7" width="10.5" height="14.3" fill="none" stroke="#e34948" stroke-width="1.3"/>
<rect x="491.0" y="115.7" width="10.5" height="18.2" fill="#008300"/>
<rect x="510.1" y="133.8" width="10.5" height="9.1" fill="#008300"/>
<rect x="529.2" y="142.9" width="10.5" height="2.6" fill="#008300"/>
<rect x="548.2" y="145.5" width="10.5" height="14.3" fill="#008300"/>
<rect x="567.3" y="157.2" width="10.5" height="2.6" fill="none" stroke="#e34948" stroke-width="1.3"/>
<rect x="586.4" y="139.0" width="10.5" height="18.2" fill="none" stroke="#e34948" stroke-width="1.3"/>
<rect x="605.5" y="139.0" width="10.5" height="31.2" fill="#008300"/>
<rect x="624.5" y="170.2" width="10.5" height="3.9" fill="#008300"/>
<rect x="643.6" y="150.7" width="10.5" height="23.4" fill="none" stroke="#e34948" stroke-width="1.3"/>
<rect x="662.7" y="150.7" width="10.5" height="20.8" fill="#008300"/>
<rect x="681.7" y="162.4" width="10.5" height="9.1" fill="none" stroke="#e34948" stroke-width="1.3"/>
<rect x="700.8" y="114.4" width="10.5" height="48.1" fill="none" stroke="#e34948" stroke-width="1.3"/>
<rect x="719.9" y="114.4" width="10.5" height="170.2" fill="#008300"/>
<rect x="738.9" y="166.3" width="10.5" height="118.2" fill="none" stroke="#e34948" stroke-width="1.3"/>
<rect x="758.0" y="166.3" width="10.5" height="1.3" fill="#008300"/>
<rect x="777.1" y="167.6" width="10.5" height="19.5" fill="#008300"/>
<rect x="796.2" y="187.1" width="10.5" height="19.5" fill="#008300"/>
<rect x="815.2" y="145.5" width="10.5" height="61.1" fill="none" stroke="#e34948" stroke-width="1.3"/>
<circle cx="286.5" cy="81.9" r="2" fill="#52514e"/>
<line x1="286.5" y1="81.9" x2="294.5" y2="81.9" stroke="#52514e" stroke-width="1.0"/>
<text x="297.5" y="85.9" font-size="11.0" fill="#52514e">211</text>
<circle cx="19.5" cy="356.0" r="2" fill="#52514e"/>
<line x1="19.5" y1="356.0" x2="27.5" y2="356.0" stroke="#52514e" stroke-width="1.0"/>
<text x="30.5" y="350.0" font-size="11.0" fill="#52514e">0</text>
<text x="14.0" y="376.0" font-size="11.0" fill="#52514e">VOL 9 forks</text>
<text x="90.6" y="376.0" font-size="11.0" fill="#eda100">MA5:13.2</text>
<text x="149.0" y="376.0" font-size="11.0" fill="#2a78d6">MA10:15.1</text>
<text x="14.0" y="395.0" font-size="10" fill="#898781">34</text>
<rect x="14.3" y="424.2" width="10.5" height="45.8" fill="none" stroke="#e34948" stroke-width="1.1"/>
<rect x="33.4" y="414.5" width="10.5" height="55.5" fill="none" stroke="#e34948" stroke-width="1.1"/>
<rect x="52.4" y="392.8" width="10.5" height="77.2" fill="#008300"/>
<rect x="71.5" y="400.1" width="10.5" height="69.9" fill="#008300"/>
<rect x="90.6" y="426.6" width="10.5" height="43.4" fill="none" stroke="#e34948" stroke-width="1.1"/>
<rect x="109.6" y="421.8" width="10.5" height="48.2" fill="#008300"/>
<rect x="128.7" y="438.6" width="10.5" height="31.4" fill="#008300"/>
<rect x="147.8" y="436.2" width="10.5" height="33.8" fill="none" stroke="#e34948" stroke-width="1.1"/>
<rect x="166.8" y="438.6" width="10.5" height="31.4" fill="none" stroke="#e34948" stroke-width="1.1"/>
<rect x="185.9" y="424.2" width="10.5" height="45.8" fill="none" stroke="#e34948" stroke-width="1.1"/>
<rect x="205.0" y="388.0" width="10.5" height="82.0" fill="none" stroke="#e34948" stroke-width="1.1"/>
<rect x="224.1" y="424.2" width="10.5" height="45.8" fill="#008300"/>
<rect x="243.1" y="436.2" width="10.5" height="33.8" fill="#008300"/>
<rect x="262.2" y="424.2" width="10.5" height="45.8" fill="none" stroke="#e34948" stroke-width="1.1"/>
<rect x="281.3" y="412.1" width="10.5" height="57.9" fill="none" stroke="#e34948" stroke-width="1.1"/>
<rect x="300.3" y="414.5" width="10.5" height="55.5" fill="#008300"/>
<rect x="319.4" y="421.8" width="10.5" height="48.2" fill="#008300"/>
<rect x="338.5" y="407.3" width="10.5" height="62.7" fill="none" stroke="#e34948" stroke-width="1.1"/>
<rect x="357.5" y="419.4" width="10.5" height="50.6" fill="none" stroke="#e34948" stroke-width="1.1"/>
<rect x="376.6" y="433.8" width="10.5" height="36.2" fill="#008300"/>
<rect x="395.7" y="421.8" width="10.5" height="48.2" fill="#008300"/>
<rect x="414.8" y="407.3" width="10.5" height="62.7" fill="#008300"/>
<rect x="433.8" y="412.1" width="10.5" height="57.9" fill="none" stroke="#e34948" stroke-width="1.1"/>
<rect x="452.9" y="416.9" width="10.5" height="53.1" fill="#008300"/>
<rect x="472.0" y="412.1" width="10.5" height="57.9" fill="none" stroke="#e34948" stroke-width="1.1"/>
<rect x="491.0" y="416.9" width="10.5" height="53.1" fill="#008300"/>
<rect x="510.1" y="414.5" width="10.5" height="55.5" fill="#008300"/>
<rect x="529.2" y="433.8" width="10.5" height="36.2" fill="#008300"/>
<rect x="548.2" y="426.6" width="10.5" height="43.4" fill="#008300"/>
<rect x="567.3" y="419.4" width="10.5" height="50.6" fill="none" stroke="#e34948" stroke-width="1.1"/>
<rect x="586.4" y="438.6" width="10.5" height="31.4" fill="none" stroke="#e34948" stroke-width="1.1"/>
<rect x="605.5" y="436.2" width="10.5" height="33.8" fill="#008300"/>
<rect x="624.5" y="424.2" width="10.5" height="45.8" fill="#008300"/>
<rect x="643.6" y="407.3" width="10.5" height="62.7" fill="none" stroke="#e34948" stroke-width="1.1"/>
<rect x="662.7" y="433.8" width="10.5" height="36.2" fill="#008300"/>
<rect x="681.7" y="441.1" width="10.5" height="28.9" fill="none" stroke="#e34948" stroke-width="1.1"/>
<rect x="700.8" y="412.1" width="10.5" height="57.9" fill="none" stroke="#e34948" stroke-width="1.1"/>
<rect x="719.9" y="450.7" width="10.5" height="19.3" fill="#008300"/>
<rect x="738.9" y="429.0" width="10.5" height="41.0" fill="none" stroke="#e34948" stroke-width="1.1"/>
<rect x="758.0" y="441.1" width="10.5" height="28.9" fill="#008300"/>
<rect x="777.1" y="426.6" width="10.5" height="43.4" fill="#008300"/>
<rect x="796.2" y="445.9" width="10.5" height="24.1" fill="#008300"/>
<rect x="815.2" y="448.3" width="10.5" height="21.7" fill="none" stroke="#e34948" stroke-width="1.1"/>
<polyline points="191.2,421.8 210.2,418.1 229.3,419.1 248.4,423.5 267.4,425.9 286.5,424.4 305.6,423.7 324.7,422.0 343.7,419.1 362.8,417.2 381.9,418.1 400.9,421.5 420.0,419.8 439.1,417.4 458.1,416.7 477.2,416.7 496.3,416.9 515.3,416.2 534.4,418.9 553.5,419.6 572.6,418.1 591.6,419.8 610.7,422.7 629.8,423.9 648.8,423.0 667.9,425.1 687.0,427.6 706.0,427.3 725.1,429.0 744.2,429.2 763.3,431.4 782.3,430.2 801.4,431.2 820.5,433.6" fill="none" stroke="#2a78d6" stroke-width="1.5" stroke-linejoin="round" stroke-linecap="round"/>
<polyline points="95.8,411.6 114.9,411.2 134.0,416.0 153.0,424.7 172.1,432.4 191.2,431.9 210.2,425.1 229.3,422.2 248.4,422.2 267.4,419.4 286.5,416.9 305.6,422.2 324.7,421.8 343.7,416.0 362.8,415.0 381.9,419.4 400.9,420.8 420.0,417.9 439.1,418.9 458.1,418.4 477.2,414.0 496.3,413.1 515.3,414.5 534.4,418.9 553.5,420.8 572.6,422.2 591.6,426.6 610.7,430.9 629.8,429.0 648.8,425.1 667.9,428.0 687.0,428.5 706.0,423.7 725.1,429.0 744.2,433.3 763.3,434.8 782.3,431.9 801.4,438.6 820.5,438.2" fill="none" stroke="#eda100" stroke-width="1.5" stroke-linejoin="round" stroke-linecap="round"/>
</svg>