<svg xmlns="http://www.w3.org/2000/svg" viewBox="0 0 840 496" width="840" height="496" font-family="-apple-system,&#39;Segoe UI&#39;,system-ui,sans-serif" role="img" aria-label="donnemartin/system-design-primer candlestick chart">
<text x="14.0" y="20.0" font-size="15" fill="#0b0b0b" font-weight="650">donnemartin/system-design-primer</text>
<text x="282.0" y="20.0" font-size="11.5" fill="#52514e">daily · new stars, volume = new forks</text>
<text x="805.8" y="20.0" font-size="11.0" fill="#52514e">fall</text>
<rect x="791" y="10" width="9" height="12" fill="#008300"/>
<text x="750.6" y="20.0" font-size="11.0" fill="#52514e">rise</text>
<rect x="736" y="10" width="9" height="12" fill="none" stroke="#e34948" stroke-width="1.5"/>
<text x="14.0" y="38.0" font-size="11.0" fill="#898781">last 45 days · +7,007 stars · +889 forks · updated 2026-07-14</text>
<rect x="10" y="66" width="820" height="290" fill="none" stroke="#e1e0d9"/>
<rect x="10" y="384" width="820" height="86" fill="none" stroke="#e1e0d9"/>
<text x="38.0" y="490.0" font-size="11.0" fill="#898781" text-anchor="middle">2026-05</text>
<line x1="28.2" y1="66.0" x2="28.2" y2="356.0" stroke="#e1e0d9" stroke-width="1.0"/>
<line x1="28.2" y1="384.0" x2="28.2" y2="470.0" stroke="#e1e0d9" stroke-width="1.0"/>
<line x1="574.9" y1="66.0" x2="574.9" y2="356.0" stroke="#e1e0d9" stroke-width="1.0"/>
<line x1="574.9" y1="384.0" x2="574.9" y2="470.0" stroke="#e1e0d9" stroke-width="1.0"/>
<text x="584.0" y="490.0" font-size="11.0" fill="#898781" text-anchor="middle">2026-07</text>
<text x="14.0" y="58.0" font-size="11.0" fill="#52514e">BOLL(20,2)</text>
<text x="84.5" y="58.0" font-size="11.0" fill="#eda100">UP:199.9</text>
<text x="142.9" y="58.0" font-size="11.0" fill="#2a78d6">MID:147.7</text>
<text x="207.4" y="58.0" font-size="11.0" fill="#e87ba4">LOW:95.5</text>
<text x="265.8" y="58.0" font-size="11.0" fill="#4a3aa7">MA7:144.7</text>
<line x1="10.0" y1="356.0" x2="830.0" y2="356.0" stroke="#e1e0d9" stroke-width="1.0"/>
<text x="14.0" y="353.0" font-size="11.0" fill="#898781">0</text>
<line x1="10.0" y1="226.1" x2="830.0" y2="226.1" stroke="#e1e0d9" stroke-width="1.0"/>
<text x="14.0" y="223.1" font-size="11.0" fill="#898781">100</text>
<line x1="10.0" y1="96.2" x2="830.0" y2="96.2" stroke="#e1e0d9" stroke-width="1.0"/>
<text x="14.0" y="93.2" font-size="11.0" fill="#898781">200</text>
<polyline points="365.3,90.5 383.6,91.7 401.8,97.8 420.0,95.8 438.2,94.8 456.4,91.3 474.7,91.7 492.9,96.2 511.1,96.8 529.3,97.0 547.6,96.9 565.8,96.7 584.0,95.8 602.2,94.9 620.4,94.9 638.7,106.2 656.9,109.2 675.1,105.0 693.3,79.8 711.6,86.0 729.8,87.8 748.0,87.8 766.2,86.7 784.4,89.4 802.7,92.4 820.9,96.3" fill="none" stroke="#eda100" stroke-width="1.5" stroke-linejoin="round" stroke-linecap="round"/>
<polyline points="365.3,146.7 383.6,148.1 401.8,151.3 420.0,150.4 438.2,147.6 456.4,145.9 474.7,143.3 492.9,140.3 511.1,139.2 529.3,139.1 547.6,139.2 565.8,139.0 584.0,139.8 602.2,140.4 620.4,140.3 638.7,144.8 656.9,146.8 675.1,145.2 693.3,152.5 711.6,155.5 729.8,157.0 748.0,158.3 766.2,160.2 784.4,161.3 802.7,162.8 820.9,164.1" fill="none" stroke="#2a78d6" stroke-width="1.5" stroke-linejoin="round" stroke-linecap="round"/>
<polyline points="365.3,202.9 383.6,204.4 401.8,204.7 420.0,205.0 438.2,200.4 456.4,200.4 474.7,194.8 492.9,184.5 511.1,181.7 529.3,181.2 547.6,181.6 565.8,181.4 584.0,183.8 602.2,185.9 620.4,185.6 638.7,183.3 656.9,184.5 675.1,185.4 693.3,225.2 711.6,225.1 729.8,226.3 748.0,228.7 766.2,233.6 784.4,233.1 802.7,233.2 820.9,231.9" fill="none" stroke="#e87ba4" stroke-width="1.5" stroke-linejoin="round" stroke-linecap="round"/>
<polyline points="128.4,157.7 146.7,162.4 164.9,170.6 183.1,172.7 201.3,166.5 219.6,167.1 237.8,163.7 256.0,156.8 274.2,144.6 292.4,138.6 310.7,137.6 328.9,137.0 347.1,129.9 365.3,126.4 383.6,127.7 401.8,140.2 420.0,140.5 438.2,138.1 456.4,134.8 474.7,138.9 492.9,139.6 511.1,137.2 529.3,135.9 547.6,140.7 565.8,142.0 584.0,149.8 602.2,155.5 620.4,156.7 638.7,160.3 656.9,160.7 675.1,154.6 693.3,175.4 711.6,174.9 729.8,174.0 748.0,179.2 766.2,184.1 784.4,181.8 802.7,188.4 820.9,168.0" fill="none" stroke="#4a3aa7" stroke-width="1.5" stroke-linejoin="round" stroke-linecap="round"/>
<rect x="14.1" y="135.1" width="10.0" height="220.9" fill="none" stroke="#e34948" stroke-width="1.3"/>
<rect x="32.3" y="105.3" width="10.0" height="29.9" fill="none" stroke="#e34948" stroke-width="1.3"/>
<rect x="50.5" y="105.3" width="10.0" height="35.1" fill="#008300"/>
<rect x="68.8" y="140.3" width="10.0" height="45.5" fill="#008300"/>
<rect x="87.0" y="150.7" width="10.0" height="35.1" fill="none" stroke="#e34948" stroke-width="1.3"/>
<rect x="105.2" y="150.7" width="10.0" height="35.1" fill="#008300"/>
<rect x="123.4" y="185.8" width="10.0" height="15.6" fill="#008300"/>
<rect x="141.7" y="167.6" width="10.0" height="33.8" fill="none" stroke="#e34948" stroke-width="1.3"/>
<rect x="159.9" y="162.4" width="10.0" height="5.2" fill="none" stroke="#e34948" stroke-width="1.3"/>
<rect x="178.1" y="154.6" width="10.0" height="7.8" fill="none" stroke="#e34948" stroke-width="1.3"/>
<rect x="196.3" y="142.9" width="10.0" height="11.7" fill="none" stroke="#e34948" stroke-width="1.3"/>
<rect x="214.5" y="142.9" width="10.0" height="11.7" fill="#008300"/>
<rect x="232.8" y="154.6" width="10.0" height="7.8" fill="#008300"/>
<rect x="251.0" y="153.3" width="10.0" height="9.1" fill="none" stroke="#e34948" stroke-width="1.3"/>
<rect x="269.2" y="81.9" width="10.0" height="71.5" fill="none" stroke="#e34948" stroke-width="1.3"/>
<rect x="287.4" y="81.9" width="10.0" height="39.0" fill="#008300"/>
<rect x="305.7" y="120.9" width="10.0" height="26.0" fill="#008300"/>
<rect x="323.9" y="139.0" width="10.0" height="7.8" fill="none" stroke="#e34948" stroke-width="1.3"/>
<rect x="342.1" y="105.3" width="10.0" height="33.8" fill="none" stroke="#e34948" stroke-width="1.3"/>
<rect x="360.3" y="105.3" width="10.0" height="32.5" fill="#008300"/>
<rect x="378.5" y="137.7" width="10.0" height="24.7" fill="#008300"/>
<rect x="396.8" y="162.4" width="10.0" height="6.5" fill="#008300"/>
<rect x="415.0" y="123.4" width="10.0" height="45.5" fill="none" stroke="#e34948" stroke-width="1.3"/>
<rect x="433.2" y="123.4" width="10.0" height="6.5" fill="#008300"/>
<rect x="451.4" y="115.7" width="10.0" height="14.3" fill="none" stroke="#e34948" stroke-width="1.3"/>
<rect x="469.7" y="115.7" width="10.0" height="18.2" fill="#008300"/>
<rect x="487.9" y="133.8" width="10.0" height="9.1" fill="#008300"/>
<rect x="506.1" y="142.9" width="10.0" height="2.6" fill="#008300"/>
<rect x="524.3" y="145.5" width="10.0" height="14.3" fill="#008300"/>
<rect x="542.5" y="157.2" width="10.0" height="2.6" fill="none" stroke="#e34948" stroke-width="1.3"/>
<rect x="560.8" y="139.0" width="10.0" height="18.2" fill="none" stroke="#e34948" stroke-width="1.3"/>
<rect x="579.0" y="139.0" width="10.0" height="31.2" fill="#008300"/>
<rect x="597.2" y="170.2" width="10.0" height="3.9" fill="#008300"/>
<rect x="615.4" y="150.7" width="10.0" height="23.4" fill="none" stroke="#e34948" stroke-width="1.3"/>
<rect x="633.7" y="150.7" width="10.0" height="20.8" fill="#008300"/>
<rect x="651.9" y="162.4" width="10.0" height="9.1" fill="none" stroke="#e34948" stroke-width="1.3"/>
<rect x="670.1" y="114.4" width="10.0" height="48.1" fill="none" stroke="#e34948" stroke-width="1.3"/>
<rect x="688.3" y="114.4" width="10.0" height="170.2" fill="#008300"/>
<rect x="706.5" y="166.3" width="10.0" height="118.2" fill="none" stroke="#e34948" stroke-width="1.3"/>
<rect x="724.8" y="166.3" width="10.0" height="1.3" fill="#008300"/>
<rect x="743.0" y="167.6" width="10.0" height="19.5" fill="#008300"/>
<rect x="761.2" y="187.1" width="10.0" height="19.5" fill="#008300"/>
<rect x="779.4" y="145.5" width="10.0" height="61.1" fill="none" stroke="#e34948" stroke-width="1.3"/>
<rect x="797.7" y="145.5" width="10.0" height="15.6" fill="#008300"/>
<rect x="815.9" y="141.6" width="10.0" height="19.5" fill="none" stroke="#e34948" stroke-width="1.3"/>
<circle cx="274.2" cy="81.9" r="2" fill="#52514e"/>
<line x1="274.2" y1="81.9" x2="282.2" y2="81.9" stroke="#52514e" stroke-width="1.0"/>
<text x="285.2" y="85.9" font-size="11.0" fill="#52514e">211</text>
<circle cx="19.1" cy="356.0" r="2" fill="#52514e"/>
<line x1="19.1" y1="356.0" x2="27.1" y2="356.0" stroke="#52514e" stroke-width="1.0"/>
<text x="30.1" y="350.0" font-size="11.0" fill="#52514e">0</text>
<text x="14.0" y="376.0" font-size="11.0" fill="#52514e">VOL 46 forks</text>
<text x="96.6" y="376.0" font-size="11.0" fill="#eda100">MA5:19.8</text>
<text x="155.0" y="376.0" font-size="11.0" fill="#2a78d6">MA10:17.2</text>
<text x="14.0" y="395.0" font-size="10" fill="#898781">46</text>
<rect x="14.1" y="436.1" width="10.0" height="33.9" fill="none" stroke="#e34948" stroke-width="1.1"/>
<rect x="32.3" y="429.0" width="10.0" height="41.0" fill="none" stroke="#e34948" stroke-width="1.1"/>
<rect x="50.5" y="413.0" width="10.0" height="57.0" fill="#008300"/>
<rect x="68.8" y="418.3" width="10.0" height="51.7" fill="#008300"/>
<rect x="87.0" y="437.9" width="10.0" height="32.1" fill="none" stroke="#e34948" stroke-width="1.1"/>
<rect x="105.2" y="434.3" width="10.0" height="35.7" fill="#008300"/>
<rect x="123.4" y="446.8" width="10.0" height="23.2" fill="#008300"/>
<rect x="141.7" y="445.0" width="10.0" height="25.0" fill="none" stroke="#e34948" stroke-width="1.1"/>
<rect x="159.9" y="446.8" width="10.0" height="23.2" fill="none" stroke="#e34948" stroke-width="1.1"/>
<rect x="178.1" y="436.1" width="10.0" height="33.9" fill="none" stroke="#e34948" stroke-width="1.1"/>
<rect x="196.3" y="409.4" width="10.0" height="60.6" fill="none" stroke="#e34948" stroke-width="1.1"/>
<rect x="214.5" y="436.1" width="10.0" height="33.9" fill="#008300"/>
<rect x="232.8" y="445.0" width="10.0" height="25.0" fill="#008300"/>
<rect x="251.0" y="436.1" width="10.0" height="33.9" fill="none" stroke="#e34948" stroke-width="1.1"/>
<rect x="269.2" y="427.2" width="10.0" height="42.8" fill="none" stroke="#e34948" stroke-width="1.1"/>
<rect x="287.4" y="429.0" width="10.0" height="41.0" fill="#008300"/>
<rect x="305.7" y="434.3" width="10.0" height="35.7" fill="#008300"/>
<rect x="323.9" y="423.7" width="10.0" height="46.3" fill="none" stroke="#e34948" stroke-width="1.1"/>
<rect x="342.1" y="432.6" width="10.0" height="37.4" fill="none" stroke="#e34948" stroke-width="1.1"/>
<rect x="360.3" y="443.3" width="10.0" height="26.7" fill="#008300"/>
<rect x="378.5" y="434.3" width="10.0" height="35.7" fill="#008300"/>
<rect x="396.8" y="423.7" width="10.0" height="46.3" fill="#008300"/>
<rect x="415.0" y="427.2" width="10.0" height="42.8" fill="none" stroke="#e34948" stroke-width="1.1"/>
<rect x="433.2" y="430.8" width="10.0" height="39.2" fill="#008300"/>
<rect x="451.4" y="427.2" width="10.0" height="42.8" fill="none" stroke="#e34948" stroke-width="1.1"/>
<rect x="469.7" y="430.8" width="10.0" height="39.2" fill="#008300"/>
<rect x="487.9" y="429.0" width="10.0" height="41.0" fill="#008300"/>
<rect x="506.1" y="443.3" width="10.0" height="26.7" fill="#008300"/>
<rect x="524.3" y="437.9" width="10.0" height="32.1" fill="#008300"/>
<rect x="542.5" y="432.6" width="10.0" height="37.4" fill="none" stroke="#e34948" stroke-width="1.1"/>
<rect x="560.8" y="446.8" width="10.0" height="23.2" fill="none" stroke="#e34948" stroke-width="1.1"/>
<rect x="579.0" y="445.0" width="10.0" height="25.0" fill="#008300"/>
<rect x="597.2" y="436.1" width="10.0" height="33.9" fill="#008300"/>
<rect x="615.4" y="423.7" width="10.0" height="46.3" fill="none" stroke="#e34948" stroke-width="1.1"/>
<rect x="633.7" y="443.3" width="10.0" height="26.7" fill="#008300"/>
<rect x="651.9" y="448.6" width="10.0" height="21.4" fill="none" stroke="#e34948" stroke-width="1.1"/>
<rect x="670.1" y="427.2" width="10.0" height="42.8" fill="none" stroke="#e34948" stroke-width="1.1"/>
<rect x="688.3" y="455.7" width="10.0" height="14.3" fill="#008300"/>
<rect x="706.5" y="439.7" width="10.0" height="30.3" fill="none" stroke="#e34948" stroke-width="1.1"/>
<rect x="724.8" y="448.6" width="10.0" height="21.4" fill="#008300"/>
<rect x="743.0" y="437.9" width="10.0" height="32.1" fill="#008300"/>
<rect x="761.2" y="452.2" width="10.0" height="17.8" fill="#008300"/>
<rect x="779.4" y="454.0" width="10.0" height="16.0" fill="none" stroke="#e34948" stroke-width="1.1"/>
<rect x="797.7" y="441.5" width="10.0" height="28.5" fill="#008300"/>
<rect x="815.9" y="388.0" width="10.0" height="82.0" fill="none" stroke="#e34948" stroke-width="1.1"/>
<polyline points="183.1,434.3 201.3,431.7 219.6,432.4 237.8,435.6 256.0,437.4 274.2,436.3 292.4,435.8 310.7,434.5 328.9,432.4 347.1,431.0 365.3,431.7 383.6,434.2 401.8,432.9 420.0,431.1 438.2,430.6 456.4,430.6 474.7,430.8 492.9,430.2 511.1,432.2 529.3,432.7 547.6,431.7 565.8,432.9 584.0,435.1 602.2,436.0 620.4,435.2 638.7,436.8 656.9,438.6 675.1,438.4 693.3,439.7 711.6,439.9 729.8,441.5 748.0,440.6 766.2,441.3 784.4,443.1 802.7,444.9 820.9,439.3" fill="none" stroke="#2a78d6" stroke-width="1.5" stroke-linejoin="round" stroke-linecap="round"/>
<polyline points="92.0,426.9 110.2,426.5 128.4,430.1 146.7,436.5 164.9,442.2 183.1,441.8 201.3,436.8 219.6,434.7 237.8,434.7 256.0,432.6 274.2,430.8 292.4,434.7 310.7,434.3 328.9,430.1 347.1,429.4 365.3,432.6 383.6,433.6 401.8,431.5 420.0,432.2 438.2,431.9 456.4,428.6 474.7,427.9 492.9,429.0 511.1,432.2 529.3,433.6 547.6,434.7 565.8,437.9 584.0,441.1 602.2,439.7 620.4,436.8 638.7,439.0 656.9,439.3 675.1,435.8 693.3,439.7 711.6,442.9 729.8,444.0 748.0,441.8 766.2,446.8 784.4,446.5 802.7,446.8 820.9,434.7" fill="none" stroke="#eda100" stroke-width="1.5" stroke-linejoin="round" stroke-linecap="round"/>
</svg>