<svg xmlns="http://www.w3.org/2000/svg" viewBox="0 0 840 496" width="840" height="496" font-family="-apple-system,&#39;Segoe UI&#39;,system-ui,sans-serif" role="img" aria-label="donnemartin/system-design-primer candlestick chart">
<text x="14.0" y="20.0" font-size="15" fill="#0b0b0b" font-weight="650">donnemartin/system-design-primer</text>
<text x="282.0" y="20.0" font-size="11.5" fill="#52514e">daily · new stars, volume = new forks</text>
<text x="805.8" y="20.0" font-size="11.0" fill="#52514e">fall</text>
<rect x="791" y="10" width="9" height="12" fill="#008300"/>
<text x="750.6" y="20.0" font-size="11.0" fill="#52514e">rise</text>
<rect x="736" y="10" width="9" height="12" fill="none" stroke="#e34948" stroke-width="1.5"/>
<text x="14.0" y="38.0" font-size="11.0" fill="#898781">last 40 days · +6,285 stars · +790 forks · updated 2026-07-09</text>
<rect x="10" y="66" width="820" height="290" fill="none" stroke="#e1e0d9"/>
<rect x="10" y="384" width="820" height="86" fill="none" stroke="#e1e0d9"/>
<text x="38.0" y="490.0" font-size="11.0" fill="#898781" text-anchor="middle">2026-05</text>
<line x1="30.5" y1="66.0" x2="30.5" y2="356.0" stroke="#e1e0d9" stroke-width="1.0"/>
<line x1="30.5" y1="384.0" x2="30.5" y2="470.0" stroke="#e1e0d9" stroke-width="1.0"/>
<line x1="645.5" y1="66.0" x2="645.5" y2="356.0" stroke="#e1e0d9" stroke-width="1.0"/>
<line x1="645.5" y1="384.0" x2="645.5" y2="470.0" stroke="#e1e0d9" stroke-width="1.0"/>
<text x="655.8" y="490.0" font-size="11.0" fill="#898781" text-anchor="middle">2026-07</text>
<text x="14.0" y="58.0" font-size="11.0" fill="#52514e">BOLL(20,2)</text>
<text x="84.5" y="58.0" font-size="11.0" fill="#eda100">UP:206.4</text>
<text x="142.9" y="58.0" font-size="11.0" fill="#2a78d6">MID:153.2</text>
<text x="207.4" y="58.0" font-size="11.0" fill="#e87ba4">LOW:99.9</text>
<text x="265.8" y="58.0" font-size="11.0" fill="#4a3aa7">MA7:140.1</text>
<line x1="10.0" y1="356.0" x2="830.0" y2="356.0" stroke="#e1e0d9" stroke-width="1.0"/>
<text x="14.0" y="353.0" font-size="11.0" fill="#898781">0</text>
<line x1="10.0" y1="226.1" x2="830.0" y2="226.1" stroke="#e1e0d9" stroke-width="1.0"/>
<text x="14.0" y="223.1" font-size="11.0" fill="#898781">100</text>
<line x1="10.0" y1="96.2" x2="830.0" y2="96.2" stroke="#e1e0d9" stroke-width="1.0"/>
<text x="14.0" y="93.2" font-size="11.0" fill="#898781">200</text>
<polyline points="409.8,90.5 430.2,91.7 450.8,97.8 471.2,95.8 491.8,94.8 512.2,91.3 532.8,91.7 553.2,96.2 573.8,96.8 594.2,97.0 614.8,96.9 635.2,96.7 655.8,95.8 676.2,94.9 696.8,94.9 717.2,106.2 737.8,109.2 758.2,105.0 778.8,79.8 799.2,86.0 819.8,87.8" fill="none" stroke="#eda100" stroke-width="1.5" stroke-linejoin="round" stroke-linecap="round"/>
<polyline points="409.8,146.7 430.2,148.1 450.8,151.3 471.2,150.4 491.8,147.6 512.2,145.9 532.8,143.3 553.2,140.3 573.8,139.2 594.2,139.1 614.8,139.2 635.2,139.0 655.8,139.8 676.2,140.4 696.8,140.3 717.2,144.8 737.8,146.8 758.2,145.2 778.8,152.5 799.2,155.5 819.8,157.0" fill="none" stroke="#2a78d6" stroke-width="1.5" stroke-linejoin="round" stroke-linecap="round"/>
<polyline points="409.8,202.9 430.2,204.4 450.8,204.7 471.2,205.0 491.8,200.4 512.2,200.4 532.8,194.8 553.2,184.5 573.8,181.7 594.2,181.2 614.8,181.6 635.2,181.4 655.8,183.8 676.2,185.9 696.8,185.6 717.2,183.3 737.8,184.5 758.2,185.4 778.8,225.2 799.2,225.1 819.8,226.3" fill="none" stroke="#e87ba4" stroke-width="1.5" stroke-linejoin="round" stroke-linecap="round"/>
<polyline points="143.2,157.7 163.8,162.4 184.2,170.6 204.8,172.7 225.2,166.5 245.8,167.1 266.2,163.7 286.8,156.8 307.2,144.6 327.8,138.6 348.2,137.6 368.8,137.0 389.2,129.9 409.8,126.4 430.2,127.7 450.8,140.2 471.2,140.5 491.8,138.1 512.2,134.8 532.8,138.9 553.2,139.6 573.8,137.2 594.2,135.9 614.8,140.7 635.2,142.0 655.8,149.8 676.2,155.5 696.8,156.7 717.2,160.3 737.8,160.7 758.2,154.6 778.8,175.4 799.2,174.9 819.8,174.0" fill="none" stroke="#4a3aa7" stroke-width="1.5" stroke-linejoin="round" stroke-linecap="round"/>
<rect x="14.6" y="135.1" width="11.3" height="220.9" fill="none" stroke="#e34948" stroke-width="1.3"/>
<rect x="35.1" y="105.3" width="11.3" height="29.9" fill="none" stroke="#e34948" stroke-width="1.3"/>
<rect x="55.6" y="105.3" width="11.3" height="35.1" fill="#008300"/>
<rect x="76.1" y="140.3" width="11.3" height="45.5" fill="#008300"/>
<rect x="96.6" y="150.7" width="11.3" height="35.1" fill="none" stroke="#e34948" stroke-width="1.3"/>
<rect x="117.1" y="150.7" width="11.3" height="35.1" fill="#008300"/>
<rect x="137.6" y="185.8" width="11.3" height="15.6" fill="#008300"/>
<rect x="158.1" y="167.6" width="11.3" height="33.8" fill="none" stroke="#e34948" stroke-width="1.3"/>
<rect x="178.6" y="162.4" width="11.3" height="5.2" fill="none" stroke="#e34948" stroke-width="1.3"/>
<rect x="199.1" y="154.6" width="11.3" height="7.8" fill="none" stroke="#e34948" stroke-width="1.3"/>
<rect x="219.6" y="142.9" width="11.3" height="11.7" fill="none" stroke="#e34948" stroke-width="1.3"/>
<rect x="240.1" y="142.9" width="11.3" height="11.7" fill="#008300"/>
<rect x="260.6" y="154.6" width="11.3" height="7.8" fill="#008300"/>
<rect x="281.1" y="153.3" width="11.3" height="9.1" fill="none" stroke="#e34948" stroke-width="1.3"/>
<rect x="301.6" y="81.9" width="11.3" height="71.5" fill="none" stroke="#e34948" stroke-width="1.3"/>
<rect x="322.1" y="81.9" width="11.3" height="39.0" fill="#008300"/>
<rect x="342.6" y="120.9" width="11.3" height="26.0" fill="#008300"/>
<rect x="363.1" y="139.0" width="11.3" height="7.8" fill="none" stroke="#e34948" stroke-width="1.3"/>
<rect x="383.6" y="105.3" width="11.3" height="33.8" fill="none" stroke="#e34948" stroke-width="1.3"/>
<rect x="404.1" y="105.3" width="11.3" height="32.5" fill="#008300"/>
<rect x="424.6" y="137.7" width="11.3" height="24.7" fill="#008300"/>
<rect x="445.1" y="162.4" width="11.3" height="6.5" fill="#008300"/>
<rect x="465.6" y="123.4" width="11.3" height="45.5" fill="none" stroke="#e34948" stroke-width="1.3"/>
<rect x="486.1" y="123.4" width="11.3" height="6.5" fill="#008300"/>
<rect x="506.6" y="115.7" width="11.3" height="14.3" fill="none" stroke="#e34948" stroke-width="1.3"/>
<rect x="527.1" y="115.7" width="11.3" height="18.2" fill="#008300"/>
<rect x="547.6" y="133.8" width="11.3" height="9.1" fill="#008300"/>
<rect x="568.1" y="142.9" width="11.3" height="2.6" fill="#008300"/>
<rect x="588.6" y="145.5" width="11.3" height="14.3" fill="#008300"/>
<rect x="609.1" y="157.2" width="11.3" height="2.6" fill="none" stroke="#e34948" stroke-width="1.3"/>
<rect x="629.6" y="139.0" width="11.3" height="18.2" fill="none" stroke="#e34948" stroke-width="1.3"/>
<rect x="650.1" y="139.0" width="11.3" height="31.2" fill="#008300"/>
<rect x="670.6" y="170.2" width="11.3" height="3.9" fill="#008300"/>
<rect x="691.1" y="150.7" width="11.3" height="23.4" fill="none" stroke="#e34948" stroke-width="1.3"/>
<rect x="711.6" y="150.7" width="11.3" height="20.8" fill="#008300"/>
<rect x="732.1" y="162.4" width="11.3" height="9.1" fill="none" stroke="#e34948" stroke-width="1.3"/>
<rect x="752.6" y="114.4" width="11.3" height="48.1" fill="none" stroke="#e34948" stroke-width="1.3"/>
<rect x="773.1" y="114.4" width="11.3" height="170.2" fill="#008300"/>
<rect x="793.6" y="166.3" width="11.3" height="118.2" fill="none" stroke="#e34948" stroke-width="1.3"/>
<rect x="814.1" y="166.3" width="11.3" height="1.3" fill="#008300"/>
<circle cx="307.2" cy="81.9" r="2" fill="#52514e"/>
<line x1="307.2" y1="81.9" x2="315.2" y2="81.9" stroke="#52514e" stroke-width="1.0"/>
<text x="318.2" y="85.9" font-size="11.0" fill="#52514e">211</text>
<circle cx="20.2" cy="356.0" r="2" fill="#52514e"/>
<line x1="20.2" y1="356.0" x2="28.2" y2="356.0" stroke="#52514e" stroke-width="1.0"/>
<text x="31.2" y="350.0" font-size="11.0" fill="#52514e">0</text>
<text x="14.0" y="376.0" font-size="11.0" fill="#52514e">VOL 12 forks</text>
<text x="96.6" y="376.0" font-size="11.0" fill="#eda100">MA5:14.6</text>
<text x="155.0" y="376.0" font-size="11.0" fill="#2a78d6">MA10:16</text>
<text x="14.0" y="395.0" font-size="10" fill="#898781">34</text>
<rect x="14.6" y="424.2" width="11.3" height="45.8" fill="none" stroke="#e34948" stroke-width="1.1"/>
<rect x="35.1" y="414.5" width="11.3" height="55.5" fill="none" stroke="#e34948" stroke-width="1.1"/>
<rect x="55.6" y="392.8" width="11.3" height="77.2" fill="#008300"/>
<rect x="76.1" y="400.1" width="11.3" height="69.9" fill="#008300"/>
<rect x="96.6" y="426.6" width="11.3" height="43.4" fill="none" stroke="#e34948" stroke-width="1.1"/>
<rect x="117.1" y="421.8" width="11.3" height="48.2" fill="#008300"/>
<rect x="137.6" y="438.6" width="11.3" height="31.4" fill="#008300"/>
<rect x="158.1" y="436.2" width="11.3" height="33.8" fill="none" stroke="#e34948" stroke-width="1.1"/>
<rect x="178.6" y="438.6" width="11.3" height="31.4" fill="none" stroke="#e34948" stroke-width="1.1"/>
<rect x="199.1" y="424.2" width="11.3" height="45.8" fill="none" stroke="#e34948" stroke-width="1.1"/>
<rect x="219.6" y="388.0" width="11.3" height="82.0" fill="none" stroke="#e34948" stroke-width="1.1"/>
<rect x="240.1" y="424.2" width="11.3" height="45.8" fill="#008300"/>
<rect x="260.6" y="436.2" width="11.3" height="33.8" fill="#008300"/>
<rect x="281.1" y="424.2" width="11.3" height="45.8" fill="none" stroke="#e34948" stroke-width="1.1"/>
<rect x="301.6" y="412.1" width="11.3" height="57.9" fill="none" stroke="#e34948" stroke-width="1.1"/>
<rect x="322.1" y="414.5" width="11.3" height="55.5" fill="#008300"/>
<rect x="342.6" y="421.8" width="11.3" height="48.2" fill="#008300"/>
<rect x="363.1" y="407.3" width="11.3" height="62.7" fill="none" stroke="#e34948" stroke-width="1.1"/>
<rect x="383.6" y="419.4" width="11.3" height="50.6" fill="none" stroke="#e34948" stroke-width="1.1"/>
<rect x="404.1" y="433.8" width="11.3" height="36.2" fill="#008300"/>
<rect x="424.6" y="421.8" width="11.3" height="48.2" fill="#008300"/>
<rect x="445.1" y="407.3" width="11.3" height="62.7" fill="#008300"/>
<rect x="465.6" y="412.1" width="11.3" height="57.9" fill="none" stroke="#e34948" stroke-width="1.1"/>
<rect x="486.1" y="416.9" width="11.3" height="53.1" fill="#008300"/>
<rect x="506.6" y="412.1" width="11.3" height="57.9" fill="none" stroke="#e34948" stroke-width="1.1"/>
<rect x="527.1" y="416.9" width="11.3" height="53.1" fill="#008300"/>
<rect x="547.6" y="414.5" width="11.3" height="55.5" fill="#008300"/>
<rect x="568.1" y="433.8" width="11.3" height="36.2" fill="#008300"/>
<rect x="588.6" y="426.6" width="11.3" height="43.4" fill="#008300"/>
<rect x="609.1" y="419.4" width="11.3" height="50.6" fill="none" stroke="#e34948" stroke-width="1.1"/>
<rect x="629.6" y="438.6" width="11.3" height="31.4" fill="none" stroke="#e34948" stroke-width="1.1"/>
<rect x="650.1" y="436.2" width="11.3" height="33.8" fill="#008300"/>
<rect x="670.6" y="424.2" width="11.3" height="45.8" fill="#008300"/>
<rect x="691.1" y="407.3" width="11.3" height="62.7" fill="none" stroke="#e34948" stroke-width="1.1"/>
<rect x="711.6" y="433.8" width="11.3" height="36.2" fill="#008300"/>
<rect x="732.1" y="441.1" width="11.3" height="28.9" fill="none" stroke="#e34948" stroke-width="1.1"/>
<rect x="752.6" y="412.1" width="11.3" height="57.9" fill="none" stroke="#e34948" stroke-width="1.1"/>
<rect x="773.1" y="450.7" width="11.3" height="19.3" fill="#008300"/>
<rect x="793.6" y="429.0" width="11.3" height="41.0" fill="none" stroke="#e34948" stroke-width="1.1"/>
<rect x="814.1" y="441.1" width="11.3" height="28.9" fill="#008300"/>
<polyline points="204.8,421.8 225.2,418.1 245.8,419.1 266.2,423.5 286.8,425.9 307.2,424.4 327.8,423.7 348.2,422.0 368.8,419.1 389.2,417.2 409.8,418.1 430.2,421.5 450.8,419.8 471.2,417.4 491.8,416.7 512.2,416.7 532.8,416.9 553.2,416.2 573.8,418.9 594.2,419.6 614.8,418.1 635.2,419.8 655.8,422.7 676.2,423.9 696.8,423.0 717.2,425.1 737.8,427.6 758.2,427.3 778.8,429.0 799.2,429.2 819.8,431.4" fill="none" stroke="#2a78d6" stroke-width="1.5" stroke-linejoin="round" stroke-linecap="round"/>
<polyline points="102.2,411.6 122.8,411.2 143.2,416.0 163.8,424.7 184.2,432.4 204.8,431.9 225.2,425.1 245.8,422.2 266.2,422.2 286.8,419.4 307.2,416.9 327.8,422.2 348.2,421.8 368.8,416.0 389.2,415.0 409.8,419.4 430.2,420.8 450.8,417.9 471.2,418.9 491.8,418.4 512.2,414.0 532.8,413.1 553.2,414.5 573.8,418.9 594.2,420.8 614.8,422.2 635.2,426.6 655.8,430.9 676.2,429.0 696.8,425.1 717.2,428.0 737.8,428.5 758.2,423.7 778.8,429.0 799.2,433.3 819.8,434.8" fill="none" stroke="#eda100" stroke-width="1.5" stroke-linejoin="round" stroke-linecap="round"/>
</svg>