<svg xmlns="http://www.w3.org/2000/svg" viewBox="0 0 840 496" width="840" height="496" font-family="-apple-system,&#39;Segoe UI&#39;,system-ui,sans-serif" role="img" aria-label="donnemartin/system-design-primer candlestick chart">
<text x="14.0" y="20.0" font-size="15" fill="#ffffff" font-weight="650">donnemartin/system-design-primer</text>
<text x="282.0" y="20.0" font-size="11.5" fill="#c3c2b7">daily · new stars, volume = new forks</text>
<text x="805.8" y="20.0" font-size="11.0" fill="#c3c2b7">fall</text>
<rect x="791" y="10" width="9" height="12" fill="#008300"/>
<text x="750.6" y="20.0" font-size="11.0" fill="#c3c2b7">rise</text>
<rect x="736" y="10" width="9" height="12" fill="none" stroke="#e66767" stroke-width="1.5"/>
<text x="14.0" y="38.0" font-size="11.0" fill="#898781">last 44 days · +6,842 stars · +843 forks · updated 2026-07-13</text>
<rect x="10" y="66" width="820" height="290" fill="none" stroke="#2c2c2a"/>
<rect x="10" y="384" width="820" height="86" fill="none" stroke="#2c2c2a"/>
<text x="38.0" y="490.0" font-size="11.0" fill="#898781" text-anchor="middle">2026-05</text>
<line x1="28.6" y1="66.0" x2="28.6" y2="356.0" stroke="#2c2c2a" stroke-width="1.0"/>
<line x1="28.6" y1="384.0" x2="28.6" y2="470.0" stroke="#2c2c2a" stroke-width="1.0"/>
<line x1="587.7" y1="66.0" x2="587.7" y2="356.0" stroke="#2c2c2a" stroke-width="1.0"/>
<line x1="587.7" y1="384.0" x2="587.7" y2="470.0" stroke="#2c2c2a" stroke-width="1.0"/>
<text x="597.0" y="490.0" font-size="11.0" fill="#898781" text-anchor="middle">2026-07</text>
<text x="14.0" y="58.0" font-size="11.0" fill="#c3c2b7">BOLL(20,2)</text>
<text x="84.5" y="58.0" font-size="11.0" fill="#c98500">UP:202.9</text>
<text x="142.9" y="58.0" font-size="11.0" fill="#3987e5">MID:148.7</text>
<text x="207.4" y="58.0" font-size="11.0" fill="#d55181">LOW:94.5</text>
<text x="265.8" y="58.0" font-size="11.0" fill="#9085e9">MA7:129</text>
<line x1="10.0" y1="356.0" x2="830.0" y2="356.0" stroke="#2c2c2a" stroke-width="1.0"/>
<text x="14.0" y="353.0" font-size="11.0" fill="#898781">0</text>
<line x1="10.0" y1="226.1" x2="830.0" y2="226.1" stroke="#2c2c2a" stroke-width="1.0"/>
<text x="14.0" y="223.1" font-size="11.0" fill="#898781">100</text>
<line x1="10.0" y1="96.2" x2="830.0" y2="96.2" stroke="#2c2c2a" stroke-width="1.0"/>
<text x="14.0" y="93.2" font-size="11.0" fill="#898781">200</text>
<polyline points="373.4,90.5 392.0,91.7 410.7,97.8 429.3,95.8 448.0,94.8 466.6,91.3 485.2,91.7 503.9,96.2 522.5,96.8 541.1,97.0 559.8,96.9 578.4,96.7 597.0,95.8 615.7,94.9 634.3,94.9 653.0,106.2 671.6,109.2 690.2,105.0 708.9,79.8 727.5,86.0 746.1,87.8 764.8,87.8 783.4,86.7 802.0,89.4 820.7,92.4" fill="none" stroke="#c98500" stroke-width="1.5" stroke-linejoin="round" stroke-linecap="round"/>
<polyline points="373.4,146.7 392.0,148.1 410.7,151.3 429.3,150.4 448.0,147.6 466.6,145.9 485.2,143.3 503.9,140.3 522.5,139.2 541.1,139.1 559.8,139.2 578.4,139.0 597.0,139.8 615.7,140.4 634.3,140.3 653.0,144.8 671.6,146.8 690.2,145.2 708.9,152.5 727.5,155.5 746.1,157.0 764.8,158.3 783.4,160.2 802.0,161.3 820.7,162.8" fill="none" stroke="#3987e5" stroke-width="1.5" stroke-linejoin="round" stroke-linecap="round"/>
<polyline points="373.4,202.9 392.0,204.4 410.7,204.7 429.3,205.0 448.0,200.4 466.6,200.4 485.2,194.8 503.9,184.5 522.5,181.7 541.1,181.2 559.8,181.6 578.4,181.4 597.0,183.8 615.7,185.9 634.3,185.6 653.0,183.3 671.6,184.5 690.2,185.4 708.9,225.2 727.5,225.1 746.1,226.3 764.8,228.7 783.4,233.6 802.0,233.1 820.7,233.2" fill="none" stroke="#d55181" stroke-width="1.5" stroke-linejoin="round" stroke-linecap="round"/>
<polyline points="131.1,157.7 149.8,162.4 168.4,170.6 187.0,172.7 205.7,166.5 224.3,167.1 243.0,163.7 261.6,156.8 280.2,144.6 298.9,138.6 317.5,137.6 336.1,137.0 354.8,129.9 373.4,126.4 392.0,127.7 410.7,140.2 429.3,140.5 448.0,138.1 466.6,134.8 485.2,138.9 503.9,139.6 522.5,137.2 541.1,135.9 559.8,140.7 578.4,142.0 597.0,149.8 615.7,155.5 634.3,156.7 653.0,160.3 671.6,160.7 690.2,154.6 708.9,175.4 727.5,174.9 746.1,174.0 764.8,179.2 783.4,184.1 802.0,181.8 820.7,188.4" fill="none" stroke="#9085e9" stroke-width="1.5" stroke-linejoin="round" stroke-linecap="round"/>
<rect x="14.2" y="135.1" width="10.3" height="220.9" fill="none" stroke="#e66767" stroke-width="1.3"/>
<rect x="32.8" y="105.3" width="10.3" height="29.9" fill="none" stroke="#e66767" stroke-width="1.3"/>
<rect x="51.5" y="105.3" width="10.3" height="35.1" fill="#008300"/>
<rect x="70.1" y="140.3" width="10.3" height="45.5" fill="#008300"/>
<rect x="88.7" y="150.7" width="10.3" height="35.1" fill="none" stroke="#e66767" stroke-width="1.3"/>
<rect x="107.4" y="150.7" width="10.3" height="35.1" fill="#008300"/>
<rect x="126.0" y="185.8" width="10.3" height="15.6" fill="#008300"/>
<rect x="144.6" y="167.6" width="10.3" height="33.8" fill="none" stroke="#e66767" stroke-width="1.3"/>
<rect x="163.3" y="162.4" width="10.3" height="5.2" fill="none" stroke="#e66767" stroke-width="1.3"/>
<rect x="181.9" y="154.6" width="10.3" height="7.8" fill="none" stroke="#e66767" stroke-width="1.3"/>
<rect x="200.6" y="142.9" width="10.3" height="11.7" fill="none" stroke="#e66767" stroke-width="1.3"/>
<rect x="219.2" y="142.9" width="10.3" height="11.7" fill="#008300"/>
<rect x="237.8" y="154.6" width="10.3" height="7.8" fill="#008300"/>
<rect x="256.5" y="153.3" width="10.3" height="9.1" fill="none" stroke="#e66767" stroke-width="1.3"/>
<rect x="275.1" y="81.9" width="10.3" height="71.5" fill="none" stroke="#e66767" stroke-width="1.3"/>
<rect x="293.7" y="81.9" width="10.3" height="39.0" fill="#008300"/>
<rect x="312.4" y="120.9" width="10.3" height="26.0" fill="#008300"/>
<rect x="331.0" y="139.0" width="10.3" height="7.8" fill="none" stroke="#e66767" stroke-width="1.3"/>
<rect x="349.6" y="105.3" width="10.3" height="33.8" fill="none" stroke="#e66767" stroke-width="1.3"/>
<rect x="368.3" y="105.3" width="10.3" height="32.5" fill="#008300"/>
<rect x="386.9" y="137.7" width="10.3" height="24.7" fill="#008300"/>
<rect x="405.6" y="162.4" width="10.3" height="6.5" fill="#008300"/>
<rect x="424.2" y="123.4" width="10.3" height="45.5" fill="none" stroke="#e66767" stroke-width="1.3"/>
<rect x="442.8" y="123.4" width="10.3" height="6.5" fill="#008300"/>
<rect x="461.5" y="115.7" width="10.3" height="14.3" fill="none" stroke="#e66767" stroke-width="1.3"/>
<rect x="480.1" y="115.7" width="10.3" height="18.2" fill="#008300"/>
<rect x="498.7" y="133.8" width="10.3" height="9.1" fill="#008300"/>
<rect x="517.4" y="142.9" width="10.3" height="2.6" fill="#008300"/>
<rect x="536.0" y="145.5" width="10.3" height="14.3" fill="#008300"/>
<rect x="554.6" y="157.2" width="10.3" height="2.6" fill="none" stroke="#e66767" stroke-width="1.3"/>
<rect x="573.3" y="139.0" width="10.3" height="18.2" fill="none" stroke="#e66767" stroke-width="1.3"/>
<rect x="591.9" y="139.0" width="10.3" height="31.2" fill="#008300"/>
<rect x="610.6" y="170.2" width="10.3" height="3.9" fill="#008300"/>
<rect x="629.2" y="150.7" width="10.3" height="23.4" fill="none" stroke="#e66767" stroke-width="1.3"/>
<rect x="647.8" y="150.7" width="10.3" height="20.8" fill="#008300"/>
<rect x="666.5" y="162.4" width="10.3" height="9.1" fill="none" stroke="#e66767" stroke-width="1.3"/>
<rect x="685.1" y="114.4" width="10.3" height="48.1" fill="none" stroke="#e66767" stroke-width="1.3"/>
<rect x="703.7" y="114.4" width="10.3" height="170.2" fill="#008300"/>
<rect x="722.4" y="166.3" width="10.3" height="118.2" fill="none" stroke="#e66767" stroke-width="1.3"/>
<rect x="741.0" y="166.3" width="10.3" height="1.3" fill="#008300"/>
<rect x="759.6" y="167.6" width="10.3" height="19.5" fill="#008300"/>
<rect x="778.3" y="187.1" width="10.3" height="19.5" fill="#008300"/>
<rect x="796.9" y="145.5" width="10.3" height="61.1" fill="none" stroke="#e66767" stroke-width="1.3"/>
<rect x="815.6" y="145.5" width="10.3" height="15.6" fill="#008300"/>
<circle cx="280.2" cy="81.9" r="2" fill="#c3c2b7"/>
<line x1="280.2" y1="81.9" x2="288.2" y2="81.9" stroke="#c3c2b7" stroke-width="1.0"/>
<text x="291.2" y="85.9" font-size="11.0" fill="#c3c2b7">211</text>
<circle cx="19.3" cy="356.0" r="2" fill="#c3c2b7"/>
<line x1="19.3" y1="356.0" x2="27.3" y2="356.0" stroke="#c3c2b7" stroke-width="1.0"/>
<text x="30.3" y="350.0" font-size="11.0" fill="#c3c2b7">0</text>
<text x="14.0" y="376.0" font-size="11.0" fill="#c3c2b7">VOL 16 forks</text>
<text x="96.6" y="376.0" font-size="11.0" fill="#c98500">MA5:13</text>
<text x="142.9" y="376.0" font-size="11.0" fill="#3987e5">MA10:14.1</text>
<text x="14.0" y="395.0" font-size="10" fill="#898781">34</text>
<rect x="14.2" y="424.2" width="10.3" height="45.8" fill="none" stroke="#e66767" stroke-width="1.1"/>
<rect x="32.8" y="414.5" width="10.3" height="55.5" fill="none" stroke="#e66767" stroke-width="1.1"/>
<rect x="51.5" y="392.8" width="10.3" height="77.2" fill="#008300"/>
<rect x="70.1" y="400.1" width="10.3" height="69.9" fill="#008300"/>
<rect x="88.7" y="426.6" width="10.3" height="43.4" fill="none" stroke="#e66767" stroke-width="1.1"/>
<rect x="107.4" y="421.8" width="10.3" height="48.2" fill="#008300"/>
<rect x="126.0" y="438.6" width="10.3" height="31.4" fill="#008300"/>
<rect x="144.6" y="436.2" width="10.3" height="33.8" fill="none" stroke="#e66767" stroke-width="1.1"/>
<rect x="163.3" y="438.6" width="10.3" height="31.4" fill="none" stroke="#e66767" stroke-width="1.1"/>
<rect x="181.9" y="424.2" width="10.3" height="45.8" fill="none" stroke="#e66767" stroke-width="1.1"/>
<rect x="200.6" y="388.0" width="10.3" height="82.0" fill="none" stroke="#e66767" stroke-width="1.1"/>
<rect x="219.2" y="424.2" width="10.3" height="45.8" fill="#008300"/>
<rect x="237.8" y="436.2" width="10.3" height="33.8" fill="#008300"/>
<rect x="256.5" y="424.2" width="10.3" height="45.8" fill="none" stroke="#e66767" stroke-width="1.1"/>
<rect x="275.1" y="412.1" width="10.3" height="57.9" fill="none" stroke="#e66767" stroke-width="1.1"/>
<rect x="293.7" y="414.5" width="10.3" height="55.5" fill="#008300"/>
<rect x="312.4" y="421.8" width="10.3" height="48.2" fill="#008300"/>
<rect x="331.0" y="407.3" width="10.3" height="62.7" fill="none" stroke="#e66767" stroke-width="1.1"/>
<rect x="349.6" y="419.4" width="10.3" height="50.6" fill="none" stroke="#e66767" stroke-width="1.1"/>
<rect x="368.3" y="433.8" width="10.3" height="36.2" fill="#008300"/>
<rect x="386.9" y="421.8" width="10.3" height="48.2" fill="#008300"/>
<rect x="405.6" y="407.3" width="10.3" height="62.7" fill="#008300"/>
<rect x="424.2" y="412.1" width="10.3" height="57.9" fill="none" stroke="#e66767" stroke-width="1.1"/>
<rect x="442.8" y="416.9" width="10.3" height="53.1" fill="#008300"/>
<rect x="461.5" y="412.1" width="10.3" height="57.9" fill="none" stroke="#e66767" stroke-width="1.1"/>
<rect x="480.1" y="416.9" width="10.3" height="53.1" fill="#008300"/>
<rect x="498.7" y="414.5" width="10.3" height="55.5" fill="#008300"/>
<rect x="517.4" y="433.8" width="10.3" height="36.2" fill="#008300"/>
<rect x="536.0" y="426.6" width="10.3" height="43.4" fill="#008300"/>
<rect x="554.6" y="419.4" width="10.3" height="50.6" fill="none" stroke="#e66767" stroke-width="1.1"/>
<rect x="573.3" y="438.6" width="10.3" height="31.4" fill="none" stroke="#e66767" stroke-width="1.1"/>
<rect x="591.9" y="436.2" width="10.3" height="33.8" fill="#008300"/>
<rect x="610.6" y="424.2" width="10.3" height="45.8" fill="#008300"/>
<rect x="629.2" y="407.3" width="10.3" height="62.7" fill="none" stroke="#e66767" stroke-width="1.1"/>
<rect x="647.8" y="433.8" width="10.3" height="36.2" fill="#008300"/>
<rect x="666.5" y="441.1" width="10.3" height="28.9" fill="none" stroke="#e66767" stroke-width="1.1"/>
<rect x="685.1" y="412.1" width="10.3" height="57.9" fill="none" stroke="#e66767" stroke-width="1.1"/>
<rect x="703.7" y="450.7" width="10.3" height="19.3" fill="#008300"/>
<rect x="722.4" y="429.0" width="10.3" height="41.0" fill="none" stroke="#e66767" stroke-width="1.1"/>
<rect x="741.0" y="441.1" width="10.3" height="28.9" fill="#008300"/>
<rect x="759.6" y="426.6" width="10.3" height="43.4" fill="#008300"/>
<rect x="778.3" y="445.9" width="10.3" height="24.1" fill="#008300"/>
<rect x="796.9" y="448.3" width="10.3" height="21.7" fill="none" stroke="#e66767" stroke-width="1.1"/>
<rect x="815.6" y="431.4" width="10.3" height="38.6" fill="#008300"/>
<polyline points="187.0,421.8 205.7,418.1 224.3,419.1 243.0,423.5 261.6,425.9 280.2,424.4 298.9,423.7 317.5,422.0 336.1,419.1 354.8,417.2 373.4,418.1 392.0,421.5 410.7,419.8 429.3,417.4 448.0,416.7 466.6,416.7 485.2,416.9 503.9,416.2 522.5,418.9 541.1,419.6 559.8,418.1 578.4,419.8 597.0,422.7 615.7,423.9 634.3,423.0 653.0,425.1 671.6,427.6 690.2,427.3 708.9,429.0 727.5,429.2 746.1,431.4 764.8,430.2 783.4,431.2 802.0,433.6 820.7,436.0" fill="none" stroke="#3987e5" stroke-width="1.5" stroke-linejoin="round" stroke-linecap="round"/>
<polyline points="93.9,411.6 112.5,411.2 131.1,416.0 149.8,424.7 168.4,432.4 187.0,431.9 205.7,425.1 224.3,422.2 243.0,422.2 261.6,419.4 280.2,416.9 298.9,422.2 317.5,421.8 336.1,416.0 354.8,415.0 373.4,419.4 392.0,420.8 410.7,417.9 429.3,418.9 448.0,418.4 466.6,414.0 485.2,413.1 503.9,414.5 522.5,418.9 541.1,420.8 559.8,422.2 578.4,426.6 597.0,430.9 615.7,429.0 634.3,425.1 653.0,428.0 671.6,428.5 690.2,423.7 708.9,429.0 727.5,433.3 746.1,434.8 764.8,431.9 783.4,438.6 802.0,438.2 820.7,438.6" fill="none" stroke="#c98500" stroke-width="1.5" stroke-linejoin="round" stroke-linecap="round"/>
</svg>