<svg xmlns="http://www.w3.org/2000/svg" viewBox="0 0 840 496" width="840" height="496" font-family="-apple-system,&#39;Segoe UI&#39;,system-ui,sans-serif" role="img" aria-label="donnemartin/system-design-primer candlestick chart">
<text x="14.0" y="20.0" font-size="15" fill="#0b0b0b" font-weight="650">donnemartin/system-design-primer</text>
<text x="282.0" y="20.0" font-size="11.5" fill="#52514e">daily · new stars, volume = new forks</text>
<text x="805.8" y="20.0" font-size="11.0" fill="#52514e">fall</text>
<rect x="791" y="10" width="9" height="12" fill="#008300"/>
<text x="750.6" y="20.0" font-size="11.0" fill="#52514e">rise</text>
<rect x="736" y="10" width="9" height="12" fill="none" stroke="#e34948" stroke-width="1.5"/>
<text x="14.0" y="38.0" font-size="11.0" fill="#898781">last 52 days · +8,011 stars · +998 forks · updated 2026-07-21</text>
<rect x="10" y="66" width="820" height="290" fill="none" stroke="#e1e0d9"/>
<rect x="10" y="384" width="820" height="86" fill="none" stroke="#e1e0d9"/>
<text x="38.0" y="490.0" font-size="11.0" fill="#898781" text-anchor="middle">2026-05</text>
<line x1="25.8" y1="66.0" x2="25.8" y2="356.0" stroke="#e1e0d9" stroke-width="1.0"/>
<line x1="25.8" y1="384.0" x2="25.8" y2="470.0" stroke="#e1e0d9" stroke-width="1.0"/>
<line x1="498.8" y1="66.0" x2="498.8" y2="356.0" stroke="#e1e0d9" stroke-width="1.0"/>
<line x1="498.8" y1="384.0" x2="498.8" y2="470.0" stroke="#e1e0d9" stroke-width="1.0"/>
<text x="506.7" y="490.0" font-size="11.0" fill="#898781" text-anchor="middle">2026-07</text>
<text x="14.0" y="58.0" font-size="11.0" fill="#52514e">BOLL(20,2)</text>
<text x="84.5" y="58.0" font-size="11.0" fill="#eda100">UP:197.7</text>
<text x="142.9" y="58.0" font-size="11.0" fill="#2a78d6">MID:142.3</text>
<text x="207.4" y="58.0" font-size="11.0" fill="#e87ba4">LOW:87.0</text>
<text x="265.8" y="58.0" font-size="11.0" fill="#4a3aa7">MA7:143.4</text>
<line x1="10.0" y1="356.0" x2="830.0" y2="356.0" stroke="#e1e0d9" stroke-width="1.0"/>
<text x="14.0" y="353.0" font-size="11.0" fill="#898781">0</text>
<line x1="10.0" y1="226.1" x2="830.0" y2="226.1" stroke="#e1e0d9" stroke-width="1.0"/>
<text x="14.0" y="223.1" font-size="11.0" fill="#898781">100</text>
<line x1="10.0" y1="96.2" x2="830.0" y2="96.2" stroke="#e1e0d9" stroke-width="1.0"/>
<text x="14.0" y="93.2" font-size="11.0" fill="#898781">200</text>
<polyline points="317.5,90.5 333.3,91.7 349.0,97.8 364.8,95.8 380.6,94.8 396.3,91.3 412.1,91.7 427.9,96.2 443.7,96.8 459.4,97.0 475.2,96.9 491.0,96.7 506.7,95.8 522.5,94.9 538.3,94.9 554.0,106.2 569.8,109.2 585.6,105.0 601.3,79.8 617.1,86.0 632.9,87.8 648.7,87.8 664.4,86.7 680.2,89.4 696.0,92.4 711.7,96.3 727.5,99.7 743.3,102.2 759.0,104.1 774.8,104.3 790.6,105.9 806.3,104.2 822.1,99.2" fill="none" stroke="#eda100" stroke-width="1.5" stroke-linejoin="round" stroke-linecap="round"/>
<polyline points="317.5,146.7 333.3,148.1 349.0,151.3 364.8,150.4 380.6,147.6 396.3,145.9 412.1,143.3 427.9,140.3 443.7,139.2 459.4,139.1 475.2,139.2 491.0,139.0 506.7,139.8 522.5,140.4 538.3,140.3 554.0,144.8 569.8,146.8 585.6,145.2 601.3,152.5 617.1,155.5 632.9,157.0 648.7,158.3 664.4,160.2 680.2,161.3 696.0,162.8 711.7,164.1 727.5,166.3 743.3,168.7 759.0,171.8 774.8,172.0 790.6,173.7 806.3,173.2 822.1,171.1" fill="none" stroke="#2a78d6" stroke-width="1.5" stroke-linejoin="round" stroke-linecap="round"/>
<polyline points="317.5,202.9 333.3,204.4 349.0,204.7 364.8,205.0 380.6,200.4 396.3,200.4 412.1,194.8 427.9,184.5 443.7,181.7 459.4,181.2 475.2,181.6 491.0,181.4 506.7,183.8 522.5,185.9 538.3,185.6 554.0,183.3 569.8,184.5 585.6,185.4 601.3,225.2 617.1,225.1 632.9,226.3 648.7,228.7 664.4,233.6 680.2,233.1 696.0,233.2 711.7,231.9 727.5,232.8 743.3,235.3 759.0,239.6 774.8,239.6 790.6,241.6 806.3,242.3 822.1,242.9" fill="none" stroke="#e87ba4" stroke-width="1.5" stroke-linejoin="round" stroke-linecap="round"/>
<polyline points="112.5,157.7 128.3,162.4 144.0,170.6 159.8,172.7 175.6,166.5 191.3,167.1 207.1,163.7 222.9,156.8 238.7,144.6 254.4,138.6 270.2,137.6 286.0,137.0 301.7,129.9 317.5,126.4 333.3,127.7 349.0,140.2 364.8,140.5 380.6,138.1 396.3,134.8 412.1,138.9 427.9,139.6 443.7,137.2 459.4,135.9 475.2,140.7 491.0,142.0 506.7,149.8 522.5,155.5 538.3,156.7 554.0,160.3 569.8,160.7 585.6,154.6 601.3,175.4 617.1,174.9 632.9,174.0 648.7,179.2 664.4,184.1 680.2,181.8 696.0,188.4 711.7,168.0 727.5,169.4 743.3,172.9 759.0,175.9 774.8,169.7 790.6,176.3 806.3,171.6 822.1,169.7" fill="none" stroke="#4a3aa7" stroke-width="1.5" stroke-linejoin="round" stroke-linecap="round"/>
<rect x="13.5" y="135.1" width="8.7" height="220.9" fill="none" stroke="#e34948" stroke-width="1.3"/>
<rect x="29.3" y="105.3" width="8.7" height="29.9" fill="none" stroke="#e34948" stroke-width="1.3"/>
<rect x="45.1" y="105.3" width="8.7" height="35.1" fill="#008300"/>
<rect x="60.9" y="140.3" width="8.7" height="45.5" fill="#008300"/>
<rect x="76.6" y="150.7" width="8.7" height="35.1" fill="none" stroke="#e34948" stroke-width="1.3"/>
<rect x="92.4" y="150.7" width="8.7" height="35.1" fill="#008300"/>
<rect x="108.2" y="185.8" width="8.7" height="15.6" fill="#008300"/>
<rect x="123.9" y="167.6" width="8.7" height="33.8" fill="none" stroke="#e34948" stroke-width="1.3"/>
<rect x="139.7" y="162.4" width="8.7" height="5.2" fill="none" stroke="#e34948" stroke-width="1.3"/>
<rect x="155.5" y="154.6" width="8.7" height="7.8" fill="none" stroke="#e34948" stroke-width="1.3"/>
<rect x="171.2" y="142.9" width="8.7" height="11.7" fill="none" stroke="#e34948" stroke-width="1.3"/>
<rect x="187.0" y="142.9" width="8.7" height="11.7" fill="#008300"/>
<rect x="202.8" y="154.6" width="8.7" height="7.8" fill="#008300"/>
<rect x="218.5" y="153.3" width="8.7" height="9.1" fill="none" stroke="#e34948" stroke-width="1.3"/>
<rect x="234.3" y="81.9" width="8.7" height="71.5" fill="none" stroke="#e34948" stroke-width="1.3"/>
<rect x="250.1" y="81.9" width="8.7" height="39.0" fill="#008300"/>
<rect x="265.9" y="120.9" width="8.7" height="26.0" fill="#008300"/>
<rect x="281.6" y="139.0" width="8.7" height="7.8" fill="none" stroke="#e34948" stroke-width="1.3"/>
<rect x="297.4" y="105.3" width="8.7" height="33.8" fill="none" stroke="#e34948" stroke-width="1.3"/>
<rect x="313.2" y="105.3" width="8.7" height="32.5" fill="#008300"/>
<rect x="328.9" y="137.7" width="8.7" height="24.7" fill="#008300"/>
<rect x="344.7" y="162.4" width="8.7" height="6.5" fill="#008300"/>
<rect x="360.5" y="123.4" width="8.7" height="45.5" fill="none" stroke="#e34948" stroke-width="1.3"/>
<rect x="376.2" y="123.4" width="8.7" height="6.5" fill="#008300"/>
<rect x="392.0" y="115.7" width="8.7" height="14.3" fill="none" stroke="#e34948" stroke-width="1.3"/>
<rect x="407.8" y="115.7" width="8.7" height="18.2" fill="#008300"/>
<rect x="423.5" y="133.8" width="8.7" height="9.1" fill="#008300"/>
<rect x="439.3" y="142.9" width="8.7" height="2.6" fill="#008300"/>
<rect x="455.1" y="145.5" width="8.7" height="14.3" fill="#008300"/>
<rect x="470.9" y="157.2" width="8.7" height="2.6" fill="none" stroke="#e34948" stroke-width="1.3"/>
<rect x="486.6" y="139.0" width="8.7" height="18.2" fill="none" stroke="#e34948" stroke-width="1.3"/>
<rect x="502.4" y="139.0" width="8.7" height="31.2" fill="#008300"/>
<rect x="518.2" y="170.2" width="8.7" height="3.9" fill="#008300"/>
<rect x="533.9" y="150.7" width="8.7" height="23.4" fill="none" stroke="#e34948" stroke-width="1.3"/>
<rect x="549.7" y="150.7" width="8.7" height="20.8" fill="#008300"/>
<rect x="565.5" y="162.4" width="8.7" height="9.1" fill="none" stroke="#e34948" stroke-width="1.3"/>
<rect x="581.2" y="114.4" width="8.7" height="48.1" fill="none" stroke="#e34948" stroke-width="1.3"/>
<rect x="597.0" y="114.4" width="8.7" height="170.2" fill="#008300"/>
<rect x="612.8" y="166.3" width="8.7" height="118.2" fill="none" stroke="#e34948" stroke-width="1.3"/>
<rect x="628.5" y="166.3" width="8.7" height="1.3" fill="#008300"/>
<rect x="644.3" y="167.6" width="8.7" height="19.5" fill="#008300"/>
<rect x="660.1" y="187.1" width="8.7" height="19.5" fill="#008300"/>
<rect x="675.9" y="145.5" width="8.7" height="61.1" fill="none" stroke="#e34948" stroke-width="1.3"/>
<rect x="691.6" y="145.5" width="8.7" height="15.6" fill="#008300"/>
<rect x="707.4" y="141.6" width="8.7" height="19.5" fill="none" stroke="#e34948" stroke-width="1.3"/>
<rect x="723.2" y="141.6" width="8.7" height="35.1" fill="#008300"/>
<rect x="738.9" y="176.7" width="8.7" height="15.6" fill="#008300"/>
<rect x="754.7" y="192.3" width="8.7" height="15.6" fill="#008300"/>
<rect x="770.5" y="162.4" width="8.7" height="45.5" fill="none" stroke="#e34948" stroke-width="1.3"/>
<rect x="786.2" y="162.4" width="8.7" height="29.9" fill="#008300"/>
<rect x="802.0" y="128.6" width="8.7" height="63.7" fill="none" stroke="#e34948" stroke-width="1.3"/>
<rect x="817.8" y="127.3" width="8.7" height="1.3" fill="none" stroke="#e34948" stroke-width="1.3"/>
<circle cx="238.7" cy="81.9" r="2" fill="#52514e"/>
<line x1="238.7" y1="81.9" x2="246.7" y2="81.9" stroke="#52514e" stroke-width="1.0"/>
<text x="249.7" y="85.9" font-size="11.0" fill="#52514e">211</text>
<circle cx="17.9" cy="356.0" r="2" fill="#52514e"/>
<line x1="17.9" y1="356.0" x2="25.9" y2="356.0" stroke="#52514e" stroke-width="1.0"/>
<text x="28.9" y="350.0" font-size="11.0" fill="#52514e">0</text>
<text x="14.0" y="376.0" font-size="11.0" fill="#52514e">VOL 24 forks</text>
<text x="96.6" y="376.0" font-size="11.0" fill="#eda100">MA5:17.4</text>
<text x="155.0" y="376.0" font-size="11.0" fill="#2a78d6">MA10:18</text>
<text x="14.0" y="395.0" font-size="10" fill="#898781">46</text>
<rect x="13.5" y="436.1" width="8.7" height="33.9" fill="none" stroke="#e34948" stroke-width="1.1"/>
<rect x="29.3" y="429.0" width="8.7" height="41.0" fill="none" stroke="#e34948" stroke-width="1.1"/>
<rect x="45.1" y="413.0" width="8.7" height="57.0" fill="#008300"/>
<rect x="60.9" y="418.3" width="8.7" height="51.7" fill="#008300"/>
<rect x="76.6" y="437.9" width="8.7" height="32.1" fill="none" stroke="#e34948" stroke-width="1.1"/>
<rect x="92.4" y="434.3" width="8.7" height="35.7" fill="#008300"/>
<rect x="108.2" y="446.8" width="8.7" height="23.2" fill="#008300"/>
<rect x="123.9" y="445.0" width="8.7" height="25.0" fill="none" stroke="#e34948" stroke-width="1.1"/>
<rect x="139.7" y="446.8" width="8.7" height="23.2" fill="none" stroke="#e34948" stroke-width="1.1"/>
<rect x="155.5" y="436.1" width="8.7" height="33.9" fill="none" stroke="#e34948" stroke-width="1.1"/>
<rect x="171.2" y="409.4" width="8.7" height="60.6" fill="none" stroke="#e34948" stroke-width="1.1"/>
<rect x="187.0" y="436.1" width="8.7" height="33.9" fill="#008300"/>
<rect x="202.8" y="445.0" width="8.7" height="25.0" fill="#008300"/>
<rect x="218.5" y="436.1" width="8.7" height="33.9" fill="none" stroke="#e34948" stroke-width="1.1"/>
<rect x="234.3" y="427.2" width="8.7" height="42.8" fill="none" stroke="#e34948" stroke-width="1.1"/>
<rect x="250.1" y="429.0" width="8.7" height="41.0" fill="#008300"/>
<rect x="265.9" y="434.3" width="8.7" height="35.7" fill="#008300"/>
<rect x="281.6" y="423.7" width="8.7" height="46.3" fill="none" stroke="#e34948" stroke-width="1.1"/>
<rect x="297.4" y="432.6" width="8.7" height="37.4" fill="none" stroke="#e34948" stroke-width="1.1"/>
<rect x="313.2" y="443.3" width="8.7" height="26.7" fill="#008300"/>
<rect x="328.9" y="434.3" width="8.7" height="35.7" fill="#008300"/>
<rect x="344.7" y="423.7" width="8.7" height="46.3" fill="#008300"/>
<rect x="360.5" y="427.2" width="8.7" height="42.8" fill="none" stroke="#e34948" stroke-width="1.1"/>
<rect x="376.2" y="430.8" width="8.7" height="39.2" fill="#008300"/>
<rect x="392.0" y="427.2" width="8.7" height="42.8" fill="none" stroke="#e34948" stroke-width="1.1"/>
<rect x="407.8" y="430.8" width="8.7" height="39.2" fill="#008300"/>
<rect x="423.5" y="429.0" width="8.7" height="41.0" fill="#008300"/>
<rect x="439.3" y="443.3" width="8.7" height="26.7" fill="#008300"/>
<rect x="455.1" y="437.9" width="8.7" height="32.1" fill="#008300"/>
<rect x="470.9" y="432.6" width="8.7" height="37.4" fill="none" stroke="#e34948" stroke-width="1.1"/>
<rect x="486.6" y="446.8" width="8.7" height="23.2" fill="none" stroke="#e34948" stroke-width="1.1"/>
<rect x="502.4" y="445.0" width="8.7" height="25.0" fill="#008300"/>
<rect x="518.2" y="436.1" width="8.7" height="33.9" fill="#008300"/>
<rect x="533.9" y="423.7" width="8.7" height="46.3" fill="none" stroke="#e34948" stroke-width="1.1"/>
<rect x="549.7" y="443.3" width="8.7" height="26.7" fill="#008300"/>
<rect x="565.5" y="448.6" width="8.7" height="21.4" fill="none" stroke="#e34948" stroke-width="1.1"/>
<rect x="581.2" y="427.2" width="8.7" height="42.8" fill="none" stroke="#e34948" stroke-width="1.1"/>
<rect x="597.0" y="455.7" width="8.7" height="14.3" fill="#008300"/>
<rect x="612.8" y="439.7" width="8.7" height="30.3" fill="none" stroke="#e34948" stroke-width="1.1"/>
<rect x="628.5" y="448.6" width="8.7" height="21.4" fill="#008300"/>
<rect x="644.3" y="437.9" width="8.7" height="32.1" fill="#008300"/>
<rect x="660.1" y="452.2" width="8.7" height="17.8" fill="#008300"/>
<rect x="675.9" y="454.0" width="8.7" height="16.0" fill="none" stroke="#e34948" stroke-width="1.1"/>
<rect x="691.6" y="441.5" width="8.7" height="28.5" fill="#008300"/>
<rect x="707.4" y="388.0" width="8.7" height="82.0" fill="none" stroke="#e34948" stroke-width="1.1"/>
<rect x="723.2" y="439.7" width="8.7" height="30.3" fill="#008300"/>
<rect x="738.9" y="461.1" width="8.7" height="8.9" fill="#008300"/>
<rect x="754.7" y="436.1" width="8.7" height="33.9" fill="#008300"/>
<rect x="770.5" y="443.3" width="8.7" height="26.7" fill="none" stroke="#e34948" stroke-width="1.1"/>
<rect x="786.2" y="459.3" width="8.7" height="10.7" fill="#008300"/>
<rect x="802.0" y="429.0" width="8.7" height="41.0" fill="none" stroke="#e34948" stroke-width="1.1"/>
<rect x="817.8" y="427.2" width="8.7" height="42.8" fill="none" stroke="#e34948" stroke-width="1.1"/>
<polyline points="159.8,434.3 175.6,431.7 191.3,432.4 207.1,435.6 222.9,437.4 238.7,436.3 254.4,435.8 270.2,434.5 286.0,432.4 301.7,431.0 317.5,431.7 333.3,434.2 349.0,432.9 364.8,431.1 380.6,430.6 396.3,430.6 412.1,430.8 427.9,430.2 443.7,432.2 459.4,432.7 475.2,431.7 491.0,432.9 506.7,435.1 522.5,436.0 538.3,435.2 554.0,436.8 569.8,438.6 585.6,438.4 601.3,439.7 617.1,439.9 632.9,441.5 648.7,440.6 664.4,441.3 680.2,443.1 696.0,444.9 711.7,439.3 727.5,438.4 743.3,441.8 759.0,439.9 774.8,440.2 790.6,441.3 806.3,440.4 822.1,437.9" fill="none" stroke="#2a78d6" stroke-width="1.5" stroke-linejoin="round" stroke-linecap="round"/>
<polyline points="81.0,426.9 96.7,426.5 112.5,430.1 128.3,436.5 144.0,442.2 159.8,441.8 175.6,436.8 191.3,434.7 207.1,434.7 222.9,432.6 238.7,430.8 254.4,434.7 270.2,434.3 286.0,430.1 301.7,429.4 317.5,432.6 333.3,433.6 349.0,431.5 364.8,432.2 380.6,431.9 396.3,428.6 412.1,427.9 427.9,429.0 443.7,432.2 459.4,433.6 475.2,434.7 491.0,437.9 506.7,441.1 522.5,439.7 538.3,436.8 554.0,439.0 569.8,439.3 585.6,435.8 601.3,439.7 617.1,442.9 632.9,444.0 648.7,441.8 664.4,446.8 680.2,446.5 696.0,446.8 711.7,434.7 727.5,435.1 743.3,436.8 759.0,433.3 774.8,433.6 790.6,447.9 806.3,445.8 822.1,439.0" fill="none" stroke="#eda100" stroke-width="1.5" stroke-linejoin="round" stroke-linecap="round"/>
</svg>