<svg xmlns="http://www.w3.org/2000/svg" viewBox="0 0 840 496" width="840" height="496" font-family="-apple-system,&#39;Segoe UI&#39;,system-ui,sans-serif" role="img" aria-label="donnemartin/system-design-primer candlestick chart">
<text x="14.0" y="20.0" font-size="15" fill="#0b0b0b" font-weight="650">donnemartin/system-design-primer</text>
<text x="282.0" y="20.0" font-size="11.5" fill="#52514e">daily · new stars, volume = new forks</text>
<text x="805.8" y="20.0" font-size="11.0" fill="#52514e">fall</text>
<rect x="791" y="10" width="9" height="12" fill="#008300"/>
<text x="750.6" y="20.0" font-size="11.0" fill="#52514e">rise</text>
<rect x="736" y="10" width="9" height="12" fill="none" stroke="#e34948" stroke-width="1.5"/>
<text x="14.0" y="38.0" font-size="11.0" fill="#898781">last 48 days · +7,385 stars · +930 forks · updated 2026-07-17</text>
<rect x="10" y="66" width="820" height="290" fill="none" stroke="#e1e0d9"/>
<rect x="10" y="384" width="820" height="86" fill="none" stroke="#e1e0d9"/>
<text x="38.0" y="490.0" font-size="11.0" fill="#898781" text-anchor="middle">2026-05</text>
<line x1="27.1" y1="66.0" x2="27.1" y2="356.0" stroke="#e1e0d9" stroke-width="1.0"/>
<line x1="27.1" y1="384.0" x2="27.1" y2="470.0" stroke="#e1e0d9" stroke-width="1.0"/>
<line x1="539.6" y1="66.0" x2="539.6" y2="356.0" stroke="#e1e0d9" stroke-width="1.0"/>
<line x1="539.6" y1="384.0" x2="539.6" y2="470.0" stroke="#e1e0d9" stroke-width="1.0"/>
<text x="548.1" y="490.0" font-size="11.0" fill="#898781" text-anchor="middle">2026-07</text>
<text x="14.0" y="58.0" font-size="11.0" fill="#52514e">BOLL(20,2)</text>
<text x="84.5" y="58.0" font-size="11.0" fill="#eda100">UP:193.9</text>
<text x="142.9" y="58.0" font-size="11.0" fill="#2a78d6">MID:141.8</text>
<text x="207.4" y="58.0" font-size="11.0" fill="#e87ba4">LOW:89.6</text>
<text x="265.8" y="58.0" font-size="11.0" fill="#4a3aa7">MA7:138.6</text>
<line x1="10.0" y1="356.0" x2="830.0" y2="356.0" stroke="#e1e0d9" stroke-width="1.0"/>
<text x="14.0" y="353.0" font-size="11.0" fill="#898781">0</text>
<line x1="10.0" y1="226.1" x2="830.0" y2="226.1" stroke="#e1e0d9" stroke-width="1.0"/>
<text x="14.0" y="223.1" font-size="11.0" fill="#898781">100</text>
<line x1="10.0" y1="96.2" x2="830.0" y2="96.2" stroke="#e1e0d9" stroke-width="1.0"/>
<text x="14.0" y="93.2" font-size="11.0" fill="#898781">200</text>
<polyline points="343.1,90.5 360.2,91.7 377.3,97.8 394.4,95.8 411.5,94.8 428.5,91.3 445.6,91.7 462.7,96.2 479.8,96.8 496.9,97.0 514.0,96.9 531.0,96.7 548.1,95.8 565.2,94.9 582.3,94.9 599.4,106.2 616.5,109.2 633.5,105.0 650.6,79.8 667.7,86.0 684.8,87.8 701.9,87.8 719.0,86.7 736.0,89.4 753.1,92.4 770.2,96.3 787.3,99.7 804.4,102.2 821.5,104.1" fill="none" stroke="#eda100" stroke-width="1.5" stroke-linejoin="round" stroke-linecap="round"/>
<polyline points="343.1,146.7 360.2,148.1 377.3,151.3 394.4,150.4 411.5,147.6 428.5,145.9 445.6,143.3 462.7,140.3 479.8,139.2 496.9,139.1 514.0,139.2 531.0,139.0 548.1,139.8 565.2,140.4 582.3,140.3 599.4,144.8 616.5,146.8 633.5,145.2 650.6,152.5 667.7,155.5 684.8,157.0 701.9,158.3 719.0,160.2 736.0,161.3 753.1,162.8 770.2,164.1 787.3,166.3 804.4,168.7 821.5,171.8" fill="none" stroke="#2a78d6" stroke-width="1.5" stroke-linejoin="round" stroke-linecap="round"/>
<polyline points="343.1,202.9 360.2,204.4 377.3,204.7 394.4,205.0 411.5,200.4 428.5,200.4 445.6,194.8 462.7,184.5 479.8,181.7 496.9,181.2 514.0,181.6 531.0,181.4 548.1,183.8 565.2,185.9 582.3,185.6 599.4,183.3 616.5,184.5 633.5,185.4 650.6,225.2 667.7,225.1 684.8,226.3 701.9,228.7 719.0,233.6 736.0,233.1 753.1,233.2 770.2,231.9 787.3,232.8 804.4,235.3 821.5,239.6" fill="none" stroke="#e87ba4" stroke-width="1.5" stroke-linejoin="round" stroke-linecap="round"/>
<polyline points="121.0,157.7 138.1,162.4 155.2,170.6 172.3,172.7 189.4,166.5 206.5,167.1 223.5,163.7 240.6,156.8 257.7,144.6 274.8,138.6 291.9,137.6 309.0,137.0 326.0,129.9 343.1,126.4 360.2,127.7 377.3,140.2 394.4,140.5 411.5,138.1 428.5,134.8 445.6,138.9 462.7,139.6 479.8,137.2 496.9,135.9 514.0,140.7 531.0,142.0 548.1,149.8 565.2,155.5 582.3,156.7 599.4,160.3 616.5,160.7 633.5,154.6 650.6,175.4 667.7,174.9 684.8,174.0 701.9,179.2 719.0,184.1 736.0,181.8 753.1,188.4 770.2,168.0 787.3,169.4 804.4,172.9 821.5,175.9" fill="none" stroke="#4a3aa7" stroke-width="1.5" stroke-linejoin="round" stroke-linecap="round"/>
<rect x="13.8" y="135.1" width="9.4" height="220.9" fill="none" stroke="#e34948" stroke-width="1.3"/>
<rect x="30.9" y="105.3" width="9.4" height="29.9" fill="none" stroke="#e34948" stroke-width="1.3"/>
<rect x="48.0" y="105.3" width="9.4" height="35.1" fill="#008300"/>
<rect x="65.1" y="140.3" width="9.4" height="45.5" fill="#008300"/>
<rect x="82.2" y="150.7" width="9.4" height="35.1" fill="none" stroke="#e34948" stroke-width="1.3"/>
<rect x="99.3" y="150.7" width="9.4" height="35.1" fill="#008300"/>
<rect x="116.3" y="185.8" width="9.4" height="15.6" fill="#008300"/>
<rect x="133.4" y="167.6" width="9.4" height="33.8" fill="none" stroke="#e34948" stroke-width="1.3"/>
<rect x="150.5" y="162.4" width="9.4" height="5.2" fill="none" stroke="#e34948" stroke-width="1.3"/>
<rect x="167.6" y="154.6" width="9.4" height="7.8" fill="none" stroke="#e34948" stroke-width="1.3"/>
<rect x="184.7" y="142.9" width="9.4" height="11.7" fill="none" stroke="#e34948" stroke-width="1.3"/>
<rect x="201.8" y="142.9" width="9.4" height="11.7" fill="#008300"/>
<rect x="218.8" y="154.6" width="9.4" height="7.8" fill="#008300"/>
<rect x="235.9" y="153.3" width="9.4" height="9.1" fill="none" stroke="#e34948" stroke-width="1.3"/>
<rect x="253.0" y="81.9" width="9.4" height="71.5" fill="none" stroke="#e34948" stroke-width="1.3"/>
<rect x="270.1" y="81.9" width="9.4" height="39.0" fill="#008300"/>
<rect x="287.2" y="120.9" width="9.4" height="26.0" fill="#008300"/>
<rect x="304.3" y="139.0" width="9.4" height="7.8" fill="none" stroke="#e34948" stroke-width="1.3"/>
<rect x="321.3" y="105.3" width="9.4" height="33.8" fill="none" stroke="#e34948" stroke-width="1.3"/>
<rect x="338.4" y="105.3" width="9.4" height="32.5" fill="#008300"/>
<rect x="355.5" y="137.7" width="9.4" height="24.7" fill="#008300"/>
<rect x="372.6" y="162.4" width="9.4" height="6.5" fill="#008300"/>
<rect x="389.7" y="123.4" width="9.4" height="45.5" fill="none" stroke="#e34948" stroke-width="1.3"/>
<rect x="406.8" y="123.4" width="9.4" height="6.5" fill="#008300"/>
<rect x="423.8" y="115.7" width="9.4" height="14.3" fill="none" stroke="#e34948" stroke-width="1.3"/>
<rect x="440.9" y="115.7" width="9.4" height="18.2" fill="#008300"/>
<rect x="458.0" y="133.8" width="9.4" height="9.1" fill="#008300"/>
<rect x="475.1" y="142.9" width="9.4" height="2.6" fill="#008300"/>
<rect x="492.2" y="145.5" width="9.4" height="14.3" fill="#008300"/>
<rect x="509.3" y="157.2" width="9.4" height="2.6" fill="none" stroke="#e34948" stroke-width="1.3"/>
<rect x="526.3" y="139.0" width="9.4" height="18.2" fill="none" stroke="#e34948" stroke-width="1.3"/>
<rect x="543.4" y="139.0" width="9.4" height="31.2" fill="#008300"/>
<rect x="560.5" y="170.2" width="9.4" height="3.9" fill="#008300"/>
<rect x="577.6" y="150.7" width="9.4" height="23.4" fill="none" stroke="#e34948" stroke-width="1.3"/>
<rect x="594.7" y="150.7" width="9.4" height="20.8" fill="#008300"/>
<rect x="611.8" y="162.4" width="9.4" height="9.1" fill="none" stroke="#e34948" stroke-width="1.3"/>
<rect x="628.8" y="114.4" width="9.4" height="48.1" fill="none" stroke="#e34948" stroke-width="1.3"/>
<rect x="645.9" y="114.4" width="9.4" height="170.2" fill="#008300"/>
<rect x="663.0" y="166.3" width="9.4" height="118.2" fill="none" stroke="#e34948" stroke-width="1.3"/>
<rect x="680.1" y="166.3" width="9.4" height="1.3" fill="#008300"/>
<rect x="697.2" y="167.6" width="9.4" height="19.5" fill="#008300"/>
<rect x="714.3" y="187.1" width="9.4" height="19.5" fill="#008300"/>
<rect x="731.3" y="145.5" width="9.4" height="61.1" fill="none" stroke="#e34948" stroke-width="1.3"/>
<rect x="748.4" y="145.5" width="9.4" height="15.6" fill="#008300"/>
<rect x="765.5" y="141.6" width="9.4" height="19.5" fill="none" stroke="#e34948" stroke-width="1.3"/>
<rect x="782.6" y="141.6" width="9.4" height="35.1" fill="#008300"/>
<rect x="799.7" y="176.7" width="9.4" height="15.6" fill="#008300"/>
<rect x="816.8" y="192.3" width="9.4" height="15.6" fill="#008300"/>
<circle cx="257.7" cy="81.9" r="2" fill="#52514e"/>
<line x1="257.7" y1="81.9" x2="265.7" y2="81.9" stroke="#52514e" stroke-width="1.0"/>
<text x="268.7" y="85.9" font-size="11.0" fill="#52514e">211</text>
<circle cx="18.5" cy="356.0" r="2" fill="#52514e"/>
<line x1="18.5" y1="356.0" x2="26.5" y2="356.0" stroke="#52514e" stroke-width="1.0"/>
<text x="29.5" y="350.0" font-size="11.0" fill="#52514e">0</text>
<text x="14.0" y="376.0" font-size="11.0" fill="#52514e">VOL 19 forks</text>
<text x="96.6" y="376.0" font-size="11.0" fill="#eda100">MA5:20.6</text>
<text x="155.0" y="376.0" font-size="11.0" fill="#2a78d6">MA10:16.9</text>
<text x="14.0" y="395.0" font-size="10" fill="#898781">46</text>
<rect x="13.8" y="436.1" width="9.4" height="33.9" fill="none" stroke="#e34948" stroke-width="1.1"/>
<rect x="30.9" y="429.0" width="9.4" height="41.0" fill="none" stroke="#e34948" stroke-width="1.1"/>
<rect x="48.0" y="413.0" width="9.4" height="57.0" fill="#008300"/>
<rect x="65.1" y="418.3" width="9.4" height="51.7" fill="#008300"/>
<rect x="82.2" y="437.9" width="9.4" height="32.1" fill="none" stroke="#e34948" stroke-width="1.1"/>
<rect x="99.3" y="434.3" width="9.4" height="35.7" fill="#008300"/>
<rect x="116.3" y="446.8" width="9.4" height="23.2" fill="#008300"/>
<rect x="133.4" y="445.0" width="9.4" height="25.0" fill="none" stroke="#e34948" stroke-width="1.1"/>
<rect x="150.5" y="446.8" width="9.4" height="23.2" fill="none" stroke="#e34948" stroke-width="1.1"/>
<rect x="167.6" y="436.1" width="9.4" height="33.9" fill="none" stroke="#e34948" stroke-width="1.1"/>
<rect x="184.7" y="409.4" width="9.4" height="60.6" fill="none" stroke="#e34948" stroke-width="1.1"/>
<rect x="201.8" y="436.1" width="9.4" height="33.9" fill="#008300"/>
<rect x="218.8" y="445.0" width="9.4" height="25.0" fill="#008300"/>
<rect x="235.9" y="436.1" width="9.4" height="33.9" fill="none" stroke="#e34948" stroke-width="1.1"/>
<rect x="253.0" y="427.2" width="9.4" height="42.8" fill="none" stroke="#e34948" stroke-width="1.1"/>
<rect x="270.1" y="429.0" width="9.4" height="41.0" fill="#008300"/>
<rect x="287.2" y="434.3" width="9.4" height="35.7" fill="#008300"/>
<rect x="304.3" y="423.7" width="9.4" height="46.3" fill="none" stroke="#e34948" stroke-width="1.1"/>
<rect x="321.3" y="432.6" width="9.4" height="37.4" fill="none" stroke="#e34948" stroke-width="1.1"/>
<rect x="338.4" y="443.3" width="9.4" height="26.7" fill="#008300"/>
<rect x="355.5" y="434.3" width="9.4" height="35.7" fill="#008300"/>
<rect x="372.6" y="423.7" width="9.4" height="46.3" fill="#008300"/>
<rect x="389.7" y="427.2" width="9.4" height="42.8" fill="none" stroke="#e34948" stroke-width="1.1"/>
<rect x="406.8" y="430.8" width="9.4" height="39.2" fill="#008300"/>
<rect x="423.8" y="427.2" width="9.4" height="42.8" fill="none" stroke="#e34948" stroke-width="1.1"/>
<rect x="440.9" y="430.8" width="9.4" height="39.2" fill="#008300"/>
<rect x="458.0" y="429.0" width="9.4" height="41.0" fill="#008300"/>
<rect x="475.1" y="443.3" width="9.4" height="26.7" fill="#008300"/>
<rect x="492.2" y="437.9" width="9.4" height="32.1" fill="#008300"/>
<rect x="509.3" y="432.6" width="9.4" height="37.4" fill="none" stroke="#e34948" stroke-width="1.1"/>
<rect x="526.3" y="446.8" width="9.4" height="23.2" fill="none" stroke="#e34948" stroke-width="1.1"/>
<rect x="543.4" y="445.0" width="9.4" height="25.0" fill="#008300"/>
<rect x="560.5" y="436.1" width="9.4" height="33.9" fill="#008300"/>
<rect x="577.6" y="423.7" width="9.4" height="46.3" fill="none" stroke="#e34948" stroke-width="1.1"/>
<rect x="594.7" y="443.3" width="9.4" height="26.7" fill="#008300"/>
<rect x="611.8" y="448.6" width="9.4" height="21.4" fill="none" stroke="#e34948" stroke-width="1.1"/>
<rect x="628.8" y="427.2" width="9.4" height="42.8" fill="none" stroke="#e34948" stroke-width="1.1"/>
<rect x="645.9" y="455.7" width="9.4" height="14.3" fill="#008300"/>
<rect x="663.0" y="439.7" width="9.4" height="30.3" fill="none" stroke="#e34948" stroke-width="1.1"/>
<rect x="680.1" y="448.6" width="9.4" height="21.4" fill="#008300"/>
<rect x="697.2" y="437.9" width="9.4" height="32.1" fill="#008300"/>
<rect x="714.3" y="452.2" width="9.4" height="17.8" fill="#008300"/>
<rect x="731.3" y="454.0" width="9.4" height="16.0" fill="none" stroke="#e34948" stroke-width="1.1"/>
<rect x="748.4" y="441.5" width="9.4" height="28.5" fill="#008300"/>
<rect x="765.5" y="388.0" width="9.4" height="82.0" fill="none" stroke="#e34948" stroke-width="1.1"/>
<rect x="782.6" y="439.7" width="9.4" height="30.3" fill="#008300"/>
<rect x="799.7" y="461.1" width="9.4" height="8.9" fill="#008300"/>
<rect x="816.8" y="436.1" width="9.4" height="33.9" fill="#008300"/>
<polyline points="172.3,434.3 189.4,431.7 206.5,432.4 223.5,435.6 240.6,437.4 257.7,436.3 274.8,435.8 291.9,434.5 309.0,432.4 326.0,431.0 343.1,431.7 360.2,434.2 377.3,432.9 394.4,431.1 411.5,430.6 428.5,430.6 445.6,430.8 462.7,430.2 479.8,432.2 496.9,432.7 514.0,431.7 531.0,432.9 548.1,435.1 565.2,436.0 582.3,435.2 599.4,436.8 616.5,438.6 633.5,438.4 650.6,439.7 667.7,439.9 684.8,441.5 701.9,440.6 719.0,441.3 736.0,443.1 753.1,444.9 770.2,439.3 787.3,438.4 804.4,441.8 821.5,439.9" fill="none" stroke="#2a78d6" stroke-width="1.5" stroke-linejoin="round" stroke-linecap="round"/>
<polyline points="86.9,426.9 104.0,426.5 121.0,430.1 138.1,436.5 155.2,442.2 172.3,441.8 189.4,436.8 206.5,434.7 223.5,434.7 240.6,432.6 257.7,430.8 274.8,434.7 291.9,434.3 309.0,430.1 326.0,429.4 343.1,432.6 360.2,433.6 377.3,431.5 394.4,432.2 411.5,431.9 428.5,428.6 445.6,427.9 462.7,429.0 479.8,432.2 496.9,433.6 514.0,434.7 531.0,437.9 548.1,441.1 565.2,439.7 582.3,436.8 599.4,439.0 616.5,439.3 633.5,435.8 650.6,439.7 667.7,442.9 684.8,444.0 701.9,441.8 719.0,446.8 736.0,446.5 753.1,446.8 770.2,434.7 787.3,435.1 804.4,436.8 821.5,433.3" fill="none" stroke="#eda100" stroke-width="1.5" stroke-linejoin="round" stroke-linecap="round"/>
</svg>