<svg xmlns="http://www.w3.org/2000/svg" viewBox="0 0 840 496" width="840" height="496" font-family="-apple-system,&#39;Segoe UI&#39;,system-ui,sans-serif" role="img" aria-label="donnemartin/system-design-primer candlestick chart">
<text x="14.0" y="20.0" font-size="15" fill="#0b0b0b" font-weight="650">donnemartin/system-design-primer</text>
<text x="282.0" y="20.0" font-size="11.5" fill="#52514e">daily · new stars, volume = new forks</text>
<text x="805.8" y="20.0" font-size="11.0" fill="#52514e">fall</text>
<rect x="791" y="10" width="9" height="12" fill="#008300"/>
<text x="750.6" y="20.0" font-size="11.0" fill="#52514e">rise</text>
<rect x="736" y="10" width="9" height="12" fill="none" stroke="#e34948" stroke-width="1.5"/>
<text x="14.0" y="38.0" font-size="11.0" fill="#898781">last 38 days · +5,994 stars · +761 forks · updated 2026-07-07</text>
<rect x="10" y="66" width="820" height="290" fill="none" stroke="#e1e0d9"/>
<rect x="10" y="384" width="820" height="86" fill="none" stroke="#e1e0d9"/>
<text x="38.0" y="490.0" font-size="11.0" fill="#898781" text-anchor="middle">2026-05</text>
<line x1="31.6" y1="66.0" x2="31.6" y2="356.0" stroke="#e1e0d9" stroke-width="1.0"/>
<line x1="31.6" y1="384.0" x2="31.6" y2="470.0" stroke="#e1e0d9" stroke-width="1.0"/>
<line x1="678.9" y1="66.0" x2="678.9" y2="356.0" stroke="#e1e0d9" stroke-width="1.0"/>
<line x1="678.9" y1="384.0" x2="678.9" y2="470.0" stroke="#e1e0d9" stroke-width="1.0"/>
<text x="689.7" y="490.0" font-size="11.0" fill="#898781" text-anchor="middle">2026-07</text>
<text x="14.0" y="58.0" font-size="11.0" fill="#52514e">BOLL(20,2)</text>
<text x="84.5" y="58.0" font-size="11.0" fill="#eda100">UP:212.6</text>
<text x="142.9" y="58.0" font-size="11.0" fill="#2a78d6">MID:156.7</text>
<text x="207.4" y="58.0" font-size="11.0" fill="#e87ba4">LOW:100.7</text>
<text x="271.8" y="58.0" font-size="11.0" fill="#4a3aa7">MA7:139</text>
<line x1="10.0" y1="356.0" x2="830.0" y2="356.0" stroke="#e1e0d9" stroke-width="1.0"/>
<text x="14.0" y="353.0" font-size="11.0" fill="#898781">0</text>
<line x1="10.0" y1="226.1" x2="830.0" y2="226.1" stroke="#e1e0d9" stroke-width="1.0"/>
<text x="14.0" y="223.1" font-size="11.0" fill="#898781">100</text>
<line x1="10.0" y1="96.2" x2="830.0" y2="96.2" stroke="#e1e0d9" stroke-width="1.0"/>
<text x="14.0" y="93.2" font-size="11.0" fill="#898781">200</text>
<polyline points="430.8,90.5 452.4,91.7 473.9,97.8 495.5,95.8 517.1,94.8 538.7,91.3 560.3,91.7 581.8,96.2 603.4,96.8 625.0,97.0 646.6,96.9 668.2,96.7 689.7,95.8 711.3,94.9 732.9,94.9 754.5,106.2 776.1,109.2 797.6,105.0 819.2,79.8" fill="none" stroke="#eda100" stroke-width="1.5" stroke-linejoin="round" stroke-linecap="round"/>
<polyline points="430.8,146.7 452.4,148.1 473.9,151.3 495.5,150.4 517.1,147.6 538.7,145.9 560.3,143.3 581.8,140.3 603.4,139.2 625.0,139.1 646.6,139.2 668.2,139.0 689.7,139.8 711.3,140.4 732.9,140.3 754.5,144.8 776.1,146.8 797.6,145.2 819.2,152.5" fill="none" stroke="#2a78d6" stroke-width="1.5" stroke-linejoin="round" stroke-linecap="round"/>
<polyline points="430.8,202.9 452.4,204.4 473.9,204.7 495.5,205.0 517.1,200.4 538.7,200.4 560.3,194.8 581.8,184.5 603.4,181.7 625.0,181.2 646.6,181.6 668.2,181.4 689.7,183.8 711.3,185.9 732.9,185.6 754.5,183.3 776.1,184.5 797.6,185.4 819.2,225.2" fill="none" stroke="#e87ba4" stroke-width="1.5" stroke-linejoin="round" stroke-linecap="round"/>
<polyline points="150.3,157.7 171.8,162.4 193.4,170.6 215.0,172.7 236.6,166.5 258.2,167.1 279.7,163.7 301.3,156.8 322.9,144.6 344.5,138.6 366.1,137.6 387.6,137.0 409.2,129.9 430.8,126.4 452.4,127.7 473.9,140.2 495.5,140.5 517.1,138.1 538.7,134.8 560.3,138.9 581.8,139.6 603.4,137.2 625.0,135.9 646.6,140.7 668.2,142.0 689.7,149.8 711.3,155.5 732.9,156.7 754.5,160.3 776.1,160.7 797.6,154.6 819.2,175.4" fill="none" stroke="#4a3aa7" stroke-width="1.5" stroke-linejoin="round" stroke-linecap="round"/>
<rect x="14.9" y="135.1" width="11.9" height="220.9" fill="none" stroke="#e34948" stroke-width="1.3"/>
<rect x="36.4" y="105.3" width="11.9" height="29.9" fill="none" stroke="#e34948" stroke-width="1.3"/>
<rect x="58.0" y="105.3" width="11.9" height="35.1" fill="#008300"/>
<rect x="79.6" y="140.3" width="11.9" height="45.5" fill="#008300"/>
<rect x="101.2" y="150.7" width="11.9" height="35.1" fill="none" stroke="#e34948" stroke-width="1.3"/>
<rect x="122.7" y="150.7" width="11.9" height="35.1" fill="#008300"/>
<rect x="144.3" y="185.8" width="11.9" height="15.6" fill="#008300"/>
<rect x="165.9" y="167.6" width="11.9" height="33.8" fill="none" stroke="#e34948" stroke-width="1.3"/>
<rect x="187.5" y="162.4" width="11.9" height="5.2" fill="none" stroke="#e34948" stroke-width="1.3"/>
<rect x="209.1" y="154.6" width="11.9" height="7.8" fill="none" stroke="#e34948" stroke-width="1.3"/>
<rect x="230.6" y="142.9" width="11.9" height="11.7" fill="none" stroke="#e34948" stroke-width="1.3"/>
<rect x="252.2" y="142.9" width="11.9" height="11.7" fill="#008300"/>
<rect x="273.8" y="154.6" width="11.9" height="7.8" fill="#008300"/>
<rect x="295.4" y="153.3" width="11.9" height="9.1" fill="none" stroke="#e34948" stroke-width="1.3"/>
<rect x="317.0" y="81.9" width="11.9" height="71.5" fill="none" stroke="#e34948" stroke-width="1.3"/>
<rect x="338.5" y="81.9" width="11.9" height="39.0" fill="#008300"/>
<rect x="360.1" y="120.9" width="11.9" height="26.0" fill="#008300"/>
<rect x="381.7" y="139.0" width="11.9" height="7.8" fill="none" stroke="#e34948" stroke-width="1.3"/>
<rect x="403.3" y="105.3" width="11.9" height="33.8" fill="none" stroke="#e34948" stroke-width="1.3"/>
<rect x="424.9" y="105.3" width="11.9" height="32.5" fill="#008300"/>
<rect x="446.4" y="137.7" width="11.9" height="24.7" fill="#008300"/>
<rect x="468.0" y="162.4" width="11.9" height="6.5" fill="#008300"/>
<rect x="489.6" y="123.4" width="11.9" height="45.5" fill="none" stroke="#e34948" stroke-width="1.3"/>
<rect x="511.2" y="123.4" width="11.9" height="6.5" fill="#008300"/>
<rect x="532.7" y="115.7" width="11.9" height="14.3" fill="none" stroke="#e34948" stroke-width="1.3"/>
<rect x="554.3" y="115.7" width="11.9" height="18.2" fill="#008300"/>
<rect x="575.9" y="133.8" width="11.9" height="9.1" fill="#008300"/>
<rect x="597.5" y="142.9" width="11.9" height="2.6" fill="#008300"/>
<rect x="619.1" y="145.5" width="11.9" height="14.3" fill="#008300"/>
<rect x="640.6" y="157.2" width="11.9" height="2.6" fill="none" stroke="#e34948" stroke-width="1.3"/>
<rect x="662.2" y="139.0" width="11.9" height="18.2" fill="none" stroke="#e34948" stroke-width="1.3"/>
<rect x="683.8" y="139.0" width="11.9" height="31.2" fill="#008300"/>
<rect x="705.4" y="170.2" width="11.9" height="3.9" fill="#008300"/>
<rect x="727.0" y="150.7" width="11.9" height="23.4" fill="none" stroke="#e34948" stroke-width="1.3"/>
<rect x="748.5" y="150.7" width="11.9" height="20.8" fill="#008300"/>
<rect x="770.1" y="162.4" width="11.9" height="9.1" fill="none" stroke="#e34948" stroke-width="1.3"/>
<rect x="791.7" y="114.4" width="11.9" height="48.1" fill="none" stroke="#e34948" stroke-width="1.3"/>
<rect x="813.3" y="114.4" width="11.9" height="170.2" fill="#008300"/>
<circle cx="322.9" cy="81.9" r="2" fill="#52514e"/>
<line x1="322.9" y1="81.9" x2="330.9" y2="81.9" stroke="#52514e" stroke-width="1.0"/>
<text x="333.9" y="85.9" font-size="11.0" fill="#52514e">211</text>
<circle cx="20.8" cy="356.0" r="2" fill="#52514e"/>
<line x1="20.8" y1="356.0" x2="28.8" y2="356.0" stroke="#52514e" stroke-width="1.0"/>
<text x="31.8" y="350.0" font-size="11.0" fill="#52514e">0</text>
<text x="14.0" y="376.0" font-size="11.0" fill="#52514e">VOL 8 forks</text>
<text x="90.5" y="376.0" font-size="11.0" fill="#eda100">MA5:17</text>
<text x="136.8" y="376.0" font-size="11.0" fill="#2a78d6">MA10:17</text>
<text x="14.0" y="395.0" font-size="10" fill="#898781">34</text>
<rect x="14.9" y="424.2" width="11.9" height="45.8" fill="none" stroke="#e34948" stroke-width="1.1"/>
<rect x="36.4" y="414.5" width="11.9" height="55.5" fill="none" stroke="#e34948" stroke-width="1.1"/>
<rect x="58.0" y="392.8" width="11.9" height="77.2" fill="#008300"/>
<rect x="79.6" y="400.1" width="11.9" height="69.9" fill="#008300"/>
<rect x="101.2" y="426.6" width="11.9" height="43.4" fill="none" stroke="#e34948" stroke-width="1.1"/>
<rect x="122.7" y="421.8" width="11.9" height="48.2" fill="#008300"/>
<rect x="144.3" y="438.6" width="11.9" height="31.4" fill="#008300"/>
<rect x="165.9" y="436.2" width="11.9" height="33.8" fill="none" stroke="#e34948" stroke-width="1.1"/>
<rect x="187.5" y="438.6" width="11.9" height="31.4" fill="none" stroke="#e34948" stroke-width="1.1"/>
<rect x="209.1" y="424.2" width="11.9" height="45.8" fill="none" stroke="#e34948" stroke-width="1.1"/>
<rect x="230.6" y="388.0" width="11.9" height="82.0" fill="none" stroke="#e34948" stroke-width="1.1"/>
<rect x="252.2" y="424.2" width="11.9" height="45.8" fill="#008300"/>
<rect x="273.8" y="436.2" width="11.9" height="33.8" fill="#008300"/>
<rect x="295.4" y="424.2" width="11.9" height="45.8" fill="none" stroke="#e34948" stroke-width="1.1"/>
<rect x="317.0" y="412.1" width="11.9" height="57.9" fill="none" stroke="#e34948" stroke-width="1.1"/>
<rect x="338.5" y="414.5" width="11.9" height="55.5" fill="#008300"/>
<rect x="360.1" y="421.8" width="11.9" height="48.2" fill="#008300"/>
<rect x="381.7" y="407.3" width="11.9" height="62.7" fill="none" stroke="#e34948" stroke-width="1.1"/>
<rect x="403.3" y="419.4" width="11.9" height="50.6" fill="none" stroke="#e34948" stroke-width="1.1"/>
<rect x="424.9" y="433.8" width="11.9" height="36.2" fill="#008300"/>
<rect x="446.4" y="421.8" width="11.9" height="48.2" fill="#008300"/>
<rect x="468.0" y="407.3" width="11.9" height="62.7" fill="#008300"/>
<rect x="489.6" y="412.1" width="11.9" height="57.9" fill="none" stroke="#e34948" stroke-width="1.1"/>
<rect x="511.2" y="416.9" width="11.9" height="53.1" fill="#008300"/>
<rect x="532.7" y="412.1" width="11.9" height="57.9" fill="none" stroke="#e34948" stroke-width="1.1"/>
<rect x="554.3" y="416.9" width="11.9" height="53.1" fill="#008300"/>
<rect x="575.9" y="414.5" width="11.9" height="55.5" fill="#008300"/>
<rect x="597.5" y="433.8" width="11.9" height="36.2" fill="#008300"/>
<rect x="619.1" y="426.6" width="11.9" height="43.4" fill="#008300"/>
<rect x="640.6" y="419.4" width="11.9" height="50.6" fill="none" stroke="#e34948" stroke-width="1.1"/>
<rect x="662.2" y="438.6" width="11.9" height="31.4" fill="none" stroke="#e34948" stroke-width="1.1"/>
<rect x="683.8" y="436.2" width="11.9" height="33.8" fill="#008300"/>
<rect x="705.4" y="424.2" width="11.9" height="45.8" fill="#008300"/>
<rect x="727.0" y="407.3" width="11.9" height="62.7" fill="none" stroke="#e34948" stroke-width="1.1"/>
<rect x="748.5" y="433.8" width="11.9" height="36.2" fill="#008300"/>
<rect x="770.1" y="441.1" width="11.9" height="28.9" fill="none" stroke="#e34948" stroke-width="1.1"/>
<rect x="791.7" y="412.1" width="11.9" height="57.9" fill="none" stroke="#e34948" stroke-width="1.1"/>
<rect x="813.3" y="450.7" width="11.9" height="19.3" fill="#008300"/>
<polyline points="215.0,421.8 236.6,418.1 258.2,419.1 279.7,423.5 301.3,425.9 322.9,424.4 344.5,423.7 366.1,422.0 387.6,419.1 409.2,417.2 430.8,418.1 452.4,421.5 473.9,419.8 495.5,417.4 517.1,416.7 538.7,416.7 560.3,416.9 581.8,416.2 603.4,418.9 625.0,419.6 646.6,418.1 668.2,419.8 689.7,422.7 711.3,423.9 732.9,423.0 754.5,425.1 776.1,427.6 797.6,427.3 819.2,429.0" fill="none" stroke="#2a78d6" stroke-width="1.5" stroke-linejoin="round" stroke-linecap="round"/>
<polyline points="107.1,411.6 128.7,411.2 150.3,416.0 171.8,424.7 193.4,432.4 215.0,431.9 236.6,425.1 258.2,422.2 279.7,422.2 301.3,419.4 322.9,416.9 344.5,422.2 366.1,421.8 387.6,416.0 409.2,415.0 430.8,419.4 452.4,420.8 473.9,417.9 495.5,418.9 517.1,418.4 538.7,414.0 560.3,413.1 581.8,414.5 603.4,418.9 625.0,420.8 646.6,422.2 668.2,426.6 689.7,430.9 711.3,429.0 732.9,425.1 754.5,428.0 776.1,428.5 797.6,423.7 819.2,429.0" fill="none" stroke="#eda100" stroke-width="1.5" stroke-linejoin="round" stroke-linecap="round"/>
</svg>