<svg xmlns="http://www.w3.org/2000/svg" viewBox="0 0 840 496" width="840" height="496" font-family="-apple-system,&#39;Segoe UI&#39;,system-ui,sans-serif" role="img" aria-label="donnemartin/system-design-primer candlestick chart">
<text x="14.0" y="20.0" font-size="15" fill="#ffffff" font-weight="650">donnemartin/system-design-primer</text>
<text x="282.0" y="20.0" font-size="11.5" fill="#c3c2b7">daily · new stars, volume = new forks</text>
<text x="805.8" y="20.0" font-size="11.0" fill="#c3c2b7">fall</text>
<rect x="791" y="10" width="9" height="12" fill="#008300"/>
<text x="750.6" y="20.0" font-size="11.0" fill="#c3c2b7">rise</text>
<rect x="736" y="10" width="9" height="12" fill="none" stroke="#e66767" stroke-width="1.5"/>
<text x="14.0" y="38.0" font-size="11.0" fill="#898781">last 53 days · +8,179 stars · +1,017 forks · updated 2026-07-22</text>
<rect x="10" y="66" width="820" height="290" fill="none" stroke="#2c2c2a"/>
<rect x="10" y="384" width="820" height="86" fill="none" stroke="#2c2c2a"/>
<text x="38.0" y="490.0" font-size="11.0" fill="#898781" text-anchor="middle">2026-05</text>
<line x1="25.5" y1="66.0" x2="25.5" y2="356.0" stroke="#2c2c2a" stroke-width="1.0"/>
<line x1="25.5" y1="384.0" x2="25.5" y2="470.0" stroke="#2c2c2a" stroke-width="1.0"/>
<line x1="489.6" y1="66.0" x2="489.6" y2="356.0" stroke="#2c2c2a" stroke-width="1.0"/>
<line x1="489.6" y1="384.0" x2="489.6" y2="470.0" stroke="#2c2c2a" stroke-width="1.0"/>
<text x="497.4" y="490.0" font-size="11.0" fill="#898781" text-anchor="middle">2026-07</text>
<text x="14.0" y="58.0" font-size="11.0" fill="#c3c2b7">BOLL(20,2)</text>
<text x="84.5" y="58.0" font-size="11.0" fill="#c98500">UP:200.2</text>
<text x="142.9" y="58.0" font-size="11.0" fill="#3987e5">MID:143.8</text>
<text x="207.4" y="58.0" font-size="11.0" fill="#d55181">LOW:87.3</text>
<text x="265.8" y="58.0" font-size="11.0" fill="#9085e9">MA7:147.7</text>
<line x1="10.0" y1="356.0" x2="830.0" y2="356.0" stroke="#2c2c2a" stroke-width="1.0"/>
<text x="14.0" y="353.0" font-size="11.0" fill="#898781">0</text>
<line x1="10.0" y1="226.1" x2="830.0" y2="226.1" stroke="#2c2c2a" stroke-width="1.0"/>
<text x="14.0" y="223.1" font-size="11.0" fill="#898781">100</text>
<line x1="10.0" y1="96.2" x2="830.0" y2="96.2" stroke="#2c2c2a" stroke-width="1.0"/>
<text x="14.0" y="93.2" font-size="11.0" fill="#898781">200</text>
<polyline points="311.7,90.5 327.2,91.7 342.6,97.8 358.1,95.8 373.6,94.8 389.1,91.3 404.5,91.7 420.0,96.2 435.5,96.8 450.9,97.0 466.4,96.9 481.9,96.7 497.4,95.8 512.8,94.9 528.3,94.9 543.8,106.2 559.2,109.2 574.7,105.0 590.2,79.8 605.7,86.0 621.1,87.8 636.6,87.8 652.1,86.7 667.5,89.4 683.0,92.4 698.5,96.3 714.0,99.7 729.4,102.2 744.9,104.1 760.4,104.3 775.8,105.9 791.3,104.2 806.8,99.2 822.3,95.9" fill="none" stroke="#c98500" stroke-width="1.5" stroke-linejoin="round" stroke-linecap="round"/>
<polyline points="311.7,146.7 327.2,148.1 342.6,151.3 358.1,150.4 373.6,147.6 389.1,145.9 404.5,143.3 420.0,140.3 435.5,139.2 450.9,139.1 466.4,139.2 481.9,139.0 497.4,139.8 512.8,140.4 528.3,140.3 543.8,144.8 559.2,146.8 574.7,145.2 590.2,152.5 605.7,155.5 621.1,157.0 636.6,158.3 652.1,160.2 667.5,161.3 683.0,162.8 698.5,164.1 714.0,166.3 729.4,168.7 744.9,171.8 760.4,172.0 775.8,173.7 791.3,173.2 806.8,171.1 822.3,169.2" fill="none" stroke="#3987e5" stroke-width="1.5" stroke-linejoin="round" stroke-linecap="round"/>
<polyline points="311.7,202.9 327.2,204.4 342.6,204.7 358.1,205.0 373.6,200.4 389.1,200.4 404.5,194.8 420.0,184.5 435.5,181.7 450.9,181.2 466.4,181.6 481.9,181.4 497.4,183.8 512.8,185.9 528.3,185.6 543.8,183.3 559.2,184.5 574.7,185.4 590.2,225.2 605.7,225.1 621.1,226.3 636.6,228.7 652.1,233.6 667.5,233.1 683.0,233.2 698.5,231.9 714.0,232.8 729.4,235.3 744.9,239.6 760.4,239.6 775.8,241.6 791.3,242.3 806.8,242.9 822.3,242.6" fill="none" stroke="#d55181" stroke-width="1.5" stroke-linejoin="round" stroke-linecap="round"/>
<polyline points="110.6,157.7 126.0,162.4 141.5,170.6 157.0,172.7 172.5,166.5 187.9,167.1 203.4,163.7 218.9,156.8 234.3,144.6 249.8,138.6 265.3,137.6 280.8,137.0 296.2,129.9 311.7,126.4 327.2,127.7 342.6,140.2 358.1,140.5 373.6,138.1 389.1,134.8 404.5,138.9 420.0,139.6 435.5,137.2 450.9,135.9 466.4,140.7 481.9,142.0 497.4,149.8 512.8,155.5 528.3,156.7 543.8,160.3 559.2,160.7 574.7,154.6 590.2,175.4 605.7,174.9 621.1,174.0 636.6,179.2 652.1,184.1 667.5,181.8 683.0,188.4 698.5,168.0 714.0,169.4 729.4,172.9 744.9,175.9 760.4,169.7 775.8,176.3 791.3,171.6 806.8,169.7 822.3,164.1" fill="none" stroke="#9085e9" stroke-width="1.5" stroke-linejoin="round" stroke-linecap="round"/>
<rect x="13.5" y="135.1" width="8.5" height="220.9" fill="none" stroke="#e66767" stroke-width="1.3"/>
<rect x="29.0" y="105.3" width="8.5" height="29.9" fill="none" stroke="#e66767" stroke-width="1.3"/>
<rect x="44.4" y="105.3" width="8.5" height="35.1" fill="#008300"/>
<rect x="59.9" y="140.3" width="8.5" height="45.5" fill="#008300"/>
<rect x="75.4" y="150.7" width="8.5" height="35.1" fill="none" stroke="#e66767" stroke-width="1.3"/>
<rect x="90.8" y="150.7" width="8.5" height="35.1" fill="#008300"/>
<rect x="106.3" y="185.8" width="8.5" height="15.6" fill="#008300"/>
<rect x="121.8" y="167.6" width="8.5" height="33.8" fill="none" stroke="#e66767" stroke-width="1.3"/>
<rect x="137.3" y="162.4" width="8.5" height="5.2" fill="none" stroke="#e66767" stroke-width="1.3"/>
<rect x="152.7" y="154.6" width="8.5" height="7.8" fill="none" stroke="#e66767" stroke-width="1.3"/>
<rect x="168.2" y="142.9" width="8.5" height="11.7" fill="none" stroke="#e66767" stroke-width="1.3"/>
<rect x="183.7" y="142.9" width="8.5" height="11.7" fill="#008300"/>
<rect x="199.1" y="154.6" width="8.5" height="7.8" fill="#008300"/>
<rect x="214.6" y="153.3" width="8.5" height="9.1" fill="none" stroke="#e66767" stroke-width="1.3"/>
<rect x="230.1" y="81.9" width="8.5" height="71.5" fill="none" stroke="#e66767" stroke-width="1.3"/>
<rect x="245.6" y="81.9" width="8.5" height="39.0" fill="#008300"/>
<rect x="261.0" y="120.9" width="8.5" height="26.0" fill="#008300"/>
<rect x="276.5" y="139.0" width="8.5" height="7.8" fill="none" stroke="#e66767" stroke-width="1.3"/>
<rect x="292.0" y="105.3" width="8.5" height="33.8" fill="none" stroke="#e66767" stroke-width="1.3"/>
<rect x="307.4" y="105.3" width="8.5" height="32.5" fill="#008300"/>
<rect x="322.9" y="137.7" width="8.5" height="24.7" fill="#008300"/>
<rect x="338.4" y="162.4" width="8.5" height="6.5" fill="#008300"/>
<rect x="353.9" y="123.4" width="8.5" height="45.5" fill="none" stroke="#e66767" stroke-width="1.3"/>
<rect x="369.3" y="123.4" width="8.5" height="6.5" fill="#008300"/>
<rect x="384.8" y="115.7" width="8.5" height="14.3" fill="none" stroke="#e66767" stroke-width="1.3"/>
<rect x="400.3" y="115.7" width="8.5" height="18.2" fill="#008300"/>
<rect x="415.7" y="133.8" width="8.5" height="9.1" fill="#008300"/>
<rect x="431.2" y="142.9" width="8.5" height="2.6" fill="#008300"/>
<rect x="446.7" y="145.5" width="8.5" height="14.3" fill="#008300"/>
<rect x="462.2" y="157.2" width="8.5" height="2.6" fill="none" stroke="#e66767" stroke-width="1.3"/>
<rect x="477.6" y="139.0" width="8.5" height="18.2" fill="none" stroke="#e66767" stroke-width="1.3"/>
<rect x="493.1" y="139.0" width="8.5" height="31.2" fill="#008300"/>
<rect x="508.6" y="170.2" width="8.5" height="3.9" fill="#008300"/>
<rect x="524.0" y="150.7" width="8.5" height="23.4" fill="none" stroke="#e66767" stroke-width="1.3"/>
<rect x="539.5" y="150.7" width="8.5" height="20.8" fill="#008300"/>
<rect x="555.0" y="162.4" width="8.5" height="9.1" fill="none" stroke="#e66767" stroke-width="1.3"/>
<rect x="570.5" y="114.4" width="8.5" height="48.1" fill="none" stroke="#e66767" stroke-width="1.3"/>
<rect x="585.9" y="114.4" width="8.5" height="170.2" fill="#008300"/>
<rect x="601.4" y="166.3" width="8.5" height="118.2" fill="none" stroke="#e66767" stroke-width="1.3"/>
<rect x="616.9" y="166.3" width="8.5" height="1.3" fill="#008300"/>
<rect x="632.3" y="167.6" width="8.5" height="19.5" fill="#008300"/>
<rect x="647.8" y="187.1" width="8.5" height="19.5" fill="#008300"/>
<rect x="663.3" y="145.5" width="8.5" height="61.1" fill="none" stroke="#e66767" stroke-width="1.3"/>
<rect x="678.8" y="145.5" width="8.5" height="15.6" fill="#008300"/>
<rect x="694.2" y="141.6" width="8.5" height="19.5" fill="none" stroke="#e66767" stroke-width="1.3"/>
<rect x="709.7" y="141.6" width="8.5" height="35.1" fill="#008300"/>
<rect x="725.2" y="176.7" width="8.5" height="15.6" fill="#008300"/>
<rect x="740.7" y="192.3" width="8.5" height="15.6" fill="#008300"/>
<rect x="756.1" y="162.4" width="8.5" height="45.5" fill="none" stroke="#e66767" stroke-width="1.3"/>
<rect x="771.6" y="162.4" width="8.5" height="29.9" fill="#008300"/>
<rect x="787.1" y="128.6" width="8.5" height="63.7" fill="none" stroke="#e66767" stroke-width="1.3"/>
<rect x="802.5" y="127.3" width="8.5" height="1.3" fill="none" stroke="#e66767" stroke-width="1.3"/>
<rect x="818.0" y="127.3" width="8.5" height="10.4" fill="#008300"/>
<circle cx="234.3" cy="81.9" r="2" fill="#c3c2b7"/>
<line x1="234.3" y1="81.9" x2="242.3" y2="81.9" stroke="#c3c2b7" stroke-width="1.0"/>
<text x="245.3" y="85.9" font-size="11.0" fill="#c3c2b7">211</text>
<circle cx="17.7" cy="356.0" r="2" fill="#c3c2b7"/>
<line x1="17.7" y1="356.0" x2="25.7" y2="356.0" stroke="#c3c2b7" stroke-width="1.0"/>
<text x="28.7" y="350.0" font-size="11.0" fill="#c3c2b7">0</text>
<text x="14.0" y="376.0" font-size="11.0" fill="#c3c2b7">VOL 19 forks</text>
<text x="96.6" y="376.0" font-size="11.0" fill="#c98500">MA5:17.4</text>
<text x="155.0" y="376.0" font-size="11.0" fill="#3987e5">MA10:19</text>
<text x="14.0" y="395.0" font-size="10" fill="#898781">46</text>
<rect x="13.5" y="436.1" width="8.5" height="33.9" fill="none" stroke="#e66767" stroke-width="1.1"/>
<rect x="29.0" y="429.0" width="8.5" height="41.0" fill="none" stroke="#e66767" stroke-width="1.1"/>
<rect x="44.4" y="413.0" width="8.5" height="57.0" fill="#008300"/>
<rect x="59.9" y="418.3" width="8.5" height="51.7" fill="#008300"/>
<rect x="75.4" y="437.9" width="8.5" height="32.1" fill="none" stroke="#e66767" stroke-width="1.1"/>
<rect x="90.8" y="434.3" width="8.5" height="35.7" fill="#008300"/>
<rect x="106.3" y="446.8" width="8.5" height="23.2" fill="#008300"/>
<rect x="121.8" y="445.0" width="8.5" height="25.0" fill="none" stroke="#e66767" stroke-width="1.1"/>
<rect x="137.3" y="446.8" width="8.5" height="23.2" fill="none" stroke="#e66767" stroke-width="1.1"/>
<rect x="152.7" y="436.1" width="8.5" height="33.9" fill="none" stroke="#e66767" stroke-width="1.1"/>
<rect x="168.2" y="409.4" width="8.5" height="60.6" fill="none" stroke="#e66767" stroke-width="1.1"/>
<rect x="183.7" y="436.1" width="8.5" height="33.9" fill="#008300"/>
<rect x="199.1" y="445.0" width="8.5" height="25.0" fill="#008300"/>
<rect x="214.6" y="436.1" width="8.5" height="33.9" fill="none" stroke="#e66767" stroke-width="1.1"/>
<rect x="230.1" y="427.2" width="8.5" height="42.8" fill="none" stroke="#e66767" stroke-width="1.1"/>
<rect x="245.6" y="429.0" width="8.5" height="41.0" fill="#008300"/>
<rect x="261.0" y="434.3" width="8.5" height="35.7" fill="#008300"/>
<rect x="276.5" y="423.7" width="8.5" height="46.3" fill="none" stroke="#e66767" stroke-width="1.1"/>
<rect x="292.0" y="432.6" width="8.5" height="37.4" fill="none" stroke="#e66767" stroke-width="1.1"/>
<rect x="307.4" y="443.3" width="8.5" height="26.7" fill="#008300"/>
<rect x="322.9" y="434.3" width="8.5" height="35.7" fill="#008300"/>
<rect x="338.4" y="423.7" width="8.5" height="46.3" fill="#008300"/>
<rect x="353.9" y="427.2" width="8.5" height="42.8" fill="none" stroke="#e66767" stroke-width="1.1"/>
<rect x="369.3" y="430.8" width="8.5" height="39.2" fill="#008300"/>
<rect x="384.8" y="427.2" width="8.5" height="42.8" fill="none" stroke="#e66767" stroke-width="1.1"/>
<rect x="400.3" y="430.8" width="8.5" height="39.2" fill="#008300"/>
<rect x="415.7" y="429.0" width="8.5" height="41.0" fill="#008300"/>
<rect x="431.2" y="443.3" width="8.5" height="26.7" fill="#008300"/>
<rect x="446.7" y="437.9" width="8.5" height="32.1" fill="#008300"/>
<rect x="462.2" y="432.6" width="8.5" height="37.4" fill="none" stroke="#e66767" stroke-width="1.1"/>
<rect x="477.6" y="446.8" width="8.5" height="23.2" fill="none" stroke="#e66767" stroke-width="1.1"/>
<rect x="493.1" y="445.0" width="8.5" height="25.0" fill="#008300"/>
<rect x="508.6" y="436.1" width="8.5" height="33.9" fill="#008300"/>
<rect x="524.0" y="423.7" width="8.5" height="46.3" fill="none" stroke="#e66767" stroke-width="1.1"/>
<rect x="539.5" y="443.3" width="8.5" height="26.7" fill="#008300"/>
<rect x="555.0" y="448.6" width="8.5" height="21.4" fill="none" stroke="#e66767" stroke-width="1.1"/>
<rect x="570.5" y="427.2" width="8.5" height="42.8" fill="none" stroke="#e66767" stroke-width="1.1"/>
<rect x="585.9" y="455.7" width="8.5" height="14.3" fill="#008300"/>
<rect x="601.4" y="439.7" width="8.5" height="30.3" fill="none" stroke="#e66767" stroke-width="1.1"/>
<rect x="616.9" y="448.6" width="8.5" height="21.4" fill="#008300"/>
<rect x="632.3" y="437.9" width="8.5" height="32.1" fill="#008300"/>
<rect x="647.8" y="452.2" width="8.5" height="17.8" fill="#008300"/>
<rect x="663.3" y="454.0" width="8.5" height="16.0" fill="none" stroke="#e66767" stroke-width="1.1"/>
<rect x="678.8" y="441.5" width="8.5" height="28.5" fill="#008300"/>
<rect x="694.2" y="388.0" width="8.5" height="82.0" fill="none" stroke="#e66767" stroke-width="1.1"/>
<rect x="709.7" y="439.7" width="8.5" height="30.3" fill="#008300"/>
<rect x="725.2" y="461.1" width="8.5" height="8.9" fill="#008300"/>
<rect x="740.7" y="436.1" width="8.5" height="33.9" fill="#008300"/>
<rect x="756.1" y="443.3" width="8.5" height="26.7" fill="none" stroke="#e66767" stroke-width="1.1"/>
<rect x="771.6" y="459.3" width="8.5" height="10.7" fill="#008300"/>
<rect x="787.1" y="429.0" width="8.5" height="41.0" fill="none" stroke="#e66767" stroke-width="1.1"/>
<rect x="802.5" y="427.2" width="8.5" height="42.8" fill="none" stroke="#e66767" stroke-width="1.1"/>
<rect x="818.0" y="436.1" width="8.5" height="33.9" fill="#008300"/>
<polyline points="157.0,434.3 172.5,431.7 187.9,432.4 203.4,435.6 218.9,437.4 234.3,436.3 249.8,435.8 265.3,434.5 280.8,432.4 296.2,431.0 311.7,431.7 327.2,434.2 342.6,432.9 358.1,431.1 373.6,430.6 389.1,430.6 404.5,430.8 420.0,430.2 435.5,432.2 450.9,432.7 466.4,431.7 481.9,432.9 497.4,435.1 512.8,436.0 528.3,435.2 543.8,436.8 559.2,438.6 574.7,438.4 590.2,439.7 605.7,439.9 621.1,441.5 636.6,440.6 652.1,441.3 667.5,443.1 683.0,444.9 698.5,439.3 714.0,438.4 729.4,441.8 744.9,439.9 760.4,440.2 775.8,441.3 791.3,440.4 806.8,437.9 822.3,436.1" fill="none" stroke="#3987e5" stroke-width="1.5" stroke-linejoin="round" stroke-linecap="round"/>
<polyline points="79.6,426.9 95.1,426.5 110.6,430.1 126.0,436.5 141.5,442.2 157.0,441.8 172.5,436.8 187.9,434.7 203.4,434.7 218.9,432.6 234.3,430.8 249.8,434.7 265.3,434.3 280.8,430.1 296.2,429.4 311.7,432.6 327.2,433.6 342.6,431.5 358.1,432.2 373.6,431.9 389.1,428.6 404.5,427.9 420.0,429.0 435.5,432.2 450.9,433.6 466.4,434.7 481.9,437.9 497.4,441.1 512.8,439.7 528.3,436.8 543.8,439.0 559.2,439.3 574.7,435.8 590.2,439.7 605.7,442.9 621.1,444.0 636.6,441.8 652.1,446.8 667.5,446.5 683.0,446.8 698.5,434.7 714.0,435.1 729.4,436.8 744.9,433.3 760.4,433.6 775.8,447.9 791.3,445.8 806.8,439.0 822.3,439.0" fill="none" stroke="#c98500" stroke-width="1.5" stroke-linejoin="round" stroke-linecap="round"/>
</svg>