<svg xmlns="http://www.w3.org/2000/svg" viewBox="0 0 840 496" width="840" height="496" font-family="-apple-system,&#39;Segoe UI&#39;,system-ui,sans-serif" role="img" aria-label="donnemartin/system-design-primer candlestick chart">
<text x="14.0" y="20.0" font-size="15" fill="#ffffff" font-weight="650">donnemartin/system-design-primer</text>
<text x="282.0" y="20.0" font-size="11.5" fill="#c3c2b7">daily · new stars, volume = new forks</text>
<text x="805.8" y="20.0" font-size="11.0" fill="#c3c2b7">fall</text>
<rect x="791" y="10" width="9" height="12" fill="#008300"/>
<text x="750.6" y="20.0" font-size="11.0" fill="#c3c2b7">rise</text>
<rect x="736" y="10" width="9" height="12" fill="none" stroke="#e66767" stroke-width="1.5"/>
<text x="14.0" y="38.0" font-size="11.0" fill="#898781">last 50 days · +7,660 stars · +951 forks · updated 2026-07-19</text>
<rect x="10" y="66" width="820" height="290" fill="none" stroke="#2c2c2a"/>
<rect x="10" y="384" width="820" height="86" fill="none" stroke="#2c2c2a"/>
<text x="38.0" y="490.0" font-size="11.0" fill="#898781" text-anchor="middle">2026-05</text>
<line x1="26.4" y1="66.0" x2="26.4" y2="356.0" stroke="#2c2c2a" stroke-width="1.0"/>
<line x1="26.4" y1="384.0" x2="26.4" y2="470.0" stroke="#2c2c2a" stroke-width="1.0"/>
<line x1="518.4" y1="66.0" x2="518.4" y2="356.0" stroke="#2c2c2a" stroke-width="1.0"/>
<line x1="518.4" y1="384.0" x2="518.4" y2="470.0" stroke="#2c2c2a" stroke-width="1.0"/>
<text x="526.6" y="490.0" font-size="11.0" fill="#898781" text-anchor="middle">2026-07</text>
<text x="14.0" y="58.0" font-size="11.0" fill="#c3c2b7">BOLL(20,2)</text>
<text x="84.5" y="58.0" font-size="11.0" fill="#c98500">UP:192.5</text>
<text x="142.9" y="58.0" font-size="11.0" fill="#3987e5">MID:140.3</text>
<text x="207.4" y="58.0" font-size="11.0" fill="#d55181">LOW:88.1</text>
<text x="265.8" y="58.0" font-size="11.0" fill="#9085e9">MA7:138.3</text>
<line x1="10.0" y1="356.0" x2="830.0" y2="356.0" stroke="#2c2c2a" stroke-width="1.0"/>
<text x="14.0" y="353.0" font-size="11.0" fill="#898781">0</text>
<line x1="10.0" y1="226.1" x2="830.0" y2="226.1" stroke="#2c2c2a" stroke-width="1.0"/>
<text x="14.0" y="223.1" font-size="11.0" fill="#898781">100</text>
<line x1="10.0" y1="96.2" x2="830.0" y2="96.2" stroke="#2c2c2a" stroke-width="1.0"/>
<text x="14.0" y="93.2" font-size="11.0" fill="#898781">200</text>
<polyline points="329.8,90.5 346.2,91.7 362.6,97.8 379.0,95.8 395.4,94.8 411.8,91.3 428.2,91.7 444.6,96.2 461.0,96.8 477.4,97.0 493.8,96.9 510.2,96.7 526.6,95.8 543.0,94.9 559.4,94.9 575.8,106.2 592.2,109.2 608.6,105.0 625.0,79.8 641.4,86.0 657.8,87.8 674.2,87.8 690.6,86.7 707.0,89.4 723.4,92.4 739.8,96.3 756.2,99.7 772.6,102.2 789.0,104.1 805.4,104.3 821.8,105.9" fill="none" stroke="#c98500" stroke-width="1.5" stroke-linejoin="round" stroke-linecap="round"/>
<polyline points="329.8,146.7 346.2,148.1 362.6,151.3 379.0,150.4 395.4,147.6 411.8,145.9 428.2,143.3 444.6,140.3 461.0,139.2 477.4,139.1 493.8,139.2 510.2,139.0 526.6,139.8 543.0,140.4 559.4,140.3 575.8,144.8 592.2,146.8 608.6,145.2 625.0,152.5 641.4,155.5 657.8,157.0 674.2,158.3 690.6,160.2 707.0,161.3 723.4,162.8 739.8,164.1 756.2,166.3 772.6,168.7 789.0,171.8 805.4,172.0 821.8,173.7" fill="none" stroke="#3987e5" stroke-width="1.5" stroke-linejoin="round" stroke-linecap="round"/>
<polyline points="329.8,202.9 346.2,204.4 362.6,204.7 379.0,205.0 395.4,200.4 411.8,200.4 428.2,194.8 444.6,184.5 461.0,181.7 477.4,181.2 493.8,181.6 510.2,181.4 526.6,183.8 543.0,185.9 559.4,185.6 575.8,183.3 592.2,184.5 608.6,185.4 625.0,225.2 641.4,225.1 657.8,226.3 674.2,228.7 690.6,233.6 707.0,233.1 723.4,233.2 739.8,231.9 756.2,232.8 772.6,235.3 789.0,239.6 805.4,239.6 821.8,241.6" fill="none" stroke="#d55181" stroke-width="1.5" stroke-linejoin="round" stroke-linecap="round"/>
<polyline points="116.6,157.7 133.0,162.4 149.4,170.6 165.8,172.7 182.2,166.5 198.6,167.1 215.0,163.7 231.4,156.8 247.8,144.6 264.2,138.6 280.6,137.6 297.0,137.0 313.4,129.9 329.8,126.4 346.2,127.7 362.6,140.2 379.0,140.5 395.4,138.1 411.8,134.8 428.2,138.9 444.6,139.6 461.0,137.2 477.4,135.9 493.8,140.7 510.2,142.0 526.6,149.8 543.0,155.5 559.4,156.7 575.8,160.3 592.2,160.7 608.6,154.6 625.0,175.4 641.4,174.9 657.8,174.0 674.2,179.2 690.6,184.1 707.0,181.8 723.4,188.4 739.8,168.0 756.2,169.4 772.6,172.9 789.0,175.9 805.4,169.7 821.8,176.3" fill="none" stroke="#9085e9" stroke-width="1.5" stroke-linejoin="round" stroke-linecap="round"/>
<rect x="13.7" y="135.1" width="9.0" height="220.9" fill="none" stroke="#e66767" stroke-width="1.3"/>
<rect x="30.1" y="105.3" width="9.0" height="29.9" fill="none" stroke="#e66767" stroke-width="1.3"/>
<rect x="46.5" y="105.3" width="9.0" height="35.1" fill="#008300"/>
<rect x="62.9" y="140.3" width="9.0" height="45.5" fill="#008300"/>
<rect x="79.3" y="150.7" width="9.0" height="35.1" fill="none" stroke="#e66767" stroke-width="1.3"/>
<rect x="95.7" y="150.7" width="9.0" height="35.1" fill="#008300"/>
<rect x="112.1" y="185.8" width="9.0" height="15.6" fill="#008300"/>
<rect x="128.5" y="167.6" width="9.0" height="33.8" fill="none" stroke="#e66767" stroke-width="1.3"/>
<rect x="144.9" y="162.4" width="9.0" height="5.2" fill="none" stroke="#e66767" stroke-width="1.3"/>
<rect x="161.3" y="154.6" width="9.0" height="7.8" fill="none" stroke="#e66767" stroke-width="1.3"/>
<rect x="177.7" y="142.9" width="9.0" height="11.7" fill="none" stroke="#e66767" stroke-width="1.3"/>
<rect x="194.1" y="142.9" width="9.0" height="11.7" fill="#008300"/>
<rect x="210.5" y="154.6" width="9.0" height="7.8" fill="#008300"/>
<rect x="226.9" y="153.3" width="9.0" height="9.1" fill="none" stroke="#e66767" stroke-width="1.3"/>
<rect x="243.3" y="81.9" width="9.0" height="71.5" fill="none" stroke="#e66767" stroke-width="1.3"/>
<rect x="259.7" y="81.9" width="9.0" height="39.0" fill="#008300"/>
<rect x="276.1" y="120.9" width="9.0" height="26.0" fill="#008300"/>
<rect x="292.5" y="139.0" width="9.0" height="7.8" fill="none" stroke="#e66767" stroke-width="1.3"/>
<rect x="308.9" y="105.3" width="9.0" height="33.8" fill="none" stroke="#e66767" stroke-width="1.3"/>
<rect x="325.3" y="105.3" width="9.0" height="32.5" fill="#008300"/>
<rect x="341.7" y="137.7" width="9.0" height="24.7" fill="#008300"/>
<rect x="358.1" y="162.4" width="9.0" height="6.5" fill="#008300"/>
<rect x="374.5" y="123.4" width="9.0" height="45.5" fill="none" stroke="#e66767" stroke-width="1.3"/>
<rect x="390.9" y="123.4" width="9.0" height="6.5" fill="#008300"/>
<rect x="407.3" y="115.7" width="9.0" height="14.3" fill="none" stroke="#e66767" stroke-width="1.3"/>
<rect x="423.7" y="115.7" width="9.0" height="18.2" fill="#008300"/>
<rect x="440.1" y="133.8" width="9.0" height="9.1" fill="#008300"/>
<rect x="456.5" y="142.9" width="9.0" height="2.6" fill="#008300"/>
<rect x="472.9" y="145.5" width="9.0" height="14.3" fill="#008300"/>
<rect x="489.3" y="157.2" width="9.0" height="2.6" fill="none" stroke="#e66767" stroke-width="1.3"/>
<rect x="505.7" y="139.0" width="9.0" height="18.2" fill="none" stroke="#e66767" stroke-width="1.3"/>
<rect x="522.1" y="139.0" width="9.0" height="31.2" fill="#008300"/>
<rect x="538.5" y="170.2" width="9.0" height="3.9" fill="#008300"/>
<rect x="554.9" y="150.7" width="9.0" height="23.4" fill="none" stroke="#e66767" stroke-width="1.3"/>
<rect x="571.3" y="150.7" width="9.0" height="20.8" fill="#008300"/>
<rect x="587.7" y="162.4" width="9.0" height="9.1" fill="none" stroke="#e66767" stroke-width="1.3"/>
<rect x="604.1" y="114.4" width="9.0" height="48.1" fill="none" stroke="#e66767" stroke-width="1.3"/>
<rect x="620.5" y="114.4" width="9.0" height="170.2" fill="#008300"/>
<rect x="636.9" y="166.3" width="9.0" height="118.2" fill="none" stroke="#e66767" stroke-width="1.3"/>
<rect x="653.3" y="166.3" width="9.0" height="1.3" fill="#008300"/>
<rect x="669.7" y="167.6" width="9.0" height="19.5" fill="#008300"/>
<rect x="686.1" y="187.1" width="9.0" height="19.5" fill="#008300"/>
<rect x="702.5" y="145.5" width="9.0" height="61.1" fill="none" stroke="#e66767" stroke-width="1.3"/>
<rect x="718.9" y="145.5" width="9.0" height="15.6" fill="#008300"/>
<rect x="735.3" y="141.6" width="9.0" height="19.5" fill="none" stroke="#e66767" stroke-width="1.3"/>
<rect x="751.7" y="141.6" width="9.0" height="35.1" fill="#008300"/>
<rect x="768.1" y="176.7" width="9.0" height="15.6" fill="#008300"/>
<rect x="784.5" y="192.3" width="9.0" height="15.6" fill="#008300"/>
<rect x="800.9" y="162.4" width="9.0" height="45.5" fill="none" stroke="#e66767" stroke-width="1.3"/>
<rect x="817.3" y="162.4" width="9.0" height="29.9" fill="#008300"/>
<circle cx="247.8" cy="81.9" r="2" fill="#c3c2b7"/>
<line x1="247.8" y1="81.9" x2="255.8" y2="81.9" stroke="#c3c2b7" stroke-width="1.0"/>
<text x="258.8" y="85.9" font-size="11.0" fill="#c3c2b7">211</text>
<circle cx="18.2" cy="356.0" r="2" fill="#c3c2b7"/>
<line x1="18.2" y1="356.0" x2="26.2" y2="356.0" stroke="#c3c2b7" stroke-width="1.0"/>
<text x="29.2" y="350.0" font-size="11.0" fill="#c3c2b7">0</text>
<text x="14.0" y="376.0" font-size="11.0" fill="#c3c2b7">VOL 6 forks</text>
<text x="90.6" y="376.0" font-size="11.0" fill="#c98500">MA5:12.4</text>
<text x="149.0" y="376.0" font-size="11.0" fill="#3987e5">MA10:16.1</text>
<text x="14.0" y="395.0" font-size="10" fill="#898781">46</text>
<rect x="13.7" y="436.1" width="9.0" height="33.9" fill="none" stroke="#e66767" stroke-width="1.1"/>
<rect x="30.1" y="429.0" width="9.0" height="41.0" fill="none" stroke="#e66767" stroke-width="1.1"/>
<rect x="46.5" y="413.0" width="9.0" height="57.0" fill="#008300"/>
<rect x="62.9" y="418.3" width="9.0" height="51.7" fill="#008300"/>
<rect x="79.3" y="437.9" width="9.0" height="32.1" fill="none" stroke="#e66767" stroke-width="1.1"/>
<rect x="95.7" y="434.3" width="9.0" height="35.7" fill="#008300"/>
<rect x="112.1" y="446.8" width="9.0" height="23.2" fill="#008300"/>
<rect x="128.5" y="445.0" width="9.0" height="25.0" fill="none" stroke="#e66767" stroke-width="1.1"/>
<rect x="144.9" y="446.8" width="9.0" height="23.2" fill="none" stroke="#e66767" stroke-width="1.1"/>
<rect x="161.3" y="436.1" width="9.0" height="33.9" fill="none" stroke="#e66767" stroke-width="1.1"/>
<rect x="177.7" y="409.4" width="9.0" height="60.6" fill="none" stroke="#e66767" stroke-width="1.1"/>
<rect x="194.1" y="436.1" width="9.0" height="33.9" fill="#008300"/>
<rect x="210.5" y="445.0" width="9.0" height="25.0" fill="#008300"/>
<rect x="226.9" y="436.1" width="9.0" height="33.9" fill="none" stroke="#e66767" stroke-width="1.1"/>
<rect x="243.3" y="427.2" width="9.0" height="42.8" fill="none" stroke="#e66767" stroke-width="1.1"/>
<rect x="259.7" y="429.0" width="9.0" height="41.0" fill="#008300"/>
<rect x="276.1" y="434.3" width="9.0" height="35.7" fill="#008300"/>
<rect x="292.5" y="423.7" width="9.0" height="46.3" fill="none" stroke="#e66767" stroke-width="1.1"/>
<rect x="308.9" y="432.6" width="9.0" height="37.4" fill="none" stroke="#e66767" stroke-width="1.1"/>
<rect x="325.3" y="443.3" width="9.0" height="26.7" fill="#008300"/>
<rect x="341.7" y="434.3" width="9.0" height="35.7" fill="#008300"/>
<rect x="358.1" y="423.7" width="9.0" height="46.3" fill="#008300"/>
<rect x="374.5" y="427.2" width="9.0" height="42.8" fill="none" stroke="#e66767" stroke-width="1.1"/>
<rect x="390.9" y="430.8" width="9.0" height="39.2" fill="#008300"/>
<rect x="407.3" y="427.2" width="9.0" height="42.8" fill="none" stroke="#e66767" stroke-width="1.1"/>
<rect x="423.7" y="430.8" width="9.0" height="39.2" fill="#008300"/>
<rect x="440.1" y="429.0" width="9.0" height="41.0" fill="#008300"/>
<rect x="456.5" y="443.3" width="9.0" height="26.7" fill="#008300"/>
<rect x="472.9" y="437.9" width="9.0" height="32.1" fill="#008300"/>
<rect x="489.3" y="432.6" width="9.0" height="37.4" fill="none" stroke="#e66767" stroke-width="1.1"/>
<rect x="505.7" y="446.8" width="9.0" height="23.2" fill="none" stroke="#e66767" stroke-width="1.1"/>
<rect x="522.1" y="445.0" width="9.0" height="25.0" fill="#008300"/>
<rect x="538.5" y="436.1" width="9.0" height="33.9" fill="#008300"/>
<rect x="554.9" y="423.7" width="9.0" height="46.3" fill="none" stroke="#e66767" stroke-width="1.1"/>
<rect x="571.3" y="443.3" width="9.0" height="26.7" fill="#008300"/>
<rect x="587.7" y="448.6" width="9.0" height="21.4" fill="none" stroke="#e66767" stroke-width="1.1"/>
<rect x="604.1" y="427.2" width="9.0" height="42.8" fill="none" stroke="#e66767" stroke-width="1.1"/>
<rect x="620.5" y="455.7" width="9.0" height="14.3" fill="#008300"/>
<rect x="636.9" y="439.7" width="9.0" height="30.3" fill="none" stroke="#e66767" stroke-width="1.1"/>
<rect x="653.3" y="448.6" width="9.0" height="21.4" fill="#008300"/>
<rect x="669.7" y="437.9" width="9.0" height="32.1" fill="#008300"/>
<rect x="686.1" y="452.2" width="9.0" height="17.8" fill="#008300"/>
<rect x="702.5" y="454.0" width="9.0" height="16.0" fill="none" stroke="#e66767" stroke-width="1.1"/>
<rect x="718.9" y="441.5" width="9.0" height="28.5" fill="#008300"/>
<rect x="735.3" y="388.0" width="9.0" height="82.0" fill="none" stroke="#e66767" stroke-width="1.1"/>
<rect x="751.7" y="439.7" width="9.0" height="30.3" fill="#008300"/>
<rect x="768.1" y="461.1" width="9.0" height="8.9" fill="#008300"/>
<rect x="784.5" y="436.1" width="9.0" height="33.9" fill="#008300"/>
<rect x="800.9" y="443.3" width="9.0" height="26.7" fill="none" stroke="#e66767" stroke-width="1.1"/>
<rect x="817.3" y="459.3" width="9.0" height="10.7" fill="#008300"/>
<polyline points="165.8,434.3 182.2,431.7 198.6,432.4 215.0,435.6 231.4,437.4 247.8,436.3 264.2,435.8 280.6,434.5 297.0,432.4 313.4,431.0 329.8,431.7 346.2,434.2 362.6,432.9 379.0,431.1 395.4,430.6 411.8,430.6 428.2,430.8 444.6,430.2 461.0,432.2 477.4,432.7 493.8,431.7 510.2,432.9 526.6,435.1 543.0,436.0 559.4,435.2 575.8,436.8 592.2,438.6 608.6,438.4 625.0,439.7 641.4,439.9 657.8,441.5 674.2,440.6 690.6,441.3 707.0,443.1 723.4,444.9 739.8,439.3 756.2,438.4 772.6,441.8 789.0,439.9 805.4,440.2 821.8,441.3" fill="none" stroke="#3987e5" stroke-width="1.5" stroke-linejoin="round" stroke-linecap="round"/>
<polyline points="83.8,426.9 100.2,426.5 116.6,430.1 133.0,436.5 149.4,442.2 165.8,441.8 182.2,436.8 198.6,434.7 215.0,434.7 231.4,432.6 247.8,430.8 264.2,434.7 280.6,434.3 297.0,430.1 313.4,429.4 329.8,432.6 346.2,433.6 362.6,431.5 379.0,432.2 395.4,431.9 411.8,428.6 428.2,427.9 444.6,429.0 461.0,432.2 477.4,433.6 493.8,434.7 510.2,437.9 526.6,441.1 543.0,439.7 559.4,436.8 575.8,439.0 592.2,439.3 608.6,435.8 625.0,439.7 641.4,442.9 657.8,444.0 674.2,441.8 690.6,446.8 707.0,446.5 723.4,446.8 739.8,434.7 756.2,435.1 772.6,436.8 789.0,433.3 805.4,433.6 821.8,447.9" fill="none" stroke="#c98500" stroke-width="1.5" stroke-linejoin="round" stroke-linecap="round"/>
</svg>