<svg xmlns="http://www.w3.org/2000/svg" viewBox="0 0 840 496" width="840" height="496" font-family="-apple-system,&#39;Segoe UI&#39;,system-ui,sans-serif" role="img" aria-label="donnemartin/system-design-primer candlestick chart">
<text x="14.0" y="20.0" font-size="15" fill="#ffffff" font-weight="650">donnemartin/system-design-primer</text>
<text x="282.0" y="20.0" font-size="11.5" fill="#c3c2b7">daily · new stars, volume = new forks</text>
<text x="805.8" y="20.0" font-size="11.0" fill="#c3c2b7">fall</text>
<rect x="791" y="10" width="9" height="12" fill="#008300"/>
<text x="750.6" y="20.0" font-size="11.0" fill="#c3c2b7">rise</text>
<rect x="736" y="10" width="9" height="12" fill="none" stroke="#e66767" stroke-width="1.5"/>
<text x="14.0" y="38.0" font-size="11.0" fill="#898781">last 55 days · +8,469 stars · +1,067 forks · updated 2026-07-24</text>
<rect x="10" y="66" width="820" height="290" fill="none" stroke="#2c2c2a"/>
<rect x="10" y="384" width="820" height="86" fill="none" stroke="#2c2c2a"/>
<text x="38.0" y="490.0" font-size="11.0" fill="#898781" text-anchor="middle">2026-05</text>
<line x1="24.9" y1="66.0" x2="24.9" y2="356.0" stroke="#2c2c2a" stroke-width="1.0"/>
<line x1="24.9" y1="384.0" x2="24.9" y2="470.0" stroke="#2c2c2a" stroke-width="1.0"/>
<line x1="472.2" y1="66.0" x2="472.2" y2="356.0" stroke="#2c2c2a" stroke-width="1.0"/>
<line x1="472.2" y1="384.0" x2="472.2" y2="470.0" stroke="#2c2c2a" stroke-width="1.0"/>
<text x="479.6" y="490.0" font-size="11.0" fill="#898781" text-anchor="middle">2026-07</text>
<text x="14.0" y="58.0" font-size="11.0" fill="#c3c2b7">BOLL(20,2)</text>
<text x="84.5" y="58.0" font-size="11.0" fill="#c98500">UP:199.9</text>
<text x="142.9" y="58.0" font-size="11.0" fill="#3987e5">MID:143.2</text>
<text x="207.4" y="58.0" font-size="11.0" fill="#d55181">LOW:86.6</text>
<text x="265.8" y="58.0" font-size="11.0" fill="#9085e9">MA7:154.9</text>
<line x1="10.0" y1="356.0" x2="830.0" y2="356.0" stroke="#2c2c2a" stroke-width="1.0"/>
<text x="14.0" y="353.0" font-size="11.0" fill="#898781">0</text>
<line x1="10.0" y1="226.1" x2="830.0" y2="226.1" stroke="#2c2c2a" stroke-width="1.0"/>
<text x="14.0" y="223.1" font-size="11.0" fill="#898781">100</text>
<line x1="10.0" y1="96.2" x2="830.0" y2="96.2" stroke="#2c2c2a" stroke-width="1.0"/>
<text x="14.0" y="93.2" font-size="11.0" fill="#898781">200</text>
<polyline points="300.7,90.5 315.6,91.7 330.5,97.8 345.5,95.8 360.4,94.8 375.3,91.3 390.2,91.7 405.1,96.2 420.0,96.8 434.9,97.0 449.8,96.9 464.7,96.7 479.6,95.8 494.5,94.9 509.5,94.9 524.4,106.2 539.3,109.2 554.2,105.0 569.1,79.8 584.0,86.0 598.9,87.8 613.8,87.8 628.7,86.7 643.6,89.4 658.5,92.4 673.5,96.3 688.4,99.7 703.3,102.2 718.2,104.1 733.1,104.3 748.0,105.9 762.9,104.2 777.8,99.2 792.7,95.9 807.6,97.9 822.5,96.3" fill="none" stroke="#c98500" stroke-width="1.5" stroke-linejoin="round" stroke-linecap="round"/>
<polyline points="300.7,146.7 315.6,148.1 330.5,151.3 345.5,150.4 360.4,147.6 375.3,145.9 390.2,143.3 405.1,140.3 420.0,139.2 434.9,139.1 449.8,139.2 464.7,139.0 479.6,139.8 494.5,140.4 509.5,140.3 524.4,144.8 539.3,146.8 554.2,145.2 569.1,152.5 584.0,155.5 598.9,157.0 613.8,158.3 628.7,160.2 643.6,161.3 658.5,162.8 673.5,164.1 688.4,166.3 703.3,168.7 718.2,171.8 733.1,172.0 748.0,173.7 762.9,173.2 777.8,171.1 792.7,169.2 807.6,170.9 822.5,169.9" fill="none" stroke="#3987e5" stroke-width="1.5" stroke-linejoin="round" stroke-linecap="round"/>
<polyline points="300.7,202.9 315.6,204.4 330.5,204.7 345.5,205.0 360.4,200.4 375.3,200.4 390.2,194.8 405.1,184.5 420.0,181.7 434.9,181.2 449.8,181.6 464.7,181.4 479.6,183.8 494.5,185.9 509.5,185.6 524.4,183.3 539.3,184.5 554.2,185.4 569.1,225.2 584.0,225.1 598.9,226.3 613.8,228.7 628.7,233.6 643.6,233.1 658.5,233.2 673.5,231.9 688.4,232.8 703.3,235.3 718.2,239.6 733.1,239.6 748.0,241.6 762.9,242.3 777.8,242.9 792.7,242.6 807.6,244.0 822.5,243.5" fill="none" stroke="#d55181" stroke-width="1.5" stroke-linejoin="round" stroke-linecap="round"/>
<polyline points="106.9,157.7 121.8,162.4 136.7,170.6 151.6,172.7 166.5,166.5 181.5,167.1 196.4,163.7 211.3,156.8 226.2,144.6 241.1,138.6 256.0,137.6 270.9,137.0 285.8,129.9 300.7,126.4 315.6,127.7 330.5,140.2 345.5,140.5 360.4,138.1 375.3,134.8 390.2,138.9 405.1,139.6 420.0,137.2 434.9,135.9 449.8,140.7 464.7,142.0 479.6,149.8 494.5,155.5 509.5,156.7 524.4,160.3 539.3,160.7 554.2,154.6 569.1,175.4 584.0,174.9 598.9,174.0 613.8,179.2 628.7,184.1 643.6,181.8 658.5,188.4 673.5,168.0 688.4,169.4 703.3,172.9 718.2,175.9 733.1,169.7 748.0,176.3 762.9,171.6 777.8,169.7 792.7,164.1 807.6,162.9 822.5,154.8" fill="none" stroke="#9085e9" stroke-width="1.5" stroke-linejoin="round" stroke-linecap="round"/>
<rect x="13.4" y="135.1" width="8.2" height="220.9" fill="none" stroke="#e66767" stroke-width="1.3"/>
<rect x="28.3" y="105.3" width="8.2" height="29.9" fill="none" stroke="#e66767" stroke-width="1.3"/>
<rect x="43.2" y="105.3" width="8.2" height="35.1" fill="#008300"/>
<rect x="58.1" y="140.3" width="8.2" height="45.5" fill="#008300"/>
<rect x="73.0" y="150.7" width="8.2" height="35.1" fill="none" stroke="#e66767" stroke-width="1.3"/>
<rect x="87.9" y="150.7" width="8.2" height="35.1" fill="#008300"/>
<rect x="102.8" y="185.8" width="8.2" height="15.6" fill="#008300"/>
<rect x="117.7" y="167.6" width="8.2" height="33.8" fill="none" stroke="#e66767" stroke-width="1.3"/>
<rect x="132.6" y="162.4" width="8.2" height="5.2" fill="none" stroke="#e66767" stroke-width="1.3"/>
<rect x="147.5" y="154.6" width="8.2" height="7.8" fill="none" stroke="#e66767" stroke-width="1.3"/>
<rect x="162.4" y="142.9" width="8.2" height="11.7" fill="none" stroke="#e66767" stroke-width="1.3"/>
<rect x="177.4" y="142.9" width="8.2" height="11.7" fill="#008300"/>
<rect x="192.3" y="154.6" width="8.2" height="7.8" fill="#008300"/>
<rect x="207.2" y="153.3" width="8.2" height="9.1" fill="none" stroke="#e66767" stroke-width="1.3"/>
<rect x="222.1" y="81.9" width="8.2" height="71.5" fill="none" stroke="#e66767" stroke-width="1.3"/>
<rect x="237.0" y="81.9" width="8.2" height="39.0" fill="#008300"/>
<rect x="251.9" y="120.9" width="8.2" height="26.0" fill="#008300"/>
<rect x="266.8" y="139.0" width="8.2" height="7.8" fill="none" stroke="#e66767" stroke-width="1.3"/>
<rect x="281.7" y="105.3" width="8.2" height="33.8" fill="none" stroke="#e66767" stroke-width="1.3"/>
<rect x="296.6" y="105.3" width="8.2" height="32.5" fill="#008300"/>
<rect x="311.5" y="137.7" width="8.2" height="24.7" fill="#008300"/>
<rect x="326.4" y="162.4" width="8.2" height="6.5" fill="#008300"/>
<rect x="341.4" y="123.4" width="8.2" height="45.5" fill="none" stroke="#e66767" stroke-width="1.3"/>
<rect x="356.3" y="123.4" width="8.2" height="6.5" fill="#008300"/>
<rect x="371.2" y="115.7" width="8.2" height="14.3" fill="none" stroke="#e66767" stroke-width="1.3"/>
<rect x="386.1" y="115.7" width="8.2" height="18.2" fill="#008300"/>
<rect x="401.0" y="133.8" width="8.2" height="9.1" fill="#008300"/>
<rect x="415.9" y="142.9" width="8.2" height="2.6" fill="#008300"/>
<rect x="430.8" y="145.5" width="8.2" height="14.3" fill="#008300"/>
<rect x="445.7" y="157.2" width="8.2" height="2.6" fill="none" stroke="#e66767" stroke-width="1.3"/>
<rect x="460.6" y="139.0" width="8.2" height="18.2" fill="none" stroke="#e66767" stroke-width="1.3"/>
<rect x="475.5" y="139.0" width="8.2" height="31.2" fill="#008300"/>
<rect x="490.4" y="170.2" width="8.2" height="3.9" fill="#008300"/>
<rect x="505.4" y="150.7" width="8.2" height="23.4" fill="none" stroke="#e66767" stroke-width="1.3"/>
<rect x="520.3" y="150.7" width="8.2" height="20.8" fill="#008300"/>
<rect x="535.2" y="162.4" width="8.2" height="9.1" fill="none" stroke="#e66767" stroke-width="1.3"/>
<rect x="550.1" y="114.4" width="8.2" height="48.1" fill="none" stroke="#e66767" stroke-width="1.3"/>
<rect x="565.0" y="114.4" width="8.2" height="170.2" fill="#008300"/>
<rect x="579.9" y="166.3" width="8.2" height="118.2" fill="none" stroke="#e66767" stroke-width="1.3"/>
<rect x="594.8" y="166.3" width="8.2" height="1.3" fill="#008300"/>
<rect x="609.7" y="167.6" width="8.2" height="19.5" fill="#008300"/>
<rect x="624.6" y="187.1" width="8.2" height="19.5" fill="#008300"/>
<rect x="639.5" y="145.5" width="8.2" height="61.1" fill="none" stroke="#e66767" stroke-width="1.3"/>
<rect x="654.4" y="145.5" width="8.2" height="15.6" fill="#008300"/>
<rect x="669.4" y="141.6" width="8.2" height="19.5" fill="none" stroke="#e66767" stroke-width="1.3"/>
<rect x="684.3" y="141.6" width="8.2" height="35.1" fill="#008300"/>
<rect x="699.2" y="176.7" width="8.2" height="15.6" fill="#008300"/>
<rect x="714.1" y="192.3" width="8.2" height="15.6" fill="#008300"/>
<rect x="729.0" y="162.4" width="8.2" height="45.5" fill="none" stroke="#e66767" stroke-width="1.3"/>
<rect x="743.9" y="162.4" width="8.2" height="29.9" fill="#008300"/>
<rect x="758.8" y="128.6" width="8.2" height="63.7" fill="none" stroke="#e66767" stroke-width="1.3"/>
<rect x="773.7" y="127.3" width="8.2" height="1.3" fill="none" stroke="#e66767" stroke-width="1.3"/>
<rect x="788.6" y="127.3" width="8.2" height="10.4" fill="#008300"/>
<rect x="803.5" y="137.7" width="8.2" height="46.8" fill="#008300"/>
<rect x="818.4" y="150.7" width="8.2" height="33.8" fill="none" stroke="#e66767" stroke-width="1.3"/>
<circle cx="226.2" cy="81.9" r="2" fill="#c3c2b7"/>
<line x1="226.2" y1="81.9" x2="234.2" y2="81.9" stroke="#c3c2b7" stroke-width="1.0"/>
<text x="237.2" y="85.9" font-size="11.0" fill="#c3c2b7">211</text>
<circle cx="17.5" cy="356.0" r="2" fill="#c3c2b7"/>
<line x1="17.5" y1="356.0" x2="25.5" y2="356.0" stroke="#c3c2b7" stroke-width="1.0"/>
<text x="28.5" y="350.0" font-size="11.0" fill="#c3c2b7">0</text>
<text x="14.0" y="376.0" font-size="11.0" fill="#c3c2b7">VOL 27 forks</text>
<text x="96.6" y="376.0" font-size="11.0" fill="#c98500">MA5:23.2</text>
<text x="155.0" y="376.0" font-size="11.0" fill="#3987e5">MA10:17.8</text>
<text x="14.0" y="395.0" font-size="10" fill="#898781">46</text>
<rect x="13.4" y="436.1" width="8.2" height="33.9" fill="none" stroke="#e66767" stroke-width="1.1"/>
<rect x="28.3" y="429.0" width="8.2" height="41.0" fill="none" stroke="#e66767" stroke-width="1.1"/>
<rect x="43.2" y="413.0" width="8.2" height="57.0" fill="#008300"/>
<rect x="58.1" y="418.3" width="8.2" height="51.7" fill="#008300"/>
<rect x="73.0" y="437.9" width="8.2" height="32.1" fill="none" stroke="#e66767" stroke-width="1.1"/>
<rect x="87.9" y="434.3" width="8.2" height="35.7" fill="#008300"/>
<rect x="102.8" y="446.8" width="8.2" height="23.2" fill="#008300"/>
<rect x="117.7" y="445.0" width="8.2" height="25.0" fill="none" stroke="#e66767" stroke-width="1.1"/>
<rect x="132.6" y="446.8" width="8.2" height="23.2" fill="none" stroke="#e66767" stroke-width="1.1"/>
<rect x="147.5" y="436.1" width="8.2" height="33.9" fill="none" stroke="#e66767" stroke-width="1.1"/>
<rect x="162.4" y="409.4" width="8.2" height="60.6" fill="none" stroke="#e66767" stroke-width="1.1"/>
<rect x="177.4" y="436.1" width="8.2" height="33.9" fill="#008300"/>
<rect x="192.3" y="445.0" width="8.2" height="25.0" fill="#008300"/>
<rect x="207.2" y="436.1" width="8.2" height="33.9" fill="none" stroke="#e66767" stroke-width="1.1"/>
<rect x="222.1" y="427.2" width="8.2" height="42.8" fill="none" stroke="#e66767" stroke-width="1.1"/>
<rect x="237.0" y="429.0" width="8.2" height="41.0" fill="#008300"/>
<rect x="251.9" y="434.3" width="8.2" height="35.7" fill="#008300"/>
<rect x="266.8" y="423.7" width="8.2" height="46.3" fill="none" stroke="#e66767" stroke-width="1.1"/>
<rect x="281.7" y="432.6" width="8.2" height="37.4" fill="none" stroke="#e66767" stroke-width="1.1"/>
<rect x="296.6" y="443.3" width="8.2" height="26.7" fill="#008300"/>
<rect x="311.5" y="434.3" width="8.2" height="35.7" fill="#008300"/>
<rect x="326.4" y="423.7" width="8.2" height="46.3" fill="#008300"/>
<rect x="341.4" y="427.2" width="8.2" height="42.8" fill="none" stroke="#e66767" stroke-width="1.1"/>
<rect x="356.3" y="430.8" width="8.2" height="39.2" fill="#008300"/>
<rect x="371.2" y="427.2" width="8.2" height="42.8" fill="none" stroke="#e66767" stroke-width="1.1"/>
<rect x="386.1" y="430.8" width="8.2" height="39.2" fill="#008300"/>
<rect x="401.0" y="429.0" width="8.2" height="41.0" fill="#008300"/>
<rect x="415.9" y="443.3" width="8.2" height="26.7" fill="#008300"/>
<rect x="430.8" y="437.9" width="8.2" height="32.1" fill="#008300"/>
<rect x="445.7" y="432.6" width="8.2" height="37.4" fill="none" stroke="#e66767" stroke-width="1.1"/>
<rect x="460.6" y="446.8" width="8.2" height="23.2" fill="none" stroke="#e66767" stroke-width="1.1"/>
<rect x="475.5" y="445.0" width="8.2" height="25.0" fill="#008300"/>
<rect x="490.4" y="436.1" width="8.2" height="33.9" fill="#008300"/>
<rect x="505.4" y="423.7" width="8.2" height="46.3" fill="none" stroke="#e66767" stroke-width="1.1"/>
<rect x="520.3" y="443.3" width="8.2" height="26.7" fill="#008300"/>
<rect x="535.2" y="448.6" width="8.2" height="21.4" fill="none" stroke="#e66767" stroke-width="1.1"/>
<rect x="550.1" y="427.2" width="8.2" height="42.8" fill="none" stroke="#e66767" stroke-width="1.1"/>
<rect x="565.0" y="455.7" width="8.2" height="14.3" fill="#008300"/>
<rect x="579.9" y="439.7" width="8.2" height="30.3" fill="none" stroke="#e66767" stroke-width="1.1"/>
<rect x="594.8" y="448.6" width="8.2" height="21.4" fill="#008300"/>
<rect x="609.7" y="437.9" width="8.2" height="32.1" fill="#008300"/>
<rect x="624.6" y="452.2" width="8.2" height="17.8" fill="#008300"/>
<rect x="639.5" y="454.0" width="8.2" height="16.0" fill="none" stroke="#e66767" stroke-width="1.1"/>
<rect x="654.4" y="441.5" width="8.2" height="28.5" fill="#008300"/>
<rect x="669.4" y="388.0" width="8.2" height="82.0" fill="none" stroke="#e66767" stroke-width="1.1"/>
<rect x="684.3" y="439.7" width="8.2" height="30.3" fill="#008300"/>
<rect x="699.2" y="461.1" width="8.2" height="8.9" fill="#008300"/>
<rect x="714.1" y="436.1" width="8.2" height="33.9" fill="#008300"/>
<rect x="729.0" y="443.3" width="8.2" height="26.7" fill="none" stroke="#e66767" stroke-width="1.1"/>
<rect x="743.9" y="459.3" width="8.2" height="10.7" fill="#008300"/>
<rect x="758.8" y="429.0" width="8.2" height="41.0" fill="none" stroke="#e66767" stroke-width="1.1"/>
<rect x="773.7" y="427.2" width="8.2" height="42.8" fill="none" stroke="#e66767" stroke-width="1.1"/>
<rect x="788.6" y="436.1" width="8.2" height="33.9" fill="#008300"/>
<rect x="803.5" y="429.0" width="8.2" height="41.0" fill="#008300"/>
<rect x="818.4" y="421.9" width="8.2" height="48.1" fill="none" stroke="#e66767" stroke-width="1.1"/>
<polyline points="151.6,434.3 166.5,431.7 181.5,432.4 196.4,435.6 211.3,437.4 226.2,436.3 241.1,435.8 256.0,434.5 270.9,432.4 285.8,431.0 300.7,431.7 315.6,434.2 330.5,432.9 345.5,431.1 360.4,430.6 375.3,430.6 390.2,430.8 405.1,430.2 420.0,432.2 434.9,432.7 449.8,431.7 464.7,432.9 479.6,435.1 494.5,436.0 509.5,435.2 524.4,436.8 539.3,438.6 554.2,438.4 569.1,439.7 584.0,439.9 598.9,441.5 613.8,440.6 628.7,441.3 643.6,443.1 658.5,444.9 673.5,439.3 688.4,438.4 703.3,441.8 718.2,439.9 733.1,440.2 748.0,441.3 762.9,440.4 777.8,437.9 792.7,436.1 807.6,434.9 822.5,438.3" fill="none" stroke="#3987e5" stroke-width="1.5" stroke-linejoin="round" stroke-linecap="round"/>
<polyline points="77.1,426.9 92.0,426.5 106.9,430.1 121.8,436.5 136.7,442.2 151.6,441.8 166.5,436.8 181.5,434.7 196.4,434.7 211.3,432.6 226.2,430.8 241.1,434.7 256.0,434.3 270.9,430.1 285.8,429.4 300.7,432.6 315.6,433.6 330.5,431.5 345.5,432.2 360.4,431.9 375.3,428.6 390.2,427.9 405.1,429.0 420.0,432.2 434.9,433.6 449.8,434.7 464.7,437.9 479.6,441.1 494.5,439.7 509.5,436.8 524.4,439.0 539.3,439.3 554.2,435.8 569.1,439.7 584.0,442.9 598.9,444.0 613.8,441.8 628.7,446.8 643.6,446.5 658.5,446.8 673.5,434.7 688.4,435.1 703.3,436.8 718.2,433.3 733.1,433.6 748.0,447.9 762.9,445.8 777.8,439.0 792.7,439.0 807.6,436.1 822.5,428.6" fill="none" stroke="#c98500" stroke-width="1.5" stroke-linejoin="round" stroke-linecap="round"/>
</svg>