<svg xmlns="http://www.w3.org/2000/svg" viewBox="0 0 840 496" width="840" height="496" font-family="-apple-system,&#39;Segoe UI&#39;,system-ui,sans-serif" role="img" aria-label="donnemartin/system-design-primer candlestick chart">
<text x="14.0" y="20.0" font-size="15" fill="#0b0b0b" font-weight="650">donnemartin/system-design-primer</text>
<text x="282.0" y="20.0" font-size="11.5" fill="#52514e">daily · new stars, volume = new forks</text>
<text x="805.8" y="20.0" font-size="11.0" fill="#52514e">fall</text>
<rect x="791" y="10" width="9" height="12" fill="#008300"/>
<text x="750.6" y="20.0" font-size="11.0" fill="#52514e">rise</text>
<rect x="736" y="10" width="9" height="12" fill="none" stroke="#e34948" stroke-width="1.5"/>
<text x="14.0" y="38.0" font-size="11.0" fill="#898781">last 54 days · +8,311 stars · +1,040 forks · updated 2026-07-23</text>
<rect x="10" y="66" width="820" height="290" fill="none" stroke="#e1e0d9"/>
<rect x="10" y="384" width="820" height="86" fill="none" stroke="#e1e0d9"/>
<text x="38.0" y="490.0" font-size="11.0" fill="#898781" text-anchor="middle">2026-05</text>
<line x1="25.2" y1="66.0" x2="25.2" y2="356.0" stroke="#e1e0d9" stroke-width="1.0"/>
<line x1="25.2" y1="384.0" x2="25.2" y2="470.0" stroke="#e1e0d9" stroke-width="1.0"/>
<line x1="480.7" y1="66.0" x2="480.7" y2="356.0" stroke="#e1e0d9" stroke-width="1.0"/>
<line x1="480.7" y1="384.0" x2="480.7" y2="470.0" stroke="#e1e0d9" stroke-width="1.0"/>
<text x="488.3" y="490.0" font-size="11.0" fill="#898781" text-anchor="middle">2026-07</text>
<text x="14.0" y="58.0" font-size="11.0" fill="#52514e">BOLL(20,2)</text>
<text x="84.5" y="58.0" font-size="11.0" fill="#eda100">UP:198.7</text>
<text x="142.9" y="58.0" font-size="11.0" fill="#2a78d6">MID:142.4</text>
<text x="207.4" y="58.0" font-size="11.0" fill="#e87ba4">LOW:86.2</text>
<text x="265.8" y="58.0" font-size="11.0" fill="#4a3aa7">MA7:148.6</text>
<line x1="10.0" y1="356.0" x2="830.0" y2="356.0" stroke="#e1e0d9" stroke-width="1.0"/>
<text x="14.0" y="353.0" font-size="11.0" fill="#898781">0</text>
<line x1="10.0" y1="226.1" x2="830.0" y2="226.1" stroke="#e1e0d9" stroke-width="1.0"/>
<text x="14.0" y="223.1" font-size="11.0" fill="#898781">100</text>
<line x1="10.0" y1="96.2" x2="830.0" y2="96.2" stroke="#e1e0d9" stroke-width="1.0"/>
<text x="14.0" y="93.2" font-size="11.0" fill="#898781">200</text>
<polyline points="306.1,90.5 321.3,91.7 336.5,97.8 351.7,95.8 366.9,94.8 382.0,91.3 397.2,91.7 412.4,96.2 427.6,96.8 442.8,97.0 458.0,96.9 473.1,96.7 488.3,95.8 503.5,94.9 518.7,94.9 533.9,106.2 549.1,109.2 564.3,105.0 579.4,79.8 594.6,86.0 609.8,87.8 625.0,87.8 640.2,86.7 655.4,89.4 670.6,92.4 685.7,96.3 700.9,99.7 716.1,102.2 731.3,104.1 746.5,104.3 761.7,105.9 776.9,104.2 792.0,99.2 807.2,95.9 822.4,97.9" fill="none" stroke="#eda100" stroke-width="1.5" stroke-linejoin="round" stroke-linecap="round"/>
<polyline points="306.1,146.7 321.3,148.1 336.5,151.3 351.7,150.4 366.9,147.6 382.0,145.9 397.2,143.3 412.4,140.3 427.6,139.2 442.8,139.1 458.0,139.2 473.1,139.0 488.3,139.8 503.5,140.4 518.7,140.3 533.9,144.8 549.1,146.8 564.3,145.2 579.4,152.5 594.6,155.5 609.8,157.0 625.0,158.3 640.2,160.2 655.4,161.3 670.6,162.8 685.7,164.1 700.9,166.3 716.1,168.7 731.3,171.8 746.5,172.0 761.7,173.7 776.9,173.2 792.0,171.1 807.2,169.2 822.4,170.9" fill="none" stroke="#2a78d6" stroke-width="1.5" stroke-linejoin="round" stroke-linecap="round"/>
<polyline points="306.1,202.9 321.3,204.4 336.5,204.7 351.7,205.0 366.9,200.4 382.0,200.4 397.2,194.8 412.4,184.5 427.6,181.7 442.8,181.2 458.0,181.6 473.1,181.4 488.3,183.8 503.5,185.9 518.7,185.6 533.9,183.3 549.1,184.5 564.3,185.4 579.4,225.2 594.6,225.1 609.8,226.3 625.0,228.7 640.2,233.6 655.4,233.1 670.6,233.2 685.7,231.9 700.9,232.8 716.1,235.3 731.3,239.6 746.5,239.6 761.7,241.6 776.9,242.3 792.0,242.9 807.2,242.6 822.4,244.0" fill="none" stroke="#e87ba4" stroke-width="1.5" stroke-linejoin="round" stroke-linecap="round"/>
<polyline points="108.7,157.7 123.9,162.4 139.1,170.6 154.3,172.7 169.4,166.5 184.6,167.1 199.8,163.7 215.0,156.8 230.2,144.6 245.4,138.6 260.6,137.6 275.7,137.0 290.9,129.9 306.1,126.4 321.3,127.7 336.5,140.2 351.7,140.5 366.9,138.1 382.0,134.8 397.2,138.9 412.4,139.6 427.6,137.2 442.8,135.9 458.0,140.7 473.1,142.0 488.3,149.8 503.5,155.5 518.7,156.7 533.9,160.3 549.1,160.7 564.3,154.6 579.4,175.4 594.6,174.9 609.8,174.0 625.0,179.2 640.2,184.1 655.4,181.8 670.6,188.4 685.7,168.0 700.9,169.4 716.1,172.9 731.3,175.9 746.5,169.7 761.7,176.3 776.9,171.6 792.0,169.7 807.2,164.1 822.4,162.9" fill="none" stroke="#4a3aa7" stroke-width="1.5" stroke-linejoin="round" stroke-linecap="round"/>
<rect x="13.4" y="135.1" width="8.4" height="220.9" fill="none" stroke="#e34948" stroke-width="1.3"/>
<rect x="28.6" y="105.3" width="8.4" height="29.9" fill="none" stroke="#e34948" stroke-width="1.3"/>
<rect x="43.8" y="105.3" width="8.4" height="35.1" fill="#008300"/>
<rect x="59.0" y="140.3" width="8.4" height="45.5" fill="#008300"/>
<rect x="74.2" y="150.7" width="8.4" height="35.1" fill="none" stroke="#e34948" stroke-width="1.3"/>
<rect x="89.3" y="150.7" width="8.4" height="35.1" fill="#008300"/>
<rect x="104.5" y="185.8" width="8.4" height="15.6" fill="#008300"/>
<rect x="119.7" y="167.6" width="8.4" height="33.8" fill="none" stroke="#e34948" stroke-width="1.3"/>
<rect x="134.9" y="162.4" width="8.4" height="5.2" fill="none" stroke="#e34948" stroke-width="1.3"/>
<rect x="150.1" y="154.6" width="8.4" height="7.8" fill="none" stroke="#e34948" stroke-width="1.3"/>
<rect x="165.3" y="142.9" width="8.4" height="11.7" fill="none" stroke="#e34948" stroke-width="1.3"/>
<rect x="180.5" y="142.9" width="8.4" height="11.7" fill="#008300"/>
<rect x="195.6" y="154.6" width="8.4" height="7.8" fill="#008300"/>
<rect x="210.8" y="153.3" width="8.4" height="9.1" fill="none" stroke="#e34948" stroke-width="1.3"/>
<rect x="226.0" y="81.9" width="8.4" height="71.5" fill="none" stroke="#e34948" stroke-width="1.3"/>
<rect x="241.2" y="81.9" width="8.4" height="39.0" fill="#008300"/>
<rect x="256.4" y="120.9" width="8.4" height="26.0" fill="#008300"/>
<rect x="271.6" y="139.0" width="8.4" height="7.8" fill="none" stroke="#e34948" stroke-width="1.3"/>
<rect x="286.8" y="105.3" width="8.4" height="33.8" fill="none" stroke="#e34948" stroke-width="1.3"/>
<rect x="301.9" y="105.3" width="8.4" height="32.5" fill="#008300"/>
<rect x="317.1" y="137.7" width="8.4" height="24.7" fill="#008300"/>
<rect x="332.3" y="162.4" width="8.4" height="6.5" fill="#008300"/>
<rect x="347.5" y="123.4" width="8.4" height="45.5" fill="none" stroke="#e34948" stroke-width="1.3"/>
<rect x="362.7" y="123.4" width="8.4" height="6.5" fill="#008300"/>
<rect x="377.9" y="115.7" width="8.4" height="14.3" fill="none" stroke="#e34948" stroke-width="1.3"/>
<rect x="393.0" y="115.7" width="8.4" height="18.2" fill="#008300"/>
<rect x="408.2" y="133.8" width="8.4" height="9.1" fill="#008300"/>
<rect x="423.4" y="142.9" width="8.4" height="2.6" fill="#008300"/>
<rect x="438.6" y="145.5" width="8.4" height="14.3" fill="#008300"/>
<rect x="453.8" y="157.2" width="8.4" height="2.6" fill="none" stroke="#e34948" stroke-width="1.3"/>
<rect x="469.0" y="139.0" width="8.4" height="18.2" fill="none" stroke="#e34948" stroke-width="1.3"/>
<rect x="484.2" y="139.0" width="8.4" height="31.2" fill="#008300"/>
<rect x="499.3" y="170.2" width="8.4" height="3.9" fill="#008300"/>
<rect x="514.5" y="150.7" width="8.4" height="23.4" fill="none" stroke="#e34948" stroke-width="1.3"/>
<rect x="529.7" y="150.7" width="8.4" height="20.8" fill="#008300"/>
<rect x="544.9" y="162.4" width="8.4" height="9.1" fill="none" stroke="#e34948" stroke-width="1.3"/>
<rect x="560.1" y="114.4" width="8.4" height="48.1" fill="none" stroke="#e34948" stroke-width="1.3"/>
<rect x="575.3" y="114.4" width="8.4" height="170.2" fill="#008300"/>
<rect x="590.5" y="166.3" width="8.4" height="118.2" fill="none" stroke="#e34948" stroke-width="1.3"/>
<rect x="605.6" y="166.3" width="8.4" height="1.3" fill="#008300"/>
<rect x="620.8" y="167.6" width="8.4" height="19.5" fill="#008300"/>
<rect x="636.0" y="187.1" width="8.4" height="19.5" fill="#008300"/>
<rect x="651.2" y="145.5" width="8.4" height="61.1" fill="none" stroke="#e34948" stroke-width="1.3"/>
<rect x="666.4" y="145.5" width="8.4" height="15.6" fill="#008300"/>
<rect x="681.6" y="141.6" width="8.4" height="19.5" fill="none" stroke="#e34948" stroke-width="1.3"/>
<rect x="696.7" y="141.6" width="8.4" height="35.1" fill="#008300"/>
<rect x="711.9" y="176.7" width="8.4" height="15.6" fill="#008300"/>
<rect x="727.1" y="192.3" width="8.4" height="15.6" fill="#008300"/>
<rect x="742.3" y="162.4" width="8.4" height="45.5" fill="none" stroke="#e34948" stroke-width="1.3"/>
<rect x="757.5" y="162.4" width="8.4" height="29.9" fill="#008300"/>
<rect x="772.7" y="128.6" width="8.4" height="63.7" fill="none" stroke="#e34948" stroke-width="1.3"/>
<rect x="787.9" y="127.3" width="8.4" height="1.3" fill="none" stroke="#e34948" stroke-width="1.3"/>
<rect x="803.0" y="127.3" width="8.4" height="10.4" fill="#008300"/>
<rect x="818.2" y="137.7" width="8.4" height="46.8" fill="#008300"/>
<circle cx="230.2" cy="81.9" r="2" fill="#52514e"/>
<line x1="230.2" y1="81.9" x2="238.2" y2="81.9" stroke="#52514e" stroke-width="1.0"/>
<text x="241.2" y="85.9" font-size="11.0" fill="#52514e">211</text>
<circle cx="17.6" cy="356.0" r="2" fill="#52514e"/>
<line x1="17.6" y1="356.0" x2="25.6" y2="356.0" stroke="#52514e" stroke-width="1.0"/>
<text x="28.6" y="350.0" font-size="11.0" fill="#52514e">0</text>
<text x="14.0" y="376.0" font-size="11.0" fill="#52514e">VOL 23 forks</text>
<text x="96.6" y="376.0" font-size="11.0" fill="#eda100">MA5:19</text>
<text x="142.9" y="376.0" font-size="11.0" fill="#2a78d6">MA10:19.7</text>
<text x="14.0" y="395.0" font-size="10" fill="#898781">46</text>
<rect x="13.4" y="436.1" width="8.4" height="33.9" fill="none" stroke="#e34948" stroke-width="1.1"/>
<rect x="28.6" y="429.0" width="8.4" height="41.0" fill="none" stroke="#e34948" stroke-width="1.1"/>
<rect x="43.8" y="413.0" width="8.4" height="57.0" fill="#008300"/>
<rect x="59.0" y="418.3" width="8.4" height="51.7" fill="#008300"/>
<rect x="74.2" y="437.9" width="8.4" height="32.1" fill="none" stroke="#e34948" stroke-width="1.1"/>
<rect x="89.3" y="434.3" width="8.4" height="35.7" fill="#008300"/>
<rect x="104.5" y="446.8" width="8.4" height="23.2" fill="#008300"/>
<rect x="119.7" y="445.0" width="8.4" height="25.0" fill="none" stroke="#e34948" stroke-width="1.1"/>
<rect x="134.9" y="446.8" width="8.4" height="23.2" fill="none" stroke="#e34948" stroke-width="1.1"/>
<rect x="150.1" y="436.1" width="8.4" height="33.9" fill="none" stroke="#e34948" stroke-width="1.1"/>
<rect x="165.3" y="409.4" width="8.4" height="60.6" fill="none" stroke="#e34948" stroke-width="1.1"/>
<rect x="180.5" y="436.1" width="8.4" height="33.9" fill="#008300"/>
<rect x="195.6" y="445.0" width="8.4" height="25.0" fill="#008300"/>
<rect x="210.8" y="436.1" width="8.4" height="33.9" fill="none" stroke="#e34948" stroke-width="1.1"/>
<rect x="226.0" y="427.2" width="8.4" height="42.8" fill="none" stroke="#e34948" stroke-width="1.1"/>
<rect x="241.2" y="429.0" width="8.4" height="41.0" fill="#008300"/>
<rect x="256.4" y="434.3" width="8.4" height="35.7" fill="#008300"/>
<rect x="271.6" y="423.7" width="8.4" height="46.3" fill="none" stroke="#e34948" stroke-width="1.1"/>
<rect x="286.8" y="432.6" width="8.4" height="37.4" fill="none" stroke="#e34948" stroke-width="1.1"/>
<rect x="301.9" y="443.3" width="8.4" height="26.7" fill="#008300"/>
<rect x="317.1" y="434.3" width="8.4" height="35.7" fill="#008300"/>
<rect x="332.3" y="423.7" width="8.4" height="46.3" fill="#008300"/>
<rect x="347.5" y="427.2" width="8.4" height="42.8" fill="none" stroke="#e34948" stroke-width="1.1"/>
<rect x="362.7" y="430.8" width="8.4" height="39.2" fill="#008300"/>
<rect x="377.9" y="427.2" width="8.4" height="42.8" fill="none" stroke="#e34948" stroke-width="1.1"/>
<rect x="393.0" y="430.8" width="8.4" height="39.2" fill="#008300"/>
<rect x="408.2" y="429.0" width="8.4" height="41.0" fill="#008300"/>
<rect x="423.4" y="443.3" width="8.4" height="26.7" fill="#008300"/>
<rect x="438.6" y="437.9" width="8.4" height="32.1" fill="#008300"/>
<rect x="453.8" y="432.6" width="8.4" height="37.4" fill="none" stroke="#e34948" stroke-width="1.1"/>
<rect x="469.0" y="446.8" width="8.4" height="23.2" fill="none" stroke="#e34948" stroke-width="1.1"/>
<rect x="484.2" y="445.0" width="8.4" height="25.0" fill="#008300"/>
<rect x="499.3" y="436.1" width="8.4" height="33.9" fill="#008300"/>
<rect x="514.5" y="423.7" width="8.4" height="46.3" fill="none" stroke="#e34948" stroke-width="1.1"/>
<rect x="529.7" y="443.3" width="8.4" height="26.7" fill="#008300"/>
<rect x="544.9" y="448.6" width="8.4" height="21.4" fill="none" stroke="#e34948" stroke-width="1.1"/>
<rect x="560.1" y="427.2" width="8.4" height="42.8" fill="none" stroke="#e34948" stroke-width="1.1"/>
<rect x="575.3" y="455.7" width="8.4" height="14.3" fill="#008300"/>
<rect x="590.5" y="439.7" width="8.4" height="30.3" fill="none" stroke="#e34948" stroke-width="1.1"/>
<rect x="605.6" y="448.6" width="8.4" height="21.4" fill="#008300"/>
<rect x="620.8" y="437.9" width="8.4" height="32.1" fill="#008300"/>
<rect x="636.0" y="452.2" width="8.4" height="17.8" fill="#008300"/>
<rect x="651.2" y="454.0" width="8.4" height="16.0" fill="none" stroke="#e34948" stroke-width="1.1"/>
<rect x="666.4" y="441.5" width="8.4" height="28.5" fill="#008300"/>
<rect x="681.6" y="388.0" width="8.4" height="82.0" fill="none" stroke="#e34948" stroke-width="1.1"/>
<rect x="696.7" y="439.7" width="8.4" height="30.3" fill="#008300"/>
<rect x="711.9" y="461.1" width="8.4" height="8.9" fill="#008300"/>
<rect x="727.1" y="436.1" width="8.4" height="33.9" fill="#008300"/>
<rect x="742.3" y="443.3" width="8.4" height="26.7" fill="none" stroke="#e34948" stroke-width="1.1"/>
<rect x="757.5" y="459.3" width="8.4" height="10.7" fill="#008300"/>
<rect x="772.7" y="429.0" width="8.4" height="41.0" fill="none" stroke="#e34948" stroke-width="1.1"/>
<rect x="787.9" y="427.2" width="8.4" height="42.8" fill="none" stroke="#e34948" stroke-width="1.1"/>
<rect x="803.0" y="436.1" width="8.4" height="33.9" fill="#008300"/>
<rect x="818.2" y="429.0" width="8.4" height="41.0" fill="#008300"/>
<polyline points="154.3,434.3 169.4,431.7 184.6,432.4 199.8,435.6 215.0,437.4 230.2,436.3 245.4,435.8 260.6,434.5 275.7,432.4 290.9,431.0 306.1,431.7 321.3,434.2 336.5,432.9 351.7,431.1 366.9,430.6 382.0,430.6 397.2,430.8 412.4,430.2 427.6,432.2 442.8,432.7 458.0,431.7 473.1,432.9 488.3,435.1 503.5,436.0 518.7,435.2 533.9,436.8 549.1,438.6 564.3,438.4 579.4,439.7 594.6,439.9 609.8,441.5 625.0,440.6 640.2,441.3 655.4,443.1 670.6,444.9 685.7,439.3 700.9,438.4 716.1,441.8 731.3,439.9 746.5,440.2 761.7,441.3 776.9,440.4 792.0,437.9 807.2,436.1 822.4,434.9" fill="none" stroke="#2a78d6" stroke-width="1.5" stroke-linejoin="round" stroke-linecap="round"/>
<polyline points="78.3,426.9 93.5,426.5 108.7,430.1 123.9,436.5 139.1,442.2 154.3,441.8 169.4,436.8 184.6,434.7 199.8,434.7 215.0,432.6 230.2,430.8 245.4,434.7 260.6,434.3 275.7,430.1 290.9,429.4 306.1,432.6 321.3,433.6 336.5,431.5 351.7,432.2 366.9,431.9 382.0,428.6 397.2,427.9 412.4,429.0 427.6,432.2 442.8,433.6 458.0,434.7 473.1,437.9 488.3,441.1 503.5,439.7 518.7,436.8 533.9,439.0 549.1,439.3 564.3,435.8 579.4,439.7 594.6,442.9 609.8,444.0 625.0,441.8 640.2,446.8 655.4,446.5 670.6,446.8 685.7,434.7 700.9,435.1 716.1,436.8 731.3,433.3 746.5,433.6 761.7,447.9 776.9,445.8 792.0,439.0 807.2,439.0 822.4,436.1" fill="none" stroke="#eda100" stroke-width="1.5" stroke-linejoin="round" stroke-linecap="round"/>
</svg>