<svg xmlns="http://www.w3.org/2000/svg" viewBox="0 0 840 496" width="840" height="496" font-family="-apple-system,&#39;Segoe UI&#39;,system-ui,sans-serif" role="img" aria-label="trimstray/the-book-of-secret-knowledge candlestick chart">
<text x="14.0" y="20.0" font-size="15" fill="#0b0b0b" font-weight="650">trimstray/the-book-of-secret-knowledge</text>
<text x="331.5" y="20.0" font-size="11.5" fill="#52514e">daily · new stars, volume = new forks</text>
<text x="805.8" y="20.0" font-size="11.0" fill="#52514e">fall</text>
<rect x="791" y="10" width="9" height="12" fill="#008300"/>
<text x="750.6" y="20.0" font-size="11.0" fill="#52514e">rise</text>
<rect x="736" y="10" width="9" height="12" fill="none" stroke="#e34948" stroke-width="1.5"/>
<text x="14.0" y="38.0" font-size="11.0" fill="#898781">last 37 days · +6,481 stars · +325 forks · updated 2026-07-11</text>
<rect x="10" y="66" width="820" height="290" fill="none" stroke="#e1e0d9"/>
<rect x="10" y="384" width="820" height="86" fill="none" stroke="#e1e0d9"/>
<text x="38.0" y="490.0" font-size="11.0" fill="#898781" text-anchor="middle">2026-06</text>
<line x1="586.2" y1="66.0" x2="586.2" y2="356.0" stroke="#e1e0d9" stroke-width="1.0"/>
<line x1="586.2" y1="384.0" x2="586.2" y2="470.0" stroke="#e1e0d9" stroke-width="1.0"/>
<text x="597.3" y="490.0" font-size="11.0" fill="#898781" text-anchor="middle">2026-07</text>
<text x="14.0" y="58.0" font-size="11.0" fill="#52514e">BOLL(20,2)</text>
<text x="84.5" y="58.0" font-size="11.0" fill="#eda100">UP:226.4</text>
<text x="142.9" y="58.0" font-size="11.0" fill="#2a78d6">MID:165.2</text>
<text x="207.4" y="58.0" font-size="11.0" fill="#e87ba4">LOW:104.1</text>
<text x="271.8" y="58.0" font-size="11.0" fill="#4a3aa7">MA7:151.7</text>
<line x1="10.0" y1="356.0" x2="830.0" y2="356.0" stroke="#e1e0d9" stroke-width="1.0"/>
<text x="14.0" y="353.0" font-size="11.0" fill="#898781">0</text>
<line x1="10.0" y1="237.3" x2="830.0" y2="237.3" stroke="#e1e0d9" stroke-width="1.0"/>
<text x="14.0" y="234.3" font-size="11.0" fill="#898781">100</text>
<line x1="10.0" y1="118.7" x2="830.0" y2="118.7" stroke="#e1e0d9" stroke-width="1.0"/>
<text x="14.0" y="115.7" font-size="11.0" fill="#898781">200</text>
<polyline points="442.2,83.8 464.3,88.6 486.5,88.3 508.6,93.1 530.8,92.6 553.0,92.6 575.1,92.9 597.3,103.1 619.5,110.9 641.6,111.2 663.8,112.0 685.9,111.8 708.1,108.9 730.3,81.2 752.4,81.6 774.6,79.8 796.8,83.6 818.9,87.3" fill="none" stroke="#eda100" stroke-width="1.5" stroke-linejoin="round" stroke-linecap="round"/>
<polyline points="442.2,135.1 464.3,138.8 486.5,140.8 508.6,143.7 530.8,143.1 553.0,143.0 575.1,142.0 597.3,145.8 619.5,148.0 641.6,148.2 663.8,148.7 685.9,147.5 708.1,145.4 730.3,151.7 752.4,156.3 774.6,155.3 796.8,158.1 818.9,159.9" fill="none" stroke="#2a78d6" stroke-width="1.5" stroke-linejoin="round" stroke-linecap="round"/>
<polyline points="442.2,186.4 464.3,189.0 486.5,193.2 508.6,194.3 530.8,193.7 553.0,193.4 575.1,191.1 597.3,188.5 619.5,185.1 641.6,185.2 663.8,185.4 685.9,183.2 708.1,182.0 730.3,222.1 752.4,231.0 774.6,230.9 796.8,232.7 818.9,232.5" fill="none" stroke="#e87ba4" stroke-width="1.5" stroke-linejoin="round" stroke-linecap="round"/>
<polyline points="154.1,128.2 176.2,128.6 198.4,129.5 220.5,134.2 242.7,136.6 264.9,138.0 287.0,136.5 309.2,141.9 331.4,149.1 353.5,146.3 375.7,144.0 397.8,134.8 420.0,132.9 442.2,133.8 464.3,140.2 486.5,143.7 508.6,149.7 530.8,152.3 553.0,159.1 575.1,159.0 597.3,158.7 619.5,155.0 641.6,150.8 663.8,148.5 685.9,149.2 708.1,144.9 730.3,164.1 752.4,172.0 774.6,170.1 796.8,174.6 818.9,176.0" fill="none" stroke="#4a3aa7" stroke-width="1.5" stroke-linejoin="round" stroke-linecap="round"/>
<rect x="15.0" y="96.1" width="12.2" height="259.9" fill="none" stroke="#e34948" stroke-width="1.3"/>
<rect x="37.1" y="96.1" width="12.2" height="39.2" fill="#008300"/>
<rect x="59.3" y="104.4" width="12.2" height="30.9" fill="none" stroke="#e34948" stroke-width="1.3"/>
<rect x="81.5" y="104.4" width="12.2" height="46.3" fill="#008300"/>
<rect x="103.6" y="150.7" width="12.2" height="3.6" fill="#008300"/>
<rect x="125.8" y="154.3" width="12.2" height="15.4" fill="#008300"/>
<rect x="148.0" y="86.6" width="12.2" height="83.1" fill="none" stroke="#e34948" stroke-width="1.3"/>
<rect x="170.1" y="86.6" width="12.2" height="13.1" fill="#008300"/>
<rect x="192.3" y="99.7" width="12.2" height="41.5" fill="#008300"/>
<rect x="214.4" y="137.7" width="12.2" height="3.6" fill="none" stroke="#e34948" stroke-width="1.3"/>
<rect x="236.6" y="137.7" width="12.2" height="29.7" fill="#008300"/>
<rect x="258.8" y="163.8" width="12.2" height="3.6" fill="none" stroke="#e34948" stroke-width="1.3"/>
<rect x="280.9" y="159.0" width="12.2" height="4.7" fill="none" stroke="#e34948" stroke-width="1.3"/>
<rect x="303.1" y="124.6" width="12.2" height="34.4" fill="none" stroke="#e34948" stroke-width="1.3"/>
<rect x="325.3" y="124.6" width="12.2" height="24.9" fill="#008300"/>
<rect x="347.4" y="122.2" width="12.2" height="27.3" fill="none" stroke="#e34948" stroke-width="1.3"/>
<rect x="369.6" y="121.1" width="12.2" height="1.2" fill="none" stroke="#e34948" stroke-width="1.3"/>
<rect x="391.7" y="103.3" width="12.2" height="17.8" fill="none" stroke="#e34948" stroke-width="1.3"/>
<rect x="413.9" y="103.3" width="12.2" height="47.5" fill="#008300"/>
<rect x="436.1" y="150.7" width="12.2" height="14.2" fill="#008300"/>
<rect x="458.2" y="165.0" width="12.2" height="4.7" fill="#008300"/>
<rect x="480.4" y="169.7" width="12.2" height="4.7" fill="#008300"/>
<rect x="502.6" y="163.8" width="12.2" height="10.7" fill="none" stroke="#e34948" stroke-width="1.3"/>
<rect x="524.7" y="138.9" width="12.2" height="24.9" fill="none" stroke="#e34948" stroke-width="1.3"/>
<rect x="546.9" y="138.9" width="12.2" height="13.1" fill="#008300"/>
<rect x="569.0" y="149.5" width="12.2" height="2.4" fill="none" stroke="#e34948" stroke-width="1.3"/>
<rect x="591.2" y="149.5" width="12.2" height="13.1" fill="#008300"/>
<rect x="613.4" y="143.6" width="12.2" height="19.0" fill="none" stroke="#e34948" stroke-width="1.3"/>
<rect x="635.5" y="143.6" width="12.2" height="2.4" fill="#008300"/>
<rect x="657.7" y="146.0" width="12.2" height="1.2" fill="#008300"/>
<rect x="679.9" y="143.6" width="12.2" height="3.6" fill="none" stroke="#e34948" stroke-width="1.3"/>
<rect x="702.0" y="122.2" width="12.2" height="21.4" fill="none" stroke="#e34948" stroke-width="1.3"/>
<rect x="724.2" y="122.2" width="12.2" height="161.4" fill="#008300"/>
<rect x="746.3" y="217.2" width="12.2" height="66.4" fill="none" stroke="#e34948" stroke-width="1.3"/>
<rect x="768.5" y="130.5" width="12.2" height="86.6" fill="none" stroke="#e34948" stroke-width="1.3"/>
<rect x="790.7" y="130.5" width="12.2" height="47.5" fill="#008300"/>
<rect x="812.8" y="156.7" width="12.2" height="21.4" fill="none" stroke="#e34948" stroke-width="1.3"/>
<circle cx="154.1" cy="86.6" r="2" fill="#52514e"/>
<line x1="154.1" y1="86.6" x2="162.1" y2="86.6" stroke="#52514e" stroke-width="1.0"/>
<text x="165.1" y="90.6" font-size="11.0" fill="#52514e">227</text>
<circle cx="21.1" cy="356.0" r="2" fill="#52514e"/>
<line x1="21.1" y1="356.0" x2="29.1" y2="356.0" stroke="#52514e" stroke-width="1.0"/>
<text x="32.1" y="350.0" font-size="11.0" fill="#52514e">0</text>
<text x="14.0" y="376.0" font-size="11.0" fill="#52514e">VOL 9 forks</text>
<text x="90.6" y="376.0" font-size="11.0" fill="#eda100">MA5:5.2</text>
<text x="142.9" y="376.0" font-size="11.0" fill="#2a78d6">MA10:6.8</text>
<text x="14.0" y="395.0" font-size="10" fill="#898781">18</text>
<rect x="15.0" y="433.6" width="12.2" height="36.4" fill="none" stroke="#e34948" stroke-width="1.1"/>
<rect x="37.1" y="429.0" width="12.2" height="41.0" fill="#008300"/>
<rect x="59.3" y="442.7" width="12.2" height="27.3" fill="none" stroke="#e34948" stroke-width="1.1"/>
<rect x="81.5" y="410.8" width="12.2" height="59.2" fill="#008300"/>
<rect x="103.6" y="424.4" width="12.2" height="45.6" fill="#008300"/>
<rect x="125.8" y="419.9" width="12.2" height="50.1" fill="#008300"/>
<rect x="148.0" y="392.6" width="12.2" height="77.4" fill="none" stroke="#e34948" stroke-width="1.1"/>
<rect x="170.1" y="388.0" width="12.2" height="82.0" fill="#008300"/>
<rect x="192.3" y="429.0" width="12.2" height="41.0" fill="#008300"/>
<rect x="214.4" y="406.2" width="12.2" height="63.8" fill="none" stroke="#e34948" stroke-width="1.1"/>
<rect x="236.6" y="442.7" width="12.2" height="27.3" fill="#008300"/>
<rect x="258.8" y="447.2" width="12.2" height="22.8" fill="none" stroke="#e34948" stroke-width="1.1"/>
<rect x="280.9" y="433.6" width="12.2" height="36.4" fill="none" stroke="#e34948" stroke-width="1.1"/>
<rect x="303.1" y="419.9" width="12.2" height="50.1" fill="none" stroke="#e34948" stroke-width="1.1"/>
<rect x="325.3" y="419.9" width="12.2" height="50.1" fill="#008300"/>
<rect x="347.4" y="429.0" width="12.2" height="41.0" fill="none" stroke="#e34948" stroke-width="1.1"/>
<rect x="369.6" y="429.0" width="12.2" height="41.0" fill="none" stroke="#e34948" stroke-width="1.1"/>
<rect x="391.7" y="447.2" width="12.2" height="22.8" fill="none" stroke="#e34948" stroke-width="1.1"/>
<rect x="413.9" y="442.7" width="12.2" height="27.3" fill="#008300"/>
<rect x="436.1" y="456.3" width="12.2" height="13.7" fill="#008300"/>
<rect x="458.2" y="429.0" width="12.2" height="41.0" fill="#008300"/>
<rect x="480.4" y="438.1" width="12.2" height="31.9" fill="#008300"/>
<rect x="502.6" y="424.4" width="12.2" height="45.6" fill="none" stroke="#e34948" stroke-width="1.1"/>
<rect x="524.7" y="410.8" width="12.2" height="59.2" fill="none" stroke="#e34948" stroke-width="1.1"/>
<rect x="546.9" y="424.4" width="12.2" height="45.6" fill="#008300"/>
<rect x="569.0" y="406.2" width="12.2" height="63.8" fill="none" stroke="#e34948" stroke-width="1.1"/>
<rect x="591.2" y="442.7" width="12.2" height="27.3" fill="#008300"/>
<rect x="613.4" y="442.7" width="12.2" height="27.3" fill="none" stroke="#e34948" stroke-width="1.1"/>
<rect x="635.5" y="442.7" width="12.2" height="27.3" fill="#008300"/>
<rect x="657.7" y="429.0" width="12.2" height="41.0" fill="#008300"/>
<rect x="679.9" y="433.6" width="12.2" height="36.4" fill="none" stroke="#e34948" stroke-width="1.1"/>
<rect x="702.0" y="410.8" width="12.2" height="59.2" fill="none" stroke="#e34948" stroke-width="1.1"/>
<rect x="724.2" y="456.3" width="12.2" height="13.7" fill="#008300"/>
<rect x="746.3" y="460.9" width="12.2" height="9.1" fill="none" stroke="#e34948" stroke-width="1.1"/>
<rect x="768.5" y="442.7" width="12.2" height="27.3" fill="none" stroke="#e34948" stroke-width="1.1"/>
<rect x="790.7" y="442.7" width="12.2" height="27.3" fill="#008300"/>
<rect x="812.8" y="429.0" width="12.2" height="41.0" fill="none" stroke="#e34948" stroke-width="1.1"/>
<polyline points="220.5,417.6 242.7,418.5 264.9,420.3 287.0,419.4 309.2,420.3 331.4,419.9 353.5,420.8 375.7,424.4 397.8,430.4 420.0,431.7 442.2,436.7 464.3,435.4 486.5,434.5 508.6,433.6 530.8,432.6 553.0,433.1 575.1,430.8 597.3,432.2 619.5,431.7 641.6,431.7 663.8,429.0 685.9,429.5 708.1,426.7 730.3,429.9 752.4,434.9 774.6,436.7 796.8,440.4 818.9,439.0" fill="none" stroke="#2a78d6" stroke-width="1.5" stroke-linejoin="round" stroke-linecap="round"/>
<polyline points="109.7,428.1 131.9,425.4 154.1,418.1 176.2,407.1 198.4,410.8 220.5,407.1 242.7,411.7 264.9,422.6 287.0,431.7 309.2,429.9 331.4,432.6 353.5,429.9 375.7,426.3 397.8,429.0 420.0,433.6 442.2,440.8 464.3,440.8 486.5,442.7 508.6,438.1 530.8,431.7 553.0,425.4 575.1,420.8 597.3,421.7 619.5,425.4 641.6,431.7 663.8,432.6 685.9,438.1 708.1,431.7 730.3,434.5 752.4,438.1 774.6,440.8 796.8,442.7 818.9,446.3" fill="none" stroke="#eda100" stroke-width="1.5" stroke-linejoin="round" stroke-linecap="round"/>
</svg>