<svg xmlns="http://www.w3.org/2000/svg" viewBox="0 0 840 496" width="840" height="496" font-family="-apple-system,&#39;Segoe UI&#39;,system-ui,sans-serif" role="img" aria-label="trimstray/the-book-of-secret-knowledge candlestick chart">
<text x="14.0" y="20.0" font-size="15" fill="#ffffff" font-weight="650">trimstray/the-book-of-secret-knowledge</text>
<text x="331.5" y="20.0" font-size="11.5" fill="#c3c2b7">daily · new stars, volume = new forks</text>
<text x="805.8" y="20.0" font-size="11.0" fill="#c3c2b7">fall</text>
<rect x="791" y="10" width="9" height="12" fill="#008300"/>
<text x="750.6" y="20.0" font-size="11.0" fill="#c3c2b7">rise</text>
<rect x="736" y="10" width="9" height="12" fill="none" stroke="#e66767" stroke-width="1.5"/>
<text x="14.0" y="38.0" font-size="11.0" fill="#898781">last 48 days · +8,282 stars · +400 forks · updated 2026-07-22</text>
<rect x="10" y="66" width="820" height="290" fill="none" stroke="#2c2c2a"/>
<rect x="10" y="384" width="820" height="86" fill="none" stroke="#2c2c2a"/>
<text x="38.0" y="490.0" font-size="11.0" fill="#898781" text-anchor="middle">2026-06</text>
<line x1="454.2" y1="66.0" x2="454.2" y2="356.0" stroke="#2c2c2a" stroke-width="1.0"/>
<line x1="454.2" y1="384.0" x2="454.2" y2="470.0" stroke="#2c2c2a" stroke-width="1.0"/>
<text x="462.7" y="490.0" font-size="11.0" fill="#898781" text-anchor="middle">2026-07</text>
<text x="14.0" y="58.0" font-size="11.0" fill="#c3c2b7">BOLL(20,2)</text>
<text x="84.5" y="58.0" font-size="11.0" fill="#c98500">UP:218.8</text>
<text x="142.9" y="58.0" font-size="11.0" fill="#3987e5">MID:160.8</text>
<text x="207.4" y="58.0" font-size="11.0" fill="#d55181">LOW:102.8</text>
<text x="271.8" y="58.0" font-size="11.0" fill="#9085e9">MA7:170.1</text>
<line x1="10.0" y1="356.0" x2="830.0" y2="356.0" stroke="#2c2c2a" stroke-width="1.0"/>
<text x="14.0" y="353.0" font-size="11.0" fill="#898781">0</text>
<line x1="10.0" y1="237.3" x2="830.0" y2="237.3" stroke="#2c2c2a" stroke-width="1.0"/>
<text x="14.0" y="234.3" font-size="11.0" fill="#898781">100</text>
<line x1="10.0" y1="118.7" x2="830.0" y2="118.7" stroke="#2c2c2a" stroke-width="1.0"/>
<text x="14.0" y="115.7" font-size="11.0" fill="#898781">200</text>
<polyline points="343.1,83.8 360.2,88.6 377.3,88.3 394.4,93.1 411.5,92.6 428.5,92.6 445.6,92.9 462.7,103.1 479.8,110.9 496.9,111.2 514.0,112.0 531.0,111.8 548.1,108.9 565.2,81.2 582.3,81.6 599.4,79.8 616.5,83.6 633.5,87.3 650.6,95.4 667.7,96.8 684.8,96.8 701.9,97.0 719.0,96.8 736.0,96.3 753.1,97.9 770.2,94.8 787.3,95.7 804.4,94.9 821.5,96.4" fill="none" stroke="#c98500" stroke-width="1.5" stroke-linejoin="round" stroke-linecap="round"/>
<polyline points="343.1,135.1 360.2,138.8 377.3,140.8 394.4,143.7 411.5,143.1 428.5,143.0 445.6,142.0 462.7,145.8 479.8,148.0 496.9,148.2 514.0,148.7 531.0,147.5 548.1,145.4 565.2,151.7 582.3,156.3 599.4,155.3 616.5,158.1 633.5,159.9 650.6,163.4 667.7,165.1 684.8,165.1 701.9,165.5 719.0,165.1 736.0,164.8 753.1,165.6 770.2,164.3 787.3,164.9 804.4,164.3 821.5,165.2" fill="none" stroke="#3987e5" stroke-width="1.5" stroke-linejoin="round" stroke-linecap="round"/>
<polyline points="343.1,186.4 360.2,189.0 377.3,193.2 394.4,194.3 411.5,193.7 428.5,193.4 445.6,191.1 462.7,188.5 479.8,185.1 496.9,185.2 514.0,185.4 531.0,183.2 548.1,182.0 565.2,222.1 582.3,231.0 599.4,230.9 616.5,232.7 633.5,232.5 650.6,231.3 667.7,233.4 684.8,233.4 701.9,234.0 719.0,233.5 736.0,233.2 753.1,233.2 770.2,233.8 787.3,234.1 804.4,233.7 821.5,234.0" fill="none" stroke="#d55181" stroke-width="1.5" stroke-linejoin="round" stroke-linecap="round"/>
<polyline points="121.0,128.2 138.1,128.6 155.2,129.5 172.3,134.2 189.4,136.6 206.5,138.0 223.5,136.5 240.6,141.9 257.7,149.1 274.8,146.3 291.9,144.0 309.0,134.8 326.0,132.9 343.1,133.8 360.2,140.2 377.3,143.7 394.4,149.7 411.5,152.3 428.5,159.1 445.6,159.0 462.7,158.7 479.8,155.0 496.9,150.8 514.0,148.5 531.0,149.2 548.1,144.9 565.2,164.1 582.3,172.0 599.4,170.1 616.5,174.6 633.5,176.0 650.6,180.0 667.7,189.0 684.8,172.1 701.9,166.5 719.0,171.7 736.0,168.6 753.1,168.4 770.2,161.9 787.3,158.6 804.4,156.5 821.5,154.2" fill="none" stroke="#9085e9" stroke-width="1.5" stroke-linejoin="round" stroke-linecap="round"/>
<rect x="13.8" y="96.1" width="9.4" height="259.9" fill="none" stroke="#e66767" stroke-width="1.3"/>
<rect x="30.9" y="96.1" width="9.4" height="39.2" fill="#008300"/>
<rect x="48.0" y="104.4" width="9.4" height="30.9" fill="none" stroke="#e66767" stroke-width="1.3"/>
<rect x="65.1" y="104.4" width="9.4" height="46.3" fill="#008300"/>
<rect x="82.2" y="150.7" width="9.4" height="3.6" fill="#008300"/>
<rect x="99.3" y="154.3" width="9.4" height="15.4" fill="#008300"/>
<rect x="116.3" y="86.6" width="9.4" height="83.1" fill="none" stroke="#e66767" stroke-width="1.3"/>
<rect x="133.4" y="86.6" width="9.4" height="13.1" fill="#008300"/>
<rect x="150.5" y="99.7" width="9.4" height="41.5" fill="#008300"/>
<rect x="167.6" y="137.7" width="9.4" height="3.6" fill="none" stroke="#e66767" stroke-width="1.3"/>
<rect x="184.7" y="137.7" width="9.4" height="29.7" fill="#008300"/>
<rect x="201.8" y="163.8" width="9.4" height="3.6" fill="none" stroke="#e66767" stroke-width="1.3"/>
<rect x="218.8" y="159.0" width="9.4" height="4.7" fill="none" stroke="#e66767" stroke-width="1.3"/>
<rect x="235.9" y="124.6" width="9.4" height="34.4" fill="none" stroke="#e66767" stroke-width="1.3"/>
<rect x="253.0" y="124.6" width="9.4" height="24.9" fill="#008300"/>
<rect x="270.1" y="122.2" width="9.4" height="27.3" fill="none" stroke="#e66767" stroke-width="1.3"/>
<rect x="287.2" y="121.1" width="9.4" height="1.2" fill="none" stroke="#e66767" stroke-width="1.3"/>
<rect x="304.3" y="103.3" width="9.4" height="17.8" fill="none" stroke="#e66767" stroke-width="1.3"/>
<rect x="321.3" y="103.3" width="9.4" height="47.5" fill="#008300"/>
<rect x="338.4" y="150.7" width="9.4" height="14.2" fill="#008300"/>
<rect x="355.5" y="165.0" width="9.4" height="4.7" fill="#008300"/>
<rect x="372.6" y="169.7" width="9.4" height="4.7" fill="#008300"/>
<rect x="389.7" y="163.8" width="9.4" height="10.7" fill="none" stroke="#e66767" stroke-width="1.3"/>
<rect x="406.8" y="138.9" width="9.4" height="24.9" fill="none" stroke="#e66767" stroke-width="1.3"/>
<rect x="423.8" y="138.9" width="9.4" height="13.1" fill="#008300"/>
<rect x="440.9" y="149.5" width="9.4" height="2.4" fill="none" stroke="#e66767" stroke-width="1.3"/>
<rect x="458.0" y="149.5" width="9.4" height="13.1" fill="#008300"/>
<rect x="475.1" y="143.6" width="9.4" height="19.0" fill="none" stroke="#e66767" stroke-width="1.3"/>
<rect x="492.2" y="143.6" width="9.4" height="2.4" fill="#008300"/>
<rect x="509.3" y="146.0" width="9.4" height="1.2" fill="#008300"/>
<rect x="526.3" y="143.6" width="9.4" height="3.6" fill="none" stroke="#e66767" stroke-width="1.3"/>
<rect x="543.4" y="122.2" width="9.4" height="21.4" fill="none" stroke="#e66767" stroke-width="1.3"/>
<rect x="560.5" y="122.2" width="9.4" height="161.4" fill="#008300"/>
<rect x="577.6" y="217.2" width="9.4" height="66.4" fill="none" stroke="#e66767" stroke-width="1.3"/>
<rect x="594.7" y="130.5" width="9.4" height="86.6" fill="none" stroke="#e66767" stroke-width="1.3"/>
<rect x="611.8" y="130.5" width="9.4" height="47.5" fill="#008300"/>
<rect x="628.8" y="156.7" width="9.4" height="21.4" fill="none" stroke="#e66767" stroke-width="1.3"/>
<rect x="645.9" y="156.7" width="9.4" height="15.4" fill="#008300"/>
<rect x="663.0" y="172.1" width="9.4" height="13.1" fill="#008300"/>
<rect x="680.1" y="165.0" width="9.4" height="20.2" fill="none" stroke="#e66767" stroke-width="1.3"/>
<rect x="697.2" y="165.0" width="9.4" height="13.1" fill="#008300"/>
<rect x="714.3" y="167.3" width="9.4" height="10.7" fill="none" stroke="#e66767" stroke-width="1.3"/>
<rect x="731.3" y="156.7" width="9.4" height="10.7" fill="none" stroke="#e66767" stroke-width="1.3"/>
<rect x="748.4" y="154.3" width="9.4" height="2.4" fill="none" stroke="#e66767" stroke-width="1.3"/>
<rect x="765.5" y="127.0" width="9.4" height="27.3" fill="none" stroke="#e66767" stroke-width="1.3"/>
<rect x="782.6" y="127.0" width="9.4" height="34.4" fill="#008300"/>
<rect x="799.7" y="150.7" width="9.4" height="10.7" fill="none" stroke="#e66767" stroke-width="1.3"/>
<rect x="816.8" y="150.7" width="9.4" height="10.7" fill="#008300"/>
<circle cx="121.0" cy="86.6" r="2" fill="#c3c2b7"/>
<line x1="121.0" y1="86.6" x2="129.0" y2="86.6" stroke="#c3c2b7" stroke-width="1.0"/>
<text x="132.0" y="90.6" font-size="11.0" fill="#c3c2b7">227</text>
<circle cx="18.5" cy="356.0" r="2" fill="#c3c2b7"/>
<line x1="18.5" y1="356.0" x2="26.5" y2="356.0" stroke="#c3c2b7" stroke-width="1.0"/>
<text x="29.5" y="350.0" font-size="11.0" fill="#c3c2b7">0</text>
<text x="14.0" y="376.0" font-size="11.0" fill="#c3c2b7">VOL 11 forks</text>
<text x="96.6" y="376.0" font-size="11.0" fill="#c98500">MA5:6.6</text>
<text x="149.0" y="376.0" font-size="11.0" fill="#3987e5">MA10:6.9</text>
<text x="14.0" y="395.0" font-size="10" fill="#898781">18</text>
<rect x="13.8" y="433.6" width="9.4" height="36.4" fill="none" stroke="#e66767" stroke-width="1.1"/>
<rect x="30.9" y="429.0" width="9.4" height="41.0" fill="#008300"/>
<rect x="48.0" y="442.7" width="9.4" height="27.3" fill="none" stroke="#e66767" stroke-width="1.1"/>
<rect x="65.1" y="410.8" width="9.4" height="59.2" fill="#008300"/>
<rect x="82.2" y="424.4" width="9.4" height="45.6" fill="#008300"/>
<rect x="99.3" y="419.9" width="9.4" height="50.1" fill="#008300"/>
<rect x="116.3" y="392.6" width="9.4" height="77.4" fill="none" stroke="#e66767" stroke-width="1.1"/>
<rect x="133.4" y="388.0" width="9.4" height="82.0" fill="#008300"/>
<rect x="150.5" y="429.0" width="9.4" height="41.0" fill="#008300"/>
<rect x="167.6" y="406.2" width="9.4" height="63.8" fill="none" stroke="#e66767" stroke-width="1.1"/>
<rect x="184.7" y="442.7" width="9.4" height="27.3" fill="#008300"/>
<rect x="201.8" y="447.2" width="9.4" height="22.8" fill="none" stroke="#e66767" stroke-width="1.1"/>
<rect x="218.8" y="433.6" width="9.4" height="36.4" fill="none" stroke="#e66767" stroke-width="1.1"/>
<rect x="235.9" y="419.9" width="9.4" height="50.1" fill="none" stroke="#e66767" stroke-width="1.1"/>
<rect x="253.0" y="419.9" width="9.4" height="50.1" fill="#008300"/>
<rect x="270.1" y="429.0" width="9.4" height="41.0" fill="none" stroke="#e66767" stroke-width="1.1"/>
<rect x="287.2" y="429.0" width="9.4" height="41.0" fill="none" stroke="#e66767" stroke-width="1.1"/>
<rect x="304.3" y="447.2" width="9.4" height="22.8" fill="none" stroke="#e66767" stroke-width="1.1"/>
<rect x="321.3" y="442.7" width="9.4" height="27.3" fill="#008300"/>
<rect x="338.4" y="456.3" width="9.4" height="13.7" fill="#008300"/>
<rect x="355.5" y="429.0" width="9.4" height="41.0" fill="#008300"/>
<rect x="372.6" y="438.1" width="9.4" height="31.9" fill="#008300"/>
<rect x="389.7" y="424.4" width="9.4" height="45.6" fill="none" stroke="#e66767" stroke-width="1.1"/>
<rect x="406.8" y="410.8" width="9.4" height="59.2" fill="none" stroke="#e66767" stroke-width="1.1"/>
<rect x="423.8" y="424.4" width="9.4" height="45.6" fill="#008300"/>
<rect x="440.9" y="406.2" width="9.4" height="63.8" fill="none" stroke="#e66767" stroke-width="1.1"/>
<rect x="458.0" y="442.7" width="9.4" height="27.3" fill="#008300"/>
<rect x="475.1" y="442.7" width="9.4" height="27.3" fill="none" stroke="#e66767" stroke-width="1.1"/>
<rect x="492.2" y="442.7" width="9.4" height="27.3" fill="#008300"/>
<rect x="509.3" y="429.0" width="9.4" height="41.0" fill="#008300"/>
<rect x="526.3" y="433.6" width="9.4" height="36.4" fill="none" stroke="#e66767" stroke-width="1.1"/>
<rect x="543.4" y="410.8" width="9.4" height="59.2" fill="none" stroke="#e66767" stroke-width="1.1"/>
<rect x="560.5" y="456.3" width="9.4" height="13.7" fill="#008300"/>
<rect x="577.6" y="460.9" width="9.4" height="9.1" fill="none" stroke="#e66767" stroke-width="1.1"/>
<rect x="594.7" y="442.7" width="9.4" height="27.3" fill="none" stroke="#e66767" stroke-width="1.1"/>
<rect x="611.8" y="442.7" width="9.4" height="27.3" fill="#008300"/>
<rect x="628.8" y="429.0" width="9.4" height="41.0" fill="none" stroke="#e66767" stroke-width="1.1"/>
<rect x="645.9" y="442.7" width="9.4" height="27.3" fill="#008300"/>
<rect x="663.0" y="429.0" width="9.4" height="41.0" fill="#008300"/>
<rect x="680.1" y="419.9" width="9.4" height="50.1" fill="none" stroke="#e66767" stroke-width="1.1"/>
<rect x="697.2" y="465.4" width="9.4" height="4.6" fill="#008300"/>
<rect x="714.3" y="438.1" width="9.4" height="31.9" fill="none" stroke="#e66767" stroke-width="1.1"/>
<rect x="731.3" y="433.6" width="9.4" height="36.4" fill="none" stroke="#e66767" stroke-width="1.1"/>
<rect x="748.4" y="433.6" width="9.4" height="36.4" fill="none" stroke="#e66767" stroke-width="1.1"/>
<rect x="765.5" y="429.0" width="9.4" height="41.0" fill="none" stroke="#e66767" stroke-width="1.1"/>
<rect x="782.6" y="456.3" width="9.4" height="13.7" fill="#008300"/>
<rect x="799.7" y="460.9" width="9.4" height="9.1" fill="none" stroke="#e66767" stroke-width="1.1"/>
<rect x="816.8" y="419.9" width="9.4" height="50.1" fill="#008300"/>
<polyline points="172.3,417.6 189.4,418.5 206.5,420.3 223.5,419.4 240.6,420.3 257.7,419.9 274.8,420.8 291.9,424.4 309.0,430.4 326.0,431.7 343.1,436.7 360.2,435.4 377.3,434.5 394.4,433.6 411.5,432.6 428.5,433.1 445.6,430.8 462.7,432.2 479.8,431.7 496.9,431.7 514.0,429.0 531.0,429.5 548.1,426.7 565.2,429.9 582.3,434.9 599.4,436.7 616.5,440.4 633.5,439.0 650.6,439.0 667.7,437.7 684.8,436.7 701.9,439.9 719.0,442.7 736.0,440.4 753.1,437.7 770.2,436.3 787.3,437.7 804.4,440.8 821.5,438.6" fill="none" stroke="#3987e5" stroke-width="1.5" stroke-linejoin="round" stroke-linecap="round"/>
<polyline points="86.9,428.1 104.0,425.4 121.0,418.1 138.1,407.1 155.2,410.8 172.3,407.1 189.4,411.7 206.5,422.6 223.5,431.7 240.6,429.9 257.7,432.6 274.8,429.9 291.9,426.3 309.0,429.0 326.0,433.6 343.1,440.8 360.2,440.8 377.3,442.7 394.4,438.1 411.5,431.7 428.5,425.4 445.6,420.8 462.7,421.7 479.8,425.4 496.9,431.7 514.0,432.6 531.0,438.1 548.1,431.7 565.2,434.5 582.3,438.1 599.4,440.8 616.5,442.7 633.5,446.3 650.6,443.6 667.7,437.2 684.8,432.6 701.9,437.2 719.0,439.0 736.0,437.2 753.1,438.1 770.2,439.9 787.3,438.1 804.4,442.7 821.5,439.9" fill="none" stroke="#c98500" stroke-width="1.5" stroke-linejoin="round" stroke-linecap="round"/>
</svg>