<svg xmlns="http://www.w3.org/2000/svg" viewBox="0 0 840 496" width="840" height="496" font-family="-apple-system,&#39;Segoe UI&#39;,system-ui,sans-serif" role="img" aria-label="trimstray/the-book-of-secret-knowledge candlestick chart">
<text x="14.0" y="20.0" font-size="15" fill="#0b0b0b" font-weight="650">trimstray/the-book-of-secret-knowledge</text>
<text x="331.5" y="20.0" font-size="11.5" fill="#52514e">daily · new stars, volume = new forks</text>
<text x="805.8" y="20.0" font-size="11.0" fill="#52514e">fall</text>
<rect x="791" y="10" width="9" height="12" fill="#008300"/>
<text x="750.6" y="20.0" font-size="11.0" fill="#52514e">rise</text>
<rect x="736" y="10" width="9" height="12" fill="none" stroke="#e34948" stroke-width="1.5"/>
<text x="14.0" y="38.0" font-size="11.0" fill="#898781">last 41 days · +7,091 stars · +352 forks · updated 2026-07-15</text>
<rect x="10" y="66" width="820" height="290" fill="none" stroke="#e1e0d9"/>
<rect x="10" y="384" width="820" height="86" fill="none" stroke="#e1e0d9"/>
<text x="38.0" y="490.0" font-size="11.0" fill="#898781" text-anchor="middle">2026-06</text>
<line x1="530.0" y1="66.0" x2="530.0" y2="356.0" stroke="#e1e0d9" stroke-width="1.0"/>
<line x1="530.0" y1="384.0" x2="530.0" y2="470.0" stroke="#e1e0d9" stroke-width="1.0"/>
<text x="540.0" y="490.0" font-size="11.0" fill="#898781" text-anchor="middle">2026-07</text>
<text x="14.0" y="58.0" font-size="11.0" fill="#52514e">BOLL(20,2)</text>
<text x="84.5" y="58.0" font-size="11.0" fill="#eda100">UP:218.3</text>
<text x="142.9" y="58.0" font-size="11.0" fill="#2a78d6">MID:160.6</text>
<text x="207.4" y="58.0" font-size="11.0" fill="#e87ba4">LOW:102.8</text>
<text x="271.8" y="58.0" font-size="11.0" fill="#4a3aa7">MA7:159.7</text>
<line x1="10.0" y1="356.0" x2="830.0" y2="356.0" stroke="#e1e0d9" stroke-width="1.0"/>
<text x="14.0" y="353.0" font-size="11.0" fill="#898781">0</text>
<line x1="10.0" y1="237.3" x2="830.0" y2="237.3" stroke="#e1e0d9" stroke-width="1.0"/>
<text x="14.0" y="234.3" font-size="11.0" fill="#898781">100</text>
<line x1="10.0" y1="118.7" x2="830.0" y2="118.7" stroke="#e1e0d9" stroke-width="1.0"/>
<text x="14.0" y="115.7" font-size="11.0" fill="#898781">200</text>
<polyline points="400.0,83.8 420.0,88.6 440.0,88.3 460.0,93.1 480.0,92.6 500.0,92.6 520.0,92.9 540.0,103.1 560.0,110.9 580.0,111.2 600.0,112.0 620.0,111.8 640.0,108.9 660.0,81.2 680.0,81.6 700.0,79.8 720.0,83.6 740.0,87.3 760.0,95.4 780.0,96.8 800.0,96.8 820.0,97.0" fill="none" stroke="#eda100" stroke-width="1.5" stroke-linejoin="round" stroke-linecap="round"/>
<polyline points="400.0,135.1 420.0,138.8 440.0,140.8 460.0,143.7 480.0,143.1 500.0,143.0 520.0,142.0 540.0,145.8 560.0,148.0 580.0,148.2 600.0,148.7 620.0,147.5 640.0,145.4 660.0,151.7 680.0,156.3 700.0,155.3 720.0,158.1 740.0,159.9 760.0,163.4 780.0,165.1 800.0,165.1 820.0,165.5" fill="none" stroke="#2a78d6" stroke-width="1.5" stroke-linejoin="round" stroke-linecap="round"/>
<polyline points="400.0,186.4 420.0,189.0 440.0,193.2 460.0,194.3 480.0,193.7 500.0,193.4 520.0,191.1 540.0,188.5 560.0,185.1 580.0,185.2 600.0,185.4 620.0,183.2 640.0,182.0 660.0,222.1 680.0,231.0 700.0,230.9 720.0,232.7 740.0,232.5 760.0,231.3 780.0,233.4 800.0,233.4 820.0,234.0" fill="none" stroke="#e87ba4" stroke-width="1.5" stroke-linejoin="round" stroke-linecap="round"/>
<polyline points="140.0,128.2 160.0,128.6 180.0,129.5 200.0,134.2 220.0,136.6 240.0,138.0 260.0,136.5 280.0,141.9 300.0,149.1 320.0,146.3 340.0,144.0 360.0,134.8 380.0,132.9 400.0,133.8 420.0,140.2 440.0,143.7 460.0,149.7 480.0,152.3 500.0,159.1 520.0,159.0 540.0,158.7 560.0,155.0 580.0,150.8 600.0,148.5 620.0,149.2 640.0,144.9 660.0,164.1 680.0,172.0 700.0,170.1 720.0,174.6 740.0,176.0 760.0,180.0 780.0,189.0 800.0,172.1 820.0,166.5" fill="none" stroke="#4a3aa7" stroke-width="1.5" stroke-linejoin="round" stroke-linecap="round"/>
<rect x="14.5" y="96.1" width="11.0" height="259.9" fill="none" stroke="#e34948" stroke-width="1.3"/>
<rect x="34.5" y="96.1" width="11.0" height="39.2" fill="#008300"/>
<rect x="54.5" y="104.4" width="11.0" height="30.9" fill="none" stroke="#e34948" stroke-width="1.3"/>
<rect x="74.5" y="104.4" width="11.0" height="46.3" fill="#008300"/>
<rect x="94.5" y="150.7" width="11.0" height="3.6" fill="#008300"/>
<rect x="114.5" y="154.3" width="11.0" height="15.4" fill="#008300"/>
<rect x="134.5" y="86.6" width="11.0" height="83.1" fill="none" stroke="#e34948" stroke-width="1.3"/>
<rect x="154.5" y="86.6" width="11.0" height="13.1" fill="#008300"/>
<rect x="174.5" y="99.7" width="11.0" height="41.5" fill="#008300"/>
<rect x="194.5" y="137.7" width="11.0" height="3.6" fill="none" stroke="#e34948" stroke-width="1.3"/>
<rect x="214.5" y="137.7" width="11.0" height="29.7" fill="#008300"/>
<rect x="234.5" y="163.8" width="11.0" height="3.6" fill="none" stroke="#e34948" stroke-width="1.3"/>
<rect x="254.5" y="159.0" width="11.0" height="4.7" fill="none" stroke="#e34948" stroke-width="1.3"/>
<rect x="274.5" y="124.6" width="11.0" height="34.4" fill="none" stroke="#e34948" stroke-width="1.3"/>
<rect x="294.5" y="124.6" width="11.0" height="24.9" fill="#008300"/>
<rect x="314.5" y="122.2" width="11.0" height="27.3" fill="none" stroke="#e34948" stroke-width="1.3"/>
<rect x="334.5" y="121.1" width="11.0" height="1.2" fill="none" stroke="#e34948" stroke-width="1.3"/>
<rect x="354.5" y="103.3" width="11.0" height="17.8" fill="none" stroke="#e34948" stroke-width="1.3"/>
<rect x="374.5" y="103.3" width="11.0" height="47.5" fill="#008300"/>
<rect x="394.5" y="150.7" width="11.0" height="14.2" fill="#008300"/>
<rect x="414.5" y="165.0" width="11.0" height="4.7" fill="#008300"/>
<rect x="434.5" y="169.7" width="11.0" height="4.7" fill="#008300"/>
<rect x="454.5" y="163.8" width="11.0" height="10.7" fill="none" stroke="#e34948" stroke-width="1.3"/>
<rect x="474.5" y="138.9" width="11.0" height="24.9" fill="none" stroke="#e34948" stroke-width="1.3"/>
<rect x="494.5" y="138.9" width="11.0" height="13.1" fill="#008300"/>
<rect x="514.5" y="149.5" width="11.0" height="2.4" fill="none" stroke="#e34948" stroke-width="1.3"/>
<rect x="534.5" y="149.5" width="11.0" height="13.1" fill="#008300"/>
<rect x="554.5" y="143.6" width="11.0" height="19.0" fill="none" stroke="#e34948" stroke-width="1.3"/>
<rect x="574.5" y="143.6" width="11.0" height="2.4" fill="#008300"/>
<rect x="594.5" y="146.0" width="11.0" height="1.2" fill="#008300"/>
<rect x="614.5" y="143.6" width="11.0" height="3.6" fill="none" stroke="#e34948" stroke-width="1.3"/>
<rect x="634.5" y="122.2" width="11.0" height="21.4" fill="none" stroke="#e34948" stroke-width="1.3"/>
<rect x="654.5" y="122.2" width="11.0" height="161.4" fill="#008300"/>
<rect x="674.5" y="217.2" width="11.0" height="66.4" fill="none" stroke="#e34948" stroke-width="1.3"/>
<rect x="694.5" y="130.5" width="11.0" height="86.6" fill="none" stroke="#e34948" stroke-width="1.3"/>
<rect x="714.5" y="130.5" width="11.0" height="47.5" fill="#008300"/>
<rect x="734.5" y="156.7" width="11.0" height="21.4" fill="none" stroke="#e34948" stroke-width="1.3"/>
<rect x="754.5" y="156.7" width="11.0" height="15.4" fill="#008300"/>
<rect x="774.5" y="172.1" width="11.0" height="13.1" fill="#008300"/>
<rect x="794.5" y="165.0" width="11.0" height="20.2" fill="none" stroke="#e34948" stroke-width="1.3"/>
<rect x="814.5" y="165.0" width="11.0" height="13.1" fill="#008300"/>
<circle cx="140.0" cy="86.6" r="2" fill="#52514e"/>
<line x1="140.0" y1="86.6" x2="148.0" y2="86.6" stroke="#52514e" stroke-width="1.0"/>
<text x="151.0" y="90.6" font-size="11.0" fill="#52514e">227</text>
<circle cx="20.0" cy="356.0" r="2" fill="#52514e"/>
<line x1="20.0" y1="356.0" x2="28.0" y2="356.0" stroke="#52514e" stroke-width="1.0"/>
<text x="31.0" y="350.0" font-size="11.0" fill="#52514e">0</text>
<text x="14.0" y="376.0" font-size="11.0" fill="#52514e">VOL 1 forks</text>
<text x="90.6" y="376.0" font-size="11.0" fill="#eda100">MA5:7.2</text>
<text x="142.9" y="376.0" font-size="11.0" fill="#2a78d6">MA10:6.6</text>
<text x="14.0" y="395.0" font-size="10" fill="#898781">18</text>
<rect x="14.5" y="433.6" width="11.0" height="36.4" fill="none" stroke="#e34948" stroke-width="1.1"/>
<rect x="34.5" y="429.0" width="11.0" height="41.0" fill="#008300"/>
<rect x="54.5" y="442.7" width="11.0" height="27.3" fill="none" stroke="#e34948" stroke-width="1.1"/>
<rect x="74.5" y="410.8" width="11.0" height="59.2" fill="#008300"/>
<rect x="94.5" y="424.4" width="11.0" height="45.6" fill="#008300"/>
<rect x="114.5" y="419.9" width="11.0" height="50.1" fill="#008300"/>
<rect x="134.5" y="392.6" width="11.0" height="77.4" fill="none" stroke="#e34948" stroke-width="1.1"/>
<rect x="154.5" y="388.0" width="11.0" height="82.0" fill="#008300"/>
<rect x="174.5" y="429.0" width="11.0" height="41.0" fill="#008300"/>
<rect x="194.5" y="406.2" width="11.0" height="63.8" fill="none" stroke="#e34948" stroke-width="1.1"/>
<rect x="214.5" y="442.7" width="11.0" height="27.3" fill="#008300"/>
<rect x="234.5" y="447.2" width="11.0" height="22.8" fill="none" stroke="#e34948" stroke-width="1.1"/>
<rect x="254.5" y="433.6" width="11.0" height="36.4" fill="none" stroke="#e34948" stroke-width="1.1"/>
<rect x="274.5" y="419.9" width="11.0" height="50.1" fill="none" stroke="#e34948" stroke-width="1.1"/>
<rect x="294.5" y="419.9" width="11.0" height="50.1" fill="#008300"/>
<rect x="314.5" y="429.0" width="11.0" height="41.0" fill="none" stroke="#e34948" stroke-width="1.1"/>
<rect x="334.5" y="429.0" width="11.0" height="41.0" fill="none" stroke="#e34948" stroke-width="1.1"/>
<rect x="354.5" y="447.2" width="11.0" height="22.8" fill="none" stroke="#e34948" stroke-width="1.1"/>
<rect x="374.5" y="442.7" width="11.0" height="27.3" fill="#008300"/>
<rect x="394.5" y="456.3" width="11.0" height="13.7" fill="#008300"/>
<rect x="414.5" y="429.0" width="11.0" height="41.0" fill="#008300"/>
<rect x="434.5" y="438.1" width="11.0" height="31.9" fill="#008300"/>
<rect x="454.5" y="424.4" width="11.0" height="45.6" fill="none" stroke="#e34948" stroke-width="1.1"/>
<rect x="474.5" y="410.8" width="11.0" height="59.2" fill="none" stroke="#e34948" stroke-width="1.1"/>
<rect x="494.5" y="424.4" width="11.0" height="45.6" fill="#008300"/>
<rect x="514.5" y="406.2" width="11.0" height="63.8" fill="none" stroke="#e34948" stroke-width="1.1"/>
<rect x="534.5" y="442.7" width="11.0" height="27.3" fill="#008300"/>
<rect x="554.5" y="442.7" width="11.0" height="27.3" fill="none" stroke="#e34948" stroke-width="1.1"/>
<rect x="574.5" y="442.7" width="11.0" height="27.3" fill="#008300"/>
<rect x="594.5" y="429.0" width="11.0" height="41.0" fill="#008300"/>
<rect x="614.5" y="433.6" width="11.0" height="36.4" fill="none" stroke="#e34948" stroke-width="1.1"/>
<rect x="634.5" y="410.8" width="11.0" height="59.2" fill="none" stroke="#e34948" stroke-width="1.1"/>
<rect x="654.5" y="456.3" width="11.0" height="13.7" fill="#008300"/>
<rect x="674.5" y="460.9" width="11.0" height="9.1" fill="none" stroke="#e34948" stroke-width="1.1"/>
<rect x="694.5" y="442.7" width="11.0" height="27.3" fill="none" stroke="#e34948" stroke-width="1.1"/>
<rect x="714.5" y="442.7" width="11.0" height="27.3" fill="#008300"/>
<rect x="734.5" y="429.0" width="11.0" height="41.0" fill="none" stroke="#e34948" stroke-width="1.1"/>
<rect x="754.5" y="442.7" width="11.0" height="27.3" fill="#008300"/>
<rect x="774.5" y="429.0" width="11.0" height="41.0" fill="#008300"/>
<rect x="794.5" y="419.9" width="11.0" height="50.1" fill="none" stroke="#e34948" stroke-width="1.1"/>
<rect x="814.5" y="465.4" width="11.0" height="4.6" fill="#008300"/>
<polyline points="200.0,417.6 220.0,418.5 240.0,420.3 260.0,419.4 280.0,420.3 300.0,419.9 320.0,420.8 340.0,424.4 360.0,430.4 380.0,431.7 400.0,436.7 420.0,435.4 440.0,434.5 460.0,433.6 480.0,432.6 500.0,433.1 520.0,430.8 540.0,432.2 560.0,431.7 580.0,431.7 600.0,429.0 620.0,429.5 640.0,426.7 660.0,429.9 680.0,434.9 700.0,436.7 720.0,440.4 740.0,439.0 760.0,439.0 780.0,437.7 800.0,436.7 820.0,439.9" fill="none" stroke="#2a78d6" stroke-width="1.5" stroke-linejoin="round" stroke-linecap="round"/>
<polyline points="100.0,428.1 120.0,425.4 140.0,418.1 160.0,407.1 180.0,410.8 200.0,407.1 220.0,411.7 240.0,422.6 260.0,431.7 280.0,429.9 300.0,432.6 320.0,429.9 340.0,426.3 360.0,429.0 380.0,433.6 400.0,440.8 420.0,440.8 440.0,442.7 460.0,438.1 480.0,431.7 500.0,425.4 520.0,420.8 540.0,421.7 560.0,425.4 580.0,431.7 600.0,432.6 620.0,438.1 640.0,431.7 660.0,434.5 680.0,438.1 700.0,440.8 720.0,442.7 740.0,446.3 760.0,443.6 780.0,437.2 800.0,432.6 820.0,437.2" fill="none" stroke="#eda100" stroke-width="1.5" stroke-linejoin="round" stroke-linecap="round"/>
</svg>