<svg xmlns="http://www.w3.org/2000/svg" viewBox="0 0 840 496" width="840" height="496" font-family="-apple-system,&#39;Segoe UI&#39;,system-ui,sans-serif" role="img" aria-label="trimstray/the-book-of-secret-knowledge candlestick chart">
<text x="14.0" y="20.0" font-size="15" fill="#ffffff" font-weight="650">trimstray/the-book-of-secret-knowledge</text>
<text x="331.5" y="20.0" font-size="11.5" fill="#c3c2b7">daily · new stars, volume = new forks</text>
<text x="805.8" y="20.0" font-size="11.0" fill="#c3c2b7">fall</text>
<rect x="791" y="10" width="9" height="12" fill="#008300"/>
<text x="750.6" y="20.0" font-size="11.0" fill="#c3c2b7">rise</text>
<rect x="736" y="10" width="9" height="12" fill="none" stroke="#e66767" stroke-width="1.5"/>
<text x="14.0" y="38.0" font-size="11.0" fill="#898781">last 44 days · +7,588 stars · +375 forks · updated 2026-07-18</text>
<rect x="10" y="66" width="820" height="290" fill="none" stroke="#2c2c2a"/>
<rect x="10" y="384" width="820" height="86" fill="none" stroke="#2c2c2a"/>
<text x="38.0" y="490.0" font-size="11.0" fill="#898781" text-anchor="middle">2026-06</text>
<line x1="494.5" y1="66.0" x2="494.5" y2="356.0" stroke="#2c2c2a" stroke-width="1.0"/>
<line x1="494.5" y1="384.0" x2="494.5" y2="470.0" stroke="#2c2c2a" stroke-width="1.0"/>
<text x="503.9" y="490.0" font-size="11.0" fill="#898781" text-anchor="middle">2026-07</text>
<text x="14.0" y="58.0" font-size="11.0" fill="#c3c2b7">BOLL(20,2)</text>
<text x="84.5" y="58.0" font-size="11.0" fill="#c98500">UP:217.5</text>
<text x="142.9" y="58.0" font-size="11.0" fill="#3987e5">MID:160.5</text>
<text x="207.4" y="58.0" font-size="11.0" fill="#d55181">LOW:103.5</text>
<text x="271.8" y="58.0" font-size="11.0" fill="#9085e9">MA7:158.1</text>
<line x1="10.0" y1="356.0" x2="830.0" y2="356.0" stroke="#2c2c2a" stroke-width="1.0"/>
<text x="14.0" y="353.0" font-size="11.0" fill="#898781">0</text>
<line x1="10.0" y1="237.3" x2="830.0" y2="237.3" stroke="#2c2c2a" stroke-width="1.0"/>
<text x="14.0" y="234.3" font-size="11.0" fill="#898781">100</text>
<line x1="10.0" y1="118.7" x2="830.0" y2="118.7" stroke="#2c2c2a" stroke-width="1.0"/>
<text x="14.0" y="115.7" font-size="11.0" fill="#898781">200</text>
<polyline points="373.4,83.8 392.0,88.6 410.7,88.3 429.3,93.1 448.0,92.6 466.6,92.6 485.2,92.9 503.9,103.1 522.5,110.9 541.1,111.2 559.8,112.0 578.4,111.8 597.0,108.9 615.7,81.2 634.3,81.6 653.0,79.8 671.6,83.6 690.2,87.3 708.9,95.4 727.5,96.8 746.1,96.8 764.8,97.0 783.4,96.8 802.0,96.3 820.7,97.9" fill="none" stroke="#c98500" stroke-width="1.5" stroke-linejoin="round" stroke-linecap="round"/>
<polyline points="373.4,135.1 392.0,138.8 410.7,140.8 429.3,143.7 448.0,143.1 466.6,143.0 485.2,142.0 503.9,145.8 522.5,148.0 541.1,148.2 559.8,148.7 578.4,147.5 597.0,145.4 615.7,151.7 634.3,156.3 653.0,155.3 671.6,158.1 690.2,159.9 708.9,163.4 727.5,165.1 746.1,165.1 764.8,165.5 783.4,165.1 802.0,164.8 820.7,165.6" fill="none" stroke="#3987e5" stroke-width="1.5" stroke-linejoin="round" stroke-linecap="round"/>
<polyline points="373.4,186.4 392.0,189.0 410.7,193.2 429.3,194.3 448.0,193.7 466.6,193.4 485.2,191.1 503.9,188.5 522.5,185.1 541.1,185.2 559.8,185.4 578.4,183.2 597.0,182.0 615.7,222.1 634.3,231.0 653.0,230.9 671.6,232.7 690.2,232.5 708.9,231.3 727.5,233.4 746.1,233.4 764.8,234.0 783.4,233.5 802.0,233.2 820.7,233.2" fill="none" stroke="#d55181" stroke-width="1.5" stroke-linejoin="round" stroke-linecap="round"/>
<polyline points="131.1,128.2 149.8,128.6 168.4,129.5 187.0,134.2 205.7,136.6 224.3,138.0 243.0,136.5 261.6,141.9 280.2,149.1 298.9,146.3 317.5,144.0 336.1,134.8 354.8,132.9 373.4,133.8 392.0,140.2 410.7,143.7 429.3,149.7 448.0,152.3 466.6,159.1 485.2,159.0 503.9,158.7 522.5,155.0 541.1,150.8 559.8,148.5 578.4,149.2 597.0,144.9 615.7,164.1 634.3,172.0 653.0,170.1 671.6,174.6 690.2,176.0 708.9,180.0 727.5,189.0 746.1,172.1 764.8,166.5 783.4,171.7 802.0,168.6 820.7,168.4" fill="none" stroke="#9085e9" stroke-width="1.5" stroke-linejoin="round" stroke-linecap="round"/>
<rect x="14.2" y="96.1" width="10.3" height="259.9" fill="none" stroke="#e66767" stroke-width="1.3"/>
<rect x="32.8" y="96.1" width="10.3" height="39.2" fill="#008300"/>
<rect x="51.5" y="104.4" width="10.3" height="30.9" fill="none" stroke="#e66767" stroke-width="1.3"/>
<rect x="70.1" y="104.4" width="10.3" height="46.3" fill="#008300"/>
<rect x="88.7" y="150.7" width="10.3" height="3.6" fill="#008300"/>
<rect x="107.4" y="154.3" width="10.3" height="15.4" fill="#008300"/>
<rect x="126.0" y="86.6" width="10.3" height="83.1" fill="none" stroke="#e66767" stroke-width="1.3"/>
<rect x="144.6" y="86.6" width="10.3" height="13.1" fill="#008300"/>
<rect x="163.3" y="99.7" width="10.3" height="41.5" fill="#008300"/>
<rect x="181.9" y="137.7" width="10.3" height="3.6" fill="none" stroke="#e66767" stroke-width="1.3"/>
<rect x="200.6" y="137.7" width="10.3" height="29.7" fill="#008300"/>
<rect x="219.2" y="163.8" width="10.3" height="3.6" fill="none" stroke="#e66767" stroke-width="1.3"/>
<rect x="237.8" y="159.0" width="10.3" height="4.7" fill="none" stroke="#e66767" stroke-width="1.3"/>
<rect x="256.5" y="124.6" width="10.3" height="34.4" fill="none" stroke="#e66767" stroke-width="1.3"/>
<rect x="275.1" y="124.6" width="10.3" height="24.9" fill="#008300"/>
<rect x="293.7" y="122.2" width="10.3" height="27.3" fill="none" stroke="#e66767" stroke-width="1.3"/>
<rect x="312.4" y="121.1" width="10.3" height="1.2" fill="none" stroke="#e66767" stroke-width="1.3"/>
<rect x="331.0" y="103.3" width="10.3" height="17.8" fill="none" stroke="#e66767" stroke-width="1.3"/>
<rect x="349.6" y="103.3" width="10.3" height="47.5" fill="#008300"/>
<rect x="368.3" y="150.7" width="10.3" height="14.2" fill="#008300"/>
<rect x="386.9" y="165.0" width="10.3" height="4.7" fill="#008300"/>
<rect x="405.6" y="169.7" width="10.3" height="4.7" fill="#008300"/>
<rect x="424.2" y="163.8" width="10.3" height="10.7" fill="none" stroke="#e66767" stroke-width="1.3"/>
<rect x="442.8" y="138.9" width="10.3" height="24.9" fill="none" stroke="#e66767" stroke-width="1.3"/>
<rect x="461.5" y="138.9" width="10.3" height="13.1" fill="#008300"/>
<rect x="480.1" y="149.5" width="10.3" height="2.4" fill="none" stroke="#e66767" stroke-width="1.3"/>
<rect x="498.7" y="149.5" width="10.3" height="13.1" fill="#008300"/>
<rect x="517.4" y="143.6" width="10.3" height="19.0" fill="none" stroke="#e66767" stroke-width="1.3"/>
<rect x="536.0" y="143.6" width="10.3" height="2.4" fill="#008300"/>
<rect x="554.6" y="146.0" width="10.3" height="1.2" fill="#008300"/>
<rect x="573.3" y="143.6" width="10.3" height="3.6" fill="none" stroke="#e66767" stroke-width="1.3"/>
<rect x="591.9" y="122.2" width="10.3" height="21.4" fill="none" stroke="#e66767" stroke-width="1.3"/>
<rect x="610.6" y="122.2" width="10.3" height="161.4" fill="#008300"/>
<rect x="629.2" y="217.2" width="10.3" height="66.4" fill="none" stroke="#e66767" stroke-width="1.3"/>
<rect x="647.8" y="130.5" width="10.3" height="86.6" fill="none" stroke="#e66767" stroke-width="1.3"/>
<rect x="666.5" y="130.5" width="10.3" height="47.5" fill="#008300"/>
<rect x="685.1" y="156.7" width="10.3" height="21.4" fill="none" stroke="#e66767" stroke-width="1.3"/>
<rect x="703.7" y="156.7" width="10.3" height="15.4" fill="#008300"/>
<rect x="722.4" y="172.1" width="10.3" height="13.1" fill="#008300"/>
<rect x="741.0" y="165.0" width="10.3" height="20.2" fill="none" stroke="#e66767" stroke-width="1.3"/>
<rect x="759.6" y="165.0" width="10.3" height="13.1" fill="#008300"/>
<rect x="778.3" y="167.3" width="10.3" height="10.7" fill="none" stroke="#e66767" stroke-width="1.3"/>
<rect x="796.9" y="156.7" width="10.3" height="10.7" fill="none" stroke="#e66767" stroke-width="1.3"/>
<rect x="815.6" y="154.3" width="10.3" height="2.4" fill="none" stroke="#e66767" stroke-width="1.3"/>
<circle cx="131.1" cy="86.6" r="2" fill="#c3c2b7"/>
<line x1="131.1" y1="86.6" x2="139.1" y2="86.6" stroke="#c3c2b7" stroke-width="1.0"/>
<text x="142.1" y="90.6" font-size="11.0" fill="#c3c2b7">227</text>
<circle cx="19.3" cy="356.0" r="2" fill="#c3c2b7"/>
<line x1="19.3" y1="356.0" x2="27.3" y2="356.0" stroke="#c3c2b7" stroke-width="1.0"/>
<text x="30.3" y="350.0" font-size="11.0" fill="#c3c2b7">0</text>
<text x="14.0" y="376.0" font-size="11.0" fill="#c3c2b7">VOL 8 forks</text>
<text x="90.6" y="376.0" font-size="11.0" fill="#c98500">MA5:7</text>
<text x="130.8" y="376.0" font-size="11.0" fill="#3987e5">MA10:7.1</text>
<text x="14.0" y="395.0" font-size="10" fill="#898781">18</text>
<rect x="14.2" y="433.6" width="10.3" height="36.4" fill="none" stroke="#e66767" stroke-width="1.1"/>
<rect x="32.8" y="429.0" width="10.3" height="41.0" fill="#008300"/>
<rect x="51.5" y="442.7" width="10.3" height="27.3" fill="none" stroke="#e66767" stroke-width="1.1"/>
<rect x="70.1" y="410.8" width="10.3" height="59.2" fill="#008300"/>
<rect x="88.7" y="424.4" width="10.3" height="45.6" fill="#008300"/>
<rect x="107.4" y="419.9" width="10.3" height="50.1" fill="#008300"/>
<rect x="126.0" y="392.6" width="10.3" height="77.4" fill="none" stroke="#e66767" stroke-width="1.1"/>
<rect x="144.6" y="388.0" width="10.3" height="82.0" fill="#008300"/>
<rect x="163.3" y="429.0" width="10.3" height="41.0" fill="#008300"/>
<rect x="181.9" y="406.2" width="10.3" height="63.8" fill="none" stroke="#e66767" stroke-width="1.1"/>
<rect x="200.6" y="442.7" width="10.3" height="27.3" fill="#008300"/>
<rect x="219.2" y="447.2" width="10.3" height="22.8" fill="none" stroke="#e66767" stroke-width="1.1"/>
<rect x="237.8" y="433.6" width="10.3" height="36.4" fill="none" stroke="#e66767" stroke-width="1.1"/>
<rect x="256.5" y="419.9" width="10.3" height="50.1" fill="none" stroke="#e66767" stroke-width="1.1"/>
<rect x="275.1" y="419.9" width="10.3" height="50.1" fill="#008300"/>
<rect x="293.7" y="429.0" width="10.3" height="41.0" fill="none" stroke="#e66767" stroke-width="1.1"/>
<rect x="312.4" y="429.0" width="10.3" height="41.0" fill="none" stroke="#e66767" stroke-width="1.1"/>
<rect x="331.0" y="447.2" width="10.3" height="22.8" fill="none" stroke="#e66767" stroke-width="1.1"/>
<rect x="349.6" y="442.7" width="10.3" height="27.3" fill="#008300"/>
<rect x="368.3" y="456.3" width="10.3" height="13.7" fill="#008300"/>
<rect x="386.9" y="429.0" width="10.3" height="41.0" fill="#008300"/>
<rect x="405.6" y="438.1" width="10.3" height="31.9" fill="#008300"/>
<rect x="424.2" y="424.4" width="10.3" height="45.6" fill="none" stroke="#e66767" stroke-width="1.1"/>
<rect x="442.8" y="410.8" width="10.3" height="59.2" fill="none" stroke="#e66767" stroke-width="1.1"/>
<rect x="461.5" y="424.4" width="10.3" height="45.6" fill="#008300"/>
<rect x="480.1" y="406.2" width="10.3" height="63.8" fill="none" stroke="#e66767" stroke-width="1.1"/>
<rect x="498.7" y="442.7" width="10.3" height="27.3" fill="#008300"/>
<rect x="517.4" y="442.7" width="10.3" height="27.3" fill="none" stroke="#e66767" stroke-width="1.1"/>
<rect x="536.0" y="442.7" width="10.3" height="27.3" fill="#008300"/>
<rect x="554.6" y="429.0" width="10.3" height="41.0" fill="#008300"/>
<rect x="573.3" y="433.6" width="10.3" height="36.4" fill="none" stroke="#e66767" stroke-width="1.1"/>
<rect x="591.9" y="410.8" width="10.3" height="59.2" fill="none" stroke="#e66767" stroke-width="1.1"/>
<rect x="610.6" y="456.3" width="10.3" height="13.7" fill="#008300"/>
<rect x="629.2" y="460.9" width="10.3" height="9.1" fill="none" stroke="#e66767" stroke-width="1.1"/>
<rect x="647.8" y="442.7" width="10.3" height="27.3" fill="none" stroke="#e66767" stroke-width="1.1"/>
<rect x="666.5" y="442.7" width="10.3" height="27.3" fill="#008300"/>
<rect x="685.1" y="429.0" width="10.3" height="41.0" fill="none" stroke="#e66767" stroke-width="1.1"/>
<rect x="703.7" y="442.7" width="10.3" height="27.3" fill="#008300"/>
<rect x="722.4" y="429.0" width="10.3" height="41.0" fill="#008300"/>
<rect x="741.0" y="419.9" width="10.3" height="50.1" fill="none" stroke="#e66767" stroke-width="1.1"/>
<rect x="759.6" y="465.4" width="10.3" height="4.6" fill="#008300"/>
<rect x="778.3" y="438.1" width="10.3" height="31.9" fill="none" stroke="#e66767" stroke-width="1.1"/>
<rect x="796.9" y="433.6" width="10.3" height="36.4" fill="none" stroke="#e66767" stroke-width="1.1"/>
<rect x="815.6" y="433.6" width="10.3" height="36.4" fill="none" stroke="#e66767" stroke-width="1.1"/>
<polyline points="187.0,417.6 205.7,418.5 224.3,420.3 243.0,419.4 261.6,420.3 280.2,419.9 298.9,420.8 317.5,424.4 336.1,430.4 354.8,431.7 373.4,436.7 392.0,435.4 410.7,434.5 429.3,433.6 448.0,432.6 466.6,433.1 485.2,430.8 503.9,432.2 522.5,431.7 541.1,431.7 559.8,429.0 578.4,429.5 597.0,426.7 615.7,429.9 634.3,434.9 653.0,436.7 671.6,440.4 690.2,439.0 708.9,439.0 727.5,437.7 746.1,436.7 764.8,439.9 783.4,442.7 802.0,440.4 820.7,437.7" fill="none" stroke="#3987e5" stroke-width="1.5" stroke-linejoin="round" stroke-linecap="round"/>
<polyline points="93.9,428.1 112.5,425.4 131.1,418.1 149.8,407.1 168.4,410.8 187.0,407.1 205.7,411.7 224.3,422.6 243.0,431.7 261.6,429.9 280.2,432.6 298.9,429.9 317.5,426.3 336.1,429.0 354.8,433.6 373.4,440.8 392.0,440.8 410.7,442.7 429.3,438.1 448.0,431.7 466.6,425.4 485.2,420.8 503.9,421.7 522.5,425.4 541.1,431.7 559.8,432.6 578.4,438.1 597.0,431.7 615.7,434.5 634.3,438.1 653.0,440.8 671.6,442.7 690.2,446.3 708.9,443.6 727.5,437.2 746.1,432.6 764.8,437.2 783.4,439.0 802.0,437.2 820.7,438.1" fill="none" stroke="#c98500" stroke-width="1.5" stroke-linejoin="round" stroke-linecap="round"/>
</svg>