<svg xmlns="http://www.w3.org/2000/svg" viewBox="0 0 840 496" width="840" height="496" font-family="-apple-system,&#39;Segoe UI&#39;,system-ui,sans-serif" role="img" aria-label="trimstray/the-book-of-secret-knowledge candlestick chart">
<text x="14.0" y="20.0" font-size="15" fill="#0b0b0b" font-weight="650">trimstray/the-book-of-secret-knowledge</text>
<text x="331.5" y="20.0" font-size="11.5" fill="#52514e">daily · new stars, volume = new forks</text>
<text x="805.8" y="20.0" font-size="11.0" fill="#52514e">fall</text>
<rect x="791" y="10" width="9" height="12" fill="#008300"/>
<text x="750.6" y="20.0" font-size="11.0" fill="#52514e">rise</text>
<rect x="736" y="10" width="9" height="12" fill="none" stroke="#e34948" stroke-width="1.5"/>
<text x="14.0" y="38.0" font-size="11.0" fill="#898781">last 45 days · +7,781 stars · +384 forks · updated 2026-07-19</text>
<rect x="10" y="66" width="820" height="290" fill="none" stroke="#e1e0d9"/>
<rect x="10" y="384" width="820" height="86" fill="none" stroke="#e1e0d9"/>
<text x="38.0" y="490.0" font-size="11.0" fill="#898781" text-anchor="middle">2026-06</text>
<line x1="483.8" y1="66.0" x2="483.8" y2="356.0" stroke="#e1e0d9" stroke-width="1.0"/>
<line x1="483.8" y1="384.0" x2="483.8" y2="470.0" stroke="#e1e0d9" stroke-width="1.0"/>
<text x="492.9" y="490.0" font-size="11.0" fill="#898781" text-anchor="middle">2026-07</text>
<text x="14.0" y="58.0" font-size="11.0" fill="#52514e">BOLL(20,2)</text>
<text x="84.5" y="58.0" font-size="11.0" fill="#eda100">UP:220.1</text>
<text x="142.9" y="58.0" font-size="11.0" fill="#2a78d6">MID:161.6</text>
<text x="207.4" y="58.0" font-size="11.0" fill="#e87ba4">LOW:103</text>
<text x="259.7" y="58.0" font-size="11.0" fill="#4a3aa7">MA7:163.6</text>
<line x1="10.0" y1="356.0" x2="830.0" y2="356.0" stroke="#e1e0d9" stroke-width="1.0"/>
<text x="14.0" y="353.0" font-size="11.0" fill="#898781">0</text>
<line x1="10.0" y1="237.3" x2="830.0" y2="237.3" stroke="#e1e0d9" stroke-width="1.0"/>
<text x="14.0" y="234.3" font-size="11.0" fill="#898781">100</text>
<line x1="10.0" y1="118.7" x2="830.0" y2="118.7" stroke="#e1e0d9" stroke-width="1.0"/>
<text x="14.0" y="115.7" font-size="11.0" fill="#898781">200</text>
<polyline points="365.3,83.8 383.6,88.6 401.8,88.3 420.0,93.1 438.2,92.6 456.4,92.6 474.7,92.9 492.9,103.1 511.1,110.9 529.3,111.2 547.6,112.0 565.8,111.8 584.0,108.9 602.2,81.2 620.4,81.6 638.7,79.8 656.9,83.6 675.1,87.3 693.3,95.4 711.6,96.8 729.8,96.8 748.0,97.0 766.2,96.8 784.4,96.3 802.7,97.9 820.9,94.8" fill="none" stroke="#eda100" stroke-width="1.5" stroke-linejoin="round" stroke-linecap="round"/>
<polyline points="365.3,135.1 383.6,138.8 401.8,140.8 420.0,143.7 438.2,143.1 456.4,143.0 474.7,142.0 492.9,145.8 511.1,148.0 529.3,148.2 547.6,148.7 565.8,147.5 584.0,145.4 602.2,151.7 620.4,156.3 638.7,155.3 656.9,158.1 675.1,159.9 693.3,163.4 711.6,165.1 729.8,165.1 748.0,165.5 766.2,165.1 784.4,164.8 802.7,165.6 820.9,164.3" fill="none" stroke="#2a78d6" stroke-width="1.5" stroke-linejoin="round" stroke-linecap="round"/>
<polyline points="365.3,186.4 383.6,189.0 401.8,193.2 420.0,194.3 438.2,193.7 456.4,193.4 474.7,191.1 492.9,188.5 511.1,185.1 529.3,185.2 547.6,185.4 565.8,183.2 584.0,182.0 602.2,222.1 620.4,231.0 638.7,230.9 656.9,232.7 675.1,232.5 693.3,231.3 711.6,233.4 729.8,233.4 748.0,234.0 766.2,233.5 784.4,233.2 802.7,233.2 820.9,233.8" fill="none" stroke="#e87ba4" stroke-width="1.5" stroke-linejoin="round" stroke-linecap="round"/>
<polyline points="128.4,128.2 146.7,128.6 164.9,129.5 183.1,134.2 201.3,136.6 219.6,138.0 237.8,136.5 256.0,141.9 274.2,149.1 292.4,146.3 310.7,144.0 328.9,134.8 347.1,132.9 365.3,133.8 383.6,140.2 401.8,143.7 420.0,149.7 438.2,152.3 456.4,159.1 474.7,159.0 492.9,158.7 511.1,155.0 529.3,150.8 547.6,148.5 565.8,149.2 584.0,144.9 602.2,164.1 620.4,172.0 638.7,170.1 656.9,174.6 675.1,176.0 693.3,180.0 711.6,189.0 729.8,172.1 748.0,166.5 766.2,171.7 784.4,168.6 802.7,168.4 820.9,161.9" fill="none" stroke="#4a3aa7" stroke-width="1.5" stroke-linejoin="round" stroke-linecap="round"/>
<rect x="14.1" y="96.1" width="10.0" height="259.9" fill="none" stroke="#e34948" stroke-width="1.3"/>
<rect x="32.3" y="96.1" width="10.0" height="39.2" fill="#008300"/>
<rect x="50.5" y="104.4" width="10.0" height="30.9" fill="none" stroke="#e34948" stroke-width="1.3"/>
<rect x="68.8" y="104.4" width="10.0" height="46.3" fill="#008300"/>
<rect x="87.0" y="150.7" width="10.0" height="3.6" fill="#008300"/>
<rect x="105.2" y="154.3" width="10.0" height="15.4" fill="#008300"/>
<rect x="123.4" y="86.6" width="10.0" height="83.1" fill="none" stroke="#e34948" stroke-width="1.3"/>
<rect x="141.7" y="86.6" width="10.0" height="13.1" fill="#008300"/>
<rect x="159.9" y="99.7" width="10.0" height="41.5" fill="#008300"/>
<rect x="178.1" y="137.7" width="10.0" height="3.6" fill="none" stroke="#e34948" stroke-width="1.3"/>
<rect x="196.3" y="137.7" width="10.0" height="29.7" fill="#008300"/>
<rect x="214.5" y="163.8" width="10.0" height="3.6" fill="none" stroke="#e34948" stroke-width="1.3"/>
<rect x="232.8" y="159.0" width="10.0" height="4.7" fill="none" stroke="#e34948" stroke-width="1.3"/>
<rect x="251.0" y="124.6" width="10.0" height="34.4" fill="none" stroke="#e34948" stroke-width="1.3"/>
<rect x="269.2" y="124.6" width="10.0" height="24.9" fill="#008300"/>
<rect x="287.4" y="122.2" width="10.0" height="27.3" fill="none" stroke="#e34948" stroke-width="1.3"/>
<rect x="305.7" y="121.1" width="10.0" height="1.2" fill="none" stroke="#e34948" stroke-width="1.3"/>
<rect x="323.9" y="103.3" width="10.0" height="17.8" fill="none" stroke="#e34948" stroke-width="1.3"/>
<rect x="342.1" y="103.3" width="10.0" height="47.5" fill="#008300"/>
<rect x="360.3" y="150.7" width="10.0" height="14.2" fill="#008300"/>
<rect x="378.5" y="165.0" width="10.0" height="4.7" fill="#008300"/>
<rect x="396.8" y="169.7" width="10.0" height="4.7" fill="#008300"/>
<rect x="415.0" y="163.8" width="10.0" height="10.7" fill="none" stroke="#e34948" stroke-width="1.3"/>
<rect x="433.2" y="138.9" width="10.0" height="24.9" fill="none" stroke="#e34948" stroke-width="1.3"/>
<rect x="451.4" y="138.9" width="10.0" height="13.1" fill="#008300"/>
<rect x="469.7" y="149.5" width="10.0" height="2.4" fill="none" stroke="#e34948" stroke-width="1.3"/>
<rect x="487.9" y="149.5" width="10.0" height="13.1" fill="#008300"/>
<rect x="506.1" y="143.6" width="10.0" height="19.0" fill="none" stroke="#e34948" stroke-width="1.3"/>
<rect x="524.3" y="143.6" width="10.0" height="2.4" fill="#008300"/>
<rect x="542.5" y="146.0" width="10.0" height="1.2" fill="#008300"/>
<rect x="560.8" y="143.6" width="10.0" height="3.6" fill="none" stroke="#e34948" stroke-width="1.3"/>
<rect x="579.0" y="122.2" width="10.0" height="21.4" fill="none" stroke="#e34948" stroke-width="1.3"/>
<rect x="597.2" y="122.2" width="10.0" height="161.4" fill="#008300"/>
<rect x="615.4" y="217.2" width="10.0" height="66.4" fill="none" stroke="#e34948" stroke-width="1.3"/>
<rect x="633.7" y="130.5" width="10.0" height="86.6" fill="none" stroke="#e34948" stroke-width="1.3"/>
<rect x="651.9" y="130.5" width="10.0" height="47.5" fill="#008300"/>
<rect x="670.1" y="156.7" width="10.0" height="21.4" fill="none" stroke="#e34948" stroke-width="1.3"/>
<rect x="688.3" y="156.7" width="10.0" height="15.4" fill="#008300"/>
<rect x="706.5" y="172.1" width="10.0" height="13.1" fill="#008300"/>
<rect x="724.8" y="165.0" width="10.0" height="20.2" fill="none" stroke="#e34948" stroke-width="1.3"/>
<rect x="743.0" y="165.0" width="10.0" height="13.1" fill="#008300"/>
<rect x="761.2" y="167.3" width="10.0" height="10.7" fill="none" stroke="#e34948" stroke-width="1.3"/>
<rect x="779.4" y="156.7" width="10.0" height="10.7" fill="none" stroke="#e34948" stroke-width="1.3"/>
<rect x="797.7" y="154.3" width="10.0" height="2.4" fill="none" stroke="#e34948" stroke-width="1.3"/>
<rect x="815.9" y="127.0" width="10.0" height="27.3" fill="none" stroke="#e34948" stroke-width="1.3"/>
<circle cx="128.4" cy="86.6" r="2" fill="#52514e"/>
<line x1="128.4" y1="86.6" x2="136.4" y2="86.6" stroke="#52514e" stroke-width="1.0"/>
<text x="139.4" y="90.6" font-size="11.0" fill="#52514e">227</text>
<circle cx="19.1" cy="356.0" r="2" fill="#52514e"/>
<line x1="19.1" y1="356.0" x2="27.1" y2="356.0" stroke="#52514e" stroke-width="1.0"/>
<text x="30.1" y="350.0" font-size="11.0" fill="#52514e">0</text>
<text x="14.0" y="376.0" font-size="11.0" fill="#52514e">VOL 9 forks</text>
<text x="90.6" y="376.0" font-size="11.0" fill="#eda100">MA5:6.6</text>
<text x="142.9" y="376.0" font-size="11.0" fill="#2a78d6">MA10:7.4</text>
<text x="14.0" y="395.0" font-size="10" fill="#898781">18</text>
<rect x="14.1" y="433.6" width="10.0" height="36.4" fill="none" stroke="#e34948" stroke-width="1.1"/>
<rect x="32.3" y="429.0" width="10.0" height="41.0" fill="#008300"/>
<rect x="50.5" y="442.7" width="10.0" height="27.3" fill="none" stroke="#e34948" stroke-width="1.1"/>
<rect x="68.8" y="410.8" width="10.0" height="59.2" fill="#008300"/>
<rect x="87.0" y="424.4" width="10.0" height="45.6" fill="#008300"/>
<rect x="105.2" y="419.9" width="10.0" height="50.1" fill="#008300"/>
<rect x="123.4" y="392.6" width="10.0" height="77.4" fill="none" stroke="#e34948" stroke-width="1.1"/>
<rect x="141.7" y="388.0" width="10.0" height="82.0" fill="#008300"/>
<rect x="159.9" y="429.0" width="10.0" height="41.0" fill="#008300"/>
<rect x="178.1" y="406.2" width="10.0" height="63.8" fill="none" stroke="#e34948" stroke-width="1.1"/>
<rect x="196.3" y="442.7" width="10.0" height="27.3" fill="#008300"/>
<rect x="214.5" y="447.2" width="10.0" height="22.8" fill="none" stroke="#e34948" stroke-width="1.1"/>
<rect x="232.8" y="433.6" width="10.0" height="36.4" fill="none" stroke="#e34948" stroke-width="1.1"/>
<rect x="251.0" y="419.9" width="10.0" height="50.1" fill="none" stroke="#e34948" stroke-width="1.1"/>
<rect x="269.2" y="419.9" width="10.0" height="50.1" fill="#008300"/>
<rect x="287.4" y="429.0" width="10.0" height="41.0" fill="none" stroke="#e34948" stroke-width="1.1"/>
<rect x="305.7" y="429.0" width="10.0" height="41.0" fill="none" stroke="#e34948" stroke-width="1.1"/>
<rect x="323.9" y="447.2" width="10.0" height="22.8" fill="none" stroke="#e34948" stroke-width="1.1"/>
<rect x="342.1" y="442.7" width="10.0" height="27.3" fill="#008300"/>
<rect x="360.3" y="456.3" width="10.0" height="13.7" fill="#008300"/>
<rect x="378.5" y="429.0" width="10.0" height="41.0" fill="#008300"/>
<rect x="396.8" y="438.1" width="10.0" height="31.9" fill="#008300"/>
<rect x="415.0" y="424.4" width="10.0" height="45.6" fill="none" stroke="#e34948" stroke-width="1.1"/>
<rect x="433.2" y="410.8" width="10.0" height="59.2" fill="none" stroke="#e34948" stroke-width="1.1"/>
<rect x="451.4" y="424.4" width="10.0" height="45.6" fill="#008300"/>
<rect x="469.7" y="406.2" width="10.0" height="63.8" fill="none" stroke="#e34948" stroke-width="1.1"/>
<rect x="487.9" y="442.7" width="10.0" height="27.3" fill="#008300"/>
<rect x="506.1" y="442.7" width="10.0" height="27.3" fill="none" stroke="#e34948" stroke-width="1.1"/>
<rect x="524.3" y="442.7" width="10.0" height="27.3" fill="#008300"/>
<rect x="542.5" y="429.0" width="10.0" height="41.0" fill="#008300"/>
<rect x="560.8" y="433.6" width="10.0" height="36.4" fill="none" stroke="#e34948" stroke-width="1.1"/>
<rect x="579.0" y="410.8" width="10.0" height="59.2" fill="none" stroke="#e34948" stroke-width="1.1"/>
<rect x="597.2" y="456.3" width="10.0" height="13.7" fill="#008300"/>
<rect x="615.4" y="460.9" width="10.0" height="9.1" fill="none" stroke="#e34948" stroke-width="1.1"/>
<rect x="633.7" y="442.7" width="10.0" height="27.3" fill="none" stroke="#e34948" stroke-width="1.1"/>
<rect x="651.9" y="442.7" width="10.0" height="27.3" fill="#008300"/>
<rect x="670.1" y="429.0" width="10.0" height="41.0" fill="none" stroke="#e34948" stroke-width="1.1"/>
<rect x="688.3" y="442.7" width="10.0" height="27.3" fill="#008300"/>
<rect x="706.5" y="429.0" width="10.0" height="41.0" fill="#008300"/>
<rect x="724.8" y="419.9" width="10.0" height="50.1" fill="none" stroke="#e34948" stroke-width="1.1"/>
<rect x="743.0" y="465.4" width="10.0" height="4.6" fill="#008300"/>
<rect x="761.2" y="438.1" width="10.0" height="31.9" fill="none" stroke="#e34948" stroke-width="1.1"/>
<rect x="779.4" y="433.6" width="10.0" height="36.4" fill="none" stroke="#e34948" stroke-width="1.1"/>
<rect x="797.7" y="433.6" width="10.0" height="36.4" fill="none" stroke="#e34948" stroke-width="1.1"/>
<rect x="815.9" y="429.0" width="10.0" height="41.0" fill="none" stroke="#e34948" stroke-width="1.1"/>
<polyline points="183.1,417.6 201.3,418.5 219.6,420.3 237.8,419.4 256.0,420.3 274.2,419.9 292.4,420.8 310.7,424.4 328.9,430.4 347.1,431.7 365.3,436.7 383.6,435.4 401.8,434.5 420.0,433.6 438.2,432.6 456.4,433.1 474.7,430.8 492.9,432.2 511.1,431.7 529.3,431.7 547.6,429.0 565.8,429.5 584.0,426.7 602.2,429.9 620.4,434.9 638.7,436.7 656.9,440.4 675.1,439.0 693.3,439.0 711.6,437.7 729.8,436.7 748.0,439.9 766.2,442.7 784.4,440.4 802.7,437.7 820.9,436.3" fill="none" stroke="#2a78d6" stroke-width="1.5" stroke-linejoin="round" stroke-linecap="round"/>
<polyline points="92.0,428.1 110.2,425.4 128.4,418.1 146.7,407.1 164.9,410.8 183.1,407.1 201.3,411.7 219.6,422.6 237.8,431.7 256.0,429.9 274.2,432.6 292.4,429.9 310.7,426.3 328.9,429.0 347.1,433.6 365.3,440.8 383.6,440.8 401.8,442.7 420.0,438.1 438.2,431.7 456.4,425.4 474.7,420.8 492.9,421.7 511.1,425.4 529.3,431.7 547.6,432.6 565.8,438.1 584.0,431.7 602.2,434.5 620.4,438.1 638.7,440.8 656.9,442.7 675.1,446.3 693.3,443.6 711.6,437.2 729.8,432.6 748.0,437.2 766.2,439.0 784.4,437.2 802.7,438.1 820.9,439.9" fill="none" stroke="#eda100" stroke-width="1.5" stroke-linejoin="round" stroke-linecap="round"/>
</svg>