<svg xmlns="http://www.w3.org/2000/svg" viewBox="0 0 840 496" width="840" height="496" font-family="-apple-system,&#39;Segoe UI&#39;,system-ui,sans-serif" role="img" aria-label="trimstray/the-book-of-secret-knowledge candlestick chart">
<text x="14.0" y="20.0" font-size="15" fill="#0b0b0b" font-weight="650">trimstray/the-book-of-secret-knowledge</text>
<text x="331.5" y="20.0" font-size="11.5" fill="#52514e">daily · new stars, volume = new forks</text>
<text x="805.8" y="20.0" font-size="11.0" fill="#52514e">fall</text>
<rect x="791" y="10" width="9" height="12" fill="#008300"/>
<text x="750.6" y="20.0" font-size="11.0" fill="#52514e">rise</text>
<rect x="736" y="10" width="9" height="12" fill="none" stroke="#e34948" stroke-width="1.5"/>
<text x="14.0" y="38.0" font-size="11.0" fill="#898781">last 46 days · +7,945 stars · +387 forks · updated 2026-07-20</text>
<rect x="10" y="66" width="820" height="290" fill="none" stroke="#e1e0d9"/>
<rect x="10" y="384" width="820" height="86" fill="none" stroke="#e1e0d9"/>
<text x="38.0" y="490.0" font-size="11.0" fill="#898781" text-anchor="middle">2026-06</text>
<line x1="473.5" y1="66.0" x2="473.5" y2="356.0" stroke="#e1e0d9" stroke-width="1.0"/>
<line x1="473.5" y1="384.0" x2="473.5" y2="470.0" stroke="#e1e0d9" stroke-width="1.0"/>
<text x="482.4" y="490.0" font-size="11.0" fill="#898781" text-anchor="middle">2026-07</text>
<text x="14.0" y="58.0" font-size="11.0" fill="#52514e">BOLL(20,2)</text>
<text x="84.5" y="58.0" font-size="11.0" fill="#eda100">UP:219.3</text>
<text x="142.9" y="58.0" font-size="11.0" fill="#2a78d6">MID:161.1</text>
<text x="207.4" y="58.0" font-size="11.0" fill="#e87ba4">LOW:102.8</text>
<text x="271.8" y="58.0" font-size="11.0" fill="#4a3aa7">MA7:166.4</text>
<line x1="10.0" y1="356.0" x2="830.0" y2="356.0" stroke="#e1e0d9" stroke-width="1.0"/>
<text x="14.0" y="353.0" font-size="11.0" fill="#898781">0</text>
<line x1="10.0" y1="237.3" x2="830.0" y2="237.3" stroke="#e1e0d9" stroke-width="1.0"/>
<text x="14.0" y="234.3" font-size="11.0" fill="#898781">100</text>
<line x1="10.0" y1="118.7" x2="830.0" y2="118.7" stroke="#e1e0d9" stroke-width="1.0"/>
<text x="14.0" y="115.7" font-size="11.0" fill="#898781">200</text>
<polyline points="357.6,83.8 375.4,88.6 393.3,88.3 411.1,93.1 428.9,92.6 446.7,92.6 464.6,92.9 482.4,103.1 500.2,110.9 518.0,111.2 535.9,112.0 553.7,111.8 571.5,108.9 589.3,81.2 607.2,81.6 625.0,79.8 642.8,83.6 660.7,87.3 678.5,95.4 696.3,96.8 714.1,96.8 732.0,97.0 749.8,96.8 767.6,96.3 785.4,97.9 803.3,94.8 821.1,95.7" fill="none" stroke="#eda100" stroke-width="1.5" stroke-linejoin="round" stroke-linecap="round"/>
<polyline points="357.6,135.1 375.4,138.8 393.3,140.8 411.1,143.7 428.9,143.1 446.7,143.0 464.6,142.0 482.4,145.8 500.2,148.0 518.0,148.2 535.9,148.7 553.7,147.5 571.5,145.4 589.3,151.7 607.2,156.3 625.0,155.3 642.8,158.1 660.7,159.9 678.5,163.4 696.3,165.1 714.1,165.1 732.0,165.5 749.8,165.1 767.6,164.8 785.4,165.6 803.3,164.3 821.1,164.9" fill="none" stroke="#2a78d6" stroke-width="1.5" stroke-linejoin="round" stroke-linecap="round"/>
<polyline points="357.6,186.4 375.4,189.0 393.3,193.2 411.1,194.3 428.9,193.7 446.7,193.4 464.6,191.1 482.4,188.5 500.2,185.1 518.0,185.2 535.9,185.4 553.7,183.2 571.5,182.0 589.3,222.1 607.2,231.0 625.0,230.9 642.8,232.7 660.7,232.5 678.5,231.3 696.3,233.4 714.1,233.4 732.0,234.0 749.8,233.5 767.6,233.2 785.4,233.2 803.3,233.8 821.1,234.1" fill="none" stroke="#e87ba4" stroke-width="1.5" stroke-linejoin="round" stroke-linecap="round"/>
<polyline points="125.9,128.2 143.7,128.6 161.5,129.5 179.3,134.2 197.2,136.6 215.0,138.0 232.8,136.5 250.7,141.9 268.5,149.1 286.3,146.3 304.1,144.0 322.0,134.8 339.8,132.9 357.6,133.8 375.4,140.2 393.3,143.7 411.1,149.7 428.9,152.3 446.7,159.1 464.6,159.0 482.4,158.7 500.2,155.0 518.0,150.8 535.9,148.5 553.7,149.2 571.5,144.9 589.3,164.1 607.2,172.0 625.0,170.1 642.8,174.6 660.7,176.0 678.5,180.0 696.3,189.0 714.1,172.1 732.0,166.5 749.8,171.7 767.6,168.6 785.4,168.4 803.3,161.9 821.1,158.6" fill="none" stroke="#4a3aa7" stroke-width="1.5" stroke-linejoin="round" stroke-linecap="round"/>
<rect x="14.0" y="96.1" width="9.8" height="259.9" fill="none" stroke="#e34948" stroke-width="1.3"/>
<rect x="31.8" y="96.1" width="9.8" height="39.2" fill="#008300"/>
<rect x="49.7" y="104.4" width="9.8" height="30.9" fill="none" stroke="#e34948" stroke-width="1.3"/>
<rect x="67.5" y="104.4" width="9.8" height="46.3" fill="#008300"/>
<rect x="85.3" y="150.7" width="9.8" height="3.6" fill="#008300"/>
<rect x="103.1" y="154.3" width="9.8" height="15.4" fill="#008300"/>
<rect x="121.0" y="86.6" width="9.8" height="83.1" fill="none" stroke="#e34948" stroke-width="1.3"/>
<rect x="138.8" y="86.6" width="9.8" height="13.1" fill="#008300"/>
<rect x="156.6" y="99.7" width="9.8" height="41.5" fill="#008300"/>
<rect x="174.4" y="137.7" width="9.8" height="3.6" fill="none" stroke="#e34948" stroke-width="1.3"/>
<rect x="192.3" y="137.7" width="9.8" height="29.7" fill="#008300"/>
<rect x="210.1" y="163.8" width="9.8" height="3.6" fill="none" stroke="#e34948" stroke-width="1.3"/>
<rect x="227.9" y="159.0" width="9.8" height="4.7" fill="none" stroke="#e34948" stroke-width="1.3"/>
<rect x="245.8" y="124.6" width="9.8" height="34.4" fill="none" stroke="#e34948" stroke-width="1.3"/>
<rect x="263.6" y="124.6" width="9.8" height="24.9" fill="#008300"/>
<rect x="281.4" y="122.2" width="9.8" height="27.3" fill="none" stroke="#e34948" stroke-width="1.3"/>
<rect x="299.2" y="121.1" width="9.8" height="1.2" fill="none" stroke="#e34948" stroke-width="1.3"/>
<rect x="317.1" y="103.3" width="9.8" height="17.8" fill="none" stroke="#e34948" stroke-width="1.3"/>
<rect x="334.9" y="103.3" width="9.8" height="47.5" fill="#008300"/>
<rect x="352.7" y="150.7" width="9.8" height="14.2" fill="#008300"/>
<rect x="370.5" y="165.0" width="9.8" height="4.7" fill="#008300"/>
<rect x="388.4" y="169.7" width="9.8" height="4.7" fill="#008300"/>
<rect x="406.2" y="163.8" width="9.8" height="10.7" fill="none" stroke="#e34948" stroke-width="1.3"/>
<rect x="424.0" y="138.9" width="9.8" height="24.9" fill="none" stroke="#e34948" stroke-width="1.3"/>
<rect x="441.8" y="138.9" width="9.8" height="13.1" fill="#008300"/>
<rect x="459.7" y="149.5" width="9.8" height="2.4" fill="none" stroke="#e34948" stroke-width="1.3"/>
<rect x="477.5" y="149.5" width="9.8" height="13.1" fill="#008300"/>
<rect x="495.3" y="143.6" width="9.8" height="19.0" fill="none" stroke="#e34948" stroke-width="1.3"/>
<rect x="513.1" y="143.6" width="9.8" height="2.4" fill="#008300"/>
<rect x="531.0" y="146.0" width="9.8" height="1.2" fill="#008300"/>
<rect x="548.8" y="143.6" width="9.8" height="3.6" fill="none" stroke="#e34948" stroke-width="1.3"/>
<rect x="566.6" y="122.2" width="9.8" height="21.4" fill="none" stroke="#e34948" stroke-width="1.3"/>
<rect x="584.4" y="122.2" width="9.8" height="161.4" fill="#008300"/>
<rect x="602.3" y="217.2" width="9.8" height="66.4" fill="none" stroke="#e34948" stroke-width="1.3"/>
<rect x="620.1" y="130.5" width="9.8" height="86.6" fill="none" stroke="#e34948" stroke-width="1.3"/>
<rect x="637.9" y="130.5" width="9.8" height="47.5" fill="#008300"/>
<rect x="655.8" y="156.7" width="9.8" height="21.4" fill="none" stroke="#e34948" stroke-width="1.3"/>
<rect x="673.6" y="156.7" width="9.8" height="15.4" fill="#008300"/>
<rect x="691.4" y="172.1" width="9.8" height="13.1" fill="#008300"/>
<rect x="709.2" y="165.0" width="9.8" height="20.2" fill="none" stroke="#e34948" stroke-width="1.3"/>
<rect x="727.1" y="165.0" width="9.8" height="13.1" fill="#008300"/>
<rect x="744.9" y="167.3" width="9.8" height="10.7" fill="none" stroke="#e34948" stroke-width="1.3"/>
<rect x="762.7" y="156.7" width="9.8" height="10.7" fill="none" stroke="#e34948" stroke-width="1.3"/>
<rect x="780.5" y="154.3" width="9.8" height="2.4" fill="none" stroke="#e34948" stroke-width="1.3"/>
<rect x="798.4" y="127.0" width="9.8" height="27.3" fill="none" stroke="#e34948" stroke-width="1.3"/>
<rect x="816.2" y="127.0" width="9.8" height="34.4" fill="#008300"/>
<circle cx="125.9" cy="86.6" r="2" fill="#52514e"/>
<line x1="125.9" y1="86.6" x2="133.9" y2="86.6" stroke="#52514e" stroke-width="1.0"/>
<text x="136.9" y="90.6" font-size="11.0" fill="#52514e">227</text>
<circle cx="18.9" cy="356.0" r="2" fill="#52514e"/>
<line x1="18.9" y1="356.0" x2="26.9" y2="356.0" stroke="#52514e" stroke-width="1.0"/>
<text x="29.9" y="350.0" font-size="11.0" fill="#52514e">0</text>
<text x="14.0" y="376.0" font-size="11.0" fill="#52514e">VOL 3 forks</text>
<text x="90.6" y="376.0" font-size="11.0" fill="#eda100">MA5:7</text>
<text x="130.8" y="376.0" font-size="11.0" fill="#2a78d6">MA10:7.1</text>
<text x="14.0" y="395.0" font-size="10" fill="#898781">18</text>
<rect x="14.0" y="433.6" width="9.8" height="36.4" fill="none" stroke="#e34948" stroke-width="1.1"/>
<rect x="31.8" y="429.0" width="9.8" height="41.0" fill="#008300"/>
<rect x="49.7" y="442.7" width="9.8" height="27.3" fill="none" stroke="#e34948" stroke-width="1.1"/>
<rect x="67.5" y="410.8" width="9.8" height="59.2" fill="#008300"/>
<rect x="85.3" y="424.4" width="9.8" height="45.6" fill="#008300"/>
<rect x="103.1" y="419.9" width="9.8" height="50.1" fill="#008300"/>
<rect x="121.0" y="392.6" width="9.8" height="77.4" fill="none" stroke="#e34948" stroke-width="1.1"/>
<rect x="138.8" y="388.0" width="9.8" height="82.0" fill="#008300"/>
<rect x="156.6" y="429.0" width="9.8" height="41.0" fill="#008300"/>
<rect x="174.4" y="406.2" width="9.8" height="63.8" fill="none" stroke="#e34948" stroke-width="1.1"/>
<rect x="192.3" y="442.7" width="9.8" height="27.3" fill="#008300"/>
<rect x="210.1" y="447.2" width="9.8" height="22.8" fill="none" stroke="#e34948" stroke-width="1.1"/>
<rect x="227.9" y="433.6" width="9.8" height="36.4" fill="none" stroke="#e34948" stroke-width="1.1"/>
<rect x="245.8" y="419.9" width="9.8" height="50.1" fill="none" stroke="#e34948" stroke-width="1.1"/>
<rect x="263.6" y="419.9" width="9.8" height="50.1" fill="#008300"/>
<rect x="281.4" y="429.0" width="9.8" height="41.0" fill="none" stroke="#e34948" stroke-width="1.1"/>
<rect x="299.2" y="429.0" width="9.8" height="41.0" fill="none" stroke="#e34948" stroke-width="1.1"/>
<rect x="317.1" y="447.2" width="9.8" height="22.8" fill="none" stroke="#e34948" stroke-width="1.1"/>
<rect x="334.9" y="442.7" width="9.8" height="27.3" fill="#008300"/>
<rect x="352.7" y="456.3" width="9.8" height="13.7" fill="#008300"/>
<rect x="370.5" y="429.0" width="9.8" height="41.0" fill="#008300"/>
<rect x="388.4" y="438.1" width="9.8" height="31.9" fill="#008300"/>
<rect x="406.2" y="424.4" width="9.8" height="45.6" fill="none" stroke="#e34948" stroke-width="1.1"/>
<rect x="424.0" y="410.8" width="9.8" height="59.2" fill="none" stroke="#e34948" stroke-width="1.1"/>
<rect x="441.8" y="424.4" width="9.8" height="45.6" fill="#008300"/>
<rect x="459.7" y="406.2" width="9.8" height="63.8" fill="none" stroke="#e34948" stroke-width="1.1"/>
<rect x="477.5" y="442.7" width="9.8" height="27.3" fill="#008300"/>
<rect x="495.3" y="442.7" width="9.8" height="27.3" fill="none" stroke="#e34948" stroke-width="1.1"/>
<rect x="513.1" y="442.7" width="9.8" height="27.3" fill="#008300"/>
<rect x="531.0" y="429.0" width="9.8" height="41.0" fill="#008300"/>
<rect x="548.8" y="433.6" width="9.8" height="36.4" fill="none" stroke="#e34948" stroke-width="1.1"/>
<rect x="566.6" y="410.8" width="9.8" height="59.2" fill="none" stroke="#e34948" stroke-width="1.1"/>
<rect x="584.4" y="456.3" width="9.8" height="13.7" fill="#008300"/>
<rect x="602.3" y="460.9" width="9.8" height="9.1" fill="none" stroke="#e34948" stroke-width="1.1"/>
<rect x="620.1" y="442.7" width="9.8" height="27.3" fill="none" stroke="#e34948" stroke-width="1.1"/>
<rect x="637.9" y="442.7" width="9.8" height="27.3" fill="#008300"/>
<rect x="655.8" y="429.0" width="9.8" height="41.0" fill="none" stroke="#e34948" stroke-width="1.1"/>
<rect x="673.6" y="442.7" width="9.8" height="27.3" fill="#008300"/>
<rect x="691.4" y="429.0" width="9.8" height="41.0" fill="#008300"/>
<rect x="709.2" y="419.9" width="9.8" height="50.1" fill="none" stroke="#e34948" stroke-width="1.1"/>
<rect x="727.1" y="465.4" width="9.8" height="4.6" fill="#008300"/>
<rect x="744.9" y="438.1" width="9.8" height="31.9" fill="none" stroke="#e34948" stroke-width="1.1"/>
<rect x="762.7" y="433.6" width="9.8" height="36.4" fill="none" stroke="#e34948" stroke-width="1.1"/>
<rect x="780.5" y="433.6" width="9.8" height="36.4" fill="none" stroke="#e34948" stroke-width="1.1"/>
<rect x="798.4" y="429.0" width="9.8" height="41.0" fill="none" stroke="#e34948" stroke-width="1.1"/>
<rect x="816.2" y="456.3" width="9.8" height="13.7" fill="#008300"/>
<polyline points="179.3,417.6 197.2,418.5 215.0,420.3 232.8,419.4 250.7,420.3 268.5,419.9 286.3,420.8 304.1,424.4 322.0,430.4 339.8,431.7 357.6,436.7 375.4,435.4 393.3,434.5 411.1,433.6 428.9,432.6 446.7,433.1 464.6,430.8 482.4,432.2 500.2,431.7 518.0,431.7 535.9,429.0 553.7,429.5 571.5,426.7 589.3,429.9 607.2,434.9 625.0,436.7 642.8,440.4 660.7,439.0 678.5,439.0 696.3,437.7 714.1,436.7 732.0,439.9 749.8,442.7 767.6,440.4 785.4,437.7 803.3,436.3 821.1,437.7" fill="none" stroke="#2a78d6" stroke-width="1.5" stroke-linejoin="round" stroke-linecap="round"/>
<polyline points="90.2,428.1 108.0,425.4 125.9,418.1 143.7,407.1 161.5,410.8 179.3,407.1 197.2,411.7 215.0,422.6 232.8,431.7 250.7,429.9 268.5,432.6 286.3,429.9 304.1,426.3 322.0,429.0 339.8,433.6 357.6,440.8 375.4,440.8 393.3,442.7 411.1,438.1 428.9,431.7 446.7,425.4 464.6,420.8 482.4,421.7 500.2,425.4 518.0,431.7 535.9,432.6 553.7,438.1 571.5,431.7 589.3,434.5 607.2,438.1 625.0,440.8 642.8,442.7 660.7,446.3 678.5,443.6 696.3,437.2 714.1,432.6 732.0,437.2 749.8,439.0 767.6,437.2 785.4,438.1 803.3,439.9 821.1,438.1" fill="none" stroke="#eda100" stroke-width="1.5" stroke-linejoin="round" stroke-linecap="round"/>
</svg>