<svg xmlns="http://www.w3.org/2000/svg" viewBox="0 0 840 496" width="840" height="496" font-family="-apple-system,&#39;Segoe UI&#39;,system-ui,sans-serif" role="img" aria-label="trimstray/the-book-of-secret-knowledge candlestick chart">
<text x="14.0" y="20.0" font-size="15" fill="#ffffff" font-weight="650">trimstray/the-book-of-secret-knowledge</text>
<text x="331.5" y="20.0" font-size="11.5" fill="#c3c2b7">daily · new stars, volume = new forks</text>
<text x="805.8" y="20.0" font-size="11.0" fill="#c3c2b7">fall</text>
<rect x="791" y="10" width="9" height="12" fill="#008300"/>
<text x="750.6" y="20.0" font-size="11.0" fill="#c3c2b7">rise</text>
<rect x="736" y="10" width="9" height="12" fill="none" stroke="#e66767" stroke-width="1.5"/>
<text x="14.0" y="38.0" font-size="11.0" fill="#898781">last 42 days · +7,250 stars · +359 forks · updated 2026-07-16</text>
<rect x="10" y="66" width="820" height="290" fill="none" stroke="#2c2c2a"/>
<rect x="10" y="384" width="820" height="86" fill="none" stroke="#2c2c2a"/>
<text x="38.0" y="490.0" font-size="11.0" fill="#898781" text-anchor="middle">2026-06</text>
<line x1="517.6" y1="66.0" x2="517.6" y2="356.0" stroke="#2c2c2a" stroke-width="1.0"/>
<line x1="517.6" y1="384.0" x2="517.6" y2="470.0" stroke="#2c2c2a" stroke-width="1.0"/>
<text x="527.4" y="490.0" font-size="11.0" fill="#898781" text-anchor="middle">2026-07</text>
<text x="14.0" y="58.0" font-size="11.0" fill="#c3c2b7">BOLL(20,2)</text>
<text x="84.5" y="58.0" font-size="11.0" fill="#c98500">UP:218.5</text>
<text x="142.9" y="58.0" font-size="11.0" fill="#3987e5">MID:160.8</text>
<text x="207.4" y="58.0" font-size="11.0" fill="#d55181">LOW:103.2</text>
<text x="271.8" y="58.0" font-size="11.0" fill="#9085e9">MA7:155.3</text>
<line x1="10.0" y1="356.0" x2="830.0" y2="356.0" stroke="#2c2c2a" stroke-width="1.0"/>
<text x="14.0" y="353.0" font-size="11.0" fill="#898781">0</text>
<line x1="10.0" y1="237.3" x2="830.0" y2="237.3" stroke="#2c2c2a" stroke-width="1.0"/>
<text x="14.0" y="234.3" font-size="11.0" fill="#898781">100</text>
<line x1="10.0" y1="118.7" x2="830.0" y2="118.7" stroke="#2c2c2a" stroke-width="1.0"/>
<text x="14.0" y="115.7" font-size="11.0" fill="#898781">200</text>
<polyline points="390.7,83.8 410.2,88.6 429.8,88.3 449.3,93.1 468.8,92.6 488.3,92.6 507.9,92.9 527.4,103.1 546.9,110.9 566.4,111.2 586.0,112.0 605.5,111.8 625.0,108.9 644.5,81.2 664.0,81.6 683.6,79.8 703.1,83.6 722.6,87.3 742.1,95.4 761.7,96.8 781.2,96.8 800.7,97.0 820.2,96.8" fill="none" stroke="#c98500" stroke-width="1.5" stroke-linejoin="round" stroke-linecap="round"/>
<polyline points="390.7,135.1 410.2,138.8 429.8,140.8 449.3,143.7 468.8,143.1 488.3,143.0 507.9,142.0 527.4,145.8 546.9,148.0 566.4,148.2 586.0,148.7 605.5,147.5 625.0,145.4 644.5,151.7 664.0,156.3 683.6,155.3 703.1,158.1 722.6,159.9 742.1,163.4 761.7,165.1 781.2,165.1 800.7,165.5 820.2,165.1" fill="none" stroke="#3987e5" stroke-width="1.5" stroke-linejoin="round" stroke-linecap="round"/>
<polyline points="390.7,186.4 410.2,189.0 429.8,193.2 449.3,194.3 468.8,193.7 488.3,193.4 507.9,191.1 527.4,188.5 546.9,185.1 566.4,185.2 586.0,185.4 605.5,183.2 625.0,182.0 644.5,222.1 664.0,231.0 683.6,230.9 703.1,232.7 722.6,232.5 742.1,231.3 761.7,233.4 781.2,233.4 800.7,234.0 820.2,233.5" fill="none" stroke="#d55181" stroke-width="1.5" stroke-linejoin="round" stroke-linecap="round"/>
<polyline points="136.9,128.2 156.4,128.6 176.0,129.5 195.5,134.2 215.0,136.6 234.5,138.0 254.0,136.5 273.6,141.9 293.1,149.1 312.6,146.3 332.1,144.0 351.7,134.8 371.2,132.9 390.7,133.8 410.2,140.2 429.8,143.7 449.3,149.7 468.8,152.3 488.3,159.1 507.9,159.0 527.4,158.7 546.9,155.0 566.4,150.8 586.0,148.5 605.5,149.2 625.0,144.9 644.5,164.1 664.0,172.0 683.6,170.1 703.1,174.6 722.6,176.0 742.1,180.0 761.7,189.0 781.2,172.1 800.7,166.5 820.2,171.7" fill="none" stroke="#9085e9" stroke-width="1.5" stroke-linejoin="round" stroke-linecap="round"/>
<rect x="14.4" y="96.1" width="10.7" height="259.9" fill="none" stroke="#e66767" stroke-width="1.3"/>
<rect x="33.9" y="96.1" width="10.7" height="39.2" fill="#008300"/>
<rect x="53.4" y="104.4" width="10.7" height="30.9" fill="none" stroke="#e66767" stroke-width="1.3"/>
<rect x="73.0" y="104.4" width="10.7" height="46.3" fill="#008300"/>
<rect x="92.5" y="150.7" width="10.7" height="3.6" fill="#008300"/>
<rect x="112.0" y="154.3" width="10.7" height="15.4" fill="#008300"/>
<rect x="131.5" y="86.6" width="10.7" height="83.1" fill="none" stroke="#e66767" stroke-width="1.3"/>
<rect x="151.1" y="86.6" width="10.7" height="13.1" fill="#008300"/>
<rect x="170.6" y="99.7" width="10.7" height="41.5" fill="#008300"/>
<rect x="190.1" y="137.7" width="10.7" height="3.6" fill="none" stroke="#e66767" stroke-width="1.3"/>
<rect x="209.6" y="137.7" width="10.7" height="29.7" fill="#008300"/>
<rect x="229.2" y="163.8" width="10.7" height="3.6" fill="none" stroke="#e66767" stroke-width="1.3"/>
<rect x="248.7" y="159.0" width="10.7" height="4.7" fill="none" stroke="#e66767" stroke-width="1.3"/>
<rect x="268.2" y="124.6" width="10.7" height="34.4" fill="none" stroke="#e66767" stroke-width="1.3"/>
<rect x="287.7" y="124.6" width="10.7" height="24.9" fill="#008300"/>
<rect x="307.3" y="122.2" width="10.7" height="27.3" fill="none" stroke="#e66767" stroke-width="1.3"/>
<rect x="326.8" y="121.1" width="10.7" height="1.2" fill="none" stroke="#e66767" stroke-width="1.3"/>
<rect x="346.3" y="103.3" width="10.7" height="17.8" fill="none" stroke="#e66767" stroke-width="1.3"/>
<rect x="365.8" y="103.3" width="10.7" height="47.5" fill="#008300"/>
<rect x="385.3" y="150.7" width="10.7" height="14.2" fill="#008300"/>
<rect x="404.9" y="165.0" width="10.7" height="4.7" fill="#008300"/>
<rect x="424.4" y="169.7" width="10.7" height="4.7" fill="#008300"/>
<rect x="443.9" y="163.8" width="10.7" height="10.7" fill="none" stroke="#e66767" stroke-width="1.3"/>
<rect x="463.4" y="138.9" width="10.7" height="24.9" fill="none" stroke="#e66767" stroke-width="1.3"/>
<rect x="483.0" y="138.9" width="10.7" height="13.1" fill="#008300"/>
<rect x="502.5" y="149.5" width="10.7" height="2.4" fill="none" stroke="#e66767" stroke-width="1.3"/>
<rect x="522.0" y="149.5" width="10.7" height="13.1" fill="#008300"/>
<rect x="541.5" y="143.6" width="10.7" height="19.0" fill="none" stroke="#e66767" stroke-width="1.3"/>
<rect x="561.1" y="143.6" width="10.7" height="2.4" fill="#008300"/>
<rect x="580.6" y="146.0" width="10.7" height="1.2" fill="#008300"/>
<rect x="600.1" y="143.6" width="10.7" height="3.6" fill="none" stroke="#e66767" stroke-width="1.3"/>
<rect x="619.6" y="122.2" width="10.7" height="21.4" fill="none" stroke="#e66767" stroke-width="1.3"/>
<rect x="639.2" y="122.2" width="10.7" height="161.4" fill="#008300"/>
<rect x="658.7" y="217.2" width="10.7" height="66.4" fill="none" stroke="#e66767" stroke-width="1.3"/>
<rect x="678.2" y="130.5" width="10.7" height="86.6" fill="none" stroke="#e66767" stroke-width="1.3"/>
<rect x="697.7" y="130.5" width="10.7" height="47.5" fill="#008300"/>
<rect x="717.3" y="156.7" width="10.7" height="21.4" fill="none" stroke="#e66767" stroke-width="1.3"/>
<rect x="736.8" y="156.7" width="10.7" height="15.4" fill="#008300"/>
<rect x="756.3" y="172.1" width="10.7" height="13.1" fill="#008300"/>
<rect x="775.8" y="165.0" width="10.7" height="20.2" fill="none" stroke="#e66767" stroke-width="1.3"/>
<rect x="795.3" y="165.0" width="10.7" height="13.1" fill="#008300"/>
<rect x="814.9" y="167.3" width="10.7" height="10.7" fill="none" stroke="#e66767" stroke-width="1.3"/>
<circle cx="136.9" cy="86.6" r="2" fill="#c3c2b7"/>
<line x1="136.9" y1="86.6" x2="144.9" y2="86.6" stroke="#c3c2b7" stroke-width="1.0"/>
<text x="147.9" y="90.6" font-size="11.0" fill="#c3c2b7">227</text>
<circle cx="19.8" cy="356.0" r="2" fill="#c3c2b7"/>
<line x1="19.8" y1="356.0" x2="27.8" y2="356.0" stroke="#c3c2b7" stroke-width="1.0"/>
<text x="30.8" y="350.0" font-size="11.0" fill="#c3c2b7">0</text>
<text x="14.0" y="376.0" font-size="11.0" fill="#c3c2b7">VOL 7 forks</text>
<text x="90.6" y="376.0" font-size="11.0" fill="#c98500">MA5:6.8</text>
<text x="142.9" y="376.0" font-size="11.0" fill="#3987e5">MA10:6</text>
<text x="14.0" y="395.0" font-size="10" fill="#898781">18</text>
<rect x="14.4" y="433.6" width="10.7" height="36.4" fill="none" stroke="#e66767" stroke-width="1.1"/>
<rect x="33.9" y="429.0" width="10.7" height="41.0" fill="#008300"/>
<rect x="53.4" y="442.7" width="10.7" height="27.3" fill="none" stroke="#e66767" stroke-width="1.1"/>
<rect x="73.0" y="410.8" width="10.7" height="59.2" fill="#008300"/>
<rect x="92.5" y="424.4" width="10.7" height="45.6" fill="#008300"/>
<rect x="112.0" y="419.9" width="10.7" height="50.1" fill="#008300"/>
<rect x="131.5" y="392.6" width="10.7" height="77.4" fill="none" stroke="#e66767" stroke-width="1.1"/>
<rect x="151.1" y="388.0" width="10.7" height="82.0" fill="#008300"/>
<rect x="170.6" y="429.0" width="10.7" height="41.0" fill="#008300"/>
<rect x="190.1" y="406.2" width="10.7" height="63.8" fill="none" stroke="#e66767" stroke-width="1.1"/>
<rect x="209.6" y="442.7" width="10.7" height="27.3" fill="#008300"/>
<rect x="229.2" y="447.2" width="10.7" height="22.8" fill="none" stroke="#e66767" stroke-width="1.1"/>
<rect x="248.7" y="433.6" width="10.7" height="36.4" fill="none" stroke="#e66767" stroke-width="1.1"/>
<rect x="268.2" y="419.9" width="10.7" height="50.1" fill="none" stroke="#e66767" stroke-width="1.1"/>
<rect x="287.7" y="419.9" width="10.7" height="50.1" fill="#008300"/>
<rect x="307.3" y="429.0" width="10.7" height="41.0" fill="none" stroke="#e66767" stroke-width="1.1"/>
<rect x="326.8" y="429.0" width="10.7" height="41.0" fill="none" stroke="#e66767" stroke-width="1.1"/>
<rect x="346.3" y="447.2" width="10.7" height="22.8" fill="none" stroke="#e66767" stroke-width="1.1"/>
<rect x="365.8" y="442.7" width="10.7" height="27.3" fill="#008300"/>
<rect x="385.3" y="456.3" width="10.7" height="13.7" fill="#008300"/>
<rect x="404.9" y="429.0" width="10.7" height="41.0" fill="#008300"/>
<rect x="424.4" y="438.1" width="10.7" height="31.9" fill="#008300"/>
<rect x="443.9" y="424.4" width="10.7" height="45.6" fill="none" stroke="#e66767" stroke-width="1.1"/>
<rect x="463.4" y="410.8" width="10.7" height="59.2" fill="none" stroke="#e66767" stroke-width="1.1"/>
<rect x="483.0" y="424.4" width="10.7" height="45.6" fill="#008300"/>
<rect x="502.5" y="406.2" width="10.7" height="63.8" fill="none" stroke="#e66767" stroke-width="1.1"/>
<rect x="522.0" y="442.7" width="10.7" height="27.3" fill="#008300"/>
<rect x="541.5" y="442.7" width="10.7" height="27.3" fill="none" stroke="#e66767" stroke-width="1.1"/>
<rect x="561.1" y="442.7" width="10.7" height="27.3" fill="#008300"/>
<rect x="580.6" y="429.0" width="10.7" height="41.0" fill="#008300"/>
<rect x="600.1" y="433.6" width="10.7" height="36.4" fill="none" stroke="#e66767" stroke-width="1.1"/>
<rect x="619.6" y="410.8" width="10.7" height="59.2" fill="none" stroke="#e66767" stroke-width="1.1"/>
<rect x="639.2" y="456.3" width="10.7" height="13.7" fill="#008300"/>
<rect x="658.7" y="460.9" width="10.7" height="9.1" fill="none" stroke="#e66767" stroke-width="1.1"/>
<rect x="678.2" y="442.7" width="10.7" height="27.3" fill="none" stroke="#e66767" stroke-width="1.1"/>
<rect x="697.7" y="442.7" width="10.7" height="27.3" fill="#008300"/>
<rect x="717.3" y="429.0" width="10.7" height="41.0" fill="none" stroke="#e66767" stroke-width="1.1"/>
<rect x="736.8" y="442.7" width="10.7" height="27.3" fill="#008300"/>
<rect x="756.3" y="429.0" width="10.7" height="41.0" fill="#008300"/>
<rect x="775.8" y="419.9" width="10.7" height="50.1" fill="none" stroke="#e66767" stroke-width="1.1"/>
<rect x="795.3" y="465.4" width="10.7" height="4.6" fill="#008300"/>
<rect x="814.9" y="438.1" width="10.7" height="31.9" fill="none" stroke="#e66767" stroke-width="1.1"/>
<polyline points="195.5,417.6 215.0,418.5 234.5,420.3 254.0,419.4 273.6,420.3 293.1,419.9 312.6,420.8 332.1,424.4 351.7,430.4 371.2,431.7 390.7,436.7 410.2,435.4 429.8,434.5 449.3,433.6 468.8,432.6 488.3,433.1 507.9,430.8 527.4,432.2 546.9,431.7 566.4,431.7 586.0,429.0 605.5,429.5 625.0,426.7 644.5,429.9 664.0,434.9 683.6,436.7 703.1,440.4 722.6,439.0 742.1,439.0 761.7,437.7 781.2,436.7 800.7,439.9 820.2,442.7" fill="none" stroke="#3987e5" stroke-width="1.5" stroke-linejoin="round" stroke-linecap="round"/>
<polyline points="97.9,428.1 117.4,425.4 136.9,418.1 156.4,407.1 176.0,410.8 195.5,407.1 215.0,411.7 234.5,422.6 254.0,431.7 273.6,429.9 293.1,432.6 312.6,429.9 332.1,426.3 351.7,429.0 371.2,433.6 390.7,440.8 410.2,440.8 429.8,442.7 449.3,438.1 468.8,431.7 488.3,425.4 507.9,420.8 527.4,421.7 546.9,425.4 566.4,431.7 586.0,432.6 605.5,438.1 625.0,431.7 644.5,434.5 664.0,438.1 683.6,440.8 703.1,442.7 722.6,446.3 742.1,443.6 761.7,437.2 781.2,432.6 800.7,437.2 820.2,439.0" fill="none" stroke="#c98500" stroke-width="1.5" stroke-linejoin="round" stroke-linecap="round"/>
</svg>