<svg xmlns="http://www.w3.org/2000/svg" viewBox="0 0 840 496" width="840" height="496" font-family="-apple-system,&#39;Segoe UI&#39;,system-ui,sans-serif" role="img" aria-label="trimstray/the-book-of-secret-knowledge candlestick chart">
<text x="14.0" y="20.0" font-size="15" fill="#0b0b0b" font-weight="650">trimstray/the-book-of-secret-knowledge</text>
<text x="331.5" y="20.0" font-size="11.5" fill="#52514e">daily · commits, volume = lines changed</text>
<text x="805.8" y="20.0" font-size="11.0" fill="#52514e">fall</text>
<rect x="791" y="10" width="9" height="12" fill="#008300"/>
<text x="750.6" y="20.0" font-size="11.0" fill="#52514e">rise</text>
<rect x="736" y="10" width="9" height="12" fill="none" stroke="#e34948" stroke-width="1.5"/>
<text x="14.0" y="38.0" font-size="11.0" fill="#898781">last 60 active days · 127 commits · 2,402 lines changed · updated 2026-07-07</text>
<rect x="10" y="66" width="820" height="290" fill="none" stroke="#e1e0d9"/>
<rect x="10" y="384" width="820" height="86" fill="none" stroke="#e1e0d9"/>
<text x="38.0" y="490.0" font-size="11.0" fill="#898781" text-anchor="middle">2020-05</text>
<line x1="23.7" y1="66.0" x2="23.7" y2="356.0" stroke="#e1e0d9" stroke-width="1.0"/>
<line x1="23.7" y1="384.0" x2="23.7" y2="470.0" stroke="#e1e0d9" stroke-width="1.0"/>
<line x1="78.3" y1="66.0" x2="78.3" y2="356.0" stroke="#e1e0d9" stroke-width="1.0"/>
<line x1="78.3" y1="384.0" x2="78.3" y2="470.0" stroke="#e1e0d9" stroke-width="1.0"/>
<line x1="133.0" y1="66.0" x2="133.0" y2="356.0" stroke="#e1e0d9" stroke-width="1.0"/>
<line x1="133.0" y1="384.0" x2="133.0" y2="470.0" stroke="#e1e0d9" stroke-width="1.0"/>
<text x="139.8" y="490.0" font-size="11.0" fill="#898781" text-anchor="middle">2020-08</text>
<line x1="174.0" y1="66.0" x2="174.0" y2="356.0" stroke="#e1e0d9" stroke-width="1.0"/>
<line x1="174.0" y1="384.0" x2="174.0" y2="470.0" stroke="#e1e0d9" stroke-width="1.0"/>
<line x1="228.7" y1="66.0" x2="228.7" y2="356.0" stroke="#e1e0d9" stroke-width="1.0"/>
<line x1="228.7" y1="384.0" x2="228.7" y2="470.0" stroke="#e1e0d9" stroke-width="1.0"/>
<text x="235.5" y="490.0" font-size="11.0" fill="#898781" text-anchor="middle">2020-10</text>
<line x1="283.3" y1="66.0" x2="283.3" y2="356.0" stroke="#e1e0d9" stroke-width="1.0"/>
<line x1="283.3" y1="384.0" x2="283.3" y2="470.0" stroke="#e1e0d9" stroke-width="1.0"/>
<line x1="324.3" y1="66.0" x2="324.3" y2="356.0" stroke="#e1e0d9" stroke-width="1.0"/>
<line x1="324.3" y1="384.0" x2="324.3" y2="470.0" stroke="#e1e0d9" stroke-width="1.0"/>
<text x="331.2" y="490.0" font-size="11.0" fill="#898781" text-anchor="middle">2021-01</text>
<line x1="392.7" y1="66.0" x2="392.7" y2="356.0" stroke="#e1e0d9" stroke-width="1.0"/>
<line x1="392.7" y1="384.0" x2="392.7" y2="470.0" stroke="#e1e0d9" stroke-width="1.0"/>
<text x="399.5" y="490.0" font-size="11.0" fill="#898781" text-anchor="middle">2021-02</text>
<line x1="447.3" y1="66.0" x2="447.3" y2="356.0" stroke="#e1e0d9" stroke-width="1.0"/>
<line x1="447.3" y1="384.0" x2="447.3" y2="470.0" stroke="#e1e0d9" stroke-width="1.0"/>
<line x1="461.0" y1="66.0" x2="461.0" y2="356.0" stroke="#e1e0d9" stroke-width="1.0"/>
<line x1="461.0" y1="384.0" x2="461.0" y2="470.0" stroke="#e1e0d9" stroke-width="1.0"/>
<text x="467.8" y="490.0" font-size="11.0" fill="#898781" text-anchor="middle">2021-04</text>
<line x1="474.7" y1="66.0" x2="474.7" y2="356.0" stroke="#e1e0d9" stroke-width="1.0"/>
<line x1="474.7" y1="384.0" x2="474.7" y2="470.0" stroke="#e1e0d9" stroke-width="1.0"/>
<line x1="515.7" y1="66.0" x2="515.7" y2="356.0" stroke="#e1e0d9" stroke-width="1.0"/>
<line x1="515.7" y1="384.0" x2="515.7" y2="470.0" stroke="#e1e0d9" stroke-width="1.0"/>
<line x1="584.0" y1="66.0" x2="584.0" y2="356.0" stroke="#e1e0d9" stroke-width="1.0"/>
<line x1="584.0" y1="384.0" x2="584.0" y2="470.0" stroke="#e1e0d9" stroke-width="1.0"/>
<text x="590.8" y="490.0" font-size="11.0" fill="#898781" text-anchor="middle">2021-07</text>
<line x1="638.7" y1="66.0" x2="638.7" y2="356.0" stroke="#e1e0d9" stroke-width="1.0"/>
<line x1="638.7" y1="384.0" x2="638.7" y2="470.0" stroke="#e1e0d9" stroke-width="1.0"/>
<line x1="666.0" y1="66.0" x2="666.0" y2="356.0" stroke="#e1e0d9" stroke-width="1.0"/>
<line x1="666.0" y1="384.0" x2="666.0" y2="470.0" stroke="#e1e0d9" stroke-width="1.0"/>
<text x="672.8" y="490.0" font-size="11.0" fill="#898781" text-anchor="middle">2021-09</text>
<line x1="693.3" y1="66.0" x2="693.3" y2="356.0" stroke="#e1e0d9" stroke-width="1.0"/>
<line x1="693.3" y1="384.0" x2="693.3" y2="470.0" stroke="#e1e0d9" stroke-width="1.0"/>
<line x1="720.7" y1="66.0" x2="720.7" y2="356.0" stroke="#e1e0d9" stroke-width="1.0"/>
<line x1="720.7" y1="384.0" x2="720.7" y2="470.0" stroke="#e1e0d9" stroke-width="1.0"/>
<line x1="734.3" y1="66.0" x2="734.3" y2="356.0" stroke="#e1e0d9" stroke-width="1.0"/>
<line x1="734.3" y1="384.0" x2="734.3" y2="470.0" stroke="#e1e0d9" stroke-width="1.0"/>
<text x="741.2" y="490.0" font-size="11.0" fill="#898781" text-anchor="middle">2021-12</text>
<line x1="748.0" y1="66.0" x2="748.0" y2="356.0" stroke="#e1e0d9" stroke-width="1.0"/>
<line x1="748.0" y1="384.0" x2="748.0" y2="470.0" stroke="#e1e0d9" stroke-width="1.0"/>
<line x1="802.7" y1="66.0" x2="802.7" y2="356.0" stroke="#e1e0d9" stroke-width="1.0"/>
<line x1="802.7" y1="384.0" x2="802.7" y2="470.0" stroke="#e1e0d9" stroke-width="1.0"/>
<line x1="816.3" y1="66.0" x2="816.3" y2="356.0" stroke="#e1e0d9" stroke-width="1.0"/>
<line x1="816.3" y1="384.0" x2="816.3" y2="470.0" stroke="#e1e0d9" stroke-width="1.0"/>
<text x="14.0" y="58.0" font-size="11.0" fill="#52514e">BOLL(20,2)</text>
<text x="84.5" y="58.0" font-size="11.0" fill="#eda100">UP:11.1</text>
<text x="136.9" y="58.0" font-size="11.0" fill="#2a78d6">MID:2.8</text>
<text x="189.2" y="58.0" font-size="11.0" fill="#e87ba4">LOW:0</text>
<text x="229.5" y="58.0" font-size="11.0" fill="#4a3aa7">MA7:4.1</text>
<line x1="10.0" y1="356.0" x2="830.0" y2="356.0" stroke="#e1e0d9" stroke-width="1.0"/>
<text x="14.0" y="353.0" font-size="11.0" fill="#898781">0</text>
<line x1="10.0" y1="217.9" x2="830.0" y2="217.9" stroke="#e1e0d9" stroke-width="1.0"/>
<text x="14.0" y="214.9" font-size="11.0" fill="#898781">10</text>
<line x1="10.0" y1="79.8" x2="830.0" y2="79.8" stroke="#e1e0d9" stroke-width="1.0"/>
<text x="14.0" y="76.8" font-size="11.0" fill="#898781">20</text>
<polyline points="16.8,314.3 30.5,314.3 44.2,314.3 57.8,314.3 71.5,314.3 85.2,314.3 98.8,335.4 112.5,314.3 126.2,314.3 139.8,314.3 153.5,314.3 167.2,314.3 180.8,314.3 194.5,314.3 208.2,314.3 221.8,302.7 235.5,303.5 249.2,303.5 262.8,285.4 276.5,284.9 290.2,284.5 303.8,284.1 317.5,284.1 331.2,282.5 344.8,281.2 358.5,281.2 372.2,281.2 385.8,287.4 399.5,287.4 413.2,287.4 426.8,287.4 440.5,285.8 454.2,285.8 467.8,285.8 481.5,285.8 495.2,268.2 508.8,268.2 522.5,268.2 536.2,280.9 549.8,280.9 563.5,280.9 577.2,281.3 590.8,281.3 604.5,282.5 618.2,270.8 631.8,270.8 645.5,270.4 659.2,270.1 672.8,270.1 686.5,270.1 700.2,269.8 713.8,269.8 727.5,269.8 741.2,269.8 754.8,269.8 768.5,295.4 782.2,203.4 795.8,202.6 809.5,202.3 823.2,202.6" fill="none" stroke="#eda100" stroke-width="1.5" stroke-linejoin="round" stroke-linecap="round"/>
<polyline points="16.8,338.7 30.5,338.7 44.2,338.7 57.8,338.7 71.5,338.7 85.2,338.7 98.8,341.5 112.5,338.7 126.2,338.7 139.8,338.7 153.5,338.7 167.2,338.7 180.8,338.7 194.5,338.7 208.2,338.7 221.8,336.0 235.5,336.7 249.2,336.7 262.8,332.5 276.5,331.8 290.2,331.1 303.8,330.5 317.5,330.5 331.2,329.1 344.8,327.7 358.5,327.7 372.2,327.7 385.8,330.5 399.5,330.5 413.2,330.5 426.8,330.5 440.5,329.1 454.2,329.1 467.8,329.1 481.5,329.1 495.2,326.3 508.8,326.3 522.5,326.3 536.2,330.5 549.8,330.5 563.5,330.5 577.2,331.1 590.8,331.1 604.5,331.8 618.2,329.1 631.8,329.1 645.5,328.4 659.2,327.7 672.8,327.7 686.5,327.7 700.2,327.0 713.8,327.0 727.5,327.0 741.2,327.0 754.8,327.0 768.5,332.5 782.2,319.4 795.8,318.0 809.5,317.3 823.2,318.0" fill="none" stroke="#2a78d6" stroke-width="1.5" stroke-linejoin="round" stroke-linecap="round"/>
<polyline points="16.8,356.0 30.5,356.0 44.2,356.0 57.8,356.0 71.5,356.0 85.2,356.0 98.8,347.6 112.5,356.0 126.2,356.0 139.8,356.0 153.5,356.0 167.2,356.0 180.8,356.0 194.5,356.0 208.2,356.0 221.8,356.0 235.5,356.0 249.2,356.0 262.8,356.0 276.5,356.0 290.2,356.0 303.8,356.0 317.5,356.0 331.2,356.0 344.8,356.0 358.5,356.0 372.2,356.0 385.8,356.0 399.5,356.0 413.2,356.0 426.8,356.0 440.5,356.0 454.2,356.0 467.8,356.0 481.5,356.0 495.2,356.0 508.8,356.0 522.5,356.0 536.2,356.0 549.8,356.0 563.5,356.0 577.2,356.0 590.8,356.0 604.5,356.0 618.2,356.0 631.8,356.0 645.5,356.0 659.2,356.0 672.8,356.0 686.5,356.0 700.2,356.0 713.8,356.0 727.5,356.0 741.2,356.0 754.8,356.0 768.5,356.0 782.2,356.0 795.8,356.0 809.5,356.0 823.2,356.0" fill="none" stroke="#e87ba4" stroke-width="1.5" stroke-linejoin="round" stroke-linecap="round"/>
<polyline points="16.8,340.8 30.5,340.8 44.2,340.8 57.8,342.2 71.5,342.2 85.2,342.2 98.8,342.2 112.5,333.9 126.2,333.9 139.8,333.9 153.5,333.9 167.2,333.9 180.8,333.9 194.5,333.9 208.2,342.2 221.8,333.9 235.5,333.9 249.2,333.9 262.8,322.9 276.5,320.1 290.2,318.7 303.8,316.0 317.5,324.2 331.2,320.1 344.8,316.0 358.5,328.4 372.2,329.8 385.8,332.5 399.5,333.9 413.2,333.9 426.8,338.0 440.5,338.0 454.2,338.0 467.8,338.0 481.5,338.0 495.2,322.9 508.8,322.9 522.5,322.9 536.2,327.0 549.8,324.2 563.5,322.9 577.2,322.9 590.8,338.0 604.5,336.7 618.2,324.2 631.8,324.2 645.5,324.2 659.2,324.2 672.8,324.2 686.5,324.2 700.2,324.2 713.8,332.5 727.5,332.5 741.2,333.9 754.8,336.7 768.5,336.7 782.2,299.4 795.8,296.6 809.5,299.4 823.2,299.4" fill="none" stroke="#4a3aa7" stroke-width="1.5" stroke-linejoin="round" stroke-linecap="round"/>
<rect x="13.1" y="342.2" width="7.5" height="13.8" fill="none" stroke="#e34948" stroke-width="1.3"/>
<rect x="26.7" y="342.2" width="7.5" height="13.8" fill="none" stroke="#e34948" stroke-width="1.3"/>
<rect x="40.4" y="342.2" width="7.5" height="13.8" fill="none" stroke="#e34948" stroke-width="1.3"/>
<rect x="54.1" y="342.2" width="7.5" height="13.8" fill="none" stroke="#e34948" stroke-width="1.3"/>
<rect x="67.7" y="342.2" width="7.5" height="13.8" fill="none" stroke="#e34948" stroke-width="1.3"/>
<rect x="81.4" y="342.2" width="7.5" height="13.8" fill="none" stroke="#e34948" stroke-width="1.3"/>
<rect x="95.1" y="342.2" width="7.5" height="13.8" fill="none" stroke="#e34948" stroke-width="1.3"/>
<rect x="108.7" y="287.0" width="7.5" height="69.0" fill="none" stroke="#e34948" stroke-width="1.3"/>
<rect x="122.4" y="342.2" width="7.5" height="13.8" fill="none" stroke="#e34948" stroke-width="1.3"/>
<rect x="136.1" y="342.2" width="7.5" height="13.8" fill="none" stroke="#e34948" stroke-width="1.3"/>
<rect x="149.7" y="342.2" width="7.5" height="13.8" fill="none" stroke="#e34948" stroke-width="1.3"/>
<rect x="163.4" y="342.2" width="7.5" height="13.8" fill="none" stroke="#e34948" stroke-width="1.3"/>
<rect x="177.1" y="342.2" width="7.5" height="13.8" fill="none" stroke="#e34948" stroke-width="1.3"/>
<rect x="190.7" y="342.2" width="7.5" height="1.2" fill="#898781"/>
<rect x="204.4" y="342.2" width="7.5" height="13.8" fill="none" stroke="#e34948" stroke-width="1.3"/>
<rect x="218.1" y="287.0" width="7.5" height="69.0" fill="none" stroke="#e34948" stroke-width="1.3"/>
<rect x="231.7" y="342.2" width="7.5" height="13.8" fill="none" stroke="#e34948" stroke-width="1.3"/>
<rect x="245.4" y="342.2" width="7.5" height="1.2" fill="#898781"/>
<rect x="259.1" y="259.3" width="7.5" height="96.7" fill="none" stroke="#e34948" stroke-width="1.3"/>
<rect x="272.7" y="328.4" width="7.5" height="27.6" fill="none" stroke="#e34948" stroke-width="1.3"/>
<rect x="286.4" y="328.4" width="7.5" height="27.6" fill="none" stroke="#e34948" stroke-width="1.3"/>
<rect x="300.1" y="328.4" width="7.5" height="1.2" fill="#898781"/>
<rect x="313.7" y="342.2" width="7.5" height="13.8" fill="none" stroke="#e34948" stroke-width="1.3"/>
<rect x="327.4" y="314.6" width="7.5" height="41.4" fill="none" stroke="#e34948" stroke-width="1.3"/>
<rect x="341.1" y="314.6" width="7.5" height="41.4" fill="none" stroke="#e34948" stroke-width="1.3"/>
<rect x="354.7" y="342.2" width="7.5" height="13.8" fill="none" stroke="#e34948" stroke-width="1.3"/>
<rect x="368.4" y="342.2" width="7.5" height="13.8" fill="none" stroke="#e34948" stroke-width="1.3"/>
<rect x="382.1" y="342.2" width="7.5" height="13.8" fill="none" stroke="#e34948" stroke-width="1.3"/>
<rect x="395.7" y="342.2" width="7.5" height="13.8" fill="none" stroke="#e34948" stroke-width="1.3"/>
<rect x="409.4" y="342.2" width="7.5" height="1.2" fill="#898781"/>
<rect x="423.1" y="342.2" width="7.5" height="13.8" fill="none" stroke="#e34948" stroke-width="1.3"/>
<rect x="436.7" y="314.6" width="7.5" height="41.4" fill="none" stroke="#e34948" stroke-width="1.3"/>
<rect x="450.4" y="342.2" width="7.5" height="13.8" fill="none" stroke="#e34948" stroke-width="1.3"/>
<rect x="464.1" y="342.2" width="7.5" height="13.8" fill="none" stroke="#e34948" stroke-width="1.3"/>
<rect x="477.7" y="342.2" width="7.5" height="13.8" fill="none" stroke="#e34948" stroke-width="1.3"/>
<rect x="491.4" y="231.7" width="7.5" height="124.3" fill="none" stroke="#e34948" stroke-width="1.3"/>
<rect x="505.1" y="342.2" width="7.5" height="13.8" fill="none" stroke="#e34948" stroke-width="1.3"/>
<rect x="518.7" y="342.2" width="7.5" height="13.8" fill="none" stroke="#e34948" stroke-width="1.3"/>
<rect x="532.4" y="342.2" width="7.5" height="1.2" fill="#898781"/>
<rect x="546.1" y="328.4" width="7.5" height="27.6" fill="none" stroke="#e34948" stroke-width="1.3"/>
<rect x="559.7" y="328.4" width="7.5" height="1.2" fill="#898781"/>
<rect x="573.4" y="342.2" width="7.5" height="13.8" fill="none" stroke="#e34948" stroke-width="1.3"/>
<rect x="587.1" y="342.2" width="7.5" height="13.8" fill="none" stroke="#e34948" stroke-width="1.3"/>
<rect x="600.7" y="328.4" width="7.5" height="27.6" fill="none" stroke="#e34948" stroke-width="1.3"/>
<rect x="614.4" y="259.3" width="7.5" height="96.7" fill="none" stroke="#e34948" stroke-width="1.3"/>
<rect x="628.1" y="342.2" width="7.5" height="13.8" fill="none" stroke="#e34948" stroke-width="1.3"/>
<rect x="641.7" y="328.4" width="7.5" height="27.6" fill="none" stroke="#e34948" stroke-width="1.3"/>
<rect x="655.4" y="328.4" width="7.5" height="27.6" fill="none" stroke="#e34948" stroke-width="1.3"/>
<rect x="669.1" y="342.2" width="7.5" height="13.8" fill="none" stroke="#e34948" stroke-width="1.3"/>
<rect x="682.7" y="342.2" width="7.5" height="13.8" fill="none" stroke="#e34948" stroke-width="1.3"/>
<rect x="696.4" y="328.4" width="7.5" height="27.6" fill="none" stroke="#e34948" stroke-width="1.3"/>
<rect x="710.1" y="314.6" width="7.5" height="41.4" fill="none" stroke="#e34948" stroke-width="1.3"/>
<rect x="723.7" y="342.2" width="7.5" height="13.8" fill="none" stroke="#e34948" stroke-width="1.3"/>
<rect x="737.4" y="342.2" width="7.5" height="13.8" fill="none" stroke="#e34948" stroke-width="1.3"/>
<rect x="751.1" y="342.2" width="7.5" height="13.8" fill="none" stroke="#e34948" stroke-width="1.3"/>
<rect x="764.7" y="342.2" width="7.5" height="13.8" fill="none" stroke="#e34948" stroke-width="1.3"/>
<rect x="778.4" y="79.8" width="7.5" height="276.2" fill="none" stroke="#e34948" stroke-width="1.3"/>
<rect x="792.1" y="314.6" width="7.5" height="41.4" fill="none" stroke="#e34948" stroke-width="1.3"/>
<rect x="805.7" y="328.4" width="7.5" height="27.6" fill="none" stroke="#e34948" stroke-width="1.3"/>
<rect x="819.4" y="342.2" width="7.5" height="13.8" fill="none" stroke="#e34948" stroke-width="1.3"/>
<circle cx="782.2" cy="79.8" r="2" fill="#52514e"/>
<line x1="782.2" y1="79.8" x2="774.2" y2="79.8" stroke="#52514e" stroke-width="1.0"/>
<text x="771.2" y="83.8" font-size="11.0" fill="#52514e" text-anchor="end">20</text>
<circle cx="16.8" cy="356.0" r="2" fill="#52514e"/>
<line x1="16.8" y1="356.0" x2="24.8" y2="356.0" stroke="#52514e" stroke-width="1.0"/>
<text x="27.8" y="350.0" font-size="11.0" fill="#52514e">0</text>
<text x="14.0" y="376.0" font-size="11.0" fill="#52514e">VOL 12 lines</text>
<text x="96.6" y="376.0" font-size="11.0" fill="#eda100">MA5:387.2</text>
<text x="161.1" y="376.0" font-size="11.0" fill="#2a78d6">MA10:194.6</text>
<text x="14.0" y="395.0" font-size="10" fill="#898781">1,828</text>
<rect x="163.4" y="468.4" width="7.5" height="1.6" fill="none" stroke="#e34948" stroke-width="1.1"/>
<rect x="218.1" y="466.2" width="7.5" height="3.8" fill="none" stroke="#e34948" stroke-width="1.1"/>
<rect x="259.1" y="467.8" width="7.5" height="2.2" fill="none" stroke="#e34948" stroke-width="1.1"/>
<rect x="341.1" y="467.8" width="7.5" height="2.2" fill="none" stroke="#e34948" stroke-width="1.1"/>
<rect x="436.7" y="469.4" width="7.5" height="0.6" fill="none" stroke="#e34948" stroke-width="1.1"/>
<rect x="491.4" y="468.2" width="7.5" height="1.8" fill="none" stroke="#e34948" stroke-width="1.1"/>
<rect x="655.4" y="468.0" width="7.5" height="2.0" fill="none" stroke="#e34948" stroke-width="1.1"/>
<rect x="778.4" y="468.7" width="7.5" height="1.3" fill="none" stroke="#e34948" stroke-width="1.1"/>
<rect x="792.1" y="467.0" width="7.5" height="3.0" fill="none" stroke="#e34948" stroke-width="1.1"/>
<rect x="805.7" y="388.0" width="7.5" height="82.0" fill="none" stroke="#e34948" stroke-width="1.1"/>
<rect x="819.4" y="469.5" width="7.5" height="0.5" fill="none" stroke="#e34948" stroke-width="1.1"/>
<polyline points="16.8,469.9 30.5,469.8 44.2,469.8 57.8,469.8 71.5,469.8 85.2,469.8 98.8,469.8 112.5,469.7 126.2,469.7 139.8,469.8 153.5,469.8 167.2,469.7 180.8,469.7 194.5,469.7 208.2,469.7 221.8,469.4 235.5,469.4 249.2,469.4 262.8,469.2 276.5,469.1 290.2,469.1 303.8,469.3 317.5,469.3 331.2,469.2 344.8,469.0 358.5,469.4 372.2,469.4 385.8,469.4 399.5,469.6 413.2,469.6 426.8,469.7 440.5,469.6 454.2,469.6 467.8,469.6 481.5,469.8 495.2,469.7 508.8,469.7 522.5,469.7 536.2,469.7 549.8,469.7 563.5,469.7 577.2,469.7 590.8,469.7 604.5,469.7 618.2,469.7 631.8,469.9 645.5,469.9 659.2,469.7 672.8,469.7 686.5,469.7 700.2,469.7 713.8,469.7 727.5,469.7 741.2,469.7 754.8,469.7 768.5,469.7 782.2,469.6 795.8,469.5 809.5,461.3 823.2,461.3" fill="none" stroke="#2a78d6" stroke-width="1.5" stroke-linejoin="round" stroke-linecap="round"/>
<polyline points="16.8,469.8 30.5,469.8 44.2,469.8 57.8,469.7 71.5,469.8 85.2,469.8 98.8,469.8 112.5,469.7 126.2,469.8 139.8,469.8 153.5,469.9 167.2,469.6 180.8,469.6 194.5,469.6 208.2,469.6 221.8,468.9 235.5,469.2 249.2,469.2 262.8,468.7 276.5,468.7 290.2,469.4 303.8,469.3 317.5,469.4 331.2,469.8 344.8,469.4 358.5,469.4 372.2,469.4 385.8,469.4 399.5,469.4 413.2,469.9 426.8,469.9 440.5,469.8 454.2,469.8 467.8,469.8 481.5,469.8 495.2,469.5 508.8,469.6 522.5,469.6 536.2,469.6 549.8,469.5 563.5,469.9 577.2,469.9 590.8,469.9 604.5,469.9 618.2,469.8 631.8,469.9 645.5,469.8 659.2,469.5 672.8,469.5 686.5,469.6 700.2,469.5 713.8,469.5 727.5,469.9 741.2,469.9 754.8,469.9 768.5,469.9 782.2,469.7 795.8,469.1 809.5,452.7 823.2,452.6" fill="none" stroke="#eda100" stroke-width="1.5" stroke-linejoin="round" stroke-linecap="round"/>
</svg>