<svg xmlns="http://www.w3.org/2000/svg" viewBox="0 0 840 496" width="840" height="496" font-family="-apple-system,&#39;Segoe UI&#39;,system-ui,sans-serif" role="img" aria-label="trimstray/the-book-of-secret-knowledge candlestick chart">
<text x="14.0" y="20.0" font-size="15" fill="#0b0b0b" font-weight="650">trimstray/the-book-of-secret-knowledge</text>
<text x="331.5" y="20.0" font-size="11.5" fill="#52514e">daily · new stars, volume = new forks</text>
<text x="805.8" y="20.0" font-size="11.0" fill="#52514e">fall</text>
<rect x="791" y="10" width="9" height="12" fill="#008300"/>
<text x="750.6" y="20.0" font-size="11.0" fill="#52514e">rise</text>
<rect x="736" y="10" width="9" height="12" fill="none" stroke="#e34948" stroke-width="1.5"/>
<text x="14.0" y="38.0" font-size="11.0" fill="#898781">last 49 days · +8,467 stars · +411 forks · updated 2026-07-23</text>
<rect x="10" y="66" width="820" height="290" fill="none" stroke="#e1e0d9"/>
<rect x="10" y="384" width="820" height="86" fill="none" stroke="#e1e0d9"/>
<text x="38.0" y="490.0" font-size="11.0" fill="#898781" text-anchor="middle">2026-06</text>
<line x1="445.1" y1="66.0" x2="445.1" y2="356.0" stroke="#e1e0d9" stroke-width="1.0"/>
<line x1="445.1" y1="384.0" x2="445.1" y2="470.0" stroke="#e1e0d9" stroke-width="1.0"/>
<text x="453.5" y="490.0" font-size="11.0" fill="#898781" text-anchor="middle">2026-07</text>
<text x="14.0" y="58.0" font-size="11.0" fill="#52514e">BOLL(20,2)</text>
<text x="84.5" y="58.0" font-size="11.0" fill="#eda100">UP:219.7</text>
<text x="142.9" y="58.0" font-size="11.0" fill="#2a78d6">MID:161.2</text>
<text x="207.4" y="58.0" font-size="11.0" fill="#e87ba4">LOW:102.7</text>
<text x="271.8" y="58.0" font-size="11.0" fill="#4a3aa7">MA7:173.9</text>
<line x1="10.0" y1="356.0" x2="830.0" y2="356.0" stroke="#e1e0d9" stroke-width="1.0"/>
<text x="14.0" y="353.0" font-size="11.0" fill="#898781">0</text>
<line x1="10.0" y1="237.3" x2="830.0" y2="237.3" stroke="#e1e0d9" stroke-width="1.0"/>
<text x="14.0" y="234.3" font-size="11.0" fill="#898781">100</text>
<line x1="10.0" y1="118.7" x2="830.0" y2="118.7" stroke="#e1e0d9" stroke-width="1.0"/>
<text x="14.0" y="115.7" font-size="11.0" fill="#898781">200</text>
<polyline points="336.3,83.8 353.1,88.6 369.8,88.3 386.5,93.1 403.3,92.6 420.0,92.6 436.7,92.9 453.5,103.1 470.2,110.9 486.9,111.2 503.7,112.0 520.4,111.8 537.1,108.9 553.9,81.2 570.6,81.6 587.3,79.8 604.1,83.6 620.8,87.3 637.6,95.4 654.3,96.8 671.0,96.8 687.8,97.0 704.5,96.8 721.2,96.3 738.0,97.9 754.7,94.8 771.4,95.7 788.2,94.9 804.9,96.4 821.6,95.3" fill="none" stroke="#eda100" stroke-width="1.5" stroke-linejoin="round" stroke-linecap="round"/>
<polyline points="336.3,135.1 353.1,138.8 369.8,140.8 386.5,143.7 403.3,143.1 420.0,143.0 436.7,142.0 453.5,145.8 470.2,148.0 486.9,148.2 503.7,148.7 520.4,147.5 537.1,145.4 553.9,151.7 570.6,156.3 587.3,155.3 604.1,158.1 620.8,159.9 637.6,163.4 654.3,165.1 671.0,165.1 687.8,165.5 704.5,165.1 721.2,164.8 738.0,165.6 754.7,164.3 771.4,164.9 788.2,164.3 804.9,165.2 821.6,164.7" fill="none" stroke="#2a78d6" stroke-width="1.5" stroke-linejoin="round" stroke-linecap="round"/>
<polyline points="336.3,186.4 353.1,189.0 369.8,193.2 386.5,194.3 403.3,193.7 420.0,193.4 436.7,191.1 453.5,188.5 470.2,185.1 486.9,185.2 503.7,185.4 520.4,183.2 537.1,182.0 553.9,222.1 570.6,231.0 587.3,230.9 604.1,232.7 620.8,232.5 637.6,231.3 654.3,233.4 671.0,233.4 687.8,234.0 704.5,233.5 721.2,233.2 738.0,233.2 754.7,233.8 771.4,234.1 788.2,233.7 804.9,234.0 821.6,234.2" fill="none" stroke="#e87ba4" stroke-width="1.5" stroke-linejoin="round" stroke-linecap="round"/>
<polyline points="118.8,128.2 135.5,128.6 152.2,129.5 169.0,134.2 185.7,136.6 202.4,138.0 219.2,136.5 235.9,141.9 252.7,149.1 269.4,146.3 286.1,144.0 302.9,134.8 319.6,132.9 336.3,133.8 353.1,140.2 369.8,143.7 386.5,149.7 403.3,152.3 420.0,159.1 436.7,159.0 453.5,158.7 470.2,155.0 486.9,150.8 503.7,148.5 520.4,149.2 537.1,144.9 553.9,164.1 570.6,172.0 587.3,170.1 604.1,174.6 620.8,176.0 637.6,180.0 654.3,189.0 671.0,172.1 687.8,166.5 704.5,171.7 721.2,168.6 738.0,168.4 754.7,161.9 771.4,158.6 788.2,156.5 804.9,154.2 821.6,149.7" fill="none" stroke="#4a3aa7" stroke-width="1.5" stroke-linejoin="round" stroke-linecap="round"/>
<rect x="13.8" y="96.1" width="9.2" height="259.9" fill="none" stroke="#e34948" stroke-width="1.3"/>
<rect x="30.5" y="96.1" width="9.2" height="39.2" fill="#008300"/>
<rect x="47.2" y="104.4" width="9.2" height="30.9" fill="none" stroke="#e34948" stroke-width="1.3"/>
<rect x="64.0" y="104.4" width="9.2" height="46.3" fill="#008300"/>
<rect x="80.7" y="150.7" width="9.2" height="3.6" fill="#008300"/>
<rect x="97.4" y="154.3" width="9.2" height="15.4" fill="#008300"/>
<rect x="114.2" y="86.6" width="9.2" height="83.1" fill="none" stroke="#e34948" stroke-width="1.3"/>
<rect x="130.9" y="86.6" width="9.2" height="13.1" fill="#008300"/>
<rect x="147.6" y="99.7" width="9.2" height="41.5" fill="#008300"/>
<rect x="164.4" y="137.7" width="9.2" height="3.6" fill="none" stroke="#e34948" stroke-width="1.3"/>
<rect x="181.1" y="137.7" width="9.2" height="29.7" fill="#008300"/>
<rect x="197.8" y="163.8" width="9.2" height="3.6" fill="none" stroke="#e34948" stroke-width="1.3"/>
<rect x="214.6" y="159.0" width="9.2" height="4.7" fill="none" stroke="#e34948" stroke-width="1.3"/>
<rect x="231.3" y="124.6" width="9.2" height="34.4" fill="none" stroke="#e34948" stroke-width="1.3"/>
<rect x="248.1" y="124.6" width="9.2" height="24.9" fill="#008300"/>
<rect x="264.8" y="122.2" width="9.2" height="27.3" fill="none" stroke="#e34948" stroke-width="1.3"/>
<rect x="281.5" y="121.1" width="9.2" height="1.2" fill="none" stroke="#e34948" stroke-width="1.3"/>
<rect x="298.3" y="103.3" width="9.2" height="17.8" fill="none" stroke="#e34948" stroke-width="1.3"/>
<rect x="315.0" y="103.3" width="9.2" height="47.5" fill="#008300"/>
<rect x="331.7" y="150.7" width="9.2" height="14.2" fill="#008300"/>
<rect x="348.5" y="165.0" width="9.2" height="4.7" fill="#008300"/>
<rect x="365.2" y="169.7" width="9.2" height="4.7" fill="#008300"/>
<rect x="381.9" y="163.8" width="9.2" height="10.7" fill="none" stroke="#e34948" stroke-width="1.3"/>
<rect x="398.7" y="138.9" width="9.2" height="24.9" fill="none" stroke="#e34948" stroke-width="1.3"/>
<rect x="415.4" y="138.9" width="9.2" height="13.1" fill="#008300"/>
<rect x="432.1" y="149.5" width="9.2" height="2.4" fill="none" stroke="#e34948" stroke-width="1.3"/>
<rect x="448.9" y="149.5" width="9.2" height="13.1" fill="#008300"/>
<rect x="465.6" y="143.6" width="9.2" height="19.0" fill="none" stroke="#e34948" stroke-width="1.3"/>
<rect x="482.3" y="143.6" width="9.2" height="2.4" fill="#008300"/>
<rect x="499.1" y="146.0" width="9.2" height="1.2" fill="#008300"/>
<rect x="515.8" y="143.6" width="9.2" height="3.6" fill="none" stroke="#e34948" stroke-width="1.3"/>
<rect x="532.5" y="122.2" width="9.2" height="21.4" fill="none" stroke="#e34948" stroke-width="1.3"/>
<rect x="549.3" y="122.2" width="9.2" height="161.4" fill="#008300"/>
<rect x="566.0" y="217.2" width="9.2" height="66.4" fill="none" stroke="#e34948" stroke-width="1.3"/>
<rect x="582.7" y="130.5" width="9.2" height="86.6" fill="none" stroke="#e34948" stroke-width="1.3"/>
<rect x="599.5" y="130.5" width="9.2" height="47.5" fill="#008300"/>
<rect x="616.2" y="156.7" width="9.2" height="21.4" fill="none" stroke="#e34948" stroke-width="1.3"/>
<rect x="632.9" y="156.7" width="9.2" height="15.4" fill="#008300"/>
<rect x="649.7" y="172.1" width="9.2" height="13.1" fill="#008300"/>
<rect x="666.4" y="165.0" width="9.2" height="20.2" fill="none" stroke="#e34948" stroke-width="1.3"/>
<rect x="683.2" y="165.0" width="9.2" height="13.1" fill="#008300"/>
<rect x="699.9" y="167.3" width="9.2" height="10.7" fill="none" stroke="#e34948" stroke-width="1.3"/>
<rect x="716.6" y="156.7" width="9.2" height="10.7" fill="none" stroke="#e34948" stroke-width="1.3"/>
<rect x="733.4" y="154.3" width="9.2" height="2.4" fill="none" stroke="#e34948" stroke-width="1.3"/>
<rect x="750.1" y="127.0" width="9.2" height="27.3" fill="none" stroke="#e34948" stroke-width="1.3"/>
<rect x="766.8" y="127.0" width="9.2" height="34.4" fill="#008300"/>
<rect x="783.6" y="150.7" width="9.2" height="10.7" fill="none" stroke="#e34948" stroke-width="1.3"/>
<rect x="800.3" y="150.7" width="9.2" height="10.7" fill="#008300"/>
<rect x="817.0" y="136.5" width="9.2" height="24.9" fill="none" stroke="#e34948" stroke-width="1.3"/>
<circle cx="118.8" cy="86.6" r="2" fill="#52514e"/>
<line x1="118.8" y1="86.6" x2="126.8" y2="86.6" stroke="#52514e" stroke-width="1.0"/>
<text x="129.8" y="90.6" font-size="11.0" fill="#52514e">227</text>
<circle cx="18.4" cy="356.0" r="2" fill="#52514e"/>
<line x1="18.4" y1="356.0" x2="26.4" y2="356.0" stroke="#52514e" stroke-width="1.0"/>
<text x="29.4" y="350.0" font-size="11.0" fill="#52514e">0</text>
<text x="14.0" y="376.0" font-size="11.0" fill="#52514e">VOL 11 forks</text>
<text x="96.6" y="376.0" font-size="11.0" fill="#eda100">MA5:7.2</text>
<text x="149.0" y="376.0" font-size="11.0" fill="#2a78d6">MA10:7.1</text>
<text x="14.0" y="395.0" font-size="10" fill="#898781">18</text>
<rect x="13.8" y="433.6" width="9.2" height="36.4" fill="none" stroke="#e34948" stroke-width="1.1"/>
<rect x="30.5" y="429.0" width="9.2" height="41.0" fill="#008300"/>
<rect x="47.2" y="442.7" width="9.2" height="27.3" fill="none" stroke="#e34948" stroke-width="1.1"/>
<rect x="64.0" y="410.8" width="9.2" height="59.2" fill="#008300"/>
<rect x="80.7" y="424.4" width="9.2" height="45.6" fill="#008300"/>
<rect x="97.4" y="419.9" width="9.2" height="50.1" fill="#008300"/>
<rect x="114.2" y="392.6" width="9.2" height="77.4" fill="none" stroke="#e34948" stroke-width="1.1"/>
<rect x="130.9" y="388.0" width="9.2" height="82.0" fill="#008300"/>
<rect x="147.6" y="429.0" width="9.2" height="41.0" fill="#008300"/>
<rect x="164.4" y="406.2" width="9.2" height="63.8" fill="none" stroke="#e34948" stroke-width="1.1"/>
<rect x="181.1" y="442.7" width="9.2" height="27.3" fill="#008300"/>
<rect x="197.8" y="447.2" width="9.2" height="22.8" fill="none" stroke="#e34948" stroke-width="1.1"/>
<rect x="214.6" y="433.6" width="9.2" height="36.4" fill="none" stroke="#e34948" stroke-width="1.1"/>
<rect x="231.3" y="419.9" width="9.2" height="50.1" fill="none" stroke="#e34948" stroke-width="1.1"/>
<rect x="248.1" y="419.9" width="9.2" height="50.1" fill="#008300"/>
<rect x="264.8" y="429.0" width="9.2" height="41.0" fill="none" stroke="#e34948" stroke-width="1.1"/>
<rect x="281.5" y="429.0" width="9.2" height="41.0" fill="none" stroke="#e34948" stroke-width="1.1"/>
<rect x="298.3" y="447.2" width="9.2" height="22.8" fill="none" stroke="#e34948" stroke-width="1.1"/>
<rect x="315.0" y="442.7" width="9.2" height="27.3" fill="#008300"/>
<rect x="331.7" y="456.3" width="9.2" height="13.7" fill="#008300"/>
<rect x="348.5" y="429.0" width="9.2" height="41.0" fill="#008300"/>
<rect x="365.2" y="438.1" width="9.2" height="31.9" fill="#008300"/>
<rect x="381.9" y="424.4" width="9.2" height="45.6" fill="none" stroke="#e34948" stroke-width="1.1"/>
<rect x="398.7" y="410.8" width="9.2" height="59.2" fill="none" stroke="#e34948" stroke-width="1.1"/>
<rect x="415.4" y="424.4" width="9.2" height="45.6" fill="#008300"/>
<rect x="432.1" y="406.2" width="9.2" height="63.8" fill="none" stroke="#e34948" stroke-width="1.1"/>
<rect x="448.9" y="442.7" width="9.2" height="27.3" fill="#008300"/>
<rect x="465.6" y="442.7" width="9.2" height="27.3" fill="none" stroke="#e34948" stroke-width="1.1"/>
<rect x="482.3" y="442.7" width="9.2" height="27.3" fill="#008300"/>
<rect x="499.1" y="429.0" width="9.2" height="41.0" fill="#008300"/>
<rect x="515.8" y="433.6" width="9.2" height="36.4" fill="none" stroke="#e34948" stroke-width="1.1"/>
<rect x="532.5" y="410.8" width="9.2" height="59.2" fill="none" stroke="#e34948" stroke-width="1.1"/>
<rect x="549.3" y="456.3" width="9.2" height="13.7" fill="#008300"/>
<rect x="566.0" y="460.9" width="9.2" height="9.1" fill="none" stroke="#e34948" stroke-width="1.1"/>
<rect x="582.7" y="442.7" width="9.2" height="27.3" fill="none" stroke="#e34948" stroke-width="1.1"/>
<rect x="599.5" y="442.7" width="9.2" height="27.3" fill="#008300"/>
<rect x="616.2" y="429.0" width="9.2" height="41.0" fill="none" stroke="#e34948" stroke-width="1.1"/>
<rect x="632.9" y="442.7" width="9.2" height="27.3" fill="#008300"/>
<rect x="649.7" y="429.0" width="9.2" height="41.0" fill="#008300"/>
<rect x="666.4" y="419.9" width="9.2" height="50.1" fill="none" stroke="#e34948" stroke-width="1.1"/>
<rect x="683.2" y="465.4" width="9.2" height="4.6" fill="#008300"/>
<rect x="699.9" y="438.1" width="9.2" height="31.9" fill="none" stroke="#e34948" stroke-width="1.1"/>
<rect x="716.6" y="433.6" width="9.2" height="36.4" fill="none" stroke="#e34948" stroke-width="1.1"/>
<rect x="733.4" y="433.6" width="9.2" height="36.4" fill="none" stroke="#e34948" stroke-width="1.1"/>
<rect x="750.1" y="429.0" width="9.2" height="41.0" fill="none" stroke="#e34948" stroke-width="1.1"/>
<rect x="766.8" y="456.3" width="9.2" height="13.7" fill="#008300"/>
<rect x="783.6" y="460.9" width="9.2" height="9.1" fill="none" stroke="#e34948" stroke-width="1.1"/>
<rect x="800.3" y="419.9" width="9.2" height="50.1" fill="#008300"/>
<rect x="817.0" y="419.9" width="9.2" height="50.1" fill="none" stroke="#e34948" stroke-width="1.1"/>
<polyline points="169.0,417.6 185.7,418.5 202.4,420.3 219.2,419.4 235.9,420.3 252.7,419.9 269.4,420.8 286.1,424.4 302.9,430.4 319.6,431.7 336.3,436.7 353.1,435.4 369.8,434.5 386.5,433.6 403.3,432.6 420.0,433.1 436.7,430.8 453.5,432.2 470.2,431.7 486.9,431.7 503.7,429.0 520.4,429.5 537.1,426.7 553.9,429.9 570.6,434.9 587.3,436.7 604.1,440.4 620.8,439.0 637.6,439.0 654.3,437.7 671.0,436.7 687.8,439.9 704.5,442.7 721.2,440.4 738.0,437.7 754.7,436.3 771.4,437.7 788.2,440.8 804.9,438.6 821.6,437.7" fill="none" stroke="#2a78d6" stroke-width="1.5" stroke-linejoin="round" stroke-linecap="round"/>
<polyline points="85.3,428.1 102.0,425.4 118.8,418.1 135.5,407.1 152.2,410.8 169.0,407.1 185.7,411.7 202.4,422.6 219.2,431.7 235.9,429.9 252.7,432.6 269.4,429.9 286.1,426.3 302.9,429.0 319.6,433.6 336.3,440.8 353.1,440.8 369.8,442.7 386.5,438.1 403.3,431.7 420.0,425.4 436.7,420.8 453.5,421.7 470.2,425.4 486.9,431.7 503.7,432.6 520.4,438.1 537.1,431.7 553.9,434.5 570.6,438.1 587.3,440.8 604.1,442.7 620.8,446.3 637.6,443.6 654.3,437.2 671.0,432.6 687.8,437.2 704.5,439.0 721.2,437.2 738.0,438.1 754.7,439.9 771.4,438.1 788.2,442.7 804.9,439.9 821.6,437.2" fill="none" stroke="#eda100" stroke-width="1.5" stroke-linejoin="round" stroke-linecap="round"/>
</svg>