<svg xmlns="http://www.w3.org/2000/svg" viewBox="0 0 840 496" width="840" height="496" font-family="-apple-system,&#39;Segoe UI&#39;,system-ui,sans-serif" role="img" aria-label="trimstray/the-book-of-secret-knowledge candlestick chart">
<text x="14.0" y="20.0" font-size="15" fill="#0b0b0b" font-weight="650">trimstray/the-book-of-secret-knowledge</text>
<text x="331.5" y="20.0" font-size="11.5" fill="#52514e">daily · new stars, volume = new forks</text>
<text x="805.8" y="20.0" font-size="11.0" fill="#52514e">fall</text>
<rect x="791" y="10" width="9" height="12" fill="#008300"/>
<text x="750.6" y="20.0" font-size="11.0" fill="#52514e">rise</text>
<rect x="736" y="10" width="9" height="12" fill="none" stroke="#e34948" stroke-width="1.5"/>
<text x="14.0" y="38.0" font-size="11.0" fill="#898781">last 40 days · +6,941 stars · +351 forks · updated 2026-07-14</text>
<rect x="10" y="66" width="820" height="290" fill="none" stroke="#e1e0d9"/>
<rect x="10" y="384" width="820" height="86" fill="none" stroke="#e1e0d9"/>
<text x="38.0" y="490.0" font-size="11.0" fill="#898781" text-anchor="middle">2026-06</text>
<line x1="543.0" y1="66.0" x2="543.0" y2="356.0" stroke="#e1e0d9" stroke-width="1.0"/>
<line x1="543.0" y1="384.0" x2="543.0" y2="470.0" stroke="#e1e0d9" stroke-width="1.0"/>
<text x="553.2" y="490.0" font-size="11.0" fill="#898781" text-anchor="middle">2026-07</text>
<text x="14.0" y="58.0" font-size="11.0" fill="#52514e">BOLL(20,2)</text>
<text x="84.5" y="58.0" font-size="11.0" fill="#eda100">UP:218.4</text>
<text x="142.9" y="58.0" font-size="11.0" fill="#2a78d6">MID:160.9</text>
<text x="207.4" y="58.0" font-size="11.0" fill="#e87ba4">LOW:103.4</text>
<text x="271.8" y="58.0" font-size="11.0" fill="#4a3aa7">MA7:155</text>
<line x1="10.0" y1="356.0" x2="830.0" y2="356.0" stroke="#e1e0d9" stroke-width="1.0"/>
<text x="14.0" y="353.0" font-size="11.0" fill="#898781">0</text>
<line x1="10.0" y1="237.3" x2="830.0" y2="237.3" stroke="#e1e0d9" stroke-width="1.0"/>
<text x="14.0" y="234.3" font-size="11.0" fill="#898781">100</text>
<line x1="10.0" y1="118.7" x2="830.0" y2="118.7" stroke="#e1e0d9" stroke-width="1.0"/>
<text x="14.0" y="115.7" font-size="11.0" fill="#898781">200</text>
<polyline points="409.8,83.8 430.2,88.6 450.8,88.3 471.2,93.1 491.8,92.6 512.2,92.6 532.8,92.9 553.2,103.1 573.8,110.9 594.2,111.2 614.8,112.0 635.2,111.8 655.8,108.9 676.2,81.2 696.8,81.6 717.2,79.8 737.8,83.6 758.2,87.3 778.8,95.4 799.2,96.8 819.8,96.8" fill="none" stroke="#eda100" stroke-width="1.5" stroke-linejoin="round" stroke-linecap="round"/>
<polyline points="409.8,135.1 430.2,138.8 450.8,140.8 471.2,143.7 491.8,143.1 512.2,143.0 532.8,142.0 553.2,145.8 573.8,148.0 594.2,148.2 614.8,148.7 635.2,147.5 655.8,145.4 676.2,151.7 696.8,156.3 717.2,155.3 737.8,158.1 758.2,159.9 778.8,163.4 799.2,165.1 819.8,165.1" fill="none" stroke="#2a78d6" stroke-width="1.5" stroke-linejoin="round" stroke-linecap="round"/>
<polyline points="409.8,186.4 430.2,189.0 450.8,193.2 471.2,194.3 491.8,193.7 512.2,193.4 532.8,191.1 553.2,188.5 573.8,185.1 594.2,185.2 614.8,185.4 635.2,183.2 655.8,182.0 676.2,222.1 696.8,231.0 717.2,230.9 737.8,232.7 758.2,232.5 778.8,231.3 799.2,233.4 819.8,233.4" fill="none" stroke="#e87ba4" stroke-width="1.5" stroke-linejoin="round" stroke-linecap="round"/>
<polyline points="143.2,128.2 163.8,128.6 184.2,129.5 204.8,134.2 225.2,136.6 245.8,138.0 266.2,136.5 286.8,141.9 307.2,149.1 327.8,146.3 348.2,144.0 368.8,134.8 389.2,132.9 409.8,133.8 430.2,140.2 450.8,143.7 471.2,149.7 491.8,152.3 512.2,159.1 532.8,159.0 553.2,158.7 573.8,155.0 594.2,150.8 614.8,148.5 635.2,149.2 655.8,144.9 676.2,164.1 696.8,172.0 717.2,170.1 737.8,174.6 758.2,176.0 778.8,180.0 799.2,189.0 819.8,172.1" fill="none" stroke="#4a3aa7" stroke-width="1.5" stroke-linejoin="round" stroke-linecap="round"/>
<rect x="14.6" y="96.1" width="11.3" height="259.9" fill="none" stroke="#e34948" stroke-width="1.3"/>
<rect x="35.1" y="96.1" width="11.3" height="39.2" fill="#008300"/>
<rect x="55.6" y="104.4" width="11.3" height="30.9" fill="none" stroke="#e34948" stroke-width="1.3"/>
<rect x="76.1" y="104.4" width="11.3" height="46.3" fill="#008300"/>
<rect x="96.6" y="150.7" width="11.3" height="3.6" fill="#008300"/>
<rect x="117.1" y="154.3" width="11.3" height="15.4" fill="#008300"/>
<rect x="137.6" y="86.6" width="11.3" height="83.1" fill="none" stroke="#e34948" stroke-width="1.3"/>
<rect x="158.1" y="86.6" width="11.3" height="13.1" fill="#008300"/>
<rect x="178.6" y="99.7" width="11.3" height="41.5" fill="#008300"/>
<rect x="199.1" y="137.7" width="11.3" height="3.6" fill="none" stroke="#e34948" stroke-width="1.3"/>
<rect x="219.6" y="137.7" width="11.3" height="29.7" fill="#008300"/>
<rect x="240.1" y="163.8" width="11.3" height="3.6" fill="none" stroke="#e34948" stroke-width="1.3"/>
<rect x="260.6" y="159.0" width="11.3" height="4.7" fill="none" stroke="#e34948" stroke-width="1.3"/>
<rect x="281.1" y="124.6" width="11.3" height="34.4" fill="none" stroke="#e34948" stroke-width="1.3"/>
<rect x="301.6" y="124.6" width="11.3" height="24.9" fill="#008300"/>
<rect x="322.1" y="122.2" width="11.3" height="27.3" fill="none" stroke="#e34948" stroke-width="1.3"/>
<rect x="342.6" y="121.1" width="11.3" height="1.2" fill="none" stroke="#e34948" stroke-width="1.3"/>
<rect x="363.1" y="103.3" width="11.3" height="17.8" fill="none" stroke="#e34948" stroke-width="1.3"/>
<rect x="383.6" y="103.3" width="11.3" height="47.5" fill="#008300"/>
<rect x="404.1" y="150.7" width="11.3" height="14.2" fill="#008300"/>
<rect x="424.6" y="165.0" width="11.3" height="4.7" fill="#008300"/>
<rect x="445.1" y="169.7" width="11.3" height="4.7" fill="#008300"/>
<rect x="465.6" y="163.8" width="11.3" height="10.7" fill="none" stroke="#e34948" stroke-width="1.3"/>
<rect x="486.1" y="138.9" width="11.3" height="24.9" fill="none" stroke="#e34948" stroke-width="1.3"/>
<rect x="506.6" y="138.9" width="11.3" height="13.1" fill="#008300"/>
<rect x="527.1" y="149.5" width="11.3" height="2.4" fill="none" stroke="#e34948" stroke-width="1.3"/>
<rect x="547.6" y="149.5" width="11.3" height="13.1" fill="#008300"/>
<rect x="568.1" y="143.6" width="11.3" height="19.0" fill="none" stroke="#e34948" stroke-width="1.3"/>
<rect x="588.6" y="143.6" width="11.3" height="2.4" fill="#008300"/>
<rect x="609.1" y="146.0" width="11.3" height="1.2" fill="#008300"/>
<rect x="629.6" y="143.6" width="11.3" height="3.6" fill="none" stroke="#e34948" stroke-width="1.3"/>
<rect x="650.1" y="122.2" width="11.3" height="21.4" fill="none" stroke="#e34948" stroke-width="1.3"/>
<rect x="670.6" y="122.2" width="11.3" height="161.4" fill="#008300"/>
<rect x="691.1" y="217.2" width="11.3" height="66.4" fill="none" stroke="#e34948" stroke-width="1.3"/>
<rect x="711.6" y="130.5" width="11.3" height="86.6" fill="none" stroke="#e34948" stroke-width="1.3"/>
<rect x="732.1" y="130.5" width="11.3" height="47.5" fill="#008300"/>
<rect x="752.6" y="156.7" width="11.3" height="21.4" fill="none" stroke="#e34948" stroke-width="1.3"/>
<rect x="773.1" y="156.7" width="11.3" height="15.4" fill="#008300"/>
<rect x="793.6" y="172.1" width="11.3" height="13.1" fill="#008300"/>
<rect x="814.1" y="165.0" width="11.3" height="20.2" fill="none" stroke="#e34948" stroke-width="1.3"/>
<circle cx="143.2" cy="86.6" r="2" fill="#52514e"/>
<line x1="143.2" y1="86.6" x2="151.2" y2="86.6" stroke="#52514e" stroke-width="1.0"/>
<text x="154.2" y="90.6" font-size="11.0" fill="#52514e">227</text>
<circle cx="20.2" cy="356.0" r="2" fill="#52514e"/>
<line x1="20.2" y1="356.0" x2="28.2" y2="356.0" stroke="#52514e" stroke-width="1.0"/>
<text x="31.2" y="350.0" font-size="11.0" fill="#52514e">0</text>
<text x="14.0" y="376.0" font-size="11.0" fill="#52514e">VOL 11 forks</text>
<text x="96.6" y="376.0" font-size="11.0" fill="#eda100">MA5:8.2</text>
<text x="149.0" y="376.0" font-size="11.0" fill="#2a78d6">MA10:7.3</text>
<text x="14.0" y="395.0" font-size="10" fill="#898781">18</text>
<rect x="14.6" y="433.6" width="11.3" height="36.4" fill="none" stroke="#e34948" stroke-width="1.1"/>
<rect x="35.1" y="429.0" width="11.3" height="41.0" fill="#008300"/>
<rect x="55.6" y="442.7" width="11.3" height="27.3" fill="none" stroke="#e34948" stroke-width="1.1"/>
<rect x="76.1" y="410.8" width="11.3" height="59.2" fill="#008300"/>
<rect x="96.6" y="424.4" width="11.3" height="45.6" fill="#008300"/>
<rect x="117.1" y="419.9" width="11.3" height="50.1" fill="#008300"/>
<rect x="137.6" y="392.6" width="11.3" height="77.4" fill="none" stroke="#e34948" stroke-width="1.1"/>
<rect x="158.1" y="388.0" width="11.3" height="82.0" fill="#008300"/>
<rect x="178.6" y="429.0" width="11.3" height="41.0" fill="#008300"/>
<rect x="199.1" y="406.2" width="11.3" height="63.8" fill="none" stroke="#e34948" stroke-width="1.1"/>
<rect x="219.6" y="442.7" width="11.3" height="27.3" fill="#008300"/>
<rect x="240.1" y="447.2" width="11.3" height="22.8" fill="none" stroke="#e34948" stroke-width="1.1"/>
<rect x="260.6" y="433.6" width="11.3" height="36.4" fill="none" stroke="#e34948" stroke-width="1.1"/>
<rect x="281.1" y="419.9" width="11.3" height="50.1" fill="none" stroke="#e34948" stroke-width="1.1"/>
<rect x="301.6" y="419.9" width="11.3" height="50.1" fill="#008300"/>
<rect x="322.1" y="429.0" width="11.3" height="41.0" fill="none" stroke="#e34948" stroke-width="1.1"/>
<rect x="342.6" y="429.0" width="11.3" height="41.0" fill="none" stroke="#e34948" stroke-width="1.1"/>
<rect x="363.1" y="447.2" width="11.3" height="22.8" fill="none" stroke="#e34948" stroke-width="1.1"/>
<rect x="383.6" y="442.7" width="11.3" height="27.3" fill="#008300"/>
<rect x="404.1" y="456.3" width="11.3" height="13.7" fill="#008300"/>
<rect x="424.6" y="429.0" width="11.3" height="41.0" fill="#008300"/>
<rect x="445.1" y="438.1" width="11.3" height="31.9" fill="#008300"/>
<rect x="465.6" y="424.4" width="11.3" height="45.6" fill="none" stroke="#e34948" stroke-width="1.1"/>
<rect x="486.1" y="410.8" width="11.3" height="59.2" fill="none" stroke="#e34948" stroke-width="1.1"/>
<rect x="506.6" y="424.4" width="11.3" height="45.6" fill="#008300"/>
<rect x="527.1" y="406.2" width="11.3" height="63.8" fill="none" stroke="#e34948" stroke-width="1.1"/>
<rect x="547.6" y="442.7" width="11.3" height="27.3" fill="#008300"/>
<rect x="568.1" y="442.7" width="11.3" height="27.3" fill="none" stroke="#e34948" stroke-width="1.1"/>
<rect x="588.6" y="442.7" width="11.3" height="27.3" fill="#008300"/>
<rect x="609.1" y="429.0" width="11.3" height="41.0" fill="#008300"/>
<rect x="629.6" y="433.6" width="11.3" height="36.4" fill="none" stroke="#e34948" stroke-width="1.1"/>
<rect x="650.1" y="410.8" width="11.3" height="59.2" fill="none" stroke="#e34948" stroke-width="1.1"/>
<rect x="670.6" y="456.3" width="11.3" height="13.7" fill="#008300"/>
<rect x="691.1" y="460.9" width="11.3" height="9.1" fill="none" stroke="#e34948" stroke-width="1.1"/>
<rect x="711.6" y="442.7" width="11.3" height="27.3" fill="none" stroke="#e34948" stroke-width="1.1"/>
<rect x="732.1" y="442.7" width="11.3" height="27.3" fill="#008300"/>
<rect x="752.6" y="429.0" width="11.3" height="41.0" fill="none" stroke="#e34948" stroke-width="1.1"/>
<rect x="773.1" y="442.7" width="11.3" height="27.3" fill="#008300"/>
<rect x="793.6" y="429.0" width="11.3" height="41.0" fill="#008300"/>
<rect x="814.1" y="419.9" width="11.3" height="50.1" fill="none" stroke="#e34948" stroke-width="1.1"/>
<polyline points="204.8,417.6 225.2,418.5 245.8,420.3 266.2,419.4 286.8,420.3 307.2,419.9 327.8,420.8 348.2,424.4 368.8,430.4 389.2,431.7 409.8,436.7 430.2,435.4 450.8,434.5 471.2,433.6 491.8,432.6 512.2,433.1 532.8,430.8 553.2,432.2 573.8,431.7 594.2,431.7 614.8,429.0 635.2,429.5 655.8,426.7 676.2,429.9 696.8,434.9 717.2,436.7 737.8,440.4 758.2,439.0 778.8,439.0 799.2,437.7 819.8,436.7" fill="none" stroke="#2a78d6" stroke-width="1.5" stroke-linejoin="round" stroke-linecap="round"/>
<polyline points="102.2,428.1 122.8,425.4 143.2,418.1 163.8,407.1 184.2,410.8 204.8,407.1 225.2,411.7 245.8,422.6 266.2,431.7 286.8,429.9 307.2,432.6 327.8,429.9 348.2,426.3 368.8,429.0 389.2,433.6 409.8,440.8 430.2,440.8 450.8,442.7 471.2,438.1 491.8,431.7 512.2,425.4 532.8,420.8 553.2,421.7 573.8,425.4 594.2,431.7 614.8,432.6 635.2,438.1 655.8,431.7 676.2,434.5 696.8,438.1 717.2,440.8 737.8,442.7 758.2,446.3 778.8,443.6 799.2,437.2 819.8,432.6" fill="none" stroke="#eda100" stroke-width="1.5" stroke-linejoin="round" stroke-linecap="round"/>
</svg>