<svg xmlns="http://www.w3.org/2000/svg" viewBox="0 0 840 496" width="840" height="496" font-family="-apple-system,&#39;Segoe UI&#39;,system-ui,sans-serif" role="img" aria-label="trimstray/the-book-of-secret-knowledge candlestick chart">
<text x="14.0" y="20.0" font-size="15" fill="#0b0b0b" font-weight="650">trimstray/the-book-of-secret-knowledge</text>
<text x="331.5" y="20.0" font-size="11.5" fill="#52514e">daily · new stars, volume = new forks</text>
<text x="805.8" y="20.0" font-size="11.0" fill="#52514e">fall</text>
<rect x="791" y="10" width="9" height="12" fill="#008300"/>
<text x="750.6" y="20.0" font-size="11.0" fill="#52514e">rise</text>
<rect x="736" y="10" width="9" height="12" fill="none" stroke="#e34948" stroke-width="1.5"/>
<text x="14.0" y="38.0" font-size="11.0" fill="#898781">last 38 days · +6,636 stars · +331 forks · updated 2026-07-12</text>
<rect x="10" y="66" width="820" height="290" fill="none" stroke="#e1e0d9"/>
<rect x="10" y="384" width="820" height="86" fill="none" stroke="#e1e0d9"/>
<text x="38.0" y="490.0" font-size="11.0" fill="#898781" text-anchor="middle">2026-06</text>
<line x1="571.1" y1="66.0" x2="571.1" y2="356.0" stroke="#e1e0d9" stroke-width="1.0"/>
<line x1="571.1" y1="384.0" x2="571.1" y2="470.0" stroke="#e1e0d9" stroke-width="1.0"/>
<text x="581.8" y="490.0" font-size="11.0" fill="#898781" text-anchor="middle">2026-07</text>
<text x="14.0" y="58.0" font-size="11.0" fill="#52514e">BOLL(20,2)</text>
<text x="84.5" y="58.0" font-size="11.0" fill="#eda100">UP:219.6</text>
<text x="142.9" y="58.0" font-size="11.0" fill="#2a78d6">MID:162.3</text>
<text x="207.4" y="58.0" font-size="11.0" fill="#e87ba4">LOW:105.1</text>
<text x="271.8" y="58.0" font-size="11.0" fill="#4a3aa7">MA7:148.3</text>
<line x1="10.0" y1="356.0" x2="830.0" y2="356.0" stroke="#e1e0d9" stroke-width="1.0"/>
<text x="14.0" y="353.0" font-size="11.0" fill="#898781">0</text>
<line x1="10.0" y1="237.3" x2="830.0" y2="237.3" stroke="#e1e0d9" stroke-width="1.0"/>
<text x="14.0" y="234.3" font-size="11.0" fill="#898781">100</text>
<line x1="10.0" y1="118.7" x2="830.0" y2="118.7" stroke="#e1e0d9" stroke-width="1.0"/>
<text x="14.0" y="115.7" font-size="11.0" fill="#898781">200</text>
<polyline points="430.8,83.8 452.4,88.6 473.9,88.3 495.5,93.1 517.1,92.6 538.7,92.6 560.3,92.9 581.8,103.1 603.4,110.9 625.0,111.2 646.6,112.0 668.2,111.8 689.7,108.9 711.3,81.2 732.9,81.6 754.5,79.8 776.1,83.6 797.6,87.3 819.2,95.4" fill="none" stroke="#eda100" stroke-width="1.5" stroke-linejoin="round" stroke-linecap="round"/>
<polyline points="430.8,135.1 452.4,138.8 473.9,140.8 495.5,143.7 517.1,143.1 538.7,143.0 560.3,142.0 581.8,145.8 603.4,148.0 625.0,148.2 646.6,148.7 668.2,147.5 689.7,145.4 711.3,151.7 732.9,156.3 754.5,155.3 776.1,158.1 797.6,159.9 819.2,163.4" fill="none" stroke="#2a78d6" stroke-width="1.5" stroke-linejoin="round" stroke-linecap="round"/>
<polyline points="430.8,186.4 452.4,189.0 473.9,193.2 495.5,194.3 517.1,193.7 538.7,193.4 560.3,191.1 581.8,188.5 603.4,185.1 625.0,185.2 646.6,185.4 668.2,183.2 689.7,182.0 711.3,222.1 732.9,231.0 754.5,230.9 776.1,232.7 797.6,232.5 819.2,231.3" fill="none" stroke="#e87ba4" stroke-width="1.5" stroke-linejoin="round" stroke-linecap="round"/>
<polyline points="150.3,128.2 171.8,128.6 193.4,129.5 215.0,134.2 236.6,136.6 258.2,138.0 279.7,136.5 301.3,141.9 322.9,149.1 344.5,146.3 366.1,144.0 387.6,134.8 409.2,132.9 430.8,133.8 452.4,140.2 473.9,143.7 495.5,149.7 517.1,152.3 538.7,159.1 560.3,159.0 581.8,158.7 603.4,155.0 625.0,150.8 646.6,148.5 668.2,149.2 689.7,144.9 711.3,164.1 732.9,172.0 754.5,170.1 776.1,174.6 797.6,176.0 819.2,180.0" fill="none" stroke="#4a3aa7" stroke-width="1.5" stroke-linejoin="round" stroke-linecap="round"/>
<rect x="14.9" y="96.1" width="11.9" height="259.9" fill="none" stroke="#e34948" stroke-width="1.3"/>
<rect x="36.4" y="96.1" width="11.9" height="39.2" fill="#008300"/>
<rect x="58.0" y="104.4" width="11.9" height="30.9" fill="none" stroke="#e34948" stroke-width="1.3"/>
<rect x="79.6" y="104.4" width="11.9" height="46.3" fill="#008300"/>
<rect x="101.2" y="150.7" width="11.9" height="3.6" fill="#008300"/>
<rect x="122.7" y="154.3" width="11.9" height="15.4" fill="#008300"/>
<rect x="144.3" y="86.6" width="11.9" height="83.1" fill="none" stroke="#e34948" stroke-width="1.3"/>
<rect x="165.9" y="86.6" width="11.9" height="13.1" fill="#008300"/>
<rect x="187.5" y="99.7" width="11.9" height="41.5" fill="#008300"/>
<rect x="209.1" y="137.7" width="11.9" height="3.6" fill="none" stroke="#e34948" stroke-width="1.3"/>
<rect x="230.6" y="137.7" width="11.9" height="29.7" fill="#008300"/>
<rect x="252.2" y="163.8" width="11.9" height="3.6" fill="none" stroke="#e34948" stroke-width="1.3"/>
<rect x="273.8" y="159.0" width="11.9" height="4.7" fill="none" stroke="#e34948" stroke-width="1.3"/>
<rect x="295.4" y="124.6" width="11.9" height="34.4" fill="none" stroke="#e34948" stroke-width="1.3"/>
<rect x="317.0" y="124.6" width="11.9" height="24.9" fill="#008300"/>
<rect x="338.5" y="122.2" width="11.9" height="27.3" fill="none" stroke="#e34948" stroke-width="1.3"/>
<rect x="360.1" y="121.1" width="11.9" height="1.2" fill="none" stroke="#e34948" stroke-width="1.3"/>
<rect x="381.7" y="103.3" width="11.9" height="17.8" fill="none" stroke="#e34948" stroke-width="1.3"/>
<rect x="403.3" y="103.3" width="11.9" height="47.5" fill="#008300"/>
<rect x="424.9" y="150.7" width="11.9" height="14.2" fill="#008300"/>
<rect x="446.4" y="165.0" width="11.9" height="4.7" fill="#008300"/>
<rect x="468.0" y="169.7" width="11.9" height="4.7" fill="#008300"/>
<rect x="489.6" y="163.8" width="11.9" height="10.7" fill="none" stroke="#e34948" stroke-width="1.3"/>
<rect x="511.2" y="138.9" width="11.9" height="24.9" fill="none" stroke="#e34948" stroke-width="1.3"/>
<rect x="532.7" y="138.9" width="11.9" height="13.1" fill="#008300"/>
<rect x="554.3" y="149.5" width="11.9" height="2.4" fill="none" stroke="#e34948" stroke-width="1.3"/>
<rect x="575.9" y="149.5" width="11.9" height="13.1" fill="#008300"/>
<rect x="597.5" y="143.6" width="11.9" height="19.0" fill="none" stroke="#e34948" stroke-width="1.3"/>
<rect x="619.1" y="143.6" width="11.9" height="2.4" fill="#008300"/>
<rect x="640.6" y="146.0" width="11.9" height="1.2" fill="#008300"/>
<rect x="662.2" y="143.6" width="11.9" height="3.6" fill="none" stroke="#e34948" stroke-width="1.3"/>
<rect x="683.8" y="122.2" width="11.9" height="21.4" fill="none" stroke="#e34948" stroke-width="1.3"/>
<rect x="705.4" y="122.2" width="11.9" height="161.4" fill="#008300"/>
<rect x="727.0" y="217.2" width="11.9" height="66.4" fill="none" stroke="#e34948" stroke-width="1.3"/>
<rect x="748.5" y="130.5" width="11.9" height="86.6" fill="none" stroke="#e34948" stroke-width="1.3"/>
<rect x="770.1" y="130.5" width="11.9" height="47.5" fill="#008300"/>
<rect x="791.7" y="156.7" width="11.9" height="21.4" fill="none" stroke="#e34948" stroke-width="1.3"/>
<rect x="813.3" y="156.7" width="11.9" height="15.4" fill="#008300"/>
<circle cx="150.3" cy="86.6" r="2" fill="#52514e"/>
<line x1="150.3" y1="86.6" x2="158.3" y2="86.6" stroke="#52514e" stroke-width="1.0"/>
<text x="161.3" y="90.6" font-size="11.0" fill="#52514e">227</text>
<circle cx="20.8" cy="356.0" r="2" fill="#52514e"/>
<line x1="20.8" y1="356.0" x2="28.8" y2="356.0" stroke="#52514e" stroke-width="1.0"/>
<text x="31.8" y="350.0" font-size="11.0" fill="#52514e">0</text>
<text x="14.0" y="376.0" font-size="11.0" fill="#52514e">VOL 6 forks</text>
<text x="90.6" y="376.0" font-size="11.0" fill="#eda100">MA5:5.8</text>
<text x="142.9" y="376.0" font-size="11.0" fill="#2a78d6">MA10:6.8</text>
<text x="14.0" y="395.0" font-size="10" fill="#898781">18</text>
<rect x="14.9" y="433.6" width="11.9" height="36.4" fill="none" stroke="#e34948" stroke-width="1.1"/>
<rect x="36.4" y="429.0" width="11.9" height="41.0" fill="#008300"/>
<rect x="58.0" y="442.7" width="11.9" height="27.3" fill="none" stroke="#e34948" stroke-width="1.1"/>
<rect x="79.6" y="410.8" width="11.9" height="59.2" fill="#008300"/>
<rect x="101.2" y="424.4" width="11.9" height="45.6" fill="#008300"/>
<rect x="122.7" y="419.9" width="11.9" height="50.1" fill="#008300"/>
<rect x="144.3" y="392.6" width="11.9" height="77.4" fill="none" stroke="#e34948" stroke-width="1.1"/>
<rect x="165.9" y="388.0" width="11.9" height="82.0" fill="#008300"/>
<rect x="187.5" y="429.0" width="11.9" height="41.0" fill="#008300"/>
<rect x="209.1" y="406.2" width="11.9" height="63.8" fill="none" stroke="#e34948" stroke-width="1.1"/>
<rect x="230.6" y="442.7" width="11.9" height="27.3" fill="#008300"/>
<rect x="252.2" y="447.2" width="11.9" height="22.8" fill="none" stroke="#e34948" stroke-width="1.1"/>
<rect x="273.8" y="433.6" width="11.9" height="36.4" fill="none" stroke="#e34948" stroke-width="1.1"/>
<rect x="295.4" y="419.9" width="11.9" height="50.1" fill="none" stroke="#e34948" stroke-width="1.1"/>
<rect x="317.0" y="419.9" width="11.9" height="50.1" fill="#008300"/>
<rect x="338.5" y="429.0" width="11.9" height="41.0" fill="none" stroke="#e34948" stroke-width="1.1"/>
<rect x="360.1" y="429.0" width="11.9" height="41.0" fill="none" stroke="#e34948" stroke-width="1.1"/>
<rect x="381.7" y="447.2" width="11.9" height="22.8" fill="none" stroke="#e34948" stroke-width="1.1"/>
<rect x="403.3" y="442.7" width="11.9" height="27.3" fill="#008300"/>
<rect x="424.9" y="456.3" width="11.9" height="13.7" fill="#008300"/>
<rect x="446.4" y="429.0" width="11.9" height="41.0" fill="#008300"/>
<rect x="468.0" y="438.1" width="11.9" height="31.9" fill="#008300"/>
<rect x="489.6" y="424.4" width="11.9" height="45.6" fill="none" stroke="#e34948" stroke-width="1.1"/>
<rect x="511.2" y="410.8" width="11.9" height="59.2" fill="none" stroke="#e34948" stroke-width="1.1"/>
<rect x="532.7" y="424.4" width="11.9" height="45.6" fill="#008300"/>
<rect x="554.3" y="406.2" width="11.9" height="63.8" fill="none" stroke="#e34948" stroke-width="1.1"/>
<rect x="575.9" y="442.7" width="11.9" height="27.3" fill="#008300"/>
<rect x="597.5" y="442.7" width="11.9" height="27.3" fill="none" stroke="#e34948" stroke-width="1.1"/>
<rect x="619.1" y="442.7" width="11.9" height="27.3" fill="#008300"/>
<rect x="640.6" y="429.0" width="11.9" height="41.0" fill="#008300"/>
<rect x="662.2" y="433.6" width="11.9" height="36.4" fill="none" stroke="#e34948" stroke-width="1.1"/>
<rect x="683.8" y="410.8" width="11.9" height="59.2" fill="none" stroke="#e34948" stroke-width="1.1"/>
<rect x="705.4" y="456.3" width="11.9" height="13.7" fill="#008300"/>
<rect x="727.0" y="460.9" width="11.9" height="9.1" fill="none" stroke="#e34948" stroke-width="1.1"/>
<rect x="748.5" y="442.7" width="11.9" height="27.3" fill="none" stroke="#e34948" stroke-width="1.1"/>
<rect x="770.1" y="442.7" width="11.9" height="27.3" fill="#008300"/>
<rect x="791.7" y="429.0" width="11.9" height="41.0" fill="none" stroke="#e34948" stroke-width="1.1"/>
<rect x="813.3" y="442.7" width="11.9" height="27.3" fill="#008300"/>
<polyline points="215.0,417.6 236.6,418.5 258.2,420.3 279.7,419.4 301.3,420.3 322.9,419.9 344.5,420.8 366.1,424.4 387.6,430.4 409.2,431.7 430.8,436.7 452.4,435.4 473.9,434.5 495.5,433.6 517.1,432.6 538.7,433.1 560.3,430.8 581.8,432.2 603.4,431.7 625.0,431.7 646.6,429.0 668.2,429.5 689.7,426.7 711.3,429.9 732.9,434.9 754.5,436.7 776.1,440.4 797.6,439.0 819.2,439.0" fill="none" stroke="#2a78d6" stroke-width="1.5" stroke-linejoin="round" stroke-linecap="round"/>
<polyline points="107.1,428.1 128.7,425.4 150.3,418.1 171.8,407.1 193.4,410.8 215.0,407.1 236.6,411.7 258.2,422.6 279.7,431.7 301.3,429.9 322.9,432.6 344.5,429.9 366.1,426.3 387.6,429.0 409.2,433.6 430.8,440.8 452.4,440.8 473.9,442.7 495.5,438.1 517.1,431.7 538.7,425.4 560.3,420.8 581.8,421.7 603.4,425.4 625.0,431.7 646.6,432.6 668.2,438.1 689.7,431.7 711.3,434.5 732.9,438.1 754.5,440.8 776.1,442.7 797.6,446.3 819.2,443.6" fill="none" stroke="#eda100" stroke-width="1.5" stroke-linejoin="round" stroke-linecap="round"/>
</svg>