<svg xmlns="http://www.w3.org/2000/svg" viewBox="0 0 840 496" width="840" height="496" font-family="-apple-system,&#39;Segoe UI&#39;,system-ui,sans-serif" role="img" aria-label="trimstray/the-book-of-secret-knowledge candlestick chart">
<text x="14.0" y="20.0" font-size="15" fill="#ffffff" font-weight="650">trimstray/the-book-of-secret-knowledge</text>
<text x="331.5" y="20.0" font-size="11.5" fill="#c3c2b7">daily · new stars, volume = new forks</text>
<text x="805.8" y="20.0" font-size="11.0" fill="#c3c2b7">fall</text>
<rect x="791" y="10" width="9" height="12" fill="#008300"/>
<text x="750.6" y="20.0" font-size="11.0" fill="#c3c2b7">rise</text>
<rect x="736" y="10" width="9" height="12" fill="none" stroke="#e66767" stroke-width="1.5"/>
<text x="14.0" y="38.0" font-size="11.0" fill="#898781">last 60 days · +10,013 stars · +433 forks · updated 2026-08-31</text>
<rect x="10" y="66" width="820" height="290" fill="none" stroke="#2c2c2a"/>
<rect x="10" y="384" width="820" height="86" fill="none" stroke="#2c2c2a"/>
<text x="38.0" y="490.0" font-size="11.0" fill="#898781" text-anchor="middle">2026-07</text>
<line x1="406.3" y1="66.0" x2="406.3" y2="356.0" stroke="#2c2c2a" stroke-width="1.0"/>
<line x1="406.3" y1="384.0" x2="406.3" y2="470.0" stroke="#2c2c2a" stroke-width="1.0"/>
<text x="413.2" y="490.0" font-size="11.0" fill="#898781" text-anchor="middle">2026-08</text>
<text x="14.0" y="58.0" font-size="11.0" fill="#c3c2b7">BOLL(20,2)</text>
<text x="84.5" y="58.0" font-size="11.0" fill="#c98500">UP:233.6</text>
<text x="142.9" y="58.0" font-size="11.0" fill="#3987e5">MID:179.8</text>
<text x="207.4" y="58.0" font-size="11.0" fill="#d55181">LOW:125.9</text>
<text x="271.8" y="58.0" font-size="11.0" fill="#9085e9">MA7:180.4</text>
<line x1="10.0" y1="288.4" x2="830.0" y2="288.4" stroke="#2c2c2a" stroke-width="1.0"/>
<text x="14.0" y="285.4" font-size="11.0" fill="#898781">100</text>
<line x1="10.0" y1="148.9" x2="830.0" y2="148.9" stroke="#2c2c2a" stroke-width="1.0"/>
<text x="14.0" y="145.9" font-size="11.0" fill="#898781">200</text>
<polyline points="16.8,140.2 30.5,141.1 44.2,140.8 57.8,137.5 71.5,104.9 85.2,105.3 98.8,103.2 112.5,107.7 126.2,112.1 139.8,121.6 153.5,123.2 167.2,123.2 180.8,123.4 194.5,123.2 208.2,122.6 221.8,124.5 235.5,120.9 249.2,121.9 262.8,120.9 276.5,122.7 290.2,121.4 303.8,122.3 317.5,122.3 331.2,127.6 344.8,152.5 358.5,158.9 372.2,163.5 385.8,162.9 399.5,163.5 413.2,162.7 426.8,161.8 440.5,157.0 454.2,157.1 467.8,156.6 481.5,157.1 495.2,157.9 508.8,164.6 522.5,163.0 536.2,164.3 549.8,164.3 563.5,164.6 577.2,162.1 590.8,164.3 604.5,164.0 618.2,160.8 631.8,160.6 645.5,159.9 659.2,161.0 672.8,146.8 686.5,140.1 700.2,115.7 713.8,116.4 727.5,115.8 741.2,115.8 754.8,115.4 768.5,103.8 782.2,103.3 795.8,102.5 809.5,102.2 823.2,102.0" fill="none" stroke="#c98500" stroke-width="1.5" stroke-linejoin="round" stroke-linecap="round"/>
<polyline points="16.8,183.7 30.5,184.2 44.2,182.8 57.8,180.4 71.5,187.7 85.2,193.1 98.8,192.0 112.5,195.3 126.2,197.4 139.8,201.4 153.5,203.5 167.2,203.5 180.8,204.0 194.5,203.5 208.2,203.1 221.8,204.0 235.5,202.6 249.2,203.3 262.8,202.6 276.5,203.6 290.2,203.0 303.8,203.5 317.5,203.5 331.2,205.6 344.8,199.4 358.5,197.5 372.2,200.7 385.8,199.3 399.5,200.1 413.2,200.8 426.8,201.2 440.5,199.4 454.2,198.5 467.8,197.9 481.5,198.9 495.2,199.7 508.8,201.9 522.5,204.0 536.2,204.6 549.8,204.6 563.5,204.7 577.2,203.8 590.8,204.7 604.5,204.5 618.2,202.5 631.8,200.9 645.5,201.2 659.2,202.4 672.8,198.5 686.5,194.5 700.2,186.7 713.8,187.1 727.5,188.3 741.2,188.3 754.8,186.9 768.5,182.1 782.2,180.9 795.8,176.2 809.5,176.8 823.2,177.2" fill="none" stroke="#3987e5" stroke-width="1.5" stroke-linejoin="round" stroke-linecap="round"/>
<polyline points="16.8,227.2 30.5,227.3 44.2,224.8 57.8,223.3 71.5,270.5 85.2,281.0 98.8,280.8 112.5,282.9 126.2,282.7 139.8,281.3 153.5,283.7 167.2,283.7 180.8,284.5 194.5,283.9 208.2,283.6 221.8,283.5 235.5,284.2 249.2,284.6 262.8,284.2 276.5,284.5 290.2,284.7 303.8,284.8 317.5,284.8 331.2,283.7 344.8,246.2 358.5,236.0 372.2,237.8 385.8,235.7 399.5,236.6 413.2,238.9 426.8,240.6 440.5,241.7 454.2,239.9 467.8,239.2 481.5,240.8 495.2,241.5 508.8,239.3 522.5,245.0 536.2,244.9 549.8,244.9 563.5,244.7 577.2,245.6 590.8,245.0 604.5,245.0 618.2,244.2 631.8,241.2 645.5,242.5 659.2,243.8 672.8,250.2 686.5,249.0 700.2,257.8 713.8,257.8 727.5,260.7 741.2,260.7 754.8,258.3 768.5,260.3 782.2,258.5 795.8,249.9 809.5,251.5 823.2,252.3" fill="none" stroke="#d55181" stroke-width="1.5" stroke-linejoin="round" stroke-linecap="round"/>
<polyline points="16.8,186.7 30.5,183.9 44.2,184.8 57.8,179.8 71.5,202.4 85.2,211.6 98.8,209.3 112.5,214.6 126.2,216.3 139.8,221.0 153.5,231.6 167.2,211.7 180.8,205.1 194.5,211.3 208.2,207.7 221.8,207.4 235.5,199.7 249.2,195.8 262.8,193.4 276.5,190.6 290.2,185.3 303.8,185.2 317.5,183.4 331.2,188.5 344.8,191.2 358.5,196.9 372.2,201.0 385.8,203.9 399.5,206.3 413.2,213.2 426.8,219.1 440.5,211.7 454.2,208.1 467.8,203.3 481.5,206.7 495.2,206.3 508.8,202.9 522.5,203.7 536.2,208.3 549.8,207.9 563.5,204.7 577.2,199.1 590.8,197.6 604.5,195.9 618.2,186.7 631.8,186.4 645.5,191.3 659.2,197.6 672.8,191.2 686.5,184.4 700.2,168.3 713.8,167.6 727.5,172.1 741.2,166.2 754.8,162.3 768.5,159.2 782.2,163.9 795.8,173.6 809.5,179.1 823.2,176.3" fill="none" stroke="#9085e9" stroke-width="1.5" stroke-linejoin="round" stroke-linecap="round"/>
<rect x="13.1" y="178.2" width="7.5" height="2.8" fill="#008300"/>
<rect x="26.7" y="181.0" width="7.5" height="1.4" fill="#008300"/>
<rect x="40.4" y="178.2" width="7.5" height="4.2" fill="none" stroke="#e66767" stroke-width="1.3"/>
<rect x="54.1" y="153.1" width="7.5" height="25.1" fill="none" stroke="#e66767" stroke-width="1.3"/>
<rect x="67.7" y="153.1" width="7.5" height="189.7" fill="#008300"/>
<rect x="81.4" y="264.7" width="7.5" height="78.1" fill="none" stroke="#e66767" stroke-width="1.3"/>
<rect x="95.1" y="162.9" width="7.5" height="101.8" fill="none" stroke="#e66767" stroke-width="1.3"/>
<rect x="108.7" y="162.9" width="7.5" height="55.8" fill="#008300"/>
<rect x="122.4" y="193.6" width="7.5" height="25.1" fill="none" stroke="#e66767" stroke-width="1.3"/>
<rect x="136.1" y="193.6" width="7.5" height="18.1" fill="#008300"/>
<rect x="149.7" y="211.7" width="7.5" height="15.3" fill="#008300"/>
<rect x="163.4" y="203.3" width="7.5" height="23.7" fill="none" stroke="#e66767" stroke-width="1.3"/>
<rect x="177.1" y="203.3" width="7.5" height="15.3" fill="#008300"/>
<rect x="190.7" y="206.1" width="7.5" height="12.6" fill="none" stroke="#e66767" stroke-width="1.3"/>
<rect x="204.4" y="193.6" width="7.5" height="12.6" fill="none" stroke="#e66767" stroke-width="1.3"/>
<rect x="218.1" y="190.8" width="7.5" height="2.8" fill="none" stroke="#e66767" stroke-width="1.3"/>
<rect x="231.7" y="158.7" width="7.5" height="32.1" fill="none" stroke="#e66767" stroke-width="1.3"/>
<rect x="245.4" y="158.7" width="7.5" height="40.5" fill="#008300"/>
<rect x="259.1" y="186.6" width="7.5" height="12.6" fill="none" stroke="#e66767" stroke-width="1.3"/>
<rect x="272.7" y="186.6" width="7.5" height="12.6" fill="#008300"/>
<rect x="286.4" y="169.9" width="7.5" height="29.3" fill="none" stroke="#e66767" stroke-width="1.3"/>
<rect x="300.1" y="169.9" width="7.5" height="22.3" fill="#008300"/>
<rect x="313.7" y="178.2" width="7.5" height="13.9" fill="none" stroke="#e66767" stroke-width="1.3"/>
<rect x="327.4" y="178.2" width="7.5" height="16.7" fill="#008300"/>
<rect x="341.1" y="195.0" width="7.5" height="22.3" fill="#008300"/>
<rect x="354.7" y="217.3" width="7.5" height="9.8" fill="#008300"/>
<rect x="368.4" y="227.0" width="7.5" height="1.2" fill="#898781"/>
<rect x="382.1" y="190.8" width="7.5" height="36.3" fill="none" stroke="#e66767" stroke-width="1.3"/>
<rect x="395.7" y="190.8" width="7.5" height="18.1" fill="#008300"/>
<rect x="409.4" y="208.9" width="7.5" height="18.1" fill="#008300"/>
<rect x="423.1" y="227.0" width="7.5" height="8.4" fill="#008300"/>
<rect x="436.7" y="165.7" width="7.5" height="69.7" fill="none" stroke="#e66767" stroke-width="1.3"/>
<rect x="450.4" y="165.7" width="7.5" height="36.3" fill="#008300"/>
<rect x="464.1" y="193.6" width="7.5" height="8.4" fill="none" stroke="#e66767" stroke-width="1.3"/>
<rect x="477.7" y="193.6" width="7.5" height="20.9" fill="#008300"/>
<rect x="491.4" y="206.1" width="7.5" height="8.4" fill="none" stroke="#e66767" stroke-width="1.3"/>
<rect x="505.1" y="203.3" width="7.5" height="2.8" fill="none" stroke="#e66767" stroke-width="1.3"/>
<rect x="518.7" y="203.3" width="7.5" height="37.7" fill="#008300"/>
<rect x="532.4" y="197.7" width="7.5" height="43.2" fill="none" stroke="#e66767" stroke-width="1.3"/>
<rect x="546.1" y="197.7" width="7.5" height="1.4" fill="#008300"/>
<rect x="559.7" y="171.2" width="7.5" height="27.9" fill="none" stroke="#e66767" stroke-width="1.3"/>
<rect x="573.4" y="171.2" width="7.5" height="4.2" fill="#008300"/>
<rect x="587.1" y="175.4" width="7.5" height="19.5" fill="#008300"/>
<rect x="600.7" y="192.2" width="7.5" height="2.8" fill="none" stroke="#e66767" stroke-width="1.3"/>
<rect x="614.4" y="176.8" width="7.5" height="15.3" fill="none" stroke="#e66767" stroke-width="1.3"/>
<rect x="628.1" y="176.8" width="7.5" height="18.1" fill="#008300"/>
<rect x="641.7" y="195.0" width="7.5" height="39.1" fill="#008300"/>
<rect x="655.4" y="214.5" width="7.5" height="19.5" fill="none" stroke="#e66767" stroke-width="1.3"/>
<rect x="669.1" y="130.8" width="7.5" height="83.7" fill="none" stroke="#e66767" stroke-width="1.3"/>
<rect x="682.7" y="130.8" width="7.5" height="16.7" fill="#008300"/>
<rect x="696.4" y="79.2" width="7.5" height="68.4" fill="none" stroke="#e66767" stroke-width="1.3"/>
<rect x="710.1" y="79.2" width="7.5" height="93.5" fill="#008300"/>
<rect x="723.7" y="172.6" width="7.5" height="53.0" fill="#008300"/>
<rect x="737.4" y="193.6" width="7.5" height="32.1" fill="none" stroke="#e66767" stroke-width="1.3"/>
<rect x="751.1" y="186.6" width="7.5" height="7.0" fill="none" stroke="#e66767" stroke-width="1.3"/>
<rect x="764.7" y="109.9" width="7.5" height="76.7" fill="none" stroke="#e66767" stroke-width="1.3"/>
<rect x="778.4" y="109.9" width="7.5" height="69.7" fill="#008300"/>
<rect x="792.1" y="147.5" width="7.5" height="32.1" fill="none" stroke="#e66767" stroke-width="1.3"/>
<rect x="805.7" y="147.5" width="7.5" height="62.8" fill="#008300"/>
<rect x="819.4" y="206.1" width="7.5" height="4.2" fill="none" stroke="#e66767" stroke-width="1.3"/>
<circle cx="700.2" cy="79.2" r="2" fill="#c3c2b7"/>
<line x1="700.2" y1="79.2" x2="692.2" y2="79.2" stroke="#c3c2b7" stroke-width="1.0"/>
<text x="689.2" y="83.2" font-size="11.0" fill="#c3c2b7" text-anchor="end">250</text>
<circle cx="71.5" cy="342.8" r="2" fill="#c3c2b7"/>
<line x1="71.5" y1="342.8" x2="79.5" y2="342.8" stroke="#c3c2b7" stroke-width="1.0"/>
<text x="82.5" y="346.8" font-size="11.0" fill="#c3c2b7">61</text>
<text x="14.0" y="376.0" font-size="11.0" fill="#c3c2b7">VOL 1 forks</text>
<text x="90.6" y="376.0" font-size="11.0" fill="#c98500">MA5:7.6</text>
<text x="142.9" y="376.0" font-size="11.0" fill="#3987e5">MA10:7.9</text>
<text x="14.0" y="395.0" font-size="10" fill="#898781">18</text>
<rect x="13.1" y="442.7" width="7.5" height="27.3" fill="#008300"/>
<rect x="26.7" y="429.0" width="7.5" height="41.0" fill="#008300"/>
<rect x="40.4" y="433.6" width="7.5" height="36.4" fill="none" stroke="#e66767" stroke-width="1.1"/>
<rect x="54.1" y="410.8" width="7.5" height="59.2" fill="none" stroke="#e66767" stroke-width="1.1"/>
<rect x="67.7" y="456.3" width="7.5" height="13.7" fill="#008300"/>
<rect x="81.4" y="460.9" width="7.5" height="9.1" fill="none" stroke="#e66767" stroke-width="1.1"/>
<rect x="95.1" y="442.7" width="7.5" height="27.3" fill="none" stroke="#e66767" stroke-width="1.1"/>
<rect x="108.7" y="442.7" width="7.5" height="27.3" fill="#008300"/>
<rect x="122.4" y="429.0" width="7.5" height="41.0" fill="none" stroke="#e66767" stroke-width="1.1"/>
<rect x="136.1" y="442.7" width="7.5" height="27.3" fill="#008300"/>
<rect x="149.7" y="429.0" width="7.5" height="41.0" fill="#008300"/>
<rect x="163.4" y="419.9" width="7.5" height="50.1" fill="none" stroke="#e66767" stroke-width="1.1"/>
<rect x="177.1" y="465.4" width="7.5" height="4.6" fill="#008300"/>
<rect x="190.7" y="438.1" width="7.5" height="31.9" fill="none" stroke="#e66767" stroke-width="1.1"/>
<rect x="204.4" y="433.6" width="7.5" height="36.4" fill="none" stroke="#e66767" stroke-width="1.1"/>
<rect x="218.1" y="433.6" width="7.5" height="36.4" fill="none" stroke="#e66767" stroke-width="1.1"/>
<rect x="231.7" y="429.0" width="7.5" height="41.0" fill="none" stroke="#e66767" stroke-width="1.1"/>
<rect x="245.4" y="456.3" width="7.5" height="13.7" fill="#008300"/>
<rect x="259.1" y="460.9" width="7.5" height="9.1" fill="none" stroke="#e66767" stroke-width="1.1"/>
<rect x="272.7" y="419.9" width="7.5" height="50.1" fill="#008300"/>
<rect x="286.4" y="419.9" width="7.5" height="50.1" fill="none" stroke="#e66767" stroke-width="1.1"/>
<rect x="300.1" y="438.1" width="7.5" height="31.9" fill="#008300"/>
<rect x="313.7" y="456.3" width="7.5" height="13.7" fill="none" stroke="#e66767" stroke-width="1.1"/>
<rect x="327.4" y="424.4" width="7.5" height="45.6" fill="#008300"/>
<rect x="341.1" y="460.9" width="7.5" height="9.1" fill="#008300"/>
<rect x="354.7" y="424.4" width="7.5" height="45.6" fill="#008300"/>
<rect x="368.4" y="465.4" width="7.5" height="4.6" fill="#898781"/>
<rect x="382.1" y="442.7" width="7.5" height="27.3" fill="none" stroke="#e66767" stroke-width="1.1"/>
<rect x="395.7" y="429.0" width="7.5" height="41.0" fill="#008300"/>
<rect x="409.4" y="460.9" width="7.5" height="9.1" fill="#008300"/>
<rect x="423.1" y="451.8" width="7.5" height="18.2" fill="#008300"/>
<rect x="436.7" y="442.7" width="7.5" height="27.3" fill="none" stroke="#e66767" stroke-width="1.1"/>
<rect x="450.4" y="433.6" width="7.5" height="36.4" fill="#008300"/>
<rect x="464.1" y="456.3" width="7.5" height="13.7" fill="none" stroke="#e66767" stroke-width="1.1"/>
<rect x="477.7" y="433.6" width="7.5" height="36.4" fill="#008300"/>
<rect x="491.4" y="456.3" width="7.5" height="13.7" fill="none" stroke="#e66767" stroke-width="1.1"/>
<rect x="505.1" y="442.7" width="7.5" height="27.3" fill="none" stroke="#e66767" stroke-width="1.1"/>
<rect x="518.7" y="442.7" width="7.5" height="27.3" fill="#008300"/>
<rect x="532.4" y="424.4" width="7.5" height="45.6" fill="none" stroke="#e66767" stroke-width="1.1"/>
<rect x="546.1" y="447.2" width="7.5" height="22.8" fill="#008300"/>
<rect x="559.7" y="424.4" width="7.5" height="45.6" fill="none" stroke="#e66767" stroke-width="1.1"/>
<rect x="573.4" y="406.2" width="7.5" height="63.8" fill="#008300"/>
<rect x="587.1" y="438.1" width="7.5" height="31.9" fill="#008300"/>
<rect x="600.7" y="442.7" width="7.5" height="27.3" fill="none" stroke="#e66767" stroke-width="1.1"/>
<rect x="614.4" y="438.1" width="7.5" height="31.9" fill="none" stroke="#e66767" stroke-width="1.1"/>
<rect x="628.1" y="419.9" width="7.5" height="50.1" fill="#008300"/>
<rect x="641.7" y="433.6" width="7.5" height="36.4" fill="#008300"/>
<rect x="655.4" y="442.7" width="7.5" height="27.3" fill="none" stroke="#e66767" stroke-width="1.1"/>
<rect x="669.1" y="424.4" width="7.5" height="45.6" fill="none" stroke="#e66767" stroke-width="1.1"/>
<rect x="682.7" y="388.0" width="7.5" height="82.0" fill="#008300"/>
<rect x="696.4" y="410.8" width="7.5" height="59.2" fill="none" stroke="#e66767" stroke-width="1.1"/>
<rect x="710.1" y="419.9" width="7.5" height="50.1" fill="#008300"/>
<rect x="723.7" y="451.8" width="7.5" height="18.2" fill="#008300"/>
<rect x="737.4" y="447.2" width="7.5" height="22.8" fill="none" stroke="#e66767" stroke-width="1.1"/>
<rect x="751.1" y="433.6" width="7.5" height="36.4" fill="none" stroke="#e66767" stroke-width="1.1"/>
<rect x="764.7" y="433.6" width="7.5" height="36.4" fill="none" stroke="#e66767" stroke-width="1.1"/>
<rect x="778.4" y="456.3" width="7.5" height="13.7" fill="#008300"/>
<rect x="792.1" y="397.1" width="7.5" height="72.9" fill="none" stroke="#e66767" stroke-width="1.1"/>
<rect x="805.7" y="424.4" width="7.5" height="45.6" fill="#008300"/>
<rect x="819.4" y="465.4" width="7.5" height="4.6" fill="none" stroke="#e66767" stroke-width="1.1"/>
<polyline points="16.8,431.7 30.5,429.0 44.2,429.5 57.8,426.7 71.5,429.9 85.2,434.9 98.8,436.7 112.5,440.4 126.2,439.0 139.8,439.0 153.5,437.7 167.2,436.7 180.8,439.9 194.5,442.7 208.2,440.4 221.8,437.7 235.5,436.3 249.2,437.7 262.8,440.8 276.5,438.6 290.2,437.7 303.8,439.5 317.5,438.6 331.2,437.2 344.8,439.9 358.5,439.0 372.2,442.7 385.8,441.3 399.5,438.1 413.2,442.2 426.8,445.4 440.5,445.9 454.2,443.6 467.8,446.8 481.5,444.0 495.2,447.2 508.8,444.9 522.5,444.9 536.2,444.5 549.8,443.1 563.5,440.4 577.2,436.7 590.8,437.2 604.5,435.8 618.2,436.3 631.8,432.6 645.5,431.7 659.2,431.7 672.8,431.7 686.5,425.8 700.2,424.4 713.8,425.8 727.5,427.2 741.2,427.6 754.8,427.2 768.5,428.5 782.2,430.8 795.8,426.3 809.5,426.3 823.2,434.0" fill="none" stroke="#3987e5" stroke-width="1.5" stroke-linejoin="round" stroke-linecap="round"/>
<polyline points="16.8,431.7 30.5,432.6 44.2,438.1 57.8,431.7 71.5,434.5 85.2,438.1 98.8,440.8 112.5,442.7 126.2,446.3 139.8,443.6 153.5,437.2 167.2,432.6 180.8,437.2 194.5,439.0 208.2,437.2 221.8,438.1 235.5,439.9 249.2,438.1 262.8,442.7 276.5,439.9 290.2,437.2 303.8,439.0 317.5,439.0 331.2,431.7 344.8,439.9 358.5,440.8 372.2,446.3 385.8,443.6 399.5,444.5 413.2,444.5 426.8,450.0 440.5,445.4 454.2,443.6 467.8,449.0 481.5,443.6 495.2,444.5 508.8,444.5 522.5,446.3 536.2,439.9 549.8,442.7 563.5,436.3 577.2,429.0 590.8,428.1 604.5,431.7 618.2,429.9 631.8,429.0 645.5,434.5 659.2,435.4 672.8,431.7 686.5,421.7 700.2,419.9 713.8,417.2 727.5,419.0 741.2,423.5 754.8,432.6 768.5,437.2 782.2,444.5 795.8,433.6 809.5,429.0 823.2,435.4" fill="none" stroke="#c98500" stroke-width="1.5" stroke-linejoin="round" stroke-linecap="round"/>
</svg>