<svg xmlns="http://www.w3.org/2000/svg" viewBox="0 0 840 496" width="840" height="496" font-family="-apple-system,&#39;Segoe UI&#39;,system-ui,sans-serif" role="img" aria-label="trimstray/the-book-of-secret-knowledge candlestick chart">
<text x="14.0" y="20.0" font-size="15" fill="#0b0b0b" font-weight="650">trimstray/the-book-of-secret-knowledge</text>
<text x="331.5" y="20.0" font-size="11.5" fill="#52514e">daily · new stars, volume = new forks</text>
<text x="805.8" y="20.0" font-size="11.0" fill="#52514e">fall</text>
<rect x="791" y="10" width="9" height="12" fill="#008300"/>
<text x="750.6" y="20.0" font-size="11.0" fill="#52514e">rise</text>
<rect x="736" y="10" width="9" height="12" fill="none" stroke="#e34948" stroke-width="1.5"/>
<text x="14.0" y="38.0" font-size="11.0" fill="#898781">last 50 days · +8,636 stars · +418 forks · updated 2026-07-24</text>
<rect x="10" y="66" width="820" height="290" fill="none" stroke="#e1e0d9"/>
<rect x="10" y="384" width="820" height="86" fill="none" stroke="#e1e0d9"/>
<text x="38.0" y="490.0" font-size="11.0" fill="#898781" text-anchor="middle">2026-06</text>
<line x1="436.4" y1="66.0" x2="436.4" y2="356.0" stroke="#e1e0d9" stroke-width="1.0"/>
<line x1="436.4" y1="384.0" x2="436.4" y2="470.0" stroke="#e1e0d9" stroke-width="1.0"/>
<text x="444.6" y="490.0" font-size="11.0" fill="#898781" text-anchor="middle">2026-07</text>
<text x="14.0" y="58.0" font-size="11.0" fill="#52514e">BOLL(20,2)</text>
<text x="84.5" y="58.0" font-size="11.0" fill="#eda100">UP:219.1</text>
<text x="142.9" y="58.0" font-size="11.0" fill="#2a78d6">MID:160.8</text>
<text x="207.4" y="58.0" font-size="11.0" fill="#e87ba4">LOW:102.6</text>
<text x="271.8" y="58.0" font-size="11.0" fill="#4a3aa7">MA7:174</text>
<line x1="10.0" y1="356.0" x2="830.0" y2="356.0" stroke="#e1e0d9" stroke-width="1.0"/>
<text x="14.0" y="353.0" font-size="11.0" fill="#898781">0</text>
<line x1="10.0" y1="237.3" x2="830.0" y2="237.3" stroke="#e1e0d9" stroke-width="1.0"/>
<text x="14.0" y="234.3" font-size="11.0" fill="#898781">100</text>
<line x1="10.0" y1="118.7" x2="830.0" y2="118.7" stroke="#e1e0d9" stroke-width="1.0"/>
<text x="14.0" y="115.7" font-size="11.0" fill="#898781">200</text>
<polyline points="329.8,83.8 346.2,88.6 362.6,88.3 379.0,93.1 395.4,92.6 411.8,92.6 428.2,92.9 444.6,103.1 461.0,110.9 477.4,111.2 493.8,112.0 510.2,111.8 526.6,108.9 543.0,81.2 559.4,81.6 575.8,79.8 592.2,83.6 608.6,87.3 625.0,95.4 641.4,96.8 657.8,96.8 674.2,97.0 690.6,96.8 707.0,96.3 723.4,97.9 739.8,94.8 756.2,95.7 772.6,94.9 789.0,96.4 805.4,95.3 821.8,96.0" fill="none" stroke="#eda100" stroke-width="1.5" stroke-linejoin="round" stroke-linecap="round"/>
<polyline points="329.8,135.1 346.2,138.8 362.6,140.8 379.0,143.7 395.4,143.1 411.8,143.0 428.2,142.0 444.6,145.8 461.0,148.0 477.4,148.2 493.8,148.7 510.2,147.5 526.6,145.4 543.0,151.7 559.4,156.3 575.8,155.3 592.2,158.1 608.6,159.9 625.0,163.4 641.4,165.1 657.8,165.1 674.2,165.5 690.6,165.1 707.0,164.8 723.4,165.6 739.8,164.3 756.2,164.9 772.6,164.3 789.0,165.2 805.4,164.7 821.8,165.1" fill="none" stroke="#2a78d6" stroke-width="1.5" stroke-linejoin="round" stroke-linecap="round"/>
<polyline points="329.8,186.4 346.2,189.0 362.6,193.2 379.0,194.3 395.4,193.7 411.8,193.4 428.2,191.1 444.6,188.5 461.0,185.1 477.4,185.2 493.8,185.4 510.2,183.2 526.6,182.0 543.0,222.1 559.4,231.0 575.8,230.9 592.2,232.7 608.6,232.5 625.0,231.3 641.4,233.4 657.8,233.4 674.2,234.0 690.6,233.5 707.0,233.2 723.4,233.2 739.8,233.8 756.2,234.1 772.6,233.7 789.0,234.0 805.4,234.2 821.8,234.3" fill="none" stroke="#e87ba4" stroke-width="1.5" stroke-linejoin="round" stroke-linecap="round"/>
<polyline points="116.6,128.2 133.0,128.6 149.4,129.5 165.8,134.2 182.2,136.6 198.6,138.0 215.0,136.5 231.4,141.9 247.8,149.1 264.2,146.3 280.6,144.0 297.0,134.8 313.4,132.9 329.8,133.8 346.2,140.2 362.6,143.7 379.0,149.7 395.4,152.3 411.8,159.1 428.2,159.0 444.6,158.7 461.0,155.0 477.4,150.8 493.8,148.5 510.2,149.2 526.6,144.9 543.0,164.1 559.4,172.0 575.8,170.1 592.2,174.6 608.6,176.0 625.0,180.0 641.4,189.0 657.8,172.1 674.2,166.5 690.6,171.7 707.0,168.6 723.4,168.4 739.8,161.9 756.2,158.6 772.6,156.5 789.0,154.2 805.4,149.7 821.8,149.5" fill="none" stroke="#4a3aa7" stroke-width="1.5" stroke-linejoin="round" stroke-linecap="round"/>
<rect x="13.7" y="96.1" width="9.0" height="259.9" fill="none" stroke="#e34948" stroke-width="1.3"/>
<rect x="30.1" y="96.1" width="9.0" height="39.2" fill="#008300"/>
<rect x="46.5" y="104.4" width="9.0" height="30.9" fill="none" stroke="#e34948" stroke-width="1.3"/>
<rect x="62.9" y="104.4" width="9.0" height="46.3" fill="#008300"/>
<rect x="79.3" y="150.7" width="9.0" height="3.6" fill="#008300"/>
<rect x="95.7" y="154.3" width="9.0" height="15.4" fill="#008300"/>
<rect x="112.1" y="86.6" width="9.0" height="83.1" fill="none" stroke="#e34948" stroke-width="1.3"/>
<rect x="128.5" y="86.6" width="9.0" height="13.1" fill="#008300"/>
<rect x="144.9" y="99.7" width="9.0" height="41.5" fill="#008300"/>
<rect x="161.3" y="137.7" width="9.0" height="3.6" fill="none" stroke="#e34948" stroke-width="1.3"/>
<rect x="177.7" y="137.7" width="9.0" height="29.7" fill="#008300"/>
<rect x="194.1" y="163.8" width="9.0" height="3.6" fill="none" stroke="#e34948" stroke-width="1.3"/>
<rect x="210.5" y="159.0" width="9.0" height="4.7" fill="none" stroke="#e34948" stroke-width="1.3"/>
<rect x="226.9" y="124.6" width="9.0" height="34.4" fill="none" stroke="#e34948" stroke-width="1.3"/>
<rect x="243.3" y="124.6" width="9.0" height="24.9" fill="#008300"/>
<rect x="259.7" y="122.2" width="9.0" height="27.3" fill="none" stroke="#e34948" stroke-width="1.3"/>
<rect x="276.1" y="121.1" width="9.0" height="1.2" fill="none" stroke="#e34948" stroke-width="1.3"/>
<rect x="292.5" y="103.3" width="9.0" height="17.8" fill="none" stroke="#e34948" stroke-width="1.3"/>
<rect x="308.9" y="103.3" width="9.0" height="47.5" fill="#008300"/>
<rect x="325.3" y="150.7" width="9.0" height="14.2" fill="#008300"/>
<rect x="341.7" y="165.0" width="9.0" height="4.7" fill="#008300"/>
<rect x="358.1" y="169.7" width="9.0" height="4.7" fill="#008300"/>
<rect x="374.5" y="163.8" width="9.0" height="10.7" fill="none" stroke="#e34948" stroke-width="1.3"/>
<rect x="390.9" y="138.9" width="9.0" height="24.9" fill="none" stroke="#e34948" stroke-width="1.3"/>
<rect x="407.3" y="138.9" width="9.0" height="13.1" fill="#008300"/>
<rect x="423.7" y="149.5" width="9.0" height="2.4" fill="none" stroke="#e34948" stroke-width="1.3"/>
<rect x="440.1" y="149.5" width="9.0" height="13.1" fill="#008300"/>
<rect x="456.5" y="143.6" width="9.0" height="19.0" fill="none" stroke="#e34948" stroke-width="1.3"/>
<rect x="472.9" y="143.6" width="9.0" height="2.4" fill="#008300"/>
<rect x="489.3" y="146.0" width="9.0" height="1.2" fill="#008300"/>
<rect x="505.7" y="143.6" width="9.0" height="3.6" fill="none" stroke="#e34948" stroke-width="1.3"/>
<rect x="522.1" y="122.2" width="9.0" height="21.4" fill="none" stroke="#e34948" stroke-width="1.3"/>
<rect x="538.5" y="122.2" width="9.0" height="161.4" fill="#008300"/>
<rect x="554.9" y="217.2" width="9.0" height="66.4" fill="none" stroke="#e34948" stroke-width="1.3"/>
<rect x="571.3" y="130.5" width="9.0" height="86.6" fill="none" stroke="#e34948" stroke-width="1.3"/>
<rect x="587.7" y="130.5" width="9.0" height="47.5" fill="#008300"/>
<rect x="604.1" y="156.7" width="9.0" height="21.4" fill="none" stroke="#e34948" stroke-width="1.3"/>
<rect x="620.5" y="156.7" width="9.0" height="15.4" fill="#008300"/>
<rect x="636.9" y="172.1" width="9.0" height="13.1" fill="#008300"/>
<rect x="653.3" y="165.0" width="9.0" height="20.2" fill="none" stroke="#e34948" stroke-width="1.3"/>
<rect x="669.7" y="165.0" width="9.0" height="13.1" fill="#008300"/>
<rect x="686.1" y="167.3" width="9.0" height="10.7" fill="none" stroke="#e34948" stroke-width="1.3"/>
<rect x="702.5" y="156.7" width="9.0" height="10.7" fill="none" stroke="#e34948" stroke-width="1.3"/>
<rect x="718.9" y="154.3" width="9.0" height="2.4" fill="none" stroke="#e34948" stroke-width="1.3"/>
<rect x="735.3" y="127.0" width="9.0" height="27.3" fill="none" stroke="#e34948" stroke-width="1.3"/>
<rect x="751.7" y="127.0" width="9.0" height="34.4" fill="#008300"/>
<rect x="768.1" y="150.7" width="9.0" height="10.7" fill="none" stroke="#e34948" stroke-width="1.3"/>
<rect x="784.5" y="150.7" width="9.0" height="10.7" fill="#008300"/>
<rect x="800.9" y="136.5" width="9.0" height="24.9" fill="none" stroke="#e34948" stroke-width="1.3"/>
<rect x="817.3" y="136.5" width="9.0" height="19.0" fill="#008300"/>
<circle cx="116.6" cy="86.6" r="2" fill="#52514e"/>
<line x1="116.6" y1="86.6" x2="124.6" y2="86.6" stroke="#52514e" stroke-width="1.0"/>
<text x="127.6" y="90.6" font-size="11.0" fill="#52514e">227</text>
<circle cx="18.2" cy="356.0" r="2" fill="#52514e"/>
<line x1="18.2" y1="356.0" x2="26.2" y2="356.0" stroke="#52514e" stroke-width="1.0"/>
<text x="29.2" y="350.0" font-size="11.0" fill="#52514e">0</text>
<text x="14.0" y="376.0" font-size="11.0" fill="#52514e">VOL 7 forks</text>
<text x="90.6" y="376.0" font-size="11.0" fill="#eda100">MA5:6.8</text>
<text x="142.9" y="376.0" font-size="11.0" fill="#2a78d6">MA10:6.7</text>
<text x="14.0" y="395.0" font-size="10" fill="#898781">18</text>
<rect x="13.7" y="433.6" width="9.0" height="36.4" fill="none" stroke="#e34948" stroke-width="1.1"/>
<rect x="30.1" y="429.0" width="9.0" height="41.0" fill="#008300"/>
<rect x="46.5" y="442.7" width="9.0" height="27.3" fill="none" stroke="#e34948" stroke-width="1.1"/>
<rect x="62.9" y="410.8" width="9.0" height="59.2" fill="#008300"/>
<rect x="79.3" y="424.4" width="9.0" height="45.6" fill="#008300"/>
<rect x="95.7" y="419.9" width="9.0" height="50.1" fill="#008300"/>
<rect x="112.1" y="392.6" width="9.0" height="77.4" fill="none" stroke="#e34948" stroke-width="1.1"/>
<rect x="128.5" y="388.0" width="9.0" height="82.0" fill="#008300"/>
<rect x="144.9" y="429.0" width="9.0" height="41.0" fill="#008300"/>
<rect x="161.3" y="406.2" width="9.0" height="63.8" fill="none" stroke="#e34948" stroke-width="1.1"/>
<rect x="177.7" y="442.7" width="9.0" height="27.3" fill="#008300"/>
<rect x="194.1" y="447.2" width="9.0" height="22.8" fill="none" stroke="#e34948" stroke-width="1.1"/>
<rect x="210.5" y="433.6" width="9.0" height="36.4" fill="none" stroke="#e34948" stroke-width="1.1"/>
<rect x="226.9" y="419.9" width="9.0" height="50.1" fill="none" stroke="#e34948" stroke-width="1.1"/>
<rect x="243.3" y="419.9" width="9.0" height="50.1" fill="#008300"/>
<rect x="259.7" y="429.0" width="9.0" height="41.0" fill="none" stroke="#e34948" stroke-width="1.1"/>
<rect x="276.1" y="429.0" width="9.0" height="41.0" fill="none" stroke="#e34948" stroke-width="1.1"/>
<rect x="292.5" y="447.2" width="9.0" height="22.8" fill="none" stroke="#e34948" stroke-width="1.1"/>
<rect x="308.9" y="442.7" width="9.0" height="27.3" fill="#008300"/>
<rect x="325.3" y="456.3" width="9.0" height="13.7" fill="#008300"/>
<rect x="341.7" y="429.0" width="9.0" height="41.0" fill="#008300"/>
<rect x="358.1" y="438.1" width="9.0" height="31.9" fill="#008300"/>
<rect x="374.5" y="424.4" width="9.0" height="45.6" fill="none" stroke="#e34948" stroke-width="1.1"/>
<rect x="390.9" y="410.8" width="9.0" height="59.2" fill="none" stroke="#e34948" stroke-width="1.1"/>
<rect x="407.3" y="424.4" width="9.0" height="45.6" fill="#008300"/>
<rect x="423.7" y="406.2" width="9.0" height="63.8" fill="none" stroke="#e34948" stroke-width="1.1"/>
<rect x="440.1" y="442.7" width="9.0" height="27.3" fill="#008300"/>
<rect x="456.5" y="442.7" width="9.0" height="27.3" fill="none" stroke="#e34948" stroke-width="1.1"/>
<rect x="472.9" y="442.7" width="9.0" height="27.3" fill="#008300"/>
<rect x="489.3" y="429.0" width="9.0" height="41.0" fill="#008300"/>
<rect x="505.7" y="433.6" width="9.0" height="36.4" fill="none" stroke="#e34948" stroke-width="1.1"/>
<rect x="522.1" y="410.8" width="9.0" height="59.2" fill="none" stroke="#e34948" stroke-width="1.1"/>
<rect x="538.5" y="456.3" width="9.0" height="13.7" fill="#008300"/>
<rect x="554.9" y="460.9" width="9.0" height="9.1" fill="none" stroke="#e34948" stroke-width="1.1"/>
<rect x="571.3" y="442.7" width="9.0" height="27.3" fill="none" stroke="#e34948" stroke-width="1.1"/>
<rect x="587.7" y="442.7" width="9.0" height="27.3" fill="#008300"/>
<rect x="604.1" y="429.0" width="9.0" height="41.0" fill="none" stroke="#e34948" stroke-width="1.1"/>
<rect x="620.5" y="442.7" width="9.0" height="27.3" fill="#008300"/>
<rect x="636.9" y="429.0" width="9.0" height="41.0" fill="#008300"/>
<rect x="653.3" y="419.9" width="9.0" height="50.1" fill="none" stroke="#e34948" stroke-width="1.1"/>
<rect x="669.7" y="465.4" width="9.0" height="4.6" fill="#008300"/>
<rect x="686.1" y="438.1" width="9.0" height="31.9" fill="none" stroke="#e34948" stroke-width="1.1"/>
<rect x="702.5" y="433.6" width="9.0" height="36.4" fill="none" stroke="#e34948" stroke-width="1.1"/>
<rect x="718.9" y="433.6" width="9.0" height="36.4" fill="none" stroke="#e34948" stroke-width="1.1"/>
<rect x="735.3" y="429.0" width="9.0" height="41.0" fill="none" stroke="#e34948" stroke-width="1.1"/>
<rect x="751.7" y="456.3" width="9.0" height="13.7" fill="#008300"/>
<rect x="768.1" y="460.9" width="9.0" height="9.1" fill="none" stroke="#e34948" stroke-width="1.1"/>
<rect x="784.5" y="419.9" width="9.0" height="50.1" fill="#008300"/>
<rect x="800.9" y="419.9" width="9.0" height="50.1" fill="none" stroke="#e34948" stroke-width="1.1"/>
<rect x="817.3" y="438.1" width="9.0" height="31.9" fill="#008300"/>
<polyline points="165.8,417.6 182.2,418.5 198.6,420.3 215.0,419.4 231.4,420.3 247.8,419.9 264.2,420.8 280.6,424.4 297.0,430.4 313.4,431.7 329.8,436.7 346.2,435.4 362.6,434.5 379.0,433.6 395.4,432.6 411.8,433.1 428.2,430.8 444.6,432.2 461.0,431.7 477.4,431.7 493.8,429.0 510.2,429.5 526.6,426.7 543.0,429.9 559.4,434.9 575.8,436.7 592.2,440.4 608.6,439.0 625.0,439.0 641.4,437.7 657.8,436.7 674.2,439.9 690.6,442.7 707.0,440.4 723.4,437.7 739.8,436.3 756.2,437.7 772.6,440.8 789.0,438.6 805.4,437.7 821.8,439.5" fill="none" stroke="#2a78d6" stroke-width="1.5" stroke-linejoin="round" stroke-linecap="round"/>
<polyline points="83.8,428.1 100.2,425.4 116.6,418.1 133.0,407.1 149.4,410.8 165.8,407.1 182.2,411.7 198.6,422.6 215.0,431.7 231.4,429.9 247.8,432.6 264.2,429.9 280.6,426.3 297.0,429.0 313.4,433.6 329.8,440.8 346.2,440.8 362.6,442.7 379.0,438.1 395.4,431.7 411.8,425.4 428.2,420.8 444.6,421.7 461.0,425.4 477.4,431.7 493.8,432.6 510.2,438.1 526.6,431.7 543.0,434.5 559.4,438.1 575.8,440.8 592.2,442.7 608.6,446.3 625.0,443.6 641.4,437.2 657.8,432.6 674.2,437.2 690.6,439.0 707.0,437.2 723.4,438.1 739.8,439.9 756.2,438.1 772.6,442.7 789.0,439.9 805.4,437.2 821.8,439.0" fill="none" stroke="#eda100" stroke-width="1.5" stroke-linejoin="round" stroke-linecap="round"/>
</svg>