<svg xmlns="http://www.w3.org/2000/svg" viewBox="0 0 840 496" width="840" height="496" font-family="-apple-system,&#39;Segoe UI&#39;,system-ui,sans-serif" role="img" aria-label="trimstray/the-book-of-secret-knowledge candlestick chart">
<text x="14.0" y="20.0" font-size="15" fill="#0b0b0b" font-weight="650">trimstray/the-book-of-secret-knowledge</text>
<text x="331.5" y="20.0" font-size="11.5" fill="#52514e">daily · new stars, volume = new forks</text>
<text x="805.8" y="20.0" font-size="11.0" fill="#52514e">fall</text>
<rect x="791" y="10" width="9" height="12" fill="#008300"/>
<text x="750.6" y="20.0" font-size="11.0" fill="#52514e">rise</text>
<rect x="736" y="10" width="9" height="12" fill="none" stroke="#e34948" stroke-width="1.5"/>
<text x="14.0" y="38.0" font-size="11.0" fill="#898781">last 33 days · +5,856 stars · +302 forks · updated 2026-07-07</text>
<rect x="10" y="66" width="820" height="290" fill="none" stroke="#e1e0d9"/>
<rect x="10" y="384" width="820" height="86" fill="none" stroke="#e1e0d9"/>
<text x="38.0" y="490.0" font-size="11.0" fill="#898781" text-anchor="middle">2026-06</text>
<line x1="656.1" y1="66.0" x2="656.1" y2="356.0" stroke="#e1e0d9" stroke-width="1.0"/>
<line x1="656.1" y1="384.0" x2="656.1" y2="470.0" stroke="#e1e0d9" stroke-width="1.0"/>
<text x="668.5" y="490.0" font-size="11.0" fill="#898781" text-anchor="middle">2026-07</text>
<text x="14.0" y="58.0" font-size="11.0" fill="#52514e">BOLL(20,2)</text>
<text x="84.5" y="58.0" font-size="11.0" fill="#eda100">UP:231.6</text>
<text x="142.9" y="58.0" font-size="11.0" fill="#2a78d6">MID:172.2</text>
<text x="207.4" y="58.0" font-size="11.0" fill="#e87ba4">LOW:112.8</text>
<text x="271.8" y="58.0" font-size="11.0" fill="#4a3aa7">MA7:161.7</text>
<line x1="10.0" y1="356.0" x2="830.0" y2="356.0" stroke="#e1e0d9" stroke-width="1.0"/>
<text x="14.0" y="353.0" font-size="11.0" fill="#898781">0</text>
<line x1="10.0" y1="236.7" x2="830.0" y2="236.7" stroke="#e1e0d9" stroke-width="1.0"/>
<text x="14.0" y="233.7" font-size="11.0" fill="#898781">100</text>
<line x1="10.0" y1="117.4" x2="830.0" y2="117.4" stroke="#e1e0d9" stroke-width="1.0"/>
<text x="14.0" y="114.4" font-size="11.0" fill="#898781">200</text>
<polyline points="494.5,82.4 519.4,87.2 544.2,86.9 569.1,91.7 593.9,91.2 618.8,91.2 643.6,91.6 668.5,101.8 693.3,109.6 718.2,110.0 743.0,110.8 767.9,110.5 792.7,107.6 817.6,79.8" fill="none" stroke="#eda100" stroke-width="1.5" stroke-linejoin="round" stroke-linecap="round"/>
<polyline points="494.5,134.0 519.4,137.7 544.2,139.6 569.1,142.6 593.9,142.0 618.8,141.9 643.6,140.9 668.5,144.7 693.3,146.9 718.2,147.1 743.0,147.6 767.9,146.4 792.7,144.3 817.6,150.6" fill="none" stroke="#2a78d6" stroke-width="1.5" stroke-linejoin="round" stroke-linecap="round"/>
<polyline points="494.5,185.6 519.4,188.1 544.2,192.4 569.1,193.5 593.9,192.8 618.8,192.6 643.6,190.2 668.5,187.6 693.3,184.2 718.2,184.3 743.0,184.5 767.9,182.3 792.7,181.0 817.6,221.4" fill="none" stroke="#e87ba4" stroke-width="1.5" stroke-linejoin="round" stroke-linecap="round"/>
<polyline points="171.5,127.0 196.4,127.5 221.2,128.3 246.1,133.1 270.9,135.5 295.8,136.9 320.6,135.3 345.5,140.8 370.3,148.0 395.2,145.2 420.0,142.8 444.8,133.7 469.7,131.8 494.5,132.6 519.4,139.0 544.2,142.6 569.1,148.6 593.9,151.2 618.8,158.1 643.6,158.0 668.5,157.6 693.3,153.9 718.2,149.8 743.0,147.4 767.9,148.1 792.7,143.8 817.6,163.1" fill="none" stroke="#4a3aa7" stroke-width="1.5" stroke-linejoin="round" stroke-linecap="round"/>
<rect x="15.6" y="94.8" width="13.7" height="261.2" fill="none" stroke="#e34948" stroke-width="1.3"/>
<rect x="40.4" y="94.8" width="13.7" height="39.4" fill="#008300"/>
<rect x="65.3" y="103.1" width="13.7" height="31.0" fill="none" stroke="#e34948" stroke-width="1.3"/>
<rect x="90.1" y="103.1" width="13.7" height="46.5" fill="#008300"/>
<rect x="115.0" y="149.6" width="13.7" height="3.6" fill="#008300"/>
<rect x="139.8" y="153.2" width="13.7" height="15.5" fill="#008300"/>
<rect x="164.7" y="85.2" width="13.7" height="83.5" fill="none" stroke="#e34948" stroke-width="1.3"/>
<rect x="189.5" y="85.2" width="13.7" height="13.1" fill="#008300"/>
<rect x="214.4" y="98.4" width="13.7" height="41.7" fill="#008300"/>
<rect x="239.2" y="136.5" width="13.7" height="3.6" fill="none" stroke="#e34948" stroke-width="1.3"/>
<rect x="264.1" y="136.5" width="13.7" height="29.8" fill="#008300"/>
<rect x="288.9" y="162.8" width="13.7" height="3.6" fill="none" stroke="#e34948" stroke-width="1.3"/>
<rect x="313.8" y="158.0" width="13.7" height="4.8" fill="none" stroke="#e34948" stroke-width="1.3"/>
<rect x="338.6" y="123.4" width="13.7" height="34.6" fill="none" stroke="#e34948" stroke-width="1.3"/>
<rect x="363.5" y="123.4" width="13.7" height="25.0" fill="#008300"/>
<rect x="388.3" y="121.0" width="13.7" height="27.4" fill="none" stroke="#e34948" stroke-width="1.3"/>
<rect x="413.2" y="119.8" width="13.7" height="1.2" fill="none" stroke="#e34948" stroke-width="1.3"/>
<rect x="438.0" y="101.9" width="13.7" height="17.9" fill="none" stroke="#e34948" stroke-width="1.3"/>
<rect x="462.9" y="101.9" width="13.7" height="47.7" fill="#008300"/>
<rect x="487.7" y="149.6" width="13.7" height="14.3" fill="#008300"/>
<rect x="512.6" y="164.0" width="13.7" height="4.8" fill="#008300"/>
<rect x="537.4" y="168.7" width="13.7" height="4.8" fill="#008300"/>
<rect x="562.3" y="162.8" width="13.7" height="10.7" fill="none" stroke="#e34948" stroke-width="1.3"/>
<rect x="587.1" y="137.7" width="13.7" height="25.0" fill="none" stroke="#e34948" stroke-width="1.3"/>
<rect x="612.0" y="137.7" width="13.7" height="13.1" fill="#008300"/>
<rect x="636.8" y="148.5" width="13.7" height="2.4" fill="none" stroke="#e34948" stroke-width="1.3"/>
<rect x="661.7" y="148.5" width="13.7" height="13.1" fill="#008300"/>
<rect x="686.5" y="142.5" width="13.7" height="19.1" fill="none" stroke="#e34948" stroke-width="1.3"/>
<rect x="711.3" y="142.5" width="13.7" height="2.4" fill="#008300"/>
<rect x="736.2" y="144.9" width="13.7" height="1.2" fill="#008300"/>
<rect x="761.0" y="142.5" width="13.7" height="3.6" fill="none" stroke="#e34948" stroke-width="1.3"/>
<rect x="785.9" y="121.0" width="13.7" height="21.5" fill="none" stroke="#e34948" stroke-width="1.3"/>
<rect x="810.7" y="121.0" width="13.7" height="162.2" fill="#008300"/>
<circle cx="171.5" cy="85.2" r="2" fill="#52514e"/>
<line x1="171.5" y1="85.2" x2="179.5" y2="85.2" stroke="#52514e" stroke-width="1.0"/>
<text x="182.5" y="89.2" font-size="11.0" fill="#52514e">227</text>
<circle cx="22.4" cy="356.0" r="2" fill="#52514e"/>
<line x1="22.4" y1="356.0" x2="30.4" y2="356.0" stroke="#52514e" stroke-width="1.0"/>
<text x="33.4" y="350.0" font-size="11.0" fill="#52514e">0</text>
<text x="14.0" y="376.0" font-size="11.0" fill="#52514e">VOL 3 forks</text>
<text x="90.5" y="376.0" font-size="11.0" fill="#eda100">MA5:7.8</text>
<text x="142.9" y="376.0" font-size="11.0" fill="#2a78d6">MA10:8.8</text>
<text x="14.0" y="395.0" font-size="10" fill="#898781">18</text>
<rect x="15.6" y="433.6" width="13.7" height="36.4" fill="none" stroke="#e34948" stroke-width="1.1"/>
<rect x="40.4" y="429.0" width="13.7" height="41.0" fill="#008300"/>
<rect x="65.3" y="442.7" width="13.7" height="27.3" fill="none" stroke="#e34948" stroke-width="1.1"/>
<rect x="90.1" y="410.8" width="13.7" height="59.2" fill="#008300"/>
<rect x="115.0" y="424.4" width="13.7" height="45.6" fill="#008300"/>
<rect x="139.8" y="419.9" width="13.7" height="50.1" fill="#008300"/>
<rect x="164.7" y="392.6" width="13.7" height="77.4" fill="none" stroke="#e34948" stroke-width="1.1"/>
<rect x="189.5" y="388.0" width="13.7" height="82.0" fill="#008300"/>
<rect x="214.4" y="429.0" width="13.7" height="41.0" fill="#008300"/>
<rect x="239.2" y="406.2" width="13.7" height="63.8" fill="none" stroke="#e34948" stroke-width="1.1"/>
<rect x="264.1" y="442.7" width="13.7" height="27.3" fill="#008300"/>
<rect x="288.9" y="447.2" width="13.7" height="22.8" fill="none" stroke="#e34948" stroke-width="1.1"/>
<rect x="313.8" y="433.6" width="13.7" height="36.4" fill="none" stroke="#e34948" stroke-width="1.1"/>
<rect x="338.6" y="419.9" width="13.7" height="50.1" fill="none" stroke="#e34948" stroke-width="1.1"/>
<rect x="363.5" y="419.9" width="13.7" height="50.1" fill="#008300"/>
<rect x="388.3" y="429.0" width="13.7" height="41.0" fill="none" stroke="#e34948" stroke-width="1.1"/>
<rect x="413.2" y="429.0" width="13.7" height="41.0" fill="none" stroke="#e34948" stroke-width="1.1"/>
<rect x="438.0" y="447.2" width="13.7" height="22.8" fill="none" stroke="#e34948" stroke-width="1.1"/>
<rect x="462.9" y="442.7" width="13.7" height="27.3" fill="#008300"/>
<rect x="487.7" y="456.3" width="13.7" height="13.7" fill="#008300"/>
<rect x="512.6" y="429.0" width="13.7" height="41.0" fill="#008300"/>
<rect x="537.4" y="438.1" width="13.7" height="31.9" fill="#008300"/>
<rect x="562.3" y="424.4" width="13.7" height="45.6" fill="none" stroke="#e34948" stroke-width="1.1"/>
<rect x="587.1" y="410.8" width="13.7" height="59.2" fill="none" stroke="#e34948" stroke-width="1.1"/>
<rect x="612.0" y="424.4" width="13.7" height="45.6" fill="#008300"/>
<rect x="636.8" y="406.2" width="13.7" height="63.8" fill="none" stroke="#e34948" stroke-width="1.1"/>
<rect x="661.7" y="442.7" width="13.7" height="27.3" fill="#008300"/>
<rect x="686.5" y="442.7" width="13.7" height="27.3" fill="none" stroke="#e34948" stroke-width="1.1"/>
<rect x="711.3" y="442.7" width="13.7" height="27.3" fill="#008300"/>
<rect x="736.2" y="429.0" width="13.7" height="41.0" fill="#008300"/>
<rect x="761.0" y="433.6" width="13.7" height="36.4" fill="none" stroke="#e34948" stroke-width="1.1"/>
<rect x="785.9" y="410.8" width="13.7" height="59.2" fill="none" stroke="#e34948" stroke-width="1.1"/>
<rect x="810.7" y="456.3" width="13.7" height="13.7" fill="#008300"/>
<polyline points="246.1,417.6 270.9,418.5 295.8,420.3 320.6,419.4 345.5,420.3 370.3,419.9 395.2,420.8 420.0,424.4 444.8,430.4 469.7,431.7 494.5,436.7 519.4,435.4 544.2,434.5 569.1,433.6 593.9,432.6 618.8,433.1 643.6,430.8 668.5,432.2 693.3,431.7 718.2,431.7 743.0,429.0 767.9,429.5 792.7,426.7 817.6,429.9" fill="none" stroke="#2a78d6" stroke-width="1.5" stroke-linejoin="round" stroke-linecap="round"/>
<polyline points="121.8,428.1 146.7,425.4 171.5,418.1 196.4,407.1 221.2,410.8 246.1,407.1 270.9,411.7 295.8,422.6 320.6,431.7 345.5,429.9 370.3,432.6 395.2,429.9 420.0,426.3 444.8,429.0 469.7,433.6 494.5,440.8 519.4,440.8 544.2,442.7 569.1,438.1 593.9,431.7 618.8,425.4 643.6,420.8 668.5,421.7 693.3,425.4 718.2,431.7 743.0,432.6 767.9,438.1 792.7,431.7 817.6,434.5" fill="none" stroke="#eda100" stroke-width="1.5" stroke-linejoin="round" stroke-linecap="round"/>
</svg>