<svg xmlns="http://www.w3.org/2000/svg" viewBox="0 0 840 496" width="840" height="496" font-family="-apple-system,&#39;Segoe UI&#39;,system-ui,sans-serif" role="img" aria-label="nilbuild/developer-roadmap candlestick chart">
<text x="14.0" y="20.0" font-size="15" fill="#0b0b0b" font-weight="650">nilbuild/developer-roadmap</text>
<text x="232.5" y="20.0" font-size="11.5" fill="#52514e">daily · new stars, volume = new forks</text>
<text x="805.8" y="20.0" font-size="11.0" fill="#52514e">fall</text>
<rect x="791" y="10" width="9" height="12" fill="#008300"/>
<text x="750.6" y="20.0" font-size="11.0" fill="#52514e">rise</text>
<rect x="736" y="10" width="9" height="12" fill="none" stroke="#e34948" stroke-width="1.5"/>
<text x="14.0" y="38.0" font-size="11.0" fill="#898781">last 59 days · +6,080 stars · +576 forks · updated 2026-07-09</text>
<rect x="10" y="66" width="820" height="290" fill="none" stroke="#e1e0d9"/>
<rect x="10" y="384" width="820" height="86" fill="none" stroke="#e1e0d9"/>
<text x="38.0" y="490.0" font-size="11.0" fill="#898781" text-anchor="middle">2026-05</text>
<line x1="288.0" y1="66.0" x2="288.0" y2="356.0" stroke="#e1e0d9" stroke-width="1.0"/>
<line x1="288.0" y1="384.0" x2="288.0" y2="470.0" stroke="#e1e0d9" stroke-width="1.0"/>
<text x="294.9" y="490.0" font-size="11.0" fill="#898781" text-anchor="middle">2026-06</text>
<line x1="704.9" y1="66.0" x2="704.9" y2="356.0" stroke="#e1e0d9" stroke-width="1.0"/>
<line x1="704.9" y1="384.0" x2="704.9" y2="470.0" stroke="#e1e0d9" stroke-width="1.0"/>
<text x="711.9" y="490.0" font-size="11.0" fill="#898781" text-anchor="middle">2026-07</text>
<text x="14.0" y="58.0" font-size="11.0" fill="#52514e">BOLL(20,2)</text>
<text x="84.5" y="58.0" font-size="11.0" fill="#eda100">UP:179.1</text>
<text x="142.9" y="58.0" font-size="11.0" fill="#2a78d6">MID:113.0</text>
<text x="207.4" y="58.0" font-size="11.0" fill="#e87ba4">LOW:46.8</text>
<text x="265.8" y="58.0" font-size="11.0" fill="#4a3aa7">MA7:113.4</text>
<line x1="10.0" y1="356.0" x2="830.0" y2="356.0" stroke="#e1e0d9" stroke-width="1.0"/>
<text x="14.0" y="353.0" font-size="11.0" fill="#898781">0</text>
<line x1="10.0" y1="227.5" x2="830.0" y2="227.5" stroke="#e1e0d9" stroke-width="1.0"/>
<text x="14.0" y="224.5" font-size="11.0" fill="#898781">100</text>
<line x1="10.0" y1="99.1" x2="830.0" y2="99.1" stroke="#e1e0d9" stroke-width="1.0"/>
<text x="14.0" y="96.1" font-size="11.0" fill="#898781">200</text>
<polyline points="281.0,231.5 294.9,229.8 308.8,183.0 322.7,172.9 336.6,170.5 350.5,170.3 364.4,170.7 378.3,170.4 392.2,170.0 406.1,168.8 420.0,168.8 433.9,168.8 447.8,168.7 461.7,163.5 475.6,128.8 489.5,110.5 503.4,105.3 517.3,105.2 531.2,105.4 545.1,106.3 559.0,106.0 572.9,106.0 586.8,119.7 600.7,123.1 614.6,123.2 628.5,121.5 642.4,120.6 656.3,120.7 670.2,120.6 684.1,120.6 698.0,120.7 711.9,120.1 725.8,112.0 739.7,100.8 753.6,122.4 767.5,135.8 781.4,136.9 795.3,128.0 809.2,126.1 823.1,125.9" fill="none" stroke="#eda100" stroke-width="1.5" stroke-linejoin="round" stroke-linecap="round"/>
<polyline points="281.0,252.8 294.9,252.3 308.8,245.5 322.7,240.8 336.6,238.4 350.5,238.2 364.4,239.2 378.3,238.6 392.2,238.0 406.1,236.0 420.0,234.9 433.9,236.3 447.8,235.8 461.7,232.1 475.6,223.4 489.5,216.9 503.4,213.0 517.3,211.4 531.2,210.1 545.1,208.7 559.0,206.2 572.9,206.2 586.8,212.3 600.7,214.4 614.6,214.6 628.5,212.9 642.4,209.8 656.3,209.1 670.2,209.3 684.1,209.2 698.0,208.5 711.9,204.4 725.8,199.1 739.7,195.3 753.6,200.8 767.5,203.8 781.4,204.2 795.3,208.5 809.2,210.5 823.1,210.9" fill="none" stroke="#2a78d6" stroke-width="1.5" stroke-linejoin="round" stroke-linecap="round"/>
<polyline points="281.0,274.1 294.9,274.9 308.8,308.1 322.7,308.8 336.6,306.2 350.5,306.1 364.4,307.7 378.3,306.7 392.2,306.0 406.1,303.1 420.0,301.0 433.9,303.8 447.8,302.8 461.7,300.7 475.6,318.0 489.5,323.3 503.4,320.6 517.3,317.5 531.2,314.9 545.1,311.1 559.0,306.4 572.9,306.3 586.8,305.0 600.7,305.7 614.6,305.9 628.5,304.3 642.4,299.0 656.3,297.5 670.2,298.0 684.1,297.8 698.0,296.2 711.9,288.6 725.8,286.1 739.7,289.8 753.6,279.2 767.5,271.9 781.4,271.5 795.3,288.9 809.2,294.9 823.1,295.9" fill="none" stroke="#e87ba4" stroke-width="1.5" stroke-linejoin="round" stroke-linecap="round"/>
<polyline points="100.3,251.0 114.2,251.9 128.1,253.4 142.0,252.1 155.9,248.2 169.8,251.4 183.7,255.0 197.6,254.9 211.5,253.7 225.4,251.0 239.3,249.8 253.2,251.9 267.1,253.7 281.0,252.5 294.9,249.5 308.8,232.2 322.7,222.4 336.6,217.1 350.5,213.5 364.4,212.3 378.3,210.5 392.2,211.0 406.1,226.1 420.0,235.2 433.9,242.4 447.8,244.4 461.7,234.7 475.6,211.6 489.5,193.4 503.4,185.3 517.3,182.4 531.2,177.1 545.1,176.5 559.0,178.6 572.9,200.2 586.8,219.1 600.7,226.6 614.6,226.3 628.5,221.5 642.4,215.5 656.3,218.7 670.2,220.0 684.1,217.1 698.0,218.2 711.9,213.3 725.8,204.9 739.7,193.2 753.6,187.8 767.5,177.8 781.4,171.1 795.3,182.4 809.2,194.7 823.1,210.3" fill="none" stroke="#4a3aa7" stroke-width="1.5" stroke-linejoin="round" stroke-linecap="round"/>
<rect x="13.1" y="241.7" width="7.6" height="114.3" fill="none" stroke="#e34948" stroke-width="1.3"/>
<rect x="27.0" y="241.7" width="7.6" height="12.8" fill="#008300"/>
<rect x="40.9" y="254.5" width="7.6" height="16.7" fill="#008300"/>
<rect x="54.8" y="264.8" width="7.6" height="6.4" fill="none" stroke="#e34948" stroke-width="1.3"/>
<rect x="68.7" y="232.7" width="7.6" height="32.1" fill="none" stroke="#e34948" stroke-width="1.3"/>
<rect x="82.6" y="232.7" width="7.6" height="5.1" fill="#008300"/>
<rect x="96.5" y="237.8" width="7.6" height="16.7" fill="#008300"/>
<rect x="110.4" y="248.1" width="7.6" height="6.4" fill="none" stroke="#e34948" stroke-width="1.3"/>
<rect x="124.3" y="248.1" width="7.6" height="16.7" fill="#008300"/>
<rect x="138.2" y="262.2" width="7.6" height="2.6" fill="none" stroke="#e34948" stroke-width="1.3"/>
<rect x="152.1" y="237.8" width="7.6" height="24.4" fill="none" stroke="#e34948" stroke-width="1.3"/>
<rect x="166.0" y="237.8" width="7.6" height="16.7" fill="#008300"/>
<rect x="179.9" y="254.5" width="7.6" height="9.0" fill="#008300"/>
<rect x="193.8" y="253.2" width="7.6" height="10.3" fill="none" stroke="#e34948" stroke-width="1.3"/>
<rect x="207.7" y="240.4" width="7.6" height="12.8" fill="none" stroke="#e34948" stroke-width="1.3"/>
<rect x="221.6" y="240.4" width="7.6" height="5.1" fill="#008300"/>
<rect x="235.5" y="245.5" width="7.6" height="7.7" fill="#008300"/>
<rect x="249.4" y="253.2" width="7.6" height="1.2" fill="#898781"/>
<rect x="263.3" y="253.2" width="7.6" height="14.1" fill="#008300"/>
<rect x="277.2" y="254.5" width="7.6" height="12.8" fill="none" stroke="#e34948" stroke-width="1.3"/>
<rect x="291.1" y="232.7" width="7.6" height="21.8" fill="none" stroke="#e34948" stroke-width="1.3"/>
<rect x="305.0" y="118.3" width="7.6" height="114.3" fill="none" stroke="#e34948" stroke-width="1.3"/>
<rect x="318.9" y="118.3" width="7.6" height="59.1" fill="#008300"/>
<rect x="332.8" y="177.4" width="7.6" height="38.5" fill="#008300"/>
<rect x="346.7" y="216.0" width="7.6" height="12.8" fill="#008300"/>
<rect x="360.6" y="228.8" width="7.6" height="29.5" fill="#008300"/>
<rect x="374.5" y="241.7" width="7.6" height="16.7" fill="none" stroke="#e34948" stroke-width="1.3"/>
<rect x="388.4" y="236.5" width="7.6" height="5.1" fill="none" stroke="#e34948" stroke-width="1.3"/>
<rect x="402.3" y="223.7" width="7.6" height="12.8" fill="none" stroke="#e34948" stroke-width="1.3"/>
<rect x="416.2" y="223.7" width="7.6" height="18.0" fill="#008300"/>
<rect x="430.1" y="241.7" width="7.6" height="24.4" fill="#008300"/>
<rect x="444.0" y="243.0" width="7.6" height="23.1" fill="none" stroke="#e34948" stroke-width="1.3"/>
<rect x="457.9" y="190.3" width="7.6" height="52.7" fill="none" stroke="#e34948" stroke-width="1.3"/>
<rect x="471.8" y="79.8" width="7.6" height="110.5" fill="none" stroke="#e34948" stroke-width="1.3"/>
<rect x="485.7" y="79.8" width="7.6" height="29.5" fill="#008300"/>
<rect x="499.6" y="109.4" width="7.6" height="57.8" fill="#008300"/>
<rect x="513.5" y="167.2" width="7.6" height="54.0" fill="#008300"/>
<rect x="527.4" y="221.1" width="7.6" height="7.7" fill="#008300"/>
<rect x="541.3" y="228.8" width="7.6" height="10.3" fill="#008300"/>
<rect x="555.2" y="204.4" width="7.6" height="34.7" fill="none" stroke="#e34948" stroke-width="1.3"/>
<rect x="569.1" y="204.4" width="7.6" height="27.0" fill="#008300"/>
<rect x="583.0" y="231.4" width="7.6" height="10.3" fill="#008300"/>
<rect x="596.9" y="219.8" width="7.6" height="21.8" fill="none" stroke="#e34948" stroke-width="1.3"/>
<rect x="610.8" y="218.5" width="7.6" height="1.3" fill="none" stroke="#e34948" stroke-width="1.3"/>
<rect x="624.7" y="195.4" width="7.6" height="23.1" fill="none" stroke="#e34948" stroke-width="1.3"/>
<rect x="638.6" y="195.4" width="7.6" height="1.3" fill="#008300"/>
<rect x="652.4" y="196.7" width="7.6" height="30.8" fill="#008300"/>
<rect x="666.3" y="227.5" width="7.6" height="12.8" fill="#008300"/>
<rect x="680.2" y="221.1" width="7.6" height="19.3" fill="none" stroke="#e34948" stroke-width="1.3"/>
<rect x="694.1" y="221.1" width="7.6" height="6.4" fill="#008300"/>
<rect x="708.0" y="183.9" width="7.6" height="43.7" fill="none" stroke="#e34948" stroke-width="1.3"/>
<rect x="721.9" y="137.6" width="7.6" height="46.2" fill="none" stroke="#e34948" stroke-width="1.3"/>
<rect x="735.8" y="114.5" width="7.6" height="23.1" fill="none" stroke="#e34948" stroke-width="1.3"/>
<rect x="749.7" y="114.5" width="7.6" height="75.8" fill="#008300"/>
<rect x="763.6" y="169.7" width="7.6" height="20.6" fill="none" stroke="#e34948" stroke-width="1.3"/>
<rect x="777.5" y="169.7" width="7.6" height="5.1" fill="#008300"/>
<rect x="791.4" y="174.9" width="7.6" height="131.0" fill="#008300"/>
<rect x="805.3" y="269.9" width="7.6" height="36.0" fill="none" stroke="#e34948" stroke-width="1.3"/>
<rect x="819.2" y="246.8" width="7.6" height="23.1" fill="none" stroke="#e34948" stroke-width="1.3"/>
<circle cx="475.6" cy="79.8" r="2" fill="#52514e"/>
<line x1="475.6" y1="79.8" x2="467.6" y2="79.8" stroke="#52514e" stroke-width="1.0"/>
<text x="464.6" y="83.8" font-size="11.0" fill="#52514e" text-anchor="end">215</text>
<circle cx="16.9" cy="356.0" r="2" fill="#52514e"/>
<line x1="16.9" y1="356.0" x2="24.9" y2="356.0" stroke="#52514e" stroke-width="1.0"/>
<text x="27.9" y="350.0" font-size="11.0" fill="#52514e">0</text>
<text x="14.0" y="376.0" font-size="11.0" fill="#52514e">VOL 2 forks</text>
<text x="90.6" y="376.0" font-size="11.0" fill="#eda100">MA5:8.2</text>
<text x="142.9" y="376.0" font-size="11.0" fill="#2a78d6">MA10:12.2</text>
<text x="14.0" y="395.0" font-size="10" fill="#898781">25</text>
<rect x="13.1" y="450.3" width="7.6" height="19.7" fill="none" stroke="#e34948" stroke-width="1.1"/>
<rect x="27.0" y="443.8" width="7.6" height="26.2" fill="#008300"/>
<rect x="40.9" y="447.0" width="7.6" height="23.0" fill="#008300"/>
<rect x="54.8" y="450.3" width="7.6" height="19.7" fill="none" stroke="#e34948" stroke-width="1.1"/>
<rect x="68.7" y="427.4" width="7.6" height="42.6" fill="none" stroke="#e34948" stroke-width="1.1"/>
<rect x="82.6" y="443.8" width="7.6" height="26.2" fill="#008300"/>
<rect x="96.5" y="453.6" width="7.6" height="16.4" fill="#008300"/>
<rect x="110.4" y="420.8" width="7.6" height="49.2" fill="none" stroke="#e34948" stroke-width="1.1"/>
<rect x="124.3" y="460.2" width="7.6" height="9.8" fill="#008300"/>
<rect x="138.2" y="440.5" width="7.6" height="29.5" fill="none" stroke="#e34948" stroke-width="1.1"/>
<rect x="152.1" y="437.2" width="7.6" height="32.8" fill="none" stroke="#e34948" stroke-width="1.1"/>
<rect x="166.0" y="440.5" width="7.6" height="29.5" fill="#008300"/>
<rect x="179.9" y="447.0" width="7.6" height="23.0" fill="#008300"/>
<rect x="193.8" y="453.6" width="7.6" height="16.4" fill="none" stroke="#e34948" stroke-width="1.1"/>
<rect x="207.7" y="450.3" width="7.6" height="19.7" fill="none" stroke="#e34948" stroke-width="1.1"/>
<rect x="221.6" y="443.8" width="7.6" height="26.2" fill="#008300"/>
<rect x="235.5" y="427.4" width="7.6" height="42.6" fill="#008300"/>
<rect x="249.4" y="427.4" width="7.6" height="42.6" fill="#898781"/>
<rect x="263.3" y="450.3" width="7.6" height="19.7" fill="#008300"/>
<rect x="277.2" y="463.4" width="7.6" height="6.6" fill="none" stroke="#e34948" stroke-width="1.1"/>
<rect x="291.1" y="427.4" width="7.6" height="42.6" fill="none" stroke="#e34948" stroke-width="1.1"/>
<rect x="305.0" y="401.1" width="7.6" height="68.9" fill="none" stroke="#e34948" stroke-width="1.1"/>
<rect x="318.9" y="411.0" width="7.6" height="59.0" fill="#008300"/>
<rect x="332.8" y="443.8" width="7.6" height="26.2" fill="#008300"/>
<rect x="346.7" y="460.2" width="7.6" height="9.8" fill="#008300"/>
<rect x="360.6" y="447.0" width="7.6" height="23.0" fill="#008300"/>
<rect x="374.5" y="440.5" width="7.6" height="29.5" fill="none" stroke="#e34948" stroke-width="1.1"/>
<rect x="388.4" y="447.0" width="7.6" height="23.0" fill="none" stroke="#e34948" stroke-width="1.1"/>
<rect x="402.3" y="443.8" width="7.6" height="26.2" fill="none" stroke="#e34948" stroke-width="1.1"/>
<rect x="416.2" y="430.6" width="7.6" height="39.4" fill="#008300"/>
<rect x="430.1" y="440.5" width="7.6" height="29.5" fill="#008300"/>
<rect x="444.0" y="460.2" width="7.6" height="9.8" fill="none" stroke="#e34948" stroke-width="1.1"/>
<rect x="457.9" y="424.1" width="7.6" height="45.9" fill="none" stroke="#e34948" stroke-width="1.1"/>
<rect x="471.8" y="443.8" width="7.6" height="26.2" fill="none" stroke="#e34948" stroke-width="1.1"/>
<rect x="485.7" y="427.4" width="7.6" height="42.6" fill="#008300"/>
<rect x="499.6" y="433.9" width="7.6" height="36.1" fill="#008300"/>
<rect x="513.5" y="433.9" width="7.6" height="36.1" fill="#008300"/>
<rect x="527.4" y="440.5" width="7.6" height="29.5" fill="#008300"/>
<rect x="541.3" y="443.8" width="7.6" height="26.2" fill="#008300"/>
<rect x="555.2" y="437.2" width="7.6" height="32.8" fill="none" stroke="#e34948" stroke-width="1.1"/>
<rect x="569.1" y="443.8" width="7.6" height="26.2" fill="#008300"/>
<rect x="583.0" y="417.5" width="7.6" height="52.5" fill="#008300"/>
<rect x="596.9" y="430.6" width="7.6" height="39.4" fill="none" stroke="#e34948" stroke-width="1.1"/>
<rect x="610.8" y="447.0" width="7.6" height="23.0" fill="none" stroke="#e34948" stroke-width="1.1"/>
<rect x="624.7" y="427.4" width="7.6" height="42.6" fill="none" stroke="#e34948" stroke-width="1.1"/>
<rect x="638.6" y="427.4" width="7.6" height="42.6" fill="#008300"/>
<rect x="652.4" y="447.0" width="7.6" height="23.0" fill="#008300"/>
<rect x="666.3" y="456.9" width="7.6" height="13.1" fill="#008300"/>
<rect x="680.2" y="427.4" width="7.6" height="42.6" fill="none" stroke="#e34948" stroke-width="1.1"/>
<rect x="694.1" y="440.5" width="7.6" height="29.5" fill="#008300"/>
<rect x="708.0" y="430.6" width="7.6" height="39.4" fill="none" stroke="#e34948" stroke-width="1.1"/>
<rect x="721.9" y="397.8" width="7.6" height="72.2" fill="none" stroke="#e34948" stroke-width="1.1"/>
<rect x="735.8" y="388.0" width="7.6" height="82.0" fill="none" stroke="#e34948" stroke-width="1.1"/>
<rect x="749.7" y="427.4" width="7.6" height="42.6" fill="#008300"/>
<rect x="763.6" y="427.4" width="7.6" height="42.6" fill="none" stroke="#e34948" stroke-width="1.1"/>
<rect x="777.5" y="417.5" width="7.6" height="52.5" fill="#008300"/>
<rect x="791.4" y="463.4" width="7.6" height="6.6" fill="#008300"/>
<rect x="805.3" y="443.8" width="7.6" height="26.2" fill="none" stroke="#e34948" stroke-width="1.1"/>
<rect x="819.2" y="463.4" width="7.6" height="6.6" fill="none" stroke="#e34948" stroke-width="1.1"/>
<polyline points="142.0,443.8 155.9,442.4 169.8,442.1 183.7,442.1 197.6,442.4 211.5,444.7 225.4,444.7 239.3,442.1 253.2,442.8 267.1,441.8 281.0,444.1 294.9,443.1 308.8,439.2 322.7,435.6 336.6,434.6 350.5,435.6 364.4,435.9 378.3,437.2 392.2,439.2 406.1,438.5 420.0,435.2 433.9,436.5 447.8,442.4 461.7,443.8 475.6,443.8 489.5,440.5 503.4,439.2 517.3,438.5 531.2,437.9 545.1,437.9 559.0,438.5 572.9,438.8 586.8,434.6 600.7,435.2 614.6,435.6 628.5,435.6 642.4,434.9 656.3,436.2 670.2,437.9 684.1,436.2 698.0,436.5 711.9,435.2 725.8,433.3 739.7,429.0 753.6,427.0 767.5,427.0 781.4,426.0 795.3,427.7 809.2,426.4 823.1,430.0" fill="none" stroke="#2a78d6" stroke-width="1.5" stroke-linejoin="round" stroke-linecap="round"/>
<polyline points="72.5,443.8 86.4,442.4 100.3,444.4 114.2,439.2 128.1,441.1 142.0,443.8 155.9,442.4 169.8,439.8 183.7,445.1 197.6,443.8 211.5,445.7 225.4,447.0 239.3,444.4 253.2,440.5 267.1,439.8 281.0,442.4 294.9,439.2 308.8,433.9 322.7,430.6 336.6,429.3 350.5,428.7 364.4,432.6 378.3,440.5 392.2,447.7 406.1,447.7 420.0,441.8 433.9,440.5 447.8,444.4 461.7,439.8 475.6,439.8 489.5,439.2 503.4,437.9 517.3,432.6 531.2,435.9 545.1,435.9 559.0,437.9 572.9,439.8 586.8,436.5 600.7,434.6 614.6,435.2 628.5,433.3 642.4,430.0 656.3,435.9 670.2,441.1 684.1,437.2 698.0,439.8 711.9,440.5 725.8,430.6 739.7,416.9 753.6,416.9 767.5,414.2 781.4,411.6 795.3,424.7 809.2,435.9 823.1,443.1" fill="none" stroke="#eda100" stroke-width="1.5" stroke-linejoin="round" stroke-linecap="round"/>
</svg>