<svg xmlns="http://www.w3.org/2000/svg" viewBox="0 0 840 496" width="840" height="496" font-family="-apple-system,&#39;Segoe UI&#39;,system-ui,sans-serif" role="img" aria-label="nilbuild/developer-roadmap candlestick chart">
<text x="14.0" y="20.0" font-size="15" fill="#ffffff" font-weight="650">nilbuild/developer-roadmap</text>
<text x="232.5" y="20.0" font-size="11.5" fill="#c3c2b7">daily · new stars, volume = new forks</text>
<text x="805.8" y="20.0" font-size="11.0" fill="#c3c2b7">fall</text>
<rect x="791" y="10" width="9" height="12" fill="#008300"/>
<text x="750.6" y="20.0" font-size="11.0" fill="#c3c2b7">rise</text>
<rect x="736" y="10" width="9" height="12" fill="none" stroke="#e66767" stroke-width="1.5"/>
<text x="14.0" y="38.0" font-size="11.0" fill="#898781">last 60 days · +7,633 stars · +705 forks · updated 2026-07-23</text>
<rect x="10" y="66" width="820" height="290" fill="none" stroke="#2c2c2a"/>
<rect x="10" y="384" width="820" height="86" fill="none" stroke="#2c2c2a"/>
<text x="38.0" y="490.0" font-size="11.0" fill="#898781" text-anchor="middle">2026-05</text>
<line x1="105.7" y1="66.0" x2="105.7" y2="356.0" stroke="#2c2c2a" stroke-width="1.0"/>
<line x1="105.7" y1="384.0" x2="105.7" y2="470.0" stroke="#2c2c2a" stroke-width="1.0"/>
<text x="112.5" y="490.0" font-size="11.0" fill="#898781" text-anchor="middle">2026-06</text>
<line x1="515.7" y1="66.0" x2="515.7" y2="356.0" stroke="#2c2c2a" stroke-width="1.0"/>
<line x1="515.7" y1="384.0" x2="515.7" y2="470.0" stroke="#2c2c2a" stroke-width="1.0"/>
<text x="522.5" y="490.0" font-size="11.0" fill="#898781" text-anchor="middle">2026-07</text>
<text x="14.0" y="58.0" font-size="11.0" fill="#c3c2b7">BOLL(20,2)</text>
<text x="84.5" y="58.0" font-size="11.0" fill="#c98500">UP:295.4</text>
<text x="142.9" y="58.0" font-size="11.0" fill="#3987e5">MID:160.1</text>
<text x="207.4" y="58.0" font-size="11.0" fill="#d55181">LOW:24.8</text>
<text x="265.8" y="58.0" font-size="11.0" fill="#9085e9">MA7:165.9</text>
<line x1="10.0" y1="356.0" x2="830.0" y2="356.0" stroke="#2c2c2a" stroke-width="1.0"/>
<text x="14.0" y="353.0" font-size="11.0" fill="#898781">0</text>
<line x1="10.0" y1="268.3" x2="830.0" y2="268.3" stroke="#2c2c2a" stroke-width="1.0"/>
<text x="14.0" y="265.3" font-size="11.0" fill="#898781">100</text>
<line x1="10.0" y1="180.6" x2="830.0" y2="180.6" stroke="#2c2c2a" stroke-width="1.0"/>
<text x="14.0" y="177.6" font-size="11.0" fill="#898781">200</text>
<line x1="10.0" y1="93.0" x2="830.0" y2="93.0" stroke="#2c2c2a" stroke-width="1.0"/>
<text x="14.0" y="90.0" font-size="11.0" fill="#898781">300</text>
<polyline points="98.8,271.0 112.5,269.9 126.2,237.9 139.8,231.0 153.5,229.4 167.2,229.2 180.8,229.5 194.5,229.3 208.2,229.0 221.8,228.2 235.5,228.2 249.2,228.3 262.8,228.2 276.5,224.6 290.2,200.9 303.8,188.4 317.5,184.9 331.2,184.8 344.8,184.9 358.5,185.6 372.2,185.4 385.8,185.4 399.5,194.7 413.2,197.1 426.8,197.1 440.5,195.9 454.2,195.3 467.8,195.4 481.5,195.3 495.2,195.3 508.8,195.4 522.5,195.0 536.2,189.5 549.8,181.8 563.5,196.6 577.2,205.7 590.8,206.5 604.5,200.4 618.2,199.1 631.8,198.9 645.5,155.5 659.2,121.1 672.8,119.0 686.5,116.5 700.2,115.9 713.8,113.0 727.5,110.5 741.2,110.6 754.8,110.8 768.5,108.6 782.2,97.2 795.8,96.7 809.5,94.8 823.2,97.0" fill="none" stroke="#c98500" stroke-width="1.5" stroke-linejoin="round" stroke-linecap="round"/>
<polyline points="98.8,285.5 112.5,285.2 126.2,280.6 139.8,277.4 153.5,275.7 167.2,275.6 180.8,276.3 194.5,275.9 208.2,275.5 221.8,274.1 235.5,273.4 249.2,274.3 262.8,273.9 276.5,271.4 290.2,265.5 303.8,261.0 317.5,258.4 331.2,257.3 344.8,256.4 358.5,255.5 372.2,253.8 385.8,253.7 399.5,257.9 413.2,259.4 426.8,259.5 440.5,258.3 454.2,256.2 467.8,255.7 481.5,255.9 495.2,255.8 508.8,255.3 522.5,252.5 536.2,248.9 549.8,246.3 563.5,250.1 577.2,252.1 590.8,252.4 604.5,255.3 618.2,256.7 631.8,257.0 645.5,248.8 659.2,239.3 672.8,236.1 686.5,233.5 700.2,232.2 713.8,229.9 727.5,227.6 741.2,227.4 754.8,225.8 768.5,222.6 782.2,215.8 795.8,214.8 809.5,213.7 823.2,215.6" fill="none" stroke="#3987e5" stroke-width="1.5" stroke-linejoin="round" stroke-linecap="round"/>
<polyline points="98.8,300.1 112.5,300.6 126.2,323.3 139.8,323.8 153.5,322.0 167.2,322.0 180.8,323.1 194.5,322.4 208.2,321.9 221.8,319.9 235.5,318.5 249.2,320.4 262.8,319.7 276.5,318.2 290.2,330.1 303.8,333.7 317.5,331.9 331.2,329.7 344.8,328.0 358.5,325.4 372.2,322.2 385.8,322.1 399.5,321.2 413.2,321.7 426.8,321.8 440.5,320.7 454.2,317.1 467.8,316.1 481.5,316.4 495.2,316.3 508.8,315.2 522.5,310.0 536.2,308.3 549.8,310.8 563.5,303.6 577.2,298.6 590.8,298.4 604.5,310.2 618.2,314.3 631.8,315.0 645.5,342.1 659.2,356.0 672.8,353.3 686.5,350.5 700.2,348.4 713.8,346.7 727.5,344.8 741.2,344.3 754.8,340.7 768.5,336.6 782.2,334.3 795.8,332.9 809.5,332.5 823.2,334.2" fill="none" stroke="#d55181" stroke-width="1.5" stroke-linejoin="round" stroke-linecap="round"/>
<polyline points="16.8,287.0 30.5,286.2 44.2,284.4 57.8,283.5 71.5,285.0 85.2,286.2 98.8,285.3 112.5,283.3 126.2,271.5 139.8,264.8 153.5,261.2 167.2,258.8 180.8,257.9 194.5,256.7 208.2,257.0 221.8,267.4 235.5,273.6 249.2,278.5 262.8,279.8 276.5,273.2 290.2,257.4 303.8,245.0 317.5,239.5 331.2,237.5 344.8,233.9 358.5,233.5 372.2,234.9 385.8,249.6 399.5,262.5 413.2,267.7 426.8,267.4 440.5,264.2 454.2,260.1 467.8,262.3 481.5,263.1 495.2,261.2 508.8,261.9 522.5,258.6 536.2,252.9 549.8,244.9 563.5,241.2 577.2,234.4 590.8,229.8 604.5,237.5 618.2,245.9 631.8,256.6 645.5,242.0 659.2,218.7 672.8,216.9 686.5,213.7 700.2,201.3 713.8,187.6 727.5,176.3 741.2,201.2 754.8,224.6 768.5,222.5 782.2,211.2 795.8,209.0 809.5,206.6 823.2,210.5" fill="none" stroke="#9085e9" stroke-width="1.5" stroke-linejoin="round" stroke-linecap="round"/>
<rect x="13.1" y="285.9" width="7.5" height="7.0" fill="none" stroke="#e66767" stroke-width="1.3"/>
<rect x="26.7" y="277.1" width="7.5" height="8.8" fill="none" stroke="#e66767" stroke-width="1.3"/>
<rect x="40.4" y="277.1" width="7.5" height="3.5" fill="#008300"/>
<rect x="54.1" y="280.6" width="7.5" height="5.3" fill="#008300"/>
<rect x="67.7" y="285.9" width="7.5" height="1.2" fill="#898781"/>
<rect x="81.4" y="285.9" width="7.5" height="9.6" fill="#008300"/>
<rect x="95.1" y="286.7" width="7.5" height="8.8" fill="none" stroke="#e66767" stroke-width="1.3"/>
<rect x="108.7" y="271.8" width="7.5" height="14.9" fill="none" stroke="#e66767" stroke-width="1.3"/>
<rect x="122.4" y="193.8" width="7.5" height="78.0" fill="none" stroke="#e66767" stroke-width="1.3"/>
<rect x="136.1" y="193.8" width="7.5" height="40.3" fill="#008300"/>
<rect x="149.7" y="234.1" width="7.5" height="26.3" fill="#008300"/>
<rect x="163.4" y="260.4" width="7.5" height="8.8" fill="#008300"/>
<rect x="177.1" y="269.2" width="7.5" height="20.2" fill="#008300"/>
<rect x="190.7" y="278.0" width="7.5" height="11.4" fill="none" stroke="#e66767" stroke-width="1.3"/>
<rect x="204.4" y="274.5" width="7.5" height="3.5" fill="none" stroke="#e66767" stroke-width="1.3"/>
<rect x="218.1" y="265.7" width="7.5" height="8.8" fill="none" stroke="#e66767" stroke-width="1.3"/>
<rect x="231.7" y="265.7" width="7.5" height="12.3" fill="#008300"/>
<rect x="245.4" y="278.0" width="7.5" height="16.7" fill="#008300"/>
<rect x="259.1" y="278.8" width="7.5" height="15.8" fill="none" stroke="#e66767" stroke-width="1.3"/>
<rect x="272.7" y="242.9" width="7.5" height="35.9" fill="none" stroke="#e66767" stroke-width="1.3"/>
<rect x="286.4" y="167.5" width="7.5" height="75.4" fill="none" stroke="#e66767" stroke-width="1.3"/>
<rect x="300.1" y="167.5" width="7.5" height="20.2" fill="#008300"/>
<rect x="313.7" y="187.7" width="7.5" height="39.5" fill="#008300"/>
<rect x="327.4" y="227.1" width="7.5" height="36.8" fill="#008300"/>
<rect x="341.1" y="263.9" width="7.5" height="5.3" fill="#008300"/>
<rect x="354.7" y="269.2" width="7.5" height="7.0" fill="#008300"/>
<rect x="368.4" y="252.5" width="7.5" height="23.7" fill="none" stroke="#e66767" stroke-width="1.3"/>
<rect x="382.1" y="252.5" width="7.5" height="18.4" fill="#008300"/>
<rect x="395.7" y="271.0" width="7.5" height="7.0" fill="#008300"/>
<rect x="409.4" y="263.1" width="7.5" height="14.9" fill="none" stroke="#e66767" stroke-width="1.3"/>
<rect x="423.1" y="262.2" width="7.5" height="1.2" fill="none" stroke="#e66767" stroke-width="1.3"/>
<rect x="436.7" y="246.4" width="7.5" height="15.8" fill="none" stroke="#e66767" stroke-width="1.3"/>
<rect x="450.4" y="246.4" width="7.5" height="1.2" fill="#008300"/>
<rect x="464.1" y="247.3" width="7.5" height="21.0" fill="#008300"/>
<rect x="477.7" y="268.3" width="7.5" height="8.8" fill="#008300"/>
<rect x="491.4" y="263.9" width="7.5" height="13.2" fill="none" stroke="#e66767" stroke-width="1.3"/>
<rect x="505.1" y="263.9" width="7.5" height="4.4" fill="#008300"/>
<rect x="518.7" y="238.5" width="7.5" height="29.8" fill="none" stroke="#e66767" stroke-width="1.3"/>
<rect x="532.4" y="206.9" width="7.5" height="31.6" fill="none" stroke="#e66767" stroke-width="1.3"/>
<rect x="546.1" y="191.2" width="7.5" height="15.8" fill="none" stroke="#e66767" stroke-width="1.3"/>
<rect x="559.7" y="191.2" width="7.5" height="51.7" fill="#008300"/>
<rect x="573.4" y="228.9" width="7.5" height="14.0" fill="none" stroke="#e66767" stroke-width="1.3"/>
<rect x="587.1" y="228.9" width="7.5" height="3.5" fill="#008300"/>
<rect x="600.7" y="232.4" width="7.5" height="89.4" fill="#008300"/>
<rect x="614.4" y="297.3" width="7.5" height="24.6" fill="none" stroke="#e66767" stroke-width="1.3"/>
<rect x="628.1" y="281.5" width="7.5" height="15.8" fill="none" stroke="#e66767" stroke-width="1.3"/>
<rect x="641.7" y="89.5" width="7.5" height="192.0" fill="none" stroke="#e66767" stroke-width="1.3"/>
<rect x="655.4" y="79.8" width="7.5" height="9.6" fill="none" stroke="#e66767" stroke-width="1.3"/>
<rect x="669.1" y="79.8" width="7.5" height="135.9" fill="#008300"/>
<rect x="682.7" y="210.5" width="7.5" height="5.3" fill="none" stroke="#e66767" stroke-width="1.3"/>
<rect x="696.4" y="210.5" width="7.5" height="24.6" fill="#008300"/>
<rect x="710.1" y="200.8" width="7.5" height="34.2" fill="none" stroke="#e66767" stroke-width="1.3"/>
<rect x="723.7" y="200.8" width="7.5" height="1.8" fill="#008300"/>
<rect x="737.4" y="202.6" width="7.5" height="61.4" fill="#008300"/>
<rect x="751.1" y="243.8" width="7.5" height="20.2" fill="none" stroke="#e66767" stroke-width="1.3"/>
<rect x="764.7" y="200.8" width="7.5" height="43.0" fill="none" stroke="#e66767" stroke-width="1.3"/>
<rect x="778.4" y="131.5" width="7.5" height="69.3" fill="none" stroke="#e66767" stroke-width="1.3"/>
<rect x="792.1" y="131.5" width="7.5" height="88.6" fill="#008300"/>
<rect x="805.7" y="183.3" width="7.5" height="36.8" fill="none" stroke="#e66767" stroke-width="1.3"/>
<rect x="819.4" y="183.3" width="7.5" height="47.3" fill="#008300"/>
<circle cx="659.2" cy="79.8" r="2" fill="#c3c2b7"/>
<line x1="659.2" y1="79.8" x2="651.2" y2="79.8" stroke="#c3c2b7" stroke-width="1.0"/>
<text x="648.2" y="83.8" font-size="11.0" fill="#c3c2b7" text-anchor="end">315</text>
<circle cx="604.5" cy="321.8" r="2" fill="#c3c2b7"/>
<line x1="604.5" y1="321.8" x2="596.5" y2="321.8" stroke="#c3c2b7" stroke-width="1.0"/>
<text x="593.5" y="325.8" font-size="11.0" fill="#c3c2b7" text-anchor="end">39</text>
<text x="14.0" y="376.0" font-size="11.0" fill="#c3c2b7">VOL 10 forks</text>
<text x="96.6" y="376.0" font-size="11.0" fill="#c98500">MA5:14.4</text>
<text x="155.0" y="376.0" font-size="11.0" fill="#3987e5">MA10:13.3</text>
<text x="14.0" y="395.0" font-size="10" fill="#898781">41</text>
<rect x="13.1" y="460.0" width="7.5" height="10.0" fill="none" stroke="#e66767" stroke-width="1.1"/>
<rect x="26.7" y="458.0" width="7.5" height="12.0" fill="none" stroke="#e66767" stroke-width="1.1"/>
<rect x="40.4" y="454.0" width="7.5" height="16.0" fill="#008300"/>
<rect x="54.1" y="444.0" width="7.5" height="26.0" fill="#008300"/>
<rect x="67.7" y="444.0" width="7.5" height="26.0" fill="#898781"/>
<rect x="81.4" y="458.0" width="7.5" height="12.0" fill="#008300"/>
<rect x="95.1" y="466.0" width="7.5" height="4.0" fill="none" stroke="#e66767" stroke-width="1.1"/>
<rect x="108.7" y="444.0" width="7.5" height="26.0" fill="none" stroke="#e66767" stroke-width="1.1"/>
<rect x="122.4" y="428.0" width="7.5" height="42.0" fill="none" stroke="#e66767" stroke-width="1.1"/>
<rect x="136.1" y="434.0" width="7.5" height="36.0" fill="#008300"/>
<rect x="149.7" y="454.0" width="7.5" height="16.0" fill="#008300"/>
<rect x="163.4" y="464.0" width="7.5" height="6.0" fill="#008300"/>
<rect x="177.1" y="456.0" width="7.5" height="14.0" fill="#008300"/>
<rect x="190.7" y="452.0" width="7.5" height="18.0" fill="none" stroke="#e66767" stroke-width="1.1"/>
<rect x="204.4" y="456.0" width="7.5" height="14.0" fill="none" stroke="#e66767" stroke-width="1.1"/>
<rect x="218.1" y="454.0" width="7.5" height="16.0" fill="none" stroke="#e66767" stroke-width="1.1"/>
<rect x="231.7" y="446.0" width="7.5" height="24.0" fill="#008300"/>
<rect x="245.4" y="452.0" width="7.5" height="18.0" fill="#008300"/>
<rect x="259.1" y="464.0" width="7.5" height="6.0" fill="none" stroke="#e66767" stroke-width="1.1"/>
<rect x="272.7" y="442.0" width="7.5" height="28.0" fill="none" stroke="#e66767" stroke-width="1.1"/>
<rect x="286.4" y="454.0" width="7.5" height="16.0" fill="none" stroke="#e66767" stroke-width="1.1"/>
<rect x="300.1" y="444.0" width="7.5" height="26.0" fill="#008300"/>
<rect x="313.7" y="448.0" width="7.5" height="22.0" fill="#008300"/>
<rect x="327.4" y="448.0" width="7.5" height="22.0" fill="#008300"/>
<rect x="341.1" y="452.0" width="7.5" height="18.0" fill="#008300"/>
<rect x="354.7" y="454.0" width="7.5" height="16.0" fill="#008300"/>
<rect x="368.4" y="450.0" width="7.5" height="20.0" fill="none" stroke="#e66767" stroke-width="1.1"/>
<rect x="382.1" y="454.0" width="7.5" height="16.0" fill="#008300"/>
<rect x="395.7" y="438.0" width="7.5" height="32.0" fill="#008300"/>
<rect x="409.4" y="446.0" width="7.5" height="24.0" fill="none" stroke="#e66767" stroke-width="1.1"/>
<rect x="423.1" y="456.0" width="7.5" height="14.0" fill="none" stroke="#e66767" stroke-width="1.1"/>
<rect x="436.7" y="444.0" width="7.5" height="26.0" fill="none" stroke="#e66767" stroke-width="1.1"/>
<rect x="450.4" y="444.0" width="7.5" height="26.0" fill="#008300"/>
<rect x="464.1" y="456.0" width="7.5" height="14.0" fill="#008300"/>
<rect x="477.7" y="462.0" width="7.5" height="8.0" fill="#008300"/>
<rect x="491.4" y="444.0" width="7.5" height="26.0" fill="none" stroke="#e66767" stroke-width="1.1"/>
<rect x="505.1" y="452.0" width="7.5" height="18.0" fill="#008300"/>
<rect x="518.7" y="446.0" width="7.5" height="24.0" fill="none" stroke="#e66767" stroke-width="1.1"/>
<rect x="532.4" y="426.0" width="7.5" height="44.0" fill="none" stroke="#e66767" stroke-width="1.1"/>
<rect x="546.1" y="420.0" width="7.5" height="50.0" fill="none" stroke="#e66767" stroke-width="1.1"/>
<rect x="559.7" y="444.0" width="7.5" height="26.0" fill="#008300"/>
<rect x="573.4" y="444.0" width="7.5" height="26.0" fill="none" stroke="#e66767" stroke-width="1.1"/>
<rect x="587.1" y="438.0" width="7.5" height="32.0" fill="#008300"/>
<rect x="600.7" y="466.0" width="7.5" height="4.0" fill="#008300"/>
<rect x="614.4" y="454.0" width="7.5" height="16.0" fill="none" stroke="#e66767" stroke-width="1.1"/>
<rect x="628.1" y="466.0" width="7.5" height="4.0" fill="none" stroke="#e66767" stroke-width="1.1"/>
<rect x="641.7" y="426.0" width="7.5" height="44.0" fill="none" stroke="#e66767" stroke-width="1.1"/>
<rect x="655.4" y="388.0" width="7.5" height="82.0" fill="none" stroke="#e66767" stroke-width="1.1"/>
<rect x="669.1" y="442.0" width="7.5" height="28.0" fill="#008300"/>
<rect x="682.7" y="420.0" width="7.5" height="50.0" fill="none" stroke="#e66767" stroke-width="1.1"/>
<rect x="696.4" y="434.0" width="7.5" height="36.0" fill="#008300"/>
<rect x="710.1" y="444.0" width="7.5" height="26.0" fill="none" stroke="#e66767" stroke-width="1.1"/>
<rect x="723.7" y="434.0" width="7.5" height="36.0" fill="#008300"/>
<rect x="737.4" y="456.0" width="7.5" height="14.0" fill="#008300"/>
<rect x="751.1" y="460.0" width="7.5" height="10.0" fill="none" stroke="#e66767" stroke-width="1.1"/>
<rect x="764.7" y="448.0" width="7.5" height="22.0" fill="none" stroke="#e66767" stroke-width="1.1"/>
<rect x="778.4" y="420.0" width="7.5" height="50.0" fill="none" stroke="#e66767" stroke-width="1.1"/>
<rect x="792.1" y="450.0" width="7.5" height="20.0" fill="#008300"/>
<rect x="805.7" y="438.0" width="7.5" height="32.0" fill="none" stroke="#e66767" stroke-width="1.1"/>
<rect x="819.4" y="450.0" width="7.5" height="20.0" fill="#008300"/>
<polyline points="16.8,453.2 30.5,454.6 44.2,454.6 57.8,453.0 71.5,453.4 85.2,452.8 98.8,454.2 112.5,453.6 126.2,451.2 139.8,449.0 153.5,448.4 167.2,449.0 180.8,449.2 194.5,450.0 208.2,451.2 221.8,450.8 235.5,448.8 249.2,449.6 262.8,453.2 276.5,454.0 290.2,454.0 303.8,452.0 317.5,451.2 331.2,450.8 344.8,450.4 358.5,450.4 372.2,450.8 385.8,451.0 399.5,448.4 413.2,448.8 426.8,449.0 440.5,449.0 454.2,448.6 467.8,449.4 481.5,450.4 495.2,449.4 508.8,449.6 522.5,448.8 536.2,447.6 549.8,445.0 563.5,443.8 577.2,443.8 590.8,443.2 604.5,444.2 618.2,443.4 631.8,445.6 645.5,443.0 659.2,437.2 672.8,438.8 686.5,438.8 700.2,437.8 713.8,437.8 727.5,437.4 741.2,436.4 754.8,437.0 768.5,435.2 782.2,434.6 795.8,440.8 809.5,440.4 823.2,443.4" fill="none" stroke="#3987e5" stroke-width="1.5" stroke-linejoin="round" stroke-linecap="round"/>
<polyline points="16.8,454.0 30.5,455.2 44.2,456.0 57.8,454.4 71.5,452.0 85.2,451.6 98.8,453.2 112.5,451.2 126.2,448.0 139.8,446.0 153.5,445.2 167.2,444.8 180.8,447.2 194.5,452.0 208.2,456.4 221.8,456.4 235.5,452.8 249.2,452.0 262.8,454.4 276.5,451.6 290.2,451.6 303.8,451.2 317.5,450.4 331.2,447.2 344.8,449.2 358.5,449.2 372.2,450.4 385.8,451.6 399.5,449.6 413.2,448.4 426.8,448.8 440.5,447.6 454.2,445.6 467.8,449.2 481.5,452.4 495.2,450.0 508.8,451.6 522.5,452.0 536.2,446.0 549.8,437.6 563.5,437.6 577.2,436.0 590.8,434.4 604.5,442.4 618.2,449.2 631.8,453.6 645.5,450.0 659.2,440.0 672.8,435.2 686.5,428.4 700.2,422.0 713.8,425.6 727.5,434.8 741.2,437.6 754.8,445.6 768.5,448.4 782.2,443.6 795.8,446.8 809.5,443.2 823.2,441.2" fill="none" stroke="#c98500" stroke-width="1.5" stroke-linejoin="round" stroke-linecap="round"/>
</svg>