<svg xmlns="http://www.w3.org/2000/svg" viewBox="0 0 840 496" width="840" height="496" font-family="-apple-system,&#39;Segoe UI&#39;,system-ui,sans-serif" role="img" aria-label="nilbuild/developer-roadmap candlestick chart">
<text x="14.0" y="20.0" font-size="15" fill="#ffffff" font-weight="650">nilbuild/developer-roadmap</text>
<text x="232.5" y="20.0" font-size="11.5" fill="#c3c2b7">daily · commits, volume = lines changed</text>
<text x="805.8" y="20.0" font-size="11.0" fill="#c3c2b7">fall</text>
<rect x="791" y="10" width="9" height="12" fill="#008300"/>
<text x="750.6" y="20.0" font-size="11.0" fill="#c3c2b7">rise</text>
<rect x="736" y="10" width="9" height="12" fill="none" stroke="#e66767" stroke-width="1.5"/>
<text x="14.0" y="38.0" font-size="11.0" fill="#898781">last 60 active days · 231 commits · 31,624 lines changed · updated 2026-07-07</text>
<rect x="10" y="66" width="820" height="290" fill="none" stroke="#2c2c2a"/>
<rect x="10" y="384" width="820" height="86" fill="none" stroke="#2c2c2a"/>
<text x="38.0" y="490.0" font-size="11.0" fill="#898781" text-anchor="middle">2026-03</text>
<line x1="146.7" y1="66.0" x2="146.7" y2="356.0" stroke="#2c2c2a" stroke-width="1.0"/>
<line x1="146.7" y1="384.0" x2="146.7" y2="470.0" stroke="#2c2c2a" stroke-width="1.0"/>
<text x="153.5" y="490.0" font-size="11.0" fill="#898781" text-anchor="middle">2026-04</text>
<line x1="365.3" y1="66.0" x2="365.3" y2="356.0" stroke="#2c2c2a" stroke-width="1.0"/>
<line x1="365.3" y1="384.0" x2="365.3" y2="470.0" stroke="#2c2c2a" stroke-width="1.0"/>
<text x="372.2" y="490.0" font-size="11.0" fill="#898781" text-anchor="middle">2026-05</text>
<line x1="584.0" y1="66.0" x2="584.0" y2="356.0" stroke="#2c2c2a" stroke-width="1.0"/>
<line x1="584.0" y1="384.0" x2="584.0" y2="470.0" stroke="#2c2c2a" stroke-width="1.0"/>
<text x="590.8" y="490.0" font-size="11.0" fill="#898781" text-anchor="middle">2026-06</text>
<line x1="816.3" y1="66.0" x2="816.3" y2="356.0" stroke="#2c2c2a" stroke-width="1.0"/>
<line x1="816.3" y1="384.0" x2="816.3" y2="470.0" stroke="#2c2c2a" stroke-width="1.0"/>
<text x="802.0" y="490.0" font-size="11.0" fill="#898781" text-anchor="middle">2026-07</text>
<text x="14.0" y="58.0" font-size="11.0" fill="#c3c2b7">BOLL(20,2)</text>
<text x="84.5" y="58.0" font-size="11.0" fill="#c98500">UP:9.4</text>
<text x="130.8" y="58.0" font-size="11.0" fill="#3987e5">MID:3.5</text>
<text x="183.2" y="58.0" font-size="11.0" fill="#d55181">LOW:0</text>
<text x="223.4" y="58.0" font-size="11.0" fill="#9085e9">MA7:4.1</text>
<line x1="10.0" y1="356.0" x2="830.0" y2="356.0" stroke="#2c2c2a" stroke-width="1.0"/>
<text x="14.0" y="353.0" font-size="11.0" fill="#898781">0</text>
<line x1="10.0" y1="224.5" x2="830.0" y2="224.5" stroke="#2c2c2a" stroke-width="1.0"/>
<text x="14.0" y="221.5" font-size="11.0" fill="#898781">20</text>
<line x1="10.0" y1="93.0" x2="830.0" y2="93.0" stroke="#2c2c2a" stroke-width="1.0"/>
<text x="14.0" y="90.0" font-size="11.0" fill="#898781">40</text>
<polyline points="16.8,291.2 30.5,291.4 44.2,291.6 57.8,291.4 71.5,291.4 85.2,291.6 98.8,291.4 112.5,291.4 126.2,276.5 139.8,280.1 153.5,282.0 167.2,289.5 180.8,289.9 194.5,289.9 208.2,290.2 221.8,295.8 235.5,295.8 249.2,296.4 262.8,296.4 276.5,298.7 290.2,295.3 303.8,295.3 317.5,295.5 331.2,295.5 344.8,292.5 358.5,292.1 372.2,292.7 385.8,288.8 399.5,309.7 413.2,309.9 426.8,309.9 440.5,309.9 454.2,310.4 467.8,209.2 481.5,207.3 495.2,206.7 508.8,206.7 522.5,206.5 536.2,206.5 549.8,206.5 563.5,207.9 577.2,207.8 590.8,207.3 604.5,207.3 618.2,208.8 631.8,209.2 645.5,206.6 659.2,208.7 672.8,208.4 686.5,208.6 700.2,208.4 713.8,205.7 727.5,205.7 741.2,300.5 754.8,305.4 768.5,304.4 782.2,304.4 795.8,304.6 809.5,304.5 823.2,294.4" fill="none" stroke="#c98500" stroke-width="1.5" stroke-linejoin="round" stroke-linecap="round"/>
<polyline points="16.8,331.3 30.5,331.0 44.2,330.4 57.8,331.0 71.5,331.0 85.2,330.4 98.8,330.0 112.5,330.0 126.2,325.4 139.8,327.4 153.5,329.0 167.2,332.3 180.8,332.7 194.5,332.7 208.2,333.0 221.8,335.3 235.5,335.0 249.2,335.9 262.8,335.9 276.5,337.6 290.2,335.6 303.8,335.9 317.5,336.3 331.2,335.9 344.8,334.0 358.5,333.6 372.2,334.3 385.8,332.3 399.5,336.9 413.2,337.3 426.8,337.3 440.5,337.3 454.2,337.6 467.8,324.8 481.5,323.1 495.2,322.1 508.8,322.5 522.5,321.8 536.2,322.1 549.8,321.8 563.5,323.4 577.2,323.1 590.8,322.1 604.5,322.5 618.2,324.1 631.8,325.1 645.5,322.8 659.2,325.1 672.8,324.4 686.5,324.8 700.2,324.4 713.8,321.8 727.5,321.8 741.2,334.3 754.8,336.3 768.5,335.9 782.2,335.9 795.8,336.3 809.5,335.6 823.2,332.7" fill="none" stroke="#3987e5" stroke-width="1.5" stroke-linejoin="round" stroke-linecap="round"/>
<polyline points="16.8,356.0 30.5,356.0 44.2,356.0 57.8,356.0 71.5,356.0 85.2,356.0 98.8,356.0 112.5,356.0 126.2,356.0 139.8,356.0 153.5,356.0 167.2,356.0 180.8,356.0 194.5,356.0 208.2,356.0 221.8,356.0 235.5,356.0 249.2,356.0 262.8,356.0 276.5,356.0 290.2,356.0 303.8,356.0 317.5,356.0 331.2,356.0 344.8,356.0 358.5,356.0 372.2,356.0 385.8,356.0 399.5,356.0 413.2,356.0 426.8,356.0 440.5,356.0 454.2,356.0 467.8,356.0 481.5,356.0 495.2,356.0 508.8,356.0 522.5,356.0 536.2,356.0 549.8,356.0 563.5,356.0 577.2,356.0 590.8,356.0 604.5,356.0 618.2,356.0 631.8,356.0 645.5,356.0 659.2,356.0 672.8,356.0 686.5,356.0 700.2,356.0 713.8,356.0 727.5,356.0 741.2,356.0 754.8,356.0 768.5,356.0 782.2,356.0 795.8,356.0 809.5,356.0 823.2,356.0" fill="none" stroke="#d55181" stroke-width="1.5" stroke-linejoin="round" stroke-linecap="round"/>
<polyline points="16.8,330.4 30.5,332.3 44.2,338.2 57.8,338.2 71.5,340.9 85.2,340.2 98.8,342.2 112.5,340.9 126.2,329.0 139.8,329.0 153.5,327.7 167.2,327.7 180.8,327.1 194.5,327.7 208.2,327.1 221.8,338.9 235.5,340.2 249.2,340.9 262.8,340.2 276.5,342.8 290.2,338.9 303.8,340.9 317.5,340.9 331.2,340.9 344.8,335.6 358.5,333.6 372.2,332.3 385.8,331.7 399.5,331.7 413.2,331.7 426.8,331.7 440.5,336.9 454.2,338.2 467.8,300.8 481.5,300.8 495.2,296.8 508.8,297.5 522.5,296.8 536.2,296.8 549.8,297.5 563.5,335.6 577.2,340.9 590.8,340.9 604.5,340.9 618.2,342.2 631.8,342.2 645.5,335.6 659.2,336.3 672.8,335.6 686.5,338.9 700.2,336.9 713.8,330.4 727.5,329.0 741.2,333.6 754.8,332.3 768.5,329.7 782.2,329.7 795.8,330.4 809.5,336.3 823.2,329.0" fill="none" stroke="#9085e9" stroke-width="1.5" stroke-linejoin="round" stroke-linecap="round"/>
<rect x="13.1" y="316.5" width="7.5" height="32.9" fill="#008300"/>
<rect x="26.7" y="342.8" width="7.5" height="6.6" fill="none" stroke="#e66767" stroke-width="1.3"/>
<rect x="40.4" y="336.3" width="7.5" height="6.6" fill="none" stroke="#e66767" stroke-width="1.3"/>
<rect x="54.1" y="336.3" width="7.5" height="13.2" fill="#008300"/>
<rect x="67.7" y="349.4" width="7.5" height="6.6" fill="none" stroke="#e66767" stroke-width="1.3"/>
<rect x="81.4" y="336.3" width="7.5" height="13.2" fill="none" stroke="#e66767" stroke-width="1.3"/>
<rect x="95.1" y="329.7" width="7.5" height="6.6" fill="none" stroke="#e66767" stroke-width="1.3"/>
<rect x="108.7" y="329.7" width="7.5" height="13.2" fill="#008300"/>
<rect x="122.4" y="257.4" width="7.5" height="98.6" fill="none" stroke="#e66767" stroke-width="1.3"/>
<rect x="136.1" y="257.4" width="7.5" height="78.9" fill="#008300"/>
<rect x="149.7" y="336.3" width="7.5" height="6.6" fill="#008300"/>
<rect x="163.4" y="349.4" width="7.5" height="6.6" fill="none" stroke="#e66767" stroke-width="1.3"/>
<rect x="177.1" y="329.7" width="7.5" height="26.3" fill="none" stroke="#e66767" stroke-width="1.3"/>
<rect x="190.7" y="329.7" width="7.5" height="6.6" fill="#008300"/>
<rect x="204.4" y="336.3" width="7.5" height="1.2" fill="#898781"/>
<rect x="218.1" y="336.3" width="7.5" height="6.6" fill="#008300"/>
<rect x="231.7" y="342.8" width="7.5" height="1.2" fill="#898781"/>
<rect x="245.4" y="349.4" width="7.5" height="6.6" fill="none" stroke="#e66767" stroke-width="1.3"/>
<rect x="259.1" y="342.8" width="7.5" height="6.6" fill="none" stroke="#e66767" stroke-width="1.3"/>
<rect x="272.7" y="349.4" width="7.5" height="6.6" fill="none" stroke="#e66767" stroke-width="1.3"/>
<rect x="286.4" y="310.0" width="7.5" height="46.0" fill="none" stroke="#e66767" stroke-width="1.3"/>
<rect x="300.1" y="310.0" width="7.5" height="39.5" fill="#008300"/>
<rect x="313.7" y="342.8" width="7.5" height="13.2" fill="none" stroke="#e66767" stroke-width="1.3"/>
<rect x="327.4" y="342.8" width="7.5" height="13.2" fill="none" stroke="#e66767" stroke-width="1.3"/>
<rect x="341.1" y="310.0" width="7.5" height="32.9" fill="none" stroke="#e66767" stroke-width="1.3"/>
<rect x="354.7" y="329.7" width="7.5" height="26.3" fill="none" stroke="#e66767" stroke-width="1.3"/>
<rect x="368.4" y="342.8" width="7.5" height="13.2" fill="none" stroke="#e66767" stroke-width="1.3"/>
<rect x="382.1" y="303.4" width="7.5" height="39.5" fill="none" stroke="#e66767" stroke-width="1.3"/>
<rect x="395.7" y="349.4" width="7.5" height="6.6" fill="none" stroke="#e66767" stroke-width="1.3"/>
<rect x="409.4" y="342.8" width="7.5" height="6.6" fill="none" stroke="#e66767" stroke-width="1.3"/>
<rect x="423.1" y="342.8" width="7.5" height="13.2" fill="none" stroke="#e66767" stroke-width="1.3"/>
<rect x="436.7" y="342.8" width="7.5" height="6.6" fill="#008300"/>
<rect x="450.4" y="336.3" width="7.5" height="13.2" fill="none" stroke="#e66767" stroke-width="1.3"/>
<rect x="464.1" y="79.8" width="7.5" height="256.5" fill="none" stroke="#e66767" stroke-width="1.3"/>
<rect x="477.7" y="303.4" width="7.5" height="52.6" fill="none" stroke="#e66767" stroke-width="1.3"/>
<rect x="491.4" y="303.4" width="7.5" height="19.7" fill="#008300"/>
<rect x="505.1" y="349.4" width="7.5" height="6.6" fill="none" stroke="#e66767" stroke-width="1.3"/>
<rect x="518.7" y="336.3" width="7.5" height="13.2" fill="none" stroke="#e66767" stroke-width="1.3"/>
<rect x="532.4" y="349.4" width="7.5" height="6.6" fill="none" stroke="#e66767" stroke-width="1.3"/>
<rect x="546.1" y="342.8" width="7.5" height="6.6" fill="none" stroke="#e66767" stroke-width="1.3"/>
<rect x="559.7" y="342.8" width="7.5" height="1.2" fill="#898781"/>
<rect x="573.4" y="342.8" width="7.5" height="1.2" fill="#898781"/>
<rect x="587.1" y="323.1" width="7.5" height="32.9" fill="none" stroke="#e66767" stroke-width="1.3"/>
<rect x="600.7" y="323.1" width="7.5" height="26.3" fill="#008300"/>
<rect x="614.4" y="342.8" width="7.5" height="6.6" fill="none" stroke="#e66767" stroke-width="1.3"/>
<rect x="628.1" y="342.8" width="7.5" height="6.6" fill="#008300"/>
<rect x="641.7" y="296.8" width="7.5" height="59.2" fill="none" stroke="#e66767" stroke-width="1.3"/>
<rect x="655.4" y="296.8" width="7.5" height="52.6" fill="#008300"/>
<rect x="669.1" y="336.3" width="7.5" height="13.2" fill="none" stroke="#e66767" stroke-width="1.3"/>
<rect x="682.7" y="336.3" width="7.5" height="13.2" fill="#008300"/>
<rect x="696.4" y="336.3" width="7.5" height="13.2" fill="none" stroke="#e66767" stroke-width="1.3"/>
<rect x="710.1" y="296.8" width="7.5" height="59.2" fill="none" stroke="#e66767" stroke-width="1.3"/>
<rect x="723.7" y="296.8" width="7.5" height="39.5" fill="#008300"/>
<rect x="737.4" y="329.7" width="7.5" height="26.3" fill="none" stroke="#e66767" stroke-width="1.3"/>
<rect x="751.1" y="342.8" width="7.5" height="13.2" fill="none" stroke="#e66767" stroke-width="1.3"/>
<rect x="764.7" y="316.5" width="7.5" height="39.5" fill="none" stroke="#e66767" stroke-width="1.3"/>
<rect x="778.4" y="349.4" width="7.5" height="6.6" fill="none" stroke="#e66767" stroke-width="1.3"/>
<rect x="792.1" y="342.8" width="7.5" height="6.6" fill="none" stroke="#e66767" stroke-width="1.3"/>
<rect x="805.7" y="336.3" width="7.5" height="6.6" fill="none" stroke="#e66767" stroke-width="1.3"/>
<rect x="819.4" y="283.7" width="7.5" height="72.3" fill="none" stroke="#e66767" stroke-width="1.3"/>
<circle cx="467.8" cy="79.8" r="2" fill="#c3c2b7"/>
<line x1="467.8" y1="79.8" x2="459.8" y2="79.8" stroke="#c3c2b7" stroke-width="1.0"/>
<text x="456.8" y="83.8" font-size="11.0" fill="#c3c2b7" text-anchor="end">42</text>
<circle cx="71.5" cy="356.0" r="2" fill="#c3c2b7"/>
<line x1="71.5" y1="356.0" x2="79.5" y2="356.0" stroke="#c3c2b7" stroke-width="1.0"/>
<text x="82.5" y="350.0" font-size="11.0" fill="#c3c2b7">0</text>
<text x="14.0" y="376.0" font-size="11.0" fill="#c3c2b7">VOL 881 lines</text>
<text x="102.6" y="376.0" font-size="11.0" fill="#c98500">MA5:407.2</text>
<text x="167.1" y="376.0" font-size="11.0" fill="#3987e5">MA10:612.7</text>
<text x="14.0" y="395.0" font-size="10" fill="#898781">6,416</text>
<rect x="26.7" y="469.5" width="7.5" height="0.5" fill="none" stroke="#e66767" stroke-width="1.1"/>
<rect x="54.1" y="464.9" width="7.5" height="5.1" fill="#008300"/>
<rect x="95.1" y="469.0" width="7.5" height="1.0" fill="none" stroke="#e66767" stroke-width="1.1"/>
<rect x="108.7" y="469.4" width="7.5" height="0.6" fill="#008300"/>
<rect x="122.4" y="440.5" width="7.5" height="29.5" fill="none" stroke="#e66767" stroke-width="1.1"/>
<rect x="136.1" y="388.0" width="7.5" height="82.0" fill="#008300"/>
<rect x="149.7" y="463.6" width="7.5" height="6.4" fill="#008300"/>
<rect x="177.1" y="463.8" width="7.5" height="6.2" fill="none" stroke="#e66767" stroke-width="1.1"/>
<rect x="190.7" y="460.5" width="7.5" height="9.5" fill="#008300"/>
<rect x="204.4" y="456.5" width="7.5" height="13.5" fill="#898781"/>
<rect x="231.7" y="457.4" width="7.5" height="12.6" fill="#898781"/>
<rect x="259.1" y="467.9" width="7.5" height="2.1" fill="none" stroke="#e66767" stroke-width="1.1"/>
<rect x="286.4" y="458.5" width="7.5" height="11.5" fill="none" stroke="#e66767" stroke-width="1.1"/>
<rect x="313.7" y="455.3" width="7.5" height="14.7" fill="none" stroke="#e66767" stroke-width="1.1"/>
<rect x="327.4" y="467.9" width="7.5" height="2.1" fill="none" stroke="#e66767" stroke-width="1.1"/>
<rect x="341.1" y="460.6" width="7.5" height="9.4" fill="none" stroke="#e66767" stroke-width="1.1"/>
<rect x="368.4" y="465.5" width="7.5" height="4.5" fill="none" stroke="#e66767" stroke-width="1.1"/>
<rect x="382.1" y="456.0" width="7.5" height="14.0" fill="none" stroke="#e66767" stroke-width="1.1"/>
<rect x="409.4" y="469.1" width="7.5" height="0.9" fill="none" stroke="#e66767" stroke-width="1.1"/>
<rect x="436.7" y="465.0" width="7.5" height="5.0" fill="#008300"/>
<rect x="450.4" y="465.1" width="7.5" height="4.9" fill="none" stroke="#e66767" stroke-width="1.1"/>
<rect x="464.1" y="428.8" width="7.5" height="41.2" fill="none" stroke="#e66767" stroke-width="1.1"/>
<rect x="477.7" y="468.1" width="7.5" height="1.9" fill="none" stroke="#e66767" stroke-width="1.1"/>
<rect x="491.4" y="467.3" width="7.5" height="2.7" fill="#008300"/>
<rect x="518.7" y="466.3" width="7.5" height="3.7" fill="none" stroke="#e66767" stroke-width="1.1"/>
<rect x="546.1" y="465.1" width="7.5" height="4.9" fill="none" stroke="#e66767" stroke-width="1.1"/>
<rect x="587.1" y="458.9" width="7.5" height="11.1" fill="none" stroke="#e66767" stroke-width="1.1"/>
<rect x="614.4" y="468.8" width="7.5" height="1.2" fill="none" stroke="#e66767" stroke-width="1.1"/>
<rect x="641.7" y="460.3" width="7.5" height="9.7" fill="none" stroke="#e66767" stroke-width="1.1"/>
<rect x="669.1" y="460.7" width="7.5" height="9.3" fill="none" stroke="#e66767" stroke-width="1.1"/>
<rect x="682.7" y="469.3" width="7.5" height="0.7" fill="#008300"/>
<rect x="696.4" y="451.9" width="7.5" height="18.1" fill="none" stroke="#e66767" stroke-width="1.1"/>
<rect x="710.1" y="450.3" width="7.5" height="19.7" fill="none" stroke="#e66767" stroke-width="1.1"/>
<rect x="723.7" y="456.4" width="7.5" height="13.6" fill="#008300"/>
<rect x="751.1" y="469.5" width="7.5" height="0.5" fill="none" stroke="#e66767" stroke-width="1.1"/>
<rect x="764.7" y="462.8" width="7.5" height="7.2" fill="none" stroke="#e66767" stroke-width="1.1"/>
<rect x="792.1" y="468.7" width="7.5" height="1.3" fill="none" stroke="#e66767" stroke-width="1.1"/>
<rect x="805.7" y="464.0" width="7.5" height="6.0" fill="none" stroke="#e66767" stroke-width="1.1"/>
<rect x="819.4" y="458.7" width="7.5" height="11.3" fill="none" stroke="#e66767" stroke-width="1.1"/>
<polyline points="16.8,461.4 30.5,462.3 44.2,463.0 57.8,466.2 71.5,466.9 85.2,467.4 98.8,467.3 112.5,467.4 126.2,465.5 139.8,458.0 153.5,457.4 167.2,457.5 180.8,456.9 194.5,456.4 208.2,455.1 221.8,455.1 235.5,453.9 249.2,454.0 262.8,456.7 276.5,464.9 290.2,464.4 303.8,464.4 317.5,463.6 331.2,464.3 344.8,464.7 358.5,464.7 372.2,465.5 385.8,464.1 399.5,464.3 413.2,464.2 426.8,465.4 440.5,464.9 454.2,465.8 467.8,461.9 481.5,462.7 495.2,462.4 508.8,462.9 522.5,463.9 536.2,463.9 549.8,463.5 563.5,463.5 577.2,464.0 590.8,463.4 604.5,467.5 618.2,467.6 631.8,467.8 645.5,466.8 659.2,467.2 672.8,466.3 686.5,466.7 700.2,464.9 713.8,462.9 727.5,462.7 741.2,462.7 754.8,462.7 768.5,462.1 782.2,463.0 795.8,462.9 809.5,463.2 823.2,462.2" fill="none" stroke="#3987e5" stroke-width="1.5" stroke-linejoin="round" stroke-linecap="round"/>
<polyline points="16.8,466.1 30.5,466.0 44.2,466.1 57.8,467.3 71.5,468.8 85.2,468.8 98.8,468.7 112.5,468.6 126.2,463.7 139.8,447.3 153.5,446.1 167.2,446.3 180.8,445.1 194.5,449.2 208.2,462.9 221.8,464.1 235.5,461.6 249.2,462.9 262.8,464.3 276.5,467.0 290.2,464.7 303.8,467.2 317.5,464.3 331.2,464.3 344.8,462.4 358.5,464.7 372.2,463.8 385.8,463.9 399.5,464.4 413.2,466.1 426.8,466.0 440.5,465.9 454.2,467.7 467.8,459.5 481.5,459.3 495.2,458.8 508.8,459.8 522.5,460.1 536.2,468.3 549.8,467.7 563.5,468.2 577.2,468.2 590.8,466.7 604.5,466.7 618.2,467.4 631.8,467.4 645.5,465.5 659.2,467.7 672.8,465.8 686.5,465.9 700.2,462.4 713.8,460.4 727.5,457.7 741.2,459.5 754.8,459.5 768.5,461.7 782.2,465.6 795.8,468.1 809.5,466.9 823.2,464.8" fill="none" stroke="#c98500" stroke-width="1.5" stroke-linejoin="round" stroke-linecap="round"/>
</svg>