<svg xmlns="http://www.w3.org/2000/svg" viewBox="0 0 840 496" width="840" height="496" font-family="-apple-system,&#39;Segoe UI&#39;,system-ui,sans-serif" role="img" aria-label="nilbuild/developer-roadmap candlestick chart">
<text x="14.0" y="20.0" font-size="15" fill="#0b0b0b" font-weight="650">nilbuild/developer-roadmap</text>
<text x="232.5" y="20.0" font-size="11.5" fill="#52514e">daily · new stars, volume = new forks</text>
<text x="805.8" y="20.0" font-size="11.0" fill="#52514e">fall</text>
<rect x="791" y="10" width="9" height="12" fill="#008300"/>
<text x="750.6" y="20.0" font-size="11.0" fill="#52514e">rise</text>
<rect x="736" y="10" width="9" height="12" fill="none" stroke="#e34948" stroke-width="1.5"/>
<text x="14.0" y="38.0" font-size="11.0" fill="#898781">last 60 days · +7,198 stars · +679 forks · updated 2026-07-19</text>
<rect x="10" y="66" width="820" height="290" fill="none" stroke="#e1e0d9"/>
<rect x="10" y="384" width="820" height="86" fill="none" stroke="#e1e0d9"/>
<text x="38.0" y="490.0" font-size="11.0" fill="#898781" text-anchor="middle">2026-05</text>
<line x1="160.3" y1="66.0" x2="160.3" y2="356.0" stroke="#e1e0d9" stroke-width="1.0"/>
<line x1="160.3" y1="384.0" x2="160.3" y2="470.0" stroke="#e1e0d9" stroke-width="1.0"/>
<text x="167.2" y="490.0" font-size="11.0" fill="#898781" text-anchor="middle">2026-06</text>
<line x1="570.3" y1="66.0" x2="570.3" y2="356.0" stroke="#e1e0d9" stroke-width="1.0"/>
<line x1="570.3" y1="384.0" x2="570.3" y2="470.0" stroke="#e1e0d9" stroke-width="1.0"/>
<text x="577.2" y="490.0" font-size="11.0" fill="#898781" text-anchor="middle">2026-07</text>
<text x="14.0" y="58.0" font-size="11.0" fill="#52514e">BOLL(20,2)</text>
<text x="84.5" y="58.0" font-size="11.0" fill="#eda100">UP:282.2</text>
<text x="142.9" y="58.0" font-size="11.0" fill="#2a78d6">MID:152.2</text>
<text x="207.4" y="58.0" font-size="11.0" fill="#e87ba4">LOW:22.1</text>
<text x="265.8" y="58.0" font-size="11.0" fill="#4a3aa7">MA7:152.3</text>
<line x1="10.0" y1="356.0" x2="830.0" y2="356.0" stroke="#e1e0d9" stroke-width="1.0"/>
<text x="14.0" y="353.0" font-size="11.0" fill="#898781">0</text>
<line x1="10.0" y1="268.3" x2="830.0" y2="268.3" stroke="#e1e0d9" stroke-width="1.0"/>
<text x="14.0" y="265.3" font-size="11.0" fill="#898781">100</text>
<line x1="10.0" y1="180.6" x2="830.0" y2="180.6" stroke="#e1e0d9" stroke-width="1.0"/>
<text x="14.0" y="177.6" font-size="11.0" fill="#898781">200</text>
<line x1="10.0" y1="93.0" x2="830.0" y2="93.0" stroke="#e1e0d9" stroke-width="1.0"/>
<text x="14.0" y="90.0" font-size="11.0" fill="#898781">300</text>
<polyline points="153.5,271.0 167.2,269.9 180.8,237.9 194.5,231.0 208.2,229.4 221.8,229.2 235.5,229.5 249.2,229.3 262.8,229.0 276.5,228.2 290.2,228.2 303.8,228.3 317.5,228.2 331.2,224.6 344.8,200.9 358.5,188.4 372.2,184.9 385.8,184.8 399.5,184.9 413.2,185.6 426.8,185.4 440.5,185.4 454.2,194.7 467.8,197.1 481.5,197.1 495.2,195.9 508.8,195.3 522.5,195.4 536.2,195.3 549.8,195.3 563.5,195.4 577.2,195.0 590.8,189.5 604.5,181.8 618.2,196.6 631.8,205.7 645.5,206.5 659.2,200.4 672.8,199.1 686.5,198.9 700.2,155.5 713.8,121.1 727.5,119.0 741.2,116.5 754.8,115.9 768.5,113.0 782.2,110.5 795.8,110.6 809.5,110.8 823.2,108.6" fill="none" stroke="#eda100" stroke-width="1.5" stroke-linejoin="round" stroke-linecap="round"/>
<polyline points="153.5,285.5 167.2,285.2 180.8,280.6 194.5,277.4 208.2,275.7 221.8,275.6 235.5,276.3 249.2,275.9 262.8,275.5 276.5,274.1 290.2,273.4 303.8,274.3 317.5,273.9 331.2,271.4 344.8,265.5 358.5,261.0 372.2,258.4 385.8,257.3 399.5,256.4 413.2,255.5 426.8,253.8 440.5,253.7 454.2,257.9 467.8,259.4 481.5,259.5 495.2,258.3 508.8,256.2 522.5,255.7 536.2,255.9 549.8,255.8 563.5,255.3 577.2,252.5 590.8,248.9 604.5,246.3 618.2,250.1 631.8,252.1 645.5,252.4 659.2,255.3 672.8,256.7 686.5,257.0 700.2,248.8 713.8,239.3 727.5,236.1 741.2,233.5 754.8,232.2 768.5,229.9 782.2,227.6 795.8,227.4 809.5,225.8 823.2,222.6" fill="none" stroke="#2a78d6" stroke-width="1.5" stroke-linejoin="round" stroke-linecap="round"/>
<polyline points="153.5,300.1 167.2,300.6 180.8,323.3 194.5,323.8 208.2,322.0 221.8,322.0 235.5,323.1 249.2,322.4 262.8,321.9 276.5,319.9 290.2,318.5 303.8,320.4 317.5,319.7 331.2,318.2 344.8,330.1 358.5,333.7 372.2,331.9 385.8,329.7 399.5,328.0 413.2,325.4 426.8,322.2 440.5,322.1 454.2,321.2 467.8,321.7 481.5,321.8 495.2,320.7 508.8,317.1 522.5,316.1 536.2,316.4 549.8,316.3 563.5,315.2 577.2,310.0 590.8,308.3 604.5,310.8 618.2,303.6 631.8,298.6 645.5,298.4 659.2,310.2 672.8,314.3 686.5,315.0 700.2,342.1 713.8,356.0 727.5,353.3 741.2,350.5 754.8,348.4 768.5,346.7 782.2,344.8 795.8,344.3 809.5,340.7 823.2,336.6" fill="none" stroke="#e87ba4" stroke-width="1.5" stroke-linejoin="round" stroke-linecap="round"/>
<polyline points="16.8,285.1 30.5,282.4 44.2,284.6 57.8,287.1 71.5,287.0 85.2,286.2 98.8,284.4 112.5,283.5 126.2,285.0 139.8,286.2 153.5,285.3 167.2,283.3 180.8,271.5 194.5,264.8 208.2,261.2 221.8,258.8 235.5,257.9 249.2,256.7 262.8,257.0 276.5,267.4 290.2,273.6 303.8,278.5 317.5,279.8 331.2,273.2 344.8,257.4 358.5,245.0 372.2,239.5 385.8,237.5 399.5,233.9 413.2,233.5 426.8,234.9 440.5,249.6 454.2,262.5 467.8,267.7 481.5,267.4 495.2,264.2 508.8,260.1 522.5,262.3 536.2,263.1 549.8,261.2 563.5,261.9 577.2,258.6 590.8,252.9 604.5,244.9 618.2,241.2 631.8,234.4 645.5,229.8 659.2,237.5 672.8,245.9 686.5,256.6 700.2,242.0 713.8,218.7 727.5,216.9 741.2,213.7 754.8,201.3 768.5,187.6 782.2,176.3 795.8,201.2 809.5,224.6 823.2,222.5" fill="none" stroke="#4a3aa7" stroke-width="1.5" stroke-linejoin="round" stroke-linecap="round"/>
<rect x="13.1" y="292.0" width="7.5" height="1.8" fill="none" stroke="#e34948" stroke-width="1.3"/>
<rect x="26.7" y="275.3" width="7.5" height="16.7" fill="none" stroke="#e34948" stroke-width="1.3"/>
<rect x="40.4" y="275.3" width="7.5" height="11.4" fill="#008300"/>
<rect x="54.1" y="286.7" width="7.5" height="6.1" fill="#008300"/>
<rect x="67.7" y="285.9" width="7.5" height="7.0" fill="none" stroke="#e34948" stroke-width="1.3"/>
<rect x="81.4" y="277.1" width="7.5" height="8.8" fill="none" stroke="#e34948" stroke-width="1.3"/>
<rect x="95.1" y="277.1" width="7.5" height="3.5" fill="#008300"/>
<rect x="108.7" y="280.6" width="7.5" height="5.3" fill="#008300"/>
<rect x="122.4" y="285.9" width="7.5" height="1.2" fill="#898781"/>
<rect x="136.1" y="285.9" width="7.5" height="9.6" fill="#008300"/>
<rect x="149.7" y="286.7" width="7.5" height="8.8" fill="none" stroke="#e34948" stroke-width="1.3"/>
<rect x="163.4" y="271.8" width="7.5" height="14.9" fill="none" stroke="#e34948" stroke-width="1.3"/>
<rect x="177.1" y="193.8" width="7.5" height="78.0" fill="none" stroke="#e34948" stroke-width="1.3"/>
<rect x="190.7" y="193.8" width="7.5" height="40.3" fill="#008300"/>
<rect x="204.4" y="234.1" width="7.5" height="26.3" fill="#008300"/>
<rect x="218.1" y="260.4" width="7.5" height="8.8" fill="#008300"/>
<rect x="231.7" y="269.2" width="7.5" height="20.2" fill="#008300"/>
<rect x="245.4" y="278.0" width="7.5" height="11.4" fill="none" stroke="#e34948" stroke-width="1.3"/>
<rect x="259.1" y="274.5" width="7.5" height="3.5" fill="none" stroke="#e34948" stroke-width="1.3"/>
<rect x="272.7" y="265.7" width="7.5" height="8.8" fill="none" stroke="#e34948" stroke-width="1.3"/>
<rect x="286.4" y="265.7" width="7.5" height="12.3" fill="#008300"/>
<rect x="300.1" y="278.0" width="7.5" height="16.7" fill="#008300"/>
<rect x="313.7" y="278.8" width="7.5" height="15.8" fill="none" stroke="#e34948" stroke-width="1.3"/>
<rect x="327.4" y="242.9" width="7.5" height="35.9" fill="none" stroke="#e34948" stroke-width="1.3"/>
<rect x="341.1" y="167.5" width="7.5" height="75.4" fill="none" stroke="#e34948" stroke-width="1.3"/>
<rect x="354.7" y="167.5" width="7.5" height="20.2" fill="#008300"/>
<rect x="368.4" y="187.7" width="7.5" height="39.5" fill="#008300"/>
<rect x="382.1" y="227.1" width="7.5" height="36.8" fill="#008300"/>
<rect x="395.7" y="263.9" width="7.5" height="5.3" fill="#008300"/>
<rect x="409.4" y="269.2" width="7.5" height="7.0" fill="#008300"/>
<rect x="423.1" y="252.5" width="7.5" height="23.7" fill="none" stroke="#e34948" stroke-width="1.3"/>
<rect x="436.7" y="252.5" width="7.5" height="18.4" fill="#008300"/>
<rect x="450.4" y="271.0" width="7.5" height="7.0" fill="#008300"/>
<rect x="464.1" y="263.1" width="7.5" height="14.9" fill="none" stroke="#e34948" stroke-width="1.3"/>
<rect x="477.7" y="262.2" width="7.5" height="1.2" fill="none" stroke="#e34948" stroke-width="1.3"/>
<rect x="491.4" y="246.4" width="7.5" height="15.8" fill="none" stroke="#e34948" stroke-width="1.3"/>
<rect x="505.1" y="246.4" width="7.5" height="1.2" fill="#008300"/>
<rect x="518.7" y="247.3" width="7.5" height="21.0" fill="#008300"/>
<rect x="532.4" y="268.3" width="7.5" height="8.8" fill="#008300"/>
<rect x="546.1" y="263.9" width="7.5" height="13.2" fill="none" stroke="#e34948" stroke-width="1.3"/>
<rect x="559.7" y="263.9" width="7.5" height="4.4" fill="#008300"/>
<rect x="573.4" y="238.5" width="7.5" height="29.8" fill="none" stroke="#e34948" stroke-width="1.3"/>
<rect x="587.1" y="206.9" width="7.5" height="31.6" fill="none" stroke="#e34948" stroke-width="1.3"/>
<rect x="600.7" y="191.2" width="7.5" height="15.8" fill="none" stroke="#e34948" stroke-width="1.3"/>
<rect x="614.4" y="191.2" width="7.5" height="51.7" fill="#008300"/>
<rect x="628.1" y="228.9" width="7.5" height="14.0" fill="none" stroke="#e34948" stroke-width="1.3"/>
<rect x="641.7" y="228.9" width="7.5" height="3.5" fill="#008300"/>
<rect x="655.4" y="232.4" width="7.5" height="89.4" fill="#008300"/>
<rect x="669.1" y="297.3" width="7.5" height="24.6" fill="none" stroke="#e34948" stroke-width="1.3"/>
<rect x="682.7" y="281.5" width="7.5" height="15.8" fill="none" stroke="#e34948" stroke-width="1.3"/>
<rect x="696.4" y="89.5" width="7.5" height="192.0" fill="none" stroke="#e34948" stroke-width="1.3"/>
<rect x="710.1" y="79.8" width="7.5" height="9.6" fill="none" stroke="#e34948" stroke-width="1.3"/>
<rect x="723.7" y="79.8" width="7.5" height="135.9" fill="#008300"/>
<rect x="737.4" y="210.5" width="7.5" height="5.3" fill="none" stroke="#e34948" stroke-width="1.3"/>
<rect x="751.1" y="210.5" width="7.5" height="24.6" fill="#008300"/>
<rect x="764.7" y="200.8" width="7.5" height="34.2" fill="none" stroke="#e34948" stroke-width="1.3"/>
<rect x="778.4" y="200.8" width="7.5" height="1.8" fill="#008300"/>
<rect x="792.1" y="202.6" width="7.5" height="61.4" fill="#008300"/>
<rect x="805.7" y="243.8" width="7.5" height="20.2" fill="none" stroke="#e34948" stroke-width="1.3"/>
<rect x="819.4" y="200.8" width="7.5" height="43.0" fill="none" stroke="#e34948" stroke-width="1.3"/>
<circle cx="713.8" cy="79.8" r="2" fill="#52514e"/>
<line x1="713.8" y1="79.8" x2="705.8" y2="79.8" stroke="#52514e" stroke-width="1.0"/>
<text x="702.8" y="83.8" font-size="11.0" fill="#52514e" text-anchor="end">315</text>
<circle cx="659.2" cy="321.8" r="2" fill="#52514e"/>
<line x1="659.2" y1="321.8" x2="651.2" y2="321.8" stroke="#52514e" stroke-width="1.0"/>
<text x="648.2" y="325.8" font-size="11.0" fill="#52514e" text-anchor="end">39</text>
<text x="14.0" y="376.0" font-size="11.0" fill="#52514e">VOL 11 forks</text>
<text x="96.6" y="376.0" font-size="11.0" fill="#eda100">MA5:10.8</text>
<text x="155.0" y="376.0" font-size="11.0" fill="#2a78d6">MA10:17.4</text>
<text x="14.0" y="395.0" font-size="10" fill="#898781">41</text>
<rect x="13.1" y="452.0" width="7.5" height="18.0" fill="none" stroke="#e34948" stroke-width="1.1"/>
<rect x="26.7" y="450.0" width="7.5" height="20.0" fill="none" stroke="#e34948" stroke-width="1.1"/>
<rect x="40.4" y="452.0" width="7.5" height="18.0" fill="#008300"/>
<rect x="54.1" y="456.0" width="7.5" height="14.0" fill="#008300"/>
<rect x="67.7" y="460.0" width="7.5" height="10.0" fill="none" stroke="#e34948" stroke-width="1.1"/>
<rect x="81.4" y="458.0" width="7.5" height="12.0" fill="none" stroke="#e34948" stroke-width="1.1"/>
<rect x="95.1" y="454.0" width="7.5" height="16.0" fill="#008300"/>
<rect x="108.7" y="444.0" width="7.5" height="26.0" fill="#008300"/>
<rect x="122.4" y="444.0" width="7.5" height="26.0" fill="#898781"/>
<rect x="136.1" y="458.0" width="7.5" height="12.0" fill="#008300"/>
<rect x="149.7" y="466.0" width="7.5" height="4.0" fill="none" stroke="#e34948" stroke-width="1.1"/>
<rect x="163.4" y="444.0" width="7.5" height="26.0" fill="none" stroke="#e34948" stroke-width="1.1"/>
<rect x="177.1" y="428.0" width="7.5" height="42.0" fill="none" stroke="#e34948" stroke-width="1.1"/>
<rect x="190.7" y="434.0" width="7.5" height="36.0" fill="#008300"/>
<rect x="204.4" y="454.0" width="7.5" height="16.0" fill="#008300"/>
<rect x="218.1" y="464.0" width="7.5" height="6.0" fill="#008300"/>
<rect x="231.7" y="456.0" width="7.5" height="14.0" fill="#008300"/>
<rect x="245.4" y="452.0" width="7.5" height="18.0" fill="none" stroke="#e34948" stroke-width="1.1"/>
<rect x="259.1" y="456.0" width="7.5" height="14.0" fill="none" stroke="#e34948" stroke-width="1.1"/>
<rect x="272.7" y="454.0" width="7.5" height="16.0" fill="none" stroke="#e34948" stroke-width="1.1"/>
<rect x="286.4" y="446.0" width="7.5" height="24.0" fill="#008300"/>
<rect x="300.1" y="452.0" width="7.5" height="18.0" fill="#008300"/>
<rect x="313.7" y="464.0" width="7.5" height="6.0" fill="none" stroke="#e34948" stroke-width="1.1"/>
<rect x="327.4" y="442.0" width="7.5" height="28.0" fill="none" stroke="#e34948" stroke-width="1.1"/>
<rect x="341.1" y="454.0" width="7.5" height="16.0" fill="none" stroke="#e34948" stroke-width="1.1"/>
<rect x="354.7" y="444.0" width="7.5" height="26.0" fill="#008300"/>
<rect x="368.4" y="448.0" width="7.5" height="22.0" fill="#008300"/>
<rect x="382.1" y="448.0" width="7.5" height="22.0" fill="#008300"/>
<rect x="395.7" y="452.0" width="7.5" height="18.0" fill="#008300"/>
<rect x="409.4" y="454.0" width="7.5" height="16.0" fill="#008300"/>
<rect x="423.1" y="450.0" width="7.5" height="20.0" fill="none" stroke="#e34948" stroke-width="1.1"/>
<rect x="436.7" y="454.0" width="7.5" height="16.0" fill="#008300"/>
<rect x="450.4" y="438.0" width="7.5" height="32.0" fill="#008300"/>
<rect x="464.1" y="446.0" width="7.5" height="24.0" fill="none" stroke="#e34948" stroke-width="1.1"/>
<rect x="477.7" y="456.0" width="7.5" height="14.0" fill="none" stroke="#e34948" stroke-width="1.1"/>
<rect x="491.4" y="444.0" width="7.5" height="26.0" fill="none" stroke="#e34948" stroke-width="1.1"/>
<rect x="505.1" y="444.0" width="7.5" height="26.0" fill="#008300"/>
<rect x="518.7" y="456.0" width="7.5" height="14.0" fill="#008300"/>
<rect x="532.4" y="462.0" width="7.5" height="8.0" fill="#008300"/>
<rect x="546.1" y="444.0" width="7.5" height="26.0" fill="none" stroke="#e34948" stroke-width="1.1"/>
<rect x="559.7" y="452.0" width="7.5" height="18.0" fill="#008300"/>
<rect x="573.4" y="446.0" width="7.5" height="24.0" fill="none" stroke="#e34948" stroke-width="1.1"/>
<rect x="587.1" y="426.0" width="7.5" height="44.0" fill="none" stroke="#e34948" stroke-width="1.1"/>
<rect x="600.7" y="420.0" width="7.5" height="50.0" fill="none" stroke="#e34948" stroke-width="1.1"/>
<rect x="614.4" y="444.0" width="7.5" height="26.0" fill="#008300"/>
<rect x="628.1" y="444.0" width="7.5" height="26.0" fill="none" stroke="#e34948" stroke-width="1.1"/>
<rect x="641.7" y="438.0" width="7.5" height="32.0" fill="#008300"/>
<rect x="655.4" y="466.0" width="7.5" height="4.0" fill="#008300"/>
<rect x="669.1" y="454.0" width="7.5" height="16.0" fill="none" stroke="#e34948" stroke-width="1.1"/>
<rect x="682.7" y="466.0" width="7.5" height="4.0" fill="none" stroke="#e34948" stroke-width="1.1"/>
<rect x="696.4" y="426.0" width="7.5" height="44.0" fill="none" stroke="#e34948" stroke-width="1.1"/>
<rect x="710.1" y="388.0" width="7.5" height="82.0" fill="none" stroke="#e34948" stroke-width="1.1"/>
<rect x="723.7" y="442.0" width="7.5" height="28.0" fill="#008300"/>
<rect x="737.4" y="420.0" width="7.5" height="50.0" fill="none" stroke="#e34948" stroke-width="1.1"/>
<rect x="751.1" y="434.0" width="7.5" height="36.0" fill="#008300"/>
<rect x="764.7" y="444.0" width="7.5" height="26.0" fill="none" stroke="#e34948" stroke-width="1.1"/>
<rect x="778.4" y="434.0" width="7.5" height="36.0" fill="#008300"/>
<rect x="792.1" y="456.0" width="7.5" height="14.0" fill="#008300"/>
<rect x="805.7" y="460.0" width="7.5" height="10.0" fill="none" stroke="#e34948" stroke-width="1.1"/>
<rect x="819.4" y="448.0" width="7.5" height="22.0" fill="none" stroke="#e34948" stroke-width="1.1"/>
<polyline points="16.8,454.0 30.5,453.2 44.2,453.0 57.8,453.0 71.5,453.2 85.2,454.6 98.8,454.6 112.5,453.0 126.2,453.4 139.8,452.8 153.5,454.2 167.2,453.6 180.8,451.2 194.5,449.0 208.2,448.4 221.8,449.0 235.5,449.2 249.2,450.0 262.8,451.2 276.5,450.8 290.2,448.8 303.8,449.6 317.5,453.2 331.2,454.0 344.8,454.0 358.5,452.0 372.2,451.2 385.8,450.8 399.5,450.4 413.2,450.4 426.8,450.8 440.5,451.0 454.2,448.4 467.8,448.8 481.5,449.0 495.2,449.0 508.8,448.6 522.5,449.4 536.2,450.4 549.8,449.4 563.5,449.6 577.2,448.8 590.8,447.6 604.5,445.0 618.2,443.8 631.8,443.8 645.5,443.2 659.2,444.2 672.8,443.4 686.5,445.6 700.2,443.0 713.8,437.2 727.5,438.8 741.2,438.8 754.8,437.8 768.5,437.8 782.2,437.4 795.8,436.4 809.5,437.0 823.2,435.2" fill="none" stroke="#2a78d6" stroke-width="1.5" stroke-linejoin="round" stroke-linecap="round"/>
<polyline points="16.8,454.0 30.5,453.2 44.2,451.6 57.8,454.8 71.5,454.0 85.2,455.2 98.8,456.0 112.5,454.4 126.2,452.0 139.8,451.6 153.5,453.2 167.2,451.2 180.8,448.0 194.5,446.0 208.2,445.2 221.8,444.8 235.5,447.2 249.2,452.0 262.8,456.4 276.5,456.4 290.2,452.8 303.8,452.0 317.5,454.4 331.2,451.6 344.8,451.6 358.5,451.2 372.2,450.4 385.8,447.2 399.5,449.2 413.2,449.2 426.8,450.4 440.5,451.6 454.2,449.6 467.8,448.4 481.5,448.8 495.2,447.6 508.8,445.6 522.5,449.2 536.2,452.4 549.8,450.0 563.5,451.6 577.2,452.0 590.8,446.0 604.5,437.6 618.2,437.6 631.8,436.0 645.5,434.4 659.2,442.4 672.8,449.2 686.5,453.6 700.2,450.0 713.8,440.0 727.5,435.2 741.2,428.4 754.8,422.0 768.5,425.6 782.2,434.8 795.8,437.6 809.5,445.6 823.2,448.4" fill="none" stroke="#eda100" stroke-width="1.5" stroke-linejoin="round" stroke-linecap="round"/>
</svg>