<svg xmlns="http://www.w3.org/2000/svg" viewBox="0 0 840 496" width="840" height="496" font-family="-apple-system,&#39;Segoe UI&#39;,system-ui,sans-serif" role="img" aria-label="nilbuild/developer-roadmap candlestick chart">
<text x="14.0" y="20.0" font-size="15" fill="#ffffff" font-weight="650">nilbuild/developer-roadmap</text>
<text x="232.5" y="20.0" font-size="11.5" fill="#c3c2b7">daily · new stars, volume = new forks</text>
<text x="805.8" y="20.0" font-size="11.0" fill="#c3c2b7">fall</text>
<rect x="791" y="10" width="9" height="12" fill="#008300"/>
<text x="750.6" y="20.0" font-size="11.0" fill="#c3c2b7">rise</text>
<rect x="736" y="10" width="9" height="12" fill="none" stroke="#e66767" stroke-width="1.5"/>
<text x="14.0" y="38.0" font-size="11.0" fill="#898781">last 60 days · +7,716 stars · +715 forks · updated 2026-07-24</text>
<rect x="10" y="66" width="820" height="290" fill="none" stroke="#2c2c2a"/>
<rect x="10" y="384" width="820" height="86" fill="none" stroke="#2c2c2a"/>
<text x="38.0" y="490.0" font-size="11.0" fill="#898781" text-anchor="middle">2026-05</text>
<line x1="92.0" y1="66.0" x2="92.0" y2="356.0" stroke="#2c2c2a" stroke-width="1.0"/>
<line x1="92.0" y1="384.0" x2="92.0" y2="470.0" stroke="#2c2c2a" stroke-width="1.0"/>
<line x1="502.0" y1="66.0" x2="502.0" y2="356.0" stroke="#2c2c2a" stroke-width="1.0"/>
<line x1="502.0" y1="384.0" x2="502.0" y2="470.0" stroke="#2c2c2a" stroke-width="1.0"/>
<text x="508.8" y="490.0" font-size="11.0" fill="#898781" text-anchor="middle">2026-07</text>
<text x="14.0" y="58.0" font-size="11.0" fill="#c3c2b7">BOLL(20,2)</text>
<text x="84.5" y="58.0" font-size="11.0" fill="#c98500">UP:296.3</text>
<text x="142.9" y="58.0" font-size="11.0" fill="#3987e5">MID:161.8</text>
<text x="207.4" y="58.0" font-size="11.0" fill="#d55181">LOW:27.3</text>
<text x="265.8" y="58.0" font-size="11.0" fill="#9085e9">MA7:174.1</text>
<line x1="10.0" y1="356.0" x2="830.0" y2="356.0" stroke="#2c2c2a" stroke-width="1.0"/>
<text x="14.0" y="353.0" font-size="11.0" fill="#898781">0</text>
<line x1="10.0" y1="268.3" x2="830.0" y2="268.3" stroke="#2c2c2a" stroke-width="1.0"/>
<text x="14.0" y="265.3" font-size="11.0" fill="#898781">100</text>
<line x1="10.0" y1="180.6" x2="830.0" y2="180.6" stroke="#2c2c2a" stroke-width="1.0"/>
<text x="14.0" y="177.6" font-size="11.0" fill="#898781">200</text>
<line x1="10.0" y1="93.0" x2="830.0" y2="93.0" stroke="#2c2c2a" stroke-width="1.0"/>
<text x="14.0" y="90.0" font-size="11.0" fill="#898781">300</text>
<polyline points="85.2,271.0 98.8,269.9 112.5,237.9 126.2,231.0 139.8,229.4 153.5,229.2 167.2,229.5 180.8,229.3 194.5,229.0 208.2,228.2 221.8,228.2 235.5,228.3 249.2,228.2 262.8,224.6 276.5,200.9 290.2,188.4 303.8,184.9 317.5,184.8 331.2,184.9 344.8,185.6 358.5,185.4 372.2,185.4 385.8,194.7 399.5,197.1 413.2,197.1 426.8,195.9 440.5,195.3 454.2,195.4 467.8,195.3 481.5,195.3 495.2,195.4 508.8,195.0 522.5,189.5 536.2,181.8 549.8,196.6 563.5,205.7 577.2,206.5 590.8,200.4 604.5,199.1 618.2,198.9 631.8,155.5 645.5,121.1 659.2,119.0 672.8,116.5 686.5,115.9 700.2,113.0 713.8,110.5 727.5,110.6 741.2,110.8 754.8,108.6 768.5,97.2 782.2,96.7 795.8,94.8 809.5,97.0 823.2,96.2" fill="none" stroke="#c98500" stroke-width="1.5" stroke-linejoin="round" stroke-linecap="round"/>
<polyline points="85.2,285.5 98.8,285.2 112.5,280.6 126.2,277.4 139.8,275.7 153.5,275.6 167.2,276.3 180.8,275.9 194.5,275.5 208.2,274.1 221.8,273.4 235.5,274.3 249.2,273.9 262.8,271.4 276.5,265.5 290.2,261.0 303.8,258.4 317.5,257.3 331.2,256.4 344.8,255.5 358.5,253.8 372.2,253.7 385.8,257.9 399.5,259.4 413.2,259.5 426.8,258.3 440.5,256.2 454.2,255.7 467.8,255.9 481.5,255.8 495.2,255.3 508.8,252.5 522.5,248.9 536.2,246.3 549.8,250.1 563.5,252.1 577.2,252.4 590.8,255.3 604.5,256.7 618.2,257.0 631.8,248.8 645.5,239.3 659.2,236.1 672.8,233.5 686.5,232.2 700.2,229.9 713.8,227.6 727.5,227.4 741.2,225.8 754.8,222.6 768.5,215.8 782.2,214.8 795.8,213.7 809.5,215.6 823.2,214.1" fill="none" stroke="#3987e5" stroke-width="1.5" stroke-linejoin="round" stroke-linecap="round"/>
<polyline points="85.2,300.1 98.8,300.6 112.5,323.3 126.2,323.8 139.8,322.0 153.5,322.0 167.2,323.1 180.8,322.4 194.5,321.9 208.2,319.9 221.8,318.5 235.5,320.4 249.2,319.7 262.8,318.2 276.5,330.1 290.2,333.7 303.8,331.9 317.5,329.7 331.2,328.0 344.8,325.4 358.5,322.2 372.2,322.1 385.8,321.2 399.5,321.7 413.2,321.8 426.8,320.7 440.5,317.1 454.2,316.1 467.8,316.4 481.5,316.3 495.2,315.2 508.8,310.0 522.5,308.3 536.2,310.8 549.8,303.6 563.5,298.6 577.2,298.4 590.8,310.2 604.5,314.3 618.2,315.0 631.8,342.1 645.5,356.0 659.2,353.3 672.8,350.5 686.5,348.4 700.2,346.7 713.8,344.8 727.5,344.3 741.2,340.7 754.8,336.6 768.5,334.3 782.2,332.9 795.8,332.5 809.5,334.2 823.2,332.1" fill="none" stroke="#d55181" stroke-width="1.5" stroke-linejoin="round" stroke-linecap="round"/>
<polyline points="16.8,286.2 30.5,284.4 44.2,283.5 57.8,285.0 71.5,286.2 85.2,285.3 98.8,283.3 112.5,271.5 126.2,264.8 139.8,261.2 153.5,258.8 167.2,257.9 180.8,256.7 194.5,257.0 208.2,267.4 221.8,273.6 235.5,278.5 249.2,279.8 262.8,273.2 276.5,257.4 290.2,245.0 303.8,239.5 317.5,237.5 331.2,233.9 344.8,233.5 358.5,234.9 372.2,249.6 385.8,262.5 399.5,267.7 413.2,267.4 426.8,264.2 440.5,260.1 454.2,262.3 467.8,263.1 481.5,261.2 495.2,261.9 508.8,258.6 522.5,252.9 536.2,244.9 549.8,241.2 563.5,234.4 577.2,229.8 590.8,237.5 604.5,245.9 618.2,256.6 631.8,242.0 645.5,218.7 659.2,216.9 672.8,213.7 686.5,201.3 700.2,187.6 713.8,176.3 727.5,201.2 741.2,224.6 754.8,222.5 768.5,211.2 782.2,209.0 795.8,206.6 809.5,210.5 823.2,203.3" fill="none" stroke="#9085e9" stroke-width="1.5" stroke-linejoin="round" stroke-linecap="round"/>
<rect x="13.1" y="277.1" width="7.5" height="8.8" fill="none" stroke="#e66767" stroke-width="1.3"/>
<rect x="26.7" y="277.1" width="7.5" height="3.5" fill="#008300"/>
<rect x="40.4" y="280.6" width="7.5" height="5.3" fill="#008300"/>
<rect x="54.1" y="285.9" width="7.5" height="1.2" fill="#898781"/>
<rect x="67.7" y="285.9" width="7.5" height="9.6" fill="#008300"/>
<rect x="81.4" y="286.7" width="7.5" height="8.8" fill="none" stroke="#e66767" stroke-width="1.3"/>
<rect x="95.1" y="271.8" width="7.5" height="14.9" fill="none" stroke="#e66767" stroke-width="1.3"/>
<rect x="108.7" y="193.8" width="7.5" height="78.0" fill="none" stroke="#e66767" stroke-width="1.3"/>
<rect x="122.4" y="193.8" width="7.5" height="40.3" fill="#008300"/>
<rect x="136.1" y="234.1" width="7.5" height="26.3" fill="#008300"/>
<rect x="149.7" y="260.4" width="7.5" height="8.8" fill="#008300"/>
<rect x="163.4" y="269.2" width="7.5" height="20.2" fill="#008300"/>
<rect x="177.1" y="278.0" width="7.5" height="11.4" fill="none" stroke="#e66767" stroke-width="1.3"/>
<rect x="190.7" y="274.5" width="7.5" height="3.5" fill="none" stroke="#e66767" stroke-width="1.3"/>
<rect x="204.4" y="265.7" width="7.5" height="8.8" fill="none" stroke="#e66767" stroke-width="1.3"/>
<rect x="218.1" y="265.7" width="7.5" height="12.3" fill="#008300"/>
<rect x="231.7" y="278.0" width="7.5" height="16.7" fill="#008300"/>
<rect x="245.4" y="278.8" width="7.5" height="15.8" fill="none" stroke="#e66767" stroke-width="1.3"/>
<rect x="259.1" y="242.9" width="7.5" height="35.9" fill="none" stroke="#e66767" stroke-width="1.3"/>
<rect x="272.7" y="167.5" width="7.5" height="75.4" fill="none" stroke="#e66767" stroke-width="1.3"/>
<rect x="286.4" y="167.5" width="7.5" height="20.2" fill="#008300"/>
<rect x="300.1" y="187.7" width="7.5" height="39.5" fill="#008300"/>
<rect x="313.7" y="227.1" width="7.5" height="36.8" fill="#008300"/>
<rect x="327.4" y="263.9" width="7.5" height="5.3" fill="#008300"/>
<rect x="341.1" y="269.2" width="7.5" height="7.0" fill="#008300"/>
<rect x="354.7" y="252.5" width="7.5" height="23.7" fill="none" stroke="#e66767" stroke-width="1.3"/>
<rect x="368.4" y="252.5" width="7.5" height="18.4" fill="#008300"/>
<rect x="382.1" y="271.0" width="7.5" height="7.0" fill="#008300"/>
<rect x="395.7" y="263.1" width="7.5" height="14.9" fill="none" stroke="#e66767" stroke-width="1.3"/>
<rect x="409.4" y="262.2" width="7.5" height="1.2" fill="none" stroke="#e66767" stroke-width="1.3"/>
<rect x="423.1" y="246.4" width="7.5" height="15.8" fill="none" stroke="#e66767" stroke-width="1.3"/>
<rect x="436.7" y="246.4" width="7.5" height="1.2" fill="#008300"/>
<rect x="450.4" y="247.3" width="7.5" height="21.0" fill="#008300"/>
<rect x="464.1" y="268.3" width="7.5" height="8.8" fill="#008300"/>
<rect x="477.7" y="263.9" width="7.5" height="13.2" fill="none" stroke="#e66767" stroke-width="1.3"/>
<rect x="491.4" y="263.9" width="7.5" height="4.4" fill="#008300"/>
<rect x="505.1" y="238.5" width="7.5" height="29.8" fill="none" stroke="#e66767" stroke-width="1.3"/>
<rect x="518.7" y="206.9" width="7.5" height="31.6" fill="none" stroke="#e66767" stroke-width="1.3"/>
<rect x="532.4" y="191.2" width="7.5" height="15.8" fill="none" stroke="#e66767" stroke-width="1.3"/>
<rect x="546.1" y="191.2" width="7.5" height="51.7" fill="#008300"/>
<rect x="559.7" y="228.9" width="7.5" height="14.0" fill="none" stroke="#e66767" stroke-width="1.3"/>
<rect x="573.4" y="228.9" width="7.5" height="3.5" fill="#008300"/>
<rect x="587.1" y="232.4" width="7.5" height="89.4" fill="#008300"/>
<rect x="600.7" y="297.3" width="7.5" height="24.6" fill="none" stroke="#e66767" stroke-width="1.3"/>
<rect x="614.4" y="281.5" width="7.5" height="15.8" fill="none" stroke="#e66767" stroke-width="1.3"/>
<rect x="628.1" y="89.5" width="7.5" height="192.0" fill="none" stroke="#e66767" stroke-width="1.3"/>
<rect x="641.7" y="79.8" width="7.5" height="9.6" fill="none" stroke="#e66767" stroke-width="1.3"/>
<rect x="655.4" y="79.8" width="7.5" height="135.9" fill="#008300"/>
<rect x="669.1" y="210.5" width="7.5" height="5.3" fill="none" stroke="#e66767" stroke-width="1.3"/>
<rect x="682.7" y="210.5" width="7.5" height="24.6" fill="#008300"/>
<rect x="696.4" y="200.8" width="7.5" height="34.2" fill="none" stroke="#e66767" stroke-width="1.3"/>
<rect x="710.1" y="200.8" width="7.5" height="1.8" fill="#008300"/>
<rect x="723.7" y="202.6" width="7.5" height="61.4" fill="#008300"/>
<rect x="737.4" y="243.8" width="7.5" height="20.2" fill="none" stroke="#e66767" stroke-width="1.3"/>
<rect x="751.1" y="200.8" width="7.5" height="43.0" fill="none" stroke="#e66767" stroke-width="1.3"/>
<rect x="764.7" y="131.5" width="7.5" height="69.3" fill="none" stroke="#e66767" stroke-width="1.3"/>
<rect x="778.4" y="131.5" width="7.5" height="88.6" fill="#008300"/>
<rect x="792.1" y="183.3" width="7.5" height="36.8" fill="none" stroke="#e66767" stroke-width="1.3"/>
<rect x="805.7" y="183.3" width="7.5" height="47.3" fill="#008300"/>
<rect x="819.4" y="213.1" width="7.5" height="17.5" fill="none" stroke="#e66767" stroke-width="1.3"/>
<circle cx="645.5" cy="79.8" r="2" fill="#c3c2b7"/>
<line x1="645.5" y1="79.8" x2="637.5" y2="79.8" stroke="#c3c2b7" stroke-width="1.0"/>
<text x="634.5" y="83.8" font-size="11.0" fill="#c3c2b7" text-anchor="end">315</text>
<circle cx="590.8" cy="321.8" r="2" fill="#c3c2b7"/>
<line x1="590.8" y1="321.8" x2="582.8" y2="321.8" stroke="#c3c2b7" stroke-width="1.0"/>
<text x="579.8" y="325.8" font-size="11.0" fill="#c3c2b7" text-anchor="end">39</text>
<text x="14.0" y="376.0" font-size="11.0" fill="#c3c2b7">VOL 15 forks</text>
<text x="96.6" y="376.0" font-size="11.0" fill="#c98500">MA5:15.2</text>
<text x="155.0" y="376.0" font-size="11.0" fill="#3987e5">MA10:13</text>
<text x="14.0" y="395.0" font-size="10" fill="#898781">41</text>
<rect x="13.1" y="458.0" width="7.5" height="12.0" fill="none" stroke="#e66767" stroke-width="1.1"/>
<rect x="26.7" y="454.0" width="7.5" height="16.0" fill="#008300"/>
<rect x="40.4" y="444.0" width="7.5" height="26.0" fill="#008300"/>
<rect x="54.1" y="444.0" width="7.5" height="26.0" fill="#898781"/>
<rect x="67.7" y="458.0" width="7.5" height="12.0" fill="#008300"/>
<rect x="81.4" y="466.0" width="7.5" height="4.0" fill="none" stroke="#e66767" stroke-width="1.1"/>
<rect x="95.1" y="444.0" width="7.5" height="26.0" fill="none" stroke="#e66767" stroke-width="1.1"/>
<rect x="108.7" y="428.0" width="7.5" height="42.0" fill="none" stroke="#e66767" stroke-width="1.1"/>
<rect x="122.4" y="434.0" width="7.5" height="36.0" fill="#008300"/>
<rect x="136.1" y="454.0" width="7.5" height="16.0" fill="#008300"/>
<rect x="149.7" y="464.0" width="7.5" height="6.0" fill="#008300"/>
<rect x="163.4" y="456.0" width="7.5" height="14.0" fill="#008300"/>
<rect x="177.1" y="452.0" width="7.5" height="18.0" fill="none" stroke="#e66767" stroke-width="1.1"/>
<rect x="190.7" y="456.0" width="7.5" height="14.0" fill="none" stroke="#e66767" stroke-width="1.1"/>
<rect x="204.4" y="454.0" width="7.5" height="16.0" fill="none" stroke="#e66767" stroke-width="1.1"/>
<rect x="218.1" y="446.0" width="7.5" height="24.0" fill="#008300"/>
<rect x="231.7" y="452.0" width="7.5" height="18.0" fill="#008300"/>
<rect x="245.4" y="464.0" width="7.5" height="6.0" fill="none" stroke="#e66767" stroke-width="1.1"/>
<rect x="259.1" y="442.0" width="7.5" height="28.0" fill="none" stroke="#e66767" stroke-width="1.1"/>
<rect x="272.7" y="454.0" width="7.5" height="16.0" fill="none" stroke="#e66767" stroke-width="1.1"/>
<rect x="286.4" y="444.0" width="7.5" height="26.0" fill="#008300"/>
<rect x="300.1" y="448.0" width="7.5" height="22.0" fill="#008300"/>
<rect x="313.7" y="448.0" width="7.5" height="22.0" fill="#008300"/>
<rect x="327.4" y="452.0" width="7.5" height="18.0" fill="#008300"/>
<rect x="341.1" y="454.0" width="7.5" height="16.0" fill="#008300"/>
<rect x="354.7" y="450.0" width="7.5" height="20.0" fill="none" stroke="#e66767" stroke-width="1.1"/>
<rect x="368.4" y="454.0" width="7.5" height="16.0" fill="#008300"/>
<rect x="382.1" y="438.0" width="7.5" height="32.0" fill="#008300"/>
<rect x="395.7" y="446.0" width="7.5" height="24.0" fill="none" stroke="#e66767" stroke-width="1.1"/>
<rect x="409.4" y="456.0" width="7.5" height="14.0" fill="none" stroke="#e66767" stroke-width="1.1"/>
<rect x="423.1" y="444.0" width="7.5" height="26.0" fill="none" stroke="#e66767" stroke-width="1.1"/>
<rect x="436.7" y="444.0" width="7.5" height="26.0" fill="#008300"/>
<rect x="450.4" y="456.0" width="7.5" height="14.0" fill="#008300"/>
<rect x="464.1" y="462.0" width="7.5" height="8.0" fill="#008300"/>
<rect x="477.7" y="444.0" width="7.5" height="26.0" fill="none" stroke="#e66767" stroke-width="1.1"/>
<rect x="491.4" y="452.0" width="7.5" height="18.0" fill="#008300"/>
<rect x="505.1" y="446.0" width="7.5" height="24.0" fill="none" stroke="#e66767" stroke-width="1.1"/>
<rect x="518.7" y="426.0" width="7.5" height="44.0" fill="none" stroke="#e66767" stroke-width="1.1"/>
<rect x="532.4" y="420.0" width="7.5" height="50.0" fill="none" stroke="#e66767" stroke-width="1.1"/>
<rect x="546.1" y="444.0" width="7.5" height="26.0" fill="#008300"/>
<rect x="559.7" y="444.0" width="7.5" height="26.0" fill="none" stroke="#e66767" stroke-width="1.1"/>
<rect x="573.4" y="438.0" width="7.5" height="32.0" fill="#008300"/>
<rect x="587.1" y="466.0" width="7.5" height="4.0" fill="#008300"/>
<rect x="600.7" y="454.0" width="7.5" height="16.0" fill="none" stroke="#e66767" stroke-width="1.1"/>
<rect x="614.4" y="466.0" width="7.5" height="4.0" fill="none" stroke="#e66767" stroke-width="1.1"/>
<rect x="628.1" y="426.0" width="7.5" height="44.0" fill="none" stroke="#e66767" stroke-width="1.1"/>
<rect x="641.7" y="388.0" width="7.5" height="82.0" fill="none" stroke="#e66767" stroke-width="1.1"/>
<rect x="655.4" y="442.0" width="7.5" height="28.0" fill="#008300"/>
<rect x="669.1" y="420.0" width="7.5" height="50.0" fill="none" stroke="#e66767" stroke-width="1.1"/>
<rect x="682.7" y="434.0" width="7.5" height="36.0" fill="#008300"/>
<rect x="696.4" y="444.0" width="7.5" height="26.0" fill="none" stroke="#e66767" stroke-width="1.1"/>
<rect x="710.1" y="434.0" width="7.5" height="36.0" fill="#008300"/>
<rect x="723.7" y="456.0" width="7.5" height="14.0" fill="#008300"/>
<rect x="737.4" y="460.0" width="7.5" height="10.0" fill="none" stroke="#e66767" stroke-width="1.1"/>
<rect x="751.1" y="448.0" width="7.5" height="22.0" fill="none" stroke="#e66767" stroke-width="1.1"/>
<rect x="764.7" y="420.0" width="7.5" height="50.0" fill="none" stroke="#e66767" stroke-width="1.1"/>
<rect x="778.4" y="450.0" width="7.5" height="20.0" fill="#008300"/>
<rect x="792.1" y="438.0" width="7.5" height="32.0" fill="none" stroke="#e66767" stroke-width="1.1"/>
<rect x="805.7" y="450.0" width="7.5" height="20.0" fill="#008300"/>
<rect x="819.4" y="440.0" width="7.5" height="30.0" fill="none" stroke="#e66767" stroke-width="1.1"/>
<polyline points="16.8,454.6 30.5,454.6 44.2,453.0 57.8,453.4 71.5,452.8 85.2,454.2 98.8,453.6 112.5,451.2 126.2,449.0 139.8,448.4 153.5,449.0 167.2,449.2 180.8,450.0 194.5,451.2 208.2,450.8 221.8,448.8 235.5,449.6 249.2,453.2 262.8,454.0 276.5,454.0 290.2,452.0 303.8,451.2 317.5,450.8 331.2,450.4 344.8,450.4 358.5,450.8 372.2,451.0 385.8,448.4 399.5,448.8 413.2,449.0 426.8,449.0 440.5,448.6 454.2,449.4 467.8,450.4 481.5,449.4 495.2,449.6 508.8,448.8 522.5,447.6 536.2,445.0 549.8,443.8 563.5,443.8 577.2,443.2 590.8,444.2 604.5,443.4 618.2,445.6 631.8,443.0 645.5,437.2 659.2,438.8 672.8,438.8 686.5,437.8 700.2,437.8 713.8,437.4 727.5,436.4 741.2,437.0 754.8,435.2 768.5,434.6 782.2,440.8 795.8,440.4 809.5,443.4 823.2,444.0" fill="none" stroke="#3987e5" stroke-width="1.5" stroke-linejoin="round" stroke-linecap="round"/>
<polyline points="16.8,455.2 30.5,456.0 44.2,454.4 57.8,452.0 71.5,451.6 85.2,453.2 98.8,451.2 112.5,448.0 126.2,446.0 139.8,445.2 153.5,444.8 167.2,447.2 180.8,452.0 194.5,456.4 208.2,456.4 221.8,452.8 235.5,452.0 249.2,454.4 262.8,451.6 276.5,451.6 290.2,451.2 303.8,450.4 317.5,447.2 331.2,449.2 344.8,449.2 358.5,450.4 372.2,451.6 385.8,449.6 399.5,448.4 413.2,448.8 426.8,447.6 440.5,445.6 454.2,449.2 467.8,452.4 481.5,450.0 495.2,451.6 508.8,452.0 522.5,446.0 536.2,437.6 549.8,437.6 563.5,436.0 577.2,434.4 590.8,442.4 604.5,449.2 618.2,453.6 631.8,450.0 645.5,440.0 659.2,435.2 672.8,428.4 686.5,422.0 700.2,425.6 713.8,434.8 727.5,437.6 741.2,445.6 754.8,448.4 768.5,443.6 782.2,446.8 795.8,443.2 809.5,441.2 823.2,439.6" fill="none" stroke="#c98500" stroke-width="1.5" stroke-linejoin="round" stroke-linecap="round"/>
</svg>