<svg xmlns="http://www.w3.org/2000/svg" viewBox="0 0 840 496" width="840" height="496" font-family="-apple-system,&#39;Segoe UI&#39;,system-ui,sans-serif" role="img" aria-label="nilbuild/developer-roadmap candlestick chart">
<text x="14.0" y="20.0" font-size="15" fill="#0b0b0b" font-weight="650">nilbuild/developer-roadmap</text>
<text x="232.5" y="20.0" font-size="11.5" fill="#52514e">daily · new stars, volume = new forks</text>
<text x="805.8" y="20.0" font-size="11.0" fill="#52514e">fall</text>
<rect x="791" y="10" width="9" height="12" fill="#008300"/>
<text x="750.6" y="20.0" font-size="11.0" fill="#52514e">rise</text>
<rect x="736" y="10" width="9" height="12" fill="none" stroke="#e34948" stroke-width="1.5"/>
<text x="14.0" y="38.0" font-size="11.0" fill="#898781">last 60 days · +7,381 stars · +695 forks · updated 2026-07-20</text>
<rect x="10" y="66" width="820" height="290" fill="none" stroke="#e1e0d9"/>
<rect x="10" y="384" width="820" height="86" fill="none" stroke="#e1e0d9"/>
<text x="38.0" y="490.0" font-size="11.0" fill="#898781" text-anchor="middle">2026-05</text>
<line x1="146.7" y1="66.0" x2="146.7" y2="356.0" stroke="#e1e0d9" stroke-width="1.0"/>
<line x1="146.7" y1="384.0" x2="146.7" y2="470.0" stroke="#e1e0d9" stroke-width="1.0"/>
<text x="153.5" y="490.0" font-size="11.0" fill="#898781" text-anchor="middle">2026-06</text>
<line x1="556.7" y1="66.0" x2="556.7" y2="356.0" stroke="#e1e0d9" stroke-width="1.0"/>
<line x1="556.7" y1="384.0" x2="556.7" y2="470.0" stroke="#e1e0d9" stroke-width="1.0"/>
<text x="563.5" y="490.0" font-size="11.0" fill="#898781" text-anchor="middle">2026-07</text>
<text x="14.0" y="58.0" font-size="11.0" fill="#52514e">BOLL(20,2)</text>
<text x="84.5" y="58.0" font-size="11.0" fill="#eda100">UP:295.1</text>
<text x="142.9" y="58.0" font-size="11.0" fill="#2a78d6">MID:159.9</text>
<text x="207.4" y="58.0" font-size="11.0" fill="#e87ba4">LOW:24.8</text>
<text x="265.8" y="58.0" font-size="11.0" fill="#4a3aa7">MA7:165.1</text>
<line x1="10.0" y1="356.0" x2="830.0" y2="356.0" stroke="#e1e0d9" stroke-width="1.0"/>
<text x="14.0" y="353.0" font-size="11.0" fill="#898781">0</text>
<line x1="10.0" y1="268.3" x2="830.0" y2="268.3" stroke="#e1e0d9" stroke-width="1.0"/>
<text x="14.0" y="265.3" font-size="11.0" fill="#898781">100</text>
<line x1="10.0" y1="180.6" x2="830.0" y2="180.6" stroke="#e1e0d9" stroke-width="1.0"/>
<text x="14.0" y="177.6" font-size="11.0" fill="#898781">200</text>
<line x1="10.0" y1="93.0" x2="830.0" y2="93.0" stroke="#e1e0d9" stroke-width="1.0"/>
<text x="14.0" y="90.0" font-size="11.0" fill="#898781">300</text>
<polyline points="139.8,271.0 153.5,269.9 167.2,237.9 180.8,231.0 194.5,229.4 208.2,229.2 221.8,229.5 235.5,229.3 249.2,229.0 262.8,228.2 276.5,228.2 290.2,228.3 303.8,228.2 317.5,224.6 331.2,200.9 344.8,188.4 358.5,184.9 372.2,184.8 385.8,184.9 399.5,185.6 413.2,185.4 426.8,185.4 440.5,194.7 454.2,197.1 467.8,197.1 481.5,195.9 495.2,195.3 508.8,195.4 522.5,195.3 536.2,195.3 549.8,195.4 563.5,195.0 577.2,189.5 590.8,181.8 604.5,196.6 618.2,205.7 631.8,206.5 645.5,200.4 659.2,199.1 672.8,198.9 686.5,155.5 700.2,121.1 713.8,119.0 727.5,116.5 741.2,115.9 754.8,113.0 768.5,110.5 782.2,110.6 795.8,110.8 809.5,108.6 823.2,97.2" fill="none" stroke="#eda100" stroke-width="1.5" stroke-linejoin="round" stroke-linecap="round"/>
<polyline points="139.8,285.5 153.5,285.2 167.2,280.6 180.8,277.4 194.5,275.7 208.2,275.6 221.8,276.3 235.5,275.9 249.2,275.5 262.8,274.1 276.5,273.4 290.2,274.3 303.8,273.9 317.5,271.4 331.2,265.5 344.8,261.0 358.5,258.4 372.2,257.3 385.8,256.4 399.5,255.5 413.2,253.8 426.8,253.7 440.5,257.9 454.2,259.4 467.8,259.5 481.5,258.3 495.2,256.2 508.8,255.7 522.5,255.9 536.2,255.8 549.8,255.3 563.5,252.5 577.2,248.9 590.8,246.3 604.5,250.1 618.2,252.1 631.8,252.4 645.5,255.3 659.2,256.7 672.8,257.0 686.5,248.8 700.2,239.3 713.8,236.1 727.5,233.5 741.2,232.2 754.8,229.9 768.5,227.6 782.2,227.4 795.8,225.8 809.5,222.6 823.2,215.8" fill="none" stroke="#2a78d6" stroke-width="1.5" stroke-linejoin="round" stroke-linecap="round"/>
<polyline points="139.8,300.1 153.5,300.6 167.2,323.3 180.8,323.8 194.5,322.0 208.2,322.0 221.8,323.1 235.5,322.4 249.2,321.9 262.8,319.9 276.5,318.5 290.2,320.4 303.8,319.7 317.5,318.2 331.2,330.1 344.8,333.7 358.5,331.9 372.2,329.7 385.8,328.0 399.5,325.4 413.2,322.2 426.8,322.1 440.5,321.2 454.2,321.7 467.8,321.8 481.5,320.7 495.2,317.1 508.8,316.1 522.5,316.4 536.2,316.3 549.8,315.2 563.5,310.0 577.2,308.3 590.8,310.8 604.5,303.6 618.2,298.6 631.8,298.4 645.5,310.2 659.2,314.3 672.8,315.0 686.5,342.1 700.2,356.0 713.8,353.3 727.5,350.5 741.2,348.4 754.8,346.7 768.5,344.8 782.2,344.3 795.8,340.7 809.5,336.6 823.2,334.3" fill="none" stroke="#e87ba4" stroke-width="1.5" stroke-linejoin="round" stroke-linecap="round"/>
<polyline points="16.8,282.4 30.5,284.6 44.2,287.1 57.8,287.0 71.5,286.2 85.2,284.4 98.8,283.5 112.5,285.0 126.2,286.2 139.8,285.3 153.5,283.3 167.2,271.5 180.8,264.8 194.5,261.2 208.2,258.8 221.8,257.9 235.5,256.7 249.2,257.0 262.8,267.4 276.5,273.6 290.2,278.5 303.8,279.8 317.5,273.2 331.2,257.4 344.8,245.0 358.5,239.5 372.2,237.5 385.8,233.9 399.5,233.5 413.2,234.9 426.8,249.6 440.5,262.5 454.2,267.7 467.8,267.4 481.5,264.2 495.2,260.1 508.8,262.3 522.5,263.1 536.2,261.2 549.8,261.9 563.5,258.6 577.2,252.9 590.8,244.9 604.5,241.2 618.2,234.4 631.8,229.8 645.5,237.5 659.2,245.9 672.8,256.6 686.5,242.0 700.2,218.7 713.8,216.9 727.5,213.7 741.2,201.3 754.8,187.6 768.5,176.3 782.2,201.2 795.8,224.6 809.5,222.5 823.2,211.2" fill="none" stroke="#4a3aa7" stroke-width="1.5" stroke-linejoin="round" stroke-linecap="round"/>
<rect x="13.1" y="275.3" width="7.5" height="16.7" fill="none" stroke="#e34948" stroke-width="1.3"/>
<rect x="26.7" y="275.3" width="7.5" height="11.4" fill="#008300"/>
<rect x="40.4" y="286.7" width="7.5" height="6.1" fill="#008300"/>
<rect x="54.1" y="285.9" width="7.5" height="7.0" fill="none" stroke="#e34948" stroke-width="1.3"/>
<rect x="67.7" y="277.1" width="7.5" height="8.8" fill="none" stroke="#e34948" stroke-width="1.3"/>
<rect x="81.4" y="277.1" width="7.5" height="3.5" fill="#008300"/>
<rect x="95.1" y="280.6" width="7.5" height="5.3" fill="#008300"/>
<rect x="108.7" y="285.9" width="7.5" height="1.2" fill="#898781"/>
<rect x="122.4" y="285.9" width="7.5" height="9.6" fill="#008300"/>
<rect x="136.1" y="286.7" width="7.5" height="8.8" fill="none" stroke="#e34948" stroke-width="1.3"/>
<rect x="149.7" y="271.8" width="7.5" height="14.9" fill="none" stroke="#e34948" stroke-width="1.3"/>
<rect x="163.4" y="193.8" width="7.5" height="78.0" fill="none" stroke="#e34948" stroke-width="1.3"/>
<rect x="177.1" y="193.8" width="7.5" height="40.3" fill="#008300"/>
<rect x="190.7" y="234.1" width="7.5" height="26.3" fill="#008300"/>
<rect x="204.4" y="260.4" width="7.5" height="8.8" fill="#008300"/>
<rect x="218.1" y="269.2" width="7.5" height="20.2" fill="#008300"/>
<rect x="231.7" y="278.0" width="7.5" height="11.4" fill="none" stroke="#e34948" stroke-width="1.3"/>
<rect x="245.4" y="274.5" width="7.5" height="3.5" fill="none" stroke="#e34948" stroke-width="1.3"/>
<rect x="259.1" y="265.7" width="7.5" height="8.8" fill="none" stroke="#e34948" stroke-width="1.3"/>
<rect x="272.7" y="265.7" width="7.5" height="12.3" fill="#008300"/>
<rect x="286.4" y="278.0" width="7.5" height="16.7" fill="#008300"/>
<rect x="300.1" y="278.8" width="7.5" height="15.8" fill="none" stroke="#e34948" stroke-width="1.3"/>
<rect x="313.7" y="242.9" width="7.5" height="35.9" fill="none" stroke="#e34948" stroke-width="1.3"/>
<rect x="327.4" y="167.5" width="7.5" height="75.4" fill="none" stroke="#e34948" stroke-width="1.3"/>
<rect x="341.1" y="167.5" width="7.5" height="20.2" fill="#008300"/>
<rect x="354.7" y="187.7" width="7.5" height="39.5" fill="#008300"/>
<rect x="368.4" y="227.1" width="7.5" height="36.8" fill="#008300"/>
<rect x="382.1" y="263.9" width="7.5" height="5.3" fill="#008300"/>
<rect x="395.7" y="269.2" width="7.5" height="7.0" fill="#008300"/>
<rect x="409.4" y="252.5" width="7.5" height="23.7" fill="none" stroke="#e34948" stroke-width="1.3"/>
<rect x="423.1" y="252.5" width="7.5" height="18.4" fill="#008300"/>
<rect x="436.7" y="271.0" width="7.5" height="7.0" fill="#008300"/>
<rect x="450.4" y="263.1" width="7.5" height="14.9" fill="none" stroke="#e34948" stroke-width="1.3"/>
<rect x="464.1" y="262.2" width="7.5" height="1.2" fill="none" stroke="#e34948" stroke-width="1.3"/>
<rect x="477.7" y="246.4" width="7.5" height="15.8" fill="none" stroke="#e34948" stroke-width="1.3"/>
<rect x="491.4" y="246.4" width="7.5" height="1.2" fill="#008300"/>
<rect x="505.1" y="247.3" width="7.5" height="21.0" fill="#008300"/>
<rect x="518.7" y="268.3" width="7.5" height="8.8" fill="#008300"/>
<rect x="532.4" y="263.9" width="7.5" height="13.2" fill="none" stroke="#e34948" stroke-width="1.3"/>
<rect x="546.1" y="263.9" width="7.5" height="4.4" fill="#008300"/>
<rect x="559.7" y="238.5" width="7.5" height="29.8" fill="none" stroke="#e34948" stroke-width="1.3"/>
<rect x="573.4" y="206.9" width="7.5" height="31.6" fill="none" stroke="#e34948" stroke-width="1.3"/>
<rect x="587.1" y="191.2" width="7.5" height="15.8" fill="none" stroke="#e34948" stroke-width="1.3"/>
<rect x="600.7" y="191.2" width="7.5" height="51.7" fill="#008300"/>
<rect x="614.4" y="228.9" width="7.5" height="14.0" fill="none" stroke="#e34948" stroke-width="1.3"/>
<rect x="628.1" y="228.9" width="7.5" height="3.5" fill="#008300"/>
<rect x="641.7" y="232.4" width="7.5" height="89.4" fill="#008300"/>
<rect x="655.4" y="297.3" width="7.5" height="24.6" fill="none" stroke="#e34948" stroke-width="1.3"/>
<rect x="669.1" y="281.5" width="7.5" height="15.8" fill="none" stroke="#e34948" stroke-width="1.3"/>
<rect x="682.7" y="89.5" width="7.5" height="192.0" fill="none" stroke="#e34948" stroke-width="1.3"/>
<rect x="696.4" y="79.8" width="7.5" height="9.6" fill="none" stroke="#e34948" stroke-width="1.3"/>
<rect x="710.1" y="79.8" width="7.5" height="135.9" fill="#008300"/>
<rect x="723.7" y="210.5" width="7.5" height="5.3" fill="none" stroke="#e34948" stroke-width="1.3"/>
<rect x="737.4" y="210.5" width="7.5" height="24.6" fill="#008300"/>
<rect x="751.1" y="200.8" width="7.5" height="34.2" fill="none" stroke="#e34948" stroke-width="1.3"/>
<rect x="764.7" y="200.8" width="7.5" height="1.8" fill="#008300"/>
<rect x="778.4" y="202.6" width="7.5" height="61.4" fill="#008300"/>
<rect x="792.1" y="243.8" width="7.5" height="20.2" fill="none" stroke="#e34948" stroke-width="1.3"/>
<rect x="805.7" y="200.8" width="7.5" height="43.0" fill="none" stroke="#e34948" stroke-width="1.3"/>
<rect x="819.4" y="131.5" width="7.5" height="69.3" fill="none" stroke="#e34948" stroke-width="1.3"/>
<circle cx="700.2" cy="79.8" r="2" fill="#52514e"/>
<line x1="700.2" y1="79.8" x2="692.2" y2="79.8" stroke="#52514e" stroke-width="1.0"/>
<text x="689.2" y="83.8" font-size="11.0" fill="#52514e" text-anchor="end">315</text>
<circle cx="645.5" cy="321.8" r="2" fill="#52514e"/>
<line x1="645.5" y1="321.8" x2="637.5" y2="321.8" stroke="#52514e" stroke-width="1.0"/>
<text x="634.5" y="325.8" font-size="11.0" fill="#52514e" text-anchor="end">39</text>
<text x="14.0" y="376.0" font-size="11.0" fill="#52514e">VOL 25 forks</text>
<text x="96.6" y="376.0" font-size="11.0" fill="#eda100">MA5:13.2</text>
<text x="155.0" y="376.0" font-size="11.0" fill="#2a78d6">MA10:17.7</text>
<text x="14.0" y="395.0" font-size="10" fill="#898781">41</text>
<rect x="13.1" y="450.0" width="7.5" height="20.0" fill="none" stroke="#e34948" stroke-width="1.1"/>
<rect x="26.7" y="452.0" width="7.5" height="18.0" fill="#008300"/>
<rect x="40.4" y="456.0" width="7.5" height="14.0" fill="#008300"/>
<rect x="54.1" y="460.0" width="7.5" height="10.0" fill="none" stroke="#e34948" stroke-width="1.1"/>
<rect x="67.7" y="458.0" width="7.5" height="12.0" fill="none" stroke="#e34948" stroke-width="1.1"/>
<rect x="81.4" y="454.0" width="7.5" height="16.0" fill="#008300"/>
<rect x="95.1" y="444.0" width="7.5" height="26.0" fill="#008300"/>
<rect x="108.7" y="444.0" width="7.5" height="26.0" fill="#898781"/>
<rect x="122.4" y="458.0" width="7.5" height="12.0" fill="#008300"/>
<rect x="136.1" y="466.0" width="7.5" height="4.0" fill="none" stroke="#e34948" stroke-width="1.1"/>
<rect x="149.7" y="444.0" width="7.5" height="26.0" fill="none" stroke="#e34948" stroke-width="1.1"/>
<rect x="163.4" y="428.0" width="7.5" height="42.0" fill="none" stroke="#e34948" stroke-width="1.1"/>
<rect x="177.1" y="434.0" width="7.5" height="36.0" fill="#008300"/>
<rect x="190.7" y="454.0" width="7.5" height="16.0" fill="#008300"/>
<rect x="204.4" y="464.0" width="7.5" height="6.0" fill="#008300"/>
<rect x="218.1" y="456.0" width="7.5" height="14.0" fill="#008300"/>
<rect x="231.7" y="452.0" width="7.5" height="18.0" fill="none" stroke="#e34948" stroke-width="1.1"/>
<rect x="245.4" y="456.0" width="7.5" height="14.0" fill="none" stroke="#e34948" stroke-width="1.1"/>
<rect x="259.1" y="454.0" width="7.5" height="16.0" fill="none" stroke="#e34948" stroke-width="1.1"/>
<rect x="272.7" y="446.0" width="7.5" height="24.0" fill="#008300"/>
<rect x="286.4" y="452.0" width="7.5" height="18.0" fill="#008300"/>
<rect x="300.1" y="464.0" width="7.5" height="6.0" fill="none" stroke="#e34948" stroke-width="1.1"/>
<rect x="313.7" y="442.0" width="7.5" height="28.0" fill="none" stroke="#e34948" stroke-width="1.1"/>
<rect x="327.4" y="454.0" width="7.5" height="16.0" fill="none" stroke="#e34948" stroke-width="1.1"/>
<rect x="341.1" y="444.0" width="7.5" height="26.0" fill="#008300"/>
<rect x="354.7" y="448.0" width="7.5" height="22.0" fill="#008300"/>
<rect x="368.4" y="448.0" width="7.5" height="22.0" fill="#008300"/>
<rect x="382.1" y="452.0" width="7.5" height="18.0" fill="#008300"/>
<rect x="395.7" y="454.0" width="7.5" height="16.0" fill="#008300"/>
<rect x="409.4" y="450.0" width="7.5" height="20.0" fill="none" stroke="#e34948" stroke-width="1.1"/>
<rect x="423.1" y="454.0" width="7.5" height="16.0" fill="#008300"/>
<rect x="436.7" y="438.0" width="7.5" height="32.0" fill="#008300"/>
<rect x="450.4" y="446.0" width="7.5" height="24.0" fill="none" stroke="#e34948" stroke-width="1.1"/>
<rect x="464.1" y="456.0" width="7.5" height="14.0" fill="none" stroke="#e34948" stroke-width="1.1"/>
<rect x="477.7" y="444.0" width="7.5" height="26.0" fill="none" stroke="#e34948" stroke-width="1.1"/>
<rect x="491.4" y="444.0" width="7.5" height="26.0" fill="#008300"/>
<rect x="505.1" y="456.0" width="7.5" height="14.0" fill="#008300"/>
<rect x="518.7" y="462.0" width="7.5" height="8.0" fill="#008300"/>
<rect x="532.4" y="444.0" width="7.5" height="26.0" fill="none" stroke="#e34948" stroke-width="1.1"/>
<rect x="546.1" y="452.0" width="7.5" height="18.0" fill="#008300"/>
<rect x="559.7" y="446.0" width="7.5" height="24.0" fill="none" stroke="#e34948" stroke-width="1.1"/>
<rect x="573.4" y="426.0" width="7.5" height="44.0" fill="none" stroke="#e34948" stroke-width="1.1"/>
<rect x="587.1" y="420.0" width="7.5" height="50.0" fill="none" stroke="#e34948" stroke-width="1.1"/>
<rect x="600.7" y="444.0" width="7.5" height="26.0" fill="#008300"/>
<rect x="614.4" y="444.0" width="7.5" height="26.0" fill="none" stroke="#e34948" stroke-width="1.1"/>
<rect x="628.1" y="438.0" width="7.5" height="32.0" fill="#008300"/>
<rect x="641.7" y="466.0" width="7.5" height="4.0" fill="#008300"/>
<rect x="655.4" y="454.0" width="7.5" height="16.0" fill="none" stroke="#e34948" stroke-width="1.1"/>
<rect x="669.1" y="466.0" width="7.5" height="4.0" fill="none" stroke="#e34948" stroke-width="1.1"/>
<rect x="682.7" y="426.0" width="7.5" height="44.0" fill="none" stroke="#e34948" stroke-width="1.1"/>
<rect x="696.4" y="388.0" width="7.5" height="82.0" fill="none" stroke="#e34948" stroke-width="1.1"/>
<rect x="710.1" y="442.0" width="7.5" height="28.0" fill="#008300"/>
<rect x="723.7" y="420.0" width="7.5" height="50.0" fill="none" stroke="#e34948" stroke-width="1.1"/>
<rect x="737.4" y="434.0" width="7.5" height="36.0" fill="#008300"/>
<rect x="751.1" y="444.0" width="7.5" height="26.0" fill="none" stroke="#e34948" stroke-width="1.1"/>
<rect x="764.7" y="434.0" width="7.5" height="36.0" fill="#008300"/>
<rect x="778.4" y="456.0" width="7.5" height="14.0" fill="#008300"/>
<rect x="792.1" y="460.0" width="7.5" height="10.0" fill="none" stroke="#e34948" stroke-width="1.1"/>
<rect x="805.7" y="448.0" width="7.5" height="22.0" fill="none" stroke="#e34948" stroke-width="1.1"/>
<rect x="819.4" y="420.0" width="7.5" height="50.0" fill="none" stroke="#e34948" stroke-width="1.1"/>
<polyline points="16.8,453.2 30.5,453.0 44.2,453.0 57.8,453.2 71.5,454.6 85.2,454.6 98.8,453.0 112.5,453.4 126.2,452.8 139.8,454.2 153.5,453.6 167.2,451.2 180.8,449.0 194.5,448.4 208.2,449.0 221.8,449.2 235.5,450.0 249.2,451.2 262.8,450.8 276.5,448.8 290.2,449.6 303.8,453.2 317.5,454.0 331.2,454.0 344.8,452.0 358.5,451.2 372.2,450.8 385.8,450.4 399.5,450.4 413.2,450.8 426.8,451.0 440.5,448.4 454.2,448.8 467.8,449.0 481.5,449.0 495.2,448.6 508.8,449.4 522.5,450.4 536.2,449.4 549.8,449.6 563.5,448.8 577.2,447.6 590.8,445.0 604.5,443.8 618.2,443.8 631.8,443.2 645.5,444.2 659.2,443.4 672.8,445.6 686.5,443.0 700.2,437.2 713.8,438.8 727.5,438.8 741.2,437.8 754.8,437.8 768.5,437.4 782.2,436.4 795.8,437.0 809.5,435.2 823.2,434.6" fill="none" stroke="#2a78d6" stroke-width="1.5" stroke-linejoin="round" stroke-linecap="round"/>
<polyline points="16.8,453.2 30.5,451.6 44.2,454.8 57.8,454.0 71.5,455.2 85.2,456.0 98.8,454.4 112.5,452.0 126.2,451.6 139.8,453.2 153.5,451.2 167.2,448.0 180.8,446.0 194.5,445.2 208.2,444.8 221.8,447.2 235.5,452.0 249.2,456.4 262.8,456.4 276.5,452.8 290.2,452.0 303.8,454.4 317.5,451.6 331.2,451.6 344.8,451.2 358.5,450.4 372.2,447.2 385.8,449.2 399.5,449.2 413.2,450.4 426.8,451.6 440.5,449.6 454.2,448.4 467.8,448.8 481.5,447.6 495.2,445.6 508.8,449.2 522.5,452.4 536.2,450.0 549.8,451.6 563.5,452.0 577.2,446.0 590.8,437.6 604.5,437.6 618.2,436.0 631.8,434.4 645.5,442.4 659.2,449.2 672.8,453.6 686.5,450.0 700.2,440.0 713.8,435.2 727.5,428.4 741.2,422.0 754.8,425.6 768.5,434.8 782.2,437.6 795.8,445.6 809.5,448.4 823.2,443.6" fill="none" stroke="#eda100" stroke-width="1.5" stroke-linejoin="round" stroke-linecap="round"/>
</svg>