<svg xmlns="http://www.w3.org/2000/svg" viewBox="0 0 840 496" width="840" height="496" font-family="-apple-system,&#39;Segoe UI&#39;,system-ui,sans-serif" role="img" aria-label="nilbuild/developer-roadmap candlestick chart">
<text x="14.0" y="20.0" font-size="15" fill="#ffffff" font-weight="650">nilbuild/developer-roadmap</text>
<text x="232.5" y="20.0" font-size="11.5" fill="#c3c2b7">daily · new stars, volume = new forks</text>
<text x="805.8" y="20.0" font-size="11.0" fill="#c3c2b7">fall</text>
<rect x="791" y="10" width="9" height="12" fill="#008300"/>
<text x="750.6" y="20.0" font-size="11.0" fill="#c3c2b7">rise</text>
<rect x="736" y="10" width="9" height="12" fill="none" stroke="#e66767" stroke-width="1.5"/>
<text x="14.0" y="38.0" font-size="11.0" fill="#898781">last 60 days · +6,939 stars · +669 forks · updated 2026-07-15</text>
<rect x="10" y="66" width="820" height="290" fill="none" stroke="#2c2c2a"/>
<rect x="10" y="384" width="820" height="86" fill="none" stroke="#2c2c2a"/>
<text x="38.0" y="490.0" font-size="11.0" fill="#898781" text-anchor="middle">2026-05</text>
<line x1="215.0" y1="66.0" x2="215.0" y2="356.0" stroke="#2c2c2a" stroke-width="1.0"/>
<line x1="215.0" y1="384.0" x2="215.0" y2="470.0" stroke="#2c2c2a" stroke-width="1.0"/>
<text x="221.8" y="490.0" font-size="11.0" fill="#898781" text-anchor="middle">2026-06</text>
<line x1="625.0" y1="66.0" x2="625.0" y2="356.0" stroke="#2c2c2a" stroke-width="1.0"/>
<line x1="625.0" y1="384.0" x2="625.0" y2="470.0" stroke="#2c2c2a" stroke-width="1.0"/>
<text x="631.8" y="490.0" font-size="11.0" fill="#898781" text-anchor="middle">2026-07</text>
<text x="14.0" y="58.0" font-size="11.0" fill="#c3c2b7">BOLL(20,2)</text>
<text x="84.5" y="58.0" font-size="11.0" fill="#c98500">UP:277.1</text>
<text x="142.9" y="58.0" font-size="11.0" fill="#3987e5">MID:143.8</text>
<text x="207.4" y="58.0" font-size="11.0" fill="#d55181">LOW:10.6</text>
<text x="265.8" y="58.0" font-size="11.0" fill="#9085e9">MA7:192.1</text>
<line x1="10.0" y1="356.0" x2="830.0" y2="356.0" stroke="#2c2c2a" stroke-width="1.0"/>
<text x="14.0" y="353.0" font-size="11.0" fill="#898781">0</text>
<line x1="10.0" y1="268.3" x2="830.0" y2="268.3" stroke="#2c2c2a" stroke-width="1.0"/>
<text x="14.0" y="265.3" font-size="11.0" fill="#898781">100</text>
<line x1="10.0" y1="180.6" x2="830.0" y2="180.6" stroke="#2c2c2a" stroke-width="1.0"/>
<text x="14.0" y="177.6" font-size="11.0" fill="#898781">200</text>
<line x1="10.0" y1="93.0" x2="830.0" y2="93.0" stroke="#2c2c2a" stroke-width="1.0"/>
<text x="14.0" y="90.0" font-size="11.0" fill="#898781">300</text>
<polyline points="208.2,271.0 221.8,269.9 235.5,237.9 249.2,231.0 262.8,229.4 276.5,229.2 290.2,229.5 303.8,229.3 317.5,229.0 331.2,228.2 344.8,228.2 358.5,228.3 372.2,228.2 385.8,224.6 399.5,200.9 413.2,188.4 426.8,184.9 440.5,184.8 454.2,184.9 467.8,185.6 481.5,185.4 495.2,185.4 508.8,194.7 522.5,197.1 536.2,197.1 549.8,195.9 563.5,195.3 577.2,195.4 590.8,195.3 604.5,195.3 618.2,195.4 631.8,195.0 645.5,189.5 659.2,181.8 672.8,196.6 686.5,205.7 700.2,206.5 713.8,200.4 727.5,199.1 741.2,198.9 754.8,155.5 768.5,121.1 782.2,119.0 795.8,116.5 809.5,115.9 823.2,113.0" fill="none" stroke="#c98500" stroke-width="1.5" stroke-linejoin="round" stroke-linecap="round"/>
<polyline points="208.2,285.5 221.8,285.2 235.5,280.6 249.2,277.4 262.8,275.7 276.5,275.6 290.2,276.3 303.8,275.9 317.5,275.5 331.2,274.1 344.8,273.4 358.5,274.3 372.2,273.9 385.8,271.4 399.5,265.5 413.2,261.0 426.8,258.4 440.5,257.3 454.2,256.4 467.8,255.5 481.5,253.8 495.2,253.7 508.8,257.9 522.5,259.4 536.2,259.5 549.8,258.3 563.5,256.2 577.2,255.7 590.8,255.9 604.5,255.8 618.2,255.3 631.8,252.5 645.5,248.9 659.2,246.3 672.8,250.1 686.5,252.1 700.2,252.4 713.8,255.3 727.5,256.7 741.2,257.0 754.8,248.8 768.5,239.3 782.2,236.1 795.8,233.5 809.5,232.2 823.2,229.9" fill="none" stroke="#3987e5" stroke-width="1.5" stroke-linejoin="round" stroke-linecap="round"/>
<polyline points="208.2,300.1 221.8,300.6 235.5,323.3 249.2,323.8 262.8,322.0 276.5,322.0 290.2,323.1 303.8,322.4 317.5,321.9 331.2,319.9 344.8,318.5 358.5,320.4 372.2,319.7 385.8,318.2 399.5,330.1 413.2,333.7 426.8,331.9 440.5,329.7 454.2,328.0 467.8,325.4 481.5,322.2 495.2,322.1 508.8,321.2 522.5,321.7 536.2,321.8 549.8,320.7 563.5,317.1 577.2,316.1 590.8,316.4 604.5,316.3 618.2,315.2 631.8,310.0 645.5,308.3 659.2,310.8 672.8,303.6 686.5,298.6 700.2,298.4 713.8,310.2 727.5,314.3 741.2,315.0 754.8,342.1 768.5,356.0 782.2,353.3 795.8,350.5 809.5,348.4 823.2,346.7" fill="none" stroke="#d55181" stroke-width="1.5" stroke-linejoin="round" stroke-linecap="round"/>
<polyline points="30.5,284.4 44.2,285.0 57.8,285.9 71.5,285.1 85.2,282.4 98.8,284.6 112.5,287.1 126.2,287.0 139.8,286.2 153.5,284.4 167.2,283.5 180.8,285.0 194.5,286.2 208.2,285.3 221.8,283.3 235.5,271.5 249.2,264.8 262.8,261.2 276.5,258.8 290.2,257.9 303.8,256.7 317.5,257.0 331.2,267.4 344.8,273.6 358.5,278.5 372.2,279.8 385.8,273.2 399.5,257.4 413.2,245.0 426.8,239.5 440.5,237.5 454.2,233.9 467.8,233.5 481.5,234.9 495.2,249.6 508.8,262.5 522.5,267.7 536.2,267.4 549.8,264.2 563.5,260.1 577.2,262.3 590.8,263.1 604.5,261.2 618.2,261.9 631.8,258.6 645.5,252.9 659.2,244.9 672.8,241.2 686.5,234.4 700.2,229.8 713.8,237.5 727.5,245.9 741.2,256.6 754.8,242.0 768.5,218.7 782.2,216.9 795.8,213.7 809.5,201.3 823.2,187.6" fill="none" stroke="#9085e9" stroke-width="1.5" stroke-linejoin="round" stroke-linecap="round"/>
<rect x="13.1" y="271.8" width="7.5" height="3.5" fill="#008300"/>
<rect x="26.7" y="275.3" width="7.5" height="11.4" fill="#008300"/>
<rect x="40.4" y="282.3" width="7.5" height="4.4" fill="none" stroke="#e66767" stroke-width="1.3"/>
<rect x="54.1" y="282.3" width="7.5" height="11.4" fill="#008300"/>
<rect x="67.7" y="292.0" width="7.5" height="1.8" fill="none" stroke="#e66767" stroke-width="1.3"/>
<rect x="81.4" y="275.3" width="7.5" height="16.7" fill="none" stroke="#e66767" stroke-width="1.3"/>
<rect x="95.1" y="275.3" width="7.5" height="11.4" fill="#008300"/>
<rect x="108.7" y="286.7" width="7.5" height="6.1" fill="#008300"/>
<rect x="122.4" y="285.9" width="7.5" height="7.0" fill="none" stroke="#e66767" stroke-width="1.3"/>
<rect x="136.1" y="277.1" width="7.5" height="8.8" fill="none" stroke="#e66767" stroke-width="1.3"/>
<rect x="149.7" y="277.1" width="7.5" height="3.5" fill="#008300"/>
<rect x="163.4" y="280.6" width="7.5" height="5.3" fill="#008300"/>
<rect x="177.1" y="285.9" width="7.5" height="1.2" fill="#898781"/>
<rect x="190.7" y="285.9" width="7.5" height="9.6" fill="#008300"/>
<rect x="204.4" y="286.7" width="7.5" height="8.8" fill="none" stroke="#e66767" stroke-width="1.3"/>
<rect x="218.1" y="271.8" width="7.5" height="14.9" fill="none" stroke="#e66767" stroke-width="1.3"/>
<rect x="231.7" y="193.8" width="7.5" height="78.0" fill="none" stroke="#e66767" stroke-width="1.3"/>
<rect x="245.4" y="193.8" width="7.5" height="40.3" fill="#008300"/>
<rect x="259.1" y="234.1" width="7.5" height="26.3" fill="#008300"/>
<rect x="272.7" y="260.4" width="7.5" height="8.8" fill="#008300"/>
<rect x="286.4" y="269.2" width="7.5" height="20.2" fill="#008300"/>
<rect x="300.1" y="278.0" width="7.5" height="11.4" fill="none" stroke="#e66767" stroke-width="1.3"/>
<rect x="313.7" y="274.5" width="7.5" height="3.5" fill="none" stroke="#e66767" stroke-width="1.3"/>
<rect x="327.4" y="265.7" width="7.5" height="8.8" fill="none" stroke="#e66767" stroke-width="1.3"/>
<rect x="341.1" y="265.7" width="7.5" height="12.3" fill="#008300"/>
<rect x="354.7" y="278.0" width="7.5" height="16.7" fill="#008300"/>
<rect x="368.4" y="278.8" width="7.5" height="15.8" fill="none" stroke="#e66767" stroke-width="1.3"/>
<rect x="382.1" y="242.9" width="7.5" height="35.9" fill="none" stroke="#e66767" stroke-width="1.3"/>
<rect x="395.7" y="167.5" width="7.5" height="75.4" fill="none" stroke="#e66767" stroke-width="1.3"/>
<rect x="409.4" y="167.5" width="7.5" height="20.2" fill="#008300"/>
<rect x="423.1" y="187.7" width="7.5" height="39.5" fill="#008300"/>
<rect x="436.7" y="227.1" width="7.5" height="36.8" fill="#008300"/>
<rect x="450.4" y="263.9" width="7.5" height="5.3" fill="#008300"/>
<rect x="464.1" y="269.2" width="7.5" height="7.0" fill="#008300"/>
<rect x="477.7" y="252.5" width="7.5" height="23.7" fill="none" stroke="#e66767" stroke-width="1.3"/>
<rect x="491.4" y="252.5" width="7.5" height="18.4" fill="#008300"/>
<rect x="505.1" y="271.0" width="7.5" height="7.0" fill="#008300"/>
<rect x="518.7" y="263.1" width="7.5" height="14.9" fill="none" stroke="#e66767" stroke-width="1.3"/>
<rect x="532.4" y="262.2" width="7.5" height="1.2" fill="none" stroke="#e66767" stroke-width="1.3"/>
<rect x="546.1" y="246.4" width="7.5" height="15.8" fill="none" stroke="#e66767" stroke-width="1.3"/>
<rect x="559.7" y="246.4" width="7.5" height="1.2" fill="#008300"/>
<rect x="573.4" y="247.3" width="7.5" height="21.0" fill="#008300"/>
<rect x="587.1" y="268.3" width="7.5" height="8.8" fill="#008300"/>
<rect x="600.7" y="263.9" width="7.5" height="13.2" fill="none" stroke="#e66767" stroke-width="1.3"/>
<rect x="614.4" y="263.9" width="7.5" height="4.4" fill="#008300"/>
<rect x="628.1" y="238.5" width="7.5" height="29.8" fill="none" stroke="#e66767" stroke-width="1.3"/>
<rect x="641.7" y="206.9" width="7.5" height="31.6" fill="none" stroke="#e66767" stroke-width="1.3"/>
<rect x="655.4" y="191.2" width="7.5" height="15.8" fill="none" stroke="#e66767" stroke-width="1.3"/>
<rect x="669.1" y="191.2" width="7.5" height="51.7" fill="#008300"/>
<rect x="682.7" y="228.9" width="7.5" height="14.0" fill="none" stroke="#e66767" stroke-width="1.3"/>
<rect x="696.4" y="228.9" width="7.5" height="3.5" fill="#008300"/>
<rect x="710.1" y="232.4" width="7.5" height="89.4" fill="#008300"/>
<rect x="723.7" y="297.3" width="7.5" height="24.6" fill="none" stroke="#e66767" stroke-width="1.3"/>
<rect x="737.4" y="281.5" width="7.5" height="15.8" fill="none" stroke="#e66767" stroke-width="1.3"/>
<rect x="751.1" y="89.5" width="7.5" height="192.0" fill="none" stroke="#e66767" stroke-width="1.3"/>
<rect x="764.7" y="79.8" width="7.5" height="9.6" fill="none" stroke="#e66767" stroke-width="1.3"/>
<rect x="778.4" y="79.8" width="7.5" height="135.9" fill="#008300"/>
<rect x="792.1" y="210.5" width="7.5" height="5.3" fill="none" stroke="#e66767" stroke-width="1.3"/>
<rect x="805.7" y="210.5" width="7.5" height="24.6" fill="#008300"/>
<rect x="819.4" y="200.8" width="7.5" height="34.2" fill="none" stroke="#e66767" stroke-width="1.3"/>
<circle cx="768.5" cy="79.8" r="2" fill="#c3c2b7"/>
<line x1="768.5" y1="79.8" x2="760.5" y2="79.8" stroke="#c3c2b7" stroke-width="1.0"/>
<text x="757.5" y="83.8" font-size="11.0" fill="#c3c2b7" text-anchor="end">315</text>
<circle cx="713.8" cy="321.8" r="2" fill="#c3c2b7"/>
<line x1="713.8" y1="321.8" x2="705.8" y2="321.8" stroke="#c3c2b7" stroke-width="1.0"/>
<text x="702.8" y="325.8" font-size="11.0" fill="#c3c2b7" text-anchor="end">39</text>
<text x="14.0" y="376.0" font-size="11.0" fill="#c3c2b7">VOL 13 forks</text>
<text x="96.6" y="376.0" font-size="11.0" fill="#c98500">MA5:22.2</text>
<text x="155.0" y="376.0" font-size="11.0" fill="#3987e5">MA10:16.1</text>
<text x="14.0" y="395.0" font-size="10" fill="#898781">41</text>
<rect x="13.1" y="454.0" width="7.5" height="16.0" fill="#008300"/>
<rect x="26.7" y="460.0" width="7.5" height="10.0" fill="#008300"/>
<rect x="40.4" y="440.0" width="7.5" height="30.0" fill="none" stroke="#e66767" stroke-width="1.1"/>
<rect x="54.1" y="464.0" width="7.5" height="6.0" fill="#008300"/>
<rect x="67.7" y="452.0" width="7.5" height="18.0" fill="none" stroke="#e66767" stroke-width="1.1"/>
<rect x="81.4" y="450.0" width="7.5" height="20.0" fill="none" stroke="#e66767" stroke-width="1.1"/>
<rect x="95.1" y="452.0" width="7.5" height="18.0" fill="#008300"/>
<rect x="108.7" y="456.0" width="7.5" height="14.0" fill="#008300"/>
<rect x="122.4" y="460.0" width="7.5" height="10.0" fill="none" stroke="#e66767" stroke-width="1.1"/>
<rect x="136.1" y="458.0" width="7.5" height="12.0" fill="none" stroke="#e66767" stroke-width="1.1"/>
<rect x="149.7" y="454.0" width="7.5" height="16.0" fill="#008300"/>
<rect x="163.4" y="444.0" width="7.5" height="26.0" fill="#008300"/>
<rect x="177.1" y="444.0" width="7.5" height="26.0" fill="#898781"/>
<rect x="190.7" y="458.0" width="7.5" height="12.0" fill="#008300"/>
<rect x="204.4" y="466.0" width="7.5" height="4.0" fill="none" stroke="#e66767" stroke-width="1.1"/>
<rect x="218.1" y="444.0" width="7.5" height="26.0" fill="none" stroke="#e66767" stroke-width="1.1"/>
<rect x="231.7" y="428.0" width="7.5" height="42.0" fill="none" stroke="#e66767" stroke-width="1.1"/>
<rect x="245.4" y="434.0" width="7.5" height="36.0" fill="#008300"/>
<rect x="259.1" y="454.0" width="7.5" height="16.0" fill="#008300"/>
<rect x="272.7" y="464.0" width="7.5" height="6.0" fill="#008300"/>
<rect x="286.4" y="456.0" width="7.5" height="14.0" fill="#008300"/>
<rect x="300.1" y="452.0" width="7.5" height="18.0" fill="none" stroke="#e66767" stroke-width="1.1"/>
<rect x="313.7" y="456.0" width="7.5" height="14.0" fill="none" stroke="#e66767" stroke-width="1.1"/>
<rect x="327.4" y="454.0" width="7.5" height="16.0" fill="none" stroke="#e66767" stroke-width="1.1"/>
<rect x="341.1" y="446.0" width="7.5" height="24.0" fill="#008300"/>
<rect x="354.7" y="452.0" width="7.5" height="18.0" fill="#008300"/>
<rect x="368.4" y="464.0" width="7.5" height="6.0" fill="none" stroke="#e66767" stroke-width="1.1"/>
<rect x="382.1" y="442.0" width="7.5" height="28.0" fill="none" stroke="#e66767" stroke-width="1.1"/>
<rect x="395.7" y="454.0" width="7.5" height="16.0" fill="none" stroke="#e66767" stroke-width="1.1"/>
<rect x="409.4" y="444.0" width="7.5" height="26.0" fill="#008300"/>
<rect x="423.1" y="448.0" width="7.5" height="22.0" fill="#008300"/>
<rect x="436.7" y="448.0" width="7.5" height="22.0" fill="#008300"/>
<rect x="450.4" y="452.0" width="7.5" height="18.0" fill="#008300"/>
<rect x="464.1" y="454.0" width="7.5" height="16.0" fill="#008300"/>
<rect x="477.7" y="450.0" width="7.5" height="20.0" fill="none" stroke="#e66767" stroke-width="1.1"/>
<rect x="491.4" y="454.0" width="7.5" height="16.0" fill="#008300"/>
<rect x="505.1" y="438.0" width="7.5" height="32.0" fill="#008300"/>
<rect x="518.7" y="446.0" width="7.5" height="24.0" fill="none" stroke="#e66767" stroke-width="1.1"/>
<rect x="532.4" y="456.0" width="7.5" height="14.0" fill="none" stroke="#e66767" stroke-width="1.1"/>
<rect x="546.1" y="444.0" width="7.5" height="26.0" fill="none" stroke="#e66767" stroke-width="1.1"/>
<rect x="559.7" y="444.0" width="7.5" height="26.0" fill="#008300"/>
<rect x="573.4" y="456.0" width="7.5" height="14.0" fill="#008300"/>
<rect x="587.1" y="462.0" width="7.5" height="8.0" fill="#008300"/>
<rect x="600.7" y="444.0" width="7.5" height="26.0" fill="none" stroke="#e66767" stroke-width="1.1"/>
<rect x="614.4" y="452.0" width="7.5" height="18.0" fill="#008300"/>
<rect x="628.1" y="446.0" width="7.5" height="24.0" fill="none" stroke="#e66767" stroke-width="1.1"/>
<rect x="641.7" y="426.0" width="7.5" height="44.0" fill="none" stroke="#e66767" stroke-width="1.1"/>
<rect x="655.4" y="420.0" width="7.5" height="50.0" fill="none" stroke="#e66767" stroke-width="1.1"/>
<rect x="669.1" y="444.0" width="7.5" height="26.0" fill="#008300"/>
<rect x="682.7" y="444.0" width="7.5" height="26.0" fill="none" stroke="#e66767" stroke-width="1.1"/>
<rect x="696.4" y="438.0" width="7.5" height="32.0" fill="#008300"/>
<rect x="710.1" y="466.0" width="7.5" height="4.0" fill="#008300"/>
<rect x="723.7" y="454.0" width="7.5" height="16.0" fill="none" stroke="#e66767" stroke-width="1.1"/>
<rect x="737.4" y="466.0" width="7.5" height="4.0" fill="none" stroke="#e66767" stroke-width="1.1"/>
<rect x="751.1" y="426.0" width="7.5" height="44.0" fill="none" stroke="#e66767" stroke-width="1.1"/>
<rect x="764.7" y="388.0" width="7.5" height="82.0" fill="none" stroke="#e66767" stroke-width="1.1"/>
<rect x="778.4" y="442.0" width="7.5" height="28.0" fill="#008300"/>
<rect x="792.1" y="420.0" width="7.5" height="50.0" fill="none" stroke="#e66767" stroke-width="1.1"/>
<rect x="805.7" y="434.0" width="7.5" height="36.0" fill="#008300"/>
<rect x="819.4" y="444.0" width="7.5" height="26.0" fill="none" stroke="#e66767" stroke-width="1.1"/>
<polyline points="71.5,454.0 85.2,453.2 98.8,453.0 112.5,453.0 126.2,453.2 139.8,454.6 153.5,454.6 167.2,453.0 180.8,453.4 194.5,452.8 208.2,454.2 221.8,453.6 235.5,451.2 249.2,449.0 262.8,448.4 276.5,449.0 290.2,449.2 303.8,450.0 317.5,451.2 331.2,450.8 344.8,448.8 358.5,449.6 372.2,453.2 385.8,454.0 399.5,454.0 413.2,452.0 426.8,451.2 440.5,450.8 454.2,450.4 467.8,450.4 481.5,450.8 495.2,451.0 508.8,448.4 522.5,448.8 536.2,449.0 549.8,449.0 563.5,448.6 577.2,449.4 590.8,450.4 604.5,449.4 618.2,449.6 631.8,448.8 645.5,447.6 659.2,445.0 672.8,443.8 686.5,443.8 700.2,443.2 713.8,444.2 727.5,443.4 741.2,445.6 754.8,443.0 768.5,437.2 782.2,438.8 795.8,438.8 809.5,437.8 823.2,437.8" fill="none" stroke="#3987e5" stroke-width="1.5" stroke-linejoin="round" stroke-linecap="round"/>
<polyline points="16.8,453.2 30.5,454.4 44.2,451.2 57.8,452.4 71.5,454.0 85.2,453.2 98.8,451.6 112.5,454.8 126.2,454.0 139.8,455.2 153.5,456.0 167.2,454.4 180.8,452.0 194.5,451.6 208.2,453.2 221.8,451.2 235.5,448.0 249.2,446.0 262.8,445.2 276.5,444.8 290.2,447.2 303.8,452.0 317.5,456.4 331.2,456.4 344.8,452.8 358.5,452.0 372.2,454.4 385.8,451.6 399.5,451.6 413.2,451.2 426.8,450.4 440.5,447.2 454.2,449.2 467.8,449.2 481.5,450.4 495.2,451.6 508.8,449.6 522.5,448.4 536.2,448.8 549.8,447.6 563.5,445.6 577.2,449.2 590.8,452.4 604.5,450.0 618.2,451.6 631.8,452.0 645.5,446.0 659.2,437.6 672.8,437.6 686.5,436.0 700.2,434.4 713.8,442.4 727.5,449.2 741.2,453.6 754.8,450.0 768.5,440.0 782.2,435.2 795.8,428.4 809.5,422.0 823.2,425.6" fill="none" stroke="#c98500" stroke-width="1.5" stroke-linejoin="round" stroke-linecap="round"/>
</svg>