<svg xmlns="http://www.w3.org/2000/svg" viewBox="0 0 840 496" width="840" height="496" font-family="-apple-system,&#39;Segoe UI&#39;,system-ui,sans-serif" role="img" aria-label="nilbuild/developer-roadmap candlestick chart">
<text x="14.0" y="20.0" font-size="15" fill="#0b0b0b" font-weight="650">nilbuild/developer-roadmap</text>
<text x="232.5" y="20.0" font-size="11.5" fill="#52514e">daily · new stars, volume = new forks</text>
<text x="805.8" y="20.0" font-size="11.0" fill="#52514e">fall</text>
<rect x="791" y="10" width="9" height="12" fill="#008300"/>
<text x="750.6" y="20.0" font-size="11.0" fill="#52514e">rise</text>
<rect x="736" y="10" width="9" height="12" fill="none" stroke="#e34948" stroke-width="1.5"/>
<text x="14.0" y="38.0" font-size="11.0" fill="#898781">last 57 days · +5,928 stars · +566 forks · updated 2026-07-07</text>
<rect x="10" y="66" width="820" height="290" fill="none" stroke="#e1e0d9"/>
<rect x="10" y="384" width="820" height="86" fill="none" stroke="#e1e0d9"/>
<text x="38.0" y="490.0" font-size="11.0" fill="#898781" text-anchor="middle">2026-05</text>
<line x1="297.7" y1="66.0" x2="297.7" y2="356.0" stroke="#e1e0d9" stroke-width="1.0"/>
<line x1="297.7" y1="384.0" x2="297.7" y2="470.0" stroke="#e1e0d9" stroke-width="1.0"/>
<text x="304.9" y="490.0" font-size="11.0" fill="#898781" text-anchor="middle">2026-06</text>
<line x1="729.3" y1="66.0" x2="729.3" y2="356.0" stroke="#e1e0d9" stroke-width="1.0"/>
<line x1="729.3" y1="384.0" x2="729.3" y2="470.0" stroke="#e1e0d9" stroke-width="1.0"/>
<text x="736.5" y="490.0" font-size="11.0" fill="#898781" text-anchor="middle">2026-07</text>
<text x="14.0" y="58.0" font-size="11.0" fill="#52514e">BOLL(20,2)</text>
<text x="84.5" y="58.0" font-size="11.0" fill="#eda100">UP:177.5</text>
<text x="142.9" y="58.0" font-size="11.0" fill="#2a78d6">MID:114.8</text>
<text x="207.4" y="58.0" font-size="11.0" fill="#e87ba4">LOW:52.2</text>
<text x="265.8" y="58.0" font-size="11.0" fill="#4a3aa7">MA7:135.1</text>
<line x1="10.0" y1="356.0" x2="830.0" y2="356.0" stroke="#e1e0d9" stroke-width="1.0"/>
<text x="14.0" y="353.0" font-size="11.0" fill="#898781">0</text>
<line x1="10.0" y1="227.5" x2="830.0" y2="227.5" stroke="#e1e0d9" stroke-width="1.0"/>
<text x="14.0" y="224.5" font-size="11.0" fill="#898781">100</text>
<line x1="10.0" y1="99.1" x2="830.0" y2="99.1" stroke="#e1e0d9" stroke-width="1.0"/>
<text x="14.0" y="96.1" font-size="11.0" fill="#898781">200</text>
<polyline points="290.5,231.5 304.9,229.8 319.3,183.0 333.7,172.9 348.1,170.5 362.5,170.3 376.8,170.7 391.2,170.4 405.6,170.0 420.0,168.8 434.4,168.8 448.8,168.8 463.2,168.7 477.5,163.5 491.9,128.8 506.3,110.5 520.7,105.3 535.1,105.2 549.5,105.4 563.9,106.3 578.2,106.0 592.6,106.0 607.0,119.7 621.4,123.1 635.8,123.2 650.2,121.5 664.6,120.6 678.9,120.7 693.3,120.6 707.7,120.6 722.1,120.7 736.5,120.1 750.9,112.0 765.3,100.8 779.6,122.4 794.0,135.8 808.4,136.9 822.8,128.0" fill="none" stroke="#eda100" stroke-width="1.5" stroke-linejoin="round" stroke-linecap="round"/>
<polyline points="290.5,252.8 304.9,252.3 319.3,245.5 333.7,240.8 348.1,238.4 362.5,238.2 376.8,239.2 391.2,238.6 405.6,238.0 420.0,236.0 434.4,234.9 448.8,236.3 463.2,235.8 477.5,232.1 491.9,223.4 506.3,216.9 520.7,213.0 535.1,211.4 549.5,210.1 563.9,208.7 578.2,206.2 592.6,206.2 607.0,212.3 621.4,214.4 635.8,214.6 650.2,212.9 664.6,209.8 678.9,209.1 693.3,209.3 707.7,209.2 722.1,208.5 736.5,204.4 750.9,199.1 765.3,195.3 779.6,200.8 794.0,203.8 808.4,204.2 822.8,208.5" fill="none" stroke="#2a78d6" stroke-width="1.5" stroke-linejoin="round" stroke-linecap="round"/>
<polyline points="290.5,274.1 304.9,274.9 319.3,308.1 333.7,308.8 348.1,306.2 362.5,306.1 376.8,307.7 391.2,306.7 405.6,306.0 420.0,303.1 434.4,301.0 448.8,303.8 463.2,302.8 477.5,300.7 491.9,318.0 506.3,323.3 520.7,320.6 535.1,317.5 549.5,314.9 563.9,311.1 578.2,306.4 592.6,306.3 607.0,305.0 621.4,305.7 635.8,305.9 650.2,304.3 664.6,299.0 678.9,297.5 693.3,298.0 707.7,297.8 722.1,296.2 736.5,288.6 750.9,286.1 765.3,289.8 779.6,279.2 794.0,271.9 808.4,271.5 822.8,288.9" fill="none" stroke="#e87ba4" stroke-width="1.5" stroke-linejoin="round" stroke-linecap="round"/>
<polyline points="103.5,251.0 117.9,251.9 132.3,253.4 146.7,252.1 161.1,248.2 175.4,251.4 189.8,255.0 204.2,254.9 218.6,253.7 233.0,251.0 247.4,249.8 261.8,251.9 276.1,253.7 290.5,252.5 304.9,249.5 319.3,232.2 333.7,222.4 348.1,217.1 362.5,213.5 376.8,212.3 391.2,210.5 405.6,211.0 420.0,226.1 434.4,235.2 448.8,242.4 463.2,244.4 477.5,234.7 491.9,211.6 506.3,193.4 520.7,185.3 535.1,182.4 549.5,177.1 563.9,176.5 578.2,178.6 592.6,200.2 607.0,219.1 621.4,226.6 635.8,226.3 650.2,221.5 664.6,215.5 678.9,218.7 693.3,220.0 707.7,217.1 722.1,218.2 736.5,213.3 750.9,204.9 765.3,193.2 779.6,187.8 794.0,177.8 808.4,171.1 822.8,182.4" fill="none" stroke="#4a3aa7" stroke-width="1.5" stroke-linejoin="round" stroke-linecap="round"/>
<rect x="13.2" y="241.7" width="7.9" height="114.3" fill="none" stroke="#e34948" stroke-width="1.3"/>
<rect x="27.6" y="241.7" width="7.9" height="12.8" fill="#008300"/>
<rect x="42.0" y="254.5" width="7.9" height="16.7" fill="#008300"/>
<rect x="56.4" y="264.8" width="7.9" height="6.4" fill="none" stroke="#e34948" stroke-width="1.3"/>
<rect x="70.8" y="232.7" width="7.9" height="32.1" fill="none" stroke="#e34948" stroke-width="1.3"/>
<rect x="85.2" y="232.7" width="7.9" height="5.1" fill="#008300"/>
<rect x="99.6" y="237.8" width="7.9" height="16.7" fill="#008300"/>
<rect x="113.9" y="248.1" width="7.9" height="6.4" fill="none" stroke="#e34948" stroke-width="1.3"/>
<rect x="128.3" y="248.1" width="7.9" height="16.7" fill="#008300"/>
<rect x="142.7" y="262.2" width="7.9" height="2.6" fill="none" stroke="#e34948" stroke-width="1.3"/>
<rect x="157.1" y="237.8" width="7.9" height="24.4" fill="none" stroke="#e34948" stroke-width="1.3"/>
<rect x="171.5" y="237.8" width="7.9" height="16.7" fill="#008300"/>
<rect x="185.9" y="254.5" width="7.9" height="9.0" fill="#008300"/>
<rect x="200.3" y="253.2" width="7.9" height="10.3" fill="none" stroke="#e34948" stroke-width="1.3"/>
<rect x="214.6" y="240.4" width="7.9" height="12.8" fill="none" stroke="#e34948" stroke-width="1.3"/>
<rect x="229.0" y="240.4" width="7.9" height="5.1" fill="#008300"/>
<rect x="243.4" y="245.5" width="7.9" height="7.7" fill="#008300"/>
<rect x="257.8" y="253.2" width="7.9" height="1.2" fill="#898781"/>
<rect x="272.2" y="253.2" width="7.9" height="14.1" fill="#008300"/>
<rect x="286.6" y="254.5" width="7.9" height="12.8" fill="none" stroke="#e34948" stroke-width="1.3"/>
<rect x="301.0" y="232.7" width="7.9" height="21.8" fill="none" stroke="#e34948" stroke-width="1.3"/>
<rect x="315.3" y="118.3" width="7.9" height="114.3" fill="none" stroke="#e34948" stroke-width="1.3"/>
<rect x="329.7" y="118.3" width="7.9" height="59.1" fill="#008300"/>
<rect x="344.1" y="177.4" width="7.9" height="38.5" fill="#008300"/>
<rect x="358.5" y="216.0" width="7.9" height="12.8" fill="#008300"/>
<rect x="372.9" y="228.8" width="7.9" height="29.5" fill="#008300"/>
<rect x="387.3" y="241.7" width="7.9" height="16.7" fill="none" stroke="#e34948" stroke-width="1.3"/>
<rect x="401.7" y="236.5" width="7.9" height="5.1" fill="none" stroke="#e34948" stroke-width="1.3"/>
<rect x="416.0" y="223.7" width="7.9" height="12.8" fill="none" stroke="#e34948" stroke-width="1.3"/>
<rect x="430.4" y="223.7" width="7.9" height="18.0" fill="#008300"/>
<rect x="444.8" y="241.7" width="7.9" height="24.4" fill="#008300"/>
<rect x="459.2" y="243.0" width="7.9" height="23.1" fill="none" stroke="#e34948" stroke-width="1.3"/>
<rect x="473.6" y="190.3" width="7.9" height="52.7" fill="none" stroke="#e34948" stroke-width="1.3"/>
<rect x="488.0" y="79.8" width="7.9" height="110.5" fill="none" stroke="#e34948" stroke-width="1.3"/>
<rect x="502.4" y="79.8" width="7.9" height="29.5" fill="#008300"/>
<rect x="516.7" y="109.4" width="7.9" height="57.8" fill="#008300"/>
<rect x="531.1" y="167.2" width="7.9" height="54.0" fill="#008300"/>
<rect x="545.5" y="221.1" width="7.9" height="7.7" fill="#008300"/>
<rect x="559.9" y="228.8" width="7.9" height="10.3" fill="#008300"/>
<rect x="574.3" y="204.4" width="7.9" height="34.7" fill="none" stroke="#e34948" stroke-width="1.3"/>
<rect x="588.7" y="204.4" width="7.9" height="27.0" fill="#008300"/>
<rect x="603.1" y="231.4" width="7.9" height="10.3" fill="#008300"/>
<rect x="617.4" y="219.8" width="7.9" height="21.8" fill="none" stroke="#e34948" stroke-width="1.3"/>
<rect x="631.8" y="218.5" width="7.9" height="1.3" fill="none" stroke="#e34948" stroke-width="1.3"/>
<rect x="646.2" y="195.4" width="7.9" height="23.1" fill="none" stroke="#e34948" stroke-width="1.3"/>
<rect x="660.6" y="195.4" width="7.9" height="1.3" fill="#008300"/>
<rect x="675.0" y="196.7" width="7.9" height="30.8" fill="#008300"/>
<rect x="689.4" y="227.5" width="7.9" height="12.8" fill="#008300"/>
<rect x="703.8" y="221.1" width="7.9" height="19.3" fill="none" stroke="#e34948" stroke-width="1.3"/>
<rect x="718.1" y="221.1" width="7.9" height="6.4" fill="#008300"/>
<rect x="732.5" y="183.9" width="7.9" height="43.7" fill="none" stroke="#e34948" stroke-width="1.3"/>
<rect x="746.9" y="137.6" width="7.9" height="46.2" fill="none" stroke="#e34948" stroke-width="1.3"/>
<rect x="761.3" y="114.5" width="7.9" height="23.1" fill="none" stroke="#e34948" stroke-width="1.3"/>
<rect x="775.7" y="114.5" width="7.9" height="75.8" fill="#008300"/>
<rect x="790.1" y="169.7" width="7.9" height="20.6" fill="none" stroke="#e34948" stroke-width="1.3"/>
<rect x="804.5" y="169.7" width="7.9" height="5.1" fill="#008300"/>
<rect x="818.9" y="174.9" width="7.9" height="131.0" fill="#008300"/>
<circle cx="491.9" cy="79.8" r="2" fill="#52514e"/>
<line x1="491.9" y1="79.8" x2="483.9" y2="79.8" stroke="#52514e" stroke-width="1.0"/>
<text x="480.9" y="83.8" font-size="11.0" fill="#52514e" text-anchor="end">215</text>
<circle cx="17.2" cy="356.0" r="2" fill="#52514e"/>
<line x1="17.2" y1="356.0" x2="25.2" y2="356.0" stroke="#52514e" stroke-width="1.0"/>
<text x="28.2" y="350.0" font-size="11.0" fill="#52514e">0</text>
<text x="14.0" y="376.0" font-size="11.0" fill="#52514e">VOL 2 forks</text>
<text x="90.5" y="376.0" font-size="11.0" fill="#eda100">MA5:13.8</text>
<text x="148.9" y="376.0" font-size="11.0" fill="#2a78d6">MA10:12.9</text>
<text x="14.0" y="395.0" font-size="10" fill="#898781">25</text>
<rect x="13.2" y="450.3" width="7.9" height="19.7" fill="none" stroke="#e34948" stroke-width="1.1"/>
<rect x="27.6" y="443.8" width="7.9" height="26.2" fill="#008300"/>
<rect x="42.0" y="447.0" width="7.9" height="23.0" fill="#008300"/>
<rect x="56.4" y="450.3" width="7.9" height="19.7" fill="none" stroke="#e34948" stroke-width="1.1"/>
<rect x="70.8" y="427.4" width="7.9" height="42.6" fill="none" stroke="#e34948" stroke-width="1.1"/>
<rect x="85.2" y="443.8" width="7.9" height="26.2" fill="#008300"/>
<rect x="99.6" y="453.6" width="7.9" height="16.4" fill="#008300"/>
<rect x="113.9" y="420.8" width="7.9" height="49.2" fill="none" stroke="#e34948" stroke-width="1.1"/>
<rect x="128.3" y="460.2" width="7.9" height="9.8" fill="#008300"/>
<rect x="142.7" y="440.5" width="7.9" height="29.5" fill="none" stroke="#e34948" stroke-width="1.1"/>
<rect x="157.1" y="437.2" width="7.9" height="32.8" fill="none" stroke="#e34948" stroke-width="1.1"/>
<rect x="171.5" y="440.5" width="7.9" height="29.5" fill="#008300"/>
<rect x="185.9" y="447.0" width="7.9" height="23.0" fill="#008300"/>
<rect x="200.3" y="453.6" width="7.9" height="16.4" fill="none" stroke="#e34948" stroke-width="1.1"/>
<rect x="214.6" y="450.3" width="7.9" height="19.7" fill="none" stroke="#e34948" stroke-width="1.1"/>
<rect x="229.0" y="443.8" width="7.9" height="26.2" fill="#008300"/>
<rect x="243.4" y="427.4" width="7.9" height="42.6" fill="#008300"/>
<rect x="257.8" y="427.4" width="7.9" height="42.6" fill="#898781"/>
<rect x="272.2" y="450.3" width="7.9" height="19.7" fill="#008300"/>
<rect x="286.6" y="463.4" width="7.9" height="6.6" fill="none" stroke="#e34948" stroke-width="1.1"/>
<rect x="301.0" y="427.4" width="7.9" height="42.6" fill="none" stroke="#e34948" stroke-width="1.1"/>
<rect x="315.3" y="401.1" width="7.9" height="68.9" fill="none" stroke="#e34948" stroke-width="1.1"/>
<rect x="329.7" y="411.0" width="7.9" height="59.0" fill="#008300"/>
<rect x="344.1" y="443.8" width="7.9" height="26.2" fill="#008300"/>
<rect x="358.5" y="460.2" width="7.9" height="9.8" fill="#008300"/>
<rect x="372.9" y="447.0" width="7.9" height="23.0" fill="#008300"/>
<rect x="387.3" y="440.5" width="7.9" height="29.5" fill="none" stroke="#e34948" stroke-width="1.1"/>
<rect x="401.7" y="447.0" width="7.9" height="23.0" fill="none" stroke="#e34948" stroke-width="1.1"/>
<rect x="416.0" y="443.8" width="7.9" height="26.2" fill="none" stroke="#e34948" stroke-width="1.1"/>
<rect x="430.4" y="430.6" width="7.9" height="39.4" fill="#008300"/>
<rect x="444.8" y="440.5" width="7.9" height="29.5" fill="#008300"/>
<rect x="459.2" y="460.2" width="7.9" height="9.8" fill="none" stroke="#e34948" stroke-width="1.1"/>
<rect x="473.6" y="424.1" width="7.9" height="45.9" fill="none" stroke="#e34948" stroke-width="1.1"/>
<rect x="488.0" y="443.8" width="7.9" height="26.2" fill="none" stroke="#e34948" stroke-width="1.1"/>
<rect x="502.4" y="427.4" width="7.9" height="42.6" fill="#008300"/>
<rect x="516.7" y="433.9" width="7.9" height="36.1" fill="#008300"/>
<rect x="531.1" y="433.9" width="7.9" height="36.1" fill="#008300"/>
<rect x="545.5" y="440.5" width="7.9" height="29.5" fill="#008300"/>
<rect x="559.9" y="443.8" width="7.9" height="26.2" fill="#008300"/>
<rect x="574.3" y="437.2" width="7.9" height="32.8" fill="none" stroke="#e34948" stroke-width="1.1"/>
<rect x="588.7" y="443.8" width="7.9" height="26.2" fill="#008300"/>
<rect x="603.1" y="417.5" width="7.9" height="52.5" fill="#008300"/>
<rect x="617.4" y="430.6" width="7.9" height="39.4" fill="none" stroke="#e34948" stroke-width="1.1"/>
<rect x="631.8" y="447.0" width="7.9" height="23.0" fill="none" stroke="#e34948" stroke-width="1.1"/>
<rect x="646.2" y="427.4" width="7.9" height="42.6" fill="none" stroke="#e34948" stroke-width="1.1"/>
<rect x="660.6" y="427.4" width="7.9" height="42.6" fill="#008300"/>
<rect x="675.0" y="447.0" width="7.9" height="23.0" fill="#008300"/>
<rect x="689.4" y="456.9" width="7.9" height="13.1" fill="#008300"/>
<rect x="703.8" y="427.4" width="7.9" height="42.6" fill="none" stroke="#e34948" stroke-width="1.1"/>
<rect x="718.1" y="440.5" width="7.9" height="29.5" fill="#008300"/>
<rect x="732.5" y="430.6" width="7.9" height="39.4" fill="none" stroke="#e34948" stroke-width="1.1"/>
<rect x="746.9" y="397.8" width="7.9" height="72.2" fill="none" stroke="#e34948" stroke-width="1.1"/>
<rect x="761.3" y="388.0" width="7.9" height="82.0" fill="none" stroke="#e34948" stroke-width="1.1"/>
<rect x="775.7" y="427.4" width="7.9" height="42.6" fill="#008300"/>
<rect x="790.1" y="427.4" width="7.9" height="42.6" fill="none" stroke="#e34948" stroke-width="1.1"/>
<rect x="804.5" y="417.5" width="7.9" height="52.5" fill="#008300"/>
<rect x="818.9" y="463.4" width="7.9" height="6.6" fill="#008300"/>
<polyline points="146.7,443.8 161.1,442.4 175.4,442.1 189.8,442.1 204.2,442.4 218.6,444.7 233.0,444.7 247.4,442.1 261.8,442.8 276.1,441.8 290.5,444.1 304.9,443.1 319.3,439.2 333.7,435.6 348.1,434.6 362.5,435.6 376.8,435.9 391.2,437.2 405.6,439.2 420.0,438.5 434.4,435.2 448.8,436.5 463.2,442.4 477.5,443.8 491.9,443.8 506.3,440.5 520.7,439.2 535.1,438.5 549.5,437.9 563.9,437.9 578.2,438.5 592.6,438.8 607.0,434.6 621.4,435.2 635.8,435.6 650.2,435.6 664.6,434.9 678.9,436.2 693.3,437.9 707.7,436.2 722.1,436.5 736.5,435.2 750.9,433.3 765.3,429.0 779.6,427.0 794.0,427.0 808.4,426.0 822.8,427.7" fill="none" stroke="#2a78d6" stroke-width="1.5" stroke-linejoin="round" stroke-linecap="round"/>
<polyline points="74.7,443.8 89.1,442.4 103.5,444.4 117.9,439.2 132.3,441.1 146.7,443.8 161.1,442.4 175.4,439.8 189.8,445.1 204.2,443.8 218.6,445.7 233.0,447.0 247.4,444.4 261.8,440.5 276.1,439.8 290.5,442.4 304.9,439.2 319.3,433.9 333.7,430.6 348.1,429.3 362.5,428.7 376.8,432.6 391.2,440.5 405.6,447.7 420.0,447.7 434.4,441.8 448.8,440.5 463.2,444.4 477.5,439.8 491.9,439.8 506.3,439.2 520.7,437.9 535.1,432.6 549.5,435.9 563.9,435.9 578.2,437.9 592.6,439.8 607.0,436.5 621.4,434.6 635.8,435.2 650.2,433.3 664.6,430.0 678.9,435.9 693.3,441.1 707.7,437.2 722.1,439.8 736.5,440.5 750.9,430.6 765.3,416.9 779.6,416.9 794.0,414.2 808.4,411.6 822.8,424.7" fill="none" stroke="#eda100" stroke-width="1.5" stroke-linejoin="round" stroke-linecap="round"/>
</svg>