<svg xmlns="http://www.w3.org/2000/svg" viewBox="0 0 840 496" width="840" height="496" font-family="-apple-system,&#39;Segoe UI&#39;,system-ui,sans-serif" role="img" aria-label="nilbuild/developer-roadmap candlestick chart">
<text x="14.0" y="20.0" font-size="15" fill="#ffffff" font-weight="650">nilbuild/developer-roadmap</text>
<text x="232.5" y="20.0" font-size="11.5" fill="#c3c2b7">daily · new stars, volume = new forks</text>
<text x="805.8" y="20.0" font-size="11.0" fill="#c3c2b7">fall</text>
<rect x="791" y="10" width="9" height="12" fill="#008300"/>
<text x="750.6" y="20.0" font-size="11.0" fill="#c3c2b7">rise</text>
<rect x="736" y="10" width="9" height="12" fill="none" stroke="#e66767" stroke-width="1.5"/>
<text x="14.0" y="38.0" font-size="11.0" fill="#898781">last 60 days · +6,384 stars · +598 forks · updated 2026-07-10</text>
<rect x="10" y="66" width="820" height="290" fill="none" stroke="#2c2c2a"/>
<rect x="10" y="384" width="820" height="86" fill="none" stroke="#2c2c2a"/>
<text x="38.0" y="490.0" font-size="11.0" fill="#898781" text-anchor="middle">2026-05</text>
<line x1="283.3" y1="66.0" x2="283.3" y2="356.0" stroke="#2c2c2a" stroke-width="1.0"/>
<line x1="283.3" y1="384.0" x2="283.3" y2="470.0" stroke="#2c2c2a" stroke-width="1.0"/>
<text x="290.2" y="490.0" font-size="11.0" fill="#898781" text-anchor="middle">2026-06</text>
<line x1="693.3" y1="66.0" x2="693.3" y2="356.0" stroke="#2c2c2a" stroke-width="1.0"/>
<line x1="693.3" y1="384.0" x2="693.3" y2="470.0" stroke="#2c2c2a" stroke-width="1.0"/>
<text x="700.2" y="490.0" font-size="11.0" fill="#898781" text-anchor="middle">2026-07</text>
<text x="14.0" y="58.0" font-size="11.0" fill="#c3c2b7">BOLL(20,2)</text>
<text x="84.5" y="58.0" font-size="11.0" fill="#c98500">UP:228.7</text>
<text x="142.9" y="58.0" font-size="11.0" fill="#3987e5">MID:122.2</text>
<text x="207.4" y="58.0" font-size="11.0" fill="#d55181">LOW:15.8</text>
<text x="265.8" y="58.0" font-size="11.0" fill="#9085e9">MA7:130</text>
<line x1="10.0" y1="356.0" x2="830.0" y2="356.0" stroke="#2c2c2a" stroke-width="1.0"/>
<text x="14.0" y="353.0" font-size="11.0" fill="#898781">0</text>
<line x1="10.0" y1="265.1" x2="830.0" y2="265.1" stroke="#2c2c2a" stroke-width="1.0"/>
<text x="14.0" y="262.1" font-size="11.0" fill="#898781">100</text>
<line x1="10.0" y1="174.3" x2="830.0" y2="174.3" stroke="#2c2c2a" stroke-width="1.0"/>
<text x="14.0" y="171.3" font-size="11.0" fill="#898781">200</text>
<line x1="10.0" y1="83.4" x2="830.0" y2="83.4" stroke="#2c2c2a" stroke-width="1.0"/>
<text x="14.0" y="80.4" font-size="11.0" fill="#898781">300</text>
<polyline points="276.5,268.0 290.2,266.7 303.8,233.6 317.5,226.5 331.2,224.8 344.8,224.6 358.5,225.0 372.2,224.8 385.8,224.4 399.5,223.6 413.2,223.6 426.8,223.6 440.5,223.5 454.2,219.9 467.8,195.3 481.5,182.3 495.2,178.7 508.8,178.6 522.5,178.7 536.2,179.4 549.8,179.2 563.5,179.2 577.2,188.9 590.8,191.3 604.5,191.4 618.2,190.1 631.8,189.5 645.5,189.6 659.2,189.5 672.8,189.5 686.5,189.6 700.2,189.2 713.8,183.5 727.5,175.5 741.2,190.8 754.8,200.2 768.5,201.1 782.2,194.8 795.8,193.4 809.5,193.3 823.2,148.2" fill="none" stroke="#c98500" stroke-width="1.5" stroke-linejoin="round" stroke-linecap="round"/>
<polyline points="276.5,283.0 290.2,282.7 303.8,277.9 317.5,274.6 331.2,272.8 344.8,272.7 358.5,273.4 372.2,273.0 385.8,272.6 399.5,271.1 413.2,270.4 426.8,271.4 440.5,271.0 454.2,268.4 467.8,262.2 481.5,257.6 495.2,254.8 508.8,253.7 522.5,252.8 536.2,251.8 549.8,250.1 563.5,250.0 577.2,254.4 590.8,255.9 604.5,256.0 618.2,254.8 631.8,252.6 645.5,252.1 659.2,252.2 672.8,252.2 686.5,251.7 700.2,248.7 713.8,245.0 727.5,242.3 741.2,246.3 754.8,248.4 768.5,248.7 782.2,251.7 795.8,253.1 809.5,253.4 823.2,244.9" fill="none" stroke="#3987e5" stroke-width="1.5" stroke-linejoin="round" stroke-linecap="round"/>
<polyline points="276.5,298.0 290.2,298.6 303.8,322.1 317.5,322.6 331.2,320.8 344.8,320.7 358.5,321.9 372.2,321.2 385.8,320.7 399.5,318.6 413.2,317.1 426.8,319.1 440.5,318.4 454.2,316.9 467.8,329.2 481.5,332.9 495.2,331.0 508.8,328.8 522.5,326.9 536.2,324.2 549.8,320.9 563.5,320.8 577.2,319.9 590.8,320.4 604.5,320.6 618.2,319.5 631.8,315.7 645.5,314.6 659.2,315.0 672.8,314.8 686.5,313.7 700.2,308.3 713.8,306.6 727.5,309.2 741.2,301.7 754.8,296.5 768.5,296.3 782.2,308.5 795.8,312.8 809.5,313.5 823.2,341.6" fill="none" stroke="#d55181" stroke-width="1.5" stroke-linejoin="round" stroke-linecap="round"/>
<polyline points="98.8,281.8 112.5,282.4 126.2,283.4 139.8,282.5 153.5,279.8 167.2,282.0 180.8,284.6 194.5,284.5 208.2,283.7 221.8,281.8 235.5,280.9 249.2,282.4 262.8,283.7 276.5,282.8 290.2,280.7 303.8,268.4 317.5,261.5 331.2,257.8 344.8,255.2 358.5,254.3 372.2,253.1 385.8,253.4 399.5,264.1 413.2,270.6 426.8,275.7 440.5,277.0 454.2,270.2 467.8,253.9 481.5,241.0 495.2,235.3 508.8,233.3 522.5,229.4 536.2,229.1 549.8,230.5 563.5,245.8 577.2,259.2 590.8,264.5 604.5,264.2 618.2,260.9 631.8,256.6 645.5,258.9 659.2,259.8 672.8,257.8 686.5,258.5 700.2,255.1 713.8,249.2 727.5,240.9 741.2,237.1 754.8,230.0 768.5,225.3 782.2,233.3 795.8,241.9 809.5,253.0 823.2,237.9" fill="none" stroke="#9085e9" stroke-width="1.5" stroke-linejoin="round" stroke-linecap="round"/>
<rect x="13.1" y="275.1" width="7.5" height="80.9" fill="none" stroke="#e66767" stroke-width="1.3"/>
<rect x="26.7" y="275.1" width="7.5" height="9.1" fill="#008300"/>
<rect x="40.4" y="284.2" width="7.5" height="11.8" fill="#008300"/>
<rect x="54.1" y="291.5" width="7.5" height="4.5" fill="none" stroke="#e66767" stroke-width="1.3"/>
<rect x="67.7" y="268.8" width="7.5" height="22.7" fill="none" stroke="#e66767" stroke-width="1.3"/>
<rect x="81.4" y="268.8" width="7.5" height="3.6" fill="#008300"/>
<rect x="95.1" y="272.4" width="7.5" height="11.8" fill="#008300"/>
<rect x="108.7" y="279.7" width="7.5" height="4.5" fill="none" stroke="#e66767" stroke-width="1.3"/>
<rect x="122.4" y="279.7" width="7.5" height="11.8" fill="#008300"/>
<rect x="136.1" y="289.7" width="7.5" height="1.8" fill="none" stroke="#e66767" stroke-width="1.3"/>
<rect x="149.7" y="272.4" width="7.5" height="17.3" fill="none" stroke="#e66767" stroke-width="1.3"/>
<rect x="163.4" y="272.4" width="7.5" height="11.8" fill="#008300"/>
<rect x="177.1" y="284.2" width="7.5" height="6.4" fill="#008300"/>
<rect x="190.7" y="283.3" width="7.5" height="7.3" fill="none" stroke="#e66767" stroke-width="1.3"/>
<rect x="204.4" y="274.2" width="7.5" height="9.1" fill="none" stroke="#e66767" stroke-width="1.3"/>
<rect x="218.1" y="274.2" width="7.5" height="3.6" fill="#008300"/>
<rect x="231.7" y="277.9" width="7.5" height="5.5" fill="#008300"/>
<rect x="245.4" y="283.3" width="7.5" height="1.2" fill="#898781"/>
<rect x="259.1" y="283.3" width="7.5" height="10.0" fill="#008300"/>
<rect x="272.7" y="284.2" width="7.5" height="9.1" fill="none" stroke="#e66767" stroke-width="1.3"/>
<rect x="286.4" y="268.8" width="7.5" height="15.4" fill="none" stroke="#e66767" stroke-width="1.3"/>
<rect x="300.1" y="187.9" width="7.5" height="80.9" fill="none" stroke="#e66767" stroke-width="1.3"/>
<rect x="313.7" y="187.9" width="7.5" height="41.8" fill="#008300"/>
<rect x="327.4" y="229.7" width="7.5" height="27.3" fill="#008300"/>
<rect x="341.1" y="257.0" width="7.5" height="9.1" fill="#008300"/>
<rect x="354.7" y="266.1" width="7.5" height="20.9" fill="#008300"/>
<rect x="368.4" y="275.1" width="7.5" height="11.8" fill="none" stroke="#e66767" stroke-width="1.3"/>
<rect x="382.1" y="271.5" width="7.5" height="3.6" fill="none" stroke="#e66767" stroke-width="1.3"/>
<rect x="395.7" y="262.4" width="7.5" height="9.1" fill="none" stroke="#e66767" stroke-width="1.3"/>
<rect x="409.4" y="262.4" width="7.5" height="12.7" fill="#008300"/>
<rect x="423.1" y="275.1" width="7.5" height="17.3" fill="#008300"/>
<rect x="436.7" y="276.1" width="7.5" height="16.4" fill="none" stroke="#e66767" stroke-width="1.3"/>
<rect x="450.4" y="238.8" width="7.5" height="37.2" fill="none" stroke="#e66767" stroke-width="1.3"/>
<rect x="464.1" y="160.7" width="7.5" height="78.1" fill="none" stroke="#e66767" stroke-width="1.3"/>
<rect x="477.7" y="160.7" width="7.5" height="20.9" fill="#008300"/>
<rect x="491.4" y="181.6" width="7.5" height="40.9" fill="#008300"/>
<rect x="505.1" y="222.4" width="7.5" height="38.2" fill="#008300"/>
<rect x="518.7" y="260.6" width="7.5" height="5.5" fill="#008300"/>
<rect x="532.4" y="266.1" width="7.5" height="7.3" fill="#008300"/>
<rect x="546.1" y="248.8" width="7.5" height="24.5" fill="none" stroke="#e66767" stroke-width="1.3"/>
<rect x="559.7" y="248.8" width="7.5" height="19.1" fill="#008300"/>
<rect x="573.4" y="267.9" width="7.5" height="7.3" fill="#008300"/>
<rect x="587.1" y="259.7" width="7.5" height="15.4" fill="none" stroke="#e66767" stroke-width="1.3"/>
<rect x="600.7" y="258.8" width="7.5" height="1.2" fill="none" stroke="#e66767" stroke-width="1.3"/>
<rect x="614.4" y="242.4" width="7.5" height="16.4" fill="none" stroke="#e66767" stroke-width="1.3"/>
<rect x="628.1" y="242.4" width="7.5" height="1.2" fill="#008300"/>
<rect x="641.7" y="243.3" width="7.5" height="21.8" fill="#008300"/>
<rect x="655.4" y="265.1" width="7.5" height="9.1" fill="#008300"/>
<rect x="669.1" y="260.6" width="7.5" height="13.6" fill="none" stroke="#e66767" stroke-width="1.3"/>
<rect x="682.7" y="260.6" width="7.5" height="4.5" fill="#008300"/>
<rect x="696.4" y="234.3" width="7.5" height="30.9" fill="none" stroke="#e66767" stroke-width="1.3"/>
<rect x="710.1" y="201.6" width="7.5" height="32.7" fill="none" stroke="#e66767" stroke-width="1.3"/>
<rect x="723.7" y="185.2" width="7.5" height="16.4" fill="none" stroke="#e66767" stroke-width="1.3"/>
<rect x="737.4" y="185.2" width="7.5" height="53.6" fill="#008300"/>
<rect x="751.1" y="224.3" width="7.5" height="14.5" fill="none" stroke="#e66767" stroke-width="1.3"/>
<rect x="764.7" y="224.3" width="7.5" height="3.6" fill="#008300"/>
<rect x="778.4" y="227.9" width="7.5" height="92.7" fill="#008300"/>
<rect x="792.1" y="295.1" width="7.5" height="25.4" fill="none" stroke="#e66767" stroke-width="1.3"/>
<rect x="805.7" y="278.8" width="7.5" height="16.4" fill="none" stroke="#e66767" stroke-width="1.3"/>
<rect x="819.4" y="79.8" width="7.5" height="199.0" fill="none" stroke="#e66767" stroke-width="1.3"/>
<circle cx="823.2" cy="79.8" r="2" fill="#c3c2b7"/>
<line x1="823.2" y1="79.8" x2="815.2" y2="79.8" stroke="#c3c2b7" stroke-width="1.0"/>
<text x="812.2" y="83.8" font-size="11.0" fill="#c3c2b7" text-anchor="end">304</text>
<circle cx="16.8" cy="356.0" r="2" fill="#c3c2b7"/>
<line x1="16.8" y1="356.0" x2="24.8" y2="356.0" stroke="#c3c2b7" stroke-width="1.0"/>
<text x="27.8" y="350.0" font-size="11.0" fill="#c3c2b7">0</text>
<text x="14.0" y="376.0" font-size="11.0" fill="#c3c2b7">VOL 22 forks</text>
<text x="96.6" y="376.0" font-size="11.0" fill="#c98500">MA5:10</text>
<text x="142.9" y="376.0" font-size="11.0" fill="#3987e5">MA10:13.5</text>
<text x="14.0" y="395.0" font-size="10" fill="#898781">25</text>
<rect x="13.1" y="450.3" width="7.5" height="19.7" fill="none" stroke="#e66767" stroke-width="1.1"/>
<rect x="26.7" y="443.8" width="7.5" height="26.2" fill="#008300"/>
<rect x="40.4" y="447.0" width="7.5" height="23.0" fill="#008300"/>
<rect x="54.1" y="450.3" width="7.5" height="19.7" fill="none" stroke="#e66767" stroke-width="1.1"/>
<rect x="67.7" y="427.4" width="7.5" height="42.6" fill="none" stroke="#e66767" stroke-width="1.1"/>
<rect x="81.4" y="443.8" width="7.5" height="26.2" fill="#008300"/>
<rect x="95.1" y="453.6" width="7.5" height="16.4" fill="#008300"/>
<rect x="108.7" y="420.8" width="7.5" height="49.2" fill="none" stroke="#e66767" stroke-width="1.1"/>
<rect x="122.4" y="460.2" width="7.5" height="9.8" fill="#008300"/>
<rect x="136.1" y="440.5" width="7.5" height="29.5" fill="none" stroke="#e66767" stroke-width="1.1"/>
<rect x="149.7" y="437.2" width="7.5" height="32.8" fill="none" stroke="#e66767" stroke-width="1.1"/>
<rect x="163.4" y="440.5" width="7.5" height="29.5" fill="#008300"/>
<rect x="177.1" y="447.0" width="7.5" height="23.0" fill="#008300"/>
<rect x="190.7" y="453.6" width="7.5" height="16.4" fill="none" stroke="#e66767" stroke-width="1.1"/>
<rect x="204.4" y="450.3" width="7.5" height="19.7" fill="none" stroke="#e66767" stroke-width="1.1"/>
<rect x="218.1" y="443.8" width="7.5" height="26.2" fill="#008300"/>
<rect x="231.7" y="427.4" width="7.5" height="42.6" fill="#008300"/>
<rect x="245.4" y="427.4" width="7.5" height="42.6" fill="#898781"/>
<rect x="259.1" y="450.3" width="7.5" height="19.7" fill="#008300"/>
<rect x="272.7" y="463.4" width="7.5" height="6.6" fill="none" stroke="#e66767" stroke-width="1.1"/>
<rect x="286.4" y="427.4" width="7.5" height="42.6" fill="none" stroke="#e66767" stroke-width="1.1"/>
<rect x="300.1" y="401.1" width="7.5" height="68.9" fill="none" stroke="#e66767" stroke-width="1.1"/>
<rect x="313.7" y="411.0" width="7.5" height="59.0" fill="#008300"/>
<rect x="327.4" y="443.8" width="7.5" height="26.2" fill="#008300"/>
<rect x="341.1" y="460.2" width="7.5" height="9.8" fill="#008300"/>
<rect x="354.7" y="447.0" width="7.5" height="23.0" fill="#008300"/>
<rect x="368.4" y="440.5" width="7.5" height="29.5" fill="none" stroke="#e66767" stroke-width="1.1"/>
<rect x="382.1" y="447.0" width="7.5" height="23.0" fill="none" stroke="#e66767" stroke-width="1.1"/>
<rect x="395.7" y="443.8" width="7.5" height="26.2" fill="none" stroke="#e66767" stroke-width="1.1"/>
<rect x="409.4" y="430.6" width="7.5" height="39.4" fill="#008300"/>
<rect x="423.1" y="440.5" width="7.5" height="29.5" fill="#008300"/>
<rect x="436.7" y="460.2" width="7.5" height="9.8" fill="none" stroke="#e66767" stroke-width="1.1"/>
<rect x="450.4" y="424.1" width="7.5" height="45.9" fill="none" stroke="#e66767" stroke-width="1.1"/>
<rect x="464.1" y="443.8" width="7.5" height="26.2" fill="none" stroke="#e66767" stroke-width="1.1"/>
<rect x="477.7" y="427.4" width="7.5" height="42.6" fill="#008300"/>
<rect x="491.4" y="433.9" width="7.5" height="36.1" fill="#008300"/>
<rect x="505.1" y="433.9" width="7.5" height="36.1" fill="#008300"/>
<rect x="518.7" y="440.5" width="7.5" height="29.5" fill="#008300"/>
<rect x="532.4" y="443.8" width="7.5" height="26.2" fill="#008300"/>
<rect x="546.1" y="437.2" width="7.5" height="32.8" fill="none" stroke="#e66767" stroke-width="1.1"/>
<rect x="559.7" y="443.8" width="7.5" height="26.2" fill="#008300"/>
<rect x="573.4" y="417.5" width="7.5" height="52.5" fill="#008300"/>
<rect x="587.1" y="430.6" width="7.5" height="39.4" fill="none" stroke="#e66767" stroke-width="1.1"/>
<rect x="600.7" y="447.0" width="7.5" height="23.0" fill="none" stroke="#e66767" stroke-width="1.1"/>
<rect x="614.4" y="427.4" width="7.5" height="42.6" fill="none" stroke="#e66767" stroke-width="1.1"/>
<rect x="628.1" y="427.4" width="7.5" height="42.6" fill="#008300"/>
<rect x="641.7" y="447.0" width="7.5" height="23.0" fill="#008300"/>
<rect x="655.4" y="456.9" width="7.5" height="13.1" fill="#008300"/>
<rect x="669.1" y="427.4" width="7.5" height="42.6" fill="none" stroke="#e66767" stroke-width="1.1"/>
<rect x="682.7" y="440.5" width="7.5" height="29.5" fill="#008300"/>
<rect x="696.4" y="430.6" width="7.5" height="39.4" fill="none" stroke="#e66767" stroke-width="1.1"/>
<rect x="710.1" y="397.8" width="7.5" height="72.2" fill="none" stroke="#e66767" stroke-width="1.1"/>
<rect x="723.7" y="388.0" width="7.5" height="82.0" fill="none" stroke="#e66767" stroke-width="1.1"/>
<rect x="737.4" y="427.4" width="7.5" height="42.6" fill="#008300"/>
<rect x="751.1" y="427.4" width="7.5" height="42.6" fill="none" stroke="#e66767" stroke-width="1.1"/>
<rect x="764.7" y="417.5" width="7.5" height="52.5" fill="#008300"/>
<rect x="778.4" y="463.4" width="7.5" height="6.6" fill="#008300"/>
<rect x="792.1" y="443.8" width="7.5" height="26.2" fill="none" stroke="#e66767" stroke-width="1.1"/>
<rect x="805.7" y="463.4" width="7.5" height="6.6" fill="none" stroke="#e66767" stroke-width="1.1"/>
<rect x="819.4" y="397.8" width="7.5" height="72.2" fill="none" stroke="#e66767" stroke-width="1.1"/>
<polyline points="139.8,443.8 153.5,442.4 167.2,442.1 180.8,442.1 194.5,442.4 208.2,444.7 221.8,444.7 235.5,442.1 249.2,442.8 262.8,441.8 276.5,444.1 290.2,443.1 303.8,439.2 317.5,435.6 331.2,434.6 344.8,435.6 358.5,435.9 372.2,437.2 385.8,439.2 399.5,438.5 413.2,435.2 426.8,436.5 440.5,442.4 454.2,443.8 467.8,443.8 481.5,440.5 495.2,439.2 508.8,438.5 522.5,437.9 536.2,437.9 549.8,438.5 563.5,438.8 577.2,434.6 590.8,435.2 604.5,435.6 618.2,435.6 631.8,434.9 645.5,436.2 659.2,437.9 672.8,436.2 686.5,436.5 700.2,435.2 713.8,433.3 727.5,429.0 741.2,427.0 754.8,427.0 768.5,426.0 782.2,427.7 795.8,426.4 809.5,430.0 823.2,425.7" fill="none" stroke="#3987e5" stroke-width="1.5" stroke-linejoin="round" stroke-linecap="round"/>
<polyline points="71.5,443.8 85.2,442.4 98.8,444.4 112.5,439.2 126.2,441.1 139.8,443.8 153.5,442.4 167.2,439.8 180.8,445.1 194.5,443.8 208.2,445.7 221.8,447.0 235.5,444.4 249.2,440.5 262.8,439.8 276.5,442.4 290.2,439.2 303.8,433.9 317.5,430.6 331.2,429.3 344.8,428.7 358.5,432.6 372.2,440.5 385.8,447.7 399.5,447.7 413.2,441.8 426.8,440.5 440.5,444.4 454.2,439.8 467.8,439.8 481.5,439.2 495.2,437.9 508.8,432.6 522.5,435.9 536.2,435.9 549.8,437.9 563.5,439.8 577.2,436.5 590.8,434.6 604.5,435.2 618.2,433.3 631.8,430.0 645.5,435.9 659.2,441.1 672.8,437.2 686.5,439.8 700.2,440.5 713.8,430.6 727.5,416.9 741.2,416.9 754.8,414.2 768.5,411.6 782.2,424.7 795.8,435.9 809.5,443.1 823.2,437.2" fill="none" stroke="#c98500" stroke-width="1.5" stroke-linejoin="round" stroke-linecap="round"/>
</svg>