<svg xmlns="http://www.w3.org/2000/svg" viewBox="0 0 840 496" width="840" height="496" font-family="-apple-system,&#39;Segoe UI&#39;,system-ui,sans-serif" role="img" aria-label="vinta/awesome-python candlestick chart">
<text x="14.0" y="20.0" font-size="15" fill="#ffffff" font-weight="650">vinta/awesome-python</text>
<text x="183.0" y="20.0" font-size="11.5" fill="#c3c2b7">daily · new stars, volume = new forks</text>
<text x="805.8" y="20.0" font-size="11.0" fill="#c3c2b7">fall</text>
<rect x="791" y="10" width="9" height="12" fill="#008300"/>
<text x="750.6" y="20.0" font-size="11.0" fill="#c3c2b7">rise</text>
<rect x="736" y="10" width="9" height="12" fill="none" stroke="#e66767" stroke-width="1.5"/>
<text x="14.0" y="38.0" font-size="11.0" fill="#898781">last 45 days · +8,197 stars · +389 forks · updated 2026-07-19</text>
<rect x="10" y="66" width="820" height="290" fill="none" stroke="#2c2c2a"/>
<rect x="10" y="384" width="820" height="86" fill="none" stroke="#2c2c2a"/>
<text x="38.0" y="490.0" font-size="11.0" fill="#898781" text-anchor="middle">2026-06</text>
<line x1="483.8" y1="66.0" x2="483.8" y2="356.0" stroke="#2c2c2a" stroke-width="1.0"/>
<line x1="483.8" y1="384.0" x2="483.8" y2="470.0" stroke="#2c2c2a" stroke-width="1.0"/>
<text x="492.9" y="490.0" font-size="11.0" fill="#898781" text-anchor="middle">2026-07</text>
<text x="14.0" y="58.0" font-size="11.0" fill="#c3c2b7">BOLL(20,2)</text>
<text x="84.5" y="58.0" font-size="11.0" fill="#c98500">UP:244.3</text>
<text x="142.9" y="58.0" font-size="11.0" fill="#3987e5">MID:179.9</text>
<text x="207.4" y="58.0" font-size="11.0" fill="#d55181">LOW:115.5</text>
<text x="271.8" y="58.0" font-size="11.0" fill="#9085e9">MA7:191.6</text>
<line x1="10.0" y1="356.0" x2="830.0" y2="356.0" stroke="#2c2c2a" stroke-width="1.0"/>
<text x="14.0" y="353.0" font-size="11.0" fill="#898781">0</text>
<line x1="10.0" y1="244.7" x2="830.0" y2="244.7" stroke="#2c2c2a" stroke-width="1.0"/>
<text x="14.0" y="241.7" font-size="11.0" fill="#898781">100</text>
<line x1="10.0" y1="133.5" x2="830.0" y2="133.5" stroke="#2c2c2a" stroke-width="1.0"/>
<text x="14.0" y="130.5" font-size="11.0" fill="#898781">200</text>
<polyline points="365.3,124.4 383.6,125.3 401.8,126.0 420.0,126.0 438.2,125.4 456.4,120.7 474.7,121.3 492.9,120.9 511.1,121.2 529.3,118.8 547.6,117.8 565.8,110.9 584.0,111.3 602.2,86.6 620.4,87.8 638.7,88.9 656.9,86.6 675.1,87.8 693.3,88.8 711.6,88.8 729.8,85.7 748.0,82.1 766.2,82.1 784.4,80.5 802.7,79.8 820.9,84.2" fill="none" stroke="#c98500" stroke-width="1.5" stroke-linejoin="round" stroke-linecap="round"/>
<polyline points="365.3,151.0 383.6,152.7 401.8,154.1 420.0,154.0 438.2,152.8 456.4,151.9 474.7,151.4 492.9,149.3 511.1,149.5 529.3,150.6 547.6,150.1 565.8,147.7 584.0,147.9 602.2,154.2 620.4,158.0 638.7,158.7 656.9,157.6 675.1,158.7 693.3,159.5 711.6,159.5 729.8,158.1 748.0,155.7 766.2,155.6 784.4,154.3 802.7,153.9 820.9,155.8" fill="none" stroke="#3987e5" stroke-width="1.5" stroke-linejoin="round" stroke-linecap="round"/>
<polyline points="365.3,177.6 383.6,180.1 401.8,182.2 420.0,182.0 438.2,180.2 456.4,183.1 474.7,181.6 492.9,177.7 511.1,177.8 529.3,182.3 547.6,182.5 565.8,184.5 584.0,184.5 602.2,221.8 620.4,228.2 638.7,228.5 656.9,228.5 675.1,229.5 693.3,230.2 711.6,230.2 729.8,230.5 748.0,229.3 766.2,229.2 784.4,228.2 802.7,228.1 820.9,227.5" fill="none" stroke="#d55181" stroke-width="1.5" stroke-linejoin="round" stroke-linecap="round"/>
<polyline points="128.4,156.7 146.7,157.6 164.9,160.5 183.1,157.5 201.3,155.7 219.6,156.7 237.8,153.5 256.0,146.7 274.2,146.2 292.4,144.5 310.7,144.7 328.9,143.5 347.1,146.7 365.3,146.7 383.6,152.7 401.8,156.8 420.0,158.6 438.2,158.4 456.4,153.4 474.7,154.2 492.9,151.7 511.1,148.4 529.3,150.5 547.6,146.4 565.8,141.3 584.0,145.3 602.2,161.4 620.4,171.6 638.7,172.4 656.9,164.5 675.1,169.2 693.3,177.2 711.6,179.9 729.8,157.8 748.0,146.0 766.2,148.0 784.4,149.4 802.7,144.9 820.9,142.8" fill="none" stroke="#9085e9" stroke-width="1.5" stroke-linejoin="round" stroke-linecap="round"/>
<rect x="14.1" y="137.9" width="10.0" height="218.1" fill="none" stroke="#e66767" stroke-width="1.3"/>
<rect x="32.3" y="137.9" width="10.0" height="5.6" fill="#008300"/>
<rect x="50.5" y="143.5" width="10.0" height="21.1" fill="#008300"/>
<rect x="68.8" y="164.6" width="10.0" height="4.5" fill="#008300"/>
<rect x="87.0" y="130.1" width="10.0" height="38.9" fill="none" stroke="#e66767" stroke-width="1.3"/>
<rect x="105.2" y="130.1" width="10.0" height="43.4" fill="#008300"/>
<rect x="123.4" y="173.5" width="10.0" height="4.5" fill="#008300"/>
<rect x="141.7" y="144.6" width="10.0" height="33.4" fill="none" stroke="#e66767" stroke-width="1.3"/>
<rect x="159.9" y="144.6" width="10.0" height="18.9" fill="#008300"/>
<rect x="178.1" y="143.5" width="10.0" height="20.0" fill="none" stroke="#e66767" stroke-width="1.3"/>
<rect x="196.3" y="143.5" width="10.0" height="13.4" fill="#008300"/>
<rect x="214.5" y="136.8" width="10.0" height="20.0" fill="none" stroke="#e66767" stroke-width="1.3"/>
<rect x="232.8" y="136.8" width="10.0" height="14.5" fill="#008300"/>
<rect x="251.0" y="130.1" width="10.0" height="21.1" fill="none" stroke="#e66767" stroke-width="1.3"/>
<rect x="269.2" y="130.1" width="10.0" height="11.1" fill="#008300"/>
<rect x="287.4" y="141.3" width="10.0" height="10.0" fill="#008300"/>
<rect x="305.7" y="145.7" width="10.0" height="5.6" fill="none" stroke="#e66767" stroke-width="1.3"/>
<rect x="323.9" y="145.7" width="10.0" height="2.2" fill="#008300"/>
<rect x="342.1" y="147.9" width="10.0" height="11.1" fill="#008300"/>
<rect x="360.3" y="151.3" width="10.0" height="7.8" fill="none" stroke="#e66767" stroke-width="1.3"/>
<rect x="378.5" y="151.3" width="10.0" height="21.1" fill="#008300"/>
<rect x="396.8" y="170.2" width="10.0" height="2.2" fill="none" stroke="#e66767" stroke-width="1.3"/>
<rect x="415.0" y="163.5" width="10.0" height="6.7" fill="none" stroke="#e66767" stroke-width="1.3"/>
<rect x="433.2" y="144.6" width="10.0" height="18.9" fill="none" stroke="#e66767" stroke-width="1.3"/>
<rect x="451.4" y="112.3" width="10.0" height="32.3" fill="none" stroke="#e66767" stroke-width="1.3"/>
<rect x="469.7" y="112.3" width="10.0" height="52.3" fill="#008300"/>
<rect x="487.9" y="134.6" width="10.0" height="30.0" fill="none" stroke="#e66767" stroke-width="1.3"/>
<rect x="506.1" y="134.6" width="10.0" height="14.5" fill="#008300"/>
<rect x="524.3" y="149.0" width="10.0" height="35.6" fill="#008300"/>
<rect x="542.5" y="134.6" width="10.0" height="50.1" fill="none" stroke="#e66767" stroke-width="1.3"/>
<rect x="560.8" y="109.0" width="10.0" height="25.6" fill="none" stroke="#e66767" stroke-width="1.3"/>
<rect x="579.0" y="109.0" width="10.0" height="31.2" fill="#008300"/>
<rect x="597.2" y="140.1" width="10.0" height="138.0" fill="#008300"/>
<rect x="615.4" y="205.8" width="10.0" height="72.3" fill="none" stroke="#e66767" stroke-width="1.3"/>
<rect x="633.7" y="154.6" width="10.0" height="51.2" fill="none" stroke="#e66767" stroke-width="1.3"/>
<rect x="651.9" y="129.0" width="10.0" height="25.6" fill="none" stroke="#e66767" stroke-width="1.3"/>
<rect x="670.1" y="129.0" width="10.0" height="38.9" fill="#008300"/>
<rect x="688.3" y="164.6" width="10.0" height="3.3" fill="none" stroke="#e66767" stroke-width="1.3"/>
<rect x="706.5" y="159.1" width="10.0" height="5.6" fill="none" stroke="#e66767" stroke-width="1.3"/>
<rect x="724.8" y="123.5" width="10.0" height="35.6" fill="none" stroke="#e66767" stroke-width="1.3"/>
<rect x="743.0" y="123.5" width="10.0" height="1.2" fill="#898781"/>
<rect x="761.2" y="123.5" width="10.0" height="45.6" fill="#008300"/>
<rect x="779.4" y="137.9" width="10.0" height="31.2" fill="none" stroke="#e66767" stroke-width="1.3"/>
<rect x="797.7" y="136.8" width="10.0" height="1.2" fill="none" stroke="#e66767" stroke-width="1.3"/>
<rect x="815.9" y="136.8" width="10.0" height="13.4" fill="#008300"/>
<circle cx="565.8" cy="109.0" r="2" fill="#c3c2b7"/>
<line x1="565.8" y1="109.0" x2="557.8" y2="109.0" stroke="#c3c2b7" stroke-width="1.0"/>
<text x="554.8" y="113.0" font-size="11.0" fill="#c3c2b7" text-anchor="end">222</text>
<circle cx="19.1" cy="356.0" r="2" fill="#c3c2b7"/>
<line x1="19.1" y1="356.0" x2="27.1" y2="356.0" stroke="#c3c2b7" stroke-width="1.0"/>
<text x="30.1" y="350.0" font-size="11.0" fill="#c3c2b7">0</text>
<text x="14.0" y="376.0" font-size="11.0" fill="#c3c2b7">VOL 7 forks</text>
<text x="90.6" y="376.0" font-size="11.0" fill="#c98500">MA5:9.2</text>
<text x="142.9" y="376.0" font-size="11.0" fill="#3987e5">MA10:10.8</text>
<text x="14.0" y="395.0" font-size="10" fill="#898781">35</text>
<rect x="14.1" y="448.9" width="10.0" height="21.1" fill="none" stroke="#e66767" stroke-width="1.1"/>
<rect x="32.3" y="448.9" width="10.0" height="21.1" fill="#008300"/>
<rect x="50.5" y="460.6" width="10.0" height="9.4" fill="#008300"/>
<rect x="68.8" y="446.6" width="10.0" height="23.4" fill="#008300"/>
<rect x="87.0" y="453.6" width="10.0" height="16.4" fill="none" stroke="#e66767" stroke-width="1.1"/>
<rect x="105.2" y="448.9" width="10.0" height="21.1" fill="#008300"/>
<rect x="123.4" y="455.9" width="10.0" height="14.1" fill="#008300"/>
<rect x="141.7" y="448.9" width="10.0" height="21.1" fill="none" stroke="#e66767" stroke-width="1.1"/>
<rect x="159.9" y="451.3" width="10.0" height="18.7" fill="#008300"/>
<rect x="178.1" y="448.9" width="10.0" height="21.1" fill="none" stroke="#e66767" stroke-width="1.1"/>
<rect x="196.3" y="444.2" width="10.0" height="25.8" fill="#008300"/>
<rect x="214.5" y="446.6" width="10.0" height="23.4" fill="none" stroke="#e66767" stroke-width="1.1"/>
<rect x="232.8" y="455.9" width="10.0" height="14.1" fill="#008300"/>
<rect x="251.0" y="455.9" width="10.0" height="14.1" fill="none" stroke="#e66767" stroke-width="1.1"/>
<rect x="269.2" y="444.2" width="10.0" height="25.8" fill="#008300"/>
<rect x="287.4" y="453.6" width="10.0" height="16.4" fill="#008300"/>
<rect x="305.7" y="455.9" width="10.0" height="14.1" fill="none" stroke="#e66767" stroke-width="1.1"/>
<rect x="323.9" y="448.9" width="10.0" height="21.1" fill="#008300"/>
<rect x="342.1" y="458.3" width="10.0" height="11.7" fill="#008300"/>
<rect x="360.3" y="451.3" width="10.0" height="18.7" fill="none" stroke="#e66767" stroke-width="1.1"/>
<rect x="378.5" y="458.3" width="10.0" height="11.7" fill="#008300"/>
<rect x="396.8" y="455.9" width="10.0" height="14.1" fill="none" stroke="#e66767" stroke-width="1.1"/>
<rect x="415.0" y="441.9" width="10.0" height="28.1" fill="none" stroke="#e66767" stroke-width="1.1"/>
<rect x="433.2" y="432.5" width="10.0" height="37.5" fill="none" stroke="#e66767" stroke-width="1.1"/>
<rect x="451.4" y="444.2" width="10.0" height="25.8" fill="none" stroke="#e66767" stroke-width="1.1"/>
<rect x="469.7" y="451.3" width="10.0" height="18.7" fill="#008300"/>
<rect x="487.9" y="446.6" width="10.0" height="23.4" fill="none" stroke="#e66767" stroke-width="1.1"/>
<rect x="506.1" y="455.9" width="10.0" height="14.1" fill="#008300"/>
<rect x="524.3" y="451.3" width="10.0" height="18.7" fill="#008300"/>
<rect x="542.5" y="441.9" width="10.0" height="28.1" fill="none" stroke="#e66767" stroke-width="1.1"/>
<rect x="560.8" y="451.3" width="10.0" height="18.7" fill="none" stroke="#e66767" stroke-width="1.1"/>
<rect x="579.0" y="455.9" width="10.0" height="14.1" fill="#008300"/>
<rect x="597.2" y="458.3" width="10.0" height="11.7" fill="#008300"/>
<rect x="615.4" y="460.6" width="10.0" height="9.4" fill="none" stroke="#e66767" stroke-width="1.1"/>
<rect x="633.7" y="458.3" width="10.0" height="11.7" fill="none" stroke="#e66767" stroke-width="1.1"/>
<rect x="651.9" y="453.6" width="10.0" height="16.4" fill="none" stroke="#e66767" stroke-width="1.1"/>
<rect x="688.3" y="446.6" width="10.0" height="23.4" fill="none" stroke="#e66767" stroke-width="1.1"/>
<rect x="706.5" y="446.6" width="10.0" height="23.4" fill="none" stroke="#e66767" stroke-width="1.1"/>
<rect x="724.8" y="388.0" width="10.0" height="82.0" fill="none" stroke="#e66767" stroke-width="1.1"/>
<rect x="743.0" y="437.2" width="10.0" height="32.8" fill="#898781"/>
<rect x="761.2" y="444.2" width="10.0" height="25.8" fill="#008300"/>
<rect x="779.4" y="460.6" width="10.0" height="9.4" fill="none" stroke="#e66767" stroke-width="1.1"/>
<rect x="797.7" y="446.6" width="10.0" height="23.4" fill="none" stroke="#e66767" stroke-width="1.1"/>
<rect x="815.9" y="453.6" width="10.0" height="16.4" fill="#008300"/>
<polyline points="183.1,451.3 201.3,450.8 219.6,450.6 237.8,450.1 256.0,451.0 274.2,450.1 292.4,450.6 310.7,450.6 328.9,450.6 347.1,451.3 365.3,451.5 383.6,452.9 401.8,453.8 420.0,452.4 438.2,450.1 456.4,450.1 474.7,449.9 492.9,448.9 511.1,449.6 529.3,448.9 547.6,448.0 565.8,447.3 584.0,447.3 602.2,448.9 620.4,451.7 638.7,453.1 656.9,453.4 675.1,455.7 693.3,454.8 711.6,454.3 729.8,448.9 748.0,447.5 766.2,446.3 784.4,446.6 802.7,445.2 820.9,444.7" fill="none" stroke="#3987e5" stroke-width="1.5" stroke-linejoin="round" stroke-linecap="round"/>
<polyline points="92.0,451.7 110.2,451.7 128.4,453.1 146.7,450.8 164.9,451.7 183.1,450.8 201.3,449.9 219.6,448.0 237.8,449.4 256.0,450.3 274.2,449.4 292.4,451.3 310.7,453.1 328.9,451.7 347.1,452.2 365.3,453.6 383.6,454.5 401.8,454.5 420.0,453.1 438.2,448.0 456.4,446.6 474.7,445.2 492.9,443.3 511.1,446.1 529.3,449.9 547.6,449.4 565.8,449.4 584.0,451.3 602.2,451.7 620.4,453.6 638.7,456.9 656.9,457.3 675.1,460.2 693.3,457.8 711.6,455.0 729.8,440.9 748.0,437.7 766.2,432.5 784.4,435.3 802.7,435.3 820.9,448.4" fill="none" stroke="#c98500" stroke-width="1.5" stroke-linejoin="round" stroke-linecap="round"/>
</svg>