<svg xmlns="http://www.w3.org/2000/svg" viewBox="0 0 840 496" width="840" height="496" font-family="-apple-system,&#39;Segoe UI&#39;,system-ui,sans-serif" role="img" aria-label="vinta/awesome-python candlestick chart">
<text x="14.0" y="20.0" font-size="15" fill="#ffffff" font-weight="650">vinta/awesome-python</text>
<text x="183.0" y="20.0" font-size="11.5" fill="#c3c2b7">daily · new stars, volume = new forks</text>
<text x="805.8" y="20.0" font-size="11.0" fill="#c3c2b7">fall</text>
<rect x="791" y="10" width="9" height="12" fill="#008300"/>
<text x="750.6" y="20.0" font-size="11.0" fill="#c3c2b7">rise</text>
<rect x="736" y="10" width="9" height="12" fill="none" stroke="#e66767" stroke-width="1.5"/>
<text x="14.0" y="38.0" font-size="11.0" fill="#898781">last 39 days · +7,033 stars · +308 forks · updated 2026-07-13</text>
<rect x="10" y="66" width="820" height="290" fill="none" stroke="#2c2c2a"/>
<rect x="10" y="384" width="820" height="86" fill="none" stroke="#2c2c2a"/>
<text x="38.0" y="490.0" font-size="11.0" fill="#898781" text-anchor="middle">2026-06</text>
<line x1="556.7" y1="66.0" x2="556.7" y2="356.0" stroke="#2c2c2a" stroke-width="1.0"/>
<line x1="556.7" y1="384.0" x2="556.7" y2="470.0" stroke="#2c2c2a" stroke-width="1.0"/>
<text x="567.2" y="490.0" font-size="11.0" fill="#898781" text-anchor="middle">2026-07</text>
<text x="14.0" y="58.0" font-size="11.0" fill="#c3c2b7">BOLL(20,2)</text>
<text x="84.5" y="58.0" font-size="11.0" fill="#c98500">UP:240.2</text>
<text x="142.9" y="58.0" font-size="11.0" fill="#3987e5">MID:176.6</text>
<text x="207.4" y="58.0" font-size="11.0" fill="#d55181">LOW:113.0</text>
<text x="271.8" y="58.0" font-size="11.0" fill="#9085e9">MA7:158.3</text>
<line x1="10.0" y1="356.0" x2="830.0" y2="356.0" stroke="#2c2c2a" stroke-width="1.0"/>
<text x="14.0" y="353.0" font-size="11.0" fill="#898781">0</text>
<line x1="10.0" y1="241.9" x2="830.0" y2="241.9" stroke="#2c2c2a" stroke-width="1.0"/>
<text x="14.0" y="238.9" font-size="11.0" fill="#898781">100</text>
<line x1="10.0" y1="127.8" x2="830.0" y2="127.8" stroke="#2c2c2a" stroke-width="1.0"/>
<text x="14.0" y="124.8" font-size="11.0" fill="#898781">200</text>
<polyline points="420.0,118.6 441.0,119.5 462.1,120.1 483.1,120.2 504.1,119.5 525.1,114.8 546.2,115.3 567.2,114.9 588.2,115.2 609.2,112.8 630.3,111.7 651.3,104.7 672.3,105.1 693.3,79.8 714.4,81.0 735.4,82.1 756.4,79.8 777.4,81.0 798.5,82.0 819.5,82.0" fill="none" stroke="#c98500" stroke-width="1.5" stroke-linejoin="round" stroke-linecap="round"/>
<polyline points="420.0,145.8 441.0,147.6 462.1,149.0 483.1,148.9 504.1,147.6 525.1,146.7 546.2,146.3 567.2,144.0 588.2,144.3 609.2,145.4 630.3,144.9 651.3,142.4 672.3,142.6 693.3,149.1 714.4,153.0 735.4,153.7 756.4,152.5 777.4,153.7 798.5,154.5 819.5,154.5" fill="none" stroke="#3987e5" stroke-width="1.5" stroke-linejoin="round" stroke-linecap="round"/>
<polyline points="420.0,173.1 441.0,175.7 462.1,177.8 483.1,177.6 504.1,175.7 525.1,178.7 546.2,177.2 567.2,173.2 588.2,173.3 609.2,177.9 630.3,178.1 651.3,180.2 672.3,180.2 693.3,218.4 714.4,225.0 735.4,225.3 756.4,225.3 777.4,226.3 798.5,227.1 819.5,227.1" fill="none" stroke="#d55181" stroke-width="1.5" stroke-linejoin="round" stroke-linecap="round"/>
<polyline points="146.7,151.7 167.7,152.6 188.7,155.6 209.7,152.5 230.8,150.7 251.8,151.7 272.8,148.4 293.8,141.4 314.9,140.9 335.9,139.1 356.9,139.4 377.9,138.1 399.0,141.4 420.0,141.4 441.0,147.6 462.1,151.8 483.1,153.6 504.1,153.4 525.1,148.3 546.2,149.1 567.2,146.6 588.2,143.1 609.2,145.3 630.3,141.1 651.3,135.8 672.3,139.9 693.3,156.5 714.4,167.0 735.4,167.8 756.4,159.7 777.4,164.5 798.5,172.7 819.5,175.4" fill="none" stroke="#9085e9" stroke-width="1.5" stroke-linejoin="round" stroke-linecap="round"/>
<rect x="14.7" y="132.4" width="11.6" height="223.6" fill="none" stroke="#e66767" stroke-width="1.3"/>
<rect x="35.8" y="132.4" width="11.6" height="5.7" fill="#008300"/>
<rect x="56.8" y="138.1" width="11.6" height="21.7" fill="#008300"/>
<rect x="77.8" y="159.8" width="11.6" height="4.6" fill="#008300"/>
<rect x="98.8" y="124.4" width="11.6" height="39.9" fill="none" stroke="#e66767" stroke-width="1.3"/>
<rect x="119.9" y="124.4" width="11.6" height="44.5" fill="#008300"/>
<rect x="140.9" y="168.9" width="11.6" height="4.6" fill="#008300"/>
<rect x="161.9" y="139.3" width="11.6" height="34.2" fill="none" stroke="#e66767" stroke-width="1.3"/>
<rect x="182.9" y="139.3" width="11.6" height="19.4" fill="#008300"/>
<rect x="204.0" y="138.1" width="11.6" height="20.5" fill="none" stroke="#e66767" stroke-width="1.3"/>
<rect x="225.0" y="138.1" width="11.6" height="13.7" fill="#008300"/>
<rect x="246.0" y="131.3" width="11.6" height="20.5" fill="none" stroke="#e66767" stroke-width="1.3"/>
<rect x="267.0" y="131.3" width="11.6" height="14.8" fill="#008300"/>
<rect x="288.1" y="124.4" width="11.6" height="21.7" fill="none" stroke="#e66767" stroke-width="1.3"/>
<rect x="309.1" y="124.4" width="11.6" height="11.4" fill="#008300"/>
<rect x="330.1" y="135.8" width="11.6" height="10.3" fill="#008300"/>
<rect x="351.1" y="140.4" width="11.6" height="5.7" fill="none" stroke="#e66767" stroke-width="1.3"/>
<rect x="372.2" y="140.4" width="11.6" height="2.3" fill="#008300"/>
<rect x="393.2" y="142.7" width="11.6" height="11.4" fill="#008300"/>
<rect x="414.2" y="146.1" width="11.6" height="8.0" fill="none" stroke="#e66767" stroke-width="1.3"/>
<rect x="435.2" y="146.1" width="11.6" height="21.7" fill="#008300"/>
<rect x="456.3" y="165.5" width="11.6" height="2.3" fill="none" stroke="#e66767" stroke-width="1.3"/>
<rect x="477.3" y="158.6" width="11.6" height="6.8" fill="none" stroke="#e66767" stroke-width="1.3"/>
<rect x="498.3" y="139.3" width="11.6" height="19.4" fill="none" stroke="#e66767" stroke-width="1.3"/>
<rect x="519.3" y="106.2" width="11.6" height="33.1" fill="none" stroke="#e66767" stroke-width="1.3"/>
<rect x="540.4" y="106.2" width="11.6" height="53.6" fill="#008300"/>
<rect x="561.4" y="129.0" width="11.6" height="30.8" fill="none" stroke="#e66767" stroke-width="1.3"/>
<rect x="582.4" y="129.0" width="11.6" height="14.8" fill="#008300"/>
<rect x="603.4" y="143.8" width="11.6" height="36.5" fill="#008300"/>
<rect x="624.5" y="129.0" width="11.6" height="51.3" fill="none" stroke="#e66767" stroke-width="1.3"/>
<rect x="645.5" y="102.8" width="11.6" height="26.2" fill="none" stroke="#e66767" stroke-width="1.3"/>
<rect x="666.5" y="102.8" width="11.6" height="31.9" fill="#008300"/>
<rect x="687.6" y="134.7" width="11.6" height="141.5" fill="#008300"/>
<rect x="708.6" y="202.0" width="11.6" height="74.1" fill="none" stroke="#e66767" stroke-width="1.3"/>
<rect x="729.6" y="149.5" width="11.6" height="52.5" fill="none" stroke="#e66767" stroke-width="1.3"/>
<rect x="750.6" y="123.3" width="11.6" height="26.2" fill="none" stroke="#e66767" stroke-width="1.3"/>
<rect x="771.7" y="123.3" width="11.6" height="39.9" fill="#008300"/>
<rect x="792.7" y="159.8" width="11.6" height="3.4" fill="none" stroke="#e66767" stroke-width="1.3"/>
<rect x="813.7" y="154.1" width="11.6" height="5.7" fill="none" stroke="#e66767" stroke-width="1.3"/>
<circle cx="651.3" cy="102.8" r="2" fill="#c3c2b7"/>
<line x1="651.3" y1="102.8" x2="643.3" y2="102.8" stroke="#c3c2b7" stroke-width="1.0"/>
<text x="640.3" y="106.8" font-size="11.0" fill="#c3c2b7" text-anchor="end">222</text>
<circle cx="20.5" cy="356.0" r="2" fill="#c3c2b7"/>
<line x1="20.5" y1="356.0" x2="28.5" y2="356.0" stroke="#c3c2b7" stroke-width="1.0"/>
<text x="31.5" y="350.0" font-size="11.0" fill="#c3c2b7">0</text>
<text x="14.0" y="376.0" font-size="11.0" fill="#c3c2b7">VOL 10 forks</text>
<text x="96.6" y="376.0" font-size="11.0" fill="#c98500">MA5:6.4</text>
<text x="149.0" y="376.0" font-size="11.0" fill="#3987e5">MA10:6.7</text>
<text x="14.0" y="395.0" font-size="10" fill="#898781">16</text>
<rect x="14.7" y="423.9" width="11.6" height="46.1" fill="none" stroke="#e66767" stroke-width="1.1"/>
<rect x="35.8" y="423.9" width="11.6" height="46.1" fill="#008300"/>
<rect x="56.8" y="449.5" width="11.6" height="20.5" fill="#008300"/>
<rect x="77.8" y="418.8" width="11.6" height="51.2" fill="#008300"/>
<rect x="98.8" y="434.1" width="11.6" height="35.9" fill="none" stroke="#e66767" stroke-width="1.1"/>
<rect x="119.9" y="423.9" width="11.6" height="46.1" fill="#008300"/>
<rect x="140.9" y="439.2" width="11.6" height="30.8" fill="#008300"/>
<rect x="161.9" y="423.9" width="11.6" height="46.1" fill="none" stroke="#e66767" stroke-width="1.1"/>
<rect x="182.9" y="429.0" width="11.6" height="41.0" fill="#008300"/>
<rect x="204.0" y="423.9" width="11.6" height="46.1" fill="none" stroke="#e66767" stroke-width="1.1"/>
<rect x="225.0" y="413.6" width="11.6" height="56.4" fill="#008300"/>
<rect x="246.0" y="418.8" width="11.6" height="51.2" fill="none" stroke="#e66767" stroke-width="1.1"/>
<rect x="267.0" y="439.2" width="11.6" height="30.8" fill="#008300"/>
<rect x="288.1" y="439.2" width="11.6" height="30.8" fill="none" stroke="#e66767" stroke-width="1.1"/>
<rect x="309.1" y="413.6" width="11.6" height="56.4" fill="#008300"/>
<rect x="330.1" y="434.1" width="11.6" height="35.9" fill="#008300"/>
<rect x="351.1" y="439.2" width="11.6" height="30.8" fill="none" stroke="#e66767" stroke-width="1.1"/>
<rect x="372.2" y="423.9" width="11.6" height="46.1" fill="#008300"/>
<rect x="393.2" y="444.4" width="11.6" height="25.6" fill="#008300"/>
<rect x="414.2" y="429.0" width="11.6" height="41.0" fill="none" stroke="#e66767" stroke-width="1.1"/>
<rect x="435.2" y="444.4" width="11.6" height="25.6" fill="#008300"/>
<rect x="456.3" y="439.2" width="11.6" height="30.8" fill="none" stroke="#e66767" stroke-width="1.1"/>
<rect x="477.3" y="408.5" width="11.6" height="61.5" fill="none" stroke="#e66767" stroke-width="1.1"/>
<rect x="498.3" y="388.0" width="11.6" height="82.0" fill="none" stroke="#e66767" stroke-width="1.1"/>
<rect x="519.3" y="413.6" width="11.6" height="56.4" fill="none" stroke="#e66767" stroke-width="1.1"/>
<rect x="540.4" y="429.0" width="11.6" height="41.0" fill="#008300"/>
<rect x="561.4" y="418.8" width="11.6" height="51.2" fill="none" stroke="#e66767" stroke-width="1.1"/>
<rect x="582.4" y="439.2" width="11.6" height="30.8" fill="#008300"/>
<rect x="603.4" y="429.0" width="11.6" height="41.0" fill="#008300"/>
<rect x="624.5" y="408.5" width="11.6" height="61.5" fill="none" stroke="#e66767" stroke-width="1.1"/>
<rect x="645.5" y="429.0" width="11.6" height="41.0" fill="none" stroke="#e66767" stroke-width="1.1"/>
<rect x="666.5" y="439.2" width="11.6" height="30.8" fill="#008300"/>
<rect x="687.6" y="444.4" width="11.6" height="25.6" fill="#008300"/>
<rect x="708.6" y="449.5" width="11.6" height="20.5" fill="none" stroke="#e66767" stroke-width="1.1"/>
<rect x="729.6" y="444.4" width="11.6" height="25.6" fill="none" stroke="#e66767" stroke-width="1.1"/>
<rect x="750.6" y="434.1" width="11.6" height="35.9" fill="none" stroke="#e66767" stroke-width="1.1"/>
<rect x="792.7" y="418.8" width="11.6" height="51.2" fill="none" stroke="#e66767" stroke-width="1.1"/>
<rect x="813.7" y="418.8" width="11.6" height="51.2" fill="none" stroke="#e66767" stroke-width="1.1"/>
<polyline points="209.7,429.0 230.8,428.0 251.8,427.5 272.8,426.4 293.8,428.5 314.9,426.4 335.9,427.5 356.9,427.5 377.9,427.5 399.0,429.0 420.0,429.5 441.0,432.6 462.1,434.6 483.1,431.6 504.1,426.4 525.1,426.4 546.2,425.9 567.2,423.9 588.2,425.4 609.2,423.9 630.3,421.8 651.3,420.3 672.3,420.3 693.3,423.9 714.4,430.0 735.4,433.1 756.4,433.6 777.4,438.7 798.5,436.7 819.5,435.7" fill="none" stroke="#3987e5" stroke-width="1.5" stroke-linejoin="round" stroke-linecap="round"/>
<polyline points="104.6,430.0 125.6,430.0 146.7,433.1 167.7,428.0 188.7,430.0 209.7,428.0 230.8,425.9 251.8,421.8 272.8,424.9 293.8,426.9 314.9,424.9 335.9,429.0 356.9,433.1 377.9,430.0 399.0,431.1 420.0,434.1 441.0,436.2 462.1,436.2 483.1,433.1 504.1,421.8 525.1,418.8 546.2,415.7 567.2,411.6 588.2,417.7 609.2,425.9 630.3,424.9 651.3,424.9 672.3,429.0 693.3,430.0 714.4,434.1 735.4,441.3 756.4,442.3 777.4,448.5 798.5,443.4 819.5,437.2" fill="none" stroke="#c98500" stroke-width="1.5" stroke-linejoin="round" stroke-linecap="round"/>
</svg>