<svg xmlns="http://www.w3.org/2000/svg" viewBox="0 0 840 496" width="840" height="496" font-family="-apple-system,&#39;Segoe UI&#39;,system-ui,sans-serif" role="img" aria-label="vinta/awesome-python candlestick chart">
<text x="14.0" y="20.0" font-size="15" fill="#ffffff" font-weight="650">vinta/awesome-python</text>
<text x="183.0" y="20.0" font-size="11.5" fill="#c3c2b7">daily · new stars, volume = new forks</text>
<text x="805.8" y="20.0" font-size="11.0" fill="#c3c2b7">fall</text>
<rect x="791" y="10" width="9" height="12" fill="#008300"/>
<text x="750.6" y="20.0" font-size="11.0" fill="#c3c2b7">rise</text>
<rect x="736" y="10" width="9" height="12" fill="none" stroke="#e66767" stroke-width="1.5"/>
<text x="14.0" y="38.0" font-size="11.0" fill="#898781">last 60 days · +12,470 stars · +420 forks · updated 2026-09-23</text>
<rect x="10" y="66" width="820" height="290" fill="none" stroke="#2c2c2a"/>
<rect x="10" y="384" width="820" height="86" fill="none" stroke="#2c2c2a"/>
<text x="38.0" y="490.0" font-size="11.0" fill="#898781" text-anchor="middle">2026-07</text>
<line x1="105.7" y1="66.0" x2="105.7" y2="356.0" stroke="#2c2c2a" stroke-width="1.0"/>
<line x1="105.7" y1="384.0" x2="105.7" y2="470.0" stroke="#2c2c2a" stroke-width="1.0"/>
<text x="112.5" y="490.0" font-size="11.0" fill="#898781" text-anchor="middle">2026-08</text>
<line x1="529.3" y1="66.0" x2="529.3" y2="356.0" stroke="#2c2c2a" stroke-width="1.0"/>
<line x1="529.3" y1="384.0" x2="529.3" y2="470.0" stroke="#2c2c2a" stroke-width="1.0"/>
<text x="536.2" y="490.0" font-size="11.0" fill="#898781" text-anchor="middle">2026-09</text>
<text x="14.0" y="58.0" font-size="11.0" fill="#c3c2b7">BOLL(20,2)</text>
<text x="84.5" y="58.0" font-size="11.0" fill="#c98500">UP:295.0</text>
<text x="142.9" y="58.0" font-size="11.0" fill="#3987e5">MID:227.6</text>
<text x="207.4" y="58.0" font-size="11.0" fill="#d55181">LOW:160.2</text>
<text x="271.8" y="58.0" font-size="11.0" fill="#9085e9">MA7:210.3</text>
<line x1="10.0" y1="356.0" x2="830.0" y2="356.0" stroke="#2c2c2a" stroke-width="1.0"/>
<text x="14.0" y="353.0" font-size="11.0" fill="#898781">0</text>
<line x1="10.0" y1="223.2" x2="830.0" y2="223.2" stroke="#2c2c2a" stroke-width="1.0"/>
<text x="14.0" y="220.2" font-size="11.0" fill="#898781">200</text>
<line x1="10.0" y1="90.4" x2="830.0" y2="90.4" stroke="#2c2c2a" stroke-width="1.0"/>
<text x="14.0" y="87.4" font-size="11.0" fill="#898781">400</text>
<polyline points="16.8,191.9 30.5,192.5 44.2,206.3 57.8,210.9 71.5,210.9 85.2,211.4 98.8,212.0 112.5,212.3 126.2,211.0 139.8,212.2 153.5,212.0 167.2,212.6 180.8,212.3 194.5,212.1 208.2,212.0 221.8,212.4 235.5,212.9 249.2,213.9 262.8,215.5 276.5,215.9 290.2,217.1 303.8,216.5 317.5,217.1 331.2,216.8 344.8,216.8 358.5,215.6 372.2,202.1 385.8,201.9 399.5,201.0 413.2,201.7 426.8,203.5 440.5,204.0 454.2,204.7 467.8,187.9 481.5,174.9 495.2,174.9 508.8,173.1 522.5,173.2 536.2,171.8 549.8,135.0 563.5,132.1 577.2,131.3 590.8,129.5 604.5,120.0 618.2,117.4 631.8,117.3 645.5,119.1 659.2,118.4 672.8,117.9 686.5,118.4 700.2,119.6 713.8,120.1 727.5,120.5 741.2,123.5 754.8,127.3 768.5,128.2 782.2,127.9 795.8,128.2 809.5,128.1 823.2,160.1" fill="none" stroke="#c98500" stroke-width="1.5" stroke-linejoin="round" stroke-linecap="round"/>
<polyline points="16.8,234.0 30.5,234.5 44.2,230.5 57.8,229.1 71.5,229.1 85.2,229.3 98.8,228.7 112.5,228.6 126.2,229.1 139.8,229.6 153.5,229.5 167.2,228.7 180.8,228.6 194.5,229.5 208.2,229.7 221.8,230.9 235.5,231.6 249.2,232.9 262.8,233.4 276.5,234.2 290.2,234.6 303.8,235.2 317.5,235.5 331.2,236.1 344.8,236.1 358.5,235.8 372.2,233.3 385.8,233.0 399.5,231.6 413.2,232.3 426.8,233.8 440.5,234.3 454.2,234.6 467.8,230.7 481.5,226.8 495.2,226.6 508.8,225.0 522.5,224.1 536.2,223.2 549.8,215.0 563.5,212.8 577.2,210.3 590.8,208.1 604.5,202.4 618.2,199.1 631.8,198.9 645.5,200.4 659.2,198.3 672.8,197.1 686.5,196.6 700.2,195.2 713.8,194.7 727.5,193.7 741.2,195.4 754.8,197.7 768.5,196.2 782.2,197.3 795.8,196.7 809.5,197.5 823.2,204.9" fill="none" stroke="#3987e5" stroke-width="1.5" stroke-linejoin="round" stroke-linecap="round"/>
<polyline points="16.8,276.2 30.5,276.6 44.2,254.6 57.8,247.2 71.5,247.3 85.2,247.2 98.8,245.4 112.5,244.9 126.2,247.3 139.8,247.0 153.5,247.0 167.2,244.8 180.8,244.8 194.5,246.8 208.2,247.5 221.8,249.3 235.5,250.3 249.2,252.0 262.8,251.3 276.5,252.5 290.2,252.1 303.8,253.9 317.5,253.9 331.2,255.3 344.8,255.4 358.5,256.0 372.2,264.5 385.8,264.1 399.5,262.2 413.2,263.0 426.8,264.2 440.5,264.6 454.2,264.5 467.8,273.4 481.5,278.8 495.2,278.2 508.8,276.8 522.5,275.0 536.2,274.6 549.8,295.0 563.5,293.5 577.2,289.4 590.8,286.8 604.5,284.9 618.2,280.9 631.8,280.4 645.5,281.7 659.2,278.2 672.8,276.2 686.5,274.8 700.2,270.9 713.8,269.3 727.5,266.8 741.2,267.3 754.8,268.1 768.5,264.3 782.2,266.7 795.8,265.1 809.5,266.8 823.2,249.7" fill="none" stroke="#d55181" stroke-width="1.5" stroke-linejoin="round" stroke-linecap="round"/>
<polyline points="16.8,223.9 30.5,224.5 44.2,225.3 57.8,227.2 71.5,229.6 85.2,230.7 98.8,231.2 112.5,233.8 126.2,235.4 139.8,235.2 153.5,232.0 167.2,230.9 180.8,230.5 194.5,232.1 208.2,232.0 221.8,231.4 235.5,233.4 249.2,237.8 262.8,237.4 276.5,240.5 290.2,238.5 303.8,240.1 317.5,238.7 331.2,240.0 344.8,238.7 358.5,237.6 372.2,228.6 385.8,229.3 399.5,225.2 413.2,226.1 426.8,225.7 440.5,225.6 454.2,227.2 467.8,224.6 481.5,214.4 495.2,217.0 508.8,212.3 522.5,209.9 536.2,205.8 549.8,184.3 563.5,187.4 577.2,192.9 590.8,186.0 604.5,175.6 618.2,167.4 631.8,168.0 645.5,186.9 659.2,188.0 672.8,187.3 686.5,192.9 700.2,205.1 713.8,212.9 727.5,212.4 741.2,210.4 754.8,212.6 768.5,214.6 782.2,214.4 795.8,214.0 809.5,213.7 823.2,216.4" fill="none" stroke="#9085e9" stroke-width="1.5" stroke-linejoin="round" stroke-linecap="round"/>
<rect x="13.1" y="221.2" width="7.5" height="7.3" fill="none" stroke="#e66767" stroke-width="1.3"/>
<rect x="26.7" y="221.2" width="7.5" height="15.9" fill="#008300"/>
<rect x="40.4" y="227.9" width="7.5" height="9.3" fill="none" stroke="#e66767" stroke-width="1.3"/>
<rect x="54.1" y="227.9" width="7.5" height="10.6" fill="#008300"/>
<rect x="67.7" y="236.5" width="7.5" height="2.0" fill="none" stroke="#e66767" stroke-width="1.3"/>
<rect x="81.4" y="225.2" width="7.5" height="11.3" fill="none" stroke="#e66767" stroke-width="1.3"/>
<rect x="95.1" y="225.2" width="7.5" height="6.6" fill="#008300"/>
<rect x="108.7" y="231.8" width="7.5" height="7.3" fill="#008300"/>
<rect x="122.4" y="239.2" width="7.5" height="10.0" fill="#008300"/>
<rect x="136.1" y="225.9" width="7.5" height="23.2" fill="none" stroke="#e66767" stroke-width="1.3"/>
<rect x="149.7" y="216.6" width="7.5" height="9.3" fill="none" stroke="#e66767" stroke-width="1.3"/>
<rect x="163.4" y="216.6" width="7.5" height="12.0" fill="#008300"/>
<rect x="177.1" y="222.6" width="7.5" height="6.0" fill="none" stroke="#e66767" stroke-width="1.3"/>
<rect x="190.7" y="222.6" width="7.5" height="20.6" fill="#008300"/>
<rect x="204.4" y="238.5" width="7.5" height="4.6" fill="none" stroke="#e66767" stroke-width="1.3"/>
<rect x="218.1" y="238.5" width="7.5" height="6.0" fill="#008300"/>
<rect x="231.7" y="239.8" width="7.5" height="4.6" fill="none" stroke="#e66767" stroke-width="1.3"/>
<rect x="245.4" y="239.8" width="7.5" height="7.3" fill="#008300"/>
<rect x="259.1" y="226.5" width="7.5" height="20.6" fill="none" stroke="#e66767" stroke-width="1.3"/>
<rect x="272.7" y="226.5" width="7.5" height="17.3" fill="#008300"/>
<rect x="286.4" y="229.2" width="7.5" height="14.6" fill="none" stroke="#e66767" stroke-width="1.3"/>
<rect x="300.1" y="229.2" width="7.5" height="20.6" fill="#008300"/>
<rect x="313.7" y="234.5" width="7.5" height="15.3" fill="none" stroke="#e66767" stroke-width="1.3"/>
<rect x="327.4" y="234.5" width="7.5" height="14.6" fill="#008300"/>
<rect x="341.1" y="237.8" width="7.5" height="11.3" fill="none" stroke="#e66767" stroke-width="1.3"/>
<rect x="354.7" y="218.6" width="7.5" height="19.3" fill="none" stroke="#e66767" stroke-width="1.3"/>
<rect x="368.4" y="181.4" width="7.5" height="37.2" fill="none" stroke="#e66767" stroke-width="1.3"/>
<rect x="382.1" y="181.4" width="7.5" height="52.4" fill="#008300"/>
<rect x="395.7" y="221.2" width="7.5" height="12.6" fill="none" stroke="#e66767" stroke-width="1.3"/>
<rect x="409.4" y="221.2" width="7.5" height="19.3" fill="#008300"/>
<rect x="423.1" y="240.5" width="7.5" height="6.0" fill="#008300"/>
<rect x="436.7" y="237.2" width="7.5" height="9.3" fill="none" stroke="#e66767" stroke-width="1.3"/>
<rect x="450.4" y="229.9" width="7.5" height="7.3" fill="none" stroke="#e66767" stroke-width="1.3"/>
<rect x="464.1" y="163.5" width="7.5" height="66.4" fill="none" stroke="#e66767" stroke-width="1.3"/>
<rect x="477.7" y="162.1" width="7.5" height="1.3" fill="none" stroke="#e66767" stroke-width="1.3"/>
<rect x="491.4" y="162.1" width="7.5" height="77.0" fill="#008300"/>
<rect x="505.1" y="207.9" width="7.5" height="31.2" fill="none" stroke="#e66767" stroke-width="1.3"/>
<rect x="518.7" y="207.9" width="7.5" height="21.9" fill="#008300"/>
<rect x="532.4" y="207.9" width="7.5" height="21.9" fill="none" stroke="#e66767" stroke-width="1.3"/>
<rect x="546.1" y="79.8" width="7.5" height="128.1" fill="none" stroke="#e66767" stroke-width="1.3"/>
<rect x="559.7" y="185.4" width="7.5" height="170.6" fill="none" stroke="#e66767" stroke-width="1.3"/>
<rect x="573.4" y="185.4" width="7.5" height="15.3" fill="#008300"/>
<rect x="587.1" y="190.7" width="7.5" height="10.0" fill="none" stroke="#e66767" stroke-width="1.3"/>
<rect x="600.7" y="134.9" width="7.5" height="55.8" fill="none" stroke="#e66767" stroke-width="1.3"/>
<rect x="614.4" y="134.9" width="7.5" height="37.2" fill="#008300"/>
<rect x="628.1" y="172.1" width="7.5" height="40.5" fill="#008300"/>
<rect x="641.7" y="211.9" width="7.5" height="1.2" fill="none" stroke="#e66767" stroke-width="1.3"/>
<rect x="655.4" y="192.7" width="7.5" height="19.3" fill="none" stroke="#e66767" stroke-width="1.3"/>
<rect x="669.1" y="192.7" width="7.5" height="3.3" fill="#008300"/>
<rect x="682.7" y="196.0" width="7.5" height="34.5" fill="#008300"/>
<rect x="696.4" y="219.9" width="7.5" height="10.6" fill="none" stroke="#e66767" stroke-width="1.3"/>
<rect x="710.1" y="219.9" width="7.5" height="6.6" fill="#008300"/>
<rect x="723.7" y="209.3" width="7.5" height="17.3" fill="none" stroke="#e66767" stroke-width="1.3"/>
<rect x="737.4" y="198.0" width="7.5" height="11.3" fill="none" stroke="#e66767" stroke-width="1.3"/>
<rect x="751.1" y="198.0" width="7.5" height="10.0" fill="#008300"/>
<rect x="764.7" y="207.9" width="7.5" height="2.0" fill="#008300"/>
<rect x="778.4" y="209.9" width="7.5" height="19.3" fill="#008300"/>
<rect x="792.1" y="217.2" width="7.5" height="12.0" fill="none" stroke="#e66767" stroke-width="1.3"/>
<rect x="805.7" y="217.2" width="7.5" height="7.3" fill="#008300"/>
<rect x="819.4" y="224.5" width="7.5" height="3.3" fill="#008300"/>
<circle cx="549.8" cy="79.8" r="2" fill="#c3c2b7"/>
<line x1="549.8" y1="79.8" x2="541.8" y2="79.8" stroke="#c3c2b7" stroke-width="1.0"/>
<text x="538.8" y="83.8" font-size="11.0" fill="#c3c2b7" text-anchor="end">416</text>
<circle cx="563.5" cy="356.0" r="2" fill="#c3c2b7"/>
<line x1="563.5" y1="356.0" x2="555.5" y2="356.0" stroke="#c3c2b7" stroke-width="1.0"/>
<text x="552.5" y="350.0" font-size="11.0" fill="#c3c2b7" text-anchor="end">0</text>
<text x="14.0" y="376.0" font-size="11.0" fill="#c3c2b7">VOL 3 forks</text>
<text x="90.6" y="376.0" font-size="11.0" fill="#c98500">MA5:4.6</text>
<text x="142.9" y="376.0" font-size="11.0" fill="#3987e5">MA10:5.3</text>
<text x="14.0" y="395.0" font-size="10" fill="#898781">30</text>
<rect x="13.1" y="461.8" width="7.5" height="8.2" fill="none" stroke="#e66767" stroke-width="1.1"/>
<rect x="26.7" y="448.1" width="7.5" height="21.9" fill="#008300"/>
<rect x="40.4" y="459.1" width="7.5" height="10.9" fill="none" stroke="#e66767" stroke-width="1.1"/>
<rect x="54.1" y="437.2" width="7.5" height="32.8" fill="#008300"/>
<rect x="67.7" y="456.3" width="7.5" height="13.7" fill="none" stroke="#e66767" stroke-width="1.1"/>
<rect x="81.4" y="461.8" width="7.5" height="8.2" fill="none" stroke="#e66767" stroke-width="1.1"/>
<rect x="95.1" y="445.4" width="7.5" height="24.6" fill="#008300"/>
<rect x="108.7" y="456.3" width="7.5" height="13.7" fill="#008300"/>
<rect x="136.1" y="431.7" width="7.5" height="38.3" fill="none" stroke="#e66767" stroke-width="1.1"/>
<rect x="149.7" y="453.6" width="7.5" height="16.4" fill="none" stroke="#e66767" stroke-width="1.1"/>
<rect x="163.4" y="445.4" width="7.5" height="24.6" fill="#008300"/>
<rect x="177.1" y="429.0" width="7.5" height="41.0" fill="none" stroke="#e66767" stroke-width="1.1"/>
<rect x="190.7" y="426.3" width="7.5" height="43.7" fill="#008300"/>
<rect x="204.4" y="456.3" width="7.5" height="13.7" fill="none" stroke="#e66767" stroke-width="1.1"/>
<rect x="218.1" y="453.6" width="7.5" height="16.4" fill="#008300"/>
<rect x="231.7" y="445.4" width="7.5" height="24.6" fill="none" stroke="#e66767" stroke-width="1.1"/>
<rect x="245.4" y="445.4" width="7.5" height="24.6" fill="#008300"/>
<rect x="259.1" y="448.1" width="7.5" height="21.9" fill="none" stroke="#e66767" stroke-width="1.1"/>
<rect x="272.7" y="453.6" width="7.5" height="16.4" fill="#008300"/>
<rect x="286.4" y="467.3" width="7.5" height="2.7" fill="none" stroke="#e66767" stroke-width="1.1"/>
<rect x="313.7" y="461.8" width="7.5" height="8.2" fill="none" stroke="#e66767" stroke-width="1.1"/>
<rect x="327.4" y="448.1" width="7.5" height="21.9" fill="#008300"/>
<rect x="341.1" y="461.8" width="7.5" height="8.2" fill="none" stroke="#e66767" stroke-width="1.1"/>
<rect x="354.7" y="439.9" width="7.5" height="30.1" fill="none" stroke="#e66767" stroke-width="1.1"/>
<rect x="368.4" y="442.7" width="7.5" height="27.3" fill="none" stroke="#e66767" stroke-width="1.1"/>
<rect x="382.1" y="467.3" width="7.5" height="2.7" fill="#008300"/>
<rect x="395.7" y="450.9" width="7.5" height="19.1" fill="none" stroke="#e66767" stroke-width="1.1"/>
<rect x="423.1" y="459.1" width="7.5" height="10.9" fill="#008300"/>
<rect x="436.7" y="453.6" width="7.5" height="16.4" fill="none" stroke="#e66767" stroke-width="1.1"/>
<rect x="450.4" y="459.1" width="7.5" height="10.9" fill="none" stroke="#e66767" stroke-width="1.1"/>
<rect x="464.1" y="459.1" width="7.5" height="10.9" fill="none" stroke="#e66767" stroke-width="1.1"/>
<rect x="477.7" y="412.6" width="7.5" height="57.4" fill="none" stroke="#e66767" stroke-width="1.1"/>
<rect x="491.4" y="450.9" width="7.5" height="19.1" fill="#008300"/>
<rect x="505.1" y="453.6" width="7.5" height="16.4" fill="none" stroke="#e66767" stroke-width="1.1"/>
<rect x="518.7" y="439.9" width="7.5" height="30.1" fill="#008300"/>
<rect x="532.4" y="450.9" width="7.5" height="19.1" fill="none" stroke="#e66767" stroke-width="1.1"/>
<rect x="546.1" y="461.8" width="7.5" height="8.2" fill="none" stroke="#e66767" stroke-width="1.1"/>
<rect x="559.7" y="467.3" width="7.5" height="2.7" fill="none" stroke="#e66767" stroke-width="1.1"/>
<rect x="573.4" y="450.9" width="7.5" height="19.1" fill="#008300"/>
<rect x="587.1" y="448.1" width="7.5" height="21.9" fill="none" stroke="#e66767" stroke-width="1.1"/>
<rect x="600.7" y="388.0" width="7.5" height="82.0" fill="none" stroke="#e66767" stroke-width="1.1"/>
<rect x="614.4" y="439.9" width="7.5" height="30.1" fill="#008300"/>
<rect x="628.1" y="442.7" width="7.5" height="27.3" fill="#008300"/>
<rect x="641.7" y="453.6" width="7.5" height="16.4" fill="none" stroke="#e66767" stroke-width="1.1"/>
<rect x="655.4" y="445.4" width="7.5" height="24.6" fill="none" stroke="#e66767" stroke-width="1.1"/>
<rect x="669.1" y="445.4" width="7.5" height="24.6" fill="#008300"/>
<rect x="682.7" y="450.9" width="7.5" height="19.1" fill="#008300"/>
<rect x="696.4" y="464.5" width="7.5" height="5.5" fill="none" stroke="#e66767" stroke-width="1.1"/>
<rect x="710.1" y="450.9" width="7.5" height="19.1" fill="#008300"/>
<rect x="723.7" y="450.9" width="7.5" height="19.1" fill="none" stroke="#e66767" stroke-width="1.1"/>
<rect x="737.4" y="464.5" width="7.5" height="5.5" fill="none" stroke="#e66767" stroke-width="1.1"/>
<rect x="751.1" y="437.2" width="7.5" height="32.8" fill="#008300"/>
<rect x="764.7" y="464.5" width="7.5" height="5.5" fill="#008300"/>
<rect x="778.4" y="450.9" width="7.5" height="19.1" fill="#008300"/>
<rect x="792.1" y="453.6" width="7.5" height="16.4" fill="none" stroke="#e66767" stroke-width="1.1"/>
<rect x="805.7" y="456.3" width="7.5" height="13.7" fill="#008300"/>
<rect x="819.4" y="461.8" width="7.5" height="8.2" fill="#008300"/>
<polyline points="16.8,455.8 30.5,456.6 44.2,456.6 57.8,456.1 71.5,456.6 85.2,456.1 98.8,454.1 112.5,454.4 126.2,455.8 139.8,452.8 153.5,452.0 167.2,451.7 180.8,448.7 194.5,447.6 208.2,447.6 221.8,446.8 235.5,446.8 249.2,445.7 262.8,443.5 276.5,445.7 290.2,447.0 303.8,449.5 317.5,452.8 331.2,455.0 344.8,455.5 358.5,454.1 372.2,453.9 385.8,456.1 399.5,456.3 413.2,458.0 426.8,457.2 440.5,455.5 454.2,455.2 467.8,456.3 481.5,451.4 495.2,452.5 508.8,453.6 522.5,450.9 536.2,450.9 549.8,450.0 563.5,450.9 577.2,450.6 590.8,449.5 604.5,442.4 618.2,445.1 631.8,444.3 645.5,444.3 659.2,444.9 672.8,444.3 686.5,443.2 700.2,442.9 713.8,442.9 727.5,443.2 741.2,450.9 754.8,450.6 768.5,452.8 782.2,452.5 795.8,453.3 809.5,454.4 823.2,455.5" fill="none" stroke="#3987e5" stroke-width="1.5" stroke-linejoin="round" stroke-linecap="round"/>
<polyline points="16.8,459.6 30.5,456.3 44.2,457.4 57.8,453.6 71.5,452.5 85.2,452.5 98.8,452.0 112.5,451.4 126.2,458.0 139.8,453.1 153.5,451.4 167.2,451.4 180.8,445.9 194.5,437.2 208.2,442.1 221.8,442.1 235.5,442.1 249.2,445.4 262.8,449.8 276.5,449.2 290.2,452.0 303.8,456.9 317.5,460.2 331.2,460.2 344.8,461.8 358.5,456.3 372.2,450.9 385.8,452.0 399.5,452.5 413.2,454.1 426.8,458.0 440.5,460.2 454.2,458.5 467.8,460.2 481.5,448.7 495.2,447.0 508.8,447.0 522.5,443.2 536.2,441.6 549.8,451.4 563.5,454.7 577.2,454.1 590.8,455.8 604.5,443.2 618.2,438.8 631.8,433.9 645.5,434.5 659.2,433.9 672.8,445.4 686.5,447.6 700.2,452.0 713.8,451.4 727.5,452.5 741.2,456.3 754.8,453.6 768.5,453.6 782.2,453.6 795.8,454.1 809.5,452.5 823.2,457.4" fill="none" stroke="#c98500" stroke-width="1.5" stroke-linejoin="round" stroke-linecap="round"/>
</svg>