<svg xmlns="http://www.w3.org/2000/svg" viewBox="0 0 840 496" width="840" height="496" font-family="-apple-system,&#39;Segoe UI&#39;,system-ui,sans-serif" role="img" aria-label="vinta/awesome-python candlestick chart">
<text x="14.0" y="20.0" font-size="15" fill="#ffffff" font-weight="650">vinta/awesome-python</text>
<text x="183.0" y="20.0" font-size="11.5" fill="#c3c2b7">daily · new stars, volume = new forks</text>
<text x="805.8" y="20.0" font-size="11.0" fill="#c3c2b7">fall</text>
<rect x="791" y="10" width="9" height="12" fill="#008300"/>
<text x="750.6" y="20.0" font-size="11.0" fill="#c3c2b7">rise</text>
<rect x="736" y="10" width="9" height="12" fill="none" stroke="#e66767" stroke-width="1.5"/>
<text x="14.0" y="38.0" font-size="11.0" fill="#898781">last 43 days · +7,815 stars · +372 forks · updated 2026-07-17</text>
<rect x="10" y="66" width="820" height="290" fill="none" stroke="#2c2c2a"/>
<rect x="10" y="384" width="820" height="86" fill="none" stroke="#2c2c2a"/>
<text x="38.0" y="490.0" font-size="11.0" fill="#898781" text-anchor="middle">2026-06</text>
<line x1="505.8" y1="66.0" x2="505.8" y2="356.0" stroke="#2c2c2a" stroke-width="1.0"/>
<line x1="505.8" y1="384.0" x2="505.8" y2="470.0" stroke="#2c2c2a" stroke-width="1.0"/>
<text x="515.3" y="490.0" font-size="11.0" fill="#898781" text-anchor="middle">2026-07</text>
<text x="14.0" y="58.0" font-size="11.0" fill="#c3c2b7">BOLL(20,2)</text>
<text x="84.5" y="58.0" font-size="11.0" fill="#c98500">UP:247.6</text>
<text x="142.9" y="58.0" font-size="11.0" fill="#3987e5">MID:181.2</text>
<text x="207.4" y="58.0" font-size="11.0" fill="#d55181">LOW:114.9</text>
<text x="271.8" y="58.0" font-size="11.0" fill="#9085e9">MA7:185.7</text>
<line x1="10.0" y1="356.0" x2="830.0" y2="356.0" stroke="#2c2c2a" stroke-width="1.0"/>
<text x="14.0" y="353.0" font-size="11.0" fill="#898781">0</text>
<line x1="10.0" y1="244.5" x2="830.0" y2="244.5" stroke="#2c2c2a" stroke-width="1.0"/>
<text x="14.0" y="241.5" font-size="11.0" fill="#898781">100</text>
<line x1="10.0" y1="132.9" x2="830.0" y2="132.9" stroke="#2c2c2a" stroke-width="1.0"/>
<text x="14.0" y="129.9" font-size="11.0" fill="#898781">200</text>
<polyline points="381.9,123.8 400.9,124.7 420.0,125.4 439.1,125.4 458.1,124.8 477.2,120.1 496.3,120.7 515.3,120.3 534.4,120.6 553.5,118.2 572.6,117.2 591.6,110.3 610.7,110.7 629.8,86.0 648.8,87.1 667.9,88.2 687.0,86.0 706.0,87.2 725.1,88.1 744.2,88.1 763.3,85.1 782.3,81.4 801.4,81.4 820.5,79.8" fill="none" stroke="#c98500" stroke-width="1.5" stroke-linejoin="round" stroke-linecap="round"/>
<polyline points="381.9,150.5 400.9,152.2 420.0,153.6 439.1,153.5 458.1,152.3 477.2,151.4 496.3,150.9 515.3,148.8 534.4,149.0 553.5,150.0 572.6,149.6 591.6,147.2 610.7,147.4 629.8,153.7 648.8,157.5 667.9,158.2 687.0,157.1 706.0,158.2 725.1,159.0 744.2,159.0 763.3,157.6 782.3,155.2 801.4,155.1 820.5,153.8" fill="none" stroke="#3987e5" stroke-width="1.5" stroke-linejoin="round" stroke-linecap="round"/>
<polyline points="381.9,177.1 400.9,179.7 420.0,181.7 439.1,181.6 458.1,179.7 477.2,182.6 496.3,181.2 515.3,177.2 534.4,177.4 553.5,181.8 572.6,182.0 591.6,184.1 610.7,184.1 629.8,221.5 648.8,227.9 667.9,228.2 687.0,228.2 706.0,229.2 725.1,229.9 744.2,229.9 763.3,230.2 782.3,228.9 801.4,228.9 820.5,227.9" fill="none" stroke="#d55181" stroke-width="1.5" stroke-linejoin="round" stroke-linecap="round"/>
<polyline points="134.0,156.2 153.0,157.1 172.1,160.0 191.2,157.0 210.2,155.2 229.3,156.2 248.4,153.0 267.4,146.2 286.5,145.6 305.6,144.0 324.7,144.2 343.7,143.0 362.8,146.2 381.9,146.2 400.9,152.2 420.0,156.3 439.1,158.1 458.1,157.9 477.2,152.9 496.3,153.7 515.3,151.2 534.4,147.9 553.5,150.0 572.6,145.9 591.6,140.7 610.7,144.7 629.8,160.9 648.8,171.2 667.9,172.0 687.0,164.0 706.0,168.7 725.1,176.8 744.2,179.4 763.3,157.4 782.3,145.5 801.4,147.5 820.5,148.9" fill="none" stroke="#9085e9" stroke-width="1.5" stroke-linejoin="round" stroke-linecap="round"/>
<rect x="14.3" y="137.4" width="10.5" height="218.6" fill="none" stroke="#e66767" stroke-width="1.3"/>
<rect x="33.4" y="137.4" width="10.5" height="5.6" fill="#008300"/>
<rect x="52.4" y="143.0" width="10.5" height="21.2" fill="#008300"/>
<rect x="71.5" y="164.2" width="10.5" height="4.5" fill="#008300"/>
<rect x="90.6" y="129.6" width="10.5" height="39.0" fill="none" stroke="#e66767" stroke-width="1.3"/>
<rect x="109.6" y="129.6" width="10.5" height="43.5" fill="#008300"/>
<rect x="128.7" y="173.1" width="10.5" height="4.5" fill="#008300"/>
<rect x="147.8" y="144.1" width="10.5" height="33.5" fill="none" stroke="#e66767" stroke-width="1.3"/>
<rect x="166.8" y="144.1" width="10.5" height="19.0" fill="#008300"/>
<rect x="185.9" y="143.0" width="10.5" height="20.1" fill="none" stroke="#e66767" stroke-width="1.3"/>
<rect x="205.0" y="143.0" width="10.5" height="13.4" fill="#008300"/>
<rect x="224.1" y="136.3" width="10.5" height="20.1" fill="none" stroke="#e66767" stroke-width="1.3"/>
<rect x="243.1" y="136.3" width="10.5" height="14.5" fill="#008300"/>
<rect x="262.2" y="129.6" width="10.5" height="21.2" fill="none" stroke="#e66767" stroke-width="1.3"/>
<rect x="281.3" y="129.6" width="10.5" height="11.2" fill="#008300"/>
<rect x="300.3" y="140.7" width="10.5" height="10.0" fill="#008300"/>
<rect x="319.4" y="145.2" width="10.5" height="5.6" fill="none" stroke="#e66767" stroke-width="1.3"/>
<rect x="338.5" y="145.2" width="10.5" height="2.2" fill="#008300"/>
<rect x="357.5" y="147.4" width="10.5" height="11.2" fill="#008300"/>
<rect x="376.6" y="150.8" width="10.5" height="7.8" fill="none" stroke="#e66767" stroke-width="1.3"/>
<rect x="395.7" y="150.8" width="10.5" height="21.2" fill="#008300"/>
<rect x="414.8" y="169.7" width="10.5" height="2.2" fill="none" stroke="#e66767" stroke-width="1.3"/>
<rect x="433.8" y="163.0" width="10.5" height="6.7" fill="none" stroke="#e66767" stroke-width="1.3"/>
<rect x="452.9" y="144.1" width="10.5" height="19.0" fill="none" stroke="#e66767" stroke-width="1.3"/>
<rect x="472.0" y="111.7" width="10.5" height="32.3" fill="none" stroke="#e66767" stroke-width="1.3"/>
<rect x="491.0" y="111.7" width="10.5" height="52.4" fill="#008300"/>
<rect x="510.1" y="134.0" width="10.5" height="30.1" fill="none" stroke="#e66767" stroke-width="1.3"/>
<rect x="529.2" y="134.0" width="10.5" height="14.5" fill="#008300"/>
<rect x="548.2" y="148.5" width="10.5" height="35.7" fill="#008300"/>
<rect x="567.3" y="134.0" width="10.5" height="50.2" fill="none" stroke="#e66767" stroke-width="1.3"/>
<rect x="586.4" y="108.4" width="10.5" height="25.7" fill="none" stroke="#e66767" stroke-width="1.3"/>
<rect x="605.5" y="108.4" width="10.5" height="31.2" fill="#008300"/>
<rect x="624.5" y="139.6" width="10.5" height="138.3" fill="#008300"/>
<rect x="643.6" y="205.4" width="10.5" height="72.5" fill="none" stroke="#e66767" stroke-width="1.3"/>
<rect x="662.7" y="154.1" width="10.5" height="51.3" fill="none" stroke="#e66767" stroke-width="1.3"/>
<rect x="681.7" y="128.5" width="10.5" height="25.7" fill="none" stroke="#e66767" stroke-width="1.3"/>
<rect x="700.8" y="128.5" width="10.5" height="39.0" fill="#008300"/>
<rect x="719.9" y="164.2" width="10.5" height="3.3" fill="none" stroke="#e66767" stroke-width="1.3"/>
<rect x="738.9" y="158.6" width="10.5" height="5.6" fill="none" stroke="#e66767" stroke-width="1.3"/>
<rect x="758.0" y="122.9" width="10.5" height="35.7" fill="none" stroke="#e66767" stroke-width="1.3"/>
<rect x="777.1" y="122.9" width="10.5" height="1.2" fill="#898781"/>
<rect x="796.2" y="122.9" width="10.5" height="45.7" fill="#008300"/>
<rect x="815.2" y="137.4" width="10.5" height="31.2" fill="none" stroke="#e66767" stroke-width="1.3"/>
<circle cx="591.6" cy="108.4" r="2" fill="#c3c2b7"/>
<line x1="591.6" y1="108.4" x2="583.6" y2="108.4" stroke="#c3c2b7" stroke-width="1.0"/>
<text x="580.6" y="112.4" font-size="11.0" fill="#c3c2b7" text-anchor="end">222</text>
<circle cx="19.5" cy="356.0" r="2" fill="#c3c2b7"/>
<line x1="19.5" y1="356.0" x2="27.5" y2="356.0" stroke="#c3c2b7" stroke-width="1.0"/>
<text x="30.5" y="350.0" font-size="11.0" fill="#c3c2b7">0</text>
<text x="14.0" y="376.0" font-size="11.0" fill="#c3c2b7">VOL 4 forks</text>
<text x="90.6" y="376.0" font-size="11.0" fill="#c98500">MA5:14.8</text>
<text x="149.0" y="376.0" font-size="11.0" fill="#3987e5">MA10:10</text>
<text x="14.0" y="395.0" font-size="10" fill="#898781">35</text>
<rect x="14.3" y="448.9" width="10.5" height="21.1" fill="none" stroke="#e66767" stroke-width="1.1"/>
<rect x="33.4" y="448.9" width="10.5" height="21.1" fill="#008300"/>
<rect x="52.4" y="460.6" width="10.5" height="9.4" fill="#008300"/>
<rect x="71.5" y="446.6" width="10.5" height="23.4" fill="#008300"/>
<rect x="90.6" y="453.6" width="10.5" height="16.4" fill="none" stroke="#e66767" stroke-width="1.1"/>
<rect x="109.6" y="448.9" width="10.5" height="21.1" fill="#008300"/>
<rect x="128.7" y="455.9" width="10.5" height="14.1" fill="#008300"/>
<rect x="147.8" y="448.9" width="10.5" height="21.1" fill="none" stroke="#e66767" stroke-width="1.1"/>
<rect x="166.8" y="451.3" width="10.5" height="18.7" fill="#008300"/>
<rect x="185.9" y="448.9" width="10.5" height="21.1" fill="none" stroke="#e66767" stroke-width="1.1"/>
<rect x="205.0" y="444.2" width="10.5" height="25.8" fill="#008300"/>
<rect x="224.1" y="446.6" width="10.5" height="23.4" fill="none" stroke="#e66767" stroke-width="1.1"/>
<rect x="243.1" y="455.9" width="10.5" height="14.1" fill="#008300"/>
<rect x="262.2" y="455.9" width="10.5" height="14.1" fill="none" stroke="#e66767" stroke-width="1.1"/>
<rect x="281.3" y="444.2" width="10.5" height="25.8" fill="#008300"/>
<rect x="300.3" y="453.6" width="10.5" height="16.4" fill="#008300"/>
<rect x="319.4" y="455.9" width="10.5" height="14.1" fill="none" stroke="#e66767" stroke-width="1.1"/>
<rect x="338.5" y="448.9" width="10.5" height="21.1" fill="#008300"/>
<rect x="357.5" y="458.3" width="10.5" height="11.7" fill="#008300"/>
<rect x="376.6" y="451.3" width="10.5" height="18.7" fill="none" stroke="#e66767" stroke-width="1.1"/>
<rect x="395.7" y="458.3" width="10.5" height="11.7" fill="#008300"/>
<rect x="414.8" y="455.9" width="10.5" height="14.1" fill="none" stroke="#e66767" stroke-width="1.1"/>
<rect x="433.8" y="441.9" width="10.5" height="28.1" fill="none" stroke="#e66767" stroke-width="1.1"/>
<rect x="452.9" y="432.5" width="10.5" height="37.5" fill="none" stroke="#e66767" stroke-width="1.1"/>
<rect x="472.0" y="444.2" width="10.5" height="25.8" fill="none" stroke="#e66767" stroke-width="1.1"/>
<rect x="491.0" y="451.3" width="10.5" height="18.7" fill="#008300"/>
<rect x="510.1" y="446.6" width="10.5" height="23.4" fill="none" stroke="#e66767" stroke-width="1.1"/>
<rect x="529.2" y="455.9" width="10.5" height="14.1" fill="#008300"/>
<rect x="548.2" y="451.3" width="10.5" height="18.7" fill="#008300"/>
<rect x="567.3" y="441.9" width="10.5" height="28.1" fill="none" stroke="#e66767" stroke-width="1.1"/>
<rect x="586.4" y="451.3" width="10.5" height="18.7" fill="none" stroke="#e66767" stroke-width="1.1"/>
<rect x="605.5" y="455.9" width="10.5" height="14.1" fill="#008300"/>
<rect x="624.5" y="458.3" width="10.5" height="11.7" fill="#008300"/>
<rect x="643.6" y="460.6" width="10.5" height="9.4" fill="none" stroke="#e66767" stroke-width="1.1"/>
<rect x="662.7" y="458.3" width="10.5" height="11.7" fill="none" stroke="#e66767" stroke-width="1.1"/>
<rect x="681.7" y="453.6" width="10.5" height="16.4" fill="none" stroke="#e66767" stroke-width="1.1"/>
<rect x="719.9" y="446.6" width="10.5" height="23.4" fill="none" stroke="#e66767" stroke-width="1.1"/>
<rect x="738.9" y="446.6" width="10.5" height="23.4" fill="none" stroke="#e66767" stroke-width="1.1"/>
<rect x="758.0" y="388.0" width="10.5" height="82.0" fill="none" stroke="#e66767" stroke-width="1.1"/>
<rect x="777.1" y="437.2" width="10.5" height="32.8" fill="#898781"/>
<rect x="796.2" y="444.2" width="10.5" height="25.8" fill="#008300"/>
<rect x="815.2" y="460.6" width="10.5" height="9.4" fill="none" stroke="#e66767" stroke-width="1.1"/>
<polyline points="191.2,451.3 210.2,450.8 229.3,450.6 248.4,450.1 267.4,451.0 286.5,450.1 305.6,450.6 324.7,450.6 343.7,450.6 362.8,451.3 381.9,451.5 400.9,452.9 420.0,453.8 439.1,452.4 458.1,450.1 477.2,450.1 496.3,449.9 515.3,448.9 534.4,449.6 553.5,448.9 572.6,448.0 591.6,447.3 610.7,447.3 629.8,448.9 648.8,451.7 667.9,453.1 687.0,453.4 706.0,455.7 725.1,454.8 744.2,454.3 763.3,448.9 782.3,447.5 801.4,446.3 820.5,446.6" fill="none" stroke="#3987e5" stroke-width="1.5" stroke-linejoin="round" stroke-linecap="round"/>
<polyline points="95.8,451.7 114.9,451.7 134.0,453.1 153.0,450.8 172.1,451.7 191.2,450.8 210.2,449.9 229.3,448.0 248.4,449.4 267.4,450.3 286.5,449.4 305.6,451.3 324.7,453.1 343.7,451.7 362.8,452.2 381.9,453.6 400.9,454.5 420.0,454.5 439.1,453.1 458.1,448.0 477.2,446.6 496.3,445.2 515.3,443.3 534.4,446.1 553.5,449.9 572.6,449.4 591.6,449.4 610.7,451.3 629.8,451.7 648.8,453.6 667.9,456.9 687.0,457.3 706.0,460.2 725.1,457.8 744.2,455.0 763.3,440.9 782.3,437.7 801.4,432.5 820.5,435.3" fill="none" stroke="#c98500" stroke-width="1.5" stroke-linejoin="round" stroke-linecap="round"/>
</svg>