<svg xmlns="http://www.w3.org/2000/svg" viewBox="0 0 840 496" width="840" height="496" font-family="-apple-system,&#39;Segoe UI&#39;,system-ui,sans-serif" role="img" aria-label="vinta/awesome-python candlestick chart">
<text x="14.0" y="20.0" font-size="15" fill="#0b0b0b" font-weight="650">vinta/awesome-python</text>
<text x="183.0" y="20.0" font-size="11.5" fill="#52514e">daily · new stars, volume = new forks</text>
<text x="805.8" y="20.0" font-size="11.0" fill="#52514e">fall</text>
<rect x="791" y="10" width="9" height="12" fill="#008300"/>
<text x="750.6" y="20.0" font-size="11.0" fill="#52514e">rise</text>
<rect x="736" y="10" width="9" height="12" fill="none" stroke="#e34948" stroke-width="1.5"/>
<text x="14.0" y="38.0" font-size="11.0" fill="#898781">last 49 days · +9,010 stars · +403 forks · updated 2026-07-23</text>
<rect x="10" y="66" width="820" height="290" fill="none" stroke="#e1e0d9"/>
<rect x="10" y="384" width="820" height="86" fill="none" stroke="#e1e0d9"/>
<text x="38.0" y="490.0" font-size="11.0" fill="#898781" text-anchor="middle">2026-06</text>
<line x1="445.1" y1="66.0" x2="445.1" y2="356.0" stroke="#e1e0d9" stroke-width="1.0"/>
<line x1="445.1" y1="384.0" x2="445.1" y2="470.0" stroke="#e1e0d9" stroke-width="1.0"/>
<text x="453.5" y="490.0" font-size="11.0" fill="#898781" text-anchor="middle">2026-07</text>
<text x="14.0" y="58.0" font-size="11.0" fill="#52514e">BOLL(20,2)</text>
<text x="84.5" y="58.0" font-size="11.0" fill="#eda100">UP:250.3</text>
<text x="142.9" y="58.0" font-size="11.0" fill="#2a78d6">MID:185</text>
<text x="195.2" y="58.0" font-size="11.0" fill="#e87ba4">LOW:119.7</text>
<text x="259.7" y="58.0" font-size="11.0" fill="#4a3aa7">MA7:198.7</text>
<line x1="10.0" y1="356.0" x2="830.0" y2="356.0" stroke="#e1e0d9" stroke-width="1.0"/>
<text x="14.0" y="353.0" font-size="11.0" fill="#898781">0</text>
<line x1="10.0" y1="245.7" x2="830.0" y2="245.7" stroke="#e1e0d9" stroke-width="1.0"/>
<text x="14.0" y="242.7" font-size="11.0" fill="#898781">100</text>
<line x1="10.0" y1="135.4" x2="830.0" y2="135.4" stroke="#e1e0d9" stroke-width="1.0"/>
<text x="14.0" y="132.4" font-size="11.0" fill="#898781">200</text>
<polyline points="336.3,126.4 353.1,127.2 369.8,127.9 386.5,127.9 403.3,127.3 420.0,122.7 436.7,123.3 453.5,122.8 470.2,123.1 486.9,120.8 503.7,119.8 520.4,113.0 537.1,113.3 553.9,88.9 570.6,90.1 587.3,91.1 604.1,88.9 620.8,90.1 637.6,91.0 654.3,91.0 671.0,88.0 687.8,84.4 704.5,84.4 721.2,82.8 738.0,82.1 754.7,86.5 771.4,84.2 788.2,84.4 804.9,82.4 821.6,79.8" fill="none" stroke="#eda100" stroke-width="1.5" stroke-linejoin="round" stroke-linecap="round"/>
<polyline points="336.3,152.7 353.1,154.4 369.8,155.8 386.5,155.7 403.3,154.5 420.0,153.6 436.7,153.2 453.5,151.0 470.2,151.2 486.9,152.3 503.7,151.8 520.4,149.5 537.1,149.6 553.9,155.9 570.6,159.7 587.3,160.3 604.1,159.2 620.8,160.3 637.6,161.2 654.3,161.2 671.0,159.8 687.8,157.4 704.5,157.3 721.2,156.0 738.0,155.7 754.7,157.5 771.4,155.9 788.2,156.0 804.9,154.9 821.6,151.9" fill="none" stroke="#2a78d6" stroke-width="1.5" stroke-linejoin="round" stroke-linecap="round"/>
<polyline points="336.3,179.1 353.1,181.6 369.8,183.6 386.5,183.5 403.3,181.7 420.0,184.5 436.7,183.1 453.5,179.2 470.2,179.3 486.9,183.7 503.7,183.9 520.4,186.0 537.1,185.9 553.9,223.0 570.6,229.3 587.3,229.6 604.1,229.6 620.8,230.6 637.6,231.3 654.3,231.3 671.0,231.6 687.8,230.3 704.5,230.2 721.2,229.3 738.0,229.2 754.7,228.6 771.4,227.6 788.2,227.6 804.9,227.4 821.6,224.0" fill="none" stroke="#e87ba4" stroke-width="1.5" stroke-linejoin="round" stroke-linecap="round"/>
<polyline points="118.8,158.4 135.5,159.3 152.2,162.2 169.0,159.2 185.7,157.4 202.4,158.4 219.2,155.2 235.9,148.5 252.7,147.9 269.4,146.3 286.1,146.5 302.9,145.3 319.6,148.5 336.3,148.5 353.1,154.4 369.8,158.5 386.5,160.3 403.3,160.1 420.0,155.1 436.7,155.9 453.5,153.4 470.2,150.1 486.9,152.2 503.7,148.2 520.4,143.1 537.1,147.1 553.9,163.0 570.6,173.2 587.3,174.0 604.1,166.1 620.8,170.8 637.6,178.7 654.3,181.4 671.0,159.5 687.8,147.8 704.5,149.8 721.2,151.1 738.0,146.7 754.7,144.6 771.4,140.8 788.2,142.6 804.9,143.2 821.6,136.8" fill="none" stroke="#4a3aa7" stroke-width="1.5" stroke-linejoin="round" stroke-linecap="round"/>
<rect x="13.8" y="139.8" width="9.2" height="216.2" fill="none" stroke="#e34948" stroke-width="1.3"/>
<rect x="30.5" y="139.8" width="9.2" height="5.5" fill="#008300"/>
<rect x="47.2" y="145.3" width="9.2" height="21.0" fill="#008300"/>
<rect x="64.0" y="166.2" width="9.2" height="4.4" fill="#008300"/>
<rect x="80.7" y="132.0" width="9.2" height="38.6" fill="none" stroke="#e34948" stroke-width="1.3"/>
<rect x="97.4" y="132.0" width="9.2" height="43.0" fill="#008300"/>
<rect x="114.2" y="175.1" width="9.2" height="4.4" fill="#008300"/>
<rect x="130.9" y="146.4" width="9.2" height="33.1" fill="none" stroke="#e34948" stroke-width="1.3"/>
<rect x="147.6" y="146.4" width="9.2" height="18.8" fill="#008300"/>
<rect x="164.4" y="145.3" width="9.2" height="19.9" fill="none" stroke="#e34948" stroke-width="1.3"/>
<rect x="181.1" y="145.3" width="9.2" height="13.2" fill="#008300"/>
<rect x="197.8" y="138.7" width="9.2" height="19.9" fill="none" stroke="#e34948" stroke-width="1.3"/>
<rect x="214.6" y="138.7" width="9.2" height="14.3" fill="#008300"/>
<rect x="231.3" y="132.0" width="9.2" height="21.0" fill="none" stroke="#e34948" stroke-width="1.3"/>
<rect x="248.1" y="132.0" width="9.2" height="11.0" fill="#008300"/>
<rect x="264.8" y="143.1" width="9.2" height="9.9" fill="#008300"/>
<rect x="281.5" y="147.5" width="9.2" height="5.5" fill="none" stroke="#e34948" stroke-width="1.3"/>
<rect x="298.3" y="147.5" width="9.2" height="2.2" fill="#008300"/>
<rect x="315.0" y="149.7" width="9.2" height="11.0" fill="#008300"/>
<rect x="331.7" y="153.0" width="9.2" height="7.7" fill="none" stroke="#e34948" stroke-width="1.3"/>
<rect x="348.5" y="153.0" width="9.2" height="21.0" fill="#008300"/>
<rect x="365.2" y="171.8" width="9.2" height="2.2" fill="none" stroke="#e34948" stroke-width="1.3"/>
<rect x="381.9" y="165.1" width="9.2" height="6.6" fill="none" stroke="#e34948" stroke-width="1.3"/>
<rect x="398.7" y="146.4" width="9.2" height="18.8" fill="none" stroke="#e34948" stroke-width="1.3"/>
<rect x="415.4" y="114.4" width="9.2" height="32.0" fill="none" stroke="#e34948" stroke-width="1.3"/>
<rect x="432.1" y="114.4" width="9.2" height="51.9" fill="#008300"/>
<rect x="448.9" y="136.5" width="9.2" height="29.8" fill="none" stroke="#e34948" stroke-width="1.3"/>
<rect x="465.6" y="136.5" width="9.2" height="14.3" fill="#008300"/>
<rect x="482.3" y="150.8" width="9.2" height="35.3" fill="#008300"/>
<rect x="499.1" y="136.5" width="9.2" height="49.6" fill="none" stroke="#e34948" stroke-width="1.3"/>
<rect x="515.8" y="111.1" width="9.2" height="25.4" fill="none" stroke="#e34948" stroke-width="1.3"/>
<rect x="532.5" y="111.1" width="9.2" height="30.9" fill="#008300"/>
<rect x="549.3" y="142.0" width="9.2" height="136.8" fill="#008300"/>
<rect x="566.0" y="207.1" width="9.2" height="71.7" fill="none" stroke="#e34948" stroke-width="1.3"/>
<rect x="582.7" y="156.3" width="9.2" height="50.7" fill="none" stroke="#e34948" stroke-width="1.3"/>
<rect x="599.5" y="130.9" width="9.2" height="25.4" fill="none" stroke="#e34948" stroke-width="1.3"/>
<rect x="616.2" y="130.9" width="9.2" height="38.6" fill="#008300"/>
<rect x="632.9" y="166.2" width="9.2" height="3.3" fill="none" stroke="#e34948" stroke-width="1.3"/>
<rect x="649.7" y="160.7" width="9.2" height="5.5" fill="none" stroke="#e34948" stroke-width="1.3"/>
<rect x="666.4" y="125.4" width="9.2" height="35.3" fill="none" stroke="#e34948" stroke-width="1.3"/>
<rect x="683.2" y="125.4" width="9.2" height="1.2" fill="#898781"/>
<rect x="699.9" y="125.4" width="9.2" height="45.2" fill="#008300"/>
<rect x="716.6" y="139.8" width="9.2" height="30.9" fill="none" stroke="#e34948" stroke-width="1.3"/>
<rect x="733.4" y="138.7" width="9.2" height="1.2" fill="none" stroke="#e34948" stroke-width="1.3"/>
<rect x="750.1" y="138.7" width="9.2" height="13.2" fill="#008300"/>
<rect x="766.8" y="133.2" width="9.2" height="18.8" fill="none" stroke="#e34948" stroke-width="1.3"/>
<rect x="783.6" y="133.2" width="9.2" height="5.5" fill="#008300"/>
<rect x="800.3" y="129.8" width="9.2" height="8.8" fill="none" stroke="#e34948" stroke-width="1.3"/>
<rect x="817.0" y="125.4" width="9.2" height="4.4" fill="none" stroke="#e34948" stroke-width="1.3"/>
<circle cx="520.4" cy="111.1" r="2" fill="#52514e"/>
<line x1="520.4" y1="111.1" x2="512.4" y2="111.1" stroke="#52514e" stroke-width="1.0"/>
<text x="509.4" y="115.1" font-size="11.0" fill="#52514e" text-anchor="end">222</text>
<circle cx="18.4" cy="356.0" r="2" fill="#52514e"/>
<line x1="18.4" y1="356.0" x2="26.4" y2="356.0" stroke="#52514e" stroke-width="1.0"/>
<text x="29.4" y="350.0" font-size="11.0" fill="#52514e">0</text>
<text x="14.0" y="376.0" font-size="11.0" fill="#52514e">VOL 5 forks</text>
<text x="90.6" y="376.0" font-size="11.0" fill="#eda100">MA5:4.2</text>
<text x="142.9" y="376.0" font-size="11.0" fill="#2a78d6">MA10:9.5</text>
<text x="14.0" y="395.0" font-size="10" fill="#898781">35</text>
<rect x="13.8" y="448.9" width="9.2" height="21.1" fill="none" stroke="#e34948" stroke-width="1.1"/>
<rect x="30.5" y="448.9" width="9.2" height="21.1" fill="#008300"/>
<rect x="47.2" y="460.6" width="9.2" height="9.4" fill="#008300"/>
<rect x="64.0" y="446.6" width="9.2" height="23.4" fill="#008300"/>
<rect x="80.7" y="453.6" width="9.2" height="16.4" fill="none" stroke="#e34948" stroke-width="1.1"/>
<rect x="97.4" y="448.9" width="9.2" height="21.1" fill="#008300"/>
<rect x="114.2" y="455.9" width="9.2" height="14.1" fill="#008300"/>
<rect x="130.9" y="448.9" width="9.2" height="21.1" fill="none" stroke="#e34948" stroke-width="1.1"/>
<rect x="147.6" y="451.3" width="9.2" height="18.7" fill="#008300"/>
<rect x="164.4" y="448.9" width="9.2" height="21.1" fill="none" stroke="#e34948" stroke-width="1.1"/>
<rect x="181.1" y="444.2" width="9.2" height="25.8" fill="#008300"/>
<rect x="197.8" y="446.6" width="9.2" height="23.4" fill="none" stroke="#e34948" stroke-width="1.1"/>
<rect x="214.6" y="455.9" width="9.2" height="14.1" fill="#008300"/>
<rect x="231.3" y="455.9" width="9.2" height="14.1" fill="none" stroke="#e34948" stroke-width="1.1"/>
<rect x="248.1" y="444.2" width="9.2" height="25.8" fill="#008300"/>
<rect x="264.8" y="453.6" width="9.2" height="16.4" fill="#008300"/>
<rect x="281.5" y="455.9" width="9.2" height="14.1" fill="none" stroke="#e34948" stroke-width="1.1"/>
<rect x="298.3" y="448.9" width="9.2" height="21.1" fill="#008300"/>
<rect x="315.0" y="458.3" width="9.2" height="11.7" fill="#008300"/>
<rect x="331.7" y="451.3" width="9.2" height="18.7" fill="none" stroke="#e34948" stroke-width="1.1"/>
<rect x="348.5" y="458.3" width="9.2" height="11.7" fill="#008300"/>
<rect x="365.2" y="455.9" width="9.2" height="14.1" fill="none" stroke="#e34948" stroke-width="1.1"/>
<rect x="381.9" y="441.9" width="9.2" height="28.1" fill="none" stroke="#e34948" stroke-width="1.1"/>
<rect x="398.7" y="432.5" width="9.2" height="37.5" fill="none" stroke="#e34948" stroke-width="1.1"/>
<rect x="415.4" y="444.2" width="9.2" height="25.8" fill="none" stroke="#e34948" stroke-width="1.1"/>
<rect x="432.1" y="451.3" width="9.2" height="18.7" fill="#008300"/>
<rect x="448.9" y="446.6" width="9.2" height="23.4" fill="none" stroke="#e34948" stroke-width="1.1"/>
<rect x="465.6" y="455.9" width="9.2" height="14.1" fill="#008300"/>
<rect x="482.3" y="451.3" width="9.2" height="18.7" fill="#008300"/>
<rect x="499.1" y="441.9" width="9.2" height="28.1" fill="none" stroke="#e34948" stroke-width="1.1"/>
<rect x="515.8" y="451.3" width="9.2" height="18.7" fill="none" stroke="#e34948" stroke-width="1.1"/>
<rect x="532.5" y="455.9" width="9.2" height="14.1" fill="#008300"/>
<rect x="549.3" y="458.3" width="9.2" height="11.7" fill="#008300"/>
<rect x="566.0" y="460.6" width="9.2" height="9.4" fill="none" stroke="#e34948" stroke-width="1.1"/>
<rect x="582.7" y="458.3" width="9.2" height="11.7" fill="none" stroke="#e34948" stroke-width="1.1"/>
<rect x="599.5" y="453.6" width="9.2" height="16.4" fill="none" stroke="#e34948" stroke-width="1.1"/>
<rect x="632.9" y="446.6" width="9.2" height="23.4" fill="none" stroke="#e34948" stroke-width="1.1"/>
<rect x="649.7" y="446.6" width="9.2" height="23.4" fill="none" stroke="#e34948" stroke-width="1.1"/>
<rect x="666.4" y="388.0" width="9.2" height="82.0" fill="none" stroke="#e34948" stroke-width="1.1"/>
<rect x="683.2" y="437.2" width="9.2" height="32.8" fill="#898781"/>
<rect x="699.9" y="444.2" width="9.2" height="25.8" fill="#008300"/>
<rect x="716.6" y="460.6" width="9.2" height="9.4" fill="none" stroke="#e34948" stroke-width="1.1"/>
<rect x="733.4" y="446.6" width="9.2" height="23.4" fill="none" stroke="#e34948" stroke-width="1.1"/>
<rect x="750.1" y="453.6" width="9.2" height="16.4" fill="#008300"/>
<rect x="766.8" y="467.7" width="9.2" height="2.3" fill="none" stroke="#e34948" stroke-width="1.1"/>
<rect x="783.6" y="465.3" width="9.2" height="4.7" fill="#008300"/>
<rect x="800.3" y="455.9" width="9.2" height="14.1" fill="none" stroke="#e34948" stroke-width="1.1"/>
<rect x="817.0" y="458.3" width="9.2" height="11.7" fill="none" stroke="#e34948" stroke-width="1.1"/>
<polyline points="169.0,451.3 185.7,450.8 202.4,450.6 219.2,450.1 235.9,451.0 252.7,450.1 269.4,450.6 286.1,450.6 302.9,450.6 319.6,451.3 336.3,451.5 353.1,452.9 369.8,453.8 386.5,452.4 403.3,450.1 420.0,450.1 436.7,449.9 453.5,448.9 470.2,449.6 486.9,448.9 503.7,448.0 520.4,447.3 537.1,447.3 553.9,448.9 570.6,451.7 587.3,453.1 604.1,453.4 620.8,455.7 637.6,454.8 654.3,454.3 671.0,448.9 687.8,447.5 704.5,446.3 721.2,446.6 738.0,445.2 754.7,444.7 771.4,446.1 788.2,445.6 804.9,446.6 821.6,447.7" fill="none" stroke="#2a78d6" stroke-width="1.5" stroke-linejoin="round" stroke-linecap="round"/>
<polyline points="85.3,451.7 102.0,451.7 118.8,453.1 135.5,450.8 152.2,451.7 169.0,450.8 185.7,449.9 202.4,448.0 219.2,449.4 235.9,450.3 252.7,449.4 269.4,451.3 286.1,453.1 302.9,451.7 319.6,452.2 336.3,453.6 353.1,454.5 369.8,454.5 386.5,453.1 403.3,448.0 420.0,446.6 436.7,445.2 453.5,443.3 470.2,446.1 486.9,449.9 503.7,449.4 520.4,449.4 537.1,451.3 553.9,451.7 570.6,453.6 587.3,456.9 604.1,457.3 620.8,460.2 637.6,457.8 654.3,455.0 671.0,440.9 687.8,437.7 704.5,432.5 721.2,435.3 738.0,435.3 754.7,448.4 771.4,454.5 788.2,458.8 804.9,457.8 821.6,460.2" fill="none" stroke="#eda100" stroke-width="1.5" stroke-linejoin="round" stroke-linecap="round"/>
</svg>