<svg xmlns="http://www.w3.org/2000/svg" viewBox="0 0 840 496" width="840" height="496" font-family="-apple-system,&#39;Segoe UI&#39;,system-ui,sans-serif" role="img" aria-label="affaan-m/ECC candlestick chart">
<text x="14.0" y="20.0" font-size="15" fill="#0b0b0b" font-weight="650">affaan-m/ECC</text>
<text x="117.0" y="20.0" font-size="11.5" fill="#52514e">daily · new stars, volume = new forks</text>
<text x="805.8" y="20.0" font-size="11.0" fill="#52514e">fall</text>
<rect x="791" y="10" width="9" height="12" fill="#008300"/>
<text x="750.6" y="20.0" font-size="11.0" fill="#52514e">rise</text>
<rect x="736" y="10" width="9" height="12" fill="none" stroke="#e34948" stroke-width="1.5"/>
<text x="14.0" y="38.0" font-size="11.0" fill="#898781">last 29 days · +11,230 stars · +1,685 forks · updated 2026-07-24</text>
<rect x="10" y="66" width="820" height="290" fill="none" stroke="#e1e0d9"/>
<rect x="10" y="384" width="820" height="86" fill="none" stroke="#e1e0d9"/>
<text x="38.0" y="490.0" font-size="11.0" fill="#898781" text-anchor="middle">2026-06</text>
<line x1="151.4" y1="66.0" x2="151.4" y2="356.0" stroke="#e1e0d9" stroke-width="1.0"/>
<line x1="151.4" y1="384.0" x2="151.4" y2="470.0" stroke="#e1e0d9" stroke-width="1.0"/>
<text x="165.5" y="490.0" font-size="11.0" fill="#898781" text-anchor="middle">2026-07</text>
<text x="14.0" y="58.0" font-size="11.0" fill="#52514e">BOLL(20,2)</text>
<text x="84.5" y="58.0" font-size="11.0" fill="#eda100">UP:470.4</text>
<text x="142.9" y="58.0" font-size="11.0" fill="#2a78d6">MID:333.1</text>
<text x="207.4" y="58.0" font-size="11.0" fill="#e87ba4">LOW:195.8</text>
<text x="271.8" y="58.0" font-size="11.0" fill="#4a3aa7">MA7:315.9</text>
<line x1="10.0" y1="356.0" x2="830.0" y2="356.0" stroke="#e1e0d9" stroke-width="1.0"/>
<text x="14.0" y="353.0" font-size="11.0" fill="#898781">0</text>
<line x1="10.0" y1="270.1" x2="830.0" y2="270.1" stroke="#e1e0d9" stroke-width="1.0"/>
<text x="14.0" y="267.1" font-size="11.0" fill="#898781">200</text>
<line x1="10.0" y1="184.3" x2="830.0" y2="184.3" stroke="#e1e0d9" stroke-width="1.0"/>
<text x="14.0" y="181.3" font-size="11.0" fill="#898781">400</text>
<line x1="10.0" y1="98.4" x2="830.0" y2="98.4" stroke="#e1e0d9" stroke-width="1.0"/>
<text x="14.0" y="95.4" font-size="11.0" fill="#898781">600</text>
<polyline points="561.4,79.8 589.7,81.6 617.9,81.7 646.2,83.4 674.5,87.0 702.8,104.4 731.0,120.7 759.3,135.1 787.6,153.0 815.9,154.1" fill="none" stroke="#eda100" stroke-width="1.5" stroke-linejoin="round" stroke-linecap="round"/>
<polyline points="561.4,175.6 589.7,177.3 617.9,182.5 646.2,185.8 674.5,190.5 702.8,196.9 731.0,203.0 759.3,207.5 787.6,212.3 815.9,213.0" fill="none" stroke="#2a78d6" stroke-width="1.5" stroke-linejoin="round" stroke-linecap="round"/>
<polyline points="561.4,271.5 589.7,273.0 617.9,283.3 646.2,288.1 674.5,294.0 702.8,289.4 731.0,285.3 759.3,279.9 787.6,271.6 815.9,271.9" fill="none" stroke="#e87ba4" stroke-width="1.5" stroke-linejoin="round" stroke-linecap="round"/>
<polyline points="193.8,132.7 222.1,126.8 250.3,133.3 278.6,141.2 306.9,147.9 335.2,177.9 363.4,193.3 391.7,205.2 420.0,211.6 448.3,211.7 476.6,210.1 504.8,212.2 533.1,200.5 561.4,192.8 589.7,191.4 617.9,204.8 646.2,209.1 674.5,214.0 702.8,214.8 731.0,216.2 759.3,223.6 787.6,226.7 815.9,220.4" fill="none" stroke="#4a3aa7" stroke-width="1.5" stroke-linejoin="round" stroke-linecap="round"/>
<rect x="16.4" y="157.7" width="15.6" height="198.3" fill="none" stroke="#e34948" stroke-width="1.3"/>
<rect x="44.6" y="152.5" width="15.6" height="5.2" fill="none" stroke="#e34948" stroke-width="1.3"/>
<rect x="72.9" y="152.5" width="15.6" height="10.7" fill="#008300"/>
<rect x="101.2" y="147.4" width="15.6" height="15.9" fill="none" stroke="#e34948" stroke-width="1.3"/>
<rect x="129.5" y="87.7" width="15.6" height="59.7" fill="none" stroke="#e34948" stroke-width="1.3"/>
<rect x="157.7" y="87.7" width="15.6" height="14.6" fill="#008300"/>
<rect x="186.0" y="102.3" width="15.6" height="15.5" fill="#008300"/>
<rect x="214.3" y="116.9" width="15.6" height="1.2" fill="none" stroke="#e34948" stroke-width="1.3"/>
<rect x="242.6" y="116.9" width="15.6" height="80.7" fill="#008300"/>
<rect x="270.8" y="197.6" width="15.6" height="21.5" fill="#008300"/>
<rect x="299.1" y="194.2" width="15.6" height="24.9" fill="none" stroke="#e34948" stroke-width="1.3"/>
<rect x="327.4" y="194.2" width="15.6" height="103.5" fill="#008300"/>
<rect x="355.7" y="209.6" width="15.6" height="88.0" fill="none" stroke="#e34948" stroke-width="1.3"/>
<rect x="383.9" y="201.0" width="15.6" height="8.6" fill="none" stroke="#e34948" stroke-width="1.3"/>
<rect x="412.2" y="162.4" width="15.6" height="38.6" fill="none" stroke="#e34948" stroke-width="1.3"/>
<rect x="440.5" y="162.4" width="15.6" height="35.6" fill="#008300"/>
<rect x="468.8" y="198.0" width="15.6" height="9.4" fill="#008300"/>
<rect x="497.1" y="207.5" width="15.6" height="2.1" fill="#008300"/>
<rect x="525.3" y="209.6" width="15.6" height="5.6" fill="#008300"/>
<rect x="553.6" y="155.5" width="15.6" height="59.7" fill="none" stroke="#e34948" stroke-width="1.3"/>
<rect x="581.9" y="155.5" width="15.6" height="36.1" fill="#008300"/>
<rect x="610.2" y="191.6" width="15.6" height="64.4" fill="#008300"/>
<rect x="638.4" y="228.5" width="15.6" height="27.5" fill="none" stroke="#e34948" stroke-width="1.3"/>
<rect x="666.7" y="228.5" width="15.6" height="12.9" fill="#008300"/>
<rect x="695.0" y="215.6" width="15.6" height="25.8" fill="none" stroke="#e34948" stroke-width="1.3"/>
<rect x="723.3" y="215.6" width="15.6" height="9.0" fill="#008300"/>
<rect x="751.5" y="207.5" width="15.6" height="17.2" fill="none" stroke="#e34948" stroke-width="1.3"/>
<rect x="779.8" y="207.5" width="15.6" height="6.0" fill="#008300"/>
<rect x="808.1" y="211.8" width="15.6" height="1.7" fill="none" stroke="#e34948" stroke-width="1.3"/>
<circle cx="137.2" cy="87.7" r="2" fill="#52514e"/>
<line x1="137.2" y1="87.7" x2="145.2" y2="87.7" stroke="#52514e" stroke-width="1.0"/>
<text x="148.2" y="91.7" font-size="11.0" fill="#52514e">625</text>
<circle cx="24.1" cy="356.0" r="2" fill="#52514e"/>
<line x1="24.1" y1="356.0" x2="32.1" y2="356.0" stroke="#52514e" stroke-width="1.0"/>
<text x="35.1" y="350.0" font-size="11.0" fill="#52514e">0</text>
<text x="14.0" y="376.0" font-size="11.0" fill="#52514e">VOL 36 forks</text>
<text x="96.6" y="376.0" font-size="11.0" fill="#eda100">MA5:42.2</text>
<text x="155.0" y="376.0" font-size="11.0" fill="#2a78d6">MA10:37.9</text>
<text x="14.0" y="395.0" font-size="10" fill="#898781">154</text>
<rect x="16.4" y="425.8" width="15.6" height="44.2" fill="none" stroke="#e34948" stroke-width="1.1"/>
<rect x="44.6" y="432.2" width="15.6" height="37.8" fill="none" stroke="#e34948" stroke-width="1.1"/>
<rect x="72.9" y="425.8" width="15.6" height="44.2" fill="#008300"/>
<rect x="101.2" y="432.7" width="15.6" height="37.3" fill="none" stroke="#e34948" stroke-width="1.1"/>
<rect x="129.5" y="422.6" width="15.6" height="47.4" fill="none" stroke="#e34948" stroke-width="1.1"/>
<rect x="157.7" y="422.6" width="15.6" height="47.4" fill="#008300"/>
<rect x="186.0" y="424.2" width="15.6" height="45.8" fill="#008300"/>
<rect x="214.3" y="431.1" width="15.6" height="38.9" fill="none" stroke="#e34948" stroke-width="1.1"/>
<rect x="242.6" y="433.8" width="15.6" height="36.2" fill="#008300"/>
<rect x="270.8" y="439.6" width="15.6" height="30.4" fill="#008300"/>
<rect x="299.1" y="437.0" width="15.6" height="33.0" fill="none" stroke="#e34948" stroke-width="1.1"/>
<rect x="327.4" y="459.9" width="15.6" height="10.1" fill="#008300"/>
<rect x="355.7" y="444.4" width="15.6" height="25.6" fill="none" stroke="#e34948" stroke-width="1.1"/>
<rect x="383.9" y="451.4" width="15.6" height="18.6" fill="none" stroke="#e34948" stroke-width="1.1"/>
<rect x="412.2" y="416.2" width="15.6" height="53.8" fill="none" stroke="#e34948" stroke-width="1.1"/>
<rect x="440.5" y="388.0" width="15.6" height="82.0" fill="#008300"/>
<rect x="468.8" y="440.7" width="15.6" height="29.3" fill="#008300"/>
<rect x="497.1" y="449.8" width="15.6" height="20.2" fill="#008300"/>
<rect x="525.3" y="456.7" width="15.6" height="13.3" fill="#008300"/>
<rect x="553.6" y="451.4" width="15.6" height="18.6" fill="none" stroke="#e34948" stroke-width="1.1"/>
<rect x="581.9" y="442.3" width="15.6" height="27.7" fill="#008300"/>
<rect x="638.4" y="446.6" width="15.6" height="23.4" fill="none" stroke="#e34948" stroke-width="1.1"/>
<rect x="666.7" y="450.3" width="15.6" height="19.7" fill="#008300"/>
<rect x="695.0" y="441.8" width="15.6" height="28.2" fill="none" stroke="#e34948" stroke-width="1.1"/>
<rect x="723.3" y="444.4" width="15.6" height="25.6" fill="#008300"/>
<rect x="751.5" y="446.0" width="15.6" height="24.0" fill="none" stroke="#e34948" stroke-width="1.1"/>
<rect x="779.8" y="454.6" width="15.6" height="15.4" fill="#008300"/>
<rect x="808.1" y="450.8" width="15.6" height="19.2" fill="none" stroke="#e34948" stroke-width="1.1"/>
<polyline points="278.6,429.1 306.9,430.2 335.2,432.9 363.4,434.8 391.7,436.7 420.0,436.0 448.3,432.6 476.6,434.2 504.8,436.1 533.1,438.4 561.4,439.5 589.7,440.1 617.9,441.1 646.2,441.3 674.5,441.2 702.8,443.7 731.0,449.4 759.3,449.9 787.6,450.4 815.9,449.8" fill="none" stroke="#2a78d6" stroke-width="1.5" stroke-linejoin="round" stroke-linecap="round"/>
<polyline points="137.2,427.8 165.5,427.2 193.8,425.6 222.1,426.7 250.3,426.9 278.6,430.3 306.9,433.2 335.2,440.3 363.4,443.0 391.7,446.5 420.0,441.8 448.3,432.0 476.6,428.1 504.8,429.2 533.1,430.3 561.4,437.3 589.7,448.2 617.9,454.0 646.2,453.4 674.5,452.1 702.8,450.2 731.0,450.6 759.3,445.8 787.6,447.4 815.9,447.5" fill="none" stroke="#eda100" stroke-width="1.5" stroke-linejoin="round" stroke-linecap="round"/>
</svg>