<svg xmlns="http://www.w3.org/2000/svg" viewBox="0 0 840 496" width="840" height="496" font-family="-apple-system,&#39;Segoe UI&#39;,system-ui,sans-serif" role="img" aria-label="affaan-m/ECC candlestick chart">
<text x="14.0" y="20.0" font-size="15" fill="#ffffff" font-weight="650">affaan-m/ECC</text>
<text x="117.0" y="20.0" font-size="11.5" fill="#c3c2b7">daily · new stars, volume = new forks</text>
<text x="805.8" y="20.0" font-size="11.0" fill="#c3c2b7">fall</text>
<rect x="791" y="10" width="9" height="12" fill="#008300"/>
<text x="750.6" y="20.0" font-size="11.0" fill="#c3c2b7">rise</text>
<rect x="736" y="10" width="9" height="12" fill="none" stroke="#e66767" stroke-width="1.5"/>
<text x="14.0" y="38.0" font-size="11.0" fill="#898781">last 15 days · +6,553 stars · +1,034 forks · updated 2026-07-10</text>
<rect x="10" y="66" width="820" height="290" fill="none" stroke="#2c2c2a"/>
<rect x="10" y="384" width="820" height="86" fill="none" stroke="#2c2c2a"/>
<text x="38.0" y="490.0" font-size="11.0" fill="#898781" text-anchor="middle">2026-06</text>
<line x1="283.3" y1="66.0" x2="283.3" y2="356.0" stroke="#2c2c2a" stroke-width="1.0"/>
<line x1="283.3" y1="384.0" x2="283.3" y2="470.0" stroke="#2c2c2a" stroke-width="1.0"/>
<text x="310.7" y="490.0" font-size="11.0" fill="#898781" text-anchor="middle">2026-07</text>
<text x="14.0" y="58.0" font-size="11.0" fill="#c3c2b7">BOLL(20,2)</text>
<text x="84.5" y="58.0" font-size="11.0" fill="#c98500">UP:—</text>
<text x="118.7" y="58.0" font-size="11.0" fill="#3987e5">MID:—</text>
<text x="158.9" y="58.0" font-size="11.0" fill="#d55181">LOW:—</text>
<text x="199.2" y="58.0" font-size="11.0" fill="#9085e9">MA7:336.3</text>
<line x1="10.0" y1="356.0" x2="830.0" y2="356.0" stroke="#2c2c2a" stroke-width="1.0"/>
<text x="14.0" y="353.0" font-size="11.0" fill="#898781">0</text>
<line x1="10.0" y1="267.6" x2="830.0" y2="267.6" stroke="#2c2c2a" stroke-width="1.0"/>
<text x="14.0" y="264.6" font-size="11.0" fill="#898781">200</text>
<line x1="10.0" y1="179.2" x2="830.0" y2="179.2" stroke="#2c2c2a" stroke-width="1.0"/>
<text x="14.0" y="176.2" font-size="11.0" fill="#898781">400</text>
<line x1="10.0" y1="90.9" x2="830.0" y2="90.9" stroke="#2c2c2a" stroke-width="1.0"/>
<text x="14.0" y="87.9" font-size="11.0" fill="#898781">600</text>
<polyline points="365.3,126.1 420.0,120.1 474.7,126.7 529.3,134.9 584.0,141.8 638.7,172.7 693.3,188.5 748.0,200.7 802.7,207.4" fill="none" stroke="#9085e9" stroke-width="1.5" stroke-linejoin="round" stroke-linecap="round"/>
<rect x="25.3" y="151.8" width="24.0" height="204.2" fill="none" stroke="#e66767" stroke-width="1.3"/>
<rect x="80.0" y="146.5" width="24.0" height="5.3" fill="none" stroke="#e66767" stroke-width="1.3"/>
<rect x="134.7" y="146.5" width="24.0" height="11.0" fill="#008300"/>
<rect x="189.3" y="141.2" width="24.0" height="16.4" fill="none" stroke="#e66767" stroke-width="1.3"/>
<rect x="244.0" y="79.8" width="24.0" height="61.4" fill="none" stroke="#e66767" stroke-width="1.3"/>
<rect x="298.7" y="79.8" width="24.0" height="15.0" fill="#008300"/>
<rect x="353.3" y="94.8" width="24.0" height="15.9" fill="#008300"/>
<rect x="408.0" y="109.9" width="24.0" height="1.2" fill="none" stroke="#e66767" stroke-width="1.3"/>
<rect x="462.7" y="109.9" width="24.0" height="83.1" fill="#008300"/>
<rect x="517.3" y="192.9" width="24.0" height="22.1" fill="#008300"/>
<rect x="572.0" y="189.4" width="24.0" height="25.6" fill="none" stroke="#e66767" stroke-width="1.3"/>
<rect x="626.7" y="189.4" width="24.0" height="106.5" fill="#008300"/>
<rect x="681.3" y="205.3" width="24.0" height="90.6" fill="none" stroke="#e66767" stroke-width="1.3"/>
<rect x="736.0" y="196.5" width="24.0" height="8.8" fill="none" stroke="#e66767" stroke-width="1.3"/>
<rect x="790.7" y="156.7" width="24.0" height="39.8" fill="none" stroke="#e66767" stroke-width="1.3"/>
<circle cx="256.0" cy="79.8" r="2" fill="#c3c2b7"/>
<line x1="256.0" y1="79.8" x2="264.0" y2="79.8" stroke="#c3c2b7" stroke-width="1.0"/>
<text x="267.0" y="83.8" font-size="11.0" fill="#c3c2b7">625</text>
<circle cx="37.3" cy="356.0" r="2" fill="#c3c2b7"/>
<line x1="37.3" y1="356.0" x2="45.3" y2="356.0" stroke="#c3c2b7" stroke-width="1.0"/>
<text x="48.3" y="350.0" font-size="11.0" fill="#c3c2b7">0</text>
<text x="14.0" y="376.0" font-size="11.0" fill="#c3c2b7">VOL 101 forks</text>
<text x="102.7" y="376.0" font-size="11.0" fill="#c98500">MA5:53</text>
<text x="149.0" y="376.0" font-size="11.0" fill="#3987e5">MA10:63.8</text>
<text x="14.0" y="395.0" font-size="10" fill="#898781">101</text>
<rect x="25.3" y="402.6" width="24.0" height="67.4" fill="none" stroke="#e66767" stroke-width="1.1"/>
<rect x="80.0" y="412.4" width="24.0" height="57.6" fill="none" stroke="#e66767" stroke-width="1.1"/>
<rect x="134.7" y="402.6" width="24.0" height="67.4" fill="#008300"/>
<rect x="189.3" y="413.2" width="24.0" height="56.8" fill="none" stroke="#e66767" stroke-width="1.1"/>
<rect x="244.0" y="397.7" width="24.0" height="72.3" fill="none" stroke="#e66767" stroke-width="1.1"/>
<rect x="298.7" y="397.7" width="24.0" height="72.3" fill="#008300"/>
<rect x="353.3" y="400.2" width="24.0" height="69.8" fill="#008300"/>
<rect x="408.0" y="410.7" width="24.0" height="59.3" fill="none" stroke="#e66767" stroke-width="1.1"/>
<rect x="462.7" y="414.8" width="24.0" height="55.2" fill="#008300"/>
<rect x="517.3" y="423.7" width="24.0" height="46.3" fill="#008300"/>
<rect x="572.0" y="419.7" width="24.0" height="50.3" fill="none" stroke="#e66767" stroke-width="1.1"/>
<rect x="626.7" y="454.6" width="24.0" height="15.4" fill="#008300"/>
<rect x="681.3" y="431.0" width="24.0" height="39.0" fill="none" stroke="#e66767" stroke-width="1.1"/>
<rect x="736.0" y="441.6" width="24.0" height="28.4" fill="none" stroke="#e66767" stroke-width="1.1"/>
<rect x="790.7" y="388.0" width="24.0" height="82.0" fill="none" stroke="#e66767" stroke-width="1.1"/>
<polyline points="529.3,407.6 584.0,409.3 638.7,413.5 693.3,416.3 748.0,419.2 802.7,418.2" fill="none" stroke="#3987e5" stroke-width="1.5" stroke-linejoin="round" stroke-linecap="round"/>
<polyline points="256.0,405.7 310.7,404.7 365.3,402.3 420.0,403.9 474.7,404.2 529.3,409.4 584.0,413.8 638.7,424.7 693.3,428.8 748.0,434.1 802.7,427.0" fill="none" stroke="#c98500" stroke-width="1.5" stroke-linejoin="round" stroke-linecap="round"/>
</svg>