<svg xmlns="http://www.w3.org/2000/svg" viewBox="0 0 840 496" width="840" height="496" font-family="-apple-system,&#39;Segoe UI&#39;,system-ui,sans-serif" role="img" aria-label="affaan-m/ECC candlestick chart">
<text x="14.0" y="20.0" font-size="15" fill="#ffffff" font-weight="650">affaan-m/ECC</text>
<text x="117.0" y="20.0" font-size="11.5" fill="#c3c2b7">daily · new stars, volume = new forks</text>
<text x="805.8" y="20.0" font-size="11.0" fill="#c3c2b7">fall</text>
<rect x="791" y="10" width="9" height="12" fill="#008300"/>
<text x="750.6" y="20.0" font-size="11.0" fill="#c3c2b7">rise</text>
<rect x="736" y="10" width="9" height="12" fill="none" stroke="#e66767" stroke-width="1.5"/>
<text x="14.0" y="38.0" font-size="11.0" fill="#898781">last 21 days · +8,786 stars · +1,393 forks · updated 2026-07-16</text>
<rect x="10" y="66" width="820" height="290" fill="none" stroke="#2c2c2a"/>
<rect x="10" y="384" width="820" height="86" fill="none" stroke="#2c2c2a"/>
<text x="38.0" y="490.0" font-size="11.0" fill="#898781" text-anchor="middle">2026-06</text>
<line x1="205.2" y1="66.0" x2="205.2" y2="356.0" stroke="#2c2c2a" stroke-width="1.0"/>
<line x1="205.2" y1="384.0" x2="205.2" y2="470.0" stroke="#2c2c2a" stroke-width="1.0"/>
<text x="224.8" y="490.0" font-size="11.0" fill="#898781" text-anchor="middle">2026-07</text>
<text x="14.0" y="58.0" font-size="11.0" fill="#c3c2b7">BOLL(20,2)</text>
<text x="84.5" y="58.0" font-size="11.0" fill="#c98500">UP:639.1</text>
<text x="142.9" y="58.0" font-size="11.0" fill="#3987e5">MID:416.2</text>
<text x="207.4" y="58.0" font-size="11.0" fill="#d55181">LOW:193.2</text>
<text x="271.8" y="58.0" font-size="11.0" fill="#9085e9">MA7:383.4</text>
<line x1="10.0" y1="356.0" x2="830.0" y2="356.0" stroke="#2c2c2a" stroke-width="1.0"/>
<text x="14.0" y="353.0" font-size="11.0" fill="#898781">0</text>
<line x1="10.0" y1="270.1" x2="830.0" y2="270.1" stroke="#2c2c2a" stroke-width="1.0"/>
<text x="14.0" y="267.1" font-size="11.0" fill="#898781">200</text>
<line x1="10.0" y1="184.3" x2="830.0" y2="184.3" stroke="#2c2c2a" stroke-width="1.0"/>
<text x="14.0" y="181.3" font-size="11.0" fill="#898781">400</text>
<line x1="10.0" y1="98.4" x2="830.0" y2="98.4" stroke="#2c2c2a" stroke-width="1.0"/>
<text x="14.0" y="95.4" font-size="11.0" fill="#898781">600</text>
<polyline points="771.4,79.8 810.5,81.6" fill="none" stroke="#c98500" stroke-width="1.5" stroke-linejoin="round" stroke-linecap="round"/>
<polyline points="771.4,175.6 810.5,177.3" fill="none" stroke="#3987e5" stroke-width="1.5" stroke-linejoin="round" stroke-linecap="round"/>
<polyline points="771.4,271.5 810.5,273.0" fill="none" stroke="#d55181" stroke-width="1.5" stroke-linejoin="round" stroke-linecap="round"/>
<polyline points="263.8,132.7 302.9,126.8 341.9,133.3 381.0,141.2 420.0,147.9 459.0,177.9 498.1,193.3 537.1,205.2 576.2,211.6 615.2,211.7 654.3,210.1 693.3,212.2 732.4,200.5 771.4,192.8 810.5,191.4" fill="none" stroke="#9085e9" stroke-width="1.5" stroke-linejoin="round" stroke-linecap="round"/>
<rect x="18.8" y="157.7" width="21.5" height="198.3" fill="none" stroke="#e66767" stroke-width="1.3"/>
<rect x="57.8" y="152.5" width="21.5" height="5.2" fill="none" stroke="#e66767" stroke-width="1.3"/>
<rect x="96.9" y="152.5" width="21.5" height="10.7" fill="#008300"/>
<rect x="135.9" y="147.4" width="21.5" height="15.9" fill="none" stroke="#e66767" stroke-width="1.3"/>
<rect x="175.0" y="87.7" width="21.5" height="59.7" fill="none" stroke="#e66767" stroke-width="1.3"/>
<rect x="214.0" y="87.7" width="21.5" height="14.6" fill="#008300"/>
<rect x="253.1" y="102.3" width="21.5" height="15.5" fill="#008300"/>
<rect x="292.1" y="116.9" width="21.5" height="1.2" fill="none" stroke="#e66767" stroke-width="1.3"/>
<rect x="331.2" y="116.9" width="21.5" height="80.7" fill="#008300"/>
<rect x="370.2" y="197.6" width="21.5" height="21.5" fill="#008300"/>
<rect x="409.3" y="194.2" width="21.5" height="24.9" fill="none" stroke="#e66767" stroke-width="1.3"/>
<rect x="448.3" y="194.2" width="21.5" height="103.5" fill="#008300"/>
<rect x="487.4" y="209.6" width="21.5" height="88.0" fill="none" stroke="#e66767" stroke-width="1.3"/>
<rect x="526.4" y="201.0" width="21.5" height="8.6" fill="none" stroke="#e66767" stroke-width="1.3"/>
<rect x="565.5" y="162.4" width="21.5" height="38.6" fill="none" stroke="#e66767" stroke-width="1.3"/>
<rect x="604.5" y="162.4" width="21.5" height="35.6" fill="#008300"/>
<rect x="643.5" y="198.0" width="21.5" height="9.4" fill="#008300"/>
<rect x="682.6" y="207.5" width="21.5" height="2.1" fill="#008300"/>
<rect x="721.6" y="209.6" width="21.5" height="5.6" fill="#008300"/>
<rect x="760.7" y="155.5" width="21.5" height="59.7" fill="none" stroke="#e66767" stroke-width="1.3"/>
<rect x="799.7" y="155.5" width="21.5" height="36.1" fill="#008300"/>
<circle cx="185.7" cy="87.7" r="2" fill="#c3c2b7"/>
<line x1="185.7" y1="87.7" x2="193.7" y2="87.7" stroke="#c3c2b7" stroke-width="1.0"/>
<text x="196.7" y="91.7" font-size="11.0" fill="#c3c2b7">625</text>
<circle cx="29.5" cy="356.0" r="2" fill="#c3c2b7"/>
<line x1="29.5" y1="356.0" x2="37.5" y2="356.0" stroke="#c3c2b7" stroke-width="1.0"/>
<text x="40.5" y="350.0" font-size="11.0" fill="#c3c2b7">0</text>
<text x="14.0" y="376.0" font-size="11.0" fill="#c3c2b7">VOL 52 forks</text>
<text x="96.6" y="376.0" font-size="11.0" fill="#c98500">MA5:41</text>
<text x="142.9" y="376.0" font-size="11.0" fill="#3987e5">MA10:56.2</text>
<text x="14.0" y="395.0" font-size="10" fill="#898781">154</text>
<rect x="18.8" y="425.8" width="21.5" height="44.2" fill="none" stroke="#e66767" stroke-width="1.1"/>
<rect x="57.8" y="432.2" width="21.5" height="37.8" fill="none" stroke="#e66767" stroke-width="1.1"/>
<rect x="96.9" y="425.8" width="21.5" height="44.2" fill="#008300"/>
<rect x="135.9" y="432.7" width="21.5" height="37.3" fill="none" stroke="#e66767" stroke-width="1.1"/>
<rect x="175.0" y="422.6" width="21.5" height="47.4" fill="none" stroke="#e66767" stroke-width="1.1"/>
<rect x="214.0" y="422.6" width="21.5" height="47.4" fill="#008300"/>
<rect x="253.1" y="424.2" width="21.5" height="45.8" fill="#008300"/>
<rect x="292.1" y="431.1" width="21.5" height="38.9" fill="none" stroke="#e66767" stroke-width="1.1"/>
<rect x="331.2" y="433.8" width="21.5" height="36.2" fill="#008300"/>
<rect x="370.2" y="439.6" width="21.5" height="30.4" fill="#008300"/>
<rect x="409.3" y="437.0" width="21.5" height="33.0" fill="none" stroke="#e66767" stroke-width="1.1"/>
<rect x="448.3" y="459.9" width="21.5" height="10.1" fill="#008300"/>
<rect x="487.4" y="444.4" width="21.5" height="25.6" fill="none" stroke="#e66767" stroke-width="1.1"/>
<rect x="526.4" y="451.4" width="21.5" height="18.6" fill="none" stroke="#e66767" stroke-width="1.1"/>
<rect x="565.5" y="416.2" width="21.5" height="53.8" fill="none" stroke="#e66767" stroke-width="1.1"/>
<rect x="604.5" y="388.0" width="21.5" height="82.0" fill="#008300"/>
<rect x="643.5" y="440.7" width="21.5" height="29.3" fill="#008300"/>
<rect x="682.6" y="449.8" width="21.5" height="20.2" fill="#008300"/>
<rect x="721.6" y="456.7" width="21.5" height="13.3" fill="#008300"/>
<rect x="760.7" y="451.4" width="21.5" height="18.6" fill="none" stroke="#e66767" stroke-width="1.1"/>
<rect x="799.7" y="442.3" width="21.5" height="27.7" fill="#008300"/>
<polyline points="381.0,429.1 420.0,430.2 459.0,432.9 498.1,434.8 537.1,436.7 576.2,436.0 615.2,432.6 654.3,434.2 693.3,436.1 732.4,438.4 771.4,439.5 810.5,440.1" fill="none" stroke="#3987e5" stroke-width="1.5" stroke-linejoin="round" stroke-linecap="round"/>
<polyline points="185.7,427.8 224.8,427.2 263.8,425.6 302.9,426.7 341.9,426.9 381.0,430.3 420.0,433.2 459.0,440.3 498.1,443.0 537.1,446.5 576.2,441.8 615.2,432.0 654.3,428.1 693.3,429.2 732.4,430.3 771.4,437.3 810.5,448.2" fill="none" stroke="#c98500" stroke-width="1.5" stroke-linejoin="round" stroke-linecap="round"/>
</svg>