<svg xmlns="http://www.w3.org/2000/svg" viewBox="0 0 840 496" width="840" height="496" font-family="-apple-system,&#39;Segoe UI&#39;,system-ui,sans-serif" role="img" aria-label="affaan-m/ECC candlestick chart">
<text x="14.0" y="20.0" font-size="15" fill="#0b0b0b" font-weight="650">affaan-m/ECC</text>
<text x="117.0" y="20.0" font-size="11.5" fill="#52514e">daily · new stars, volume = new forks</text>
<text x="805.8" y="20.0" font-size="11.0" fill="#52514e">fall</text>
<rect x="791" y="10" width="9" height="12" fill="#008300"/>
<text x="750.6" y="20.0" font-size="11.0" fill="#52514e">rise</text>
<rect x="736" y="10" width="9" height="12" fill="none" stroke="#e34948" stroke-width="1.5"/>
<text x="14.0" y="38.0" font-size="11.0" fill="#898781">last 27 days · +10,562 stars · +1,620 forks · updated 2026-07-22</text>
<rect x="10" y="66" width="820" height="290" fill="none" stroke="#e1e0d9"/>
<rect x="10" y="384" width="820" height="86" fill="none" stroke="#e1e0d9"/>
<text x="38.0" y="490.0" font-size="11.0" fill="#898781" text-anchor="middle">2026-06</text>
<line x1="161.9" y1="66.0" x2="161.9" y2="356.0" stroke="#e1e0d9" stroke-width="1.0"/>
<line x1="161.9" y1="384.0" x2="161.9" y2="470.0" stroke="#e1e0d9" stroke-width="1.0"/>
<text x="177.0" y="490.0" font-size="11.0" fill="#898781" text-anchor="middle">2026-07</text>
<text x="14.0" y="58.0" font-size="11.0" fill="#52514e">BOLL(20,2)</text>
<text x="84.5" y="58.0" font-size="11.0" fill="#eda100">UP:514.7</text>
<text x="142.9" y="58.0" font-size="11.0" fill="#2a78d6">MID:346</text>
<text x="195.2" y="58.0" font-size="11.0" fill="#e87ba4">LOW:177.3</text>
<text x="259.7" y="58.0" font-size="11.0" fill="#4a3aa7">MA7:308.4</text>
<line x1="10.0" y1="356.0" x2="830.0" y2="356.0" stroke="#e1e0d9" stroke-width="1.0"/>
<text x="14.0" y="353.0" font-size="11.0" fill="#898781">0</text>
<line x1="10.0" y1="270.1" x2="830.0" y2="270.1" stroke="#e1e0d9" stroke-width="1.0"/>
<text x="14.0" y="267.1" font-size="11.0" fill="#898781">200</text>
<line x1="10.0" y1="184.3" x2="830.0" y2="184.3" stroke="#e1e0d9" stroke-width="1.0"/>
<text x="14.0" y="181.3" font-size="11.0" fill="#898781">400</text>
<line x1="10.0" y1="98.4" x2="830.0" y2="98.4" stroke="#e1e0d9" stroke-width="1.0"/>
<text x="14.0" y="95.4" font-size="11.0" fill="#898781">600</text>
<polyline points="602.2,79.8 632.6,81.6 663.0,81.7 693.3,83.4 723.7,87.0 754.1,104.4 784.4,120.7 814.8,135.1" fill="none" stroke="#eda100" stroke-width="1.5" stroke-linejoin="round" stroke-linecap="round"/>
<polyline points="602.2,175.6 632.6,177.3 663.0,182.5 693.3,185.8 723.7,190.5 754.1,196.9 784.4,203.0 814.8,207.5" fill="none" stroke="#2a78d6" stroke-width="1.5" stroke-linejoin="round" stroke-linecap="round"/>
<polyline points="602.2,271.5 632.6,273.0 663.0,283.3 693.3,288.1 723.7,294.0 754.1,289.4 784.4,285.3 814.8,279.9" fill="none" stroke="#e87ba4" stroke-width="1.5" stroke-linejoin="round" stroke-linecap="round"/>
<polyline points="207.4,132.7 237.8,126.8 268.1,133.3 298.5,141.2 328.9,147.9 359.3,177.9 389.6,193.3 420.0,205.2 450.4,211.6 480.7,211.7 511.1,210.1 541.5,212.2 571.9,200.5 602.2,192.8 632.6,191.4 663.0,204.8 693.3,209.1 723.7,214.0 754.1,214.8 784.4,216.2 814.8,223.6" fill="none" stroke="#4a3aa7" stroke-width="1.5" stroke-linejoin="round" stroke-linecap="round"/>
<rect x="16.8" y="157.7" width="16.7" height="198.3" fill="none" stroke="#e34948" stroke-width="1.3"/>
<rect x="47.2" y="152.5" width="16.7" height="5.2" fill="none" stroke="#e34948" stroke-width="1.3"/>
<rect x="77.6" y="152.5" width="16.7" height="10.7" fill="#008300"/>
<rect x="107.9" y="147.4" width="16.7" height="15.9" fill="none" stroke="#e34948" stroke-width="1.3"/>
<rect x="138.3" y="87.7" width="16.7" height="59.7" fill="none" stroke="#e34948" stroke-width="1.3"/>
<rect x="168.7" y="87.7" width="16.7" height="14.6" fill="#008300"/>
<rect x="199.1" y="102.3" width="16.7" height="15.5" fill="#008300"/>
<rect x="229.4" y="116.9" width="16.7" height="1.2" fill="none" stroke="#e34948" stroke-width="1.3"/>
<rect x="259.8" y="116.9" width="16.7" height="80.7" fill="#008300"/>
<rect x="290.2" y="197.6" width="16.7" height="21.5" fill="#008300"/>
<rect x="320.5" y="194.2" width="16.7" height="24.9" fill="none" stroke="#e34948" stroke-width="1.3"/>
<rect x="350.9" y="194.2" width="16.7" height="103.5" fill="#008300"/>
<rect x="381.3" y="209.6" width="16.7" height="88.0" fill="none" stroke="#e34948" stroke-width="1.3"/>
<rect x="411.6" y="201.0" width="16.7" height="8.6" fill="none" stroke="#e34948" stroke-width="1.3"/>
<rect x="442.0" y="162.4" width="16.7" height="38.6" fill="none" stroke="#e34948" stroke-width="1.3"/>
<rect x="472.4" y="162.4" width="16.7" height="35.6" fill="#008300"/>
<rect x="502.8" y="198.0" width="16.7" height="9.4" fill="#008300"/>
<rect x="533.1" y="207.5" width="16.7" height="2.1" fill="#008300"/>
<rect x="563.5" y="209.6" width="16.7" height="5.6" fill="#008300"/>
<rect x="593.9" y="155.5" width="16.7" height="59.7" fill="none" stroke="#e34948" stroke-width="1.3"/>
<rect x="624.2" y="155.5" width="16.7" height="36.1" fill="#008300"/>
<rect x="654.6" y="191.6" width="16.7" height="64.4" fill="#008300"/>
<rect x="685.0" y="228.5" width="16.7" height="27.5" fill="none" stroke="#e34948" stroke-width="1.3"/>
<rect x="715.4" y="228.5" width="16.7" height="12.9" fill="#008300"/>
<rect x="745.7" y="215.6" width="16.7" height="25.8" fill="none" stroke="#e34948" stroke-width="1.3"/>
<rect x="776.1" y="215.6" width="16.7" height="9.0" fill="#008300"/>
<rect x="806.5" y="207.5" width="16.7" height="17.2" fill="none" stroke="#e34948" stroke-width="1.3"/>
<circle cx="146.7" cy="87.7" r="2" fill="#52514e"/>
<line x1="146.7" y1="87.7" x2="154.7" y2="87.7" stroke="#52514e" stroke-width="1.0"/>
<text x="157.7" y="91.7" font-size="11.0" fill="#52514e">625</text>
<circle cx="25.2" cy="356.0" r="2" fill="#52514e"/>
<line x1="25.2" y1="356.0" x2="33.2" y2="356.0" stroke="#52514e" stroke-width="1.0"/>
<text x="36.2" y="350.0" font-size="11.0" fill="#52514e">0</text>
<text x="14.0" y="376.0" font-size="11.0" fill="#52514e">VOL 45 forks</text>
<text x="96.6" y="376.0" font-size="11.0" fill="#eda100">MA5:45.4</text>
<text x="155.0" y="376.0" font-size="11.0" fill="#2a78d6">MA10:37.7</text>
<text x="14.0" y="395.0" font-size="10" fill="#898781">154</text>
<rect x="16.8" y="425.8" width="16.7" height="44.2" fill="none" stroke="#e34948" stroke-width="1.1"/>
<rect x="47.2" y="432.2" width="16.7" height="37.8" fill="none" stroke="#e34948" stroke-width="1.1"/>
<rect x="77.6" y="425.8" width="16.7" height="44.2" fill="#008300"/>
<rect x="107.9" y="432.7" width="16.7" height="37.3" fill="none" stroke="#e34948" stroke-width="1.1"/>
<rect x="138.3" y="422.6" width="16.7" height="47.4" fill="none" stroke="#e34948" stroke-width="1.1"/>
<rect x="168.7" y="422.6" width="16.7" height="47.4" fill="#008300"/>
<rect x="199.1" y="424.2" width="16.7" height="45.8" fill="#008300"/>
<rect x="229.4" y="431.1" width="16.7" height="38.9" fill="none" stroke="#e34948" stroke-width="1.1"/>
<rect x="259.8" y="433.8" width="16.7" height="36.2" fill="#008300"/>
<rect x="290.2" y="439.6" width="16.7" height="30.4" fill="#008300"/>
<rect x="320.5" y="437.0" width="16.7" height="33.0" fill="none" stroke="#e34948" stroke-width="1.1"/>
<rect x="350.9" y="459.9" width="16.7" height="10.1" fill="#008300"/>
<rect x="381.3" y="444.4" width="16.7" height="25.6" fill="none" stroke="#e34948" stroke-width="1.1"/>
<rect x="411.6" y="451.4" width="16.7" height="18.6" fill="none" stroke="#e34948" stroke-width="1.1"/>
<rect x="442.0" y="416.2" width="16.7" height="53.8" fill="none" stroke="#e34948" stroke-width="1.1"/>
<rect x="472.4" y="388.0" width="16.7" height="82.0" fill="#008300"/>
<rect x="502.8" y="440.7" width="16.7" height="29.3" fill="#008300"/>
<rect x="533.1" y="449.8" width="16.7" height="20.2" fill="#008300"/>
<rect x="563.5" y="456.7" width="16.7" height="13.3" fill="#008300"/>
<rect x="593.9" y="451.4" width="16.7" height="18.6" fill="none" stroke="#e34948" stroke-width="1.1"/>
<rect x="624.2" y="442.3" width="16.7" height="27.7" fill="#008300"/>
<rect x="685.0" y="446.6" width="16.7" height="23.4" fill="none" stroke="#e34948" stroke-width="1.1"/>
<rect x="715.4" y="450.3" width="16.7" height="19.7" fill="#008300"/>
<rect x="745.7" y="441.8" width="16.7" height="28.2" fill="none" stroke="#e34948" stroke-width="1.1"/>
<rect x="776.1" y="444.4" width="16.7" height="25.6" fill="#008300"/>
<rect x="806.5" y="446.0" width="16.7" height="24.0" fill="none" stroke="#e34948" stroke-width="1.1"/>
<polyline points="298.5,429.1 328.9,430.2 359.3,432.9 389.6,434.8 420.0,436.7 450.4,436.0 480.7,432.6 511.1,434.2 541.5,436.1 571.9,438.4 602.2,439.5 632.6,440.1 663.0,441.1 693.3,441.3 723.7,441.2 754.1,443.7 784.4,449.4 814.8,449.9" fill="none" stroke="#2a78d6" stroke-width="1.5" stroke-linejoin="round" stroke-linecap="round"/>
<polyline points="146.7,427.8 177.0,427.2 207.4,425.6 237.8,426.7 268.1,426.9 298.5,430.3 328.9,433.2 359.3,440.3 389.6,443.0 420.0,446.5 450.4,441.8 480.7,432.0 511.1,428.1 541.5,429.2 571.9,430.3 602.2,437.3 632.6,448.2 663.0,454.0 693.3,453.4 723.7,452.1 754.1,450.2 784.4,450.6 814.8,445.8" fill="none" stroke="#eda100" stroke-width="1.5" stroke-linejoin="round" stroke-linecap="round"/>
</svg>