<svg xmlns="http://www.w3.org/2000/svg" viewBox="0 0 840 496" width="840" height="496" font-family="-apple-system,&#39;Segoe UI&#39;,system-ui,sans-serif" role="img" aria-label="affaan-m/ECC candlestick chart">
<text x="14.0" y="20.0" font-size="15" fill="#0b0b0b" font-weight="650">affaan-m/ECC</text>
<text x="117.0" y="20.0" font-size="11.5" fill="#52514e">daily · new stars, volume = new forks</text>
<text x="805.8" y="20.0" font-size="11.0" fill="#52514e">fall</text>
<rect x="791" y="10" width="9" height="12" fill="#008300"/>
<text x="750.6" y="20.0" font-size="11.0" fill="#52514e">rise</text>
<rect x="736" y="10" width="9" height="12" fill="none" stroke="#e34948" stroke-width="1.5"/>
<text x="14.0" y="38.0" font-size="11.0" fill="#898781">last 20 days · +8,403 stars · +1,341 forks · updated 2026-07-15</text>
<rect x="10" y="66" width="820" height="290" fill="none" stroke="#e1e0d9"/>
<rect x="10" y="384" width="820" height="86" fill="none" stroke="#e1e0d9"/>
<text x="38.0" y="490.0" font-size="11.0" fill="#898781" text-anchor="middle">2026-06</text>
<line x1="215.0" y1="66.0" x2="215.0" y2="356.0" stroke="#e1e0d9" stroke-width="1.0"/>
<line x1="215.0" y1="384.0" x2="215.0" y2="470.0" stroke="#e1e0d9" stroke-width="1.0"/>
<text x="235.5" y="490.0" font-size="11.0" fill="#898781" text-anchor="middle">2026-07</text>
<text x="14.0" y="58.0" font-size="11.0" fill="#52514e">BOLL(20,2)</text>
<text x="84.5" y="58.0" font-size="11.0" fill="#eda100">UP:643.4</text>
<text x="142.9" y="58.0" font-size="11.0" fill="#2a78d6">MID:420.1</text>
<text x="207.4" y="58.0" font-size="11.0" fill="#e87ba4">LOW:196.9</text>
<text x="271.8" y="58.0" font-size="11.0" fill="#4a3aa7">MA7:380.3</text>
<line x1="10.0" y1="356.0" x2="830.0" y2="356.0" stroke="#e1e0d9" stroke-width="1.0"/>
<text x="14.0" y="353.0" font-size="11.0" fill="#898781">0</text>
<line x1="10.0" y1="270.1" x2="830.0" y2="270.1" stroke="#e1e0d9" stroke-width="1.0"/>
<text x="14.0" y="267.1" font-size="11.0" fill="#898781">200</text>
<line x1="10.0" y1="184.3" x2="830.0" y2="184.3" stroke="#e1e0d9" stroke-width="1.0"/>
<text x="14.0" y="181.3" font-size="11.0" fill="#898781">400</text>
<line x1="10.0" y1="98.4" x2="830.0" y2="98.4" stroke="#e1e0d9" stroke-width="1.0"/>
<text x="14.0" y="95.4" font-size="11.0" fill="#898781">600</text>
<polyline points="276.5,132.7 317.5,126.8 358.5,133.3 399.5,141.2 440.5,147.9 481.5,177.9 522.5,193.3 563.5,205.2 604.5,211.6 645.5,211.7 686.5,210.1 727.5,212.2 768.5,200.5 809.5,192.8" fill="none" stroke="#4a3aa7" stroke-width="1.5" stroke-linejoin="round" stroke-linecap="round"/>
<rect x="19.2" y="157.7" width="22.6" height="198.3" fill="none" stroke="#e34948" stroke-width="1.3"/>
<rect x="60.2" y="152.5" width="22.6" height="5.2" fill="none" stroke="#e34948" stroke-width="1.3"/>
<rect x="101.2" y="152.5" width="22.6" height="10.7" fill="#008300"/>
<rect x="142.2" y="147.4" width="22.6" height="15.9" fill="none" stroke="#e34948" stroke-width="1.3"/>
<rect x="183.2" y="87.7" width="22.6" height="59.7" fill="none" stroke="#e34948" stroke-width="1.3"/>
<rect x="224.2" y="87.7" width="22.6" height="14.6" fill="#008300"/>
<rect x="265.2" y="102.3" width="22.6" height="15.5" fill="#008300"/>
<rect x="306.2" y="116.9" width="22.6" height="1.2" fill="none" stroke="#e34948" stroke-width="1.3"/>
<rect x="347.2" y="116.9" width="22.6" height="80.7" fill="#008300"/>
<rect x="388.2" y="197.6" width="22.6" height="21.5" fill="#008300"/>
<rect x="429.2" y="194.2" width="22.6" height="24.9" fill="none" stroke="#e34948" stroke-width="1.3"/>
<rect x="470.2" y="194.2" width="22.6" height="103.5" fill="#008300"/>
<rect x="511.2" y="209.6" width="22.6" height="88.0" fill="none" stroke="#e34948" stroke-width="1.3"/>
<rect x="552.2" y="201.0" width="22.6" height="8.6" fill="none" stroke="#e34948" stroke-width="1.3"/>
<rect x="593.2" y="162.4" width="22.6" height="38.6" fill="none" stroke="#e34948" stroke-width="1.3"/>
<rect x="634.2" y="162.4" width="22.6" height="35.6" fill="#008300"/>
<rect x="675.2" y="198.0" width="22.6" height="9.4" fill="#008300"/>
<rect x="716.2" y="207.5" width="22.6" height="2.1" fill="#008300"/>
<rect x="757.2" y="209.6" width="22.6" height="5.6" fill="#008300"/>
<rect x="798.2" y="155.5" width="22.6" height="59.7" fill="none" stroke="#e34948" stroke-width="1.3"/>
<circle cx="194.5" cy="87.7" r="2" fill="#52514e"/>
<line x1="194.5" y1="87.7" x2="202.5" y2="87.7" stroke="#52514e" stroke-width="1.0"/>
<text x="205.5" y="91.7" font-size="11.0" fill="#52514e">625</text>
<circle cx="30.5" cy="356.0" r="2" fill="#52514e"/>
<line x1="30.5" y1="356.0" x2="38.5" y2="356.0" stroke="#52514e" stroke-width="1.0"/>
<text x="41.5" y="350.0" font-size="11.0" fill="#52514e">0</text>
<text x="14.0" y="376.0" font-size="11.0" fill="#52514e">VOL 35 forks</text>
<text x="96.6" y="376.0" font-size="11.0" fill="#eda100">MA5:61.4</text>
<text x="155.0" y="376.0" font-size="11.0" fill="#2a78d6">MA10:57.2</text>
<text x="14.0" y="395.0" font-size="10" fill="#898781">154</text>
<rect x="19.2" y="425.8" width="22.6" height="44.2" fill="none" stroke="#e34948" stroke-width="1.1"/>
<rect x="60.2" y="432.2" width="22.6" height="37.8" fill="none" stroke="#e34948" stroke-width="1.1"/>
<rect x="101.2" y="425.8" width="22.6" height="44.2" fill="#008300"/>
<rect x="142.2" y="432.7" width="22.6" height="37.3" fill="none" stroke="#e34948" stroke-width="1.1"/>
<rect x="183.2" y="422.6" width="22.6" height="47.4" fill="none" stroke="#e34948" stroke-width="1.1"/>
<rect x="224.2" y="422.6" width="22.6" height="47.4" fill="#008300"/>
<rect x="265.2" y="424.2" width="22.6" height="45.8" fill="#008300"/>
<rect x="306.2" y="431.1" width="22.6" height="38.9" fill="none" stroke="#e34948" stroke-width="1.1"/>
<rect x="347.2" y="433.8" width="22.6" height="36.2" fill="#008300"/>
<rect x="388.2" y="439.6" width="22.6" height="30.4" fill="#008300"/>
<rect x="429.2" y="437.0" width="22.6" height="33.0" fill="none" stroke="#e34948" stroke-width="1.1"/>
<rect x="470.2" y="459.9" width="22.6" height="10.1" fill="#008300"/>
<rect x="511.2" y="444.4" width="22.6" height="25.6" fill="none" stroke="#e34948" stroke-width="1.1"/>
<rect x="552.2" y="451.4" width="22.6" height="18.6" fill="none" stroke="#e34948" stroke-width="1.1"/>
<rect x="593.2" y="416.2" width="22.6" height="53.8" fill="none" stroke="#e34948" stroke-width="1.1"/>
<rect x="634.2" y="388.0" width="22.6" height="82.0" fill="#008300"/>
<rect x="675.2" y="440.7" width="22.6" height="29.3" fill="#008300"/>
<rect x="716.2" y="449.8" width="22.6" height="20.2" fill="#008300"/>
<rect x="757.2" y="456.7" width="22.6" height="13.3" fill="#008300"/>
<rect x="798.2" y="451.4" width="22.6" height="18.6" fill="none" stroke="#e34948" stroke-width="1.1"/>
<polyline points="399.5,429.1 440.5,430.2 481.5,432.9 522.5,434.8 563.5,436.7 604.5,436.0 645.5,432.6 686.5,434.2 727.5,436.1 768.5,438.4 809.5,439.5" fill="none" stroke="#2a78d6" stroke-width="1.5" stroke-linejoin="round" stroke-linecap="round"/>
<polyline points="194.5,427.8 235.5,427.2 276.5,425.6 317.5,426.7 358.5,426.9 399.5,430.3 440.5,433.2 481.5,440.3 522.5,443.0 563.5,446.5 604.5,441.8 645.5,432.0 686.5,428.1 727.5,429.2 768.5,430.3 809.5,437.3" fill="none" stroke="#eda100" stroke-width="1.5" stroke-linejoin="round" stroke-linecap="round"/>
</svg>