<svg xmlns="http://www.w3.org/2000/svg" viewBox="0 0 840 496" width="840" height="496" font-family="-apple-system,&#39;Segoe UI&#39;,system-ui,sans-serif" role="img" aria-label="affaan-m/ECC candlestick chart">
<text x="14.0" y="20.0" font-size="15" fill="#ffffff" font-weight="650">affaan-m/ECC</text>
<text x="117.0" y="20.0" font-size="11.5" fill="#c3c2b7">daily · new stars, volume = new forks</text>
<text x="805.8" y="20.0" font-size="11.0" fill="#c3c2b7">fall</text>
<rect x="791" y="10" width="9" height="12" fill="#008300"/>
<text x="750.6" y="20.0" font-size="11.0" fill="#c3c2b7">rise</text>
<rect x="736" y="10" width="9" height="12" fill="none" stroke="#e66767" stroke-width="1.5"/>
<text x="14.0" y="38.0" font-size="11.0" fill="#898781">last 24 days · +9,583 stars · +1,474 forks · updated 2026-07-19</text>
<rect x="10" y="66" width="820" height="290" fill="none" stroke="#2c2c2a"/>
<rect x="10" y="384" width="820" height="86" fill="none" stroke="#2c2c2a"/>
<text x="38.0" y="490.0" font-size="11.0" fill="#898781" text-anchor="middle">2026-06</text>
<line x1="180.8" y1="66.0" x2="180.8" y2="356.0" stroke="#2c2c2a" stroke-width="1.0"/>
<line x1="180.8" y1="384.0" x2="180.8" y2="470.0" stroke="#2c2c2a" stroke-width="1.0"/>
<text x="197.9" y="490.0" font-size="11.0" fill="#898781" text-anchor="middle">2026-07</text>
<text x="14.0" y="58.0" font-size="11.0" fill="#c3c2b7">BOLL(20,2)</text>
<text x="84.5" y="58.0" font-size="11.0" fill="#c98500">UP:626.7</text>
<text x="142.9" y="58.0" font-size="11.0" fill="#3987e5">MID:385.6</text>
<text x="207.4" y="58.0" font-size="11.0" fill="#d55181">LOW:144.5</text>
<text x="271.8" y="58.0" font-size="11.0" fill="#9085e9">MA7:330.9</text>
<line x1="10.0" y1="356.0" x2="830.0" y2="356.0" stroke="#2c2c2a" stroke-width="1.0"/>
<text x="14.0" y="353.0" font-size="11.0" fill="#898781">0</text>
<line x1="10.0" y1="270.1" x2="830.0" y2="270.1" stroke="#2c2c2a" stroke-width="1.0"/>
<text x="14.0" y="267.1" font-size="11.0" fill="#898781">200</text>
<line x1="10.0" y1="184.3" x2="830.0" y2="184.3" stroke="#2c2c2a" stroke-width="1.0"/>
<text x="14.0" y="181.3" font-size="11.0" fill="#898781">400</text>
<line x1="10.0" y1="98.4" x2="830.0" y2="98.4" stroke="#2c2c2a" stroke-width="1.0"/>
<text x="14.0" y="95.4" font-size="11.0" fill="#898781">600</text>
<polyline points="676.2,79.8 710.4,81.6 744.6,81.7 778.8,83.4 812.9,87.0" fill="none" stroke="#c98500" stroke-width="1.5" stroke-linejoin="round" stroke-linecap="round"/>
<polyline points="676.2,175.6 710.4,177.3 744.6,182.5 778.8,185.8 812.9,190.5" fill="none" stroke="#3987e5" stroke-width="1.5" stroke-linejoin="round" stroke-linecap="round"/>
<polyline points="676.2,271.5 710.4,273.0 744.6,283.3 778.8,288.1 812.9,294.0" fill="none" stroke="#d55181" stroke-width="1.5" stroke-linejoin="round" stroke-linecap="round"/>
<polyline points="232.1,132.7 266.2,126.8 300.4,133.3 334.6,141.2 368.8,147.9 402.9,177.9 437.1,193.3 471.2,205.2 505.4,211.6 539.6,211.7 573.8,210.1 607.9,212.2 642.1,200.5 676.2,192.8 710.4,191.4 744.6,204.8 778.8,209.1 812.9,214.0" fill="none" stroke="#9085e9" stroke-width="1.5" stroke-linejoin="round" stroke-linecap="round"/>
<rect x="17.7" y="157.7" width="18.8" height="198.3" fill="none" stroke="#e66767" stroke-width="1.3"/>
<rect x="51.9" y="152.5" width="18.8" height="5.2" fill="none" stroke="#e66767" stroke-width="1.3"/>
<rect x="86.0" y="152.5" width="18.8" height="10.7" fill="#008300"/>
<rect x="120.2" y="147.4" width="18.8" height="15.9" fill="none" stroke="#e66767" stroke-width="1.3"/>
<rect x="154.4" y="87.7" width="18.8" height="59.7" fill="none" stroke="#e66767" stroke-width="1.3"/>
<rect x="188.5" y="87.7" width="18.8" height="14.6" fill="#008300"/>
<rect x="222.7" y="102.3" width="18.8" height="15.5" fill="#008300"/>
<rect x="256.9" y="116.9" width="18.8" height="1.2" fill="none" stroke="#e66767" stroke-width="1.3"/>
<rect x="291.0" y="116.9" width="18.8" height="80.7" fill="#008300"/>
<rect x="325.2" y="197.6" width="18.8" height="21.5" fill="#008300"/>
<rect x="359.4" y="194.2" width="18.8" height="24.9" fill="none" stroke="#e66767" stroke-width="1.3"/>
<rect x="393.5" y="194.2" width="18.8" height="103.5" fill="#008300"/>
<rect x="427.7" y="209.6" width="18.8" height="88.0" fill="none" stroke="#e66767" stroke-width="1.3"/>
<rect x="461.9" y="201.0" width="18.8" height="8.6" fill="none" stroke="#e66767" stroke-width="1.3"/>
<rect x="496.0" y="162.4" width="18.8" height="38.6" fill="none" stroke="#e66767" stroke-width="1.3"/>
<rect x="530.2" y="162.4" width="18.8" height="35.6" fill="#008300"/>
<rect x="564.4" y="198.0" width="18.8" height="9.4" fill="#008300"/>
<rect x="598.5" y="207.5" width="18.8" height="2.1" fill="#008300"/>
<rect x="632.7" y="209.6" width="18.8" height="5.6" fill="#008300"/>
<rect x="666.9" y="155.5" width="18.8" height="59.7" fill="none" stroke="#e66767" stroke-width="1.3"/>
<rect x="701.0" y="155.5" width="18.8" height="36.1" fill="#008300"/>
<rect x="735.2" y="191.6" width="18.8" height="64.4" fill="#008300"/>
<rect x="769.4" y="228.5" width="18.8" height="27.5" fill="none" stroke="#e66767" stroke-width="1.3"/>
<rect x="803.5" y="228.5" width="18.8" height="12.9" fill="#008300"/>
<circle cx="163.8" cy="87.7" r="2" fill="#c3c2b7"/>
<line x1="163.8" y1="87.7" x2="171.8" y2="87.7" stroke="#c3c2b7" stroke-width="1.0"/>
<text x="174.8" y="91.7" font-size="11.0" fill="#c3c2b7">625</text>
<circle cx="27.1" cy="356.0" r="2" fill="#c3c2b7"/>
<line x1="27.1" y1="356.0" x2="35.1" y2="356.0" stroke="#c3c2b7" stroke-width="1.0"/>
<text x="38.1" y="350.0" font-size="11.0" fill="#c3c2b7">0</text>
<text x="14.0" y="376.0" font-size="11.0" fill="#c3c2b7">VOL 37 forks</text>
<text x="96.6" y="376.0" font-size="11.0" fill="#c98500">MA5:33.6</text>
<text x="155.0" y="376.0" font-size="11.0" fill="#3987e5">MA10:54.1</text>
<text x="14.0" y="395.0" font-size="10" fill="#898781">154</text>
<rect x="17.7" y="425.8" width="18.8" height="44.2" fill="none" stroke="#e66767" stroke-width="1.1"/>
<rect x="51.9" y="432.2" width="18.8" height="37.8" fill="none" stroke="#e66767" stroke-width="1.1"/>
<rect x="86.0" y="425.8" width="18.8" height="44.2" fill="#008300"/>
<rect x="120.2" y="432.7" width="18.8" height="37.3" fill="none" stroke="#e66767" stroke-width="1.1"/>
<rect x="154.4" y="422.6" width="18.8" height="47.4" fill="none" stroke="#e66767" stroke-width="1.1"/>
<rect x="188.5" y="422.6" width="18.8" height="47.4" fill="#008300"/>
<rect x="222.7" y="424.2" width="18.8" height="45.8" fill="#008300"/>
<rect x="256.9" y="431.1" width="18.8" height="38.9" fill="none" stroke="#e66767" stroke-width="1.1"/>
<rect x="291.0" y="433.8" width="18.8" height="36.2" fill="#008300"/>
<rect x="325.2" y="439.6" width="18.8" height="30.4" fill="#008300"/>
<rect x="359.4" y="437.0" width="18.8" height="33.0" fill="none" stroke="#e66767" stroke-width="1.1"/>
<rect x="393.5" y="459.9" width="18.8" height="10.1" fill="#008300"/>
<rect x="427.7" y="444.4" width="18.8" height="25.6" fill="none" stroke="#e66767" stroke-width="1.1"/>
<rect x="461.9" y="451.4" width="18.8" height="18.6" fill="none" stroke="#e66767" stroke-width="1.1"/>
<rect x="496.0" y="416.2" width="18.8" height="53.8" fill="none" stroke="#e66767" stroke-width="1.1"/>
<rect x="530.2" y="388.0" width="18.8" height="82.0" fill="#008300"/>
<rect x="564.4" y="440.7" width="18.8" height="29.3" fill="#008300"/>
<rect x="598.5" y="449.8" width="18.8" height="20.2" fill="#008300"/>
<rect x="632.7" y="456.7" width="18.8" height="13.3" fill="#008300"/>
<rect x="666.9" y="451.4" width="18.8" height="18.6" fill="none" stroke="#e66767" stroke-width="1.1"/>
<rect x="701.0" y="442.3" width="18.8" height="27.7" fill="#008300"/>
<rect x="769.4" y="446.6" width="18.8" height="23.4" fill="none" stroke="#e66767" stroke-width="1.1"/>
<rect x="803.5" y="450.3" width="18.8" height="19.7" fill="#008300"/>
<polyline points="334.6,429.1 368.8,430.2 402.9,432.9 437.1,434.8 471.2,436.7 505.4,436.0 539.6,432.6 573.8,434.2 607.9,436.1 642.1,438.4 676.2,439.5 710.4,440.1 744.6,441.1 778.8,441.3 812.9,441.2" fill="none" stroke="#3987e5" stroke-width="1.5" stroke-linejoin="round" stroke-linecap="round"/>
<polyline points="163.8,427.8 197.9,427.2 232.1,425.6 266.2,426.7 300.4,426.9 334.6,430.3 368.8,433.2 402.9,440.3 437.1,443.0 471.2,446.5 505.4,441.8 539.6,432.0 573.8,428.1 607.9,429.2 642.1,430.3 676.2,437.3 710.4,448.2 744.6,454.0 778.8,453.4 812.9,452.1" fill="none" stroke="#c98500" stroke-width="1.5" stroke-linejoin="round" stroke-linecap="round"/>
</svg>