<svg xmlns="http://www.w3.org/2000/svg" viewBox="0 0 840 496" width="840" height="496" font-family="-apple-system,&#39;Segoe UI&#39;,system-ui,sans-serif" role="img" aria-label="affaan-m/ECC candlestick chart">
<text x="14.0" y="20.0" font-size="15" fill="#0b0b0b" font-weight="650">affaan-m/ECC</text>
<text x="117.0" y="20.0" font-size="11.5" fill="#52514e">daily · new stars, volume = new forks</text>
<text x="805.8" y="20.0" font-size="11.0" fill="#52514e">fall</text>
<rect x="791" y="10" width="9" height="12" fill="#008300"/>
<text x="750.6" y="20.0" font-size="11.0" fill="#52514e">rise</text>
<rect x="736" y="10" width="9" height="12" fill="none" stroke="#e34948" stroke-width="1.5"/>
<text x="14.0" y="38.0" font-size="11.0" fill="#898781">last 13 days · +5,741 stars · +898 forks · updated 2026-07-08</text>
<rect x="10" y="66" width="820" height="290" fill="none" stroke="#e1e0d9"/>
<rect x="10" y="384" width="820" height="86" fill="none" stroke="#e1e0d9"/>
<text x="41.5" y="490.0" font-size="11.0" fill="#898781" text-anchor="middle">2026-06</text>
<line x1="325.4" y1="66.0" x2="325.4" y2="356.0" stroke="#e1e0d9" stroke-width="1.0"/>
<line x1="325.4" y1="384.0" x2="325.4" y2="470.0" stroke="#e1e0d9" stroke-width="1.0"/>
<text x="356.9" y="490.0" font-size="11.0" fill="#898781" text-anchor="middle">2026-07</text>
<text x="14.0" y="58.0" font-size="11.0" fill="#52514e">BOLL(20,2)</text>
<text x="84.5" y="58.0" font-size="11.0" fill="#eda100">UP:—</text>
<text x="118.7" y="58.0" font-size="11.0" fill="#2a78d6">MID:—</text>
<text x="158.9" y="58.0" font-size="11.0" fill="#e87ba4">LOW:—</text>
<text x="199.2" y="58.0" font-size="11.0" fill="#4a3aa7">MA7:379.1</text>
<line x1="10.0" y1="356.0" x2="830.0" y2="356.0" stroke="#e1e0d9" stroke-width="1.0"/>
<text x="14.0" y="353.0" font-size="11.0" fill="#898781">0</text>
<line x1="10.0" y1="267.6" x2="830.0" y2="267.6" stroke="#e1e0d9" stroke-width="1.0"/>
<text x="14.0" y="264.6" font-size="11.0" fill="#898781">200</text>
<line x1="10.0" y1="179.2" x2="830.0" y2="179.2" stroke="#e1e0d9" stroke-width="1.0"/>
<text x="14.0" y="176.2" font-size="11.0" fill="#898781">400</text>
<line x1="10.0" y1="90.9" x2="830.0" y2="90.9" stroke="#e1e0d9" stroke-width="1.0"/>
<text x="14.0" y="87.9" font-size="11.0" fill="#898781">600</text>
<polyline points="420.0,126.1 483.1,120.1 546.2,126.7 609.2,134.9 672.3,141.8 735.4,172.7 798.5,188.5" fill="none" stroke="#4a3aa7" stroke-width="1.5" stroke-linejoin="round" stroke-linecap="round"/>
<rect x="29.5" y="151.8" width="24.0" height="204.2" fill="none" stroke="#e34948" stroke-width="1.3"/>
<rect x="92.6" y="146.5" width="24.0" height="5.3" fill="none" stroke="#e34948" stroke-width="1.3"/>
<rect x="155.7" y="146.5" width="24.0" height="11.0" fill="#008300"/>
<rect x="218.8" y="141.2" width="24.0" height="16.4" fill="none" stroke="#e34948" stroke-width="1.3"/>
<rect x="281.8" y="79.8" width="24.0" height="61.4" fill="none" stroke="#e34948" stroke-width="1.3"/>
<rect x="344.9" y="79.8" width="24.0" height="15.0" fill="#008300"/>
<rect x="408.0" y="94.8" width="24.0" height="15.9" fill="#008300"/>
<rect x="471.1" y="109.9" width="24.0" height="1.2" fill="none" stroke="#e34948" stroke-width="1.3"/>
<rect x="534.2" y="109.9" width="24.0" height="83.1" fill="#008300"/>
<rect x="597.2" y="192.9" width="24.0" height="22.1" fill="#008300"/>
<rect x="660.3" y="189.4" width="24.0" height="25.6" fill="none" stroke="#e34948" stroke-width="1.3"/>
<rect x="723.4" y="189.4" width="24.0" height="106.5" fill="#008300"/>
<rect x="786.5" y="205.3" width="24.0" height="90.6" fill="none" stroke="#e34948" stroke-width="1.3"/>
<circle cx="293.8" cy="79.8" r="2" fill="#52514e"/>
<line x1="293.8" y1="79.8" x2="301.8" y2="79.8" stroke="#52514e" stroke-width="1.0"/>
<text x="304.8" y="83.8" font-size="11.0" fill="#52514e">625</text>
<circle cx="41.5" cy="356.0" r="2" fill="#52514e"/>
<line x1="41.5" y1="356.0" x2="49.5" y2="356.0" stroke="#52514e" stroke-width="1.0"/>
<text x="52.5" y="350.0" font-size="11.0" fill="#52514e">0</text>
<text x="14.0" y="376.0" font-size="11.0" fill="#52514e">VOL 48 forks</text>
<text x="96.6" y="376.0" font-size="11.0" fill="#eda100">MA5:50.8</text>
<text x="155.0" y="376.0" font-size="11.0" fill="#2a78d6">MA10:66.1</text>
<text x="14.0" y="395.0" font-size="10" fill="#898781">89</text>
<rect x="29.5" y="393.5" width="24.0" height="76.5" fill="none" stroke="#e34948" stroke-width="1.1"/>
<rect x="92.6" y="404.6" width="24.0" height="65.4" fill="none" stroke="#e34948" stroke-width="1.1"/>
<rect x="155.7" y="393.5" width="24.0" height="76.5" fill="#008300"/>
<rect x="218.8" y="405.5" width="24.0" height="64.5" fill="none" stroke="#e34948" stroke-width="1.1"/>
<rect x="281.8" y="388.0" width="24.0" height="82.0" fill="none" stroke="#e34948" stroke-width="1.1"/>
<rect x="344.9" y="388.0" width="24.0" height="82.0" fill="#008300"/>
<rect x="408.0" y="390.8" width="24.0" height="79.2" fill="#008300"/>
<rect x="471.1" y="402.7" width="24.0" height="67.3" fill="none" stroke="#e34948" stroke-width="1.1"/>
<rect x="534.2" y="407.3" width="24.0" height="62.7" fill="#008300"/>
<rect x="597.2" y="417.5" width="24.0" height="52.5" fill="#008300"/>
<rect x="660.3" y="412.9" width="24.0" height="57.1" fill="none" stroke="#e34948" stroke-width="1.1"/>
<rect x="723.4" y="452.5" width="24.0" height="17.5" fill="#008300"/>
<rect x="786.5" y="425.8" width="24.0" height="44.2" fill="none" stroke="#e34948" stroke-width="1.1"/>
<polyline points="609.2,399.1 672.3,401.1 735.4,405.9 798.5,409.1" fill="none" stroke="#2a78d6" stroke-width="1.5" stroke-linejoin="round" stroke-linecap="round"/>
<polyline points="293.8,397.0 356.9,395.9 420.0,393.2 483.1,395.0 546.2,395.4 609.2,401.3 672.3,406.2 735.4,418.6 798.5,423.2" fill="none" stroke="#eda100" stroke-width="1.5" stroke-linejoin="round" stroke-linecap="round"/>
</svg>