<svg xmlns="http://www.w3.org/2000/svg" viewBox="0 0 840 496" width="840" height="496" font-family="-apple-system,&#39;Segoe UI&#39;,system-ui,sans-serif" role="img" aria-label="affaan-m/ECC candlestick chart">
<text x="14.0" y="20.0" font-size="15" fill="#0b0b0b" font-weight="650">affaan-m/ECC</text>
<text x="117.0" y="20.0" font-size="11.5" fill="#52514e">daily · new stars, volume = new forks</text>
<text x="805.8" y="20.0" font-size="11.0" fill="#52514e">fall</text>
<rect x="791" y="10" width="9" height="12" fill="#008300"/>
<text x="750.6" y="20.0" font-size="11.0" fill="#52514e">rise</text>
<rect x="736" y="10" width="9" height="12" fill="none" stroke="#e34948" stroke-width="1.5"/>
<text x="14.0" y="38.0" font-size="11.0" fill="#898781">last 19 days · +7,936 stars · +1,306 forks · updated 2026-07-14</text>
<rect x="10" y="66" width="820" height="290" fill="none" stroke="#e1e0d9"/>
<rect x="10" y="384" width="820" height="86" fill="none" stroke="#e1e0d9"/>
<text x="38.0" y="490.0" font-size="11.0" fill="#898781" text-anchor="middle">2026-06</text>
<line x1="225.8" y1="66.0" x2="225.8" y2="356.0" stroke="#e1e0d9" stroke-width="1.0"/>
<line x1="225.8" y1="384.0" x2="225.8" y2="470.0" stroke="#e1e0d9" stroke-width="1.0"/>
<text x="247.4" y="490.0" font-size="11.0" fill="#898781" text-anchor="middle">2026-07</text>
<text x="14.0" y="58.0" font-size="11.0" fill="#52514e">BOLL(20,2)</text>
<text x="84.5" y="58.0" font-size="11.0" fill="#eda100">UP:—</text>
<text x="118.7" y="58.0" font-size="11.0" fill="#2a78d6">MID:—</text>
<text x="158.9" y="58.0" font-size="11.0" fill="#e87ba4">LOW:—</text>
<text x="199.2" y="58.0" font-size="11.0" fill="#4a3aa7">MA7:362.3</text>
<line x1="10.0" y1="356.0" x2="830.0" y2="356.0" stroke="#e1e0d9" stroke-width="1.0"/>
<text x="14.0" y="353.0" font-size="11.0" fill="#898781">0</text>
<line x1="10.0" y1="267.6" x2="830.0" y2="267.6" stroke="#e1e0d9" stroke-width="1.0"/>
<text x="14.0" y="264.6" font-size="11.0" fill="#898781">200</text>
<line x1="10.0" y1="179.2" x2="830.0" y2="179.2" stroke="#e1e0d9" stroke-width="1.0"/>
<text x="14.0" y="176.2" font-size="11.0" fill="#898781">400</text>
<line x1="10.0" y1="90.9" x2="830.0" y2="90.9" stroke="#e1e0d9" stroke-width="1.0"/>
<text x="14.0" y="87.9" font-size="11.0" fill="#898781">600</text>
<polyline points="290.5,126.1 333.7,120.1 376.8,126.7 420.0,134.9 463.2,141.8 506.3,172.7 549.5,188.5 592.6,200.7 635.8,207.4 678.9,207.5 722.1,205.8 765.3,208.0 808.4,195.9" fill="none" stroke="#4a3aa7" stroke-width="1.5" stroke-linejoin="round" stroke-linecap="round"/>
<rect x="19.7" y="151.8" width="23.7" height="204.2" fill="none" stroke="#e34948" stroke-width="1.3"/>
<rect x="62.9" y="146.5" width="23.7" height="5.3" fill="none" stroke="#e34948" stroke-width="1.3"/>
<rect x="106.0" y="146.5" width="23.7" height="11.0" fill="#008300"/>
<rect x="149.2" y="141.2" width="23.7" height="16.4" fill="none" stroke="#e34948" stroke-width="1.3"/>
<rect x="192.3" y="79.8" width="23.7" height="61.4" fill="none" stroke="#e34948" stroke-width="1.3"/>
<rect x="235.5" y="79.8" width="23.7" height="15.0" fill="#008300"/>
<rect x="278.7" y="94.8" width="23.7" height="15.9" fill="#008300"/>
<rect x="321.8" y="109.9" width="23.7" height="1.2" fill="none" stroke="#e34948" stroke-width="1.3"/>
<rect x="365.0" y="109.9" width="23.7" height="83.1" fill="#008300"/>
<rect x="408.1" y="192.9" width="23.7" height="22.1" fill="#008300"/>
<rect x="451.3" y="189.4" width="23.7" height="25.6" fill="none" stroke="#e34948" stroke-width="1.3"/>
<rect x="494.4" y="189.4" width="23.7" height="106.5" fill="#008300"/>
<rect x="537.6" y="205.3" width="23.7" height="90.6" fill="none" stroke="#e34948" stroke-width="1.3"/>
<rect x="580.8" y="196.5" width="23.7" height="8.8" fill="none" stroke="#e34948" stroke-width="1.3"/>
<rect x="623.9" y="156.7" width="23.7" height="39.8" fill="none" stroke="#e34948" stroke-width="1.3"/>
<rect x="667.1" y="156.7" width="23.7" height="36.7" fill="#008300"/>
<rect x="710.2" y="193.4" width="23.7" height="9.7" fill="#008300"/>
<rect x="753.4" y="203.1" width="23.7" height="2.2" fill="#008300"/>
<rect x="796.6" y="205.3" width="23.7" height="5.7" fill="#008300"/>
<circle cx="204.2" cy="79.8" r="2" fill="#52514e"/>
<line x1="204.2" y1="79.8" x2="212.2" y2="79.8" stroke="#52514e" stroke-width="1.0"/>
<text x="215.2" y="83.8" font-size="11.0" fill="#52514e">625</text>
<circle cx="31.6" cy="356.0" r="2" fill="#52514e"/>
<line x1="31.6" y1="356.0" x2="39.6" y2="356.0" stroke="#52514e" stroke-width="1.0"/>
<text x="42.6" y="350.0" font-size="11.0" fill="#52514e">0</text>
<text x="14.0" y="376.0" font-size="11.0" fill="#52514e">VOL 25 forks</text>
<text x="96.6" y="376.0" font-size="11.0" fill="#eda100">MA5:74.6</text>
<text x="155.0" y="376.0" font-size="11.0" fill="#2a78d6">MA10:59.4</text>
<text x="14.0" y="395.0" font-size="10" fill="#898781">154</text>
<rect x="19.7" y="425.8" width="23.7" height="44.2" fill="none" stroke="#e34948" stroke-width="1.1"/>
<rect x="62.9" y="432.2" width="23.7" height="37.8" fill="none" stroke="#e34948" stroke-width="1.1"/>
<rect x="106.0" y="425.8" width="23.7" height="44.2" fill="#008300"/>
<rect x="149.2" y="432.7" width="23.7" height="37.3" fill="none" stroke="#e34948" stroke-width="1.1"/>
<rect x="192.3" y="422.6" width="23.7" height="47.4" fill="none" stroke="#e34948" stroke-width="1.1"/>
<rect x="235.5" y="422.6" width="23.7" height="47.4" fill="#008300"/>
<rect x="278.7" y="424.2" width="23.7" height="45.8" fill="#008300"/>
<rect x="321.8" y="431.1" width="23.7" height="38.9" fill="none" stroke="#e34948" stroke-width="1.1"/>
<rect x="365.0" y="433.8" width="23.7" height="36.2" fill="#008300"/>
<rect x="408.1" y="439.6" width="23.7" height="30.4" fill="#008300"/>
<rect x="451.3" y="437.0" width="23.7" height="33.0" fill="none" stroke="#e34948" stroke-width="1.1"/>
<rect x="494.4" y="459.9" width="23.7" height="10.1" fill="#008300"/>
<rect x="537.6" y="444.4" width="23.7" height="25.6" fill="none" stroke="#e34948" stroke-width="1.1"/>
<rect x="580.8" y="451.4" width="23.7" height="18.6" fill="none" stroke="#e34948" stroke-width="1.1"/>
<rect x="623.9" y="416.2" width="23.7" height="53.8" fill="none" stroke="#e34948" stroke-width="1.1"/>
<rect x="667.1" y="388.0" width="23.7" height="82.0" fill="#008300"/>
<rect x="710.2" y="440.7" width="23.7" height="29.3" fill="#008300"/>
<rect x="753.4" y="449.8" width="23.7" height="20.2" fill="#008300"/>
<rect x="796.6" y="456.7" width="23.7" height="13.3" fill="#008300"/>
<polyline points="420.0,429.1 463.2,430.2 506.3,432.9 549.5,434.8 592.6,436.7 635.8,436.0 678.9,432.6 722.1,434.2 765.3,436.1 808.4,438.4" fill="none" stroke="#2a78d6" stroke-width="1.5" stroke-linejoin="round" stroke-linecap="round"/>
<polyline points="204.2,427.8 247.4,427.2 290.5,425.6 333.7,426.7 376.8,426.9 420.0,430.3 463.2,433.2 506.3,440.3 549.5,443.0 592.6,446.5 635.8,441.8 678.9,432.0 722.1,428.1 765.3,429.2 808.4,430.3" fill="none" stroke="#eda100" stroke-width="1.5" stroke-linejoin="round" stroke-linecap="round"/>
</svg>