<svg xmlns="http://www.w3.org/2000/svg" viewBox="0 0 840 496" width="840" height="496" font-family="-apple-system,&#39;Segoe UI&#39;,system-ui,sans-serif" role="img" aria-label="affaan-m/ECC candlestick chart">
<text x="14.0" y="20.0" font-size="15" fill="#0b0b0b" font-weight="650">affaan-m/ECC</text>
<text x="117.0" y="20.0" font-size="11.5" fill="#52514e">daily · new stars, volume = new forks</text>
<text x="805.8" y="20.0" font-size="11.0" fill="#52514e">fall</text>
<rect x="791" y="10" width="9" height="12" fill="#008300"/>
<text x="750.6" y="20.0" font-size="11.0" fill="#52514e">rise</text>
<rect x="736" y="10" width="9" height="12" fill="none" stroke="#e34948" stroke-width="1.5"/>
<text x="14.0" y="38.0" font-size="11.0" fill="#898781">last 23 days · +9,316 stars · +1,437 forks · updated 2026-07-18</text>
<rect x="10" y="66" width="820" height="290" fill="none" stroke="#e1e0d9"/>
<rect x="10" y="384" width="820" height="86" fill="none" stroke="#e1e0d9"/>
<text x="38.0" y="490.0" font-size="11.0" fill="#898781" text-anchor="middle">2026-06</text>
<line x1="188.3" y1="66.0" x2="188.3" y2="356.0" stroke="#e1e0d9" stroke-width="1.0"/>
<line x1="188.3" y1="384.0" x2="188.3" y2="470.0" stroke="#e1e0d9" stroke-width="1.0"/>
<text x="206.1" y="490.0" font-size="11.0" fill="#898781" text-anchor="middle">2026-07</text>
<text x="14.0" y="58.0" font-size="11.0" fill="#52514e">BOLL(20,2)</text>
<text x="84.5" y="58.0" font-size="11.0" fill="#eda100">UP:635.0</text>
<text x="142.9" y="58.0" font-size="11.0" fill="#2a78d6">MID:396.6</text>
<text x="207.4" y="58.0" font-size="11.0" fill="#e87ba4">LOW:158.2</text>
<text x="271.8" y="58.0" font-size="11.0" fill="#4a3aa7">MA7:342.1</text>
<line x1="10.0" y1="356.0" x2="830.0" y2="356.0" stroke="#e1e0d9" stroke-width="1.0"/>
<text x="14.0" y="353.0" font-size="11.0" fill="#898781">0</text>
<line x1="10.0" y1="270.1" x2="830.0" y2="270.1" stroke="#e1e0d9" stroke-width="1.0"/>
<text x="14.0" y="267.1" font-size="11.0" fill="#898781">200</text>
<line x1="10.0" y1="184.3" x2="830.0" y2="184.3" stroke="#e1e0d9" stroke-width="1.0"/>
<text x="14.0" y="181.3" font-size="11.0" fill="#898781">400</text>
<line x1="10.0" y1="98.4" x2="830.0" y2="98.4" stroke="#e1e0d9" stroke-width="1.0"/>
<text x="14.0" y="95.4" font-size="11.0" fill="#898781">600</text>
<polyline points="705.2,79.8 740.9,81.6 776.5,81.7 812.2,83.4" fill="none" stroke="#eda100" stroke-width="1.5" stroke-linejoin="round" stroke-linecap="round"/>
<polyline points="705.2,175.6 740.9,177.3 776.5,182.5 812.2,185.8" fill="none" stroke="#2a78d6" stroke-width="1.5" stroke-linejoin="round" stroke-linecap="round"/>
<polyline points="705.2,271.5 740.9,273.0 776.5,283.3 812.2,288.1" fill="none" stroke="#e87ba4" stroke-width="1.5" stroke-linejoin="round" stroke-linecap="round"/>
<polyline points="241.7,132.7 277.4,126.8 313.0,133.3 348.7,141.2 384.3,147.9 420.0,177.9 455.7,193.3 491.3,205.2 527.0,211.6 562.6,211.7 598.3,210.1 633.9,212.2 669.6,200.5 705.2,192.8 740.9,191.4 776.5,204.8 812.2,209.1" fill="none" stroke="#4a3aa7" stroke-width="1.5" stroke-linejoin="round" stroke-linecap="round"/>
<rect x="18.0" y="157.7" width="19.6" height="198.3" fill="none" stroke="#e34948" stroke-width="1.3"/>
<rect x="53.7" y="152.5" width="19.6" height="5.2" fill="none" stroke="#e34948" stroke-width="1.3"/>
<rect x="89.3" y="152.5" width="19.6" height="10.7" fill="#008300"/>
<rect x="125.0" y="147.4" width="19.6" height="15.9" fill="none" stroke="#e34948" stroke-width="1.3"/>
<rect x="160.6" y="87.7" width="19.6" height="59.7" fill="none" stroke="#e34948" stroke-width="1.3"/>
<rect x="196.3" y="87.7" width="19.6" height="14.6" fill="#008300"/>
<rect x="231.9" y="102.3" width="19.6" height="15.5" fill="#008300"/>
<rect x="267.6" y="116.9" width="19.6" height="1.2" fill="none" stroke="#e34948" stroke-width="1.3"/>
<rect x="303.2" y="116.9" width="19.6" height="80.7" fill="#008300"/>
<rect x="338.9" y="197.6" width="19.6" height="21.5" fill="#008300"/>
<rect x="374.5" y="194.2" width="19.6" height="24.9" fill="none" stroke="#e34948" stroke-width="1.3"/>
<rect x="410.2" y="194.2" width="19.6" height="103.5" fill="#008300"/>
<rect x="445.8" y="209.6" width="19.6" height="88.0" fill="none" stroke="#e34948" stroke-width="1.3"/>
<rect x="481.5" y="201.0" width="19.6" height="8.6" fill="none" stroke="#e34948" stroke-width="1.3"/>
<rect x="517.2" y="162.4" width="19.6" height="38.6" fill="none" stroke="#e34948" stroke-width="1.3"/>
<rect x="552.8" y="162.4" width="19.6" height="35.6" fill="#008300"/>
<rect x="588.5" y="198.0" width="19.6" height="9.4" fill="#008300"/>
<rect x="624.1" y="207.5" width="19.6" height="2.1" fill="#008300"/>
<rect x="659.8" y="209.6" width="19.6" height="5.6" fill="#008300"/>
<rect x="695.4" y="155.5" width="19.6" height="59.7" fill="none" stroke="#e34948" stroke-width="1.3"/>
<rect x="731.1" y="155.5" width="19.6" height="36.1" fill="#008300"/>
<rect x="766.7" y="191.6" width="19.6" height="64.4" fill="#008300"/>
<rect x="802.4" y="228.5" width="19.6" height="27.5" fill="none" stroke="#e34948" stroke-width="1.3"/>
<circle cx="170.4" cy="87.7" r="2" fill="#52514e"/>
<line x1="170.4" y1="87.7" x2="178.4" y2="87.7" stroke="#52514e" stroke-width="1.0"/>
<text x="181.4" y="91.7" font-size="11.0" fill="#52514e">625</text>
<circle cx="27.8" cy="356.0" r="2" fill="#52514e"/>
<line x1="27.8" y1="356.0" x2="35.8" y2="356.0" stroke="#52514e" stroke-width="1.0"/>
<text x="38.8" y="350.0" font-size="11.0" fill="#52514e">0</text>
<text x="14.0" y="376.0" font-size="11.0" fill="#52514e">VOL 44 forks</text>
<text x="96.6" y="376.0" font-size="11.0" fill="#eda100">MA5:31.2</text>
<text x="155.0" y="376.0" font-size="11.0" fill="#2a78d6">MA10:53.9</text>
<text x="14.0" y="395.0" font-size="10" fill="#898781">154</text>
<rect x="18.0" y="425.8" width="19.6" height="44.2" fill="none" stroke="#e34948" stroke-width="1.1"/>
<rect x="53.7" y="432.2" width="19.6" height="37.8" fill="none" stroke="#e34948" stroke-width="1.1"/>
<rect x="89.3" y="425.8" width="19.6" height="44.2" fill="#008300"/>
<rect x="125.0" y="432.7" width="19.6" height="37.3" fill="none" stroke="#e34948" stroke-width="1.1"/>
<rect x="160.6" y="422.6" width="19.6" height="47.4" fill="none" stroke="#e34948" stroke-width="1.1"/>
<rect x="196.3" y="422.6" width="19.6" height="47.4" fill="#008300"/>
<rect x="231.9" y="424.2" width="19.6" height="45.8" fill="#008300"/>
<rect x="267.6" y="431.1" width="19.6" height="38.9" fill="none" stroke="#e34948" stroke-width="1.1"/>
<rect x="303.2" y="433.8" width="19.6" height="36.2" fill="#008300"/>
<rect x="338.9" y="439.6" width="19.6" height="30.4" fill="#008300"/>
<rect x="374.5" y="437.0" width="19.6" height="33.0" fill="none" stroke="#e34948" stroke-width="1.1"/>
<rect x="410.2" y="459.9" width="19.6" height="10.1" fill="#008300"/>
<rect x="445.8" y="444.4" width="19.6" height="25.6" fill="none" stroke="#e34948" stroke-width="1.1"/>
<rect x="481.5" y="451.4" width="19.6" height="18.6" fill="none" stroke="#e34948" stroke-width="1.1"/>
<rect x="517.2" y="416.2" width="19.6" height="53.8" fill="none" stroke="#e34948" stroke-width="1.1"/>
<rect x="552.8" y="388.0" width="19.6" height="82.0" fill="#008300"/>
<rect x="588.5" y="440.7" width="19.6" height="29.3" fill="#008300"/>
<rect x="624.1" y="449.8" width="19.6" height="20.2" fill="#008300"/>
<rect x="659.8" y="456.7" width="19.6" height="13.3" fill="#008300"/>
<rect x="695.4" y="451.4" width="19.6" height="18.6" fill="none" stroke="#e34948" stroke-width="1.1"/>
<rect x="731.1" y="442.3" width="19.6" height="27.7" fill="#008300"/>
<rect x="802.4" y="446.6" width="19.6" height="23.4" fill="none" stroke="#e34948" stroke-width="1.1"/>
<polyline points="348.7,429.1 384.3,430.2 420.0,432.9 455.7,434.8 491.3,436.7 527.0,436.0 562.6,432.6 598.3,434.2 633.9,436.1 669.6,438.4 705.2,439.5 740.9,440.1 776.5,441.1 812.2,441.3" fill="none" stroke="#2a78d6" stroke-width="1.5" stroke-linejoin="round" stroke-linecap="round"/>
<polyline points="170.4,427.8 206.1,427.2 241.7,425.6 277.4,426.7 313.0,426.9 348.7,430.3 384.3,433.2 420.0,440.3 455.7,443.0 491.3,446.5 527.0,441.8 562.6,432.0 598.3,428.1 633.9,429.2 669.6,430.3 705.2,437.3 740.9,448.2 776.5,454.0 812.2,453.4" fill="none" stroke="#eda100" stroke-width="1.5" stroke-linejoin="round" stroke-linecap="round"/>
</svg>