<svg xmlns="http://www.w3.org/2000/svg" viewBox="0 0 840 496" width="840" height="496" font-family="-apple-system,&#39;Segoe UI&#39;,system-ui,sans-serif" role="img" aria-label="affaan-m/ECC candlestick chart">
<text x="14.0" y="20.0" font-size="15" fill="#ffffff" font-weight="650">affaan-m/ECC</text>
<text x="117.0" y="20.0" font-size="11.5" fill="#c3c2b7">daily · new stars, volume = new forks</text>
<text x="805.8" y="20.0" font-size="11.0" fill="#c3c2b7">fall</text>
<rect x="791" y="10" width="9" height="12" fill="#008300"/>
<text x="750.6" y="20.0" font-size="11.0" fill="#c3c2b7">rise</text>
<rect x="736" y="10" width="9" height="12" fill="none" stroke="#e66767" stroke-width="1.5"/>
<text x="14.0" y="38.0" font-size="11.0" fill="#898781">last 26 days · +10,216 stars · +1,575 forks · updated 2026-07-21</text>
<rect x="10" y="66" width="820" height="290" fill="none" stroke="#2c2c2a"/>
<rect x="10" y="384" width="820" height="86" fill="none" stroke="#2c2c2a"/>
<text x="38.0" y="490.0" font-size="11.0" fill="#898781" text-anchor="middle">2026-06</text>
<line x1="167.7" y1="66.0" x2="167.7" y2="356.0" stroke="#2c2c2a" stroke-width="1.0"/>
<line x1="167.7" y1="384.0" x2="167.7" y2="470.0" stroke="#2c2c2a" stroke-width="1.0"/>
<text x="183.5" y="490.0" font-size="11.0" fill="#898781" text-anchor="middle">2026-07</text>
<text x="14.0" y="58.0" font-size="11.0" fill="#c3c2b7">BOLL(20,2)</text>
<text x="84.5" y="58.0" font-size="11.0" fill="#c98500">UP:548.2</text>
<text x="142.9" y="58.0" font-size="11.0" fill="#3987e5">MID:356.4</text>
<text x="207.4" y="58.0" font-size="11.0" fill="#d55181">LOW:164.7</text>
<text x="271.8" y="58.0" font-size="11.0" fill="#9085e9">MA7:325.7</text>
<line x1="10.0" y1="356.0" x2="830.0" y2="356.0" stroke="#2c2c2a" stroke-width="1.0"/>
<text x="14.0" y="353.0" font-size="11.0" fill="#898781">0</text>
<line x1="10.0" y1="270.1" x2="830.0" y2="270.1" stroke="#2c2c2a" stroke-width="1.0"/>
<text x="14.0" y="267.1" font-size="11.0" fill="#898781">200</text>
<line x1="10.0" y1="184.3" x2="830.0" y2="184.3" stroke="#2c2c2a" stroke-width="1.0"/>
<text x="14.0" y="181.3" font-size="11.0" fill="#898781">400</text>
<line x1="10.0" y1="98.4" x2="830.0" y2="98.4" stroke="#2c2c2a" stroke-width="1.0"/>
<text x="14.0" y="95.4" font-size="11.0" fill="#898781">600</text>
<polyline points="625.0,79.8 656.5,81.6 688.1,81.7 719.6,83.4 751.2,87.0 782.7,104.4 814.2,120.7" fill="none" stroke="#c98500" stroke-width="1.5" stroke-linejoin="round" stroke-linecap="round"/>
<polyline points="625.0,175.6 656.5,177.3 688.1,182.5 719.6,185.8 751.2,190.5 782.7,196.9 814.2,203.0" fill="none" stroke="#3987e5" stroke-width="1.5" stroke-linejoin="round" stroke-linecap="round"/>
<polyline points="625.0,271.5 656.5,273.0 688.1,283.3 719.6,288.1 751.2,294.0 782.7,289.4 814.2,285.3" fill="none" stroke="#d55181" stroke-width="1.5" stroke-linejoin="round" stroke-linecap="round"/>
<polyline points="215.0,132.7 246.5,126.8 278.1,133.3 309.6,141.2 341.2,147.9 372.7,177.9 404.2,193.3 435.8,205.2 467.3,211.6 498.8,211.7 530.4,210.1 561.9,212.2 593.5,200.5 625.0,192.8 656.5,191.4 688.1,204.8 719.6,209.1 751.2,214.0 782.7,214.8 814.2,216.2" fill="none" stroke="#9085e9" stroke-width="1.5" stroke-linejoin="round" stroke-linecap="round"/>
<rect x="17.1" y="157.7" width="17.3" height="198.3" fill="none" stroke="#e66767" stroke-width="1.3"/>
<rect x="48.6" y="152.5" width="17.3" height="5.2" fill="none" stroke="#e66767" stroke-width="1.3"/>
<rect x="80.2" y="152.5" width="17.3" height="10.7" fill="#008300"/>
<rect x="111.7" y="147.4" width="17.3" height="15.9" fill="none" stroke="#e66767" stroke-width="1.3"/>
<rect x="143.2" y="87.7" width="17.3" height="59.7" fill="none" stroke="#e66767" stroke-width="1.3"/>
<rect x="174.8" y="87.7" width="17.3" height="14.6" fill="#008300"/>
<rect x="206.3" y="102.3" width="17.3" height="15.5" fill="#008300"/>
<rect x="237.9" y="116.9" width="17.3" height="1.2" fill="none" stroke="#e66767" stroke-width="1.3"/>
<rect x="269.4" y="116.9" width="17.3" height="80.7" fill="#008300"/>
<rect x="300.9" y="197.6" width="17.3" height="21.5" fill="#008300"/>
<rect x="332.5" y="194.2" width="17.3" height="24.9" fill="none" stroke="#e66767" stroke-width="1.3"/>
<rect x="364.0" y="194.2" width="17.3" height="103.5" fill="#008300"/>
<rect x="395.6" y="209.6" width="17.3" height="88.0" fill="none" stroke="#e66767" stroke-width="1.3"/>
<rect x="427.1" y="201.0" width="17.3" height="8.6" fill="none" stroke="#e66767" stroke-width="1.3"/>
<rect x="458.6" y="162.4" width="17.3" height="38.6" fill="none" stroke="#e66767" stroke-width="1.3"/>
<rect x="490.2" y="162.4" width="17.3" height="35.6" fill="#008300"/>
<rect x="521.7" y="198.0" width="17.3" height="9.4" fill="#008300"/>
<rect x="553.2" y="207.5" width="17.3" height="2.1" fill="#008300"/>
<rect x="584.8" y="209.6" width="17.3" height="5.6" fill="#008300"/>
<rect x="616.3" y="155.5" width="17.3" height="59.7" fill="none" stroke="#e66767" stroke-width="1.3"/>
<rect x="647.9" y="155.5" width="17.3" height="36.1" fill="#008300"/>
<rect x="679.4" y="191.6" width="17.3" height="64.4" fill="#008300"/>
<rect x="710.9" y="228.5" width="17.3" height="27.5" fill="none" stroke="#e66767" stroke-width="1.3"/>
<rect x="742.5" y="228.5" width="17.3" height="12.9" fill="#008300"/>
<rect x="774.0" y="215.6" width="17.3" height="25.8" fill="none" stroke="#e66767" stroke-width="1.3"/>
<rect x="805.6" y="215.6" width="17.3" height="9.0" fill="#008300"/>
<circle cx="151.9" cy="87.7" r="2" fill="#c3c2b7"/>
<line x1="151.9" y1="87.7" x2="159.9" y2="87.7" stroke="#c3c2b7" stroke-width="1.0"/>
<text x="162.9" y="91.7" font-size="11.0" fill="#c3c2b7">625</text>
<circle cx="25.8" cy="356.0" r="2" fill="#c3c2b7"/>
<line x1="25.8" y1="356.0" x2="33.8" y2="356.0" stroke="#c3c2b7" stroke-width="1.0"/>
<text x="36.8" y="350.0" font-size="11.0" fill="#c3c2b7">0</text>
<text x="14.0" y="376.0" font-size="11.0" fill="#c3c2b7">VOL 48 forks</text>
<text x="96.6" y="376.0" font-size="11.0" fill="#c98500">MA5:36.4</text>
<text x="155.0" y="376.0" font-size="11.0" fill="#3987e5">MA10:38.7</text>
<text x="14.0" y="395.0" font-size="10" fill="#898781">154</text>
<rect x="17.1" y="425.8" width="17.3" height="44.2" fill="none" stroke="#e66767" stroke-width="1.1"/>
<rect x="48.6" y="432.2" width="17.3" height="37.8" fill="none" stroke="#e66767" stroke-width="1.1"/>
<rect x="80.2" y="425.8" width="17.3" height="44.2" fill="#008300"/>
<rect x="111.7" y="432.7" width="17.3" height="37.3" fill="none" stroke="#e66767" stroke-width="1.1"/>
<rect x="143.2" y="422.6" width="17.3" height="47.4" fill="none" stroke="#e66767" stroke-width="1.1"/>
<rect x="174.8" y="422.6" width="17.3" height="47.4" fill="#008300"/>
<rect x="206.3" y="424.2" width="17.3" height="45.8" fill="#008300"/>
<rect x="237.9" y="431.1" width="17.3" height="38.9" fill="none" stroke="#e66767" stroke-width="1.1"/>
<rect x="269.4" y="433.8" width="17.3" height="36.2" fill="#008300"/>
<rect x="300.9" y="439.6" width="17.3" height="30.4" fill="#008300"/>
<rect x="332.5" y="437.0" width="17.3" height="33.0" fill="none" stroke="#e66767" stroke-width="1.1"/>
<rect x="364.0" y="459.9" width="17.3" height="10.1" fill="#008300"/>
<rect x="395.6" y="444.4" width="17.3" height="25.6" fill="none" stroke="#e66767" stroke-width="1.1"/>
<rect x="427.1" y="451.4" width="17.3" height="18.6" fill="none" stroke="#e66767" stroke-width="1.1"/>
<rect x="458.6" y="416.2" width="17.3" height="53.8" fill="none" stroke="#e66767" stroke-width="1.1"/>
<rect x="490.2" y="388.0" width="17.3" height="82.0" fill="#008300"/>
<rect x="521.7" y="440.7" width="17.3" height="29.3" fill="#008300"/>
<rect x="553.2" y="449.8" width="17.3" height="20.2" fill="#008300"/>
<rect x="584.8" y="456.7" width="17.3" height="13.3" fill="#008300"/>
<rect x="616.3" y="451.4" width="17.3" height="18.6" fill="none" stroke="#e66767" stroke-width="1.1"/>
<rect x="647.9" y="442.3" width="17.3" height="27.7" fill="#008300"/>
<rect x="710.9" y="446.6" width="17.3" height="23.4" fill="none" stroke="#e66767" stroke-width="1.1"/>
<rect x="742.5" y="450.3" width="17.3" height="19.7" fill="#008300"/>
<rect x="774.0" y="441.8" width="17.3" height="28.2" fill="none" stroke="#e66767" stroke-width="1.1"/>
<rect x="805.6" y="444.4" width="17.3" height="25.6" fill="#008300"/>
<polyline points="309.6,429.1 341.2,430.2 372.7,432.9 404.2,434.8 435.8,436.7 467.3,436.0 498.8,432.6 530.4,434.2 561.9,436.1 593.5,438.4 625.0,439.5 656.5,440.1 688.1,441.1 719.6,441.3 751.2,441.2 782.7,443.7 814.2,449.4" fill="none" stroke="#3987e5" stroke-width="1.5" stroke-linejoin="round" stroke-linecap="round"/>
<polyline points="151.9,427.8 183.5,427.2 215.0,425.6 246.5,426.7 278.1,426.9 309.6,430.3 341.2,433.2 372.7,440.3 404.2,443.0 435.8,446.5 467.3,441.8 498.8,432.0 530.4,428.1 561.9,429.2 593.5,430.3 625.0,437.3 656.5,448.2 688.1,454.0 719.6,453.4 751.2,452.1 782.7,450.2 814.2,450.6" fill="none" stroke="#c98500" stroke-width="1.5" stroke-linejoin="round" stroke-linecap="round"/>
</svg>