<svg xmlns="http://www.w3.org/2000/svg" viewBox="0 0 840 496" width="840" height="496" font-family="-apple-system,&#39;Segoe UI&#39;,system-ui,sans-serif" role="img" aria-label="affaan-m/ECC candlestick chart">
<text x="14.0" y="20.0" font-size="15" fill="#ffffff" font-weight="650">affaan-m/ECC</text>
<text x="117.0" y="20.0" font-size="11.5" fill="#c3c2b7">daily · new stars, volume = new forks</text>
<text x="805.8" y="20.0" font-size="11.0" fill="#c3c2b7">fall</text>
<rect x="791" y="10" width="9" height="12" fill="#008300"/>
<text x="750.6" y="20.0" font-size="11.0" fill="#c3c2b7">rise</text>
<rect x="736" y="10" width="9" height="12" fill="none" stroke="#e66767" stroke-width="1.5"/>
<text x="14.0" y="38.0" font-size="11.0" fill="#898781">last 14 days · +6,102 stars · +933 forks · updated 2026-07-09</text>
<rect x="10" y="66" width="820" height="290" fill="none" stroke="#2c2c2a"/>
<rect x="10" y="384" width="820" height="86" fill="none" stroke="#2c2c2a"/>
<text x="39.3" y="490.0" font-size="11.0" fill="#898781" text-anchor="middle">2026-06</text>
<line x1="302.9" y1="66.0" x2="302.9" y2="356.0" stroke="#2c2c2a" stroke-width="1.0"/>
<line x1="302.9" y1="384.0" x2="302.9" y2="470.0" stroke="#2c2c2a" stroke-width="1.0"/>
<text x="332.1" y="490.0" font-size="11.0" fill="#898781" text-anchor="middle">2026-07</text>
<text x="14.0" y="58.0" font-size="11.0" fill="#c3c2b7">BOLL(20,2)</text>
<text x="84.5" y="58.0" font-size="11.0" fill="#c98500">UP:—</text>
<text x="118.7" y="58.0" font-size="11.0" fill="#3987e5">MID:—</text>
<text x="158.9" y="58.0" font-size="11.0" fill="#d55181">LOW:—</text>
<text x="199.2" y="58.0" font-size="11.0" fill="#9085e9">MA7:351.4</text>
<line x1="10.0" y1="356.0" x2="830.0" y2="356.0" stroke="#2c2c2a" stroke-width="1.0"/>
<text x="14.0" y="353.0" font-size="11.0" fill="#898781">0</text>
<line x1="10.0" y1="267.6" x2="830.0" y2="267.6" stroke="#2c2c2a" stroke-width="1.0"/>
<text x="14.0" y="264.6" font-size="11.0" fill="#898781">200</text>
<line x1="10.0" y1="179.2" x2="830.0" y2="179.2" stroke="#2c2c2a" stroke-width="1.0"/>
<text x="14.0" y="176.2" font-size="11.0" fill="#898781">400</text>
<line x1="10.0" y1="90.9" x2="830.0" y2="90.9" stroke="#2c2c2a" stroke-width="1.0"/>
<text x="14.0" y="87.9" font-size="11.0" fill="#898781">600</text>
<polyline points="390.7,126.1 449.3,120.1 507.9,126.7 566.4,134.9 625.0,141.8 683.6,172.7 742.1,188.5 800.7,200.7" fill="none" stroke="#9085e9" stroke-width="1.5" stroke-linejoin="round" stroke-linecap="round"/>
<rect x="27.3" y="151.8" width="24.0" height="204.2" fill="none" stroke="#e66767" stroke-width="1.3"/>
<rect x="85.9" y="146.5" width="24.0" height="5.3" fill="none" stroke="#e66767" stroke-width="1.3"/>
<rect x="144.4" y="146.5" width="24.0" height="11.0" fill="#008300"/>
<rect x="203.0" y="141.2" width="24.0" height="16.4" fill="none" stroke="#e66767" stroke-width="1.3"/>
<rect x="261.6" y="79.8" width="24.0" height="61.4" fill="none" stroke="#e66767" stroke-width="1.3"/>
<rect x="320.1" y="79.8" width="24.0" height="15.0" fill="#008300"/>
<rect x="378.7" y="94.8" width="24.0" height="15.9" fill="#008300"/>
<rect x="437.3" y="109.9" width="24.0" height="1.2" fill="none" stroke="#e66767" stroke-width="1.3"/>
<rect x="495.9" y="109.9" width="24.0" height="83.1" fill="#008300"/>
<rect x="554.4" y="192.9" width="24.0" height="22.1" fill="#008300"/>
<rect x="613.0" y="189.4" width="24.0" height="25.6" fill="none" stroke="#e66767" stroke-width="1.3"/>
<rect x="671.6" y="189.4" width="24.0" height="106.5" fill="#008300"/>
<rect x="730.1" y="205.3" width="24.0" height="90.6" fill="none" stroke="#e66767" stroke-width="1.3"/>
<rect x="788.7" y="196.5" width="24.0" height="8.8" fill="none" stroke="#e66767" stroke-width="1.3"/>
<circle cx="273.6" cy="79.8" r="2" fill="#c3c2b7"/>
<line x1="273.6" y1="79.8" x2="281.6" y2="79.8" stroke="#c3c2b7" stroke-width="1.0"/>
<text x="284.6" y="83.8" font-size="11.0" fill="#c3c2b7">625</text>
<circle cx="39.3" cy="356.0" r="2" fill="#c3c2b7"/>
<line x1="39.3" y1="356.0" x2="47.3" y2="356.0" stroke="#c3c2b7" stroke-width="1.0"/>
<text x="50.3" y="350.0" font-size="11.0" fill="#c3c2b7">0</text>
<text x="14.0" y="376.0" font-size="11.0" fill="#c3c2b7">VOL 35 forks</text>
<text x="96.6" y="376.0" font-size="11.0" fill="#c98500">MA5:44.2</text>
<text x="155.0" y="376.0" font-size="11.0" fill="#3987e5">MA10:62.6</text>
<text x="14.0" y="395.0" font-size="10" fill="#898781">89</text>
<rect x="27.3" y="393.5" width="24.0" height="76.5" fill="none" stroke="#e66767" stroke-width="1.1"/>
<rect x="85.9" y="404.6" width="24.0" height="65.4" fill="none" stroke="#e66767" stroke-width="1.1"/>
<rect x="144.4" y="393.5" width="24.0" height="76.5" fill="#008300"/>
<rect x="203.0" y="405.5" width="24.0" height="64.5" fill="none" stroke="#e66767" stroke-width="1.1"/>
<rect x="261.6" y="388.0" width="24.0" height="82.0" fill="none" stroke="#e66767" stroke-width="1.1"/>
<rect x="320.1" y="388.0" width="24.0" height="82.0" fill="#008300"/>
<rect x="378.7" y="390.8" width="24.0" height="79.2" fill="#008300"/>
<rect x="437.3" y="402.7" width="24.0" height="67.3" fill="none" stroke="#e66767" stroke-width="1.1"/>
<rect x="495.9" y="407.3" width="24.0" height="62.7" fill="#008300"/>
<rect x="554.4" y="417.5" width="24.0" height="52.5" fill="#008300"/>
<rect x="613.0" y="412.9" width="24.0" height="57.1" fill="none" stroke="#e66767" stroke-width="1.1"/>
<rect x="671.6" y="452.5" width="24.0" height="17.5" fill="#008300"/>
<rect x="730.1" y="425.8" width="24.0" height="44.2" fill="none" stroke="#e66767" stroke-width="1.1"/>
<rect x="788.7" y="437.8" width="24.0" height="32.2" fill="none" stroke="#e66767" stroke-width="1.1"/>
<polyline points="566.4,399.1 625.0,401.1 683.6,405.9 742.1,409.1 800.7,412.3" fill="none" stroke="#3987e5" stroke-width="1.5" stroke-linejoin="round" stroke-linecap="round"/>
<polyline points="273.6,397.0 332.1,395.9 390.7,393.2 449.3,395.0 507.9,395.4 566.4,401.3 625.0,406.2 683.6,418.6 742.1,423.2 800.7,429.3" fill="none" stroke="#c98500" stroke-width="1.5" stroke-linejoin="round" stroke-linecap="round"/>
</svg>