<svg xmlns="http://www.w3.org/2000/svg" viewBox="0 0 840 496" width="840" height="496" font-family="-apple-system,&#39;Segoe UI&#39;,system-ui,sans-serif" role="img" aria-label="affaan-m/ECC candlestick chart">
<text x="14.0" y="20.0" font-size="15" fill="#ffffff" font-weight="650">affaan-m/ECC</text>
<text x="117.0" y="20.0" font-size="11.5" fill="#c3c2b7">daily · new stars, volume = new forks</text>
<text x="805.8" y="20.0" font-size="11.0" fill="#c3c2b7">fall</text>
<rect x="791" y="10" width="9" height="12" fill="#008300"/>
<text x="750.6" y="20.0" font-size="11.0" fill="#c3c2b7">rise</text>
<rect x="736" y="10" width="9" height="12" fill="none" stroke="#e66767" stroke-width="1.5"/>
<text x="14.0" y="38.0" font-size="11.0" fill="#898781">last 28 days · +10,894 stars · +1,649 forks · updated 2026-07-23</text>
<rect x="10" y="66" width="820" height="290" fill="none" stroke="#2c2c2a"/>
<rect x="10" y="384" width="820" height="86" fill="none" stroke="#2c2c2a"/>
<text x="38.0" y="490.0" font-size="11.0" fill="#898781" text-anchor="middle">2026-06</text>
<line x1="156.4" y1="66.0" x2="156.4" y2="356.0" stroke="#2c2c2a" stroke-width="1.0"/>
<line x1="156.4" y1="384.0" x2="156.4" y2="470.0" stroke="#2c2c2a" stroke-width="1.0"/>
<text x="171.1" y="490.0" font-size="11.0" fill="#898781" text-anchor="middle">2026-07</text>
<text x="14.0" y="58.0" font-size="11.0" fill="#c3c2b7">BOLL(20,2)</text>
<text x="84.5" y="58.0" font-size="11.0" fill="#c98500">UP:472.9</text>
<text x="142.9" y="58.0" font-size="11.0" fill="#3987e5">MID:334.8</text>
<text x="207.4" y="58.0" font-size="11.0" fill="#d55181">LOW:196.6</text>
<text x="271.8" y="58.0" font-size="11.0" fill="#9085e9">MA7:301.1</text>
<line x1="10.0" y1="356.0" x2="830.0" y2="356.0" stroke="#2c2c2a" stroke-width="1.0"/>
<text x="14.0" y="353.0" font-size="11.0" fill="#898781">0</text>
<line x1="10.0" y1="270.1" x2="830.0" y2="270.1" stroke="#2c2c2a" stroke-width="1.0"/>
<text x="14.0" y="267.1" font-size="11.0" fill="#898781">200</text>
<line x1="10.0" y1="184.3" x2="830.0" y2="184.3" stroke="#2c2c2a" stroke-width="1.0"/>
<text x="14.0" y="181.3" font-size="11.0" fill="#898781">400</text>
<line x1="10.0" y1="98.4" x2="830.0" y2="98.4" stroke="#2c2c2a" stroke-width="1.0"/>
<text x="14.0" y="95.4" font-size="11.0" fill="#898781">600</text>
<polyline points="581.1,79.8 610.4,81.6 639.6,81.7 668.9,83.4 698.2,87.0 727.5,104.4 756.8,120.7 786.1,135.1 815.4,153.0" fill="none" stroke="#c98500" stroke-width="1.5" stroke-linejoin="round" stroke-linecap="round"/>
<polyline points="581.1,175.6 610.4,177.3 639.6,182.5 668.9,185.8 698.2,190.5 727.5,196.9 756.8,203.0 786.1,207.5 815.4,212.3" fill="none" stroke="#3987e5" stroke-width="1.5" stroke-linejoin="round" stroke-linecap="round"/>
<polyline points="581.1,271.5 610.4,273.0 639.6,283.3 668.9,288.1 698.2,294.0 727.5,289.4 756.8,285.3 786.1,279.9 815.4,271.6" fill="none" stroke="#d55181" stroke-width="1.5" stroke-linejoin="round" stroke-linecap="round"/>
<polyline points="200.4,132.7 229.6,126.8 258.9,133.3 288.2,141.2 317.5,147.9 346.8,177.9 376.1,193.3 405.4,205.2 434.6,211.6 463.9,211.7 493.2,210.1 522.5,212.2 551.8,200.5 581.1,192.8 610.4,191.4 639.6,204.8 668.9,209.1 698.2,214.0 727.5,214.8 756.8,216.2 786.1,223.6 815.4,226.7" fill="none" stroke="#9085e9" stroke-width="1.5" stroke-linejoin="round" stroke-linecap="round"/>
<rect x="16.6" y="157.7" width="16.1" height="198.3" fill="none" stroke="#e66767" stroke-width="1.3"/>
<rect x="45.9" y="152.5" width="16.1" height="5.2" fill="none" stroke="#e66767" stroke-width="1.3"/>
<rect x="75.2" y="152.5" width="16.1" height="10.7" fill="#008300"/>
<rect x="104.4" y="147.4" width="16.1" height="15.9" fill="none" stroke="#e66767" stroke-width="1.3"/>
<rect x="133.7" y="87.7" width="16.1" height="59.7" fill="none" stroke="#e66767" stroke-width="1.3"/>
<rect x="163.0" y="87.7" width="16.1" height="14.6" fill="#008300"/>
<rect x="192.3" y="102.3" width="16.1" height="15.5" fill="#008300"/>
<rect x="221.6" y="116.9" width="16.1" height="1.2" fill="none" stroke="#e66767" stroke-width="1.3"/>
<rect x="250.9" y="116.9" width="16.1" height="80.7" fill="#008300"/>
<rect x="280.2" y="197.6" width="16.1" height="21.5" fill="#008300"/>
<rect x="309.4" y="194.2" width="16.1" height="24.9" fill="none" stroke="#e66767" stroke-width="1.3"/>
<rect x="338.7" y="194.2" width="16.1" height="103.5" fill="#008300"/>
<rect x="368.0" y="209.6" width="16.1" height="88.0" fill="none" stroke="#e66767" stroke-width="1.3"/>
<rect x="397.3" y="201.0" width="16.1" height="8.6" fill="none" stroke="#e66767" stroke-width="1.3"/>
<rect x="426.6" y="162.4" width="16.1" height="38.6" fill="none" stroke="#e66767" stroke-width="1.3"/>
<rect x="455.9" y="162.4" width="16.1" height="35.6" fill="#008300"/>
<rect x="485.2" y="198.0" width="16.1" height="9.4" fill="#008300"/>
<rect x="514.4" y="207.5" width="16.1" height="2.1" fill="#008300"/>
<rect x="543.7" y="209.6" width="16.1" height="5.6" fill="#008300"/>
<rect x="573.0" y="155.5" width="16.1" height="59.7" fill="none" stroke="#e66767" stroke-width="1.3"/>
<rect x="602.3" y="155.5" width="16.1" height="36.1" fill="#008300"/>
<rect x="631.6" y="191.6" width="16.1" height="64.4" fill="#008300"/>
<rect x="660.9" y="228.5" width="16.1" height="27.5" fill="none" stroke="#e66767" stroke-width="1.3"/>
<rect x="690.2" y="228.5" width="16.1" height="12.9" fill="#008300"/>
<rect x="719.4" y="215.6" width="16.1" height="25.8" fill="none" stroke="#e66767" stroke-width="1.3"/>
<rect x="748.7" y="215.6" width="16.1" height="9.0" fill="#008300"/>
<rect x="778.0" y="207.5" width="16.1" height="17.2" fill="none" stroke="#e66767" stroke-width="1.3"/>
<rect x="807.3" y="207.5" width="16.1" height="6.0" fill="#008300"/>
<circle cx="141.8" cy="87.7" r="2" fill="#c3c2b7"/>
<line x1="141.8" y1="87.7" x2="149.8" y2="87.7" stroke="#c3c2b7" stroke-width="1.0"/>
<text x="152.8" y="91.7" font-size="11.0" fill="#c3c2b7">625</text>
<circle cx="24.6" cy="356.0" r="2" fill="#c3c2b7"/>
<line x1="24.6" y1="356.0" x2="32.6" y2="356.0" stroke="#c3c2b7" stroke-width="1.0"/>
<text x="35.6" y="350.0" font-size="11.0" fill="#c3c2b7">0</text>
<text x="14.0" y="376.0" font-size="11.0" fill="#c3c2b7">VOL 29 forks</text>
<text x="96.6" y="376.0" font-size="11.0" fill="#c98500">MA5:42.4</text>
<text x="155.0" y="376.0" font-size="11.0" fill="#3987e5">MA10:36.8</text>
<text x="14.0" y="395.0" font-size="10" fill="#898781">154</text>
<rect x="16.6" y="425.8" width="16.1" height="44.2" fill="none" stroke="#e66767" stroke-width="1.1"/>
<rect x="45.9" y="432.2" width="16.1" height="37.8" fill="none" stroke="#e66767" stroke-width="1.1"/>
<rect x="75.2" y="425.8" width="16.1" height="44.2" fill="#008300"/>
<rect x="104.4" y="432.7" width="16.1" height="37.3" fill="none" stroke="#e66767" stroke-width="1.1"/>
<rect x="133.7" y="422.6" width="16.1" height="47.4" fill="none" stroke="#e66767" stroke-width="1.1"/>
<rect x="163.0" y="422.6" width="16.1" height="47.4" fill="#008300"/>
<rect x="192.3" y="424.2" width="16.1" height="45.8" fill="#008300"/>
<rect x="221.6" y="431.1" width="16.1" height="38.9" fill="none" stroke="#e66767" stroke-width="1.1"/>
<rect x="250.9" y="433.8" width="16.1" height="36.2" fill="#008300"/>
<rect x="280.2" y="439.6" width="16.1" height="30.4" fill="#008300"/>
<rect x="309.4" y="437.0" width="16.1" height="33.0" fill="none" stroke="#e66767" stroke-width="1.1"/>
<rect x="338.7" y="459.9" width="16.1" height="10.1" fill="#008300"/>
<rect x="368.0" y="444.4" width="16.1" height="25.6" fill="none" stroke="#e66767" stroke-width="1.1"/>
<rect x="397.3" y="451.4" width="16.1" height="18.6" fill="none" stroke="#e66767" stroke-width="1.1"/>
<rect x="426.6" y="416.2" width="16.1" height="53.8" fill="none" stroke="#e66767" stroke-width="1.1"/>
<rect x="455.9" y="388.0" width="16.1" height="82.0" fill="#008300"/>
<rect x="485.2" y="440.7" width="16.1" height="29.3" fill="#008300"/>
<rect x="514.4" y="449.8" width="16.1" height="20.2" fill="#008300"/>
<rect x="543.7" y="456.7" width="16.1" height="13.3" fill="#008300"/>
<rect x="573.0" y="451.4" width="16.1" height="18.6" fill="none" stroke="#e66767" stroke-width="1.1"/>
<rect x="602.3" y="442.3" width="16.1" height="27.7" fill="#008300"/>
<rect x="660.9" y="446.6" width="16.1" height="23.4" fill="none" stroke="#e66767" stroke-width="1.1"/>
<rect x="690.2" y="450.3" width="16.1" height="19.7" fill="#008300"/>
<rect x="719.4" y="441.8" width="16.1" height="28.2" fill="none" stroke="#e66767" stroke-width="1.1"/>
<rect x="748.7" y="444.4" width="16.1" height="25.6" fill="#008300"/>
<rect x="778.0" y="446.0" width="16.1" height="24.0" fill="none" stroke="#e66767" stroke-width="1.1"/>
<rect x="807.3" y="454.6" width="16.1" height="15.4" fill="#008300"/>
<polyline points="288.2,429.1 317.5,430.2 346.8,432.9 376.1,434.8 405.4,436.7 434.6,436.0 463.9,432.6 493.2,434.2 522.5,436.1 551.8,438.4 581.1,439.5 610.4,440.1 639.6,441.1 668.9,441.3 698.2,441.2 727.5,443.7 756.8,449.4 786.1,449.9 815.4,450.4" fill="none" stroke="#3987e5" stroke-width="1.5" stroke-linejoin="round" stroke-linecap="round"/>
<polyline points="141.8,427.8 171.1,427.2 200.4,425.6 229.6,426.7 258.9,426.9 288.2,430.3 317.5,433.2 346.8,440.3 376.1,443.0 405.4,446.5 434.6,441.8 463.9,432.0 493.2,428.1 522.5,429.2 551.8,430.3 581.1,437.3 610.4,448.2 639.6,454.0 668.9,453.4 698.2,452.1 727.5,450.2 756.8,450.6 786.1,445.8 815.4,447.4" fill="none" stroke="#c98500" stroke-width="1.5" stroke-linejoin="round" stroke-linecap="round"/>
</svg>