<svg xmlns="http://www.w3.org/2000/svg" viewBox="0 0 840 496" width="840" height="496" font-family="-apple-system,&#39;Segoe UI&#39;,system-ui,sans-serif" role="img" aria-label="affaan-m/ECC candlestick chart">
<text x="14.0" y="20.0" font-size="15" fill="#0b0b0b" font-weight="650">affaan-m/ECC</text>
<text x="117.0" y="20.0" font-size="11.5" fill="#52514e">daily · new stars, volume = new forks</text>
<text x="805.8" y="20.0" font-size="11.0" fill="#52514e">fall</text>
<rect x="791" y="10" width="9" height="12" fill="#008300"/>
<text x="750.6" y="20.0" font-size="11.0" fill="#52514e">rise</text>
<rect x="736" y="10" width="9" height="12" fill="none" stroke="#e34948" stroke-width="1.5"/>
<text x="14.0" y="38.0" font-size="11.0" fill="#898781">last 60 days · +30,039 stars · +3,827 forks · updated 2026-09-18</text>
<rect x="10" y="66" width="820" height="290" fill="none" stroke="#e1e0d9"/>
<rect x="10" y="384" width="820" height="86" fill="none" stroke="#e1e0d9"/>
<text x="38.0" y="490.0" font-size="11.0" fill="#898781" text-anchor="middle">2026-07</text>
<line x1="160.3" y1="66.0" x2="160.3" y2="356.0" stroke="#e1e0d9" stroke-width="1.0"/>
<line x1="160.3" y1="384.0" x2="160.3" y2="470.0" stroke="#e1e0d9" stroke-width="1.0"/>
<text x="167.2" y="490.0" font-size="11.0" fill="#898781" text-anchor="middle">2026-08</text>
<line x1="584.0" y1="66.0" x2="584.0" y2="356.0" stroke="#e1e0d9" stroke-width="1.0"/>
<line x1="584.0" y1="384.0" x2="584.0" y2="470.0" stroke="#e1e0d9" stroke-width="1.0"/>
<text x="590.8" y="490.0" font-size="11.0" fill="#898781" text-anchor="middle">2026-09</text>
<text x="14.0" y="58.0" font-size="11.0" fill="#52514e">BOLL(20,2)</text>
<text x="84.5" y="58.0" font-size="11.0" fill="#eda100">UP:1,594.2</text>
<text x="155.0" y="58.0" font-size="11.0" fill="#2a78d6">MID:866</text>
<text x="207.4" y="58.0" font-size="11.0" fill="#e87ba4">LOW:137.8</text>
<text x="271.8" y="58.0" font-size="11.0" fill="#4a3aa7">MA7:759.3</text>
<line x1="10.0" y1="356.0" x2="830.0" y2="356.0" stroke="#e1e0d9" stroke-width="1.0"/>
<text x="14.0" y="353.0" font-size="11.0" fill="#898781">0</text>
<line x1="10.0" y1="271.6" x2="830.0" y2="271.6" stroke="#e1e0d9" stroke-width="1.0"/>
<text x="14.0" y="268.6" font-size="11.0" fill="#898781">500</text>
<line x1="10.0" y1="187.3" x2="830.0" y2="187.3" stroke="#e1e0d9" stroke-width="1.0"/>
<text x="14.0" y="184.3" font-size="11.0" fill="#898781">1,000</text>
<line x1="10.0" y1="102.9" x2="830.0" y2="102.9" stroke="#e1e0d9" stroke-width="1.0"/>
<text x="14.0" y="99.9" font-size="11.0" fill="#898781">1,500</text>
<polyline points="16.8,263.5 30.5,269.2 44.2,276.2 57.8,276.6 71.5,276.5 85.2,275.4 98.8,279.4 112.5,272.9 126.2,258.5 139.8,246.9 153.5,242.2 167.2,242.2 180.8,241.0 194.5,240.9 208.2,242.1 221.8,242.3 235.5,242.6 249.2,242.5 262.8,242.4 276.5,242.2 290.2,241.7 303.8,241.7 317.5,241.7 331.2,241.8 344.8,241.9 358.5,242.6 372.2,242.6 385.8,247.1 399.5,259.8 413.2,279.3 426.8,296.1 440.5,298.7 454.2,296.6 467.8,292.9 481.5,289.4 495.2,289.8 508.8,290.3 522.5,287.6 536.2,287.6 549.8,287.0 563.5,285.6 577.2,278.7 590.8,271.2 604.5,267.2 618.2,256.5 631.8,233.7 645.5,195.9 659.2,159.4 672.8,121.6 686.5,102.8 700.2,86.2 713.8,84.4 727.5,83.9 741.2,83.9 754.8,83.9 768.5,84.1 782.2,85.2 795.8,82.9 809.5,81.8 823.2,87.0" fill="none" stroke="#eda100" stroke-width="1.5" stroke-linejoin="round" stroke-linecap="round"/>
<polyline points="16.8,295.9 30.5,297.6 44.2,299.5 57.8,299.8 71.5,299.7 85.2,299.3 98.8,297.5 112.5,295.8 126.2,292.9 139.8,290.5 153.5,288.5 167.2,288.4 180.8,289.7 194.5,290.3 208.2,292.0 221.8,292.1 235.5,291.4 249.2,291.6 262.8,291.7 276.5,292.4 290.2,293.3 303.8,294.3 317.5,295.1 331.2,295.6 344.8,296.5 358.5,298.8 372.2,300.4 385.8,303.3 399.5,307.4 413.2,311.5 426.8,314.7 440.5,315.4 454.2,314.2 467.8,313.2 481.5,312.1 495.2,312.2 508.8,312.4 522.5,311.5 536.2,311.5 549.8,312.3 563.5,311.2 577.2,308.9 590.8,306.5 604.5,304.7 618.2,301.2 631.8,294.7 645.5,285.1 659.2,274.6 672.8,262.6 686.5,253.4 700.2,243.7 713.8,239.1 727.5,236.1 741.2,234.2 754.8,232.4 768.5,229.9 782.2,226.9 795.8,222.1 809.5,215.5 823.2,209.9" fill="none" stroke="#2a78d6" stroke-width="1.5" stroke-linejoin="round" stroke-linecap="round"/>
<polyline points="16.8,328.2 30.5,326.1 44.2,322.8 57.8,323.0 71.5,322.8 85.2,323.1 98.8,315.7 112.5,318.8 126.2,327.4 139.8,334.0 153.5,334.8 167.2,334.7 180.8,338.4 194.5,339.7 208.2,341.8 221.8,342.0 235.5,340.3 249.2,340.6 262.8,341.0 276.5,342.6 290.2,344.8 303.8,346.9 317.5,348.5 331.2,349.4 344.8,351.1 358.5,354.9 372.2,356.0 385.8,356.0 399.5,355.0 413.2,343.6 426.8,333.3 440.5,332.1 454.2,331.8 467.8,333.4 481.5,334.7 495.2,334.6 508.8,334.5 522.5,335.5 536.2,335.4 549.8,337.6 563.5,336.7 577.2,339.1 590.8,341.7 604.5,342.3 618.2,345.9 631.8,355.8 645.5,356.0 659.2,356.0 672.8,356.0 686.5,356.0 700.2,356.0 713.8,356.0 727.5,356.0 741.2,356.0 754.8,356.0 768.5,356.0 782.2,356.0 795.8,356.0 809.5,349.1 823.2,332.7" fill="none" stroke="#e87ba4" stroke-width="1.5" stroke-linejoin="round" stroke-linecap="round"/>
<polyline points="16.8,301.0 30.5,304.0 44.2,305.2 57.8,302.7 71.5,301.8 85.2,298.1 98.8,297.6 112.5,292.0 126.2,283.3 139.8,273.4 153.5,267.0 167.2,266.5 180.8,272.1 194.5,274.2 208.2,280.8 221.8,289.0 235.5,299.2 249.2,307.0 262.8,309.6 276.5,308.3 290.2,309.7 303.8,310.6 317.5,313.6 331.2,314.8 344.8,316.0 358.5,318.2 372.2,320.5 385.8,320.6 399.5,320.8 413.2,320.3 426.8,321.5 440.5,320.5 454.2,316.2 467.8,310.5 481.5,305.9 495.2,302.5 508.8,302.0 522.5,297.9 536.2,298.4 549.8,302.8 563.5,304.0 577.2,301.6 590.8,297.3 604.5,292.8 618.2,286.5 631.8,270.3 645.5,242.9 659.2,216.1 672.8,188.5 686.5,168.7 700.2,147.0 713.8,143.0 727.5,148.7 741.2,165.2 754.8,185.4 768.5,208.9 782.2,226.3 795.8,236.3 809.5,230.9 823.2,227.9" fill="none" stroke="#4a3aa7" stroke-width="1.5" stroke-linejoin="round" stroke-linecap="round"/>
<rect x="13.1" y="300.8" width="7.5" height="3.5" fill="#008300"/>
<rect x="26.7" y="297.6" width="7.5" height="6.7" fill="none" stroke="#e34948" stroke-width="1.3"/>
<rect x="40.4" y="297.6" width="7.5" height="2.4" fill="#008300"/>
<rect x="54.1" y="299.3" width="7.5" height="1.2" fill="none" stroke="#e34948" stroke-width="1.3"/>
<rect x="67.7" y="299.3" width="7.5" height="1.2" fill="#008300"/>
<rect x="81.4" y="284.6" width="7.5" height="15.0" fill="none" stroke="#e34948" stroke-width="1.3"/>
<rect x="95.1" y="284.6" width="7.5" height="12.8" fill="#008300"/>
<rect x="108.7" y="265.2" width="7.5" height="32.2" fill="none" stroke="#e34948" stroke-width="1.3"/>
<rect x="122.4" y="236.9" width="7.5" height="28.3" fill="none" stroke="#e34948" stroke-width="1.3"/>
<rect x="136.1" y="231.0" width="7.5" height="5.9" fill="none" stroke="#e34948" stroke-width="1.3"/>
<rect x="149.7" y="231.0" width="7.5" height="23.1" fill="#008300"/>
<rect x="163.4" y="254.1" width="7.5" height="42.0" fill="#008300"/>
<rect x="177.1" y="296.1" width="7.5" height="28.2" fill="#008300"/>
<rect x="190.7" y="311.6" width="7.5" height="12.7" fill="none" stroke="#e34948" stroke-width="1.3"/>
<rect x="204.4" y="311.5" width="7.5" height="1.2" fill="none" stroke="#e34948" stroke-width="1.3"/>
<rect x="218.1" y="294.2" width="7.5" height="17.2" fill="none" stroke="#e34948" stroke-width="1.3"/>
<rect x="231.7" y="294.2" width="7.5" height="8.4" fill="#008300"/>
<rect x="245.4" y="302.7" width="7.5" height="6.1" fill="#008300"/>
<rect x="259.1" y="308.8" width="7.5" height="5.6" fill="#008300"/>
<rect x="272.7" y="314.3" width="7.5" height="1.2" fill="#008300"/>
<rect x="286.4" y="314.8" width="7.5" height="6.6" fill="#008300"/>
<rect x="300.1" y="318.0" width="7.5" height="3.4" fill="none" stroke="#e34948" stroke-width="1.3"/>
<rect x="313.7" y="315.3" width="7.5" height="2.7" fill="none" stroke="#e34948" stroke-width="1.3"/>
<rect x="327.4" y="310.6" width="7.5" height="4.7" fill="none" stroke="#e34948" stroke-width="1.3"/>
<rect x="341.1" y="310.6" width="7.5" height="6.7" fill="#008300"/>
<rect x="354.7" y="317.4" width="7.5" height="12.3" fill="#008300"/>
<rect x="368.4" y="329.7" width="7.5" height="1.3" fill="#008300"/>
<rect x="382.1" y="321.9" width="7.5" height="9.1" fill="none" stroke="#e34948" stroke-width="1.3"/>
<rect x="395.7" y="319.6" width="7.5" height="2.4" fill="none" stroke="#e34948" stroke-width="1.3"/>
<rect x="409.4" y="311.8" width="7.5" height="7.8" fill="none" stroke="#e34948" stroke-width="1.3"/>
<rect x="423.1" y="311.8" width="7.5" height="7.6" fill="#008300"/>
<rect x="436.7" y="310.3" width="7.5" height="9.1" fill="none" stroke="#e34948" stroke-width="1.3"/>
<rect x="450.4" y="299.5" width="7.5" height="10.8" fill="none" stroke="#e34948" stroke-width="1.3"/>
<rect x="464.1" y="291.0" width="7.5" height="8.4" fill="none" stroke="#e34948" stroke-width="1.3"/>
<rect x="477.7" y="289.9" width="7.5" height="1.2" fill="none" stroke="#e34948" stroke-width="1.3"/>
<rect x="491.4" y="289.9" width="7.5" height="6.1" fill="#008300"/>
<rect x="505.1" y="295.9" width="7.5" height="11.8" fill="#008300"/>
<rect x="518.7" y="291.0" width="7.5" height="16.7" fill="none" stroke="#e34948" stroke-width="1.3"/>
<rect x="532.4" y="291.0" width="7.5" height="22.4" fill="#008300"/>
<rect x="546.1" y="313.5" width="7.5" height="17.0" fill="#008300"/>
<rect x="559.7" y="299.1" width="7.5" height="31.4" fill="none" stroke="#e34948" stroke-width="1.3"/>
<rect x="573.4" y="273.2" width="7.5" height="26.0" fill="none" stroke="#e34948" stroke-width="1.3"/>
<rect x="587.1" y="266.2" width="7.5" height="6.9" fill="none" stroke="#e34948" stroke-width="1.3"/>
<rect x="600.7" y="266.2" width="7.5" height="10.0" fill="#008300"/>
<rect x="614.4" y="247.0" width="7.5" height="29.2" fill="none" stroke="#e34948" stroke-width="1.3"/>
<rect x="628.1" y="199.8" width="7.5" height="47.2" fill="none" stroke="#e34948" stroke-width="1.3"/>
<rect x="641.7" y="138.7" width="7.5" height="61.1" fill="none" stroke="#e34948" stroke-width="1.3"/>
<rect x="655.4" y="111.7" width="7.5" height="27.0" fill="none" stroke="#e34948" stroke-width="1.3"/>
<rect x="669.1" y="79.8" width="7.5" height="31.9" fill="none" stroke="#e34948" stroke-width="1.3"/>
<rect x="682.7" y="79.8" width="7.5" height="48.1" fill="#008300"/>
<rect x="696.4" y="124.0" width="7.5" height="3.9" fill="none" stroke="#e34948" stroke-width="1.3"/>
<rect x="710.1" y="124.0" width="7.5" height="95.0" fill="#008300"/>
<rect x="723.7" y="219.0" width="7.5" height="20.9" fill="#008300"/>
<rect x="737.4" y="239.9" width="7.5" height="13.8" fill="#008300"/>
<rect x="751.1" y="253.6" width="7.5" height="1.2" fill="none" stroke="#e34948" stroke-width="1.3"/>
<rect x="764.7" y="244.5" width="7.5" height="9.1" fill="none" stroke="#e34948" stroke-width="1.3"/>
<rect x="778.4" y="244.5" width="7.5" height="4.9" fill="#008300"/>
<rect x="792.1" y="194.0" width="7.5" height="55.3" fill="none" stroke="#e34948" stroke-width="1.3"/>
<rect x="805.7" y="181.4" width="7.5" height="12.7" fill="none" stroke="#e34948" stroke-width="1.3"/>
<rect x="819.4" y="181.4" width="7.5" height="37.3" fill="#008300"/>
<circle cx="672.8" cy="79.8" r="2" fill="#52514e"/>
<line x1="672.8" y1="79.8" x2="664.8" y2="79.8" stroke="#52514e" stroke-width="1.0"/>
<text x="661.8" y="83.8" font-size="11.0" fill="#52514e" text-anchor="end">1,637</text>
<circle cx="372.2" cy="331.0" r="2" fill="#52514e"/>
<line x1="372.2" y1="331.0" x2="380.2" y2="331.0" stroke="#52514e" stroke-width="1.0"/>
<text x="383.2" y="335.0" font-size="11.0" fill="#52514e">148</text>
<text x="14.0" y="376.0" font-size="11.0" fill="#52514e">VOL 126 forks</text>
<text x="102.7" y="376.0" font-size="11.0" fill="#eda100">MA5:126.8</text>
<text x="167.1" y="376.0" font-size="11.0" fill="#2a78d6">MA10:114.9</text>
<text x="14.0" y="395.0" font-size="10" fill="#898781">200</text>
<rect x="13.1" y="450.3" width="7.5" height="19.7" fill="#008300"/>
<rect x="26.7" y="451.6" width="7.5" height="18.4" fill="none" stroke="#e34948" stroke-width="1.1"/>
<rect x="40.4" y="458.1" width="7.5" height="11.9" fill="#008300"/>
<rect x="54.1" y="455.2" width="7.5" height="14.8" fill="none" stroke="#e34948" stroke-width="1.1"/>
<rect x="67.7" y="449.5" width="7.5" height="20.5" fill="#008300"/>
<rect x="81.4" y="438.8" width="7.5" height="31.2" fill="none" stroke="#e34948" stroke-width="1.1"/>
<rect x="95.1" y="449.9" width="7.5" height="20.1" fill="#008300"/>
<rect x="108.7" y="440.5" width="7.5" height="29.5" fill="none" stroke="#e34948" stroke-width="1.1"/>
<rect x="122.4" y="429.4" width="7.5" height="40.6" fill="none" stroke="#e34948" stroke-width="1.1"/>
<rect x="136.1" y="435.1" width="7.5" height="34.9" fill="none" stroke="#e34948" stroke-width="1.1"/>
<rect x="149.7" y="448.7" width="7.5" height="21.3" fill="#008300"/>
<rect x="163.4" y="451.1" width="7.5" height="18.9" fill="#008300"/>
<rect x="177.1" y="458.1" width="7.5" height="11.9" fill="#008300"/>
<rect x="190.7" y="457.3" width="7.5" height="12.7" fill="none" stroke="#e34948" stroke-width="1.1"/>
<rect x="204.4" y="451.6" width="7.5" height="18.4" fill="none" stroke="#e34948" stroke-width="1.1"/>
<rect x="218.1" y="457.3" width="7.5" height="12.7" fill="none" stroke="#e34948" stroke-width="1.1"/>
<rect x="231.7" y="455.6" width="7.5" height="14.4" fill="#008300"/>
<rect x="245.4" y="452.0" width="7.5" height="18.0" fill="#008300"/>
<rect x="259.1" y="455.2" width="7.5" height="14.8" fill="#008300"/>
<rect x="272.7" y="454.0" width="7.5" height="16.0" fill="#008300"/>
<rect x="286.4" y="455.2" width="7.5" height="14.8" fill="#008300"/>
<rect x="300.1" y="458.9" width="7.5" height="11.1" fill="none" stroke="#e34948" stroke-width="1.1"/>
<rect x="313.7" y="459.3" width="7.5" height="10.7" fill="none" stroke="#e34948" stroke-width="1.1"/>
<rect x="327.4" y="457.7" width="7.5" height="12.3" fill="none" stroke="#e34948" stroke-width="1.1"/>
<rect x="341.1" y="454.0" width="7.5" height="16.0" fill="#008300"/>
<rect x="354.7" y="465.1" width="7.5" height="4.9" fill="#008300"/>
<rect x="368.4" y="461.0" width="7.5" height="9.0" fill="#008300"/>
<rect x="382.1" y="460.2" width="7.5" height="9.8" fill="none" stroke="#e34948" stroke-width="1.1"/>
<rect x="395.7" y="459.3" width="7.5" height="10.7" fill="none" stroke="#e34948" stroke-width="1.1"/>
<rect x="409.4" y="454.4" width="7.5" height="15.6" fill="none" stroke="#e34948" stroke-width="1.1"/>
<rect x="423.1" y="460.2" width="7.5" height="9.8" fill="#008300"/>
<rect x="436.7" y="452.4" width="7.5" height="17.6" fill="none" stroke="#e34948" stroke-width="1.1"/>
<rect x="450.4" y="454.8" width="7.5" height="15.2" fill="none" stroke="#e34948" stroke-width="1.1"/>
<rect x="464.1" y="451.6" width="7.5" height="18.4" fill="none" stroke="#e34948" stroke-width="1.1"/>
<rect x="477.7" y="462.6" width="7.5" height="7.4" fill="none" stroke="#e34948" stroke-width="1.1"/>
<rect x="491.4" y="451.1" width="7.5" height="18.9" fill="#008300"/>
<rect x="505.1" y="458.5" width="7.5" height="11.5" fill="#008300"/>
<rect x="518.7" y="451.6" width="7.5" height="18.4" fill="none" stroke="#e34948" stroke-width="1.1"/>
<rect x="532.4" y="452.4" width="7.5" height="17.6" fill="#008300"/>
<rect x="546.1" y="458.9" width="7.5" height="11.1" fill="#008300"/>
<rect x="559.7" y="454.4" width="7.5" height="15.6" fill="none" stroke="#e34948" stroke-width="1.1"/>
<rect x="573.4" y="447.9" width="7.5" height="22.1" fill="none" stroke="#e34948" stroke-width="1.1"/>
<rect x="587.1" y="445.4" width="7.5" height="24.6" fill="none" stroke="#e34948" stroke-width="1.1"/>
<rect x="600.7" y="454.4" width="7.5" height="15.6" fill="#008300"/>
<rect x="614.4" y="442.9" width="7.5" height="27.1" fill="none" stroke="#e34948" stroke-width="1.1"/>
<rect x="628.1" y="420.8" width="7.5" height="49.2" fill="none" stroke="#e34948" stroke-width="1.1"/>
<rect x="641.7" y="388.0" width="7.5" height="82.0" fill="none" stroke="#e34948" stroke-width="1.1"/>
<rect x="655.4" y="408.1" width="7.5" height="61.9" fill="none" stroke="#e34948" stroke-width="1.1"/>
<rect x="669.1" y="389.6" width="7.5" height="80.4" fill="none" stroke="#e34948" stroke-width="1.1"/>
<rect x="682.7" y="411.8" width="7.5" height="58.2" fill="#008300"/>
<rect x="696.4" y="405.6" width="7.5" height="64.4" fill="none" stroke="#e34948" stroke-width="1.1"/>
<rect x="710.1" y="424.9" width="7.5" height="45.1" fill="#008300"/>
<rect x="723.7" y="438.0" width="7.5" height="32.0" fill="#008300"/>
<rect x="737.4" y="435.6" width="7.5" height="34.4" fill="#008300"/>
<rect x="751.1" y="434.7" width="7.5" height="35.3" fill="none" stroke="#e34948" stroke-width="1.1"/>
<rect x="764.7" y="437.2" width="7.5" height="32.8" fill="none" stroke="#e34948" stroke-width="1.1"/>
<rect x="778.4" y="428.2" width="7.5" height="41.8" fill="#008300"/>
<rect x="792.1" y="410.1" width="7.5" height="59.9" fill="none" stroke="#e34948" stroke-width="1.1"/>
<rect x="805.7" y="396.2" width="7.5" height="73.8" fill="none" stroke="#e34948" stroke-width="1.1"/>
<rect x="819.4" y="418.3" width="7.5" height="51.7" fill="#008300"/>
<polyline points="16.8,454.1 30.5,454.5 44.2,454.9 57.8,454.5 71.5,453.8 85.2,452.9 98.8,450.9 112.5,449.7 126.2,447.2 139.8,445.9 153.5,445.7 167.2,445.6 180.8,445.6 194.5,445.9 208.2,446.1 221.8,447.9 235.5,448.5 249.2,449.6 262.8,452.2 276.5,454.1 290.2,454.7 303.8,455.5 317.5,455.6 331.2,455.7 344.8,455.9 358.5,456.7 372.2,457.2 385.8,458.1 399.5,458.5 413.2,458.5 426.8,459.0 440.5,458.4 454.2,457.9 467.8,457.3 481.5,458.2 495.2,456.8 508.8,456.5 522.5,455.6 536.2,455.0 549.8,455.4 563.5,454.8 577.2,454.4 590.8,453.4 604.5,453.7 618.2,451.8 631.8,448.7 645.5,441.7 659.2,437.3 672.8,431.1 686.5,426.3 700.2,421.5 713.8,419.2 727.5,418.4 741.2,416.5 754.8,415.7 768.5,417.4 782.2,421.4 795.8,421.6 809.5,422.2 823.2,422.9" fill="none" stroke="#2a78d6" stroke-width="1.5" stroke-linejoin="round" stroke-linecap="round"/>
<polyline points="16.8,455.1 30.5,451.4 44.2,452.6 57.8,452.7 71.5,452.9 85.2,450.6 98.8,450.3 112.5,446.8 126.2,441.6 139.8,438.8 153.5,440.7 167.2,441.0 180.8,444.5 194.5,450.1 208.2,453.4 221.8,455.1 235.5,456.0 249.2,454.7 262.8,454.3 276.5,454.8 290.2,454.4 303.8,455.1 317.5,456.6 331.2,457.0 344.8,457.0 358.5,459.0 372.2,459.4 385.8,459.6 399.5,459.9 413.2,460.0 426.8,459.0 440.5,457.3 454.2,456.2 467.8,454.7 481.5,456.3 495.2,454.5 508.8,455.7 522.5,455.1 536.2,455.2 549.8,454.5 563.5,455.2 577.2,453.0 590.8,451.8 604.5,452.2 618.2,449.0 631.8,442.3 645.5,430.3 659.2,422.9 672.8,409.9 686.5,403.7 700.2,400.6 713.8,408.0 727.5,414.0 741.2,423.2 754.8,427.8 768.5,434.1 782.2,434.7 795.8,429.2 809.5,421.3 823.2,418.0" fill="none" stroke="#eda100" stroke-width="1.5" stroke-linejoin="round" stroke-linecap="round"/>
</svg>