<svg xmlns="http://www.w3.org/2000/svg" viewBox="0 0 840 496" width="840" height="496" font-family="-apple-system,&#39;Segoe UI&#39;,system-ui,sans-serif" role="img" aria-label="affaan-m/ECC candlestick chart">
<text x="14.0" y="20.0" font-size="15" fill="#0b0b0b" font-weight="650">affaan-m/ECC</text>
<text x="117.0" y="20.0" font-size="11.5" fill="#52514e">daily · new stars, volume = new forks</text>
<text x="805.8" y="20.0" font-size="11.0" fill="#52514e">fall</text>
<rect x="791" y="10" width="9" height="12" fill="#008300"/>
<text x="750.6" y="20.0" font-size="11.0" fill="#52514e">rise</text>
<rect x="736" y="10" width="9" height="12" fill="none" stroke="#e34948" stroke-width="1.5"/>
<text x="14.0" y="38.0" font-size="11.0" fill="#898781">last 25 days · +9,910 stars · +1,527 forks · updated 2026-07-20</text>
<rect x="10" y="66" width="820" height="290" fill="none" stroke="#e1e0d9"/>
<rect x="10" y="384" width="820" height="86" fill="none" stroke="#e1e0d9"/>
<text x="38.0" y="490.0" font-size="11.0" fill="#898781" text-anchor="middle">2026-06</text>
<line x1="174.0" y1="66.0" x2="174.0" y2="356.0" stroke="#e1e0d9" stroke-width="1.0"/>
<line x1="174.0" y1="384.0" x2="174.0" y2="470.0" stroke="#e1e0d9" stroke-width="1.0"/>
<text x="190.4" y="490.0" font-size="11.0" fill="#898781" text-anchor="middle">2026-07</text>
<text x="14.0" y="58.0" font-size="11.0" fill="#52514e">BOLL(20,2)</text>
<text x="84.5" y="58.0" font-size="11.0" fill="#eda100">UP:586.2</text>
<text x="142.9" y="58.0" font-size="11.0" fill="#2a78d6">MID:370.7</text>
<text x="207.4" y="58.0" font-size="11.0" fill="#e87ba4">LOW:155.2</text>
<text x="271.8" y="58.0" font-size="11.0" fill="#4a3aa7">MA7:328.9</text>
<line x1="10.0" y1="356.0" x2="830.0" y2="356.0" stroke="#e1e0d9" stroke-width="1.0"/>
<text x="14.0" y="353.0" font-size="11.0" fill="#898781">0</text>
<line x1="10.0" y1="270.1" x2="830.0" y2="270.1" stroke="#e1e0d9" stroke-width="1.0"/>
<text x="14.0" y="267.1" font-size="11.0" fill="#898781">200</text>
<line x1="10.0" y1="184.3" x2="830.0" y2="184.3" stroke="#e1e0d9" stroke-width="1.0"/>
<text x="14.0" y="181.3" font-size="11.0" fill="#898781">400</text>
<line x1="10.0" y1="98.4" x2="830.0" y2="98.4" stroke="#e1e0d9" stroke-width="1.0"/>
<text x="14.0" y="95.4" font-size="11.0" fill="#898781">600</text>
<polyline points="649.6,79.8 682.4,81.6 715.2,81.7 748.0,83.4 780.8,87.0 813.6,104.4" fill="none" stroke="#eda100" stroke-width="1.5" stroke-linejoin="round" stroke-linecap="round"/>
<polyline points="649.6,175.6 682.4,177.3 715.2,182.5 748.0,185.8 780.8,190.5 813.6,196.9" fill="none" stroke="#2a78d6" stroke-width="1.5" stroke-linejoin="round" stroke-linecap="round"/>
<polyline points="649.6,271.5 682.4,273.0 715.2,283.3 748.0,288.1 780.8,294.0 813.6,289.4" fill="none" stroke="#e87ba4" stroke-width="1.5" stroke-linejoin="round" stroke-linecap="round"/>
<polyline points="223.2,132.7 256.0,126.8 288.8,133.3 321.6,141.2 354.4,147.9 387.2,177.9 420.0,193.3 452.8,205.2 485.6,211.6 518.4,211.7 551.2,210.1 584.0,212.2 616.8,200.5 649.6,192.8 682.4,191.4 715.2,204.8 748.0,209.1 780.8,214.0 813.6,214.8" fill="none" stroke="#4a3aa7" stroke-width="1.5" stroke-linejoin="round" stroke-linecap="round"/>
<rect x="17.4" y="157.7" width="18.0" height="198.3" fill="none" stroke="#e34948" stroke-width="1.3"/>
<rect x="50.2" y="152.5" width="18.0" height="5.2" fill="none" stroke="#e34948" stroke-width="1.3"/>
<rect x="83.0" y="152.5" width="18.0" height="10.7" fill="#008300"/>
<rect x="115.8" y="147.4" width="18.0" height="15.9" fill="none" stroke="#e34948" stroke-width="1.3"/>
<rect x="148.6" y="87.7" width="18.0" height="59.7" fill="none" stroke="#e34948" stroke-width="1.3"/>
<rect x="181.4" y="87.7" width="18.0" height="14.6" fill="#008300"/>
<rect x="214.2" y="102.3" width="18.0" height="15.5" fill="#008300"/>
<rect x="247.0" y="116.9" width="18.0" height="1.2" fill="none" stroke="#e34948" stroke-width="1.3"/>
<rect x="279.8" y="116.9" width="18.0" height="80.7" fill="#008300"/>
<rect x="312.6" y="197.6" width="18.0" height="21.5" fill="#008300"/>
<rect x="345.4" y="194.2" width="18.0" height="24.9" fill="none" stroke="#e34948" stroke-width="1.3"/>
<rect x="378.2" y="194.2" width="18.0" height="103.5" fill="#008300"/>
<rect x="411.0" y="209.6" width="18.0" height="88.0" fill="none" stroke="#e34948" stroke-width="1.3"/>
<rect x="443.8" y="201.0" width="18.0" height="8.6" fill="none" stroke="#e34948" stroke-width="1.3"/>
<rect x="476.6" y="162.4" width="18.0" height="38.6" fill="none" stroke="#e34948" stroke-width="1.3"/>
<rect x="509.4" y="162.4" width="18.0" height="35.6" fill="#008300"/>
<rect x="542.2" y="198.0" width="18.0" height="9.4" fill="#008300"/>
<rect x="575.0" y="207.5" width="18.0" height="2.1" fill="#008300"/>
<rect x="607.8" y="209.6" width="18.0" height="5.6" fill="#008300"/>
<rect x="640.6" y="155.5" width="18.0" height="59.7" fill="none" stroke="#e34948" stroke-width="1.3"/>
<rect x="673.4" y="155.5" width="18.0" height="36.1" fill="#008300"/>
<rect x="706.2" y="191.6" width="18.0" height="64.4" fill="#008300"/>
<rect x="739.0" y="228.5" width="18.0" height="27.5" fill="none" stroke="#e34948" stroke-width="1.3"/>
<rect x="771.8" y="228.5" width="18.0" height="12.9" fill="#008300"/>
<rect x="804.6" y="215.6" width="18.0" height="25.8" fill="none" stroke="#e34948" stroke-width="1.3"/>
<circle cx="157.6" cy="87.7" r="2" fill="#52514e"/>
<line x1="157.6" y1="87.7" x2="165.6" y2="87.7" stroke="#52514e" stroke-width="1.0"/>
<text x="168.6" y="91.7" font-size="11.0" fill="#52514e">625</text>
<circle cx="26.4" cy="356.0" r="2" fill="#52514e"/>
<line x1="26.4" y1="356.0" x2="34.4" y2="356.0" stroke="#52514e" stroke-width="1.0"/>
<text x="37.4" y="350.0" font-size="11.0" fill="#52514e">0</text>
<text x="14.0" y="376.0" font-size="11.0" fill="#52514e">VOL 53 forks</text>
<text x="96.6" y="376.0" font-size="11.0" fill="#eda100">MA5:37.2</text>
<text x="155.0" y="376.0" font-size="11.0" fill="#2a78d6">MA10:49.3</text>
<text x="14.0" y="395.0" font-size="10" fill="#898781">154</text>
<rect x="17.4" y="425.8" width="18.0" height="44.2" fill="none" stroke="#e34948" stroke-width="1.1"/>
<rect x="50.2" y="432.2" width="18.0" height="37.8" fill="none" stroke="#e34948" stroke-width="1.1"/>
<rect x="83.0" y="425.8" width="18.0" height="44.2" fill="#008300"/>
<rect x="115.8" y="432.7" width="18.0" height="37.3" fill="none" stroke="#e34948" stroke-width="1.1"/>
<rect x="148.6" y="422.6" width="18.0" height="47.4" fill="none" stroke="#e34948" stroke-width="1.1"/>
<rect x="181.4" y="422.6" width="18.0" height="47.4" fill="#008300"/>
<rect x="214.2" y="424.2" width="18.0" height="45.8" fill="#008300"/>
<rect x="247.0" y="431.1" width="18.0" height="38.9" fill="none" stroke="#e34948" stroke-width="1.1"/>
<rect x="279.8" y="433.8" width="18.0" height="36.2" fill="#008300"/>
<rect x="312.6" y="439.6" width="18.0" height="30.4" fill="#008300"/>
<rect x="345.4" y="437.0" width="18.0" height="33.0" fill="none" stroke="#e34948" stroke-width="1.1"/>
<rect x="378.2" y="459.9" width="18.0" height="10.1" fill="#008300"/>
<rect x="411.0" y="444.4" width="18.0" height="25.6" fill="none" stroke="#e34948" stroke-width="1.1"/>
<rect x="443.8" y="451.4" width="18.0" height="18.6" fill="none" stroke="#e34948" stroke-width="1.1"/>
<rect x="476.6" y="416.2" width="18.0" height="53.8" fill="none" stroke="#e34948" stroke-width="1.1"/>
<rect x="509.4" y="388.0" width="18.0" height="82.0" fill="#008300"/>
<rect x="542.2" y="440.7" width="18.0" height="29.3" fill="#008300"/>
<rect x="575.0" y="449.8" width="18.0" height="20.2" fill="#008300"/>
<rect x="607.8" y="456.7" width="18.0" height="13.3" fill="#008300"/>
<rect x="640.6" y="451.4" width="18.0" height="18.6" fill="none" stroke="#e34948" stroke-width="1.1"/>
<rect x="673.4" y="442.3" width="18.0" height="27.7" fill="#008300"/>
<rect x="739.0" y="446.6" width="18.0" height="23.4" fill="none" stroke="#e34948" stroke-width="1.1"/>
<rect x="771.8" y="450.3" width="18.0" height="19.7" fill="#008300"/>
<rect x="804.6" y="441.8" width="18.0" height="28.2" fill="none" stroke="#e34948" stroke-width="1.1"/>
<polyline points="321.6,429.1 354.4,430.2 387.2,432.9 420.0,434.8 452.8,436.7 485.6,436.0 518.4,432.6 551.2,434.2 584.0,436.1 616.8,438.4 649.6,439.5 682.4,440.1 715.2,441.1 748.0,441.3 780.8,441.2 813.6,443.7" fill="none" stroke="#2a78d6" stroke-width="1.5" stroke-linejoin="round" stroke-linecap="round"/>
<polyline points="157.6,427.8 190.4,427.2 223.2,425.6 256.0,426.7 288.8,426.9 321.6,430.3 354.4,433.2 387.2,440.3 420.0,443.0 452.8,446.5 485.6,441.8 518.4,432.0 551.2,428.1 584.0,429.2 616.8,430.3 649.6,437.3 682.4,448.2 715.2,454.0 748.0,453.4 780.8,452.1 813.6,450.2" fill="none" stroke="#eda100" stroke-width="1.5" stroke-linejoin="round" stroke-linecap="round"/>
</svg>