<svg xmlns="http://www.w3.org/2000/svg" viewBox="0 0 840 496" width="840" height="496" font-family="-apple-system,&#39;Segoe UI&#39;,system-ui,sans-serif" role="img" aria-label="affaan-m/ECC candlestick chart">
<text x="14.0" y="20.0" font-size="15" fill="#0b0b0b" font-weight="650">affaan-m/ECC</text>
<text x="117.0" y="20.0" font-size="11.5" fill="#52514e">daily · new stars, volume = new forks</text>
<text x="805.8" y="20.0" font-size="11.0" fill="#52514e">fall</text>
<rect x="791" y="10" width="9" height="12" fill="#008300"/>
<text x="750.6" y="20.0" font-size="11.0" fill="#52514e">rise</text>
<rect x="736" y="10" width="9" height="12" fill="none" stroke="#e34948" stroke-width="1.5"/>
<text x="14.0" y="38.0" font-size="11.0" fill="#898781">last 22 days · +9,019 stars · +1,393 forks · updated 2026-07-17</text>
<rect x="10" y="66" width="820" height="290" fill="none" stroke="#e1e0d9"/>
<rect x="10" y="384" width="820" height="86" fill="none" stroke="#e1e0d9"/>
<text x="38.0" y="490.0" font-size="11.0" fill="#898781" text-anchor="middle">2026-06</text>
<line x1="196.4" y1="66.0" x2="196.4" y2="356.0" stroke="#e1e0d9" stroke-width="1.0"/>
<line x1="196.4" y1="384.0" x2="196.4" y2="470.0" stroke="#e1e0d9" stroke-width="1.0"/>
<text x="215.0" y="490.0" font-size="11.0" fill="#898781" text-anchor="middle">2026-07</text>
<text x="14.0" y="58.0" font-size="11.0" fill="#52514e">BOLL(20,2)</text>
<text x="84.5" y="58.0" font-size="11.0" fill="#eda100">UP:639.0</text>
<text x="142.9" y="58.0" font-size="11.0" fill="#2a78d6">MID:404.1</text>
<text x="207.4" y="58.0" font-size="11.0" fill="#e87ba4">LOW:169.3</text>
<text x="271.8" y="58.0" font-size="11.0" fill="#4a3aa7">MA7:352.3</text>
<line x1="10.0" y1="356.0" x2="830.0" y2="356.0" stroke="#e1e0d9" stroke-width="1.0"/>
<text x="14.0" y="353.0" font-size="11.0" fill="#898781">0</text>
<line x1="10.0" y1="270.1" x2="830.0" y2="270.1" stroke="#e1e0d9" stroke-width="1.0"/>
<text x="14.0" y="267.1" font-size="11.0" fill="#898781">200</text>
<line x1="10.0" y1="184.3" x2="830.0" y2="184.3" stroke="#e1e0d9" stroke-width="1.0"/>
<text x="14.0" y="181.3" font-size="11.0" fill="#898781">400</text>
<line x1="10.0" y1="98.4" x2="830.0" y2="98.4" stroke="#e1e0d9" stroke-width="1.0"/>
<text x="14.0" y="95.4" font-size="11.0" fill="#898781">600</text>
<polyline points="736.8,79.8 774.1,81.6 811.4,81.7" fill="none" stroke="#eda100" stroke-width="1.5" stroke-linejoin="round" stroke-linecap="round"/>
<polyline points="736.8,175.6 774.1,177.3 811.4,182.5" fill="none" stroke="#2a78d6" stroke-width="1.5" stroke-linejoin="round" stroke-linecap="round"/>
<polyline points="736.8,271.5 774.1,273.0 811.4,283.3" fill="none" stroke="#e87ba4" stroke-width="1.5" stroke-linejoin="round" stroke-linecap="round"/>
<polyline points="252.3,132.7 289.5,126.8 326.8,133.3 364.1,141.2 401.4,147.9 438.6,177.9 475.9,193.3 513.2,205.2 550.5,211.6 587.7,211.7 625.0,210.1 662.3,212.2 699.5,200.5 736.8,192.8 774.1,191.4 811.4,204.8" fill="none" stroke="#4a3aa7" stroke-width="1.5" stroke-linejoin="round" stroke-linecap="round"/>
<rect x="18.4" y="157.7" width="20.5" height="198.3" fill="none" stroke="#e34948" stroke-width="1.3"/>
<rect x="55.7" y="152.5" width="20.5" height="5.2" fill="none" stroke="#e34948" stroke-width="1.3"/>
<rect x="92.9" y="152.5" width="20.5" height="10.7" fill="#008300"/>
<rect x="130.2" y="147.4" width="20.5" height="15.9" fill="none" stroke="#e34948" stroke-width="1.3"/>
<rect x="167.5" y="87.7" width="20.5" height="59.7" fill="none" stroke="#e34948" stroke-width="1.3"/>
<rect x="204.8" y="87.7" width="20.5" height="14.6" fill="#008300"/>
<rect x="242.0" y="102.3" width="20.5" height="15.5" fill="#008300"/>
<rect x="279.3" y="116.9" width="20.5" height="1.2" fill="none" stroke="#e34948" stroke-width="1.3"/>
<rect x="316.6" y="116.9" width="20.5" height="80.7" fill="#008300"/>
<rect x="353.8" y="197.6" width="20.5" height="21.5" fill="#008300"/>
<rect x="391.1" y="194.2" width="20.5" height="24.9" fill="none" stroke="#e34948" stroke-width="1.3"/>
<rect x="428.4" y="194.2" width="20.5" height="103.5" fill="#008300"/>
<rect x="465.7" y="209.6" width="20.5" height="88.0" fill="none" stroke="#e34948" stroke-width="1.3"/>
<rect x="502.9" y="201.0" width="20.5" height="8.6" fill="none" stroke="#e34948" stroke-width="1.3"/>
<rect x="540.2" y="162.4" width="20.5" height="38.6" fill="none" stroke="#e34948" stroke-width="1.3"/>
<rect x="577.5" y="162.4" width="20.5" height="35.6" fill="#008300"/>
<rect x="614.8" y="198.0" width="20.5" height="9.4" fill="#008300"/>
<rect x="652.0" y="207.5" width="20.5" height="2.1" fill="#008300"/>
<rect x="689.3" y="209.6" width="20.5" height="5.6" fill="#008300"/>
<rect x="726.6" y="155.5" width="20.5" height="59.7" fill="none" stroke="#e34948" stroke-width="1.3"/>
<rect x="763.8" y="155.5" width="20.5" height="36.1" fill="#008300"/>
<rect x="801.1" y="191.6" width="20.5" height="64.4" fill="#008300"/>
<circle cx="177.7" cy="87.7" r="2" fill="#52514e"/>
<line x1="177.7" y1="87.7" x2="185.7" y2="87.7" stroke="#52514e" stroke-width="1.0"/>
<text x="188.7" y="91.7" font-size="11.0" fill="#52514e">625</text>
<circle cx="28.6" cy="356.0" r="2" fill="#52514e"/>
<line x1="28.6" y1="356.0" x2="36.6" y2="356.0" stroke="#52514e" stroke-width="1.0"/>
<text x="39.6" y="350.0" font-size="11.0" fill="#52514e">0</text>
<text x="14.0" y="376.0" font-size="11.0" fill="#52514e">VOL 0 forks</text>
<text x="90.6" y="376.0" font-size="11.0" fill="#eda100">MA5:30</text>
<text x="136.9" y="376.0" font-size="11.0" fill="#2a78d6">MA10:54.3</text>
<text x="14.0" y="395.0" font-size="10" fill="#898781">154</text>
<rect x="18.4" y="425.8" width="20.5" height="44.2" fill="none" stroke="#e34948" stroke-width="1.1"/>
<rect x="55.7" y="432.2" width="20.5" height="37.8" fill="none" stroke="#e34948" stroke-width="1.1"/>
<rect x="92.9" y="425.8" width="20.5" height="44.2" fill="#008300"/>
<rect x="130.2" y="432.7" width="20.5" height="37.3" fill="none" stroke="#e34948" stroke-width="1.1"/>
<rect x="167.5" y="422.6" width="20.5" height="47.4" fill="none" stroke="#e34948" stroke-width="1.1"/>
<rect x="204.8" y="422.6" width="20.5" height="47.4" fill="#008300"/>
<rect x="242.0" y="424.2" width="20.5" height="45.8" fill="#008300"/>
<rect x="279.3" y="431.1" width="20.5" height="38.9" fill="none" stroke="#e34948" stroke-width="1.1"/>
<rect x="316.6" y="433.8" width="20.5" height="36.2" fill="#008300"/>
<rect x="353.8" y="439.6" width="20.5" height="30.4" fill="#008300"/>
<rect x="391.1" y="437.0" width="20.5" height="33.0" fill="none" stroke="#e34948" stroke-width="1.1"/>
<rect x="428.4" y="459.9" width="20.5" height="10.1" fill="#008300"/>
<rect x="465.7" y="444.4" width="20.5" height="25.6" fill="none" stroke="#e34948" stroke-width="1.1"/>
<rect x="502.9" y="451.4" width="20.5" height="18.6" fill="none" stroke="#e34948" stroke-width="1.1"/>
<rect x="540.2" y="416.2" width="20.5" height="53.8" fill="none" stroke="#e34948" stroke-width="1.1"/>
<rect x="577.5" y="388.0" width="20.5" height="82.0" fill="#008300"/>
<rect x="614.8" y="440.7" width="20.5" height="29.3" fill="#008300"/>
<rect x="652.0" y="449.8" width="20.5" height="20.2" fill="#008300"/>
<rect x="689.3" y="456.7" width="20.5" height="13.3" fill="#008300"/>
<rect x="726.6" y="451.4" width="20.5" height="18.6" fill="none" stroke="#e34948" stroke-width="1.1"/>
<rect x="763.8" y="442.3" width="20.5" height="27.7" fill="#008300"/>
<polyline points="364.1,429.1 401.4,430.2 438.6,432.9 475.9,434.8 513.2,436.7 550.5,436.0 587.7,432.6 625.0,434.2 662.3,436.1 699.5,438.4 736.8,439.5 774.1,440.1 811.4,441.1" fill="none" stroke="#2a78d6" stroke-width="1.5" stroke-linejoin="round" stroke-linecap="round"/>
<polyline points="177.7,427.8 215.0,427.2 252.3,425.6 289.5,426.7 326.8,426.9 364.1,430.3 401.4,433.2 438.6,440.3 475.9,443.0 513.2,446.5 550.5,441.8 587.7,432.0 625.0,428.1 662.3,429.2 699.5,430.3 736.8,437.3 774.1,448.2 811.4,454.0" fill="none" stroke="#eda100" stroke-width="1.5" stroke-linejoin="round" stroke-linecap="round"/>
</svg>