<svg xmlns="http://www.w3.org/2000/svg" viewBox="0 0 840 496" width="840" height="496" font-family="-apple-system,&#39;Segoe UI&#39;,system-ui,sans-serif" role="img" aria-label="affaan-m/ECC candlestick chart">
<text x="14.0" y="20.0" font-size="15" fill="#0b0b0b" font-weight="650">affaan-m/ECC</text>
<text x="117.0" y="20.0" font-size="11.5" fill="#52514e">daily · new stars, volume = new forks</text>
<text x="805.8" y="20.0" font-size="11.0" fill="#52514e">fall</text>
<rect x="791" y="10" width="9" height="12" fill="#008300"/>
<text x="750.6" y="20.0" font-size="11.0" fill="#52514e">rise</text>
<rect x="736" y="10" width="9" height="12" fill="none" stroke="#e34948" stroke-width="1.5"/>
<text x="14.0" y="38.0" font-size="11.0" fill="#898781">last 16 days · +6,921 stars · +1,188 forks · updated 2026-07-11</text>
<rect x="10" y="66" width="820" height="290" fill="none" stroke="#e1e0d9"/>
<rect x="10" y="384" width="820" height="86" fill="none" stroke="#e1e0d9"/>
<text x="38.0" y="490.0" font-size="11.0" fill="#898781" text-anchor="middle">2026-06</text>
<line x1="266.2" y1="66.0" x2="266.2" y2="356.0" stroke="#e1e0d9" stroke-width="1.0"/>
<line x1="266.2" y1="384.0" x2="266.2" y2="470.0" stroke="#e1e0d9" stroke-width="1.0"/>
<text x="291.9" y="490.0" font-size="11.0" fill="#898781" text-anchor="middle">2026-07</text>
<text x="14.0" y="58.0" font-size="11.0" fill="#52514e">BOLL(20,2)</text>
<text x="84.5" y="58.0" font-size="11.0" fill="#eda100">UP:—</text>
<text x="118.7" y="58.0" font-size="11.0" fill="#2a78d6">MID:—</text>
<text x="158.9" y="58.0" font-size="11.0" fill="#e87ba4">LOW:—</text>
<text x="199.2" y="58.0" font-size="11.0" fill="#4a3aa7">MA7:336.1</text>
<line x1="10.0" y1="356.0" x2="830.0" y2="356.0" stroke="#e1e0d9" stroke-width="1.0"/>
<text x="14.0" y="353.0" font-size="11.0" fill="#898781">0</text>
<line x1="10.0" y1="267.6" x2="830.0" y2="267.6" stroke="#e1e0d9" stroke-width="1.0"/>
<text x="14.0" y="264.6" font-size="11.0" fill="#898781">200</text>
<line x1="10.0" y1="179.2" x2="830.0" y2="179.2" stroke="#e1e0d9" stroke-width="1.0"/>
<text x="14.0" y="176.2" font-size="11.0" fill="#898781">400</text>
<line x1="10.0" y1="90.9" x2="830.0" y2="90.9" stroke="#e1e0d9" stroke-width="1.0"/>
<text x="14.0" y="87.9" font-size="11.0" fill="#898781">600</text>
<polyline points="343.1,126.1 394.4,120.1 445.6,126.7 496.9,134.9 548.1,141.8 599.4,172.7 650.6,188.5 701.9,200.7 753.1,207.4 804.4,207.5" fill="none" stroke="#4a3aa7" stroke-width="1.5" stroke-linejoin="round" stroke-linecap="round"/>
<rect x="23.6" y="151.8" width="24.0" height="204.2" fill="none" stroke="#e34948" stroke-width="1.3"/>
<rect x="74.9" y="146.5" width="24.0" height="5.3" fill="none" stroke="#e34948" stroke-width="1.3"/>
<rect x="126.1" y="146.5" width="24.0" height="11.0" fill="#008300"/>
<rect x="177.4" y="141.2" width="24.0" height="16.4" fill="none" stroke="#e34948" stroke-width="1.3"/>
<rect x="228.6" y="79.8" width="24.0" height="61.4" fill="none" stroke="#e34948" stroke-width="1.3"/>
<rect x="279.9" y="79.8" width="24.0" height="15.0" fill="#008300"/>
<rect x="331.1" y="94.8" width="24.0" height="15.9" fill="#008300"/>
<rect x="382.4" y="109.9" width="24.0" height="1.2" fill="none" stroke="#e34948" stroke-width="1.3"/>
<rect x="433.6" y="109.9" width="24.0" height="83.1" fill="#008300"/>
<rect x="484.9" y="192.9" width="24.0" height="22.1" fill="#008300"/>
<rect x="536.1" y="189.4" width="24.0" height="25.6" fill="none" stroke="#e34948" stroke-width="1.3"/>
<rect x="587.4" y="189.4" width="24.0" height="106.5" fill="#008300"/>
<rect x="638.6" y="205.3" width="24.0" height="90.6" fill="none" stroke="#e34948" stroke-width="1.3"/>
<rect x="689.9" y="196.5" width="24.0" height="8.8" fill="none" stroke="#e34948" stroke-width="1.3"/>
<rect x="741.1" y="156.7" width="24.0" height="39.8" fill="none" stroke="#e34948" stroke-width="1.3"/>
<rect x="792.4" y="156.7" width="24.0" height="36.7" fill="#008300"/>
<circle cx="240.6" cy="79.8" r="2" fill="#52514e"/>
<line x1="240.6" y1="79.8" x2="248.6" y2="79.8" stroke="#52514e" stroke-width="1.0"/>
<text x="251.6" y="83.8" font-size="11.0" fill="#52514e">625</text>
<circle cx="35.6" cy="356.0" r="2" fill="#52514e"/>
<line x1="35.6" y1="356.0" x2="43.6" y2="356.0" stroke="#52514e" stroke-width="1.0"/>
<text x="46.6" y="350.0" font-size="11.0" fill="#52514e">0</text>
<text x="14.0" y="376.0" font-size="11.0" fill="#52514e">VOL 154 forks</text>
<text x="102.7" y="376.0" font-size="11.0" fill="#eda100">MA5:71.4</text>
<text x="161.1" y="376.0" font-size="11.0" fill="#2a78d6">MA10:70.3</text>
<text x="14.0" y="395.0" font-size="10" fill="#898781">154</text>
<rect x="23.6" y="425.8" width="24.0" height="44.2" fill="none" stroke="#e34948" stroke-width="1.1"/>
<rect x="74.9" y="432.2" width="24.0" height="37.8" fill="none" stroke="#e34948" stroke-width="1.1"/>
<rect x="126.1" y="425.8" width="24.0" height="44.2" fill="#008300"/>
<rect x="177.4" y="432.7" width="24.0" height="37.3" fill="none" stroke="#e34948" stroke-width="1.1"/>
<rect x="228.6" y="422.6" width="24.0" height="47.4" fill="none" stroke="#e34948" stroke-width="1.1"/>
<rect x="279.9" y="422.6" width="24.0" height="47.4" fill="#008300"/>
<rect x="331.1" y="424.2" width="24.0" height="45.8" fill="#008300"/>
<rect x="382.4" y="431.1" width="24.0" height="38.9" fill="none" stroke="#e34948" stroke-width="1.1"/>
<rect x="433.6" y="433.8" width="24.0" height="36.2" fill="#008300"/>
<rect x="484.9" y="439.6" width="24.0" height="30.4" fill="#008300"/>
<rect x="536.1" y="437.0" width="24.0" height="33.0" fill="none" stroke="#e34948" stroke-width="1.1"/>
<rect x="587.4" y="459.9" width="24.0" height="10.1" fill="#008300"/>
<rect x="638.6" y="444.4" width="24.0" height="25.6" fill="none" stroke="#e34948" stroke-width="1.1"/>
<rect x="689.9" y="451.4" width="24.0" height="18.6" fill="none" stroke="#e34948" stroke-width="1.1"/>
<rect x="741.1" y="416.2" width="24.0" height="53.8" fill="none" stroke="#e34948" stroke-width="1.1"/>
<rect x="792.4" y="388.0" width="24.0" height="82.0" fill="#008300"/>
<polyline points="496.9,429.1 548.1,430.2 599.4,432.9 650.6,434.8 701.9,436.7 753.1,436.0 804.4,432.6" fill="none" stroke="#2a78d6" stroke-width="1.5" stroke-linejoin="round" stroke-linecap="round"/>
<polyline points="240.6,427.8 291.9,427.2 343.1,425.6 394.4,426.7 445.6,426.9 496.9,430.3 548.1,433.2 599.4,440.3 650.6,443.0 701.9,446.5 753.1,441.8 804.4,432.0" fill="none" stroke="#eda100" stroke-width="1.5" stroke-linejoin="round" stroke-linecap="round"/>
</svg>