<svg xmlns="http://www.w3.org/2000/svg" viewBox="0 0 840 496" width="840" height="496" font-family="-apple-system,&#39;Segoe UI&#39;,system-ui,sans-serif" role="img" aria-label="affaan-m/ECC candlestick chart">
<text x="14.0" y="20.0" font-size="15" fill="#ffffff" font-weight="650">affaan-m/ECC</text>
<text x="117.0" y="20.0" font-size="11.5" fill="#c3c2b7">daily · new stars, volume = new forks</text>
<text x="805.8" y="20.0" font-size="11.0" fill="#c3c2b7">fall</text>
<rect x="791" y="10" width="9" height="12" fill="#008300"/>
<text x="750.6" y="20.0" font-size="11.0" fill="#c3c2b7">rise</text>
<rect x="736" y="10" width="9" height="12" fill="none" stroke="#e66767" stroke-width="1.5"/>
<text x="14.0" y="38.0" font-size="11.0" fill="#898781">last 59 days · +20,807 stars · +2,933 forks · updated 2026-08-23</text>
<rect x="10" y="66" width="820" height="290" fill="none" stroke="#2c2c2a"/>
<rect x="10" y="384" width="820" height="86" fill="none" stroke="#2c2c2a"/>
<text x="38.0" y="490.0" font-size="11.0" fill="#898781" text-anchor="middle">2026-06</text>
<line x1="79.5" y1="66.0" x2="79.5" y2="356.0" stroke="#2c2c2a" stroke-width="1.0"/>
<line x1="79.5" y1="384.0" x2="79.5" y2="470.0" stroke="#2c2c2a" stroke-width="1.0"/>
<line x1="510.3" y1="66.0" x2="510.3" y2="356.0" stroke="#2c2c2a" stroke-width="1.0"/>
<line x1="510.3" y1="384.0" x2="510.3" y2="470.0" stroke="#2c2c2a" stroke-width="1.0"/>
<text x="517.3" y="490.0" font-size="11.0" fill="#898781" text-anchor="middle">2026-08</text>
<text x="14.0" y="58.0" font-size="11.0" fill="#c3c2b7">BOLL(20,2)</text>
<text x="84.5" y="58.0" font-size="11.0" fill="#c98500">UP:373.9</text>
<text x="142.9" y="58.0" font-size="11.0" fill="#3987e5">MID:253.9</text>
<text x="207.4" y="58.0" font-size="11.0" fill="#d55181">LOW:133.9</text>
<text x="271.8" y="58.0" font-size="11.0" fill="#9085e9">MA7:269.7</text>
<line x1="10.0" y1="356.0" x2="830.0" y2="356.0" stroke="#2c2c2a" stroke-width="1.0"/>
<text x="14.0" y="353.0" font-size="11.0" fill="#898781">0</text>
<line x1="10.0" y1="281.5" x2="830.0" y2="281.5" stroke="#2c2c2a" stroke-width="1.0"/>
<text x="14.0" y="278.5" font-size="11.0" fill="#898781">200</text>
<line x1="10.0" y1="206.9" x2="830.0" y2="206.9" stroke="#2c2c2a" stroke-width="1.0"/>
<text x="14.0" y="203.9" font-size="11.0" fill="#898781">400</text>
<line x1="10.0" y1="132.4" x2="830.0" y2="132.4" stroke="#2c2c2a" stroke-width="1.0"/>
<text x="14.0" y="129.4" font-size="11.0" fill="#898781">600</text>
<polyline points="281.0,116.2 294.9,117.8 308.8,117.8 322.7,119.3 336.6,122.4 350.5,137.5 364.4,151.7 378.3,164.2 392.2,179.7 406.1,180.7 420.0,180.4 433.9,178.0 447.8,186.7 461.7,172.4 475.6,140.5 489.5,115.0 503.4,104.6 517.3,104.5 531.2,102.0 545.1,101.6 559.0,104.4 572.9,104.7 586.8,105.4 600.7,105.3 614.6,105.1 628.5,104.7 642.4,103.6 656.3,103.4 670.2,103.4 684.1,103.8 698.0,104.0 711.9,105.5 725.8,105.4 739.7,115.3 753.6,143.5 767.5,186.5 781.4,223.7 795.3,229.5 809.2,224.8 823.1,216.6" fill="none" stroke="#c98500" stroke-width="1.5" stroke-linejoin="round" stroke-linecap="round"/>
<polyline points="281.0,199.4 294.9,200.9 308.8,205.4 322.7,208.2 336.6,212.3 350.5,217.8 364.4,223.1 378.3,227.0 392.2,231.2 406.1,231.8 420.0,231.6 433.9,230.7 447.8,226.8 461.7,223.1 475.6,216.7 489.5,211.3 503.4,206.9 517.3,206.7 531.2,209.6 545.1,210.8 559.0,214.6 572.9,214.9 586.8,213.3 600.7,213.6 614.6,214.0 628.5,215.6 642.4,217.4 656.3,219.7 670.2,221.4 684.1,222.6 698.0,224.6 711.9,229.6 725.8,233.3 739.7,239.5 753.6,248.7 767.5,257.6 781.4,264.8 795.3,266.4 809.2,263.6 823.1,261.4" fill="none" stroke="#3987e5" stroke-width="1.5" stroke-linejoin="round" stroke-linecap="round"/>
<polyline points="281.0,282.6 294.9,284.0 308.8,292.9 322.7,297.1 336.6,302.1 350.5,298.2 364.4,294.6 378.3,289.9 392.2,282.7 406.1,283.0 420.0,282.7 433.9,283.4 447.8,266.9 461.7,273.8 475.6,292.8 489.5,307.5 503.4,309.2 517.3,308.9 531.2,317.1 545.1,319.9 559.0,324.7 572.9,325.0 586.8,321.2 600.7,321.9 614.6,322.9 628.5,326.4 642.4,331.3 656.3,336.0 670.2,339.3 684.1,341.5 698.0,345.2 711.9,353.6 725.8,356.0 739.7,356.0 753.6,353.8 767.5,328.7 781.4,305.9 795.3,303.3 809.2,302.4 823.1,306.1" fill="none" stroke="#d55181" stroke-width="1.5" stroke-linejoin="round" stroke-linecap="round"/>
<polyline points="100.3,162.1 114.2,157.0 128.1,162.6 142.0,169.5 155.9,175.3 169.8,201.4 183.7,214.7 197.6,225.0 211.5,230.7 225.4,230.7 239.3,229.3 253.2,231.2 267.1,221.0 281.0,214.3 294.9,213.1 308.8,224.7 322.7,228.5 336.6,232.7 350.5,233.4 364.4,234.6 378.3,241.1 392.2,243.8 406.1,238.3 420.0,236.3 433.9,228.0 447.8,226.9 461.7,214.6 475.6,195.4 489.5,173.6 503.4,159.3 517.3,158.2 531.2,170.8 545.1,175.2 559.0,189.8 572.9,207.9 586.8,230.5 600.7,247.8 614.6,253.5 628.5,250.6 642.4,253.6 656.3,255.7 670.2,262.4 684.1,264.9 698.0,267.6 711.9,272.5 725.8,277.6 739.7,277.7 753.6,278.2 767.5,277.1 781.4,279.9 795.3,277.6 809.2,268.1 823.1,255.5" fill="none" stroke="#9085e9" stroke-width="1.5" stroke-linejoin="round" stroke-linecap="round"/>
<rect x="13.1" y="183.8" width="7.6" height="172.2" fill="none" stroke="#e66767" stroke-width="1.3"/>
<rect x="27.0" y="179.3" width="7.6" height="4.5" fill="none" stroke="#e66767" stroke-width="1.3"/>
<rect x="40.9" y="179.3" width="7.6" height="9.3" fill="#008300"/>
<rect x="54.8" y="174.9" width="7.6" height="13.8" fill="none" stroke="#e66767" stroke-width="1.3"/>
<rect x="68.7" y="123.0" width="7.6" height="51.8" fill="none" stroke="#e66767" stroke-width="1.3"/>
<rect x="82.6" y="123.0" width="7.6" height="12.7" fill="#008300"/>
<rect x="96.5" y="135.7" width="7.6" height="13.4" fill="#008300"/>
<rect x="110.4" y="148.4" width="7.6" height="1.2" fill="none" stroke="#e66767" stroke-width="1.3"/>
<rect x="124.3" y="148.4" width="7.6" height="70.1" fill="#008300"/>
<rect x="138.2" y="218.5" width="7.6" height="18.6" fill="#008300"/>
<rect x="152.1" y="215.5" width="7.6" height="21.6" fill="none" stroke="#e66767" stroke-width="1.3"/>
<rect x="166.0" y="215.5" width="7.6" height="89.8" fill="#008300"/>
<rect x="179.9" y="228.9" width="7.6" height="76.4" fill="none" stroke="#e66767" stroke-width="1.3"/>
<rect x="193.8" y="221.4" width="7.6" height="7.5" fill="none" stroke="#e66767" stroke-width="1.3"/>
<rect x="207.7" y="187.9" width="7.6" height="33.5" fill="none" stroke="#e66767" stroke-width="1.3"/>
<rect x="221.6" y="187.9" width="7.6" height="30.9" fill="#008300"/>
<rect x="235.5" y="218.8" width="7.6" height="8.2" fill="#008300"/>
<rect x="249.4" y="227.0" width="7.6" height="1.9" fill="#008300"/>
<rect x="263.3" y="228.9" width="7.6" height="4.8" fill="#008300"/>
<rect x="277.2" y="181.9" width="7.6" height="51.8" fill="none" stroke="#e66767" stroke-width="1.3"/>
<rect x="291.1" y="181.9" width="7.6" height="31.3" fill="#008300"/>
<rect x="305.0" y="213.2" width="7.6" height="55.9" fill="#008300"/>
<rect x="318.9" y="245.3" width="7.6" height="23.9" fill="none" stroke="#e66767" stroke-width="1.3"/>
<rect x="332.8" y="245.3" width="7.6" height="11.2" fill="#008300"/>
<rect x="346.7" y="234.1" width="7.6" height="22.4" fill="none" stroke="#e66767" stroke-width="1.3"/>
<rect x="360.6" y="234.1" width="7.6" height="7.8" fill="#008300"/>
<rect x="374.5" y="227.0" width="7.6" height="14.9" fill="none" stroke="#e66767" stroke-width="1.3"/>
<rect x="388.4" y="227.0" width="7.6" height="5.2" fill="#008300"/>
<rect x="402.3" y="230.8" width="7.6" height="1.5" fill="none" stroke="#e66767" stroke-width="1.3"/>
<rect x="416.2" y="230.8" width="7.6" height="1.2" fill="#008300"/>
<rect x="430.1" y="198.3" width="7.6" height="33.2" fill="none" stroke="#e66767" stroke-width="1.3"/>
<rect x="444.0" y="198.3" width="7.6" height="28.3" fill="#008300"/>
<rect x="457.9" y="155.5" width="7.6" height="71.2" fill="none" stroke="#e66767" stroke-width="1.3"/>
<rect x="471.8" y="92.9" width="7.6" height="62.6" fill="none" stroke="#e66767" stroke-width="1.3"/>
<rect x="485.7" y="79.8" width="7.6" height="13.0" fill="none" stroke="#e66767" stroke-width="1.3"/>
<rect x="499.6" y="79.8" width="7.6" height="51.1" fill="#008300"/>
<rect x="513.5" y="130.9" width="7.6" height="92.8" fill="#008300"/>
<rect x="527.4" y="223.7" width="7.6" height="62.2" fill="#008300"/>
<rect x="541.3" y="258.0" width="7.6" height="28.0" fill="none" stroke="#e66767" stroke-width="1.3"/>
<rect x="555.2" y="257.6" width="7.6" height="1.2" fill="none" stroke="#e66767" stroke-width="1.3"/>
<rect x="569.1" y="219.6" width="7.6" height="38.0" fill="none" stroke="#e66767" stroke-width="1.3"/>
<rect x="583.0" y="219.6" width="7.6" height="18.6" fill="#008300"/>
<rect x="596.9" y="238.2" width="7.6" height="13.4" fill="#008300"/>
<rect x="610.8" y="251.6" width="7.6" height="12.3" fill="#008300"/>
<rect x="624.7" y="263.9" width="7.6" height="1.2" fill="#008300"/>
<rect x="638.6" y="265.1" width="7.6" height="14.5" fill="#008300"/>
<rect x="652.4" y="272.1" width="7.6" height="7.5" fill="none" stroke="#e66767" stroke-width="1.3"/>
<rect x="666.3" y="266.2" width="7.6" height="6.0" fill="none" stroke="#e66767" stroke-width="1.3"/>
<rect x="680.2" y="255.7" width="7.6" height="10.4" fill="none" stroke="#e66767" stroke-width="1.3"/>
<rect x="694.1" y="255.7" width="7.6" height="14.9" fill="#008300"/>
<rect x="708.0" y="270.6" width="7.6" height="27.2" fill="#008300"/>
<rect x="721.9" y="297.9" width="7.6" height="3.0" fill="#008300"/>
<rect x="735.8" y="280.7" width="7.6" height="20.1" fill="none" stroke="#e66767" stroke-width="1.3"/>
<rect x="749.7" y="275.5" width="7.6" height="5.2" fill="none" stroke="#e66767" stroke-width="1.3"/>
<rect x="763.6" y="258.3" width="7.6" height="17.1" fill="none" stroke="#e66767" stroke-width="1.3"/>
<rect x="777.5" y="258.3" width="7.6" height="16.8" fill="#008300"/>
<rect x="791.4" y="255.0" width="7.6" height="20.1" fill="none" stroke="#e66767" stroke-width="1.3"/>
<rect x="805.3" y="231.1" width="7.6" height="23.9" fill="none" stroke="#e66767" stroke-width="1.3"/>
<rect x="819.2" y="212.5" width="7.6" height="18.6" fill="none" stroke="#e66767" stroke-width="1.3"/>
<circle cx="489.5" cy="79.8" r="2" fill="#c3c2b7"/>
<line x1="489.5" y1="79.8" x2="481.5" y2="79.8" stroke="#c3c2b7" stroke-width="1.0"/>
<text x="478.5" y="83.8" font-size="11.0" fill="#c3c2b7" text-anchor="end">741</text>
<circle cx="16.9" cy="356.0" r="2" fill="#c3c2b7"/>
<line x1="16.9" y1="356.0" x2="24.9" y2="356.0" stroke="#c3c2b7" stroke-width="1.0"/>
<text x="27.9" y="350.0" font-size="11.0" fill="#c3c2b7">0</text>
<text x="14.0" y="376.0" font-size="11.0" fill="#c3c2b7">VOL 45 forks</text>
<text x="96.6" y="376.0" font-size="11.0" fill="#c98500">MA5:37.4</text>
<text x="155.0" y="376.0" font-size="11.0" fill="#3987e5">MA10:31</text>
<text x="14.0" y="395.0" font-size="10" fill="#898781">154</text>
<rect x="13.1" y="425.8" width="7.6" height="44.2" fill="none" stroke="#e66767" stroke-width="1.1"/>
<rect x="27.0" y="432.2" width="7.6" height="37.8" fill="none" stroke="#e66767" stroke-width="1.1"/>
<rect x="40.9" y="425.8" width="7.6" height="44.2" fill="#008300"/>
<rect x="54.8" y="432.7" width="7.6" height="37.3" fill="none" stroke="#e66767" stroke-width="1.1"/>
<rect x="68.7" y="422.6" width="7.6" height="47.4" fill="none" stroke="#e66767" stroke-width="1.1"/>
<rect x="82.6" y="422.6" width="7.6" height="47.4" fill="#008300"/>
<rect x="96.5" y="424.2" width="7.6" height="45.8" fill="#008300"/>
<rect x="110.4" y="431.1" width="7.6" height="38.9" fill="none" stroke="#e66767" stroke-width="1.1"/>
<rect x="124.3" y="433.8" width="7.6" height="36.2" fill="#008300"/>
<rect x="138.2" y="439.6" width="7.6" height="30.4" fill="#008300"/>
<rect x="152.1" y="437.0" width="7.6" height="33.0" fill="none" stroke="#e66767" stroke-width="1.1"/>
<rect x="166.0" y="459.9" width="7.6" height="10.1" fill="#008300"/>
<rect x="179.9" y="444.4" width="7.6" height="25.6" fill="none" stroke="#e66767" stroke-width="1.1"/>
<rect x="193.8" y="451.4" width="7.6" height="18.6" fill="none" stroke="#e66767" stroke-width="1.1"/>
<rect x="207.7" y="416.2" width="7.6" height="53.8" fill="none" stroke="#e66767" stroke-width="1.1"/>
<rect x="221.6" y="388.0" width="7.6" height="82.0" fill="#008300"/>
<rect x="235.5" y="440.7" width="7.6" height="29.3" fill="#008300"/>
<rect x="249.4" y="449.8" width="7.6" height="20.2" fill="#008300"/>
<rect x="263.3" y="456.7" width="7.6" height="13.3" fill="#008300"/>
<rect x="277.2" y="451.4" width="7.6" height="18.6" fill="none" stroke="#e66767" stroke-width="1.1"/>
<rect x="291.1" y="442.3" width="7.6" height="27.7" fill="#008300"/>
<rect x="318.9" y="446.6" width="7.6" height="23.4" fill="none" stroke="#e66767" stroke-width="1.1"/>
<rect x="332.8" y="450.3" width="7.6" height="19.7" fill="#008300"/>
<rect x="346.7" y="441.8" width="7.6" height="28.2" fill="none" stroke="#e66767" stroke-width="1.1"/>
<rect x="360.6" y="444.4" width="7.6" height="25.6" fill="#008300"/>
<rect x="374.5" y="446.0" width="7.6" height="24.0" fill="none" stroke="#e66767" stroke-width="1.1"/>
<rect x="388.4" y="454.6" width="7.6" height="15.4" fill="#008300"/>
<rect x="402.3" y="450.8" width="7.6" height="19.2" fill="none" stroke="#e66767" stroke-width="1.1"/>
<rect x="416.2" y="443.4" width="7.6" height="26.6" fill="#008300"/>
<rect x="430.1" y="429.5" width="7.6" height="40.5" fill="none" stroke="#e66767" stroke-width="1.1"/>
<rect x="444.0" y="443.9" width="7.6" height="26.1" fill="#008300"/>
<rect x="457.9" y="431.7" width="7.6" height="38.3" fill="none" stroke="#e66767" stroke-width="1.1"/>
<rect x="471.8" y="417.3" width="7.6" height="52.7" fill="none" stroke="#e66767" stroke-width="1.1"/>
<rect x="485.7" y="424.7" width="7.6" height="45.3" fill="none" stroke="#e66767" stroke-width="1.1"/>
<rect x="499.6" y="442.3" width="7.6" height="27.7" fill="#008300"/>
<rect x="513.5" y="445.5" width="7.6" height="24.5" fill="#008300"/>
<rect x="527.4" y="454.6" width="7.6" height="15.4" fill="#008300"/>
<rect x="541.3" y="453.5" width="7.6" height="16.5" fill="none" stroke="#e66767" stroke-width="1.1"/>
<rect x="555.2" y="446.0" width="7.6" height="24.0" fill="none" stroke="#e66767" stroke-width="1.1"/>
<rect x="569.1" y="453.5" width="7.6" height="16.5" fill="none" stroke="#e66767" stroke-width="1.1"/>
<rect x="583.0" y="451.4" width="7.6" height="18.6" fill="#008300"/>
<rect x="596.9" y="446.6" width="7.6" height="23.4" fill="#008300"/>
<rect x="610.8" y="450.8" width="7.6" height="19.2" fill="#008300"/>
<rect x="624.7" y="449.2" width="7.6" height="20.8" fill="#008300"/>
<rect x="638.6" y="450.8" width="7.6" height="19.2" fill="#008300"/>
<rect x="652.4" y="455.6" width="7.6" height="14.4" fill="none" stroke="#e66767" stroke-width="1.1"/>
<rect x="666.3" y="456.2" width="7.6" height="13.8" fill="none" stroke="#e66767" stroke-width="1.1"/>
<rect x="680.2" y="454.0" width="7.6" height="16.0" fill="none" stroke="#e66767" stroke-width="1.1"/>
<rect x="694.1" y="449.2" width="7.6" height="20.8" fill="#008300"/>
<rect x="708.0" y="463.6" width="7.6" height="6.4" fill="#008300"/>
<rect x="721.9" y="458.3" width="7.6" height="11.7" fill="#008300"/>
<rect x="735.8" y="457.2" width="7.6" height="12.8" fill="none" stroke="#e66767" stroke-width="1.1"/>
<rect x="749.7" y="456.2" width="7.6" height="13.8" fill="none" stroke="#e66767" stroke-width="1.1"/>
<rect x="763.6" y="449.8" width="7.6" height="20.2" fill="none" stroke="#e66767" stroke-width="1.1"/>
<rect x="777.5" y="457.2" width="7.6" height="12.8" fill="#008300"/>
<rect x="791.4" y="447.1" width="7.6" height="22.9" fill="none" stroke="#e66767" stroke-width="1.1"/>
<rect x="805.3" y="450.3" width="7.6" height="19.7" fill="none" stroke="#e66767" stroke-width="1.1"/>
<rect x="819.2" y="446.0" width="7.6" height="24.0" fill="none" stroke="#e66767" stroke-width="1.1"/>
<polyline points="142.0,429.1 155.9,430.2 169.8,432.9 183.7,434.8 197.6,436.7 211.5,436.0 225.4,432.6 239.3,434.2 253.2,436.1 267.1,438.4 281.0,439.5 294.9,440.1 308.8,441.1 322.7,441.3 336.6,441.2 350.5,443.7 364.4,449.4 378.3,449.9 392.2,450.4 406.1,449.8 420.0,449.0 433.9,447.7 447.8,445.1 461.7,443.6 475.6,440.3 489.5,438.6 503.4,438.4 517.3,438.4 531.2,438.4 545.1,438.6 559.0,438.9 572.9,441.3 586.8,442.0 600.7,443.5 614.6,446.9 628.5,449.3 642.4,450.2 656.3,451.2 670.2,451.4 684.1,451.4 698.0,451.7 711.9,452.7 725.8,453.4 739.7,454.5 753.6,455.0 767.5,455.1 781.4,455.7 795.3,454.9 809.2,454.3 823.1,453.5" fill="none" stroke="#3987e5" stroke-width="1.5" stroke-linejoin="round" stroke-linecap="round"/>
<polyline points="72.5,427.8 86.4,427.2 100.3,425.6 114.2,426.7 128.1,426.9 142.0,430.3 155.9,433.2 169.8,440.3 183.7,443.0 197.6,446.5 211.5,441.8 225.4,432.0 239.3,428.1 253.2,429.2 267.1,430.3 281.0,437.3 294.9,448.2 308.8,454.0 322.7,453.4 336.6,452.1 350.5,450.2 364.4,450.6 378.3,445.8 392.2,447.4 406.1,447.5 420.0,447.8 433.9,444.9 447.8,444.4 461.7,439.9 475.6,433.2 489.5,429.4 503.4,432.0 517.3,432.3 531.2,436.9 545.1,444.1 559.0,448.4 572.9,450.6 586.8,451.8 600.7,450.2 614.6,449.7 628.5,450.3 642.4,449.8 656.3,450.6 670.2,452.5 684.1,453.2 698.0,453.2 711.9,455.7 725.8,456.3 739.7,456.5 753.6,456.9 767.5,457.0 781.4,455.7 795.3,453.5 809.2,452.1 823.1,450.1" fill="none" stroke="#c98500" stroke-width="1.5" stroke-linejoin="round" stroke-linecap="round"/>
</svg>