<svg xmlns="http://www.w3.org/2000/svg" viewBox="0 0 840 496" width="840" height="496" font-family="-apple-system,&#39;Segoe UI&#39;,system-ui,sans-serif" role="img" aria-label="affaan-m/ECC candlestick chart">
<text x="14.0" y="20.0" font-size="15" fill="#ffffff" font-weight="650">affaan-m/ECC</text>
<text x="117.0" y="20.0" font-size="11.5" fill="#c3c2b7">daily · new stars, volume = new forks</text>
<text x="805.8" y="20.0" font-size="11.0" fill="#c3c2b7">fall</text>
<rect x="791" y="10" width="9" height="12" fill="#008300"/>
<text x="750.6" y="20.0" font-size="11.0" fill="#c3c2b7">rise</text>
<rect x="736" y="10" width="9" height="12" fill="none" stroke="#e66767" stroke-width="1.5"/>
<text x="14.0" y="38.0" font-size="11.0" fill="#898781">last 12 days · +5,400 stars · +850 forks · updated 2026-07-07</text>
<rect x="10" y="66" width="820" height="290" fill="none" stroke="#2c2c2a"/>
<rect x="10" y="384" width="820" height="86" fill="none" stroke="#2c2c2a"/>
<text x="44.2" y="490.0" font-size="11.0" fill="#898781" text-anchor="middle">2026-06</text>
<line x1="351.7" y1="66.0" x2="351.7" y2="356.0" stroke="#2c2c2a" stroke-width="1.0"/>
<line x1="351.7" y1="384.0" x2="351.7" y2="470.0" stroke="#2c2c2a" stroke-width="1.0"/>
<text x="385.8" y="490.0" font-size="11.0" fill="#898781" text-anchor="middle">2026-07</text>
<text x="14.0" y="58.0" font-size="11.0" fill="#c3c2b7">BOLL(20,2)</text>
<text x="84.5" y="58.0" font-size="11.0" fill="#c98500">UP:—</text>
<text x="118.7" y="58.0" font-size="11.0" fill="#3987e5">MID:—</text>
<text x="158.9" y="58.0" font-size="11.0" fill="#d55181">LOW:—</text>
<text x="199.2" y="58.0" font-size="11.0" fill="#9085e9">MA7:414.9</text>
<line x1="10.0" y1="356.0" x2="830.0" y2="356.0" stroke="#2c2c2a" stroke-width="1.0"/>
<text x="14.0" y="353.0" font-size="11.0" fill="#898781">0</text>
<line x1="10.0" y1="267.6" x2="830.0" y2="267.6" stroke="#2c2c2a" stroke-width="1.0"/>
<text x="14.0" y="264.6" font-size="11.0" fill="#898781">200</text>
<line x1="10.0" y1="179.2" x2="830.0" y2="179.2" stroke="#2c2c2a" stroke-width="1.0"/>
<text x="14.0" y="176.2" font-size="11.0" fill="#898781">400</text>
<line x1="10.0" y1="90.9" x2="830.0" y2="90.9" stroke="#2c2c2a" stroke-width="1.0"/>
<text x="14.0" y="87.9" font-size="11.0" fill="#898781">600</text>
<polyline points="454.2,126.1 522.5,120.1 590.8,126.7 659.2,134.9 727.5,141.8 795.8,172.7" fill="none" stroke="#9085e9" stroke-width="1.5" stroke-linejoin="round" stroke-linecap="round"/>
<rect x="32.2" y="151.8" width="24.0" height="204.2" fill="none" stroke="#e66767" stroke-width="1.3"/>
<rect x="100.5" y="146.5" width="24.0" height="5.3" fill="none" stroke="#e66767" stroke-width="1.3"/>
<rect x="168.8" y="146.5" width="24.0" height="11.0" fill="#008300"/>
<rect x="237.2" y="141.2" width="24.0" height="16.4" fill="none" stroke="#e66767" stroke-width="1.3"/>
<rect x="305.5" y="79.8" width="24.0" height="61.4" fill="none" stroke="#e66767" stroke-width="1.3"/>
<rect x="373.8" y="79.8" width="24.0" height="15.0" fill="#008300"/>
<rect x="442.2" y="94.8" width="24.0" height="15.9" fill="#008300"/>
<rect x="510.5" y="109.9" width="24.0" height="1.2" fill="none" stroke="#e66767" stroke-width="1.3"/>
<rect x="578.8" y="109.9" width="24.0" height="83.1" fill="#008300"/>
<rect x="647.2" y="192.9" width="24.0" height="22.1" fill="#008300"/>
<rect x="715.5" y="189.4" width="24.0" height="25.6" fill="none" stroke="#e66767" stroke-width="1.3"/>
<rect x="783.8" y="189.4" width="24.0" height="106.5" fill="#008300"/>
<circle cx="317.5" cy="79.8" r="2" fill="#c3c2b7"/>
<line x1="317.5" y1="79.8" x2="325.5" y2="79.8" stroke="#c3c2b7" stroke-width="1.0"/>
<text x="328.5" y="83.8" font-size="11.0" fill="#c3c2b7">625</text>
<circle cx="44.2" cy="356.0" r="2" fill="#c3c2b7"/>
<line x1="44.2" y1="356.0" x2="52.2" y2="356.0" stroke="#c3c2b7" stroke-width="1.0"/>
<text x="55.2" y="350.0" font-size="11.0" fill="#c3c2b7">0</text>
<text x="14.0" y="376.0" font-size="11.0" fill="#c3c2b7">VOL 19 forks</text>
<text x="96.6" y="376.0" font-size="11.0" fill="#c98500">MA5:55.8</text>
<text x="155.0" y="376.0" font-size="11.0" fill="#3987e5">MA10:69.6</text>
<text x="14.0" y="395.0" font-size="10" fill="#898781">89</text>
<rect x="32.2" y="393.5" width="24.0" height="76.5" fill="none" stroke="#e66767" stroke-width="1.1"/>
<rect x="100.5" y="404.6" width="24.0" height="65.4" fill="none" stroke="#e66767" stroke-width="1.1"/>
<rect x="168.8" y="393.5" width="24.0" height="76.5" fill="#008300"/>
<rect x="237.2" y="405.5" width="24.0" height="64.5" fill="none" stroke="#e66767" stroke-width="1.1"/>
<rect x="305.5" y="388.0" width="24.0" height="82.0" fill="none" stroke="#e66767" stroke-width="1.1"/>
<rect x="373.8" y="388.0" width="24.0" height="82.0" fill="#008300"/>
<rect x="442.2" y="390.8" width="24.0" height="79.2" fill="#008300"/>
<rect x="510.5" y="402.7" width="24.0" height="67.3" fill="none" stroke="#e66767" stroke-width="1.1"/>
<rect x="578.8" y="407.3" width="24.0" height="62.7" fill="#008300"/>
<rect x="647.2" y="417.5" width="24.0" height="52.5" fill="#008300"/>
<rect x="715.5" y="412.9" width="24.0" height="57.1" fill="none" stroke="#e66767" stroke-width="1.1"/>
<rect x="783.8" y="452.5" width="24.0" height="17.5" fill="#008300"/>
<polyline points="659.2,399.1 727.5,401.1 795.8,405.9" fill="none" stroke="#3987e5" stroke-width="1.5" stroke-linejoin="round" stroke-linecap="round"/>
<polyline points="317.5,397.0 385.8,395.9 454.2,393.2 522.5,395.0 590.8,395.4 659.2,401.3 727.5,406.2 795.8,418.6" fill="none" stroke="#c98500" stroke-width="1.5" stroke-linejoin="round" stroke-linecap="round"/>
</svg>