<svg xmlns="http://www.w3.org/2000/svg" viewBox="0 0 840 496" width="840" height="496" font-family="-apple-system,&#39;Segoe UI&#39;,system-ui,sans-serif" role="img" aria-label="affaan-m/ECC candlestick chart">
<text x="14.0" y="20.0" font-size="15" fill="#0b0b0b" font-weight="650">affaan-m/ECC</text>
<text x="117.0" y="20.0" font-size="11.5" fill="#52514e">daily · new stars, volume = new forks</text>
<text x="805.8" y="20.0" font-size="11.0" fill="#52514e">fall</text>
<rect x="791" y="10" width="9" height="12" fill="#008300"/>
<text x="750.6" y="20.0" font-size="11.0" fill="#52514e">rise</text>
<rect x="736" y="10" width="9" height="12" fill="none" stroke="#e34948" stroke-width="1.5"/>
<text x="14.0" y="38.0" font-size="11.0" fill="#898781">last 18 days · +7,608 stars · +1,281 forks · updated 2026-07-13</text>
<rect x="10" y="66" width="820" height="290" fill="none" stroke="#e1e0d9"/>
<rect x="10" y="384" width="820" height="86" fill="none" stroke="#e1e0d9"/>
<text x="38.0" y="490.0" font-size="11.0" fill="#898781" text-anchor="middle">2026-06</text>
<line x1="237.8" y1="66.0" x2="237.8" y2="356.0" stroke="#e1e0d9" stroke-width="1.0"/>
<line x1="237.8" y1="384.0" x2="237.8" y2="470.0" stroke="#e1e0d9" stroke-width="1.0"/>
<text x="260.6" y="490.0" font-size="11.0" fill="#898781" text-anchor="middle">2026-07</text>
<text x="14.0" y="58.0" font-size="11.0" fill="#52514e">BOLL(20,2)</text>
<text x="84.5" y="58.0" font-size="11.0" fill="#eda100">UP:—</text>
<text x="118.7" y="58.0" font-size="11.0" fill="#2a78d6">MID:—</text>
<text x="158.9" y="58.0" font-size="11.0" fill="#e87ba4">LOW:—</text>
<text x="199.2" y="58.0" font-size="11.0" fill="#4a3aa7">MA7:334.9</text>
<line x1="10.0" y1="356.0" x2="830.0" y2="356.0" stroke="#e1e0d9" stroke-width="1.0"/>
<text x="14.0" y="353.0" font-size="11.0" fill="#898781">0</text>
<line x1="10.0" y1="267.6" x2="830.0" y2="267.6" stroke="#e1e0d9" stroke-width="1.0"/>
<text x="14.0" y="264.6" font-size="11.0" fill="#898781">200</text>
<line x1="10.0" y1="179.2" x2="830.0" y2="179.2" stroke="#e1e0d9" stroke-width="1.0"/>
<text x="14.0" y="176.2" font-size="11.0" fill="#898781">400</text>
<line x1="10.0" y1="90.9" x2="830.0" y2="90.9" stroke="#e1e0d9" stroke-width="1.0"/>
<text x="14.0" y="87.9" font-size="11.0" fill="#898781">600</text>
<polyline points="306.1,126.1 351.7,120.1 397.2,126.7 442.8,134.9 488.3,141.8 533.9,172.7 579.4,188.5 625.0,200.7 670.6,207.4 716.1,207.5 761.7,205.8 807.2,208.0" fill="none" stroke="#4a3aa7" stroke-width="1.5" stroke-linejoin="round" stroke-linecap="round"/>
<rect x="20.8" y="151.8" width="24.0" height="204.2" fill="none" stroke="#e34948" stroke-width="1.3"/>
<rect x="66.3" y="146.5" width="24.0" height="5.3" fill="none" stroke="#e34948" stroke-width="1.3"/>
<rect x="111.9" y="146.5" width="24.0" height="11.0" fill="#008300"/>
<rect x="157.4" y="141.2" width="24.0" height="16.4" fill="none" stroke="#e34948" stroke-width="1.3"/>
<rect x="203.0" y="79.8" width="24.0" height="61.4" fill="none" stroke="#e34948" stroke-width="1.3"/>
<rect x="248.6" y="79.8" width="24.0" height="15.0" fill="#008300"/>
<rect x="294.1" y="94.8" width="24.0" height="15.9" fill="#008300"/>
<rect x="339.7" y="109.9" width="24.0" height="1.2" fill="none" stroke="#e34948" stroke-width="1.3"/>
<rect x="385.2" y="109.9" width="24.0" height="83.1" fill="#008300"/>
<rect x="430.8" y="192.9" width="24.0" height="22.1" fill="#008300"/>
<rect x="476.3" y="189.4" width="24.0" height="25.6" fill="none" stroke="#e34948" stroke-width="1.3"/>
<rect x="521.9" y="189.4" width="24.0" height="106.5" fill="#008300"/>
<rect x="567.4" y="205.3" width="24.0" height="90.6" fill="none" stroke="#e34948" stroke-width="1.3"/>
<rect x="613.0" y="196.5" width="24.0" height="8.8" fill="none" stroke="#e34948" stroke-width="1.3"/>
<rect x="658.6" y="156.7" width="24.0" height="39.8" fill="none" stroke="#e34948" stroke-width="1.3"/>
<rect x="704.1" y="156.7" width="24.0" height="36.7" fill="#008300"/>
<rect x="749.7" y="193.4" width="24.0" height="9.7" fill="#008300"/>
<rect x="795.2" y="203.1" width="24.0" height="2.2" fill="#008300"/>
<circle cx="215.0" cy="79.8" r="2" fill="#52514e"/>
<line x1="215.0" y1="79.8" x2="223.0" y2="79.8" stroke="#52514e" stroke-width="1.0"/>
<text x="226.0" y="83.8" font-size="11.0" fill="#52514e">625</text>
<circle cx="32.8" cy="356.0" r="2" fill="#52514e"/>
<line x1="32.8" y1="356.0" x2="40.8" y2="356.0" stroke="#52514e" stroke-width="1.0"/>
<text x="43.8" y="350.0" font-size="11.0" fill="#52514e">0</text>
<text x="14.0" y="376.0" font-size="11.0" fill="#52514e">VOL 38 forks</text>
<text x="96.6" y="376.0" font-size="11.0" fill="#eda100">MA5:76.6</text>
<text x="155.0" y="376.0" font-size="11.0" fill="#2a78d6">MA10:63.7</text>
<text x="14.0" y="395.0" font-size="10" fill="#898781">154</text>
<rect x="20.8" y="425.8" width="24.0" height="44.2" fill="none" stroke="#e34948" stroke-width="1.1"/>
<rect x="66.3" y="432.2" width="24.0" height="37.8" fill="none" stroke="#e34948" stroke-width="1.1"/>
<rect x="111.9" y="425.8" width="24.0" height="44.2" fill="#008300"/>
<rect x="157.4" y="432.7" width="24.0" height="37.3" fill="none" stroke="#e34948" stroke-width="1.1"/>
<rect x="203.0" y="422.6" width="24.0" height="47.4" fill="none" stroke="#e34948" stroke-width="1.1"/>
<rect x="248.6" y="422.6" width="24.0" height="47.4" fill="#008300"/>
<rect x="294.1" y="424.2" width="24.0" height="45.8" fill="#008300"/>
<rect x="339.7" y="431.1" width="24.0" height="38.9" fill="none" stroke="#e34948" stroke-width="1.1"/>
<rect x="385.2" y="433.8" width="24.0" height="36.2" fill="#008300"/>
<rect x="430.8" y="439.6" width="24.0" height="30.4" fill="#008300"/>
<rect x="476.3" y="437.0" width="24.0" height="33.0" fill="none" stroke="#e34948" stroke-width="1.1"/>
<rect x="521.9" y="459.9" width="24.0" height="10.1" fill="#008300"/>
<rect x="567.4" y="444.4" width="24.0" height="25.6" fill="none" stroke="#e34948" stroke-width="1.1"/>
<rect x="613.0" y="451.4" width="24.0" height="18.6" fill="none" stroke="#e34948" stroke-width="1.1"/>
<rect x="658.6" y="416.2" width="24.0" height="53.8" fill="none" stroke="#e34948" stroke-width="1.1"/>
<rect x="704.1" y="388.0" width="24.0" height="82.0" fill="#008300"/>
<rect x="749.7" y="440.7" width="24.0" height="29.3" fill="#008300"/>
<rect x="795.2" y="449.8" width="24.0" height="20.2" fill="#008300"/>
<polyline points="442.8,429.1 488.3,430.2 533.9,432.9 579.4,434.8 625.0,436.7 670.6,436.0 716.1,432.6 761.7,434.2 807.2,436.1" fill="none" stroke="#2a78d6" stroke-width="1.5" stroke-linejoin="round" stroke-linecap="round"/>
<polyline points="215.0,427.8 260.6,427.2 306.1,425.6 351.7,426.7 397.2,426.9 442.8,430.3 488.3,433.2 533.9,440.3 579.4,443.0 625.0,446.5 670.6,441.8 716.1,432.0 761.7,428.1 807.2,429.2" fill="none" stroke="#eda100" stroke-width="1.5" stroke-linejoin="round" stroke-linecap="round"/>
</svg>