<svg xmlns="http://www.w3.org/2000/svg" viewBox="0 0 840 496" width="840" height="496" font-family="-apple-system,&#39;Segoe UI&#39;,system-ui,sans-serif" role="img" aria-label="openclaw/openclaw candlestick chart">
<text x="14.0" y="20.0" font-size="15" fill="#0b0b0b" font-weight="650">openclaw/openclaw</text>
<text x="158.2" y="20.0" font-size="11.5" fill="#52514e">daily · new stars, volume = new forks</text>
<text x="805.8" y="20.0" font-size="11.0" fill="#52514e">fall</text>
<rect x="791" y="10" width="9" height="12" fill="#008300"/>
<text x="750.6" y="20.0" font-size="11.0" fill="#52514e">rise</text>
<rect x="736" y="10" width="9" height="12" fill="none" stroke="#e34948" stroke-width="1.5"/>
<text x="14.0" y="38.0" font-size="11.0" fill="#898781">last 60 days · +6,736 stars · +1,513 forks · updated 2026-09-09</text>
<rect x="10" y="66" width="820" height="290" fill="none" stroke="#e1e0d9"/>
<rect x="10" y="384" width="820" height="86" fill="none" stroke="#e1e0d9"/>
<text x="38.0" y="490.0" font-size="11.0" fill="#898781" text-anchor="middle">2026-07</text>
<line x1="283.3" y1="66.0" x2="283.3" y2="356.0" stroke="#e1e0d9" stroke-width="1.0"/>
<line x1="283.3" y1="384.0" x2="283.3" y2="470.0" stroke="#e1e0d9" stroke-width="1.0"/>
<text x="290.2" y="490.0" font-size="11.0" fill="#898781" text-anchor="middle">2026-08</text>
<line x1="707.0" y1="66.0" x2="707.0" y2="356.0" stroke="#e1e0d9" stroke-width="1.0"/>
<line x1="707.0" y1="384.0" x2="707.0" y2="470.0" stroke="#e1e0d9" stroke-width="1.0"/>
<text x="713.8" y="490.0" font-size="11.0" fill="#898781" text-anchor="middle">2026-09</text>
<text x="14.0" y="58.0" font-size="11.0" fill="#52514e">BOLL(20,2)</text>
<text x="84.5" y="58.0" font-size="11.0" fill="#eda100">UP:208.6</text>
<text x="142.9" y="58.0" font-size="11.0" fill="#2a78d6">MID:123.0</text>
<text x="207.4" y="58.0" font-size="11.0" fill="#e87ba4">LOW:37.4</text>
<text x="265.8" y="58.0" font-size="11.0" fill="#4a3aa7">MA7:102.4</text>
<line x1="10.0" y1="271.0" x2="830.0" y2="271.0" stroke="#e1e0d9" stroke-width="1.0"/>
<text x="14.0" y="268.0" font-size="11.0" fill="#898781">100</text>
<line x1="10.0" y1="160.0" x2="830.0" y2="160.0" stroke="#e1e0d9" stroke-width="1.0"/>
<text x="14.0" y="157.0" font-size="11.0" fill="#898781">200</text>
<polyline points="16.8,79.2 30.5,83.6 44.2,88.3 57.8,94.6 71.5,98.4 85.2,100.4 98.8,102.6 112.5,111.5 126.2,128.8 139.8,142.4 153.5,161.3 167.2,174.6 180.8,185.3 194.5,194.5 208.2,215.9 221.8,217.6 235.5,216.8 249.2,215.6 262.8,219.8 276.5,225.7 290.2,223.9 303.8,223.5 317.5,225.2 331.2,224.3 344.8,224.2 358.5,223.4 372.2,224.3 385.8,224.8 399.5,224.6 413.2,222.7 426.8,226.6 440.5,217.2 454.2,217.0 467.8,216.4 481.5,217.2 495.2,218.8 508.8,217.4 522.5,219.7 536.2,219.8 549.8,218.8 563.5,218.8 577.2,217.4 590.8,217.6 604.5,218.5 618.2,207.7 631.8,197.5 645.5,190.4 659.2,189.9 672.8,185.1 686.5,184.8 700.2,186.0 713.8,155.7 727.5,149.6 741.2,149.5 754.8,148.5 768.5,148.5 782.2,150.1 795.8,149.9 809.5,150.1 823.2,150.5" fill="none" stroke="#eda100" stroke-width="1.5" stroke-linejoin="round" stroke-linecap="round"/>
<polyline points="16.8,184.4 30.5,191.6 44.2,196.5 57.8,203.4 71.5,208.4 85.2,211.2 98.8,214.1 112.5,219.8 126.2,228.0 139.8,234.5 153.5,239.3 167.2,245.2 180.8,249.1 194.5,253.8 208.2,260.3 221.8,257.4 235.5,256.4 249.2,260.1 262.8,263.7 276.5,265.5 290.2,264.4 303.8,263.9 317.5,264.7 331.2,265.9 344.8,265.8 358.5,265.5 372.2,265.9 385.8,266.4 399.5,267.0 413.2,265.8 426.8,266.8 440.5,263.5 454.2,263.4 467.8,261.9 481.5,261.0 495.2,262.5 508.8,265.7 522.5,263.9 536.2,261.8 549.8,261.2 563.5,261.2 577.2,260.4 590.8,260.5 604.5,258.4 618.2,255.3 631.8,252.7 645.5,250.0 659.2,248.9 672.8,250.7 686.5,253.0 700.2,254.7 713.8,249.3 727.5,246.2 741.2,246.0 754.8,244.2 768.5,244.0 782.2,242.9 795.8,243.2 809.5,244.1 823.2,245.6" fill="none" stroke="#2a78d6" stroke-width="1.5" stroke-linejoin="round" stroke-linecap="round"/>
<polyline points="16.8,289.5 30.5,299.6 44.2,304.6 57.8,312.1 71.5,318.4 85.2,322.1 98.8,325.5 112.5,328.2 126.2,327.1 139.8,326.6 153.5,317.3 167.2,315.8 180.8,312.9 194.5,313.1 208.2,304.6 221.8,297.1 235.5,296.0 249.2,304.6 262.8,307.5 276.5,305.3 290.2,304.9 303.8,304.3 317.5,304.1 331.2,307.4 344.8,307.4 358.5,307.7 372.2,307.5 385.8,307.9 399.5,309.4 413.2,309.0 426.8,306.9 440.5,309.7 454.2,309.7 467.8,307.5 481.5,304.9 495.2,306.2 508.8,313.9 522.5,308.2 536.2,303.8 549.8,303.7 563.5,303.7 577.2,303.4 590.8,303.5 604.5,298.4 618.2,302.8 631.8,307.9 645.5,309.7 659.2,307.9 672.8,316.3 686.5,321.2 700.2,323.3 713.8,342.8 727.5,342.8 741.2,342.5 754.8,339.9 768.5,339.5 782.2,335.7 795.8,336.5 809.5,338.0 823.2,340.6" fill="none" stroke="#e87ba4" stroke-width="1.5" stroke-linejoin="round" stroke-linecap="round"/>
<polyline points="16.8,240.9 30.5,256.5 44.2,247.7 57.8,248.2 71.5,252.2 85.2,255.4 98.8,258.7 112.5,257.4 126.2,258.0 139.8,262.0 153.5,255.2 167.2,257.3 180.8,258.7 194.5,263.9 208.2,268.5 221.8,264.4 235.5,261.2 249.2,273.4 262.8,275.9 276.5,276.5 290.2,271.4 303.8,266.9 317.5,268.5 331.2,275.1 344.8,268.5 358.5,260.7 372.2,259.9 385.8,262.9 399.5,266.7 413.2,265.4 426.8,257.7 440.5,250.6 454.2,252.5 467.8,252.5 481.5,253.3 495.2,251.5 508.8,260.7 522.5,265.4 536.2,271.1 549.8,270.3 563.5,269.3 577.2,265.2 590.8,262.9 604.5,254.5 618.2,243.7 631.8,234.7 645.5,228.1 659.2,227.7 672.8,238.9 686.5,243.7 700.2,246.9 713.8,233.4 727.5,233.9 741.2,240.9 754.8,239.8 768.5,232.3 782.2,231.8 795.8,232.6 809.5,256.3 823.2,268.4" fill="none" stroke="#4a3aa7" stroke-width="1.5" stroke-linejoin="round" stroke-linecap="round"/>
<rect x="13.1" y="223.3" width="7.5" height="45.5" fill="#008300"/>
<rect x="26.7" y="268.8" width="7.5" height="2.2" fill="#008300"/>
<rect x="40.4" y="243.3" width="7.5" height="27.8" fill="none" stroke="#e34948" stroke-width="1.3"/>
<rect x="54.1" y="243.3" width="7.5" height="27.8" fill="#008300"/>
<rect x="67.7" y="263.3" width="7.5" height="7.8" fill="none" stroke="#e34948" stroke-width="1.3"/>
<rect x="81.4" y="246.6" width="7.5" height="16.7" fill="none" stroke="#e34948" stroke-width="1.3"/>
<rect x="95.1" y="246.6" width="7.5" height="1.2" fill="#898781"/>
<rect x="108.7" y="246.6" width="7.5" height="13.3" fill="#008300"/>
<rect x="122.4" y="259.9" width="7.5" height="15.5" fill="#008300"/>
<rect x="136.1" y="271.0" width="7.5" height="4.4" fill="none" stroke="#e34948" stroke-width="1.3"/>
<rect x="149.7" y="223.3" width="7.5" height="47.8" fill="none" stroke="#e34948" stroke-width="1.3"/>
<rect x="163.4" y="223.3" width="7.5" height="54.4" fill="#008300"/>
<rect x="177.1" y="256.6" width="7.5" height="21.1" fill="none" stroke="#e34948" stroke-width="1.3"/>
<rect x="190.7" y="256.6" width="7.5" height="26.7" fill="#008300"/>
<rect x="204.4" y="283.3" width="7.5" height="8.9" fill="#008300"/>
<rect x="218.1" y="246.6" width="7.5" height="45.5" fill="none" stroke="#e34948" stroke-width="1.3"/>
<rect x="231.7" y="246.6" width="7.5" height="2.2" fill="#008300"/>
<rect x="245.4" y="248.8" width="7.5" height="60.0" fill="#008300"/>
<rect x="259.1" y="295.5" width="7.5" height="13.3" fill="none" stroke="#e34948" stroke-width="1.3"/>
<rect x="272.7" y="259.9" width="7.5" height="35.5" fill="none" stroke="#e34948" stroke-width="1.3"/>
<rect x="286.4" y="247.7" width="7.5" height="12.2" fill="none" stroke="#e34948" stroke-width="1.3"/>
<rect x="300.1" y="247.7" width="7.5" height="13.3" fill="#008300"/>
<rect x="313.7" y="257.7" width="7.5" height="3.3" fill="none" stroke="#e34948" stroke-width="1.3"/>
<rect x="327.4" y="257.7" width="7.5" height="37.8" fill="#008300"/>
<rect x="341.1" y="262.2" width="7.5" height="33.3" fill="none" stroke="#e34948" stroke-width="1.3"/>
<rect x="354.7" y="241.1" width="7.5" height="21.1" fill="none" stroke="#e34948" stroke-width="1.3"/>
<rect x="368.4" y="241.1" width="7.5" height="13.3" fill="#008300"/>
<rect x="382.1" y="254.4" width="7.5" height="14.4" fill="#008300"/>
<rect x="395.7" y="268.8" width="7.5" height="18.9" fill="#008300"/>
<rect x="409.4" y="247.7" width="7.5" height="40.0" fill="none" stroke="#e34948" stroke-width="1.3"/>
<rect x="423.1" y="242.2" width="7.5" height="5.6" fill="none" stroke="#e34948" stroke-width="1.3"/>
<rect x="436.7" y="212.2" width="7.5" height="30.0" fill="none" stroke="#e34948" stroke-width="1.3"/>
<rect x="450.4" y="212.2" width="7.5" height="42.2" fill="#008300"/>
<rect x="464.1" y="254.4" width="7.5" height="1.2" fill="#898781"/>
<rect x="477.7" y="254.4" width="7.5" height="20.0" fill="#008300"/>
<rect x="491.4" y="274.4" width="7.5" height="1.2" fill="#008300"/>
<rect x="505.1" y="275.5" width="7.5" height="36.6" fill="#008300"/>
<rect x="518.7" y="274.4" width="7.5" height="37.8" fill="none" stroke="#e34948" stroke-width="1.3"/>
<rect x="532.4" y="253.3" width="7.5" height="21.1" fill="none" stroke="#e34948" stroke-width="1.3"/>
<rect x="546.1" y="247.7" width="7.5" height="5.6" fill="none" stroke="#e34948" stroke-width="1.3"/>
<rect x="559.7" y="247.7" width="7.5" height="1.2" fill="#898781"/>
<rect x="573.4" y="245.5" width="7.5" height="2.2" fill="none" stroke="#e34948" stroke-width="1.3"/>
<rect x="587.1" y="245.5" width="7.5" height="14.4" fill="#008300"/>
<rect x="600.7" y="253.3" width="7.5" height="6.7" fill="none" stroke="#e34948" stroke-width="1.3"/>
<rect x="614.4" y="198.9" width="7.5" height="54.4" fill="none" stroke="#e34948" stroke-width="1.3"/>
<rect x="628.1" y="190.0" width="7.5" height="8.9" fill="none" stroke="#e34948" stroke-width="1.3"/>
<rect x="641.7" y="190.0" width="7.5" height="11.1" fill="#008300"/>
<rect x="655.4" y="201.1" width="7.5" height="44.4" fill="#008300"/>
<rect x="669.1" y="245.5" width="7.5" height="78.8" fill="#008300"/>
<rect x="682.7" y="293.2" width="7.5" height="31.1" fill="none" stroke="#e34948" stroke-width="1.3"/>
<rect x="696.4" y="275.5" width="7.5" height="17.8" fill="none" stroke="#e34948" stroke-width="1.3"/>
<rect x="710.1" y="104.5" width="7.5" height="171.0" fill="none" stroke="#e34948" stroke-width="1.3"/>
<rect x="723.7" y="104.5" width="7.5" height="88.8" fill="#008300"/>
<rect x="737.4" y="193.3" width="7.5" height="56.6" fill="#008300"/>
<rect x="751.1" y="237.7" width="7.5" height="12.2" fill="none" stroke="#e34948" stroke-width="1.3"/>
<rect x="764.7" y="237.7" width="7.5" height="34.4" fill="#008300"/>
<rect x="778.4" y="272.1" width="7.5" height="17.8" fill="#008300"/>
<rect x="792.1" y="281.0" width="7.5" height="8.9" fill="none" stroke="#e34948" stroke-width="1.3"/>
<rect x="805.7" y="269.9" width="7.5" height="11.1" fill="none" stroke="#e34948" stroke-width="1.3"/>
<rect x="819.4" y="269.9" width="7.5" height="7.8" fill="#008300"/>
<circle cx="713.8" cy="104.5" r="2" fill="#52514e"/>
<line x1="713.8" y1="104.5" x2="705.8" y2="104.5" stroke="#52514e" stroke-width="1.0"/>
<text x="702.8" y="108.5" font-size="11.0" fill="#52514e" text-anchor="end">250</text>
<circle cx="672.8" cy="324.3" r="2" fill="#52514e"/>
<line x1="672.8" y1="324.3" x2="664.8" y2="324.3" stroke="#52514e" stroke-width="1.0"/>
<text x="661.8" y="328.3" font-size="11.0" fill="#52514e" text-anchor="end">52</text>
<text x="14.0" y="376.0" font-size="11.0" fill="#52514e">VOL 29 forks</text>
<text x="96.6" y="376.0" font-size="11.0" fill="#eda100">MA5:31.2</text>
<text x="155.0" y="376.0" font-size="11.0" fill="#2a78d6">MA10:33</text>
<text x="14.0" y="395.0" font-size="10" fill="#898781">53</text>
<rect x="13.1" y="457.6" width="7.5" height="12.4" fill="#008300"/>
<rect x="26.7" y="420.5" width="7.5" height="49.5" fill="#008300"/>
<rect x="40.4" y="443.7" width="7.5" height="26.3" fill="none" stroke="#e34948" stroke-width="1.1"/>
<rect x="54.1" y="392.6" width="7.5" height="77.4" fill="#008300"/>
<rect x="67.7" y="406.6" width="7.5" height="63.4" fill="none" stroke="#e34948" stroke-width="1.1"/>
<rect x="81.4" y="412.8" width="7.5" height="57.2" fill="none" stroke="#e34948" stroke-width="1.1"/>
<rect x="95.1" y="403.5" width="7.5" height="66.5" fill="#898781"/>
<rect x="108.7" y="451.4" width="7.5" height="18.6" fill="#008300"/>
<rect x="122.4" y="428.2" width="7.5" height="41.8" fill="#008300"/>
<rect x="136.1" y="429.8" width="7.5" height="40.2" fill="none" stroke="#e34948" stroke-width="1.1"/>
<rect x="149.7" y="392.6" width="7.5" height="77.4" fill="none" stroke="#e34948" stroke-width="1.1"/>
<rect x="163.4" y="449.9" width="7.5" height="20.1" fill="#008300"/>
<rect x="177.1" y="449.9" width="7.5" height="20.1" fill="none" stroke="#e34948" stroke-width="1.1"/>
<rect x="190.7" y="420.5" width="7.5" height="49.5" fill="#008300"/>
<rect x="204.4" y="443.7" width="7.5" height="26.3" fill="#008300"/>
<rect x="218.1" y="443.7" width="7.5" height="26.3" fill="none" stroke="#e34948" stroke-width="1.1"/>
<rect x="231.7" y="437.5" width="7.5" height="32.5" fill="#008300"/>
<rect x="245.4" y="418.9" width="7.5" height="51.1" fill="#008300"/>
<rect x="259.1" y="418.9" width="7.5" height="51.1" fill="none" stroke="#e34948" stroke-width="1.1"/>
<rect x="272.7" y="437.5" width="7.5" height="32.5" fill="none" stroke="#e34948" stroke-width="1.1"/>
<rect x="286.4" y="437.5" width="7.5" height="32.5" fill="none" stroke="#e34948" stroke-width="1.1"/>
<rect x="300.1" y="443.7" width="7.5" height="26.3" fill="#008300"/>
<rect x="313.7" y="415.8" width="7.5" height="54.2" fill="none" stroke="#e34948" stroke-width="1.1"/>
<rect x="327.4" y="415.8" width="7.5" height="54.2" fill="#008300"/>
<rect x="341.1" y="440.6" width="7.5" height="29.4" fill="none" stroke="#e34948" stroke-width="1.1"/>
<rect x="354.7" y="434.4" width="7.5" height="35.6" fill="none" stroke="#e34948" stroke-width="1.1"/>
<rect x="368.4" y="423.6" width="7.5" height="46.4" fill="#008300"/>
<rect x="382.1" y="453.0" width="7.5" height="17.0" fill="#008300"/>
<rect x="395.7" y="429.8" width="7.5" height="40.2" fill="#008300"/>
<rect x="409.4" y="445.2" width="7.5" height="24.8" fill="none" stroke="#e34948" stroke-width="1.1"/>
<rect x="423.1" y="440.6" width="7.5" height="29.4" fill="none" stroke="#e34948" stroke-width="1.1"/>
<rect x="436.7" y="422.0" width="7.5" height="48.0" fill="none" stroke="#e34948" stroke-width="1.1"/>
<rect x="450.4" y="412.8" width="7.5" height="57.2" fill="#008300"/>
<rect x="464.1" y="442.2" width="7.5" height="27.8" fill="#898781"/>
<rect x="477.7" y="439.1" width="7.5" height="30.9" fill="#008300"/>
<rect x="491.4" y="442.2" width="7.5" height="27.8" fill="#008300"/>
<rect x="518.7" y="432.9" width="7.5" height="37.1" fill="none" stroke="#e34948" stroke-width="1.1"/>
<rect x="532.4" y="422.0" width="7.5" height="48.0" fill="none" stroke="#e34948" stroke-width="1.1"/>
<rect x="559.7" y="453.0" width="7.5" height="17.0" fill="#898781"/>
<rect x="573.4" y="431.3" width="7.5" height="38.7" fill="none" stroke="#e34948" stroke-width="1.1"/>
<rect x="587.1" y="448.3" width="7.5" height="21.7" fill="#008300"/>
<rect x="600.7" y="448.3" width="7.5" height="21.7" fill="none" stroke="#e34948" stroke-width="1.1"/>
<rect x="614.4" y="437.5" width="7.5" height="32.5" fill="none" stroke="#e34948" stroke-width="1.1"/>
<rect x="628.1" y="428.2" width="7.5" height="41.8" fill="none" stroke="#e34948" stroke-width="1.1"/>
<rect x="641.7" y="401.9" width="7.5" height="68.1" fill="#008300"/>
<rect x="655.4" y="432.9" width="7.5" height="37.1" fill="#008300"/>
<rect x="669.1" y="439.1" width="7.5" height="30.9" fill="#008300"/>
<rect x="682.7" y="456.1" width="7.5" height="13.9" fill="none" stroke="#e34948" stroke-width="1.1"/>
<rect x="696.4" y="445.2" width="7.5" height="24.8" fill="none" stroke="#e34948" stroke-width="1.1"/>
<rect x="710.1" y="403.5" width="7.5" height="66.5" fill="none" stroke="#e34948" stroke-width="1.1"/>
<rect x="723.7" y="394.2" width="7.5" height="75.8" fill="#008300"/>
<rect x="737.4" y="408.1" width="7.5" height="61.9" fill="#008300"/>
<rect x="751.1" y="429.8" width="7.5" height="40.2" fill="none" stroke="#e34948" stroke-width="1.1"/>
<rect x="764.7" y="388.0" width="7.5" height="82.0" fill="#008300"/>
<rect x="778.4" y="418.9" width="7.5" height="51.1" fill="#008300"/>
<rect x="792.1" y="423.6" width="7.5" height="46.4" fill="none" stroke="#e34948" stroke-width="1.1"/>
<rect x="805.7" y="453.0" width="7.5" height="17.0" fill="none" stroke="#e34948" stroke-width="1.1"/>
<rect x="819.4" y="425.1" width="7.5" height="44.9" fill="#008300"/>
<polyline points="16.8,398.8 30.5,404.2 44.2,408.7 57.8,413.2 71.5,417.2 85.2,415.5 98.8,414.8 112.5,418.2 126.2,420.6 139.8,424.7 153.5,418.2 167.2,421.1 180.8,421.7 194.5,424.5 208.2,428.2 221.8,431.3 235.5,434.7 249.2,431.5 262.8,430.5 276.5,431.3 290.2,435.8 303.8,435.2 317.5,431.8 331.2,431.3 344.8,431.0 358.5,430.1 372.2,428.7 385.8,432.1 399.5,433.2 413.2,434.0 426.8,434.3 440.5,432.1 454.2,431.8 467.8,434.4 481.5,434.3 495.2,435.0 508.8,439.7 522.5,437.7 536.2,436.9 549.8,439.4 563.5,440.6 577.2,441.5 590.8,445.1 604.5,445.7 618.2,445.6 631.8,444.2 645.5,437.4 659.2,437.4 672.8,439.1 686.5,437.7 700.2,436.9 713.8,434.1 727.5,428.7 741.2,424.7 754.8,423.9 768.5,419.9 782.2,421.6 795.8,420.6 809.5,422.0 823.2,418.9" fill="none" stroke="#2a78d6" stroke-width="1.5" stroke-linejoin="round" stroke-linecap="round"/>
<polyline points="16.8,415.8 30.5,417.7 44.2,423.0 57.8,420.8 71.5,424.2 85.2,415.2 98.8,411.8 112.5,413.4 126.2,420.5 139.8,425.1 153.5,421.1 167.2,430.4 180.8,430.1 194.5,428.5 208.2,431.3 221.8,441.5 235.5,439.1 249.2,432.9 262.8,432.6 276.5,431.3 290.2,430.1 303.8,431.3 317.5,430.7 331.2,430.1 344.8,430.7 358.5,430.1 372.2,426.1 385.8,433.5 399.5,436.3 413.2,437.2 426.8,438.4 440.5,438.1 454.2,430.1 467.8,432.6 481.5,431.3 495.2,431.6 508.8,441.2 522.5,445.2 536.2,441.2 549.8,447.4 563.5,449.6 577.2,441.8 590.8,444.9 604.5,450.2 618.2,443.7 631.8,438.7 645.5,432.9 659.2,429.8 672.8,427.9 686.5,431.6 700.2,435.0 713.8,435.3 727.5,427.6 741.2,421.4 754.8,416.2 768.5,404.7 782.2,407.8 795.8,413.7 809.5,422.7 823.2,421.7" fill="none" stroke="#eda100" stroke-width="1.5" stroke-linejoin="round" stroke-linecap="round"/>
</svg>