<svg xmlns="http://www.w3.org/2000/svg" viewBox="0 0 840 496" width="840" height="496" font-family="-apple-system,&#39;Segoe UI&#39;,system-ui,sans-serif" role="img" aria-label="openclaw/openclaw candlestick chart">
<text x="14.0" y="20.0" font-size="15" fill="#0b0b0b" font-weight="650">openclaw/openclaw</text>
<text x="158.2" y="20.0" font-size="11.5" fill="#52514e">daily · new stars, volume = new forks</text>
<text x="805.8" y="20.0" font-size="11.0" fill="#52514e">fall</text>
<rect x="791" y="10" width="9" height="12" fill="#008300"/>
<text x="750.6" y="20.0" font-size="11.0" fill="#52514e">rise</text>
<rect x="736" y="10" width="9" height="12" fill="none" stroke="#e34948" stroke-width="1.5"/>
<text x="14.0" y="38.0" font-size="11.0" fill="#898781">last 44 days · +7,829 stars · +2,456 forks · updated 2026-07-23</text>
<rect x="10" y="66" width="820" height="290" fill="none" stroke="#e1e0d9"/>
<rect x="10" y="384" width="820" height="86" fill="none" stroke="#e1e0d9"/>
<text x="38.0" y="490.0" font-size="11.0" fill="#898781" text-anchor="middle">2026-06</text>
<line x1="401.4" y1="66.0" x2="401.4" y2="356.0" stroke="#e1e0d9" stroke-width="1.0"/>
<line x1="401.4" y1="384.0" x2="401.4" y2="470.0" stroke="#e1e0d9" stroke-width="1.0"/>
<text x="410.7" y="490.0" font-size="11.0" fill="#898781" text-anchor="middle">2026-07</text>
<text x="14.0" y="58.0" font-size="11.0" fill="#52514e">BOLL(20,2)</text>
<text x="84.5" y="58.0" font-size="11.0" fill="#eda100">UP:186.8</text>
<text x="142.9" y="58.0" font-size="11.0" fill="#2a78d6">MID:123.2</text>
<text x="207.4" y="58.0" font-size="11.0" fill="#e87ba4">LOW:59.7</text>
<text x="265.8" y="58.0" font-size="11.0" fill="#4a3aa7">MA7:112.4</text>
<line x1="10.0" y1="356.0" x2="830.0" y2="356.0" stroke="#e1e0d9" stroke-width="1.0"/>
<text x="14.0" y="353.0" font-size="11.0" fill="#898781">0</text>
<line x1="10.0" y1="259.5" x2="830.0" y2="259.5" stroke="#e1e0d9" stroke-width="1.0"/>
<text x="14.0" y="256.5" font-size="11.0" fill="#898781">100</text>
<line x1="10.0" y1="163.0" x2="830.0" y2="163.0" stroke="#e1e0d9" stroke-width="1.0"/>
<text x="14.0" y="160.0" font-size="11.0" fill="#898781">200</text>
<line x1="10.0" y1="66.5" x2="830.0" y2="66.5" stroke="#e1e0d9" stroke-width="1.0"/>
<text x="14.0" y="63.5" font-size="11.0" fill="#898781">300</text>
<polyline points="373.4,79.8 392.0,83.5 410.7,94.1 429.3,95.6 448.0,96.5 466.6,96.4 485.2,98.2 503.9,105.2 522.5,91.7 541.1,92.9 559.8,91.6 578.4,91.8 597.0,92.2 615.7,92.8 634.3,96.6 653.0,100.7 671.6,106.2 690.2,109.5 708.9,111.2 727.5,113.1 746.1,120.8 764.8,135.9 783.4,147.7 802.0,164.1 820.7,175.7" fill="none" stroke="#eda100" stroke-width="1.5" stroke-linejoin="round" stroke-linecap="round"/>
<polyline points="373.4,140.1 392.0,141.3 410.7,144.6 429.3,145.2 448.0,146.6 466.6,148.4 485.2,151.7 503.9,154.6 522.5,163.8 541.1,171.1 559.8,173.8 578.4,176.3 597.0,178.6 615.7,184.2 634.3,190.5 653.0,194.7 671.6,200.7 690.2,205.1 708.9,207.5 727.5,210.0 746.1,215.0 764.8,222.0 783.4,227.7 802.0,231.9 820.7,237.1" fill="none" stroke="#2a78d6" stroke-width="1.5" stroke-linejoin="round" stroke-linecap="round"/>
<polyline points="373.4,200.4 392.0,199.1 410.7,195.1 429.3,194.9 448.0,196.6 466.6,200.4 485.2,205.1 503.9,204.0 522.5,235.9 541.1,249.4 559.8,255.9 578.4,260.7 597.0,264.9 615.7,275.6 634.3,284.4 653.0,288.7 671.6,295.2 690.2,300.7 708.9,303.9 727.5,306.8 746.1,309.2 764.8,308.2 783.4,307.8 802.0,299.7 820.7,298.4" fill="none" stroke="#e87ba4" stroke-width="1.5" stroke-linejoin="round" stroke-linecap="round"/>
<polyline points="131.1,115.4 149.8,116.4 168.4,120.6 187.0,128.3 205.7,133.2 224.3,137.2 243.0,140.5 261.6,144.4 280.2,151.0 298.9,155.3 317.5,153.7 336.1,156.5 354.8,159.0 373.4,159.5 392.0,158.1 410.7,157.2 429.3,156.3 448.0,156.1 466.6,154.7 485.2,154.7 503.9,156.9 522.5,180.6 541.1,196.5 559.8,210.0 578.4,218.0 597.0,223.5 615.7,233.3 634.3,246.8 653.0,239.2 671.6,239.6 690.2,243.1 708.9,245.9 727.5,248.8 746.1,247.6 764.8,248.2 783.4,251.7 802.0,245.7 820.7,247.5" fill="none" stroke="#4a3aa7" stroke-width="1.5" stroke-linejoin="round" stroke-linecap="round"/>
<rect x="14.2" y="98.3" width="10.3" height="257.7" fill="none" stroke="#e34948" stroke-width="1.3"/>
<rect x="32.8" y="80.0" width="10.3" height="18.3" fill="none" stroke="#e34948" stroke-width="1.3"/>
<rect x="51.5" y="80.0" width="10.3" height="41.5" fill="#008300"/>
<rect x="70.1" y="121.5" width="10.3" height="14.5" fill="#008300"/>
<rect x="88.7" y="136.0" width="10.3" height="7.7" fill="#008300"/>
<rect x="107.4" y="122.4" width="10.3" height="21.2" fill="none" stroke="#e34948" stroke-width="1.3"/>
<rect x="126.0" y="106.0" width="10.3" height="16.4" fill="none" stroke="#e34948" stroke-width="1.3"/>
<rect x="144.6" y="105.1" width="10.3" height="1.2" fill="none" stroke="#e34948" stroke-width="1.3"/>
<rect x="163.3" y="105.1" width="10.3" height="4.8" fill="#008300"/>
<rect x="181.9" y="109.9" width="10.3" height="65.6" fill="#008300"/>
<rect x="200.6" y="169.7" width="10.3" height="5.8" fill="none" stroke="#e34948" stroke-width="1.3"/>
<rect x="219.2" y="169.7" width="10.3" height="1.9" fill="#008300"/>
<rect x="237.8" y="145.6" width="10.3" height="26.1" fill="none" stroke="#e34948" stroke-width="1.3"/>
<rect x="256.5" y="133.1" width="10.3" height="12.5" fill="none" stroke="#e34948" stroke-width="1.3"/>
<rect x="275.1" y="133.1" width="10.3" height="18.3" fill="#008300"/>
<rect x="293.7" y="139.8" width="10.3" height="11.6" fill="none" stroke="#e34948" stroke-width="1.3"/>
<rect x="312.4" y="139.8" width="10.3" height="25.1" fill="#008300"/>
<rect x="331.0" y="164.9" width="10.3" height="24.1" fill="#008300"/>
<rect x="349.6" y="189.0" width="10.3" height="1.2" fill="#898781"/>
<rect x="368.3" y="149.5" width="10.3" height="39.6" fill="none" stroke="#e34948" stroke-width="1.3"/>
<rect x="386.9" y="122.4" width="10.3" height="27.0" fill="none" stroke="#e34948" stroke-width="1.3"/>
<rect x="405.6" y="122.4" width="10.3" height="23.2" fill="#008300"/>
<rect x="424.2" y="134.0" width="10.3" height="11.6" fill="none" stroke="#e34948" stroke-width="1.3"/>
<rect x="442.8" y="134.0" width="10.3" height="29.0" fill="#008300"/>
<rect x="461.5" y="163.0" width="10.3" height="16.4" fill="#008300"/>
<rect x="480.1" y="179.4" width="10.3" height="9.7" fill="#008300"/>
<rect x="498.7" y="164.9" width="10.3" height="24.1" fill="none" stroke="#e34948" stroke-width="1.3"/>
<rect x="517.4" y="164.9" width="10.3" height="123.5" fill="#008300"/>
<rect x="536.0" y="256.6" width="10.3" height="31.8" fill="none" stroke="#e34948" stroke-width="1.3"/>
<rect x="554.6" y="228.6" width="10.3" height="28.0" fill="none" stroke="#e34948" stroke-width="1.3"/>
<rect x="573.3" y="219.0" width="10.3" height="9.7" fill="none" stroke="#e34948" stroke-width="1.3"/>
<rect x="591.9" y="218.0" width="10.3" height="1.2" fill="none" stroke="#e34948" stroke-width="1.3"/>
<rect x="610.6" y="218.0" width="10.3" height="39.6" fill="#008300"/>
<rect x="629.2" y="257.6" width="10.3" height="1.9" fill="#008300"/>
<rect x="647.8" y="235.4" width="10.3" height="24.1" fill="none" stroke="#e34948" stroke-width="1.3"/>
<rect x="666.5" y="235.4" width="10.3" height="24.1" fill="#008300"/>
<rect x="685.1" y="252.7" width="10.3" height="6.8" fill="none" stroke="#e34948" stroke-width="1.3"/>
<rect x="703.7" y="238.3" width="10.3" height="14.5" fill="none" stroke="#e34948" stroke-width="1.3"/>
<rect x="722.4" y="238.3" width="10.3" height="1.2" fill="#898781"/>
<rect x="741.0" y="238.3" width="10.3" height="11.6" fill="#008300"/>
<rect x="759.6" y="249.8" width="10.3" height="13.5" fill="#008300"/>
<rect x="778.3" y="259.5" width="10.3" height="3.9" fill="none" stroke="#e34948" stroke-width="1.3"/>
<rect x="796.9" y="218.0" width="10.3" height="41.5" fill="none" stroke="#e34948" stroke-width="1.3"/>
<rect x="815.6" y="218.0" width="10.3" height="47.3" fill="#008300"/>
<circle cx="38.0" cy="80.0" r="2" fill="#52514e"/>
<line x1="38.0" y1="80.0" x2="46.0" y2="80.0" stroke="#52514e" stroke-width="1.0"/>
<text x="49.0" y="84.0" font-size="11.0" fill="#52514e">286</text>
<circle cx="19.3" cy="356.0" r="2" fill="#52514e"/>
<line x1="19.3" y1="356.0" x2="27.3" y2="356.0" stroke="#52514e" stroke-width="1.0"/>
<text x="30.3" y="350.0" font-size="11.0" fill="#52514e">0</text>
<text x="14.0" y="376.0" font-size="11.0" fill="#52514e">VOL 13 forks</text>
<text x="96.6" y="376.0" font-size="11.0" fill="#eda100">MA5:25.6</text>
<text x="155.0" y="376.0" font-size="11.0" fill="#2a78d6">MA10:31.6</text>
<text x="14.0" y="395.0" font-size="10" fill="#898781">98</text>
<rect x="14.2" y="397.2" width="10.3" height="72.8" fill="none" stroke="#e34948" stroke-width="1.1"/>
<rect x="32.8" y="393.0" width="10.3" height="77.0" fill="none" stroke="#e34948" stroke-width="1.1"/>
<rect x="51.5" y="414.8" width="10.3" height="55.2" fill="#008300"/>
<rect x="70.1" y="413.9" width="10.3" height="56.1" fill="#008300"/>
<rect x="88.7" y="426.5" width="10.3" height="43.5" fill="#008300"/>
<rect x="107.4" y="393.9" width="10.3" height="76.1" fill="none" stroke="#e34948" stroke-width="1.1"/>
<rect x="126.0" y="396.4" width="10.3" height="73.6" fill="none" stroke="#e34948" stroke-width="1.1"/>
<rect x="144.6" y="403.9" width="10.3" height="66.1" fill="none" stroke="#e34948" stroke-width="1.1"/>
<rect x="163.3" y="403.9" width="10.3" height="66.1" fill="#008300"/>
<rect x="181.9" y="422.3" width="10.3" height="47.7" fill="#008300"/>
<rect x="200.6" y="424.0" width="10.3" height="46.0" fill="none" stroke="#e34948" stroke-width="1.1"/>
<rect x="219.2" y="426.5" width="10.3" height="43.5" fill="#008300"/>
<rect x="237.8" y="408.1" width="10.3" height="61.9" fill="none" stroke="#e34948" stroke-width="1.1"/>
<rect x="256.5" y="397.2" width="10.3" height="72.8" fill="none" stroke="#e34948" stroke-width="1.1"/>
<rect x="275.1" y="388.0" width="10.3" height="82.0" fill="#008300"/>
<rect x="293.7" y="417.3" width="10.3" height="52.7" fill="none" stroke="#e34948" stroke-width="1.1"/>
<rect x="312.4" y="415.6" width="10.3" height="54.4" fill="#008300"/>
<rect x="331.0" y="420.6" width="10.3" height="49.4" fill="#008300"/>
<rect x="349.6" y="425.7" width="10.3" height="44.3" fill="#898781"/>
<rect x="368.3" y="423.1" width="10.3" height="46.9" fill="none" stroke="#e34948" stroke-width="1.1"/>
<rect x="386.9" y="407.2" width="10.3" height="62.8" fill="none" stroke="#e34948" stroke-width="1.1"/>
<rect x="405.6" y="408.1" width="10.3" height="61.9" fill="#008300"/>
<rect x="424.2" y="403.9" width="10.3" height="66.1" fill="none" stroke="#e34948" stroke-width="1.1"/>
<rect x="442.8" y="413.9" width="10.3" height="56.1" fill="#008300"/>
<rect x="461.5" y="431.5" width="10.3" height="38.5" fill="#008300"/>
<rect x="480.1" y="403.9" width="10.3" height="66.1" fill="#008300"/>
<rect x="498.7" y="413.9" width="10.3" height="56.1" fill="none" stroke="#e34948" stroke-width="1.1"/>
<rect x="517.4" y="448.2" width="10.3" height="21.8" fill="#008300"/>
<rect x="536.0" y="438.2" width="10.3" height="31.8" fill="none" stroke="#e34948" stroke-width="1.1"/>
<rect x="554.6" y="441.6" width="10.3" height="28.4" fill="none" stroke="#e34948" stroke-width="1.1"/>
<rect x="573.3" y="434.0" width="10.3" height="36.0" fill="none" stroke="#e34948" stroke-width="1.1"/>
<rect x="591.9" y="426.5" width="10.3" height="43.5" fill="none" stroke="#e34948" stroke-width="1.1"/>
<rect x="610.6" y="463.3" width="10.3" height="6.7" fill="#008300"/>
<rect x="629.2" y="443.2" width="10.3" height="26.8" fill="#008300"/>
<rect x="647.8" y="455.8" width="10.3" height="14.2" fill="none" stroke="#e34948" stroke-width="1.1"/>
<rect x="666.5" y="428.2" width="10.3" height="41.8" fill="#008300"/>
<rect x="685.1" y="435.7" width="10.3" height="34.3" fill="none" stroke="#e34948" stroke-width="1.1"/>
<rect x="703.7" y="439.0" width="10.3" height="31.0" fill="none" stroke="#e34948" stroke-width="1.1"/>
<rect x="722.4" y="434.0" width="10.3" height="36.0" fill="#898781"/>
<rect x="741.0" y="460.0" width="10.3" height="10.0" fill="#008300"/>
<rect x="759.6" y="447.4" width="10.3" height="22.6" fill="#008300"/>
<rect x="778.3" y="448.2" width="10.3" height="21.8" fill="none" stroke="#e34948" stroke-width="1.1"/>
<rect x="796.9" y="428.2" width="10.3" height="41.8" fill="none" stroke="#e34948" stroke-width="1.1"/>
<rect x="815.6" y="459.1" width="10.3" height="10.9" fill="#008300"/>
<polyline points="187.0,406.6 205.7,409.3 224.3,412.6 243.0,411.9 261.6,410.3 280.2,406.4 298.9,408.8 317.5,410.7 336.1,412.3 354.8,414.5 373.4,414.6 392.0,412.9 410.7,411.1 429.3,410.7 448.0,412.3 466.6,416.7 485.2,415.4 503.9,415.2 522.5,418.0 541.1,419.2 559.8,421.1 578.4,423.7 597.0,425.6 615.7,431.5 634.3,434.4 653.0,436.9 671.6,439.3 690.2,441.5 708.9,440.5 727.5,440.1 746.1,442.0 764.8,443.3 783.4,445.5 802.0,442.0 820.7,443.6" fill="none" stroke="#2a78d6" stroke-width="1.5" stroke-linejoin="round" stroke-linecap="round"/>
<polyline points="93.9,409.1 112.5,408.4 131.1,409.1 149.8,406.9 168.4,404.9 187.0,404.1 205.7,410.1 224.3,416.1 243.0,417.0 261.6,415.6 280.2,408.8 298.9,407.4 317.5,405.2 336.1,407.7 354.8,413.4 373.4,420.5 392.0,418.5 410.7,417.0 429.3,413.6 448.0,411.3 466.6,412.9 485.2,412.3 503.9,413.4 522.5,422.3 541.1,427.2 559.8,429.2 578.4,435.2 597.0,437.7 615.7,440.7 634.3,441.7 653.0,444.6 671.6,443.4 690.2,445.2 708.9,440.4 727.5,438.5 746.1,439.4 764.8,443.2 783.4,445.7 802.0,443.6 820.7,448.6" fill="none" stroke="#eda100" stroke-width="1.5" stroke-linejoin="round" stroke-linecap="round"/>
</svg>