<svg xmlns="http://www.w3.org/2000/svg" viewBox="0 0 840 496" width="840" height="496" font-family="-apple-system,&#39;Segoe UI&#39;,system-ui,sans-serif" role="img" aria-label="openclaw/openclaw candlestick chart">
<text x="14.0" y="20.0" font-size="15" fill="#ffffff" font-weight="650">openclaw/openclaw</text>
<text x="158.2" y="20.0" font-size="11.5" fill="#c3c2b7">daily · new stars, volume = new forks</text>
<text x="805.8" y="20.0" font-size="11.0" fill="#c3c2b7">fall</text>
<rect x="791" y="10" width="9" height="12" fill="#008300"/>
<text x="750.6" y="20.0" font-size="11.0" fill="#c3c2b7">rise</text>
<rect x="736" y="10" width="9" height="12" fill="none" stroke="#e66767" stroke-width="1.5"/>
<text x="14.0" y="38.0" font-size="11.0" fill="#898781">last 31 days · +6,365 stars · +2,048 forks · updated 2026-07-10</text>
<rect x="10" y="66" width="820" height="290" fill="none" stroke="#2c2c2a"/>
<rect x="10" y="384" width="820" height="86" fill="none" stroke="#2c2c2a"/>
<text x="38.0" y="490.0" font-size="11.0" fill="#898781" text-anchor="middle">2026-06</text>
<line x1="565.5" y1="66.0" x2="565.5" y2="356.0" stroke="#2c2c2a" stroke-width="1.0"/>
<line x1="565.5" y1="384.0" x2="565.5" y2="470.0" stroke="#2c2c2a" stroke-width="1.0"/>
<text x="578.7" y="490.0" font-size="11.0" fill="#898781" text-anchor="middle">2026-07</text>
<text x="14.0" y="58.0" font-size="11.0" fill="#c3c2b7">BOLL(20,2)</text>
<text x="84.5" y="58.0" font-size="11.0" fill="#c98500">UP:273.7</text>
<text x="142.9" y="58.0" font-size="11.0" fill="#3987e5">MID:186.2</text>
<text x="207.4" y="58.0" font-size="11.0" fill="#d55181">LOW:98.8</text>
<text x="265.8" y="58.0" font-size="11.0" fill="#9085e9">MA7:143</text>
<line x1="10.0" y1="356.0" x2="830.0" y2="356.0" stroke="#2c2c2a" stroke-width="1.0"/>
<text x="14.0" y="353.0" font-size="11.0" fill="#898781">0</text>
<line x1="10.0" y1="259.5" x2="830.0" y2="259.5" stroke="#2c2c2a" stroke-width="1.0"/>
<text x="14.0" y="256.5" font-size="11.0" fill="#898781">100</text>
<line x1="10.0" y1="163.0" x2="830.0" y2="163.0" stroke="#2c2c2a" stroke-width="1.0"/>
<text x="14.0" y="160.0" font-size="11.0" fill="#898781">200</text>
<line x1="10.0" y1="66.5" x2="830.0" y2="66.5" stroke="#2c2c2a" stroke-width="1.0"/>
<text x="14.0" y="63.5" font-size="11.0" fill="#898781">300</text>
<polyline points="525.8,79.8 552.3,83.5 578.7,94.1 605.2,95.6 631.6,96.5 658.1,96.4 684.5,98.2 711.0,105.2 737.4,91.7 763.9,92.9 790.3,91.6 816.8,91.8" fill="none" stroke="#c98500" stroke-width="1.5" stroke-linejoin="round" stroke-linecap="round"/>
<polyline points="525.8,140.1 552.3,141.3 578.7,144.6 605.2,145.2 631.6,146.6 658.1,148.4 684.5,151.7 711.0,154.6 737.4,163.8 763.9,171.1 790.3,173.8 816.8,176.3" fill="none" stroke="#3987e5" stroke-width="1.5" stroke-linejoin="round" stroke-linecap="round"/>
<polyline points="525.8,200.4 552.3,199.1 578.7,195.1 605.2,194.9 631.6,196.6 658.1,200.4 684.5,205.1 711.0,204.0 737.4,235.9 763.9,249.4 790.3,255.9 816.8,260.7" fill="none" stroke="#d55181" stroke-width="1.5" stroke-linejoin="round" stroke-linecap="round"/>
<polyline points="181.9,115.4 208.4,116.4 234.8,120.6 261.3,128.3 287.7,133.2 314.2,137.2 340.6,140.5 367.1,144.4 393.5,151.0 420.0,155.3 446.5,153.7 472.9,156.5 499.4,159.0 525.8,159.5 552.3,158.1 578.7,157.2 605.2,156.3 631.6,156.1 658.1,154.7 684.5,154.7 711.0,156.9 737.4,180.6 763.9,196.5 790.3,210.0 816.8,218.0" fill="none" stroke="#9085e9" stroke-width="1.5" stroke-linejoin="round" stroke-linecap="round"/>
<rect x="16.0" y="98.3" width="14.5" height="257.7" fill="none" stroke="#e66767" stroke-width="1.3"/>
<rect x="42.4" y="80.0" width="14.5" height="18.3" fill="none" stroke="#e66767" stroke-width="1.3"/>
<rect x="68.9" y="80.0" width="14.5" height="41.5" fill="#008300"/>
<rect x="95.3" y="121.5" width="14.5" height="14.5" fill="#008300"/>
<rect x="121.8" y="136.0" width="14.5" height="7.7" fill="#008300"/>
<rect x="148.2" y="122.4" width="14.5" height="21.2" fill="none" stroke="#e66767" stroke-width="1.3"/>
<rect x="174.7" y="106.0" width="14.5" height="16.4" fill="none" stroke="#e66767" stroke-width="1.3"/>
<rect x="201.1" y="105.1" width="14.5" height="1.2" fill="none" stroke="#e66767" stroke-width="1.3"/>
<rect x="227.6" y="105.1" width="14.5" height="4.8" fill="#008300"/>
<rect x="254.0" y="109.9" width="14.5" height="65.6" fill="#008300"/>
<rect x="280.5" y="169.7" width="14.5" height="5.8" fill="none" stroke="#e66767" stroke-width="1.3"/>
<rect x="306.9" y="169.7" width="14.5" height="1.9" fill="#008300"/>
<rect x="333.4" y="145.6" width="14.5" height="26.1" fill="none" stroke="#e66767" stroke-width="1.3"/>
<rect x="359.8" y="133.1" width="14.5" height="12.5" fill="none" stroke="#e66767" stroke-width="1.3"/>
<rect x="386.3" y="133.1" width="14.5" height="18.3" fill="#008300"/>
<rect x="412.7" y="139.8" width="14.5" height="11.6" fill="none" stroke="#e66767" stroke-width="1.3"/>
<rect x="439.2" y="139.8" width="14.5" height="25.1" fill="#008300"/>
<rect x="465.6" y="164.9" width="14.5" height="24.1" fill="#008300"/>
<rect x="492.1" y="189.0" width="14.5" height="1.2" fill="#898781"/>
<rect x="518.5" y="149.5" width="14.5" height="39.6" fill="none" stroke="#e66767" stroke-width="1.3"/>
<rect x="545.0" y="122.4" width="14.5" height="27.0" fill="none" stroke="#e66767" stroke-width="1.3"/>
<rect x="571.4" y="122.4" width="14.5" height="23.2" fill="#008300"/>
<rect x="597.9" y="134.0" width="14.5" height="11.6" fill="none" stroke="#e66767" stroke-width="1.3"/>
<rect x="624.3" y="134.0" width="14.5" height="29.0" fill="#008300"/>
<rect x="650.8" y="163.0" width="14.5" height="16.4" fill="#008300"/>
<rect x="677.2" y="179.4" width="14.5" height="9.7" fill="#008300"/>
<rect x="703.7" y="164.9" width="14.5" height="24.1" fill="none" stroke="#e66767" stroke-width="1.3"/>
<rect x="730.1" y="164.9" width="14.5" height="123.5" fill="#008300"/>
<rect x="756.6" y="256.6" width="14.5" height="31.8" fill="none" stroke="#e66767" stroke-width="1.3"/>
<rect x="783.0" y="228.6" width="14.5" height="28.0" fill="none" stroke="#e66767" stroke-width="1.3"/>
<rect x="809.5" y="219.0" width="14.5" height="9.7" fill="none" stroke="#e66767" stroke-width="1.3"/>
<circle cx="49.7" cy="80.0" r="2" fill="#c3c2b7"/>
<line x1="49.7" y1="80.0" x2="57.7" y2="80.0" stroke="#c3c2b7" stroke-width="1.0"/>
<text x="60.7" y="84.0" font-size="11.0" fill="#c3c2b7">286</text>
<circle cx="23.2" cy="356.0" r="2" fill="#c3c2b7"/>
<line x1="23.2" y1="356.0" x2="31.2" y2="356.0" stroke="#c3c2b7" stroke-width="1.0"/>
<text x="34.2" y="350.0" font-size="11.0" fill="#c3c2b7">0</text>
<text x="14.0" y="376.0" font-size="11.0" fill="#c3c2b7">VOL 43 forks</text>
<text x="96.6" y="376.0" font-size="11.0" fill="#c98500">MA5:41.6</text>
<text x="155.0" y="376.0" font-size="11.0" fill="#3987e5">MA10:55.3</text>
<text x="14.0" y="395.0" font-size="10" fill="#898781">98</text>
<rect x="16.0" y="397.2" width="14.5" height="72.8" fill="none" stroke="#e66767" stroke-width="1.1"/>
<rect x="42.4" y="393.0" width="14.5" height="77.0" fill="none" stroke="#e66767" stroke-width="1.1"/>
<rect x="68.9" y="414.8" width="14.5" height="55.2" fill="#008300"/>
<rect x="95.3" y="413.9" width="14.5" height="56.1" fill="#008300"/>
<rect x="121.8" y="426.5" width="14.5" height="43.5" fill="#008300"/>
<rect x="148.2" y="393.9" width="14.5" height="76.1" fill="none" stroke="#e66767" stroke-width="1.1"/>
<rect x="174.7" y="396.4" width="14.5" height="73.6" fill="none" stroke="#e66767" stroke-width="1.1"/>
<rect x="201.1" y="403.9" width="14.5" height="66.1" fill="none" stroke="#e66767" stroke-width="1.1"/>
<rect x="227.6" y="403.9" width="14.5" height="66.1" fill="#008300"/>
<rect x="254.0" y="422.3" width="14.5" height="47.7" fill="#008300"/>
<rect x="280.5" y="424.0" width="14.5" height="46.0" fill="none" stroke="#e66767" stroke-width="1.1"/>
<rect x="306.9" y="426.5" width="14.5" height="43.5" fill="#008300"/>
<rect x="333.4" y="408.1" width="14.5" height="61.9" fill="none" stroke="#e66767" stroke-width="1.1"/>
<rect x="359.8" y="397.2" width="14.5" height="72.8" fill="none" stroke="#e66767" stroke-width="1.1"/>
<rect x="386.3" y="388.0" width="14.5" height="82.0" fill="#008300"/>
<rect x="412.7" y="417.3" width="14.5" height="52.7" fill="none" stroke="#e66767" stroke-width="1.1"/>
<rect x="439.2" y="415.6" width="14.5" height="54.4" fill="#008300"/>
<rect x="465.6" y="420.6" width="14.5" height="49.4" fill="#008300"/>
<rect x="492.1" y="425.7" width="14.5" height="44.3" fill="#898781"/>
<rect x="518.5" y="423.1" width="14.5" height="46.9" fill="none" stroke="#e66767" stroke-width="1.1"/>
<rect x="545.0" y="407.2" width="14.5" height="62.8" fill="none" stroke="#e66767" stroke-width="1.1"/>
<rect x="571.4" y="408.1" width="14.5" height="61.9" fill="#008300"/>
<rect x="597.9" y="403.9" width="14.5" height="66.1" fill="none" stroke="#e66767" stroke-width="1.1"/>
<rect x="624.3" y="413.9" width="14.5" height="56.1" fill="#008300"/>
<rect x="650.8" y="431.5" width="14.5" height="38.5" fill="#008300"/>
<rect x="677.2" y="403.9" width="14.5" height="66.1" fill="#008300"/>
<rect x="703.7" y="413.9" width="14.5" height="56.1" fill="none" stroke="#e66767" stroke-width="1.1"/>
<rect x="730.1" y="448.2" width="14.5" height="21.8" fill="#008300"/>
<rect x="756.6" y="438.2" width="14.5" height="31.8" fill="none" stroke="#e66767" stroke-width="1.1"/>
<rect x="783.0" y="441.6" width="14.5" height="28.4" fill="none" stroke="#e66767" stroke-width="1.1"/>
<rect x="809.5" y="434.0" width="14.5" height="36.0" fill="none" stroke="#e66767" stroke-width="1.1"/>
<polyline points="261.3,406.6 287.7,409.3 314.2,412.6 340.6,411.9 367.1,410.3 393.5,406.4 420.0,408.8 446.5,410.7 472.9,412.3 499.4,414.5 525.8,414.6 552.3,412.9 578.7,411.1 605.2,410.7 631.6,412.3 658.1,416.7 684.5,415.4 711.0,415.2 737.4,418.0 763.9,419.2 790.3,421.1 816.8,423.7" fill="none" stroke="#3987e5" stroke-width="1.5" stroke-linejoin="round" stroke-linecap="round"/>
<polyline points="129.0,409.1 155.5,408.4 181.9,409.1 208.4,406.9 234.8,404.9 261.3,404.1 287.7,410.1 314.2,416.1 340.6,417.0 367.1,415.6 393.5,408.8 420.0,407.4 446.5,405.2 472.9,407.7 499.4,413.4 525.8,420.5 552.3,418.5 578.7,417.0 605.2,413.6 631.6,411.3 658.1,412.9 684.5,412.3 711.0,413.4 737.4,422.3 763.9,427.2 790.3,429.2 816.8,435.2" fill="none" stroke="#c98500" stroke-width="1.5" stroke-linejoin="round" stroke-linecap="round"/>
</svg>