<svg xmlns="http://www.w3.org/2000/svg" viewBox="0 0 840 496" width="840" height="496" font-family="-apple-system,&#39;Segoe UI&#39;,system-ui,sans-serif" role="img" aria-label="openclaw/openclaw candlestick chart">
<text x="14.0" y="20.0" font-size="15" fill="#ffffff" font-weight="650">openclaw/openclaw</text>
<text x="158.2" y="20.0" font-size="11.5" fill="#c3c2b7">daily · new stars, volume = new forks</text>
<text x="805.8" y="20.0" font-size="11.0" fill="#c3c2b7">fall</text>
<rect x="791" y="10" width="9" height="12" fill="#008300"/>
<text x="750.6" y="20.0" font-size="11.0" fill="#c3c2b7">rise</text>
<rect x="736" y="10" width="9" height="12" fill="none" stroke="#e66767" stroke-width="1.5"/>
<text x="14.0" y="38.0" font-size="11.0" fill="#898781">last 28 days · +5,988 stars · +1,933 forks · updated 2026-07-07</text>
<rect x="10" y="66" width="820" height="290" fill="none" stroke="#2c2c2a"/>
<rect x="10" y="384" width="820" height="86" fill="none" stroke="#2c2c2a"/>
<text x="38.0" y="490.0" font-size="11.0" fill="#898781" text-anchor="middle">2026-06</text>
<line x1="625.0" y1="66.0" x2="625.0" y2="356.0" stroke="#2c2c2a" stroke-width="1.0"/>
<line x1="625.0" y1="384.0" x2="625.0" y2="470.0" stroke="#2c2c2a" stroke-width="1.0"/>
<text x="639.6" y="490.0" font-size="11.0" fill="#898781" text-anchor="middle">2026-07</text>
<text x="14.0" y="58.0" font-size="11.0" fill="#c3c2b7">BOLL(20,2)</text>
<text x="84.5" y="58.0" font-size="11.0" fill="#c98500">UP:273.8</text>
<text x="142.9" y="58.0" font-size="11.0" fill="#3987e5">MID:199.2</text>
<text x="207.4" y="58.0" font-size="11.0" fill="#d55181">LOW:124.5</text>
<text x="271.8" y="58.0" font-size="11.0" fill="#9085e9">MA7:181.7</text>
<line x1="10.0" y1="356.0" x2="830.0" y2="356.0" stroke="#2c2c2a" stroke-width="1.0"/>
<text x="14.0" y="353.0" font-size="11.0" fill="#898781">0</text>
<line x1="10.0" y1="259.5" x2="830.0" y2="259.5" stroke="#2c2c2a" stroke-width="1.0"/>
<text x="14.0" y="256.5" font-size="11.0" fill="#898781">100</text>
<line x1="10.0" y1="163.0" x2="830.0" y2="163.0" stroke="#2c2c2a" stroke-width="1.0"/>
<text x="14.0" y="160.0" font-size="11.0" fill="#898781">200</text>
<line x1="10.0" y1="66.5" x2="830.0" y2="66.5" stroke="#2c2c2a" stroke-width="1.0"/>
<text x="14.0" y="63.5" font-size="11.0" fill="#898781">300</text>
<polyline points="581.1,79.8 610.4,83.5 639.6,94.1 668.9,95.6 698.2,96.5 727.5,96.4 756.8,98.2 786.1,105.2 815.4,91.7" fill="none" stroke="#c98500" stroke-width="1.5" stroke-linejoin="round" stroke-linecap="round"/>
<polyline points="581.1,140.1 610.4,141.3 639.6,144.6 668.9,145.2 698.2,146.6 727.5,148.4 756.8,151.7 786.1,154.6 815.4,163.8" fill="none" stroke="#3987e5" stroke-width="1.5" stroke-linejoin="round" stroke-linecap="round"/>
<polyline points="581.1,200.4 610.4,199.1 639.6,195.1 668.9,194.9 698.2,196.6 727.5,200.4 756.8,205.1 786.1,204.0 815.4,235.9" fill="none" stroke="#d55181" stroke-width="1.5" stroke-linejoin="round" stroke-linecap="round"/>
<polyline points="200.4,115.4 229.6,116.4 258.9,120.6 288.2,128.3 317.5,133.2 346.8,137.2 376.1,140.5 405.4,144.4 434.6,151.0 463.9,155.3 493.2,153.7 522.5,156.5 551.8,159.0 581.1,159.5 610.4,158.1 639.6,157.2 668.9,156.3 698.2,156.1 727.5,154.7 756.8,154.7 786.1,156.9 815.4,180.6" fill="none" stroke="#9085e9" stroke-width="1.5" stroke-linejoin="round" stroke-linecap="round"/>
<rect x="16.6" y="98.3" width="16.1" height="257.7" fill="none" stroke="#e66767" stroke-width="1.3"/>
<rect x="45.9" y="80.0" width="16.1" height="18.3" fill="none" stroke="#e66767" stroke-width="1.3"/>
<rect x="75.2" y="80.0" width="16.1" height="41.5" fill="#008300"/>
<rect x="104.4" y="121.5" width="16.1" height="14.5" fill="#008300"/>
<rect x="133.7" y="136.0" width="16.1" height="7.7" fill="#008300"/>
<rect x="163.0" y="122.4" width="16.1" height="21.2" fill="none" stroke="#e66767" stroke-width="1.3"/>
<rect x="192.3" y="106.0" width="16.1" height="16.4" fill="none" stroke="#e66767" stroke-width="1.3"/>
<rect x="221.6" y="105.1" width="16.1" height="1.2" fill="none" stroke="#e66767" stroke-width="1.3"/>
<rect x="250.9" y="105.1" width="16.1" height="4.8" fill="#008300"/>
<rect x="280.2" y="109.9" width="16.1" height="65.6" fill="#008300"/>
<rect x="309.4" y="169.7" width="16.1" height="5.8" fill="none" stroke="#e66767" stroke-width="1.3"/>
<rect x="338.7" y="169.7" width="16.1" height="1.9" fill="#008300"/>
<rect x="368.0" y="145.6" width="16.1" height="26.1" fill="none" stroke="#e66767" stroke-width="1.3"/>
<rect x="397.3" y="133.1" width="16.1" height="12.5" fill="none" stroke="#e66767" stroke-width="1.3"/>
<rect x="426.6" y="133.1" width="16.1" height="18.3" fill="#008300"/>
<rect x="455.9" y="139.8" width="16.1" height="11.6" fill="none" stroke="#e66767" stroke-width="1.3"/>
<rect x="485.2" y="139.8" width="16.1" height="25.1" fill="#008300"/>
<rect x="514.4" y="164.9" width="16.1" height="24.1" fill="#008300"/>
<rect x="543.7" y="189.0" width="16.1" height="1.2" fill="#898781"/>
<rect x="573.0" y="149.5" width="16.1" height="39.6" fill="none" stroke="#e66767" stroke-width="1.3"/>
<rect x="602.3" y="122.4" width="16.1" height="27.0" fill="none" stroke="#e66767" stroke-width="1.3"/>
<rect x="631.6" y="122.4" width="16.1" height="23.2" fill="#008300"/>
<rect x="660.9" y="134.0" width="16.1" height="11.6" fill="none" stroke="#e66767" stroke-width="1.3"/>
<rect x="690.2" y="134.0" width="16.1" height="29.0" fill="#008300"/>
<rect x="719.4" y="163.0" width="16.1" height="16.4" fill="#008300"/>
<rect x="748.7" y="179.4" width="16.1" height="9.7" fill="#008300"/>
<rect x="778.0" y="164.9" width="16.1" height="24.1" fill="none" stroke="#e66767" stroke-width="1.3"/>
<rect x="807.3" y="164.9" width="16.1" height="123.5" fill="#008300"/>
<circle cx="53.9" cy="80.0" r="2" fill="#c3c2b7"/>
<line x1="53.9" y1="80.0" x2="61.9" y2="80.0" stroke="#c3c2b7" stroke-width="1.0"/>
<text x="64.9" y="84.0" font-size="11.0" fill="#c3c2b7">286</text>
<circle cx="24.6" cy="356.0" r="2" fill="#c3c2b7"/>
<line x1="24.6" y1="356.0" x2="32.6" y2="356.0" stroke="#c3c2b7" stroke-width="1.0"/>
<text x="35.6" y="350.0" font-size="11.0" fill="#c3c2b7">0</text>
<text x="14.0" y="376.0" font-size="11.0" fill="#c3c2b7">VOL 26 forks</text>
<text x="96.6" y="376.0" font-size="11.0" fill="#c98500">MA5:57</text>
<text x="142.9" y="376.0" font-size="11.0" fill="#3987e5">MA10:62.2</text>
<text x="14.0" y="395.0" font-size="10" fill="#898781">98</text>
<rect x="16.6" y="397.2" width="16.1" height="72.8" fill="none" stroke="#e66767" stroke-width="1.1"/>
<rect x="45.9" y="393.0" width="16.1" height="77.0" fill="none" stroke="#e66767" stroke-width="1.1"/>
<rect x="75.2" y="414.8" width="16.1" height="55.2" fill="#008300"/>
<rect x="104.4" y="413.9" width="16.1" height="56.1" fill="#008300"/>
<rect x="133.7" y="426.5" width="16.1" height="43.5" fill="#008300"/>
<rect x="163.0" y="393.9" width="16.1" height="76.1" fill="none" stroke="#e66767" stroke-width="1.1"/>
<rect x="192.3" y="396.4" width="16.1" height="73.6" fill="none" stroke="#e66767" stroke-width="1.1"/>
<rect x="221.6" y="403.9" width="16.1" height="66.1" fill="none" stroke="#e66767" stroke-width="1.1"/>
<rect x="250.9" y="403.9" width="16.1" height="66.1" fill="#008300"/>
<rect x="280.2" y="422.3" width="16.1" height="47.7" fill="#008300"/>
<rect x="309.4" y="424.0" width="16.1" height="46.0" fill="none" stroke="#e66767" stroke-width="1.1"/>
<rect x="338.7" y="426.5" width="16.1" height="43.5" fill="#008300"/>
<rect x="368.0" y="408.1" width="16.1" height="61.9" fill="none" stroke="#e66767" stroke-width="1.1"/>
<rect x="397.3" y="397.2" width="16.1" height="72.8" fill="none" stroke="#e66767" stroke-width="1.1"/>
<rect x="426.6" y="388.0" width="16.1" height="82.0" fill="#008300"/>
<rect x="455.9" y="417.3" width="16.1" height="52.7" fill="none" stroke="#e66767" stroke-width="1.1"/>
<rect x="485.2" y="415.6" width="16.1" height="54.4" fill="#008300"/>
<rect x="514.4" y="420.6" width="16.1" height="49.4" fill="#008300"/>
<rect x="543.7" y="425.7" width="16.1" height="44.3" fill="#898781"/>
<rect x="573.0" y="423.1" width="16.1" height="46.9" fill="none" stroke="#e66767" stroke-width="1.1"/>
<rect x="602.3" y="407.2" width="16.1" height="62.8" fill="none" stroke="#e66767" stroke-width="1.1"/>
<rect x="631.6" y="408.1" width="16.1" height="61.9" fill="#008300"/>
<rect x="660.9" y="403.9" width="16.1" height="66.1" fill="none" stroke="#e66767" stroke-width="1.1"/>
<rect x="690.2" y="413.9" width="16.1" height="56.1" fill="#008300"/>
<rect x="719.4" y="431.5" width="16.1" height="38.5" fill="#008300"/>
<rect x="748.7" y="403.9" width="16.1" height="66.1" fill="#008300"/>
<rect x="778.0" y="413.9" width="16.1" height="56.1" fill="none" stroke="#e66767" stroke-width="1.1"/>
<rect x="807.3" y="448.2" width="16.1" height="21.8" fill="#008300"/>
<polyline points="288.2,406.6 317.5,409.3 346.8,412.6 376.1,411.9 405.4,410.3 434.6,406.4 463.9,408.8 493.2,410.7 522.5,412.3 551.8,414.5 581.1,414.6 610.4,412.9 639.6,411.1 668.9,410.7 698.2,412.3 727.5,416.7 756.8,415.4 786.1,415.2 815.4,418.0" fill="none" stroke="#3987e5" stroke-width="1.5" stroke-linejoin="round" stroke-linecap="round"/>
<polyline points="141.8,409.1 171.1,408.4 200.4,409.1 229.6,406.9 258.9,404.9 288.2,404.1 317.5,410.1 346.8,416.1 376.1,417.0 405.4,415.6 434.6,408.8 463.9,407.4 493.2,405.2 522.5,407.7 551.8,413.4 581.1,420.5 610.4,418.5 639.6,417.0 668.9,413.6 698.2,411.3 727.5,412.9 756.8,412.3 786.1,413.4 815.4,422.3" fill="none" stroke="#c98500" stroke-width="1.5" stroke-linejoin="round" stroke-linecap="round"/>
</svg>