<svg xmlns="http://www.w3.org/2000/svg" viewBox="0 0 840 496" width="840" height="496" font-family="-apple-system,&#39;Segoe UI&#39;,system-ui,sans-serif" role="img" aria-label="openclaw/openclaw candlestick chart">
<text x="14.0" y="20.0" font-size="15" fill="#ffffff" font-weight="650">openclaw/openclaw</text>
<text x="158.2" y="20.0" font-size="11.5" fill="#c3c2b7">daily · new stars, volume = new forks</text>
<text x="805.8" y="20.0" font-size="11.0" fill="#c3c2b7">fall</text>
<rect x="791" y="10" width="9" height="12" fill="#008300"/>
<text x="750.6" y="20.0" font-size="11.0" fill="#c3c2b7">rise</text>
<rect x="736" y="10" width="9" height="12" fill="none" stroke="#e66767" stroke-width="1.5"/>
<text x="14.0" y="38.0" font-size="11.0" fill="#898781">last 32 days · +6,508 stars · +2,100 forks · updated 2026-07-11</text>
<rect x="10" y="66" width="820" height="290" fill="none" stroke="#2c2c2a"/>
<rect x="10" y="384" width="820" height="86" fill="none" stroke="#2c2c2a"/>
<text x="38.0" y="490.0" font-size="11.0" fill="#898781" text-anchor="middle">2026-06</text>
<line x1="548.1" y1="66.0" x2="548.1" y2="356.0" stroke="#2c2c2a" stroke-width="1.0"/>
<line x1="548.1" y1="384.0" x2="548.1" y2="470.0" stroke="#2c2c2a" stroke-width="1.0"/>
<text x="560.9" y="490.0" font-size="11.0" fill="#898781" text-anchor="middle">2026-07</text>
<text x="14.0" y="58.0" font-size="11.0" fill="#c3c2b7">BOLL(20,2)</text>
<text x="84.5" y="58.0" font-size="11.0" fill="#c98500">UP:273.3</text>
<text x="142.9" y="58.0" font-size="11.0" fill="#3987e5">MID:183.8</text>
<text x="207.4" y="58.0" font-size="11.0" fill="#d55181">LOW:94.4</text>
<text x="265.8" y="58.0" font-size="11.0" fill="#9085e9">MA7:137.3</text>
<line x1="10.0" y1="356.0" x2="830.0" y2="356.0" stroke="#2c2c2a" stroke-width="1.0"/>
<text x="14.0" y="353.0" font-size="11.0" fill="#898781">0</text>
<line x1="10.0" y1="259.5" x2="830.0" y2="259.5" stroke="#2c2c2a" stroke-width="1.0"/>
<text x="14.0" y="256.5" font-size="11.0" fill="#898781">100</text>
<line x1="10.0" y1="163.0" x2="830.0" y2="163.0" stroke="#2c2c2a" stroke-width="1.0"/>
<text x="14.0" y="160.0" font-size="11.0" fill="#898781">200</text>
<line x1="10.0" y1="66.5" x2="830.0" y2="66.5" stroke="#2c2c2a" stroke-width="1.0"/>
<text x="14.0" y="63.5" font-size="11.0" fill="#898781">300</text>
<polyline points="509.7,79.8 535.3,83.5 560.9,94.1 586.6,95.6 612.2,96.5 637.8,96.4 663.4,98.2 689.1,105.2 714.7,91.7 740.3,92.9 765.9,91.6 791.6,91.8 817.2,92.2" fill="none" stroke="#c98500" stroke-width="1.5" stroke-linejoin="round" stroke-linecap="round"/>
<polyline points="509.7,140.1 535.3,141.3 560.9,144.6 586.6,145.2 612.2,146.6 637.8,148.4 663.4,151.7 689.1,154.6 714.7,163.8 740.3,171.1 765.9,173.8 791.6,176.3 817.2,178.6" fill="none" stroke="#3987e5" stroke-width="1.5" stroke-linejoin="round" stroke-linecap="round"/>
<polyline points="509.7,200.4 535.3,199.1 560.9,195.1 586.6,194.9 612.2,196.6 637.8,200.4 663.4,205.1 689.1,204.0 714.7,235.9 740.3,249.4 765.9,255.9 791.6,260.7 817.2,264.9" fill="none" stroke="#d55181" stroke-width="1.5" stroke-linejoin="round" stroke-linecap="round"/>
<polyline points="176.6,115.4 202.2,116.4 227.8,120.6 253.4,128.3 279.1,133.2 304.7,137.2 330.3,140.5 355.9,144.4 381.6,151.0 407.2,155.3 432.8,153.7 458.4,156.5 484.1,159.0 509.7,159.5 535.3,158.1 560.9,157.2 586.6,156.3 612.2,156.1 637.8,154.7 663.4,154.7 689.1,156.9 714.7,180.6 740.3,196.5 765.9,210.0 791.6,218.0 817.2,223.5" fill="none" stroke="#9085e9" stroke-width="1.5" stroke-linejoin="round" stroke-linecap="round"/>
<rect x="15.8" y="98.3" width="14.1" height="257.7" fill="none" stroke="#e66767" stroke-width="1.3"/>
<rect x="41.4" y="80.0" width="14.1" height="18.3" fill="none" stroke="#e66767" stroke-width="1.3"/>
<rect x="67.0" y="80.0" width="14.1" height="41.5" fill="#008300"/>
<rect x="92.6" y="121.5" width="14.1" height="14.5" fill="#008300"/>
<rect x="118.3" y="136.0" width="14.1" height="7.7" fill="#008300"/>
<rect x="143.9" y="122.4" width="14.1" height="21.2" fill="none" stroke="#e66767" stroke-width="1.3"/>
<rect x="169.5" y="106.0" width="14.1" height="16.4" fill="none" stroke="#e66767" stroke-width="1.3"/>
<rect x="195.1" y="105.1" width="14.1" height="1.2" fill="none" stroke="#e66767" stroke-width="1.3"/>
<rect x="220.8" y="105.1" width="14.1" height="4.8" fill="#008300"/>
<rect x="246.4" y="109.9" width="14.1" height="65.6" fill="#008300"/>
<rect x="272.0" y="169.7" width="14.1" height="5.8" fill="none" stroke="#e66767" stroke-width="1.3"/>
<rect x="297.6" y="169.7" width="14.1" height="1.9" fill="#008300"/>
<rect x="323.3" y="145.6" width="14.1" height="26.1" fill="none" stroke="#e66767" stroke-width="1.3"/>
<rect x="348.9" y="133.1" width="14.1" height="12.5" fill="none" stroke="#e66767" stroke-width="1.3"/>
<rect x="374.5" y="133.1" width="14.1" height="18.3" fill="#008300"/>
<rect x="400.1" y="139.8" width="14.1" height="11.6" fill="none" stroke="#e66767" stroke-width="1.3"/>
<rect x="425.8" y="139.8" width="14.1" height="25.1" fill="#008300"/>
<rect x="451.4" y="164.9" width="14.1" height="24.1" fill="#008300"/>
<rect x="477.0" y="189.0" width="14.1" height="1.2" fill="#898781"/>
<rect x="502.6" y="149.5" width="14.1" height="39.6" fill="none" stroke="#e66767" stroke-width="1.3"/>
<rect x="528.3" y="122.4" width="14.1" height="27.0" fill="none" stroke="#e66767" stroke-width="1.3"/>
<rect x="553.9" y="122.4" width="14.1" height="23.2" fill="#008300"/>
<rect x="579.5" y="134.0" width="14.1" height="11.6" fill="none" stroke="#e66767" stroke-width="1.3"/>
<rect x="605.1" y="134.0" width="14.1" height="29.0" fill="#008300"/>
<rect x="630.8" y="163.0" width="14.1" height="16.4" fill="#008300"/>
<rect x="656.4" y="179.4" width="14.1" height="9.7" fill="#008300"/>
<rect x="682.0" y="164.9" width="14.1" height="24.1" fill="none" stroke="#e66767" stroke-width="1.3"/>
<rect x="707.6" y="164.9" width="14.1" height="123.5" fill="#008300"/>
<rect x="733.3" y="256.6" width="14.1" height="31.8" fill="none" stroke="#e66767" stroke-width="1.3"/>
<rect x="758.9" y="228.6" width="14.1" height="28.0" fill="none" stroke="#e66767" stroke-width="1.3"/>
<rect x="784.5" y="219.0" width="14.1" height="9.7" fill="none" stroke="#e66767" stroke-width="1.3"/>
<rect x="810.1" y="218.0" width="14.1" height="1.2" fill="none" stroke="#e66767" stroke-width="1.3"/>
<circle cx="48.4" cy="80.0" r="2" fill="#c3c2b7"/>
<line x1="48.4" y1="80.0" x2="56.4" y2="80.0" stroke="#c3c2b7" stroke-width="1.0"/>
<text x="59.4" y="84.0" font-size="11.0" fill="#c3c2b7">286</text>
<circle cx="22.8" cy="356.0" r="2" fill="#c3c2b7"/>
<line x1="22.8" y1="356.0" x2="30.8" y2="356.0" stroke="#c3c2b7" stroke-width="1.0"/>
<text x="33.8" y="350.0" font-size="11.0" fill="#c3c2b7">0</text>
<text x="14.0" y="376.0" font-size="11.0" fill="#c3c2b7">VOL 52 forks</text>
<text x="96.6" y="376.0" font-size="11.0" fill="#c98500">MA5:38.6</text>
<text x="155.0" y="376.0" font-size="11.0" fill="#3987e5">MA10:53.1</text>
<text x="14.0" y="395.0" font-size="10" fill="#898781">98</text>
<rect x="15.8" y="397.2" width="14.1" height="72.8" fill="none" stroke="#e66767" stroke-width="1.1"/>
<rect x="41.4" y="393.0" width="14.1" height="77.0" fill="none" stroke="#e66767" stroke-width="1.1"/>
<rect x="67.0" y="414.8" width="14.1" height="55.2" fill="#008300"/>
<rect x="92.6" y="413.9" width="14.1" height="56.1" fill="#008300"/>
<rect x="118.3" y="426.5" width="14.1" height="43.5" fill="#008300"/>
<rect x="143.9" y="393.9" width="14.1" height="76.1" fill="none" stroke="#e66767" stroke-width="1.1"/>
<rect x="169.5" y="396.4" width="14.1" height="73.6" fill="none" stroke="#e66767" stroke-width="1.1"/>
<rect x="195.1" y="403.9" width="14.1" height="66.1" fill="none" stroke="#e66767" stroke-width="1.1"/>
<rect x="220.8" y="403.9" width="14.1" height="66.1" fill="#008300"/>
<rect x="246.4" y="422.3" width="14.1" height="47.7" fill="#008300"/>
<rect x="272.0" y="424.0" width="14.1" height="46.0" fill="none" stroke="#e66767" stroke-width="1.1"/>
<rect x="297.6" y="426.5" width="14.1" height="43.5" fill="#008300"/>
<rect x="323.3" y="408.1" width="14.1" height="61.9" fill="none" stroke="#e66767" stroke-width="1.1"/>
<rect x="348.9" y="397.2" width="14.1" height="72.8" fill="none" stroke="#e66767" stroke-width="1.1"/>
<rect x="374.5" y="388.0" width="14.1" height="82.0" fill="#008300"/>
<rect x="400.1" y="417.3" width="14.1" height="52.7" fill="none" stroke="#e66767" stroke-width="1.1"/>
<rect x="425.8" y="415.6" width="14.1" height="54.4" fill="#008300"/>
<rect x="451.4" y="420.6" width="14.1" height="49.4" fill="#008300"/>
<rect x="477.0" y="425.7" width="14.1" height="44.3" fill="#898781"/>
<rect x="502.6" y="423.1" width="14.1" height="46.9" fill="none" stroke="#e66767" stroke-width="1.1"/>
<rect x="528.3" y="407.2" width="14.1" height="62.8" fill="none" stroke="#e66767" stroke-width="1.1"/>
<rect x="553.9" y="408.1" width="14.1" height="61.9" fill="#008300"/>
<rect x="579.5" y="403.9" width="14.1" height="66.1" fill="none" stroke="#e66767" stroke-width="1.1"/>
<rect x="605.1" y="413.9" width="14.1" height="56.1" fill="#008300"/>
<rect x="630.8" y="431.5" width="14.1" height="38.5" fill="#008300"/>
<rect x="656.4" y="403.9" width="14.1" height="66.1" fill="#008300"/>
<rect x="682.0" y="413.9" width="14.1" height="56.1" fill="none" stroke="#e66767" stroke-width="1.1"/>
<rect x="707.6" y="448.2" width="14.1" height="21.8" fill="#008300"/>
<rect x="733.3" y="438.2" width="14.1" height="31.8" fill="none" stroke="#e66767" stroke-width="1.1"/>
<rect x="758.9" y="441.6" width="14.1" height="28.4" fill="none" stroke="#e66767" stroke-width="1.1"/>
<rect x="784.5" y="434.0" width="14.1" height="36.0" fill="none" stroke="#e66767" stroke-width="1.1"/>
<rect x="810.1" y="426.5" width="14.1" height="43.5" fill="none" stroke="#e66767" stroke-width="1.1"/>
<polyline points="253.4,406.6 279.1,409.3 304.7,412.6 330.3,411.9 355.9,410.3 381.6,406.4 407.2,408.8 432.8,410.7 458.4,412.3 484.1,414.5 509.7,414.6 535.3,412.9 560.9,411.1 586.6,410.7 612.2,412.3 637.8,416.7 663.4,415.4 689.1,415.2 714.7,418.0 740.3,419.2 765.9,421.1 791.6,423.7 817.2,425.6" fill="none" stroke="#3987e5" stroke-width="1.5" stroke-linejoin="round" stroke-linecap="round"/>
<polyline points="125.3,409.1 150.9,408.4 176.6,409.1 202.2,406.9 227.8,404.9 253.4,404.1 279.1,410.1 304.7,416.1 330.3,417.0 355.9,415.6 381.6,408.8 407.2,407.4 432.8,405.2 458.4,407.7 484.1,413.4 509.7,420.5 535.3,418.5 560.9,417.0 586.6,413.6 612.2,411.3 637.8,412.9 663.4,412.3 689.1,413.4 714.7,422.3 740.3,427.2 765.9,429.2 791.6,435.2 817.2,437.7" fill="none" stroke="#c98500" stroke-width="1.5" stroke-linejoin="round" stroke-linecap="round"/>
</svg>