<svg xmlns="http://www.w3.org/2000/svg" viewBox="0 0 840 496" width="840" height="496" font-family="-apple-system,&#39;Segoe UI&#39;,system-ui,sans-serif" role="img" aria-label="openclaw/openclaw candlestick chart">
<text x="14.0" y="20.0" font-size="15" fill="#0b0b0b" font-weight="650">openclaw/openclaw</text>
<text x="158.2" y="20.0" font-size="11.5" fill="#52514e">daily · new stars, volume = new forks</text>
<text x="805.8" y="20.0" font-size="11.0" fill="#52514e">fall</text>
<rect x="791" y="10" width="9" height="12" fill="#008300"/>
<text x="750.6" y="20.0" font-size="11.0" fill="#52514e">rise</text>
<rect x="736" y="10" width="9" height="12" fill="none" stroke="#e34948" stroke-width="1.5"/>
<text x="14.0" y="38.0" font-size="11.0" fill="#898781">last 34 days · +6,710 stars · +2,140 forks · updated 2026-07-13</text>
<rect x="10" y="66" width="820" height="290" fill="none" stroke="#e1e0d9"/>
<rect x="10" y="384" width="820" height="86" fill="none" stroke="#e1e0d9"/>
<text x="38.0" y="490.0" font-size="11.0" fill="#898781" text-anchor="middle">2026-06</text>
<line x1="516.5" y1="66.0" x2="516.5" y2="356.0" stroke="#e1e0d9" stroke-width="1.0"/>
<line x1="516.5" y1="384.0" x2="516.5" y2="470.0" stroke="#e1e0d9" stroke-width="1.0"/>
<text x="528.5" y="490.0" font-size="11.0" fill="#898781" text-anchor="middle">2026-07</text>
<text x="14.0" y="58.0" font-size="11.0" fill="#52514e">BOLL(20,2)</text>
<text x="84.5" y="58.0" font-size="11.0" fill="#eda100">UP:268.8</text>
<text x="142.9" y="58.0" font-size="11.0" fill="#2a78d6">MID:171.5</text>
<text x="207.4" y="58.0" font-size="11.0" fill="#e87ba4">LOW:74.2</text>
<text x="265.8" y="58.0" font-size="11.0" fill="#4a3aa7">MA7:113.1</text>
<line x1="10.0" y1="356.0" x2="830.0" y2="356.0" stroke="#e1e0d9" stroke-width="1.0"/>
<text x="14.0" y="353.0" font-size="11.0" fill="#898781">0</text>
<line x1="10.0" y1="259.5" x2="830.0" y2="259.5" stroke="#e1e0d9" stroke-width="1.0"/>
<text x="14.0" y="256.5" font-size="11.0" fill="#898781">100</text>
<line x1="10.0" y1="163.0" x2="830.0" y2="163.0" stroke="#e1e0d9" stroke-width="1.0"/>
<text x="14.0" y="160.0" font-size="11.0" fill="#898781">200</text>
<line x1="10.0" y1="66.5" x2="830.0" y2="66.5" stroke="#e1e0d9" stroke-width="1.0"/>
<text x="14.0" y="63.5" font-size="11.0" fill="#898781">300</text>
<polyline points="480.3,79.8 504.4,83.5 528.5,94.1 552.6,95.6 576.8,96.5 600.9,96.4 625.0,98.2 649.1,105.2 673.2,91.7 697.4,92.9 721.5,91.6 745.6,91.8 769.7,92.2 793.8,92.8 817.9,96.6" fill="none" stroke="#eda100" stroke-width="1.5" stroke-linejoin="round" stroke-linecap="round"/>
<polyline points="480.3,140.1 504.4,141.3 528.5,144.6 552.6,145.2 576.8,146.6 600.9,148.4 625.0,151.7 649.1,154.6 673.2,163.8 697.4,171.1 721.5,173.8 745.6,176.3 769.7,178.6 793.8,184.2 817.9,190.5" fill="none" stroke="#2a78d6" stroke-width="1.5" stroke-linejoin="round" stroke-linecap="round"/>
<polyline points="480.3,200.4 504.4,199.1 528.5,195.1 552.6,194.9 576.8,196.6 600.9,200.4 625.0,205.1 649.1,204.0 673.2,235.9 697.4,249.4 721.5,255.9 745.6,260.7 769.7,264.9 793.8,275.6 817.9,284.4" fill="none" stroke="#e87ba4" stroke-width="1.5" stroke-linejoin="round" stroke-linecap="round"/>
<polyline points="166.8,115.4 190.9,116.4 215.0,120.6 239.1,128.3 263.2,133.2 287.4,137.2 311.5,140.5 335.6,144.4 359.7,151.0 383.8,155.3 407.9,153.7 432.1,156.5 456.2,159.0 480.3,159.5 504.4,158.1 528.5,157.2 552.6,156.3 576.8,156.1 600.9,154.7 625.0,154.7 649.1,156.9 673.2,180.6 697.4,196.5 721.5,210.0 745.6,218.0 769.7,223.5 793.8,233.3 817.9,246.8" fill="none" stroke="#4a3aa7" stroke-width="1.5" stroke-linejoin="round" stroke-linecap="round"/>
<rect x="15.4" y="98.3" width="13.3" height="257.7" fill="none" stroke="#e34948" stroke-width="1.3"/>
<rect x="39.5" y="80.0" width="13.3" height="18.3" fill="none" stroke="#e34948" stroke-width="1.3"/>
<rect x="63.7" y="80.0" width="13.3" height="41.5" fill="#008300"/>
<rect x="87.8" y="121.5" width="13.3" height="14.5" fill="#008300"/>
<rect x="111.9" y="136.0" width="13.3" height="7.7" fill="#008300"/>
<rect x="136.0" y="122.4" width="13.3" height="21.2" fill="none" stroke="#e34948" stroke-width="1.3"/>
<rect x="160.1" y="106.0" width="13.3" height="16.4" fill="none" stroke="#e34948" stroke-width="1.3"/>
<rect x="184.2" y="105.1" width="13.3" height="1.2" fill="none" stroke="#e34948" stroke-width="1.3"/>
<rect x="208.4" y="105.1" width="13.3" height="4.8" fill="#008300"/>
<rect x="232.5" y="109.9" width="13.3" height="65.6" fill="#008300"/>
<rect x="256.6" y="169.7" width="13.3" height="5.8" fill="none" stroke="#e34948" stroke-width="1.3"/>
<rect x="280.7" y="169.7" width="13.3" height="1.9" fill="#008300"/>
<rect x="304.8" y="145.6" width="13.3" height="26.1" fill="none" stroke="#e34948" stroke-width="1.3"/>
<rect x="329.0" y="133.1" width="13.3" height="12.5" fill="none" stroke="#e34948" stroke-width="1.3"/>
<rect x="353.1" y="133.1" width="13.3" height="18.3" fill="#008300"/>
<rect x="377.2" y="139.8" width="13.3" height="11.6" fill="none" stroke="#e34948" stroke-width="1.3"/>
<rect x="401.3" y="139.8" width="13.3" height="25.1" fill="#008300"/>
<rect x="425.4" y="164.9" width="13.3" height="24.1" fill="#008300"/>
<rect x="449.5" y="189.0" width="13.3" height="1.2" fill="#898781"/>
<rect x="473.7" y="149.5" width="13.3" height="39.6" fill="none" stroke="#e34948" stroke-width="1.3"/>
<rect x="497.8" y="122.4" width="13.3" height="27.0" fill="none" stroke="#e34948" stroke-width="1.3"/>
<rect x="521.9" y="122.4" width="13.3" height="23.2" fill="#008300"/>
<rect x="546.0" y="134.0" width="13.3" height="11.6" fill="none" stroke="#e34948" stroke-width="1.3"/>
<rect x="570.1" y="134.0" width="13.3" height="29.0" fill="#008300"/>
<rect x="594.2" y="163.0" width="13.3" height="16.4" fill="#008300"/>
<rect x="618.4" y="179.4" width="13.3" height="9.7" fill="#008300"/>
<rect x="642.5" y="164.9" width="13.3" height="24.1" fill="none" stroke="#e34948" stroke-width="1.3"/>
<rect x="666.6" y="164.9" width="13.3" height="123.5" fill="#008300"/>
<rect x="690.7" y="256.6" width="13.3" height="31.8" fill="none" stroke="#e34948" stroke-width="1.3"/>
<rect x="714.8" y="228.6" width="13.3" height="28.0" fill="none" stroke="#e34948" stroke-width="1.3"/>
<rect x="739.0" y="219.0" width="13.3" height="9.7" fill="none" stroke="#e34948" stroke-width="1.3"/>
<rect x="763.1" y="218.0" width="13.3" height="1.2" fill="none" stroke="#e34948" stroke-width="1.3"/>
<rect x="787.2" y="218.0" width="13.3" height="39.6" fill="#008300"/>
<rect x="811.3" y="257.6" width="13.3" height="1.9" fill="#008300"/>
<circle cx="46.2" cy="80.0" r="2" fill="#52514e"/>
<line x1="46.2" y1="80.0" x2="54.2" y2="80.0" stroke="#52514e" stroke-width="1.0"/>
<text x="57.2" y="84.0" font-size="11.0" fill="#52514e">286</text>
<circle cx="22.1" cy="356.0" r="2" fill="#52514e"/>
<line x1="22.1" y1="356.0" x2="30.1" y2="356.0" stroke="#52514e" stroke-width="1.0"/>
<text x="33.1" y="350.0" font-size="11.0" fill="#52514e">0</text>
<text x="14.0" y="376.0" font-size="11.0" fill="#52514e">VOL 32 forks</text>
<text x="96.6" y="376.0" font-size="11.0" fill="#eda100">MA5:33.8</text>
<text x="155.0" y="376.0" font-size="11.0" fill="#2a78d6">MA10:42.5</text>
<text x="14.0" y="395.0" font-size="10" fill="#898781">98</text>
<rect x="15.4" y="397.2" width="13.3" height="72.8" fill="none" stroke="#e34948" stroke-width="1.1"/>
<rect x="39.5" y="393.0" width="13.3" height="77.0" fill="none" stroke="#e34948" stroke-width="1.1"/>
<rect x="63.7" y="414.8" width="13.3" height="55.2" fill="#008300"/>
<rect x="87.8" y="413.9" width="13.3" height="56.1" fill="#008300"/>
<rect x="111.9" y="426.5" width="13.3" height="43.5" fill="#008300"/>
<rect x="136.0" y="393.9" width="13.3" height="76.1" fill="none" stroke="#e34948" stroke-width="1.1"/>
<rect x="160.1" y="396.4" width="13.3" height="73.6" fill="none" stroke="#e34948" stroke-width="1.1"/>
<rect x="184.2" y="403.9" width="13.3" height="66.1" fill="none" stroke="#e34948" stroke-width="1.1"/>
<rect x="208.4" y="403.9" width="13.3" height="66.1" fill="#008300"/>
<rect x="232.5" y="422.3" width="13.3" height="47.7" fill="#008300"/>
<rect x="256.6" y="424.0" width="13.3" height="46.0" fill="none" stroke="#e34948" stroke-width="1.1"/>
<rect x="280.7" y="426.5" width="13.3" height="43.5" fill="#008300"/>
<rect x="304.8" y="408.1" width="13.3" height="61.9" fill="none" stroke="#e34948" stroke-width="1.1"/>
<rect x="329.0" y="397.2" width="13.3" height="72.8" fill="none" stroke="#e34948" stroke-width="1.1"/>
<rect x="353.1" y="388.0" width="13.3" height="82.0" fill="#008300"/>
<rect x="377.2" y="417.3" width="13.3" height="52.7" fill="none" stroke="#e34948" stroke-width="1.1"/>
<rect x="401.3" y="415.6" width="13.3" height="54.4" fill="#008300"/>
<rect x="425.4" y="420.6" width="13.3" height="49.4" fill="#008300"/>
<rect x="449.5" y="425.7" width="13.3" height="44.3" fill="#898781"/>
<rect x="473.7" y="423.1" width="13.3" height="46.9" fill="none" stroke="#e34948" stroke-width="1.1"/>
<rect x="497.8" y="407.2" width="13.3" height="62.8" fill="none" stroke="#e34948" stroke-width="1.1"/>
<rect x="521.9" y="408.1" width="13.3" height="61.9" fill="#008300"/>
<rect x="546.0" y="403.9" width="13.3" height="66.1" fill="none" stroke="#e34948" stroke-width="1.1"/>
<rect x="570.1" y="413.9" width="13.3" height="56.1" fill="#008300"/>
<rect x="594.2" y="431.5" width="13.3" height="38.5" fill="#008300"/>
<rect x="618.4" y="403.9" width="13.3" height="66.1" fill="#008300"/>
<rect x="642.5" y="413.9" width="13.3" height="56.1" fill="none" stroke="#e34948" stroke-width="1.1"/>
<rect x="666.6" y="448.2" width="13.3" height="21.8" fill="#008300"/>
<rect x="690.7" y="438.2" width="13.3" height="31.8" fill="none" stroke="#e34948" stroke-width="1.1"/>
<rect x="714.8" y="441.6" width="13.3" height="28.4" fill="none" stroke="#e34948" stroke-width="1.1"/>
<rect x="739.0" y="434.0" width="13.3" height="36.0" fill="none" stroke="#e34948" stroke-width="1.1"/>
<rect x="763.1" y="426.5" width="13.3" height="43.5" fill="none" stroke="#e34948" stroke-width="1.1"/>
<rect x="787.2" y="463.3" width="13.3" height="6.7" fill="#008300"/>
<rect x="811.3" y="443.2" width="13.3" height="26.8" fill="#008300"/>
<polyline points="239.1,406.6 263.2,409.3 287.4,412.6 311.5,411.9 335.6,410.3 359.7,406.4 383.8,408.8 407.9,410.7 432.1,412.3 456.2,414.5 480.3,414.6 504.4,412.9 528.5,411.1 552.6,410.7 576.8,412.3 600.9,416.7 625.0,415.4 649.1,415.2 673.2,418.0 697.4,419.2 721.5,421.1 745.6,423.7 769.7,425.6 793.8,431.5 817.9,434.4" fill="none" stroke="#2a78d6" stroke-width="1.5" stroke-linejoin="round" stroke-linecap="round"/>
<polyline points="118.5,409.1 142.6,408.4 166.8,409.1 190.9,406.9 215.0,404.9 239.1,404.1 263.2,410.1 287.4,416.1 311.5,417.0 335.6,415.6 359.7,408.8 383.8,407.4 407.9,405.2 432.1,407.7 456.2,413.4 480.3,420.5 504.4,418.5 528.5,417.0 552.6,413.6 576.8,411.3 600.9,412.9 625.0,412.3 649.1,413.4 673.2,422.3 697.4,427.2 721.5,429.2 745.6,435.2 769.7,437.7 793.8,440.7 817.9,441.7" fill="none" stroke="#eda100" stroke-width="1.5" stroke-linejoin="round" stroke-linecap="round"/>
</svg>