<svg xmlns="http://www.w3.org/2000/svg" viewBox="0 0 840 496" width="840" height="496" font-family="-apple-system,&#39;Segoe UI&#39;,system-ui,sans-serif" role="img" aria-label="openclaw/openclaw candlestick chart">
<text x="14.0" y="20.0" font-size="15" fill="#ffffff" font-weight="650">openclaw/openclaw</text>
<text x="158.2" y="20.0" font-size="11.5" fill="#c3c2b7">daily · new stars, volume = new forks</text>
<text x="805.8" y="20.0" font-size="11.0" fill="#c3c2b7">fall</text>
<rect x="791" y="10" width="9" height="12" fill="#008300"/>
<text x="750.6" y="20.0" font-size="11.0" fill="#c3c2b7">rise</text>
<rect x="736" y="10" width="9" height="12" fill="none" stroke="#e66767" stroke-width="1.5"/>
<text x="14.0" y="38.0" font-size="11.0" fill="#898781">last 36 days · +6,935 stars · +2,207 forks · updated 2026-07-15</text>
<rect x="10" y="66" width="820" height="290" fill="none" stroke="#2c2c2a"/>
<rect x="10" y="384" width="820" height="86" fill="none" stroke="#2c2c2a"/>
<text x="38.0" y="490.0" font-size="11.0" fill="#898781" text-anchor="middle">2026-06</text>
<line x1="488.3" y1="66.0" x2="488.3" y2="356.0" stroke="#2c2c2a" stroke-width="1.0"/>
<line x1="488.3" y1="384.0" x2="488.3" y2="470.0" stroke="#2c2c2a" stroke-width="1.0"/>
<text x="499.7" y="490.0" font-size="11.0" fill="#898781" text-anchor="middle">2026-07</text>
<text x="14.0" y="58.0" font-size="11.0" fill="#c3c2b7">BOLL(20,2)</text>
<text x="84.5" y="58.0" font-size="11.0" fill="#c98500">UP:258.9</text>
<text x="142.9" y="58.0" font-size="11.0" fill="#3987e5">MID:160.9</text>
<text x="207.4" y="58.0" font-size="11.0" fill="#d55181">LOW:63.0</text>
<text x="265.8" y="58.0" font-size="11.0" fill="#9085e9">MA7:120.6</text>
<line x1="10.0" y1="356.0" x2="830.0" y2="356.0" stroke="#2c2c2a" stroke-width="1.0"/>
<text x="14.0" y="353.0" font-size="11.0" fill="#898781">0</text>
<line x1="10.0" y1="259.5" x2="830.0" y2="259.5" stroke="#2c2c2a" stroke-width="1.0"/>
<text x="14.0" y="256.5" font-size="11.0" fill="#898781">100</text>
<line x1="10.0" y1="163.0" x2="830.0" y2="163.0" stroke="#2c2c2a" stroke-width="1.0"/>
<text x="14.0" y="160.0" font-size="11.0" fill="#898781">200</text>
<line x1="10.0" y1="66.5" x2="830.0" y2="66.5" stroke="#2c2c2a" stroke-width="1.0"/>
<text x="14.0" y="63.5" font-size="11.0" fill="#898781">300</text>
<polyline points="454.2,79.8 476.9,83.5 499.7,94.1 522.5,95.6 545.3,96.5 568.1,96.4 590.8,98.2 613.6,105.2 636.4,91.7 659.2,92.9 681.9,91.6 704.7,91.8 727.5,92.2 750.3,92.8 773.1,96.6 795.8,100.7 818.6,106.2" fill="none" stroke="#c98500" stroke-width="1.5" stroke-linejoin="round" stroke-linecap="round"/>
<polyline points="454.2,140.1 476.9,141.3 499.7,144.6 522.5,145.2 545.3,146.6 568.1,148.4 590.8,151.7 613.6,154.6 636.4,163.8 659.2,171.1 681.9,173.8 704.7,176.3 727.5,178.6 750.3,184.2 773.1,190.5 795.8,194.7 818.6,200.7" fill="none" stroke="#3987e5" stroke-width="1.5" stroke-linejoin="round" stroke-linecap="round"/>
<polyline points="454.2,200.4 476.9,199.1 499.7,195.1 522.5,194.9 545.3,196.6 568.1,200.4 590.8,205.1 613.6,204.0 636.4,235.9 659.2,249.4 681.9,255.9 704.7,260.7 727.5,264.9 750.3,275.6 773.1,284.4 795.8,288.7 818.6,295.2" fill="none" stroke="#d55181" stroke-width="1.5" stroke-linejoin="round" stroke-linecap="round"/>
<polyline points="158.1,115.4 180.8,116.4 203.6,120.6 226.4,128.3 249.2,133.2 271.9,137.2 294.7,140.5 317.5,144.4 340.3,151.0 363.1,155.3 385.8,153.7 408.6,156.5 431.4,159.0 454.2,159.5 476.9,158.1 499.7,157.2 522.5,156.3 545.3,156.1 568.1,154.7 590.8,154.7 613.6,156.9 636.4,180.6 659.2,196.5 681.9,210.0 704.7,218.0 727.5,223.5 750.3,233.3 773.1,246.8 795.8,239.2 818.6,239.6" fill="none" stroke="#9085e9" stroke-width="1.5" stroke-linejoin="round" stroke-linecap="round"/>
<rect x="15.1" y="98.3" width="12.5" height="257.7" fill="none" stroke="#e66767" stroke-width="1.3"/>
<rect x="37.9" y="80.0" width="12.5" height="18.3" fill="none" stroke="#e66767" stroke-width="1.3"/>
<rect x="60.7" y="80.0" width="12.5" height="41.5" fill="#008300"/>
<rect x="83.5" y="121.5" width="12.5" height="14.5" fill="#008300"/>
<rect x="106.2" y="136.0" width="12.5" height="7.7" fill="#008300"/>
<rect x="129.0" y="122.4" width="12.5" height="21.2" fill="none" stroke="#e66767" stroke-width="1.3"/>
<rect x="151.8" y="106.0" width="12.5" height="16.4" fill="none" stroke="#e66767" stroke-width="1.3"/>
<rect x="174.6" y="105.1" width="12.5" height="1.2" fill="none" stroke="#e66767" stroke-width="1.3"/>
<rect x="197.3" y="105.1" width="12.5" height="4.8" fill="#008300"/>
<rect x="220.1" y="109.9" width="12.5" height="65.6" fill="#008300"/>
<rect x="242.9" y="169.7" width="12.5" height="5.8" fill="none" stroke="#e66767" stroke-width="1.3"/>
<rect x="265.7" y="169.7" width="12.5" height="1.9" fill="#008300"/>
<rect x="288.5" y="145.6" width="12.5" height="26.1" fill="none" stroke="#e66767" stroke-width="1.3"/>
<rect x="311.2" y="133.1" width="12.5" height="12.5" fill="none" stroke="#e66767" stroke-width="1.3"/>
<rect x="334.0" y="133.1" width="12.5" height="18.3" fill="#008300"/>
<rect x="356.8" y="139.8" width="12.5" height="11.6" fill="none" stroke="#e66767" stroke-width="1.3"/>
<rect x="379.6" y="139.8" width="12.5" height="25.1" fill="#008300"/>
<rect x="402.3" y="164.9" width="12.5" height="24.1" fill="#008300"/>
<rect x="425.1" y="189.0" width="12.5" height="1.2" fill="#898781"/>
<rect x="447.9" y="149.5" width="12.5" height="39.6" fill="none" stroke="#e66767" stroke-width="1.3"/>
<rect x="470.7" y="122.4" width="12.5" height="27.0" fill="none" stroke="#e66767" stroke-width="1.3"/>
<rect x="493.5" y="122.4" width="12.5" height="23.2" fill="#008300"/>
<rect x="516.2" y="134.0" width="12.5" height="11.6" fill="none" stroke="#e66767" stroke-width="1.3"/>
<rect x="539.0" y="134.0" width="12.5" height="29.0" fill="#008300"/>
<rect x="561.8" y="163.0" width="12.5" height="16.4" fill="#008300"/>
<rect x="584.6" y="179.4" width="12.5" height="9.7" fill="#008300"/>
<rect x="607.3" y="164.9" width="12.5" height="24.1" fill="none" stroke="#e66767" stroke-width="1.3"/>
<rect x="630.1" y="164.9" width="12.5" height="123.5" fill="#008300"/>
<rect x="652.9" y="256.6" width="12.5" height="31.8" fill="none" stroke="#e66767" stroke-width="1.3"/>
<rect x="675.7" y="228.6" width="12.5" height="28.0" fill="none" stroke="#e66767" stroke-width="1.3"/>
<rect x="698.5" y="219.0" width="12.5" height="9.7" fill="none" stroke="#e66767" stroke-width="1.3"/>
<rect x="721.2" y="218.0" width="12.5" height="1.2" fill="none" stroke="#e66767" stroke-width="1.3"/>
<rect x="744.0" y="218.0" width="12.5" height="39.6" fill="#008300"/>
<rect x="766.8" y="257.6" width="12.5" height="1.9" fill="#008300"/>
<rect x="789.6" y="235.4" width="12.5" height="24.1" fill="none" stroke="#e66767" stroke-width="1.3"/>
<rect x="812.3" y="235.4" width="12.5" height="24.1" fill="#008300"/>
<circle cx="44.2" cy="80.0" r="2" fill="#c3c2b7"/>
<line x1="44.2" y1="80.0" x2="52.2" y2="80.0" stroke="#c3c2b7" stroke-width="1.0"/>
<text x="55.2" y="84.0" font-size="11.0" fill="#c3c2b7">286</text>
<circle cx="21.4" cy="356.0" r="2" fill="#c3c2b7"/>
<line x1="21.4" y1="356.0" x2="29.4" y2="356.0" stroke="#c3c2b7" stroke-width="1.0"/>
<text x="32.4" y="350.0" font-size="11.0" fill="#c3c2b7">0</text>
<text x="14.0" y="376.0" font-size="11.0" fill="#c3c2b7">VOL 50 forks</text>
<text x="96.6" y="376.0" font-size="11.0" fill="#c98500">MA5:31.8</text>
<text x="155.0" y="376.0" font-size="11.0" fill="#3987e5">MA10:36.7</text>
<text x="14.0" y="395.0" font-size="10" fill="#898781">98</text>
<rect x="15.1" y="397.2" width="12.5" height="72.8" fill="none" stroke="#e66767" stroke-width="1.1"/>
<rect x="37.9" y="393.0" width="12.5" height="77.0" fill="none" stroke="#e66767" stroke-width="1.1"/>
<rect x="60.7" y="414.8" width="12.5" height="55.2" fill="#008300"/>
<rect x="83.5" y="413.9" width="12.5" height="56.1" fill="#008300"/>
<rect x="106.2" y="426.5" width="12.5" height="43.5" fill="#008300"/>
<rect x="129.0" y="393.9" width="12.5" height="76.1" fill="none" stroke="#e66767" stroke-width="1.1"/>
<rect x="151.8" y="396.4" width="12.5" height="73.6" fill="none" stroke="#e66767" stroke-width="1.1"/>
<rect x="174.6" y="403.9" width="12.5" height="66.1" fill="none" stroke="#e66767" stroke-width="1.1"/>
<rect x="197.3" y="403.9" width="12.5" height="66.1" fill="#008300"/>
<rect x="220.1" y="422.3" width="12.5" height="47.7" fill="#008300"/>
<rect x="242.9" y="424.0" width="12.5" height="46.0" fill="none" stroke="#e66767" stroke-width="1.1"/>
<rect x="265.7" y="426.5" width="12.5" height="43.5" fill="#008300"/>
<rect x="288.5" y="408.1" width="12.5" height="61.9" fill="none" stroke="#e66767" stroke-width="1.1"/>
<rect x="311.2" y="397.2" width="12.5" height="72.8" fill="none" stroke="#e66767" stroke-width="1.1"/>
<rect x="334.0" y="388.0" width="12.5" height="82.0" fill="#008300"/>
<rect x="356.8" y="417.3" width="12.5" height="52.7" fill="none" stroke="#e66767" stroke-width="1.1"/>
<rect x="379.6" y="415.6" width="12.5" height="54.4" fill="#008300"/>
<rect x="402.3" y="420.6" width="12.5" height="49.4" fill="#008300"/>
<rect x="425.1" y="425.7" width="12.5" height="44.3" fill="#898781"/>
<rect x="447.9" y="423.1" width="12.5" height="46.9" fill="none" stroke="#e66767" stroke-width="1.1"/>
<rect x="470.7" y="407.2" width="12.5" height="62.8" fill="none" stroke="#e66767" stroke-width="1.1"/>
<rect x="493.5" y="408.1" width="12.5" height="61.9" fill="#008300"/>
<rect x="516.2" y="403.9" width="12.5" height="66.1" fill="none" stroke="#e66767" stroke-width="1.1"/>
<rect x="539.0" y="413.9" width="12.5" height="56.1" fill="#008300"/>
<rect x="561.8" y="431.5" width="12.5" height="38.5" fill="#008300"/>
<rect x="584.6" y="403.9" width="12.5" height="66.1" fill="#008300"/>
<rect x="607.3" y="413.9" width="12.5" height="56.1" fill="none" stroke="#e66767" stroke-width="1.1"/>
<rect x="630.1" y="448.2" width="12.5" height="21.8" fill="#008300"/>
<rect x="652.9" y="438.2" width="12.5" height="31.8" fill="none" stroke="#e66767" stroke-width="1.1"/>
<rect x="675.7" y="441.6" width="12.5" height="28.4" fill="none" stroke="#e66767" stroke-width="1.1"/>
<rect x="698.5" y="434.0" width="12.5" height="36.0" fill="none" stroke="#e66767" stroke-width="1.1"/>
<rect x="721.2" y="426.5" width="12.5" height="43.5" fill="none" stroke="#e66767" stroke-width="1.1"/>
<rect x="744.0" y="463.3" width="12.5" height="6.7" fill="#008300"/>
<rect x="766.8" y="443.2" width="12.5" height="26.8" fill="#008300"/>
<rect x="789.6" y="455.8" width="12.5" height="14.2" fill="none" stroke="#e66767" stroke-width="1.1"/>
<rect x="812.3" y="428.2" width="12.5" height="41.8" fill="#008300"/>
<polyline points="226.4,406.6 249.2,409.3 271.9,412.6 294.7,411.9 317.5,410.3 340.3,406.4 363.1,408.8 385.8,410.7 408.6,412.3 431.4,414.5 454.2,414.6 476.9,412.9 499.7,411.1 522.5,410.7 545.3,412.3 568.1,416.7 590.8,415.4 613.6,415.2 636.4,418.0 659.2,419.2 681.9,421.1 704.7,423.7 727.5,425.6 750.3,431.5 773.1,434.4 795.8,436.9 818.6,439.3" fill="none" stroke="#3987e5" stroke-width="1.5" stroke-linejoin="round" stroke-linecap="round"/>
<polyline points="112.5,409.1 135.3,408.4 158.1,409.1 180.8,406.9 203.6,404.9 226.4,404.1 249.2,410.1 271.9,416.1 294.7,417.0 317.5,415.6 340.3,408.8 363.1,407.4 385.8,405.2 408.6,407.7 431.4,413.4 454.2,420.5 476.9,418.5 499.7,417.0 522.5,413.6 545.3,411.3 568.1,412.9 590.8,412.3 613.6,413.4 636.4,422.3 659.2,427.2 681.9,429.2 704.7,435.2 727.5,437.7 750.3,440.7 773.1,441.7 795.8,444.6 818.6,443.4" fill="none" stroke="#c98500" stroke-width="1.5" stroke-linejoin="round" stroke-linecap="round"/>
</svg>