<svg xmlns="http://www.w3.org/2000/svg" viewBox="0 0 840 496" width="840" height="496" font-family="-apple-system,&#39;Segoe UI&#39;,system-ui,sans-serif" role="img" aria-label="openclaw/openclaw candlestick chart">
<text x="14.0" y="20.0" font-size="15" fill="#0b0b0b" font-weight="650">openclaw/openclaw</text>
<text x="158.2" y="20.0" font-size="11.5" fill="#52514e">daily · new stars, volume = new forks</text>
<text x="805.8" y="20.0" font-size="11.0" fill="#52514e">fall</text>
<rect x="791" y="10" width="9" height="12" fill="#008300"/>
<text x="750.6" y="20.0" font-size="11.0" fill="#52514e">rise</text>
<rect x="736" y="10" width="9" height="12" fill="none" stroke="#e34948" stroke-width="1.5"/>
<text x="14.0" y="38.0" font-size="11.0" fill="#898781">last 30 days · +6,223 stars · +2,005 forks · updated 2026-07-09</text>
<rect x="10" y="66" width="820" height="290" fill="none" stroke="#e1e0d9"/>
<rect x="10" y="384" width="820" height="86" fill="none" stroke="#e1e0d9"/>
<text x="38.0" y="490.0" font-size="11.0" fill="#898781" text-anchor="middle">2026-06</text>
<line x1="584.0" y1="66.0" x2="584.0" y2="356.0" stroke="#e1e0d9" stroke-width="1.0"/>
<line x1="584.0" y1="384.0" x2="584.0" y2="470.0" stroke="#e1e0d9" stroke-width="1.0"/>
<text x="597.7" y="490.0" font-size="11.0" fill="#898781" text-anchor="middle">2026-07</text>
<text x="14.0" y="58.0" font-size="11.0" fill="#52514e">BOLL(20,2)</text>
<text x="84.5" y="58.0" font-size="11.0" fill="#eda100">UP:273.9</text>
<text x="142.9" y="58.0" font-size="11.0" fill="#2a78d6">MID:188.8</text>
<text x="207.4" y="58.0" font-size="11.0" fill="#e87ba4">LOW:103.7</text>
<text x="271.8" y="58.0" font-size="11.0" fill="#4a3aa7">MA7:151.3</text>
<line x1="10.0" y1="356.0" x2="830.0" y2="356.0" stroke="#e1e0d9" stroke-width="1.0"/>
<text x="14.0" y="353.0" font-size="11.0" fill="#898781">0</text>
<line x1="10.0" y1="259.5" x2="830.0" y2="259.5" stroke="#e1e0d9" stroke-width="1.0"/>
<text x="14.0" y="256.5" font-size="11.0" fill="#898781">100</text>
<line x1="10.0" y1="163.0" x2="830.0" y2="163.0" stroke="#e1e0d9" stroke-width="1.0"/>
<text x="14.0" y="160.0" font-size="11.0" fill="#898781">200</text>
<line x1="10.0" y1="66.5" x2="830.0" y2="66.5" stroke="#e1e0d9" stroke-width="1.0"/>
<text x="14.0" y="63.5" font-size="11.0" fill="#898781">300</text>
<polyline points="543.0,79.8 570.3,83.5 597.7,94.1 625.0,95.6 652.3,96.5 679.7,96.4 707.0,98.2 734.3,105.2 761.7,91.7 789.0,92.9 816.3,91.6" fill="none" stroke="#eda100" stroke-width="1.5" stroke-linejoin="round" stroke-linecap="round"/>
<polyline points="543.0,140.1 570.3,141.3 597.7,144.6 625.0,145.2 652.3,146.6 679.7,148.4 707.0,151.7 734.3,154.6 761.7,163.8 789.0,171.1 816.3,173.8" fill="none" stroke="#2a78d6" stroke-width="1.5" stroke-linejoin="round" stroke-linecap="round"/>
<polyline points="543.0,200.4 570.3,199.1 597.7,195.1 625.0,194.9 652.3,196.6 679.7,200.4 707.0,205.1 734.3,204.0 761.7,235.9 789.0,249.4 816.3,255.9" fill="none" stroke="#e87ba4" stroke-width="1.5" stroke-linejoin="round" stroke-linecap="round"/>
<polyline points="187.7,115.4 215.0,116.4 242.3,120.6 269.7,128.3 297.0,133.2 324.3,137.2 351.7,140.5 379.0,144.4 406.3,151.0 433.7,155.3 461.0,153.7 488.3,156.5 515.7,159.0 543.0,159.5 570.3,158.1 597.7,157.2 625.0,156.3 652.3,156.1 679.7,154.7 707.0,154.7 734.3,156.9 761.7,180.6 789.0,196.5 816.3,210.0" fill="none" stroke="#4a3aa7" stroke-width="1.5" stroke-linejoin="round" stroke-linecap="round"/>
<rect x="16.1" y="98.3" width="15.0" height="257.7" fill="none" stroke="#e34948" stroke-width="1.3"/>
<rect x="43.5" y="80.0" width="15.0" height="18.3" fill="none" stroke="#e34948" stroke-width="1.3"/>
<rect x="70.8" y="80.0" width="15.0" height="41.5" fill="#008300"/>
<rect x="98.1" y="121.5" width="15.0" height="14.5" fill="#008300"/>
<rect x="125.5" y="136.0" width="15.0" height="7.7" fill="#008300"/>
<rect x="152.8" y="122.4" width="15.0" height="21.2" fill="none" stroke="#e34948" stroke-width="1.3"/>
<rect x="180.1" y="106.0" width="15.0" height="16.4" fill="none" stroke="#e34948" stroke-width="1.3"/>
<rect x="207.5" y="105.1" width="15.0" height="1.2" fill="none" stroke="#e34948" stroke-width="1.3"/>
<rect x="234.8" y="105.1" width="15.0" height="4.8" fill="#008300"/>
<rect x="262.1" y="109.9" width="15.0" height="65.6" fill="#008300"/>
<rect x="289.5" y="169.7" width="15.0" height="5.8" fill="none" stroke="#e34948" stroke-width="1.3"/>
<rect x="316.8" y="169.7" width="15.0" height="1.9" fill="#008300"/>
<rect x="344.1" y="145.6" width="15.0" height="26.1" fill="none" stroke="#e34948" stroke-width="1.3"/>
<rect x="371.5" y="133.1" width="15.0" height="12.5" fill="none" stroke="#e34948" stroke-width="1.3"/>
<rect x="398.8" y="133.1" width="15.0" height="18.3" fill="#008300"/>
<rect x="426.1" y="139.8" width="15.0" height="11.6" fill="none" stroke="#e34948" stroke-width="1.3"/>
<rect x="453.5" y="139.8" width="15.0" height="25.1" fill="#008300"/>
<rect x="480.8" y="164.9" width="15.0" height="24.1" fill="#008300"/>
<rect x="508.1" y="189.0" width="15.0" height="1.2" fill="#898781"/>
<rect x="535.5" y="149.5" width="15.0" height="39.6" fill="none" stroke="#e34948" stroke-width="1.3"/>
<rect x="562.8" y="122.4" width="15.0" height="27.0" fill="none" stroke="#e34948" stroke-width="1.3"/>
<rect x="590.1" y="122.4" width="15.0" height="23.2" fill="#008300"/>
<rect x="617.5" y="134.0" width="15.0" height="11.6" fill="none" stroke="#e34948" stroke-width="1.3"/>
<rect x="644.8" y="134.0" width="15.0" height="29.0" fill="#008300"/>
<rect x="672.1" y="163.0" width="15.0" height="16.4" fill="#008300"/>
<rect x="699.5" y="179.4" width="15.0" height="9.7" fill="#008300"/>
<rect x="726.8" y="164.9" width="15.0" height="24.1" fill="none" stroke="#e34948" stroke-width="1.3"/>
<rect x="754.1" y="164.9" width="15.0" height="123.5" fill="#008300"/>
<rect x="781.5" y="256.6" width="15.0" height="31.8" fill="none" stroke="#e34948" stroke-width="1.3"/>
<rect x="808.8" y="228.6" width="15.0" height="28.0" fill="none" stroke="#e34948" stroke-width="1.3"/>
<circle cx="51.0" cy="80.0" r="2" fill="#52514e"/>
<line x1="51.0" y1="80.0" x2="59.0" y2="80.0" stroke="#52514e" stroke-width="1.0"/>
<text x="62.0" y="84.0" font-size="11.0" fill="#52514e">286</text>
<circle cx="23.7" cy="356.0" r="2" fill="#52514e"/>
<line x1="23.7" y1="356.0" x2="31.7" y2="356.0" stroke="#52514e" stroke-width="1.0"/>
<text x="34.7" y="350.0" font-size="11.0" fill="#52514e">0</text>
<text x="14.0" y="376.0" font-size="11.0" fill="#52514e">VOL 34 forks</text>
<text x="96.6" y="376.0" font-size="11.0" fill="#eda100">MA5:48.8</text>
<text x="155.0" y="376.0" font-size="11.0" fill="#2a78d6">MA10:58.5</text>
<text x="14.0" y="395.0" font-size="10" fill="#898781">98</text>
<rect x="16.1" y="397.2" width="15.0" height="72.8" fill="none" stroke="#e34948" stroke-width="1.1"/>
<rect x="43.5" y="393.0" width="15.0" height="77.0" fill="none" stroke="#e34948" stroke-width="1.1"/>
<rect x="70.8" y="414.8" width="15.0" height="55.2" fill="#008300"/>
<rect x="98.1" y="413.9" width="15.0" height="56.1" fill="#008300"/>
<rect x="125.5" y="426.5" width="15.0" height="43.5" fill="#008300"/>
<rect x="152.8" y="393.9" width="15.0" height="76.1" fill="none" stroke="#e34948" stroke-width="1.1"/>
<rect x="180.1" y="396.4" width="15.0" height="73.6" fill="none" stroke="#e34948" stroke-width="1.1"/>
<rect x="207.5" y="403.9" width="15.0" height="66.1" fill="none" stroke="#e34948" stroke-width="1.1"/>
<rect x="234.8" y="403.9" width="15.0" height="66.1" fill="#008300"/>
<rect x="262.1" y="422.3" width="15.0" height="47.7" fill="#008300"/>
<rect x="289.5" y="424.0" width="15.0" height="46.0" fill="none" stroke="#e34948" stroke-width="1.1"/>
<rect x="316.8" y="426.5" width="15.0" height="43.5" fill="#008300"/>
<rect x="344.1" y="408.1" width="15.0" height="61.9" fill="none" stroke="#e34948" stroke-width="1.1"/>
<rect x="371.5" y="397.2" width="15.0" height="72.8" fill="none" stroke="#e34948" stroke-width="1.1"/>
<rect x="398.8" y="388.0" width="15.0" height="82.0" fill="#008300"/>
<rect x="426.1" y="417.3" width="15.0" height="52.7" fill="none" stroke="#e34948" stroke-width="1.1"/>
<rect x="453.5" y="415.6" width="15.0" height="54.4" fill="#008300"/>
<rect x="480.8" y="420.6" width="15.0" height="49.4" fill="#008300"/>
<rect x="508.1" y="425.7" width="15.0" height="44.3" fill="#898781"/>
<rect x="535.5" y="423.1" width="15.0" height="46.9" fill="none" stroke="#e34948" stroke-width="1.1"/>
<rect x="562.8" y="407.2" width="15.0" height="62.8" fill="none" stroke="#e34948" stroke-width="1.1"/>
<rect x="590.1" y="408.1" width="15.0" height="61.9" fill="#008300"/>
<rect x="617.5" y="403.9" width="15.0" height="66.1" fill="none" stroke="#e34948" stroke-width="1.1"/>
<rect x="644.8" y="413.9" width="15.0" height="56.1" fill="#008300"/>
<rect x="672.1" y="431.5" width="15.0" height="38.5" fill="#008300"/>
<rect x="699.5" y="403.9" width="15.0" height="66.1" fill="#008300"/>
<rect x="726.8" y="413.9" width="15.0" height="56.1" fill="none" stroke="#e34948" stroke-width="1.1"/>
<rect x="754.1" y="448.2" width="15.0" height="21.8" fill="#008300"/>
<rect x="781.5" y="438.2" width="15.0" height="31.8" fill="none" stroke="#e34948" stroke-width="1.1"/>
<rect x="808.8" y="441.6" width="15.0" height="28.4" fill="none" stroke="#e34948" stroke-width="1.1"/>
<polyline points="269.7,406.6 297.0,409.3 324.3,412.6 351.7,411.9 379.0,410.3 406.3,406.4 433.7,408.8 461.0,410.7 488.3,412.3 515.7,414.5 543.0,414.6 570.3,412.9 597.7,411.1 625.0,410.7 652.3,412.3 679.7,416.7 707.0,415.4 734.3,415.2 761.7,418.0 789.0,419.2 816.3,421.1" fill="none" stroke="#2a78d6" stroke-width="1.5" stroke-linejoin="round" stroke-linecap="round"/>
<polyline points="133.0,409.1 160.3,408.4 187.7,409.1 215.0,406.9 242.3,404.9 269.7,404.1 297.0,410.1 324.3,416.1 351.7,417.0 379.0,415.6 406.3,408.8 433.7,407.4 461.0,405.2 488.3,407.7 515.7,413.4 543.0,420.5 570.3,418.5 597.7,417.0 625.0,413.6 652.3,411.3 679.7,412.9 707.0,412.3 734.3,413.4 761.7,422.3 789.0,427.2 816.3,429.2" fill="none" stroke="#eda100" stroke-width="1.5" stroke-linejoin="round" stroke-linecap="round"/>
</svg>