<svg xmlns="http://www.w3.org/2000/svg" viewBox="0 0 840 496" width="840" height="496" font-family="-apple-system,&#39;Segoe UI&#39;,system-ui,sans-serif" role="img" aria-label="openclaw/openclaw candlestick chart">
<text x="14.0" y="20.0" font-size="15" fill="#0b0b0b" font-weight="650">openclaw/openclaw</text>
<text x="158.2" y="20.0" font-size="11.5" fill="#52514e">daily · new stars, volume = new forks</text>
<text x="805.8" y="20.0" font-size="11.0" fill="#52514e">fall</text>
<rect x="791" y="10" width="9" height="12" fill="#008300"/>
<text x="750.6" y="20.0" font-size="11.0" fill="#52514e">rise</text>
<rect x="736" y="10" width="9" height="12" fill="none" stroke="#e34948" stroke-width="1.5"/>
<text x="14.0" y="38.0" font-size="11.0" fill="#898781">last 42 days · +7,592 stars · +2,393 forks · updated 2026-07-21</text>
<rect x="10" y="66" width="820" height="290" fill="none" stroke="#e1e0d9"/>
<rect x="10" y="384" width="820" height="86" fill="none" stroke="#e1e0d9"/>
<text x="38.0" y="490.0" font-size="11.0" fill="#898781" text-anchor="middle">2026-06</text>
<line x1="420.0" y1="66.0" x2="420.0" y2="356.0" stroke="#e1e0d9" stroke-width="1.0"/>
<line x1="420.0" y1="384.0" x2="420.0" y2="470.0" stroke="#e1e0d9" stroke-width="1.0"/>
<text x="429.8" y="490.0" font-size="11.0" fill="#898781" text-anchor="middle">2026-07</text>
<text x="14.0" y="58.0" font-size="11.0" fill="#52514e">BOLL(20,2)</text>
<text x="84.5" y="58.0" font-size="11.0" fill="#eda100">UP:215.8</text>
<text x="142.9" y="58.0" font-size="11.0" fill="#2a78d6">MID:132.9</text>
<text x="207.4" y="58.0" font-size="11.0" fill="#e87ba4">LOW:50.0</text>
<text x="265.8" y="58.0" font-size="11.0" fill="#4a3aa7">MA7:108.1</text>
<line x1="10.0" y1="356.0" x2="830.0" y2="356.0" stroke="#e1e0d9" stroke-width="1.0"/>
<text x="14.0" y="353.0" font-size="11.0" fill="#898781">0</text>
<line x1="10.0" y1="259.5" x2="830.0" y2="259.5" stroke="#e1e0d9" stroke-width="1.0"/>
<text x="14.0" y="256.5" font-size="11.0" fill="#898781">100</text>
<line x1="10.0" y1="163.0" x2="830.0" y2="163.0" stroke="#e1e0d9" stroke-width="1.0"/>
<text x="14.0" y="160.0" font-size="11.0" fill="#898781">200</text>
<line x1="10.0" y1="66.5" x2="830.0" y2="66.5" stroke="#e1e0d9" stroke-width="1.0"/>
<text x="14.0" y="63.5" font-size="11.0" fill="#898781">300</text>
<polyline points="390.7,79.8 410.2,83.5 429.8,94.1 449.3,95.6 468.8,96.5 488.3,96.4 507.9,98.2 527.4,105.2 546.9,91.7 566.4,92.9 586.0,91.6 605.5,91.8 625.0,92.2 644.5,92.8 664.0,96.6 683.6,100.7 703.1,106.2 722.6,109.5 742.1,111.2 761.7,113.1 781.2,120.8 800.7,135.9 820.2,147.7" fill="none" stroke="#eda100" stroke-width="1.5" stroke-linejoin="round" stroke-linecap="round"/>
<polyline points="390.7,140.1 410.2,141.3 429.8,144.6 449.3,145.2 468.8,146.6 488.3,148.4 507.9,151.7 527.4,154.6 546.9,163.8 566.4,171.1 586.0,173.8 605.5,176.3 625.0,178.6 644.5,184.2 664.0,190.5 683.6,194.7 703.1,200.7 722.6,205.1 742.1,207.5 761.7,210.0 781.2,215.0 800.7,222.0 820.2,227.7" fill="none" stroke="#2a78d6" stroke-width="1.5" stroke-linejoin="round" stroke-linecap="round"/>
<polyline points="390.7,200.4 410.2,199.1 429.8,195.1 449.3,194.9 468.8,196.6 488.3,200.4 507.9,205.1 527.4,204.0 546.9,235.9 566.4,249.4 586.0,255.9 605.5,260.7 625.0,264.9 644.5,275.6 664.0,284.4 683.6,288.7 703.1,295.2 722.6,300.7 742.1,303.9 761.7,306.8 781.2,309.2 800.7,308.2 820.2,307.8" fill="none" stroke="#e87ba4" stroke-width="1.5" stroke-linejoin="round" stroke-linecap="round"/>
<polyline points="136.9,115.4 156.4,116.4 176.0,120.6 195.5,128.3 215.0,133.2 234.5,137.2 254.0,140.5 273.6,144.4 293.1,151.0 312.6,155.3 332.1,153.7 351.7,156.5 371.2,159.0 390.7,159.5 410.2,158.1 429.8,157.2 449.3,156.3 468.8,156.1 488.3,154.7 507.9,154.7 527.4,156.9 546.9,180.6 566.4,196.5 586.0,210.0 605.5,218.0 625.0,223.5 644.5,233.3 664.0,246.8 683.6,239.2 703.1,239.6 722.6,243.1 742.1,245.9 761.7,248.8 781.2,247.6 800.7,248.2 820.2,251.7" fill="none" stroke="#4a3aa7" stroke-width="1.5" stroke-linejoin="round" stroke-linecap="round"/>
<rect x="14.4" y="98.3" width="10.7" height="257.7" fill="none" stroke="#e34948" stroke-width="1.3"/>
<rect x="33.9" y="80.0" width="10.7" height="18.3" fill="none" stroke="#e34948" stroke-width="1.3"/>
<rect x="53.4" y="80.0" width="10.7" height="41.5" fill="#008300"/>
<rect x="73.0" y="121.5" width="10.7" height="14.5" fill="#008300"/>
<rect x="92.5" y="136.0" width="10.7" height="7.7" fill="#008300"/>
<rect x="112.0" y="122.4" width="10.7" height="21.2" fill="none" stroke="#e34948" stroke-width="1.3"/>
<rect x="131.5" y="106.0" width="10.7" height="16.4" fill="none" stroke="#e34948" stroke-width="1.3"/>
<rect x="151.1" y="105.1" width="10.7" height="1.2" fill="none" stroke="#e34948" stroke-width="1.3"/>
<rect x="170.6" y="105.1" width="10.7" height="4.8" fill="#008300"/>
<rect x="190.1" y="109.9" width="10.7" height="65.6" fill="#008300"/>
<rect x="209.6" y="169.7" width="10.7" height="5.8" fill="none" stroke="#e34948" stroke-width="1.3"/>
<rect x="229.2" y="169.7" width="10.7" height="1.9" fill="#008300"/>
<rect x="248.7" y="145.6" width="10.7" height="26.1" fill="none" stroke="#e34948" stroke-width="1.3"/>
<rect x="268.2" y="133.1" width="10.7" height="12.5" fill="none" stroke="#e34948" stroke-width="1.3"/>
<rect x="287.7" y="133.1" width="10.7" height="18.3" fill="#008300"/>
<rect x="307.3" y="139.8" width="10.7" height="11.6" fill="none" stroke="#e34948" stroke-width="1.3"/>
<rect x="326.8" y="139.8" width="10.7" height="25.1" fill="#008300"/>
<rect x="346.3" y="164.9" width="10.7" height="24.1" fill="#008300"/>
<rect x="365.8" y="189.0" width="10.7" height="1.2" fill="#898781"/>
<rect x="385.3" y="149.5" width="10.7" height="39.6" fill="none" stroke="#e34948" stroke-width="1.3"/>
<rect x="404.9" y="122.4" width="10.7" height="27.0" fill="none" stroke="#e34948" stroke-width="1.3"/>
<rect x="424.4" y="122.4" width="10.7" height="23.2" fill="#008300"/>
<rect x="443.9" y="134.0" width="10.7" height="11.6" fill="none" stroke="#e34948" stroke-width="1.3"/>
<rect x="463.4" y="134.0" width="10.7" height="29.0" fill="#008300"/>
<rect x="483.0" y="163.0" width="10.7" height="16.4" fill="#008300"/>
<rect x="502.5" y="179.4" width="10.7" height="9.7" fill="#008300"/>
<rect x="522.0" y="164.9" width="10.7" height="24.1" fill="none" stroke="#e34948" stroke-width="1.3"/>
<rect x="541.5" y="164.9" width="10.7" height="123.5" fill="#008300"/>
<rect x="561.1" y="256.6" width="10.7" height="31.8" fill="none" stroke="#e34948" stroke-width="1.3"/>
<rect x="580.6" y="228.6" width="10.7" height="28.0" fill="none" stroke="#e34948" stroke-width="1.3"/>
<rect x="600.1" y="219.0" width="10.7" height="9.7" fill="none" stroke="#e34948" stroke-width="1.3"/>
<rect x="619.6" y="218.0" width="10.7" height="1.2" fill="none" stroke="#e34948" stroke-width="1.3"/>
<rect x="639.2" y="218.0" width="10.7" height="39.6" fill="#008300"/>
<rect x="658.7" y="257.6" width="10.7" height="1.9" fill="#008300"/>
<rect x="678.2" y="235.4" width="10.7" height="24.1" fill="none" stroke="#e34948" stroke-width="1.3"/>
<rect x="697.7" y="235.4" width="10.7" height="24.1" fill="#008300"/>
<rect x="717.3" y="252.7" width="10.7" height="6.8" fill="none" stroke="#e34948" stroke-width="1.3"/>
<rect x="736.8" y="238.3" width="10.7" height="14.5" fill="none" stroke="#e34948" stroke-width="1.3"/>
<rect x="756.3" y="238.3" width="10.7" height="1.2" fill="#898781"/>
<rect x="775.8" y="238.3" width="10.7" height="11.6" fill="#008300"/>
<rect x="795.3" y="249.8" width="10.7" height="13.5" fill="#008300"/>
<rect x="814.9" y="259.5" width="10.7" height="3.9" fill="none" stroke="#e34948" stroke-width="1.3"/>
<circle cx="39.3" cy="80.0" r="2" fill="#52514e"/>
<line x1="39.3" y1="80.0" x2="47.3" y2="80.0" stroke="#52514e" stroke-width="1.0"/>
<text x="50.3" y="84.0" font-size="11.0" fill="#52514e">286</text>
<circle cx="19.8" cy="356.0" r="2" fill="#52514e"/>
<line x1="19.8" y1="356.0" x2="27.8" y2="356.0" stroke="#52514e" stroke-width="1.0"/>
<text x="30.8" y="350.0" font-size="11.0" fill="#52514e">0</text>
<text x="14.0" y="376.0" font-size="11.0" fill="#52514e">VOL 26 forks</text>
<text x="96.6" y="376.0" font-size="11.0" fill="#eda100">MA5:29</text>
<text x="142.9" y="376.0" font-size="11.0" fill="#2a78d6">MA10:29.3</text>
<text x="14.0" y="395.0" font-size="10" fill="#898781">98</text>
<rect x="14.4" y="397.2" width="10.7" height="72.8" fill="none" stroke="#e34948" stroke-width="1.1"/>
<rect x="33.9" y="393.0" width="10.7" height="77.0" fill="none" stroke="#e34948" stroke-width="1.1"/>
<rect x="53.4" y="414.8" width="10.7" height="55.2" fill="#008300"/>
<rect x="73.0" y="413.9" width="10.7" height="56.1" fill="#008300"/>
<rect x="92.5" y="426.5" width="10.7" height="43.5" fill="#008300"/>
<rect x="112.0" y="393.9" width="10.7" height="76.1" fill="none" stroke="#e34948" stroke-width="1.1"/>
<rect x="131.5" y="396.4" width="10.7" height="73.6" fill="none" stroke="#e34948" stroke-width="1.1"/>
<rect x="151.1" y="403.9" width="10.7" height="66.1" fill="none" stroke="#e34948" stroke-width="1.1"/>
<rect x="170.6" y="403.9" width="10.7" height="66.1" fill="#008300"/>
<rect x="190.1" y="422.3" width="10.7" height="47.7" fill="#008300"/>
<rect x="209.6" y="424.0" width="10.7" height="46.0" fill="none" stroke="#e34948" stroke-width="1.1"/>
<rect x="229.2" y="426.5" width="10.7" height="43.5" fill="#008300"/>
<rect x="248.7" y="408.1" width="10.7" height="61.9" fill="none" stroke="#e34948" stroke-width="1.1"/>
<rect x="268.2" y="397.2" width="10.7" height="72.8" fill="none" stroke="#e34948" stroke-width="1.1"/>
<rect x="287.7" y="388.0" width="10.7" height="82.0" fill="#008300"/>
<rect x="307.3" y="417.3" width="10.7" height="52.7" fill="none" stroke="#e34948" stroke-width="1.1"/>
<rect x="326.8" y="415.6" width="10.7" height="54.4" fill="#008300"/>
<rect x="346.3" y="420.6" width="10.7" height="49.4" fill="#008300"/>
<rect x="365.8" y="425.7" width="10.7" height="44.3" fill="#898781"/>
<rect x="385.3" y="423.1" width="10.7" height="46.9" fill="none" stroke="#e34948" stroke-width="1.1"/>
<rect x="404.9" y="407.2" width="10.7" height="62.8" fill="none" stroke="#e34948" stroke-width="1.1"/>
<rect x="424.4" y="408.1" width="10.7" height="61.9" fill="#008300"/>
<rect x="443.9" y="403.9" width="10.7" height="66.1" fill="none" stroke="#e34948" stroke-width="1.1"/>
<rect x="463.4" y="413.9" width="10.7" height="56.1" fill="#008300"/>
<rect x="483.0" y="431.5" width="10.7" height="38.5" fill="#008300"/>
<rect x="502.5" y="403.9" width="10.7" height="66.1" fill="#008300"/>
<rect x="522.0" y="413.9" width="10.7" height="56.1" fill="none" stroke="#e34948" stroke-width="1.1"/>
<rect x="541.5" y="448.2" width="10.7" height="21.8" fill="#008300"/>
<rect x="561.1" y="438.2" width="10.7" height="31.8" fill="none" stroke="#e34948" stroke-width="1.1"/>
<rect x="580.6" y="441.6" width="10.7" height="28.4" fill="none" stroke="#e34948" stroke-width="1.1"/>
<rect x="600.1" y="434.0" width="10.7" height="36.0" fill="none" stroke="#e34948" stroke-width="1.1"/>
<rect x="619.6" y="426.5" width="10.7" height="43.5" fill="none" stroke="#e34948" stroke-width="1.1"/>
<rect x="639.2" y="463.3" width="10.7" height="6.7" fill="#008300"/>
<rect x="658.7" y="443.2" width="10.7" height="26.8" fill="#008300"/>
<rect x="678.2" y="455.8" width="10.7" height="14.2" fill="none" stroke="#e34948" stroke-width="1.1"/>
<rect x="697.7" y="428.2" width="10.7" height="41.8" fill="#008300"/>
<rect x="717.3" y="435.7" width="10.7" height="34.3" fill="none" stroke="#e34948" stroke-width="1.1"/>
<rect x="736.8" y="439.0" width="10.7" height="31.0" fill="none" stroke="#e34948" stroke-width="1.1"/>
<rect x="756.3" y="434.0" width="10.7" height="36.0" fill="#898781"/>
<rect x="775.8" y="460.0" width="10.7" height="10.0" fill="#008300"/>
<rect x="795.3" y="447.4" width="10.7" height="22.6" fill="#008300"/>
<rect x="814.9" y="448.2" width="10.7" height="21.8" fill="none" stroke="#e34948" stroke-width="1.1"/>
<polyline points="195.5,406.6 215.0,409.3 234.5,412.6 254.0,411.9 273.6,410.3 293.1,406.4 312.6,408.8 332.1,410.7 351.7,412.3 371.2,414.5 390.7,414.6 410.2,412.9 429.8,411.1 449.3,410.7 468.8,412.3 488.3,416.7 507.9,415.4 527.4,415.2 546.9,418.0 566.4,419.2 586.0,421.1 605.5,423.7 625.0,425.6 644.5,431.5 664.0,434.4 683.6,436.9 703.1,439.3 722.6,441.5 742.1,440.5 761.7,440.1 781.2,442.0 800.7,443.3 820.2,445.5" fill="none" stroke="#2a78d6" stroke-width="1.5" stroke-linejoin="round" stroke-linecap="round"/>
<polyline points="97.9,409.1 117.4,408.4 136.9,409.1 156.4,406.9 176.0,404.9 195.5,404.1 215.0,410.1 234.5,416.1 254.0,417.0 273.6,415.6 293.1,408.8 312.6,407.4 332.1,405.2 351.7,407.7 371.2,413.4 390.7,420.5 410.2,418.5 429.8,417.0 449.3,413.6 468.8,411.3 488.3,412.9 507.9,412.3 527.4,413.4 546.9,422.3 566.4,427.2 586.0,429.2 605.5,435.2 625.0,437.7 644.5,440.7 664.0,441.7 683.6,444.6 703.1,443.4 722.6,445.2 742.1,440.4 761.7,438.5 781.2,439.4 800.7,443.2 820.2,445.7" fill="none" stroke="#eda100" stroke-width="1.5" stroke-linejoin="round" stroke-linecap="round"/>
</svg>