<svg xmlns="http://www.w3.org/2000/svg" viewBox="0 0 840 496" width="840" height="496" font-family="-apple-system,&#39;Segoe UI&#39;,system-ui,sans-serif" role="img" aria-label="openclaw/openclaw candlestick chart">
<text x="14.0" y="20.0" font-size="15" fill="#ffffff" font-weight="650">openclaw/openclaw</text>
<text x="158.2" y="20.0" font-size="11.5" fill="#c3c2b7">daily · new stars, volume = new forks</text>
<text x="805.8" y="20.0" font-size="11.0" fill="#c3c2b7">fall</text>
<rect x="791" y="10" width="9" height="12" fill="#008300"/>
<text x="750.6" y="20.0" font-size="11.0" fill="#c3c2b7">rise</text>
<rect x="736" y="10" width="9" height="12" fill="none" stroke="#e66767" stroke-width="1.5"/>
<text x="14.0" y="38.0" font-size="11.0" fill="#898781">last 29 days · +6,091 stars · +1,971 forks · updated 2026-07-08</text>
<rect x="10" y="66" width="820" height="290" fill="none" stroke="#2c2c2a"/>
<rect x="10" y="384" width="820" height="86" fill="none" stroke="#2c2c2a"/>
<text x="38.0" y="490.0" font-size="11.0" fill="#898781" text-anchor="middle">2026-06</text>
<line x1="603.8" y1="66.0" x2="603.8" y2="356.0" stroke="#2c2c2a" stroke-width="1.0"/>
<line x1="603.8" y1="384.0" x2="603.8" y2="470.0" stroke="#2c2c2a" stroke-width="1.0"/>
<text x="617.9" y="490.0" font-size="11.0" fill="#898781" text-anchor="middle">2026-07</text>
<text x="14.0" y="58.0" font-size="11.0" fill="#c3c2b7">BOLL(20,2)</text>
<text x="84.5" y="58.0" font-size="11.0" fill="#c98500">UP:272.6</text>
<text x="142.9" y="58.0" font-size="11.0" fill="#3987e5">MID:191.6</text>
<text x="207.4" y="58.0" font-size="11.0" fill="#d55181">LOW:110.5</text>
<text x="271.8" y="58.0" font-size="11.0" fill="#9085e9">MA7:165.3</text>
<line x1="10.0" y1="356.0" x2="830.0" y2="356.0" stroke="#2c2c2a" stroke-width="1.0"/>
<text x="14.0" y="353.0" font-size="11.0" fill="#898781">0</text>
<line x1="10.0" y1="259.5" x2="830.0" y2="259.5" stroke="#2c2c2a" stroke-width="1.0"/>
<text x="14.0" y="256.5" font-size="11.0" fill="#898781">100</text>
<line x1="10.0" y1="163.0" x2="830.0" y2="163.0" stroke="#2c2c2a" stroke-width="1.0"/>
<text x="14.0" y="160.0" font-size="11.0" fill="#898781">200</text>
<line x1="10.0" y1="66.5" x2="830.0" y2="66.5" stroke="#2c2c2a" stroke-width="1.0"/>
<text x="14.0" y="63.5" font-size="11.0" fill="#898781">300</text>
<polyline points="561.4,79.8 589.7,83.5 617.9,94.1 646.2,95.6 674.5,96.5 702.8,96.4 731.0,98.2 759.3,105.2 787.6,91.7 815.9,92.9" fill="none" stroke="#c98500" stroke-width="1.5" stroke-linejoin="round" stroke-linecap="round"/>
<polyline points="561.4,140.1 589.7,141.3 617.9,144.6 646.2,145.2 674.5,146.6 702.8,148.4 731.0,151.7 759.3,154.6 787.6,163.8 815.9,171.1" fill="none" stroke="#3987e5" stroke-width="1.5" stroke-linejoin="round" stroke-linecap="round"/>
<polyline points="561.4,200.4 589.7,199.1 617.9,195.1 646.2,194.9 674.5,196.6 702.8,200.4 731.0,205.1 759.3,204.0 787.6,235.9 815.9,249.4" fill="none" stroke="#d55181" stroke-width="1.5" stroke-linejoin="round" stroke-linecap="round"/>
<polyline points="193.8,115.4 222.1,116.4 250.3,120.6 278.6,128.3 306.9,133.2 335.2,137.2 363.4,140.5 391.7,144.4 420.0,151.0 448.3,155.3 476.6,153.7 504.8,156.5 533.1,159.0 561.4,159.5 589.7,158.1 617.9,157.2 646.2,156.3 674.5,156.1 702.8,154.7 731.0,154.7 759.3,156.9 787.6,180.6 815.9,196.5" fill="none" stroke="#9085e9" stroke-width="1.5" stroke-linejoin="round" stroke-linecap="round"/>
<rect x="16.4" y="98.3" width="15.6" height="257.7" fill="none" stroke="#e66767" stroke-width="1.3"/>
<rect x="44.6" y="80.0" width="15.6" height="18.3" fill="none" stroke="#e66767" stroke-width="1.3"/>
<rect x="72.9" y="80.0" width="15.6" height="41.5" fill="#008300"/>
<rect x="101.2" y="121.5" width="15.6" height="14.5" fill="#008300"/>
<rect x="129.5" y="136.0" width="15.6" height="7.7" fill="#008300"/>
<rect x="157.7" y="122.4" width="15.6" height="21.2" fill="none" stroke="#e66767" stroke-width="1.3"/>
<rect x="186.0" y="106.0" width="15.6" height="16.4" fill="none" stroke="#e66767" stroke-width="1.3"/>
<rect x="214.3" y="105.1" width="15.6" height="1.2" fill="none" stroke="#e66767" stroke-width="1.3"/>
<rect x="242.6" y="105.1" width="15.6" height="4.8" fill="#008300"/>
<rect x="270.8" y="109.9" width="15.6" height="65.6" fill="#008300"/>
<rect x="299.1" y="169.7" width="15.6" height="5.8" fill="none" stroke="#e66767" stroke-width="1.3"/>
<rect x="327.4" y="169.7" width="15.6" height="1.9" fill="#008300"/>
<rect x="355.7" y="145.6" width="15.6" height="26.1" fill="none" stroke="#e66767" stroke-width="1.3"/>
<rect x="383.9" y="133.1" width="15.6" height="12.5" fill="none" stroke="#e66767" stroke-width="1.3"/>
<rect x="412.2" y="133.1" width="15.6" height="18.3" fill="#008300"/>
<rect x="440.5" y="139.8" width="15.6" height="11.6" fill="none" stroke="#e66767" stroke-width="1.3"/>
<rect x="468.8" y="139.8" width="15.6" height="25.1" fill="#008300"/>
<rect x="497.1" y="164.9" width="15.6" height="24.1" fill="#008300"/>
<rect x="525.3" y="189.0" width="15.6" height="1.2" fill="#898781"/>
<rect x="553.6" y="149.5" width="15.6" height="39.6" fill="none" stroke="#e66767" stroke-width="1.3"/>
<rect x="581.9" y="122.4" width="15.6" height="27.0" fill="none" stroke="#e66767" stroke-width="1.3"/>
<rect x="610.2" y="122.4" width="15.6" height="23.2" fill="#008300"/>
<rect x="638.4" y="134.0" width="15.6" height="11.6" fill="none" stroke="#e66767" stroke-width="1.3"/>
<rect x="666.7" y="134.0" width="15.6" height="29.0" fill="#008300"/>
<rect x="695.0" y="163.0" width="15.6" height="16.4" fill="#008300"/>
<rect x="723.3" y="179.4" width="15.6" height="9.7" fill="#008300"/>
<rect x="751.5" y="164.9" width="15.6" height="24.1" fill="none" stroke="#e66767" stroke-width="1.3"/>
<rect x="779.8" y="164.9" width="15.6" height="123.5" fill="#008300"/>
<rect x="808.1" y="256.6" width="15.6" height="31.8" fill="none" stroke="#e66767" stroke-width="1.3"/>
<circle cx="52.4" cy="80.0" r="2" fill="#c3c2b7"/>
<line x1="52.4" y1="80.0" x2="60.4" y2="80.0" stroke="#c3c2b7" stroke-width="1.0"/>
<text x="63.4" y="84.0" font-size="11.0" fill="#c3c2b7">286</text>
<circle cx="24.1" cy="356.0" r="2" fill="#c3c2b7"/>
<line x1="24.1" y1="356.0" x2="32.1" y2="356.0" stroke="#c3c2b7" stroke-width="1.0"/>
<text x="35.1" y="350.0" font-size="11.0" fill="#c3c2b7">0</text>
<text x="14.0" y="376.0" font-size="11.0" fill="#c3c2b7">VOL 38 forks</text>
<text x="96.6" y="376.0" font-size="11.0" fill="#c98500">MA5:51.2</text>
<text x="155.0" y="376.0" font-size="11.0" fill="#3987e5">MA10:60.7</text>
<text x="14.0" y="395.0" font-size="10" fill="#898781">98</text>
<rect x="16.4" y="397.2" width="15.6" height="72.8" fill="none" stroke="#e66767" stroke-width="1.1"/>
<rect x="44.6" y="393.0" width="15.6" height="77.0" fill="none" stroke="#e66767" stroke-width="1.1"/>
<rect x="72.9" y="414.8" width="15.6" height="55.2" fill="#008300"/>
<rect x="101.2" y="413.9" width="15.6" height="56.1" fill="#008300"/>
<rect x="129.5" y="426.5" width="15.6" height="43.5" fill="#008300"/>
<rect x="157.7" y="393.9" width="15.6" height="76.1" fill="none" stroke="#e66767" stroke-width="1.1"/>
<rect x="186.0" y="396.4" width="15.6" height="73.6" fill="none" stroke="#e66767" stroke-width="1.1"/>
<rect x="214.3" y="403.9" width="15.6" height="66.1" fill="none" stroke="#e66767" stroke-width="1.1"/>
<rect x="242.6" y="403.9" width="15.6" height="66.1" fill="#008300"/>
<rect x="270.8" y="422.3" width="15.6" height="47.7" fill="#008300"/>
<rect x="299.1" y="424.0" width="15.6" height="46.0" fill="none" stroke="#e66767" stroke-width="1.1"/>
<rect x="327.4" y="426.5" width="15.6" height="43.5" fill="#008300"/>
<rect x="355.7" y="408.1" width="15.6" height="61.9" fill="none" stroke="#e66767" stroke-width="1.1"/>
<rect x="383.9" y="397.2" width="15.6" height="72.8" fill="none" stroke="#e66767" stroke-width="1.1"/>
<rect x="412.2" y="388.0" width="15.6" height="82.0" fill="#008300"/>
<rect x="440.5" y="417.3" width="15.6" height="52.7" fill="none" stroke="#e66767" stroke-width="1.1"/>
<rect x="468.8" y="415.6" width="15.6" height="54.4" fill="#008300"/>
<rect x="497.1" y="420.6" width="15.6" height="49.4" fill="#008300"/>
<rect x="525.3" y="425.7" width="15.6" height="44.3" fill="#898781"/>
<rect x="553.6" y="423.1" width="15.6" height="46.9" fill="none" stroke="#e66767" stroke-width="1.1"/>
<rect x="581.9" y="407.2" width="15.6" height="62.8" fill="none" stroke="#e66767" stroke-width="1.1"/>
<rect x="610.2" y="408.1" width="15.6" height="61.9" fill="#008300"/>
<rect x="638.4" y="403.9" width="15.6" height="66.1" fill="none" stroke="#e66767" stroke-width="1.1"/>
<rect x="666.7" y="413.9" width="15.6" height="56.1" fill="#008300"/>
<rect x="695.0" y="431.5" width="15.6" height="38.5" fill="#008300"/>
<rect x="723.3" y="403.9" width="15.6" height="66.1" fill="#008300"/>
<rect x="751.5" y="413.9" width="15.6" height="56.1" fill="none" stroke="#e66767" stroke-width="1.1"/>
<rect x="779.8" y="448.2" width="15.6" height="21.8" fill="#008300"/>
<rect x="808.1" y="438.2" width="15.6" height="31.8" fill="none" stroke="#e66767" stroke-width="1.1"/>
<polyline points="278.6,406.6 306.9,409.3 335.2,412.6 363.4,411.9 391.7,410.3 420.0,406.4 448.3,408.8 476.6,410.7 504.8,412.3 533.1,414.5 561.4,414.6 589.7,412.9 617.9,411.1 646.2,410.7 674.5,412.3 702.8,416.7 731.0,415.4 759.3,415.2 787.6,418.0 815.9,419.2" fill="none" stroke="#3987e5" stroke-width="1.5" stroke-linejoin="round" stroke-linecap="round"/>
<polyline points="137.2,409.1 165.5,408.4 193.8,409.1 222.1,406.9 250.3,404.9 278.6,404.1 306.9,410.1 335.2,416.1 363.4,417.0 391.7,415.6 420.0,408.8 448.3,407.4 476.6,405.2 504.8,407.7 533.1,413.4 561.4,420.5 589.7,418.5 617.9,417.0 646.2,413.6 674.5,411.3 702.8,412.9 731.0,412.3 759.3,413.4 787.6,422.3 815.9,427.2" fill="none" stroke="#c98500" stroke-width="1.5" stroke-linejoin="round" stroke-linecap="round"/>
</svg>