<svg xmlns="http://www.w3.org/2000/svg" viewBox="0 0 840 496" width="840" height="496" font-family="-apple-system,&#39;Segoe UI&#39;,system-ui,sans-serif" role="img" aria-label="openclaw/openclaw candlestick chart">
<text x="14.0" y="20.0" font-size="15" fill="#ffffff" font-weight="650">openclaw/openclaw</text>
<text x="158.2" y="20.0" font-size="11.5" fill="#c3c2b7">daily · new stars, volume = new forks</text>
<text x="805.8" y="20.0" font-size="11.0" fill="#c3c2b7">fall</text>
<rect x="791" y="10" width="9" height="12" fill="#008300"/>
<text x="750.6" y="20.0" font-size="11.0" fill="#c3c2b7">rise</text>
<rect x="736" y="10" width="9" height="12" fill="none" stroke="#e66767" stroke-width="1.5"/>
<text x="14.0" y="38.0" font-size="11.0" fill="#898781">last 40 days · +7,396 stars · +2,340 forks · updated 2026-07-19</text>
<rect x="10" y="66" width="820" height="290" fill="none" stroke="#2c2c2a"/>
<rect x="10" y="384" width="820" height="86" fill="none" stroke="#2c2c2a"/>
<text x="38.0" y="490.0" font-size="11.0" fill="#898781" text-anchor="middle">2026-06</text>
<line x1="440.5" y1="66.0" x2="440.5" y2="356.0" stroke="#2c2c2a" stroke-width="1.0"/>
<line x1="440.5" y1="384.0" x2="440.5" y2="470.0" stroke="#2c2c2a" stroke-width="1.0"/>
<text x="450.8" y="490.0" font-size="11.0" fill="#898781" text-anchor="middle">2026-07</text>
<text x="14.0" y="58.0" font-size="11.0" fill="#c3c2b7">BOLL(20,2)</text>
<text x="84.5" y="58.0" font-size="11.0" fill="#c98500">UP:243.7</text>
<text x="142.9" y="58.0" font-size="11.0" fill="#3987e5">MID:146.1</text>
<text x="207.4" y="58.0" font-size="11.0" fill="#d55181">LOW:48.5</text>
<text x="265.8" y="58.0" font-size="11.0" fill="#9085e9">MA7:112.3</text>
<line x1="10.0" y1="356.0" x2="830.0" y2="356.0" stroke="#2c2c2a" stroke-width="1.0"/>
<text x="14.0" y="353.0" font-size="11.0" fill="#898781">0</text>
<line x1="10.0" y1="259.5" x2="830.0" y2="259.5" stroke="#2c2c2a" stroke-width="1.0"/>
<text x="14.0" y="256.5" font-size="11.0" fill="#898781">100</text>
<line x1="10.0" y1="163.0" x2="830.0" y2="163.0" stroke="#2c2c2a" stroke-width="1.0"/>
<text x="14.0" y="160.0" font-size="11.0" fill="#898781">200</text>
<line x1="10.0" y1="66.5" x2="830.0" y2="66.5" stroke="#2c2c2a" stroke-width="1.0"/>
<text x="14.0" y="63.5" font-size="11.0" fill="#898781">300</text>
<polyline points="409.8,79.8 430.2,83.5 450.8,94.1 471.2,95.6 491.8,96.5 512.2,96.4 532.8,98.2 553.2,105.2 573.8,91.7 594.2,92.9 614.8,91.6 635.2,91.8 655.8,92.2 676.2,92.8 696.8,96.6 717.2,100.7 737.8,106.2 758.2,109.5 778.8,111.2 799.2,113.1 819.8,120.8" fill="none" stroke="#c98500" stroke-width="1.5" stroke-linejoin="round" stroke-linecap="round"/>
<polyline points="409.8,140.1 430.2,141.3 450.8,144.6 471.2,145.2 491.8,146.6 512.2,148.4 532.8,151.7 553.2,154.6 573.8,163.8 594.2,171.1 614.8,173.8 635.2,176.3 655.8,178.6 676.2,184.2 696.8,190.5 717.2,194.7 737.8,200.7 758.2,205.1 778.8,207.5 799.2,210.0 819.8,215.0" fill="none" stroke="#3987e5" stroke-width="1.5" stroke-linejoin="round" stroke-linecap="round"/>
<polyline points="409.8,200.4 430.2,199.1 450.8,195.1 471.2,194.9 491.8,196.6 512.2,200.4 532.8,205.1 553.2,204.0 573.8,235.9 594.2,249.4 614.8,255.9 635.2,260.7 655.8,264.9 676.2,275.6 696.8,284.4 717.2,288.7 737.8,295.2 758.2,300.7 778.8,303.9 799.2,306.8 819.8,309.2" fill="none" stroke="#d55181" stroke-width="1.5" stroke-linejoin="round" stroke-linecap="round"/>
<polyline points="143.2,115.4 163.8,116.4 184.2,120.6 204.8,128.3 225.2,133.2 245.8,137.2 266.2,140.5 286.8,144.4 307.2,151.0 327.8,155.3 348.2,153.7 368.8,156.5 389.2,159.0 409.8,159.5 430.2,158.1 450.8,157.2 471.2,156.3 491.8,156.1 512.2,154.7 532.8,154.7 553.2,156.9 573.8,180.6 594.2,196.5 614.8,210.0 635.2,218.0 655.8,223.5 676.2,233.3 696.8,246.8 717.2,239.2 737.8,239.6 758.2,243.1 778.8,245.9 799.2,248.8 819.8,247.6" fill="none" stroke="#9085e9" stroke-width="1.5" stroke-linejoin="round" stroke-linecap="round"/>
<rect x="14.6" y="98.3" width="11.3" height="257.7" fill="none" stroke="#e66767" stroke-width="1.3"/>
<rect x="35.1" y="80.0" width="11.3" height="18.3" fill="none" stroke="#e66767" stroke-width="1.3"/>
<rect x="55.6" y="80.0" width="11.3" height="41.5" fill="#008300"/>
<rect x="76.1" y="121.5" width="11.3" height="14.5" fill="#008300"/>
<rect x="96.6" y="136.0" width="11.3" height="7.7" fill="#008300"/>
<rect x="117.1" y="122.4" width="11.3" height="21.2" fill="none" stroke="#e66767" stroke-width="1.3"/>
<rect x="137.6" y="106.0" width="11.3" height="16.4" fill="none" stroke="#e66767" stroke-width="1.3"/>
<rect x="158.1" y="105.1" width="11.3" height="1.2" fill="none" stroke="#e66767" stroke-width="1.3"/>
<rect x="178.6" y="105.1" width="11.3" height="4.8" fill="#008300"/>
<rect x="199.1" y="109.9" width="11.3" height="65.6" fill="#008300"/>
<rect x="219.6" y="169.7" width="11.3" height="5.8" fill="none" stroke="#e66767" stroke-width="1.3"/>
<rect x="240.1" y="169.7" width="11.3" height="1.9" fill="#008300"/>
<rect x="260.6" y="145.6" width="11.3" height="26.1" fill="none" stroke="#e66767" stroke-width="1.3"/>
<rect x="281.1" y="133.1" width="11.3" height="12.5" fill="none" stroke="#e66767" stroke-width="1.3"/>
<rect x="301.6" y="133.1" width="11.3" height="18.3" fill="#008300"/>
<rect x="322.1" y="139.8" width="11.3" height="11.6" fill="none" stroke="#e66767" stroke-width="1.3"/>
<rect x="342.6" y="139.8" width="11.3" height="25.1" fill="#008300"/>
<rect x="363.1" y="164.9" width="11.3" height="24.1" fill="#008300"/>
<rect x="383.6" y="189.0" width="11.3" height="1.2" fill="#898781"/>
<rect x="404.1" y="149.5" width="11.3" height="39.6" fill="none" stroke="#e66767" stroke-width="1.3"/>
<rect x="424.6" y="122.4" width="11.3" height="27.0" fill="none" stroke="#e66767" stroke-width="1.3"/>
<rect x="445.1" y="122.4" width="11.3" height="23.2" fill="#008300"/>
<rect x="465.6" y="134.0" width="11.3" height="11.6" fill="none" stroke="#e66767" stroke-width="1.3"/>
<rect x="486.1" y="134.0" width="11.3" height="29.0" fill="#008300"/>
<rect x="506.6" y="163.0" width="11.3" height="16.4" fill="#008300"/>
<rect x="527.1" y="179.4" width="11.3" height="9.7" fill="#008300"/>
<rect x="547.6" y="164.9" width="11.3" height="24.1" fill="none" stroke="#e66767" stroke-width="1.3"/>
<rect x="568.1" y="164.9" width="11.3" height="123.5" fill="#008300"/>
<rect x="588.6" y="256.6" width="11.3" height="31.8" fill="none" stroke="#e66767" stroke-width="1.3"/>
<rect x="609.1" y="228.6" width="11.3" height="28.0" fill="none" stroke="#e66767" stroke-width="1.3"/>
<rect x="629.6" y="219.0" width="11.3" height="9.7" fill="none" stroke="#e66767" stroke-width="1.3"/>
<rect x="650.1" y="218.0" width="11.3" height="1.2" fill="none" stroke="#e66767" stroke-width="1.3"/>
<rect x="670.6" y="218.0" width="11.3" height="39.6" fill="#008300"/>
<rect x="691.1" y="257.6" width="11.3" height="1.9" fill="#008300"/>
<rect x="711.6" y="235.4" width="11.3" height="24.1" fill="none" stroke="#e66767" stroke-width="1.3"/>
<rect x="732.1" y="235.4" width="11.3" height="24.1" fill="#008300"/>
<rect x="752.6" y="252.7" width="11.3" height="6.8" fill="none" stroke="#e66767" stroke-width="1.3"/>
<rect x="773.1" y="238.3" width="11.3" height="14.5" fill="none" stroke="#e66767" stroke-width="1.3"/>
<rect x="793.6" y="238.3" width="11.3" height="1.2" fill="#898781"/>
<rect x="814.1" y="238.3" width="11.3" height="11.6" fill="#008300"/>
<circle cx="40.8" cy="80.0" r="2" fill="#c3c2b7"/>
<line x1="40.8" y1="80.0" x2="48.8" y2="80.0" stroke="#c3c2b7" stroke-width="1.0"/>
<text x="51.8" y="84.0" font-size="11.0" fill="#c3c2b7">286</text>
<circle cx="20.2" cy="356.0" r="2" fill="#c3c2b7"/>
<line x1="20.2" y1="356.0" x2="28.2" y2="356.0" stroke="#c3c2b7" stroke-width="1.0"/>
<text x="31.2" y="350.0" font-size="11.0" fill="#c3c2b7">0</text>
<text x="14.0" y="376.0" font-size="11.0" fill="#c3c2b7">VOL 12 forks</text>
<text x="96.6" y="376.0" font-size="11.0" fill="#c98500">MA5:36.6</text>
<text x="155.0" y="376.0" font-size="11.0" fill="#3987e5">MA10:33.5</text>
<text x="14.0" y="395.0" font-size="10" fill="#898781">98</text>
<rect x="14.6" y="397.2" width="11.3" height="72.8" fill="none" stroke="#e66767" stroke-width="1.1"/>
<rect x="35.1" y="393.0" width="11.3" height="77.0" fill="none" stroke="#e66767" stroke-width="1.1"/>
<rect x="55.6" y="414.8" width="11.3" height="55.2" fill="#008300"/>
<rect x="76.1" y="413.9" width="11.3" height="56.1" fill="#008300"/>
<rect x="96.6" y="426.5" width="11.3" height="43.5" fill="#008300"/>
<rect x="117.1" y="393.9" width="11.3" height="76.1" fill="none" stroke="#e66767" stroke-width="1.1"/>
<rect x="137.6" y="396.4" width="11.3" height="73.6" fill="none" stroke="#e66767" stroke-width="1.1"/>
<rect x="158.1" y="403.9" width="11.3" height="66.1" fill="none" stroke="#e66767" stroke-width="1.1"/>
<rect x="178.6" y="403.9" width="11.3" height="66.1" fill="#008300"/>
<rect x="199.1" y="422.3" width="11.3" height="47.7" fill="#008300"/>
<rect x="219.6" y="424.0" width="11.3" height="46.0" fill="none" stroke="#e66767" stroke-width="1.1"/>
<rect x="240.1" y="426.5" width="11.3" height="43.5" fill="#008300"/>
<rect x="260.6" y="408.1" width="11.3" height="61.9" fill="none" stroke="#e66767" stroke-width="1.1"/>
<rect x="281.1" y="397.2" width="11.3" height="72.8" fill="none" stroke="#e66767" stroke-width="1.1"/>
<rect x="301.6" y="388.0" width="11.3" height="82.0" fill="#008300"/>
<rect x="322.1" y="417.3" width="11.3" height="52.7" fill="none" stroke="#e66767" stroke-width="1.1"/>
<rect x="342.6" y="415.6" width="11.3" height="54.4" fill="#008300"/>
<rect x="363.1" y="420.6" width="11.3" height="49.4" fill="#008300"/>
<rect x="383.6" y="425.7" width="11.3" height="44.3" fill="#898781"/>
<rect x="404.1" y="423.1" width="11.3" height="46.9" fill="none" stroke="#e66767" stroke-width="1.1"/>
<rect x="424.6" y="407.2" width="11.3" height="62.8" fill="none" stroke="#e66767" stroke-width="1.1"/>
<rect x="445.1" y="408.1" width="11.3" height="61.9" fill="#008300"/>
<rect x="465.6" y="403.9" width="11.3" height="66.1" fill="none" stroke="#e66767" stroke-width="1.1"/>
<rect x="486.1" y="413.9" width="11.3" height="56.1" fill="#008300"/>
<rect x="506.6" y="431.5" width="11.3" height="38.5" fill="#008300"/>
<rect x="527.1" y="403.9" width="11.3" height="66.1" fill="#008300"/>
<rect x="547.6" y="413.9" width="11.3" height="56.1" fill="none" stroke="#e66767" stroke-width="1.1"/>
<rect x="568.1" y="448.2" width="11.3" height="21.8" fill="#008300"/>
<rect x="588.6" y="438.2" width="11.3" height="31.8" fill="none" stroke="#e66767" stroke-width="1.1"/>
<rect x="609.1" y="441.6" width="11.3" height="28.4" fill="none" stroke="#e66767" stroke-width="1.1"/>
<rect x="629.6" y="434.0" width="11.3" height="36.0" fill="none" stroke="#e66767" stroke-width="1.1"/>
<rect x="650.1" y="426.5" width="11.3" height="43.5" fill="none" stroke="#e66767" stroke-width="1.1"/>
<rect x="670.6" y="463.3" width="11.3" height="6.7" fill="#008300"/>
<rect x="691.1" y="443.2" width="11.3" height="26.8" fill="#008300"/>
<rect x="711.6" y="455.8" width="11.3" height="14.2" fill="none" stroke="#e66767" stroke-width="1.1"/>
<rect x="732.1" y="428.2" width="11.3" height="41.8" fill="#008300"/>
<rect x="752.6" y="435.7" width="11.3" height="34.3" fill="none" stroke="#e66767" stroke-width="1.1"/>
<rect x="773.1" y="439.0" width="11.3" height="31.0" fill="none" stroke="#e66767" stroke-width="1.1"/>
<rect x="793.6" y="434.0" width="11.3" height="36.0" fill="#898781"/>
<rect x="814.1" y="460.0" width="11.3" height="10.0" fill="#008300"/>
<polyline points="204.8,406.6 225.2,409.3 245.8,412.6 266.2,411.9 286.8,410.3 307.2,406.4 327.8,408.8 348.2,410.7 368.8,412.3 389.2,414.5 409.8,414.6 430.2,412.9 450.8,411.1 471.2,410.7 491.8,412.3 512.2,416.7 532.8,415.4 553.2,415.2 573.8,418.0 594.2,419.2 614.8,421.1 635.2,423.7 655.8,425.6 676.2,431.5 696.8,434.4 717.2,436.9 737.8,439.3 758.2,441.5 778.8,440.5 799.2,440.1 819.8,442.0" fill="none" stroke="#3987e5" stroke-width="1.5" stroke-linejoin="round" stroke-linecap="round"/>
<polyline points="102.2,409.1 122.8,408.4 143.2,409.1 163.8,406.9 184.2,404.9 204.8,404.1 225.2,410.1 245.8,416.1 266.2,417.0 286.8,415.6 307.2,408.8 327.8,407.4 348.2,405.2 368.8,407.7 389.2,413.4 409.8,420.5 430.2,418.5 450.8,417.0 471.2,413.6 491.8,411.3 512.2,412.9 532.8,412.3 553.2,413.4 573.8,422.3 594.2,427.2 614.8,429.2 635.2,435.2 655.8,437.7 676.2,440.7 696.8,441.7 717.2,444.6 737.8,443.4 758.2,445.2 778.8,440.4 799.2,438.5 819.8,439.4" fill="none" stroke="#c98500" stroke-width="1.5" stroke-linejoin="round" stroke-linecap="round"/>
</svg>