<svg xmlns="http://www.w3.org/2000/svg" viewBox="0 0 840 496" width="840" height="496" font-family="-apple-system,&#39;Segoe UI&#39;,system-ui,sans-serif" role="img" aria-label="openclaw/openclaw candlestick chart">
<text x="14.0" y="20.0" font-size="15" fill="#ffffff" font-weight="650">openclaw/openclaw</text>
<text x="158.2" y="20.0" font-size="11.5" fill="#c3c2b7">daily · new stars, volume = new forks</text>
<text x="805.8" y="20.0" font-size="11.0" fill="#c3c2b7">fall</text>
<rect x="791" y="10" width="9" height="12" fill="#008300"/>
<text x="750.6" y="20.0" font-size="11.0" fill="#c3c2b7">rise</text>
<rect x="736" y="10" width="9" height="12" fill="none" stroke="#e66767" stroke-width="1.5"/>
<text x="14.0" y="38.0" font-size="11.0" fill="#898781">last 33 days · +6,610 stars · +2,108 forks · updated 2026-07-12</text>
<rect x="10" y="66" width="820" height="290" fill="none" stroke="#2c2c2a"/>
<rect x="10" y="384" width="820" height="86" fill="none" stroke="#2c2c2a"/>
<text x="38.0" y="490.0" font-size="11.0" fill="#898781" text-anchor="middle">2026-06</text>
<line x1="531.8" y1="66.0" x2="531.8" y2="356.0" stroke="#2c2c2a" stroke-width="1.0"/>
<line x1="531.8" y1="384.0" x2="531.8" y2="470.0" stroke="#2c2c2a" stroke-width="1.0"/>
<text x="544.2" y="490.0" font-size="11.0" fill="#898781" text-anchor="middle">2026-07</text>
<text x="14.0" y="58.0" font-size="11.0" fill="#c3c2b7">BOLL(20,2)</text>
<text x="84.5" y="58.0" font-size="11.0" fill="#c98500">UP:272.8</text>
<text x="142.9" y="58.0" font-size="11.0" fill="#3987e5">MID:178.1</text>
<text x="207.4" y="58.0" font-size="11.0" fill="#d55181">LOW:83.3</text>
<text x="265.8" y="58.0" font-size="11.0" fill="#9085e9">MA7:127.1</text>
<line x1="10.0" y1="356.0" x2="830.0" y2="356.0" stroke="#2c2c2a" stroke-width="1.0"/>
<text x="14.0" y="353.0" font-size="11.0" fill="#898781">0</text>
<line x1="10.0" y1="259.5" x2="830.0" y2="259.5" stroke="#2c2c2a" stroke-width="1.0"/>
<text x="14.0" y="256.5" font-size="11.0" fill="#898781">100</text>
<line x1="10.0" y1="163.0" x2="830.0" y2="163.0" stroke="#2c2c2a" stroke-width="1.0"/>
<text x="14.0" y="160.0" font-size="11.0" fill="#898781">200</text>
<line x1="10.0" y1="66.5" x2="830.0" y2="66.5" stroke="#2c2c2a" stroke-width="1.0"/>
<text x="14.0" y="63.5" font-size="11.0" fill="#898781">300</text>
<polyline points="494.5,79.8 519.4,83.5 544.2,94.1 569.1,95.6 593.9,96.5 618.8,96.4 643.6,98.2 668.5,105.2 693.3,91.7 718.2,92.9 743.0,91.6 767.9,91.8 792.7,92.2 817.6,92.8" fill="none" stroke="#c98500" stroke-width="1.5" stroke-linejoin="round" stroke-linecap="round"/>
<polyline points="494.5,140.1 519.4,141.3 544.2,144.6 569.1,145.2 593.9,146.6 618.8,148.4 643.6,151.7 668.5,154.6 693.3,163.8 718.2,171.1 743.0,173.8 767.9,176.3 792.7,178.6 817.6,184.2" fill="none" stroke="#3987e5" stroke-width="1.5" stroke-linejoin="round" stroke-linecap="round"/>
<polyline points="494.5,200.4 519.4,199.1 544.2,195.1 569.1,194.9 593.9,196.6 618.8,200.4 643.6,205.1 668.5,204.0 693.3,235.9 718.2,249.4 743.0,255.9 767.9,260.7 792.7,264.9 817.6,275.6" fill="none" stroke="#d55181" stroke-width="1.5" stroke-linejoin="round" stroke-linecap="round"/>
<polyline points="171.5,115.4 196.4,116.4 221.2,120.6 246.1,128.3 270.9,133.2 295.8,137.2 320.6,140.5 345.5,144.4 370.3,151.0 395.2,155.3 420.0,153.7 444.8,156.5 469.7,159.0 494.5,159.5 519.4,158.1 544.2,157.2 569.1,156.3 593.9,156.1 618.8,154.7 643.6,154.7 668.5,156.9 693.3,180.6 718.2,196.5 743.0,210.0 767.9,218.0 792.7,223.5 817.6,233.3" fill="none" stroke="#9085e9" stroke-width="1.5" stroke-linejoin="round" stroke-linecap="round"/>
<rect x="15.6" y="98.3" width="13.7" height="257.7" fill="none" stroke="#e66767" stroke-width="1.3"/>
<rect x="40.4" y="80.0" width="13.7" height="18.3" fill="none" stroke="#e66767" stroke-width="1.3"/>
<rect x="65.3" y="80.0" width="13.7" height="41.5" fill="#008300"/>
<rect x="90.1" y="121.5" width="13.7" height="14.5" fill="#008300"/>
<rect x="115.0" y="136.0" width="13.7" height="7.7" fill="#008300"/>
<rect x="139.8" y="122.4" width="13.7" height="21.2" fill="none" stroke="#e66767" stroke-width="1.3"/>
<rect x="164.7" y="106.0" width="13.7" height="16.4" fill="none" stroke="#e66767" stroke-width="1.3"/>
<rect x="189.5" y="105.1" width="13.7" height="1.2" fill="none" stroke="#e66767" stroke-width="1.3"/>
<rect x="214.4" y="105.1" width="13.7" height="4.8" fill="#008300"/>
<rect x="239.2" y="109.9" width="13.7" height="65.6" fill="#008300"/>
<rect x="264.1" y="169.7" width="13.7" height="5.8" fill="none" stroke="#e66767" stroke-width="1.3"/>
<rect x="288.9" y="169.7" width="13.7" height="1.9" fill="#008300"/>
<rect x="313.8" y="145.6" width="13.7" height="26.1" fill="none" stroke="#e66767" stroke-width="1.3"/>
<rect x="338.6" y="133.1" width="13.7" height="12.5" fill="none" stroke="#e66767" stroke-width="1.3"/>
<rect x="363.5" y="133.1" width="13.7" height="18.3" fill="#008300"/>
<rect x="388.3" y="139.8" width="13.7" height="11.6" fill="none" stroke="#e66767" stroke-width="1.3"/>
<rect x="413.2" y="139.8" width="13.7" height="25.1" fill="#008300"/>
<rect x="438.0" y="164.9" width="13.7" height="24.1" fill="#008300"/>
<rect x="462.9" y="189.0" width="13.7" height="1.2" fill="#898781"/>
<rect x="487.7" y="149.5" width="13.7" height="39.6" fill="none" stroke="#e66767" stroke-width="1.3"/>
<rect x="512.6" y="122.4" width="13.7" height="27.0" fill="none" stroke="#e66767" stroke-width="1.3"/>
<rect x="537.4" y="122.4" width="13.7" height="23.2" fill="#008300"/>
<rect x="562.3" y="134.0" width="13.7" height="11.6" fill="none" stroke="#e66767" stroke-width="1.3"/>
<rect x="587.1" y="134.0" width="13.7" height="29.0" fill="#008300"/>
<rect x="612.0" y="163.0" width="13.7" height="16.4" fill="#008300"/>
<rect x="636.8" y="179.4" width="13.7" height="9.7" fill="#008300"/>
<rect x="661.7" y="164.9" width="13.7" height="24.1" fill="none" stroke="#e66767" stroke-width="1.3"/>
<rect x="686.5" y="164.9" width="13.7" height="123.5" fill="#008300"/>
<rect x="711.3" y="256.6" width="13.7" height="31.8" fill="none" stroke="#e66767" stroke-width="1.3"/>
<rect x="736.2" y="228.6" width="13.7" height="28.0" fill="none" stroke="#e66767" stroke-width="1.3"/>
<rect x="761.0" y="219.0" width="13.7" height="9.7" fill="none" stroke="#e66767" stroke-width="1.3"/>
<rect x="785.9" y="218.0" width="13.7" height="1.2" fill="none" stroke="#e66767" stroke-width="1.3"/>
<rect x="810.7" y="218.0" width="13.7" height="39.6" fill="#008300"/>
<circle cx="47.3" cy="80.0" r="2" fill="#c3c2b7"/>
<line x1="47.3" y1="80.0" x2="55.3" y2="80.0" stroke="#c3c2b7" stroke-width="1.0"/>
<text x="58.3" y="84.0" font-size="11.0" fill="#c3c2b7">286</text>
<circle cx="22.4" cy="356.0" r="2" fill="#c3c2b7"/>
<line x1="22.4" y1="356.0" x2="30.4" y2="356.0" stroke="#c3c2b7" stroke-width="1.0"/>
<text x="33.4" y="350.0" font-size="11.0" fill="#c3c2b7">0</text>
<text x="14.0" y="376.0" font-size="11.0" fill="#c3c2b7">VOL 8 forks</text>
<text x="90.6" y="376.0" font-size="11.0" fill="#c98500">MA5:35</text>
<text x="136.9" y="376.0" font-size="11.0" fill="#3987e5">MA10:46</text>
<text x="14.0" y="395.0" font-size="10" fill="#898781">98</text>
<rect x="15.6" y="397.2" width="13.7" height="72.8" fill="none" stroke="#e66767" stroke-width="1.1"/>
<rect x="40.4" y="393.0" width="13.7" height="77.0" fill="none" stroke="#e66767" stroke-width="1.1"/>
<rect x="65.3" y="414.8" width="13.7" height="55.2" fill="#008300"/>
<rect x="90.1" y="413.9" width="13.7" height="56.1" fill="#008300"/>
<rect x="115.0" y="426.5" width="13.7" height="43.5" fill="#008300"/>
<rect x="139.8" y="393.9" width="13.7" height="76.1" fill="none" stroke="#e66767" stroke-width="1.1"/>
<rect x="164.7" y="396.4" width="13.7" height="73.6" fill="none" stroke="#e66767" stroke-width="1.1"/>
<rect x="189.5" y="403.9" width="13.7" height="66.1" fill="none" stroke="#e66767" stroke-width="1.1"/>
<rect x="214.4" y="403.9" width="13.7" height="66.1" fill="#008300"/>
<rect x="239.2" y="422.3" width="13.7" height="47.7" fill="#008300"/>
<rect x="264.1" y="424.0" width="13.7" height="46.0" fill="none" stroke="#e66767" stroke-width="1.1"/>
<rect x="288.9" y="426.5" width="13.7" height="43.5" fill="#008300"/>
<rect x="313.8" y="408.1" width="13.7" height="61.9" fill="none" stroke="#e66767" stroke-width="1.1"/>
<rect x="338.6" y="397.2" width="13.7" height="72.8" fill="none" stroke="#e66767" stroke-width="1.1"/>
<rect x="363.5" y="388.0" width="13.7" height="82.0" fill="#008300"/>
<rect x="388.3" y="417.3" width="13.7" height="52.7" fill="none" stroke="#e66767" stroke-width="1.1"/>
<rect x="413.2" y="415.6" width="13.7" height="54.4" fill="#008300"/>
<rect x="438.0" y="420.6" width="13.7" height="49.4" fill="#008300"/>
<rect x="462.9" y="425.7" width="13.7" height="44.3" fill="#898781"/>
<rect x="487.7" y="423.1" width="13.7" height="46.9" fill="none" stroke="#e66767" stroke-width="1.1"/>
<rect x="512.6" y="407.2" width="13.7" height="62.8" fill="none" stroke="#e66767" stroke-width="1.1"/>
<rect x="537.4" y="408.1" width="13.7" height="61.9" fill="#008300"/>
<rect x="562.3" y="403.9" width="13.7" height="66.1" fill="none" stroke="#e66767" stroke-width="1.1"/>
<rect x="587.1" y="413.9" width="13.7" height="56.1" fill="#008300"/>
<rect x="612.0" y="431.5" width="13.7" height="38.5" fill="#008300"/>
<rect x="636.8" y="403.9" width="13.7" height="66.1" fill="#008300"/>
<rect x="661.7" y="413.9" width="13.7" height="56.1" fill="none" stroke="#e66767" stroke-width="1.1"/>
<rect x="686.5" y="448.2" width="13.7" height="21.8" fill="#008300"/>
<rect x="711.3" y="438.2" width="13.7" height="31.8" fill="none" stroke="#e66767" stroke-width="1.1"/>
<rect x="736.2" y="441.6" width="13.7" height="28.4" fill="none" stroke="#e66767" stroke-width="1.1"/>
<rect x="761.0" y="434.0" width="13.7" height="36.0" fill="none" stroke="#e66767" stroke-width="1.1"/>
<rect x="785.9" y="426.5" width="13.7" height="43.5" fill="none" stroke="#e66767" stroke-width="1.1"/>
<rect x="810.7" y="463.3" width="13.7" height="6.7" fill="#008300"/>
<polyline points="246.1,406.6 270.9,409.3 295.8,412.6 320.6,411.9 345.5,410.3 370.3,406.4 395.2,408.8 420.0,410.7 444.8,412.3 469.7,414.5 494.5,414.6 519.4,412.9 544.2,411.1 569.1,410.7 593.9,412.3 618.8,416.7 643.6,415.4 668.5,415.2 693.3,418.0 718.2,419.2 743.0,421.1 767.9,423.7 792.7,425.6 817.6,431.5" fill="none" stroke="#3987e5" stroke-width="1.5" stroke-linejoin="round" stroke-linecap="round"/>
<polyline points="121.8,409.1 146.7,408.4 171.5,409.1 196.4,406.9 221.2,404.9 246.1,404.1 270.9,410.1 295.8,416.1 320.6,417.0 345.5,415.6 370.3,408.8 395.2,407.4 420.0,405.2 444.8,407.7 469.7,413.4 494.5,420.5 519.4,418.5 544.2,417.0 569.1,413.6 593.9,411.3 618.8,412.9 643.6,412.3 668.5,413.4 693.3,422.3 718.2,427.2 743.0,429.2 767.9,435.2 792.7,437.7 817.6,440.7" fill="none" stroke="#c98500" stroke-width="1.5" stroke-linejoin="round" stroke-linecap="round"/>
</svg>