<svg xmlns="http://www.w3.org/2000/svg" viewBox="0 0 840 496" width="840" height="496" font-family="-apple-system,&#39;Segoe UI&#39;,system-ui,sans-serif" role="img" aria-label="openclaw/openclaw candlestick chart">
<text x="14.0" y="20.0" font-size="15" fill="#0b0b0b" font-weight="650">openclaw/openclaw</text>
<text x="158.2" y="20.0" font-size="11.5" fill="#52514e">daily · new stars, volume = new forks</text>
<text x="805.8" y="20.0" font-size="11.0" fill="#52514e">fall</text>
<rect x="791" y="10" width="9" height="12" fill="#008300"/>
<text x="750.6" y="20.0" font-size="11.0" fill="#52514e">rise</text>
<rect x="736" y="10" width="9" height="12" fill="none" stroke="#e34948" stroke-width="1.5"/>
<text x="14.0" y="38.0" font-size="11.0" fill="#898781">last 45 days · +7,942 stars · +2,469 forks · updated 2026-07-24</text>
<rect x="10" y="66" width="820" height="290" fill="none" stroke="#e1e0d9"/>
<rect x="10" y="384" width="820" height="86" fill="none" stroke="#e1e0d9"/>
<text x="38.0" y="490.0" font-size="11.0" fill="#898781" text-anchor="middle">2026-06</text>
<line x1="392.7" y1="66.0" x2="392.7" y2="356.0" stroke="#e1e0d9" stroke-width="1.0"/>
<line x1="392.7" y1="384.0" x2="392.7" y2="470.0" stroke="#e1e0d9" stroke-width="1.0"/>
<text x="401.8" y="490.0" font-size="11.0" fill="#898781" text-anchor="middle">2026-07</text>
<text x="14.0" y="58.0" font-size="11.0" fill="#52514e">BOLL(20,2)</text>
<text x="84.5" y="58.0" font-size="11.0" fill="#eda100">UP:177.2</text>
<text x="142.9" y="58.0" font-size="11.0" fill="#2a78d6">MID:119.8</text>
<text x="207.4" y="58.0" font-size="11.0" fill="#e87ba4">LOW:62.3</text>
<text x="265.8" y="58.0" font-size="11.0" fill="#4a3aa7">MA7:111.1</text>
<line x1="10.0" y1="356.0" x2="830.0" y2="356.0" stroke="#e1e0d9" stroke-width="1.0"/>
<text x="14.0" y="353.0" font-size="11.0" fill="#898781">0</text>
<line x1="10.0" y1="259.5" x2="830.0" y2="259.5" stroke="#e1e0d9" stroke-width="1.0"/>
<text x="14.0" y="256.5" font-size="11.0" fill="#898781">100</text>
<line x1="10.0" y1="163.0" x2="830.0" y2="163.0" stroke="#e1e0d9" stroke-width="1.0"/>
<text x="14.0" y="160.0" font-size="11.0" fill="#898781">200</text>
<line x1="10.0" y1="66.5" x2="830.0" y2="66.5" stroke="#e1e0d9" stroke-width="1.0"/>
<text x="14.0" y="63.5" font-size="11.0" fill="#898781">300</text>
<polyline points="365.3,79.8 383.6,83.5 401.8,94.1 420.0,95.6 438.2,96.5 456.4,96.4 474.7,98.2 492.9,105.2 511.1,91.7 529.3,92.9 547.6,91.6 565.8,91.8 584.0,92.2 602.2,92.8 620.4,96.6 638.7,100.7 656.9,106.2 675.1,109.5 693.3,111.2 711.6,113.1 729.8,120.8 748.0,135.9 766.2,147.7 784.4,164.1 802.7,175.7 820.9,185.0" fill="none" stroke="#eda100" stroke-width="1.5" stroke-linejoin="round" stroke-linecap="round"/>
<polyline points="365.3,140.1 383.6,141.3 401.8,144.6 420.0,145.2 438.2,146.6 456.4,148.4 474.7,151.7 492.9,154.6 511.1,163.8 529.3,171.1 547.6,173.8 565.8,176.3 584.0,178.6 602.2,184.2 620.4,190.5 638.7,194.7 656.9,200.7 675.1,205.1 693.3,207.5 711.6,210.0 729.8,215.0 748.0,222.0 766.2,227.7 784.4,231.9 802.7,237.1 820.9,240.4" fill="none" stroke="#2a78d6" stroke-width="1.5" stroke-linejoin="round" stroke-linecap="round"/>
<polyline points="365.3,200.4 383.6,199.1 401.8,195.1 420.0,194.9 438.2,196.6 456.4,200.4 474.7,205.1 492.9,204.0 511.1,235.9 529.3,249.4 547.6,255.9 565.8,260.7 584.0,264.9 602.2,275.6 620.4,284.4 638.7,288.7 656.9,295.2 675.1,300.7 693.3,303.9 711.6,306.8 729.8,309.2 748.0,308.2 766.2,307.8 784.4,299.7 802.7,298.4 820.9,295.9" fill="none" stroke="#e87ba4" stroke-width="1.5" stroke-linejoin="round" stroke-linecap="round"/>
<polyline points="128.4,115.4 146.7,116.4 164.9,120.6 183.1,128.3 201.3,133.2 219.6,137.2 237.8,140.5 256.0,144.4 274.2,151.0 292.4,155.3 310.7,153.7 328.9,156.5 347.1,159.0 365.3,159.5 383.6,158.1 401.8,157.2 420.0,156.3 438.2,156.1 456.4,154.7 474.7,154.7 492.9,156.9 511.1,180.6 529.3,196.5 547.6,210.0 565.8,218.0 584.0,223.5 602.2,233.3 620.4,246.8 638.7,239.2 656.9,239.6 675.1,243.1 693.3,245.9 711.6,248.8 729.8,247.6 748.0,248.2 766.2,251.7 784.4,245.7 802.7,247.5 820.9,248.8" fill="none" stroke="#4a3aa7" stroke-width="1.5" stroke-linejoin="round" stroke-linecap="round"/>
<rect x="14.1" y="98.3" width="10.0" height="257.7" fill="none" stroke="#e34948" stroke-width="1.3"/>
<rect x="32.3" y="80.0" width="10.0" height="18.3" fill="none" stroke="#e34948" stroke-width="1.3"/>
<rect x="50.5" y="80.0" width="10.0" height="41.5" fill="#008300"/>
<rect x="68.8" y="121.5" width="10.0" height="14.5" fill="#008300"/>
<rect x="87.0" y="136.0" width="10.0" height="7.7" fill="#008300"/>
<rect x="105.2" y="122.4" width="10.0" height="21.2" fill="none" stroke="#e34948" stroke-width="1.3"/>
<rect x="123.4" y="106.0" width="10.0" height="16.4" fill="none" stroke="#e34948" stroke-width="1.3"/>
<rect x="141.7" y="105.1" width="10.0" height="1.2" fill="none" stroke="#e34948" stroke-width="1.3"/>
<rect x="159.9" y="105.1" width="10.0" height="4.8" fill="#008300"/>
<rect x="178.1" y="109.9" width="10.0" height="65.6" fill="#008300"/>
<rect x="196.3" y="169.7" width="10.0" height="5.8" fill="none" stroke="#e34948" stroke-width="1.3"/>
<rect x="214.5" y="169.7" width="10.0" height="1.9" fill="#008300"/>
<rect x="232.8" y="145.6" width="10.0" height="26.1" fill="none" stroke="#e34948" stroke-width="1.3"/>
<rect x="251.0" y="133.1" width="10.0" height="12.5" fill="none" stroke="#e34948" stroke-width="1.3"/>
<rect x="269.2" y="133.1" width="10.0" height="18.3" fill="#008300"/>
<rect x="287.4" y="139.8" width="10.0" height="11.6" fill="none" stroke="#e34948" stroke-width="1.3"/>
<rect x="305.7" y="139.8" width="10.0" height="25.1" fill="#008300"/>
<rect x="323.9" y="164.9" width="10.0" height="24.1" fill="#008300"/>
<rect x="342.1" y="189.0" width="10.0" height="1.2" fill="#898781"/>
<rect x="360.3" y="149.5" width="10.0" height="39.6" fill="none" stroke="#e34948" stroke-width="1.3"/>
<rect x="378.5" y="122.4" width="10.0" height="27.0" fill="none" stroke="#e34948" stroke-width="1.3"/>
<rect x="396.8" y="122.4" width="10.0" height="23.2" fill="#008300"/>
<rect x="415.0" y="134.0" width="10.0" height="11.6" fill="none" stroke="#e34948" stroke-width="1.3"/>
<rect x="433.2" y="134.0" width="10.0" height="29.0" fill="#008300"/>
<rect x="451.4" y="163.0" width="10.0" height="16.4" fill="#008300"/>
<rect x="469.7" y="179.4" width="10.0" height="9.7" fill="#008300"/>
<rect x="487.9" y="164.9" width="10.0" height="24.1" fill="none" stroke="#e34948" stroke-width="1.3"/>
<rect x="506.1" y="164.9" width="10.0" height="123.5" fill="#008300"/>
<rect x="524.3" y="256.6" width="10.0" height="31.8" fill="none" stroke="#e34948" stroke-width="1.3"/>
<rect x="542.5" y="228.6" width="10.0" height="28.0" fill="none" stroke="#e34948" stroke-width="1.3"/>
<rect x="560.8" y="219.0" width="10.0" height="9.7" fill="none" stroke="#e34948" stroke-width="1.3"/>
<rect x="579.0" y="218.0" width="10.0" height="1.2" fill="none" stroke="#e34948" stroke-width="1.3"/>
<rect x="597.2" y="218.0" width="10.0" height="39.6" fill="#008300"/>
<rect x="615.4" y="257.6" width="10.0" height="1.9" fill="#008300"/>
<rect x="633.7" y="235.4" width="10.0" height="24.1" fill="none" stroke="#e34948" stroke-width="1.3"/>
<rect x="651.9" y="235.4" width="10.0" height="24.1" fill="#008300"/>
<rect x="670.1" y="252.7" width="10.0" height="6.8" fill="none" stroke="#e34948" stroke-width="1.3"/>
<rect x="688.3" y="238.3" width="10.0" height="14.5" fill="none" stroke="#e34948" stroke-width="1.3"/>
<rect x="706.5" y="238.3" width="10.0" height="1.2" fill="#898781"/>
<rect x="724.8" y="238.3" width="10.0" height="11.6" fill="#008300"/>
<rect x="743.0" y="249.8" width="10.0" height="13.5" fill="#008300"/>
<rect x="761.2" y="259.5" width="10.0" height="3.9" fill="none" stroke="#e34948" stroke-width="1.3"/>
<rect x="779.4" y="218.0" width="10.0" height="41.5" fill="none" stroke="#e34948" stroke-width="1.3"/>
<rect x="797.7" y="218.0" width="10.0" height="47.3" fill="#008300"/>
<rect x="815.9" y="246.9" width="10.0" height="18.3" fill="none" stroke="#e34948" stroke-width="1.3"/>
<circle cx="37.3" cy="80.0" r="2" fill="#52514e"/>
<line x1="37.3" y1="80.0" x2="45.3" y2="80.0" stroke="#52514e" stroke-width="1.0"/>
<text x="48.3" y="84.0" font-size="11.0" fill="#52514e">286</text>
<circle cx="19.1" cy="356.0" r="2" fill="#52514e"/>
<line x1="19.1" y1="356.0" x2="27.1" y2="356.0" stroke="#52514e" stroke-width="1.0"/>
<text x="30.1" y="350.0" font-size="11.0" fill="#52514e">0</text>
<text x="14.0" y="376.0" font-size="11.0" fill="#52514e">VOL 13 forks</text>
<text x="96.6" y="376.0" font-size="11.0" fill="#eda100">MA5:25.8</text>
<text x="155.0" y="376.0" font-size="11.0" fill="#2a78d6">MA10:31.2</text>
<text x="14.0" y="395.0" font-size="10" fill="#898781">98</text>
<rect x="14.1" y="397.2" width="10.0" height="72.8" fill="none" stroke="#e34948" stroke-width="1.1"/>
<rect x="32.3" y="393.0" width="10.0" height="77.0" fill="none" stroke="#e34948" stroke-width="1.1"/>
<rect x="50.5" y="414.8" width="10.0" height="55.2" fill="#008300"/>
<rect x="68.8" y="413.9" width="10.0" height="56.1" fill="#008300"/>
<rect x="87.0" y="426.5" width="10.0" height="43.5" fill="#008300"/>
<rect x="105.2" y="393.9" width="10.0" height="76.1" fill="none" stroke="#e34948" stroke-width="1.1"/>
<rect x="123.4" y="396.4" width="10.0" height="73.6" fill="none" stroke="#e34948" stroke-width="1.1"/>
<rect x="141.7" y="403.9" width="10.0" height="66.1" fill="none" stroke="#e34948" stroke-width="1.1"/>
<rect x="159.9" y="403.9" width="10.0" height="66.1" fill="#008300"/>
<rect x="178.1" y="422.3" width="10.0" height="47.7" fill="#008300"/>
<rect x="196.3" y="424.0" width="10.0" height="46.0" fill="none" stroke="#e34948" stroke-width="1.1"/>
<rect x="214.5" y="426.5" width="10.0" height="43.5" fill="#008300"/>
<rect x="232.8" y="408.1" width="10.0" height="61.9" fill="none" stroke="#e34948" stroke-width="1.1"/>
<rect x="251.0" y="397.2" width="10.0" height="72.8" fill="none" stroke="#e34948" stroke-width="1.1"/>
<rect x="269.2" y="388.0" width="10.0" height="82.0" fill="#008300"/>
<rect x="287.4" y="417.3" width="10.0" height="52.7" fill="none" stroke="#e34948" stroke-width="1.1"/>
<rect x="305.7" y="415.6" width="10.0" height="54.4" fill="#008300"/>
<rect x="323.9" y="420.6" width="10.0" height="49.4" fill="#008300"/>
<rect x="342.1" y="425.7" width="10.0" height="44.3" fill="#898781"/>
<rect x="360.3" y="423.1" width="10.0" height="46.9" fill="none" stroke="#e34948" stroke-width="1.1"/>
<rect x="378.5" y="407.2" width="10.0" height="62.8" fill="none" stroke="#e34948" stroke-width="1.1"/>
<rect x="396.8" y="408.1" width="10.0" height="61.9" fill="#008300"/>
<rect x="415.0" y="403.9" width="10.0" height="66.1" fill="none" stroke="#e34948" stroke-width="1.1"/>
<rect x="433.2" y="413.9" width="10.0" height="56.1" fill="#008300"/>
<rect x="451.4" y="431.5" width="10.0" height="38.5" fill="#008300"/>
<rect x="469.7" y="403.9" width="10.0" height="66.1" fill="#008300"/>
<rect x="487.9" y="413.9" width="10.0" height="56.1" fill="none" stroke="#e34948" stroke-width="1.1"/>
<rect x="506.1" y="448.2" width="10.0" height="21.8" fill="#008300"/>
<rect x="524.3" y="438.2" width="10.0" height="31.8" fill="none" stroke="#e34948" stroke-width="1.1"/>
<rect x="542.5" y="441.6" width="10.0" height="28.4" fill="none" stroke="#e34948" stroke-width="1.1"/>
<rect x="560.8" y="434.0" width="10.0" height="36.0" fill="none" stroke="#e34948" stroke-width="1.1"/>
<rect x="579.0" y="426.5" width="10.0" height="43.5" fill="none" stroke="#e34948" stroke-width="1.1"/>
<rect x="597.2" y="463.3" width="10.0" height="6.7" fill="#008300"/>
<rect x="615.4" y="443.2" width="10.0" height="26.8" fill="#008300"/>
<rect x="633.7" y="455.8" width="10.0" height="14.2" fill="none" stroke="#e34948" stroke-width="1.1"/>
<rect x="651.9" y="428.2" width="10.0" height="41.8" fill="#008300"/>
<rect x="670.1" y="435.7" width="10.0" height="34.3" fill="none" stroke="#e34948" stroke-width="1.1"/>
<rect x="688.3" y="439.0" width="10.0" height="31.0" fill="none" stroke="#e34948" stroke-width="1.1"/>
<rect x="706.5" y="434.0" width="10.0" height="36.0" fill="#898781"/>
<rect x="724.8" y="460.0" width="10.0" height="10.0" fill="#008300"/>
<rect x="743.0" y="447.4" width="10.0" height="22.6" fill="#008300"/>
<rect x="761.2" y="448.2" width="10.0" height="21.8" fill="none" stroke="#e34948" stroke-width="1.1"/>
<rect x="779.4" y="428.2" width="10.0" height="41.8" fill="none" stroke="#e34948" stroke-width="1.1"/>
<rect x="797.7" y="459.1" width="10.0" height="10.9" fill="#008300"/>
<rect x="815.9" y="459.1" width="10.0" height="10.9" fill="none" stroke="#e34948" stroke-width="1.1"/>
<polyline points="183.1,406.6 201.3,409.3 219.6,412.6 237.8,411.9 256.0,410.3 274.2,406.4 292.4,408.8 310.7,410.7 328.9,412.3 347.1,414.5 365.3,414.6 383.6,412.9 401.8,411.1 420.0,410.7 438.2,412.3 456.4,416.7 474.7,415.4 492.9,415.2 511.1,418.0 529.3,419.2 547.6,421.1 565.8,423.7 584.0,425.6 602.2,431.5 620.4,434.4 638.7,436.9 656.9,439.3 675.1,441.5 693.3,440.5 711.6,440.1 729.8,442.0 748.0,443.3 766.2,445.5 784.4,442.0 802.7,443.6 820.9,443.9" fill="none" stroke="#2a78d6" stroke-width="1.5" stroke-linejoin="round" stroke-linecap="round"/>
<polyline points="92.0,409.1 110.2,408.4 128.4,409.1 146.7,406.9 164.9,404.9 183.1,404.1 201.3,410.1 219.6,416.1 237.8,417.0 256.0,415.6 274.2,408.8 292.4,407.4 310.7,405.2 328.9,407.7 347.1,413.4 365.3,420.5 383.6,418.5 401.8,417.0 420.0,413.6 438.2,411.3 456.4,412.9 474.7,412.3 492.9,413.4 511.1,422.3 529.3,427.2 547.6,429.2 565.8,435.2 584.0,437.7 602.2,440.7 620.4,441.7 638.7,444.6 656.9,443.4 675.1,445.2 693.3,440.4 711.6,438.5 729.8,439.4 748.0,443.2 766.2,445.7 784.4,443.6 802.7,448.6 820.9,448.4" fill="none" stroke="#eda100" stroke-width="1.5" stroke-linejoin="round" stroke-linecap="round"/>
</svg>