<svg xmlns="http://www.w3.org/2000/svg" viewBox="0 0 840 496" width="840" height="496" font-family="-apple-system,&#39;Segoe UI&#39;,system-ui,sans-serif" role="img" aria-label="openclaw/openclaw candlestick chart">
<text x="14.0" y="20.0" font-size="15" fill="#0b0b0b" font-weight="650">openclaw/openclaw</text>
<text x="158.2" y="20.0" font-size="11.5" fill="#52514e">daily · new stars, volume = new forks</text>
<text x="805.8" y="20.0" font-size="11.0" fill="#52514e">fall</text>
<rect x="791" y="10" width="9" height="12" fill="#008300"/>
<text x="750.6" y="20.0" font-size="11.0" fill="#52514e">rise</text>
<rect x="736" y="10" width="9" height="12" fill="none" stroke="#e34948" stroke-width="1.5"/>
<text x="14.0" y="38.0" font-size="11.0" fill="#898781">last 35 days · +6,835 stars · +2,157 forks · updated 2026-07-14</text>
<rect x="10" y="66" width="820" height="290" fill="none" stroke="#e1e0d9"/>
<rect x="10" y="384" width="820" height="86" fill="none" stroke="#e1e0d9"/>
<text x="38.0" y="490.0" font-size="11.0" fill="#898781" text-anchor="middle">2026-06</text>
<line x1="502.0" y1="66.0" x2="502.0" y2="356.0" stroke="#e1e0d9" stroke-width="1.0"/>
<line x1="502.0" y1="384.0" x2="502.0" y2="470.0" stroke="#e1e0d9" stroke-width="1.0"/>
<text x="513.7" y="490.0" font-size="11.0" fill="#898781" text-anchor="middle">2026-07</text>
<text x="14.0" y="58.0" font-size="11.0" fill="#52514e">BOLL(20,2)</text>
<text x="84.5" y="58.0" font-size="11.0" fill="#eda100">UP:264.6</text>
<text x="142.9" y="58.0" font-size="11.0" fill="#2a78d6">MID:167.2</text>
<text x="207.4" y="58.0" font-size="11.0" fill="#e87ba4">LOW:69.8</text>
<text x="265.8" y="58.0" font-size="11.0" fill="#4a3aa7">MA7:121</text>
<line x1="10.0" y1="356.0" x2="830.0" y2="356.0" stroke="#e1e0d9" stroke-width="1.0"/>
<text x="14.0" y="353.0" font-size="11.0" fill="#898781">0</text>
<line x1="10.0" y1="259.5" x2="830.0" y2="259.5" stroke="#e1e0d9" stroke-width="1.0"/>
<text x="14.0" y="256.5" font-size="11.0" fill="#898781">100</text>
<line x1="10.0" y1="163.0" x2="830.0" y2="163.0" stroke="#e1e0d9" stroke-width="1.0"/>
<text x="14.0" y="160.0" font-size="11.0" fill="#898781">200</text>
<line x1="10.0" y1="66.5" x2="830.0" y2="66.5" stroke="#e1e0d9" stroke-width="1.0"/>
<text x="14.0" y="63.5" font-size="11.0" fill="#898781">300</text>
<polyline points="466.9,79.8 490.3,83.5 513.7,94.1 537.1,95.6 560.6,96.5 584.0,96.4 607.4,98.2 630.9,105.2 654.3,91.7 677.7,92.9 701.1,91.6 724.6,91.8 748.0,92.2 771.4,92.8 794.9,96.6 818.3,100.7" fill="none" stroke="#eda100" stroke-width="1.5" stroke-linejoin="round" stroke-linecap="round"/>
<polyline points="466.9,140.1 490.3,141.3 513.7,144.6 537.1,145.2 560.6,146.6 584.0,148.4 607.4,151.7 630.9,154.6 654.3,163.8 677.7,171.1 701.1,173.8 724.6,176.3 748.0,178.6 771.4,184.2 794.9,190.5 818.3,194.7" fill="none" stroke="#2a78d6" stroke-width="1.5" stroke-linejoin="round" stroke-linecap="round"/>
<polyline points="466.9,200.4 490.3,199.1 513.7,195.1 537.1,194.9 560.6,196.6 584.0,200.4 607.4,205.1 630.9,204.0 654.3,235.9 677.7,249.4 701.1,255.9 724.6,260.7 748.0,264.9 771.4,275.6 794.9,284.4 818.3,288.7" fill="none" stroke="#e87ba4" stroke-width="1.5" stroke-linejoin="round" stroke-linecap="round"/>
<polyline points="162.3,115.4 185.7,116.4 209.1,120.6 232.6,128.3 256.0,133.2 279.4,137.2 302.9,140.5 326.3,144.4 349.7,151.0 373.1,155.3 396.6,153.7 420.0,156.5 443.4,159.0 466.9,159.5 490.3,158.1 513.7,157.2 537.1,156.3 560.6,156.1 584.0,154.7 607.4,154.7 630.9,156.9 654.3,180.6 677.7,196.5 701.1,210.0 724.6,218.0 748.0,223.5 771.4,233.3 794.9,246.8 818.3,239.2" fill="none" stroke="#4a3aa7" stroke-width="1.5" stroke-linejoin="round" stroke-linecap="round"/>
<rect x="15.3" y="98.3" width="12.9" height="257.7" fill="none" stroke="#e34948" stroke-width="1.3"/>
<rect x="38.7" y="80.0" width="12.9" height="18.3" fill="none" stroke="#e34948" stroke-width="1.3"/>
<rect x="62.1" y="80.0" width="12.9" height="41.5" fill="#008300"/>
<rect x="85.6" y="121.5" width="12.9" height="14.5" fill="#008300"/>
<rect x="109.0" y="136.0" width="12.9" height="7.7" fill="#008300"/>
<rect x="132.4" y="122.4" width="12.9" height="21.2" fill="none" stroke="#e34948" stroke-width="1.3"/>
<rect x="155.8" y="106.0" width="12.9" height="16.4" fill="none" stroke="#e34948" stroke-width="1.3"/>
<rect x="179.3" y="105.1" width="12.9" height="1.2" fill="none" stroke="#e34948" stroke-width="1.3"/>
<rect x="202.7" y="105.1" width="12.9" height="4.8" fill="#008300"/>
<rect x="226.1" y="109.9" width="12.9" height="65.6" fill="#008300"/>
<rect x="249.6" y="169.7" width="12.9" height="5.8" fill="none" stroke="#e34948" stroke-width="1.3"/>
<rect x="273.0" y="169.7" width="12.9" height="1.9" fill="#008300"/>
<rect x="296.4" y="145.6" width="12.9" height="26.1" fill="none" stroke="#e34948" stroke-width="1.3"/>
<rect x="319.8" y="133.1" width="12.9" height="12.5" fill="none" stroke="#e34948" stroke-width="1.3"/>
<rect x="343.3" y="133.1" width="12.9" height="18.3" fill="#008300"/>
<rect x="366.7" y="139.8" width="12.9" height="11.6" fill="none" stroke="#e34948" stroke-width="1.3"/>
<rect x="390.1" y="139.8" width="12.9" height="25.1" fill="#008300"/>
<rect x="413.6" y="164.9" width="12.9" height="24.1" fill="#008300"/>
<rect x="437.0" y="189.0" width="12.9" height="1.2" fill="#898781"/>
<rect x="460.4" y="149.5" width="12.9" height="39.6" fill="none" stroke="#e34948" stroke-width="1.3"/>
<rect x="483.8" y="122.4" width="12.9" height="27.0" fill="none" stroke="#e34948" stroke-width="1.3"/>
<rect x="507.3" y="122.4" width="12.9" height="23.2" fill="#008300"/>
<rect x="530.7" y="134.0" width="12.9" height="11.6" fill="none" stroke="#e34948" stroke-width="1.3"/>
<rect x="554.1" y="134.0" width="12.9" height="29.0" fill="#008300"/>
<rect x="577.6" y="163.0" width="12.9" height="16.4" fill="#008300"/>
<rect x="601.0" y="179.4" width="12.9" height="9.7" fill="#008300"/>
<rect x="624.4" y="164.9" width="12.9" height="24.1" fill="none" stroke="#e34948" stroke-width="1.3"/>
<rect x="647.8" y="164.9" width="12.9" height="123.5" fill="#008300"/>
<rect x="671.3" y="256.6" width="12.9" height="31.8" fill="none" stroke="#e34948" stroke-width="1.3"/>
<rect x="694.7" y="228.6" width="12.9" height="28.0" fill="none" stroke="#e34948" stroke-width="1.3"/>
<rect x="718.1" y="219.0" width="12.9" height="9.7" fill="none" stroke="#e34948" stroke-width="1.3"/>
<rect x="741.6" y="218.0" width="12.9" height="1.2" fill="none" stroke="#e34948" stroke-width="1.3"/>
<rect x="765.0" y="218.0" width="12.9" height="39.6" fill="#008300"/>
<rect x="788.4" y="257.6" width="12.9" height="1.9" fill="#008300"/>
<rect x="811.8" y="235.4" width="12.9" height="24.1" fill="none" stroke="#e34948" stroke-width="1.3"/>
<circle cx="45.1" cy="80.0" r="2" fill="#52514e"/>
<line x1="45.1" y1="80.0" x2="53.1" y2="80.0" stroke="#52514e" stroke-width="1.0"/>
<text x="56.1" y="84.0" font-size="11.0" fill="#52514e">286</text>
<circle cx="21.7" cy="356.0" r="2" fill="#52514e"/>
<line x1="21.7" y1="356.0" x2="29.7" y2="356.0" stroke="#52514e" stroke-width="1.0"/>
<text x="32.7" y="350.0" font-size="11.0" fill="#52514e">0</text>
<text x="14.0" y="376.0" font-size="11.0" fill="#52514e">VOL 17 forks</text>
<text x="96.6" y="376.0" font-size="11.0" fill="#eda100">MA5:30.4</text>
<text x="155.0" y="376.0" font-size="11.0" fill="#2a78d6">MA10:39.6</text>
<text x="14.0" y="395.0" font-size="10" fill="#898781">98</text>
<rect x="15.3" y="397.2" width="12.9" height="72.8" fill="none" stroke="#e34948" stroke-width="1.1"/>
<rect x="38.7" y="393.0" width="12.9" height="77.0" fill="none" stroke="#e34948" stroke-width="1.1"/>
<rect x="62.1" y="414.8" width="12.9" height="55.2" fill="#008300"/>
<rect x="85.6" y="413.9" width="12.9" height="56.1" fill="#008300"/>
<rect x="109.0" y="426.5" width="12.9" height="43.5" fill="#008300"/>
<rect x="132.4" y="393.9" width="12.9" height="76.1" fill="none" stroke="#e34948" stroke-width="1.1"/>
<rect x="155.8" y="396.4" width="12.9" height="73.6" fill="none" stroke="#e34948" stroke-width="1.1"/>
<rect x="179.3" y="403.9" width="12.9" height="66.1" fill="none" stroke="#e34948" stroke-width="1.1"/>
<rect x="202.7" y="403.9" width="12.9" height="66.1" fill="#008300"/>
<rect x="226.1" y="422.3" width="12.9" height="47.7" fill="#008300"/>
<rect x="249.6" y="424.0" width="12.9" height="46.0" fill="none" stroke="#e34948" stroke-width="1.1"/>
<rect x="273.0" y="426.5" width="12.9" height="43.5" fill="#008300"/>
<rect x="296.4" y="408.1" width="12.9" height="61.9" fill="none" stroke="#e34948" stroke-width="1.1"/>
<rect x="319.8" y="397.2" width="12.9" height="72.8" fill="none" stroke="#e34948" stroke-width="1.1"/>
<rect x="343.3" y="388.0" width="12.9" height="82.0" fill="#008300"/>
<rect x="366.7" y="417.3" width="12.9" height="52.7" fill="none" stroke="#e34948" stroke-width="1.1"/>
<rect x="390.1" y="415.6" width="12.9" height="54.4" fill="#008300"/>
<rect x="413.6" y="420.6" width="12.9" height="49.4" fill="#008300"/>
<rect x="437.0" y="425.7" width="12.9" height="44.3" fill="#898781"/>
<rect x="460.4" y="423.1" width="12.9" height="46.9" fill="none" stroke="#e34948" stroke-width="1.1"/>
<rect x="483.8" y="407.2" width="12.9" height="62.8" fill="none" stroke="#e34948" stroke-width="1.1"/>
<rect x="507.3" y="408.1" width="12.9" height="61.9" fill="#008300"/>
<rect x="530.7" y="403.9" width="12.9" height="66.1" fill="none" stroke="#e34948" stroke-width="1.1"/>
<rect x="554.1" y="413.9" width="12.9" height="56.1" fill="#008300"/>
<rect x="577.6" y="431.5" width="12.9" height="38.5" fill="#008300"/>
<rect x="601.0" y="403.9" width="12.9" height="66.1" fill="#008300"/>
<rect x="624.4" y="413.9" width="12.9" height="56.1" fill="none" stroke="#e34948" stroke-width="1.1"/>
<rect x="647.8" y="448.2" width="12.9" height="21.8" fill="#008300"/>
<rect x="671.3" y="438.2" width="12.9" height="31.8" fill="none" stroke="#e34948" stroke-width="1.1"/>
<rect x="694.7" y="441.6" width="12.9" height="28.4" fill="none" stroke="#e34948" stroke-width="1.1"/>
<rect x="718.1" y="434.0" width="12.9" height="36.0" fill="none" stroke="#e34948" stroke-width="1.1"/>
<rect x="741.6" y="426.5" width="12.9" height="43.5" fill="none" stroke="#e34948" stroke-width="1.1"/>
<rect x="765.0" y="463.3" width="12.9" height="6.7" fill="#008300"/>
<rect x="788.4" y="443.2" width="12.9" height="26.8" fill="#008300"/>
<rect x="811.8" y="455.8" width="12.9" height="14.2" fill="none" stroke="#e34948" stroke-width="1.1"/>
<polyline points="232.6,406.6 256.0,409.3 279.4,412.6 302.9,411.9 326.3,410.3 349.7,406.4 373.1,408.8 396.6,410.7 420.0,412.3 443.4,414.5 466.9,414.6 490.3,412.9 513.7,411.1 537.1,410.7 560.6,412.3 584.0,416.7 607.4,415.4 630.9,415.2 654.3,418.0 677.7,419.2 701.1,421.1 724.6,423.7 748.0,425.6 771.4,431.5 794.9,434.4 818.3,436.9" fill="none" stroke="#2a78d6" stroke-width="1.5" stroke-linejoin="round" stroke-linecap="round"/>
<polyline points="115.4,409.1 138.9,408.4 162.3,409.1 185.7,406.9 209.1,404.9 232.6,404.1 256.0,410.1 279.4,416.1 302.9,417.0 326.3,415.6 349.7,408.8 373.1,407.4 396.6,405.2 420.0,407.7 443.4,413.4 466.9,420.5 490.3,418.5 513.7,417.0 537.1,413.6 560.6,411.3 584.0,412.9 607.4,412.3 630.9,413.4 654.3,422.3 677.7,427.2 701.1,429.2 724.6,435.2 748.0,437.7 771.4,440.7 794.9,441.7 818.3,444.6" fill="none" stroke="#eda100" stroke-width="1.5" stroke-linejoin="round" stroke-linecap="round"/>
</svg>