<svg xmlns="http://www.w3.org/2000/svg" viewBox="0 0 840 496" width="840" height="496" font-family="-apple-system,&#39;Segoe UI&#39;,system-ui,sans-serif" role="img" aria-label="openclaw/openclaw candlestick chart">
<text x="14.0" y="20.0" font-size="15" fill="#ffffff" font-weight="650">openclaw/openclaw</text>
<text x="158.2" y="20.0" font-size="11.5" fill="#c3c2b7">daily · new stars, volume = new forks</text>
<text x="805.8" y="20.0" font-size="11.0" fill="#c3c2b7">fall</text>
<rect x="791" y="10" width="9" height="12" fill="#008300"/>
<text x="750.6" y="20.0" font-size="11.0" fill="#c3c2b7">rise</text>
<rect x="736" y="10" width="9" height="12" fill="none" stroke="#e66767" stroke-width="1.5"/>
<text x="14.0" y="38.0" font-size="11.0" fill="#898781">last 39 days · +7,286 stars · +2,328 forks · updated 2026-07-18</text>
<rect x="10" y="66" width="820" height="290" fill="none" stroke="#2c2c2a"/>
<rect x="10" y="384" width="820" height="86" fill="none" stroke="#2c2c2a"/>
<text x="38.0" y="490.0" font-size="11.0" fill="#898781" text-anchor="middle">2026-06</text>
<line x1="451.5" y1="66.0" x2="451.5" y2="356.0" stroke="#2c2c2a" stroke-width="1.0"/>
<line x1="451.5" y1="384.0" x2="451.5" y2="470.0" stroke="#2c2c2a" stroke-width="1.0"/>
<text x="462.1" y="490.0" font-size="11.0" fill="#898781" text-anchor="middle">2026-07</text>
<text x="14.0" y="58.0" font-size="11.0" fill="#c3c2b7">BOLL(20,2)</text>
<text x="84.5" y="58.0" font-size="11.0" fill="#c98500">UP:251.7</text>
<text x="142.9" y="58.0" font-size="11.0" fill="#3987e5">MID:151.3</text>
<text x="207.4" y="58.0" font-size="11.0" fill="#d55181">LOW:50.9</text>
<text x="265.8" y="58.0" font-size="11.0" fill="#9085e9">MA7:111.1</text>
<line x1="10.0" y1="356.0" x2="830.0" y2="356.0" stroke="#2c2c2a" stroke-width="1.0"/>
<text x="14.0" y="353.0" font-size="11.0" fill="#898781">0</text>
<line x1="10.0" y1="259.5" x2="830.0" y2="259.5" stroke="#2c2c2a" stroke-width="1.0"/>
<text x="14.0" y="256.5" font-size="11.0" fill="#898781">100</text>
<line x1="10.0" y1="163.0" x2="830.0" y2="163.0" stroke="#2c2c2a" stroke-width="1.0"/>
<text x="14.0" y="160.0" font-size="11.0" fill="#898781">200</text>
<line x1="10.0" y1="66.5" x2="830.0" y2="66.5" stroke="#2c2c2a" stroke-width="1.0"/>
<text x="14.0" y="63.5" font-size="11.0" fill="#898781">300</text>
<polyline points="420.0,79.8 441.0,83.5 462.1,94.1 483.1,95.6 504.1,96.5 525.1,96.4 546.2,98.2 567.2,105.2 588.2,91.7 609.2,92.9 630.3,91.6 651.3,91.8 672.3,92.2 693.3,92.8 714.4,96.6 735.4,100.7 756.4,106.2 777.4,109.5 798.5,111.2 819.5,113.1" fill="none" stroke="#c98500" stroke-width="1.5" stroke-linejoin="round" stroke-linecap="round"/>
<polyline points="420.0,140.1 441.0,141.3 462.1,144.6 483.1,145.2 504.1,146.6 525.1,148.4 546.2,151.7 567.2,154.6 588.2,163.8 609.2,171.1 630.3,173.8 651.3,176.3 672.3,178.6 693.3,184.2 714.4,190.5 735.4,194.7 756.4,200.7 777.4,205.1 798.5,207.5 819.5,210.0" fill="none" stroke="#3987e5" stroke-width="1.5" stroke-linejoin="round" stroke-linecap="round"/>
<polyline points="420.0,200.4 441.0,199.1 462.1,195.1 483.1,194.9 504.1,196.6 525.1,200.4 546.2,205.1 567.2,204.0 588.2,235.9 609.2,249.4 630.3,255.9 651.3,260.7 672.3,264.9 693.3,275.6 714.4,284.4 735.4,288.7 756.4,295.2 777.4,300.7 798.5,303.9 819.5,306.8" fill="none" stroke="#d55181" stroke-width="1.5" stroke-linejoin="round" stroke-linecap="round"/>
<polyline points="146.7,115.4 167.7,116.4 188.7,120.6 209.7,128.3 230.8,133.2 251.8,137.2 272.8,140.5 293.8,144.4 314.9,151.0 335.9,155.3 356.9,153.7 377.9,156.5 399.0,159.0 420.0,159.5 441.0,158.1 462.1,157.2 483.1,156.3 504.1,156.1 525.1,154.7 546.2,154.7 567.2,156.9 588.2,180.6 609.2,196.5 630.3,210.0 651.3,218.0 672.3,223.5 693.3,233.3 714.4,246.8 735.4,239.2 756.4,239.6 777.4,243.1 798.5,245.9 819.5,248.8" fill="none" stroke="#9085e9" stroke-width="1.5" stroke-linejoin="round" stroke-linecap="round"/>
<rect x="14.7" y="98.3" width="11.6" height="257.7" fill="none" stroke="#e66767" stroke-width="1.3"/>
<rect x="35.8" y="80.0" width="11.6" height="18.3" fill="none" stroke="#e66767" stroke-width="1.3"/>
<rect x="56.8" y="80.0" width="11.6" height="41.5" fill="#008300"/>
<rect x="77.8" y="121.5" width="11.6" height="14.5" fill="#008300"/>
<rect x="98.8" y="136.0" width="11.6" height="7.7" fill="#008300"/>
<rect x="119.9" y="122.4" width="11.6" height="21.2" fill="none" stroke="#e66767" stroke-width="1.3"/>
<rect x="140.9" y="106.0" width="11.6" height="16.4" fill="none" stroke="#e66767" stroke-width="1.3"/>
<rect x="161.9" y="105.1" width="11.6" height="1.2" fill="none" stroke="#e66767" stroke-width="1.3"/>
<rect x="182.9" y="105.1" width="11.6" height="4.8" fill="#008300"/>
<rect x="204.0" y="109.9" width="11.6" height="65.6" fill="#008300"/>
<rect x="225.0" y="169.7" width="11.6" height="5.8" fill="none" stroke="#e66767" stroke-width="1.3"/>
<rect x="246.0" y="169.7" width="11.6" height="1.9" fill="#008300"/>
<rect x="267.0" y="145.6" width="11.6" height="26.1" fill="none" stroke="#e66767" stroke-width="1.3"/>
<rect x="288.1" y="133.1" width="11.6" height="12.5" fill="none" stroke="#e66767" stroke-width="1.3"/>
<rect x="309.1" y="133.1" width="11.6" height="18.3" fill="#008300"/>
<rect x="330.1" y="139.8" width="11.6" height="11.6" fill="none" stroke="#e66767" stroke-width="1.3"/>
<rect x="351.1" y="139.8" width="11.6" height="25.1" fill="#008300"/>
<rect x="372.2" y="164.9" width="11.6" height="24.1" fill="#008300"/>
<rect x="393.2" y="189.0" width="11.6" height="1.2" fill="#898781"/>
<rect x="414.2" y="149.5" width="11.6" height="39.6" fill="none" stroke="#e66767" stroke-width="1.3"/>
<rect x="435.2" y="122.4" width="11.6" height="27.0" fill="none" stroke="#e66767" stroke-width="1.3"/>
<rect x="456.3" y="122.4" width="11.6" height="23.2" fill="#008300"/>
<rect x="477.3" y="134.0" width="11.6" height="11.6" fill="none" stroke="#e66767" stroke-width="1.3"/>
<rect x="498.3" y="134.0" width="11.6" height="29.0" fill="#008300"/>
<rect x="519.3" y="163.0" width="11.6" height="16.4" fill="#008300"/>
<rect x="540.4" y="179.4" width="11.6" height="9.7" fill="#008300"/>
<rect x="561.4" y="164.9" width="11.6" height="24.1" fill="none" stroke="#e66767" stroke-width="1.3"/>
<rect x="582.4" y="164.9" width="11.6" height="123.5" fill="#008300"/>
<rect x="603.4" y="256.6" width="11.6" height="31.8" fill="none" stroke="#e66767" stroke-width="1.3"/>
<rect x="624.5" y="228.6" width="11.6" height="28.0" fill="none" stroke="#e66767" stroke-width="1.3"/>
<rect x="645.5" y="219.0" width="11.6" height="9.7" fill="none" stroke="#e66767" stroke-width="1.3"/>
<rect x="666.5" y="218.0" width="11.6" height="1.2" fill="none" stroke="#e66767" stroke-width="1.3"/>
<rect x="687.6" y="218.0" width="11.6" height="39.6" fill="#008300"/>
<rect x="708.6" y="257.6" width="11.6" height="1.9" fill="#008300"/>
<rect x="729.6" y="235.4" width="11.6" height="24.1" fill="none" stroke="#e66767" stroke-width="1.3"/>
<rect x="750.6" y="235.4" width="11.6" height="24.1" fill="#008300"/>
<rect x="771.7" y="252.7" width="11.6" height="6.8" fill="none" stroke="#e66767" stroke-width="1.3"/>
<rect x="792.7" y="238.3" width="11.6" height="14.5" fill="none" stroke="#e66767" stroke-width="1.3"/>
<rect x="813.7" y="238.3" width="11.6" height="1.2" fill="#898781"/>
<circle cx="41.5" cy="80.0" r="2" fill="#c3c2b7"/>
<line x1="41.5" y1="80.0" x2="49.5" y2="80.0" stroke="#c3c2b7" stroke-width="1.0"/>
<text x="52.5" y="84.0" font-size="11.0" fill="#c3c2b7">286</text>
<circle cx="20.5" cy="356.0" r="2" fill="#c3c2b7"/>
<line x1="20.5" y1="356.0" x2="28.5" y2="356.0" stroke="#c3c2b7" stroke-width="1.0"/>
<text x="31.5" y="350.0" font-size="11.0" fill="#c3c2b7">0</text>
<text x="14.0" y="376.0" font-size="11.0" fill="#c3c2b7">VOL 43 forks</text>
<text x="96.6" y="376.0" font-size="11.0" fill="#c98500">MA5:37.6</text>
<text x="155.0" y="376.0" font-size="11.0" fill="#3987e5">MA10:35.7</text>
<text x="14.0" y="395.0" font-size="10" fill="#898781">98</text>
<rect x="14.7" y="397.2" width="11.6" height="72.8" fill="none" stroke="#e66767" stroke-width="1.1"/>
<rect x="35.8" y="393.0" width="11.6" height="77.0" fill="none" stroke="#e66767" stroke-width="1.1"/>
<rect x="56.8" y="414.8" width="11.6" height="55.2" fill="#008300"/>
<rect x="77.8" y="413.9" width="11.6" height="56.1" fill="#008300"/>
<rect x="98.8" y="426.5" width="11.6" height="43.5" fill="#008300"/>
<rect x="119.9" y="393.9" width="11.6" height="76.1" fill="none" stroke="#e66767" stroke-width="1.1"/>
<rect x="140.9" y="396.4" width="11.6" height="73.6" fill="none" stroke="#e66767" stroke-width="1.1"/>
<rect x="161.9" y="403.9" width="11.6" height="66.1" fill="none" stroke="#e66767" stroke-width="1.1"/>
<rect x="182.9" y="403.9" width="11.6" height="66.1" fill="#008300"/>
<rect x="204.0" y="422.3" width="11.6" height="47.7" fill="#008300"/>
<rect x="225.0" y="424.0" width="11.6" height="46.0" fill="none" stroke="#e66767" stroke-width="1.1"/>
<rect x="246.0" y="426.5" width="11.6" height="43.5" fill="#008300"/>
<rect x="267.0" y="408.1" width="11.6" height="61.9" fill="none" stroke="#e66767" stroke-width="1.1"/>
<rect x="288.1" y="397.2" width="11.6" height="72.8" fill="none" stroke="#e66767" stroke-width="1.1"/>
<rect x="309.1" y="388.0" width="11.6" height="82.0" fill="#008300"/>
<rect x="330.1" y="417.3" width="11.6" height="52.7" fill="none" stroke="#e66767" stroke-width="1.1"/>
<rect x="351.1" y="415.6" width="11.6" height="54.4" fill="#008300"/>
<rect x="372.2" y="420.6" width="11.6" height="49.4" fill="#008300"/>
<rect x="393.2" y="425.7" width="11.6" height="44.3" fill="#898781"/>
<rect x="414.2" y="423.1" width="11.6" height="46.9" fill="none" stroke="#e66767" stroke-width="1.1"/>
<rect x="435.2" y="407.2" width="11.6" height="62.8" fill="none" stroke="#e66767" stroke-width="1.1"/>
<rect x="456.3" y="408.1" width="11.6" height="61.9" fill="#008300"/>
<rect x="477.3" y="403.9" width="11.6" height="66.1" fill="none" stroke="#e66767" stroke-width="1.1"/>
<rect x="498.3" y="413.9" width="11.6" height="56.1" fill="#008300"/>
<rect x="519.3" y="431.5" width="11.6" height="38.5" fill="#008300"/>
<rect x="540.4" y="403.9" width="11.6" height="66.1" fill="#008300"/>
<rect x="561.4" y="413.9" width="11.6" height="56.1" fill="none" stroke="#e66767" stroke-width="1.1"/>
<rect x="582.4" y="448.2" width="11.6" height="21.8" fill="#008300"/>
<rect x="603.4" y="438.2" width="11.6" height="31.8" fill="none" stroke="#e66767" stroke-width="1.1"/>
<rect x="624.5" y="441.6" width="11.6" height="28.4" fill="none" stroke="#e66767" stroke-width="1.1"/>
<rect x="645.5" y="434.0" width="11.6" height="36.0" fill="none" stroke="#e66767" stroke-width="1.1"/>
<rect x="666.5" y="426.5" width="11.6" height="43.5" fill="none" stroke="#e66767" stroke-width="1.1"/>
<rect x="687.6" y="463.3" width="11.6" height="6.7" fill="#008300"/>
<rect x="708.6" y="443.2" width="11.6" height="26.8" fill="#008300"/>
<rect x="729.6" y="455.8" width="11.6" height="14.2" fill="none" stroke="#e66767" stroke-width="1.1"/>
<rect x="750.6" y="428.2" width="11.6" height="41.8" fill="#008300"/>
<rect x="771.7" y="435.7" width="11.6" height="34.3" fill="none" stroke="#e66767" stroke-width="1.1"/>
<rect x="792.7" y="439.0" width="11.6" height="31.0" fill="none" stroke="#e66767" stroke-width="1.1"/>
<rect x="813.7" y="434.0" width="11.6" height="36.0" fill="#898781"/>
<polyline points="209.7,406.6 230.8,409.3 251.8,412.6 272.8,411.9 293.8,410.3 314.9,406.4 335.9,408.8 356.9,410.7 377.9,412.3 399.0,414.5 420.0,414.6 441.0,412.9 462.1,411.1 483.1,410.7 504.1,412.3 525.1,416.7 546.2,415.4 567.2,415.2 588.2,418.0 609.2,419.2 630.3,421.1 651.3,423.7 672.3,425.6 693.3,431.5 714.4,434.4 735.4,436.9 756.4,439.3 777.4,441.5 798.5,440.5 819.5,440.1" fill="none" stroke="#3987e5" stroke-width="1.5" stroke-linejoin="round" stroke-linecap="round"/>
<polyline points="104.6,409.1 125.6,408.4 146.7,409.1 167.7,406.9 188.7,404.9 209.7,404.1 230.8,410.1 251.8,416.1 272.8,417.0 293.8,415.6 314.9,408.8 335.9,407.4 356.9,405.2 377.9,407.7 399.0,413.4 420.0,420.5 441.0,418.5 462.1,417.0 483.1,413.6 504.1,411.3 525.1,412.9 546.2,412.3 567.2,413.4 588.2,422.3 609.2,427.2 630.3,429.2 651.3,435.2 672.3,437.7 693.3,440.7 714.4,441.7 735.4,444.6 756.4,443.4 777.4,445.2 798.5,440.4 819.5,438.5" fill="none" stroke="#c98500" stroke-width="1.5" stroke-linejoin="round" stroke-linecap="round"/>
</svg>