<svg xmlns="http://www.w3.org/2000/svg" viewBox="0 0 840 496" width="840" height="496" font-family="-apple-system,&#39;Segoe UI&#39;,system-ui,sans-serif" role="img" aria-label="openclaw/openclaw candlestick chart">
<text x="14.0" y="20.0" font-size="15" fill="#0b0b0b" font-weight="650">openclaw/openclaw</text>
<text x="158.2" y="20.0" font-size="11.5" fill="#52514e">daily · new stars, volume = new forks</text>
<text x="805.8" y="20.0" font-size="11.0" fill="#52514e">fall</text>
<rect x="791" y="10" width="9" height="12" fill="#008300"/>
<text x="750.6" y="20.0" font-size="11.0" fill="#52514e">rise</text>
<rect x="736" y="10" width="9" height="12" fill="none" stroke="#e34948" stroke-width="1.5"/>
<text x="14.0" y="38.0" font-size="11.0" fill="#898781">last 41 days · +7,492 stars · +2,367 forks · updated 2026-07-20</text>
<rect x="10" y="66" width="820" height="290" fill="none" stroke="#e1e0d9"/>
<rect x="10" y="384" width="820" height="86" fill="none" stroke="#e1e0d9"/>
<text x="38.0" y="490.0" font-size="11.0" fill="#898781" text-anchor="middle">2026-06</text>
<line x1="430.0" y1="66.0" x2="430.0" y2="356.0" stroke="#e1e0d9" stroke-width="1.0"/>
<line x1="430.0" y1="384.0" x2="430.0" y2="470.0" stroke="#e1e0d9" stroke-width="1.0"/>
<text x="440.0" y="490.0" font-size="11.0" fill="#898781" text-anchor="middle">2026-07</text>
<text x="14.0" y="58.0" font-size="11.0" fill="#52514e">BOLL(20,2)</text>
<text x="84.5" y="58.0" font-size="11.0" fill="#eda100">UP:228.1</text>
<text x="142.9" y="58.0" font-size="11.0" fill="#2a78d6">MID:138.8</text>
<text x="207.4" y="58.0" font-size="11.0" fill="#e87ba4">LOW:49.5</text>
<text x="265.8" y="58.0" font-size="11.0" fill="#4a3aa7">MA7:111.7</text>
<line x1="10.0" y1="356.0" x2="830.0" y2="356.0" stroke="#e1e0d9" stroke-width="1.0"/>
<text x="14.0" y="353.0" font-size="11.0" fill="#898781">0</text>
<line x1="10.0" y1="259.5" x2="830.0" y2="259.5" stroke="#e1e0d9" stroke-width="1.0"/>
<text x="14.0" y="256.5" font-size="11.0" fill="#898781">100</text>
<line x1="10.0" y1="163.0" x2="830.0" y2="163.0" stroke="#e1e0d9" stroke-width="1.0"/>
<text x="14.0" y="160.0" font-size="11.0" fill="#898781">200</text>
<line x1="10.0" y1="66.5" x2="830.0" y2="66.5" stroke="#e1e0d9" stroke-width="1.0"/>
<text x="14.0" y="63.5" font-size="11.0" fill="#898781">300</text>
<polyline points="400.0,79.8 420.0,83.5 440.0,94.1 460.0,95.6 480.0,96.5 500.0,96.4 520.0,98.2 540.0,105.2 560.0,91.7 580.0,92.9 600.0,91.6 620.0,91.8 640.0,92.2 660.0,92.8 680.0,96.6 700.0,100.7 720.0,106.2 740.0,109.5 760.0,111.2 780.0,113.1 800.0,120.8 820.0,135.9" fill="none" stroke="#eda100" stroke-width="1.5" stroke-linejoin="round" stroke-linecap="round"/>
<polyline points="400.0,140.1 420.0,141.3 440.0,144.6 460.0,145.2 480.0,146.6 500.0,148.4 520.0,151.7 540.0,154.6 560.0,163.8 580.0,171.1 600.0,173.8 620.0,176.3 640.0,178.6 660.0,184.2 680.0,190.5 700.0,194.7 720.0,200.7 740.0,205.1 760.0,207.5 780.0,210.0 800.0,215.0 820.0,222.0" fill="none" stroke="#2a78d6" stroke-width="1.5" stroke-linejoin="round" stroke-linecap="round"/>
<polyline points="400.0,200.4 420.0,199.1 440.0,195.1 460.0,194.9 480.0,196.6 500.0,200.4 520.0,205.1 540.0,204.0 560.0,235.9 580.0,249.4 600.0,255.9 620.0,260.7 640.0,264.9 660.0,275.6 680.0,284.4 700.0,288.7 720.0,295.2 740.0,300.7 760.0,303.9 780.0,306.8 800.0,309.2 820.0,308.2" fill="none" stroke="#e87ba4" stroke-width="1.5" stroke-linejoin="round" stroke-linecap="round"/>
<polyline points="140.0,115.4 160.0,116.4 180.0,120.6 200.0,128.3 220.0,133.2 240.0,137.2 260.0,140.5 280.0,144.4 300.0,151.0 320.0,155.3 340.0,153.7 360.0,156.5 380.0,159.0 400.0,159.5 420.0,158.1 440.0,157.2 460.0,156.3 480.0,156.1 500.0,154.7 520.0,154.7 540.0,156.9 560.0,180.6 580.0,196.5 600.0,210.0 620.0,218.0 640.0,223.5 660.0,233.3 680.0,246.8 700.0,239.2 720.0,239.6 740.0,243.1 760.0,245.9 780.0,248.8 800.0,247.6 820.0,248.2" fill="none" stroke="#4a3aa7" stroke-width="1.5" stroke-linejoin="round" stroke-linecap="round"/>
<rect x="14.5" y="98.3" width="11.0" height="257.7" fill="none" stroke="#e34948" stroke-width="1.3"/>
<rect x="34.5" y="80.0" width="11.0" height="18.3" fill="none" stroke="#e34948" stroke-width="1.3"/>
<rect x="54.5" y="80.0" width="11.0" height="41.5" fill="#008300"/>
<rect x="74.5" y="121.5" width="11.0" height="14.5" fill="#008300"/>
<rect x="94.5" y="136.0" width="11.0" height="7.7" fill="#008300"/>
<rect x="114.5" y="122.4" width="11.0" height="21.2" fill="none" stroke="#e34948" stroke-width="1.3"/>
<rect x="134.5" y="106.0" width="11.0" height="16.4" fill="none" stroke="#e34948" stroke-width="1.3"/>
<rect x="154.5" y="105.1" width="11.0" height="1.2" fill="none" stroke="#e34948" stroke-width="1.3"/>
<rect x="174.5" y="105.1" width="11.0" height="4.8" fill="#008300"/>
<rect x="194.5" y="109.9" width="11.0" height="65.6" fill="#008300"/>
<rect x="214.5" y="169.7" width="11.0" height="5.8" fill="none" stroke="#e34948" stroke-width="1.3"/>
<rect x="234.5" y="169.7" width="11.0" height="1.9" fill="#008300"/>
<rect x="254.5" y="145.6" width="11.0" height="26.1" fill="none" stroke="#e34948" stroke-width="1.3"/>
<rect x="274.5" y="133.1" width="11.0" height="12.5" fill="none" stroke="#e34948" stroke-width="1.3"/>
<rect x="294.5" y="133.1" width="11.0" height="18.3" fill="#008300"/>
<rect x="314.5" y="139.8" width="11.0" height="11.6" fill="none" stroke="#e34948" stroke-width="1.3"/>
<rect x="334.5" y="139.8" width="11.0" height="25.1" fill="#008300"/>
<rect x="354.5" y="164.9" width="11.0" height="24.1" fill="#008300"/>
<rect x="374.5" y="189.0" width="11.0" height="1.2" fill="#898781"/>
<rect x="394.5" y="149.5" width="11.0" height="39.6" fill="none" stroke="#e34948" stroke-width="1.3"/>
<rect x="414.5" y="122.4" width="11.0" height="27.0" fill="none" stroke="#e34948" stroke-width="1.3"/>
<rect x="434.5" y="122.4" width="11.0" height="23.2" fill="#008300"/>
<rect x="454.5" y="134.0" width="11.0" height="11.6" fill="none" stroke="#e34948" stroke-width="1.3"/>
<rect x="474.5" y="134.0" width="11.0" height="29.0" fill="#008300"/>
<rect x="494.5" y="163.0" width="11.0" height="16.4" fill="#008300"/>
<rect x="514.5" y="179.4" width="11.0" height="9.7" fill="#008300"/>
<rect x="534.5" y="164.9" width="11.0" height="24.1" fill="none" stroke="#e34948" stroke-width="1.3"/>
<rect x="554.5" y="164.9" width="11.0" height="123.5" fill="#008300"/>
<rect x="574.5" y="256.6" width="11.0" height="31.8" fill="none" stroke="#e34948" stroke-width="1.3"/>
<rect x="594.5" y="228.6" width="11.0" height="28.0" fill="none" stroke="#e34948" stroke-width="1.3"/>
<rect x="614.5" y="219.0" width="11.0" height="9.7" fill="none" stroke="#e34948" stroke-width="1.3"/>
<rect x="634.5" y="218.0" width="11.0" height="1.2" fill="none" stroke="#e34948" stroke-width="1.3"/>
<rect x="654.5" y="218.0" width="11.0" height="39.6" fill="#008300"/>
<rect x="674.5" y="257.6" width="11.0" height="1.9" fill="#008300"/>
<rect x="694.5" y="235.4" width="11.0" height="24.1" fill="none" stroke="#e34948" stroke-width="1.3"/>
<rect x="714.5" y="235.4" width="11.0" height="24.1" fill="#008300"/>
<rect x="734.5" y="252.7" width="11.0" height="6.8" fill="none" stroke="#e34948" stroke-width="1.3"/>
<rect x="754.5" y="238.3" width="11.0" height="14.5" fill="none" stroke="#e34948" stroke-width="1.3"/>
<rect x="774.5" y="238.3" width="11.0" height="1.2" fill="#898781"/>
<rect x="794.5" y="238.3" width="11.0" height="11.6" fill="#008300"/>
<rect x="814.5" y="249.8" width="11.0" height="13.5" fill="#008300"/>
<circle cx="40.0" cy="80.0" r="2" fill="#52514e"/>
<line x1="40.0" y1="80.0" x2="48.0" y2="80.0" stroke="#52514e" stroke-width="1.0"/>
<text x="51.0" y="84.0" font-size="11.0" fill="#52514e">286</text>
<circle cx="20.0" cy="356.0" r="2" fill="#52514e"/>
<line x1="20.0" y1="356.0" x2="28.0" y2="356.0" stroke="#52514e" stroke-width="1.0"/>
<text x="31.0" y="350.0" font-size="11.0" fill="#52514e">0</text>
<text x="14.0" y="376.0" font-size="11.0" fill="#52514e">VOL 27 forks</text>
<text x="96.6" y="376.0" font-size="11.0" fill="#eda100">MA5:32</text>
<text x="142.9" y="376.0" font-size="11.0" fill="#2a78d6">MA10:31.9</text>
<text x="14.0" y="395.0" font-size="10" fill="#898781">98</text>
<rect x="14.5" y="397.2" width="11.0" height="72.8" fill="none" stroke="#e34948" stroke-width="1.1"/>
<rect x="34.5" y="393.0" width="11.0" height="77.0" fill="none" stroke="#e34948" stroke-width="1.1"/>
<rect x="54.5" y="414.8" width="11.0" height="55.2" fill="#008300"/>
<rect x="74.5" y="413.9" width="11.0" height="56.1" fill="#008300"/>
<rect x="94.5" y="426.5" width="11.0" height="43.5" fill="#008300"/>
<rect x="114.5" y="393.9" width="11.0" height="76.1" fill="none" stroke="#e34948" stroke-width="1.1"/>
<rect x="134.5" y="396.4" width="11.0" height="73.6" fill="none" stroke="#e34948" stroke-width="1.1"/>
<rect x="154.5" y="403.9" width="11.0" height="66.1" fill="none" stroke="#e34948" stroke-width="1.1"/>
<rect x="174.5" y="403.9" width="11.0" height="66.1" fill="#008300"/>
<rect x="194.5" y="422.3" width="11.0" height="47.7" fill="#008300"/>
<rect x="214.5" y="424.0" width="11.0" height="46.0" fill="none" stroke="#e34948" stroke-width="1.1"/>
<rect x="234.5" y="426.5" width="11.0" height="43.5" fill="#008300"/>
<rect x="254.5" y="408.1" width="11.0" height="61.9" fill="none" stroke="#e34948" stroke-width="1.1"/>
<rect x="274.5" y="397.2" width="11.0" height="72.8" fill="none" stroke="#e34948" stroke-width="1.1"/>
<rect x="294.5" y="388.0" width="11.0" height="82.0" fill="#008300"/>
<rect x="314.5" y="417.3" width="11.0" height="52.7" fill="none" stroke="#e34948" stroke-width="1.1"/>
<rect x="334.5" y="415.6" width="11.0" height="54.4" fill="#008300"/>
<rect x="354.5" y="420.6" width="11.0" height="49.4" fill="#008300"/>
<rect x="374.5" y="425.7" width="11.0" height="44.3" fill="#898781"/>
<rect x="394.5" y="423.1" width="11.0" height="46.9" fill="none" stroke="#e34948" stroke-width="1.1"/>
<rect x="414.5" y="407.2" width="11.0" height="62.8" fill="none" stroke="#e34948" stroke-width="1.1"/>
<rect x="434.5" y="408.1" width="11.0" height="61.9" fill="#008300"/>
<rect x="454.5" y="403.9" width="11.0" height="66.1" fill="none" stroke="#e34948" stroke-width="1.1"/>
<rect x="474.5" y="413.9" width="11.0" height="56.1" fill="#008300"/>
<rect x="494.5" y="431.5" width="11.0" height="38.5" fill="#008300"/>
<rect x="514.5" y="403.9" width="11.0" height="66.1" fill="#008300"/>
<rect x="534.5" y="413.9" width="11.0" height="56.1" fill="none" stroke="#e34948" stroke-width="1.1"/>
<rect x="554.5" y="448.2" width="11.0" height="21.8" fill="#008300"/>
<rect x="574.5" y="438.2" width="11.0" height="31.8" fill="none" stroke="#e34948" stroke-width="1.1"/>
<rect x="594.5" y="441.6" width="11.0" height="28.4" fill="none" stroke="#e34948" stroke-width="1.1"/>
<rect x="614.5" y="434.0" width="11.0" height="36.0" fill="none" stroke="#e34948" stroke-width="1.1"/>
<rect x="634.5" y="426.5" width="11.0" height="43.5" fill="none" stroke="#e34948" stroke-width="1.1"/>
<rect x="654.5" y="463.3" width="11.0" height="6.7" fill="#008300"/>
<rect x="674.5" y="443.2" width="11.0" height="26.8" fill="#008300"/>
<rect x="694.5" y="455.8" width="11.0" height="14.2" fill="none" stroke="#e34948" stroke-width="1.1"/>
<rect x="714.5" y="428.2" width="11.0" height="41.8" fill="#008300"/>
<rect x="734.5" y="435.7" width="11.0" height="34.3" fill="none" stroke="#e34948" stroke-width="1.1"/>
<rect x="754.5" y="439.0" width="11.0" height="31.0" fill="none" stroke="#e34948" stroke-width="1.1"/>
<rect x="774.5" y="434.0" width="11.0" height="36.0" fill="#898781"/>
<rect x="794.5" y="460.0" width="11.0" height="10.0" fill="#008300"/>
<rect x="814.5" y="447.4" width="11.0" height="22.6" fill="#008300"/>
<polyline points="200.0,406.6 220.0,409.3 240.0,412.6 260.0,411.9 280.0,410.3 300.0,406.4 320.0,408.8 340.0,410.7 360.0,412.3 380.0,414.5 400.0,414.6 420.0,412.9 440.0,411.1 460.0,410.7 480.0,412.3 500.0,416.7 520.0,415.4 540.0,415.2 560.0,418.0 580.0,419.2 600.0,421.1 620.0,423.7 640.0,425.6 660.0,431.5 680.0,434.4 700.0,436.9 720.0,439.3 740.0,441.5 760.0,440.5 780.0,440.1 800.0,442.0 820.0,443.3" fill="none" stroke="#2a78d6" stroke-width="1.5" stroke-linejoin="round" stroke-linecap="round"/>
<polyline points="100.0,409.1 120.0,408.4 140.0,409.1 160.0,406.9 180.0,404.9 200.0,404.1 220.0,410.1 240.0,416.1 260.0,417.0 280.0,415.6 300.0,408.8 320.0,407.4 340.0,405.2 360.0,407.7 380.0,413.4 400.0,420.5 420.0,418.5 440.0,417.0 460.0,413.6 480.0,411.3 500.0,412.9 520.0,412.3 540.0,413.4 560.0,422.3 580.0,427.2 600.0,429.2 620.0,435.2 640.0,437.7 660.0,440.7 680.0,441.7 700.0,444.6 720.0,443.4 740.0,445.2 760.0,440.4 780.0,438.5 800.0,439.4 820.0,443.2" fill="none" stroke="#eda100" stroke-width="1.5" stroke-linejoin="round" stroke-linecap="round"/>
</svg>