<svg xmlns="http://www.w3.org/2000/svg" viewBox="0 0 840 496" width="840" height="496" font-family="-apple-system,&#39;Segoe UI&#39;,system-ui,sans-serif" role="img" aria-label="openclaw/openclaw candlestick chart">
<text x="14.0" y="20.0" font-size="15" fill="#ffffff" font-weight="650">openclaw/openclaw</text>
<text x="158.2" y="20.0" font-size="11.5" fill="#c3c2b7">daily · new stars, volume = new forks</text>
<text x="805.8" y="20.0" font-size="11.0" fill="#c3c2b7">fall</text>
<rect x="791" y="10" width="9" height="12" fill="#008300"/>
<text x="750.6" y="20.0" font-size="11.0" fill="#c3c2b7">rise</text>
<rect x="736" y="10" width="9" height="12" fill="none" stroke="#e66767" stroke-width="1.5"/>
<text x="14.0" y="38.0" font-size="11.0" fill="#898781">last 38 days · +7,164 stars · +2,285 forks · updated 2026-07-17</text>
<rect x="10" y="66" width="820" height="290" fill="none" stroke="#2c2c2a"/>
<rect x="10" y="384" width="820" height="86" fill="none" stroke="#2c2c2a"/>
<text x="38.0" y="490.0" font-size="11.0" fill="#898781" text-anchor="middle">2026-06</text>
<line x1="463.2" y1="66.0" x2="463.2" y2="356.0" stroke="#2c2c2a" stroke-width="1.0"/>
<line x1="463.2" y1="384.0" x2="463.2" y2="470.0" stroke="#2c2c2a" stroke-width="1.0"/>
<text x="473.9" y="490.0" font-size="11.0" fill="#898781" text-anchor="middle">2026-07</text>
<text x="14.0" y="58.0" font-size="11.0" fill="#c3c2b7">BOLL(20,2)</text>
<text x="84.5" y="58.0" font-size="11.0" fill="#c98500">UP:253.7</text>
<text x="142.9" y="58.0" font-size="11.0" fill="#3987e5">MID:153.8</text>
<text x="207.4" y="58.0" font-size="11.0" fill="#d55181">LOW:54</text>
<text x="253.7" y="58.0" font-size="11.0" fill="#9085e9">MA7:114.1</text>
<line x1="10.0" y1="356.0" x2="830.0" y2="356.0" stroke="#2c2c2a" stroke-width="1.0"/>
<text x="14.0" y="353.0" font-size="11.0" fill="#898781">0</text>
<line x1="10.0" y1="259.5" x2="830.0" y2="259.5" stroke="#2c2c2a" stroke-width="1.0"/>
<text x="14.0" y="256.5" font-size="11.0" fill="#898781">100</text>
<line x1="10.0" y1="163.0" x2="830.0" y2="163.0" stroke="#2c2c2a" stroke-width="1.0"/>
<text x="14.0" y="160.0" font-size="11.0" fill="#898781">200</text>
<line x1="10.0" y1="66.5" x2="830.0" y2="66.5" stroke="#2c2c2a" stroke-width="1.0"/>
<text x="14.0" y="63.5" font-size="11.0" fill="#898781">300</text>
<polyline points="430.8,79.8 452.4,83.5 473.9,94.1 495.5,95.6 517.1,96.5 538.7,96.4 560.3,98.2 581.8,105.2 603.4,91.7 625.0,92.9 646.6,91.6 668.2,91.8 689.7,92.2 711.3,92.8 732.9,96.6 754.5,100.7 776.1,106.2 797.6,109.5 819.2,111.2" fill="none" stroke="#c98500" stroke-width="1.5" stroke-linejoin="round" stroke-linecap="round"/>
<polyline points="430.8,140.1 452.4,141.3 473.9,144.6 495.5,145.2 517.1,146.6 538.7,148.4 560.3,151.7 581.8,154.6 603.4,163.8 625.0,171.1 646.6,173.8 668.2,176.3 689.7,178.6 711.3,184.2 732.9,190.5 754.5,194.7 776.1,200.7 797.6,205.1 819.2,207.5" fill="none" stroke="#3987e5" stroke-width="1.5" stroke-linejoin="round" stroke-linecap="round"/>
<polyline points="430.8,200.4 452.4,199.1 473.9,195.1 495.5,194.9 517.1,196.6 538.7,200.4 560.3,205.1 581.8,204.0 603.4,235.9 625.0,249.4 646.6,255.9 668.2,260.7 689.7,264.9 711.3,275.6 732.9,284.4 754.5,288.7 776.1,295.2 797.6,300.7 819.2,303.9" fill="none" stroke="#d55181" stroke-width="1.5" stroke-linejoin="round" stroke-linecap="round"/>
<polyline points="150.3,115.4 171.8,116.4 193.4,120.6 215.0,128.3 236.6,133.2 258.2,137.2 279.7,140.5 301.3,144.4 322.9,151.0 344.5,155.3 366.1,153.7 387.6,156.5 409.2,159.0 430.8,159.5 452.4,158.1 473.9,157.2 495.5,156.3 517.1,156.1 538.7,154.7 560.3,154.7 581.8,156.9 603.4,180.6 625.0,196.5 646.6,210.0 668.2,218.0 689.7,223.5 711.3,233.3 732.9,246.8 754.5,239.2 776.1,239.6 797.6,243.1 819.2,245.9" fill="none" stroke="#9085e9" stroke-width="1.5" stroke-linejoin="round" stroke-linecap="round"/>
<rect x="14.9" y="98.3" width="11.9" height="257.7" fill="none" stroke="#e66767" stroke-width="1.3"/>
<rect x="36.4" y="80.0" width="11.9" height="18.3" fill="none" stroke="#e66767" stroke-width="1.3"/>
<rect x="58.0" y="80.0" width="11.9" height="41.5" fill="#008300"/>
<rect x="79.6" y="121.5" width="11.9" height="14.5" fill="#008300"/>
<rect x="101.2" y="136.0" width="11.9" height="7.7" fill="#008300"/>
<rect x="122.7" y="122.4" width="11.9" height="21.2" fill="none" stroke="#e66767" stroke-width="1.3"/>
<rect x="144.3" y="106.0" width="11.9" height="16.4" fill="none" stroke="#e66767" stroke-width="1.3"/>
<rect x="165.9" y="105.1" width="11.9" height="1.2" fill="none" stroke="#e66767" stroke-width="1.3"/>
<rect x="187.5" y="105.1" width="11.9" height="4.8" fill="#008300"/>
<rect x="209.1" y="109.9" width="11.9" height="65.6" fill="#008300"/>
<rect x="230.6" y="169.7" width="11.9" height="5.8" fill="none" stroke="#e66767" stroke-width="1.3"/>
<rect x="252.2" y="169.7" width="11.9" height="1.9" fill="#008300"/>
<rect x="273.8" y="145.6" width="11.9" height="26.1" fill="none" stroke="#e66767" stroke-width="1.3"/>
<rect x="295.4" y="133.1" width="11.9" height="12.5" fill="none" stroke="#e66767" stroke-width="1.3"/>
<rect x="317.0" y="133.1" width="11.9" height="18.3" fill="#008300"/>
<rect x="338.5" y="139.8" width="11.9" height="11.6" fill="none" stroke="#e66767" stroke-width="1.3"/>
<rect x="360.1" y="139.8" width="11.9" height="25.1" fill="#008300"/>
<rect x="381.7" y="164.9" width="11.9" height="24.1" fill="#008300"/>
<rect x="403.3" y="189.0" width="11.9" height="1.2" fill="#898781"/>
<rect x="424.9" y="149.5" width="11.9" height="39.6" fill="none" stroke="#e66767" stroke-width="1.3"/>
<rect x="446.4" y="122.4" width="11.9" height="27.0" fill="none" stroke="#e66767" stroke-width="1.3"/>
<rect x="468.0" y="122.4" width="11.9" height="23.2" fill="#008300"/>
<rect x="489.6" y="134.0" width="11.9" height="11.6" fill="none" stroke="#e66767" stroke-width="1.3"/>
<rect x="511.2" y="134.0" width="11.9" height="29.0" fill="#008300"/>
<rect x="532.7" y="163.0" width="11.9" height="16.4" fill="#008300"/>
<rect x="554.3" y="179.4" width="11.9" height="9.7" fill="#008300"/>
<rect x="575.9" y="164.9" width="11.9" height="24.1" fill="none" stroke="#e66767" stroke-width="1.3"/>
<rect x="597.5" y="164.9" width="11.9" height="123.5" fill="#008300"/>
<rect x="619.1" y="256.6" width="11.9" height="31.8" fill="none" stroke="#e66767" stroke-width="1.3"/>
<rect x="640.6" y="228.6" width="11.9" height="28.0" fill="none" stroke="#e66767" stroke-width="1.3"/>
<rect x="662.2" y="219.0" width="11.9" height="9.7" fill="none" stroke="#e66767" stroke-width="1.3"/>
<rect x="683.8" y="218.0" width="11.9" height="1.2" fill="none" stroke="#e66767" stroke-width="1.3"/>
<rect x="705.4" y="218.0" width="11.9" height="39.6" fill="#008300"/>
<rect x="727.0" y="257.6" width="11.9" height="1.9" fill="#008300"/>
<rect x="748.5" y="235.4" width="11.9" height="24.1" fill="none" stroke="#e66767" stroke-width="1.3"/>
<rect x="770.1" y="235.4" width="11.9" height="24.1" fill="#008300"/>
<rect x="791.7" y="252.7" width="11.9" height="6.8" fill="none" stroke="#e66767" stroke-width="1.3"/>
<rect x="813.3" y="238.3" width="11.9" height="14.5" fill="none" stroke="#e66767" stroke-width="1.3"/>
<circle cx="42.4" cy="80.0" r="2" fill="#c3c2b7"/>
<line x1="42.4" y1="80.0" x2="50.4" y2="80.0" stroke="#c3c2b7" stroke-width="1.0"/>
<text x="53.4" y="84.0" font-size="11.0" fill="#c3c2b7">286</text>
<circle cx="20.8" cy="356.0" r="2" fill="#c3c2b7"/>
<line x1="20.8" y1="356.0" x2="28.8" y2="356.0" stroke="#c3c2b7" stroke-width="1.0"/>
<text x="31.8" y="350.0" font-size="11.0" fill="#c3c2b7">0</text>
<text x="14.0" y="376.0" font-size="11.0" fill="#c3c2b7">VOL 37 forks</text>
<text x="96.6" y="376.0" font-size="11.0" fill="#c98500">MA5:35.4</text>
<text x="155.0" y="376.0" font-size="11.0" fill="#3987e5">MA10:35.2</text>
<text x="14.0" y="395.0" font-size="10" fill="#898781">98</text>
<rect x="14.9" y="397.2" width="11.9" height="72.8" fill="none" stroke="#e66767" stroke-width="1.1"/>
<rect x="36.4" y="393.0" width="11.9" height="77.0" fill="none" stroke="#e66767" stroke-width="1.1"/>
<rect x="58.0" y="414.8" width="11.9" height="55.2" fill="#008300"/>
<rect x="79.6" y="413.9" width="11.9" height="56.1" fill="#008300"/>
<rect x="101.2" y="426.5" width="11.9" height="43.5" fill="#008300"/>
<rect x="122.7" y="393.9" width="11.9" height="76.1" fill="none" stroke="#e66767" stroke-width="1.1"/>
<rect x="144.3" y="396.4" width="11.9" height="73.6" fill="none" stroke="#e66767" stroke-width="1.1"/>
<rect x="165.9" y="403.9" width="11.9" height="66.1" fill="none" stroke="#e66767" stroke-width="1.1"/>
<rect x="187.5" y="403.9" width="11.9" height="66.1" fill="#008300"/>
<rect x="209.1" y="422.3" width="11.9" height="47.7" fill="#008300"/>
<rect x="230.6" y="424.0" width="11.9" height="46.0" fill="none" stroke="#e66767" stroke-width="1.1"/>
<rect x="252.2" y="426.5" width="11.9" height="43.5" fill="#008300"/>
<rect x="273.8" y="408.1" width="11.9" height="61.9" fill="none" stroke="#e66767" stroke-width="1.1"/>
<rect x="295.4" y="397.2" width="11.9" height="72.8" fill="none" stroke="#e66767" stroke-width="1.1"/>
<rect x="317.0" y="388.0" width="11.9" height="82.0" fill="#008300"/>
<rect x="338.5" y="417.3" width="11.9" height="52.7" fill="none" stroke="#e66767" stroke-width="1.1"/>
<rect x="360.1" y="415.6" width="11.9" height="54.4" fill="#008300"/>
<rect x="381.7" y="420.6" width="11.9" height="49.4" fill="#008300"/>
<rect x="403.3" y="425.7" width="11.9" height="44.3" fill="#898781"/>
<rect x="424.9" y="423.1" width="11.9" height="46.9" fill="none" stroke="#e66767" stroke-width="1.1"/>
<rect x="446.4" y="407.2" width="11.9" height="62.8" fill="none" stroke="#e66767" stroke-width="1.1"/>
<rect x="468.0" y="408.1" width="11.9" height="61.9" fill="#008300"/>
<rect x="489.6" y="403.9" width="11.9" height="66.1" fill="none" stroke="#e66767" stroke-width="1.1"/>
<rect x="511.2" y="413.9" width="11.9" height="56.1" fill="#008300"/>
<rect x="532.7" y="431.5" width="11.9" height="38.5" fill="#008300"/>
<rect x="554.3" y="403.9" width="11.9" height="66.1" fill="#008300"/>
<rect x="575.9" y="413.9" width="11.9" height="56.1" fill="none" stroke="#e66767" stroke-width="1.1"/>
<rect x="597.5" y="448.2" width="11.9" height="21.8" fill="#008300"/>
<rect x="619.1" y="438.2" width="11.9" height="31.8" fill="none" stroke="#e66767" stroke-width="1.1"/>
<rect x="640.6" y="441.6" width="11.9" height="28.4" fill="none" stroke="#e66767" stroke-width="1.1"/>
<rect x="662.2" y="434.0" width="11.9" height="36.0" fill="none" stroke="#e66767" stroke-width="1.1"/>
<rect x="683.8" y="426.5" width="11.9" height="43.5" fill="none" stroke="#e66767" stroke-width="1.1"/>
<rect x="705.4" y="463.3" width="11.9" height="6.7" fill="#008300"/>
<rect x="727.0" y="443.2" width="11.9" height="26.8" fill="#008300"/>
<rect x="748.5" y="455.8" width="11.9" height="14.2" fill="none" stroke="#e66767" stroke-width="1.1"/>
<rect x="770.1" y="428.2" width="11.9" height="41.8" fill="#008300"/>
<rect x="791.7" y="435.7" width="11.9" height="34.3" fill="none" stroke="#e66767" stroke-width="1.1"/>
<rect x="813.3" y="439.0" width="11.9" height="31.0" fill="none" stroke="#e66767" stroke-width="1.1"/>
<polyline points="215.0,406.6 236.6,409.3 258.2,412.6 279.7,411.9 301.3,410.3 322.9,406.4 344.5,408.8 366.1,410.7 387.6,412.3 409.2,414.5 430.8,414.6 452.4,412.9 473.9,411.1 495.5,410.7 517.1,412.3 538.7,416.7 560.3,415.4 581.8,415.2 603.4,418.0 625.0,419.2 646.6,421.1 668.2,423.7 689.7,425.6 711.3,431.5 732.9,434.4 754.5,436.9 776.1,439.3 797.6,441.5 819.2,440.5" fill="none" stroke="#3987e5" stroke-width="1.5" stroke-linejoin="round" stroke-linecap="round"/>
<polyline points="107.1,409.1 128.7,408.4 150.3,409.1 171.8,406.9 193.4,404.9 215.0,404.1 236.6,410.1 258.2,416.1 279.7,417.0 301.3,415.6 322.9,408.8 344.5,407.4 366.1,405.2 387.6,407.7 409.2,413.4 430.8,420.5 452.4,418.5 473.9,417.0 495.5,413.6 517.1,411.3 538.7,412.9 560.3,412.3 581.8,413.4 603.4,422.3 625.0,427.2 646.6,429.2 668.2,435.2 689.7,437.7 711.3,440.7 732.9,441.7 754.5,444.6 776.1,443.4 797.6,445.2 819.2,440.4" fill="none" stroke="#c98500" stroke-width="1.5" stroke-linejoin="round" stroke-linecap="round"/>
</svg>