<svg xmlns="http://www.w3.org/2000/svg" viewBox="0 0 840 496" width="840" height="496" font-family="-apple-system,&#39;Segoe UI&#39;,system-ui,sans-serif" role="img" aria-label="obra/superpowers candlestick chart">
<text x="14.0" y="20.0" font-size="15" fill="#ffffff" font-weight="650">obra/superpowers</text>
<text x="150.0" y="20.0" font-size="11.5" fill="#c3c2b7">daily · new stars, volume = new forks</text>
<text x="805.8" y="20.0" font-size="11.0" fill="#c3c2b7">fall</text>
<rect x="791" y="10" width="9" height="12" fill="#008300"/>
<text x="750.6" y="20.0" font-size="11.0" fill="#c3c2b7">rise</text>
<rect x="736" y="10" width="9" height="12" fill="none" stroke="#e66767" stroke-width="1.5"/>
<text x="14.0" y="38.0" font-size="11.0" fill="#898781">last 22 days · +16,659 stars · +1,646 forks · updated 2026-07-22</text>
<rect x="10" y="66" width="820" height="290" fill="none" stroke="#2c2c2a"/>
<rect x="10" y="384" width="820" height="86" fill="none" stroke="#2c2c2a"/>
<text x="36.0" y="490.0" font-size="11.0" fill="#898781" text-anchor="middle">07-01</text>
<text x="177.7" y="490.0" font-size="11.0" fill="#898781" text-anchor="middle">07-05</text>
<text x="326.8" y="490.0" font-size="11.0" fill="#898781" text-anchor="middle">07-09</text>
<text x="475.9" y="490.0" font-size="11.0" fill="#898781" text-anchor="middle">07-13</text>
<text x="625.0" y="490.0" font-size="11.0" fill="#898781" text-anchor="middle">07-17</text>
<text x="774.1" y="490.0" font-size="11.0" fill="#898781" text-anchor="middle">07-21</text>
<text x="14.0" y="58.0" font-size="11.0" fill="#c3c2b7">BOLL(20,2)</text>
<text x="84.5" y="58.0" font-size="11.0" fill="#c98500">UP:1,124.2</text>
<text x="155.0" y="58.0" font-size="11.0" fill="#3987e5">MID:733.1</text>
<text x="219.4" y="58.0" font-size="11.0" fill="#d55181">LOW:342.1</text>
<text x="283.9" y="58.0" font-size="11.0" fill="#9085e9">MA7:583.7</text>
<line x1="10.0" y1="356.0" x2="830.0" y2="356.0" stroke="#2c2c2a" stroke-width="1.0"/>
<text x="14.0" y="353.0" font-size="11.0" fill="#898781">0</text>
<line x1="10.0" y1="239.3" x2="830.0" y2="239.3" stroke="#2c2c2a" stroke-width="1.0"/>
<text x="14.0" y="236.3" font-size="11.0" fill="#898781">500</text>
<line x1="10.0" y1="122.6" x2="830.0" y2="122.6" stroke="#2c2c2a" stroke-width="1.0"/>
<text x="14.0" y="119.6" font-size="11.0" fill="#898781">1,000</text>
<polyline points="736.8,79.8 774.1,86.0 811.4,93.6" fill="none" stroke="#c98500" stroke-width="1.5" stroke-linejoin="round" stroke-linecap="round"/>
<polyline points="736.8,175.9 774.1,180.4 811.4,184.9" fill="none" stroke="#3987e5" stroke-width="1.5" stroke-linejoin="round" stroke-linecap="round"/>
<polyline points="736.8,271.9 774.1,274.9 811.4,276.2" fill="none" stroke="#d55181" stroke-width="1.5" stroke-linejoin="round" stroke-linecap="round"/>
<polyline points="252.3,158.2 289.5,166.1 326.8,161.8 364.1,168.6 401.4,163.6 438.6,164.4 475.9,173.4 513.2,160.8 550.5,159.7 587.7,174.9 625.0,187.7 662.3,194.9 699.5,201.5 736.8,206.0 774.1,214.3 811.4,219.7" fill="none" stroke="#9085e9" stroke-width="1.5" stroke-linejoin="round" stroke-linecap="round"/>
<rect x="18.4" y="124.0" width="20.5" height="232.0" fill="none" stroke="#e66767" stroke-width="1.3"/>
<rect x="55.7" y="121.9" width="20.5" height="2.1" fill="none" stroke="#e66767" stroke-width="1.3"/>
<rect x="92.9" y="79.8" width="20.5" height="42.0" fill="none" stroke="#e66767" stroke-width="1.3"/>
<rect x="130.2" y="79.8" width="20.5" height="112.5" fill="#008300"/>
<rect x="167.5" y="192.4" width="20.5" height="6.1" fill="#008300"/>
<rect x="204.8" y="145.2" width="20.5" height="53.2" fill="none" stroke="#e66767" stroke-width="1.3"/>
<rect x="242.0" y="145.2" width="20.5" height="100.4" fill="#008300"/>
<rect x="279.3" y="179.5" width="20.5" height="66.1" fill="none" stroke="#e66767" stroke-width="1.3"/>
<rect x="316.6" y="91.5" width="20.5" height="88.0" fill="none" stroke="#e66767" stroke-width="1.3"/>
<rect x="353.8" y="91.5" width="20.5" height="36.2" fill="#008300"/>
<rect x="391.1" y="127.7" width="20.5" height="29.6" fill="#008300"/>
<rect x="428.4" y="157.3" width="20.5" height="46.7" fill="#008300"/>
<rect x="465.7" y="204.0" width="20.5" height="3.7" fill="#008300"/>
<rect x="502.9" y="157.6" width="20.5" height="50.2" fill="none" stroke="#e66767" stroke-width="1.3"/>
<rect x="540.2" y="157.6" width="20.5" height="14.7" fill="#008300"/>
<rect x="577.5" y="172.3" width="20.5" height="25.2" fill="#008300"/>
<rect x="614.8" y="197.5" width="20.5" height="19.8" fill="#008300"/>
<rect x="652.0" y="207.8" width="20.5" height="9.6" fill="none" stroke="#e66767" stroke-width="1.3"/>
<rect x="689.3" y="207.8" width="20.5" height="42.3" fill="#008300"/>
<rect x="726.6" y="239.5" width="20.5" height="10.5" fill="none" stroke="#e66767" stroke-width="1.3"/>
<rect x="763.8" y="215.9" width="20.5" height="23.6" fill="none" stroke="#e66767" stroke-width="1.3"/>
<rect x="801.1" y="210.1" width="20.5" height="5.8" fill="none" stroke="#e66767" stroke-width="1.3"/>
<circle cx="103.2" cy="79.8" r="2" fill="#c3c2b7"/>
<line x1="103.2" y1="79.8" x2="111.2" y2="79.8" stroke="#c3c2b7" stroke-width="1.0"/>
<text x="114.2" y="83.8" font-size="11.0" fill="#c3c2b7">1,183</text>
<circle cx="28.6" cy="356.0" r="2" fill="#c3c2b7"/>
<line x1="28.6" y1="356.0" x2="36.6" y2="356.0" stroke="#c3c2b7" stroke-width="1.0"/>
<text x="39.6" y="350.0" font-size="11.0" fill="#c3c2b7">0</text>
<text x="14.0" y="376.0" font-size="11.0" fill="#c3c2b7">VOL 62 forks</text>
<text x="96.6" y="376.0" font-size="11.0" fill="#c98500">MA5:55.6</text>
<text x="155.0" y="376.0" font-size="11.0" fill="#3987e5">MA10:57.7</text>
<text x="14.0" y="395.0" font-size="10" fill="#898781">179</text>
<rect x="18.4" y="431.5" width="20.5" height="38.5" fill="none" stroke="#e66767" stroke-width="1.1"/>
<rect x="55.7" y="426.0" width="20.5" height="44.0" fill="none" stroke="#e66767" stroke-width="1.1"/>
<rect x="92.9" y="430.1" width="20.5" height="39.9" fill="none" stroke="#e66767" stroke-width="1.1"/>
<rect x="130.2" y="435.2" width="20.5" height="34.8" fill="#008300"/>
<rect x="167.5" y="435.2" width="20.5" height="34.8" fill="#008300"/>
<rect x="204.8" y="426.5" width="20.5" height="43.5" fill="none" stroke="#e66767" stroke-width="1.1"/>
<rect x="242.0" y="451.7" width="20.5" height="18.3" fill="#008300"/>
<rect x="279.3" y="434.7" width="20.5" height="35.3" fill="none" stroke="#e66767" stroke-width="1.1"/>
<rect x="316.6" y="431.1" width="20.5" height="38.9" fill="none" stroke="#e66767" stroke-width="1.1"/>
<rect x="353.8" y="419.6" width="20.5" height="50.4" fill="#008300"/>
<rect x="391.1" y="388.0" width="20.5" height="82.0" fill="#008300"/>
<rect x="428.4" y="440.7" width="20.5" height="29.3" fill="#008300"/>
<rect x="465.7" y="437.5" width="20.5" height="32.5" fill="#008300"/>
<rect x="502.9" y="430.6" width="20.5" height="39.4" fill="none" stroke="#e66767" stroke-width="1.1"/>
<rect x="540.2" y="433.8" width="20.5" height="36.2" fill="#008300"/>
<rect x="577.5" y="441.1" width="20.5" height="28.9" fill="#008300"/>
<rect x="652.0" y="443.0" width="20.5" height="27.0" fill="none" stroke="#e66767" stroke-width="1.1"/>
<rect x="689.3" y="444.8" width="20.5" height="25.2" fill="#008300"/>
<rect x="726.6" y="451.7" width="20.5" height="18.3" fill="none" stroke="#e66767" stroke-width="1.1"/>
<rect x="763.8" y="441.6" width="20.5" height="28.4" fill="none" stroke="#e66767" stroke-width="1.1"/>
<rect x="801.1" y="441.6" width="20.5" height="28.4" fill="none" stroke="#e66767" stroke-width="1.1"/>
<polyline points="364.1,432.2 401.4,427.8 438.6,429.3 475.9,430.0 513.2,429.5 550.5,429.4 587.7,430.9 625.0,432.7 662.3,433.5 699.5,434.9 736.8,438.1 774.1,443.5 811.4,443.6" fill="none" stroke="#3987e5" stroke-width="1.5" stroke-linejoin="round" stroke-linecap="round"/>
<polyline points="177.7,431.6 215.0,430.6 252.3,435.7 289.5,436.7 326.8,435.8 364.1,432.7 401.4,425.0 438.6,422.8 475.9,423.4 513.2,423.3 550.5,426.1 587.7,436.7 625.0,442.6 662.3,443.7 699.5,446.5 736.8,450.1 774.1,450.2 811.4,444.5" fill="none" stroke="#c98500" stroke-width="1.5" stroke-linejoin="round" stroke-linecap="round"/>
</svg>