<svg xmlns="http://www.w3.org/2000/svg" viewBox="0 0 840 496" width="840" height="496" font-family="-apple-system,&#39;Segoe UI&#39;,system-ui,sans-serif" role="img" aria-label="obra/superpowers candlestick chart">
<text x="14.0" y="20.0" font-size="15" fill="#0b0b0b" font-weight="650">obra/superpowers</text>
<text x="150.0" y="20.0" font-size="11.5" fill="#52514e">daily · new stars, volume = new forks</text>
<text x="805.8" y="20.0" font-size="11.0" fill="#52514e">fall</text>
<rect x="791" y="10" width="9" height="12" fill="#008300"/>
<text x="750.6" y="20.0" font-size="11.0" fill="#52514e">rise</text>
<rect x="736" y="10" width="9" height="12" fill="none" stroke="#e34948" stroke-width="1.5"/>
<text x="14.0" y="38.0" font-size="11.0" fill="#898781">last 20 days · +15,434 stars · +1,522 forks · updated 2026-07-20</text>
<rect x="10" y="66" width="820" height="290" fill="none" stroke="#e1e0d9"/>
<rect x="10" y="384" width="820" height="86" fill="none" stroke="#e1e0d9"/>
<text x="36.0" y="490.0" font-size="11.0" fill="#898781" text-anchor="middle">07-01</text>
<text x="194.5" y="490.0" font-size="11.0" fill="#898781" text-anchor="middle">07-05</text>
<text x="358.5" y="490.0" font-size="11.0" fill="#898781" text-anchor="middle">07-09</text>
<text x="522.5" y="490.0" font-size="11.0" fill="#898781" text-anchor="middle">07-13</text>
<text x="686.5" y="490.0" font-size="11.0" fill="#898781" text-anchor="middle">07-17</text>
<text x="14.0" y="58.0" font-size="11.0" fill="#52514e">BOLL(20,2)</text>
<text x="84.5" y="58.0" font-size="11.0" fill="#eda100">UP:1,183.1</text>
<text x="155.0" y="58.0" font-size="11.0" fill="#2a78d6">MID:771.7</text>
<text x="219.4" y="58.0" font-size="11.0" fill="#e87ba4">LOW:360.3</text>
<text x="283.9" y="58.0" font-size="11.0" fill="#4a3aa7">MA7:642.6</text>
<line x1="10.0" y1="356.0" x2="830.0" y2="356.0" stroke="#e1e0d9" stroke-width="1.0"/>
<text x="14.0" y="353.0" font-size="11.0" fill="#898781">0</text>
<line x1="10.0" y1="239.3" x2="830.0" y2="239.3" stroke="#e1e0d9" stroke-width="1.0"/>
<text x="14.0" y="236.3" font-size="11.0" fill="#898781">500</text>
<line x1="10.0" y1="122.6" x2="830.0" y2="122.6" stroke="#e1e0d9" stroke-width="1.0"/>
<text x="14.0" y="119.6" font-size="11.0" fill="#898781">1,000</text>
<polyline points="276.5,158.2 317.5,166.1 358.5,161.8 399.5,168.6 440.5,163.6 481.5,164.4 522.5,173.4 563.5,160.8 604.5,159.7 645.5,174.9 686.5,187.7 727.5,194.9 768.5,201.5 809.5,206.0" fill="none" stroke="#4a3aa7" stroke-width="1.5" stroke-linejoin="round" stroke-linecap="round"/>
<rect x="19.2" y="124.0" width="22.6" height="232.0" fill="none" stroke="#e34948" stroke-width="1.3"/>
<rect x="60.2" y="121.9" width="22.6" height="2.1" fill="none" stroke="#e34948" stroke-width="1.3"/>
<rect x="101.2" y="79.8" width="22.6" height="42.0" fill="none" stroke="#e34948" stroke-width="1.3"/>
<rect x="142.2" y="79.8" width="22.6" height="112.5" fill="#008300"/>
<rect x="183.2" y="192.4" width="22.6" height="6.1" fill="#008300"/>
<rect x="224.2" y="145.2" width="22.6" height="53.2" fill="none" stroke="#e34948" stroke-width="1.3"/>
<rect x="265.2" y="145.2" width="22.6" height="100.4" fill="#008300"/>
<rect x="306.2" y="179.5" width="22.6" height="66.1" fill="none" stroke="#e34948" stroke-width="1.3"/>
<rect x="347.2" y="91.5" width="22.6" height="88.0" fill="none" stroke="#e34948" stroke-width="1.3"/>
<rect x="388.2" y="91.5" width="22.6" height="36.2" fill="#008300"/>
<rect x="429.2" y="127.7" width="22.6" height="29.6" fill="#008300"/>
<rect x="470.2" y="157.3" width="22.6" height="46.7" fill="#008300"/>
<rect x="511.2" y="204.0" width="22.6" height="3.7" fill="#008300"/>
<rect x="552.2" y="157.6" width="22.6" height="50.2" fill="none" stroke="#e34948" stroke-width="1.3"/>
<rect x="593.2" y="157.6" width="22.6" height="14.7" fill="#008300"/>
<rect x="634.2" y="172.3" width="22.6" height="25.2" fill="#008300"/>
<rect x="675.2" y="197.5" width="22.6" height="19.8" fill="#008300"/>
<rect x="716.2" y="207.8" width="22.6" height="9.6" fill="none" stroke="#e34948" stroke-width="1.3"/>
<rect x="757.2" y="207.8" width="22.6" height="42.3" fill="#008300"/>
<rect x="798.2" y="239.5" width="22.6" height="10.5" fill="none" stroke="#e34948" stroke-width="1.3"/>
<circle cx="112.5" cy="79.8" r="2" fill="#52514e"/>
<line x1="112.5" y1="79.8" x2="120.5" y2="79.8" stroke="#52514e" stroke-width="1.0"/>
<text x="123.5" y="83.8" font-size="11.0" fill="#52514e">1,183</text>
<circle cx="30.5" cy="356.0" r="2" fill="#52514e"/>
<line x1="30.5" y1="356.0" x2="38.5" y2="356.0" stroke="#52514e" stroke-width="1.0"/>
<text x="41.5" y="350.0" font-size="11.0" fill="#52514e">0</text>
<text x="14.0" y="376.0" font-size="11.0" fill="#52514e">VOL 40 forks</text>
<text x="96.6" y="376.0" font-size="11.0" fill="#eda100">MA5:43.4</text>
<text x="155.0" y="376.0" font-size="11.0" fill="#2a78d6">MA10:69.6</text>
<text x="14.0" y="395.0" font-size="10" fill="#898781">179</text>
<rect x="19.2" y="431.5" width="22.6" height="38.5" fill="none" stroke="#e34948" stroke-width="1.1"/>
<rect x="60.2" y="426.0" width="22.6" height="44.0" fill="none" stroke="#e34948" stroke-width="1.1"/>
<rect x="101.2" y="430.1" width="22.6" height="39.9" fill="none" stroke="#e34948" stroke-width="1.1"/>
<rect x="142.2" y="435.2" width="22.6" height="34.8" fill="#008300"/>
<rect x="183.2" y="435.2" width="22.6" height="34.8" fill="#008300"/>
<rect x="224.2" y="426.5" width="22.6" height="43.5" fill="none" stroke="#e34948" stroke-width="1.1"/>
<rect x="265.2" y="451.7" width="22.6" height="18.3" fill="#008300"/>
<rect x="306.2" y="434.7" width="22.6" height="35.3" fill="none" stroke="#e34948" stroke-width="1.1"/>
<rect x="347.2" y="431.1" width="22.6" height="38.9" fill="none" stroke="#e34948" stroke-width="1.1"/>
<rect x="388.2" y="419.6" width="22.6" height="50.4" fill="#008300"/>
<rect x="429.2" y="388.0" width="22.6" height="82.0" fill="#008300"/>
<rect x="470.2" y="440.7" width="22.6" height="29.3" fill="#008300"/>
<rect x="511.2" y="437.5" width="22.6" height="32.5" fill="#008300"/>
<rect x="552.2" y="430.6" width="22.6" height="39.4" fill="none" stroke="#e34948" stroke-width="1.1"/>
<rect x="593.2" y="433.8" width="22.6" height="36.2" fill="#008300"/>
<rect x="634.2" y="441.1" width="22.6" height="28.9" fill="#008300"/>
<rect x="716.2" y="443.0" width="22.6" height="27.0" fill="none" stroke="#e34948" stroke-width="1.1"/>
<rect x="757.2" y="444.8" width="22.6" height="25.2" fill="#008300"/>
<rect x="798.2" y="451.7" width="22.6" height="18.3" fill="none" stroke="#e34948" stroke-width="1.1"/>
<polyline points="399.5,432.2 440.5,427.8 481.5,429.3 522.5,430.0 563.5,429.5 604.5,429.4 645.5,430.9 686.5,432.7 727.5,433.5 768.5,434.9 809.5,438.1" fill="none" stroke="#2a78d6" stroke-width="1.5" stroke-linejoin="round" stroke-linecap="round"/>
<polyline points="194.5,431.6 235.5,430.6 276.5,435.7 317.5,436.7 358.5,435.8 399.5,432.7 440.5,425.0 481.5,422.8 522.5,423.4 563.5,423.3 604.5,426.1 645.5,436.7 686.5,442.6 727.5,443.7 768.5,446.5 809.5,450.1" fill="none" stroke="#eda100" stroke-width="1.5" stroke-linejoin="round" stroke-linecap="round"/>
</svg>