<svg xmlns="http://www.w3.org/2000/svg" viewBox="0 0 840 496" width="840" height="496" font-family="-apple-system,&#39;Segoe UI&#39;,system-ui,sans-serif" role="img" aria-label="obra/superpowers candlestick chart">
<text x="14.0" y="20.0" font-size="15" fill="#ffffff" font-weight="650">obra/superpowers</text>
<text x="150.0" y="20.0" font-size="11.5" fill="#c3c2b7">daily · new stars, volume = new forks</text>
<text x="805.8" y="20.0" font-size="11.0" fill="#c3c2b7">fall</text>
<rect x="791" y="10" width="9" height="12" fill="#008300"/>
<text x="750.6" y="20.0" font-size="11.0" fill="#c3c2b7">rise</text>
<rect x="736" y="10" width="9" height="12" fill="none" stroke="#e66767" stroke-width="1.5"/>
<text x="14.0" y="38.0" font-size="11.0" fill="#898781">last 23 days · +17,304 stars · +1,709 forks · updated 2026-07-23</text>
<rect x="10" y="66" width="820" height="290" fill="none" stroke="#2c2c2a"/>
<rect x="10" y="384" width="820" height="86" fill="none" stroke="#2c2c2a"/>
<text x="36.0" y="490.0" font-size="11.0" fill="#898781" text-anchor="middle">07-01</text>
<text x="170.4" y="490.0" font-size="11.0" fill="#898781" text-anchor="middle">07-05</text>
<text x="313.0" y="490.0" font-size="11.0" fill="#898781" text-anchor="middle">07-09</text>
<text x="455.7" y="490.0" font-size="11.0" fill="#898781" text-anchor="middle">07-13</text>
<text x="598.3" y="490.0" font-size="11.0" fill="#898781" text-anchor="middle">07-17</text>
<text x="740.9" y="490.0" font-size="11.0" fill="#898781" text-anchor="middle">07-21</text>
<text x="14.0" y="58.0" font-size="11.0" fill="#c3c2b7">BOLL(20,2)</text>
<text x="84.5" y="58.0" font-size="11.0" fill="#c98500">UP:1,039.5</text>
<text x="155.0" y="58.0" font-size="11.0" fill="#3987e5">MID:706.2</text>
<text x="219.4" y="58.0" font-size="11.0" fill="#d55181">LOW:372.9</text>
<text x="283.9" y="58.0" font-size="11.0" fill="#9085e9">MA7:578.9</text>
<line x1="10.0" y1="356.0" x2="830.0" y2="356.0" stroke="#2c2c2a" stroke-width="1.0"/>
<text x="14.0" y="353.0" font-size="11.0" fill="#898781">0</text>
<line x1="10.0" y1="239.3" x2="830.0" y2="239.3" stroke="#2c2c2a" stroke-width="1.0"/>
<text x="14.0" y="236.3" font-size="11.0" fill="#898781">500</text>
<line x1="10.0" y1="122.6" x2="830.0" y2="122.6" stroke="#2c2c2a" stroke-width="1.0"/>
<text x="14.0" y="119.6" font-size="11.0" fill="#898781">1,000</text>
<polyline points="705.2,79.8 740.9,86.0 776.5,93.6 812.2,113.3" fill="none" stroke="#c98500" stroke-width="1.5" stroke-linejoin="round" stroke-linecap="round"/>
<polyline points="705.2,175.9 740.9,180.4 776.5,184.9 812.2,191.1" fill="none" stroke="#3987e5" stroke-width="1.5" stroke-linejoin="round" stroke-linecap="round"/>
<polyline points="705.2,271.9 740.9,274.9 776.5,276.2 812.2,269.0" fill="none" stroke="#d55181" stroke-width="1.5" stroke-linejoin="round" stroke-linecap="round"/>
<polyline points="241.7,158.2 277.4,166.1 313.0,161.8 348.7,168.6 384.3,163.6 420.0,164.4 455.7,173.4 491.3,160.8 527.0,159.7 562.6,174.9 598.3,187.7 633.9,194.9 669.6,201.5 705.2,206.0 740.9,214.3 776.5,219.7 812.2,220.9" fill="none" stroke="#9085e9" stroke-width="1.5" stroke-linejoin="round" stroke-linecap="round"/>
<rect x="18.0" y="124.0" width="19.6" height="232.0" fill="none" stroke="#e66767" stroke-width="1.3"/>
<rect x="53.7" y="121.9" width="19.6" height="2.1" fill="none" stroke="#e66767" stroke-width="1.3"/>
<rect x="89.3" y="79.8" width="19.6" height="42.0" fill="none" stroke="#e66767" stroke-width="1.3"/>
<rect x="125.0" y="79.8" width="19.6" height="112.5" fill="#008300"/>
<rect x="160.6" y="192.4" width="19.6" height="6.1" fill="#008300"/>
<rect x="196.3" y="145.2" width="19.6" height="53.2" fill="none" stroke="#e66767" stroke-width="1.3"/>
<rect x="231.9" y="145.2" width="19.6" height="100.4" fill="#008300"/>
<rect x="267.6" y="179.5" width="19.6" height="66.1" fill="none" stroke="#e66767" stroke-width="1.3"/>
<rect x="303.2" y="91.5" width="19.6" height="88.0" fill="none" stroke="#e66767" stroke-width="1.3"/>
<rect x="338.9" y="91.5" width="19.6" height="36.2" fill="#008300"/>
<rect x="374.5" y="127.7" width="19.6" height="29.6" fill="#008300"/>
<rect x="410.2" y="157.3" width="19.6" height="46.7" fill="#008300"/>
<rect x="445.8" y="204.0" width="19.6" height="3.7" fill="#008300"/>
<rect x="481.5" y="157.6" width="19.6" height="50.2" fill="none" stroke="#e66767" stroke-width="1.3"/>
<rect x="517.2" y="157.6" width="19.6" height="14.7" fill="#008300"/>
<rect x="552.8" y="172.3" width="19.6" height="25.2" fill="#008300"/>
<rect x="588.5" y="197.5" width="19.6" height="19.8" fill="#008300"/>
<rect x="624.1" y="207.8" width="19.6" height="9.6" fill="none" stroke="#e66767" stroke-width="1.3"/>
<rect x="659.8" y="207.8" width="19.6" height="42.3" fill="#008300"/>
<rect x="695.4" y="239.5" width="19.6" height="10.5" fill="none" stroke="#e66767" stroke-width="1.3"/>
<rect x="731.1" y="215.9" width="19.6" height="23.6" fill="none" stroke="#e66767" stroke-width="1.3"/>
<rect x="766.7" y="210.1" width="19.6" height="5.8" fill="none" stroke="#e66767" stroke-width="1.3"/>
<rect x="802.4" y="205.4" width="19.6" height="4.7" fill="none" stroke="#e66767" stroke-width="1.3"/>
<circle cx="99.1" cy="79.8" r="2" fill="#c3c2b7"/>
<line x1="99.1" y1="79.8" x2="107.1" y2="79.8" stroke="#c3c2b7" stroke-width="1.0"/>
<text x="110.1" y="83.8" font-size="11.0" fill="#c3c2b7">1,183</text>
<circle cx="27.8" cy="356.0" r="2" fill="#c3c2b7"/>
<line x1="27.8" y1="356.0" x2="35.8" y2="356.0" stroke="#c3c2b7" stroke-width="1.0"/>
<text x="38.8" y="350.0" font-size="11.0" fill="#c3c2b7">0</text>
<text x="14.0" y="376.0" font-size="11.0" fill="#c3c2b7">VOL 63 forks</text>
<text x="96.6" y="376.0" font-size="11.0" fill="#c98500">MA5:56.4</text>
<text x="155.0" y="376.0" font-size="11.0" fill="#3987e5">MA10:56.9</text>
<text x="14.0" y="395.0" font-size="10" fill="#898781">179</text>
<rect x="18.0" y="431.5" width="19.6" height="38.5" fill="none" stroke="#e66767" stroke-width="1.1"/>
<rect x="53.7" y="426.0" width="19.6" height="44.0" fill="none" stroke="#e66767" stroke-width="1.1"/>
<rect x="89.3" y="430.1" width="19.6" height="39.9" fill="none" stroke="#e66767" stroke-width="1.1"/>
<rect x="125.0" y="435.2" width="19.6" height="34.8" fill="#008300"/>
<rect x="160.6" y="435.2" width="19.6" height="34.8" fill="#008300"/>
<rect x="196.3" y="426.5" width="19.6" height="43.5" fill="none" stroke="#e66767" stroke-width="1.1"/>
<rect x="231.9" y="451.7" width="19.6" height="18.3" fill="#008300"/>
<rect x="267.6" y="434.7" width="19.6" height="35.3" fill="none" stroke="#e66767" stroke-width="1.1"/>
<rect x="303.2" y="431.1" width="19.6" height="38.9" fill="none" stroke="#e66767" stroke-width="1.1"/>
<rect x="338.9" y="419.6" width="19.6" height="50.4" fill="#008300"/>
<rect x="374.5" y="388.0" width="19.6" height="82.0" fill="#008300"/>
<rect x="410.2" y="440.7" width="19.6" height="29.3" fill="#008300"/>
<rect x="445.8" y="437.5" width="19.6" height="32.5" fill="#008300"/>
<rect x="481.5" y="430.6" width="19.6" height="39.4" fill="none" stroke="#e66767" stroke-width="1.1"/>
<rect x="517.2" y="433.8" width="19.6" height="36.2" fill="#008300"/>
<rect x="552.8" y="441.1" width="19.6" height="28.9" fill="#008300"/>
<rect x="624.1" y="443.0" width="19.6" height="27.0" fill="none" stroke="#e66767" stroke-width="1.1"/>
<rect x="659.8" y="444.8" width="19.6" height="25.2" fill="#008300"/>
<rect x="695.4" y="451.7" width="19.6" height="18.3" fill="none" stroke="#e66767" stroke-width="1.1"/>
<rect x="731.1" y="441.6" width="19.6" height="28.4" fill="none" stroke="#e66767" stroke-width="1.1"/>
<rect x="766.7" y="441.6" width="19.6" height="28.4" fill="none" stroke="#e66767" stroke-width="1.1"/>
<rect x="802.4" y="441.1" width="19.6" height="28.9" fill="none" stroke="#e66767" stroke-width="1.1"/>
<polyline points="348.7,432.2 384.3,427.8 420.0,429.3 455.7,430.0 491.3,429.5 527.0,429.4 562.6,430.9 598.3,432.7 633.9,433.5 669.6,434.9 705.2,438.1 740.9,443.5 776.5,443.6 812.2,443.9" fill="none" stroke="#3987e5" stroke-width="1.5" stroke-linejoin="round" stroke-linecap="round"/>
<polyline points="170.4,431.6 206.1,430.6 241.7,435.7 277.4,436.7 313.0,435.8 348.7,432.7 384.3,425.0 420.0,422.8 455.7,423.4 491.3,423.3 527.0,426.1 562.6,436.7 598.3,442.6 633.9,443.7 669.6,446.5 705.2,450.1 740.9,450.2 776.5,444.5 812.2,444.2" fill="none" stroke="#c98500" stroke-width="1.5" stroke-linejoin="round" stroke-linecap="round"/>
</svg>