<svg xmlns="http://www.w3.org/2000/svg" viewBox="0 0 840 496" width="840" height="496" font-family="-apple-system,&#39;Segoe UI&#39;,system-ui,sans-serif" role="img" aria-label="obra/superpowers candlestick chart">
<text x="14.0" y="20.0" font-size="15" fill="#0b0b0b" font-weight="650">obra/superpowers</text>
<text x="150.0" y="20.0" font-size="11.5" fill="#52514e">daily · new stars, volume = new forks</text>
<text x="805.8" y="20.0" font-size="11.0" fill="#52514e">fall</text>
<rect x="791" y="10" width="9" height="12" fill="#008300"/>
<text x="750.6" y="20.0" font-size="11.0" fill="#52514e">rise</text>
<rect x="736" y="10" width="9" height="12" fill="none" stroke="#e34948" stroke-width="1.5"/>
<text x="14.0" y="38.0" font-size="11.0" fill="#898781">last 10 days · +8,799 stars · +826 forks · updated 2026-07-10</text>
<rect x="10" y="66" width="820" height="290" fill="none" stroke="#e1e0d9"/>
<rect x="10" y="384" width="820" height="86" fill="none" stroke="#e1e0d9"/>
<text x="51.0" y="490.0" font-size="11.0" fill="#898781" text-anchor="middle">07-01</text>
<text x="215.0" y="490.0" font-size="11.0" fill="#898781" text-anchor="middle">07-03</text>
<text x="379.0" y="490.0" font-size="11.0" fill="#898781" text-anchor="middle">07-05</text>
<text x="543.0" y="490.0" font-size="11.0" fill="#898781" text-anchor="middle">07-07</text>
<text x="707.0" y="490.0" font-size="11.0" fill="#898781" text-anchor="middle">07-09</text>
<text x="14.0" y="58.0" font-size="11.0" fill="#52514e">BOLL(20,2)</text>
<text x="84.5" y="58.0" font-size="11.0" fill="#eda100">UP:—</text>
<text x="118.7" y="58.0" font-size="11.0" fill="#2a78d6">MID:—</text>
<text x="158.9" y="58.0" font-size="11.0" fill="#e87ba4">LOW:—</text>
<text x="199.2" y="58.0" font-size="11.0" fill="#4a3aa7">MA7:802.7</text>
<line x1="10.0" y1="356.0" x2="830.0" y2="356.0" stroke="#e1e0d9" stroke-width="1.0"/>
<text x="14.0" y="353.0" font-size="11.0" fill="#898781">0</text>
<line x1="10.0" y1="239.3" x2="830.0" y2="239.3" stroke="#e1e0d9" stroke-width="1.0"/>
<text x="14.0" y="236.3" font-size="11.0" fill="#898781">500</text>
<line x1="10.0" y1="122.5" x2="830.0" y2="122.5" stroke="#e1e0d9" stroke-width="1.0"/>
<text x="14.0" y="119.5" font-size="11.0" fill="#898781">1,000</text>
<polyline points="543.0,158.2 625.0,166.1 707.0,161.8 789.0,168.6" fill="none" stroke="#4a3aa7" stroke-width="1.5" stroke-linejoin="round" stroke-linecap="round"/>
<rect x="39.0" y="123.9" width="24.0" height="232.1" fill="none" stroke="#e34948" stroke-width="1.3"/>
<rect x="121.0" y="121.8" width="24.0" height="2.1" fill="none" stroke="#e34948" stroke-width="1.3"/>
<rect x="203.0" y="79.8" width="24.0" height="42.0" fill="none" stroke="#e34948" stroke-width="1.3"/>
<rect x="285.0" y="79.8" width="24.0" height="112.5" fill="#008300"/>
<rect x="367.0" y="192.3" width="24.0" height="6.1" fill="#008300"/>
<rect x="449.0" y="145.2" width="24.0" height="53.2" fill="none" stroke="#e34948" stroke-width="1.3"/>
<rect x="531.0" y="145.2" width="24.0" height="100.4" fill="#008300"/>
<rect x="613.0" y="179.5" width="24.0" height="66.1" fill="none" stroke="#e34948" stroke-width="1.3"/>
<rect x="695.0" y="91.5" width="24.0" height="88.0" fill="none" stroke="#e34948" stroke-width="1.3"/>
<rect x="777.0" y="91.5" width="24.0" height="36.2" fill="#008300"/>
<circle cx="215.0" cy="79.8" r="2" fill="#52514e"/>
<line x1="215.0" y1="79.8" x2="223.0" y2="79.8" stroke="#52514e" stroke-width="1.0"/>
<text x="226.0" y="83.8" font-size="11.0" fill="#52514e">1,183</text>
<circle cx="51.0" cy="356.0" r="2" fill="#52514e"/>
<line x1="51.0" y1="356.0" x2="59.0" y2="356.0" stroke="#52514e" stroke-width="1.0"/>
<text x="62.0" y="350.0" font-size="11.0" fill="#52514e">0</text>
<text x="14.0" y="376.0" font-size="11.0" fill="#52514e">VOL 110 forks</text>
<text x="102.7" y="376.0" font-size="11.0" fill="#eda100">MA5:81.4</text>
<text x="161.1" y="376.0" font-size="11.0" fill="#2a78d6">MA10:82.6</text>
<text x="14.0" y="395.0" font-size="10" fill="#898781">110</text>
<rect x="39.0" y="407.4" width="24.0" height="62.6" fill="none" stroke="#e34948" stroke-width="1.1"/>
<rect x="121.0" y="398.4" width="24.0" height="71.6" fill="none" stroke="#e34948" stroke-width="1.1"/>
<rect x="203.0" y="405.1" width="24.0" height="64.9" fill="none" stroke="#e34948" stroke-width="1.1"/>
<rect x="285.0" y="413.3" width="24.0" height="56.7" fill="#008300"/>
<rect x="367.0" y="413.3" width="24.0" height="56.7" fill="#008300"/>
<rect x="449.0" y="399.2" width="24.0" height="70.8" fill="none" stroke="#e34948" stroke-width="1.1"/>
<rect x="531.0" y="440.2" width="24.0" height="29.8" fill="#008300"/>
<rect x="613.0" y="412.6" width="24.0" height="57.4" fill="none" stroke="#e34948" stroke-width="1.1"/>
<rect x="695.0" y="406.6" width="24.0" height="63.4" fill="none" stroke="#e34948" stroke-width="1.1"/>
<rect x="777.0" y="388.0" width="24.0" height="82.0" fill="#008300"/>
<polyline points="379.0,407.5 461.0,405.9 543.0,414.2 625.0,415.7 707.0,414.4 789.0,409.3" fill="none" stroke="#eda100" stroke-width="1.5" stroke-linejoin="round" stroke-linecap="round"/>
</svg>