<svg xmlns="http://www.w3.org/2000/svg" viewBox="0 0 840 496" width="840" height="496" font-family="-apple-system,&#39;Segoe UI&#39;,system-ui,sans-serif" role="img" aria-label="obra/superpowers candlestick chart">
<text x="14.0" y="20.0" font-size="15" fill="#ffffff" font-weight="650">obra/superpowers</text>
<text x="150.0" y="20.0" font-size="11.5" fill="#c3c2b7">daily · new stars, volume = new forks</text>
<text x="805.8" y="20.0" font-size="11.0" fill="#c3c2b7">fall</text>
<rect x="791" y="10" width="9" height="12" fill="#008300"/>
<text x="750.6" y="20.0" font-size="11.0" fill="#c3c2b7">rise</text>
<rect x="736" y="10" width="9" height="12" fill="none" stroke="#e66767" stroke-width="1.5"/>
<text x="14.0" y="38.0" font-size="11.0" fill="#898781">last 19 days · +14,935 stars · +1,482 forks · updated 2026-07-19</text>
<rect x="10" y="66" width="820" height="290" fill="none" stroke="#2c2c2a"/>
<rect x="10" y="384" width="820" height="86" fill="none" stroke="#2c2c2a"/>
<text x="36.0" y="490.0" font-size="11.0" fill="#898781" text-anchor="middle">07-01</text>
<text x="204.2" y="490.0" font-size="11.0" fill="#898781" text-anchor="middle">07-05</text>
<text x="376.8" y="490.0" font-size="11.0" fill="#898781" text-anchor="middle">07-09</text>
<text x="549.5" y="490.0" font-size="11.0" fill="#898781" text-anchor="middle">07-13</text>
<text x="722.1" y="490.0" font-size="11.0" fill="#898781" text-anchor="middle">07-17</text>
<text x="14.0" y="58.0" font-size="11.0" fill="#c3c2b7">BOLL(20,2)</text>
<text x="84.5" y="58.0" font-size="11.0" fill="#c98500">UP:—</text>
<text x="118.7" y="58.0" font-size="11.0" fill="#3987e5">MID:—</text>
<text x="158.9" y="58.0" font-size="11.0" fill="#d55181">LOW:—</text>
<text x="199.2" y="58.0" font-size="11.0" fill="#9085e9">MA7:662</text>
<line x1="10.0" y1="356.0" x2="830.0" y2="356.0" stroke="#2c2c2a" stroke-width="1.0"/>
<text x="14.0" y="353.0" font-size="11.0" fill="#898781">0</text>
<line x1="10.0" y1="239.3" x2="830.0" y2="239.3" stroke="#2c2c2a" stroke-width="1.0"/>
<text x="14.0" y="236.3" font-size="11.0" fill="#898781">500</text>
<line x1="10.0" y1="122.5" x2="830.0" y2="122.5" stroke="#2c2c2a" stroke-width="1.0"/>
<text x="14.0" y="119.5" font-size="11.0" fill="#898781">1,000</text>
<polyline points="290.5,158.2 333.7,166.1 376.8,161.8 420.0,168.6 463.2,163.6 506.3,164.4 549.5,173.3 592.6,160.8 635.8,159.7 678.9,174.9 722.1,187.7 765.3,194.9 808.4,201.4" fill="none" stroke="#9085e9" stroke-width="1.5" stroke-linejoin="round" stroke-linecap="round"/>
<rect x="19.7" y="123.9" width="23.7" height="232.1" fill="none" stroke="#e66767" stroke-width="1.3"/>
<rect x="62.9" y="121.8" width="23.7" height="2.1" fill="none" stroke="#e66767" stroke-width="1.3"/>
<rect x="106.0" y="79.8" width="23.7" height="42.0" fill="none" stroke="#e66767" stroke-width="1.3"/>
<rect x="149.2" y="79.8" width="23.7" height="112.5" fill="#008300"/>
<rect x="192.3" y="192.3" width="23.7" height="6.1" fill="#008300"/>
<rect x="235.5" y="145.2" width="23.7" height="53.2" fill="none" stroke="#e66767" stroke-width="1.3"/>
<rect x="278.7" y="145.2" width="23.7" height="100.4" fill="#008300"/>
<rect x="321.8" y="179.5" width="23.7" height="66.1" fill="none" stroke="#e66767" stroke-width="1.3"/>
<rect x="365.0" y="91.5" width="23.7" height="88.0" fill="none" stroke="#e66767" stroke-width="1.3"/>
<rect x="408.1" y="91.5" width="23.7" height="36.2" fill="#008300"/>
<rect x="451.3" y="127.7" width="23.7" height="29.7" fill="#008300"/>
<rect x="494.4" y="157.3" width="23.7" height="46.7" fill="#008300"/>
<rect x="537.6" y="204.0" width="23.7" height="3.7" fill="#008300"/>
<rect x="580.8" y="157.6" width="23.7" height="50.2" fill="none" stroke="#e66767" stroke-width="1.3"/>
<rect x="623.9" y="157.6" width="23.7" height="14.7" fill="#008300"/>
<rect x="667.1" y="172.3" width="23.7" height="25.2" fill="#008300"/>
<rect x="710.2" y="197.5" width="23.7" height="19.8" fill="#008300"/>
<rect x="753.4" y="207.7" width="23.7" height="9.6" fill="none" stroke="#e66767" stroke-width="1.3"/>
<rect x="796.6" y="207.7" width="23.7" height="42.3" fill="#008300"/>
<circle cx="117.9" cy="79.8" r="2" fill="#c3c2b7"/>
<line x1="117.9" y1="79.8" x2="125.9" y2="79.8" stroke="#c3c2b7" stroke-width="1.0"/>
<text x="128.9" y="83.8" font-size="11.0" fill="#c3c2b7">1,183</text>
<circle cx="31.6" cy="356.0" r="2" fill="#c3c2b7"/>
<line x1="31.6" y1="356.0" x2="39.6" y2="356.0" stroke="#c3c2b7" stroke-width="1.0"/>
<text x="42.6" y="350.0" font-size="11.0" fill="#c3c2b7">0</text>
<text x="14.0" y="376.0" font-size="11.0" fill="#c3c2b7">VOL 55 forks</text>
<text x="96.6" y="376.0" font-size="11.0" fill="#c98500">MA5:51.2</text>
<text x="155.0" y="376.0" font-size="11.0" fill="#3987e5">MA10:76.6</text>
<text x="14.0" y="395.0" font-size="10" fill="#898781">179</text>
<rect x="19.7" y="431.5" width="23.7" height="38.5" fill="none" stroke="#e66767" stroke-width="1.1"/>
<rect x="62.9" y="426.0" width="23.7" height="44.0" fill="none" stroke="#e66767" stroke-width="1.1"/>
<rect x="106.0" y="430.1" width="23.7" height="39.9" fill="none" stroke="#e66767" stroke-width="1.1"/>
<rect x="149.2" y="435.2" width="23.7" height="34.8" fill="#008300"/>
<rect x="192.3" y="435.2" width="23.7" height="34.8" fill="#008300"/>
<rect x="235.5" y="426.5" width="23.7" height="43.5" fill="none" stroke="#e66767" stroke-width="1.1"/>
<rect x="278.7" y="451.7" width="23.7" height="18.3" fill="#008300"/>
<rect x="321.8" y="434.7" width="23.7" height="35.3" fill="none" stroke="#e66767" stroke-width="1.1"/>
<rect x="365.0" y="431.1" width="23.7" height="38.9" fill="none" stroke="#e66767" stroke-width="1.1"/>
<rect x="408.1" y="419.6" width="23.7" height="50.4" fill="#008300"/>
<rect x="451.3" y="388.0" width="23.7" height="82.0" fill="#008300"/>
<rect x="494.4" y="440.7" width="23.7" height="29.3" fill="#008300"/>
<rect x="537.6" y="437.5" width="23.7" height="32.5" fill="#008300"/>
<rect x="580.8" y="430.6" width="23.7" height="39.4" fill="none" stroke="#e66767" stroke-width="1.1"/>
<rect x="623.9" y="433.8" width="23.7" height="36.2" fill="#008300"/>
<rect x="667.1" y="441.1" width="23.7" height="28.9" fill="#008300"/>
<rect x="753.4" y="443.0" width="23.7" height="27.0" fill="none" stroke="#e66767" stroke-width="1.1"/>
<rect x="796.6" y="444.8" width="23.7" height="25.2" fill="#008300"/>
<polyline points="420.0,432.2 463.2,427.8 506.3,429.3 549.5,430.0 592.6,429.5 635.8,429.4 678.9,430.9 722.1,432.7 765.3,433.5 808.4,434.9" fill="none" stroke="#3987e5" stroke-width="1.5" stroke-linejoin="round" stroke-linecap="round"/>
<polyline points="204.2,431.6 247.4,430.6 290.5,435.7 333.7,436.7 376.8,435.8 420.0,432.7 463.2,425.0 506.3,422.8 549.5,423.4 592.6,423.3 635.8,426.1 678.9,436.7 722.1,442.6 765.3,443.7 808.4,446.5" fill="none" stroke="#c98500" stroke-width="1.5" stroke-linejoin="round" stroke-linecap="round"/>
</svg>