<svg xmlns="http://www.w3.org/2000/svg" viewBox="0 0 840 496" width="840" height="496" font-family="-apple-system,&#39;Segoe UI&#39;,system-ui,sans-serif" role="img" aria-label="obra/superpowers candlestick chart">
<text x="14.0" y="20.0" font-size="15" fill="#ffffff" font-weight="650">obra/superpowers</text>
<text x="150.0" y="20.0" font-size="11.5" fill="#c3c2b7">daily · new stars, volume = new forks</text>
<text x="805.8" y="20.0" font-size="11.0" fill="#c3c2b7">fall</text>
<rect x="791" y="10" width="9" height="12" fill="#008300"/>
<text x="750.6" y="20.0" font-size="11.0" fill="#c3c2b7">rise</text>
<rect x="736" y="10" width="9" height="12" fill="none" stroke="#e66767" stroke-width="1.5"/>
<text x="14.0" y="38.0" font-size="11.0" fill="#898781">last 60 days · +30,545 stars · +2,828 forks · updated 2026-09-18</text>
<rect x="10" y="66" width="820" height="290" fill="none" stroke="#2c2c2a"/>
<rect x="10" y="384" width="820" height="86" fill="none" stroke="#2c2c2a"/>
<text x="38.0" y="490.0" font-size="11.0" fill="#898781" text-anchor="middle">2026-07</text>
<line x1="160.3" y1="66.0" x2="160.3" y2="356.0" stroke="#2c2c2a" stroke-width="1.0"/>
<line x1="160.3" y1="384.0" x2="160.3" y2="470.0" stroke="#2c2c2a" stroke-width="1.0"/>
<text x="167.2" y="490.0" font-size="11.0" fill="#898781" text-anchor="middle">2026-08</text>
<line x1="584.0" y1="66.0" x2="584.0" y2="356.0" stroke="#2c2c2a" stroke-width="1.0"/>
<line x1="584.0" y1="384.0" x2="584.0" y2="470.0" stroke="#2c2c2a" stroke-width="1.0"/>
<text x="590.8" y="490.0" font-size="11.0" fill="#898781" text-anchor="middle">2026-09</text>
<text x="14.0" y="58.0" font-size="11.0" fill="#c3c2b7">BOLL(20,2)</text>
<text x="84.5" y="58.0" font-size="11.0" fill="#c98500">UP:673.3</text>
<text x="142.9" y="58.0" font-size="11.0" fill="#3987e5">MID:453.3</text>
<text x="207.4" y="58.0" font-size="11.0" fill="#d55181">LOW:233.3</text>
<text x="271.8" y="58.0" font-size="11.0" fill="#9085e9">MA7:482.6</text>
<line x1="10.0" y1="258.0" x2="830.0" y2="258.0" stroke="#2c2c2a" stroke-width="1.0"/>
<text x="14.0" y="255.0" font-size="11.0" fill="#898781">500</text>
<line x1="10.0" y1="121.8" x2="830.0" y2="121.8" stroke="#2c2c2a" stroke-width="1.0"/>
<text x="14.0" y="118.8" font-size="11.0" fill="#898781">1,000</text>
<polyline points="16.8,79.2 30.5,88.0 44.2,111.1 57.8,111.6 71.5,110.8 85.2,117.7 98.8,118.2 112.5,120.4 126.2,148.3 139.8,167.4 153.5,177.9 167.2,178.0 180.8,173.3 194.5,185.4 208.2,195.4 221.8,186.5 235.5,176.1 249.2,170.6 262.8,170.6 276.5,170.4 290.2,170.2 303.8,171.6 317.5,173.7 331.2,175.3 344.8,175.3 358.5,174.2 372.2,171.8 385.8,170.5 399.5,172.3 413.2,174.1 426.8,175.0 440.5,170.4 454.2,167.6 467.8,167.8 481.5,169.0 495.2,180.9 508.8,195.0 522.5,194.9 536.2,196.7 549.8,196.0 563.5,194.0 577.2,194.3 590.8,195.7 604.5,196.6 618.2,197.6 631.8,195.6 645.5,196.2 659.2,195.8 672.8,195.7 686.5,196.2 700.2,197.5 713.8,198.0 727.5,198.2 741.2,194.9 754.8,195.9 768.5,195.8 782.2,195.5 795.8,209.9 809.5,210.9 823.2,210.8" fill="none" stroke="#c98500" stroke-width="1.5" stroke-linejoin="round" stroke-linecap="round"/>
<polyline points="16.8,189.4 30.5,194.5 44.2,201.9 57.8,203.0 71.5,205.4 85.2,210.7 98.8,210.3 112.5,213.1 126.2,220.4 139.8,225.7 153.5,228.6 167.2,231.2 180.8,235.4 194.5,241.6 208.2,244.3 221.8,242.5 235.5,239.5 249.2,237.8 262.8,236.1 276.5,235.1 290.2,237.5 303.8,239.1 317.5,240.7 331.2,242.3 344.8,242.4 358.5,244.1 372.2,246.6 385.8,249.7 399.5,252.2 413.2,253.8 426.8,254.2 440.5,251.4 454.2,246.5 467.8,244.7 481.5,246.0 495.2,251.1 508.8,255.9 522.5,255.8 536.2,257.0 549.8,260.8 563.5,262.6 577.2,264.9 590.8,267.3 604.5,268.6 618.2,270.1 631.8,268.2 645.5,267.1 659.2,267.4 672.8,268.1 686.5,268.8 700.2,269.3 713.8,269.4 727.5,269.4 741.2,268.3 754.8,269.3 768.5,269.3 782.2,269.0 795.8,272.9 809.5,273.6 823.2,270.7" fill="none" stroke="#3987e5" stroke-width="1.5" stroke-linejoin="round" stroke-linecap="round"/>
<polyline points="16.8,299.6 30.5,301.0 44.2,292.6 57.8,294.4 71.5,300.1 85.2,303.8 98.8,302.3 112.5,305.8 126.2,292.4 139.8,284.1 153.5,279.4 167.2,284.3 180.8,297.5 194.5,297.8 208.2,293.1 221.8,298.4 235.5,303.0 249.2,305.0 262.8,301.5 276.5,299.8 290.2,304.8 303.8,306.6 317.5,307.6 331.2,309.4 344.8,309.6 358.5,314.0 372.2,321.4 385.8,328.9 399.5,332.1 413.2,333.6 426.8,333.4 440.5,332.5 454.2,325.5 467.8,321.6 481.5,323.0 495.2,321.3 508.8,316.7 522.5,316.8 536.2,317.3 549.8,325.6 563.5,331.3 577.2,335.5 590.8,338.8 604.5,340.7 618.2,342.6 631.8,340.8 645.5,338.1 659.2,339.1 672.8,340.6 686.5,341.5 700.2,341.0 713.8,340.7 727.5,340.6 741.2,341.6 754.8,342.8 768.5,342.7 782.2,342.5 795.8,335.9 809.5,336.3 823.2,330.7" fill="none" stroke="#d55181" stroke-width="1.5" stroke-linejoin="round" stroke-linecap="round"/>
<polyline points="16.8,228.9 30.5,235.2 44.2,236.5 57.8,235.6 71.5,241.1 85.2,238.7 98.8,238.4 112.5,240.4 126.2,241.5 139.8,243.8 153.5,243.0 167.2,244.2 180.8,251.7 194.5,255.9 208.2,254.2 221.8,245.9 235.5,237.2 249.2,232.3 262.8,227.9 276.5,218.4 290.2,217.3 303.8,220.5 317.5,231.4 331.2,243.7 344.8,254.3 358.5,261.6 372.2,271.2 385.8,275.2 399.5,278.9 413.2,281.4 426.8,276.9 440.5,269.9 454.2,258.6 467.8,250.4 481.5,243.8 495.2,242.8 508.8,243.0 522.5,237.0 536.2,243.8 549.8,259.0 563.5,268.5 577.2,274.4 590.8,277.6 604.5,280.2 618.2,295.1 631.8,293.7 645.5,289.4 659.2,289.0 672.8,288.1 686.5,285.9 700.2,278.6 713.8,267.9 727.5,262.2 741.2,253.5 754.8,249.2 768.5,246.0 782.2,243.5 795.8,247.4 809.5,255.7 823.2,262.8" fill="none" stroke="#9085e9" stroke-width="1.5" stroke-linejoin="round" stroke-linecap="round"/>
<rect x="13.1" y="230.8" width="7.5" height="27.5" fill="none" stroke="#e66767" stroke-width="1.3"/>
<rect x="26.7" y="224.0" width="7.5" height="6.8" fill="none" stroke="#e66767" stroke-width="1.3"/>
<rect x="40.4" y="218.5" width="7.5" height="5.4" fill="none" stroke="#e66767" stroke-width="1.3"/>
<rect x="54.1" y="218.5" width="7.5" height="7.4" fill="#008300"/>
<rect x="67.7" y="225.9" width="7.5" height="33.5" fill="#008300"/>
<rect x="81.4" y="253.9" width="7.5" height="5.4" fill="none" stroke="#e66767" stroke-width="1.3"/>
<rect x="95.1" y="253.9" width="7.5" height="2.5" fill="#008300"/>
<rect x="108.7" y="245.0" width="7.5" height="11.4" fill="none" stroke="#e66767" stroke-width="1.3"/>
<rect x="122.4" y="231.3" width="7.5" height="13.6" fill="none" stroke="#e66767" stroke-width="1.3"/>
<rect x="136.1" y="231.3" width="7.5" height="3.3" fill="#008300"/>
<rect x="149.7" y="220.4" width="7.5" height="14.2" fill="none" stroke="#e66767" stroke-width="1.3"/>
<rect x="163.4" y="220.4" width="7.5" height="47.1" fill="#008300"/>
<rect x="177.1" y="267.6" width="7.5" height="38.7" fill="#008300"/>
<rect x="190.7" y="286.1" width="7.5" height="20.2" fill="none" stroke="#e66767" stroke-width="1.3"/>
<rect x="204.4" y="233.2" width="7.5" height="52.8" fill="none" stroke="#e66767" stroke-width="1.3"/>
<rect x="218.1" y="173.3" width="7.5" height="59.9" fill="none" stroke="#e66767" stroke-width="1.3"/>
<rect x="231.7" y="173.3" width="7.5" height="1.2" fill="#008300"/>
<rect x="245.4" y="173.6" width="7.5" height="12.8" fill="#008300"/>
<rect x="259.1" y="186.4" width="7.5" height="50.1" fill="#008300"/>
<rect x="272.7" y="236.5" width="7.5" height="3.0" fill="#008300"/>
<rect x="286.4" y="239.5" width="7.5" height="38.7" fill="#008300"/>
<rect x="300.1" y="255.8" width="7.5" height="22.3" fill="none" stroke="#e66767" stroke-width="1.3"/>
<rect x="313.7" y="249.9" width="7.5" height="6.0" fill="none" stroke="#e66767" stroke-width="1.3"/>
<rect x="327.4" y="249.9" width="7.5" height="9.8" fill="#008300"/>
<rect x="341.1" y="259.7" width="7.5" height="1.2" fill="#008300"/>
<rect x="354.7" y="260.7" width="7.5" height="27.0" fill="#008300"/>
<rect x="368.4" y="287.7" width="7.5" height="18.5" fill="#008300"/>
<rect x="382.1" y="306.2" width="7.5" height="1.2" fill="#008300"/>
<rect x="395.7" y="281.7" width="7.5" height="24.8" fill="none" stroke="#e66767" stroke-width="1.3"/>
<rect x="409.4" y="267.6" width="7.5" height="14.2" fill="none" stroke="#e66767" stroke-width="1.3"/>
<rect x="423.1" y="227.8" width="7.5" height="39.8" fill="none" stroke="#e66767" stroke-width="1.3"/>
<rect x="436.7" y="212.0" width="7.5" height="15.8" fill="none" stroke="#e66767" stroke-width="1.3"/>
<rect x="450.4" y="208.5" width="7.5" height="3.5" fill="none" stroke="#e66767" stroke-width="1.3"/>
<rect x="464.1" y="208.5" width="7.5" height="40.0" fill="#008300"/>
<rect x="477.7" y="248.5" width="7.5" height="12.0" fill="#008300"/>
<rect x="491.4" y="260.5" width="7.5" height="14.2" fill="#008300"/>
<rect x="505.1" y="268.9" width="7.5" height="5.7" fill="none" stroke="#e66767" stroke-width="1.3"/>
<rect x="518.7" y="186.1" width="7.5" height="82.8" fill="none" stroke="#e66767" stroke-width="1.3"/>
<rect x="532.4" y="186.1" width="7.5" height="73.0" fill="#008300"/>
<rect x="546.1" y="259.1" width="7.5" height="56.4" fill="#008300"/>
<rect x="559.7" y="314.9" width="7.5" height="1.2" fill="none" stroke="#e66767" stroke-width="1.3"/>
<rect x="573.4" y="301.6" width="7.5" height="13.3" fill="none" stroke="#e66767" stroke-width="1.3"/>
<rect x="587.1" y="297.0" width="7.5" height="4.6" fill="none" stroke="#e66767" stroke-width="1.3"/>
<rect x="600.7" y="287.4" width="7.5" height="9.5" fill="none" stroke="#e66767" stroke-width="1.3"/>
<rect x="614.4" y="287.4" width="7.5" height="2.5" fill="#008300"/>
<rect x="628.1" y="249.3" width="7.5" height="40.6" fill="none" stroke="#e66767" stroke-width="1.3"/>
<rect x="641.7" y="249.3" width="7.5" height="36.2" fill="#008300"/>
<rect x="655.4" y="285.5" width="7.5" height="27.0" fill="#008300"/>
<rect x="669.1" y="295.3" width="7.5" height="17.2" fill="none" stroke="#e66767" stroke-width="1.3"/>
<rect x="682.7" y="281.4" width="7.5" height="13.9" fill="none" stroke="#e66767" stroke-width="1.3"/>
<rect x="696.4" y="236.5" width="7.5" height="44.9" fill="none" stroke="#e66767" stroke-width="1.3"/>
<rect x="710.1" y="214.7" width="7.5" height="21.8" fill="none" stroke="#e66767" stroke-width="1.3"/>
<rect x="723.7" y="209.3" width="7.5" height="5.4" fill="none" stroke="#e66767" stroke-width="1.3"/>
<rect x="737.4" y="209.3" width="7.5" height="15.5" fill="#008300"/>
<rect x="751.1" y="224.8" width="7.5" height="57.5" fill="#008300"/>
<rect x="764.7" y="273.0" width="7.5" height="9.3" fill="none" stroke="#e66767" stroke-width="1.3"/>
<rect x="778.4" y="263.7" width="7.5" height="9.3" fill="none" stroke="#e66767" stroke-width="1.3"/>
<rect x="792.1" y="263.7" width="7.5" height="1.2" fill="#008300"/>
<rect x="805.7" y="264.3" width="7.5" height="7.9" fill="#008300"/>
<rect x="819.4" y="259.1" width="7.5" height="13.1" fill="none" stroke="#e66767" stroke-width="1.3"/>
<circle cx="221.8" cy="173.3" r="2" fill="#c3c2b7"/>
<line x1="221.8" y1="173.3" x2="229.8" y2="173.3" stroke="#c3c2b7" stroke-width="1.0"/>
<text x="232.8" y="177.3" font-size="11.0" fill="#c3c2b7">811</text>
<circle cx="549.8" cy="315.5" r="2" fill="#c3c2b7"/>
<line x1="549.8" y1="315.5" x2="541.8" y2="315.5" stroke="#c3c2b7" stroke-width="1.0"/>
<text x="538.8" y="319.5" font-size="11.0" fill="#c3c2b7" text-anchor="end">289</text>
<text x="14.0" y="376.0" font-size="11.0" fill="#c3c2b7">VOL 45 forks</text>
<text x="96.6" y="376.0" font-size="11.0" fill="#c98500">MA5:41.2</text>
<text x="155.0" y="376.0" font-size="11.0" fill="#3987e5">MA10:42.9</text>
<text x="14.0" y="395.0" font-size="10" fill="#898781">92</text>
<rect x="13.1" y="414.7" width="7.5" height="55.3" fill="none" stroke="#e66767" stroke-width="1.1"/>
<rect x="26.7" y="414.7" width="7.5" height="55.3" fill="none" stroke="#e66767" stroke-width="1.1"/>
<rect x="40.4" y="413.8" width="7.5" height="56.2" fill="none" stroke="#e66767" stroke-width="1.1"/>
<rect x="54.1" y="423.7" width="7.5" height="46.3" fill="#008300"/>
<rect x="67.7" y="420.1" width="7.5" height="49.9" fill="#008300"/>
<rect x="81.4" y="418.3" width="7.5" height="51.7" fill="none" stroke="#e66767" stroke-width="1.1"/>
<rect x="95.1" y="417.4" width="7.5" height="52.6" fill="#008300"/>
<rect x="108.7" y="425.4" width="7.5" height="44.6" fill="none" stroke="#e66767" stroke-width="1.1"/>
<rect x="122.4" y="421.0" width="7.5" height="49.0" fill="none" stroke="#e66767" stroke-width="1.1"/>
<rect x="136.1" y="425.4" width="7.5" height="44.6" fill="#008300"/>
<rect x="149.7" y="424.5" width="7.5" height="45.5" fill="none" stroke="#e66767" stroke-width="1.1"/>
<rect x="163.4" y="437.9" width="7.5" height="32.1" fill="#008300"/>
<rect x="177.1" y="436.1" width="7.5" height="33.9" fill="#008300"/>
<rect x="190.7" y="433.5" width="7.5" height="36.5" fill="none" stroke="#e66767" stroke-width="1.1"/>
<rect x="204.4" y="394.2" width="7.5" height="75.8" fill="none" stroke="#e66767" stroke-width="1.1"/>
<rect x="218.1" y="413.0" width="7.5" height="57.0" fill="none" stroke="#e66767" stroke-width="1.1"/>
<rect x="231.7" y="416.5" width="7.5" height="53.5" fill="#008300"/>
<rect x="245.4" y="407.6" width="7.5" height="62.4" fill="#008300"/>
<rect x="259.1" y="437.9" width="7.5" height="32.1" fill="#008300"/>
<rect x="272.7" y="413.0" width="7.5" height="57.0" fill="#008300"/>
<rect x="286.4" y="421.9" width="7.5" height="48.1" fill="#008300"/>
<rect x="300.1" y="432.6" width="7.5" height="37.4" fill="none" stroke="#e66767" stroke-width="1.1"/>
<rect x="313.7" y="441.5" width="7.5" height="28.5" fill="none" stroke="#e66767" stroke-width="1.1"/>
<rect x="327.4" y="418.3" width="7.5" height="51.7" fill="#008300"/>
<rect x="341.1" y="417.4" width="7.5" height="52.6" fill="#008300"/>
<rect x="354.7" y="446.8" width="7.5" height="23.2" fill="#008300"/>
<rect x="368.4" y="441.5" width="7.5" height="28.5" fill="#008300"/>
<rect x="382.1" y="449.5" width="7.5" height="20.5" fill="#008300"/>
<rect x="395.7" y="425.4" width="7.5" height="44.6" fill="none" stroke="#e66767" stroke-width="1.1"/>
<rect x="409.4" y="424.5" width="7.5" height="45.5" fill="none" stroke="#e66767" stroke-width="1.1"/>
<rect x="423.1" y="412.1" width="7.5" height="57.9" fill="none" stroke="#e66767" stroke-width="1.1"/>
<rect x="436.7" y="422.8" width="7.5" height="47.2" fill="none" stroke="#e66767" stroke-width="1.1"/>
<rect x="450.4" y="438.8" width="7.5" height="31.2" fill="none" stroke="#e66767" stroke-width="1.1"/>
<rect x="464.1" y="418.3" width="7.5" height="51.7" fill="#008300"/>
<rect x="477.7" y="426.3" width="7.5" height="43.7" fill="#008300"/>
<rect x="491.4" y="431.7" width="7.5" height="38.3" fill="#008300"/>
<rect x="505.1" y="441.5" width="7.5" height="28.5" fill="none" stroke="#e66767" stroke-width="1.1"/>
<rect x="518.7" y="388.0" width="7.5" height="82.0" fill="none" stroke="#e66767" stroke-width="1.1"/>
<rect x="532.4" y="427.2" width="7.5" height="42.8" fill="#008300"/>
<rect x="546.1" y="441.5" width="7.5" height="28.5" fill="#008300"/>
<rect x="559.7" y="445.0" width="7.5" height="25.0" fill="none" stroke="#e66767" stroke-width="1.1"/>
<rect x="573.4" y="425.4" width="7.5" height="44.6" fill="none" stroke="#e66767" stroke-width="1.1"/>
<rect x="587.1" y="444.2" width="7.5" height="25.8" fill="none" stroke="#e66767" stroke-width="1.1"/>
<rect x="600.7" y="448.6" width="7.5" height="21.4" fill="none" stroke="#e66767" stroke-width="1.1"/>
<rect x="614.4" y="430.8" width="7.5" height="39.2" fill="#008300"/>
<rect x="628.1" y="437.9" width="7.5" height="32.1" fill="none" stroke="#e66767" stroke-width="1.1"/>
<rect x="641.7" y="440.6" width="7.5" height="29.4" fill="#008300"/>
<rect x="655.4" y="445.0" width="7.5" height="25.0" fill="#008300"/>
<rect x="669.1" y="432.6" width="7.5" height="37.4" fill="none" stroke="#e66767" stroke-width="1.1"/>
<rect x="682.7" y="435.2" width="7.5" height="34.8" fill="none" stroke="#e66767" stroke-width="1.1"/>
<rect x="696.4" y="445.9" width="7.5" height="24.1" fill="none" stroke="#e66767" stroke-width="1.1"/>
<rect x="710.1" y="433.5" width="7.5" height="36.5" fill="none" stroke="#e66767" stroke-width="1.1"/>
<rect x="723.7" y="415.6" width="7.5" height="54.4" fill="none" stroke="#e66767" stroke-width="1.1"/>
<rect x="737.4" y="430.8" width="7.5" height="39.2" fill="#008300"/>
<rect x="751.1" y="425.4" width="7.5" height="44.6" fill="#008300"/>
<rect x="764.7" y="435.2" width="7.5" height="34.8" fill="none" stroke="#e66767" stroke-width="1.1"/>
<rect x="778.4" y="442.4" width="7.5" height="27.6" fill="none" stroke="#e66767" stroke-width="1.1"/>
<rect x="792.1" y="432.6" width="7.5" height="37.4" fill="#008300"/>
<rect x="805.7" y="426.3" width="7.5" height="43.7" fill="#008300"/>
<rect x="819.4" y="429.9" width="7.5" height="40.1" fill="none" stroke="#e66767" stroke-width="1.1"/>
<polyline points="16.8,418.4 30.5,418.6 44.2,419.3 57.8,422.3 71.5,424.4 85.2,424.8 98.8,419.6 112.5,420.4 126.2,420.4 139.8,419.5 153.5,420.4 167.2,422.8 180.8,425.0 194.5,426.0 208.2,423.4 221.8,422.9 235.5,422.8 249.2,421.0 262.8,422.7 276.5,421.4 290.2,421.2 303.8,420.6 317.5,421.2 331.2,419.6 344.8,422.0 358.5,425.3 372.2,427.8 385.8,432.0 399.5,430.8 413.2,431.9 426.8,431.0 440.5,430.0 454.2,429.7 467.8,429.7 481.5,430.6 495.2,429.1 508.8,429.1 522.5,422.9 536.2,423.1 549.8,424.8 563.5,428.1 577.2,428.4 590.8,428.9 604.5,431.9 618.2,432.4 631.8,433.0 645.5,432.9 659.2,438.6 672.8,439.2 686.5,438.5 700.2,438.6 713.8,439.4 727.5,436.6 741.2,434.8 754.8,434.3 768.5,434.0 782.2,434.2 795.8,432.9 809.5,432.3 823.2,431.8" fill="none" stroke="#3987e5" stroke-width="1.5" stroke-linejoin="round" stroke-linecap="round"/>
<polyline points="16.8,431.5 30.5,420.4 44.2,419.7 57.8,420.3 71.5,417.4 85.2,418.1 98.8,418.7 112.5,421.0 126.2,420.4 139.8,421.5 153.5,422.8 167.2,426.9 180.8,429.0 194.5,431.5 208.2,425.3 221.8,422.9 235.5,418.7 249.2,413.0 262.8,413.8 276.5,417.6 290.2,419.4 303.8,422.6 317.5,429.4 331.2,425.4 344.8,426.3 358.5,431.3 372.2,433.1 385.8,434.7 399.5,436.1 413.2,437.6 426.8,430.6 440.5,426.9 454.2,424.7 467.8,423.3 481.5,423.7 495.2,427.6 508.8,431.3 522.5,421.2 536.2,422.9 549.8,426.0 563.5,428.6 577.2,425.4 590.8,436.7 604.5,440.9 618.2,438.8 631.8,437.4 645.5,440.4 659.2,440.6 672.8,437.4 686.5,438.3 700.2,439.9 713.8,438.4 727.5,432.6 741.2,432.2 754.8,430.2 768.5,428.1 782.2,429.9 795.8,433.3 809.5,432.4 823.2,433.3" fill="none" stroke="#c98500" stroke-width="1.5" stroke-linejoin="round" stroke-linecap="round"/>
</svg>