<svg xmlns="http://www.w3.org/2000/svg" viewBox="0 0 840 496" width="840" height="496" font-family="-apple-system,&#39;Segoe UI&#39;,system-ui,sans-serif" role="img" aria-label="obra/superpowers candlestick chart">
<text x="14.0" y="20.0" font-size="15" fill="#ffffff" font-weight="650">obra/superpowers</text>
<text x="150.0" y="20.0" font-size="11.5" fill="#c3c2b7">daily · new stars, volume = new forks</text>
<text x="805.8" y="20.0" font-size="11.0" fill="#c3c2b7">fall</text>
<rect x="791" y="10" width="9" height="12" fill="#008300"/>
<text x="750.6" y="20.0" font-size="11.0" fill="#c3c2b7">rise</text>
<rect x="736" y="10" width="9" height="12" fill="none" stroke="#e66767" stroke-width="1.5"/>
<text x="14.0" y="38.0" font-size="11.0" fill="#898781">last 11 days · +9,650 stars · +1,005 forks · updated 2026-07-11</text>
<rect x="10" y="66" width="820" height="290" fill="none" stroke="#2c2c2a"/>
<rect x="10" y="384" width="820" height="86" fill="none" stroke="#2c2c2a"/>
<text x="47.3" y="490.0" font-size="11.0" fill="#898781" text-anchor="middle">07-01</text>
<text x="196.4" y="490.0" font-size="11.0" fill="#898781" text-anchor="middle">07-03</text>
<text x="345.5" y="490.0" font-size="11.0" fill="#898781" text-anchor="middle">07-05</text>
<text x="494.5" y="490.0" font-size="11.0" fill="#898781" text-anchor="middle">07-07</text>
<text x="643.6" y="490.0" font-size="11.0" fill="#898781" text-anchor="middle">07-09</text>
<text x="792.7" y="490.0" font-size="11.0" fill="#898781" text-anchor="middle">07-11</text>
<text x="14.0" y="58.0" font-size="11.0" fill="#c3c2b7">BOLL(20,2)</text>
<text x="84.5" y="58.0" font-size="11.0" fill="#c98500">UP:—</text>
<text x="118.7" y="58.0" font-size="11.0" fill="#3987e5">MID:—</text>
<text x="158.9" y="58.0" font-size="11.0" fill="#d55181">LOW:—</text>
<text x="199.2" y="58.0" font-size="11.0" fill="#9085e9">MA7:824.1</text>
<line x1="10.0" y1="356.0" x2="830.0" y2="356.0" stroke="#2c2c2a" stroke-width="1.0"/>
<text x="14.0" y="353.0" font-size="11.0" fill="#898781">0</text>
<line x1="10.0" y1="239.3" x2="830.0" y2="239.3" stroke="#2c2c2a" stroke-width="1.0"/>
<text x="14.0" y="236.3" font-size="11.0" fill="#898781">500</text>
<line x1="10.0" y1="122.5" x2="830.0" y2="122.5" stroke="#2c2c2a" stroke-width="1.0"/>
<text x="14.0" y="119.5" font-size="11.0" fill="#898781">1,000</text>
<polyline points="494.5,158.2 569.1,166.1 643.6,161.8 718.2,168.6 792.7,163.6" fill="none" stroke="#9085e9" stroke-width="1.5" stroke-linejoin="round" stroke-linecap="round"/>
<rect x="35.3" y="123.9" width="24.0" height="232.1" fill="none" stroke="#e66767" stroke-width="1.3"/>
<rect x="109.8" y="121.8" width="24.0" height="2.1" fill="none" stroke="#e66767" stroke-width="1.3"/>
<rect x="184.4" y="79.8" width="24.0" height="42.0" fill="none" stroke="#e66767" stroke-width="1.3"/>
<rect x="258.9" y="79.8" width="24.0" height="112.5" fill="#008300"/>
<rect x="333.5" y="192.3" width="24.0" height="6.1" fill="#008300"/>
<rect x="408.0" y="145.2" width="24.0" height="53.2" fill="none" stroke="#e66767" stroke-width="1.3"/>
<rect x="482.5" y="145.2" width="24.0" height="100.4" fill="#008300"/>
<rect x="557.1" y="179.5" width="24.0" height="66.1" fill="none" stroke="#e66767" stroke-width="1.3"/>
<rect x="631.6" y="91.5" width="24.0" height="88.0" fill="none" stroke="#e66767" stroke-width="1.3"/>
<rect x="706.2" y="91.5" width="24.0" height="36.2" fill="#008300"/>
<rect x="780.7" y="127.7" width="24.0" height="29.7" fill="#008300"/>
<circle cx="196.4" cy="79.8" r="2" fill="#c3c2b7"/>
<line x1="196.4" y1="79.8" x2="204.4" y2="79.8" stroke="#c3c2b7" stroke-width="1.0"/>
<text x="207.4" y="83.8" font-size="11.0" fill="#c3c2b7">1,183</text>
<circle cx="47.3" cy="356.0" r="2" fill="#c3c2b7"/>
<line x1="47.3" y1="356.0" x2="55.3" y2="356.0" stroke="#c3c2b7" stroke-width="1.0"/>
<text x="58.3" y="350.0" font-size="11.0" fill="#c3c2b7">0</text>
<text x="14.0" y="376.0" font-size="11.0" fill="#c3c2b7">VOL 179 forks</text>
<text x="102.7" y="376.0" font-size="11.0" fill="#c98500">MA5:98.2</text>
<text x="161.1" y="376.0" font-size="11.0" fill="#3987e5">MA10:92.1</text>
<text x="14.0" y="395.0" font-size="10" fill="#898781">179</text>
<rect x="35.3" y="431.5" width="24.0" height="38.5" fill="none" stroke="#e66767" stroke-width="1.1"/>
<rect x="109.8" y="426.0" width="24.0" height="44.0" fill="none" stroke="#e66767" stroke-width="1.1"/>
<rect x="184.4" y="430.1" width="24.0" height="39.9" fill="none" stroke="#e66767" stroke-width="1.1"/>
<rect x="258.9" y="435.2" width="24.0" height="34.8" fill="#008300"/>
<rect x="333.5" y="435.2" width="24.0" height="34.8" fill="#008300"/>
<rect x="408.0" y="426.5" width="24.0" height="43.5" fill="none" stroke="#e66767" stroke-width="1.1"/>
<rect x="482.5" y="451.7" width="24.0" height="18.3" fill="#008300"/>
<rect x="557.1" y="434.7" width="24.0" height="35.3" fill="none" stroke="#e66767" stroke-width="1.1"/>
<rect x="631.6" y="431.1" width="24.0" height="38.9" fill="none" stroke="#e66767" stroke-width="1.1"/>
<rect x="706.2" y="419.6" width="24.0" height="50.4" fill="#008300"/>
<rect x="780.7" y="388.0" width="24.0" height="82.0" fill="#008300"/>
<polyline points="718.2,432.2 792.7,427.8" fill="none" stroke="#3987e5" stroke-width="1.5" stroke-linejoin="round" stroke-linecap="round"/>
<polyline points="345.5,431.6 420.0,430.6 494.5,435.7 569.1,436.7 643.6,435.8 718.2,432.7 792.7,425.0" fill="none" stroke="#c98500" stroke-width="1.5" stroke-linejoin="round" stroke-linecap="round"/>
</svg>