<svg xmlns="http://www.w3.org/2000/svg" viewBox="0 0 840 496" width="840" height="496" font-family="-apple-system,&#39;Segoe UI&#39;,system-ui,sans-serif" role="img" aria-label="obra/superpowers candlestick chart">
<text x="14.0" y="20.0" font-size="15" fill="#ffffff" font-weight="650">obra/superpowers</text>
<text x="150.0" y="20.0" font-size="11.5" fill="#c3c2b7">daily · new stars, volume = new forks</text>
<text x="805.8" y="20.0" font-size="11.0" fill="#c3c2b7">fall</text>
<rect x="791" y="10" width="9" height="12" fill="#008300"/>
<text x="750.6" y="20.0" font-size="11.0" fill="#c3c2b7">rise</text>
<rect x="736" y="10" width="9" height="12" fill="none" stroke="#e66767" stroke-width="1.5"/>
<text x="14.0" y="38.0" font-size="11.0" fill="#898781">last 12 days · +10,301 stars · +1,069 forks · updated 2026-07-12</text>
<rect x="10" y="66" width="820" height="290" fill="none" stroke="#2c2c2a"/>
<rect x="10" y="384" width="820" height="86" fill="none" stroke="#2c2c2a"/>
<text x="44.2" y="490.0" font-size="11.0" fill="#898781" text-anchor="middle">07-01</text>
<text x="180.8" y="490.0" font-size="11.0" fill="#898781" text-anchor="middle">07-03</text>
<text x="317.5" y="490.0" font-size="11.0" fill="#898781" text-anchor="middle">07-05</text>
<text x="454.2" y="490.0" font-size="11.0" fill="#898781" text-anchor="middle">07-07</text>
<text x="590.8" y="490.0" font-size="11.0" fill="#898781" text-anchor="middle">07-09</text>
<text x="727.5" y="490.0" font-size="11.0" fill="#898781" text-anchor="middle">07-11</text>
<text x="14.0" y="58.0" font-size="11.0" fill="#c3c2b7">BOLL(20,2)</text>
<text x="84.5" y="58.0" font-size="11.0" fill="#c98500">UP:—</text>
<text x="118.7" y="58.0" font-size="11.0" fill="#3987e5">MID:—</text>
<text x="158.9" y="58.0" font-size="11.0" fill="#d55181">LOW:—</text>
<text x="199.2" y="58.0" font-size="11.0" fill="#9085e9">MA7:820.7</text>
<line x1="10.0" y1="356.0" x2="830.0" y2="356.0" stroke="#2c2c2a" stroke-width="1.0"/>
<text x="14.0" y="353.0" font-size="11.0" fill="#898781">0</text>
<line x1="10.0" y1="239.3" x2="830.0" y2="239.3" stroke="#2c2c2a" stroke-width="1.0"/>
<text x="14.0" y="236.3" font-size="11.0" fill="#898781">500</text>
<line x1="10.0" y1="122.5" x2="830.0" y2="122.5" stroke="#2c2c2a" stroke-width="1.0"/>
<text x="14.0" y="119.5" font-size="11.0" fill="#898781">1,000</text>
<polyline points="454.2,158.2 522.5,166.1 590.8,161.8 659.2,168.6 727.5,163.6 795.8,164.4" fill="none" stroke="#9085e9" stroke-width="1.5" stroke-linejoin="round" stroke-linecap="round"/>
<rect x="32.2" y="123.9" width="24.0" height="232.1" fill="none" stroke="#e66767" stroke-width="1.3"/>
<rect x="100.5" y="121.8" width="24.0" height="2.1" fill="none" stroke="#e66767" stroke-width="1.3"/>
<rect x="168.8" y="79.8" width="24.0" height="42.0" fill="none" stroke="#e66767" stroke-width="1.3"/>
<rect x="237.2" y="79.8" width="24.0" height="112.5" fill="#008300"/>
<rect x="305.5" y="192.3" width="24.0" height="6.1" fill="#008300"/>
<rect x="373.8" y="145.2" width="24.0" height="53.2" fill="none" stroke="#e66767" stroke-width="1.3"/>
<rect x="442.2" y="145.2" width="24.0" height="100.4" fill="#008300"/>
<rect x="510.5" y="179.5" width="24.0" height="66.1" fill="none" stroke="#e66767" stroke-width="1.3"/>
<rect x="578.8" y="91.5" width="24.0" height="88.0" fill="none" stroke="#e66767" stroke-width="1.3"/>
<rect x="647.2" y="91.5" width="24.0" height="36.2" fill="#008300"/>
<rect x="715.5" y="127.7" width="24.0" height="29.7" fill="#008300"/>
<rect x="783.8" y="157.3" width="24.0" height="46.7" fill="#008300"/>
<circle cx="180.8" cy="79.8" r="2" fill="#c3c2b7"/>
<line x1="180.8" y1="79.8" x2="188.8" y2="79.8" stroke="#c3c2b7" stroke-width="1.0"/>
<text x="191.8" y="83.8" font-size="11.0" fill="#c3c2b7">1,183</text>
<circle cx="44.2" cy="356.0" r="2" fill="#c3c2b7"/>
<line x1="44.2" y1="356.0" x2="52.2" y2="356.0" stroke="#c3c2b7" stroke-width="1.0"/>
<text x="55.2" y="350.0" font-size="11.0" fill="#c3c2b7">0</text>
<text x="14.0" y="376.0" font-size="11.0" fill="#c3c2b7">VOL 64 forks</text>
<text x="96.6" y="376.0" font-size="11.0" fill="#c98500">MA5:103</text>
<text x="149.0" y="376.0" font-size="11.0" fill="#3987e5">MA10:88.9</text>
<text x="14.0" y="395.0" font-size="10" fill="#898781">179</text>
<rect x="32.2" y="431.5" width="24.0" height="38.5" fill="none" stroke="#e66767" stroke-width="1.1"/>
<rect x="100.5" y="426.0" width="24.0" height="44.0" fill="none" stroke="#e66767" stroke-width="1.1"/>
<rect x="168.8" y="430.1" width="24.0" height="39.9" fill="none" stroke="#e66767" stroke-width="1.1"/>
<rect x="237.2" y="435.2" width="24.0" height="34.8" fill="#008300"/>
<rect x="305.5" y="435.2" width="24.0" height="34.8" fill="#008300"/>
<rect x="373.8" y="426.5" width="24.0" height="43.5" fill="none" stroke="#e66767" stroke-width="1.1"/>
<rect x="442.2" y="451.7" width="24.0" height="18.3" fill="#008300"/>
<rect x="510.5" y="434.7" width="24.0" height="35.3" fill="none" stroke="#e66767" stroke-width="1.1"/>
<rect x="578.8" y="431.1" width="24.0" height="38.9" fill="none" stroke="#e66767" stroke-width="1.1"/>
<rect x="647.2" y="419.6" width="24.0" height="50.4" fill="#008300"/>
<rect x="715.5" y="388.0" width="24.0" height="82.0" fill="#008300"/>
<rect x="783.8" y="440.7" width="24.0" height="29.3" fill="#008300"/>
<polyline points="659.2,432.2 727.5,427.8 795.8,429.3" fill="none" stroke="#3987e5" stroke-width="1.5" stroke-linejoin="round" stroke-linecap="round"/>
<polyline points="317.5,431.6 385.8,430.6 454.2,435.7 522.5,436.7 590.8,435.8 659.2,432.7 727.5,425.0 795.8,422.8" fill="none" stroke="#c98500" stroke-width="1.5" stroke-linejoin="round" stroke-linecap="round"/>
</svg>