<svg xmlns="http://www.w3.org/2000/svg" viewBox="0 0 840 496" width="840" height="496" font-family="-apple-system,&#39;Segoe UI&#39;,system-ui,sans-serif" role="img" aria-label="obra/superpowers candlestick chart">
<text x="14.0" y="20.0" font-size="15" fill="#ffffff" font-weight="650">obra/superpowers</text>
<text x="150.0" y="20.0" font-size="11.5" fill="#c3c2b7">daily · new stars, volume = new forks</text>
<text x="805.8" y="20.0" font-size="11.0" fill="#c3c2b7">fall</text>
<rect x="791" y="10" width="9" height="12" fill="#008300"/>
<text x="750.6" y="20.0" font-size="11.0" fill="#c3c2b7">rise</text>
<rect x="736" y="10" width="9" height="12" fill="none" stroke="#e66767" stroke-width="1.5"/>
<text x="14.0" y="38.0" font-size="11.0" fill="#898781">last 16 days · +13,252 stars · +1,368 forks · updated 2026-07-16</text>
<rect x="10" y="66" width="820" height="290" fill="none" stroke="#2c2c2a"/>
<rect x="10" y="384" width="820" height="86" fill="none" stroke="#2c2c2a"/>
<text x="36.0" y="490.0" font-size="11.0" fill="#898781" text-anchor="middle">07-01</text>
<text x="189.4" y="490.0" font-size="11.0" fill="#898781" text-anchor="middle">07-04</text>
<text x="343.1" y="490.0" font-size="11.0" fill="#898781" text-anchor="middle">07-07</text>
<text x="496.9" y="490.0" font-size="11.0" fill="#898781" text-anchor="middle">07-10</text>
<text x="650.6" y="490.0" font-size="11.0" fill="#898781" text-anchor="middle">07-13</text>
<text x="804.0" y="490.0" font-size="11.0" fill="#898781" text-anchor="middle">07-16</text>
<text x="14.0" y="58.0" font-size="11.0" fill="#c3c2b7">BOLL(20,2)</text>
<text x="84.5" y="58.0" font-size="11.0" fill="#c98500">UP:—</text>
<text x="118.7" y="58.0" font-size="11.0" fill="#3987e5">MID:—</text>
<text x="158.9" y="58.0" font-size="11.0" fill="#d55181">LOW:—</text>
<text x="199.2" y="58.0" font-size="11.0" fill="#9085e9">MA7:775.9</text>
<line x1="10.0" y1="356.0" x2="830.0" y2="356.0" stroke="#2c2c2a" stroke-width="1.0"/>
<text x="14.0" y="353.0" font-size="11.0" fill="#898781">0</text>
<line x1="10.0" y1="239.3" x2="830.0" y2="239.3" stroke="#2c2c2a" stroke-width="1.0"/>
<text x="14.0" y="236.3" font-size="11.0" fill="#898781">500</text>
<line x1="10.0" y1="122.5" x2="830.0" y2="122.5" stroke="#2c2c2a" stroke-width="1.0"/>
<text x="14.0" y="119.5" font-size="11.0" fill="#898781">1,000</text>
<polyline points="343.1,158.2 394.4,166.1 445.6,161.8 496.9,168.6 548.1,163.6 599.4,164.4 650.6,173.3 701.9,160.8 753.1,159.7 804.4,174.9" fill="none" stroke="#9085e9" stroke-width="1.5" stroke-linejoin="round" stroke-linecap="round"/>
<rect x="23.6" y="123.9" width="24.0" height="232.1" fill="none" stroke="#e66767" stroke-width="1.3"/>
<rect x="74.9" y="121.8" width="24.0" height="2.1" fill="none" stroke="#e66767" stroke-width="1.3"/>
<rect x="126.1" y="79.8" width="24.0" height="42.0" fill="none" stroke="#e66767" stroke-width="1.3"/>
<rect x="177.4" y="79.8" width="24.0" height="112.5" fill="#008300"/>
<rect x="228.6" y="192.3" width="24.0" height="6.1" fill="#008300"/>
<rect x="279.9" y="145.2" width="24.0" height="53.2" fill="none" stroke="#e66767" stroke-width="1.3"/>
<rect x="331.1" y="145.2" width="24.0" height="100.4" fill="#008300"/>
<rect x="382.4" y="179.5" width="24.0" height="66.1" fill="none" stroke="#e66767" stroke-width="1.3"/>
<rect x="433.6" y="91.5" width="24.0" height="88.0" fill="none" stroke="#e66767" stroke-width="1.3"/>
<rect x="484.9" y="91.5" width="24.0" height="36.2" fill="#008300"/>
<rect x="536.1" y="127.7" width="24.0" height="29.7" fill="#008300"/>
<rect x="587.4" y="157.3" width="24.0" height="46.7" fill="#008300"/>
<rect x="638.6" y="204.0" width="24.0" height="3.7" fill="#008300"/>
<rect x="689.9" y="157.6" width="24.0" height="50.2" fill="none" stroke="#e66767" stroke-width="1.3"/>
<rect x="741.1" y="157.6" width="24.0" height="14.7" fill="#008300"/>
<rect x="792.4" y="172.3" width="24.0" height="25.2" fill="#008300"/>
<circle cx="138.1" cy="79.8" r="2" fill="#c3c2b7"/>
<line x1="138.1" y1="79.8" x2="146.1" y2="79.8" stroke="#c3c2b7" stroke-width="1.0"/>
<text x="149.1" y="83.8" font-size="11.0" fill="#c3c2b7">1,183</text>
<circle cx="35.6" cy="356.0" r="2" fill="#c3c2b7"/>
<line x1="35.6" y1="356.0" x2="43.6" y2="356.0" stroke="#c3c2b7" stroke-width="1.0"/>
<text x="46.6" y="350.0" font-size="11.0" fill="#c3c2b7">0</text>
<text x="14.0" y="376.0" font-size="11.0" fill="#c3c2b7">VOL 63 forks</text>
<text x="96.6" y="376.0" font-size="11.0" fill="#c98500">MA5:72.6</text>
<text x="155.0" y="376.0" font-size="11.0" fill="#3987e5">MA10:85.4</text>
<text x="14.0" y="395.0" font-size="10" fill="#898781">179</text>
<rect x="23.6" y="431.5" width="24.0" height="38.5" fill="none" stroke="#e66767" stroke-width="1.1"/>
<rect x="74.9" y="426.0" width="24.0" height="44.0" fill="none" stroke="#e66767" stroke-width="1.1"/>
<rect x="126.1" y="430.1" width="24.0" height="39.9" fill="none" stroke="#e66767" stroke-width="1.1"/>
<rect x="177.4" y="435.2" width="24.0" height="34.8" fill="#008300"/>
<rect x="228.6" y="435.2" width="24.0" height="34.8" fill="#008300"/>
<rect x="279.9" y="426.5" width="24.0" height="43.5" fill="none" stroke="#e66767" stroke-width="1.1"/>
<rect x="331.1" y="451.7" width="24.0" height="18.3" fill="#008300"/>
<rect x="382.4" y="434.7" width="24.0" height="35.3" fill="none" stroke="#e66767" stroke-width="1.1"/>
<rect x="433.6" y="431.1" width="24.0" height="38.9" fill="none" stroke="#e66767" stroke-width="1.1"/>
<rect x="484.9" y="419.6" width="24.0" height="50.4" fill="#008300"/>
<rect x="536.1" y="388.0" width="24.0" height="82.0" fill="#008300"/>
<rect x="587.4" y="440.7" width="24.0" height="29.3" fill="#008300"/>
<rect x="638.6" y="437.5" width="24.0" height="32.5" fill="#008300"/>
<rect x="689.9" y="430.6" width="24.0" height="39.4" fill="none" stroke="#e66767" stroke-width="1.1"/>
<rect x="741.1" y="433.8" width="24.0" height="36.2" fill="#008300"/>
<rect x="792.4" y="441.1" width="24.0" height="28.9" fill="#008300"/>
<polyline points="496.9,432.2 548.1,427.8 599.4,429.3 650.6,430.0 701.9,429.5 753.1,429.4 804.4,430.9" fill="none" stroke="#3987e5" stroke-width="1.5" stroke-linejoin="round" stroke-linecap="round"/>
<polyline points="240.6,431.6 291.9,430.6 343.1,435.7 394.4,436.7 445.6,435.8 496.9,432.7 548.1,425.0 599.4,422.8 650.6,423.4 701.9,423.3 753.1,426.1 804.4,436.7" fill="none" stroke="#c98500" stroke-width="1.5" stroke-linejoin="round" stroke-linecap="round"/>
</svg>