<svg xmlns="http://www.w3.org/2000/svg" viewBox="0 0 840 496" width="840" height="496" font-family="-apple-system,&#39;Segoe UI&#39;,system-ui,sans-serif" role="img" aria-label="obra/superpowers candlestick chart">
<text x="14.0" y="20.0" font-size="15" fill="#ffffff" font-weight="650">obra/superpowers</text>
<text x="150.0" y="20.0" font-size="11.5" fill="#c3c2b7">daily · new stars, volume = new forks</text>
<text x="805.8" y="20.0" font-size="11.0" fill="#c3c2b7">fall</text>
<rect x="791" y="10" width="9" height="12" fill="#008300"/>
<text x="750.6" y="20.0" font-size="11.0" fill="#c3c2b7">rise</text>
<rect x="736" y="10" width="9" height="12" fill="none" stroke="#e66767" stroke-width="1.5"/>
<text x="14.0" y="38.0" font-size="11.0" fill="#898781">last 14 days · +11,786 stars · +1,226 forks · updated 2026-07-14</text>
<rect x="10" y="66" width="820" height="290" fill="none" stroke="#2c2c2a"/>
<rect x="10" y="384" width="820" height="86" fill="none" stroke="#2c2c2a"/>
<text x="39.3" y="490.0" font-size="11.0" fill="#898781" text-anchor="middle">07-01</text>
<text x="215.0" y="490.0" font-size="11.0" fill="#898781" text-anchor="middle">07-04</text>
<text x="390.7" y="490.0" font-size="11.0" fill="#898781" text-anchor="middle">07-07</text>
<text x="566.4" y="490.0" font-size="11.0" fill="#898781" text-anchor="middle">07-10</text>
<text x="742.1" y="490.0" font-size="11.0" fill="#898781" text-anchor="middle">07-13</text>
<text x="14.0" y="58.0" font-size="11.0" fill="#c3c2b7">BOLL(20,2)</text>
<text x="84.5" y="58.0" font-size="11.0" fill="#c98500">UP:—</text>
<text x="118.7" y="58.0" font-size="11.0" fill="#3987e5">MID:—</text>
<text x="158.9" y="58.0" font-size="11.0" fill="#d55181">LOW:—</text>
<text x="199.2" y="58.0" font-size="11.0" fill="#9085e9">MA7:836.3</text>
<line x1="10.0" y1="356.0" x2="830.0" y2="356.0" stroke="#2c2c2a" stroke-width="1.0"/>
<text x="14.0" y="353.0" font-size="11.0" fill="#898781">0</text>
<line x1="10.0" y1="239.3" x2="830.0" y2="239.3" stroke="#2c2c2a" stroke-width="1.0"/>
<text x="14.0" y="236.3" font-size="11.0" fill="#898781">500</text>
<line x1="10.0" y1="122.5" x2="830.0" y2="122.5" stroke="#2c2c2a" stroke-width="1.0"/>
<text x="14.0" y="119.5" font-size="11.0" fill="#898781">1,000</text>
<polyline points="390.7,158.2 449.3,166.1 507.9,161.8 566.4,168.6 625.0,163.6 683.6,164.4 742.1,173.3 800.7,160.8" fill="none" stroke="#9085e9" stroke-width="1.5" stroke-linejoin="round" stroke-linecap="round"/>
<rect x="27.3" y="123.9" width="24.0" height="232.1" fill="none" stroke="#e66767" stroke-width="1.3"/>
<rect x="85.9" y="121.8" width="24.0" height="2.1" fill="none" stroke="#e66767" stroke-width="1.3"/>
<rect x="144.4" y="79.8" width="24.0" height="42.0" fill="none" stroke="#e66767" stroke-width="1.3"/>
<rect x="203.0" y="79.8" width="24.0" height="112.5" fill="#008300"/>
<rect x="261.6" y="192.3" width="24.0" height="6.1" fill="#008300"/>
<rect x="320.1" y="145.2" width="24.0" height="53.2" fill="none" stroke="#e66767" stroke-width="1.3"/>
<rect x="378.7" y="145.2" width="24.0" height="100.4" fill="#008300"/>
<rect x="437.3" y="179.5" width="24.0" height="66.1" fill="none" stroke="#e66767" stroke-width="1.3"/>
<rect x="495.9" y="91.5" width="24.0" height="88.0" fill="none" stroke="#e66767" stroke-width="1.3"/>
<rect x="554.4" y="91.5" width="24.0" height="36.2" fill="#008300"/>
<rect x="613.0" y="127.7" width="24.0" height="29.7" fill="#008300"/>
<rect x="671.6" y="157.3" width="24.0" height="46.7" fill="#008300"/>
<rect x="730.1" y="204.0" width="24.0" height="3.7" fill="#008300"/>
<rect x="788.7" y="157.6" width="24.0" height="50.2" fill="none" stroke="#e66767" stroke-width="1.3"/>
<circle cx="156.4" cy="79.8" r="2" fill="#c3c2b7"/>
<line x1="156.4" y1="79.8" x2="164.4" y2="79.8" stroke="#c3c2b7" stroke-width="1.0"/>
<text x="167.4" y="83.8" font-size="11.0" fill="#c3c2b7">1,183</text>
<circle cx="39.3" cy="356.0" r="2" fill="#c3c2b7"/>
<line x1="39.3" y1="356.0" x2="47.3" y2="356.0" stroke="#c3c2b7" stroke-width="1.0"/>
<text x="50.3" y="350.0" font-size="11.0" fill="#c3c2b7">0</text>
<text x="14.0" y="376.0" font-size="11.0" fill="#c3c2b7">VOL 86 forks</text>
<text x="96.6" y="376.0" font-size="11.0" fill="#c98500">MA5:102</text>
<text x="149.0" y="376.0" font-size="11.0" fill="#3987e5">MA10:88.3</text>
<text x="14.0" y="395.0" font-size="10" fill="#898781">179</text>
<rect x="27.3" y="431.5" width="24.0" height="38.5" fill="none" stroke="#e66767" stroke-width="1.1"/>
<rect x="85.9" y="426.0" width="24.0" height="44.0" fill="none" stroke="#e66767" stroke-width="1.1"/>
<rect x="144.4" y="430.1" width="24.0" height="39.9" fill="none" stroke="#e66767" stroke-width="1.1"/>
<rect x="203.0" y="435.2" width="24.0" height="34.8" fill="#008300"/>
<rect x="261.6" y="435.2" width="24.0" height="34.8" fill="#008300"/>
<rect x="320.1" y="426.5" width="24.0" height="43.5" fill="none" stroke="#e66767" stroke-width="1.1"/>
<rect x="378.7" y="451.7" width="24.0" height="18.3" fill="#008300"/>
<rect x="437.3" y="434.7" width="24.0" height="35.3" fill="none" stroke="#e66767" stroke-width="1.1"/>
<rect x="495.9" y="431.1" width="24.0" height="38.9" fill="none" stroke="#e66767" stroke-width="1.1"/>
<rect x="554.4" y="419.6" width="24.0" height="50.4" fill="#008300"/>
<rect x="613.0" y="388.0" width="24.0" height="82.0" fill="#008300"/>
<rect x="671.6" y="440.7" width="24.0" height="29.3" fill="#008300"/>
<rect x="730.1" y="437.5" width="24.0" height="32.5" fill="#008300"/>
<rect x="788.7" y="430.6" width="24.0" height="39.4" fill="none" stroke="#e66767" stroke-width="1.1"/>
<polyline points="566.4,432.2 625.0,427.8 683.6,429.3 742.1,430.0 800.7,429.5" fill="none" stroke="#3987e5" stroke-width="1.5" stroke-linejoin="round" stroke-linecap="round"/>
<polyline points="273.6,431.6 332.1,430.6 390.7,435.7 449.3,436.7 507.9,435.8 566.4,432.7 625.0,425.0 683.6,422.8 742.1,423.4 800.7,423.3" fill="none" stroke="#c98500" stroke-width="1.5" stroke-linejoin="round" stroke-linecap="round"/>
</svg>