<svg xmlns="http://www.w3.org/2000/svg" viewBox="0 0 840 496" width="840" height="496" font-family="-apple-system,&#39;Segoe UI&#39;,system-ui,sans-serif" role="img" aria-label="obra/superpowers candlestick chart">
<text x="14.0" y="20.0" font-size="15" fill="#ffffff" font-weight="650">obra/superpowers</text>
<text x="150.0" y="20.0" font-size="11.5" fill="#c3c2b7">daily · new stars, volume = new forks</text>
<text x="805.8" y="20.0" font-size="11.0" fill="#c3c2b7">fall</text>
<rect x="791" y="10" width="9" height="12" fill="#008300"/>
<text x="750.6" y="20.0" font-size="11.0" fill="#c3c2b7">rise</text>
<rect x="736" y="10" width="9" height="12" fill="none" stroke="#e66767" stroke-width="1.5"/>
<text x="14.0" y="38.0" font-size="11.0" fill="#898781">last 17 days · +13,846 stars · +1,368 forks · updated 2026-07-17</text>
<rect x="10" y="66" width="820" height="290" fill="none" stroke="#2c2c2a"/>
<rect x="10" y="384" width="820" height="86" fill="none" stroke="#2c2c2a"/>
<text x="36.0" y="490.0" font-size="11.0" fill="#898781" text-anchor="middle">07-01</text>
<text x="178.8" y="490.0" font-size="11.0" fill="#898781" text-anchor="middle">07-04</text>
<text x="323.5" y="490.0" font-size="11.0" fill="#898781" text-anchor="middle">07-07</text>
<text x="468.2" y="490.0" font-size="11.0" fill="#898781" text-anchor="middle">07-10</text>
<text x="612.9" y="490.0" font-size="11.0" fill="#898781" text-anchor="middle">07-13</text>
<text x="757.6" y="490.0" font-size="11.0" fill="#898781" text-anchor="middle">07-16</text>
<text x="14.0" y="58.0" font-size="11.0" fill="#c3c2b7">BOLL(20,2)</text>
<text x="84.5" y="58.0" font-size="11.0" fill="#c98500">UP:—</text>
<text x="118.7" y="58.0" font-size="11.0" fill="#3987e5">MID:—</text>
<text x="158.9" y="58.0" font-size="11.0" fill="#d55181">LOW:—</text>
<text x="199.2" y="58.0" font-size="11.0" fill="#9085e9">MA7:721</text>
<line x1="10.0" y1="356.0" x2="830.0" y2="356.0" stroke="#2c2c2a" stroke-width="1.0"/>
<text x="14.0" y="353.0" font-size="11.0" fill="#898781">0</text>
<line x1="10.0" y1="239.3" x2="830.0" y2="239.3" stroke="#2c2c2a" stroke-width="1.0"/>
<text x="14.0" y="236.3" font-size="11.0" fill="#898781">500</text>
<line x1="10.0" y1="122.5" x2="830.0" y2="122.5" stroke="#2c2c2a" stroke-width="1.0"/>
<text x="14.0" y="119.5" font-size="11.0" fill="#898781">1,000</text>
<polyline points="323.5,158.2 371.8,166.1 420.0,161.8 468.2,168.6 516.5,163.6 564.7,164.4 612.9,173.3 661.2,160.8 709.4,159.7 757.6,174.9 805.9,187.7" fill="none" stroke="#9085e9" stroke-width="1.5" stroke-linejoin="round" stroke-linecap="round"/>
<rect x="22.1" y="123.9" width="24.0" height="232.1" fill="none" stroke="#e66767" stroke-width="1.3"/>
<rect x="70.4" y="121.8" width="24.0" height="2.1" fill="none" stroke="#e66767" stroke-width="1.3"/>
<rect x="118.6" y="79.8" width="24.0" height="42.0" fill="none" stroke="#e66767" stroke-width="1.3"/>
<rect x="166.8" y="79.8" width="24.0" height="112.5" fill="#008300"/>
<rect x="215.1" y="192.3" width="24.0" height="6.1" fill="#008300"/>
<rect x="263.3" y="145.2" width="24.0" height="53.2" fill="none" stroke="#e66767" stroke-width="1.3"/>
<rect x="311.5" y="145.2" width="24.0" height="100.4" fill="#008300"/>
<rect x="359.8" y="179.5" width="24.0" height="66.1" fill="none" stroke="#e66767" stroke-width="1.3"/>
<rect x="408.0" y="91.5" width="24.0" height="88.0" fill="none" stroke="#e66767" stroke-width="1.3"/>
<rect x="456.2" y="91.5" width="24.0" height="36.2" fill="#008300"/>
<rect x="504.5" y="127.7" width="24.0" height="29.7" fill="#008300"/>
<rect x="552.7" y="157.3" width="24.0" height="46.7" fill="#008300"/>
<rect x="600.9" y="204.0" width="24.0" height="3.7" fill="#008300"/>
<rect x="649.2" y="157.6" width="24.0" height="50.2" fill="none" stroke="#e66767" stroke-width="1.3"/>
<rect x="697.4" y="157.6" width="24.0" height="14.7" fill="#008300"/>
<rect x="745.6" y="172.3" width="24.0" height="25.2" fill="#008300"/>
<rect x="793.9" y="197.5" width="24.0" height="19.8" fill="#008300"/>
<circle cx="130.6" cy="79.8" r="2" fill="#c3c2b7"/>
<line x1="130.6" y1="79.8" x2="138.6" y2="79.8" stroke="#c3c2b7" stroke-width="1.0"/>
<text x="141.6" y="83.8" font-size="11.0" fill="#c3c2b7">1,183</text>
<circle cx="34.1" cy="356.0" r="2" fill="#c3c2b7"/>
<line x1="34.1" y1="356.0" x2="42.1" y2="356.0" stroke="#c3c2b7" stroke-width="1.0"/>
<text x="45.1" y="350.0" font-size="11.0" fill="#c3c2b7">0</text>
<text x="14.0" y="376.0" font-size="11.0" fill="#c3c2b7">VOL 0 forks</text>
<text x="90.6" y="376.0" font-size="11.0" fill="#c98500">MA5:59.8</text>
<text x="149.0" y="376.0" font-size="11.0" fill="#3987e5">MA10:81.4</text>
<text x="14.0" y="395.0" font-size="10" fill="#898781">179</text>
<rect x="22.1" y="431.5" width="24.0" height="38.5" fill="none" stroke="#e66767" stroke-width="1.1"/>
<rect x="70.4" y="426.0" width="24.0" height="44.0" fill="none" stroke="#e66767" stroke-width="1.1"/>
<rect x="118.6" y="430.1" width="24.0" height="39.9" fill="none" stroke="#e66767" stroke-width="1.1"/>
<rect x="166.8" y="435.2" width="24.0" height="34.8" fill="#008300"/>
<rect x="215.1" y="435.2" width="24.0" height="34.8" fill="#008300"/>
<rect x="263.3" y="426.5" width="24.0" height="43.5" fill="none" stroke="#e66767" stroke-width="1.1"/>
<rect x="311.5" y="451.7" width="24.0" height="18.3" fill="#008300"/>
<rect x="359.8" y="434.7" width="24.0" height="35.3" fill="none" stroke="#e66767" stroke-width="1.1"/>
<rect x="408.0" y="431.1" width="24.0" height="38.9" fill="none" stroke="#e66767" stroke-width="1.1"/>
<rect x="456.2" y="419.6" width="24.0" height="50.4" fill="#008300"/>
<rect x="504.5" y="388.0" width="24.0" height="82.0" fill="#008300"/>
<rect x="552.7" y="440.7" width="24.0" height="29.3" fill="#008300"/>
<rect x="600.9" y="437.5" width="24.0" height="32.5" fill="#008300"/>
<rect x="649.2" y="430.6" width="24.0" height="39.4" fill="none" stroke="#e66767" stroke-width="1.1"/>
<rect x="697.4" y="433.8" width="24.0" height="36.2" fill="#008300"/>
<rect x="745.6" y="441.1" width="24.0" height="28.9" fill="#008300"/>
<polyline points="468.2,432.2 516.5,427.8 564.7,429.3 612.9,430.0 661.2,429.5 709.4,429.4 757.6,430.9 805.9,432.7" fill="none" stroke="#3987e5" stroke-width="1.5" stroke-linejoin="round" stroke-linecap="round"/>
<polyline points="227.1,431.6 275.3,430.6 323.5,435.7 371.8,436.7 420.0,435.8 468.2,432.7 516.5,425.0 564.7,422.8 612.9,423.4 661.2,423.3 709.4,426.1 757.6,436.7 805.9,442.6" fill="none" stroke="#c98500" stroke-width="1.5" stroke-linejoin="round" stroke-linecap="round"/>
</svg>