<svg xmlns="http://www.w3.org/2000/svg" viewBox="0 0 840 496" width="840" height="496" font-family="-apple-system,&#39;Segoe UI&#39;,system-ui,sans-serif" role="img" aria-label="obra/superpowers candlestick chart">
<text x="14.0" y="20.0" font-size="15" fill="#0b0b0b" font-weight="650">obra/superpowers</text>
<text x="150.0" y="20.0" font-size="11.5" fill="#52514e">daily · new stars, volume = new forks</text>
<text x="805.8" y="20.0" font-size="11.0" fill="#52514e">fall</text>
<rect x="791" y="10" width="9" height="12" fill="#008300"/>
<text x="750.6" y="20.0" font-size="11.0" fill="#52514e">rise</text>
<rect x="736" y="10" width="9" height="12" fill="none" stroke="#e34948" stroke-width="1.5"/>
<text x="14.0" y="38.0" font-size="11.0" fill="#898781">last 13 days · +10,936 stars · +1,140 forks · updated 2026-07-13</text>
<rect x="10" y="66" width="820" height="290" fill="none" stroke="#e1e0d9"/>
<rect x="10" y="384" width="820" height="86" fill="none" stroke="#e1e0d9"/>
<text x="41.5" y="490.0" font-size="11.0" fill="#898781" text-anchor="middle">07-01</text>
<text x="230.8" y="490.0" font-size="11.0" fill="#898781" text-anchor="middle">07-04</text>
<text x="420.0" y="490.0" font-size="11.0" fill="#898781" text-anchor="middle">07-07</text>
<text x="609.2" y="490.0" font-size="11.0" fill="#898781" text-anchor="middle">07-10</text>
<text x="798.5" y="490.0" font-size="11.0" fill="#898781" text-anchor="middle">07-13</text>
<text x="14.0" y="58.0" font-size="11.0" fill="#52514e">BOLL(20,2)</text>
<text x="84.5" y="58.0" font-size="11.0" fill="#eda100">UP:—</text>
<text x="118.7" y="58.0" font-size="11.0" fill="#2a78d6">MID:—</text>
<text x="158.9" y="58.0" font-size="11.0" fill="#e87ba4">LOW:—</text>
<text x="199.2" y="58.0" font-size="11.0" fill="#4a3aa7">MA7:782.4</text>
<line x1="10.0" y1="356.0" x2="830.0" y2="356.0" stroke="#e1e0d9" stroke-width="1.0"/>
<text x="14.0" y="353.0" font-size="11.0" fill="#898781">0</text>
<line x1="10.0" y1="239.3" x2="830.0" y2="239.3" stroke="#e1e0d9" stroke-width="1.0"/>
<text x="14.0" y="236.3" font-size="11.0" fill="#898781">500</text>
<line x1="10.0" y1="122.5" x2="830.0" y2="122.5" stroke="#e1e0d9" stroke-width="1.0"/>
<text x="14.0" y="119.5" font-size="11.0" fill="#898781">1,000</text>
<polyline points="420.0,158.2 483.1,166.1 546.2,161.8 609.2,168.6 672.3,163.6 735.4,164.4 798.5,173.3" fill="none" stroke="#4a3aa7" stroke-width="1.5" stroke-linejoin="round" stroke-linecap="round"/>
<rect x="29.5" y="123.9" width="24.0" height="232.1" fill="none" stroke="#e34948" stroke-width="1.3"/>
<rect x="92.6" y="121.8" width="24.0" height="2.1" fill="none" stroke="#e34948" stroke-width="1.3"/>
<rect x="155.7" y="79.8" width="24.0" height="42.0" fill="none" stroke="#e34948" stroke-width="1.3"/>
<rect x="218.8" y="79.8" width="24.0" height="112.5" fill="#008300"/>
<rect x="281.8" y="192.3" width="24.0" height="6.1" fill="#008300"/>
<rect x="344.9" y="145.2" width="24.0" height="53.2" fill="none" stroke="#e34948" stroke-width="1.3"/>
<rect x="408.0" y="145.2" width="24.0" height="100.4" fill="#008300"/>
<rect x="471.1" y="179.5" width="24.0" height="66.1" fill="none" stroke="#e34948" stroke-width="1.3"/>
<rect x="534.2" y="91.5" width="24.0" height="88.0" fill="none" stroke="#e34948" stroke-width="1.3"/>
<rect x="597.2" y="91.5" width="24.0" height="36.2" fill="#008300"/>
<rect x="660.3" y="127.7" width="24.0" height="29.7" fill="#008300"/>
<rect x="723.4" y="157.3" width="24.0" height="46.7" fill="#008300"/>
<rect x="786.5" y="204.0" width="24.0" height="3.7" fill="#008300"/>
<circle cx="167.7" cy="79.8" r="2" fill="#52514e"/>
<line x1="167.7" y1="79.8" x2="175.7" y2="79.8" stroke="#52514e" stroke-width="1.0"/>
<text x="178.7" y="83.8" font-size="11.0" fill="#52514e">1,183</text>
<circle cx="41.5" cy="356.0" r="2" fill="#52514e"/>
<line x1="41.5" y1="356.0" x2="49.5" y2="356.0" stroke="#52514e" stroke-width="1.0"/>
<text x="52.5" y="350.0" font-size="11.0" fill="#52514e">0</text>
<text x="14.0" y="376.0" font-size="11.0" fill="#52514e">VOL 71 forks</text>
<text x="96.6" y="376.0" font-size="11.0" fill="#eda100">MA5:101.8</text>
<text x="161.1" y="376.0" font-size="11.0" fill="#2a78d6">MA10:87.3</text>
<text x="14.0" y="395.0" font-size="10" fill="#898781">179</text>
<rect x="29.5" y="431.5" width="24.0" height="38.5" fill="none" stroke="#e34948" stroke-width="1.1"/>
<rect x="92.6" y="426.0" width="24.0" height="44.0" fill="none" stroke="#e34948" stroke-width="1.1"/>
<rect x="155.7" y="430.1" width="24.0" height="39.9" fill="none" stroke="#e34948" stroke-width="1.1"/>
<rect x="218.8" y="435.2" width="24.0" height="34.8" fill="#008300"/>
<rect x="281.8" y="435.2" width="24.0" height="34.8" fill="#008300"/>
<rect x="344.9" y="426.5" width="24.0" height="43.5" fill="none" stroke="#e34948" stroke-width="1.1"/>
<rect x="408.0" y="451.7" width="24.0" height="18.3" fill="#008300"/>
<rect x="471.1" y="434.7" width="24.0" height="35.3" fill="none" stroke="#e34948" stroke-width="1.1"/>
<rect x="534.2" y="431.1" width="24.0" height="38.9" fill="none" stroke="#e34948" stroke-width="1.1"/>
<rect x="597.2" y="419.6" width="24.0" height="50.4" fill="#008300"/>
<rect x="660.3" y="388.0" width="24.0" height="82.0" fill="#008300"/>
<rect x="723.4" y="440.7" width="24.0" height="29.3" fill="#008300"/>
<rect x="786.5" y="437.5" width="24.0" height="32.5" fill="#008300"/>
<polyline points="609.2,432.2 672.3,427.8 735.4,429.3 798.5,430.0" fill="none" stroke="#2a78d6" stroke-width="1.5" stroke-linejoin="round" stroke-linecap="round"/>
<polyline points="293.8,431.6 356.9,430.6 420.0,435.7 483.1,436.7 546.2,435.8 609.2,432.7 672.3,425.0 735.4,422.8 798.5,423.4" fill="none" stroke="#eda100" stroke-width="1.5" stroke-linejoin="round" stroke-linecap="round"/>
</svg>