<svg xmlns="http://www.w3.org/2000/svg" viewBox="0 0 840 496" width="840" height="496" font-family="-apple-system,&#39;Segoe UI&#39;,system-ui,sans-serif" role="img" aria-label="obra/superpowers candlestick chart">
<text x="14.0" y="20.0" font-size="15" fill="#0b0b0b" font-weight="650">obra/superpowers</text>
<text x="150.0" y="20.0" font-size="11.5" fill="#52514e">daily · new stars, volume = new forks</text>
<text x="805.8" y="20.0" font-size="11.0" fill="#52514e">fall</text>
<rect x="791" y="10" width="9" height="12" fill="#008300"/>
<text x="750.6" y="20.0" font-size="11.0" fill="#52514e">rise</text>
<rect x="736" y="10" width="9" height="12" fill="none" stroke="#e34948" stroke-width="1.5"/>
<text x="14.0" y="38.0" font-size="11.0" fill="#898781">last 18 days · +14,481 stars · +1,427 forks · updated 2026-07-18</text>
<rect x="10" y="66" width="820" height="290" fill="none" stroke="#e1e0d9"/>
<rect x="10" y="384" width="820" height="86" fill="none" stroke="#e1e0d9"/>
<text x="36.0" y="490.0" font-size="11.0" fill="#898781" text-anchor="middle">07-01</text>
<text x="169.4" y="490.0" font-size="11.0" fill="#898781" text-anchor="middle">07-04</text>
<text x="306.1" y="490.0" font-size="11.0" fill="#898781" text-anchor="middle">07-07</text>
<text x="442.8" y="490.0" font-size="11.0" fill="#898781" text-anchor="middle">07-10</text>
<text x="579.4" y="490.0" font-size="11.0" fill="#898781" text-anchor="middle">07-13</text>
<text x="716.1" y="490.0" font-size="11.0" fill="#898781" text-anchor="middle">07-16</text>
<text x="14.0" y="58.0" font-size="11.0" fill="#52514e">BOLL(20,2)</text>
<text x="84.5" y="58.0" font-size="11.0" fill="#eda100">UP:—</text>
<text x="118.7" y="58.0" font-size="11.0" fill="#2a78d6">MID:—</text>
<text x="158.9" y="58.0" font-size="11.0" fill="#e87ba4">LOW:—</text>
<text x="199.2" y="58.0" font-size="11.0" fill="#4a3aa7">MA7:690.1</text>
<line x1="10.0" y1="356.0" x2="830.0" y2="356.0" stroke="#e1e0d9" stroke-width="1.0"/>
<text x="14.0" y="353.0" font-size="11.0" fill="#898781">0</text>
<line x1="10.0" y1="239.3" x2="830.0" y2="239.3" stroke="#e1e0d9" stroke-width="1.0"/>
<text x="14.0" y="236.3" font-size="11.0" fill="#898781">500</text>
<line x1="10.0" y1="122.5" x2="830.0" y2="122.5" stroke="#e1e0d9" stroke-width="1.0"/>
<text x="14.0" y="119.5" font-size="11.0" fill="#898781">1,000</text>
<polyline points="306.1,158.2 351.7,166.1 397.2,161.8 442.8,168.6 488.3,163.6 533.9,164.4 579.4,173.3 625.0,160.8 670.6,159.7 716.1,174.9 761.7,187.7 807.2,194.9" fill="none" stroke="#4a3aa7" stroke-width="1.5" stroke-linejoin="round" stroke-linecap="round"/>
<rect x="20.8" y="123.9" width="24.0" height="232.1" fill="none" stroke="#e34948" stroke-width="1.3"/>
<rect x="66.3" y="121.8" width="24.0" height="2.1" fill="none" stroke="#e34948" stroke-width="1.3"/>
<rect x="111.9" y="79.8" width="24.0" height="42.0" fill="none" stroke="#e34948" stroke-width="1.3"/>
<rect x="157.4" y="79.8" width="24.0" height="112.5" fill="#008300"/>
<rect x="203.0" y="192.3" width="24.0" height="6.1" fill="#008300"/>
<rect x="248.6" y="145.2" width="24.0" height="53.2" fill="none" stroke="#e34948" stroke-width="1.3"/>
<rect x="294.1" y="145.2" width="24.0" height="100.4" fill="#008300"/>
<rect x="339.7" y="179.5" width="24.0" height="66.1" fill="none" stroke="#e34948" stroke-width="1.3"/>
<rect x="385.2" y="91.5" width="24.0" height="88.0" fill="none" stroke="#e34948" stroke-width="1.3"/>
<rect x="430.8" y="91.5" width="24.0" height="36.2" fill="#008300"/>
<rect x="476.3" y="127.7" width="24.0" height="29.7" fill="#008300"/>
<rect x="521.9" y="157.3" width="24.0" height="46.7" fill="#008300"/>
<rect x="567.4" y="204.0" width="24.0" height="3.7" fill="#008300"/>
<rect x="613.0" y="157.6" width="24.0" height="50.2" fill="none" stroke="#e34948" stroke-width="1.3"/>
<rect x="658.6" y="157.6" width="24.0" height="14.7" fill="#008300"/>
<rect x="704.1" y="172.3" width="24.0" height="25.2" fill="#008300"/>
<rect x="749.7" y="197.5" width="24.0" height="19.8" fill="#008300"/>
<rect x="795.2" y="207.7" width="24.0" height="9.6" fill="none" stroke="#e34948" stroke-width="1.3"/>
<circle cx="123.9" cy="79.8" r="2" fill="#52514e"/>
<line x1="123.9" y1="79.8" x2="131.9" y2="79.8" stroke="#52514e" stroke-width="1.0"/>
<text x="134.9" y="83.8" font-size="11.0" fill="#52514e">1,183</text>
<circle cx="32.8" cy="356.0" r="2" fill="#52514e"/>
<line x1="32.8" y1="356.0" x2="40.8" y2="356.0" stroke="#52514e" stroke-width="1.0"/>
<text x="43.8" y="350.0" font-size="11.0" fill="#52514e">0</text>
<text x="14.0" y="376.0" font-size="11.0" fill="#52514e">VOL 59 forks</text>
<text x="96.6" y="376.0" font-size="11.0" fill="#eda100">MA5:57.4</text>
<text x="155.0" y="376.0" font-size="11.0" fill="#2a78d6">MA10:79.6</text>
<text x="14.0" y="395.0" font-size="10" fill="#898781">179</text>
<rect x="20.8" y="431.5" width="24.0" height="38.5" fill="none" stroke="#e34948" stroke-width="1.1"/>
<rect x="66.3" y="426.0" width="24.0" height="44.0" fill="none" stroke="#e34948" stroke-width="1.1"/>
<rect x="111.9" y="430.1" width="24.0" height="39.9" fill="none" stroke="#e34948" stroke-width="1.1"/>
<rect x="157.4" y="435.2" width="24.0" height="34.8" fill="#008300"/>
<rect x="203.0" y="435.2" width="24.0" height="34.8" fill="#008300"/>
<rect x="248.6" y="426.5" width="24.0" height="43.5" fill="none" stroke="#e34948" stroke-width="1.1"/>
<rect x="294.1" y="451.7" width="24.0" height="18.3" fill="#008300"/>
<rect x="339.7" y="434.7" width="24.0" height="35.3" fill="none" stroke="#e34948" stroke-width="1.1"/>
<rect x="385.2" y="431.1" width="24.0" height="38.9" fill="none" stroke="#e34948" stroke-width="1.1"/>
<rect x="430.8" y="419.6" width="24.0" height="50.4" fill="#008300"/>
<rect x="476.3" y="388.0" width="24.0" height="82.0" fill="#008300"/>
<rect x="521.9" y="440.7" width="24.0" height="29.3" fill="#008300"/>
<rect x="567.4" y="437.5" width="24.0" height="32.5" fill="#008300"/>
<rect x="613.0" y="430.6" width="24.0" height="39.4" fill="none" stroke="#e34948" stroke-width="1.1"/>
<rect x="658.6" y="433.8" width="24.0" height="36.2" fill="#008300"/>
<rect x="704.1" y="441.1" width="24.0" height="28.9" fill="#008300"/>
<rect x="795.2" y="443.0" width="24.0" height="27.0" fill="none" stroke="#e34948" stroke-width="1.1"/>
<polyline points="442.8,432.2 488.3,427.8 533.9,429.3 579.4,430.0 625.0,429.5 670.6,429.4 716.1,430.9 761.7,432.7 807.2,433.5" fill="none" stroke="#2a78d6" stroke-width="1.5" stroke-linejoin="round" stroke-linecap="round"/>
<polyline points="215.0,431.6 260.6,430.6 306.1,435.7 351.7,436.7 397.2,435.8 442.8,432.7 488.3,425.0 533.9,422.8 579.4,423.4 625.0,423.3 670.6,426.1 716.1,436.7 761.7,442.6 807.2,443.7" fill="none" stroke="#eda100" stroke-width="1.5" stroke-linejoin="round" stroke-linecap="round"/>
</svg>