<svg xmlns="http://www.w3.org/2000/svg" viewBox="0 0 840 496" width="840" height="496" font-family="-apple-system,&#39;Segoe UI&#39;,system-ui,sans-serif" role="img" aria-label="obra/superpowers candlestick chart">
<text x="14.0" y="20.0" font-size="15" fill="#0b0b0b" font-weight="650">obra/superpowers</text>
<text x="150.0" y="20.0" font-size="11.5" fill="#52514e">daily · new stars, volume = new forks</text>
<text x="805.8" y="20.0" font-size="11.0" fill="#52514e">fall</text>
<rect x="791" y="10" width="9" height="12" fill="#008300"/>
<text x="750.6" y="20.0" font-size="11.0" fill="#52514e">rise</text>
<rect x="736" y="10" width="9" height="12" fill="none" stroke="#e34948" stroke-width="1.5"/>
<text x="14.0" y="38.0" font-size="11.0" fill="#898781">last 15 days · +12,573 stars · +1,305 forks · updated 2026-07-15</text>
<rect x="10" y="66" width="820" height="290" fill="none" stroke="#e1e0d9"/>
<rect x="10" y="384" width="820" height="86" fill="none" stroke="#e1e0d9"/>
<text x="37.3" y="490.0" font-size="11.0" fill="#898781" text-anchor="middle">07-01</text>
<text x="201.3" y="490.0" font-size="11.0" fill="#898781" text-anchor="middle">07-04</text>
<text x="365.3" y="490.0" font-size="11.0" fill="#898781" text-anchor="middle">07-07</text>
<text x="529.3" y="490.0" font-size="11.0" fill="#898781" text-anchor="middle">07-10</text>
<text x="693.3" y="490.0" font-size="11.0" fill="#898781" text-anchor="middle">07-13</text>
<text x="14.0" y="58.0" font-size="11.0" fill="#52514e">BOLL(20,2)</text>
<text x="84.5" y="58.0" font-size="11.0" fill="#eda100">UP:—</text>
<text x="118.7" y="58.0" font-size="11.0" fill="#2a78d6">MID:—</text>
<text x="158.9" y="58.0" font-size="11.0" fill="#e87ba4">LOW:—</text>
<text x="199.2" y="58.0" font-size="11.0" fill="#4a3aa7">MA7:840.7</text>
<line x1="10.0" y1="356.0" x2="830.0" y2="356.0" stroke="#e1e0d9" stroke-width="1.0"/>
<text x="14.0" y="353.0" font-size="11.0" fill="#898781">0</text>
<line x1="10.0" y1="239.3" x2="830.0" y2="239.3" stroke="#e1e0d9" stroke-width="1.0"/>
<text x="14.0" y="236.3" font-size="11.0" fill="#898781">500</text>
<line x1="10.0" y1="122.5" x2="830.0" y2="122.5" stroke="#e1e0d9" stroke-width="1.0"/>
<text x="14.0" y="119.5" font-size="11.0" fill="#898781">1,000</text>
<polyline points="365.3,158.2 420.0,166.1 474.7,161.8 529.3,168.6 584.0,163.6 638.7,164.4 693.3,173.3 748.0,160.8 802.7,159.7" fill="none" stroke="#4a3aa7" stroke-width="1.5" stroke-linejoin="round" stroke-linecap="round"/>
<rect x="25.3" y="123.9" width="24.0" height="232.1" fill="none" stroke="#e34948" stroke-width="1.3"/>
<rect x="80.0" y="121.8" width="24.0" height="2.1" fill="none" stroke="#e34948" stroke-width="1.3"/>
<rect x="134.7" y="79.8" width="24.0" height="42.0" fill="none" stroke="#e34948" stroke-width="1.3"/>
<rect x="189.3" y="79.8" width="24.0" height="112.5" fill="#008300"/>
<rect x="244.0" y="192.3" width="24.0" height="6.1" fill="#008300"/>
<rect x="298.7" y="145.2" width="24.0" height="53.2" fill="none" stroke="#e34948" stroke-width="1.3"/>
<rect x="353.3" y="145.2" width="24.0" height="100.4" fill="#008300"/>
<rect x="408.0" y="179.5" width="24.0" height="66.1" fill="none" stroke="#e34948" stroke-width="1.3"/>
<rect x="462.7" y="91.5" width="24.0" height="88.0" fill="none" stroke="#e34948" stroke-width="1.3"/>
<rect x="517.3" y="91.5" width="24.0" height="36.2" fill="#008300"/>
<rect x="572.0" y="127.7" width="24.0" height="29.7" fill="#008300"/>
<rect x="626.7" y="157.3" width="24.0" height="46.7" fill="#008300"/>
<rect x="681.3" y="204.0" width="24.0" height="3.7" fill="#008300"/>
<rect x="736.0" y="157.6" width="24.0" height="50.2" fill="none" stroke="#e34948" stroke-width="1.3"/>
<rect x="790.7" y="157.6" width="24.0" height="14.7" fill="#008300"/>
<circle cx="146.7" cy="79.8" r="2" fill="#52514e"/>
<line x1="146.7" y1="79.8" x2="154.7" y2="79.8" stroke="#52514e" stroke-width="1.0"/>
<text x="157.7" y="83.8" font-size="11.0" fill="#52514e">1,183</text>
<circle cx="37.3" cy="356.0" r="2" fill="#52514e"/>
<line x1="37.3" y1="356.0" x2="45.3" y2="356.0" stroke="#52514e" stroke-width="1.0"/>
<text x="48.3" y="350.0" font-size="11.0" fill="#52514e">0</text>
<text x="14.0" y="376.0" font-size="11.0" fill="#52514e">VOL 79 forks</text>
<text x="96.6" y="376.0" font-size="11.0" fill="#eda100">MA5:95.8</text>
<text x="155.0" y="376.0" font-size="11.0" fill="#2a78d6">MA10:88.6</text>
<text x="14.0" y="395.0" font-size="10" fill="#898781">179</text>
<rect x="25.3" y="431.5" width="24.0" height="38.5" fill="none" stroke="#e34948" stroke-width="1.1"/>
<rect x="80.0" y="426.0" width="24.0" height="44.0" fill="none" stroke="#e34948" stroke-width="1.1"/>
<rect x="134.7" y="430.1" width="24.0" height="39.9" fill="none" stroke="#e34948" stroke-width="1.1"/>
<rect x="189.3" y="435.2" width="24.0" height="34.8" fill="#008300"/>
<rect x="244.0" y="435.2" width="24.0" height="34.8" fill="#008300"/>
<rect x="298.7" y="426.5" width="24.0" height="43.5" fill="none" stroke="#e34948" stroke-width="1.1"/>
<rect x="353.3" y="451.7" width="24.0" height="18.3" fill="#008300"/>
<rect x="408.0" y="434.7" width="24.0" height="35.3" fill="none" stroke="#e34948" stroke-width="1.1"/>
<rect x="462.7" y="431.1" width="24.0" height="38.9" fill="none" stroke="#e34948" stroke-width="1.1"/>
<rect x="517.3" y="419.6" width="24.0" height="50.4" fill="#008300"/>
<rect x="572.0" y="388.0" width="24.0" height="82.0" fill="#008300"/>
<rect x="626.7" y="440.7" width="24.0" height="29.3" fill="#008300"/>
<rect x="681.3" y="437.5" width="24.0" height="32.5" fill="#008300"/>
<rect x="736.0" y="430.6" width="24.0" height="39.4" fill="none" stroke="#e34948" stroke-width="1.1"/>
<rect x="790.7" y="433.8" width="24.0" height="36.2" fill="#008300"/>
<polyline points="529.3,432.2 584.0,427.8 638.7,429.3 693.3,430.0 748.0,429.5 802.7,429.4" fill="none" stroke="#2a78d6" stroke-width="1.5" stroke-linejoin="round" stroke-linecap="round"/>
<polyline points="256.0,431.6 310.7,430.6 365.3,435.7 420.0,436.7 474.7,435.8 529.3,432.7 584.0,425.0 638.7,422.8 693.3,423.4 748.0,423.3 802.7,426.1" fill="none" stroke="#eda100" stroke-width="1.5" stroke-linejoin="round" stroke-linecap="round"/>
</svg>