<svg xmlns="http://www.w3.org/2000/svg" viewBox="0 0 840 496" width="840" height="496" font-family="-apple-system,&#39;Segoe UI&#39;,system-ui,sans-serif" role="img" aria-label="obra/superpowers candlestick chart">
<text x="14.0" y="20.0" font-size="15" fill="#ffffff" font-weight="650">obra/superpowers</text>
<text x="150.0" y="20.0" font-size="11.5" fill="#c3c2b7">daily · commits, volume = lines changed</text>
<text x="805.8" y="20.0" font-size="11.0" fill="#c3c2b7">fall</text>
<rect x="791" y="10" width="9" height="12" fill="#008300"/>
<text x="750.6" y="20.0" font-size="11.0" fill="#c3c2b7">rise</text>
<rect x="736" y="10" width="9" height="12" fill="none" stroke="#e66767" stroke-width="1.5"/>
<text x="14.0" y="38.0" font-size="11.0" fill="#898781">last 60 active days · 513 commits · 257,885 lines changed · updated 2026-07-07</text>
<rect x="10" y="66" width="820" height="290" fill="none" stroke="#2c2c2a"/>
<rect x="10" y="384" width="820" height="86" fill="none" stroke="#2c2c2a"/>
<text x="38.0" y="490.0" font-size="11.0" fill="#898781" text-anchor="middle">2025-11</text>
<line x1="119.3" y1="66.0" x2="119.3" y2="356.0" stroke="#2c2c2a" stroke-width="1.0"/>
<line x1="119.3" y1="384.0" x2="119.3" y2="470.0" stroke="#2c2c2a" stroke-width="1.0"/>
<text x="126.2" y="490.0" font-size="11.0" fill="#898781" text-anchor="middle">2025-12</text>
<line x1="256.0" y1="66.0" x2="256.0" y2="356.0" stroke="#2c2c2a" stroke-width="1.0"/>
<line x1="256.0" y1="384.0" x2="256.0" y2="470.0" stroke="#2c2c2a" stroke-width="1.0"/>
<text x="262.8" y="490.0" font-size="11.0" fill="#898781" text-anchor="middle">2026-01</text>
<line x1="338.0" y1="66.0" x2="338.0" y2="356.0" stroke="#2c2c2a" stroke-width="1.0"/>
<line x1="338.0" y1="384.0" x2="338.0" y2="470.0" stroke="#2c2c2a" stroke-width="1.0"/>
<text x="344.8" y="490.0" font-size="11.0" fill="#898781" text-anchor="middle">2026-02</text>
<line x1="420.0" y1="66.0" x2="420.0" y2="356.0" stroke="#2c2c2a" stroke-width="1.0"/>
<line x1="420.0" y1="384.0" x2="420.0" y2="470.0" stroke="#2c2c2a" stroke-width="1.0"/>
<text x="426.8" y="490.0" font-size="11.0" fill="#898781" text-anchor="middle">2026-03</text>
<line x1="625.0" y1="66.0" x2="625.0" y2="356.0" stroke="#2c2c2a" stroke-width="1.0"/>
<line x1="625.0" y1="384.0" x2="625.0" y2="470.0" stroke="#2c2c2a" stroke-width="1.0"/>
<text x="631.8" y="490.0" font-size="11.0" fill="#898781" text-anchor="middle">2026-04</text>
<line x1="720.7" y1="66.0" x2="720.7" y2="356.0" stroke="#2c2c2a" stroke-width="1.0"/>
<line x1="720.7" y1="384.0" x2="720.7" y2="470.0" stroke="#2c2c2a" stroke-width="1.0"/>
<text x="727.5" y="490.0" font-size="11.0" fill="#898781" text-anchor="middle">2026-05</text>
<line x1="748.0" y1="66.0" x2="748.0" y2="356.0" stroke="#2c2c2a" stroke-width="1.0"/>
<line x1="748.0" y1="384.0" x2="748.0" y2="470.0" stroke="#2c2c2a" stroke-width="1.0"/>
<line x1="816.3" y1="66.0" x2="816.3" y2="356.0" stroke="#2c2c2a" stroke-width="1.0"/>
<line x1="816.3" y1="384.0" x2="816.3" y2="470.0" stroke="#2c2c2a" stroke-width="1.0"/>
<text x="802.0" y="490.0" font-size="11.0" fill="#898781" text-anchor="middle">2026-07</text>
<text x="14.0" y="58.0" font-size="11.0" fill="#c3c2b7">BOLL(20,2)</text>
<text x="84.5" y="58.0" font-size="11.0" fill="#c98500">UP:79.3</text>
<text x="136.9" y="58.0" font-size="11.0" fill="#3987e5">MID:12.9</text>
<text x="195.3" y="58.0" font-size="11.0" fill="#d55181">LOW:0</text>
<text x="235.5" y="58.0" font-size="11.0" fill="#9085e9">MA7:26.9</text>
<line x1="10.0" y1="356.0" x2="830.0" y2="356.0" stroke="#2c2c2a" stroke-width="1.0"/>
<text x="14.0" y="353.0" font-size="11.0" fill="#898781">0</text>
<line x1="10.0" y1="267.5" x2="830.0" y2="267.5" stroke="#2c2c2a" stroke-width="1.0"/>
<text x="14.0" y="264.5" font-size="11.0" fill="#898781">50</text>
<line x1="10.0" y1="179.0" x2="830.0" y2="179.0" stroke="#2c2c2a" stroke-width="1.0"/>
<text x="14.0" y="176.0" font-size="11.0" fill="#898781">100</text>
<line x1="10.0" y1="90.4" x2="830.0" y2="90.4" stroke="#2c2c2a" stroke-width="1.0"/>
<text x="14.0" y="87.4" font-size="11.0" fill="#898781">150</text>
<polyline points="98.8,307.9 112.5,308.7 126.2,309.1 139.8,321.9 153.5,321.9 167.2,321.9 180.8,323.5 194.5,310.3 208.2,310.5 221.8,310.5 235.5,310.4 249.2,310.4 262.8,310.8 276.5,311.0 290.2,310.5 303.8,310.5 317.5,315.9 331.2,320.3 344.8,320.4 358.5,319.5 372.2,319.5 385.8,319.1 399.5,319.1 413.2,318.8 426.8,318.8 440.5,318.8 454.2,315.9 467.8,333.1 481.5,333.0 495.2,333.1 508.8,325.1 522.5,324.6 536.2,324.5 549.8,322.9 563.5,323.3 577.2,321.8 590.8,322.1 604.5,319.4 618.2,319.2 631.8,319.6 645.5,319.7 659.2,319.3 672.8,319.3 686.5,319.4 700.2,319.4 713.8,319.3 727.5,321.9 741.2,321.8 754.8,321.8 768.5,213.6 782.2,215.4 795.8,215.5 809.5,215.3 823.2,215.7" fill="none" stroke="#c98500" stroke-width="1.5" stroke-linejoin="round" stroke-linecap="round"/>
<polyline points="98.8,340.4 112.5,341.5 126.2,342.2 139.8,345.4 153.5,345.6 167.2,345.9 180.8,346.9 194.5,344.2 208.2,344.8 221.8,344.8 235.5,344.6 249.2,344.5 262.8,345.1 276.5,345.5 290.2,344.8 303.8,344.8 317.5,346.4 331.2,348.1 344.8,348.2 358.5,347.4 372.2,347.6 385.8,347.1 399.5,347.1 413.2,346.6 426.8,346.6 440.5,346.5 454.2,345.1 467.8,348.2 481.5,347.9 495.2,347.8 508.8,346.1 522.5,345.6 536.2,345.1 549.8,344.0 563.5,344.7 577.2,343.5 590.8,343.9 604.5,342.5 618.2,342.2 631.8,342.8 645.5,342.7 659.2,342.5 672.8,342.5 686.5,342.6 700.2,342.6 713.8,342.7 727.5,344.2 741.2,344.3 754.8,344.7 768.5,331.0 782.2,332.8 795.8,333.0 809.5,332.7 823.2,333.1" fill="none" stroke="#3987e5" stroke-width="1.5" stroke-linejoin="round" stroke-linecap="round"/>
<polyline points="98.8,356.0 112.5,356.0 126.2,356.0 139.8,356.0 153.5,356.0 167.2,356.0 180.8,356.0 194.5,356.0 208.2,356.0 221.8,356.0 235.5,356.0 249.2,356.0 262.8,356.0 276.5,356.0 290.2,356.0 303.8,356.0 317.5,356.0 331.2,356.0 344.8,356.0 358.5,356.0 372.2,356.0 385.8,356.0 399.5,356.0 413.2,356.0 426.8,356.0 440.5,356.0 454.2,356.0 467.8,356.0 481.5,356.0 495.2,356.0 508.8,356.0 522.5,356.0 536.2,356.0 549.8,356.0 563.5,356.0 577.2,356.0 590.8,356.0 604.5,356.0 618.2,356.0 631.8,356.0 645.5,356.0 659.2,356.0 672.8,356.0 686.5,356.0 700.2,356.0 713.8,356.0 727.5,356.0 741.2,356.0 754.8,356.0 768.5,356.0 782.2,356.0 795.8,356.0 809.5,356.0 823.2,356.0" fill="none" stroke="#d55181" stroke-width="1.5" stroke-linejoin="round" stroke-linecap="round"/>
<polyline points="16.8,348.9 30.5,350.2 44.2,344.1 57.8,339.4 71.5,338.1 85.2,339.9 98.8,340.6 112.5,340.6 126.2,340.6 139.8,347.0 153.5,351.9 167.2,353.5 180.8,353.2 194.5,344.7 208.2,344.7 221.8,344.8 235.5,343.8 249.2,343.4 262.8,343.4 276.5,343.4 290.2,350.5 303.8,350.5 317.5,348.7 331.2,349.4 344.8,348.7 358.5,346.4 372.2,346.6 385.8,347.1 399.5,347.0 413.2,347.3 426.8,347.7 440.5,348.7 454.2,346.6 467.8,346.4 481.5,347.0 495.2,347.0 508.8,342.4 522.5,340.2 536.2,339.4 549.8,340.2 563.5,340.2 577.2,338.1 590.8,337.6 604.5,339.0 618.2,339.0 631.8,339.9 645.5,342.9 659.2,340.8 672.8,343.8 686.5,343.8 700.2,348.2 713.8,350.2 727.5,350.7 741.2,350.9 754.8,353.2 768.5,314.2 782.2,314.2 795.8,312.8 809.5,310.7 823.2,308.4" fill="none" stroke="#9085e9" stroke-width="1.5" stroke-linejoin="round" stroke-linecap="round"/>
<rect x="13.1" y="354.2" width="7.5" height="1.8" fill="none" stroke="#e66767" stroke-width="1.3"/>
<rect x="26.7" y="352.5" width="7.5" height="3.5" fill="none" stroke="#e66767" stroke-width="1.3"/>
<rect x="40.4" y="310.0" width="7.5" height="46.0" fill="none" stroke="#e66767" stroke-width="1.3"/>
<rect x="54.1" y="310.0" width="7.5" height="8.9" fill="#008300"/>
<rect x="67.7" y="318.8" width="7.5" height="24.8" fill="#008300"/>
<rect x="81.4" y="354.2" width="7.5" height="1.8" fill="none" stroke="#e66767" stroke-width="1.3"/>
<rect x="95.1" y="350.7" width="7.5" height="5.3" fill="none" stroke="#e66767" stroke-width="1.3"/>
<rect x="108.7" y="350.7" width="7.5" height="3.5" fill="#008300"/>
<rect x="122.4" y="352.5" width="7.5" height="1.8" fill="none" stroke="#e66767" stroke-width="1.3"/>
<rect x="136.1" y="352.5" width="7.5" height="1.8" fill="#008300"/>
<rect x="149.7" y="354.2" width="7.5" height="1.2" fill="#898781"/>
<rect x="163.4" y="354.2" width="7.5" height="1.8" fill="none" stroke="#e66767" stroke-width="1.3"/>
<rect x="177.1" y="352.5" width="7.5" height="1.8" fill="none" stroke="#e66767" stroke-width="1.3"/>
<rect x="190.7" y="290.5" width="7.5" height="65.5" fill="none" stroke="#e66767" stroke-width="1.3"/>
<rect x="204.4" y="354.2" width="7.5" height="1.8" fill="none" stroke="#e66767" stroke-width="1.3"/>
<rect x="218.1" y="354.2" width="7.5" height="1.2" fill="#898781"/>
<rect x="231.7" y="347.1" width="7.5" height="7.1" fill="none" stroke="#e66767" stroke-width="1.3"/>
<rect x="245.4" y="350.7" width="7.5" height="5.3" fill="none" stroke="#e66767" stroke-width="1.3"/>
<rect x="259.1" y="354.2" width="7.5" height="1.8" fill="none" stroke="#e66767" stroke-width="1.3"/>
<rect x="272.7" y="352.5" width="7.5" height="3.5" fill="none" stroke="#e66767" stroke-width="1.3"/>
<rect x="286.4" y="340.1" width="7.5" height="15.9" fill="none" stroke="#e66767" stroke-width="1.3"/>
<rect x="300.1" y="354.2" width="7.5" height="1.8" fill="none" stroke="#e66767" stroke-width="1.3"/>
<rect x="313.7" y="341.8" width="7.5" height="14.2" fill="none" stroke="#e66767" stroke-width="1.3"/>
<rect x="327.4" y="341.8" width="7.5" height="10.6" fill="#008300"/>
<rect x="341.1" y="345.4" width="7.5" height="10.6" fill="none" stroke="#e66767" stroke-width="1.3"/>
<rect x="354.7" y="338.3" width="7.5" height="7.1" fill="none" stroke="#e66767" stroke-width="1.3"/>
<rect x="368.4" y="354.2" width="7.5" height="1.8" fill="none" stroke="#e66767" stroke-width="1.3"/>
<rect x="382.1" y="343.6" width="7.5" height="10.6" fill="none" stroke="#e66767" stroke-width="1.3"/>
<rect x="395.7" y="352.5" width="7.5" height="3.5" fill="none" stroke="#e66767" stroke-width="1.3"/>
<rect x="409.4" y="345.4" width="7.5" height="10.6" fill="none" stroke="#e66767" stroke-width="1.3"/>
<rect x="423.1" y="354.2" width="7.5" height="1.8" fill="none" stroke="#e66767" stroke-width="1.3"/>
<rect x="436.7" y="352.5" width="7.5" height="3.5" fill="none" stroke="#e66767" stroke-width="1.3"/>
<rect x="450.4" y="324.1" width="7.5" height="31.9" fill="none" stroke="#e66767" stroke-width="1.3"/>
<rect x="464.1" y="324.1" width="7.5" height="28.3" fill="#008300"/>
<rect x="477.7" y="347.1" width="7.5" height="5.3" fill="none" stroke="#e66767" stroke-width="1.3"/>
<rect x="491.4" y="347.1" width="7.5" height="5.3" fill="#008300"/>
<rect x="505.1" y="313.5" width="7.5" height="38.9" fill="none" stroke="#e66767" stroke-width="1.3"/>
<rect x="518.7" y="313.5" width="7.5" height="26.6" fill="#008300"/>
<rect x="532.4" y="340.1" width="7.5" height="5.3" fill="#008300"/>
<rect x="546.1" y="331.2" width="7.5" height="24.8" fill="none" stroke="#e66767" stroke-width="1.3"/>
<rect x="559.7" y="331.2" width="7.5" height="21.2" fill="#008300"/>
<rect x="573.4" y="331.2" width="7.5" height="21.2" fill="none" stroke="#e66767" stroke-width="1.3"/>
<rect x="587.1" y="348.9" width="7.5" height="7.1" fill="none" stroke="#e66767" stroke-width="1.3"/>
<rect x="600.7" y="324.1" width="7.5" height="31.9" fill="none" stroke="#e66767" stroke-width="1.3"/>
<rect x="614.4" y="340.1" width="7.5" height="15.9" fill="none" stroke="#e66767" stroke-width="1.3"/>
<rect x="628.1" y="350.7" width="7.5" height="5.3" fill="none" stroke="#e66767" stroke-width="1.3"/>
<rect x="641.7" y="352.5" width="7.5" height="3.5" fill="none" stroke="#e66767" stroke-width="1.3"/>
<rect x="655.4" y="338.3" width="7.5" height="17.7" fill="none" stroke="#e66767" stroke-width="1.3"/>
<rect x="669.1" y="338.3" width="7.5" height="14.2" fill="#008300"/>
<rect x="682.7" y="348.9" width="7.5" height="3.5" fill="none" stroke="#e66767" stroke-width="1.3"/>
<rect x="696.4" y="354.2" width="7.5" height="1.8" fill="none" stroke="#e66767" stroke-width="1.3"/>
<rect x="710.1" y="354.2" width="7.5" height="1.8" fill="none" stroke="#e66767" stroke-width="1.3"/>
<rect x="723.7" y="354.2" width="7.5" height="1.8" fill="none" stroke="#e66767" stroke-width="1.3"/>
<rect x="737.4" y="354.2" width="7.5" height="1.8" fill="none" stroke="#e66767" stroke-width="1.3"/>
<rect x="751.1" y="354.2" width="7.5" height="1.8" fill="none" stroke="#e66767" stroke-width="1.3"/>
<rect x="764.7" y="79.8" width="7.5" height="274.4" fill="none" stroke="#e66767" stroke-width="1.3"/>
<rect x="778.4" y="79.8" width="7.5" height="269.1" fill="#008300"/>
<rect x="792.1" y="343.6" width="7.5" height="5.3" fill="none" stroke="#e66767" stroke-width="1.3"/>
<rect x="805.7" y="340.1" width="7.5" height="15.9" fill="none" stroke="#e66767" stroke-width="1.3"/>
<rect x="819.4" y="338.3" width="7.5" height="17.7" fill="none" stroke="#e66767" stroke-width="1.3"/>
<circle cx="768.5" cy="79.8" r="2" fill="#c3c2b7"/>
<line x1="768.5" y1="79.8" x2="760.5" y2="79.8" stroke="#c3c2b7" stroke-width="1.0"/>
<text x="757.5" y="83.8" font-size="11.0" fill="#c3c2b7" text-anchor="end">156</text>
<circle cx="16.8" cy="356.0" r="2" fill="#c3c2b7"/>
<line x1="16.8" y1="356.0" x2="24.8" y2="356.0" stroke="#c3c2b7" stroke-width="1.0"/>
<text x="27.8" y="350.0" font-size="11.0" fill="#c3c2b7">0</text>
<text x="14.0" y="376.0" font-size="11.0" fill="#c3c2b7">VOL 898 lines</text>
<text x="102.6" y="376.0" font-size="11.0" fill="#c98500">MA5:9,358.8</text>
<text x="179.2" y="376.0" font-size="11.0" fill="#3987e5">MA10:5,124.6</text>
<text x="14.0" y="395.0" font-size="10" fill="#898781">88,583</text>
<rect x="40.4" y="468.8" width="7.5" height="1.2" fill="none" stroke="#e66767" stroke-width="1.1"/>
<rect x="54.1" y="466.8" width="7.5" height="3.2" fill="#008300"/>
<rect x="190.7" y="465.2" width="7.5" height="4.8" fill="none" stroke="#e66767" stroke-width="1.1"/>
<rect x="245.4" y="468.6" width="7.5" height="1.4" fill="none" stroke="#e66767" stroke-width="1.1"/>
<rect x="286.4" y="468.6" width="7.5" height="1.4" fill="none" stroke="#e66767" stroke-width="1.1"/>
<rect x="354.7" y="469.0" width="7.5" height="1.0" fill="none" stroke="#e66767" stroke-width="1.1"/>
<rect x="450.4" y="465.8" width="7.5" height="4.2" fill="none" stroke="#e66767" stroke-width="1.1"/>
<rect x="491.4" y="465.7" width="7.5" height="4.3" fill="#008300"/>
<rect x="505.1" y="388.0" width="7.5" height="82.0" fill="none" stroke="#e66767" stroke-width="1.1"/>
<rect x="518.7" y="389.7" width="7.5" height="80.3" fill="#008300"/>
<rect x="546.1" y="469.5" width="7.5" height="0.5" fill="none" stroke="#e66767" stroke-width="1.1"/>
<rect x="573.4" y="468.1" width="7.5" height="1.9" fill="none" stroke="#e66767" stroke-width="1.1"/>
<rect x="600.7" y="468.7" width="7.5" height="1.3" fill="none" stroke="#e66767" stroke-width="1.1"/>
<rect x="614.4" y="469.5" width="7.5" height="0.5" fill="none" stroke="#e66767" stroke-width="1.1"/>
<rect x="655.4" y="469.0" width="7.5" height="1.0" fill="none" stroke="#e66767" stroke-width="1.1"/>
<rect x="696.4" y="469.2" width="7.5" height="0.8" fill="none" stroke="#e66767" stroke-width="1.1"/>
<rect x="723.7" y="466.8" width="7.5" height="3.2" fill="none" stroke="#e66767" stroke-width="1.1"/>
<rect x="764.7" y="428.4" width="7.5" height="41.6" fill="none" stroke="#e66767" stroke-width="1.1"/>
<rect x="805.7" y="469.5" width="7.5" height="0.5" fill="none" stroke="#e66767" stroke-width="1.1"/>
<rect x="819.4" y="469.2" width="7.5" height="0.8" fill="none" stroke="#e66767" stroke-width="1.1"/>
<polyline points="16.8,469.2 30.5,469.2 44.2,469.6 57.8,469.4 71.5,469.4 85.2,469.4 98.8,469.4 112.5,469.4 126.2,469.5 139.8,469.5 153.5,469.5 167.2,469.5 180.8,469.6 194.5,469.5 208.2,469.5 221.8,469.5 235.5,469.5 249.2,469.3 262.8,469.4 276.5,469.4 290.2,469.2 303.8,469.2 317.5,469.2 331.2,469.7 344.8,469.7 358.5,469.6 372.2,469.6 385.8,469.7 399.5,469.7 413.2,469.7 426.8,469.8 440.5,469.8 454.2,469.4 467.8,469.4 481.5,469.4 495.2,469.1 508.8,460.9 522.5,452.9 536.2,452.9 549.8,452.8 563.5,452.8 577.2,452.6 590.8,453.0 604.5,452.9 618.2,452.9 631.8,453.3 645.5,461.5 659.2,469.4 672.8,469.4 686.5,469.5 700.2,469.4 713.8,469.6 727.5,469.3 741.2,469.4 754.8,469.5 768.5,465.3 782.2,465.3 795.8,465.4 809.5,465.3 823.2,465.3" fill="none" stroke="#3987e5" stroke-width="1.5" stroke-linejoin="round" stroke-linecap="round"/>
<polyline points="16.8,469.8 30.5,469.8 44.2,469.6 57.8,469.1 71.5,469.1 85.2,469.1 98.8,469.1 112.5,469.3 126.2,469.9 139.8,469.9 153.5,469.9 167.2,469.9 180.8,469.9 194.5,469.0 208.2,469.0 221.8,469.0 235.5,469.0 249.2,468.7 262.8,469.7 276.5,469.7 290.2,469.4 303.8,469.4 317.5,469.7 331.2,469.7 344.8,469.7 358.5,469.8 372.2,469.8 385.8,469.7 399.5,469.7 413.2,469.7 426.8,469.9 440.5,469.9 454.2,469.1 467.8,469.1 481.5,469.1 495.2,468.3 508.8,451.9 522.5,436.7 536.2,436.6 549.8,436.6 563.5,437.4 577.2,453.4 590.8,469.4 604.5,469.2 618.2,469.2 631.8,469.2 645.5,469.6 659.2,469.4 672.8,469.7 686.5,469.8 700.2,469.6 713.8,469.6 727.5,469.2 741.2,469.2 754.8,469.2 768.5,461.0 782.2,461.0 795.8,461.6 809.5,461.5 823.2,461.3" fill="none" stroke="#c98500" stroke-width="1.5" stroke-linejoin="round" stroke-linecap="round"/>
</svg>