<svg xmlns="http://www.w3.org/2000/svg" viewBox="0 0 840 496" width="840" height="496" font-family="-apple-system,&#39;Segoe UI&#39;,system-ui,sans-serif" role="img" aria-label="obra/superpowers candlestick chart">
<text x="14.0" y="20.0" font-size="15" fill="#0b0b0b" font-weight="650">obra/superpowers</text>
<text x="150.0" y="20.0" font-size="11.5" fill="#52514e">daily · new stars, volume = new forks</text>
<text x="805.8" y="20.0" font-size="11.0" fill="#52514e">fall</text>
<rect x="791" y="10" width="9" height="12" fill="#008300"/>
<text x="750.6" y="20.0" font-size="11.0" fill="#52514e">rise</text>
<rect x="736" y="10" width="9" height="12" fill="none" stroke="#e34948" stroke-width="1.5"/>
<text x="14.0" y="38.0" font-size="11.0" fill="#898781">last 21 days · +16,034 stars · +1,584 forks · updated 2026-07-21</text>
<rect x="10" y="66" width="820" height="290" fill="none" stroke="#e1e0d9"/>
<rect x="10" y="384" width="820" height="86" fill="none" stroke="#e1e0d9"/>
<text x="36.0" y="490.0" font-size="11.0" fill="#898781" text-anchor="middle">07-01</text>
<text x="185.7" y="490.0" font-size="11.0" fill="#898781" text-anchor="middle">07-05</text>
<text x="341.9" y="490.0" font-size="11.0" fill="#898781" text-anchor="middle">07-09</text>
<text x="498.1" y="490.0" font-size="11.0" fill="#898781" text-anchor="middle">07-13</text>
<text x="654.3" y="490.0" font-size="11.0" fill="#898781" text-anchor="middle">07-17</text>
<text x="804.0" y="490.0" font-size="11.0" fill="#898781" text-anchor="middle">07-21</text>
<text x="14.0" y="58.0" font-size="11.0" fill="#52514e">BOLL(20,2)</text>
<text x="84.5" y="58.0" font-size="11.0" fill="#eda100">UP:1,156.6</text>
<text x="155.0" y="58.0" font-size="11.0" fill="#2a78d6">MID:752</text>
<text x="207.4" y="58.0" font-size="11.0" fill="#e87ba4">LOW:347.4</text>
<text x="271.8" y="58.0" font-size="11.0" fill="#4a3aa7">MA7:606.9</text>
<line x1="10.0" y1="356.0" x2="830.0" y2="356.0" stroke="#e1e0d9" stroke-width="1.0"/>
<text x="14.0" y="353.0" font-size="11.0" fill="#898781">0</text>
<line x1="10.0" y1="239.3" x2="830.0" y2="239.3" stroke="#e1e0d9" stroke-width="1.0"/>
<text x="14.0" y="236.3" font-size="11.0" fill="#898781">500</text>
<line x1="10.0" y1="122.6" x2="830.0" y2="122.6" stroke="#e1e0d9" stroke-width="1.0"/>
<text x="14.0" y="119.6" font-size="11.0" fill="#898781">1,000</text>
<polyline points="771.4,79.8 810.5,86.0" fill="none" stroke="#eda100" stroke-width="1.5" stroke-linejoin="round" stroke-linecap="round"/>
<polyline points="771.4,175.9 810.5,180.4" fill="none" stroke="#2a78d6" stroke-width="1.5" stroke-linejoin="round" stroke-linecap="round"/>
<polyline points="771.4,271.9 810.5,274.9" fill="none" stroke="#e87ba4" stroke-width="1.5" stroke-linejoin="round" stroke-linecap="round"/>
<polyline points="263.8,158.2 302.9,166.1 341.9,161.8 381.0,168.6 420.0,163.6 459.0,164.4 498.1,173.4 537.1,160.8 576.2,159.7 615.2,174.9 654.3,187.7 693.3,194.9 732.4,201.5 771.4,206.0 810.5,214.3" fill="none" stroke="#4a3aa7" stroke-width="1.5" stroke-linejoin="round" stroke-linecap="round"/>
<rect x="18.8" y="124.0" width="21.5" height="232.0" fill="none" stroke="#e34948" stroke-width="1.3"/>
<rect x="57.8" y="121.9" width="21.5" height="2.1" fill="none" stroke="#e34948" stroke-width="1.3"/>
<rect x="96.9" y="79.8" width="21.5" height="42.0" fill="none" stroke="#e34948" stroke-width="1.3"/>
<rect x="135.9" y="79.8" width="21.5" height="112.5" fill="#008300"/>
<rect x="175.0" y="192.4" width="21.5" height="6.1" fill="#008300"/>
<rect x="214.0" y="145.2" width="21.5" height="53.2" fill="none" stroke="#e34948" stroke-width="1.3"/>
<rect x="253.1" y="145.2" width="21.5" height="100.4" fill="#008300"/>
<rect x="292.1" y="179.5" width="21.5" height="66.1" fill="none" stroke="#e34948" stroke-width="1.3"/>
<rect x="331.2" y="91.5" width="21.5" height="88.0" fill="none" stroke="#e34948" stroke-width="1.3"/>
<rect x="370.2" y="91.5" width="21.5" height="36.2" fill="#008300"/>
<rect x="409.3" y="127.7" width="21.5" height="29.6" fill="#008300"/>
<rect x="448.3" y="157.3" width="21.5" height="46.7" fill="#008300"/>
<rect x="487.4" y="204.0" width="21.5" height="3.7" fill="#008300"/>
<rect x="526.4" y="157.6" width="21.5" height="50.2" fill="none" stroke="#e34948" stroke-width="1.3"/>
<rect x="565.5" y="157.6" width="21.5" height="14.7" fill="#008300"/>
<rect x="604.5" y="172.3" width="21.5" height="25.2" fill="#008300"/>
<rect x="643.5" y="197.5" width="21.5" height="19.8" fill="#008300"/>
<rect x="682.6" y="207.8" width="21.5" height="9.6" fill="none" stroke="#e34948" stroke-width="1.3"/>
<rect x="721.6" y="207.8" width="21.5" height="42.3" fill="#008300"/>
<rect x="760.7" y="239.5" width="21.5" height="10.5" fill="none" stroke="#e34948" stroke-width="1.3"/>
<rect x="799.7" y="215.9" width="21.5" height="23.6" fill="none" stroke="#e34948" stroke-width="1.3"/>
<circle cx="107.6" cy="79.8" r="2" fill="#52514e"/>
<line x1="107.6" y1="79.8" x2="115.6" y2="79.8" stroke="#52514e" stroke-width="1.0"/>
<text x="118.6" y="83.8" font-size="11.0" fill="#52514e">1,183</text>
<circle cx="29.5" cy="356.0" r="2" fill="#52514e"/>
<line x1="29.5" y1="356.0" x2="37.5" y2="356.0" stroke="#52514e" stroke-width="1.0"/>
<text x="40.5" y="350.0" font-size="11.0" fill="#52514e">0</text>
<text x="14.0" y="376.0" font-size="11.0" fill="#52514e">VOL 62 forks</text>
<text x="96.6" y="376.0" font-size="11.0" fill="#eda100">MA5:43.2</text>
<text x="155.0" y="376.0" font-size="11.0" fill="#2a78d6">MA10:57.9</text>
<text x="14.0" y="395.0" font-size="10" fill="#898781">179</text>
<rect x="18.8" y="431.5" width="21.5" height="38.5" fill="none" stroke="#e34948" stroke-width="1.1"/>
<rect x="57.8" y="426.0" width="21.5" height="44.0" fill="none" stroke="#e34948" stroke-width="1.1"/>
<rect x="96.9" y="430.1" width="21.5" height="39.9" fill="none" stroke="#e34948" stroke-width="1.1"/>
<rect x="135.9" y="435.2" width="21.5" height="34.8" fill="#008300"/>
<rect x="175.0" y="435.2" width="21.5" height="34.8" fill="#008300"/>
<rect x="214.0" y="426.5" width="21.5" height="43.5" fill="none" stroke="#e34948" stroke-width="1.1"/>
<rect x="253.1" y="451.7" width="21.5" height="18.3" fill="#008300"/>
<rect x="292.1" y="434.7" width="21.5" height="35.3" fill="none" stroke="#e34948" stroke-width="1.1"/>
<rect x="331.2" y="431.1" width="21.5" height="38.9" fill="none" stroke="#e34948" stroke-width="1.1"/>
<rect x="370.2" y="419.6" width="21.5" height="50.4" fill="#008300"/>
<rect x="409.3" y="388.0" width="21.5" height="82.0" fill="#008300"/>
<rect x="448.3" y="440.7" width="21.5" height="29.3" fill="#008300"/>
<rect x="487.4" y="437.5" width="21.5" height="32.5" fill="#008300"/>
<rect x="526.4" y="430.6" width="21.5" height="39.4" fill="none" stroke="#e34948" stroke-width="1.1"/>
<rect x="565.5" y="433.8" width="21.5" height="36.2" fill="#008300"/>
<rect x="604.5" y="441.1" width="21.5" height="28.9" fill="#008300"/>
<rect x="682.6" y="443.0" width="21.5" height="27.0" fill="none" stroke="#e34948" stroke-width="1.1"/>
<rect x="721.6" y="444.8" width="21.5" height="25.2" fill="#008300"/>
<rect x="760.7" y="451.7" width="21.5" height="18.3" fill="none" stroke="#e34948" stroke-width="1.1"/>
<rect x="799.7" y="441.6" width="21.5" height="28.4" fill="none" stroke="#e34948" stroke-width="1.1"/>
<polyline points="381.0,432.2 420.0,427.8 459.0,429.3 498.1,430.0 537.1,429.5 576.2,429.4 615.2,430.9 654.3,432.7 693.3,433.5 732.4,434.9 771.4,438.1 810.5,443.5" fill="none" stroke="#2a78d6" stroke-width="1.5" stroke-linejoin="round" stroke-linecap="round"/>
<polyline points="185.7,431.6 224.8,430.6 263.8,435.7 302.9,436.7 341.9,435.8 381.0,432.7 420.0,425.0 459.0,422.8 498.1,423.4 537.1,423.3 576.2,426.1 615.2,436.7 654.3,442.6 693.3,443.7 732.4,446.5 771.4,450.1 810.5,450.2" fill="none" stroke="#eda100" stroke-width="1.5" stroke-linejoin="round" stroke-linecap="round"/>
</svg>