<svg xmlns="http://www.w3.org/2000/svg" viewBox="0 0 840 496" width="840" height="496" font-family="-apple-system,&#39;Segoe UI&#39;,system-ui,sans-serif" role="img" aria-label="torvalds/linux candlestick chart">
<text x="14.0" y="20.0" font-size="15" fill="#0b0b0b" font-weight="650">torvalds/linux</text>
<text x="133.5" y="20.0" font-size="11.5" fill="#52514e">daily · new stars, volume = new forks</text>
<text x="805.8" y="20.0" font-size="11.0" fill="#52514e">fall</text>
<rect x="791" y="10" width="9" height="12" fill="#008300"/>
<text x="750.6" y="20.0" font-size="11.0" fill="#52514e">rise</text>
<rect x="736" y="10" width="9" height="12" fill="none" stroke="#e34948" stroke-width="1.5"/>
<text x="14.0" y="38.0" font-size="11.0" fill="#898781">last 58 days · +6,602 stars · +1,412 forks · updated 2026-07-13</text>
<rect x="10" y="66" width="820" height="290" fill="none" stroke="#e1e0d9"/>
<rect x="10" y="384" width="820" height="86" fill="none" stroke="#e1e0d9"/>
<text x="38.0" y="490.0" font-size="11.0" fill="#898781" text-anchor="middle">2026-05</text>
<line x1="222.1" y1="66.0" x2="222.1" y2="356.0" stroke="#e1e0d9" stroke-width="1.0"/>
<line x1="222.1" y1="384.0" x2="222.1" y2="470.0" stroke="#e1e0d9" stroke-width="1.0"/>
<text x="229.1" y="490.0" font-size="11.0" fill="#898781" text-anchor="middle">2026-06</text>
<line x1="646.2" y1="66.0" x2="646.2" y2="356.0" stroke="#e1e0d9" stroke-width="1.0"/>
<line x1="646.2" y1="384.0" x2="646.2" y2="470.0" stroke="#e1e0d9" stroke-width="1.0"/>
<text x="653.3" y="490.0" font-size="11.0" fill="#898781" text-anchor="middle">2026-07</text>
<text x="14.0" y="58.0" font-size="11.0" fill="#52514e">BOLL(20,2)</text>
<text x="84.5" y="58.0" font-size="11.0" fill="#eda100">UP:185.8</text>
<text x="142.9" y="58.0" font-size="11.0" fill="#2a78d6">MID:114.7</text>
<text x="207.4" y="58.0" font-size="11.0" fill="#e87ba4">LOW:43.6</text>
<text x="265.8" y="58.0" font-size="11.0" fill="#4a3aa7">MA7:98.3</text>
<line x1="10.0" y1="356.0" x2="830.0" y2="356.0" stroke="#e1e0d9" stroke-width="1.0"/>
<text x="14.0" y="353.0" font-size="11.0" fill="#898781">0</text>
<line x1="10.0" y1="281.7" x2="830.0" y2="281.7" stroke="#e1e0d9" stroke-width="1.0"/>
<text x="14.0" y="278.7" font-size="11.0" fill="#898781">50</text>
<line x1="10.0" y1="207.4" x2="830.0" y2="207.4" stroke="#e1e0d9" stroke-width="1.0"/>
<text x="14.0" y="204.4" font-size="11.0" fill="#898781">100</text>
<line x1="10.0" y1="133.0" x2="830.0" y2="133.0" stroke="#e1e0d9" stroke-width="1.0"/>
<text x="14.0" y="130.0" font-size="11.0" fill="#898781">150</text>
<polyline points="285.7,141.9 299.8,140.0 314.0,139.6 328.1,144.8 342.2,148.5 356.4,155.2 370.5,154.4 384.7,154.7 398.8,155.3 412.9,156.0 427.1,157.2 441.2,153.5 455.3,146.1 469.5,142.5 483.6,142.5 497.8,140.1 511.9,140.1 526.0,140.0 540.2,140.5 554.3,140.6 568.4,140.6 582.6,142.4 596.7,142.3 610.9,142.5 625.0,142.3 639.1,138.6 653.3,139.9 667.4,132.3 681.6,113.6 695.7,112.2 709.8,108.1 724.0,108.3 738.1,98.9 752.2,101.8 766.4,101.9 780.5,99.7 794.7,82.8 808.8,82.8 822.9,79.8" fill="none" stroke="#eda100" stroke-width="1.5" stroke-linejoin="round" stroke-linecap="round"/>
<polyline points="285.7,184.4 299.8,186.8 314.0,186.2 328.1,188.0 342.2,190.1 356.4,191.8 370.5,191.5 384.7,190.7 398.8,191.6 412.9,192.9 427.1,193.3 441.2,192.2 455.3,188.6 469.5,187.4 483.6,187.4 497.8,188.6 511.9,188.4 526.0,188.1 540.2,188.9 554.3,189.4 568.4,189.4 582.6,188.1 596.7,189.8 610.9,191.5 625.0,191.0 639.1,189.7 653.3,191.0 667.4,188.1 681.6,182.6 695.7,180.4 709.8,178.6 724.0,178.7 738.1,186.9 752.2,191.1 766.4,192.1 780.5,188.4 794.7,182.2 808.8,182.2 822.9,185.5" fill="none" stroke="#2a78d6" stroke-width="1.5" stroke-linejoin="round" stroke-linecap="round"/>
<polyline points="285.7,226.9 299.8,233.6 314.0,232.8 328.1,231.2 342.2,231.6 356.4,228.5 370.5,228.6 384.7,226.7 398.8,227.9 412.9,229.9 427.1,229.4 441.2,230.9 455.3,231.0 469.5,232.2 483.6,232.2 497.8,237.1 511.9,236.7 526.0,236.2 540.2,237.2 554.3,238.2 568.4,238.2 582.6,233.9 596.7,237.3 610.9,240.4 625.0,239.7 639.1,240.7 653.3,242.1 667.4,243.9 681.6,251.6 695.7,248.5 709.8,249.1 724.0,249.1 738.1,274.8 752.2,280.4 766.4,282.2 780.5,277.1 794.7,281.7 808.8,281.7 822.9,291.2" fill="none" stroke="#e87ba4" stroke-width="1.5" stroke-linejoin="round" stroke-linecap="round"/>
<polyline points="101.9,175.7 116.0,176.2 130.2,174.2 144.3,177.0 158.4,180.2 172.6,190.1 186.7,189.1 200.9,187.6 215.0,191.5 229.1,195.0 243.3,199.5 257.4,199.9 271.6,196.8 285.7,192.4 299.8,196.4 314.0,192.5 328.1,188.9 342.2,189.4 356.4,188.9 370.5,186.6 384.7,193.8 398.8,190.0 412.9,193.5 427.1,192.4 441.2,186.4 455.3,180.8 469.5,177.5 483.6,178.1 497.8,182.7 511.9,182.1 526.0,184.6 540.2,190.4 554.3,199.0 568.4,198.0 582.6,198.4 596.7,195.9 610.9,197.6 625.0,197.6 639.1,191.2 653.3,191.2 667.4,190.1 681.6,174.2 695.7,166.8 709.8,155.5 724.0,151.0 738.1,172.7 752.2,177.6 766.4,189.4 780.5,199.3 794.7,187.4 808.8,195.0 822.9,209.9" fill="none" stroke="#4a3aa7" stroke-width="1.5" stroke-linejoin="round" stroke-linecap="round"/>
<rect x="13.2" y="182.1" width="7.8" height="173.9" fill="none" stroke="#e34948" stroke-width="1.3"/>
<rect x="27.3" y="182.1" width="7.8" height="14.9" fill="#008300"/>
<rect x="41.5" y="147.9" width="7.8" height="49.0" fill="none" stroke="#e34948" stroke-width="1.3"/>
<rect x="55.6" y="147.9" width="7.8" height="11.9" fill="#008300"/>
<rect x="69.7" y="146.4" width="7.8" height="13.4" fill="none" stroke="#e34948" stroke-width="1.3"/>
<rect x="83.9" y="146.4" width="7.8" height="38.6" fill="#008300"/>
<rect x="98.0" y="185.1" width="7.8" height="26.8" fill="#008300"/>
<rect x="112.1" y="185.1" width="7.8" height="26.8" fill="none" stroke="#e34948" stroke-width="1.3"/>
<rect x="126.3" y="183.6" width="7.8" height="1.5" fill="none" stroke="#e34948" stroke-width="1.3"/>
<rect x="140.4" y="167.2" width="7.8" height="16.3" fill="none" stroke="#e34948" stroke-width="1.3"/>
<rect x="154.6" y="167.2" width="7.8" height="14.9" fill="#008300"/>
<rect x="168.7" y="182.1" width="7.8" height="34.2" fill="#008300"/>
<rect x="182.8" y="177.6" width="7.8" height="38.6" fill="none" stroke="#e34948" stroke-width="1.3"/>
<rect x="197.0" y="177.6" width="7.8" height="23.8" fill="#008300"/>
<rect x="211.1" y="201.4" width="7.8" height="10.4" fill="#008300"/>
<rect x="225.2" y="208.9" width="7.8" height="3.0" fill="none" stroke="#e34948" stroke-width="1.3"/>
<rect x="239.4" y="198.4" width="7.8" height="10.4" fill="none" stroke="#e34948" stroke-width="1.3"/>
<rect x="253.5" y="185.1" width="7.8" height="13.4" fill="none" stroke="#e34948" stroke-width="1.3"/>
<rect x="267.7" y="185.1" width="7.8" height="8.9" fill="#008300"/>
<rect x="281.8" y="146.4" width="7.8" height="47.6" fill="none" stroke="#e34948" stroke-width="1.3"/>
<rect x="295.9" y="146.4" width="7.8" height="83.2" fill="#008300"/>
<rect x="310.1" y="185.1" width="7.8" height="44.6" fill="none" stroke="#e34948" stroke-width="1.3"/>
<rect x="324.2" y="183.6" width="7.8" height="1.5" fill="none" stroke="#e34948" stroke-width="1.3"/>
<rect x="338.4" y="183.6" width="7.8" height="17.8" fill="#008300"/>
<rect x="352.5" y="182.1" width="7.8" height="19.3" fill="none" stroke="#e34948" stroke-width="1.3"/>
<rect x="366.6" y="177.6" width="7.8" height="4.5" fill="none" stroke="#e34948" stroke-width="1.3"/>
<rect x="380.8" y="177.6" width="7.8" height="19.3" fill="#008300"/>
<rect x="394.9" y="197.0" width="7.8" height="5.9" fill="#008300"/>
<rect x="409.0" y="202.9" width="7.8" height="7.4" fill="#008300"/>
<rect x="423.2" y="174.7" width="7.8" height="35.7" fill="none" stroke="#e34948" stroke-width="1.3"/>
<rect x="437.3" y="159.8" width="7.8" height="14.9" fill="none" stroke="#e34948" stroke-width="1.3"/>
<rect x="451.5" y="143.5" width="7.8" height="16.3" fill="none" stroke="#e34948" stroke-width="1.3"/>
<rect x="465.6" y="143.5" width="7.8" height="10.4" fill="#008300"/>
<rect x="479.7" y="153.9" width="7.8" height="47.6" fill="#008300"/>
<rect x="493.9" y="201.4" width="7.8" height="34.2" fill="#008300"/>
<rect x="508.0" y="205.9" width="7.8" height="29.7" fill="none" stroke="#e34948" stroke-width="1.3"/>
<rect x="522.1" y="192.5" width="7.8" height="13.4" fill="none" stroke="#e34948" stroke-width="1.3"/>
<rect x="536.3" y="192.5" width="7.8" height="7.4" fill="#008300"/>
<rect x="550.4" y="199.9" width="7.8" height="4.5" fill="#008300"/>
<rect x="564.6" y="146.4" width="7.8" height="58.0" fill="none" stroke="#e34948" stroke-width="1.3"/>
<rect x="578.7" y="146.4" width="7.8" height="58.0" fill="#008300"/>
<rect x="592.8" y="204.4" width="7.8" height="13.4" fill="#008300"/>
<rect x="607.0" y="217.8" width="7.8" height="1.2" fill="#898781"/>
<rect x="621.1" y="192.5" width="7.8" height="25.3" fill="none" stroke="#e34948" stroke-width="1.3"/>
<rect x="635.2" y="155.3" width="7.8" height="37.2" fill="none" stroke="#e34948" stroke-width="1.3"/>
<rect x="649.4" y="155.3" width="7.8" height="49.0" fill="#008300"/>
<rect x="663.5" y="139.0" width="7.8" height="65.4" fill="none" stroke="#e34948" stroke-width="1.3"/>
<rect x="677.7" y="92.9" width="7.8" height="46.1" fill="none" stroke="#e34948" stroke-width="1.3"/>
<rect x="691.8" y="92.9" width="7.8" height="72.8" fill="#008300"/>
<rect x="705.9" y="139.0" width="7.8" height="26.8" fill="none" stroke="#e34948" stroke-width="1.3"/>
<rect x="720.1" y="139.0" width="7.8" height="22.3" fill="#008300"/>
<rect x="734.2" y="161.3" width="7.8" height="145.7" fill="#008300"/>
<rect x="748.4" y="238.6" width="7.8" height="68.4" fill="none" stroke="#e34948" stroke-width="1.3"/>
<rect x="762.5" y="220.7" width="7.8" height="17.8" fill="none" stroke="#e34948" stroke-width="1.3"/>
<rect x="776.6" y="162.8" width="7.8" height="58.0" fill="none" stroke="#e34948" stroke-width="1.3"/>
<rect x="790.8" y="82.5" width="7.8" height="80.3" fill="none" stroke="#e34948" stroke-width="1.3"/>
<rect x="804.9" y="82.5" width="7.8" height="110.0" fill="#008300"/>
<rect x="819.0" y="192.5" width="7.8" height="72.8" fill="#008300"/>
<circle cx="794.7" cy="82.5" r="2" fill="#52514e"/>
<line x1="794.7" y1="82.5" x2="786.7" y2="82.5" stroke="#52514e" stroke-width="1.0"/>
<text x="783.7" y="86.5" font-size="11.0" fill="#52514e" text-anchor="end">184</text>
<circle cx="17.1" cy="356.0" r="2" fill="#52514e"/>
<line x1="17.1" y1="356.0" x2="25.1" y2="356.0" stroke="#52514e" stroke-width="1.0"/>
<text x="28.1" y="350.0" font-size="11.0" fill="#52514e">0</text>
<text x="14.0" y="376.0" font-size="11.0" fill="#52514e">VOL 32 forks</text>
<text x="96.6" y="376.0" font-size="11.0" fill="#eda100">MA5:53</text>
<text x="142.9" y="376.0" font-size="11.0" fill="#2a78d6">MA10:40.4</text>
<text x="14.0" y="395.0" font-size="10" fill="#898781">132</text>
<rect x="13.2" y="457.6" width="7.8" height="12.4" fill="none" stroke="#e34948" stroke-width="1.1"/>
<rect x="27.3" y="457.6" width="7.8" height="12.4" fill="#008300"/>
<rect x="41.5" y="443.9" width="7.8" height="26.1" fill="none" stroke="#e34948" stroke-width="1.1"/>
<rect x="55.6" y="458.8" width="7.8" height="11.2" fill="#008300"/>
<rect x="69.7" y="459.4" width="7.8" height="10.6" fill="none" stroke="#e34948" stroke-width="1.1"/>
<rect x="83.9" y="455.1" width="7.8" height="14.9" fill="#008300"/>
<rect x="98.0" y="457.6" width="7.8" height="12.4" fill="#008300"/>
<rect x="112.1" y="461.9" width="7.8" height="8.1" fill="none" stroke="#e34948" stroke-width="1.1"/>
<rect x="126.3" y="458.2" width="7.8" height="11.8" fill="none" stroke="#e34948" stroke-width="1.1"/>
<rect x="140.4" y="456.3" width="7.8" height="13.7" fill="none" stroke="#e34948" stroke-width="1.1"/>
<rect x="154.6" y="455.1" width="7.8" height="14.9" fill="#008300"/>
<rect x="168.7" y="461.3" width="7.8" height="8.7" fill="#008300"/>
<rect x="182.8" y="457.6" width="7.8" height="12.4" fill="none" stroke="#e34948" stroke-width="1.1"/>
<rect x="197.0" y="461.9" width="7.8" height="8.1" fill="#008300"/>
<rect x="211.1" y="461.3" width="7.8" height="8.7" fill="#008300"/>
<rect x="225.2" y="461.3" width="7.8" height="8.7" fill="none" stroke="#e34948" stroke-width="1.1"/>
<rect x="239.4" y="458.2" width="7.8" height="11.8" fill="none" stroke="#e34948" stroke-width="1.1"/>
<rect x="253.5" y="457.0" width="7.8" height="13.0" fill="none" stroke="#e34948" stroke-width="1.1"/>
<rect x="267.7" y="461.3" width="7.8" height="8.7" fill="#008300"/>
<rect x="281.8" y="456.3" width="7.8" height="13.7" fill="none" stroke="#e34948" stroke-width="1.1"/>
<rect x="295.9" y="461.3" width="7.8" height="8.7" fill="#008300"/>
<rect x="310.1" y="457.6" width="7.8" height="12.4" fill="none" stroke="#e34948" stroke-width="1.1"/>
<rect x="324.2" y="461.3" width="7.8" height="8.7" fill="none" stroke="#e34948" stroke-width="1.1"/>
<rect x="338.4" y="458.2" width="7.8" height="11.8" fill="#008300"/>
<rect x="352.5" y="458.8" width="7.8" height="11.2" fill="none" stroke="#e34948" stroke-width="1.1"/>
<rect x="366.6" y="457.0" width="7.8" height="13.0" fill="none" stroke="#e34948" stroke-width="1.1"/>
<rect x="380.8" y="458.2" width="7.8" height="11.8" fill="#008300"/>
<rect x="394.9" y="460.7" width="7.8" height="9.3" fill="#008300"/>
<rect x="409.0" y="457.0" width="7.8" height="13.0" fill="#008300"/>
<rect x="423.2" y="457.6" width="7.8" height="12.4" fill="none" stroke="#e34948" stroke-width="1.1"/>
<rect x="437.3" y="455.1" width="7.8" height="14.9" fill="none" stroke="#e34948" stroke-width="1.1"/>
<rect x="451.5" y="457.6" width="7.8" height="12.4" fill="none" stroke="#e34948" stroke-width="1.1"/>
<rect x="465.6" y="461.3" width="7.8" height="8.7" fill="#008300"/>
<rect x="479.7" y="457.6" width="7.8" height="12.4" fill="#008300"/>
<rect x="493.9" y="457.6" width="7.8" height="12.4" fill="#008300"/>
<rect x="508.0" y="459.4" width="7.8" height="10.6" fill="none" stroke="#e34948" stroke-width="1.1"/>
<rect x="522.1" y="461.3" width="7.8" height="8.7" fill="none" stroke="#e34948" stroke-width="1.1"/>
<rect x="536.3" y="453.2" width="7.8" height="16.8" fill="#008300"/>
<rect x="550.4" y="460.1" width="7.8" height="9.9" fill="#008300"/>
<rect x="564.6" y="458.2" width="7.8" height="11.8" fill="none" stroke="#e34948" stroke-width="1.1"/>
<rect x="578.7" y="456.3" width="7.8" height="13.7" fill="#008300"/>
<rect x="592.8" y="460.1" width="7.8" height="9.9" fill="#008300"/>
<rect x="607.0" y="460.7" width="7.8" height="9.3" fill="#898781"/>
<rect x="621.1" y="459.4" width="7.8" height="10.6" fill="none" stroke="#e34948" stroke-width="1.1"/>
<rect x="635.2" y="438.9" width="7.8" height="31.1" fill="none" stroke="#e34948" stroke-width="1.1"/>
<rect x="649.4" y="452.0" width="7.8" height="18.0" fill="#008300"/>
<rect x="663.5" y="446.4" width="7.8" height="23.6" fill="none" stroke="#e34948" stroke-width="1.1"/>
<rect x="677.7" y="433.3" width="7.8" height="36.7" fill="none" stroke="#e34948" stroke-width="1.1"/>
<rect x="691.8" y="447.6" width="7.8" height="22.4" fill="#008300"/>
<rect x="705.9" y="439.6" width="7.8" height="30.4" fill="none" stroke="#e34948" stroke-width="1.1"/>
<rect x="720.1" y="447.0" width="7.8" height="23.0" fill="#008300"/>
<rect x="734.2" y="459.4" width="7.8" height="10.6" fill="#008300"/>
<rect x="762.5" y="457.6" width="7.8" height="12.4" fill="none" stroke="#e34948" stroke-width="1.1"/>
<rect x="776.6" y="444.5" width="7.8" height="25.5" fill="none" stroke="#e34948" stroke-width="1.1"/>
<rect x="790.8" y="388.0" width="7.8" height="82.0" fill="none" stroke="#e34948" stroke-width="1.1"/>
<rect x="804.9" y="445.2" width="7.8" height="24.8" fill="#008300"/>
<rect x="819.0" y="450.1" width="7.8" height="19.9" fill="#008300"/>
<polyline points="144.3,456.6 158.4,456.4 172.6,456.8 186.7,458.1 200.9,458.4 215.0,458.6 229.1,459.3 243.3,459.3 257.4,458.8 271.6,459.1 285.7,459.1 299.8,459.8 314.0,459.4 328.1,459.8 342.2,459.4 356.4,459.1 370.5,458.7 384.7,458.7 398.8,459.1 412.9,458.6 427.1,458.8 441.2,458.1 455.3,458.1 469.5,458.1 483.6,458.1 497.8,457.9 511.9,458.2 526.0,458.5 540.2,457.8 554.3,458.1 568.4,458.1 582.6,458.3 596.7,458.5 610.9,458.4 625.0,458.6 639.1,456.8 653.3,456.0 667.4,454.5 681.6,452.5 695.7,451.3 709.8,449.4 724.0,448.5 738.1,448.4 752.2,449.4 766.4,449.2 780.5,449.7 794.7,443.4 808.8,443.2 822.9,444.9" fill="none" stroke="#2a78d6" stroke-width="1.5" stroke-linejoin="round" stroke-linecap="round"/>
<polyline points="73.6,455.5 87.8,455.0 101.9,455.0 116.0,458.6 130.2,458.4 144.3,457.8 158.4,457.8 172.6,458.6 186.7,457.7 200.9,458.4 215.0,459.4 229.1,460.7 243.3,460.1 257.4,459.9 271.6,459.8 285.7,458.8 299.8,458.8 314.0,458.7 328.1,459.6 342.2,458.9 356.4,459.4 370.5,458.6 384.7,458.7 398.8,458.6 412.9,458.3 427.1,458.1 441.2,457.7 455.3,457.6 469.5,457.7 483.6,457.8 497.8,457.8 511.9,458.7 526.0,459.4 540.2,457.8 554.3,458.3 568.4,458.4 582.6,457.8 596.7,457.6 610.9,459.1 625.0,458.9 639.1,455.1 653.3,454.2 667.4,451.5 681.6,446.0 695.7,443.7 709.8,443.8 724.0,442.8 738.1,445.4 752.2,452.7 766.4,454.7 780.5,455.7 794.7,443.9 808.8,441.1 822.9,437.1" fill="none" stroke="#eda100" stroke-width="1.5" stroke-linejoin="round" stroke-linecap="round"/>
</svg>