<svg xmlns="http://www.w3.org/2000/svg" viewBox="0 0 840 496" width="840" height="496" font-family="-apple-system,&#39;Segoe UI&#39;,system-ui,sans-serif" role="img" aria-label="torvalds/linux candlestick chart">
<text x="14.0" y="20.0" font-size="15" fill="#0b0b0b" font-weight="650">torvalds/linux</text>
<text x="133.5" y="20.0" font-size="11.5" fill="#52514e">daily · new stars, volume = new forks</text>
<text x="805.8" y="20.0" font-size="11.0" fill="#52514e">fall</text>
<rect x="791" y="10" width="9" height="12" fill="#008300"/>
<text x="750.6" y="20.0" font-size="11.0" fill="#52514e">rise</text>
<rect x="736" y="10" width="9" height="12" fill="none" stroke="#e34948" stroke-width="1.5"/>
<text x="14.0" y="38.0" font-size="11.0" fill="#898781">last 60 days · +6,669 stars · +1,485 forks · updated 2026-07-21</text>
<rect x="10" y="66" width="820" height="290" fill="none" stroke="#e1e0d9"/>
<rect x="10" y="384" width="820" height="86" fill="none" stroke="#e1e0d9"/>
<text x="38.0" y="490.0" font-size="11.0" fill="#898781" text-anchor="middle">2026-05</text>
<line x1="146.7" y1="66.0" x2="146.7" y2="356.0" stroke="#e1e0d9" stroke-width="1.0"/>
<line x1="146.7" y1="384.0" x2="146.7" y2="470.0" stroke="#e1e0d9" stroke-width="1.0"/>
<text x="153.5" y="490.0" font-size="11.0" fill="#898781" text-anchor="middle">2026-06</text>
<line x1="556.7" y1="66.0" x2="556.7" y2="356.0" stroke="#e1e0d9" stroke-width="1.0"/>
<line x1="556.7" y1="384.0" x2="556.7" y2="470.0" stroke="#e1e0d9" stroke-width="1.0"/>
<text x="563.5" y="490.0" font-size="11.0" fill="#898781" text-anchor="middle">2026-07</text>
<text x="14.0" y="58.0" font-size="11.0" fill="#52514e">BOLL(20,2)</text>
<text x="84.5" y="58.0" font-size="11.0" fill="#eda100">UP:181.3</text>
<text x="142.9" y="58.0" font-size="11.0" fill="#2a78d6">MID:111.1</text>
<text x="207.4" y="58.0" font-size="11.0" fill="#e87ba4">LOW:40.9</text>
<text x="265.8" y="58.0" font-size="11.0" fill="#4a3aa7">MA7:100.6</text>
<line x1="10.0" y1="356.0" x2="830.0" y2="356.0" stroke="#e1e0d9" stroke-width="1.0"/>
<text x="14.0" y="353.0" font-size="11.0" fill="#898781">0</text>
<line x1="10.0" y1="281.7" x2="830.0" y2="281.7" stroke="#e1e0d9" stroke-width="1.0"/>
<text x="14.0" y="278.7" font-size="11.0" fill="#898781">50</text>
<line x1="10.0" y1="207.4" x2="830.0" y2="207.4" stroke="#e1e0d9" stroke-width="1.0"/>
<text x="14.0" y="204.4" font-size="11.0" fill="#898781">100</text>
<line x1="10.0" y1="133.0" x2="830.0" y2="133.0" stroke="#e1e0d9" stroke-width="1.0"/>
<text x="14.0" y="130.0" font-size="11.0" fill="#898781">150</text>
<polyline points="208.2,141.9 221.8,140.0 235.5,139.6 249.2,144.8 262.8,148.5 276.5,155.2 290.2,154.4 303.8,154.7 317.5,155.3 331.2,156.0 344.8,157.2 358.5,153.5 372.2,146.1 385.8,142.5 399.5,142.5 413.2,140.1 426.8,140.1 440.5,140.0 454.2,140.5 467.8,140.6 481.5,140.6 495.2,142.4 508.8,142.3 522.5,142.5 536.2,142.3 549.8,138.6 563.5,139.9 577.2,132.3 590.8,113.6 604.5,112.2 618.2,108.1 631.8,108.3 645.5,98.9 659.2,101.8 672.8,101.9 686.5,99.7 700.2,82.8 713.8,82.8 727.5,79.8 741.2,79.9 754.8,83.1 768.5,83.2 782.2,83.2 795.8,82.8 809.5,83.2 823.2,86.5" fill="none" stroke="#eda100" stroke-width="1.5" stroke-linejoin="round" stroke-linecap="round"/>
<polyline points="208.2,184.4 221.8,186.8 235.5,186.2 249.2,188.0 262.8,190.1 276.5,191.8 290.2,191.5 303.8,190.7 317.5,191.6 331.2,192.9 344.8,193.3 358.5,192.2 372.2,188.6 385.8,187.4 399.5,187.4 413.2,188.6 426.8,188.4 440.5,188.1 454.2,188.9 467.8,189.4 481.5,189.4 495.2,188.1 508.8,189.8 522.5,191.5 536.2,191.0 549.8,189.7 563.5,191.0 577.2,188.1 590.8,182.6 604.5,180.4 618.2,178.6 631.8,178.7 645.5,186.9 659.2,191.1 672.8,192.1 686.5,188.4 700.2,182.2 713.8,182.2 727.5,185.5 741.2,186.0 754.8,187.7 768.5,188.4 782.2,188.4 795.8,187.2 809.5,188.5 823.2,190.9" fill="none" stroke="#2a78d6" stroke-width="1.5" stroke-linejoin="round" stroke-linecap="round"/>
<polyline points="208.2,226.9 221.8,233.6 235.5,232.8 249.2,231.2 262.8,231.6 276.5,228.5 290.2,228.6 303.8,226.7 317.5,227.9 331.2,229.9 344.8,229.4 358.5,230.9 372.2,231.0 385.8,232.2 399.5,232.2 413.2,237.1 426.8,236.7 440.5,236.2 454.2,237.2 467.8,238.2 481.5,238.2 495.2,233.9 508.8,237.3 522.5,240.4 536.2,239.7 549.8,240.7 563.5,242.1 577.2,243.9 590.8,251.6 604.5,248.5 618.2,249.1 631.8,249.1 645.5,274.8 659.2,280.4 672.8,282.2 686.5,277.1 700.2,281.7 713.8,281.7 727.5,291.2 741.2,292.2 754.8,292.4 768.5,293.7 782.2,293.7 795.8,291.6 809.5,293.8 823.2,295.2" fill="none" stroke="#e87ba4" stroke-width="1.5" stroke-linejoin="round" stroke-linecap="round"/>
<polyline points="30.5,175.7 44.2,176.2 57.8,174.2 71.5,177.0 85.2,180.2 98.8,190.1 112.5,189.1 126.2,187.6 139.8,191.5 153.5,195.0 167.2,199.5 180.8,199.9 194.5,196.8 208.2,192.4 221.8,196.4 235.5,192.5 249.2,188.9 262.8,189.4 276.5,188.9 290.2,186.6 303.8,193.8 317.5,190.0 331.2,193.5 344.8,192.4 358.5,186.4 372.2,180.8 385.8,177.5 399.5,178.1 413.2,182.7 426.8,182.1 440.5,184.6 454.2,190.4 467.8,199.0 481.5,198.0 495.2,198.4 508.8,195.9 522.5,197.6 536.2,197.6 549.8,191.2 563.5,191.2 577.2,190.1 590.8,174.2 604.5,166.8 618.2,155.5 631.8,151.0 645.5,172.7 659.2,177.6 672.8,189.4 686.5,199.3 700.2,187.4 713.8,195.0 727.5,209.9 741.2,196.8 754.8,188.5 768.5,188.0 782.2,195.9 795.8,211.7 809.5,215.4 823.2,206.5" fill="none" stroke="#4a3aa7" stroke-width="1.5" stroke-linejoin="round" stroke-linecap="round"/>
<rect x="13.1" y="146.4" width="7.5" height="38.6" fill="#008300"/>
<rect x="26.7" y="185.1" width="7.5" height="26.8" fill="#008300"/>
<rect x="40.4" y="185.1" width="7.5" height="26.8" fill="none" stroke="#e34948" stroke-width="1.3"/>
<rect x="54.1" y="183.6" width="7.5" height="1.5" fill="none" stroke="#e34948" stroke-width="1.3"/>
<rect x="67.7" y="167.2" width="7.5" height="16.3" fill="none" stroke="#e34948" stroke-width="1.3"/>
<rect x="81.4" y="167.2" width="7.5" height="14.9" fill="#008300"/>
<rect x="95.1" y="182.1" width="7.5" height="34.2" fill="#008300"/>
<rect x="108.7" y="177.6" width="7.5" height="38.6" fill="none" stroke="#e34948" stroke-width="1.3"/>
<rect x="122.4" y="177.6" width="7.5" height="23.8" fill="#008300"/>
<rect x="136.1" y="201.4" width="7.5" height="10.4" fill="#008300"/>
<rect x="149.7" y="208.9" width="7.5" height="3.0" fill="none" stroke="#e34948" stroke-width="1.3"/>
<rect x="163.4" y="198.4" width="7.5" height="10.4" fill="none" stroke="#e34948" stroke-width="1.3"/>
<rect x="177.1" y="185.1" width="7.5" height="13.4" fill="none" stroke="#e34948" stroke-width="1.3"/>
<rect x="190.7" y="185.1" width="7.5" height="8.9" fill="#008300"/>
<rect x="204.4" y="146.4" width="7.5" height="47.6" fill="none" stroke="#e34948" stroke-width="1.3"/>
<rect x="218.1" y="146.4" width="7.5" height="83.2" fill="#008300"/>
<rect x="231.7" y="185.1" width="7.5" height="44.6" fill="none" stroke="#e34948" stroke-width="1.3"/>
<rect x="245.4" y="183.6" width="7.5" height="1.5" fill="none" stroke="#e34948" stroke-width="1.3"/>
<rect x="259.1" y="183.6" width="7.5" height="17.8" fill="#008300"/>
<rect x="272.7" y="182.1" width="7.5" height="19.3" fill="none" stroke="#e34948" stroke-width="1.3"/>
<rect x="286.4" y="177.6" width="7.5" height="4.5" fill="none" stroke="#e34948" stroke-width="1.3"/>
<rect x="300.1" y="177.6" width="7.5" height="19.3" fill="#008300"/>
<rect x="313.7" y="197.0" width="7.5" height="5.9" fill="#008300"/>
<rect x="327.4" y="202.9" width="7.5" height="7.4" fill="#008300"/>
<rect x="341.1" y="174.7" width="7.5" height="35.7" fill="none" stroke="#e34948" stroke-width="1.3"/>
<rect x="354.7" y="159.8" width="7.5" height="14.9" fill="none" stroke="#e34948" stroke-width="1.3"/>
<rect x="368.4" y="143.5" width="7.5" height="16.3" fill="none" stroke="#e34948" stroke-width="1.3"/>
<rect x="382.1" y="143.5" width="7.5" height="10.4" fill="#008300"/>
<rect x="395.7" y="153.9" width="7.5" height="47.6" fill="#008300"/>
<rect x="409.4" y="201.4" width="7.5" height="34.2" fill="#008300"/>
<rect x="423.1" y="205.9" width="7.5" height="29.7" fill="none" stroke="#e34948" stroke-width="1.3"/>
<rect x="436.7" y="192.5" width="7.5" height="13.4" fill="none" stroke="#e34948" stroke-width="1.3"/>
<rect x="450.4" y="192.5" width="7.5" height="7.4" fill="#008300"/>
<rect x="464.1" y="199.9" width="7.5" height="4.5" fill="#008300"/>
<rect x="477.7" y="146.4" width="7.5" height="58.0" fill="none" stroke="#e34948" stroke-width="1.3"/>
<rect x="491.4" y="146.4" width="7.5" height="58.0" fill="#008300"/>
<rect x="505.1" y="204.4" width="7.5" height="13.4" fill="#008300"/>
<rect x="518.7" y="217.8" width="7.5" height="1.2" fill="#898781"/>
<rect x="532.4" y="192.5" width="7.5" height="25.3" fill="none" stroke="#e34948" stroke-width="1.3"/>
<rect x="546.1" y="155.3" width="7.5" height="37.2" fill="none" stroke="#e34948" stroke-width="1.3"/>
<rect x="559.7" y="155.3" width="7.5" height="49.0" fill="#008300"/>
<rect x="573.4" y="139.0" width="7.5" height="65.4" fill="none" stroke="#e34948" stroke-width="1.3"/>
<rect x="587.1" y="92.9" width="7.5" height="46.1" fill="none" stroke="#e34948" stroke-width="1.3"/>
<rect x="600.7" y="92.9" width="7.5" height="72.8" fill="#008300"/>
<rect x="614.4" y="139.0" width="7.5" height="26.8" fill="none" stroke="#e34948" stroke-width="1.3"/>
<rect x="628.1" y="139.0" width="7.5" height="22.3" fill="#008300"/>
<rect x="641.7" y="161.3" width="7.5" height="145.7" fill="#008300"/>
<rect x="655.4" y="238.6" width="7.5" height="68.4" fill="none" stroke="#e34948" stroke-width="1.3"/>
<rect x="669.1" y="220.7" width="7.5" height="17.8" fill="none" stroke="#e34948" stroke-width="1.3"/>
<rect x="682.7" y="162.8" width="7.5" height="58.0" fill="none" stroke="#e34948" stroke-width="1.3"/>
<rect x="696.4" y="82.5" width="7.5" height="80.3" fill="none" stroke="#e34948" stroke-width="1.3"/>
<rect x="710.1" y="82.5" width="7.5" height="110.0" fill="#008300"/>
<rect x="723.7" y="192.5" width="7.5" height="72.8" fill="#008300"/>
<rect x="737.4" y="214.8" width="7.5" height="50.5" fill="none" stroke="#e34948" stroke-width="1.3"/>
<rect x="751.1" y="180.6" width="7.5" height="34.2" fill="none" stroke="#e34948" stroke-width="1.3"/>
<rect x="764.7" y="180.6" width="7.5" height="37.2" fill="#008300"/>
<rect x="778.4" y="217.8" width="7.5" height="138.2" fill="none" stroke="#e34948" stroke-width="1.3"/>
<rect x="792.1" y="192.5" width="7.5" height="25.3" fill="none" stroke="#e34948" stroke-width="1.3"/>
<rect x="805.7" y="192.5" width="7.5" height="26.8" fill="#008300"/>
<rect x="819.4" y="202.9" width="7.5" height="16.3" fill="none" stroke="#e34948" stroke-width="1.3"/>
<circle cx="700.2" cy="82.5" r="2" fill="#52514e"/>
<line x1="700.2" y1="82.5" x2="692.2" y2="82.5" stroke="#52514e" stroke-width="1.0"/>
<text x="689.2" y="86.5" font-size="11.0" fill="#52514e" text-anchor="end">184</text>
<circle cx="782.2" cy="356.0" r="2" fill="#52514e"/>
<line x1="782.2" y1="356.0" x2="774.2" y2="356.0" stroke="#52514e" stroke-width="1.0"/>
<text x="771.2" y="350.0" font-size="11.0" fill="#52514e" text-anchor="end">0</text>
<text x="14.0" y="376.0" font-size="11.0" fill="#52514e">VOL 32 forks</text>
<text x="96.6" y="376.0" font-size="11.0" fill="#eda100">MA5:28.4</text>
<text x="155.0" y="376.0" font-size="11.0" fill="#2a78d6">MA10:39.4</text>
<text x="14.0" y="395.0" font-size="10" fill="#898781">132</text>
<rect x="13.1" y="455.1" width="7.5" height="14.9" fill="#008300"/>
<rect x="26.7" y="457.6" width="7.5" height="12.4" fill="#008300"/>
<rect x="40.4" y="461.9" width="7.5" height="8.1" fill="none" stroke="#e34948" stroke-width="1.1"/>
<rect x="54.1" y="458.2" width="7.5" height="11.8" fill="none" stroke="#e34948" stroke-width="1.1"/>
<rect x="67.7" y="456.3" width="7.5" height="13.7" fill="none" stroke="#e34948" stroke-width="1.1"/>
<rect x="81.4" y="455.1" width="7.5" height="14.9" fill="#008300"/>
<rect x="95.1" y="461.3" width="7.5" height="8.7" fill="#008300"/>
<rect x="108.7" y="457.6" width="7.5" height="12.4" fill="none" stroke="#e34948" stroke-width="1.1"/>
<rect x="122.4" y="461.9" width="7.5" height="8.1" fill="#008300"/>
<rect x="136.1" y="461.3" width="7.5" height="8.7" fill="#008300"/>
<rect x="149.7" y="461.3" width="7.5" height="8.7" fill="none" stroke="#e34948" stroke-width="1.1"/>
<rect x="163.4" y="458.2" width="7.5" height="11.8" fill="none" stroke="#e34948" stroke-width="1.1"/>
<rect x="177.1" y="457.0" width="7.5" height="13.0" fill="none" stroke="#e34948" stroke-width="1.1"/>
<rect x="190.7" y="461.3" width="7.5" height="8.7" fill="#008300"/>
<rect x="204.4" y="456.3" width="7.5" height="13.7" fill="none" stroke="#e34948" stroke-width="1.1"/>
<rect x="218.1" y="461.3" width="7.5" height="8.7" fill="#008300"/>
<rect x="231.7" y="457.6" width="7.5" height="12.4" fill="none" stroke="#e34948" stroke-width="1.1"/>
<rect x="245.4" y="461.3" width="7.5" height="8.7" fill="none" stroke="#e34948" stroke-width="1.1"/>
<rect x="259.1" y="458.2" width="7.5" height="11.8" fill="#008300"/>
<rect x="272.7" y="458.8" width="7.5" height="11.2" fill="none" stroke="#e34948" stroke-width="1.1"/>
<rect x="286.4" y="457.0" width="7.5" height="13.0" fill="none" stroke="#e34948" stroke-width="1.1"/>
<rect x="300.1" y="458.2" width="7.5" height="11.8" fill="#008300"/>
<rect x="313.7" y="460.7" width="7.5" height="9.3" fill="#008300"/>
<rect x="327.4" y="457.0" width="7.5" height="13.0" fill="#008300"/>
<rect x="341.1" y="457.6" width="7.5" height="12.4" fill="none" stroke="#e34948" stroke-width="1.1"/>
<rect x="354.7" y="455.1" width="7.5" height="14.9" fill="none" stroke="#e34948" stroke-width="1.1"/>
<rect x="368.4" y="457.6" width="7.5" height="12.4" fill="none" stroke="#e34948" stroke-width="1.1"/>
<rect x="382.1" y="461.3" width="7.5" height="8.7" fill="#008300"/>
<rect x="395.7" y="457.6" width="7.5" height="12.4" fill="#008300"/>
<rect x="409.4" y="457.6" width="7.5" height="12.4" fill="#008300"/>
<rect x="423.1" y="459.4" width="7.5" height="10.6" fill="none" stroke="#e34948" stroke-width="1.1"/>
<rect x="436.7" y="461.3" width="7.5" height="8.7" fill="none" stroke="#e34948" stroke-width="1.1"/>
<rect x="450.4" y="453.2" width="7.5" height="16.8" fill="#008300"/>
<rect x="464.1" y="460.1" width="7.5" height="9.9" fill="#008300"/>
<rect x="477.7" y="458.2" width="7.5" height="11.8" fill="none" stroke="#e34948" stroke-width="1.1"/>
<rect x="491.4" y="456.3" width="7.5" height="13.7" fill="#008300"/>
<rect x="505.1" y="460.1" width="7.5" height="9.9" fill="#008300"/>
<rect x="518.7" y="460.7" width="7.5" height="9.3" fill="#898781"/>
<rect x="532.4" y="459.4" width="7.5" height="10.6" fill="none" stroke="#e34948" stroke-width="1.1"/>
<rect x="546.1" y="438.9" width="7.5" height="31.1" fill="none" stroke="#e34948" stroke-width="1.1"/>
<rect x="559.7" y="452.0" width="7.5" height="18.0" fill="#008300"/>
<rect x="573.4" y="446.4" width="7.5" height="23.6" fill="none" stroke="#e34948" stroke-width="1.1"/>
<rect x="587.1" y="433.3" width="7.5" height="36.7" fill="none" stroke="#e34948" stroke-width="1.1"/>
<rect x="600.7" y="447.6" width="7.5" height="22.4" fill="#008300"/>
<rect x="614.4" y="439.6" width="7.5" height="30.4" fill="none" stroke="#e34948" stroke-width="1.1"/>
<rect x="628.1" y="447.0" width="7.5" height="23.0" fill="#008300"/>
<rect x="641.7" y="459.4" width="7.5" height="10.6" fill="#008300"/>
<rect x="669.1" y="457.6" width="7.5" height="12.4" fill="none" stroke="#e34948" stroke-width="1.1"/>
<rect x="682.7" y="444.5" width="7.5" height="25.5" fill="none" stroke="#e34948" stroke-width="1.1"/>
<rect x="696.4" y="388.0" width="7.5" height="82.0" fill="none" stroke="#e34948" stroke-width="1.1"/>
<rect x="710.1" y="445.2" width="7.5" height="24.8" fill="#008300"/>
<rect x="723.7" y="450.1" width="7.5" height="19.9" fill="#008300"/>
<rect x="737.4" y="457.0" width="7.5" height="13.0" fill="none" stroke="#e34948" stroke-width="1.1"/>
<rect x="751.1" y="453.2" width="7.5" height="16.8" fill="none" stroke="#e34948" stroke-width="1.1"/>
<rect x="764.7" y="457.0" width="7.5" height="13.0" fill="#008300"/>
<rect x="778.4" y="451.4" width="7.5" height="18.6" fill="none" stroke="#e34948" stroke-width="1.1"/>
<rect x="792.1" y="449.5" width="7.5" height="20.5" fill="none" stroke="#e34948" stroke-width="1.1"/>
<rect x="805.7" y="453.8" width="7.5" height="16.2" fill="#008300"/>
<rect x="819.4" y="450.1" width="7.5" height="19.9" fill="none" stroke="#e34948" stroke-width="1.1"/>
<polyline points="71.5,456.6 85.2,456.4 98.8,456.8 112.5,458.1 126.2,458.4 139.8,458.6 153.5,459.3 167.2,459.3 180.8,458.8 194.5,459.1 208.2,459.1 221.8,459.8 235.5,459.4 249.2,459.8 262.8,459.4 276.5,459.1 290.2,458.7 303.8,458.7 317.5,459.1 331.2,458.6 344.8,458.8 358.5,458.1 372.2,458.1 385.8,458.1 399.5,458.1 413.2,457.9 426.8,458.2 440.5,458.5 454.2,457.8 467.8,458.1 481.5,458.1 495.2,458.3 508.8,458.5 522.5,458.4 536.2,458.6 549.8,456.8 563.5,456.0 577.2,454.5 590.8,452.5 604.5,451.3 618.2,449.4 631.8,448.5 645.5,448.4 659.2,449.4 672.8,449.2 686.5,449.7 700.2,443.4 713.8,443.2 727.5,444.9 741.2,445.8 754.8,447.2 768.5,448.2 782.2,447.4 795.8,445.3 809.5,445.0 823.2,445.5" fill="none" stroke="#2a78d6" stroke-width="1.5" stroke-linejoin="round" stroke-linecap="round"/>
<polyline points="16.8,455.0 30.5,455.0 44.2,458.6 57.8,458.4 71.5,457.8 85.2,457.8 98.8,458.6 112.5,457.7 126.2,458.4 139.8,459.4 153.5,460.7 167.2,460.1 180.8,459.9 194.5,459.8 208.2,458.8 221.8,458.8 235.5,458.7 249.2,459.6 262.8,458.9 276.5,459.4 290.2,458.6 303.8,458.7 317.5,458.6 331.2,458.3 344.8,458.1 358.5,457.7 372.2,457.6 385.8,457.7 399.5,457.8 413.2,457.8 426.8,458.7 440.5,459.4 454.2,457.8 467.8,458.3 481.5,458.4 495.2,457.8 508.8,457.6 522.5,459.1 536.2,458.9 549.8,455.1 563.5,454.2 577.2,451.5 590.8,446.0 604.5,443.7 618.2,443.8 631.8,442.8 645.5,445.4 659.2,452.7 672.8,454.7 686.5,455.7 700.2,443.9 713.8,441.1 727.5,437.1 741.2,437.0 754.8,438.7 768.5,452.5 782.2,453.7 795.8,453.6 809.5,453.0 823.2,452.4" fill="none" stroke="#eda100" stroke-width="1.5" stroke-linejoin="round" stroke-linecap="round"/>
</svg>