<svg xmlns="http://www.w3.org/2000/svg" viewBox="0 0 840 496" width="840" height="496" font-family="-apple-system,&#39;Segoe UI&#39;,system-ui,sans-serif" role="img" aria-label="torvalds/linux candlestick chart">
<text x="14.0" y="20.0" font-size="15" fill="#ffffff" font-weight="650">torvalds/linux</text>
<text x="133.5" y="20.0" font-size="11.5" fill="#c3c2b7">daily · new stars, volume = new forks</text>
<text x="805.8" y="20.0" font-size="11.0" fill="#c3c2b7">fall</text>
<rect x="791" y="10" width="9" height="12" fill="#008300"/>
<text x="750.6" y="20.0" font-size="11.0" fill="#c3c2b7">rise</text>
<rect x="736" y="10" width="9" height="12" fill="none" stroke="#e66767" stroke-width="1.5"/>
<text x="14.0" y="38.0" font-size="11.0" fill="#898781">last 60 days · +6,791 stars · +1,461 forks · updated 2026-07-17</text>
<rect x="10" y="66" width="820" height="290" fill="none" stroke="#2c2c2a"/>
<rect x="10" y="384" width="820" height="86" fill="none" stroke="#2c2c2a"/>
<text x="38.0" y="490.0" font-size="11.0" fill="#898781" text-anchor="middle">2026-05</text>
<line x1="201.3" y1="66.0" x2="201.3" y2="356.0" stroke="#2c2c2a" stroke-width="1.0"/>
<line x1="201.3" y1="384.0" x2="201.3" y2="470.0" stroke="#2c2c2a" stroke-width="1.0"/>
<text x="208.2" y="490.0" font-size="11.0" fill="#898781" text-anchor="middle">2026-06</text>
<line x1="611.3" y1="66.0" x2="611.3" y2="356.0" stroke="#2c2c2a" stroke-width="1.0"/>
<line x1="611.3" y1="384.0" x2="611.3" y2="470.0" stroke="#2c2c2a" stroke-width="1.0"/>
<text x="618.2" y="490.0" font-size="11.0" fill="#898781" text-anchor="middle">2026-07</text>
<text x="14.0" y="58.0" font-size="11.0" fill="#c3c2b7">BOLL(20,2)</text>
<text x="84.5" y="58.0" font-size="11.0" fill="#c98500">UP:183.6</text>
<text x="142.9" y="58.0" font-size="11.0" fill="#3987e5">MID:112.8</text>
<text x="207.4" y="58.0" font-size="11.0" fill="#d55181">LOW:41.9</text>
<text x="265.8" y="58.0" font-size="11.0" fill="#9085e9">MA7:113</text>
<line x1="10.0" y1="313.5" x2="830.0" y2="313.5" stroke="#2c2c2a" stroke-width="1.0"/>
<text x="14.0" y="310.5" font-size="11.0" fill="#898781">50</text>
<line x1="10.0" y1="227.2" x2="830.0" y2="227.2" stroke="#2c2c2a" stroke-width="1.0"/>
<text x="14.0" y="224.2" font-size="11.0" fill="#898781">100</text>
<line x1="10.0" y1="141.0" x2="830.0" y2="141.0" stroke="#2c2c2a" stroke-width="1.0"/>
<text x="14.0" y="138.0" font-size="11.0" fill="#898781">150</text>
<polyline points="262.8,151.3 276.5,149.0 290.2,148.6 303.8,154.6 317.5,158.9 331.2,166.6 344.8,165.7 358.5,166.1 372.2,166.8 385.8,167.6 399.5,169.1 413.2,164.7 426.8,156.1 440.5,151.9 454.2,151.9 467.8,149.1 481.5,149.2 495.2,149.1 508.8,149.6 522.5,149.7 536.2,149.7 549.8,151.8 563.5,151.7 577.2,152.0 590.8,151.7 604.5,147.5 618.2,148.9 631.8,140.1 645.5,118.4 659.2,116.8 672.8,112.0 686.5,112.2 700.2,101.4 713.8,104.7 727.5,104.8 741.2,102.3 754.8,82.6 768.5,82.6 782.2,79.2 795.8,79.3 809.5,83.0 823.2,83.1" fill="none" stroke="#c98500" stroke-width="1.5" stroke-linejoin="round" stroke-linecap="round"/>
<polyline points="262.8,200.6 276.5,203.3 290.2,202.7 303.8,204.7 317.5,207.1 331.2,209.2 344.8,208.8 358.5,207.9 372.2,208.9 385.8,210.5 399.5,210.9 413.2,209.6 426.8,205.4 440.5,204.0 454.2,204.0 467.8,205.4 481.5,205.2 495.2,204.9 508.8,205.8 522.5,206.4 536.2,206.4 549.8,204.9 563.5,206.8 577.2,208.8 590.8,208.3 604.5,206.7 618.2,208.3 631.8,204.9 645.5,198.5 659.2,195.9 672.8,193.9 686.5,193.9 700.2,203.4 713.8,208.3 727.5,209.5 741.2,205.2 754.8,198.1 768.5,198.1 782.2,201.9 795.8,202.5 809.5,204.5 823.2,205.2" fill="none" stroke="#3987e5" stroke-width="1.5" stroke-linejoin="round" stroke-linecap="round"/>
<polyline points="262.8,249.9 276.5,257.7 290.2,256.7 303.8,254.9 317.5,255.4 331.2,251.8 344.8,251.8 358.5,249.7 372.2,251.1 385.8,253.4 399.5,252.8 413.2,254.5 426.8,254.7 440.5,256.1 454.2,256.1 467.8,261.7 481.5,261.3 495.2,260.7 508.8,261.9 522.5,263.0 536.2,263.0 549.8,258.0 563.5,261.9 577.2,265.6 590.8,264.8 604.5,265.9 618.2,267.6 631.8,269.7 645.5,278.6 659.2,275.0 672.8,275.7 686.5,275.7 700.2,305.5 713.8,312.0 727.5,314.1 741.2,308.2 754.8,313.6 768.5,313.6 782.2,324.6 795.8,325.7 809.5,325.9 823.2,327.4" fill="none" stroke="#d55181" stroke-width="1.5" stroke-linejoin="round" stroke-linecap="round"/>
<polyline points="85.2,190.5 98.8,191.0 112.5,188.8 126.2,192.0 139.8,195.7 153.5,207.2 167.2,206.0 180.8,204.3 194.5,208.8 208.2,212.9 221.8,218.1 235.5,218.6 249.2,215.0 262.8,209.8 276.5,214.5 290.2,210.0 303.8,205.8 317.5,206.4 331.2,205.8 344.8,203.1 358.5,211.5 372.2,207.0 385.8,211.2 399.5,209.8 413.2,202.9 426.8,196.4 440.5,192.6 454.2,193.2 467.8,198.6 481.5,197.9 495.2,200.8 508.8,207.6 522.5,217.6 536.2,216.4 549.8,216.9 563.5,213.9 577.2,215.8 590.8,215.8 604.5,208.4 618.2,208.4 631.8,207.2 645.5,188.8 659.2,180.1 672.8,167.0 686.5,161.9 700.2,187.0 713.8,192.7 727.5,206.4 741.2,217.9 754.8,204.1 768.5,212.9 782.2,230.2 795.8,215.0 809.5,205.3 823.2,204.8" fill="none" stroke="#9085e9" stroke-width="1.5" stroke-linejoin="round" stroke-linecap="round"/>
<rect x="13.1" y="197.9" width="7.5" height="17.3" fill="#008300"/>
<rect x="26.7" y="158.2" width="7.5" height="56.9" fill="none" stroke="#e66767" stroke-width="1.3"/>
<rect x="40.4" y="158.2" width="7.5" height="13.8" fill="#008300"/>
<rect x="54.1" y="156.5" width="7.5" height="15.5" fill="none" stroke="#e66767" stroke-width="1.3"/>
<rect x="67.7" y="156.5" width="7.5" height="44.9" fill="#008300"/>
<rect x="81.4" y="201.4" width="7.5" height="31.1" fill="#008300"/>
<rect x="95.1" y="201.4" width="7.5" height="31.1" fill="none" stroke="#e66767" stroke-width="1.3"/>
<rect x="108.7" y="199.6" width="7.5" height="1.7" fill="none" stroke="#e66767" stroke-width="1.3"/>
<rect x="122.4" y="180.7" width="7.5" height="19.0" fill="none" stroke="#e66767" stroke-width="1.3"/>
<rect x="136.1" y="180.7" width="7.5" height="17.3" fill="#008300"/>
<rect x="149.7" y="197.9" width="7.5" height="39.7" fill="#008300"/>
<rect x="163.4" y="192.7" width="7.5" height="44.9" fill="none" stroke="#e66767" stroke-width="1.3"/>
<rect x="177.1" y="192.7" width="7.5" height="27.6" fill="#008300"/>
<rect x="190.7" y="220.3" width="7.5" height="12.1" fill="#008300"/>
<rect x="204.4" y="229.0" width="7.5" height="3.5" fill="none" stroke="#e66767" stroke-width="1.3"/>
<rect x="218.1" y="216.9" width="7.5" height="12.1" fill="none" stroke="#e66767" stroke-width="1.3"/>
<rect x="231.7" y="201.4" width="7.5" height="15.5" fill="none" stroke="#e66767" stroke-width="1.3"/>
<rect x="245.4" y="201.4" width="7.5" height="10.4" fill="#008300"/>
<rect x="259.1" y="156.5" width="7.5" height="55.2" fill="none" stroke="#e66767" stroke-width="1.3"/>
<rect x="272.7" y="156.5" width="7.5" height="96.6" fill="#008300"/>
<rect x="286.4" y="201.4" width="7.5" height="51.8" fill="none" stroke="#e66767" stroke-width="1.3"/>
<rect x="300.1" y="199.6" width="7.5" height="1.7" fill="none" stroke="#e66767" stroke-width="1.3"/>
<rect x="313.7" y="199.6" width="7.5" height="20.7" fill="#008300"/>
<rect x="327.4" y="197.9" width="7.5" height="22.4" fill="none" stroke="#e66767" stroke-width="1.3"/>
<rect x="341.1" y="192.7" width="7.5" height="5.2" fill="none" stroke="#e66767" stroke-width="1.3"/>
<rect x="354.7" y="192.7" width="7.5" height="22.4" fill="#008300"/>
<rect x="368.4" y="215.2" width="7.5" height="6.9" fill="#008300"/>
<rect x="382.1" y="222.1" width="7.5" height="8.6" fill="#008300"/>
<rect x="395.7" y="189.3" width="7.5" height="41.4" fill="none" stroke="#e66767" stroke-width="1.3"/>
<rect x="409.4" y="172.0" width="7.5" height="17.3" fill="none" stroke="#e66767" stroke-width="1.3"/>
<rect x="423.1" y="153.1" width="7.5" height="19.0" fill="none" stroke="#e66767" stroke-width="1.3"/>
<rect x="436.7" y="153.1" width="7.5" height="12.1" fill="#008300"/>
<rect x="450.4" y="165.1" width="7.5" height="55.2" fill="#008300"/>
<rect x="464.1" y="220.3" width="7.5" height="39.7" fill="#008300"/>
<rect x="477.7" y="225.5" width="7.5" height="34.5" fill="none" stroke="#e66767" stroke-width="1.3"/>
<rect x="491.4" y="210.0" width="7.5" height="15.5" fill="none" stroke="#e66767" stroke-width="1.3"/>
<rect x="505.1" y="210.0" width="7.5" height="8.6" fill="#008300"/>
<rect x="518.7" y="218.6" width="7.5" height="5.2" fill="#008300"/>
<rect x="532.4" y="156.5" width="7.5" height="67.3" fill="none" stroke="#e66767" stroke-width="1.3"/>
<rect x="546.1" y="156.5" width="7.5" height="67.3" fill="#008300"/>
<rect x="559.7" y="223.8" width="7.5" height="15.5" fill="#008300"/>
<rect x="573.4" y="239.3" width="7.5" height="1.2" fill="#898781"/>
<rect x="587.1" y="210.0" width="7.5" height="29.3" fill="none" stroke="#e66767" stroke-width="1.3"/>
<rect x="600.7" y="166.9" width="7.5" height="43.1" fill="none" stroke="#e66767" stroke-width="1.3"/>
<rect x="614.4" y="166.9" width="7.5" height="56.9" fill="#008300"/>
<rect x="628.1" y="147.9" width="7.5" height="75.9" fill="none" stroke="#e66767" stroke-width="1.3"/>
<rect x="641.7" y="94.4" width="7.5" height="53.5" fill="none" stroke="#e66767" stroke-width="1.3"/>
<rect x="655.4" y="94.4" width="7.5" height="84.5" fill="#008300"/>
<rect x="669.1" y="147.9" width="7.5" height="31.1" fill="none" stroke="#e66767" stroke-width="1.3"/>
<rect x="682.7" y="147.9" width="7.5" height="25.9" fill="#008300"/>
<rect x="696.4" y="173.8" width="7.5" height="169.1" fill="#008300"/>
<rect x="710.1" y="263.5" width="7.5" height="79.4" fill="none" stroke="#e66767" stroke-width="1.3"/>
<rect x="723.7" y="242.8" width="7.5" height="20.7" fill="none" stroke="#e66767" stroke-width="1.3"/>
<rect x="737.4" y="175.5" width="7.5" height="67.3" fill="none" stroke="#e66767" stroke-width="1.3"/>
<rect x="751.1" y="82.3" width="7.5" height="93.2" fill="none" stroke="#e66767" stroke-width="1.3"/>
<rect x="764.7" y="82.3" width="7.5" height="127.7" fill="#008300"/>
<rect x="778.4" y="210.0" width="7.5" height="84.5" fill="#008300"/>
<rect x="792.1" y="235.9" width="7.5" height="58.7" fill="none" stroke="#e66767" stroke-width="1.3"/>
<rect x="805.7" y="196.2" width="7.5" height="39.7" fill="none" stroke="#e66767" stroke-width="1.3"/>
<rect x="819.4" y="196.2" width="7.5" height="43.1" fill="#008300"/>
<circle cx="754.8" cy="82.3" r="2" fill="#c3c2b7"/>
<line x1="754.8" y1="82.3" x2="746.8" y2="82.3" stroke="#c3c2b7" stroke-width="1.0"/>
<text x="743.8" y="86.3" font-size="11.0" fill="#c3c2b7" text-anchor="end">184</text>
<circle cx="700.2" cy="342.8" r="2" fill="#c3c2b7"/>
<line x1="700.2" y1="342.8" x2="692.2" y2="342.8" stroke="#c3c2b7" stroke-width="1.0"/>
<text x="689.2" y="346.8" font-size="11.0" fill="#c3c2b7" text-anchor="end">33</text>
<text x="14.0" y="376.0" font-size="11.0" fill="#c3c2b7">VOL 21 forks</text>
<text x="96.6" y="376.0" font-size="11.0" fill="#c98500">MA5:28.2</text>
<text x="155.0" y="376.0" font-size="11.0" fill="#3987e5">MA10:35.1</text>
<text x="14.0" y="395.0" font-size="10" fill="#898781">132</text>
<rect x="13.1" y="457.6" width="7.5" height="12.4" fill="#008300"/>
<rect x="26.7" y="443.9" width="7.5" height="26.1" fill="none" stroke="#e66767" stroke-width="1.1"/>
<rect x="40.4" y="458.8" width="7.5" height="11.2" fill="#008300"/>
<rect x="54.1" y="459.4" width="7.5" height="10.6" fill="none" stroke="#e66767" stroke-width="1.1"/>
<rect x="67.7" y="455.1" width="7.5" height="14.9" fill="#008300"/>
<rect x="81.4" y="457.6" width="7.5" height="12.4" fill="#008300"/>
<rect x="95.1" y="461.9" width="7.5" height="8.1" fill="none" stroke="#e66767" stroke-width="1.1"/>
<rect x="108.7" y="458.2" width="7.5" height="11.8" fill="none" stroke="#e66767" stroke-width="1.1"/>
<rect x="122.4" y="456.3" width="7.5" height="13.7" fill="none" stroke="#e66767" stroke-width="1.1"/>
<rect x="136.1" y="455.1" width="7.5" height="14.9" fill="#008300"/>
<rect x="149.7" y="461.3" width="7.5" height="8.7" fill="#008300"/>
<rect x="163.4" y="457.6" width="7.5" height="12.4" fill="none" stroke="#e66767" stroke-width="1.1"/>
<rect x="177.1" y="461.9" width="7.5" height="8.1" fill="#008300"/>
<rect x="190.7" y="461.3" width="7.5" height="8.7" fill="#008300"/>
<rect x="204.4" y="461.3" width="7.5" height="8.7" fill="none" stroke="#e66767" stroke-width="1.1"/>
<rect x="218.1" y="458.2" width="7.5" height="11.8" fill="none" stroke="#e66767" stroke-width="1.1"/>
<rect x="231.7" y="457.0" width="7.5" height="13.0" fill="none" stroke="#e66767" stroke-width="1.1"/>
<rect x="245.4" y="461.3" width="7.5" height="8.7" fill="#008300"/>
<rect x="259.1" y="456.3" width="7.5" height="13.7" fill="none" stroke="#e66767" stroke-width="1.1"/>
<rect x="272.7" y="461.3" width="7.5" height="8.7" fill="#008300"/>
<rect x="286.4" y="457.6" width="7.5" height="12.4" fill="none" stroke="#e66767" stroke-width="1.1"/>
<rect x="300.1" y="461.3" width="7.5" height="8.7" fill="none" stroke="#e66767" stroke-width="1.1"/>
<rect x="313.7" y="458.2" width="7.5" height="11.8" fill="#008300"/>
<rect x="327.4" y="458.8" width="7.5" height="11.2" fill="none" stroke="#e66767" stroke-width="1.1"/>
<rect x="341.1" y="457.0" width="7.5" height="13.0" fill="none" stroke="#e66767" stroke-width="1.1"/>
<rect x="354.7" y="458.2" width="7.5" height="11.8" fill="#008300"/>
<rect x="368.4" y="460.7" width="7.5" height="9.3" fill="#008300"/>
<rect x="382.1" y="457.0" width="7.5" height="13.0" fill="#008300"/>
<rect x="395.7" y="457.6" width="7.5" height="12.4" fill="none" stroke="#e66767" stroke-width="1.1"/>
<rect x="409.4" y="455.1" width="7.5" height="14.9" fill="none" stroke="#e66767" stroke-width="1.1"/>
<rect x="423.1" y="457.6" width="7.5" height="12.4" fill="none" stroke="#e66767" stroke-width="1.1"/>
<rect x="436.7" y="461.3" width="7.5" height="8.7" fill="#008300"/>
<rect x="450.4" y="457.6" width="7.5" height="12.4" fill="#008300"/>
<rect x="464.1" y="457.6" width="7.5" height="12.4" fill="#008300"/>
<rect x="477.7" y="459.4" width="7.5" height="10.6" fill="none" stroke="#e66767" stroke-width="1.1"/>
<rect x="491.4" y="461.3" width="7.5" height="8.7" fill="none" stroke="#e66767" stroke-width="1.1"/>
<rect x="505.1" y="453.2" width="7.5" height="16.8" fill="#008300"/>
<rect x="518.7" y="460.1" width="7.5" height="9.9" fill="#008300"/>
<rect x="532.4" y="458.2" width="7.5" height="11.8" fill="none" stroke="#e66767" stroke-width="1.1"/>
<rect x="546.1" y="456.3" width="7.5" height="13.7" fill="#008300"/>
<rect x="559.7" y="460.1" width="7.5" height="9.9" fill="#008300"/>
<rect x="573.4" y="460.7" width="7.5" height="9.3" fill="#898781"/>
<rect x="587.1" y="459.4" width="7.5" height="10.6" fill="none" stroke="#e66767" stroke-width="1.1"/>
<rect x="600.7" y="438.9" width="7.5" height="31.1" fill="none" stroke="#e66767" stroke-width="1.1"/>
<rect x="614.4" y="452.0" width="7.5" height="18.0" fill="#008300"/>
<rect x="628.1" y="446.4" width="7.5" height="23.6" fill="none" stroke="#e66767" stroke-width="1.1"/>
<rect x="641.7" y="433.3" width="7.5" height="36.7" fill="none" stroke="#e66767" stroke-width="1.1"/>
<rect x="655.4" y="447.6" width="7.5" height="22.4" fill="#008300"/>
<rect x="669.1" y="439.6" width="7.5" height="30.4" fill="none" stroke="#e66767" stroke-width="1.1"/>
<rect x="682.7" y="447.0" width="7.5" height="23.0" fill="#008300"/>
<rect x="696.4" y="459.4" width="7.5" height="10.6" fill="#008300"/>
<rect x="723.7" y="457.6" width="7.5" height="12.4" fill="none" stroke="#e66767" stroke-width="1.1"/>
<rect x="737.4" y="444.5" width="7.5" height="25.5" fill="none" stroke="#e66767" stroke-width="1.1"/>
<rect x="751.1" y="388.0" width="7.5" height="82.0" fill="none" stroke="#e66767" stroke-width="1.1"/>
<rect x="764.7" y="445.2" width="7.5" height="24.8" fill="#008300"/>
<rect x="778.4" y="450.1" width="7.5" height="19.9" fill="#008300"/>
<rect x="792.1" y="457.0" width="7.5" height="13.0" fill="none" stroke="#e66767" stroke-width="1.1"/>
<rect x="805.7" y="453.2" width="7.5" height="16.8" fill="none" stroke="#e66767" stroke-width="1.1"/>
<rect x="819.4" y="457.0" width="7.5" height="13.0" fill="#008300"/>
<polyline points="126.2,456.6 139.8,456.4 153.5,456.8 167.2,458.1 180.8,458.4 194.5,458.6 208.2,459.3 221.8,459.3 235.5,458.8 249.2,459.1 262.8,459.1 276.5,459.8 290.2,459.4 303.8,459.8 317.5,459.4 331.2,459.1 344.8,458.7 358.5,458.7 372.2,459.1 385.8,458.6 399.5,458.8 413.2,458.1 426.8,458.1 440.5,458.1 454.2,458.1 467.8,457.9 481.5,458.2 495.2,458.5 508.8,457.8 522.5,458.1 536.2,458.1 549.8,458.3 563.5,458.5 577.2,458.4 590.8,458.6 604.5,456.8 618.2,456.0 631.8,454.5 645.5,452.5 659.2,451.3 672.8,449.4 686.5,448.5 700.2,448.4 713.8,449.4 727.5,449.2 741.2,449.7 754.8,443.4 768.5,443.2 782.2,444.9 795.8,445.8 809.5,447.2 823.2,448.2" fill="none" stroke="#3987e5" stroke-width="1.5" stroke-linejoin="round" stroke-linecap="round"/>
<polyline points="57.8,455.5 71.5,455.0 85.2,455.0 98.8,458.6 112.5,458.4 126.2,457.8 139.8,457.8 153.5,458.6 167.2,457.7 180.8,458.4 194.5,459.4 208.2,460.7 221.8,460.1 235.5,459.9 249.2,459.8 262.8,458.8 276.5,458.8 290.2,458.7 303.8,459.6 317.5,458.9 331.2,459.4 344.8,458.6 358.5,458.7 372.2,458.6 385.8,458.3 399.5,458.1 413.2,457.7 426.8,457.6 440.5,457.7 454.2,457.8 467.8,457.8 481.5,458.7 495.2,459.4 508.8,457.8 522.5,458.3 536.2,458.4 549.8,457.8 563.5,457.6 577.2,459.1 590.8,458.9 604.5,455.1 618.2,454.2 631.8,451.5 645.5,446.0 659.2,443.7 672.8,443.8 686.5,442.8 700.2,445.4 713.8,452.7 727.5,454.7 741.2,455.7 754.8,443.9 768.5,441.1 782.2,437.1 795.8,437.0 809.5,438.7 823.2,452.5" fill="none" stroke="#c98500" stroke-width="1.5" stroke-linejoin="round" stroke-linecap="round"/>
</svg>