<svg xmlns="http://www.w3.org/2000/svg" viewBox="0 0 840 496" width="840" height="496" font-family="-apple-system,&#39;Segoe UI&#39;,system-ui,sans-serif" role="img" aria-label="torvalds/linux candlestick chart">
<text x="14.0" y="20.0" font-size="15" fill="#0b0b0b" font-weight="650">torvalds/linux</text>
<text x="133.5" y="20.0" font-size="11.5" fill="#52514e">daily · new stars, volume = new forks</text>
<text x="805.8" y="20.0" font-size="11.0" fill="#52514e">fall</text>
<rect x="791" y="10" width="9" height="12" fill="#008300"/>
<text x="750.6" y="20.0" font-size="11.0" fill="#52514e">rise</text>
<rect x="736" y="10" width="9" height="12" fill="none" stroke="#e34948" stroke-width="1.5"/>
<text x="14.0" y="38.0" font-size="11.0" fill="#898781">last 60 days · +6,689 stars · +1,487 forks · updated 2026-07-22</text>
<rect x="10" y="66" width="820" height="290" fill="none" stroke="#e1e0d9"/>
<rect x="10" y="384" width="820" height="86" fill="none" stroke="#e1e0d9"/>
<text x="38.0" y="490.0" font-size="11.0" fill="#898781" text-anchor="middle">2026-05</text>
<line x1="133.0" y1="66.0" x2="133.0" y2="356.0" stroke="#e1e0d9" stroke-width="1.0"/>
<line x1="133.0" y1="384.0" x2="133.0" y2="470.0" stroke="#e1e0d9" stroke-width="1.0"/>
<text x="139.8" y="490.0" font-size="11.0" fill="#898781" text-anchor="middle">2026-06</text>
<line x1="543.0" y1="66.0" x2="543.0" y2="356.0" stroke="#e1e0d9" stroke-width="1.0"/>
<line x1="543.0" y1="384.0" x2="543.0" y2="470.0" stroke="#e1e0d9" stroke-width="1.0"/>
<text x="549.8" y="490.0" font-size="11.0" fill="#898781" text-anchor="middle">2026-07</text>
<text x="14.0" y="58.0" font-size="11.0" fill="#52514e">BOLL(20,2)</text>
<text x="84.5" y="58.0" font-size="11.0" fill="#eda100">UP:183.6</text>
<text x="142.9" y="58.0" font-size="11.0" fill="#2a78d6">MID:112.8</text>
<text x="207.4" y="58.0" font-size="11.0" fill="#e87ba4">LOW:41.9</text>
<text x="265.8" y="58.0" font-size="11.0" fill="#4a3aa7">MA7:106.3</text>
<line x1="10.0" y1="356.0" x2="830.0" y2="356.0" stroke="#e1e0d9" stroke-width="1.0"/>
<text x="14.0" y="353.0" font-size="11.0" fill="#898781">0</text>
<line x1="10.0" y1="281.7" x2="830.0" y2="281.7" stroke="#e1e0d9" stroke-width="1.0"/>
<text x="14.0" y="278.7" font-size="11.0" fill="#898781">50</text>
<line x1="10.0" y1="207.4" x2="830.0" y2="207.4" stroke="#e1e0d9" stroke-width="1.0"/>
<text x="14.0" y="204.4" font-size="11.0" fill="#898781">100</text>
<line x1="10.0" y1="133.0" x2="830.0" y2="133.0" stroke="#e1e0d9" stroke-width="1.0"/>
<text x="14.0" y="130.0" font-size="11.0" fill="#898781">150</text>
<polyline points="194.5,141.9 208.2,140.0 221.8,139.6 235.5,144.8 249.2,148.5 262.8,155.2 276.5,154.4 290.2,154.7 303.8,155.3 317.5,156.0 331.2,157.2 344.8,153.5 358.5,146.1 372.2,142.5 385.8,142.5 399.5,140.1 413.2,140.1 426.8,140.0 440.5,140.5 454.2,140.6 467.8,140.6 481.5,142.4 495.2,142.3 508.8,142.5 522.5,142.3 536.2,138.6 549.8,139.9 563.5,132.3 577.2,113.6 590.8,112.2 604.5,108.1 618.2,108.3 631.8,98.9 645.5,101.8 659.2,101.9 672.8,99.7 686.5,82.8 700.2,82.8 713.8,79.8 727.5,79.9 741.2,83.1 754.8,83.2 768.5,83.2 782.2,82.8 795.8,83.2 809.5,86.5 823.2,83.1" fill="none" stroke="#eda100" stroke-width="1.5" stroke-linejoin="round" stroke-linecap="round"/>
<polyline points="194.5,184.4 208.2,186.8 221.8,186.2 235.5,188.0 249.2,190.1 262.8,191.8 276.5,191.5 290.2,190.7 303.8,191.6 317.5,192.9 331.2,193.3 344.8,192.2 358.5,188.6 372.2,187.4 385.8,187.4 399.5,188.6 413.2,188.4 426.8,188.1 440.5,188.9 454.2,189.4 467.8,189.4 481.5,188.1 495.2,189.8 508.8,191.5 522.5,191.0 536.2,189.7 549.8,191.0 563.5,188.1 577.2,182.6 590.8,180.4 604.5,178.6 618.2,178.7 631.8,186.9 645.5,191.1 659.2,192.1 672.8,188.4 686.5,182.2 700.2,182.2 713.8,185.5 727.5,186.0 741.2,187.7 754.8,188.4 768.5,188.4 782.2,187.2 795.8,188.5 809.5,190.9 823.2,188.4" fill="none" stroke="#2a78d6" stroke-width="1.5" stroke-linejoin="round" stroke-linecap="round"/>
<polyline points="194.5,226.9 208.2,233.6 221.8,232.8 235.5,231.2 249.2,231.6 262.8,228.5 276.5,228.6 290.2,226.7 303.8,227.9 317.5,229.9 331.2,229.4 344.8,230.9 358.5,231.0 372.2,232.2 385.8,232.2 399.5,237.1 413.2,236.7 426.8,236.2 440.5,237.2 454.2,238.2 467.8,238.2 481.5,233.9 495.2,237.3 508.8,240.4 522.5,239.7 536.2,240.7 549.8,242.1 563.5,243.9 577.2,251.6 590.8,248.5 604.5,249.1 618.2,249.1 631.8,274.8 645.5,280.4 659.2,282.2 672.8,277.1 686.5,281.7 700.2,281.7 713.8,291.2 727.5,292.2 741.2,292.4 754.8,293.7 768.5,293.7 782.2,291.6 795.8,293.8 809.5,295.2 823.2,293.7" fill="none" stroke="#e87ba4" stroke-width="1.5" stroke-linejoin="round" stroke-linecap="round"/>
<polyline points="16.8,175.7 30.5,176.2 44.2,174.2 57.8,177.0 71.5,180.2 85.2,190.1 98.8,189.1 112.5,187.6 126.2,191.5 139.8,195.0 153.5,199.5 167.2,199.9 180.8,196.8 194.5,192.4 208.2,196.4 221.8,192.5 235.5,188.9 249.2,189.4 262.8,188.9 276.5,186.6 290.2,193.8 303.8,190.0 317.5,193.5 331.2,192.4 344.8,186.4 358.5,180.8 372.2,177.5 385.8,178.1 399.5,182.7 413.2,182.1 426.8,184.6 440.5,190.4 454.2,199.0 467.8,198.0 481.5,198.4 495.2,195.9 508.8,197.6 522.5,197.6 536.2,191.2 549.8,191.2 563.5,190.1 577.2,174.2 590.8,166.8 604.5,155.5 618.2,151.0 631.8,172.7 645.5,177.6 659.2,189.4 672.8,199.3 686.5,187.4 700.2,195.0 713.8,209.9 727.5,196.8 741.2,188.5 754.8,188.0 768.5,195.9 782.2,211.7 795.8,215.4 809.5,206.5 823.2,198.0" fill="none" stroke="#4a3aa7" stroke-width="1.5" stroke-linejoin="round" stroke-linecap="round"/>
<rect x="13.1" y="185.1" width="7.5" height="26.8" fill="#008300"/>
<rect x="26.7" y="185.1" width="7.5" height="26.8" fill="none" stroke="#e34948" stroke-width="1.3"/>
<rect x="40.4" y="183.6" width="7.5" height="1.5" fill="none" stroke="#e34948" stroke-width="1.3"/>
<rect x="54.1" y="167.2" width="7.5" height="16.3" fill="none" stroke="#e34948" stroke-width="1.3"/>
<rect x="67.7" y="167.2" width="7.5" height="14.9" fill="#008300"/>
<rect x="81.4" y="182.1" width="7.5" height="34.2" fill="#008300"/>
<rect x="95.1" y="177.6" width="7.5" height="38.6" fill="none" stroke="#e34948" stroke-width="1.3"/>
<rect x="108.7" y="177.6" width="7.5" height="23.8" fill="#008300"/>
<rect x="122.4" y="201.4" width="7.5" height="10.4" fill="#008300"/>
<rect x="136.1" y="208.9" width="7.5" height="3.0" fill="none" stroke="#e34948" stroke-width="1.3"/>
<rect x="149.7" y="198.4" width="7.5" height="10.4" fill="none" stroke="#e34948" stroke-width="1.3"/>
<rect x="163.4" y="185.1" width="7.5" height="13.4" fill="none" stroke="#e34948" stroke-width="1.3"/>
<rect x="177.1" y="185.1" width="7.5" height="8.9" fill="#008300"/>
<rect x="190.7" y="146.4" width="7.5" height="47.6" fill="none" stroke="#e34948" stroke-width="1.3"/>
<rect x="204.4" y="146.4" width="7.5" height="83.2" fill="#008300"/>
<rect x="218.1" y="185.1" width="7.5" height="44.6" fill="none" stroke="#e34948" stroke-width="1.3"/>
<rect x="231.7" y="183.6" width="7.5" height="1.5" fill="none" stroke="#e34948" stroke-width="1.3"/>
<rect x="245.4" y="183.6" width="7.5" height="17.8" fill="#008300"/>
<rect x="259.1" y="182.1" width="7.5" height="19.3" fill="none" stroke="#e34948" stroke-width="1.3"/>
<rect x="272.7" y="177.6" width="7.5" height="4.5" fill="none" stroke="#e34948" stroke-width="1.3"/>
<rect x="286.4" y="177.6" width="7.5" height="19.3" fill="#008300"/>
<rect x="300.1" y="197.0" width="7.5" height="5.9" fill="#008300"/>
<rect x="313.7" y="202.9" width="7.5" height="7.4" fill="#008300"/>
<rect x="327.4" y="174.7" width="7.5" height="35.7" fill="none" stroke="#e34948" stroke-width="1.3"/>
<rect x="341.1" y="159.8" width="7.5" height="14.9" fill="none" stroke="#e34948" stroke-width="1.3"/>
<rect x="354.7" y="143.5" width="7.5" height="16.3" fill="none" stroke="#e34948" stroke-width="1.3"/>
<rect x="368.4" y="143.5" width="7.5" height="10.4" fill="#008300"/>
<rect x="382.1" y="153.9" width="7.5" height="47.6" fill="#008300"/>
<rect x="395.7" y="201.4" width="7.5" height="34.2" fill="#008300"/>
<rect x="409.4" y="205.9" width="7.5" height="29.7" fill="none" stroke="#e34948" stroke-width="1.3"/>
<rect x="423.1" y="192.5" width="7.5" height="13.4" fill="none" stroke="#e34948" stroke-width="1.3"/>
<rect x="436.7" y="192.5" width="7.5" height="7.4" fill="#008300"/>
<rect x="450.4" y="199.9" width="7.5" height="4.5" fill="#008300"/>
<rect x="464.1" y="146.4" width="7.5" height="58.0" fill="none" stroke="#e34948" stroke-width="1.3"/>
<rect x="477.7" y="146.4" width="7.5" height="58.0" fill="#008300"/>
<rect x="491.4" y="204.4" width="7.5" height="13.4" fill="#008300"/>
<rect x="505.1" y="217.8" width="7.5" height="1.2" fill="#898781"/>
<rect x="518.7" y="192.5" width="7.5" height="25.3" fill="none" stroke="#e34948" stroke-width="1.3"/>
<rect x="532.4" y="155.3" width="7.5" height="37.2" fill="none" stroke="#e34948" stroke-width="1.3"/>
<rect x="546.1" y="155.3" width="7.5" height="49.0" fill="#008300"/>
<rect x="559.7" y="139.0" width="7.5" height="65.4" fill="none" stroke="#e34948" stroke-width="1.3"/>
<rect x="573.4" y="92.9" width="7.5" height="46.1" fill="none" stroke="#e34948" stroke-width="1.3"/>
<rect x="587.1" y="92.9" width="7.5" height="72.8" fill="#008300"/>
<rect x="600.7" y="139.0" width="7.5" height="26.8" fill="none" stroke="#e34948" stroke-width="1.3"/>
<rect x="614.4" y="139.0" width="7.5" height="22.3" fill="#008300"/>
<rect x="628.1" y="161.3" width="7.5" height="145.7" fill="#008300"/>
<rect x="641.7" y="238.6" width="7.5" height="68.4" fill="none" stroke="#e34948" stroke-width="1.3"/>
<rect x="655.4" y="220.7" width="7.5" height="17.8" fill="none" stroke="#e34948" stroke-width="1.3"/>
<rect x="669.1" y="162.8" width="7.5" height="58.0" fill="none" stroke="#e34948" stroke-width="1.3"/>
<rect x="682.7" y="82.5" width="7.5" height="80.3" fill="none" stroke="#e34948" stroke-width="1.3"/>
<rect x="696.4" y="82.5" width="7.5" height="110.0" fill="#008300"/>
<rect x="710.1" y="192.5" width="7.5" height="72.8" fill="#008300"/>
<rect x="723.7" y="214.8" width="7.5" height="50.5" fill="none" stroke="#e34948" stroke-width="1.3"/>
<rect x="737.4" y="180.6" width="7.5" height="34.2" fill="none" stroke="#e34948" stroke-width="1.3"/>
<rect x="751.1" y="180.6" width="7.5" height="37.2" fill="#008300"/>
<rect x="764.7" y="217.8" width="7.5" height="138.2" fill="none" stroke="#e34948" stroke-width="1.3"/>
<rect x="778.4" y="192.5" width="7.5" height="25.3" fill="none" stroke="#e34948" stroke-width="1.3"/>
<rect x="792.1" y="192.5" width="7.5" height="26.8" fill="#008300"/>
<rect x="805.7" y="202.9" width="7.5" height="16.3" fill="none" stroke="#e34948" stroke-width="1.3"/>
<rect x="819.4" y="155.3" width="7.5" height="47.6" fill="none" stroke="#e34948" stroke-width="1.3"/>
<circle cx="686.5" cy="82.5" r="2" fill="#52514e"/>
<line x1="686.5" y1="82.5" x2="678.5" y2="82.5" stroke="#52514e" stroke-width="1.0"/>
<text x="675.5" y="86.5" font-size="11.0" fill="#52514e" text-anchor="end">184</text>
<circle cx="768.5" cy="356.0" r="2" fill="#52514e"/>
<line x1="768.5" y1="356.0" x2="760.5" y2="356.0" stroke="#52514e" stroke-width="1.0"/>
<text x="757.5" y="350.0" font-size="11.0" fill="#52514e" text-anchor="end">0</text>
<text x="14.0" y="376.0" font-size="11.0" fill="#52514e">VOL 26 forks</text>
<text x="96.6" y="376.0" font-size="11.0" fill="#eda100">MA5:29.4</text>
<text x="155.0" y="376.0" font-size="11.0" fill="#2a78d6">MA10:28.8</text>
<text x="14.0" y="395.0" font-size="10" fill="#898781">132</text>
<rect x="13.1" y="457.6" width="7.5" height="12.4" fill="#008300"/>
<rect x="26.7" y="461.9" width="7.5" height="8.1" fill="none" stroke="#e34948" stroke-width="1.1"/>
<rect x="40.4" y="458.2" width="7.5" height="11.8" fill="none" stroke="#e34948" stroke-width="1.1"/>
<rect x="54.1" y="456.3" width="7.5" height="13.7" fill="none" stroke="#e34948" stroke-width="1.1"/>
<rect x="67.7" y="455.1" width="7.5" height="14.9" fill="#008300"/>
<rect x="81.4" y="461.3" width="7.5" height="8.7" fill="#008300"/>
<rect x="95.1" y="457.6" width="7.5" height="12.4" fill="none" stroke="#e34948" stroke-width="1.1"/>
<rect x="108.7" y="461.9" width="7.5" height="8.1" fill="#008300"/>
<rect x="122.4" y="461.3" width="7.5" height="8.7" fill="#008300"/>
<rect x="136.1" y="461.3" width="7.5" height="8.7" fill="none" stroke="#e34948" stroke-width="1.1"/>
<rect x="149.7" y="458.2" width="7.5" height="11.8" fill="none" stroke="#e34948" stroke-width="1.1"/>
<rect x="163.4" y="457.0" width="7.5" height="13.0" fill="none" stroke="#e34948" stroke-width="1.1"/>
<rect x="177.1" y="461.3" width="7.5" height="8.7" fill="#008300"/>
<rect x="190.7" y="456.3" width="7.5" height="13.7" fill="none" stroke="#e34948" stroke-width="1.1"/>
<rect x="204.4" y="461.3" width="7.5" height="8.7" fill="#008300"/>
<rect x="218.1" y="457.6" width="7.5" height="12.4" fill="none" stroke="#e34948" stroke-width="1.1"/>
<rect x="231.7" y="461.3" width="7.5" height="8.7" fill="none" stroke="#e34948" stroke-width="1.1"/>
<rect x="245.4" y="458.2" width="7.5" height="11.8" fill="#008300"/>
<rect x="259.1" y="458.8" width="7.5" height="11.2" fill="none" stroke="#e34948" stroke-width="1.1"/>
<rect x="272.7" y="457.0" width="7.5" height="13.0" fill="none" stroke="#e34948" stroke-width="1.1"/>
<rect x="286.4" y="458.2" width="7.5" height="11.8" fill="#008300"/>
<rect x="300.1" y="460.7" width="7.5" height="9.3" fill="#008300"/>
<rect x="313.7" y="457.0" width="7.5" height="13.0" fill="#008300"/>
<rect x="327.4" y="457.6" width="7.5" height="12.4" fill="none" stroke="#e34948" stroke-width="1.1"/>
<rect x="341.1" y="455.1" width="7.5" height="14.9" fill="none" stroke="#e34948" stroke-width="1.1"/>
<rect x="354.7" y="457.6" width="7.5" height="12.4" fill="none" stroke="#e34948" stroke-width="1.1"/>
<rect x="368.4" y="461.3" width="7.5" height="8.7" fill="#008300"/>
<rect x="382.1" y="457.6" width="7.5" height="12.4" fill="#008300"/>
<rect x="395.7" y="457.6" width="7.5" height="12.4" fill="#008300"/>
<rect x="409.4" y="459.4" width="7.5" height="10.6" fill="none" stroke="#e34948" stroke-width="1.1"/>
<rect x="423.1" y="461.3" width="7.5" height="8.7" fill="none" stroke="#e34948" stroke-width="1.1"/>
<rect x="436.7" y="453.2" width="7.5" height="16.8" fill="#008300"/>
<rect x="450.4" y="460.1" width="7.5" height="9.9" fill="#008300"/>
<rect x="464.1" y="458.2" width="7.5" height="11.8" fill="none" stroke="#e34948" stroke-width="1.1"/>
<rect x="477.7" y="456.3" width="7.5" height="13.7" fill="#008300"/>
<rect x="491.4" y="460.1" width="7.5" height="9.9" fill="#008300"/>
<rect x="505.1" y="460.7" width="7.5" height="9.3" fill="#898781"/>
<rect x="518.7" y="459.4" width="7.5" height="10.6" fill="none" stroke="#e34948" stroke-width="1.1"/>
<rect x="532.4" y="438.9" width="7.5" height="31.1" fill="none" stroke="#e34948" stroke-width="1.1"/>
<rect x="546.1" y="452.0" width="7.5" height="18.0" fill="#008300"/>
<rect x="559.7" y="446.4" width="7.5" height="23.6" fill="none" stroke="#e34948" stroke-width="1.1"/>
<rect x="573.4" y="433.3" width="7.5" height="36.7" fill="none" stroke="#e34948" stroke-width="1.1"/>
<rect x="587.1" y="447.6" width="7.5" height="22.4" fill="#008300"/>
<rect x="600.7" y="439.6" width="7.5" height="30.4" fill="none" stroke="#e34948" stroke-width="1.1"/>
<rect x="614.4" y="447.0" width="7.5" height="23.0" fill="#008300"/>
<rect x="628.1" y="459.4" width="7.5" height="10.6" fill="#008300"/>
<rect x="655.4" y="457.6" width="7.5" height="12.4" fill="none" stroke="#e34948" stroke-width="1.1"/>
<rect x="669.1" y="444.5" width="7.5" height="25.5" fill="none" stroke="#e34948" stroke-width="1.1"/>
<rect x="682.7" y="388.0" width="7.5" height="82.0" fill="none" stroke="#e34948" stroke-width="1.1"/>
<rect x="696.4" y="445.2" width="7.5" height="24.8" fill="#008300"/>
<rect x="710.1" y="450.1" width="7.5" height="19.9" fill="#008300"/>
<rect x="723.7" y="457.0" width="7.5" height="13.0" fill="none" stroke="#e34948" stroke-width="1.1"/>
<rect x="737.4" y="453.2" width="7.5" height="16.8" fill="none" stroke="#e34948" stroke-width="1.1"/>
<rect x="751.1" y="457.0" width="7.5" height="13.0" fill="#008300"/>
<rect x="764.7" y="451.4" width="7.5" height="18.6" fill="none" stroke="#e34948" stroke-width="1.1"/>
<rect x="778.4" y="449.5" width="7.5" height="20.5" fill="none" stroke="#e34948" stroke-width="1.1"/>
<rect x="792.1" y="453.8" width="7.5" height="16.2" fill="#008300"/>
<rect x="805.7" y="450.1" width="7.5" height="19.9" fill="none" stroke="#e34948" stroke-width="1.1"/>
<rect x="819.4" y="453.8" width="7.5" height="16.2" fill="none" stroke="#e34948" stroke-width="1.1"/>
<polyline points="57.8,456.6 71.5,456.4 85.2,456.8 98.8,458.1 112.5,458.4 126.2,458.6 139.8,459.3 153.5,459.3 167.2,458.8 180.8,459.1 194.5,459.1 208.2,459.8 221.8,459.4 235.5,459.8 249.2,459.4 262.8,459.1 276.5,458.7 290.2,458.7 303.8,459.1 317.5,458.6 331.2,458.8 344.8,458.1 358.5,458.1 372.2,458.1 385.8,458.1 399.5,457.9 413.2,458.2 426.8,458.5 440.5,457.8 454.2,458.1 467.8,458.1 481.5,458.3 495.2,458.5 508.8,458.4 522.5,458.6 536.2,456.8 549.8,456.0 563.5,454.5 577.2,452.5 590.8,451.3 604.5,449.4 618.2,448.5 631.8,448.4 645.5,449.4 659.2,449.2 672.8,449.7 686.5,443.4 700.2,443.2 713.8,444.9 727.5,445.8 741.2,447.2 754.8,448.2 768.5,447.4 782.2,445.3 795.8,445.0 809.5,445.5 823.2,452.1" fill="none" stroke="#2a78d6" stroke-width="1.5" stroke-linejoin="round" stroke-linecap="round"/>
<polyline points="16.8,455.0 30.5,458.6 44.2,458.4 57.8,457.8 71.5,457.8 85.2,458.6 98.8,457.7 112.5,458.4 126.2,459.4 139.8,460.7 153.5,460.1 167.2,459.9 180.8,459.8 194.5,458.8 208.2,458.8 221.8,458.7 235.5,459.6 249.2,458.9 262.8,459.4 276.5,458.6 290.2,458.7 303.8,458.6 317.5,458.3 331.2,458.1 344.8,457.7 358.5,457.6 372.2,457.7 385.8,457.8 399.5,457.8 413.2,458.7 426.8,459.4 440.5,457.8 454.2,458.3 467.8,458.4 481.5,457.8 495.2,457.6 508.8,459.1 522.5,458.9 536.2,455.1 549.8,454.2 563.5,451.5 577.2,446.0 590.8,443.7 604.5,443.8 618.2,442.8 631.8,445.4 645.5,452.7 659.2,454.7 672.8,455.7 686.5,443.9 700.2,441.1 713.8,437.1 727.5,437.0 741.2,438.7 754.8,452.5 768.5,453.7 782.2,453.6 795.8,453.0 809.5,452.4 823.2,451.7" fill="none" stroke="#eda100" stroke-width="1.5" stroke-linejoin="round" stroke-linecap="round"/>
</svg>