<svg xmlns="http://www.w3.org/2000/svg" viewBox="0 0 840 496" width="840" height="496" font-family="-apple-system,&#39;Segoe UI&#39;,system-ui,sans-serif" role="img" aria-label="torvalds/linux candlestick chart">
<text x="14.0" y="20.0" font-size="15" fill="#0b0b0b" font-weight="650">torvalds/linux</text>
<text x="133.5" y="20.0" font-size="11.5" fill="#52514e">daily · new stars, volume = new forks</text>
<text x="805.8" y="20.0" font-size="11.0" fill="#52514e">fall</text>
<rect x="791" y="10" width="9" height="12" fill="#008300"/>
<text x="750.6" y="20.0" font-size="11.0" fill="#52514e">rise</text>
<rect x="736" y="10" width="9" height="12" fill="none" stroke="#e34948" stroke-width="1.5"/>
<text x="14.0" y="38.0" font-size="11.0" fill="#898781">last 60 days · +6,639 stars · +1,497 forks · updated 2026-07-24</text>
<rect x="10" y="66" width="820" height="290" fill="none" stroke="#e1e0d9"/>
<rect x="10" y="384" width="820" height="86" fill="none" stroke="#e1e0d9"/>
<text x="38.0" y="490.0" font-size="11.0" fill="#898781" text-anchor="middle">2026-05</text>
<line x1="105.7" y1="66.0" x2="105.7" y2="356.0" stroke="#e1e0d9" stroke-width="1.0"/>
<line x1="105.7" y1="384.0" x2="105.7" y2="470.0" stroke="#e1e0d9" stroke-width="1.0"/>
<text x="112.5" y="490.0" font-size="11.0" fill="#898781" text-anchor="middle">2026-06</text>
<line x1="515.7" y1="66.0" x2="515.7" y2="356.0" stroke="#e1e0d9" stroke-width="1.0"/>
<line x1="515.7" y1="384.0" x2="515.7" y2="470.0" stroke="#e1e0d9" stroke-width="1.0"/>
<text x="522.5" y="490.0" font-size="11.0" fill="#898781" text-anchor="middle">2026-07</text>
<text x="14.0" y="58.0" font-size="11.0" fill="#52514e">BOLL(20,2)</text>
<text x="84.5" y="58.0" font-size="11.0" fill="#eda100">UP:170.3</text>
<text x="142.9" y="58.0" font-size="11.0" fill="#2a78d6">MID:104.7</text>
<text x="207.4" y="58.0" font-size="11.0" fill="#e87ba4">LOW:39.1</text>
<text x="265.8" y="58.0" font-size="11.0" fill="#4a3aa7">MA7:99.3</text>
<line x1="10.0" y1="356.0" x2="830.0" y2="356.0" stroke="#e1e0d9" stroke-width="1.0"/>
<text x="14.0" y="353.0" font-size="11.0" fill="#898781">0</text>
<line x1="10.0" y1="281.7" x2="830.0" y2="281.7" stroke="#e1e0d9" stroke-width="1.0"/>
<text x="14.0" y="278.7" font-size="11.0" fill="#898781">50</text>
<line x1="10.0" y1="207.4" x2="830.0" y2="207.4" stroke="#e1e0d9" stroke-width="1.0"/>
<text x="14.0" y="204.4" font-size="11.0" fill="#898781">100</text>
<line x1="10.0" y1="133.0" x2="830.0" y2="133.0" stroke="#e1e0d9" stroke-width="1.0"/>
<text x="14.0" y="130.0" font-size="11.0" fill="#898781">150</text>
<polyline points="167.2,141.9 180.8,140.0 194.5,139.6 208.2,144.8 221.8,148.5 235.5,155.2 249.2,154.4 262.8,154.7 276.5,155.3 290.2,156.0 303.8,157.2 317.5,153.5 331.2,146.1 344.8,142.5 358.5,142.5 372.2,140.1 385.8,140.1 399.5,140.0 413.2,140.5 426.8,140.6 440.5,140.6 454.2,142.4 467.8,142.3 481.5,142.5 495.2,142.3 508.8,138.6 522.5,139.9 536.2,132.3 549.8,113.6 563.5,112.2 577.2,108.1 590.8,108.3 604.5,98.9 618.2,101.8 631.8,101.9 645.5,99.7 659.2,82.8 672.8,82.8 686.5,79.8 700.2,79.9 713.8,83.1 727.5,83.2 741.2,83.2 754.8,82.8 768.5,83.2 782.2,86.5 795.8,83.1 809.5,86.7 823.2,102.8" fill="none" stroke="#eda100" stroke-width="1.5" stroke-linejoin="round" stroke-linecap="round"/>
<polyline points="167.2,184.4 180.8,186.8 194.5,186.2 208.2,188.0 221.8,190.1 235.5,191.8 249.2,191.5 262.8,190.7 276.5,191.6 290.2,192.9 303.8,193.3 317.5,192.2 331.2,188.6 344.8,187.4 358.5,187.4 372.2,188.6 385.8,188.4 399.5,188.1 413.2,188.9 426.8,189.4 440.5,189.4 454.2,188.1 467.8,189.8 481.5,191.5 495.2,191.0 508.8,189.7 522.5,191.0 536.2,188.1 549.8,182.6 563.5,180.4 577.2,178.6 590.8,178.7 604.5,186.9 618.2,191.1 631.8,192.1 645.5,188.4 659.2,182.2 672.8,182.2 686.5,185.5 700.2,186.0 713.8,187.7 727.5,188.4 741.2,188.4 754.8,187.2 768.5,188.5 782.2,190.9 795.8,188.4 809.5,194.9 823.2,200.4" fill="none" stroke="#2a78d6" stroke-width="1.5" stroke-linejoin="round" stroke-linecap="round"/>
<polyline points="167.2,226.9 180.8,233.6 194.5,232.8 208.2,231.2 221.8,231.6 235.5,228.5 249.2,228.6 262.8,226.7 276.5,227.9 290.2,229.9 303.8,229.4 317.5,230.9 331.2,231.0 344.8,232.2 358.5,232.2 372.2,237.1 385.8,236.7 399.5,236.2 413.2,237.2 426.8,238.2 440.5,238.2 454.2,233.9 467.8,237.3 481.5,240.4 495.2,239.7 508.8,240.7 522.5,242.1 536.2,243.9 549.8,251.6 563.5,248.5 577.2,249.1 590.8,249.1 604.5,274.8 618.2,280.4 631.8,282.2 645.5,277.1 659.2,281.7 672.8,281.7 686.5,291.2 700.2,292.2 713.8,292.4 727.5,293.7 741.2,293.7 754.8,291.6 768.5,293.8 782.2,295.2 795.8,293.7 809.5,303.1 823.2,297.9" fill="none" stroke="#e87ba4" stroke-width="1.5" stroke-linejoin="round" stroke-linecap="round"/>
<polyline points="16.8,174.2 30.5,177.0 44.2,180.2 57.8,190.1 71.5,189.1 85.2,187.6 98.8,191.5 112.5,195.0 126.2,199.5 139.8,199.9 153.5,196.8 167.2,192.4 180.8,196.4 194.5,192.5 208.2,188.9 221.8,189.4 235.5,188.9 249.2,186.6 262.8,193.8 276.5,190.0 290.2,193.5 303.8,192.4 317.5,186.4 331.2,180.8 344.8,177.5 358.5,178.1 372.2,182.7 385.8,182.1 399.5,184.6 413.2,190.4 426.8,199.0 440.5,198.0 454.2,198.4 467.8,195.9 481.5,197.6 495.2,197.6 508.8,191.2 522.5,191.2 536.2,190.1 549.8,174.2 563.5,166.8 577.2,155.5 590.8,151.0 604.5,172.7 618.2,177.6 631.8,189.4 645.5,199.3 659.2,187.4 672.8,195.0 686.5,209.9 700.2,196.8 713.8,188.5 727.5,188.0 741.2,195.9 754.8,211.7 768.5,215.4 782.2,206.5 795.8,198.0 809.5,210.5 823.2,208.4" fill="none" stroke="#4a3aa7" stroke-width="1.5" stroke-linejoin="round" stroke-linecap="round"/>
<rect x="13.1" y="183.6" width="7.5" height="1.5" fill="none" stroke="#e34948" stroke-width="1.3"/>
<rect x="26.7" y="167.2" width="7.5" height="16.3" fill="none" stroke="#e34948" stroke-width="1.3"/>
<rect x="40.4" y="167.2" width="7.5" height="14.9" fill="#008300"/>
<rect x="54.1" y="182.1" width="7.5" height="34.2" fill="#008300"/>
<rect x="67.7" y="177.6" width="7.5" height="38.6" fill="none" stroke="#e34948" stroke-width="1.3"/>
<rect x="81.4" y="177.6" width="7.5" height="23.8" fill="#008300"/>
<rect x="95.1" y="201.4" width="7.5" height="10.4" fill="#008300"/>
<rect x="108.7" y="208.9" width="7.5" height="3.0" fill="none" stroke="#e34948" stroke-width="1.3"/>
<rect x="122.4" y="198.4" width="7.5" height="10.4" fill="none" stroke="#e34948" stroke-width="1.3"/>
<rect x="136.1" y="185.1" width="7.5" height="13.4" fill="none" stroke="#e34948" stroke-width="1.3"/>
<rect x="149.7" y="185.1" width="7.5" height="8.9" fill="#008300"/>
<rect x="163.4" y="146.4" width="7.5" height="47.6" fill="none" stroke="#e34948" stroke-width="1.3"/>
<rect x="177.1" y="146.4" width="7.5" height="83.2" fill="#008300"/>
<rect x="190.7" y="185.1" width="7.5" height="44.6" fill="none" stroke="#e34948" stroke-width="1.3"/>
<rect x="204.4" y="183.6" width="7.5" height="1.5" fill="none" stroke="#e34948" stroke-width="1.3"/>
<rect x="218.1" y="183.6" width="7.5" height="17.8" fill="#008300"/>
<rect x="231.7" y="182.1" width="7.5" height="19.3" fill="none" stroke="#e34948" stroke-width="1.3"/>
<rect x="245.4" y="177.6" width="7.5" height="4.5" fill="none" stroke="#e34948" stroke-width="1.3"/>
<rect x="259.1" y="177.6" width="7.5" height="19.3" fill="#008300"/>
<rect x="272.7" y="197.0" width="7.5" height="5.9" fill="#008300"/>
<rect x="286.4" y="202.9" width="7.5" height="7.4" fill="#008300"/>
<rect x="300.1" y="174.7" width="7.5" height="35.7" fill="none" stroke="#e34948" stroke-width="1.3"/>
<rect x="313.7" y="159.8" width="7.5" height="14.9" fill="none" stroke="#e34948" stroke-width="1.3"/>
<rect x="327.4" y="143.5" width="7.5" height="16.3" fill="none" stroke="#e34948" stroke-width="1.3"/>
<rect x="341.1" y="143.5" width="7.5" height="10.4" fill="#008300"/>
<rect x="354.7" y="153.9" width="7.5" height="47.6" fill="#008300"/>
<rect x="368.4" y="201.4" width="7.5" height="34.2" fill="#008300"/>
<rect x="382.1" y="205.9" width="7.5" height="29.7" fill="none" stroke="#e34948" stroke-width="1.3"/>
<rect x="395.7" y="192.5" width="7.5" height="13.4" fill="none" stroke="#e34948" stroke-width="1.3"/>
<rect x="409.4" y="192.5" width="7.5" height="7.4" fill="#008300"/>
<rect x="423.1" y="199.9" width="7.5" height="4.5" fill="#008300"/>
<rect x="436.7" y="146.4" width="7.5" height="58.0" fill="none" stroke="#e34948" stroke-width="1.3"/>
<rect x="450.4" y="146.4" width="7.5" height="58.0" fill="#008300"/>
<rect x="464.1" y="204.4" width="7.5" height="13.4" fill="#008300"/>
<rect x="477.7" y="217.8" width="7.5" height="1.2" fill="#898781"/>
<rect x="491.4" y="192.5" width="7.5" height="25.3" fill="none" stroke="#e34948" stroke-width="1.3"/>
<rect x="505.1" y="155.3" width="7.5" height="37.2" fill="none" stroke="#e34948" stroke-width="1.3"/>
<rect x="518.7" y="155.3" width="7.5" height="49.0" fill="#008300"/>
<rect x="532.4" y="139.0" width="7.5" height="65.4" fill="none" stroke="#e34948" stroke-width="1.3"/>
<rect x="546.1" y="92.9" width="7.5" height="46.1" fill="none" stroke="#e34948" stroke-width="1.3"/>
<rect x="559.7" y="92.9" width="7.5" height="72.8" fill="#008300"/>
<rect x="573.4" y="139.0" width="7.5" height="26.8" fill="none" stroke="#e34948" stroke-width="1.3"/>
<rect x="587.1" y="139.0" width="7.5" height="22.3" fill="#008300"/>
<rect x="600.7" y="161.3" width="7.5" height="145.7" fill="#008300"/>
<rect x="614.4" y="238.6" width="7.5" height="68.4" fill="none" stroke="#e34948" stroke-width="1.3"/>
<rect x="628.1" y="220.7" width="7.5" height="17.8" fill="none" stroke="#e34948" stroke-width="1.3"/>
<rect x="641.7" y="162.8" width="7.5" height="58.0" fill="none" stroke="#e34948" stroke-width="1.3"/>
<rect x="655.4" y="82.5" width="7.5" height="80.3" fill="none" stroke="#e34948" stroke-width="1.3"/>
<rect x="669.1" y="82.5" width="7.5" height="110.0" fill="#008300"/>
<rect x="682.7" y="192.5" width="7.5" height="72.8" fill="#008300"/>
<rect x="696.4" y="214.8" width="7.5" height="50.5" fill="none" stroke="#e34948" stroke-width="1.3"/>
<rect x="710.1" y="180.6" width="7.5" height="34.2" fill="none" stroke="#e34948" stroke-width="1.3"/>
<rect x="723.7" y="180.6" width="7.5" height="37.2" fill="#008300"/>
<rect x="737.4" y="217.8" width="7.5" height="138.2" fill="none" stroke="#e34948" stroke-width="1.3"/>
<rect x="751.1" y="192.5" width="7.5" height="25.3" fill="none" stroke="#e34948" stroke-width="1.3"/>
<rect x="764.7" y="192.5" width="7.5" height="26.8" fill="#008300"/>
<rect x="778.4" y="202.9" width="7.5" height="16.3" fill="none" stroke="#e34948" stroke-width="1.3"/>
<rect x="792.1" y="155.3" width="7.5" height="47.6" fill="none" stroke="#e34948" stroke-width="1.3"/>
<rect x="805.7" y="155.3" width="7.5" height="113.0" fill="#008300"/>
<rect x="819.4" y="202.9" width="7.5" height="65.4" fill="none" stroke="#e34948" stroke-width="1.3"/>
<circle cx="659.2" cy="82.5" r="2" fill="#52514e"/>
<line x1="659.2" y1="82.5" x2="651.2" y2="82.5" stroke="#52514e" stroke-width="1.0"/>
<text x="648.2" y="86.5" font-size="11.0" fill="#52514e" text-anchor="end">184</text>
<circle cx="741.2" cy="356.0" r="2" fill="#52514e"/>
<line x1="741.2" y1="356.0" x2="733.2" y2="356.0" stroke="#52514e" stroke-width="1.0"/>
<text x="730.2" y="350.0" font-size="11.0" fill="#52514e" text-anchor="end">0</text>
<text x="14.0" y="376.0" font-size="11.0" fill="#52514e">VOL 0 forks</text>
<text x="90.6" y="376.0" font-size="11.0" fill="#eda100">MA5:25.4</text>
<text x="149.0" y="376.0" font-size="11.0" fill="#2a78d6">MA10:25.9</text>
<text x="14.0" y="395.0" font-size="10" fill="#898781">132</text>
<rect x="13.1" y="458.2" width="7.5" height="11.8" fill="none" stroke="#e34948" stroke-width="1.1"/>
<rect x="26.7" y="456.3" width="7.5" height="13.7" fill="none" stroke="#e34948" stroke-width="1.1"/>
<rect x="40.4" y="455.1" width="7.5" height="14.9" fill="#008300"/>
<rect x="54.1" y="461.3" width="7.5" height="8.7" fill="#008300"/>
<rect x="67.7" y="457.6" width="7.5" height="12.4" fill="none" stroke="#e34948" stroke-width="1.1"/>
<rect x="81.4" y="461.9" width="7.5" height="8.1" fill="#008300"/>
<rect x="95.1" y="461.3" width="7.5" height="8.7" fill="#008300"/>
<rect x="108.7" y="461.3" width="7.5" height="8.7" fill="none" stroke="#e34948" stroke-width="1.1"/>
<rect x="122.4" y="458.2" width="7.5" height="11.8" fill="none" stroke="#e34948" stroke-width="1.1"/>
<rect x="136.1" y="457.0" width="7.5" height="13.0" fill="none" stroke="#e34948" stroke-width="1.1"/>
<rect x="149.7" y="461.3" width="7.5" height="8.7" fill="#008300"/>
<rect x="163.4" y="456.3" width="7.5" height="13.7" fill="none" stroke="#e34948" stroke-width="1.1"/>
<rect x="177.1" y="461.3" width="7.5" height="8.7" fill="#008300"/>
<rect x="190.7" y="457.6" width="7.5" height="12.4" fill="none" stroke="#e34948" stroke-width="1.1"/>
<rect x="204.4" y="461.3" width="7.5" height="8.7" fill="none" stroke="#e34948" stroke-width="1.1"/>
<rect x="218.1" y="458.2" width="7.5" height="11.8" fill="#008300"/>
<rect x="231.7" y="458.8" width="7.5" height="11.2" fill="none" stroke="#e34948" stroke-width="1.1"/>
<rect x="245.4" y="457.0" width="7.5" height="13.0" fill="none" stroke="#e34948" stroke-width="1.1"/>
<rect x="259.1" y="458.2" width="7.5" height="11.8" fill="#008300"/>
<rect x="272.7" y="460.7" width="7.5" height="9.3" fill="#008300"/>
<rect x="286.4" y="457.0" width="7.5" height="13.0" fill="#008300"/>
<rect x="300.1" y="457.6" width="7.5" height="12.4" fill="none" stroke="#e34948" stroke-width="1.1"/>
<rect x="313.7" y="455.1" width="7.5" height="14.9" fill="none" stroke="#e34948" stroke-width="1.1"/>
<rect x="327.4" y="457.6" width="7.5" height="12.4" fill="none" stroke="#e34948" stroke-width="1.1"/>
<rect x="341.1" y="461.3" width="7.5" height="8.7" fill="#008300"/>
<rect x="354.7" y="457.6" width="7.5" height="12.4" fill="#008300"/>
<rect x="368.4" y="457.6" width="7.5" height="12.4" fill="#008300"/>
<rect x="382.1" y="459.4" width="7.5" height="10.6" fill="none" stroke="#e34948" stroke-width="1.1"/>
<rect x="395.7" y="461.3" width="7.5" height="8.7" fill="none" stroke="#e34948" stroke-width="1.1"/>
<rect x="409.4" y="453.2" width="7.5" height="16.8" fill="#008300"/>
<rect x="423.1" y="460.1" width="7.5" height="9.9" fill="#008300"/>
<rect x="436.7" y="458.2" width="7.5" height="11.8" fill="none" stroke="#e34948" stroke-width="1.1"/>
<rect x="450.4" y="456.3" width="7.5" height="13.7" fill="#008300"/>
<rect x="464.1" y="460.1" width="7.5" height="9.9" fill="#008300"/>
<rect x="477.7" y="460.7" width="7.5" height="9.3" fill="#898781"/>
<rect x="491.4" y="459.4" width="7.5" height="10.6" fill="none" stroke="#e34948" stroke-width="1.1"/>
<rect x="505.1" y="438.9" width="7.5" height="31.1" fill="none" stroke="#e34948" stroke-width="1.1"/>
<rect x="518.7" y="452.0" width="7.5" height="18.0" fill="#008300"/>
<rect x="532.4" y="446.4" width="7.5" height="23.6" fill="none" stroke="#e34948" stroke-width="1.1"/>
<rect x="546.1" y="433.3" width="7.5" height="36.7" fill="none" stroke="#e34948" stroke-width="1.1"/>
<rect x="559.7" y="447.6" width="7.5" height="22.4" fill="#008300"/>
<rect x="573.4" y="439.6" width="7.5" height="30.4" fill="none" stroke="#e34948" stroke-width="1.1"/>
<rect x="587.1" y="447.0" width="7.5" height="23.0" fill="#008300"/>
<rect x="600.7" y="459.4" width="7.5" height="10.6" fill="#008300"/>
<rect x="628.1" y="457.6" width="7.5" height="12.4" fill="none" stroke="#e34948" stroke-width="1.1"/>
<rect x="641.7" y="444.5" width="7.5" height="25.5" fill="none" stroke="#e34948" stroke-width="1.1"/>
<rect x="655.4" y="388.0" width="7.5" height="82.0" fill="none" stroke="#e34948" stroke-width="1.1"/>
<rect x="669.1" y="445.2" width="7.5" height="24.8" fill="#008300"/>
<rect x="682.7" y="450.1" width="7.5" height="19.9" fill="#008300"/>
<rect x="696.4" y="457.0" width="7.5" height="13.0" fill="none" stroke="#e34948" stroke-width="1.1"/>
<rect x="710.1" y="453.2" width="7.5" height="16.8" fill="none" stroke="#e34948" stroke-width="1.1"/>
<rect x="723.7" y="457.0" width="7.5" height="13.0" fill="#008300"/>
<rect x="737.4" y="451.4" width="7.5" height="18.6" fill="none" stroke="#e34948" stroke-width="1.1"/>
<rect x="751.1" y="449.5" width="7.5" height="20.5" fill="none" stroke="#e34948" stroke-width="1.1"/>
<rect x="764.7" y="453.8" width="7.5" height="16.2" fill="#008300"/>
<rect x="778.4" y="450.1" width="7.5" height="19.9" fill="none" stroke="#e34948" stroke-width="1.1"/>
<rect x="792.1" y="453.8" width="7.5" height="16.2" fill="none" stroke="#e34948" stroke-width="1.1"/>
<rect x="805.7" y="443.3" width="7.5" height="26.7" fill="#008300"/>
<polyline points="30.5,456.6 44.2,456.4 57.8,456.8 71.5,458.1 85.2,458.4 98.8,458.6 112.5,459.3 126.2,459.3 139.8,458.8 153.5,459.1 167.2,459.1 180.8,459.8 194.5,459.4 208.2,459.8 221.8,459.4 235.5,459.1 249.2,458.7 262.8,458.7 276.5,459.1 290.2,458.6 303.8,458.8 317.5,458.1 331.2,458.1 344.8,458.1 358.5,458.1 372.2,457.9 385.8,458.2 399.5,458.5 413.2,457.8 426.8,458.1 440.5,458.1 454.2,458.3 467.8,458.5 481.5,458.4 495.2,458.6 508.8,456.8 522.5,456.0 536.2,454.5 549.8,452.5 563.5,451.3 577.2,449.4 590.8,448.5 604.5,448.4 618.2,449.4 631.8,449.2 645.5,449.7 659.2,443.4 672.8,443.2 686.5,444.9 700.2,445.8 713.8,447.2 727.5,448.2 741.2,447.4 754.8,445.3 768.5,445.0 782.2,445.5 795.8,452.1 809.5,451.9 823.2,453.9" fill="none" stroke="#2a78d6" stroke-width="1.5" stroke-linejoin="round" stroke-linecap="round"/>
<polyline points="16.8,458.4 30.5,457.8 44.2,457.8 57.8,458.6 71.5,457.7 85.2,458.4 98.8,459.4 112.5,460.7 126.2,460.1 139.8,459.9 153.5,459.8 167.2,458.8 180.8,458.8 194.5,458.7 208.2,459.6 221.8,458.9 235.5,459.4 249.2,458.6 262.8,458.7 276.5,458.6 290.2,458.3 303.8,458.1 317.5,457.7 331.2,457.6 344.8,457.7 358.5,457.8 372.2,457.8 385.8,458.7 399.5,459.4 413.2,457.8 426.8,458.3 440.5,458.4 454.2,457.8 467.8,457.6 481.5,459.1 495.2,458.9 508.8,455.1 522.5,454.2 536.2,451.5 549.8,446.0 563.5,443.7 577.2,443.8 590.8,442.8 604.5,445.4 618.2,452.7 631.8,454.7 645.5,455.7 659.2,443.9 672.8,441.1 686.5,437.1 700.2,437.0 713.8,438.7 727.5,452.5 741.2,453.7 754.8,453.6 768.5,453.0 782.2,452.4 795.8,451.7 809.5,450.1 823.2,454.2" fill="none" stroke="#eda100" stroke-width="1.5" stroke-linejoin="round" stroke-linecap="round"/>
</svg>