<svg xmlns="http://www.w3.org/2000/svg" viewBox="0 0 840 496" width="840" height="496" font-family="-apple-system,&#39;Segoe UI&#39;,system-ui,sans-serif" role="img" aria-label="torvalds/linux candlestick chart">
<text x="14.0" y="20.0" font-size="15" fill="#ffffff" font-weight="650">torvalds/linux</text>
<text x="133.5" y="20.0" font-size="11.5" fill="#c3c2b7">daily · new stars, volume = new forks</text>
<text x="805.8" y="20.0" font-size="11.0" fill="#c3c2b7">fall</text>
<rect x="791" y="10" width="9" height="12" fill="#008300"/>
<text x="750.6" y="20.0" font-size="11.0" fill="#c3c2b7">rise</text>
<rect x="736" y="10" width="9" height="12" fill="none" stroke="#e66767" stroke-width="1.5"/>
<text x="14.0" y="38.0" font-size="11.0" fill="#898781">last 53 days · +6,026 stars · +1,147 forks · updated 2026-07-08</text>
<rect x="10" y="66" width="820" height="290" fill="none" stroke="#2c2c2a"/>
<rect x="10" y="384" width="820" height="86" fill="none" stroke="#2c2c2a"/>
<text x="38.0" y="490.0" font-size="11.0" fill="#898781" text-anchor="middle">2026-05</text>
<line x1="242.1" y1="66.0" x2="242.1" y2="356.0" stroke="#2c2c2a" stroke-width="1.0"/>
<line x1="242.1" y1="384.0" x2="242.1" y2="470.0" stroke="#2c2c2a" stroke-width="1.0"/>
<text x="249.8" y="490.0" font-size="11.0" fill="#898781" text-anchor="middle">2026-06</text>
<line x1="706.2" y1="66.0" x2="706.2" y2="356.0" stroke="#2c2c2a" stroke-width="1.0"/>
<line x1="706.2" y1="384.0" x2="706.2" y2="470.0" stroke="#2c2c2a" stroke-width="1.0"/>
<text x="714.0" y="490.0" font-size="11.0" fill="#898781" text-anchor="middle">2026-07</text>
<text x="14.0" y="58.0" font-size="11.0" fill="#c3c2b7">BOLL(20,2)</text>
<text x="84.5" y="58.0" font-size="11.0" fill="#c98500">UP:171.0</text>
<text x="142.9" y="58.0" font-size="11.0" fill="#3987e5">MID:111.0</text>
<text x="207.4" y="58.0" font-size="11.0" fill="#d55181">LOW:50.9</text>
<text x="265.8" y="58.0" font-size="11.0" fill="#9085e9">MA7:120</text>
<line x1="10.0" y1="356.0" x2="830.0" y2="356.0" stroke="#2c2c2a" stroke-width="1.0"/>
<text x="14.0" y="353.0" font-size="11.0" fill="#898781">0</text>
<line x1="10.0" y1="278.0" x2="830.0" y2="278.0" stroke="#2c2c2a" stroke-width="1.0"/>
<text x="14.0" y="275.0" font-size="11.0" fill="#898781">50</text>
<line x1="10.0" y1="200.0" x2="830.0" y2="200.0" stroke="#2c2c2a" stroke-width="1.0"/>
<text x="14.0" y="197.0" font-size="11.0" fill="#898781">100</text>
<line x1="10.0" y1="121.9" x2="830.0" y2="121.9" stroke="#2c2c2a" stroke-width="1.0"/>
<text x="14.0" y="118.9" font-size="11.0" fill="#898781">150</text>
<polyline points="311.7,131.2 327.2,129.2 342.6,128.8 358.1,134.3 373.6,138.2 389.1,145.1 404.5,144.3 420.0,144.7 435.5,145.3 450.9,146.0 466.4,147.3 481.9,143.4 497.4,135.7 512.8,131.9 528.3,131.9 543.8,129.3 559.2,129.4 574.7,129.3 590.2,129.8 605.7,129.9 621.1,129.9 636.6,131.7 652.1,131.6 667.5,131.9 683.0,131.6 698.5,127.8 714.0,129.1 729.4,121.2 744.9,101.5 760.4,100.1 775.8,95.8 791.3,95.9 806.8,86.1 822.3,89.1" fill="none" stroke="#c98500" stroke-width="1.5" stroke-linejoin="round" stroke-linecap="round"/>
<polyline points="311.7,175.9 327.2,178.3 342.6,177.7 358.1,179.6 373.6,181.8 389.1,183.7 404.5,183.3 420.0,182.5 435.5,183.4 450.9,184.8 466.4,185.2 481.9,184.0 497.4,180.2 512.8,179.0 528.3,179.0 543.8,180.2 559.2,180.1 574.7,179.8 590.2,180.5 605.7,181.1 621.1,181.1 636.6,179.8 652.1,181.5 667.5,183.3 683.0,182.8 698.5,181.4 714.0,182.8 729.4,179.8 744.9,174.0 760.4,171.6 775.8,169.8 791.3,169.8 806.8,178.4 822.3,182.9" fill="none" stroke="#3987e5" stroke-width="1.5" stroke-linejoin="round" stroke-linecap="round"/>
<polyline points="311.7,220.5 327.2,227.5 342.6,226.6 358.1,224.9 373.6,225.4 389.1,222.2 404.5,222.2 420.0,220.3 435.5,221.5 450.9,223.6 466.4,223.1 481.9,224.6 497.4,224.8 512.8,226.1 528.3,226.1 543.8,231.2 559.2,230.7 574.7,230.2 590.2,231.3 605.7,232.3 621.1,232.3 636.6,227.8 652.1,231.3 667.5,234.6 683.0,233.9 698.5,235.0 714.0,236.5 729.4,238.3 744.9,246.4 760.4,243.2 775.8,243.8 791.3,243.8 806.8,270.7 822.3,276.6" fill="none" stroke="#d55181" stroke-width="1.5" stroke-linejoin="round" stroke-linecap="round"/>
<polyline points="110.6,166.7 126.0,167.2 141.5,165.2 157.0,168.1 172.5,171.4 187.9,181.9 203.4,180.8 218.9,179.2 234.3,183.3 249.8,187.0 265.3,191.7 280.8,192.2 296.2,188.9 311.7,184.2 327.2,188.4 342.6,184.4 358.1,180.6 373.6,181.1 389.1,180.6 404.5,178.1 420.0,185.8 435.5,181.7 450.9,185.4 466.4,184.2 481.9,178.0 497.4,172.0 512.8,168.6 528.3,169.2 543.8,174.1 559.2,173.4 574.7,176.1 590.2,182.2 605.7,191.2 621.1,190.1 636.6,190.6 652.1,187.9 667.5,189.7 683.0,189.7 698.5,183.0 714.0,183.0 729.4,181.9 744.9,165.2 760.4,157.4 775.8,145.5 791.3,140.8 806.8,163.6 822.3,168.8" fill="none" stroke="#9085e9" stroke-width="1.5" stroke-linejoin="round" stroke-linecap="round"/>
<rect x="13.5" y="173.4" width="8.5" height="182.6" fill="none" stroke="#e66767" stroke-width="1.3"/>
<rect x="29.0" y="173.4" width="8.5" height="15.6" fill="#008300"/>
<rect x="44.4" y="137.5" width="8.5" height="51.5" fill="none" stroke="#e66767" stroke-width="1.3"/>
<rect x="59.9" y="137.5" width="8.5" height="12.5" fill="#008300"/>
<rect x="75.4" y="136.0" width="8.5" height="14.0" fill="none" stroke="#e66767" stroke-width="1.3"/>
<rect x="90.8" y="136.0" width="8.5" height="40.6" fill="#008300"/>
<rect x="106.3" y="176.6" width="8.5" height="28.1" fill="#008300"/>
<rect x="121.8" y="176.6" width="8.5" height="28.1" fill="none" stroke="#e66767" stroke-width="1.3"/>
<rect x="137.3" y="175.0" width="8.5" height="1.6" fill="none" stroke="#e66767" stroke-width="1.3"/>
<rect x="152.7" y="157.8" width="8.5" height="17.2" fill="none" stroke="#e66767" stroke-width="1.3"/>
<rect x="168.2" y="157.8" width="8.5" height="15.6" fill="#008300"/>
<rect x="183.7" y="173.4" width="8.5" height="35.9" fill="#008300"/>
<rect x="199.1" y="168.8" width="8.5" height="40.6" fill="none" stroke="#e66767" stroke-width="1.3"/>
<rect x="214.6" y="168.8" width="8.5" height="25.0" fill="#008300"/>
<rect x="230.1" y="193.7" width="8.5" height="10.9" fill="#008300"/>
<rect x="245.6" y="201.5" width="8.5" height="3.1" fill="none" stroke="#e66767" stroke-width="1.3"/>
<rect x="261.0" y="190.6" width="8.5" height="10.9" fill="none" stroke="#e66767" stroke-width="1.3"/>
<rect x="276.5" y="176.6" width="8.5" height="14.0" fill="none" stroke="#e66767" stroke-width="1.3"/>
<rect x="292.0" y="176.6" width="8.5" height="9.4" fill="#008300"/>
<rect x="307.4" y="136.0" width="8.5" height="49.9" fill="none" stroke="#e66767" stroke-width="1.3"/>
<rect x="322.9" y="136.0" width="8.5" height="87.4" fill="#008300"/>
<rect x="338.4" y="176.6" width="8.5" height="46.8" fill="none" stroke="#e66767" stroke-width="1.3"/>
<rect x="353.9" y="175.0" width="8.5" height="1.6" fill="none" stroke="#e66767" stroke-width="1.3"/>
<rect x="369.3" y="175.0" width="8.5" height="18.7" fill="#008300"/>
<rect x="384.8" y="173.4" width="8.5" height="20.3" fill="none" stroke="#e66767" stroke-width="1.3"/>
<rect x="400.3" y="168.8" width="8.5" height="4.7" fill="none" stroke="#e66767" stroke-width="1.3"/>
<rect x="415.7" y="168.8" width="8.5" height="20.3" fill="#008300"/>
<rect x="431.2" y="189.0" width="8.5" height="6.2" fill="#008300"/>
<rect x="446.7" y="195.3" width="8.5" height="7.8" fill="#008300"/>
<rect x="462.2" y="165.6" width="8.5" height="37.4" fill="none" stroke="#e66767" stroke-width="1.3"/>
<rect x="477.6" y="150.0" width="8.5" height="15.6" fill="none" stroke="#e66767" stroke-width="1.3"/>
<rect x="493.1" y="132.9" width="8.5" height="17.2" fill="none" stroke="#e66767" stroke-width="1.3"/>
<rect x="508.6" y="132.9" width="8.5" height="10.9" fill="#008300"/>
<rect x="524.0" y="143.8" width="8.5" height="49.9" fill="#008300"/>
<rect x="539.5" y="193.7" width="8.5" height="35.9" fill="#008300"/>
<rect x="555.0" y="198.4" width="8.5" height="31.2" fill="none" stroke="#e66767" stroke-width="1.3"/>
<rect x="570.5" y="184.4" width="8.5" height="14.0" fill="none" stroke="#e66767" stroke-width="1.3"/>
<rect x="585.9" y="184.4" width="8.5" height="7.8" fill="#008300"/>
<rect x="601.4" y="192.2" width="8.5" height="4.7" fill="#008300"/>
<rect x="616.9" y="136.0" width="8.5" height="60.9" fill="none" stroke="#e66767" stroke-width="1.3"/>
<rect x="632.3" y="136.0" width="8.5" height="60.9" fill="#008300"/>
<rect x="647.8" y="196.8" width="8.5" height="14.0" fill="#008300"/>
<rect x="663.3" y="210.9" width="8.5" height="1.2" fill="#898781"/>
<rect x="678.8" y="184.4" width="8.5" height="26.5" fill="none" stroke="#e66767" stroke-width="1.3"/>
<rect x="694.2" y="145.3" width="8.5" height="39.0" fill="none" stroke="#e66767" stroke-width="1.3"/>
<rect x="709.7" y="145.3" width="8.5" height="51.5" fill="#008300"/>
<rect x="725.2" y="128.2" width="8.5" height="68.7" fill="none" stroke="#e66767" stroke-width="1.3"/>
<rect x="740.7" y="79.8" width="8.5" height="48.4" fill="none" stroke="#e66767" stroke-width="1.3"/>
<rect x="756.1" y="79.8" width="8.5" height="76.5" fill="#008300"/>
<rect x="771.6" y="128.2" width="8.5" height="28.1" fill="none" stroke="#e66767" stroke-width="1.3"/>
<rect x="787.1" y="128.2" width="8.5" height="23.4" fill="#008300"/>
<rect x="802.5" y="151.6" width="8.5" height="152.9" fill="#008300"/>
<rect x="818.0" y="232.7" width="8.5" height="71.8" fill="none" stroke="#e66767" stroke-width="1.3"/>
<circle cx="744.9" cy="79.8" r="2" fill="#c3c2b7"/>
<line x1="744.9" y1="79.8" x2="736.9" y2="79.8" stroke="#c3c2b7" stroke-width="1.0"/>
<text x="733.9" y="83.8" font-size="11.0" fill="#c3c2b7" text-anchor="end">177</text>
<circle cx="17.7" cy="356.0" r="2" fill="#c3c2b7"/>
<line x1="17.7" y1="356.0" x2="25.7" y2="356.0" stroke="#c3c2b7" stroke-width="1.0"/>
<text x="28.7" y="350.0" font-size="11.0" fill="#c3c2b7">0</text>
<text x="14.0" y="376.0" font-size="11.0" fill="#c3c2b7">VOL 0 forks</text>
<text x="90.6" y="376.0" font-size="11.0" fill="#c98500">MA5:27.8</text>
<text x="149.0" y="376.0" font-size="11.0" fill="#3987e5">MA10:33.2</text>
<text x="14.0" y="395.0" font-size="10" fill="#898781">59</text>
<rect x="13.5" y="442.2" width="8.5" height="27.8" fill="none" stroke="#e66767" stroke-width="1.1"/>
<rect x="29.0" y="442.2" width="8.5" height="27.8" fill="#008300"/>
<rect x="44.4" y="411.6" width="8.5" height="58.4" fill="none" stroke="#e66767" stroke-width="1.1"/>
<rect x="59.9" y="445.0" width="8.5" height="25.0" fill="#008300"/>
<rect x="75.4" y="446.4" width="8.5" height="23.6" fill="none" stroke="#e66767" stroke-width="1.1"/>
<rect x="90.8" y="436.6" width="8.5" height="33.4" fill="#008300"/>
<rect x="106.3" y="442.2" width="8.5" height="27.8" fill="#008300"/>
<rect x="121.8" y="451.9" width="8.5" height="18.1" fill="none" stroke="#e66767" stroke-width="1.1"/>
<rect x="137.3" y="443.6" width="8.5" height="26.4" fill="none" stroke="#e66767" stroke-width="1.1"/>
<rect x="152.7" y="439.4" width="8.5" height="30.6" fill="none" stroke="#e66767" stroke-width="1.1"/>
<rect x="168.2" y="436.6" width="8.5" height="33.4" fill="#008300"/>
<rect x="183.7" y="450.5" width="8.5" height="19.5" fill="#008300"/>
<rect x="199.1" y="442.2" width="8.5" height="27.8" fill="none" stroke="#e66767" stroke-width="1.1"/>
<rect x="214.6" y="451.9" width="8.5" height="18.1" fill="#008300"/>
<rect x="230.1" y="450.5" width="8.5" height="19.5" fill="#008300"/>
<rect x="245.6" y="450.5" width="8.5" height="19.5" fill="none" stroke="#e66767" stroke-width="1.1"/>
<rect x="261.0" y="443.6" width="8.5" height="26.4" fill="none" stroke="#e66767" stroke-width="1.1"/>
<rect x="276.5" y="440.8" width="8.5" height="29.2" fill="none" stroke="#e66767" stroke-width="1.1"/>
<rect x="292.0" y="450.5" width="8.5" height="19.5" fill="#008300"/>
<rect x="307.4" y="439.4" width="8.5" height="30.6" fill="none" stroke="#e66767" stroke-width="1.1"/>
<rect x="322.9" y="450.5" width="8.5" height="19.5" fill="#008300"/>
<rect x="338.4" y="442.2" width="8.5" height="27.8" fill="none" stroke="#e66767" stroke-width="1.1"/>
<rect x="353.9" y="450.5" width="8.5" height="19.5" fill="none" stroke="#e66767" stroke-width="1.1"/>
<rect x="369.3" y="443.6" width="8.5" height="26.4" fill="#008300"/>
<rect x="384.8" y="445.0" width="8.5" height="25.0" fill="none" stroke="#e66767" stroke-width="1.1"/>
<rect x="400.3" y="440.8" width="8.5" height="29.2" fill="none" stroke="#e66767" stroke-width="1.1"/>
<rect x="415.7" y="443.6" width="8.5" height="26.4" fill="#008300"/>
<rect x="431.2" y="449.2" width="8.5" height="20.8" fill="#008300"/>
<rect x="446.7" y="440.8" width="8.5" height="29.2" fill="#008300"/>
<rect x="462.2" y="442.2" width="8.5" height="27.8" fill="none" stroke="#e66767" stroke-width="1.1"/>
<rect x="477.6" y="436.6" width="8.5" height="33.4" fill="none" stroke="#e66767" stroke-width="1.1"/>
<rect x="493.1" y="442.2" width="8.5" height="27.8" fill="none" stroke="#e66767" stroke-width="1.1"/>
<rect x="508.6" y="450.5" width="8.5" height="19.5" fill="#008300"/>
<rect x="524.0" y="442.2" width="8.5" height="27.8" fill="#008300"/>
<rect x="539.5" y="442.2" width="8.5" height="27.8" fill="#008300"/>
<rect x="555.0" y="446.4" width="8.5" height="23.6" fill="none" stroke="#e66767" stroke-width="1.1"/>
<rect x="570.5" y="450.5" width="8.5" height="19.5" fill="none" stroke="#e66767" stroke-width="1.1"/>
<rect x="585.9" y="432.5" width="8.5" height="37.5" fill="#008300"/>
<rect x="601.4" y="447.8" width="8.5" height="22.2" fill="#008300"/>
<rect x="616.9" y="443.6" width="8.5" height="26.4" fill="none" stroke="#e66767" stroke-width="1.1"/>
<rect x="632.3" y="439.4" width="8.5" height="30.6" fill="#008300"/>
<rect x="647.8" y="447.8" width="8.5" height="22.2" fill="#008300"/>
<rect x="663.3" y="449.2" width="8.5" height="20.8" fill="#898781"/>
<rect x="678.8" y="446.4" width="8.5" height="23.6" fill="none" stroke="#e66767" stroke-width="1.1"/>
<rect x="694.2" y="400.5" width="8.5" height="69.5" fill="none" stroke="#e66767" stroke-width="1.1"/>
<rect x="709.7" y="429.7" width="8.5" height="40.3" fill="#008300"/>
<rect x="725.2" y="417.2" width="8.5" height="52.8" fill="none" stroke="#e66767" stroke-width="1.1"/>
<rect x="740.7" y="388.0" width="8.5" height="82.0" fill="none" stroke="#e66767" stroke-width="1.1"/>
<rect x="756.1" y="420.0" width="8.5" height="50.0" fill="#008300"/>
<rect x="771.6" y="401.9" width="8.5" height="68.1" fill="none" stroke="#e66767" stroke-width="1.1"/>
<rect x="787.1" y="418.6" width="8.5" height="51.4" fill="#008300"/>
<rect x="802.5" y="446.4" width="8.5" height="23.6" fill="#008300"/>
<polyline points="157.0,440.1 172.5,439.6 187.9,440.4 203.4,443.5 218.9,444.1 234.3,444.6 249.8,446.0 265.3,446.1 280.8,445.0 296.2,445.7 311.7,445.7 327.2,447.1 342.6,446.2 358.1,447.1 373.6,446.2 389.1,445.7 404.5,444.7 420.0,444.7 435.5,445.5 450.9,444.6 466.4,444.8 481.9,443.5 497.4,443.5 512.8,443.5 528.3,443.3 543.8,443.0 559.2,443.6 574.7,444.3 590.2,442.6 605.7,443.3 621.1,443.5 636.6,443.7 652.1,444.3 667.5,444.1 683.0,444.6 698.5,440.4 714.0,438.7 729.4,435.4 744.9,430.9 760.4,428.2 775.8,424.0 791.3,421.9 806.8,421.8 822.3,423.9" fill="none" stroke="#3987e5" stroke-width="1.5" stroke-linejoin="round" stroke-linecap="round"/>
<polyline points="79.6,437.5 95.1,436.4 110.6,436.4 126.0,444.4 141.5,444.1 157.0,442.8 172.5,442.8 187.9,444.4 203.4,442.5 218.9,444.1 234.3,446.4 249.8,449.2 265.3,447.8 280.8,447.5 296.2,447.2 311.7,445.0 327.2,445.0 342.6,444.7 358.1,446.7 373.6,445.3 389.1,446.4 404.5,444.4 420.0,444.7 435.5,444.4 450.9,443.9 466.4,443.3 481.9,442.5 497.4,442.2 512.8,442.5 528.3,442.8 543.8,442.8 559.2,444.7 574.7,446.4 590.2,442.8 605.7,443.9 621.1,444.1 636.6,442.8 652.1,442.2 667.5,445.5 683.0,445.3 698.5,436.6 714.0,434.7 729.4,428.6 744.9,416.4 760.4,411.1 775.8,411.3 791.3,409.1 806.8,415.0 822.3,431.4" fill="none" stroke="#c98500" stroke-width="1.5" stroke-linejoin="round" stroke-linecap="round"/>
</svg>