<svg xmlns="http://www.w3.org/2000/svg" viewBox="0 0 840 496" width="840" height="496" font-family="-apple-system,&#39;Segoe UI&#39;,system-ui,sans-serif" role="img" aria-label="torvalds/linux candlestick chart">
<text x="14.0" y="20.0" font-size="15" fill="#ffffff" font-weight="650">torvalds/linux</text>
<text x="133.5" y="20.0" font-size="11.5" fill="#c3c2b7">daily · new stars, volume = new forks</text>
<text x="805.8" y="20.0" font-size="11.0" fill="#c3c2b7">fall</text>
<rect x="791" y="10" width="9" height="12" fill="#008300"/>
<text x="750.6" y="20.0" font-size="11.0" fill="#c3c2b7">rise</text>
<rect x="736" y="10" width="9" height="12" fill="none" stroke="#e66767" stroke-width="1.5"/>
<text x="14.0" y="38.0" font-size="11.0" fill="#898781">last 57 days · +6,541 stars · +1,380 forks · updated 2026-07-12</text>
<rect x="10" y="66" width="820" height="290" fill="none" stroke="#2c2c2a"/>
<rect x="10" y="384" width="820" height="86" fill="none" stroke="#2c2c2a"/>
<text x="38.0" y="490.0" font-size="11.0" fill="#898781" text-anchor="middle">2026-05</text>
<line x1="225.8" y1="66.0" x2="225.8" y2="356.0" stroke="#2c2c2a" stroke-width="1.0"/>
<line x1="225.8" y1="384.0" x2="225.8" y2="470.0" stroke="#2c2c2a" stroke-width="1.0"/>
<text x="233.0" y="490.0" font-size="11.0" fill="#898781" text-anchor="middle">2026-06</text>
<line x1="657.4" y1="66.0" x2="657.4" y2="356.0" stroke="#2c2c2a" stroke-width="1.0"/>
<line x1="657.4" y1="384.0" x2="657.4" y2="470.0" stroke="#2c2c2a" stroke-width="1.0"/>
<text x="664.6" y="490.0" font-size="11.0" fill="#898781" text-anchor="middle">2026-07</text>
<text x="14.0" y="58.0" font-size="11.0" fill="#c3c2b7">BOLL(20,2)</text>
<text x="84.5" y="58.0" font-size="11.0" fill="#c98500">UP:183.8</text>
<text x="142.9" y="58.0" font-size="11.0" fill="#3987e5">MID:116.9</text>
<text x="207.4" y="58.0" font-size="11.0" fill="#d55181">LOW:50.0</text>
<text x="265.8" y="58.0" font-size="11.0" fill="#9085e9">MA7:108.3</text>
<line x1="10.0" y1="356.0" x2="830.0" y2="356.0" stroke="#2c2c2a" stroke-width="1.0"/>
<text x="14.0" y="353.0" font-size="11.0" fill="#898781">0</text>
<line x1="10.0" y1="280.9" x2="830.0" y2="280.9" stroke="#2c2c2a" stroke-width="1.0"/>
<text x="14.0" y="277.9" font-size="11.0" fill="#898781">50</text>
<line x1="10.0" y1="205.9" x2="830.0" y2="205.9" stroke="#2c2c2a" stroke-width="1.0"/>
<text x="14.0" y="202.9" font-size="11.0" fill="#898781">100</text>
<line x1="10.0" y1="130.8" x2="830.0" y2="130.8" stroke="#2c2c2a" stroke-width="1.0"/>
<text x="14.0" y="127.8" font-size="11.0" fill="#898781">150</text>
<polyline points="290.5,139.8 304.9,137.8 319.3,137.5 333.7,142.7 348.1,146.5 362.5,153.2 376.8,152.4 391.2,152.7 405.6,153.3 420.0,154.0 434.4,155.3 448.8,151.5 463.2,144.0 477.5,140.4 491.9,140.4 506.3,137.9 520.7,138.0 535.1,137.9 549.5,138.4 563.9,138.5 578.2,138.5 592.6,140.2 607.0,140.1 621.4,140.4 635.8,140.2 650.2,136.5 664.6,137.8 678.9,130.1 693.3,111.2 707.7,109.8 722.1,105.7 736.5,105.8 750.9,96.4 765.3,99.3 779.6,99.4 794.0,97.2 808.4,80.0 822.8,80.0" fill="none" stroke="#c98500" stroke-width="1.5" stroke-linejoin="round" stroke-linecap="round"/>
<polyline points="290.5,182.7 304.9,185.1 319.3,184.5 333.7,186.3 348.1,188.4 362.5,190.2 376.8,189.8 391.2,189.1 405.6,190.0 420.0,191.3 434.4,191.7 448.8,190.6 463.2,186.9 477.5,185.7 491.9,185.7 506.3,186.9 520.7,186.8 535.1,186.5 549.5,187.2 563.9,187.7 578.2,187.7 592.6,186.5 607.0,188.1 621.4,189.8 635.8,189.4 650.2,188.0 664.6,189.4 678.9,186.5 693.3,180.9 707.7,178.7 722.1,176.9 736.5,176.9 750.9,185.2 765.3,189.5 779.6,190.4 794.0,186.8 808.4,180.5 822.8,180.5" fill="none" stroke="#3987e5" stroke-width="1.5" stroke-linejoin="round" stroke-linecap="round"/>
<polyline points="290.5,225.6 304.9,232.4 319.3,231.5 333.7,229.9 348.1,230.4 362.5,227.3 376.8,227.3 391.2,225.5 405.6,226.6 420.0,228.7 434.4,228.1 448.8,229.6 463.2,229.8 477.5,231.0 491.9,231.0 506.3,235.9 520.7,235.5 535.1,235.0 549.5,236.0 563.9,237.0 578.2,237.0 592.6,232.7 607.0,236.1 621.4,239.2 635.8,238.6 650.2,239.6 664.6,241.0 678.9,242.8 693.3,250.6 707.7,247.5 722.1,248.0 736.5,248.0 750.9,274.0 765.3,279.7 779.6,281.5 794.0,276.3 808.4,281.0 822.8,281.0" fill="none" stroke="#d55181" stroke-width="1.5" stroke-linejoin="round" stroke-linecap="round"/>
<polyline points="103.5,173.9 117.9,174.4 132.3,172.4 146.7,175.3 161.1,178.4 175.4,188.5 189.8,187.4 204.2,185.9 218.6,189.8 233.0,193.4 247.4,197.9 261.8,198.4 276.1,195.2 290.5,190.7 304.9,194.8 319.3,190.9 333.7,187.3 348.1,187.7 362.5,187.3 376.8,184.9 391.2,192.2 405.6,188.3 420.0,191.9 434.4,190.7 448.8,184.7 463.2,179.0 477.5,175.7 491.9,176.3 506.3,181.0 520.7,180.4 535.1,182.9 549.5,188.8 563.9,197.5 578.2,196.4 592.6,196.9 607.0,194.3 621.4,196.0 635.8,196.0 650.2,189.5 664.6,189.5 678.9,188.5 693.3,172.4 707.7,164.9 722.1,153.5 736.5,149.0 750.9,170.9 765.3,175.9 779.6,187.7 794.0,197.8 808.4,185.8 822.8,193.4" fill="none" stroke="#9085e9" stroke-width="1.5" stroke-linejoin="round" stroke-linecap="round"/>
<rect x="13.2" y="180.4" width="7.9" height="175.6" fill="none" stroke="#e66767" stroke-width="1.3"/>
<rect x="27.6" y="180.4" width="7.9" height="15.0" fill="#008300"/>
<rect x="42.0" y="145.9" width="7.9" height="49.5" fill="none" stroke="#e66767" stroke-width="1.3"/>
<rect x="56.4" y="145.9" width="7.9" height="12.0" fill="#008300"/>
<rect x="70.8" y="144.4" width="7.9" height="13.5" fill="none" stroke="#e66767" stroke-width="1.3"/>
<rect x="85.2" y="144.4" width="7.9" height="39.0" fill="#008300"/>
<rect x="99.6" y="183.4" width="7.9" height="27.0" fill="#008300"/>
<rect x="113.9" y="183.4" width="7.9" height="27.0" fill="none" stroke="#e66767" stroke-width="1.3"/>
<rect x="128.3" y="181.9" width="7.9" height="1.5" fill="none" stroke="#e66767" stroke-width="1.3"/>
<rect x="142.7" y="165.4" width="7.9" height="16.5" fill="none" stroke="#e66767" stroke-width="1.3"/>
<rect x="157.1" y="165.4" width="7.9" height="15.0" fill="#008300"/>
<rect x="171.5" y="180.4" width="7.9" height="34.5" fill="#008300"/>
<rect x="185.9" y="175.9" width="7.9" height="39.0" fill="none" stroke="#e66767" stroke-width="1.3"/>
<rect x="200.3" y="175.9" width="7.9" height="24.0" fill="#008300"/>
<rect x="214.6" y="199.9" width="7.9" height="10.5" fill="#008300"/>
<rect x="229.0" y="207.4" width="7.9" height="3.0" fill="none" stroke="#e66767" stroke-width="1.3"/>
<rect x="243.4" y="196.9" width="7.9" height="10.5" fill="none" stroke="#e66767" stroke-width="1.3"/>
<rect x="257.8" y="183.4" width="7.9" height="13.5" fill="none" stroke="#e66767" stroke-width="1.3"/>
<rect x="272.2" y="183.4" width="7.9" height="9.0" fill="#008300"/>
<rect x="286.6" y="144.4" width="7.9" height="48.0" fill="none" stroke="#e66767" stroke-width="1.3"/>
<rect x="301.0" y="144.4" width="7.9" height="84.1" fill="#008300"/>
<rect x="315.3" y="183.4" width="7.9" height="45.0" fill="none" stroke="#e66767" stroke-width="1.3"/>
<rect x="329.7" y="181.9" width="7.9" height="1.5" fill="none" stroke="#e66767" stroke-width="1.3"/>
<rect x="344.1" y="181.9" width="7.9" height="18.0" fill="#008300"/>
<rect x="358.5" y="180.4" width="7.9" height="19.5" fill="none" stroke="#e66767" stroke-width="1.3"/>
<rect x="372.9" y="175.9" width="7.9" height="4.5" fill="none" stroke="#e66767" stroke-width="1.3"/>
<rect x="387.3" y="175.9" width="7.9" height="19.5" fill="#008300"/>
<rect x="401.7" y="195.4" width="7.9" height="6.0" fill="#008300"/>
<rect x="416.0" y="201.4" width="7.9" height="7.5" fill="#008300"/>
<rect x="430.4" y="172.9" width="7.9" height="36.0" fill="none" stroke="#e66767" stroke-width="1.3"/>
<rect x="444.8" y="157.9" width="7.9" height="15.0" fill="none" stroke="#e66767" stroke-width="1.3"/>
<rect x="459.2" y="141.4" width="7.9" height="16.5" fill="none" stroke="#e66767" stroke-width="1.3"/>
<rect x="473.6" y="141.4" width="7.9" height="10.5" fill="#008300"/>
<rect x="488.0" y="151.9" width="7.9" height="48.0" fill="#008300"/>
<rect x="502.4" y="199.9" width="7.9" height="34.5" fill="#008300"/>
<rect x="516.7" y="204.4" width="7.9" height="30.0" fill="none" stroke="#e66767" stroke-width="1.3"/>
<rect x="531.1" y="190.9" width="7.9" height="13.5" fill="none" stroke="#e66767" stroke-width="1.3"/>
<rect x="545.5" y="190.9" width="7.9" height="7.5" fill="#008300"/>
<rect x="559.9" y="198.4" width="7.9" height="4.5" fill="#008300"/>
<rect x="574.3" y="144.4" width="7.9" height="58.5" fill="none" stroke="#e66767" stroke-width="1.3"/>
<rect x="588.7" y="144.4" width="7.9" height="58.5" fill="#008300"/>
<rect x="603.1" y="202.9" width="7.9" height="13.5" fill="#008300"/>
<rect x="617.4" y="216.4" width="7.9" height="1.2" fill="#898781"/>
<rect x="631.8" y="190.9" width="7.9" height="25.5" fill="none" stroke="#e66767" stroke-width="1.3"/>
<rect x="646.2" y="153.4" width="7.9" height="37.5" fill="none" stroke="#e66767" stroke-width="1.3"/>
<rect x="660.6" y="153.4" width="7.9" height="49.5" fill="#008300"/>
<rect x="675.0" y="136.8" width="7.9" height="66.0" fill="none" stroke="#e66767" stroke-width="1.3"/>
<rect x="689.4" y="90.3" width="7.9" height="46.5" fill="none" stroke="#e66767" stroke-width="1.3"/>
<rect x="703.8" y="90.3" width="7.9" height="73.6" fill="#008300"/>
<rect x="718.1" y="136.8" width="7.9" height="27.0" fill="none" stroke="#e66767" stroke-width="1.3"/>
<rect x="732.5" y="136.8" width="7.9" height="22.5" fill="#008300"/>
<rect x="746.9" y="159.4" width="7.9" height="147.1" fill="#008300"/>
<rect x="761.3" y="237.4" width="7.9" height="69.0" fill="none" stroke="#e66767" stroke-width="1.3"/>
<rect x="775.7" y="219.4" width="7.9" height="18.0" fill="none" stroke="#e66767" stroke-width="1.3"/>
<rect x="790.1" y="160.9" width="7.9" height="58.5" fill="none" stroke="#e66767" stroke-width="1.3"/>
<rect x="804.5" y="79.8" width="7.9" height="81.1" fill="none" stroke="#e66767" stroke-width="1.3"/>
<rect x="818.9" y="79.8" width="7.9" height="111.1" fill="#008300"/>
<circle cx="808.4" cy="79.8" r="2" fill="#c3c2b7"/>
<line x1="808.4" y1="79.8" x2="800.4" y2="79.8" stroke="#c3c2b7" stroke-width="1.0"/>
<text x="797.4" y="83.8" font-size="11.0" fill="#c3c2b7" text-anchor="end">184</text>
<circle cx="17.2" cy="356.0" r="2" fill="#c3c2b7"/>
<line x1="17.2" y1="356.0" x2="25.2" y2="356.0" stroke="#c3c2b7" stroke-width="1.0"/>
<text x="28.2" y="350.0" font-size="11.0" fill="#c3c2b7">0</text>
<text x="14.0" y="376.0" font-size="11.0" fill="#c3c2b7">VOL 40 forks</text>
<text x="96.6" y="376.0" font-size="11.0" fill="#c98500">MA5:46.6</text>
<text x="155.0" y="376.0" font-size="11.0" fill="#3987e5">MA10:43.1</text>
<text x="14.0" y="395.0" font-size="10" fill="#898781">132</text>
<rect x="13.2" y="457.6" width="7.9" height="12.4" fill="none" stroke="#e66767" stroke-width="1.1"/>
<rect x="27.6" y="457.6" width="7.9" height="12.4" fill="#008300"/>
<rect x="42.0" y="443.9" width="7.9" height="26.1" fill="none" stroke="#e66767" stroke-width="1.1"/>
<rect x="56.4" y="458.8" width="7.9" height="11.2" fill="#008300"/>
<rect x="70.8" y="459.4" width="7.9" height="10.6" fill="none" stroke="#e66767" stroke-width="1.1"/>
<rect x="85.2" y="455.1" width="7.9" height="14.9" fill="#008300"/>
<rect x="99.6" y="457.6" width="7.9" height="12.4" fill="#008300"/>
<rect x="113.9" y="461.9" width="7.9" height="8.1" fill="none" stroke="#e66767" stroke-width="1.1"/>
<rect x="128.3" y="458.2" width="7.9" height="11.8" fill="none" stroke="#e66767" stroke-width="1.1"/>
<rect x="142.7" y="456.3" width="7.9" height="13.7" fill="none" stroke="#e66767" stroke-width="1.1"/>
<rect x="157.1" y="455.1" width="7.9" height="14.9" fill="#008300"/>
<rect x="171.5" y="461.3" width="7.9" height="8.7" fill="#008300"/>
<rect x="185.9" y="457.6" width="7.9" height="12.4" fill="none" stroke="#e66767" stroke-width="1.1"/>
<rect x="200.3" y="461.9" width="7.9" height="8.1" fill="#008300"/>
<rect x="214.6" y="461.3" width="7.9" height="8.7" fill="#008300"/>
<rect x="229.0" y="461.3" width="7.9" height="8.7" fill="none" stroke="#e66767" stroke-width="1.1"/>
<rect x="243.4" y="458.2" width="7.9" height="11.8" fill="none" stroke="#e66767" stroke-width="1.1"/>
<rect x="257.8" y="457.0" width="7.9" height="13.0" fill="none" stroke="#e66767" stroke-width="1.1"/>
<rect x="272.2" y="461.3" width="7.9" height="8.7" fill="#008300"/>
<rect x="286.6" y="456.3" width="7.9" height="13.7" fill="none" stroke="#e66767" stroke-width="1.1"/>
<rect x="301.0" y="461.3" width="7.9" height="8.7" fill="#008300"/>
<rect x="315.3" y="457.6" width="7.9" height="12.4" fill="none" stroke="#e66767" stroke-width="1.1"/>
<rect x="329.7" y="461.3" width="7.9" height="8.7" fill="none" stroke="#e66767" stroke-width="1.1"/>
<rect x="344.1" y="458.2" width="7.9" height="11.8" fill="#008300"/>
<rect x="358.5" y="458.8" width="7.9" height="11.2" fill="none" stroke="#e66767" stroke-width="1.1"/>
<rect x="372.9" y="457.0" width="7.9" height="13.0" fill="none" stroke="#e66767" stroke-width="1.1"/>
<rect x="387.3" y="458.2" width="7.9" height="11.8" fill="#008300"/>
<rect x="401.7" y="460.7" width="7.9" height="9.3" fill="#008300"/>
<rect x="416.0" y="457.0" width="7.9" height="13.0" fill="#008300"/>
<rect x="430.4" y="457.6" width="7.9" height="12.4" fill="none" stroke="#e66767" stroke-width="1.1"/>
<rect x="444.8" y="455.1" width="7.9" height="14.9" fill="none" stroke="#e66767" stroke-width="1.1"/>
<rect x="459.2" y="457.6" width="7.9" height="12.4" fill="none" stroke="#e66767" stroke-width="1.1"/>
<rect x="473.6" y="461.3" width="7.9" height="8.7" fill="#008300"/>
<rect x="488.0" y="457.6" width="7.9" height="12.4" fill="#008300"/>
<rect x="502.4" y="457.6" width="7.9" height="12.4" fill="#008300"/>
<rect x="516.7" y="459.4" width="7.9" height="10.6" fill="none" stroke="#e66767" stroke-width="1.1"/>
<rect x="531.1" y="461.3" width="7.9" height="8.7" fill="none" stroke="#e66767" stroke-width="1.1"/>
<rect x="545.5" y="453.2" width="7.9" height="16.8" fill="#008300"/>
<rect x="559.9" y="460.1" width="7.9" height="9.9" fill="#008300"/>
<rect x="574.3" y="458.2" width="7.9" height="11.8" fill="none" stroke="#e66767" stroke-width="1.1"/>
<rect x="588.7" y="456.3" width="7.9" height="13.7" fill="#008300"/>
<rect x="603.1" y="460.1" width="7.9" height="9.9" fill="#008300"/>
<rect x="617.4" y="460.7" width="7.9" height="9.3" fill="#898781"/>
<rect x="631.8" y="459.4" width="7.9" height="10.6" fill="none" stroke="#e66767" stroke-width="1.1"/>
<rect x="646.2" y="438.9" width="7.9" height="31.1" fill="none" stroke="#e66767" stroke-width="1.1"/>
<rect x="660.6" y="452.0" width="7.9" height="18.0" fill="#008300"/>
<rect x="675.0" y="446.4" width="7.9" height="23.6" fill="none" stroke="#e66767" stroke-width="1.1"/>
<rect x="689.4" y="433.3" width="7.9" height="36.7" fill="none" stroke="#e66767" stroke-width="1.1"/>
<rect x="703.8" y="447.6" width="7.9" height="22.4" fill="#008300"/>
<rect x="718.1" y="439.6" width="7.9" height="30.4" fill="none" stroke="#e66767" stroke-width="1.1"/>
<rect x="732.5" y="447.0" width="7.9" height="23.0" fill="#008300"/>
<rect x="746.9" y="459.4" width="7.9" height="10.6" fill="#008300"/>
<rect x="775.7" y="457.6" width="7.9" height="12.4" fill="none" stroke="#e66767" stroke-width="1.1"/>
<rect x="790.1" y="444.5" width="7.9" height="25.5" fill="none" stroke="#e66767" stroke-width="1.1"/>
<rect x="804.5" y="388.0" width="7.9" height="82.0" fill="none" stroke="#e66767" stroke-width="1.1"/>
<rect x="818.9" y="445.2" width="7.9" height="24.8" fill="#008300"/>
<polyline points="146.7,456.6 161.1,456.4 175.4,456.8 189.8,458.1 204.2,458.4 218.6,458.6 233.0,459.3 247.4,459.3 261.8,458.8 276.1,459.1 290.5,459.1 304.9,459.8 319.3,459.4 333.7,459.8 348.1,459.4 362.5,459.1 376.8,458.7 391.2,458.7 405.6,459.1 420.0,458.6 434.4,458.8 448.8,458.1 463.2,458.1 477.5,458.1 491.9,458.1 506.3,457.9 520.7,458.2 535.1,458.5 549.5,457.8 563.9,458.1 578.2,458.1 592.6,458.3 607.0,458.5 621.4,458.4 635.8,458.6 650.2,456.8 664.6,456.0 678.9,454.5 693.3,452.5 707.7,451.3 722.1,449.4 736.5,448.5 750.9,448.4 765.3,449.4 779.6,449.2 794.0,449.7 808.4,443.4 822.8,443.2" fill="none" stroke="#3987e5" stroke-width="1.5" stroke-linejoin="round" stroke-linecap="round"/>
<polyline points="74.7,455.5 89.1,455.0 103.5,455.0 117.9,458.6 132.3,458.4 146.7,457.8 161.1,457.8 175.4,458.6 189.8,457.7 204.2,458.4 218.6,459.4 233.0,460.7 247.4,460.1 261.8,459.9 276.1,459.8 290.5,458.8 304.9,458.8 319.3,458.7 333.7,459.6 348.1,458.9 362.5,459.4 376.8,458.6 391.2,458.7 405.6,458.6 420.0,458.3 434.4,458.1 448.8,457.7 463.2,457.6 477.5,457.7 491.9,457.8 506.3,457.8 520.7,458.7 535.1,459.4 549.5,457.8 563.9,458.3 578.2,458.4 592.6,457.8 607.0,457.6 621.4,459.1 635.8,458.9 650.2,455.1 664.6,454.2 678.9,451.5 693.3,446.0 707.7,443.7 722.1,443.8 736.5,442.8 750.9,445.4 765.3,452.7 779.6,454.7 794.0,455.7 808.4,443.9 822.8,441.1" fill="none" stroke="#c98500" stroke-width="1.5" stroke-linejoin="round" stroke-linecap="round"/>
</svg>