<svg xmlns="http://www.w3.org/2000/svg" viewBox="0 0 840 496" width="840" height="496" font-family="-apple-system,&#39;Segoe UI&#39;,system-ui,sans-serif" role="img" aria-label="torvalds/linux candlestick chart">
<text x="14.0" y="20.0" font-size="15" fill="#ffffff" font-weight="650">torvalds/linux</text>
<text x="133.5" y="20.0" font-size="11.5" fill="#c3c2b7">daily · new stars, volume = new forks</text>
<text x="805.8" y="20.0" font-size="11.0" fill="#c3c2b7">fall</text>
<rect x="791" y="10" width="9" height="12" fill="#008300"/>
<text x="750.6" y="20.0" font-size="11.0" fill="#c3c2b7">rise</text>
<rect x="736" y="10" width="9" height="12" fill="none" stroke="#e66767" stroke-width="1.5"/>
<text x="14.0" y="38.0" font-size="11.0" fill="#898781">last 54 days · +6,117 stars · +1,167 forks · updated 2026-07-09</text>
<rect x="10" y="66" width="820" height="290" fill="none" stroke="#2c2c2a"/>
<rect x="10" y="384" width="820" height="86" fill="none" stroke="#2c2c2a"/>
<text x="38.0" y="490.0" font-size="11.0" fill="#898781" text-anchor="middle">2026-05</text>
<line x1="237.8" y1="66.0" x2="237.8" y2="356.0" stroke="#2c2c2a" stroke-width="1.0"/>
<line x1="237.8" y1="384.0" x2="237.8" y2="470.0" stroke="#2c2c2a" stroke-width="1.0"/>
<text x="245.4" y="490.0" font-size="11.0" fill="#898781" text-anchor="middle">2026-06</text>
<line x1="693.3" y1="66.0" x2="693.3" y2="356.0" stroke="#2c2c2a" stroke-width="1.0"/>
<line x1="693.3" y1="384.0" x2="693.3" y2="470.0" stroke="#2c2c2a" stroke-width="1.0"/>
<text x="700.9" y="490.0" font-size="11.0" fill="#898781" text-anchor="middle">2026-07</text>
<text x="14.0" y="58.0" font-size="11.0" fill="#c3c2b7">BOLL(20,2)</text>
<text x="84.5" y="58.0" font-size="11.0" fill="#c98500">UP:171.0</text>
<text x="142.9" y="58.0" font-size="11.0" fill="#3987e5">MID:110.3</text>
<text x="207.4" y="58.0" font-size="11.0" fill="#d55181">LOW:49.6</text>
<text x="265.8" y="58.0" font-size="11.0" fill="#9085e9">MA7:112.1</text>
<line x1="10.0" y1="356.0" x2="830.0" y2="356.0" stroke="#2c2c2a" stroke-width="1.0"/>
<text x="14.0" y="353.0" font-size="11.0" fill="#898781">0</text>
<line x1="10.0" y1="278.0" x2="830.0" y2="278.0" stroke="#2c2c2a" stroke-width="1.0"/>
<text x="14.0" y="275.0" font-size="11.0" fill="#898781">50</text>
<line x1="10.0" y1="200.0" x2="830.0" y2="200.0" stroke="#2c2c2a" stroke-width="1.0"/>
<text x="14.0" y="197.0" font-size="11.0" fill="#898781">100</text>
<line x1="10.0" y1="121.9" x2="830.0" y2="121.9" stroke="#2c2c2a" stroke-width="1.0"/>
<text x="14.0" y="118.9" font-size="11.0" fill="#898781">150</text>
<polyline points="306.1,131.2 321.3,129.2 336.5,128.8 351.7,134.3 366.9,138.2 382.0,145.1 397.2,144.3 412.4,144.7 427.6,145.3 442.8,146.0 458.0,147.3 473.1,143.4 488.3,135.7 503.5,131.9 518.7,131.9 533.9,129.3 549.1,129.4 564.3,129.3 579.4,129.8 594.6,129.9 609.8,129.9 625.0,131.7 640.2,131.6 655.4,131.9 670.6,131.6 685.7,127.8 700.9,129.1 716.1,121.2 731.3,101.5 746.5,100.1 761.7,95.8 776.9,95.9 792.0,86.1 807.2,89.1 822.4,89.2" fill="none" stroke="#c98500" stroke-width="1.5" stroke-linejoin="round" stroke-linecap="round"/>
<polyline points="306.1,175.9 321.3,178.3 336.5,177.7 351.7,179.6 366.9,181.8 382.0,183.7 397.2,183.3 412.4,182.5 427.6,183.4 442.8,184.8 458.0,185.2 473.1,184.0 488.3,180.2 503.5,179.0 518.7,179.0 533.9,180.2 549.1,180.1 564.3,179.8 579.4,180.5 594.6,181.1 609.8,181.1 625.0,179.8 640.2,181.5 655.4,183.3 670.6,182.8 685.7,181.4 700.9,182.8 716.1,179.8 731.3,174.0 746.5,171.6 761.7,169.8 776.9,169.8 792.0,178.4 807.2,182.9 822.4,183.9" fill="none" stroke="#3987e5" stroke-width="1.5" stroke-linejoin="round" stroke-linecap="round"/>
<polyline points="306.1,220.5 321.3,227.5 336.5,226.6 351.7,224.9 366.9,225.4 382.0,222.2 397.2,222.2 412.4,220.3 427.6,221.5 442.8,223.6 458.0,223.1 473.1,224.6 488.3,224.8 503.5,226.1 518.7,226.1 533.9,231.2 549.1,230.7 564.3,230.2 579.4,231.3 594.6,232.3 609.8,232.3 625.0,227.8 640.2,231.3 655.4,234.6 670.6,233.9 685.7,235.0 700.9,236.5 716.1,238.3 731.3,246.4 746.5,243.2 761.7,243.8 776.9,243.8 792.0,270.7 807.2,276.6 822.4,278.5" fill="none" stroke="#d55181" stroke-width="1.5" stroke-linejoin="round" stroke-linecap="round"/>
<polyline points="108.7,166.7 123.9,167.2 139.1,165.2 154.3,168.1 169.4,171.4 184.6,181.9 199.8,180.8 215.0,179.2 230.2,183.3 245.4,187.0 260.6,191.7 275.7,192.2 290.9,188.9 306.1,184.2 321.3,188.4 336.5,184.4 351.7,180.6 366.9,181.1 382.0,180.6 397.2,178.1 412.4,185.8 427.6,181.7 442.8,185.4 458.0,184.2 473.1,178.0 488.3,172.0 503.5,168.6 518.7,169.2 533.9,174.1 549.1,173.4 564.3,176.1 579.4,182.2 594.6,191.2 609.8,190.1 625.0,190.6 640.2,187.9 655.4,189.7 670.6,189.7 685.7,183.0 700.9,183.0 716.1,181.9 731.3,165.2 746.5,157.4 761.7,145.5 776.9,140.8 792.0,163.6 807.2,168.8 822.4,181.1" fill="none" stroke="#9085e9" stroke-width="1.5" stroke-linejoin="round" stroke-linecap="round"/>
<rect x="13.4" y="173.4" width="8.4" height="182.6" fill="none" stroke="#e66767" stroke-width="1.3"/>
<rect x="28.6" y="173.4" width="8.4" height="15.6" fill="#008300"/>
<rect x="43.8" y="137.5" width="8.4" height="51.5" fill="none" stroke="#e66767" stroke-width="1.3"/>
<rect x="59.0" y="137.5" width="8.4" height="12.5" fill="#008300"/>
<rect x="74.2" y="136.0" width="8.4" height="14.0" fill="none" stroke="#e66767" stroke-width="1.3"/>
<rect x="89.3" y="136.0" width="8.4" height="40.6" fill="#008300"/>
<rect x="104.5" y="176.6" width="8.4" height="28.1" fill="#008300"/>
<rect x="119.7" y="176.6" width="8.4" height="28.1" fill="none" stroke="#e66767" stroke-width="1.3"/>
<rect x="134.9" y="175.0" width="8.4" height="1.6" fill="none" stroke="#e66767" stroke-width="1.3"/>
<rect x="150.1" y="157.8" width="8.4" height="17.2" fill="none" stroke="#e66767" stroke-width="1.3"/>
<rect x="165.3" y="157.8" width="8.4" height="15.6" fill="#008300"/>
<rect x="180.5" y="173.4" width="8.4" height="35.9" fill="#008300"/>
<rect x="195.6" y="168.8" width="8.4" height="40.6" fill="none" stroke="#e66767" stroke-width="1.3"/>
<rect x="210.8" y="168.8" width="8.4" height="25.0" fill="#008300"/>
<rect x="226.0" y="193.7" width="8.4" height="10.9" fill="#008300"/>
<rect x="241.2" y="201.5" width="8.4" height="3.1" fill="none" stroke="#e66767" stroke-width="1.3"/>
<rect x="256.4" y="190.6" width="8.4" height="10.9" fill="none" stroke="#e66767" stroke-width="1.3"/>
<rect x="271.6" y="176.6" width="8.4" height="14.0" fill="none" stroke="#e66767" stroke-width="1.3"/>
<rect x="286.8" y="176.6" width="8.4" height="9.4" fill="#008300"/>
<rect x="301.9" y="136.0" width="8.4" height="49.9" fill="none" stroke="#e66767" stroke-width="1.3"/>
<rect x="317.1" y="136.0" width="8.4" height="87.4" fill="#008300"/>
<rect x="332.3" y="176.6" width="8.4" height="46.8" fill="none" stroke="#e66767" stroke-width="1.3"/>
<rect x="347.5" y="175.0" width="8.4" height="1.6" fill="none" stroke="#e66767" stroke-width="1.3"/>
<rect x="362.7" y="175.0" width="8.4" height="18.7" fill="#008300"/>
<rect x="377.9" y="173.4" width="8.4" height="20.3" fill="none" stroke="#e66767" stroke-width="1.3"/>
<rect x="393.0" y="168.8" width="8.4" height="4.7" fill="none" stroke="#e66767" stroke-width="1.3"/>
<rect x="408.2" y="168.8" width="8.4" height="20.3" fill="#008300"/>
<rect x="423.4" y="189.0" width="8.4" height="6.2" fill="#008300"/>
<rect x="438.6" y="195.3" width="8.4" height="7.8" fill="#008300"/>
<rect x="453.8" y="165.6" width="8.4" height="37.4" fill="none" stroke="#e66767" stroke-width="1.3"/>
<rect x="469.0" y="150.0" width="8.4" height="15.6" fill="none" stroke="#e66767" stroke-width="1.3"/>
<rect x="484.2" y="132.9" width="8.4" height="17.2" fill="none" stroke="#e66767" stroke-width="1.3"/>
<rect x="499.3" y="132.9" width="8.4" height="10.9" fill="#008300"/>
<rect x="514.5" y="143.8" width="8.4" height="49.9" fill="#008300"/>
<rect x="529.7" y="193.7" width="8.4" height="35.9" fill="#008300"/>
<rect x="544.9" y="198.4" width="8.4" height="31.2" fill="none" stroke="#e66767" stroke-width="1.3"/>
<rect x="560.1" y="184.4" width="8.4" height="14.0" fill="none" stroke="#e66767" stroke-width="1.3"/>
<rect x="575.3" y="184.4" width="8.4" height="7.8" fill="#008300"/>
<rect x="590.5" y="192.2" width="8.4" height="4.7" fill="#008300"/>
<rect x="605.6" y="136.0" width="8.4" height="60.9" fill="none" stroke="#e66767" stroke-width="1.3"/>
<rect x="620.8" y="136.0" width="8.4" height="60.9" fill="#008300"/>
<rect x="636.0" y="196.8" width="8.4" height="14.0" fill="#008300"/>
<rect x="651.2" y="210.9" width="8.4" height="1.2" fill="#898781"/>
<rect x="666.4" y="184.4" width="8.4" height="26.5" fill="none" stroke="#e66767" stroke-width="1.3"/>
<rect x="681.6" y="145.3" width="8.4" height="39.0" fill="none" stroke="#e66767" stroke-width="1.3"/>
<rect x="696.7" y="145.3" width="8.4" height="51.5" fill="#008300"/>
<rect x="711.9" y="128.2" width="8.4" height="68.7" fill="none" stroke="#e66767" stroke-width="1.3"/>
<rect x="727.1" y="79.8" width="8.4" height="48.4" fill="none" stroke="#e66767" stroke-width="1.3"/>
<rect x="742.3" y="79.8" width="8.4" height="76.5" fill="#008300"/>
<rect x="757.5" y="128.2" width="8.4" height="28.1" fill="none" stroke="#e66767" stroke-width="1.3"/>
<rect x="772.7" y="128.2" width="8.4" height="23.4" fill="#008300"/>
<rect x="787.9" y="151.6" width="8.4" height="152.9" fill="#008300"/>
<rect x="803.0" y="232.7" width="8.4" height="71.8" fill="none" stroke="#e66767" stroke-width="1.3"/>
<rect x="818.2" y="214.0" width="8.4" height="18.7" fill="none" stroke="#e66767" stroke-width="1.3"/>
<circle cx="731.3" cy="79.8" r="2" fill="#c3c2b7"/>
<line x1="731.3" y1="79.8" x2="723.3" y2="79.8" stroke="#c3c2b7" stroke-width="1.0"/>
<text x="720.3" y="83.8" font-size="11.0" fill="#c3c2b7" text-anchor="end">177</text>
<circle cx="17.6" cy="356.0" r="2" fill="#c3c2b7"/>
<line x1="17.6" y1="356.0" x2="25.6" y2="356.0" stroke="#c3c2b7" stroke-width="1.0"/>
<text x="28.6" y="350.0" font-size="11.0" fill="#c3c2b7">0</text>
<text x="14.0" y="376.0" font-size="11.0" fill="#c3c2b7">VOL 20 forks</text>
<text x="96.6" y="376.0" font-size="11.0" fill="#c98500">MA5:24.6</text>
<text x="155.0" y="376.0" font-size="11.0" fill="#3987e5">MA10:33.5</text>
<text x="14.0" y="395.0" font-size="10" fill="#898781">59</text>
<rect x="13.4" y="442.2" width="8.4" height="27.8" fill="none" stroke="#e66767" stroke-width="1.1"/>
<rect x="28.6" y="442.2" width="8.4" height="27.8" fill="#008300"/>
<rect x="43.8" y="411.6" width="8.4" height="58.4" fill="none" stroke="#e66767" stroke-width="1.1"/>
<rect x="59.0" y="445.0" width="8.4" height="25.0" fill="#008300"/>
<rect x="74.2" y="446.4" width="8.4" height="23.6" fill="none" stroke="#e66767" stroke-width="1.1"/>
<rect x="89.3" y="436.6" width="8.4" height="33.4" fill="#008300"/>
<rect x="104.5" y="442.2" width="8.4" height="27.8" fill="#008300"/>
<rect x="119.7" y="451.9" width="8.4" height="18.1" fill="none" stroke="#e66767" stroke-width="1.1"/>
<rect x="134.9" y="443.6" width="8.4" height="26.4" fill="none" stroke="#e66767" stroke-width="1.1"/>
<rect x="150.1" y="439.4" width="8.4" height="30.6" fill="none" stroke="#e66767" stroke-width="1.1"/>
<rect x="165.3" y="436.6" width="8.4" height="33.4" fill="#008300"/>
<rect x="180.5" y="450.5" width="8.4" height="19.5" fill="#008300"/>
<rect x="195.6" y="442.2" width="8.4" height="27.8" fill="none" stroke="#e66767" stroke-width="1.1"/>
<rect x="210.8" y="451.9" width="8.4" height="18.1" fill="#008300"/>
<rect x="226.0" y="450.5" width="8.4" height="19.5" fill="#008300"/>
<rect x="241.2" y="450.5" width="8.4" height="19.5" fill="none" stroke="#e66767" stroke-width="1.1"/>
<rect x="256.4" y="443.6" width="8.4" height="26.4" fill="none" stroke="#e66767" stroke-width="1.1"/>
<rect x="271.6" y="440.8" width="8.4" height="29.2" fill="none" stroke="#e66767" stroke-width="1.1"/>
<rect x="286.8" y="450.5" width="8.4" height="19.5" fill="#008300"/>
<rect x="301.9" y="439.4" width="8.4" height="30.6" fill="none" stroke="#e66767" stroke-width="1.1"/>
<rect x="317.1" y="450.5" width="8.4" height="19.5" fill="#008300"/>
<rect x="332.3" y="442.2" width="8.4" height="27.8" fill="none" stroke="#e66767" stroke-width="1.1"/>
<rect x="347.5" y="450.5" width="8.4" height="19.5" fill="none" stroke="#e66767" stroke-width="1.1"/>
<rect x="362.7" y="443.6" width="8.4" height="26.4" fill="#008300"/>
<rect x="377.9" y="445.0" width="8.4" height="25.0" fill="none" stroke="#e66767" stroke-width="1.1"/>
<rect x="393.0" y="440.8" width="8.4" height="29.2" fill="none" stroke="#e66767" stroke-width="1.1"/>
<rect x="408.2" y="443.6" width="8.4" height="26.4" fill="#008300"/>
<rect x="423.4" y="449.2" width="8.4" height="20.8" fill="#008300"/>
<rect x="438.6" y="440.8" width="8.4" height="29.2" fill="#008300"/>
<rect x="453.8" y="442.2" width="8.4" height="27.8" fill="none" stroke="#e66767" stroke-width="1.1"/>
<rect x="469.0" y="436.6" width="8.4" height="33.4" fill="none" stroke="#e66767" stroke-width="1.1"/>
<rect x="484.2" y="442.2" width="8.4" height="27.8" fill="none" stroke="#e66767" stroke-width="1.1"/>
<rect x="499.3" y="450.5" width="8.4" height="19.5" fill="#008300"/>
<rect x="514.5" y="442.2" width="8.4" height="27.8" fill="#008300"/>
<rect x="529.7" y="442.2" width="8.4" height="27.8" fill="#008300"/>
<rect x="544.9" y="446.4" width="8.4" height="23.6" fill="none" stroke="#e66767" stroke-width="1.1"/>
<rect x="560.1" y="450.5" width="8.4" height="19.5" fill="none" stroke="#e66767" stroke-width="1.1"/>
<rect x="575.3" y="432.5" width="8.4" height="37.5" fill="#008300"/>
<rect x="590.5" y="447.8" width="8.4" height="22.2" fill="#008300"/>
<rect x="605.6" y="443.6" width="8.4" height="26.4" fill="none" stroke="#e66767" stroke-width="1.1"/>
<rect x="620.8" y="439.4" width="8.4" height="30.6" fill="#008300"/>
<rect x="636.0" y="447.8" width="8.4" height="22.2" fill="#008300"/>
<rect x="651.2" y="449.2" width="8.4" height="20.8" fill="#898781"/>
<rect x="666.4" y="446.4" width="8.4" height="23.6" fill="none" stroke="#e66767" stroke-width="1.1"/>
<rect x="681.6" y="400.5" width="8.4" height="69.5" fill="none" stroke="#e66767" stroke-width="1.1"/>
<rect x="696.7" y="429.7" width="8.4" height="40.3" fill="#008300"/>
<rect x="711.9" y="417.2" width="8.4" height="52.8" fill="none" stroke="#e66767" stroke-width="1.1"/>
<rect x="727.1" y="388.0" width="8.4" height="82.0" fill="none" stroke="#e66767" stroke-width="1.1"/>
<rect x="742.3" y="420.0" width="8.4" height="50.0" fill="#008300"/>
<rect x="757.5" y="401.9" width="8.4" height="68.1" fill="none" stroke="#e66767" stroke-width="1.1"/>
<rect x="772.7" y="418.6" width="8.4" height="51.4" fill="#008300"/>
<rect x="787.9" y="446.4" width="8.4" height="23.6" fill="#008300"/>
<rect x="818.2" y="442.2" width="8.4" height="27.8" fill="none" stroke="#e66767" stroke-width="1.1"/>
<polyline points="154.3,440.1 169.4,439.6 184.6,440.4 199.8,443.5 215.0,444.1 230.2,444.6 245.4,446.0 260.6,446.1 275.7,445.0 290.9,445.7 306.1,445.7 321.3,447.1 336.5,446.2 351.7,447.1 366.9,446.2 382.0,445.7 397.2,444.7 412.4,444.7 427.6,445.5 442.8,444.6 458.0,444.8 473.1,443.5 488.3,443.5 503.5,443.5 518.7,443.3 533.9,443.0 549.1,443.6 564.3,444.3 579.4,442.6 594.6,443.3 609.8,443.5 625.0,443.7 640.2,444.3 655.4,444.1 670.6,444.6 685.7,440.4 700.9,438.7 716.1,435.4 731.3,430.9 746.5,428.2 761.7,424.0 776.9,421.9 792.0,421.8 807.2,423.9 822.4,423.4" fill="none" stroke="#3987e5" stroke-width="1.5" stroke-linejoin="round" stroke-linecap="round"/>
<polyline points="78.3,437.5 93.5,436.4 108.7,436.4 123.9,444.4 139.1,444.1 154.3,442.8 169.4,442.8 184.6,444.4 199.8,442.5 215.0,444.1 230.2,446.4 245.4,449.2 260.6,447.8 275.7,447.5 290.9,447.2 306.1,445.0 321.3,445.0 336.5,444.7 351.7,446.7 366.9,445.3 382.0,446.4 397.2,444.4 412.4,444.7 427.6,444.4 442.8,443.9 458.0,443.3 473.1,442.5 488.3,442.2 503.5,442.5 518.7,442.8 533.9,442.8 549.1,444.7 564.3,446.4 579.4,442.8 594.6,443.9 609.8,444.1 625.0,442.8 640.2,442.2 655.4,445.5 670.6,445.3 685.7,436.6 700.9,434.7 716.1,428.6 731.3,416.4 746.5,411.1 761.7,411.3 776.9,409.1 792.0,415.0 807.2,431.4 822.4,435.8" fill="none" stroke="#c98500" stroke-width="1.5" stroke-linejoin="round" stroke-linecap="round"/>
</svg>