<svg xmlns="http://www.w3.org/2000/svg" viewBox="0 0 840 496" width="840" height="496" font-family="-apple-system,&#39;Segoe UI&#39;,system-ui,sans-serif" role="img" aria-label="torvalds/linux candlestick chart">
<text x="14.0" y="20.0" font-size="15" fill="#ffffff" font-weight="650">torvalds/linux</text>
<text x="133.5" y="20.0" font-size="11.5" fill="#c3c2b7">daily · new stars, volume = new forks</text>
<text x="805.8" y="20.0" font-size="11.0" fill="#c3c2b7">fall</text>
<rect x="791" y="10" width="9" height="12" fill="#008300"/>
<text x="750.6" y="20.0" font-size="11.0" fill="#c3c2b7">rise</text>
<rect x="736" y="10" width="9" height="12" fill="none" stroke="#e66767" stroke-width="1.5"/>
<text x="14.0" y="38.0" font-size="11.0" fill="#898781">last 52 days · +5,947 stars · +1,147 forks · updated 2026-07-07</text>
<rect x="10" y="66" width="820" height="290" fill="none" stroke="#2c2c2a"/>
<rect x="10" y="384" width="820" height="86" fill="none" stroke="#2c2c2a"/>
<text x="38.0" y="490.0" font-size="11.0" fill="#898781" text-anchor="middle">2026-05</text>
<line x1="246.5" y1="66.0" x2="246.5" y2="356.0" stroke="#2c2c2a" stroke-width="1.0"/>
<line x1="246.5" y1="384.0" x2="246.5" y2="470.0" stroke="#2c2c2a" stroke-width="1.0"/>
<text x="254.4" y="490.0" font-size="11.0" fill="#898781" text-anchor="middle">2026-06</text>
<line x1="719.6" y1="66.0" x2="719.6" y2="356.0" stroke="#2c2c2a" stroke-width="1.0"/>
<line x1="719.6" y1="384.0" x2="719.6" y2="470.0" stroke="#2c2c2a" stroke-width="1.0"/>
<text x="727.5" y="490.0" font-size="11.0" fill="#898781" text-anchor="middle">2026-07</text>
<text x="14.0" y="58.0" font-size="11.0" fill="#c3c2b7">BOLL(20,2)</text>
<text x="84.5" y="58.0" font-size="11.0" fill="#c98500">UP:173.0</text>
<text x="142.9" y="58.0" font-size="11.0" fill="#3987e5">MID:113.8</text>
<text x="207.4" y="58.0" font-size="11.0" fill="#d55181">LOW:54.6</text>
<text x="265.8" y="58.0" font-size="11.0" fill="#9085e9">MA7:123.3</text>
<line x1="10.0" y1="356.0" x2="830.0" y2="356.0" stroke="#2c2c2a" stroke-width="1.0"/>
<text x="14.0" y="353.0" font-size="11.0" fill="#898781">0</text>
<line x1="10.0" y1="278.0" x2="830.0" y2="278.0" stroke="#2c2c2a" stroke-width="1.0"/>
<text x="14.0" y="275.0" font-size="11.0" fill="#898781">50</text>
<line x1="10.0" y1="200.0" x2="830.0" y2="200.0" stroke="#2c2c2a" stroke-width="1.0"/>
<text x="14.0" y="197.0" font-size="11.0" fill="#898781">100</text>
<line x1="10.0" y1="121.9" x2="830.0" y2="121.9" stroke="#2c2c2a" stroke-width="1.0"/>
<text x="14.0" y="118.9" font-size="11.0" fill="#898781">150</text>
<polyline points="317.5,131.2 333.3,129.2 349.0,128.8 364.8,134.3 380.6,138.2 396.3,145.1 412.1,144.3 427.9,144.7 443.7,145.3 459.4,146.0 475.2,147.3 491.0,143.4 506.7,135.7 522.5,131.9 538.3,131.9 554.0,129.3 569.8,129.4 585.6,129.3 601.3,129.8 617.1,129.9 632.9,129.9 648.7,131.7 664.4,131.6 680.2,131.9 696.0,131.6 711.7,127.8 727.5,129.1 743.3,121.2 759.0,101.5 774.8,100.1 790.6,95.8 806.3,95.9 822.1,86.1" fill="none" stroke="#c98500" stroke-width="1.5" stroke-linejoin="round" stroke-linecap="round"/>
<polyline points="317.5,175.9 333.3,178.3 349.0,177.7 364.8,179.6 380.6,181.8 396.3,183.7 412.1,183.3 427.9,182.5 443.7,183.4 459.4,184.8 475.2,185.2 491.0,184.0 506.7,180.2 522.5,179.0 538.3,179.0 554.0,180.2 569.8,180.1 585.6,179.8 601.3,180.5 617.1,181.1 632.9,181.1 648.7,179.8 664.4,181.5 680.2,183.3 696.0,182.8 711.7,181.4 727.5,182.8 743.3,179.8 759.0,174.0 774.8,171.6 790.6,169.8 806.3,169.8 822.1,178.4" fill="none" stroke="#3987e5" stroke-width="1.5" stroke-linejoin="round" stroke-linecap="round"/>
<polyline points="317.5,220.5 333.3,227.5 349.0,226.6 364.8,224.9 380.6,225.4 396.3,222.2 412.1,222.2 427.9,220.3 443.7,221.5 459.4,223.6 475.2,223.1 491.0,224.6 506.7,224.8 522.5,226.1 538.3,226.1 554.0,231.2 569.8,230.7 585.6,230.2 601.3,231.3 617.1,232.3 632.9,232.3 648.7,227.8 664.4,231.3 680.2,234.6 696.0,233.9 711.7,235.0 727.5,236.5 743.3,238.3 759.0,246.4 774.8,243.2 790.6,243.8 806.3,243.8 822.1,270.7" fill="none" stroke="#d55181" stroke-width="1.5" stroke-linejoin="round" stroke-linecap="round"/>
<polyline points="112.5,166.7 128.3,167.2 144.0,165.2 159.8,168.1 175.6,171.4 191.3,181.9 207.1,180.8 222.9,179.2 238.7,183.3 254.4,187.0 270.2,191.7 286.0,192.2 301.7,188.9 317.5,184.2 333.3,188.4 349.0,184.4 364.8,180.6 380.6,181.1 396.3,180.6 412.1,178.1 427.9,185.8 443.7,181.7 459.4,185.4 475.2,184.2 491.0,178.0 506.7,172.0 522.5,168.6 538.3,169.2 554.0,174.1 569.8,173.4 585.6,176.1 601.3,182.2 617.1,191.2 632.9,190.1 648.7,190.6 664.4,187.9 680.2,189.7 696.0,189.7 711.7,183.0 727.5,183.0 743.3,181.9 759.0,165.2 774.8,157.4 790.6,145.5 806.3,140.8 822.1,163.6" fill="none" stroke="#9085e9" stroke-width="1.5" stroke-linejoin="round" stroke-linecap="round"/>
<rect x="13.5" y="173.4" width="8.7" height="182.6" fill="none" stroke="#e66767" stroke-width="1.3"/>
<rect x="29.3" y="173.4" width="8.7" height="15.6" fill="#008300"/>
<rect x="45.1" y="137.5" width="8.7" height="51.5" fill="none" stroke="#e66767" stroke-width="1.3"/>
<rect x="60.9" y="137.5" width="8.7" height="12.5" fill="#008300"/>
<rect x="76.6" y="136.0" width="8.7" height="14.0" fill="none" stroke="#e66767" stroke-width="1.3"/>
<rect x="92.4" y="136.0" width="8.7" height="40.6" fill="#008300"/>
<rect x="108.2" y="176.6" width="8.7" height="28.1" fill="#008300"/>
<rect x="123.9" y="176.6" width="8.7" height="28.1" fill="none" stroke="#e66767" stroke-width="1.3"/>
<rect x="139.7" y="175.0" width="8.7" height="1.6" fill="none" stroke="#e66767" stroke-width="1.3"/>
<rect x="155.5" y="157.8" width="8.7" height="17.2" fill="none" stroke="#e66767" stroke-width="1.3"/>
<rect x="171.2" y="157.8" width="8.7" height="15.6" fill="#008300"/>
<rect x="187.0" y="173.4" width="8.7" height="35.9" fill="#008300"/>
<rect x="202.8" y="168.8" width="8.7" height="40.6" fill="none" stroke="#e66767" stroke-width="1.3"/>
<rect x="218.5" y="168.8" width="8.7" height="25.0" fill="#008300"/>
<rect x="234.3" y="193.7" width="8.7" height="10.9" fill="#008300"/>
<rect x="250.1" y="201.5" width="8.7" height="3.1" fill="none" stroke="#e66767" stroke-width="1.3"/>
<rect x="265.9" y="190.6" width="8.7" height="10.9" fill="none" stroke="#e66767" stroke-width="1.3"/>
<rect x="281.6" y="176.6" width="8.7" height="14.0" fill="none" stroke="#e66767" stroke-width="1.3"/>
<rect x="297.4" y="176.6" width="8.7" height="9.4" fill="#008300"/>
<rect x="313.2" y="136.0" width="8.7" height="49.9" fill="none" stroke="#e66767" stroke-width="1.3"/>
<rect x="328.9" y="136.0" width="8.7" height="87.4" fill="#008300"/>
<rect x="344.7" y="176.6" width="8.7" height="46.8" fill="none" stroke="#e66767" stroke-width="1.3"/>
<rect x="360.5" y="175.0" width="8.7" height="1.6" fill="none" stroke="#e66767" stroke-width="1.3"/>
<rect x="376.2" y="175.0" width="8.7" height="18.7" fill="#008300"/>
<rect x="392.0" y="173.4" width="8.7" height="20.3" fill="none" stroke="#e66767" stroke-width="1.3"/>
<rect x="407.8" y="168.8" width="8.7" height="4.7" fill="none" stroke="#e66767" stroke-width="1.3"/>
<rect x="423.5" y="168.8" width="8.7" height="20.3" fill="#008300"/>
<rect x="439.3" y="189.0" width="8.7" height="6.2" fill="#008300"/>
<rect x="455.1" y="195.3" width="8.7" height="7.8" fill="#008300"/>
<rect x="470.9" y="165.6" width="8.7" height="37.4" fill="none" stroke="#e66767" stroke-width="1.3"/>
<rect x="486.6" y="150.0" width="8.7" height="15.6" fill="none" stroke="#e66767" stroke-width="1.3"/>
<rect x="502.4" y="132.9" width="8.7" height="17.2" fill="none" stroke="#e66767" stroke-width="1.3"/>
<rect x="518.2" y="132.9" width="8.7" height="10.9" fill="#008300"/>
<rect x="533.9" y="143.8" width="8.7" height="49.9" fill="#008300"/>
<rect x="549.7" y="193.7" width="8.7" height="35.9" fill="#008300"/>
<rect x="565.5" y="198.4" width="8.7" height="31.2" fill="none" stroke="#e66767" stroke-width="1.3"/>
<rect x="581.2" y="184.4" width="8.7" height="14.0" fill="none" stroke="#e66767" stroke-width="1.3"/>
<rect x="597.0" y="184.4" width="8.7" height="7.8" fill="#008300"/>
<rect x="612.8" y="192.2" width="8.7" height="4.7" fill="#008300"/>
<rect x="628.5" y="136.0" width="8.7" height="60.9" fill="none" stroke="#e66767" stroke-width="1.3"/>
<rect x="644.3" y="136.0" width="8.7" height="60.9" fill="#008300"/>
<rect x="660.1" y="196.8" width="8.7" height="14.0" fill="#008300"/>
<rect x="675.9" y="210.9" width="8.7" height="1.2" fill="#898781"/>
<rect x="691.6" y="184.4" width="8.7" height="26.5" fill="none" stroke="#e66767" stroke-width="1.3"/>
<rect x="707.4" y="145.3" width="8.7" height="39.0" fill="none" stroke="#e66767" stroke-width="1.3"/>
<rect x="723.2" y="145.3" width="8.7" height="51.5" fill="#008300"/>
<rect x="738.9" y="128.2" width="8.7" height="68.7" fill="none" stroke="#e66767" stroke-width="1.3"/>
<rect x="754.7" y="79.8" width="8.7" height="48.4" fill="none" stroke="#e66767" stroke-width="1.3"/>
<rect x="770.5" y="79.8" width="8.7" height="76.5" fill="#008300"/>
<rect x="786.2" y="128.2" width="8.7" height="28.1" fill="none" stroke="#e66767" stroke-width="1.3"/>
<rect x="802.0" y="128.2" width="8.7" height="23.4" fill="#008300"/>
<rect x="817.8" y="151.6" width="8.7" height="152.9" fill="#008300"/>
<circle cx="759.0" cy="79.8" r="2" fill="#c3c2b7"/>
<line x1="759.0" y1="79.8" x2="751.0" y2="79.8" stroke="#c3c2b7" stroke-width="1.0"/>
<text x="748.0" y="83.8" font-size="11.0" fill="#c3c2b7" text-anchor="end">177</text>
<circle cx="17.9" cy="356.0" r="2" fill="#c3c2b7"/>
<line x1="17.9" y1="356.0" x2="25.9" y2="356.0" stroke="#c3c2b7" stroke-width="1.0"/>
<text x="28.9" y="350.0" font-size="11.0" fill="#c3c2b7">0</text>
<text x="14.0" y="376.0" font-size="11.0" fill="#c3c2b7">VOL 17 forks</text>
<text x="96.6" y="376.0" font-size="11.0" fill="#c98500">MA5:39.6</text>
<text x="155.0" y="376.0" font-size="11.0" fill="#3987e5">MA10:34.7</text>
<text x="14.0" y="395.0" font-size="10" fill="#898781">59</text>
<rect x="13.5" y="442.2" width="8.7" height="27.8" fill="none" stroke="#e66767" stroke-width="1.1"/>
<rect x="29.3" y="442.2" width="8.7" height="27.8" fill="#008300"/>
<rect x="45.1" y="411.6" width="8.7" height="58.4" fill="none" stroke="#e66767" stroke-width="1.1"/>
<rect x="60.9" y="445.0" width="8.7" height="25.0" fill="#008300"/>
<rect x="76.6" y="446.4" width="8.7" height="23.6" fill="none" stroke="#e66767" stroke-width="1.1"/>
<rect x="92.4" y="436.6" width="8.7" height="33.4" fill="#008300"/>
<rect x="108.2" y="442.2" width="8.7" height="27.8" fill="#008300"/>
<rect x="123.9" y="451.9" width="8.7" height="18.1" fill="none" stroke="#e66767" stroke-width="1.1"/>
<rect x="139.7" y="443.6" width="8.7" height="26.4" fill="none" stroke="#e66767" stroke-width="1.1"/>
<rect x="155.5" y="439.4" width="8.7" height="30.6" fill="none" stroke="#e66767" stroke-width="1.1"/>
<rect x="171.2" y="436.6" width="8.7" height="33.4" fill="#008300"/>
<rect x="187.0" y="450.5" width="8.7" height="19.5" fill="#008300"/>
<rect x="202.8" y="442.2" width="8.7" height="27.8" fill="none" stroke="#e66767" stroke-width="1.1"/>
<rect x="218.5" y="451.9" width="8.7" height="18.1" fill="#008300"/>
<rect x="234.3" y="450.5" width="8.7" height="19.5" fill="#008300"/>
<rect x="250.1" y="450.5" width="8.7" height="19.5" fill="none" stroke="#e66767" stroke-width="1.1"/>
<rect x="265.9" y="443.6" width="8.7" height="26.4" fill="none" stroke="#e66767" stroke-width="1.1"/>
<rect x="281.6" y="440.8" width="8.7" height="29.2" fill="none" stroke="#e66767" stroke-width="1.1"/>
<rect x="297.4" y="450.5" width="8.7" height="19.5" fill="#008300"/>
<rect x="313.2" y="439.4" width="8.7" height="30.6" fill="none" stroke="#e66767" stroke-width="1.1"/>
<rect x="328.9" y="450.5" width="8.7" height="19.5" fill="#008300"/>
<rect x="344.7" y="442.2" width="8.7" height="27.8" fill="none" stroke="#e66767" stroke-width="1.1"/>
<rect x="360.5" y="450.5" width="8.7" height="19.5" fill="none" stroke="#e66767" stroke-width="1.1"/>
<rect x="376.2" y="443.6" width="8.7" height="26.4" fill="#008300"/>
<rect x="392.0" y="445.0" width="8.7" height="25.0" fill="none" stroke="#e66767" stroke-width="1.1"/>
<rect x="407.8" y="440.8" width="8.7" height="29.2" fill="none" stroke="#e66767" stroke-width="1.1"/>
<rect x="423.5" y="443.6" width="8.7" height="26.4" fill="#008300"/>
<rect x="439.3" y="449.2" width="8.7" height="20.8" fill="#008300"/>
<rect x="455.1" y="440.8" width="8.7" height="29.2" fill="#008300"/>
<rect x="470.9" y="442.2" width="8.7" height="27.8" fill="none" stroke="#e66767" stroke-width="1.1"/>
<rect x="486.6" y="436.6" width="8.7" height="33.4" fill="none" stroke="#e66767" stroke-width="1.1"/>
<rect x="502.4" y="442.2" width="8.7" height="27.8" fill="none" stroke="#e66767" stroke-width="1.1"/>
<rect x="518.2" y="450.5" width="8.7" height="19.5" fill="#008300"/>
<rect x="533.9" y="442.2" width="8.7" height="27.8" fill="#008300"/>
<rect x="549.7" y="442.2" width="8.7" height="27.8" fill="#008300"/>
<rect x="565.5" y="446.4" width="8.7" height="23.6" fill="none" stroke="#e66767" stroke-width="1.1"/>
<rect x="581.2" y="450.5" width="8.7" height="19.5" fill="none" stroke="#e66767" stroke-width="1.1"/>
<rect x="597.0" y="432.5" width="8.7" height="37.5" fill="#008300"/>
<rect x="612.8" y="447.8" width="8.7" height="22.2" fill="#008300"/>
<rect x="628.5" y="443.6" width="8.7" height="26.4" fill="none" stroke="#e66767" stroke-width="1.1"/>
<rect x="644.3" y="439.4" width="8.7" height="30.6" fill="#008300"/>
<rect x="660.1" y="447.8" width="8.7" height="22.2" fill="#008300"/>
<rect x="675.9" y="449.2" width="8.7" height="20.8" fill="#898781"/>
<rect x="691.6" y="446.4" width="8.7" height="23.6" fill="none" stroke="#e66767" stroke-width="1.1"/>
<rect x="707.4" y="400.5" width="8.7" height="69.5" fill="none" stroke="#e66767" stroke-width="1.1"/>
<rect x="723.2" y="429.7" width="8.7" height="40.3" fill="#008300"/>
<rect x="738.9" y="417.2" width="8.7" height="52.8" fill="none" stroke="#e66767" stroke-width="1.1"/>
<rect x="754.7" y="388.0" width="8.7" height="82.0" fill="none" stroke="#e66767" stroke-width="1.1"/>
<rect x="770.5" y="420.0" width="8.7" height="50.0" fill="#008300"/>
<rect x="786.2" y="401.9" width="8.7" height="68.1" fill="none" stroke="#e66767" stroke-width="1.1"/>
<rect x="802.0" y="418.6" width="8.7" height="51.4" fill="#008300"/>
<rect x="817.8" y="446.4" width="8.7" height="23.6" fill="#008300"/>
<polyline points="159.8,440.1 175.6,439.6 191.3,440.4 207.1,443.5 222.9,444.1 238.7,444.6 254.4,446.0 270.2,446.1 286.0,445.0 301.7,445.7 317.5,445.7 333.3,447.1 349.0,446.2 364.8,447.1 380.6,446.2 396.3,445.7 412.1,444.7 427.9,444.7 443.7,445.5 459.4,444.6 475.2,444.8 491.0,443.5 506.7,443.5 522.5,443.5 538.3,443.3 554.0,443.0 569.8,443.6 585.6,444.3 601.3,442.6 617.1,443.3 632.9,443.5 648.7,443.7 664.4,444.3 680.2,444.1 696.0,444.6 711.7,440.4 727.5,438.7 743.3,435.4 759.0,430.9 774.8,428.2 790.6,424.0 806.3,421.9 822.1,421.8" fill="none" stroke="#3987e5" stroke-width="1.5" stroke-linejoin="round" stroke-linecap="round"/>
<polyline points="81.0,437.5 96.7,436.4 112.5,436.4 128.3,444.4 144.0,444.1 159.8,442.8 175.6,442.8 191.3,444.4 207.1,442.5 222.9,444.1 238.7,446.4 254.4,449.2 270.2,447.8 286.0,447.5 301.7,447.2 317.5,445.0 333.3,445.0 349.0,444.7 364.8,446.7 380.6,445.3 396.3,446.4 412.1,444.4 427.9,444.7 443.7,444.4 459.4,443.9 475.2,443.3 491.0,442.5 506.7,442.2 522.5,442.5 538.3,442.8 554.0,442.8 569.8,444.7 585.6,446.4 601.3,442.8 617.1,443.9 632.9,444.1 648.7,442.8 664.4,442.2 680.2,445.5 696.0,445.3 711.7,436.6 727.5,434.7 743.3,428.6 759.0,416.4 774.8,411.1 790.6,411.3 806.3,409.1 822.1,415.0" fill="none" stroke="#c98500" stroke-width="1.5" stroke-linejoin="round" stroke-linecap="round"/>
</svg>