<svg xmlns="http://www.w3.org/2000/svg" viewBox="0 0 840 496" width="840" height="496" font-family="-apple-system,&#39;Segoe UI&#39;,system-ui,sans-serif" role="img" aria-label="torvalds/linux candlestick chart">
<text x="14.0" y="20.0" font-size="15" fill="#ffffff" font-weight="650">torvalds/linux</text>
<text x="133.5" y="20.0" font-size="11.5" fill="#c3c2b7">daily · new stars, volume = new forks</text>
<text x="805.8" y="20.0" font-size="11.0" fill="#c3c2b7">fall</text>
<rect x="791" y="10" width="9" height="12" fill="#008300"/>
<text x="750.6" y="20.0" font-size="11.0" fill="#c3c2b7">rise</text>
<rect x="736" y="10" width="9" height="12" fill="none" stroke="#e66767" stroke-width="1.5"/>
<text x="14.0" y="38.0" font-size="11.0" fill="#898781">last 56 days · +6,431 stars · +1,340 forks · updated 2026-07-11</text>
<rect x="10" y="66" width="820" height="290" fill="none" stroke="#2c2c2a"/>
<rect x="10" y="384" width="820" height="86" fill="none" stroke="#2c2c2a"/>
<text x="38.0" y="490.0" font-size="11.0" fill="#898781" text-anchor="middle">2026-05</text>
<line x1="229.6" y1="66.0" x2="229.6" y2="356.0" stroke="#2c2c2a" stroke-width="1.0"/>
<line x1="229.6" y1="384.0" x2="229.6" y2="470.0" stroke="#2c2c2a" stroke-width="1.0"/>
<text x="237.0" y="490.0" font-size="11.0" fill="#898781" text-anchor="middle">2026-06</text>
<line x1="668.9" y1="66.0" x2="668.9" y2="356.0" stroke="#2c2c2a" stroke-width="1.0"/>
<line x1="668.9" y1="384.0" x2="668.9" y2="470.0" stroke="#2c2c2a" stroke-width="1.0"/>
<text x="676.2" y="490.0" font-size="11.0" fill="#898781" text-anchor="middle">2026-07</text>
<text x="14.0" y="58.0" font-size="11.0" fill="#c3c2b7">BOLL(20,2)</text>
<text x="84.5" y="58.0" font-size="11.0" fill="#c98500">UP:183.8</text>
<text x="142.9" y="58.0" font-size="11.0" fill="#3987e5">MID:116.9</text>
<text x="207.4" y="58.0" font-size="11.0" fill="#d55181">LOW:50.0</text>
<text x="265.8" y="58.0" font-size="11.0" fill="#9085e9">MA7:113.4</text>
<line x1="10.0" y1="356.0" x2="830.0" y2="356.0" stroke="#2c2c2a" stroke-width="1.0"/>
<text x="14.0" y="353.0" font-size="11.0" fill="#898781">0</text>
<line x1="10.0" y1="280.9" x2="830.0" y2="280.9" stroke="#2c2c2a" stroke-width="1.0"/>
<text x="14.0" y="277.9" font-size="11.0" fill="#898781">50</text>
<line x1="10.0" y1="205.9" x2="830.0" y2="205.9" stroke="#2c2c2a" stroke-width="1.0"/>
<text x="14.0" y="202.9" font-size="11.0" fill="#898781">100</text>
<line x1="10.0" y1="130.8" x2="830.0" y2="130.8" stroke="#2c2c2a" stroke-width="1.0"/>
<text x="14.0" y="127.8" font-size="11.0" fill="#898781">150</text>
<polyline points="295.5,139.8 310.2,137.8 324.8,137.5 339.5,142.7 354.1,146.5 368.8,153.2 383.4,152.4 398.0,152.7 412.7,153.3 427.3,154.0 442.0,155.3 456.6,151.5 471.2,144.0 485.9,140.4 500.5,140.4 515.2,137.9 529.8,138.0 544.5,137.9 559.1,138.4 573.8,138.5 588.4,138.5 603.0,140.2 617.7,140.1 632.3,140.4 647.0,140.2 661.6,136.5 676.2,137.8 690.9,130.1 705.5,111.2 720.2,109.8 734.8,105.7 749.5,105.8 764.1,96.4 778.8,99.3 793.4,99.4 808.0,97.2 822.7,80.0" fill="none" stroke="#c98500" stroke-width="1.5" stroke-linejoin="round" stroke-linecap="round"/>
<polyline points="295.5,182.7 310.2,185.1 324.8,184.5 339.5,186.3 354.1,188.4 368.8,190.2 383.4,189.8 398.0,189.1 412.7,190.0 427.3,191.3 442.0,191.7 456.6,190.6 471.2,186.9 485.9,185.7 500.5,185.7 515.2,186.9 529.8,186.8 544.5,186.5 559.1,187.2 573.8,187.7 588.4,187.7 603.0,186.5 617.7,188.1 632.3,189.8 647.0,189.4 661.6,188.0 676.2,189.4 690.9,186.5 705.5,180.9 720.2,178.7 734.8,176.9 749.5,176.9 764.1,185.2 778.8,189.5 793.4,190.4 808.0,186.8 822.7,180.5" fill="none" stroke="#3987e5" stroke-width="1.5" stroke-linejoin="round" stroke-linecap="round"/>
<polyline points="295.5,225.6 310.2,232.4 324.8,231.5 339.5,229.9 354.1,230.4 368.8,227.3 383.4,227.3 398.0,225.5 412.7,226.6 427.3,228.7 442.0,228.1 456.6,229.6 471.2,229.8 485.9,231.0 500.5,231.0 515.2,235.9 529.8,235.5 544.5,235.0 559.1,236.0 573.8,237.0 588.4,237.0 603.0,232.7 617.7,236.1 632.3,239.2 647.0,238.6 661.6,239.6 676.2,241.0 690.9,242.8 705.5,250.6 720.2,247.5 734.8,248.0 749.5,248.0 764.1,274.0 778.8,279.7 793.4,281.5 808.0,276.3 822.7,281.0" fill="none" stroke="#d55181" stroke-width="1.5" stroke-linejoin="round" stroke-linecap="round"/>
<polyline points="105.2,173.9 119.8,174.4 134.5,172.4 149.1,175.3 163.8,178.4 178.4,188.5 193.0,187.4 207.7,185.9 222.3,189.8 237.0,193.4 251.6,197.9 266.2,198.4 280.9,195.2 295.5,190.7 310.2,194.8 324.8,190.9 339.5,187.3 354.1,187.7 368.8,187.3 383.4,184.9 398.0,192.2 412.7,188.3 427.3,191.9 442.0,190.7 456.6,184.7 471.2,179.0 485.9,175.7 500.5,176.3 515.2,181.0 529.8,180.4 544.5,182.9 559.1,188.8 573.8,197.5 588.4,196.4 603.0,196.9 617.7,194.3 632.3,196.0 647.0,196.0 661.6,189.5 676.2,189.5 690.9,188.5 705.5,172.4 720.2,164.9 734.8,153.5 749.5,149.0 764.1,170.9 778.8,175.9 793.4,187.7 808.0,197.8 822.7,185.8" fill="none" stroke="#9085e9" stroke-width="1.5" stroke-linejoin="round" stroke-linecap="round"/>
<rect x="13.3" y="180.4" width="8.1" height="175.6" fill="none" stroke="#e66767" stroke-width="1.3"/>
<rect x="27.9" y="180.4" width="8.1" height="15.0" fill="#008300"/>
<rect x="42.6" y="145.9" width="8.1" height="49.5" fill="none" stroke="#e66767" stroke-width="1.3"/>
<rect x="57.2" y="145.9" width="8.1" height="12.0" fill="#008300"/>
<rect x="71.9" y="144.4" width="8.1" height="13.5" fill="none" stroke="#e66767" stroke-width="1.3"/>
<rect x="86.5" y="144.4" width="8.1" height="39.0" fill="#008300"/>
<rect x="101.2" y="183.4" width="8.1" height="27.0" fill="#008300"/>
<rect x="115.8" y="183.4" width="8.1" height="27.0" fill="none" stroke="#e66767" stroke-width="1.3"/>
<rect x="130.4" y="181.9" width="8.1" height="1.5" fill="none" stroke="#e66767" stroke-width="1.3"/>
<rect x="145.1" y="165.4" width="8.1" height="16.5" fill="none" stroke="#e66767" stroke-width="1.3"/>
<rect x="159.7" y="165.4" width="8.1" height="15.0" fill="#008300"/>
<rect x="174.4" y="180.4" width="8.1" height="34.5" fill="#008300"/>
<rect x="189.0" y="175.9" width="8.1" height="39.0" fill="none" stroke="#e66767" stroke-width="1.3"/>
<rect x="203.7" y="175.9" width="8.1" height="24.0" fill="#008300"/>
<rect x="218.3" y="199.9" width="8.1" height="10.5" fill="#008300"/>
<rect x="232.9" y="207.4" width="8.1" height="3.0" fill="none" stroke="#e66767" stroke-width="1.3"/>
<rect x="247.6" y="196.9" width="8.1" height="10.5" fill="none" stroke="#e66767" stroke-width="1.3"/>
<rect x="262.2" y="183.4" width="8.1" height="13.5" fill="none" stroke="#e66767" stroke-width="1.3"/>
<rect x="276.9" y="183.4" width="8.1" height="9.0" fill="#008300"/>
<rect x="291.5" y="144.4" width="8.1" height="48.0" fill="none" stroke="#e66767" stroke-width="1.3"/>
<rect x="306.2" y="144.4" width="8.1" height="84.1" fill="#008300"/>
<rect x="320.8" y="183.4" width="8.1" height="45.0" fill="none" stroke="#e66767" stroke-width="1.3"/>
<rect x="335.4" y="181.9" width="8.1" height="1.5" fill="none" stroke="#e66767" stroke-width="1.3"/>
<rect x="350.1" y="181.9" width="8.1" height="18.0" fill="#008300"/>
<rect x="364.7" y="180.4" width="8.1" height="19.5" fill="none" stroke="#e66767" stroke-width="1.3"/>
<rect x="379.4" y="175.9" width="8.1" height="4.5" fill="none" stroke="#e66767" stroke-width="1.3"/>
<rect x="394.0" y="175.9" width="8.1" height="19.5" fill="#008300"/>
<rect x="408.7" y="195.4" width="8.1" height="6.0" fill="#008300"/>
<rect x="423.3" y="201.4" width="8.1" height="7.5" fill="#008300"/>
<rect x="437.9" y="172.9" width="8.1" height="36.0" fill="none" stroke="#e66767" stroke-width="1.3"/>
<rect x="452.6" y="157.9" width="8.1" height="15.0" fill="none" stroke="#e66767" stroke-width="1.3"/>
<rect x="467.2" y="141.4" width="8.1" height="16.5" fill="none" stroke="#e66767" stroke-width="1.3"/>
<rect x="481.9" y="141.4" width="8.1" height="10.5" fill="#008300"/>
<rect x="496.5" y="151.9" width="8.1" height="48.0" fill="#008300"/>
<rect x="511.2" y="199.9" width="8.1" height="34.5" fill="#008300"/>
<rect x="525.8" y="204.4" width="8.1" height="30.0" fill="none" stroke="#e66767" stroke-width="1.3"/>
<rect x="540.4" y="190.9" width="8.1" height="13.5" fill="none" stroke="#e66767" stroke-width="1.3"/>
<rect x="555.1" y="190.9" width="8.1" height="7.5" fill="#008300"/>
<rect x="569.7" y="198.4" width="8.1" height="4.5" fill="#008300"/>
<rect x="584.4" y="144.4" width="8.1" height="58.5" fill="none" stroke="#e66767" stroke-width="1.3"/>
<rect x="599.0" y="144.4" width="8.1" height="58.5" fill="#008300"/>
<rect x="613.7" y="202.9" width="8.1" height="13.5" fill="#008300"/>
<rect x="628.3" y="216.4" width="8.1" height="1.2" fill="#898781"/>
<rect x="642.9" y="190.9" width="8.1" height="25.5" fill="none" stroke="#e66767" stroke-width="1.3"/>
<rect x="657.6" y="153.4" width="8.1" height="37.5" fill="none" stroke="#e66767" stroke-width="1.3"/>
<rect x="672.2" y="153.4" width="8.1" height="49.5" fill="#008300"/>
<rect x="686.9" y="136.8" width="8.1" height="66.0" fill="none" stroke="#e66767" stroke-width="1.3"/>
<rect x="701.5" y="90.3" width="8.1" height="46.5" fill="none" stroke="#e66767" stroke-width="1.3"/>
<rect x="716.2" y="90.3" width="8.1" height="73.6" fill="#008300"/>
<rect x="730.8" y="136.8" width="8.1" height="27.0" fill="none" stroke="#e66767" stroke-width="1.3"/>
<rect x="745.4" y="136.8" width="8.1" height="22.5" fill="#008300"/>
<rect x="760.1" y="159.4" width="8.1" height="147.1" fill="#008300"/>
<rect x="774.7" y="237.4" width="8.1" height="69.0" fill="none" stroke="#e66767" stroke-width="1.3"/>
<rect x="789.4" y="219.4" width="8.1" height="18.0" fill="none" stroke="#e66767" stroke-width="1.3"/>
<rect x="804.0" y="160.9" width="8.1" height="58.5" fill="none" stroke="#e66767" stroke-width="1.3"/>
<rect x="818.7" y="79.8" width="8.1" height="81.1" fill="none" stroke="#e66767" stroke-width="1.3"/>
<circle cx="822.7" cy="79.8" r="2" fill="#c3c2b7"/>
<line x1="822.7" y1="79.8" x2="814.7" y2="79.8" stroke="#c3c2b7" stroke-width="1.0"/>
<text x="811.7" y="83.8" font-size="11.0" fill="#c3c2b7" text-anchor="end">184</text>
<circle cx="17.3" cy="356.0" r="2" fill="#c3c2b7"/>
<line x1="17.3" y1="356.0" x2="25.3" y2="356.0" stroke="#c3c2b7" stroke-width="1.0"/>
<text x="28.3" y="350.0" font-size="11.0" fill="#c3c2b7">0</text>
<text x="14.0" y="376.0" font-size="11.0" fill="#c3c2b7">VOL 132 forks</text>
<text x="102.7" y="376.0" font-size="11.0" fill="#c98500">MA5:42</text>
<text x="149.0" y="376.0" font-size="11.0" fill="#3987e5">MA10:42.9</text>
<text x="14.0" y="395.0" font-size="10" fill="#898781">132</text>
<rect x="13.3" y="457.6" width="8.1" height="12.4" fill="none" stroke="#e66767" stroke-width="1.1"/>
<rect x="27.9" y="457.6" width="8.1" height="12.4" fill="#008300"/>
<rect x="42.6" y="443.9" width="8.1" height="26.1" fill="none" stroke="#e66767" stroke-width="1.1"/>
<rect x="57.2" y="458.8" width="8.1" height="11.2" fill="#008300"/>
<rect x="71.9" y="459.4" width="8.1" height="10.6" fill="none" stroke="#e66767" stroke-width="1.1"/>
<rect x="86.5" y="455.1" width="8.1" height="14.9" fill="#008300"/>
<rect x="101.2" y="457.6" width="8.1" height="12.4" fill="#008300"/>
<rect x="115.8" y="461.9" width="8.1" height="8.1" fill="none" stroke="#e66767" stroke-width="1.1"/>
<rect x="130.4" y="458.2" width="8.1" height="11.8" fill="none" stroke="#e66767" stroke-width="1.1"/>
<rect x="145.1" y="456.3" width="8.1" height="13.7" fill="none" stroke="#e66767" stroke-width="1.1"/>
<rect x="159.7" y="455.1" width="8.1" height="14.9" fill="#008300"/>
<rect x="174.4" y="461.3" width="8.1" height="8.7" fill="#008300"/>
<rect x="189.0" y="457.6" width="8.1" height="12.4" fill="none" stroke="#e66767" stroke-width="1.1"/>
<rect x="203.7" y="461.9" width="8.1" height="8.1" fill="#008300"/>
<rect x="218.3" y="461.3" width="8.1" height="8.7" fill="#008300"/>
<rect x="232.9" y="461.3" width="8.1" height="8.7" fill="none" stroke="#e66767" stroke-width="1.1"/>
<rect x="247.6" y="458.2" width="8.1" height="11.8" fill="none" stroke="#e66767" stroke-width="1.1"/>
<rect x="262.2" y="457.0" width="8.1" height="13.0" fill="none" stroke="#e66767" stroke-width="1.1"/>
<rect x="276.9" y="461.3" width="8.1" height="8.7" fill="#008300"/>
<rect x="291.5" y="456.3" width="8.1" height="13.7" fill="none" stroke="#e66767" stroke-width="1.1"/>
<rect x="306.2" y="461.3" width="8.1" height="8.7" fill="#008300"/>
<rect x="320.8" y="457.6" width="8.1" height="12.4" fill="none" stroke="#e66767" stroke-width="1.1"/>
<rect x="335.4" y="461.3" width="8.1" height="8.7" fill="none" stroke="#e66767" stroke-width="1.1"/>
<rect x="350.1" y="458.2" width="8.1" height="11.8" fill="#008300"/>
<rect x="364.7" y="458.8" width="8.1" height="11.2" fill="none" stroke="#e66767" stroke-width="1.1"/>
<rect x="379.4" y="457.0" width="8.1" height="13.0" fill="none" stroke="#e66767" stroke-width="1.1"/>
<rect x="394.0" y="458.2" width="8.1" height="11.8" fill="#008300"/>
<rect x="408.7" y="460.7" width="8.1" height="9.3" fill="#008300"/>
<rect x="423.3" y="457.0" width="8.1" height="13.0" fill="#008300"/>
<rect x="437.9" y="457.6" width="8.1" height="12.4" fill="none" stroke="#e66767" stroke-width="1.1"/>
<rect x="452.6" y="455.1" width="8.1" height="14.9" fill="none" stroke="#e66767" stroke-width="1.1"/>
<rect x="467.2" y="457.6" width="8.1" height="12.4" fill="none" stroke="#e66767" stroke-width="1.1"/>
<rect x="481.9" y="461.3" width="8.1" height="8.7" fill="#008300"/>
<rect x="496.5" y="457.6" width="8.1" height="12.4" fill="#008300"/>
<rect x="511.2" y="457.6" width="8.1" height="12.4" fill="#008300"/>
<rect x="525.8" y="459.4" width="8.1" height="10.6" fill="none" stroke="#e66767" stroke-width="1.1"/>
<rect x="540.4" y="461.3" width="8.1" height="8.7" fill="none" stroke="#e66767" stroke-width="1.1"/>
<rect x="555.1" y="453.2" width="8.1" height="16.8" fill="#008300"/>
<rect x="569.7" y="460.1" width="8.1" height="9.9" fill="#008300"/>
<rect x="584.4" y="458.2" width="8.1" height="11.8" fill="none" stroke="#e66767" stroke-width="1.1"/>
<rect x="599.0" y="456.3" width="8.1" height="13.7" fill="#008300"/>
<rect x="613.7" y="460.1" width="8.1" height="9.9" fill="#008300"/>
<rect x="628.3" y="460.7" width="8.1" height="9.3" fill="#898781"/>
<rect x="642.9" y="459.4" width="8.1" height="10.6" fill="none" stroke="#e66767" stroke-width="1.1"/>
<rect x="657.6" y="438.9" width="8.1" height="31.1" fill="none" stroke="#e66767" stroke-width="1.1"/>
<rect x="672.2" y="452.0" width="8.1" height="18.0" fill="#008300"/>
<rect x="686.9" y="446.4" width="8.1" height="23.6" fill="none" stroke="#e66767" stroke-width="1.1"/>
<rect x="701.5" y="433.3" width="8.1" height="36.7" fill="none" stroke="#e66767" stroke-width="1.1"/>
<rect x="716.2" y="447.6" width="8.1" height="22.4" fill="#008300"/>
<rect x="730.8" y="439.6" width="8.1" height="30.4" fill="none" stroke="#e66767" stroke-width="1.1"/>
<rect x="745.4" y="447.0" width="8.1" height="23.0" fill="#008300"/>
<rect x="760.1" y="459.4" width="8.1" height="10.6" fill="#008300"/>
<rect x="789.4" y="457.6" width="8.1" height="12.4" fill="none" stroke="#e66767" stroke-width="1.1"/>
<rect x="804.0" y="444.5" width="8.1" height="25.5" fill="none" stroke="#e66767" stroke-width="1.1"/>
<rect x="818.7" y="388.0" width="8.1" height="82.0" fill="none" stroke="#e66767" stroke-width="1.1"/>
<polyline points="149.1,456.6 163.8,456.4 178.4,456.8 193.0,458.1 207.7,458.4 222.3,458.6 237.0,459.3 251.6,459.3 266.2,458.8 280.9,459.1 295.5,459.1 310.2,459.8 324.8,459.4 339.5,459.8 354.1,459.4 368.8,459.1 383.4,458.7 398.0,458.7 412.7,459.1 427.3,458.6 442.0,458.8 456.6,458.1 471.2,458.1 485.9,458.1 500.5,458.1 515.2,457.9 529.8,458.2 544.5,458.5 559.1,457.8 573.8,458.1 588.4,458.1 603.0,458.3 617.7,458.5 632.3,458.4 647.0,458.6 661.6,456.8 676.2,456.0 690.9,454.5 705.5,452.5 720.2,451.3 734.8,449.4 749.5,448.5 764.1,448.4 778.8,449.4 793.4,449.2 808.0,449.7 822.7,443.4" fill="none" stroke="#3987e5" stroke-width="1.5" stroke-linejoin="round" stroke-linecap="round"/>
<polyline points="75.9,455.5 90.5,455.0 105.2,455.0 119.8,458.6 134.5,458.4 149.1,457.8 163.8,457.8 178.4,458.6 193.0,457.7 207.7,458.4 222.3,459.4 237.0,460.7 251.6,460.1 266.2,459.9 280.9,459.8 295.5,458.8 310.2,458.8 324.8,458.7 339.5,459.6 354.1,458.9 368.8,459.4 383.4,458.6 398.0,458.7 412.7,458.6 427.3,458.3 442.0,458.1 456.6,457.7 471.2,457.6 485.9,457.7 500.5,457.8 515.2,457.8 529.8,458.7 544.5,459.4 559.1,457.8 573.8,458.3 588.4,458.4 603.0,457.8 617.7,457.6 632.3,459.1 647.0,458.9 661.6,455.1 676.2,454.2 690.9,451.5 705.5,446.0 720.2,443.7 734.8,443.8 749.5,442.8 764.1,445.4 778.8,452.7 793.4,454.7 808.0,455.7 822.7,443.9" fill="none" stroke="#c98500" stroke-width="1.5" stroke-linejoin="round" stroke-linecap="round"/>
</svg>