<svg xmlns="http://www.w3.org/2000/svg" viewBox="0 0 840 496" width="840" height="496" font-family="-apple-system,&#39;Segoe UI&#39;,system-ui,sans-serif" role="img" aria-label="torvalds/linux candlestick chart">
<text x="14.0" y="20.0" font-size="15" fill="#0b0b0b" font-weight="650">torvalds/linux</text>
<text x="133.5" y="20.0" font-size="11.5" fill="#52514e">daily · new stars, volume = new forks</text>
<text x="805.8" y="20.0" font-size="11.0" fill="#52514e">fall</text>
<rect x="791" y="10" width="9" height="12" fill="#008300"/>
<text x="750.6" y="20.0" font-size="11.0" fill="#52514e">rise</text>
<rect x="736" y="10" width="9" height="12" fill="none" stroke="#e34948" stroke-width="1.5"/>
<text x="14.0" y="38.0" font-size="11.0" fill="#898781">last 60 days · +6,819 stars · +1,554 forks · updated 2026-08-21</text>
<rect x="10" y="66" width="820" height="290" fill="none" stroke="#e1e0d9"/>
<rect x="10" y="384" width="820" height="86" fill="none" stroke="#e1e0d9"/>
<text x="38.0" y="490.0" font-size="11.0" fill="#898781" text-anchor="middle">2026-06</text>
<line x1="146.7" y1="66.0" x2="146.7" y2="356.0" stroke="#e1e0d9" stroke-width="1.0"/>
<line x1="146.7" y1="384.0" x2="146.7" y2="470.0" stroke="#e1e0d9" stroke-width="1.0"/>
<text x="153.5" y="490.0" font-size="11.0" fill="#898781" text-anchor="middle">2026-07</text>
<line x1="556.7" y1="66.0" x2="556.7" y2="356.0" stroke="#e1e0d9" stroke-width="1.0"/>
<line x1="556.7" y1="384.0" x2="556.7" y2="470.0" stroke="#e1e0d9" stroke-width="1.0"/>
<text x="563.5" y="490.0" font-size="11.0" fill="#898781" text-anchor="middle">2026-08</text>
<text x="14.0" y="58.0" font-size="11.0" fill="#52514e">BOLL(20,2)</text>
<text x="84.5" y="58.0" font-size="11.0" fill="#eda100">UP:178.2</text>
<text x="142.9" y="58.0" font-size="11.0" fill="#2a78d6">MID:114.5</text>
<text x="207.4" y="58.0" font-size="11.0" fill="#e87ba4">LOW:50.7</text>
<text x="265.8" y="58.0" font-size="11.0" fill="#4a3aa7">MA7:116.3</text>
<line x1="10.0" y1="356.0" x2="830.0" y2="356.0" stroke="#e1e0d9" stroke-width="1.0"/>
<text x="14.0" y="353.0" font-size="11.0" fill="#898781">0</text>
<line x1="10.0" y1="283.3" x2="830.0" y2="283.3" stroke="#e1e0d9" stroke-width="1.0"/>
<text x="14.0" y="280.3" font-size="11.0" fill="#898781">50</text>
<line x1="10.0" y1="210.6" x2="830.0" y2="210.6" stroke="#e1e0d9" stroke-width="1.0"/>
<text x="14.0" y="207.6" font-size="11.0" fill="#898781">100</text>
<line x1="10.0" y1="138.0" x2="830.0" y2="138.0" stroke="#e1e0d9" stroke-width="1.0"/>
<text x="14.0" y="135.0" font-size="11.0" fill="#898781">150</text>
<polyline points="16.8,144.9 30.5,144.8 44.2,145.3 57.8,145.3 71.5,145.3 85.2,147.1 98.8,147.0 112.5,147.2 126.2,147.0 139.8,143.4 153.5,144.7 167.2,137.2 180.8,118.9 194.5,117.6 208.2,113.6 221.8,113.7 235.5,104.6 249.2,107.4 262.8,107.5 276.5,105.3 290.2,88.8 303.8,88.8 317.5,85.9 331.2,85.9 344.8,89.1 358.5,89.2 372.2,89.2 385.8,88.8 399.5,89.2 413.2,92.4 426.8,89.1 440.5,92.6 454.2,108.4 467.8,112.1 481.5,111.5 495.2,97.7 508.8,101.5 522.5,101.9 536.2,100.5 549.8,92.3 563.5,110.1 577.2,110.3 590.8,110.3 604.5,107.6 618.2,106.0 631.8,87.1 645.5,85.9 659.2,86.1 672.8,86.2 686.5,82.2 700.2,85.1 713.8,82.3 727.5,81.6 741.2,81.9 754.8,85.5 768.5,99.5 782.2,100.9 795.8,87.3 809.5,88.2 823.2,97.0" fill="none" stroke="#eda100" stroke-width="1.5" stroke-linejoin="round" stroke-linecap="round"/>
<polyline points="16.8,192.1 30.5,191.8 44.2,192.5 57.8,193.0 71.5,193.0 85.2,191.8 98.8,193.4 112.5,195.1 126.2,194.6 139.8,193.3 153.5,194.6 167.2,191.8 180.8,186.4 194.5,184.3 208.2,182.5 221.8,182.6 235.5,190.6 249.2,194.7 262.8,195.7 276.5,192.1 290.2,186.1 303.8,186.1 317.5,189.3 331.2,189.8 344.8,191.4 358.5,192.1 372.2,192.1 385.8,190.9 399.5,192.2 413.2,194.5 426.8,192.1 440.5,198.4 454.2,203.8 467.8,206.8 481.5,206.6 495.2,203.2 508.8,196.2 522.5,195.4 536.2,193.3 549.8,190.6 563.5,197.0 577.2,197.2 590.8,192.0 604.5,189.3 618.2,193.0 631.8,186.0 645.5,183.7 659.2,184.5 672.8,183.6 686.5,187.0 700.2,190.1 713.8,183.2 727.5,182.0 741.2,180.0 754.8,184.7 768.5,190.5 782.2,191.4 795.8,184.9 809.5,186.4 823.2,189.6" fill="none" stroke="#2a78d6" stroke-width="1.5" stroke-linejoin="round" stroke-linecap="round"/>
<polyline points="16.8,239.3 30.5,238.9 44.2,239.8 57.8,240.8 71.5,240.8 85.2,236.6 98.8,239.9 112.5,242.9 126.2,242.3 139.8,243.3 153.5,244.6 167.2,246.4 180.8,253.9 194.5,250.9 208.2,251.4 221.8,251.4 235.5,276.6 249.2,282.1 262.8,283.8 276.5,278.9 290.2,283.4 303.8,283.4 317.5,292.7 331.2,293.6 344.8,293.8 358.5,295.0 372.2,295.0 385.8,293.0 399.5,295.2 413.2,296.6 426.8,295.1 440.5,304.2 454.2,299.2 467.8,301.5 481.5,301.8 495.2,308.6 508.8,290.8 522.5,288.9 536.2,286.1 549.8,289.0 563.5,283.9 577.2,284.1 590.8,273.8 604.5,271.0 618.2,280.1 631.8,284.9 645.5,281.4 659.2,283.0 672.8,280.9 686.5,291.8 700.2,295.1 713.8,284.2 727.5,282.4 741.2,278.1 754.8,283.9 768.5,281.5 782.2,281.8 795.8,282.5 809.5,284.5 823.2,282.2" fill="none" stroke="#e87ba4" stroke-width="1.5" stroke-linejoin="round" stroke-linecap="round"/>
<polyline points="16.8,185.9 30.5,188.4 44.2,194.1 57.8,202.5 71.5,201.5 85.2,201.9 98.8,199.4 112.5,201.0 126.2,201.0 139.8,194.8 153.5,194.8 167.2,193.8 180.8,178.2 194.5,171.0 208.2,159.9 221.8,155.5 235.5,176.8 249.2,181.6 262.8,193.0 276.5,202.8 290.2,191.2 303.8,198.6 317.5,213.1 331.2,200.3 344.8,192.2 358.5,191.7 372.2,199.4 385.8,214.9 399.5,218.5 413.2,209.8 426.8,201.5 440.5,213.7 454.2,211.7 467.8,213.0 481.5,205.0 495.2,186.9 508.8,181.6 522.5,191.2 536.2,178.2 549.8,165.1 563.5,163.1 577.2,171.5 590.8,181.4 604.5,180.7 618.2,185.3 631.8,171.0 645.5,179.5 659.2,179.2 672.8,179.7 686.5,195.5 700.2,203.5 713.8,185.8 727.5,200.3 741.2,202.4 754.8,205.4 768.5,206.7 782.2,194.1 795.8,176.3 809.5,187.2 823.2,186.9" fill="none" stroke="#4a3aa7" stroke-width="1.5" stroke-linejoin="round" stroke-linecap="round"/>
<rect x="13.1" y="209.2" width="7.5" height="29.1" fill="none" stroke="#e34948" stroke-width="1.3"/>
<rect x="26.7" y="196.1" width="7.5" height="13.1" fill="none" stroke="#e34948" stroke-width="1.3"/>
<rect x="40.4" y="196.1" width="7.5" height="7.3" fill="#008300"/>
<rect x="54.1" y="203.4" width="7.5" height="4.4" fill="#008300"/>
<rect x="67.7" y="151.0" width="7.5" height="56.7" fill="none" stroke="#e34948" stroke-width="1.3"/>
<rect x="81.4" y="151.0" width="7.5" height="56.7" fill="#008300"/>
<rect x="95.1" y="207.7" width="7.5" height="13.1" fill="#008300"/>
<rect x="108.7" y="220.8" width="7.5" height="1.2" fill="#898781"/>
<rect x="122.4" y="196.1" width="7.5" height="24.7" fill="none" stroke="#e34948" stroke-width="1.3"/>
<rect x="136.1" y="159.8" width="7.5" height="36.3" fill="none" stroke="#e34948" stroke-width="1.3"/>
<rect x="149.7" y="159.8" width="7.5" height="48.0" fill="#008300"/>
<rect x="163.4" y="143.8" width="7.5" height="64.0" fill="none" stroke="#e34948" stroke-width="1.3"/>
<rect x="177.1" y="98.7" width="7.5" height="45.1" fill="none" stroke="#e34948" stroke-width="1.3"/>
<rect x="190.7" y="98.7" width="7.5" height="71.2" fill="#008300"/>
<rect x="204.4" y="143.8" width="7.5" height="26.2" fill="none" stroke="#e34948" stroke-width="1.3"/>
<rect x="218.1" y="143.8" width="7.5" height="21.8" fill="#008300"/>
<rect x="231.7" y="165.6" width="7.5" height="142.5" fill="#008300"/>
<rect x="245.4" y="241.2" width="7.5" height="66.9" fill="none" stroke="#e34948" stroke-width="1.3"/>
<rect x="259.1" y="223.7" width="7.5" height="17.4" fill="none" stroke="#e34948" stroke-width="1.3"/>
<rect x="272.7" y="167.0" width="7.5" height="56.7" fill="none" stroke="#e34948" stroke-width="1.3"/>
<rect x="286.4" y="88.5" width="7.5" height="78.5" fill="none" stroke="#e34948" stroke-width="1.3"/>
<rect x="300.1" y="88.5" width="7.5" height="107.6" fill="#008300"/>
<rect x="313.7" y="196.1" width="7.5" height="71.2" fill="#008300"/>
<rect x="327.4" y="217.9" width="7.5" height="49.4" fill="none" stroke="#e34948" stroke-width="1.3"/>
<rect x="341.1" y="184.5" width="7.5" height="33.4" fill="none" stroke="#e34948" stroke-width="1.3"/>
<rect x="354.7" y="184.5" width="7.5" height="36.3" fill="#008300"/>
<rect x="368.4" y="220.8" width="7.5" height="135.2" fill="none" stroke="#e34948" stroke-width="1.3"/>
<rect x="382.1" y="196.1" width="7.5" height="24.7" fill="none" stroke="#e34948" stroke-width="1.3"/>
<rect x="395.7" y="196.1" width="7.5" height="26.2" fill="#008300"/>
<rect x="409.4" y="206.3" width="7.5" height="16.0" fill="none" stroke="#e34948" stroke-width="1.3"/>
<rect x="423.1" y="159.8" width="7.5" height="46.5" fill="none" stroke="#e34948" stroke-width="1.3"/>
<rect x="436.7" y="159.8" width="7.5" height="110.5" fill="#008300"/>
<rect x="450.4" y="206.3" width="7.5" height="64.0" fill="none" stroke="#e34948" stroke-width="1.3"/>
<rect x="464.1" y="206.3" width="7.5" height="23.3" fill="#008300"/>
<rect x="477.7" y="140.9" width="7.5" height="88.7" fill="none" stroke="#e34948" stroke-width="1.3"/>
<rect x="491.4" y="95.8" width="7.5" height="45.1" fill="none" stroke="#e34948" stroke-width="1.3"/>
<rect x="505.1" y="95.8" width="7.5" height="72.7" fill="#008300"/>
<rect x="518.7" y="168.5" width="7.5" height="58.1" fill="#008300"/>
<rect x="532.4" y="180.1" width="7.5" height="46.5" fill="none" stroke="#e34948" stroke-width="1.3"/>
<rect x="546.1" y="114.7" width="7.5" height="65.4" fill="none" stroke="#e34948" stroke-width="1.3"/>
<rect x="559.7" y="114.7" width="7.5" height="100.3" fill="#008300"/>
<rect x="573.4" y="200.5" width="7.5" height="14.5" fill="none" stroke="#e34948" stroke-width="1.3"/>
<rect x="587.1" y="164.1" width="7.5" height="36.3" fill="none" stroke="#e34948" stroke-width="1.3"/>
<rect x="600.7" y="164.1" width="7.5" height="1.2" fill="#898781"/>
<rect x="614.4" y="164.1" width="7.5" height="94.5" fill="#008300"/>
<rect x="628.1" y="79.8" width="7.5" height="178.8" fill="none" stroke="#e34948" stroke-width="1.3"/>
<rect x="641.7" y="79.8" width="7.5" height="94.5" fill="#008300"/>
<rect x="655.4" y="174.3" width="7.5" height="39.2" fill="#008300"/>
<rect x="669.1" y="203.4" width="7.5" height="10.2" fill="none" stroke="#e34948" stroke-width="1.3"/>
<rect x="682.7" y="203.4" width="7.5" height="71.2" fill="#008300"/>
<rect x="696.4" y="220.8" width="7.5" height="53.8" fill="none" stroke="#e34948" stroke-width="1.3"/>
<rect x="710.1" y="133.6" width="7.5" height="87.2" fill="none" stroke="#e34948" stroke-width="1.3"/>
<rect x="723.7" y="133.6" width="7.5" height="48.0" fill="#008300"/>
<rect x="737.4" y="181.6" width="7.5" height="7.3" fill="#008300"/>
<rect x="751.1" y="188.8" width="7.5" height="46.5" fill="#008300"/>
<rect x="764.7" y="212.1" width="7.5" height="23.3" fill="none" stroke="#e34948" stroke-width="1.3"/>
<rect x="778.4" y="185.9" width="7.5" height="26.2" fill="none" stroke="#e34948" stroke-width="1.3"/>
<rect x="792.1" y="97.3" width="7.5" height="258.7" fill="none" stroke="#e34948" stroke-width="1.3"/>
<rect x="805.7" y="97.3" width="7.5" height="111.9" fill="#008300"/>
<rect x="819.4" y="180.1" width="7.5" height="29.1" fill="none" stroke="#e34948" stroke-width="1.3"/>
<circle cx="631.8" cy="79.8" r="2" fill="#52514e"/>
<line x1="631.8" y1="79.8" x2="623.8" y2="79.8" stroke="#52514e" stroke-width="1.0"/>
<text x="620.8" y="83.8" font-size="11.0" fill="#52514e" text-anchor="end">190</text>
<circle cx="372.2" cy="356.0" r="2" fill="#52514e"/>
<line x1="372.2" y1="356.0" x2="380.2" y2="356.0" stroke="#52514e" stroke-width="1.0"/>
<text x="383.2" y="350.0" font-size="11.0" fill="#52514e">0</text>
<text x="14.0" y="376.0" font-size="11.0" fill="#52514e">VOL 13 forks</text>
<text x="96.6" y="376.0" font-size="11.0" fill="#eda100">MA5:13.6</text>
<text x="155.0" y="376.0" font-size="11.0" fill="#2a78d6">MA10:15.9</text>
<text x="14.0" y="395.0" font-size="10" fill="#898781">132</text>
<rect x="13.1" y="459.4" width="7.5" height="10.6" fill="none" stroke="#e34948" stroke-width="1.1"/>
<rect x="26.7" y="461.3" width="7.5" height="8.7" fill="none" stroke="#e34948" stroke-width="1.1"/>
<rect x="40.4" y="453.2" width="7.5" height="16.8" fill="#008300"/>
<rect x="54.1" y="460.1" width="7.5" height="9.9" fill="#008300"/>
<rect x="67.7" y="458.2" width="7.5" height="11.8" fill="none" stroke="#e34948" stroke-width="1.1"/>
<rect x="81.4" y="456.3" width="7.5" height="13.7" fill="#008300"/>
<rect x="95.1" y="460.1" width="7.5" height="9.9" fill="#008300"/>
<rect x="108.7" y="460.7" width="7.5" height="9.3" fill="#898781"/>
<rect x="122.4" y="459.4" width="7.5" height="10.6" fill="none" stroke="#e34948" stroke-width="1.1"/>
<rect x="136.1" y="438.9" width="7.5" height="31.1" fill="none" stroke="#e34948" stroke-width="1.1"/>
<rect x="149.7" y="452.0" width="7.5" height="18.0" fill="#008300"/>
<rect x="163.4" y="446.4" width="7.5" height="23.6" fill="none" stroke="#e34948" stroke-width="1.1"/>
<rect x="177.1" y="433.3" width="7.5" height="36.7" fill="none" stroke="#e34948" stroke-width="1.1"/>
<rect x="190.7" y="447.6" width="7.5" height="22.4" fill="#008300"/>
<rect x="204.4" y="439.6" width="7.5" height="30.4" fill="none" stroke="#e34948" stroke-width="1.1"/>
<rect x="218.1" y="447.0" width="7.5" height="23.0" fill="#008300"/>
<rect x="231.7" y="459.4" width="7.5" height="10.6" fill="#008300"/>
<rect x="259.1" y="457.6" width="7.5" height="12.4" fill="none" stroke="#e34948" stroke-width="1.1"/>
<rect x="272.7" y="444.5" width="7.5" height="25.5" fill="none" stroke="#e34948" stroke-width="1.1"/>
<rect x="286.4" y="388.0" width="7.5" height="82.0" fill="none" stroke="#e34948" stroke-width="1.1"/>
<rect x="300.1" y="445.2" width="7.5" height="24.8" fill="#008300"/>
<rect x="313.7" y="450.1" width="7.5" height="19.9" fill="#008300"/>
<rect x="327.4" y="457.0" width="7.5" height="13.0" fill="none" stroke="#e34948" stroke-width="1.1"/>
<rect x="341.1" y="453.2" width="7.5" height="16.8" fill="none" stroke="#e34948" stroke-width="1.1"/>
<rect x="354.7" y="457.0" width="7.5" height="13.0" fill="#008300"/>
<rect x="368.4" y="451.4" width="7.5" height="18.6" fill="none" stroke="#e34948" stroke-width="1.1"/>
<rect x="382.1" y="449.5" width="7.5" height="20.5" fill="none" stroke="#e34948" stroke-width="1.1"/>
<rect x="395.7" y="453.8" width="7.5" height="16.2" fill="#008300"/>
<rect x="409.4" y="450.1" width="7.5" height="19.9" fill="none" stroke="#e34948" stroke-width="1.1"/>
<rect x="423.1" y="453.8" width="7.5" height="16.2" fill="none" stroke="#e34948" stroke-width="1.1"/>
<rect x="436.7" y="443.3" width="7.5" height="26.7" fill="#008300"/>
<rect x="464.1" y="462.5" width="7.5" height="7.5" fill="#008300"/>
<rect x="477.7" y="448.3" width="7.5" height="21.7" fill="none" stroke="#e34948" stroke-width="1.1"/>
<rect x="491.4" y="445.2" width="7.5" height="24.8" fill="none" stroke="#e34948" stroke-width="1.1"/>
<rect x="505.1" y="455.1" width="7.5" height="14.9" fill="#008300"/>
<rect x="518.7" y="463.2" width="7.5" height="6.8" fill="#008300"/>
<rect x="532.4" y="453.8" width="7.5" height="16.2" fill="none" stroke="#e34948" stroke-width="1.1"/>
<rect x="546.1" y="445.2" width="7.5" height="24.8" fill="none" stroke="#e34948" stroke-width="1.1"/>
<rect x="559.7" y="461.3" width="7.5" height="8.7" fill="#008300"/>
<rect x="573.4" y="452.6" width="7.5" height="17.4" fill="none" stroke="#e34948" stroke-width="1.1"/>
<rect x="587.1" y="468.1" width="7.5" height="1.9" fill="none" stroke="#e34948" stroke-width="1.1"/>
<rect x="600.7" y="435.2" width="7.5" height="34.8" fill="#898781"/>
<rect x="614.4" y="460.7" width="7.5" height="9.3" fill="#008300"/>
<rect x="628.1" y="454.5" width="7.5" height="15.5" fill="none" stroke="#e34948" stroke-width="1.1"/>
<rect x="641.7" y="454.5" width="7.5" height="15.5" fill="#008300"/>
<rect x="655.4" y="463.8" width="7.5" height="6.2" fill="#008300"/>
<rect x="669.1" y="457.6" width="7.5" height="12.4" fill="none" stroke="#e34948" stroke-width="1.1"/>
<rect x="682.7" y="464.4" width="7.5" height="5.6" fill="#008300"/>
<rect x="696.4" y="464.4" width="7.5" height="5.6" fill="none" stroke="#e34948" stroke-width="1.1"/>
<rect x="710.1" y="455.1" width="7.5" height="14.9" fill="none" stroke="#e34948" stroke-width="1.1"/>
<rect x="723.7" y="452.0" width="7.5" height="18.0" fill="#008300"/>
<rect x="737.4" y="457.6" width="7.5" height="12.4" fill="#008300"/>
<rect x="751.1" y="464.4" width="7.5" height="5.6" fill="#008300"/>
<rect x="764.7" y="465.0" width="7.5" height="5.0" fill="none" stroke="#e34948" stroke-width="1.1"/>
<rect x="778.4" y="460.7" width="7.5" height="9.3" fill="none" stroke="#e34948" stroke-width="1.1"/>
<rect x="792.1" y="461.9" width="7.5" height="8.1" fill="none" stroke="#e34948" stroke-width="1.1"/>
<rect x="805.7" y="458.2" width="7.5" height="11.8" fill="#008300"/>
<rect x="819.4" y="461.9" width="7.5" height="8.1" fill="none" stroke="#e34948" stroke-width="1.1"/>
<polyline points="16.8,458.2 30.5,458.5 44.2,457.8 57.8,458.1 71.5,458.1 85.2,458.3 98.8,458.5 112.5,458.4 126.2,458.6 139.8,456.8 153.5,456.0 167.2,454.5 180.8,452.5 194.5,451.3 208.2,449.4 221.8,448.5 235.5,448.4 249.2,449.4 262.8,449.2 276.5,449.7 290.2,443.4 303.8,443.2 317.5,444.9 331.2,445.8 344.8,447.2 358.5,448.2 372.2,447.4 385.8,445.3 399.5,445.0 413.2,445.5 426.8,452.1 440.5,451.9 454.2,453.9 467.8,454.5 481.5,454.0 495.2,452.8 508.8,453.2 522.5,454.5 536.2,454.5 549.8,454.0 563.5,454.8 577.2,455.7 590.8,455.5 604.5,452.8 618.2,454.0 631.8,455.0 645.5,454.9 659.2,455.0 672.8,455.3 686.5,457.3 700.2,457.6 713.8,457.8 727.5,456.2 741.2,458.4 754.8,458.8 768.5,459.9 782.2,460.5 795.8,460.3 809.5,460.4 823.2,460.1" fill="none" stroke="#2a78d6" stroke-width="1.5" stroke-linejoin="round" stroke-linecap="round"/>
<polyline points="16.8,458.7 30.5,459.4 44.2,457.8 57.8,458.3 71.5,458.4 85.2,457.8 98.8,457.6 112.5,459.1 126.2,458.9 139.8,455.1 153.5,454.2 167.2,451.5 180.8,446.0 194.5,443.7 208.2,443.8 221.8,442.8 235.5,445.4 249.2,452.7 262.8,454.7 276.5,455.7 290.2,443.9 303.8,441.1 317.5,437.1 331.2,437.0 344.8,438.7 358.5,452.5 372.2,453.7 385.8,453.6 399.5,453.0 413.2,452.4 426.8,451.7 440.5,450.1 454.2,454.2 467.8,456.0 481.5,455.6 495.2,453.8 508.8,456.2 522.5,454.8 536.2,453.1 549.8,452.5 563.5,455.7 577.2,455.2 590.8,456.2 604.5,452.5 618.2,455.6 631.8,454.2 645.5,454.6 659.2,453.7 672.8,458.2 686.5,458.9 700.2,460.9 713.8,461.1 727.5,458.7 741.2,458.7 754.8,458.7 768.5,458.8 782.2,459.9 795.8,461.9 809.5,462.0 823.2,461.6" fill="none" stroke="#eda100" stroke-width="1.5" stroke-linejoin="round" stroke-linecap="round"/>
</svg>