<svg xmlns="http://www.w3.org/2000/svg" viewBox="0 0 840 496" width="840" height="496" font-family="-apple-system,&#39;Segoe UI&#39;,system-ui,sans-serif" role="img" aria-label="EbookFoundation/free-programming-books candlestick chart">
<text x="14.0" y="20.0" font-size="15" fill="#0b0b0b" font-weight="650">EbookFoundation/free-programming-books</text>
<text x="331.5" y="20.0" font-size="11.5" fill="#52514e">daily · new stars, volume = new forks</text>
<text x="805.8" y="20.0" font-size="11.0" fill="#52514e">fall</text>
<rect x="791" y="10" width="9" height="12" fill="#008300"/>
<text x="750.6" y="20.0" font-size="11.0" fill="#52514e">rise</text>
<rect x="736" y="10" width="9" height="12" fill="none" stroke="#e34948" stroke-width="1.5"/>
<text x="14.0" y="38.0" font-size="11.0" fill="#898781">last 60 days · +4,568 stars · +468 forks · updated 2026-07-19</text>
<rect x="10" y="66" width="820" height="290" fill="none" stroke="#e1e0d9"/>
<rect x="10" y="384" width="820" height="86" fill="none" stroke="#e1e0d9"/>
<text x="38.0" y="490.0" font-size="11.0" fill="#898781" text-anchor="middle">2026-05</text>
<line x1="160.3" y1="66.0" x2="160.3" y2="356.0" stroke="#e1e0d9" stroke-width="1.0"/>
<line x1="160.3" y1="384.0" x2="160.3" y2="470.0" stroke="#e1e0d9" stroke-width="1.0"/>
<text x="167.2" y="490.0" font-size="11.0" fill="#898781" text-anchor="middle">2026-06</text>
<line x1="570.3" y1="66.0" x2="570.3" y2="356.0" stroke="#e1e0d9" stroke-width="1.0"/>
<line x1="570.3" y1="384.0" x2="570.3" y2="470.0" stroke="#e1e0d9" stroke-width="1.0"/>
<text x="577.2" y="490.0" font-size="11.0" fill="#898781" text-anchor="middle">2026-07</text>
<text x="14.0" y="58.0" font-size="11.0" fill="#52514e">BOLL(20,2)</text>
<text x="84.5" y="58.0" font-size="11.0" fill="#eda100">UP:150.8</text>
<text x="142.9" y="58.0" font-size="11.0" fill="#2a78d6">MID:77.5</text>
<text x="201.3" y="58.0" font-size="11.0" fill="#e87ba4">LOW:4.3</text>
<text x="253.7" y="58.0" font-size="11.0" fill="#4a3aa7">MA7:107.6</text>
<line x1="10.0" y1="356.0" x2="830.0" y2="356.0" stroke="#e1e0d9" stroke-width="1.0"/>
<text x="14.0" y="353.0" font-size="11.0" fill="#898781">0</text>
<line x1="10.0" y1="212.2" x2="830.0" y2="212.2" stroke="#e1e0d9" stroke-width="1.0"/>
<text x="14.0" y="209.2" font-size="11.0" fill="#898781">100</text>
<line x1="10.0" y1="68.3" x2="830.0" y2="68.3" stroke="#e1e0d9" stroke-width="1.0"/>
<text x="14.0" y="65.3" font-size="11.0" fill="#898781">200</text>
<polyline points="16.8,207.3 30.5,207.4 44.2,199.1 57.8,198.0 71.5,196.6 85.2,196.5 98.8,198.6 112.5,199.0 126.2,199.0 139.8,198.5 153.5,196.8 167.2,195.0 180.8,162.8 194.5,159.8 208.2,159.7 221.8,159.7 235.5,159.3 249.2,159.9 262.8,161.4 276.5,156.9 290.2,156.9 303.8,156.5 317.5,160.1 331.2,163.4 344.8,164.4 358.5,164.4 372.2,164.3 385.8,164.2 399.5,163.9 413.2,164.6 426.8,165.5 440.5,167.1 454.2,205.1 467.8,213.7 481.5,215.8 495.2,216.2 508.8,216.3 522.5,217.3 536.2,217.1 549.8,231.4 563.5,233.0 577.2,232.9 590.8,228.8 604.5,225.3 618.2,227.0 631.8,227.2 645.5,230.3 659.2,227.3 672.8,226.8 686.5,227.3 700.2,227.0 713.8,225.3 727.5,224.1 741.2,188.4 754.8,145.7 768.5,142.7 782.2,140.9 795.8,140.9 809.5,139.5 823.2,139.1" fill="none" stroke="#eda100" stroke-width="1.5" stroke-linejoin="round" stroke-linecap="round"/>
<polyline points="16.8,243.7 30.5,244.7 44.2,242.3 57.8,242.0 71.5,241.0 85.2,242.1 98.8,245.0 112.5,244.5 126.2,244.4 139.8,244.1 153.5,243.2 167.2,241.9 180.8,236.6 194.5,235.2 208.2,235.2 221.8,234.9 235.5,235.3 249.2,233.9 262.8,235.5 276.5,232.0 290.2,231.5 303.8,232.0 317.5,236.2 331.2,238.8 344.8,239.7 358.5,239.0 372.2,237.0 385.8,236.3 399.5,237.3 413.2,238.8 426.8,241.8 440.5,244.1 454.2,252.2 467.8,256.7 481.5,257.3 495.2,257.8 508.8,257.4 522.5,258.5 536.2,260.4 549.8,263.0 563.5,263.7 577.2,263.9 590.8,261.6 604.5,260.3 618.2,261.7 631.8,261.8 645.5,262.9 659.2,266.5 672.8,267.6 686.5,268.7 700.2,269.0 713.8,268.0 727.5,267.2 741.2,259.5 754.8,251.4 768.5,249.3 782.2,247.5 795.8,247.8 809.5,244.8 823.2,244.4" fill="none" stroke="#2a78d6" stroke-width="1.5" stroke-linejoin="round" stroke-linecap="round"/>
<polyline points="16.8,280.1 30.5,282.0 44.2,285.4 57.8,286.0 71.5,285.3 85.2,287.7 98.8,291.4 112.5,290.0 126.2,289.8 139.8,289.7 153.5,289.7 167.2,288.9 180.8,310.4 194.5,310.7 208.2,310.7 221.8,310.1 235.5,311.3 249.2,307.9 262.8,309.7 276.5,307.1 290.2,306.1 303.8,307.5 317.5,312.3 331.2,314.3 344.8,315.0 358.5,313.6 372.2,309.8 385.8,308.4 399.5,310.6 413.2,312.9 426.8,318.1 440.5,321.0 454.2,299.4 467.8,299.6 481.5,298.9 495.2,299.3 508.8,298.5 522.5,299.8 536.2,303.7 549.8,294.6 563.5,294.5 577.2,294.8 590.8,294.4 604.5,295.3 618.2,296.4 631.8,296.4 645.5,295.6 659.2,305.8 672.8,308.4 686.5,310.0 700.2,311.1 713.8,310.8 727.5,310.2 741.2,330.5 754.8,356.0 768.5,355.9 782.2,354.0 795.8,354.6 809.5,350.1 823.2,349.8" fill="none" stroke="#e87ba4" stroke-width="1.5" stroke-linejoin="round" stroke-linecap="round"/>
<polyline points="16.8,252.9 30.5,257.6 44.2,248.5 57.8,240.1 71.5,233.3 85.2,239.6 98.8,241.4 112.5,241.8 126.2,240.3 139.8,245.7 153.5,248.1 167.2,247.7 180.8,225.5 194.5,214.6 208.2,210.1 221.8,210.1 235.5,216.0 249.2,219.5 262.8,223.5 276.5,235.3 290.2,242.2 303.8,248.5 317.5,252.3 331.2,250.1 344.8,249.7 358.5,249.6 372.2,255.7 385.8,255.4 399.5,255.3 413.2,253.0 426.8,256.6 440.5,260.2 454.2,263.4 467.8,270.7 481.5,270.1 495.2,268.7 508.8,269.3 522.5,267.4 536.2,270.1 549.8,266.2 563.5,262.4 577.2,267.2 590.8,263.4 604.5,258.6 618.2,258.8 631.8,253.4 645.5,255.4 659.2,263.5 672.8,266.0 686.5,273.1 700.2,281.3 713.8,278.3 727.5,278.8 741.2,260.9 754.8,227.0 768.5,216.3 782.2,208.7 795.8,206.5 809.5,203.7 823.2,201.2" fill="none" stroke="#4a3aa7" stroke-width="1.5" stroke-linejoin="round" stroke-linecap="round"/>
<rect x="13.1" y="256.7" width="7.5" height="7.2" fill="none" stroke="#e34948" stroke-width="1.3"/>
<rect x="26.7" y="256.7" width="7.5" height="5.8" fill="#008300"/>
<rect x="40.4" y="194.9" width="7.5" height="67.6" fill="none" stroke="#e34948" stroke-width="1.3"/>
<rect x="54.1" y="194.9" width="7.5" height="11.5" fill="#008300"/>
<rect x="67.7" y="206.4" width="7.5" height="21.6" fill="#008300"/>
<rect x="81.4" y="228.0" width="7.5" height="37.4" fill="#008300"/>
<rect x="95.1" y="265.4" width="7.5" height="10.1" fill="#008300"/>
<rect x="108.7" y="259.6" width="7.5" height="15.8" fill="none" stroke="#e34948" stroke-width="1.3"/>
<rect x="122.4" y="252.4" width="7.5" height="7.2" fill="none" stroke="#e34948" stroke-width="1.3"/>
<rect x="136.1" y="232.3" width="7.5" height="20.1" fill="none" stroke="#e34948" stroke-width="1.3"/>
<rect x="149.7" y="223.7" width="7.5" height="8.6" fill="none" stroke="#e34948" stroke-width="1.3"/>
<rect x="163.4" y="223.7" width="7.5" height="1.4" fill="#008300"/>
<rect x="177.1" y="110.0" width="7.5" height="115.1" fill="none" stroke="#e34948" stroke-width="1.3"/>
<rect x="190.7" y="110.0" width="7.5" height="89.2" fill="#008300"/>
<rect x="204.4" y="199.2" width="7.5" height="28.8" fill="#008300"/>
<rect x="218.1" y="228.0" width="7.5" height="24.5" fill="#008300"/>
<rect x="231.7" y="252.4" width="7.5" height="21.6" fill="#008300"/>
<rect x="245.4" y="248.1" width="7.5" height="25.9" fill="none" stroke="#e34948" stroke-width="1.3"/>
<rect x="259.1" y="248.1" width="7.5" height="4.3" fill="#008300"/>
<rect x="272.7" y="193.5" width="7.5" height="59.0" fill="none" stroke="#e34948" stroke-width="1.3"/>
<rect x="286.4" y="193.5" width="7.5" height="53.2" fill="#008300"/>
<rect x="300.1" y="246.7" width="7.5" height="25.9" fill="#008300"/>
<rect x="313.7" y="272.6" width="7.5" height="5.8" fill="#008300"/>
<rect x="327.4" y="259.6" width="7.5" height="18.7" fill="none" stroke="#e34948" stroke-width="1.3"/>
<rect x="341.1" y="245.2" width="7.5" height="14.4" fill="none" stroke="#e34948" stroke-width="1.3"/>
<rect x="354.7" y="245.2" width="7.5" height="5.8" fill="#008300"/>
<rect x="368.4" y="236.6" width="7.5" height="14.4" fill="none" stroke="#e34948" stroke-width="1.3"/>
<rect x="382.1" y="236.6" width="7.5" height="8.6" fill="#008300"/>
<rect x="395.7" y="245.2" width="7.5" height="25.9" fill="#008300"/>
<rect x="409.4" y="262.5" width="7.5" height="8.6" fill="none" stroke="#e34948" stroke-width="1.3"/>
<rect x="423.1" y="262.5" width="7.5" height="21.6" fill="#008300"/>
<rect x="436.7" y="271.1" width="7.5" height="12.9" fill="none" stroke="#e34948" stroke-width="1.3"/>
<rect x="450.4" y="271.1" width="7.5" height="1.4" fill="#008300"/>
<rect x="464.1" y="272.6" width="7.5" height="15.8" fill="#008300"/>
<rect x="477.7" y="240.9" width="7.5" height="47.5" fill="none" stroke="#e34948" stroke-width="1.3"/>
<rect x="491.4" y="240.9" width="7.5" height="20.1" fill="#008300"/>
<rect x="505.1" y="261.1" width="7.5" height="5.8" fill="#008300"/>
<rect x="518.7" y="266.8" width="7.5" height="4.3" fill="#008300"/>
<rect x="532.4" y="271.1" width="7.5" height="18.7" fill="#008300"/>
<rect x="546.1" y="245.2" width="7.5" height="44.6" fill="none" stroke="#e34948" stroke-width="1.3"/>
<rect x="559.7" y="245.2" width="7.5" height="15.8" fill="#008300"/>
<rect x="573.4" y="261.1" width="7.5" height="14.4" fill="#008300"/>
<rect x="587.1" y="233.7" width="7.5" height="41.7" fill="none" stroke="#e34948" stroke-width="1.3"/>
<rect x="600.7" y="233.7" width="7.5" height="1.2" fill="#898781"/>
<rect x="614.4" y="233.7" width="7.5" height="38.8" fill="#008300"/>
<rect x="628.1" y="252.4" width="7.5" height="20.1" fill="none" stroke="#e34948" stroke-width="1.3"/>
<rect x="641.7" y="252.4" width="7.5" height="7.2" fill="#008300"/>
<rect x="655.4" y="259.6" width="7.5" height="57.5" fill="#008300"/>
<rect x="669.1" y="292.7" width="7.5" height="24.5" fill="none" stroke="#e34948" stroke-width="1.3"/>
<rect x="682.7" y="284.1" width="7.5" height="8.6" fill="none" stroke="#e34948" stroke-width="1.3"/>
<rect x="696.4" y="284.1" width="7.5" height="7.2" fill="#008300"/>
<rect x="710.1" y="251.0" width="7.5" height="40.3" fill="none" stroke="#e34948" stroke-width="1.3"/>
<rect x="723.7" y="251.0" width="7.5" height="4.3" fill="#008300"/>
<rect x="737.4" y="134.5" width="7.5" height="120.8" fill="none" stroke="#e34948" stroke-width="1.3"/>
<rect x="751.1" y="79.8" width="7.5" height="54.7" fill="none" stroke="#e34948" stroke-width="1.3"/>
<rect x="764.7" y="79.8" width="7.5" height="138.1" fill="#008300"/>
<rect x="778.4" y="217.9" width="7.5" height="12.9" fill="#008300"/>
<rect x="792.1" y="230.9" width="7.5" height="46.0" fill="#008300"/>
<rect x="805.7" y="230.9" width="7.5" height="46.0" fill="none" stroke="#e34948" stroke-width="1.3"/>
<rect x="819.4" y="230.9" width="7.5" height="7.2" fill="#008300"/>
<circle cx="754.8" cy="79.8" r="2" fill="#52514e"/>
<line x1="754.8" y1="79.8" x2="746.8" y2="79.8" stroke="#52514e" stroke-width="1.0"/>
<text x="743.8" y="83.8" font-size="11.0" fill="#52514e" text-anchor="end">192</text>
<circle cx="659.2" cy="317.2" r="2" fill="#52514e"/>
<line x1="659.2" y1="317.2" x2="651.2" y2="317.2" stroke="#52514e" stroke-width="1.0"/>
<text x="648.2" y="321.2" font-size="11.0" fill="#52514e" text-anchor="end">27</text>
<text x="14.0" y="376.0" font-size="11.0" fill="#52514e">VOL 8 forks</text>
<text x="90.6" y="376.0" font-size="11.0" fill="#eda100">MA5:4.4</text>
<text x="142.9" y="376.0" font-size="11.0" fill="#2a78d6">MA10:5.5</text>
<text x="14.0" y="395.0" font-size="10" fill="#898781">25</text>
<rect x="13.1" y="394.6" width="7.5" height="75.4" fill="none" stroke="#e34948" stroke-width="1.1"/>
<rect x="26.7" y="427.4" width="7.5" height="42.6" fill="#008300"/>
<rect x="40.4" y="433.9" width="7.5" height="36.1" fill="none" stroke="#e34948" stroke-width="1.1"/>
<rect x="54.1" y="443.8" width="7.5" height="26.2" fill="#008300"/>
<rect x="67.7" y="443.8" width="7.5" height="26.2" fill="#008300"/>
<rect x="81.4" y="453.6" width="7.5" height="16.4" fill="#008300"/>
<rect x="95.1" y="437.2" width="7.5" height="32.8" fill="#008300"/>
<rect x="108.7" y="447.0" width="7.5" height="23.0" fill="none" stroke="#e34948" stroke-width="1.1"/>
<rect x="122.4" y="433.9" width="7.5" height="36.1" fill="none" stroke="#e34948" stroke-width="1.1"/>
<rect x="136.1" y="437.2" width="7.5" height="32.8" fill="none" stroke="#e34948" stroke-width="1.1"/>
<rect x="149.7" y="443.8" width="7.5" height="26.2" fill="none" stroke="#e34948" stroke-width="1.1"/>
<rect x="163.4" y="420.8" width="7.5" height="49.2" fill="#008300"/>
<rect x="177.1" y="388.0" width="7.5" height="82.0" fill="none" stroke="#e34948" stroke-width="1.1"/>
<rect x="190.7" y="437.2" width="7.5" height="32.8" fill="#008300"/>
<rect x="204.4" y="427.4" width="7.5" height="42.6" fill="#008300"/>
<rect x="218.1" y="456.9" width="7.5" height="13.1" fill="#008300"/>
<rect x="231.7" y="414.2" width="7.5" height="55.8" fill="#008300"/>
<rect x="245.4" y="460.2" width="7.5" height="9.8" fill="none" stroke="#e34948" stroke-width="1.1"/>
<rect x="259.1" y="440.5" width="7.5" height="29.5" fill="#008300"/>
<rect x="272.7" y="424.1" width="7.5" height="45.9" fill="none" stroke="#e34948" stroke-width="1.1"/>
<rect x="286.4" y="420.8" width="7.5" height="49.2" fill="#008300"/>
<rect x="300.1" y="453.6" width="7.5" height="16.4" fill="#008300"/>
<rect x="313.7" y="453.6" width="7.5" height="16.4" fill="#008300"/>
<rect x="327.4" y="460.2" width="7.5" height="9.8" fill="none" stroke="#e34948" stroke-width="1.1"/>
<rect x="341.1" y="456.9" width="7.5" height="13.1" fill="none" stroke="#e34948" stroke-width="1.1"/>
<rect x="354.7" y="466.7" width="7.5" height="3.3" fill="#008300"/>
<rect x="368.4" y="453.6" width="7.5" height="16.4" fill="none" stroke="#e34948" stroke-width="1.1"/>
<rect x="382.1" y="430.6" width="7.5" height="39.4" fill="#008300"/>
<rect x="395.7" y="463.4" width="7.5" height="6.6" fill="#008300"/>
<rect x="409.4" y="443.8" width="7.5" height="26.2" fill="none" stroke="#e34948" stroke-width="1.1"/>
<rect x="423.1" y="460.2" width="7.5" height="9.8" fill="#008300"/>
<rect x="436.7" y="443.8" width="7.5" height="26.2" fill="none" stroke="#e34948" stroke-width="1.1"/>
<rect x="450.4" y="443.8" width="7.5" height="26.2" fill="#008300"/>
<rect x="464.1" y="460.2" width="7.5" height="9.8" fill="#008300"/>
<rect x="477.7" y="437.2" width="7.5" height="32.8" fill="none" stroke="#e34948" stroke-width="1.1"/>
<rect x="491.4" y="443.8" width="7.5" height="26.2" fill="#008300"/>
<rect x="505.1" y="453.6" width="7.5" height="16.4" fill="#008300"/>
<rect x="518.7" y="450.3" width="7.5" height="19.7" fill="#008300"/>
<rect x="532.4" y="443.8" width="7.5" height="26.2" fill="#008300"/>
<rect x="546.1" y="430.6" width="7.5" height="39.4" fill="none" stroke="#e34948" stroke-width="1.1"/>
<rect x="559.7" y="443.8" width="7.5" height="26.2" fill="#008300"/>
<rect x="573.4" y="460.2" width="7.5" height="9.8" fill="#008300"/>
<rect x="587.1" y="447.0" width="7.5" height="23.0" fill="none" stroke="#e34948" stroke-width="1.1"/>
<rect x="600.7" y="447.0" width="7.5" height="23.0" fill="#898781"/>
<rect x="614.4" y="450.3" width="7.5" height="19.7" fill="#008300"/>
<rect x="628.1" y="440.5" width="7.5" height="29.5" fill="none" stroke="#e34948" stroke-width="1.1"/>
<rect x="641.7" y="437.2" width="7.5" height="32.8" fill="#008300"/>
<rect x="655.4" y="456.9" width="7.5" height="13.1" fill="#008300"/>
<rect x="669.1" y="456.9" width="7.5" height="13.1" fill="none" stroke="#e34948" stroke-width="1.1"/>
<rect x="696.4" y="453.6" width="7.5" height="16.4" fill="#008300"/>
<rect x="710.1" y="460.2" width="7.5" height="9.8" fill="none" stroke="#e34948" stroke-width="1.1"/>
<rect x="723.7" y="456.9" width="7.5" height="13.1" fill="#008300"/>
<rect x="737.4" y="433.9" width="7.5" height="36.1" fill="none" stroke="#e34948" stroke-width="1.1"/>
<rect x="751.1" y="437.2" width="7.5" height="32.8" fill="none" stroke="#e34948" stroke-width="1.1"/>
<rect x="764.7" y="456.9" width="7.5" height="13.1" fill="#008300"/>
<rect x="778.4" y="456.9" width="7.5" height="13.1" fill="#008300"/>
<rect x="792.1" y="466.7" width="7.5" height="3.3" fill="#008300"/>
<rect x="805.7" y="453.6" width="7.5" height="16.4" fill="none" stroke="#e34948" stroke-width="1.1"/>
<rect x="819.4" y="443.8" width="7.5" height="26.2" fill="#008300"/>
<polyline points="16.8,432.9 30.5,432.6 44.2,434.9 57.8,434.2 71.5,434.6 85.2,434.6 98.8,435.6 112.5,435.9 126.2,434.9 139.8,435.2 153.5,440.2 167.2,439.5 180.8,434.9 194.5,434.2 208.2,432.6 221.8,432.9 235.5,430.6 249.2,432.0 262.8,432.6 276.5,431.3 290.2,429.0 303.8,432.3 317.5,438.8 331.2,441.1 344.8,444.1 358.5,445.1 372.2,449.0 385.8,446.1 399.5,448.4 413.2,450.3 426.8,454.3 440.5,453.3 454.2,452.3 467.8,452.3 481.5,450.3 495.2,448.0 508.8,448.0 522.5,450.0 536.2,448.0 549.8,446.7 563.5,445.1 577.2,446.7 590.8,447.0 604.5,445.7 618.2,447.0 631.8,446.7 645.5,445.1 659.2,445.7 672.8,447.0 686.5,451.0 700.2,452.0 713.8,452.0 727.5,452.9 741.2,451.6 754.8,450.3 768.5,452.0 782.2,453.9 795.8,454.9 809.5,454.6 823.2,452.0" fill="none" stroke="#2a78d6" stroke-width="1.5" stroke-linejoin="round" stroke-linecap="round"/>
<polyline points="16.8,428.7 30.5,428.7 44.2,426.7 57.8,426.7 71.5,428.7 85.2,440.5 98.8,442.4 112.5,445.1 126.2,443.1 139.8,441.8 153.5,439.8 167.2,436.5 180.8,424.7 194.5,425.4 208.2,423.4 221.8,426.0 235.5,424.7 249.2,439.2 262.8,439.8 276.5,439.2 290.2,432.0 303.8,439.8 317.5,438.5 331.2,442.4 344.8,449.0 358.5,458.2 372.2,458.2 385.8,453.6 399.5,454.3 413.2,451.6 426.8,450.3 440.5,448.4 454.2,451.0 467.8,450.3 481.5,449.0 495.2,445.7 508.8,447.7 522.5,449.0 536.2,445.7 549.8,444.4 563.5,444.4 577.2,445.7 590.8,445.1 604.5,445.7 618.2,449.7 631.8,449.0 645.5,444.4 659.2,446.4 672.8,448.4 686.5,452.3 700.2,454.9 713.8,459.5 727.5,459.5 741.2,454.9 754.8,448.4 768.5,449.0 782.2,448.4 795.8,450.3 809.5,454.3 823.2,455.6" fill="none" stroke="#eda100" stroke-width="1.5" stroke-linejoin="round" stroke-linecap="round"/>
</svg>