<svg xmlns="http://www.w3.org/2000/svg" viewBox="0 0 840 496" width="840" height="496" font-family="-apple-system,&#39;Segoe UI&#39;,system-ui,sans-serif" role="img" aria-label="EbookFoundation/free-programming-books candlestick chart">
<text x="14.0" y="20.0" font-size="15" fill="#0b0b0b" font-weight="650">EbookFoundation/free-programming-books</text>
<text x="331.5" y="20.0" font-size="11.5" fill="#52514e">daily · new stars, volume = new forks</text>
<text x="805.8" y="20.0" font-size="11.0" fill="#52514e">fall</text>
<rect x="791" y="10" width="9" height="12" fill="#008300"/>
<text x="750.6" y="20.0" font-size="11.0" fill="#52514e">rise</text>
<rect x="736" y="10" width="9" height="12" fill="none" stroke="#e34948" stroke-width="1.5"/>
<text x="14.0" y="38.0" font-size="11.0" fill="#898781">last 60 days · +4,534 stars · +490 forks · updated 2026-07-15</text>
<rect x="10" y="66" width="820" height="290" fill="none" stroke="#e1e0d9"/>
<rect x="10" y="384" width="820" height="86" fill="none" stroke="#e1e0d9"/>
<text x="38.0" y="490.0" font-size="11.0" fill="#898781" text-anchor="middle">2026-05</text>
<line x1="215.0" y1="66.0" x2="215.0" y2="356.0" stroke="#e1e0d9" stroke-width="1.0"/>
<line x1="215.0" y1="384.0" x2="215.0" y2="470.0" stroke="#e1e0d9" stroke-width="1.0"/>
<text x="221.8" y="490.0" font-size="11.0" fill="#898781" text-anchor="middle">2026-06</text>
<line x1="625.0" y1="66.0" x2="625.0" y2="356.0" stroke="#e1e0d9" stroke-width="1.0"/>
<line x1="625.0" y1="384.0" x2="625.0" y2="470.0" stroke="#e1e0d9" stroke-width="1.0"/>
<text x="631.8" y="490.0" font-size="11.0" fill="#898781" text-anchor="middle">2026-07</text>
<text x="14.0" y="58.0" font-size="11.0" fill="#52514e">BOLL(20,2)</text>
<text x="84.5" y="58.0" font-size="11.0" fill="#eda100">UP:148.3</text>
<text x="142.9" y="58.0" font-size="11.0" fill="#2a78d6">MID:74.2</text>
<text x="201.3" y="58.0" font-size="11.0" fill="#e87ba4">LOW:0.1</text>
<text x="253.7" y="58.0" font-size="11.0" fill="#4a3aa7">MA7:97.1</text>
<line x1="10.0" y1="356.0" x2="830.0" y2="356.0" stroke="#e1e0d9" stroke-width="1.0"/>
<text x="14.0" y="353.0" font-size="11.0" fill="#898781">0</text>
<line x1="10.0" y1="274.3" x2="830.0" y2="274.3" stroke="#e1e0d9" stroke-width="1.0"/>
<text x="14.0" y="271.3" font-size="11.0" fill="#898781">100</text>
<line x1="10.0" y1="192.7" x2="830.0" y2="192.7" stroke="#e1e0d9" stroke-width="1.0"/>
<text x="14.0" y="189.7" font-size="11.0" fill="#898781">200</text>
<line x1="10.0" y1="111.0" x2="830.0" y2="111.0" stroke="#e1e0d9" stroke-width="1.0"/>
<text x="14.0" y="108.0" font-size="11.0" fill="#898781">300</text>
<polyline points="30.5,79.8 44.2,209.0 57.8,271.0 71.5,271.6 85.2,271.7 98.8,266.9 112.5,266.3 126.2,265.5 139.8,265.5 153.5,266.7 167.2,266.9 180.8,266.9 194.5,266.6 208.2,265.6 221.8,264.6 235.5,246.3 249.2,244.6 262.8,244.5 276.5,244.5 290.2,244.3 303.8,244.7 317.5,245.5 331.2,243.0 344.8,243.0 358.5,242.7 372.2,244.8 385.8,246.6 399.5,247.2 413.2,247.2 426.8,247.2 440.5,247.1 454.2,246.9 467.8,247.3 481.5,247.8 495.2,248.8 508.8,270.3 522.5,275.2 536.2,276.4 549.8,276.6 563.5,276.7 577.2,277.2 590.8,277.1 604.5,285.2 618.2,286.2 631.8,286.1 645.5,283.8 659.2,281.8 672.8,282.8 686.5,282.9 700.2,284.6 713.8,282.9 727.5,282.6 741.2,282.9 754.8,282.8 768.5,281.8 782.2,281.1 795.8,260.9 809.5,236.6 823.2,234.9" fill="none" stroke="#eda100" stroke-width="1.5" stroke-linejoin="round" stroke-linecap="round"/>
<polyline points="30.5,264.8 44.2,283.9 57.8,292.7 71.5,292.3 85.2,292.8 98.8,291.4 112.5,291.3 126.2,290.7 139.8,291.4 153.5,293.0 167.2,292.7 180.8,292.6 194.5,292.5 208.2,292.0 221.8,291.2 235.5,288.2 249.2,287.4 262.8,287.4 276.5,287.2 290.2,287.5 303.8,286.7 317.5,287.6 331.2,285.6 344.8,285.3 358.5,285.6 372.2,288.0 385.8,289.5 399.5,290.0 413.2,289.6 426.8,288.5 440.5,288.0 454.2,288.6 467.8,289.4 481.5,291.2 495.2,292.5 508.8,297.1 522.5,299.6 536.2,300.0 549.8,300.2 563.5,300.0 577.2,300.7 590.8,301.7 604.5,303.2 618.2,303.6 631.8,303.7 645.5,302.4 659.2,301.7 672.8,302.5 686.5,302.5 700.2,303.2 713.8,305.2 727.5,305.8 741.2,306.4 754.8,306.6 768.5,306.1 782.2,305.6 795.8,301.2 809.5,296.6 823.2,295.4" fill="none" stroke="#2a78d6" stroke-width="1.5" stroke-linejoin="round" stroke-linecap="round"/>
<polyline points="30.5,356.0 44.2,356.0 57.8,314.5 71.5,312.9 85.2,314.0 98.8,315.9 112.5,316.3 126.2,315.9 139.8,317.2 153.5,319.3 167.2,318.5 180.8,318.4 194.5,318.4 208.2,318.3 221.8,317.9 235.5,330.1 249.2,330.3 262.8,330.3 276.5,329.9 290.2,330.6 303.8,328.7 317.5,329.7 331.2,328.2 344.8,327.7 358.5,328.5 372.2,331.2 385.8,332.3 399.5,332.7 413.2,331.9 426.8,329.7 440.5,329.0 454.2,330.2 467.8,331.5 481.5,334.5 495.2,336.1 508.8,323.8 522.5,324.0 536.2,323.6 549.8,323.8 563.5,323.3 577.2,324.1 590.8,326.3 604.5,321.1 618.2,321.1 631.8,321.2 645.5,321.1 659.2,321.6 672.8,322.1 686.5,322.1 700.2,321.7 713.8,327.5 727.5,329.0 741.2,329.9 754.8,330.5 768.5,330.3 782.2,330.0 795.8,341.5 809.5,356.0 823.2,355.9" fill="none" stroke="#e87ba4" stroke-width="1.5" stroke-linejoin="round" stroke-linecap="round"/>
<polyline points="16.8,290.7 30.5,293.6 44.2,291.2 57.8,295.0 71.5,297.4 85.2,300.1 98.8,295.0 112.5,290.2 126.2,286.3 139.8,289.9 153.5,290.9 167.2,291.2 180.8,290.3 194.5,293.4 208.2,294.7 221.8,294.5 235.5,281.9 249.2,275.7 262.8,273.2 276.5,273.2 290.2,276.5 303.8,278.5 317.5,280.8 331.2,287.5 344.8,291.4 358.5,295.0 372.2,297.1 385.8,295.9 399.5,295.6 413.2,295.6 426.8,299.1 440.5,298.9 454.2,298.8 467.8,297.5 481.5,299.6 495.2,301.6 508.8,303.4 522.5,307.6 536.2,307.2 549.8,306.4 563.5,306.8 577.2,305.7 590.8,307.2 604.5,305.0 618.2,302.8 631.8,305.6 645.5,303.4 659.2,300.7 672.8,300.8 686.5,297.8 700.2,298.9 713.8,303.5 727.5,304.9 741.2,309.0 754.8,313.6 768.5,311.9 782.2,312.1 795.8,302.0 809.5,282.7 823.2,276.7" fill="none" stroke="#4a3aa7" stroke-width="1.5" stroke-linejoin="round" stroke-linecap="round"/>
<rect x="13.1" y="300.5" width="7.5" height="4.1" fill="#008300"/>
<rect x="26.7" y="304.5" width="7.5" height="5.7" fill="#008300"/>
<rect x="40.4" y="279.2" width="7.5" height="31.0" fill="none" stroke="#e34948" stroke-width="1.3"/>
<rect x="54.1" y="279.2" width="7.5" height="24.5" fill="#008300"/>
<rect x="67.7" y="299.6" width="7.5" height="4.1" fill="none" stroke="#e34948" stroke-width="1.3"/>
<rect x="81.4" y="299.6" width="7.5" height="3.3" fill="#008300"/>
<rect x="95.1" y="264.5" width="7.5" height="38.4" fill="none" stroke="#e34948" stroke-width="1.3"/>
<rect x="108.7" y="264.5" width="7.5" height="6.5" fill="#008300"/>
<rect x="122.4" y="271.1" width="7.5" height="12.3" fill="#008300"/>
<rect x="136.1" y="283.3" width="7.5" height="21.2" fill="#008300"/>
<rect x="149.7" y="304.5" width="7.5" height="5.7" fill="#008300"/>
<rect x="163.4" y="301.3" width="7.5" height="9.0" fill="none" stroke="#e34948" stroke-width="1.3"/>
<rect x="177.1" y="297.2" width="7.5" height="4.1" fill="none" stroke="#e34948" stroke-width="1.3"/>
<rect x="190.7" y="285.8" width="7.5" height="11.4" fill="none" stroke="#e34948" stroke-width="1.3"/>
<rect x="204.4" y="280.9" width="7.5" height="4.9" fill="none" stroke="#e34948" stroke-width="1.3"/>
<rect x="218.1" y="280.9" width="7.5" height="1.2" fill="#008300"/>
<rect x="231.7" y="216.3" width="7.5" height="65.3" fill="none" stroke="#e34948" stroke-width="1.3"/>
<rect x="245.4" y="216.3" width="7.5" height="50.6" fill="#008300"/>
<rect x="259.1" y="267.0" width="7.5" height="16.3" fill="#008300"/>
<rect x="272.7" y="283.3" width="7.5" height="13.9" fill="#008300"/>
<rect x="286.4" y="297.2" width="7.5" height="12.3" fill="#008300"/>
<rect x="300.1" y="294.7" width="7.5" height="14.7" fill="none" stroke="#e34948" stroke-width="1.3"/>
<rect x="313.7" y="294.7" width="7.5" height="2.5" fill="#008300"/>
<rect x="327.4" y="263.7" width="7.5" height="33.5" fill="none" stroke="#e34948" stroke-width="1.3"/>
<rect x="341.1" y="263.7" width="7.5" height="30.2" fill="#008300"/>
<rect x="354.7" y="293.9" width="7.5" height="14.7" fill="#008300"/>
<rect x="368.4" y="308.6" width="7.5" height="3.3" fill="#008300"/>
<rect x="382.1" y="301.3" width="7.5" height="10.6" fill="none" stroke="#e34948" stroke-width="1.3"/>
<rect x="395.7" y="293.1" width="7.5" height="8.2" fill="none" stroke="#e34948" stroke-width="1.3"/>
<rect x="409.4" y="293.1" width="7.5" height="3.3" fill="#008300"/>
<rect x="423.1" y="288.2" width="7.5" height="8.2" fill="none" stroke="#e34948" stroke-width="1.3"/>
<rect x="436.7" y="288.2" width="7.5" height="4.9" fill="#008300"/>
<rect x="450.4" y="293.1" width="7.5" height="14.7" fill="#008300"/>
<rect x="464.1" y="302.9" width="7.5" height="4.9" fill="none" stroke="#e34948" stroke-width="1.3"/>
<rect x="477.7" y="302.9" width="7.5" height="12.3" fill="#008300"/>
<rect x="491.4" y="307.8" width="7.5" height="7.4" fill="none" stroke="#e34948" stroke-width="1.3"/>
<rect x="505.1" y="307.8" width="7.5" height="1.2" fill="#008300"/>
<rect x="518.7" y="308.6" width="7.5" height="9.0" fill="#008300"/>
<rect x="532.4" y="290.7" width="7.5" height="27.0" fill="none" stroke="#e34948" stroke-width="1.3"/>
<rect x="546.1" y="290.7" width="7.5" height="11.4" fill="#008300"/>
<rect x="559.7" y="302.1" width="7.5" height="3.3" fill="#008300"/>
<rect x="573.4" y="305.4" width="7.5" height="2.5" fill="#008300"/>
<rect x="587.1" y="307.8" width="7.5" height="10.6" fill="#008300"/>
<rect x="600.7" y="293.1" width="7.5" height="25.3" fill="none" stroke="#e34948" stroke-width="1.3"/>
<rect x="614.4" y="293.1" width="7.5" height="9.0" fill="#008300"/>
<rect x="628.1" y="302.1" width="7.5" height="8.2" fill="#008300"/>
<rect x="641.7" y="286.6" width="7.5" height="23.7" fill="none" stroke="#e34948" stroke-width="1.3"/>
<rect x="655.4" y="286.6" width="7.5" height="1.2" fill="#898781"/>
<rect x="669.1" y="286.6" width="7.5" height="22.1" fill="#008300"/>
<rect x="682.7" y="297.2" width="7.5" height="11.4" fill="none" stroke="#e34948" stroke-width="1.3"/>
<rect x="696.4" y="297.2" width="7.5" height="4.1" fill="#008300"/>
<rect x="710.1" y="301.3" width="7.5" height="32.7" fill="#008300"/>
<rect x="723.7" y="320.1" width="7.5" height="13.9" fill="none" stroke="#e34948" stroke-width="1.3"/>
<rect x="737.4" y="315.2" width="7.5" height="4.9" fill="none" stroke="#e34948" stroke-width="1.3"/>
<rect x="751.1" y="315.2" width="7.5" height="4.1" fill="#008300"/>
<rect x="764.7" y="296.4" width="7.5" height="22.9" fill="none" stroke="#e34948" stroke-width="1.3"/>
<rect x="778.4" y="296.4" width="7.5" height="2.5" fill="#008300"/>
<rect x="792.1" y="230.2" width="7.5" height="68.6" fill="none" stroke="#e34948" stroke-width="1.3"/>
<rect x="805.7" y="199.2" width="7.5" height="31.0" fill="none" stroke="#e34948" stroke-width="1.3"/>
<rect x="819.4" y="199.2" width="7.5" height="78.4" fill="#008300"/>
<circle cx="809.5" cy="199.2" r="2" fill="#52514e"/>
<line x1="809.5" y1="199.2" x2="801.5" y2="199.2" stroke="#52514e" stroke-width="1.0"/>
<text x="798.5" y="203.2" font-size="11.0" fill="#52514e" text-anchor="end">192</text>
<circle cx="713.8" cy="333.9" r="2" fill="#52514e"/>
<line x1="713.8" y1="333.9" x2="705.8" y2="333.9" stroke="#52514e" stroke-width="1.0"/>
<text x="702.8" y="337.9" font-size="11.0" fill="#52514e" text-anchor="end">27</text>
<text x="14.0" y="376.0" font-size="11.0" fill="#52514e">VOL 4 forks</text>
<text x="90.6" y="376.0" font-size="11.0" fill="#eda100">MA5:6.4</text>
<text x="142.9" y="376.0" font-size="11.0" fill="#2a78d6">MA10:5.5</text>
<text x="14.0" y="395.0" font-size="10" fill="#898781">25</text>
<rect x="13.1" y="427.4" width="7.5" height="42.6" fill="#008300"/>
<rect x="26.7" y="443.8" width="7.5" height="26.2" fill="#008300"/>
<rect x="40.4" y="443.8" width="7.5" height="26.2" fill="none" stroke="#e34948" stroke-width="1.1"/>
<rect x="54.1" y="433.9" width="7.5" height="36.1" fill="#008300"/>
<rect x="67.7" y="394.6" width="7.5" height="75.4" fill="none" stroke="#e34948" stroke-width="1.1"/>
<rect x="81.4" y="427.4" width="7.5" height="42.6" fill="#008300"/>
<rect x="95.1" y="433.9" width="7.5" height="36.1" fill="none" stroke="#e34948" stroke-width="1.1"/>
<rect x="108.7" y="443.8" width="7.5" height="26.2" fill="#008300"/>
<rect x="122.4" y="443.8" width="7.5" height="26.2" fill="#008300"/>
<rect x="136.1" y="453.6" width="7.5" height="16.4" fill="#008300"/>
<rect x="149.7" y="437.2" width="7.5" height="32.8" fill="#008300"/>
<rect x="163.4" y="447.0" width="7.5" height="23.0" fill="none" stroke="#e34948" stroke-width="1.1"/>
<rect x="177.1" y="433.9" width="7.5" height="36.1" fill="none" stroke="#e34948" stroke-width="1.1"/>
<rect x="190.7" y="437.2" width="7.5" height="32.8" fill="none" stroke="#e34948" stroke-width="1.1"/>
<rect x="204.4" y="443.8" width="7.5" height="26.2" fill="none" stroke="#e34948" stroke-width="1.1"/>
<rect x="218.1" y="420.8" width="7.5" height="49.2" fill="#008300"/>
<rect x="231.7" y="388.0" width="7.5" height="82.0" fill="none" stroke="#e34948" stroke-width="1.1"/>
<rect x="245.4" y="437.2" width="7.5" height="32.8" fill="#008300"/>
<rect x="259.1" y="427.4" width="7.5" height="42.6" fill="#008300"/>
<rect x="272.7" y="456.9" width="7.5" height="13.1" fill="#008300"/>
<rect x="286.4" y="414.2" width="7.5" height="55.8" fill="#008300"/>
<rect x="300.1" y="460.2" width="7.5" height="9.8" fill="none" stroke="#e34948" stroke-width="1.1"/>
<rect x="313.7" y="440.5" width="7.5" height="29.5" fill="#008300"/>
<rect x="327.4" y="424.1" width="7.5" height="45.9" fill="none" stroke="#e34948" stroke-width="1.1"/>
<rect x="341.1" y="420.8" width="7.5" height="49.2" fill="#008300"/>
<rect x="354.7" y="453.6" width="7.5" height="16.4" fill="#008300"/>
<rect x="368.4" y="453.6" width="7.5" height="16.4" fill="#008300"/>
<rect x="382.1" y="460.2" width="7.5" height="9.8" fill="none" stroke="#e34948" stroke-width="1.1"/>
<rect x="395.7" y="456.9" width="7.5" height="13.1" fill="none" stroke="#e34948" stroke-width="1.1"/>
<rect x="409.4" y="466.7" width="7.5" height="3.3" fill="#008300"/>
<rect x="423.1" y="453.6" width="7.5" height="16.4" fill="none" stroke="#e34948" stroke-width="1.1"/>
<rect x="436.7" y="430.6" width="7.5" height="39.4" fill="#008300"/>
<rect x="450.4" y="463.4" width="7.5" height="6.6" fill="#008300"/>
<rect x="464.1" y="443.8" width="7.5" height="26.2" fill="none" stroke="#e34948" stroke-width="1.1"/>
<rect x="477.7" y="460.2" width="7.5" height="9.8" fill="#008300"/>
<rect x="491.4" y="443.8" width="7.5" height="26.2" fill="none" stroke="#e34948" stroke-width="1.1"/>
<rect x="505.1" y="443.8" width="7.5" height="26.2" fill="#008300"/>
<rect x="518.7" y="460.2" width="7.5" height="9.8" fill="#008300"/>
<rect x="532.4" y="437.2" width="7.5" height="32.8" fill="none" stroke="#e34948" stroke-width="1.1"/>
<rect x="546.1" y="443.8" width="7.5" height="26.2" fill="#008300"/>
<rect x="559.7" y="453.6" width="7.5" height="16.4" fill="#008300"/>
<rect x="573.4" y="450.3" width="7.5" height="19.7" fill="#008300"/>
<rect x="587.1" y="443.8" width="7.5" height="26.2" fill="#008300"/>
<rect x="600.7" y="430.6" width="7.5" height="39.4" fill="none" stroke="#e34948" stroke-width="1.1"/>
<rect x="614.4" y="443.8" width="7.5" height="26.2" fill="#008300"/>
<rect x="628.1" y="460.2" width="7.5" height="9.8" fill="#008300"/>
<rect x="641.7" y="447.0" width="7.5" height="23.0" fill="none" stroke="#e34948" stroke-width="1.1"/>
<rect x="655.4" y="447.0" width="7.5" height="23.0" fill="#898781"/>
<rect x="669.1" y="450.3" width="7.5" height="19.7" fill="#008300"/>
<rect x="682.7" y="440.5" width="7.5" height="29.5" fill="none" stroke="#e34948" stroke-width="1.1"/>
<rect x="696.4" y="437.2" width="7.5" height="32.8" fill="#008300"/>
<rect x="710.1" y="456.9" width="7.5" height="13.1" fill="#008300"/>
<rect x="723.7" y="456.9" width="7.5" height="13.1" fill="none" stroke="#e34948" stroke-width="1.1"/>
<rect x="751.1" y="453.6" width="7.5" height="16.4" fill="#008300"/>
<rect x="764.7" y="460.2" width="7.5" height="9.8" fill="none" stroke="#e34948" stroke-width="1.1"/>
<rect x="778.4" y="456.9" width="7.5" height="13.1" fill="#008300"/>
<rect x="792.1" y="433.9" width="7.5" height="36.1" fill="none" stroke="#e34948" stroke-width="1.1"/>
<rect x="805.7" y="437.2" width="7.5" height="32.8" fill="none" stroke="#e34948" stroke-width="1.1"/>
<rect x="819.4" y="456.9" width="7.5" height="13.1" fill="#008300"/>
<polyline points="16.8,436.2 30.5,437.5 44.2,438.2 57.8,437.5 71.5,432.9 85.2,432.6 98.8,434.9 112.5,434.2 126.2,434.6 139.8,434.6 153.5,435.6 167.2,435.9 180.8,434.9 194.5,435.2 208.2,440.2 221.8,439.5 235.5,434.9 249.2,434.2 262.8,432.6 276.5,432.9 290.2,430.6 303.8,432.0 317.5,432.6 331.2,431.3 344.8,429.0 358.5,432.3 372.2,438.8 385.8,441.1 399.5,444.1 413.2,445.1 426.8,449.0 440.5,446.1 454.2,448.4 467.8,450.3 481.5,454.3 495.2,453.3 508.8,452.3 522.5,452.3 536.2,450.3 549.8,448.0 563.5,448.0 577.2,450.0 590.8,448.0 604.5,446.7 618.2,445.1 631.8,446.7 645.5,447.0 659.2,445.7 672.8,447.0 686.5,446.7 700.2,445.1 713.8,445.7 727.5,447.0 741.2,451.0 754.8,452.0 768.5,452.0 782.2,452.9 795.8,451.6 809.5,450.3 823.2,452.0" fill="none" stroke="#2a78d6" stroke-width="1.5" stroke-linejoin="round" stroke-linecap="round"/>
<polyline points="16.8,436.5 30.5,443.1 44.2,441.8 57.8,440.5 71.5,428.7 85.2,428.7 98.8,426.7 112.5,426.7 126.2,428.7 139.8,440.5 153.5,442.4 167.2,445.1 180.8,443.1 194.5,441.8 208.2,439.8 221.8,436.5 235.5,424.7 249.2,425.4 262.8,423.4 276.5,426.0 290.2,424.7 303.8,439.2 317.5,439.8 331.2,439.2 344.8,432.0 358.5,439.8 372.2,438.5 385.8,442.4 399.5,449.0 413.2,458.2 426.8,458.2 440.5,453.6 454.2,454.3 467.8,451.6 481.5,450.3 495.2,448.4 508.8,451.0 522.5,450.3 536.2,449.0 549.8,445.7 563.5,447.7 577.2,449.0 590.8,445.7 604.5,444.4 618.2,444.4 631.8,445.7 645.5,445.1 659.2,445.7 672.8,449.7 686.5,449.0 700.2,444.4 713.8,446.4 727.5,448.4 741.2,452.3 754.8,454.9 768.5,459.5 782.2,459.5 795.8,454.9 809.5,448.4 823.2,449.0" fill="none" stroke="#eda100" stroke-width="1.5" stroke-linejoin="round" stroke-linecap="round"/>
</svg>