<svg xmlns="http://www.w3.org/2000/svg" viewBox="0 0 840 496" width="840" height="496" font-family="-apple-system,&#39;Segoe UI&#39;,system-ui,sans-serif" role="img" aria-label="EbookFoundation/free-programming-books candlestick chart">
<text x="14.0" y="20.0" font-size="15" fill="#ffffff" font-weight="650">EbookFoundation/free-programming-books</text>
<text x="331.5" y="20.0" font-size="11.5" fill="#c3c2b7">daily · new stars, volume = new forks</text>
<text x="805.8" y="20.0" font-size="11.0" fill="#c3c2b7">fall</text>
<rect x="791" y="10" width="9" height="12" fill="#008300"/>
<text x="750.6" y="20.0" font-size="11.0" fill="#c3c2b7">rise</text>
<rect x="736" y="10" width="9" height="12" fill="none" stroke="#e66767" stroke-width="1.5"/>
<text x="14.0" y="38.0" font-size="11.0" fill="#898781">last 60 days · +4,521 stars · +430 forks · updated 2026-07-23</text>
<rect x="10" y="66" width="820" height="290" fill="none" stroke="#2c2c2a"/>
<rect x="10" y="384" width="820" height="86" fill="none" stroke="#2c2c2a"/>
<text x="38.0" y="490.0" font-size="11.0" fill="#898781" text-anchor="middle">2026-05</text>
<line x1="105.7" y1="66.0" x2="105.7" y2="356.0" stroke="#2c2c2a" stroke-width="1.0"/>
<line x1="105.7" y1="384.0" x2="105.7" y2="470.0" stroke="#2c2c2a" stroke-width="1.0"/>
<text x="112.5" y="490.0" font-size="11.0" fill="#898781" text-anchor="middle">2026-06</text>
<line x1="515.7" y1="66.0" x2="515.7" y2="356.0" stroke="#2c2c2a" stroke-width="1.0"/>
<line x1="515.7" y1="384.0" x2="515.7" y2="470.0" stroke="#2c2c2a" stroke-width="1.0"/>
<text x="522.5" y="490.0" font-size="11.0" fill="#898781" text-anchor="middle">2026-07</text>
<text x="14.0" y="58.0" font-size="11.0" fill="#c3c2b7">BOLL(20,2)</text>
<text x="84.5" y="58.0" font-size="11.0" fill="#c98500">UP:150.4</text>
<text x="142.9" y="58.0" font-size="11.0" fill="#3987e5">MID:78.1</text>
<text x="201.3" y="58.0" font-size="11.0" fill="#d55181">LOW:5.8</text>
<text x="253.7" y="58.0" font-size="11.0" fill="#9085e9">MA7:75.3</text>
<line x1="10.0" y1="356.0" x2="830.0" y2="356.0" stroke="#2c2c2a" stroke-width="1.0"/>
<text x="14.0" y="353.0" font-size="11.0" fill="#898781">0</text>
<line x1="10.0" y1="212.2" x2="830.0" y2="212.2" stroke="#2c2c2a" stroke-width="1.0"/>
<text x="14.0" y="209.2" font-size="11.0" fill="#898781">100</text>
<line x1="10.0" y1="68.3" x2="830.0" y2="68.3" stroke="#2c2c2a" stroke-width="1.0"/>
<text x="14.0" y="65.3" font-size="11.0" fill="#898781">200</text>
<polyline points="16.8,196.6 30.5,196.5 44.2,198.6 57.8,199.0 71.5,199.0 85.2,198.5 98.8,196.8 112.5,195.0 126.2,162.8 139.8,159.8 153.5,159.7 167.2,159.7 180.8,159.3 194.5,159.9 208.2,161.4 221.8,156.9 235.5,156.9 249.2,156.5 262.8,160.1 276.5,163.4 290.2,164.4 303.8,164.4 317.5,164.3 331.2,164.2 344.8,163.9 358.5,164.6 372.2,165.5 385.8,167.1 399.5,205.1 413.2,213.7 426.8,215.8 440.5,216.2 454.2,216.3 467.8,217.3 481.5,217.1 495.2,231.4 508.8,233.0 522.5,232.9 536.2,228.8 549.8,225.3 563.5,227.0 577.2,227.2 590.8,230.3 604.5,227.3 618.2,226.8 631.8,227.3 645.5,227.0 659.2,225.3 672.8,224.1 686.5,188.4 700.2,145.7 713.8,142.7 727.5,140.9 741.2,140.9 754.8,139.5 768.5,139.1 782.2,138.5 795.8,138.3 809.5,139.0 823.2,139.7" fill="none" stroke="#c98500" stroke-width="1.5" stroke-linejoin="round" stroke-linecap="round"/>
<polyline points="16.8,241.0 30.5,242.1 44.2,245.0 57.8,244.5 71.5,244.4 85.2,244.1 98.8,243.2 112.5,241.9 126.2,236.6 139.8,235.2 153.5,235.2 167.2,234.9 180.8,235.3 194.5,233.9 208.2,235.5 221.8,232.0 235.5,231.5 249.2,232.0 262.8,236.2 276.5,238.8 290.2,239.7 303.8,239.0 317.5,237.0 331.2,236.3 344.8,237.3 358.5,238.8 372.2,241.8 385.8,244.1 399.5,252.2 413.2,256.7 426.8,257.3 440.5,257.8 454.2,257.4 467.8,258.5 481.5,260.4 495.2,263.0 508.8,263.7 522.5,263.9 536.2,261.6 549.8,260.3 563.5,261.7 577.2,261.8 590.8,262.9 604.5,266.5 618.2,267.6 631.8,268.7 645.5,269.0 659.2,268.0 672.8,267.2 686.5,259.5 700.2,251.4 713.8,249.3 727.5,247.5 741.2,247.8 754.8,244.8 768.5,244.4 782.2,243.6 795.8,242.4 809.5,243.1 823.2,243.7" fill="none" stroke="#3987e5" stroke-width="1.5" stroke-linejoin="round" stroke-linecap="round"/>
<polyline points="16.8,285.3 30.5,287.7 44.2,291.4 57.8,290.0 71.5,289.8 85.2,289.7 98.8,289.7 112.5,288.9 126.2,310.4 139.8,310.7 153.5,310.7 167.2,310.1 180.8,311.3 194.5,307.9 208.2,309.7 221.8,307.1 235.5,306.1 249.2,307.5 262.8,312.3 276.5,314.3 290.2,315.0 303.8,313.6 317.5,309.8 331.2,308.4 344.8,310.6 358.5,312.9 372.2,318.1 385.8,321.0 399.5,299.4 413.2,299.6 426.8,298.9 440.5,299.3 454.2,298.5 467.8,299.8 481.5,303.7 495.2,294.6 508.8,294.5 522.5,294.8 536.2,294.4 549.8,295.3 563.5,296.4 577.2,296.4 590.8,295.6 604.5,305.8 618.2,308.4 631.8,310.0 645.5,311.1 659.2,310.8 672.8,310.2 686.5,330.5 700.2,356.0 713.8,355.9 727.5,354.0 741.2,354.6 754.8,350.1 768.5,349.8 782.2,348.6 795.8,346.4 809.5,347.1 823.2,347.6" fill="none" stroke="#d55181" stroke-width="1.5" stroke-linejoin="round" stroke-linecap="round"/>
<polyline points="16.8,233.3 30.5,239.6 44.2,241.4 57.8,241.8 71.5,240.3 85.2,245.7 98.8,248.1 112.5,247.7 126.2,225.5 139.8,214.6 153.5,210.1 167.2,210.1 180.8,216.0 194.5,219.5 208.2,223.5 221.8,235.3 235.5,242.2 249.2,248.5 262.8,252.3 276.5,250.1 290.2,249.7 303.8,249.6 317.5,255.7 331.2,255.4 344.8,255.3 358.5,253.0 372.2,256.6 385.8,260.2 399.5,263.4 413.2,270.7 426.8,270.1 440.5,268.7 454.2,269.3 467.8,267.4 481.5,270.1 495.2,266.2 508.8,262.4 522.5,267.2 536.2,263.4 549.8,258.6 563.5,258.8 577.2,253.4 590.8,255.4 604.5,263.5 618.2,266.0 631.8,273.1 645.5,281.3 659.2,278.3 672.8,278.8 686.5,260.9 700.2,227.0 713.8,216.3 727.5,208.7 741.2,206.5 754.8,203.7 768.5,201.2 782.2,216.9 795.8,241.4 809.5,245.7 823.2,247.7" fill="none" stroke="#9085e9" stroke-width="1.5" stroke-linejoin="round" stroke-linecap="round"/>
<rect x="13.1" y="206.4" width="7.5" height="21.6" fill="#008300"/>
<rect x="26.7" y="228.0" width="7.5" height="37.4" fill="#008300"/>
<rect x="40.4" y="265.4" width="7.5" height="10.1" fill="#008300"/>
<rect x="54.1" y="259.6" width="7.5" height="15.8" fill="none" stroke="#e66767" stroke-width="1.3"/>
<rect x="67.7" y="252.4" width="7.5" height="7.2" fill="none" stroke="#e66767" stroke-width="1.3"/>
<rect x="81.4" y="232.3" width="7.5" height="20.1" fill="none" stroke="#e66767" stroke-width="1.3"/>
<rect x="95.1" y="223.7" width="7.5" height="8.6" fill="none" stroke="#e66767" stroke-width="1.3"/>
<rect x="108.7" y="223.7" width="7.5" height="1.4" fill="#008300"/>
<rect x="122.4" y="110.0" width="7.5" height="115.1" fill="none" stroke="#e66767" stroke-width="1.3"/>
<rect x="136.1" y="110.0" width="7.5" height="89.2" fill="#008300"/>
<rect x="149.7" y="199.2" width="7.5" height="28.8" fill="#008300"/>
<rect x="163.4" y="228.0" width="7.5" height="24.5" fill="#008300"/>
<rect x="177.1" y="252.4" width="7.5" height="21.6" fill="#008300"/>
<rect x="190.7" y="248.1" width="7.5" height="25.9" fill="none" stroke="#e66767" stroke-width="1.3"/>
<rect x="204.4" y="248.1" width="7.5" height="4.3" fill="#008300"/>
<rect x="218.1" y="193.5" width="7.5" height="59.0" fill="none" stroke="#e66767" stroke-width="1.3"/>
<rect x="231.7" y="193.5" width="7.5" height="53.2" fill="#008300"/>
<rect x="245.4" y="246.7" width="7.5" height="25.9" fill="#008300"/>
<rect x="259.1" y="272.6" width="7.5" height="5.8" fill="#008300"/>
<rect x="272.7" y="259.6" width="7.5" height="18.7" fill="none" stroke="#e66767" stroke-width="1.3"/>
<rect x="286.4" y="245.2" width="7.5" height="14.4" fill="none" stroke="#e66767" stroke-width="1.3"/>
<rect x="300.1" y="245.2" width="7.5" height="5.8" fill="#008300"/>
<rect x="313.7" y="236.6" width="7.5" height="14.4" fill="none" stroke="#e66767" stroke-width="1.3"/>
<rect x="327.4" y="236.6" width="7.5" height="8.6" fill="#008300"/>
<rect x="341.1" y="245.2" width="7.5" height="25.9" fill="#008300"/>
<rect x="354.7" y="262.5" width="7.5" height="8.6" fill="none" stroke="#e66767" stroke-width="1.3"/>
<rect x="368.4" y="262.5" width="7.5" height="21.6" fill="#008300"/>
<rect x="382.1" y="271.1" width="7.5" height="12.9" fill="none" stroke="#e66767" stroke-width="1.3"/>
<rect x="395.7" y="271.1" width="7.5" height="1.4" fill="#008300"/>
<rect x="409.4" y="272.6" width="7.5" height="15.8" fill="#008300"/>
<rect x="423.1" y="240.9" width="7.5" height="47.5" fill="none" stroke="#e66767" stroke-width="1.3"/>
<rect x="436.7" y="240.9" width="7.5" height="20.1" fill="#008300"/>
<rect x="450.4" y="261.1" width="7.5" height="5.8" fill="#008300"/>
<rect x="464.1" y="266.8" width="7.5" height="4.3" fill="#008300"/>
<rect x="477.7" y="271.1" width="7.5" height="18.7" fill="#008300"/>
<rect x="491.4" y="245.2" width="7.5" height="44.6" fill="none" stroke="#e66767" stroke-width="1.3"/>
<rect x="505.1" y="245.2" width="7.5" height="15.8" fill="#008300"/>
<rect x="518.7" y="261.1" width="7.5" height="14.4" fill="#008300"/>
<rect x="532.4" y="233.7" width="7.5" height="41.7" fill="none" stroke="#e66767" stroke-width="1.3"/>
<rect x="546.1" y="233.7" width="7.5" height="1.2" fill="#898781"/>
<rect x="559.7" y="233.7" width="7.5" height="38.8" fill="#008300"/>
<rect x="573.4" y="252.4" width="7.5" height="20.1" fill="none" stroke="#e66767" stroke-width="1.3"/>
<rect x="587.1" y="252.4" width="7.5" height="7.2" fill="#008300"/>
<rect x="600.7" y="259.6" width="7.5" height="57.5" fill="#008300"/>
<rect x="614.4" y="292.7" width="7.5" height="24.5" fill="none" stroke="#e66767" stroke-width="1.3"/>
<rect x="628.1" y="284.1" width="7.5" height="8.6" fill="none" stroke="#e66767" stroke-width="1.3"/>
<rect x="641.7" y="284.1" width="7.5" height="7.2" fill="#008300"/>
<rect x="655.4" y="251.0" width="7.5" height="40.3" fill="none" stroke="#e66767" stroke-width="1.3"/>
<rect x="669.1" y="251.0" width="7.5" height="4.3" fill="#008300"/>
<rect x="682.7" y="134.5" width="7.5" height="120.8" fill="none" stroke="#e66767" stroke-width="1.3"/>
<rect x="696.4" y="79.8" width="7.5" height="54.7" fill="none" stroke="#e66767" stroke-width="1.3"/>
<rect x="710.1" y="79.8" width="7.5" height="138.1" fill="#008300"/>
<rect x="723.7" y="217.9" width="7.5" height="12.9" fill="#008300"/>
<rect x="737.4" y="230.9" width="7.5" height="46.0" fill="#008300"/>
<rect x="751.1" y="230.9" width="7.5" height="46.0" fill="none" stroke="#e66767" stroke-width="1.3"/>
<rect x="764.7" y="230.9" width="7.5" height="7.2" fill="#008300"/>
<rect x="778.4" y="238.0" width="7.5" height="5.8" fill="#008300"/>
<rect x="792.1" y="243.8" width="7.5" height="7.2" fill="#008300"/>
<rect x="805.7" y="248.1" width="7.5" height="2.9" fill="none" stroke="#e66767" stroke-width="1.3"/>
<rect x="819.4" y="245.2" width="7.5" height="2.9" fill="none" stroke="#e66767" stroke-width="1.3"/>
<circle cx="700.2" cy="79.8" r="2" fill="#c3c2b7"/>
<line x1="700.2" y1="79.8" x2="692.2" y2="79.8" stroke="#c3c2b7" stroke-width="1.0"/>
<text x="689.2" y="83.8" font-size="11.0" fill="#c3c2b7" text-anchor="end">192</text>
<circle cx="604.5" cy="317.2" r="2" fill="#c3c2b7"/>
<line x1="604.5" y1="317.2" x2="596.5" y2="317.2" stroke="#c3c2b7" stroke-width="1.0"/>
<text x="593.5" y="321.2" font-size="11.0" fill="#c3c2b7" text-anchor="end">27</text>
<text x="14.0" y="376.0" font-size="11.0" fill="#c3c2b7">VOL 0 forks</text>
<text x="90.6" y="376.0" font-size="11.0" fill="#c98500">MA5:5</text>
<text x="130.8" y="376.0" font-size="11.0" fill="#3987e5">MA10:4.9</text>
<text x="14.0" y="395.0" font-size="10" fill="#898781">25</text>
<rect x="13.1" y="443.8" width="7.5" height="26.2" fill="#008300"/>
<rect x="26.7" y="453.6" width="7.5" height="16.4" fill="#008300"/>
<rect x="40.4" y="437.2" width="7.5" height="32.8" fill="#008300"/>
<rect x="54.1" y="447.0" width="7.5" height="23.0" fill="none" stroke="#e66767" stroke-width="1.1"/>
<rect x="67.7" y="433.9" width="7.5" height="36.1" fill="none" stroke="#e66767" stroke-width="1.1"/>
<rect x="81.4" y="437.2" width="7.5" height="32.8" fill="none" stroke="#e66767" stroke-width="1.1"/>
<rect x="95.1" y="443.8" width="7.5" height="26.2" fill="none" stroke="#e66767" stroke-width="1.1"/>
<rect x="108.7" y="420.8" width="7.5" height="49.2" fill="#008300"/>
<rect x="122.4" y="388.0" width="7.5" height="82.0" fill="none" stroke="#e66767" stroke-width="1.1"/>
<rect x="136.1" y="437.2" width="7.5" height="32.8" fill="#008300"/>
<rect x="149.7" y="427.4" width="7.5" height="42.6" fill="#008300"/>
<rect x="163.4" y="456.9" width="7.5" height="13.1" fill="#008300"/>
<rect x="177.1" y="414.2" width="7.5" height="55.8" fill="#008300"/>
<rect x="190.7" y="460.2" width="7.5" height="9.8" fill="none" stroke="#e66767" stroke-width="1.1"/>
<rect x="204.4" y="440.5" width="7.5" height="29.5" fill="#008300"/>
<rect x="218.1" y="424.1" width="7.5" height="45.9" fill="none" stroke="#e66767" stroke-width="1.1"/>
<rect x="231.7" y="420.8" width="7.5" height="49.2" fill="#008300"/>
<rect x="245.4" y="453.6" width="7.5" height="16.4" fill="#008300"/>
<rect x="259.1" y="453.6" width="7.5" height="16.4" fill="#008300"/>
<rect x="272.7" y="460.2" width="7.5" height="9.8" fill="none" stroke="#e66767" stroke-width="1.1"/>
<rect x="286.4" y="456.9" width="7.5" height="13.1" fill="none" stroke="#e66767" stroke-width="1.1"/>
<rect x="300.1" y="466.7" width="7.5" height="3.3" fill="#008300"/>
<rect x="313.7" y="453.6" width="7.5" height="16.4" fill="none" stroke="#e66767" stroke-width="1.1"/>
<rect x="327.4" y="430.6" width="7.5" height="39.4" fill="#008300"/>
<rect x="341.1" y="463.4" width="7.5" height="6.6" fill="#008300"/>
<rect x="354.7" y="443.8" width="7.5" height="26.2" fill="none" stroke="#e66767" stroke-width="1.1"/>
<rect x="368.4" y="460.2" width="7.5" height="9.8" fill="#008300"/>
<rect x="382.1" y="443.8" width="7.5" height="26.2" fill="none" stroke="#e66767" stroke-width="1.1"/>
<rect x="395.7" y="443.8" width="7.5" height="26.2" fill="#008300"/>
<rect x="409.4" y="460.2" width="7.5" height="9.8" fill="#008300"/>
<rect x="423.1" y="437.2" width="7.5" height="32.8" fill="none" stroke="#e66767" stroke-width="1.1"/>
<rect x="436.7" y="443.8" width="7.5" height="26.2" fill="#008300"/>
<rect x="450.4" y="453.6" width="7.5" height="16.4" fill="#008300"/>
<rect x="464.1" y="450.3" width="7.5" height="19.7" fill="#008300"/>
<rect x="477.7" y="443.8" width="7.5" height="26.2" fill="#008300"/>
<rect x="491.4" y="430.6" width="7.5" height="39.4" fill="none" stroke="#e66767" stroke-width="1.1"/>
<rect x="505.1" y="443.8" width="7.5" height="26.2" fill="#008300"/>
<rect x="518.7" y="460.2" width="7.5" height="9.8" fill="#008300"/>
<rect x="532.4" y="447.0" width="7.5" height="23.0" fill="none" stroke="#e66767" stroke-width="1.1"/>
<rect x="546.1" y="447.0" width="7.5" height="23.0" fill="#898781"/>
<rect x="559.7" y="450.3" width="7.5" height="19.7" fill="#008300"/>
<rect x="573.4" y="440.5" width="7.5" height="29.5" fill="none" stroke="#e66767" stroke-width="1.1"/>
<rect x="587.1" y="437.2" width="7.5" height="32.8" fill="#008300"/>
<rect x="600.7" y="456.9" width="7.5" height="13.1" fill="#008300"/>
<rect x="614.4" y="456.9" width="7.5" height="13.1" fill="none" stroke="#e66767" stroke-width="1.1"/>
<rect x="641.7" y="453.6" width="7.5" height="16.4" fill="#008300"/>
<rect x="655.4" y="460.2" width="7.5" height="9.8" fill="none" stroke="#e66767" stroke-width="1.1"/>
<rect x="669.1" y="456.9" width="7.5" height="13.1" fill="#008300"/>
<rect x="682.7" y="433.9" width="7.5" height="36.1" fill="none" stroke="#e66767" stroke-width="1.1"/>
<rect x="696.4" y="437.2" width="7.5" height="32.8" fill="none" stroke="#e66767" stroke-width="1.1"/>
<rect x="710.1" y="456.9" width="7.5" height="13.1" fill="#008300"/>
<rect x="723.7" y="456.9" width="7.5" height="13.1" fill="#008300"/>
<rect x="737.4" y="466.7" width="7.5" height="3.3" fill="#008300"/>
<rect x="751.1" y="453.6" width="7.5" height="16.4" fill="none" stroke="#e66767" stroke-width="1.1"/>
<rect x="764.7" y="443.8" width="7.5" height="26.2" fill="#008300"/>
<rect x="778.4" y="440.5" width="7.5" height="29.5" fill="#008300"/>
<rect x="805.7" y="443.8" width="7.5" height="26.2" fill="none" stroke="#e66767" stroke-width="1.1"/>
<polyline points="16.8,434.6 30.5,434.6 44.2,435.6 57.8,435.9 71.5,434.9 85.2,435.2 98.8,440.2 112.5,439.5 126.2,434.9 139.8,434.2 153.5,432.6 167.2,432.9 180.8,430.6 194.5,432.0 208.2,432.6 221.8,431.3 235.5,429.0 249.2,432.3 262.8,438.8 276.5,441.1 290.2,444.1 303.8,445.1 317.5,449.0 331.2,446.1 344.8,448.4 358.5,450.3 372.2,454.3 385.8,453.3 399.5,452.3 413.2,452.3 426.8,450.3 440.5,448.0 454.2,448.0 467.8,450.0 481.5,448.0 495.2,446.7 508.8,445.1 522.5,446.7 536.2,447.0 549.8,445.7 563.5,447.0 577.2,446.7 590.8,445.1 604.5,445.7 618.2,447.0 631.8,451.0 645.5,452.0 659.2,452.0 672.8,452.9 686.5,451.6 700.2,450.3 713.8,452.0 727.5,453.9 741.2,454.9 754.8,454.6 768.5,452.0 782.2,450.6 795.8,451.6 809.5,450.3 823.2,453.9" fill="none" stroke="#3987e5" stroke-width="1.5" stroke-linejoin="round" stroke-linecap="round"/>
<polyline points="16.8,428.7 30.5,440.5 44.2,442.4 57.8,445.1 71.5,443.1 85.2,441.8 98.8,439.8 112.5,436.5 126.2,424.7 139.8,425.4 153.5,423.4 167.2,426.0 180.8,424.7 194.5,439.2 208.2,439.8 221.8,439.2 235.5,432.0 249.2,439.8 262.8,438.5 276.5,442.4 290.2,449.0 303.8,458.2 317.5,458.2 331.2,453.6 344.8,454.3 358.5,451.6 372.2,450.3 385.8,448.4 399.5,451.0 413.2,450.3 426.8,449.0 440.5,445.7 454.2,447.7 467.8,449.0 481.5,445.7 495.2,444.4 508.8,444.4 522.5,445.7 536.2,445.1 549.8,445.7 563.5,449.7 577.2,449.0 590.8,444.4 604.5,446.4 618.2,448.4 631.8,452.3 645.5,454.9 659.2,459.5 672.8,459.5 686.5,454.9 700.2,448.4 713.8,449.0 727.5,448.4 741.2,450.3 754.8,454.3 768.5,455.6 782.2,452.3 795.8,454.9 809.5,450.3 823.2,453.6" fill="none" stroke="#c98500" stroke-width="1.5" stroke-linejoin="round" stroke-linecap="round"/>
</svg>