<svg xmlns="http://www.w3.org/2000/svg" viewBox="0 0 840 496" width="840" height="496" font-family="-apple-system,&#39;Segoe UI&#39;,system-ui,sans-serif" role="img" aria-label="EbookFoundation/free-programming-books candlestick chart">
<text x="14.0" y="20.0" font-size="15" fill="#0b0b0b" font-weight="650">EbookFoundation/free-programming-books</text>
<text x="331.5" y="20.0" font-size="11.5" fill="#52514e">daily · new stars, volume = new forks</text>
<text x="805.8" y="20.0" font-size="11.0" fill="#52514e">fall</text>
<rect x="791" y="10" width="9" height="12" fill="#008300"/>
<text x="750.6" y="20.0" font-size="11.0" fill="#52514e">rise</text>
<rect x="736" y="10" width="9" height="12" fill="none" stroke="#e34948" stroke-width="1.5"/>
<text x="14.0" y="38.0" font-size="11.0" fill="#898781">last 60 days · +4,506 stars · +491 forks · updated 2026-07-14</text>
<rect x="10" y="66" width="820" height="290" fill="none" stroke="#e1e0d9"/>
<rect x="10" y="384" width="820" height="86" fill="none" stroke="#e1e0d9"/>
<text x="38.0" y="490.0" font-size="11.0" fill="#898781" text-anchor="middle">2026-05</text>
<line x1="228.7" y1="66.0" x2="228.7" y2="356.0" stroke="#e1e0d9" stroke-width="1.0"/>
<line x1="228.7" y1="384.0" x2="228.7" y2="470.0" stroke="#e1e0d9" stroke-width="1.0"/>
<text x="235.5" y="490.0" font-size="11.0" fill="#898781" text-anchor="middle">2026-06</text>
<line x1="638.7" y1="66.0" x2="638.7" y2="356.0" stroke="#e1e0d9" stroke-width="1.0"/>
<line x1="638.7" y1="384.0" x2="638.7" y2="470.0" stroke="#e1e0d9" stroke-width="1.0"/>
<text x="645.5" y="490.0" font-size="11.0" fill="#898781" text-anchor="middle">2026-07</text>
<text x="14.0" y="58.0" font-size="11.0" fill="#52514e">BOLL(20,2)</text>
<text x="84.5" y="58.0" font-size="11.0" fill="#eda100">UP:146.2</text>
<text x="142.9" y="58.0" font-size="11.0" fill="#2a78d6">MID:72.7</text>
<text x="201.3" y="58.0" font-size="11.0" fill="#e87ba4">LOW:0</text>
<text x="241.6" y="58.0" font-size="11.0" fill="#4a3aa7">MA7:89.7</text>
<line x1="10.0" y1="356.0" x2="830.0" y2="356.0" stroke="#e1e0d9" stroke-width="1.0"/>
<text x="14.0" y="353.0" font-size="11.0" fill="#898781">0</text>
<line x1="10.0" y1="274.3" x2="830.0" y2="274.3" stroke="#e1e0d9" stroke-width="1.0"/>
<text x="14.0" y="271.3" font-size="11.0" fill="#898781">100</text>
<line x1="10.0" y1="192.7" x2="830.0" y2="192.7" stroke="#e1e0d9" stroke-width="1.0"/>
<text x="14.0" y="189.7" font-size="11.0" fill="#898781">200</text>
<line x1="10.0" y1="111.0" x2="830.0" y2="111.0" stroke="#e1e0d9" stroke-width="1.0"/>
<text x="14.0" y="108.0" font-size="11.0" fill="#898781">300</text>
<polyline points="44.2,79.8 57.8,209.0 71.5,271.0 85.2,271.6 98.8,271.7 112.5,266.9 126.2,266.3 139.8,265.5 153.5,265.5 167.2,266.7 180.8,266.9 194.5,266.9 208.2,266.6 221.8,265.6 235.5,264.6 249.2,246.3 262.8,244.6 276.5,244.5 290.2,244.5 303.8,244.3 317.5,244.7 331.2,245.5 344.8,243.0 358.5,243.0 372.2,242.7 385.8,244.8 399.5,246.6 413.2,247.2 426.8,247.2 440.5,247.2 454.2,247.1 467.8,246.9 481.5,247.3 495.2,247.8 508.8,248.8 522.5,270.3 536.2,275.2 549.8,276.4 563.5,276.6 577.2,276.7 590.8,277.2 604.5,277.1 618.2,285.2 631.8,286.2 645.5,286.1 659.2,283.8 672.8,281.8 686.5,282.8 700.2,282.9 713.8,284.6 727.5,282.9 741.2,282.6 754.8,282.9 768.5,282.8 782.2,281.8 795.8,281.1 809.5,260.9 823.2,236.6" fill="none" stroke="#eda100" stroke-width="1.5" stroke-linejoin="round" stroke-linecap="round"/>
<polyline points="44.2,264.8 57.8,283.9 71.5,292.7 85.2,292.3 98.8,292.8 112.5,291.4 126.2,291.3 139.8,290.7 153.5,291.4 167.2,293.0 180.8,292.7 194.5,292.6 208.2,292.5 221.8,292.0 235.5,291.2 249.2,288.2 262.8,287.4 276.5,287.4 290.2,287.2 303.8,287.5 317.5,286.7 331.2,287.6 344.8,285.6 358.5,285.3 372.2,285.6 385.8,288.0 399.5,289.5 413.2,290.0 426.8,289.6 440.5,288.5 454.2,288.0 467.8,288.6 481.5,289.4 495.2,291.2 508.8,292.5 522.5,297.1 536.2,299.6 549.8,300.0 563.5,300.2 577.2,300.0 590.8,300.7 604.5,301.7 618.2,303.2 631.8,303.6 645.5,303.7 659.2,302.4 672.8,301.7 686.5,302.5 700.2,302.5 713.8,303.2 727.5,305.2 741.2,305.8 754.8,306.4 768.5,306.6 782.2,306.1 795.8,305.6 809.5,301.2 823.2,296.6" fill="none" stroke="#2a78d6" stroke-width="1.5" stroke-linejoin="round" stroke-linecap="round"/>
<polyline points="44.2,356.0 57.8,356.0 71.5,314.5 85.2,312.9 98.8,314.0 112.5,315.9 126.2,316.3 139.8,315.9 153.5,317.2 167.2,319.3 180.8,318.5 194.5,318.4 208.2,318.4 221.8,318.3 235.5,317.9 249.2,330.1 262.8,330.3 276.5,330.3 290.2,329.9 303.8,330.6 317.5,328.7 331.2,329.7 344.8,328.2 358.5,327.7 372.2,328.5 385.8,331.2 399.5,332.3 413.2,332.7 426.8,331.9 440.5,329.7 454.2,329.0 467.8,330.2 481.5,331.5 495.2,334.5 508.8,336.1 522.5,323.8 536.2,324.0 549.8,323.6 563.5,323.8 577.2,323.3 590.8,324.1 604.5,326.3 618.2,321.1 631.8,321.1 645.5,321.2 659.2,321.1 672.8,321.6 686.5,322.1 700.2,322.1 713.8,321.7 727.5,327.5 741.2,329.0 754.8,329.9 768.5,330.5 782.2,330.3 795.8,330.0 809.5,341.5 823.2,356.0" fill="none" stroke="#e87ba4" stroke-width="1.5" stroke-linejoin="round" stroke-linecap="round"/>
<polyline points="16.8,288.5 30.5,290.7 44.2,293.6 57.8,291.2 71.5,295.0 85.2,297.4 98.8,300.1 112.5,295.0 126.2,290.2 139.8,286.3 153.5,289.9 167.2,290.9 180.8,291.2 194.5,290.3 208.2,293.4 221.8,294.7 235.5,294.5 249.2,281.9 262.8,275.7 276.5,273.2 290.2,273.2 303.8,276.5 317.5,278.5 331.2,280.8 344.8,287.5 358.5,291.4 372.2,295.0 385.8,297.1 399.5,295.9 413.2,295.6 426.8,295.6 440.5,299.1 454.2,298.9 467.8,298.8 481.5,297.5 495.2,299.6 508.8,301.6 522.5,303.4 536.2,307.6 549.8,307.2 563.5,306.4 577.2,306.8 590.8,305.7 604.5,307.2 618.2,305.0 631.8,302.8 645.5,305.6 659.2,303.4 672.8,300.7 686.5,300.8 700.2,297.8 713.8,298.9 727.5,303.5 741.2,304.9 754.8,309.0 768.5,313.6 782.2,311.9 795.8,312.1 809.5,302.0 823.2,282.7" fill="none" stroke="#4a3aa7" stroke-width="1.5" stroke-linejoin="round" stroke-linecap="round"/>
<rect x="13.1" y="284.1" width="7.5" height="16.3" fill="#008300"/>
<rect x="26.7" y="300.5" width="7.5" height="4.1" fill="#008300"/>
<rect x="40.4" y="304.5" width="7.5" height="5.7" fill="#008300"/>
<rect x="54.1" y="279.2" width="7.5" height="31.0" fill="none" stroke="#e34948" stroke-width="1.3"/>
<rect x="67.7" y="279.2" width="7.5" height="24.5" fill="#008300"/>
<rect x="81.4" y="299.6" width="7.5" height="4.1" fill="none" stroke="#e34948" stroke-width="1.3"/>
<rect x="95.1" y="299.6" width="7.5" height="3.3" fill="#008300"/>
<rect x="108.7" y="264.5" width="7.5" height="38.4" fill="none" stroke="#e34948" stroke-width="1.3"/>
<rect x="122.4" y="264.5" width="7.5" height="6.5" fill="#008300"/>
<rect x="136.1" y="271.1" width="7.5" height="12.3" fill="#008300"/>
<rect x="149.7" y="283.3" width="7.5" height="21.2" fill="#008300"/>
<rect x="163.4" y="304.5" width="7.5" height="5.7" fill="#008300"/>
<rect x="177.1" y="301.3" width="7.5" height="9.0" fill="none" stroke="#e34948" stroke-width="1.3"/>
<rect x="190.7" y="297.2" width="7.5" height="4.1" fill="none" stroke="#e34948" stroke-width="1.3"/>
<rect x="204.4" y="285.8" width="7.5" height="11.4" fill="none" stroke="#e34948" stroke-width="1.3"/>
<rect x="218.1" y="280.9" width="7.5" height="4.9" fill="none" stroke="#e34948" stroke-width="1.3"/>
<rect x="231.7" y="280.9" width="7.5" height="1.2" fill="#008300"/>
<rect x="245.4" y="216.3" width="7.5" height="65.3" fill="none" stroke="#e34948" stroke-width="1.3"/>
<rect x="259.1" y="216.3" width="7.5" height="50.6" fill="#008300"/>
<rect x="272.7" y="267.0" width="7.5" height="16.3" fill="#008300"/>
<rect x="286.4" y="283.3" width="7.5" height="13.9" fill="#008300"/>
<rect x="300.1" y="297.2" width="7.5" height="12.3" fill="#008300"/>
<rect x="313.7" y="294.7" width="7.5" height="14.7" fill="none" stroke="#e34948" stroke-width="1.3"/>
<rect x="327.4" y="294.7" width="7.5" height="2.5" fill="#008300"/>
<rect x="341.1" y="263.7" width="7.5" height="33.5" fill="none" stroke="#e34948" stroke-width="1.3"/>
<rect x="354.7" y="263.7" width="7.5" height="30.2" fill="#008300"/>
<rect x="368.4" y="293.9" width="7.5" height="14.7" fill="#008300"/>
<rect x="382.1" y="308.6" width="7.5" height="3.3" fill="#008300"/>
<rect x="395.7" y="301.3" width="7.5" height="10.6" fill="none" stroke="#e34948" stroke-width="1.3"/>
<rect x="409.4" y="293.1" width="7.5" height="8.2" fill="none" stroke="#e34948" stroke-width="1.3"/>
<rect x="423.1" y="293.1" width="7.5" height="3.3" fill="#008300"/>
<rect x="436.7" y="288.2" width="7.5" height="8.2" fill="none" stroke="#e34948" stroke-width="1.3"/>
<rect x="450.4" y="288.2" width="7.5" height="4.9" fill="#008300"/>
<rect x="464.1" y="293.1" width="7.5" height="14.7" fill="#008300"/>
<rect x="477.7" y="302.9" width="7.5" height="4.9" fill="none" stroke="#e34948" stroke-width="1.3"/>
<rect x="491.4" y="302.9" width="7.5" height="12.3" fill="#008300"/>
<rect x="505.1" y="307.8" width="7.5" height="7.4" fill="none" stroke="#e34948" stroke-width="1.3"/>
<rect x="518.7" y="307.8" width="7.5" height="1.2" fill="#008300"/>
<rect x="532.4" y="308.6" width="7.5" height="9.0" fill="#008300"/>
<rect x="546.1" y="290.7" width="7.5" height="27.0" fill="none" stroke="#e34948" stroke-width="1.3"/>
<rect x="559.7" y="290.7" width="7.5" height="11.4" fill="#008300"/>
<rect x="573.4" y="302.1" width="7.5" height="3.3" fill="#008300"/>
<rect x="587.1" y="305.4" width="7.5" height="2.5" fill="#008300"/>
<rect x="600.7" y="307.8" width="7.5" height="10.6" fill="#008300"/>
<rect x="614.4" y="293.1" width="7.5" height="25.3" fill="none" stroke="#e34948" stroke-width="1.3"/>
<rect x="628.1" y="293.1" width="7.5" height="9.0" fill="#008300"/>
<rect x="641.7" y="302.1" width="7.5" height="8.2" fill="#008300"/>
<rect x="655.4" y="286.6" width="7.5" height="23.7" fill="none" stroke="#e34948" stroke-width="1.3"/>
<rect x="669.1" y="286.6" width="7.5" height="1.2" fill="#898781"/>
<rect x="682.7" y="286.6" width="7.5" height="22.1" fill="#008300"/>
<rect x="696.4" y="297.2" width="7.5" height="11.4" fill="none" stroke="#e34948" stroke-width="1.3"/>
<rect x="710.1" y="297.2" width="7.5" height="4.1" fill="#008300"/>
<rect x="723.7" y="301.3" width="7.5" height="32.7" fill="#008300"/>
<rect x="737.4" y="320.1" width="7.5" height="13.9" fill="none" stroke="#e34948" stroke-width="1.3"/>
<rect x="751.1" y="315.2" width="7.5" height="4.9" fill="none" stroke="#e34948" stroke-width="1.3"/>
<rect x="764.7" y="315.2" width="7.5" height="4.1" fill="#008300"/>
<rect x="778.4" y="296.4" width="7.5" height="22.9" fill="none" stroke="#e34948" stroke-width="1.3"/>
<rect x="792.1" y="296.4" width="7.5" height="2.5" fill="#008300"/>
<rect x="805.7" y="230.2" width="7.5" height="68.6" fill="none" stroke="#e34948" stroke-width="1.3"/>
<rect x="819.4" y="199.2" width="7.5" height="31.0" fill="none" stroke="#e34948" stroke-width="1.3"/>
<circle cx="823.2" cy="199.2" r="2" fill="#52514e"/>
<line x1="823.2" y1="199.2" x2="815.2" y2="199.2" stroke="#52514e" stroke-width="1.0"/>
<text x="812.2" y="203.2" font-size="11.0" fill="#52514e" text-anchor="end">192</text>
<circle cx="727.5" cy="333.9" r="2" fill="#52514e"/>
<line x1="727.5" y1="333.9" x2="719.5" y2="333.9" stroke="#52514e" stroke-width="1.0"/>
<text x="716.5" y="337.9" font-size="11.0" fill="#52514e" text-anchor="end">27</text>
<text x="14.0" y="376.0" font-size="11.0" fill="#52514e">VOL 10 forks</text>
<text x="96.6" y="376.0" font-size="11.0" fill="#eda100">MA5:6.6</text>
<text x="149.0" y="376.0" font-size="11.0" fill="#2a78d6">MA10:6</text>
<text x="14.0" y="395.0" font-size="10" fill="#898781">25</text>
<rect x="13.1" y="453.6" width="7.5" height="16.4" fill="#008300"/>
<rect x="26.7" y="427.4" width="7.5" height="42.6" fill="#008300"/>
<rect x="40.4" y="443.8" width="7.5" height="26.2" fill="#008300"/>
<rect x="54.1" y="443.8" width="7.5" height="26.2" fill="none" stroke="#e34948" stroke-width="1.1"/>
<rect x="67.7" y="433.9" width="7.5" height="36.1" fill="#008300"/>
<rect x="81.4" y="394.6" width="7.5" height="75.4" fill="none" stroke="#e34948" stroke-width="1.1"/>
<rect x="95.1" y="427.4" width="7.5" height="42.6" fill="#008300"/>
<rect x="108.7" y="433.9" width="7.5" height="36.1" fill="none" stroke="#e34948" stroke-width="1.1"/>
<rect x="122.4" y="443.8" width="7.5" height="26.2" fill="#008300"/>
<rect x="136.1" y="443.8" width="7.5" height="26.2" fill="#008300"/>
<rect x="149.7" y="453.6" width="7.5" height="16.4" fill="#008300"/>
<rect x="163.4" y="437.2" width="7.5" height="32.8" fill="#008300"/>
<rect x="177.1" y="447.0" width="7.5" height="23.0" fill="none" stroke="#e34948" stroke-width="1.1"/>
<rect x="190.7" y="433.9" width="7.5" height="36.1" fill="none" stroke="#e34948" stroke-width="1.1"/>
<rect x="204.4" y="437.2" width="7.5" height="32.8" fill="none" stroke="#e34948" stroke-width="1.1"/>
<rect x="218.1" y="443.8" width="7.5" height="26.2" fill="none" stroke="#e34948" stroke-width="1.1"/>
<rect x="231.7" y="420.8" width="7.5" height="49.2" fill="#008300"/>
<rect x="245.4" y="388.0" width="7.5" height="82.0" fill="none" stroke="#e34948" stroke-width="1.1"/>
<rect x="259.1" y="437.2" width="7.5" height="32.8" fill="#008300"/>
<rect x="272.7" y="427.4" width="7.5" height="42.6" fill="#008300"/>
<rect x="286.4" y="456.9" width="7.5" height="13.1" fill="#008300"/>
<rect x="300.1" y="414.2" width="7.5" height="55.8" fill="#008300"/>
<rect x="313.7" y="460.2" width="7.5" height="9.8" fill="none" stroke="#e34948" stroke-width="1.1"/>
<rect x="327.4" y="440.5" width="7.5" height="29.5" fill="#008300"/>
<rect x="341.1" y="424.1" width="7.5" height="45.9" fill="none" stroke="#e34948" stroke-width="1.1"/>
<rect x="354.7" y="420.8" width="7.5" height="49.2" fill="#008300"/>
<rect x="368.4" y="453.6" width="7.5" height="16.4" fill="#008300"/>
<rect x="382.1" y="453.6" width="7.5" height="16.4" fill="#008300"/>
<rect x="395.7" y="460.2" width="7.5" height="9.8" fill="none" stroke="#e34948" stroke-width="1.1"/>
<rect x="409.4" y="456.9" width="7.5" height="13.1" fill="none" stroke="#e34948" stroke-width="1.1"/>
<rect x="423.1" y="466.7" width="7.5" height="3.3" fill="#008300"/>
<rect x="436.7" y="453.6" width="7.5" height="16.4" fill="none" stroke="#e34948" stroke-width="1.1"/>
<rect x="450.4" y="430.6" width="7.5" height="39.4" fill="#008300"/>
<rect x="464.1" y="463.4" width="7.5" height="6.6" fill="#008300"/>
<rect x="477.7" y="443.8" width="7.5" height="26.2" fill="none" stroke="#e34948" stroke-width="1.1"/>
<rect x="491.4" y="460.2" width="7.5" height="9.8" fill="#008300"/>
<rect x="505.1" y="443.8" width="7.5" height="26.2" fill="none" stroke="#e34948" stroke-width="1.1"/>
<rect x="518.7" y="443.8" width="7.5" height="26.2" fill="#008300"/>
<rect x="532.4" y="460.2" width="7.5" height="9.8" fill="#008300"/>
<rect x="546.1" y="437.2" width="7.5" height="32.8" fill="none" stroke="#e34948" stroke-width="1.1"/>
<rect x="559.7" y="443.8" width="7.5" height="26.2" fill="#008300"/>
<rect x="573.4" y="453.6" width="7.5" height="16.4" fill="#008300"/>
<rect x="587.1" y="450.3" width="7.5" height="19.7" fill="#008300"/>
<rect x="600.7" y="443.8" width="7.5" height="26.2" fill="#008300"/>
<rect x="614.4" y="430.6" width="7.5" height="39.4" fill="none" stroke="#e34948" stroke-width="1.1"/>
<rect x="628.1" y="443.8" width="7.5" height="26.2" fill="#008300"/>
<rect x="641.7" y="460.2" width="7.5" height="9.8" fill="#008300"/>
<rect x="655.4" y="447.0" width="7.5" height="23.0" fill="none" stroke="#e34948" stroke-width="1.1"/>
<rect x="669.1" y="447.0" width="7.5" height="23.0" fill="#898781"/>
<rect x="682.7" y="450.3" width="7.5" height="19.7" fill="#008300"/>
<rect x="696.4" y="440.5" width="7.5" height="29.5" fill="none" stroke="#e34948" stroke-width="1.1"/>
<rect x="710.1" y="437.2" width="7.5" height="32.8" fill="#008300"/>
<rect x="723.7" y="456.9" width="7.5" height="13.1" fill="#008300"/>
<rect x="737.4" y="456.9" width="7.5" height="13.1" fill="none" stroke="#e34948" stroke-width="1.1"/>
<rect x="764.7" y="453.6" width="7.5" height="16.4" fill="#008300"/>
<rect x="778.4" y="460.2" width="7.5" height="9.8" fill="none" stroke="#e34948" stroke-width="1.1"/>
<rect x="792.1" y="456.9" width="7.5" height="13.1" fill="#008300"/>
<rect x="805.7" y="433.9" width="7.5" height="36.1" fill="none" stroke="#e34948" stroke-width="1.1"/>
<rect x="819.4" y="437.2" width="7.5" height="32.8" fill="none" stroke="#e34948" stroke-width="1.1"/>
<polyline points="16.8,432.0 30.5,436.2 44.2,437.5 57.8,438.2 71.5,437.5 85.2,432.9 98.8,432.6 112.5,434.9 126.2,434.2 139.8,434.6 153.5,434.6 167.2,435.6 180.8,435.9 194.5,434.9 208.2,435.2 221.8,440.2 235.5,439.5 249.2,434.9 262.8,434.2 276.5,432.6 290.2,432.9 303.8,430.6 317.5,432.0 331.2,432.6 344.8,431.3 358.5,429.0 372.2,432.3 385.8,438.8 399.5,441.1 413.2,444.1 426.8,445.1 440.5,449.0 454.2,446.1 467.8,448.4 481.5,450.3 495.2,454.3 508.8,453.3 522.5,452.3 536.2,452.3 549.8,450.3 563.5,448.0 577.2,448.0 590.8,450.0 604.5,448.0 618.2,446.7 631.8,445.1 645.5,446.7 659.2,447.0 672.8,445.7 686.5,447.0 700.2,446.7 713.8,445.1 727.5,445.7 741.2,447.0 754.8,451.0 768.5,452.0 782.2,452.0 795.8,452.9 809.5,451.6 823.2,450.3" fill="none" stroke="#2a78d6" stroke-width="1.5" stroke-linejoin="round" stroke-linecap="round"/>
<polyline points="16.8,437.2 30.5,436.5 44.2,443.1 57.8,441.8 71.5,440.5 85.2,428.7 98.8,428.7 112.5,426.7 126.2,426.7 139.8,428.7 153.5,440.5 167.2,442.4 180.8,445.1 194.5,443.1 208.2,441.8 221.8,439.8 235.5,436.5 249.2,424.7 262.8,425.4 276.5,423.4 290.2,426.0 303.8,424.7 317.5,439.2 331.2,439.8 344.8,439.2 358.5,432.0 372.2,439.8 385.8,438.5 399.5,442.4 413.2,449.0 426.8,458.2 440.5,458.2 454.2,453.6 467.8,454.3 481.5,451.6 495.2,450.3 508.8,448.4 522.5,451.0 536.2,450.3 549.8,449.0 563.5,445.7 577.2,447.7 590.8,449.0 604.5,445.7 618.2,444.4 631.8,444.4 645.5,445.7 659.2,445.1 672.8,445.7 686.5,449.7 700.2,449.0 713.8,444.4 727.5,446.4 741.2,448.4 754.8,452.3 768.5,454.9 782.2,459.5 795.8,459.5 809.5,454.9 823.2,448.4" fill="none" stroke="#eda100" stroke-width="1.5" stroke-linejoin="round" stroke-linecap="round"/>
</svg>