<svg xmlns="http://www.w3.org/2000/svg" viewBox="0 0 840 496" width="840" height="496" font-family="-apple-system,&#39;Segoe UI&#39;,system-ui,sans-serif" role="img" aria-label="EbookFoundation/free-programming-books candlestick chart">
<text x="14.0" y="20.0" font-size="15" fill="#ffffff" font-weight="650">EbookFoundation/free-programming-books</text>
<text x="331.5" y="20.0" font-size="11.5" fill="#c3c2b7">daily · new stars, volume = new forks</text>
<text x="805.8" y="20.0" font-size="11.0" fill="#c3c2b7">fall</text>
<rect x="791" y="10" width="9" height="12" fill="#008300"/>
<text x="750.6" y="20.0" font-size="11.0" fill="#c3c2b7">rise</text>
<rect x="736" y="10" width="9" height="12" fill="none" stroke="#e66767" stroke-width="1.5"/>
<text x="14.0" y="38.0" font-size="11.0" fill="#898781">last 60 days · +4,558 stars · +481 forks · updated 2026-07-16</text>
<rect x="10" y="66" width="820" height="290" fill="none" stroke="#2c2c2a"/>
<rect x="10" y="384" width="820" height="86" fill="none" stroke="#2c2c2a"/>
<text x="38.0" y="490.0" font-size="11.0" fill="#898781" text-anchor="middle">2026-05</text>
<line x1="201.3" y1="66.0" x2="201.3" y2="356.0" stroke="#2c2c2a" stroke-width="1.0"/>
<line x1="201.3" y1="384.0" x2="201.3" y2="470.0" stroke="#2c2c2a" stroke-width="1.0"/>
<text x="208.2" y="490.0" font-size="11.0" fill="#898781" text-anchor="middle">2026-06</text>
<line x1="611.3" y1="66.0" x2="611.3" y2="356.0" stroke="#2c2c2a" stroke-width="1.0"/>
<line x1="611.3" y1="384.0" x2="611.3" y2="470.0" stroke="#2c2c2a" stroke-width="1.0"/>
<text x="618.2" y="490.0" font-size="11.0" fill="#898781" text-anchor="middle">2026-07</text>
<text x="14.0" y="58.0" font-size="11.0" fill="#c3c2b7">BOLL(20,2)</text>
<text x="84.5" y="58.0" font-size="11.0" fill="#c98500">UP:149.5</text>
<text x="142.9" y="58.0" font-size="11.0" fill="#3987e5">MID:75.5</text>
<text x="201.3" y="58.0" font-size="11.0" fill="#d55181">LOW:1.4</text>
<text x="253.7" y="58.0" font-size="11.0" fill="#9085e9">MA7:102.4</text>
<line x1="10.0" y1="356.0" x2="830.0" y2="356.0" stroke="#2c2c2a" stroke-width="1.0"/>
<text x="14.0" y="353.0" font-size="11.0" fill="#898781">0</text>
<line x1="10.0" y1="274.3" x2="830.0" y2="274.3" stroke="#2c2c2a" stroke-width="1.0"/>
<text x="14.0" y="271.3" font-size="11.0" fill="#898781">100</text>
<line x1="10.0" y1="192.7" x2="830.0" y2="192.7" stroke="#2c2c2a" stroke-width="1.0"/>
<text x="14.0" y="189.7" font-size="11.0" fill="#898781">200</text>
<line x1="10.0" y1="111.0" x2="830.0" y2="111.0" stroke="#2c2c2a" stroke-width="1.0"/>
<text x="14.0" y="108.0" font-size="11.0" fill="#898781">300</text>
<polyline points="16.8,79.8 30.5,209.0 44.2,271.0 57.8,271.6 71.5,271.7 85.2,266.9 98.8,266.3 112.5,265.5 126.2,265.5 139.8,266.7 153.5,266.9 167.2,266.9 180.8,266.6 194.5,265.6 208.2,264.6 221.8,246.3 235.5,244.6 249.2,244.5 262.8,244.5 276.5,244.3 290.2,244.7 303.8,245.5 317.5,243.0 331.2,243.0 344.8,242.7 358.5,244.8 372.2,246.6 385.8,247.2 399.5,247.2 413.2,247.2 426.8,247.1 440.5,246.9 454.2,247.3 467.8,247.8 481.5,248.8 495.2,270.3 508.8,275.2 522.5,276.4 536.2,276.6 549.8,276.7 563.5,277.2 577.2,277.1 590.8,285.2 604.5,286.2 618.2,286.1 631.8,283.8 645.5,281.8 659.2,282.8 672.8,282.9 686.5,284.6 700.2,282.9 713.8,282.6 727.5,282.9 741.2,282.8 754.8,281.8 768.5,281.1 782.2,260.9 795.8,236.6 809.5,234.9 823.2,233.9" fill="none" stroke="#c98500" stroke-width="1.5" stroke-linejoin="round" stroke-linecap="round"/>
<polyline points="16.8,264.8 30.5,283.9 44.2,292.7 57.8,292.3 71.5,292.8 85.2,291.4 98.8,291.3 112.5,290.7 126.2,291.4 139.8,293.0 153.5,292.7 167.2,292.6 180.8,292.5 194.5,292.0 208.2,291.2 221.8,288.2 235.5,287.4 249.2,287.4 262.8,287.2 276.5,287.5 290.2,286.7 303.8,287.6 317.5,285.6 331.2,285.3 344.8,285.6 358.5,288.0 372.2,289.5 385.8,290.0 399.5,289.6 413.2,288.5 426.8,288.0 440.5,288.6 454.2,289.4 467.8,291.2 481.5,292.5 495.2,297.1 508.8,299.6 522.5,300.0 536.2,300.2 549.8,300.0 563.5,300.7 577.2,301.7 590.8,303.2 604.5,303.6 618.2,303.7 631.8,302.4 645.5,301.7 659.2,302.5 672.8,302.5 686.5,303.2 700.2,305.2 713.8,305.8 727.5,306.4 741.2,306.6 754.8,306.1 768.5,305.6 782.2,301.2 795.8,296.6 809.5,295.4 823.2,294.4" fill="none" stroke="#3987e5" stroke-width="1.5" stroke-linejoin="round" stroke-linecap="round"/>
<polyline points="16.8,356.0 30.5,356.0 44.2,314.5 57.8,312.9 71.5,314.0 85.2,315.9 98.8,316.3 112.5,315.9 126.2,317.2 139.8,319.3 153.5,318.5 167.2,318.4 180.8,318.4 194.5,318.3 208.2,317.9 221.8,330.1 235.5,330.3 249.2,330.3 262.8,329.9 276.5,330.6 290.2,328.7 303.8,329.7 317.5,328.2 331.2,327.7 344.8,328.5 358.5,331.2 372.2,332.3 385.8,332.7 399.5,331.9 413.2,329.7 426.8,329.0 440.5,330.2 454.2,331.5 467.8,334.5 481.5,336.1 495.2,323.8 508.8,324.0 522.5,323.6 536.2,323.8 549.8,323.3 563.5,324.1 577.2,326.3 590.8,321.1 604.5,321.1 618.2,321.2 631.8,321.1 645.5,321.6 659.2,322.1 672.8,322.1 686.5,321.7 700.2,327.5 713.8,329.0 727.5,329.9 741.2,330.5 754.8,330.3 768.5,330.0 782.2,341.5 795.8,356.0 809.5,355.9 823.2,354.9" fill="none" stroke="#d55181" stroke-width="1.5" stroke-linejoin="round" stroke-linecap="round"/>
<polyline points="16.8,293.6 30.5,291.2 44.2,295.0 57.8,297.4 71.5,300.1 85.2,295.0 98.8,290.2 112.5,286.3 126.2,289.9 139.8,290.9 153.5,291.2 167.2,290.3 180.8,293.4 194.5,294.7 208.2,294.5 221.8,281.9 235.5,275.7 249.2,273.2 262.8,273.2 276.5,276.5 290.2,278.5 303.8,280.8 317.5,287.5 331.2,291.4 344.8,295.0 358.5,297.1 372.2,295.9 385.8,295.6 399.5,295.6 413.2,299.1 426.8,298.9 440.5,298.8 454.2,297.5 467.8,299.6 481.5,301.6 495.2,303.4 508.8,307.6 522.5,307.2 536.2,306.4 549.8,306.8 563.5,305.7 577.2,307.2 590.8,305.0 604.5,302.8 618.2,305.6 631.8,303.4 645.5,300.7 659.2,300.8 672.8,297.8 686.5,298.9 700.2,303.5 713.8,304.9 727.5,309.0 741.2,313.6 754.8,311.9 768.5,312.1 782.2,302.0 795.8,282.7 809.5,276.7 823.2,272.4" fill="none" stroke="#9085e9" stroke-width="1.5" stroke-linejoin="round" stroke-linecap="round"/>
<rect x="13.1" y="304.5" width="7.5" height="5.7" fill="#008300"/>
<rect x="26.7" y="279.2" width="7.5" height="31.0" fill="none" stroke="#e66767" stroke-width="1.3"/>
<rect x="40.4" y="279.2" width="7.5" height="24.5" fill="#008300"/>
<rect x="54.1" y="299.6" width="7.5" height="4.1" fill="none" stroke="#e66767" stroke-width="1.3"/>
<rect x="67.7" y="299.6" width="7.5" height="3.3" fill="#008300"/>
<rect x="81.4" y="264.5" width="7.5" height="38.4" fill="none" stroke="#e66767" stroke-width="1.3"/>
<rect x="95.1" y="264.5" width="7.5" height="6.5" fill="#008300"/>
<rect x="108.7" y="271.1" width="7.5" height="12.3" fill="#008300"/>
<rect x="122.4" y="283.3" width="7.5" height="21.2" fill="#008300"/>
<rect x="136.1" y="304.5" width="7.5" height="5.7" fill="#008300"/>
<rect x="149.7" y="301.3" width="7.5" height="9.0" fill="none" stroke="#e66767" stroke-width="1.3"/>
<rect x="163.4" y="297.2" width="7.5" height="4.1" fill="none" stroke="#e66767" stroke-width="1.3"/>
<rect x="177.1" y="285.8" width="7.5" height="11.4" fill="none" stroke="#e66767" stroke-width="1.3"/>
<rect x="190.7" y="280.9" width="7.5" height="4.9" fill="none" stroke="#e66767" stroke-width="1.3"/>
<rect x="204.4" y="280.9" width="7.5" height="1.2" fill="#008300"/>
<rect x="218.1" y="216.3" width="7.5" height="65.3" fill="none" stroke="#e66767" stroke-width="1.3"/>
<rect x="231.7" y="216.3" width="7.5" height="50.6" fill="#008300"/>
<rect x="245.4" y="267.0" width="7.5" height="16.3" fill="#008300"/>
<rect x="259.1" y="283.3" width="7.5" height="13.9" fill="#008300"/>
<rect x="272.7" y="297.2" width="7.5" height="12.3" fill="#008300"/>
<rect x="286.4" y="294.7" width="7.5" height="14.7" fill="none" stroke="#e66767" stroke-width="1.3"/>
<rect x="300.1" y="294.7" width="7.5" height="2.5" fill="#008300"/>
<rect x="313.7" y="263.7" width="7.5" height="33.5" fill="none" stroke="#e66767" stroke-width="1.3"/>
<rect x="327.4" y="263.7" width="7.5" height="30.2" fill="#008300"/>
<rect x="341.1" y="293.9" width="7.5" height="14.7" fill="#008300"/>
<rect x="354.7" y="308.6" width="7.5" height="3.3" fill="#008300"/>
<rect x="368.4" y="301.3" width="7.5" height="10.6" fill="none" stroke="#e66767" stroke-width="1.3"/>
<rect x="382.1" y="293.1" width="7.5" height="8.2" fill="none" stroke="#e66767" stroke-width="1.3"/>
<rect x="395.7" y="293.1" width="7.5" height="3.3" fill="#008300"/>
<rect x="409.4" y="288.2" width="7.5" height="8.2" fill="none" stroke="#e66767" stroke-width="1.3"/>
<rect x="423.1" y="288.2" width="7.5" height="4.9" fill="#008300"/>
<rect x="436.7" y="293.1" width="7.5" height="14.7" fill="#008300"/>
<rect x="450.4" y="302.9" width="7.5" height="4.9" fill="none" stroke="#e66767" stroke-width="1.3"/>
<rect x="464.1" y="302.9" width="7.5" height="12.3" fill="#008300"/>
<rect x="477.7" y="307.8" width="7.5" height="7.4" fill="none" stroke="#e66767" stroke-width="1.3"/>
<rect x="491.4" y="307.8" width="7.5" height="1.2" fill="#008300"/>
<rect x="505.1" y="308.6" width="7.5" height="9.0" fill="#008300"/>
<rect x="518.7" y="290.7" width="7.5" height="27.0" fill="none" stroke="#e66767" stroke-width="1.3"/>
<rect x="532.4" y="290.7" width="7.5" height="11.4" fill="#008300"/>
<rect x="546.1" y="302.1" width="7.5" height="3.3" fill="#008300"/>
<rect x="559.7" y="305.4" width="7.5" height="2.5" fill="#008300"/>
<rect x="573.4" y="307.8" width="7.5" height="10.6" fill="#008300"/>
<rect x="587.1" y="293.1" width="7.5" height="25.3" fill="none" stroke="#e66767" stroke-width="1.3"/>
<rect x="600.7" y="293.1" width="7.5" height="9.0" fill="#008300"/>
<rect x="614.4" y="302.1" width="7.5" height="8.2" fill="#008300"/>
<rect x="628.1" y="286.6" width="7.5" height="23.7" fill="none" stroke="#e66767" stroke-width="1.3"/>
<rect x="641.7" y="286.6" width="7.5" height="1.2" fill="#898781"/>
<rect x="655.4" y="286.6" width="7.5" height="22.1" fill="#008300"/>
<rect x="669.1" y="297.2" width="7.5" height="11.4" fill="none" stroke="#e66767" stroke-width="1.3"/>
<rect x="682.7" y="297.2" width="7.5" height="4.1" fill="#008300"/>
<rect x="696.4" y="301.3" width="7.5" height="32.7" fill="#008300"/>
<rect x="710.1" y="320.1" width="7.5" height="13.9" fill="none" stroke="#e66767" stroke-width="1.3"/>
<rect x="723.7" y="315.2" width="7.5" height="4.9" fill="none" stroke="#e66767" stroke-width="1.3"/>
<rect x="737.4" y="315.2" width="7.5" height="4.1" fill="#008300"/>
<rect x="751.1" y="296.4" width="7.5" height="22.9" fill="none" stroke="#e66767" stroke-width="1.3"/>
<rect x="764.7" y="296.4" width="7.5" height="2.5" fill="#008300"/>
<rect x="778.4" y="230.2" width="7.5" height="68.6" fill="none" stroke="#e66767" stroke-width="1.3"/>
<rect x="792.1" y="199.2" width="7.5" height="31.0" fill="none" stroke="#e66767" stroke-width="1.3"/>
<rect x="805.7" y="199.2" width="7.5" height="78.4" fill="#008300"/>
<rect x="819.4" y="277.6" width="7.5" height="7.4" fill="#008300"/>
<circle cx="795.8" cy="199.2" r="2" fill="#c3c2b7"/>
<line x1="795.8" y1="199.2" x2="787.8" y2="199.2" stroke="#c3c2b7" stroke-width="1.0"/>
<text x="784.8" y="203.2" font-size="11.0" fill="#c3c2b7" text-anchor="end">192</text>
<circle cx="700.2" cy="333.9" r="2" fill="#c3c2b7"/>
<line x1="700.2" y1="333.9" x2="692.2" y2="333.9" stroke="#c3c2b7" stroke-width="1.0"/>
<text x="689.2" y="337.9" font-size="11.0" fill="#c3c2b7" text-anchor="end">27</text>
<text x="14.0" y="376.0" font-size="11.0" fill="#c3c2b7">VOL 4 forks</text>
<text x="90.6" y="376.0" font-size="11.0" fill="#c98500">MA5:6.6</text>
<text x="142.9" y="376.0" font-size="11.0" fill="#3987e5">MA10:4.9</text>
<text x="14.0" y="395.0" font-size="10" fill="#898781">25</text>
<rect x="13.1" y="443.8" width="7.5" height="26.2" fill="#008300"/>
<rect x="26.7" y="443.8" width="7.5" height="26.2" fill="none" stroke="#e66767" stroke-width="1.1"/>
<rect x="40.4" y="433.9" width="7.5" height="36.1" fill="#008300"/>
<rect x="54.1" y="394.6" width="7.5" height="75.4" fill="none" stroke="#e66767" stroke-width="1.1"/>
<rect x="67.7" y="427.4" width="7.5" height="42.6" fill="#008300"/>
<rect x="81.4" y="433.9" width="7.5" height="36.1" fill="none" stroke="#e66767" stroke-width="1.1"/>
<rect x="95.1" y="443.8" width="7.5" height="26.2" fill="#008300"/>
<rect x="108.7" y="443.8" width="7.5" height="26.2" fill="#008300"/>
<rect x="122.4" y="453.6" width="7.5" height="16.4" fill="#008300"/>
<rect x="136.1" y="437.2" width="7.5" height="32.8" fill="#008300"/>
<rect x="149.7" y="447.0" width="7.5" height="23.0" fill="none" stroke="#e66767" stroke-width="1.1"/>
<rect x="163.4" y="433.9" width="7.5" height="36.1" fill="none" stroke="#e66767" stroke-width="1.1"/>
<rect x="177.1" y="437.2" width="7.5" height="32.8" fill="none" stroke="#e66767" stroke-width="1.1"/>
<rect x="190.7" y="443.8" width="7.5" height="26.2" fill="none" stroke="#e66767" stroke-width="1.1"/>
<rect x="204.4" y="420.8" width="7.5" height="49.2" fill="#008300"/>
<rect x="218.1" y="388.0" width="7.5" height="82.0" fill="none" stroke="#e66767" stroke-width="1.1"/>
<rect x="231.7" y="437.2" width="7.5" height="32.8" fill="#008300"/>
<rect x="245.4" y="427.4" width="7.5" height="42.6" fill="#008300"/>
<rect x="259.1" y="456.9" width="7.5" height="13.1" fill="#008300"/>
<rect x="272.7" y="414.2" width="7.5" height="55.8" fill="#008300"/>
<rect x="286.4" y="460.2" width="7.5" height="9.8" fill="none" stroke="#e66767" stroke-width="1.1"/>
<rect x="300.1" y="440.5" width="7.5" height="29.5" fill="#008300"/>
<rect x="313.7" y="424.1" width="7.5" height="45.9" fill="none" stroke="#e66767" stroke-width="1.1"/>
<rect x="327.4" y="420.8" width="7.5" height="49.2" fill="#008300"/>
<rect x="341.1" y="453.6" width="7.5" height="16.4" fill="#008300"/>
<rect x="354.7" y="453.6" width="7.5" height="16.4" fill="#008300"/>
<rect x="368.4" y="460.2" width="7.5" height="9.8" fill="none" stroke="#e66767" stroke-width="1.1"/>
<rect x="382.1" y="456.9" width="7.5" height="13.1" fill="none" stroke="#e66767" stroke-width="1.1"/>
<rect x="395.7" y="466.7" width="7.5" height="3.3" fill="#008300"/>
<rect x="409.4" y="453.6" width="7.5" height="16.4" fill="none" stroke="#e66767" stroke-width="1.1"/>
<rect x="423.1" y="430.6" width="7.5" height="39.4" fill="#008300"/>
<rect x="436.7" y="463.4" width="7.5" height="6.6" fill="#008300"/>
<rect x="450.4" y="443.8" width="7.5" height="26.2" fill="none" stroke="#e66767" stroke-width="1.1"/>
<rect x="464.1" y="460.2" width="7.5" height="9.8" fill="#008300"/>
<rect x="477.7" y="443.8" width="7.5" height="26.2" fill="none" stroke="#e66767" stroke-width="1.1"/>
<rect x="491.4" y="443.8" width="7.5" height="26.2" fill="#008300"/>
<rect x="505.1" y="460.2" width="7.5" height="9.8" fill="#008300"/>
<rect x="518.7" y="437.2" width="7.5" height="32.8" fill="none" stroke="#e66767" stroke-width="1.1"/>
<rect x="532.4" y="443.8" width="7.5" height="26.2" fill="#008300"/>
<rect x="546.1" y="453.6" width="7.5" height="16.4" fill="#008300"/>
<rect x="559.7" y="450.3" width="7.5" height="19.7" fill="#008300"/>
<rect x="573.4" y="443.8" width="7.5" height="26.2" fill="#008300"/>
<rect x="587.1" y="430.6" width="7.5" height="39.4" fill="none" stroke="#e66767" stroke-width="1.1"/>
<rect x="600.7" y="443.8" width="7.5" height="26.2" fill="#008300"/>
<rect x="614.4" y="460.2" width="7.5" height="9.8" fill="#008300"/>
<rect x="628.1" y="447.0" width="7.5" height="23.0" fill="none" stroke="#e66767" stroke-width="1.1"/>
<rect x="641.7" y="447.0" width="7.5" height="23.0" fill="#898781"/>
<rect x="655.4" y="450.3" width="7.5" height="19.7" fill="#008300"/>
<rect x="669.1" y="440.5" width="7.5" height="29.5" fill="none" stroke="#e66767" stroke-width="1.1"/>
<rect x="682.7" y="437.2" width="7.5" height="32.8" fill="#008300"/>
<rect x="696.4" y="456.9" width="7.5" height="13.1" fill="#008300"/>
<rect x="710.1" y="456.9" width="7.5" height="13.1" fill="none" stroke="#e66767" stroke-width="1.1"/>
<rect x="737.4" y="453.6" width="7.5" height="16.4" fill="#008300"/>
<rect x="751.1" y="460.2" width="7.5" height="9.8" fill="none" stroke="#e66767" stroke-width="1.1"/>
<rect x="764.7" y="456.9" width="7.5" height="13.1" fill="#008300"/>
<rect x="778.4" y="433.9" width="7.5" height="36.1" fill="none" stroke="#e66767" stroke-width="1.1"/>
<rect x="792.1" y="437.2" width="7.5" height="32.8" fill="none" stroke="#e66767" stroke-width="1.1"/>
<rect x="805.7" y="456.9" width="7.5" height="13.1" fill="#008300"/>
<rect x="819.4" y="456.9" width="7.5" height="13.1" fill="#008300"/>
<polyline points="16.8,437.5 30.5,438.2 44.2,437.5 57.8,432.9 71.5,432.6 85.2,434.9 98.8,434.2 112.5,434.6 126.2,434.6 139.8,435.6 153.5,435.9 167.2,434.9 180.8,435.2 194.5,440.2 208.2,439.5 221.8,434.9 235.5,434.2 249.2,432.6 262.8,432.9 276.5,430.6 290.2,432.0 303.8,432.6 317.5,431.3 331.2,429.0 344.8,432.3 358.5,438.8 372.2,441.1 385.8,444.1 399.5,445.1 413.2,449.0 426.8,446.1 440.5,448.4 454.2,450.3 467.8,454.3 481.5,453.3 495.2,452.3 508.8,452.3 522.5,450.3 536.2,448.0 549.8,448.0 563.5,450.0 577.2,448.0 590.8,446.7 604.5,445.1 618.2,446.7 631.8,447.0 645.5,445.7 659.2,447.0 672.8,446.7 686.5,445.1 700.2,445.7 713.8,447.0 727.5,451.0 741.2,452.0 754.8,452.0 768.5,452.9 782.2,451.6 795.8,450.3 809.5,452.0 823.2,453.9" fill="none" stroke="#3987e5" stroke-width="1.5" stroke-linejoin="round" stroke-linecap="round"/>
<polyline points="16.8,443.1 30.5,441.8 44.2,440.5 57.8,428.7 71.5,428.7 85.2,426.7 98.8,426.7 112.5,428.7 126.2,440.5 139.8,442.4 153.5,445.1 167.2,443.1 180.8,441.8 194.5,439.8 208.2,436.5 221.8,424.7 235.5,425.4 249.2,423.4 262.8,426.0 276.5,424.7 290.2,439.2 303.8,439.8 317.5,439.2 331.2,432.0 344.8,439.8 358.5,438.5 372.2,442.4 385.8,449.0 399.5,458.2 413.2,458.2 426.8,453.6 440.5,454.3 454.2,451.6 467.8,450.3 481.5,448.4 495.2,451.0 508.8,450.3 522.5,449.0 536.2,445.7 549.8,447.7 563.5,449.0 577.2,445.7 590.8,444.4 604.5,444.4 618.2,445.7 631.8,445.1 645.5,445.7 659.2,449.7 672.8,449.0 686.5,444.4 700.2,446.4 713.8,448.4 727.5,452.3 741.2,454.9 754.8,459.5 768.5,459.5 782.2,454.9 795.8,448.4 809.5,449.0 823.2,448.4" fill="none" stroke="#c98500" stroke-width="1.5" stroke-linejoin="round" stroke-linecap="round"/>
</svg>