<svg xmlns="http://www.w3.org/2000/svg" viewBox="0 0 840 496" width="840" height="496" font-family="-apple-system,&#39;Segoe UI&#39;,system-ui,sans-serif" role="img" aria-label="EbookFoundation/free-programming-books candlestick chart">
<text x="14.0" y="20.0" font-size="15" fill="#ffffff" font-weight="650">EbookFoundation/free-programming-books</text>
<text x="331.5" y="20.0" font-size="11.5" fill="#c3c2b7">daily · new stars, volume = new forks</text>
<text x="805.8" y="20.0" font-size="11.0" fill="#c3c2b7">fall</text>
<rect x="791" y="10" width="9" height="12" fill="#008300"/>
<text x="750.6" y="20.0" font-size="11.0" fill="#c3c2b7">rise</text>
<rect x="736" y="10" width="9" height="12" fill="none" stroke="#e66767" stroke-width="1.5"/>
<text x="14.0" y="38.0" font-size="11.0" fill="#898781">last 60 days · +4,338 stars · +485 forks · updated 2026-07-12</text>
<rect x="10" y="66" width="820" height="290" fill="none" stroke="#2c2c2a"/>
<rect x="10" y="384" width="820" height="86" fill="none" stroke="#2c2c2a"/>
<text x="38.0" y="490.0" font-size="11.0" fill="#898781" text-anchor="middle">2026-05</text>
<line x1="256.0" y1="66.0" x2="256.0" y2="356.0" stroke="#2c2c2a" stroke-width="1.0"/>
<line x1="256.0" y1="384.0" x2="256.0" y2="470.0" stroke="#2c2c2a" stroke-width="1.0"/>
<text x="262.8" y="490.0" font-size="11.0" fill="#898781" text-anchor="middle">2026-06</text>
<line x1="666.0" y1="66.0" x2="666.0" y2="356.0" stroke="#2c2c2a" stroke-width="1.0"/>
<line x1="666.0" y1="384.0" x2="666.0" y2="470.0" stroke="#2c2c2a" stroke-width="1.0"/>
<text x="672.8" y="490.0" font-size="11.0" fill="#898781" text-anchor="middle">2026-07</text>
<text x="14.0" y="58.0" font-size="11.0" fill="#c3c2b7">BOLL(20,2)</text>
<text x="84.5" y="58.0" font-size="11.0" fill="#c98500">UP:91.7</text>
<text x="136.9" y="58.0" font-size="11.0" fill="#3987e5">MID:61.8</text>
<text x="195.3" y="58.0" font-size="11.0" fill="#d55181">LOW:31.8</text>
<text x="253.7" y="58.0" font-size="11.0" fill="#9085e9">MA7:53.7</text>
<line x1="10.0" y1="356.0" x2="830.0" y2="356.0" stroke="#2c2c2a" stroke-width="1.0"/>
<text x="14.0" y="353.0" font-size="11.0" fill="#898781">0</text>
<line x1="10.0" y1="274.3" x2="830.0" y2="274.3" stroke="#2c2c2a" stroke-width="1.0"/>
<text x="14.0" y="271.3" font-size="11.0" fill="#898781">100</text>
<line x1="10.0" y1="192.7" x2="830.0" y2="192.7" stroke="#2c2c2a" stroke-width="1.0"/>
<text x="14.0" y="189.7" font-size="11.0" fill="#898781">200</text>
<line x1="10.0" y1="111.0" x2="830.0" y2="111.0" stroke="#2c2c2a" stroke-width="1.0"/>
<text x="14.0" y="108.0" font-size="11.0" fill="#898781">300</text>
<polyline points="71.5,79.8 85.2,209.0 98.8,271.0 112.5,271.6 126.2,271.7 139.8,266.9 153.5,266.3 167.2,265.5 180.8,265.5 194.5,266.7 208.2,266.9 221.8,266.9 235.5,266.6 249.2,265.6 262.8,264.6 276.5,246.3 290.2,244.6 303.8,244.5 317.5,244.5 331.2,244.3 344.8,244.7 358.5,245.5 372.2,243.0 385.8,243.0 399.5,242.7 413.2,244.8 426.8,246.6 440.5,247.2 454.2,247.2 467.8,247.2 481.5,247.1 495.2,246.9 508.8,247.3 522.5,247.8 536.2,248.8 549.8,270.3 563.5,275.2 577.2,276.4 590.8,276.6 604.5,276.7 618.2,277.2 631.8,277.1 645.5,285.2 659.2,286.2 672.8,286.1 686.5,283.8 700.2,281.8 713.8,282.8 727.5,282.9 741.2,284.6 754.8,282.9 768.5,282.6 782.2,282.9 795.8,282.8 809.5,281.8 823.2,281.1" fill="none" stroke="#c98500" stroke-width="1.5" stroke-linejoin="round" stroke-linecap="round"/>
<polyline points="71.5,264.8 85.2,283.9 98.8,292.7 112.5,292.3 126.2,292.8 139.8,291.4 153.5,291.3 167.2,290.7 180.8,291.4 194.5,293.0 208.2,292.7 221.8,292.6 235.5,292.5 249.2,292.0 262.8,291.2 276.5,288.2 290.2,287.4 303.8,287.4 317.5,287.2 331.2,287.5 344.8,286.7 358.5,287.6 372.2,285.6 385.8,285.3 399.5,285.6 413.2,288.0 426.8,289.5 440.5,290.0 454.2,289.6 467.8,288.5 481.5,288.0 495.2,288.6 508.8,289.4 522.5,291.2 536.2,292.5 549.8,297.1 563.5,299.6 577.2,300.0 590.8,300.2 604.5,300.0 618.2,300.7 631.8,301.7 645.5,303.2 659.2,303.6 672.8,303.7 686.5,302.4 700.2,301.7 713.8,302.5 727.5,302.5 741.2,303.2 754.8,305.2 768.5,305.8 782.2,306.4 795.8,306.6 809.5,306.1 823.2,305.6" fill="none" stroke="#3987e5" stroke-width="1.5" stroke-linejoin="round" stroke-linecap="round"/>
<polyline points="71.5,356.0 85.2,356.0 98.8,314.5 112.5,312.9 126.2,314.0 139.8,315.9 153.5,316.3 167.2,315.9 180.8,317.2 194.5,319.3 208.2,318.5 221.8,318.4 235.5,318.4 249.2,318.3 262.8,317.9 276.5,330.1 290.2,330.3 303.8,330.3 317.5,329.9 331.2,330.6 344.8,328.7 358.5,329.7 372.2,328.2 385.8,327.7 399.5,328.5 413.2,331.2 426.8,332.3 440.5,332.7 454.2,331.9 467.8,329.7 481.5,329.0 495.2,330.2 508.8,331.5 522.5,334.5 536.2,336.1 549.8,323.8 563.5,324.0 577.2,323.6 590.8,323.8 604.5,323.3 618.2,324.1 631.8,326.3 645.5,321.1 659.2,321.1 672.8,321.2 686.5,321.1 700.2,321.6 713.8,322.1 727.5,322.1 741.2,321.7 754.8,327.5 768.5,329.0 782.2,329.9 795.8,330.5 809.5,330.3 823.2,330.0" fill="none" stroke="#d55181" stroke-width="1.5" stroke-linejoin="round" stroke-linecap="round"/>
<polyline points="16.8,291.6 30.5,288.3 44.2,288.5 57.8,290.7 71.5,293.6 85.2,291.2 98.8,295.0 112.5,297.4 126.2,300.1 139.8,295.0 153.5,290.2 167.2,286.3 180.8,289.9 194.5,290.9 208.2,291.2 221.8,290.3 235.5,293.4 249.2,294.7 262.8,294.5 276.5,281.9 290.2,275.7 303.8,273.2 317.5,273.2 331.2,276.5 344.8,278.5 358.5,280.8 372.2,287.5 385.8,291.4 399.5,295.0 413.2,297.1 426.8,295.9 440.5,295.6 454.2,295.6 467.8,299.1 481.5,298.9 495.2,298.8 508.8,297.5 522.5,299.6 536.2,301.6 549.8,303.4 563.5,307.6 577.2,307.2 590.8,306.4 604.5,306.8 618.2,305.7 631.8,307.2 645.5,305.0 659.2,302.8 672.8,305.6 686.5,303.4 700.2,300.7 713.8,300.8 727.5,297.8 741.2,298.9 754.8,303.5 768.5,304.9 782.2,309.0 795.8,313.6 809.5,311.9 823.2,312.1" fill="none" stroke="#9085e9" stroke-width="1.5" stroke-linejoin="round" stroke-linecap="round"/>
<rect x="13.1" y="276.8" width="7.5" height="5.7" fill="#008300"/>
<rect x="26.7" y="282.5" width="7.5" height="1.6" fill="#008300"/>
<rect x="40.4" y="284.1" width="7.5" height="16.3" fill="#008300"/>
<rect x="54.1" y="300.5" width="7.5" height="4.1" fill="#008300"/>
<rect x="67.7" y="304.5" width="7.5" height="5.7" fill="#008300"/>
<rect x="81.4" y="279.2" width="7.5" height="31.0" fill="none" stroke="#e66767" stroke-width="1.3"/>
<rect x="95.1" y="279.2" width="7.5" height="24.5" fill="#008300"/>
<rect x="108.7" y="299.6" width="7.5" height="4.1" fill="none" stroke="#e66767" stroke-width="1.3"/>
<rect x="122.4" y="299.6" width="7.5" height="3.3" fill="#008300"/>
<rect x="136.1" y="264.5" width="7.5" height="38.4" fill="none" stroke="#e66767" stroke-width="1.3"/>
<rect x="149.7" y="264.5" width="7.5" height="6.5" fill="#008300"/>
<rect x="163.4" y="271.1" width="7.5" height="12.3" fill="#008300"/>
<rect x="177.1" y="283.3" width="7.5" height="21.2" fill="#008300"/>
<rect x="190.7" y="304.5" width="7.5" height="5.7" fill="#008300"/>
<rect x="204.4" y="301.3" width="7.5" height="9.0" fill="none" stroke="#e66767" stroke-width="1.3"/>
<rect x="218.1" y="297.2" width="7.5" height="4.1" fill="none" stroke="#e66767" stroke-width="1.3"/>
<rect x="231.7" y="285.8" width="7.5" height="11.4" fill="none" stroke="#e66767" stroke-width="1.3"/>
<rect x="245.4" y="280.9" width="7.5" height="4.9" fill="none" stroke="#e66767" stroke-width="1.3"/>
<rect x="259.1" y="280.9" width="7.5" height="1.2" fill="#008300"/>
<rect x="272.7" y="216.3" width="7.5" height="65.3" fill="none" stroke="#e66767" stroke-width="1.3"/>
<rect x="286.4" y="216.3" width="7.5" height="50.6" fill="#008300"/>
<rect x="300.1" y="267.0" width="7.5" height="16.3" fill="#008300"/>
<rect x="313.7" y="283.3" width="7.5" height="13.9" fill="#008300"/>
<rect x="327.4" y="297.2" width="7.5" height="12.3" fill="#008300"/>
<rect x="341.1" y="294.7" width="7.5" height="14.7" fill="none" stroke="#e66767" stroke-width="1.3"/>
<rect x="354.7" y="294.7" width="7.5" height="2.5" fill="#008300"/>
<rect x="368.4" y="263.7" width="7.5" height="33.5" fill="none" stroke="#e66767" stroke-width="1.3"/>
<rect x="382.1" y="263.7" width="7.5" height="30.2" fill="#008300"/>
<rect x="395.7" y="293.9" width="7.5" height="14.7" fill="#008300"/>
<rect x="409.4" y="308.6" width="7.5" height="3.3" fill="#008300"/>
<rect x="423.1" y="301.3" width="7.5" height="10.6" fill="none" stroke="#e66767" stroke-width="1.3"/>
<rect x="436.7" y="293.1" width="7.5" height="8.2" fill="none" stroke="#e66767" stroke-width="1.3"/>
<rect x="450.4" y="293.1" width="7.5" height="3.3" fill="#008300"/>
<rect x="464.1" y="288.2" width="7.5" height="8.2" fill="none" stroke="#e66767" stroke-width="1.3"/>
<rect x="477.7" y="288.2" width="7.5" height="4.9" fill="#008300"/>
<rect x="491.4" y="293.1" width="7.5" height="14.7" fill="#008300"/>
<rect x="505.1" y="302.9" width="7.5" height="4.9" fill="none" stroke="#e66767" stroke-width="1.3"/>
<rect x="518.7" y="302.9" width="7.5" height="12.3" fill="#008300"/>
<rect x="532.4" y="307.8" width="7.5" height="7.4" fill="none" stroke="#e66767" stroke-width="1.3"/>
<rect x="546.1" y="307.8" width="7.5" height="1.2" fill="#008300"/>
<rect x="559.7" y="308.6" width="7.5" height="9.0" fill="#008300"/>
<rect x="573.4" y="290.7" width="7.5" height="27.0" fill="none" stroke="#e66767" stroke-width="1.3"/>
<rect x="587.1" y="290.7" width="7.5" height="11.4" fill="#008300"/>
<rect x="600.7" y="302.1" width="7.5" height="3.3" fill="#008300"/>
<rect x="614.4" y="305.4" width="7.5" height="2.5" fill="#008300"/>
<rect x="628.1" y="307.8" width="7.5" height="10.6" fill="#008300"/>
<rect x="641.7" y="293.1" width="7.5" height="25.3" fill="none" stroke="#e66767" stroke-width="1.3"/>
<rect x="655.4" y="293.1" width="7.5" height="9.0" fill="#008300"/>
<rect x="669.1" y="302.1" width="7.5" height="8.2" fill="#008300"/>
<rect x="682.7" y="286.6" width="7.5" height="23.7" fill="none" stroke="#e66767" stroke-width="1.3"/>
<rect x="696.4" y="286.6" width="7.5" height="1.2" fill="#898781"/>
<rect x="710.1" y="286.6" width="7.5" height="22.1" fill="#008300"/>
<rect x="723.7" y="297.2" width="7.5" height="11.4" fill="none" stroke="#e66767" stroke-width="1.3"/>
<rect x="737.4" y="297.2" width="7.5" height="4.1" fill="#008300"/>
<rect x="751.1" y="301.3" width="7.5" height="32.7" fill="#008300"/>
<rect x="764.7" y="320.1" width="7.5" height="13.9" fill="none" stroke="#e66767" stroke-width="1.3"/>
<rect x="778.4" y="315.2" width="7.5" height="4.9" fill="none" stroke="#e66767" stroke-width="1.3"/>
<rect x="792.1" y="315.2" width="7.5" height="4.1" fill="#008300"/>
<rect x="805.7" y="296.4" width="7.5" height="22.9" fill="none" stroke="#e66767" stroke-width="1.3"/>
<rect x="819.4" y="296.4" width="7.5" height="2.5" fill="#008300"/>
<circle cx="276.5" cy="216.3" r="2" fill="#c3c2b7"/>
<line x1="276.5" y1="216.3" x2="284.5" y2="216.3" stroke="#c3c2b7" stroke-width="1.0"/>
<text x="287.5" y="220.3" font-size="11.0" fill="#c3c2b7">171</text>
<circle cx="754.8" cy="333.9" r="2" fill="#c3c2b7"/>
<line x1="754.8" y1="333.9" x2="746.8" y2="333.9" stroke="#c3c2b7" stroke-width="1.0"/>
<text x="743.8" y="337.9" font-size="11.0" fill="#c3c2b7" text-anchor="end">27</text>
<text x="14.0" y="376.0" font-size="11.0" fill="#c3c2b7">VOL 4 forks</text>
<text x="90.6" y="376.0" font-size="11.0" fill="#c98500">MA5:3.2</text>
<text x="142.9" y="376.0" font-size="11.0" fill="#3987e5">MA10:5.2</text>
<text x="14.0" y="395.0" font-size="10" fill="#898781">25</text>
<rect x="13.1" y="450.3" width="7.5" height="19.7" fill="#008300"/>
<rect x="26.7" y="440.5" width="7.5" height="29.5" fill="#008300"/>
<rect x="40.4" y="453.6" width="7.5" height="16.4" fill="#008300"/>
<rect x="54.1" y="427.4" width="7.5" height="42.6" fill="#008300"/>
<rect x="67.7" y="443.8" width="7.5" height="26.2" fill="#008300"/>
<rect x="81.4" y="443.8" width="7.5" height="26.2" fill="none" stroke="#e66767" stroke-width="1.1"/>
<rect x="95.1" y="433.9" width="7.5" height="36.1" fill="#008300"/>
<rect x="108.7" y="394.6" width="7.5" height="75.4" fill="none" stroke="#e66767" stroke-width="1.1"/>
<rect x="122.4" y="427.4" width="7.5" height="42.6" fill="#008300"/>
<rect x="136.1" y="433.9" width="7.5" height="36.1" fill="none" stroke="#e66767" stroke-width="1.1"/>
<rect x="149.7" y="443.8" width="7.5" height="26.2" fill="#008300"/>
<rect x="163.4" y="443.8" width="7.5" height="26.2" fill="#008300"/>
<rect x="177.1" y="453.6" width="7.5" height="16.4" fill="#008300"/>
<rect x="190.7" y="437.2" width="7.5" height="32.8" fill="#008300"/>
<rect x="204.4" y="447.0" width="7.5" height="23.0" fill="none" stroke="#e66767" stroke-width="1.1"/>
<rect x="218.1" y="433.9" width="7.5" height="36.1" fill="none" stroke="#e66767" stroke-width="1.1"/>
<rect x="231.7" y="437.2" width="7.5" height="32.8" fill="none" stroke="#e66767" stroke-width="1.1"/>
<rect x="245.4" y="443.8" width="7.5" height="26.2" fill="none" stroke="#e66767" stroke-width="1.1"/>
<rect x="259.1" y="420.8" width="7.5" height="49.2" fill="#008300"/>
<rect x="272.7" y="388.0" width="7.5" height="82.0" fill="none" stroke="#e66767" stroke-width="1.1"/>
<rect x="286.4" y="437.2" width="7.5" height="32.8" fill="#008300"/>
<rect x="300.1" y="427.4" width="7.5" height="42.6" fill="#008300"/>
<rect x="313.7" y="456.9" width="7.5" height="13.1" fill="#008300"/>
<rect x="327.4" y="414.2" width="7.5" height="55.8" fill="#008300"/>
<rect x="341.1" y="460.2" width="7.5" height="9.8" fill="none" stroke="#e66767" stroke-width="1.1"/>
<rect x="354.7" y="440.5" width="7.5" height="29.5" fill="#008300"/>
<rect x="368.4" y="424.1" width="7.5" height="45.9" fill="none" stroke="#e66767" stroke-width="1.1"/>
<rect x="382.1" y="420.8" width="7.5" height="49.2" fill="#008300"/>
<rect x="395.7" y="453.6" width="7.5" height="16.4" fill="#008300"/>
<rect x="409.4" y="453.6" width="7.5" height="16.4" fill="#008300"/>
<rect x="423.1" y="460.2" width="7.5" height="9.8" fill="none" stroke="#e66767" stroke-width="1.1"/>
<rect x="436.7" y="456.9" width="7.5" height="13.1" fill="none" stroke="#e66767" stroke-width="1.1"/>
<rect x="450.4" y="466.7" width="7.5" height="3.3" fill="#008300"/>
<rect x="464.1" y="453.6" width="7.5" height="16.4" fill="none" stroke="#e66767" stroke-width="1.1"/>
<rect x="477.7" y="430.6" width="7.5" height="39.4" fill="#008300"/>
<rect x="491.4" y="463.4" width="7.5" height="6.6" fill="#008300"/>
<rect x="505.1" y="443.8" width="7.5" height="26.2" fill="none" stroke="#e66767" stroke-width="1.1"/>
<rect x="518.7" y="460.2" width="7.5" height="9.8" fill="#008300"/>
<rect x="532.4" y="443.8" width="7.5" height="26.2" fill="none" stroke="#e66767" stroke-width="1.1"/>
<rect x="546.1" y="443.8" width="7.5" height="26.2" fill="#008300"/>
<rect x="559.7" y="460.2" width="7.5" height="9.8" fill="#008300"/>
<rect x="573.4" y="437.2" width="7.5" height="32.8" fill="none" stroke="#e66767" stroke-width="1.1"/>
<rect x="587.1" y="443.8" width="7.5" height="26.2" fill="#008300"/>
<rect x="600.7" y="453.6" width="7.5" height="16.4" fill="#008300"/>
<rect x="614.4" y="450.3" width="7.5" height="19.7" fill="#008300"/>
<rect x="628.1" y="443.8" width="7.5" height="26.2" fill="#008300"/>
<rect x="641.7" y="430.6" width="7.5" height="39.4" fill="none" stroke="#e66767" stroke-width="1.1"/>
<rect x="655.4" y="443.8" width="7.5" height="26.2" fill="#008300"/>
<rect x="669.1" y="460.2" width="7.5" height="9.8" fill="#008300"/>
<rect x="682.7" y="447.0" width="7.5" height="23.0" fill="none" stroke="#e66767" stroke-width="1.1"/>
<rect x="696.4" y="447.0" width="7.5" height="23.0" fill="#898781"/>
<rect x="710.1" y="450.3" width="7.5" height="19.7" fill="#008300"/>
<rect x="723.7" y="440.5" width="7.5" height="29.5" fill="none" stroke="#e66767" stroke-width="1.1"/>
<rect x="737.4" y="437.2" width="7.5" height="32.8" fill="#008300"/>
<rect x="751.1" y="456.9" width="7.5" height="13.1" fill="#008300"/>
<rect x="764.7" y="456.9" width="7.5" height="13.1" fill="none" stroke="#e66767" stroke-width="1.1"/>
<rect x="792.1" y="453.6" width="7.5" height="16.4" fill="#008300"/>
<rect x="805.7" y="460.2" width="7.5" height="9.8" fill="none" stroke="#e66767" stroke-width="1.1"/>
<rect x="819.4" y="456.9" width="7.5" height="13.1" fill="#008300"/>
<polyline points="16.8,428.3 30.5,429.0 44.2,432.0 57.8,436.2 71.5,437.5 85.2,438.2 98.8,437.5 112.5,432.9 126.2,432.6 139.8,434.9 153.5,434.2 167.2,434.6 180.8,434.6 194.5,435.6 208.2,435.9 221.8,434.9 235.5,435.2 249.2,440.2 262.8,439.5 276.5,434.9 290.2,434.2 303.8,432.6 317.5,432.9 331.2,430.6 344.8,432.0 358.5,432.6 372.2,431.3 385.8,429.0 399.5,432.3 413.2,438.8 426.8,441.1 440.5,444.1 454.2,445.1 467.8,449.0 481.5,446.1 495.2,448.4 508.8,450.3 522.5,454.3 536.2,453.3 549.8,452.3 563.5,452.3 577.2,450.3 590.8,448.0 604.5,448.0 618.2,450.0 631.8,448.0 645.5,446.7 659.2,445.1 672.8,446.7 686.5,447.0 700.2,445.7 713.8,447.0 727.5,446.7 741.2,445.1 754.8,445.7 768.5,447.0 782.2,451.0 795.8,452.0 809.5,452.0 823.2,452.9" fill="none" stroke="#3987e5" stroke-width="1.5" stroke-linejoin="round" stroke-linecap="round"/>
<polyline points="16.8,434.6 30.5,434.6 44.2,437.2 57.8,436.5 71.5,443.1 85.2,441.8 98.8,440.5 112.5,428.7 126.2,428.7 139.8,426.7 153.5,426.7 167.2,428.7 180.8,440.5 194.5,442.4 208.2,445.1 221.8,443.1 235.5,441.8 249.2,439.8 262.8,436.5 276.5,424.7 290.2,425.4 303.8,423.4 317.5,426.0 331.2,424.7 344.8,439.2 358.5,439.8 372.2,439.2 385.8,432.0 399.5,439.8 413.2,438.5 426.8,442.4 440.5,449.0 454.2,458.2 467.8,458.2 481.5,453.6 495.2,454.3 508.8,451.6 522.5,450.3 536.2,448.4 549.8,451.0 563.5,450.3 577.2,449.0 590.8,445.7 604.5,447.7 618.2,449.0 631.8,445.7 645.5,444.4 659.2,444.4 672.8,445.7 686.5,445.1 700.2,445.7 713.8,449.7 727.5,449.0 741.2,444.4 754.8,446.4 768.5,448.4 782.2,452.3 795.8,454.9 809.5,459.5 823.2,459.5" fill="none" stroke="#c98500" stroke-width="1.5" stroke-linejoin="round" stroke-linecap="round"/>
</svg>