<svg xmlns="http://www.w3.org/2000/svg" viewBox="0 0 840 496" width="840" height="496" font-family="-apple-system,&#39;Segoe UI&#39;,system-ui,sans-serif" role="img" aria-label="EbookFoundation/free-programming-books candlestick chart">
<text x="14.0" y="20.0" font-size="15" fill="#0b0b0b" font-weight="650">EbookFoundation/free-programming-books</text>
<text x="331.5" y="20.0" font-size="11.5" fill="#52514e">daily · new stars, volume = new forks</text>
<text x="805.8" y="20.0" font-size="11.0" fill="#52514e">fall</text>
<rect x="791" y="10" width="9" height="12" fill="#008300"/>
<text x="750.6" y="20.0" font-size="11.0" fill="#52514e">rise</text>
<rect x="736" y="10" width="9" height="12" fill="none" stroke="#e34948" stroke-width="1.5"/>
<text x="14.0" y="38.0" font-size="11.0" fill="#898781">last 60 days · +4,432 stars · +521 forks · updated 2026-07-08</text>
<rect x="10" y="66" width="820" height="290" fill="none" stroke="#e1e0d9"/>
<rect x="10" y="384" width="820" height="86" fill="none" stroke="#e1e0d9"/>
<text x="38.0" y="490.0" font-size="11.0" fill="#898781" text-anchor="middle">2026-05</text>
<line x1="310.7" y1="66.0" x2="310.7" y2="356.0" stroke="#e1e0d9" stroke-width="1.0"/>
<line x1="310.7" y1="384.0" x2="310.7" y2="470.0" stroke="#e1e0d9" stroke-width="1.0"/>
<text x="317.5" y="490.0" font-size="11.0" fill="#898781" text-anchor="middle">2026-06</text>
<line x1="720.7" y1="66.0" x2="720.7" y2="356.0" stroke="#e1e0d9" stroke-width="1.0"/>
<line x1="720.7" y1="384.0" x2="720.7" y2="470.0" stroke="#e1e0d9" stroke-width="1.0"/>
<text x="727.5" y="490.0" font-size="11.0" fill="#898781" text-anchor="middle">2026-07</text>
<text x="14.0" y="58.0" font-size="11.0" fill="#52514e">BOLL(20,2)</text>
<text x="84.5" y="58.0" font-size="11.0" fill="#eda100">UP:89.8</text>
<text x="136.9" y="58.0" font-size="11.0" fill="#2a78d6">MID:61.5</text>
<text x="195.3" y="58.0" font-size="11.0" fill="#e87ba4">LOW:33.1</text>
<text x="253.7" y="58.0" font-size="11.0" fill="#4a3aa7">MA7:62.6</text>
<line x1="10.0" y1="356.0" x2="830.0" y2="356.0" stroke="#e1e0d9" stroke-width="1.0"/>
<text x="14.0" y="353.0" font-size="11.0" fill="#898781">0</text>
<line x1="10.0" y1="274.3" x2="830.0" y2="274.3" stroke="#e1e0d9" stroke-width="1.0"/>
<text x="14.0" y="271.3" font-size="11.0" fill="#898781">100</text>
<line x1="10.0" y1="192.7" x2="830.0" y2="192.7" stroke="#e1e0d9" stroke-width="1.0"/>
<text x="14.0" y="189.7" font-size="11.0" fill="#898781">200</text>
<line x1="10.0" y1="111.0" x2="830.0" y2="111.0" stroke="#e1e0d9" stroke-width="1.0"/>
<text x="14.0" y="108.0" font-size="11.0" fill="#898781">300</text>
<polyline points="126.2,79.8 139.8,209.0 153.5,271.0 167.2,271.6 180.8,271.7 194.5,266.9 208.2,266.3 221.8,265.5 235.5,265.5 249.2,266.7 262.8,266.9 276.5,266.9 290.2,266.6 303.8,265.6 317.5,264.6 331.2,246.3 344.8,244.6 358.5,244.5 372.2,244.5 385.8,244.3 399.5,244.7 413.2,245.5 426.8,243.0 440.5,243.0 454.2,242.7 467.8,244.8 481.5,246.6 495.2,247.2 508.8,247.2 522.5,247.2 536.2,247.1 549.8,246.9 563.5,247.3 577.2,247.8 590.8,248.8 604.5,270.3 618.2,275.2 631.8,276.4 645.5,276.6 659.2,276.7 672.8,277.2 686.5,277.1 700.2,285.2 713.8,286.2 727.5,286.1 741.2,283.8 754.8,281.8 768.5,282.8 782.2,282.9 795.8,284.6 809.5,282.9 823.2,282.6" fill="none" stroke="#eda100" stroke-width="1.5" stroke-linejoin="round" stroke-linecap="round"/>
<polyline points="126.2,264.8 139.8,283.9 153.5,292.7 167.2,292.3 180.8,292.8 194.5,291.4 208.2,291.3 221.8,290.7 235.5,291.4 249.2,293.0 262.8,292.7 276.5,292.6 290.2,292.5 303.8,292.0 317.5,291.2 331.2,288.2 344.8,287.4 358.5,287.4 372.2,287.2 385.8,287.5 399.5,286.7 413.2,287.6 426.8,285.6 440.5,285.3 454.2,285.6 467.8,288.0 481.5,289.5 495.2,290.0 508.8,289.6 522.5,288.5 536.2,288.0 549.8,288.6 563.5,289.4 577.2,291.2 590.8,292.5 604.5,297.1 618.2,299.6 631.8,300.0 645.5,300.2 659.2,300.0 672.8,300.7 686.5,301.7 700.2,303.2 713.8,303.6 727.5,303.7 741.2,302.4 754.8,301.7 768.5,302.5 782.2,302.5 795.8,303.2 809.5,305.2 823.2,305.8" fill="none" stroke="#2a78d6" stroke-width="1.5" stroke-linejoin="round" stroke-linecap="round"/>
<polyline points="126.2,356.0 139.8,356.0 153.5,314.5 167.2,312.9 180.8,314.0 194.5,315.9 208.2,316.3 221.8,315.9 235.5,317.2 249.2,319.3 262.8,318.5 276.5,318.4 290.2,318.4 303.8,318.3 317.5,317.9 331.2,330.1 344.8,330.3 358.5,330.3 372.2,329.9 385.8,330.6 399.5,328.7 413.2,329.7 426.8,328.2 440.5,327.7 454.2,328.5 467.8,331.2 481.5,332.3 495.2,332.7 508.8,331.9 522.5,329.7 536.2,329.0 549.8,330.2 563.5,331.5 577.2,334.5 590.8,336.1 604.5,323.8 618.2,324.0 631.8,323.6 645.5,323.8 659.2,323.3 672.8,324.1 686.5,326.3 700.2,321.1 713.8,321.1 727.5,321.2 741.2,321.1 754.8,321.6 768.5,322.1 782.2,322.1 795.8,321.7 809.5,327.5 823.2,329.0" fill="none" stroke="#e87ba4" stroke-width="1.5" stroke-linejoin="round" stroke-linecap="round"/>
<polyline points="16.8,290.4 30.5,292.8 44.2,293.0 57.8,290.9 71.5,291.6 85.2,288.3 98.8,288.5 112.5,290.7 126.2,293.6 139.8,291.2 153.5,295.0 167.2,297.4 180.8,300.1 194.5,295.0 208.2,290.2 221.8,286.3 235.5,289.9 249.2,290.9 262.8,291.2 276.5,290.3 290.2,293.4 303.8,294.7 317.5,294.5 331.2,281.9 344.8,275.7 358.5,273.2 372.2,273.2 385.8,276.5 399.5,278.5 413.2,280.8 426.8,287.5 440.5,291.4 454.2,295.0 467.8,297.1 481.5,295.9 495.2,295.6 508.8,295.6 522.5,299.1 536.2,298.9 549.8,298.8 563.5,297.5 577.2,299.6 590.8,301.6 604.5,303.4 618.2,307.6 631.8,307.2 645.5,306.4 659.2,306.8 672.8,305.7 686.5,307.2 700.2,305.0 713.8,302.8 727.5,305.6 741.2,303.4 754.8,300.7 768.5,300.8 782.2,297.8 795.8,298.9 809.5,303.5 823.2,304.9" fill="none" stroke="#4a3aa7" stroke-width="1.5" stroke-linejoin="round" stroke-linecap="round"/>
<rect x="13.1" y="289.0" width="7.5" height="9.8" fill="none" stroke="#e34948" stroke-width="1.3"/>
<rect x="26.7" y="289.0" width="7.5" height="1.6" fill="#008300"/>
<rect x="40.4" y="290.7" width="7.5" height="5.7" fill="#008300"/>
<rect x="54.1" y="276.8" width="7.5" height="19.6" fill="none" stroke="#e34948" stroke-width="1.3"/>
<rect x="67.7" y="276.8" width="7.5" height="5.7" fill="#008300"/>
<rect x="81.4" y="282.5" width="7.5" height="1.6" fill="#008300"/>
<rect x="95.1" y="284.1" width="7.5" height="16.3" fill="#008300"/>
<rect x="108.7" y="300.5" width="7.5" height="4.1" fill="#008300"/>
<rect x="122.4" y="304.5" width="7.5" height="5.7" fill="#008300"/>
<rect x="136.1" y="279.2" width="7.5" height="31.0" fill="none" stroke="#e34948" stroke-width="1.3"/>
<rect x="149.7" y="279.2" width="7.5" height="24.5" fill="#008300"/>
<rect x="163.4" y="299.6" width="7.5" height="4.1" fill="none" stroke="#e34948" stroke-width="1.3"/>
<rect x="177.1" y="299.6" width="7.5" height="3.3" fill="#008300"/>
<rect x="190.7" y="264.5" width="7.5" height="38.4" fill="none" stroke="#e34948" stroke-width="1.3"/>
<rect x="204.4" y="264.5" width="7.5" height="6.5" fill="#008300"/>
<rect x="218.1" y="271.1" width="7.5" height="12.3" fill="#008300"/>
<rect x="231.7" y="283.3" width="7.5" height="21.2" fill="#008300"/>
<rect x="245.4" y="304.5" width="7.5" height="5.7" fill="#008300"/>
<rect x="259.1" y="301.3" width="7.5" height="9.0" fill="none" stroke="#e34948" stroke-width="1.3"/>
<rect x="272.7" y="297.2" width="7.5" height="4.1" fill="none" stroke="#e34948" stroke-width="1.3"/>
<rect x="286.4" y="285.8" width="7.5" height="11.4" fill="none" stroke="#e34948" stroke-width="1.3"/>
<rect x="300.1" y="280.9" width="7.5" height="4.9" fill="none" stroke="#e34948" stroke-width="1.3"/>
<rect x="313.7" y="280.9" width="7.5" height="1.2" fill="#008300"/>
<rect x="327.4" y="216.3" width="7.5" height="65.3" fill="none" stroke="#e34948" stroke-width="1.3"/>
<rect x="341.1" y="216.3" width="7.5" height="50.6" fill="#008300"/>
<rect x="354.7" y="267.0" width="7.5" height="16.3" fill="#008300"/>
<rect x="368.4" y="283.3" width="7.5" height="13.9" fill="#008300"/>
<rect x="382.1" y="297.2" width="7.5" height="12.3" fill="#008300"/>
<rect x="395.7" y="294.7" width="7.5" height="14.7" fill="none" stroke="#e34948" stroke-width="1.3"/>
<rect x="409.4" y="294.7" width="7.5" height="2.5" fill="#008300"/>
<rect x="423.1" y="263.7" width="7.5" height="33.5" fill="none" stroke="#e34948" stroke-width="1.3"/>
<rect x="436.7" y="263.7" width="7.5" height="30.2" fill="#008300"/>
<rect x="450.4" y="293.9" width="7.5" height="14.7" fill="#008300"/>
<rect x="464.1" y="308.6" width="7.5" height="3.3" fill="#008300"/>
<rect x="477.7" y="301.3" width="7.5" height="10.6" fill="none" stroke="#e34948" stroke-width="1.3"/>
<rect x="491.4" y="293.1" width="7.5" height="8.2" fill="none" stroke="#e34948" stroke-width="1.3"/>
<rect x="505.1" y="293.1" width="7.5" height="3.3" fill="#008300"/>
<rect x="518.7" y="288.2" width="7.5" height="8.2" fill="none" stroke="#e34948" stroke-width="1.3"/>
<rect x="532.4" y="288.2" width="7.5" height="4.9" fill="#008300"/>
<rect x="546.1" y="293.1" width="7.5" height="14.7" fill="#008300"/>
<rect x="559.7" y="302.9" width="7.5" height="4.9" fill="none" stroke="#e34948" stroke-width="1.3"/>
<rect x="573.4" y="302.9" width="7.5" height="12.3" fill="#008300"/>
<rect x="587.1" y="307.8" width="7.5" height="7.4" fill="none" stroke="#e34948" stroke-width="1.3"/>
<rect x="600.7" y="307.8" width="7.5" height="1.2" fill="#008300"/>
<rect x="614.4" y="308.6" width="7.5" height="9.0" fill="#008300"/>
<rect x="628.1" y="290.7" width="7.5" height="27.0" fill="none" stroke="#e34948" stroke-width="1.3"/>
<rect x="641.7" y="290.7" width="7.5" height="11.4" fill="#008300"/>
<rect x="655.4" y="302.1" width="7.5" height="3.3" fill="#008300"/>
<rect x="669.1" y="305.4" width="7.5" height="2.5" fill="#008300"/>
<rect x="682.7" y="307.8" width="7.5" height="10.6" fill="#008300"/>
<rect x="696.4" y="293.1" width="7.5" height="25.3" fill="none" stroke="#e34948" stroke-width="1.3"/>
<rect x="710.1" y="293.1" width="7.5" height="9.0" fill="#008300"/>
<rect x="723.7" y="302.1" width="7.5" height="8.2" fill="#008300"/>
<rect x="737.4" y="286.6" width="7.5" height="23.7" fill="none" stroke="#e34948" stroke-width="1.3"/>
<rect x="751.1" y="286.6" width="7.5" height="1.2" fill="#898781"/>
<rect x="764.7" y="286.6" width="7.5" height="22.1" fill="#008300"/>
<rect x="778.4" y="297.2" width="7.5" height="11.4" fill="none" stroke="#e34948" stroke-width="1.3"/>
<rect x="792.1" y="297.2" width="7.5" height="4.1" fill="#008300"/>
<rect x="805.7" y="301.3" width="7.5" height="32.7" fill="#008300"/>
<rect x="819.4" y="320.1" width="7.5" height="13.9" fill="none" stroke="#e34948" stroke-width="1.3"/>
<circle cx="331.2" cy="216.3" r="2" fill="#52514e"/>
<line x1="331.2" y1="216.3" x2="339.2" y2="216.3" stroke="#52514e" stroke-width="1.0"/>
<text x="342.2" y="220.3" font-size="11.0" fill="#52514e">171</text>
<circle cx="809.5" cy="333.9" r="2" fill="#52514e"/>
<line x1="809.5" y1="333.9" x2="801.5" y2="333.9" stroke="#52514e" stroke-width="1.0"/>
<text x="798.5" y="337.9" font-size="11.0" fill="#52514e" text-anchor="end">27</text>
<text x="14.0" y="376.0" font-size="11.0" fill="#52514e">VOL 4 forks</text>
<text x="90.6" y="376.0" font-size="11.0" fill="#eda100">MA5:6.6</text>
<text x="142.9" y="376.0" font-size="11.0" fill="#2a78d6">MA10:7</text>
<text x="14.0" y="395.0" font-size="10" fill="#898781">25</text>
<rect x="13.1" y="440.5" width="7.5" height="29.5" fill="none" stroke="#e34948" stroke-width="1.1"/>
<rect x="26.7" y="440.5" width="7.5" height="29.5" fill="#008300"/>
<rect x="40.4" y="430.6" width="7.5" height="39.4" fill="#008300"/>
<rect x="54.1" y="411.0" width="7.5" height="59.0" fill="none" stroke="#e34948" stroke-width="1.1"/>
<rect x="67.7" y="450.3" width="7.5" height="19.7" fill="#008300"/>
<rect x="81.4" y="440.5" width="7.5" height="29.5" fill="#008300"/>
<rect x="95.1" y="453.6" width="7.5" height="16.4" fill="#008300"/>
<rect x="108.7" y="427.4" width="7.5" height="42.6" fill="#008300"/>
<rect x="122.4" y="443.8" width="7.5" height="26.2" fill="#008300"/>
<rect x="136.1" y="443.8" width="7.5" height="26.2" fill="none" stroke="#e34948" stroke-width="1.1"/>
<rect x="149.7" y="433.9" width="7.5" height="36.1" fill="#008300"/>
<rect x="163.4" y="394.6" width="7.5" height="75.4" fill="none" stroke="#e34948" stroke-width="1.1"/>
<rect x="177.1" y="427.4" width="7.5" height="42.6" fill="#008300"/>
<rect x="190.7" y="433.9" width="7.5" height="36.1" fill="none" stroke="#e34948" stroke-width="1.1"/>
<rect x="204.4" y="443.8" width="7.5" height="26.2" fill="#008300"/>
<rect x="218.1" y="443.8" width="7.5" height="26.2" fill="#008300"/>
<rect x="231.7" y="453.6" width="7.5" height="16.4" fill="#008300"/>
<rect x="245.4" y="437.2" width="7.5" height="32.8" fill="#008300"/>
<rect x="259.1" y="447.0" width="7.5" height="23.0" fill="none" stroke="#e34948" stroke-width="1.1"/>
<rect x="272.7" y="433.9" width="7.5" height="36.1" fill="none" stroke="#e34948" stroke-width="1.1"/>
<rect x="286.4" y="437.2" width="7.5" height="32.8" fill="none" stroke="#e34948" stroke-width="1.1"/>
<rect x="300.1" y="443.8" width="7.5" height="26.2" fill="none" stroke="#e34948" stroke-width="1.1"/>
<rect x="313.7" y="420.8" width="7.5" height="49.2" fill="#008300"/>
<rect x="327.4" y="388.0" width="7.5" height="82.0" fill="none" stroke="#e34948" stroke-width="1.1"/>
<rect x="341.1" y="437.2" width="7.5" height="32.8" fill="#008300"/>
<rect x="354.7" y="427.4" width="7.5" height="42.6" fill="#008300"/>
<rect x="368.4" y="456.9" width="7.5" height="13.1" fill="#008300"/>
<rect x="382.1" y="414.2" width="7.5" height="55.8" fill="#008300"/>
<rect x="395.7" y="460.2" width="7.5" height="9.8" fill="none" stroke="#e34948" stroke-width="1.1"/>
<rect x="409.4" y="440.5" width="7.5" height="29.5" fill="#008300"/>
<rect x="423.1" y="424.1" width="7.5" height="45.9" fill="none" stroke="#e34948" stroke-width="1.1"/>
<rect x="436.7" y="420.8" width="7.5" height="49.2" fill="#008300"/>
<rect x="450.4" y="453.6" width="7.5" height="16.4" fill="#008300"/>
<rect x="464.1" y="453.6" width="7.5" height="16.4" fill="#008300"/>
<rect x="477.7" y="460.2" width="7.5" height="9.8" fill="none" stroke="#e34948" stroke-width="1.1"/>
<rect x="491.4" y="456.9" width="7.5" height="13.1" fill="none" stroke="#e34948" stroke-width="1.1"/>
<rect x="505.1" y="466.7" width="7.5" height="3.3" fill="#008300"/>
<rect x="518.7" y="453.6" width="7.5" height="16.4" fill="none" stroke="#e34948" stroke-width="1.1"/>
<rect x="532.4" y="430.6" width="7.5" height="39.4" fill="#008300"/>
<rect x="546.1" y="463.4" width="7.5" height="6.6" fill="#008300"/>
<rect x="559.7" y="443.8" width="7.5" height="26.2" fill="none" stroke="#e34948" stroke-width="1.1"/>
<rect x="573.4" y="460.2" width="7.5" height="9.8" fill="#008300"/>
<rect x="587.1" y="443.8" width="7.5" height="26.2" fill="none" stroke="#e34948" stroke-width="1.1"/>
<rect x="600.7" y="443.8" width="7.5" height="26.2" fill="#008300"/>
<rect x="614.4" y="460.2" width="7.5" height="9.8" fill="#008300"/>
<rect x="628.1" y="437.2" width="7.5" height="32.8" fill="none" stroke="#e34948" stroke-width="1.1"/>
<rect x="641.7" y="443.8" width="7.5" height="26.2" fill="#008300"/>
<rect x="655.4" y="453.6" width="7.5" height="16.4" fill="#008300"/>
<rect x="669.1" y="450.3" width="7.5" height="19.7" fill="#008300"/>
<rect x="682.7" y="443.8" width="7.5" height="26.2" fill="#008300"/>
<rect x="696.4" y="430.6" width="7.5" height="39.4" fill="none" stroke="#e34948" stroke-width="1.1"/>
<rect x="710.1" y="443.8" width="7.5" height="26.2" fill="#008300"/>
<rect x="723.7" y="460.2" width="7.5" height="9.8" fill="#008300"/>
<rect x="737.4" y="447.0" width="7.5" height="23.0" fill="none" stroke="#e34948" stroke-width="1.1"/>
<rect x="751.1" y="447.0" width="7.5" height="23.0" fill="#898781"/>
<rect x="764.7" y="450.3" width="7.5" height="19.7" fill="#008300"/>
<rect x="778.4" y="440.5" width="7.5" height="29.5" fill="none" stroke="#e34948" stroke-width="1.1"/>
<rect x="792.1" y="437.2" width="7.5" height="32.8" fill="#008300"/>
<rect x="805.7" y="456.9" width="7.5" height="13.1" fill="#008300"/>
<rect x="819.4" y="456.9" width="7.5" height="13.1" fill="none" stroke="#e34948" stroke-width="1.1"/>
<polyline points="16.8,431.3 30.5,430.6 44.2,431.3 57.8,426.4 71.5,428.3 85.2,429.0 98.8,432.0 112.5,436.2 126.2,437.5 139.8,438.2 153.5,437.5 167.2,432.9 180.8,432.6 194.5,434.9 208.2,434.2 221.8,434.6 235.5,434.6 249.2,435.6 262.8,435.9 276.5,434.9 290.2,435.2 303.8,440.2 317.5,439.5 331.2,434.9 344.8,434.2 358.5,432.6 372.2,432.9 385.8,430.6 399.5,432.0 413.2,432.6 426.8,431.3 440.5,429.0 454.2,432.3 467.8,438.8 481.5,441.1 495.2,444.1 508.8,445.1 522.5,449.0 536.2,446.1 549.8,448.4 563.5,450.3 577.2,454.3 590.8,453.3 604.5,452.3 618.2,452.3 631.8,450.3 645.5,448.0 659.2,448.0 672.8,450.0 686.5,448.0 700.2,446.7 713.8,445.1 727.5,446.7 741.2,447.0 754.8,445.7 768.5,447.0 782.2,446.7 795.8,445.1 809.5,445.7 823.2,447.0" fill="none" stroke="#2a78d6" stroke-width="1.5" stroke-linejoin="round" stroke-linecap="round"/>
<polyline points="16.8,423.4 30.5,426.7 44.2,435.9 57.8,432.0 71.5,434.6 85.2,434.6 98.8,437.2 112.5,436.5 126.2,443.1 139.8,441.8 153.5,440.5 167.2,428.7 180.8,428.7 194.5,426.7 208.2,426.7 221.8,428.7 235.5,440.5 249.2,442.4 262.8,445.1 276.5,443.1 290.2,441.8 303.8,439.8 317.5,436.5 331.2,424.7 344.8,425.4 358.5,423.4 372.2,426.0 385.8,424.7 399.5,439.2 413.2,439.8 426.8,439.2 440.5,432.0 454.2,439.8 467.8,438.5 481.5,442.4 495.2,449.0 508.8,458.2 522.5,458.2 536.2,453.6 549.8,454.3 563.5,451.6 577.2,450.3 590.8,448.4 604.5,451.0 618.2,450.3 631.8,449.0 645.5,445.7 659.2,447.7 672.8,449.0 686.5,445.7 700.2,444.4 713.8,444.4 727.5,445.7 741.2,445.1 754.8,445.7 768.5,449.7 782.2,449.0 795.8,444.4 809.5,446.4 823.2,448.4" fill="none" stroke="#eda100" stroke-width="1.5" stroke-linejoin="round" stroke-linecap="round"/>
</svg>