<svg xmlns="http://www.w3.org/2000/svg" viewBox="0 0 840 496" width="840" height="496" font-family="-apple-system,&#39;Segoe UI&#39;,system-ui,sans-serif" role="img" aria-label="EbookFoundation/free-programming-books candlestick chart">
<text x="14.0" y="20.0" font-size="15" fill="#ffffff" font-weight="650">EbookFoundation/free-programming-books</text>
<text x="331.5" y="20.0" font-size="11.5" fill="#c3c2b7">daily · new stars, volume = new forks</text>
<text x="805.8" y="20.0" font-size="11.0" fill="#c3c2b7">fall</text>
<rect x="791" y="10" width="9" height="12" fill="#008300"/>
<text x="750.6" y="20.0" font-size="11.0" fill="#c3c2b7">rise</text>
<rect x="736" y="10" width="9" height="12" fill="none" stroke="#e66767" stroke-width="1.5"/>
<text x="14.0" y="38.0" font-size="11.0" fill="#898781">last 60 days · +4,365 stars · +499 forks · updated 2026-07-11</text>
<rect x="10" y="66" width="820" height="290" fill="none" stroke="#2c2c2a"/>
<rect x="10" y="384" width="820" height="86" fill="none" stroke="#2c2c2a"/>
<text x="38.0" y="490.0" font-size="11.0" fill="#898781" text-anchor="middle">2026-05</text>
<line x1="269.7" y1="66.0" x2="269.7" y2="356.0" stroke="#2c2c2a" stroke-width="1.0"/>
<line x1="269.7" y1="384.0" x2="269.7" y2="470.0" stroke="#2c2c2a" stroke-width="1.0"/>
<text x="276.5" y="490.0" font-size="11.0" fill="#898781" text-anchor="middle">2026-06</text>
<line x1="679.7" y1="66.0" x2="679.7" y2="356.0" stroke="#2c2c2a" stroke-width="1.0"/>
<line x1="679.7" y1="384.0" x2="679.7" y2="470.0" stroke="#2c2c2a" stroke-width="1.0"/>
<text x="686.5" y="490.0" font-size="11.0" fill="#898781" text-anchor="middle">2026-07</text>
<text x="14.0" y="58.0" font-size="11.0" fill="#c3c2b7">BOLL(20,2)</text>
<text x="84.5" y="58.0" font-size="11.0" fill="#c98500">UP:90.8</text>
<text x="136.9" y="58.0" font-size="11.0" fill="#3987e5">MID:61.1</text>
<text x="195.3" y="58.0" font-size="11.0" fill="#d55181">LOW:31.4</text>
<text x="253.7" y="58.0" font-size="11.0" fill="#9085e9">MA7:54</text>
<line x1="10.0" y1="356.0" x2="830.0" y2="356.0" stroke="#2c2c2a" stroke-width="1.0"/>
<text x="14.0" y="353.0" font-size="11.0" fill="#898781">0</text>
<line x1="10.0" y1="274.3" x2="830.0" y2="274.3" stroke="#2c2c2a" stroke-width="1.0"/>
<text x="14.0" y="271.3" font-size="11.0" fill="#898781">100</text>
<line x1="10.0" y1="192.7" x2="830.0" y2="192.7" stroke="#2c2c2a" stroke-width="1.0"/>
<text x="14.0" y="189.7" font-size="11.0" fill="#898781">200</text>
<line x1="10.0" y1="111.0" x2="830.0" y2="111.0" stroke="#2c2c2a" stroke-width="1.0"/>
<text x="14.0" y="108.0" font-size="11.0" fill="#898781">300</text>
<polyline points="85.2,79.8 98.8,209.0 112.5,271.0 126.2,271.6 139.8,271.7 153.5,266.9 167.2,266.3 180.8,265.5 194.5,265.5 208.2,266.7 221.8,266.9 235.5,266.9 249.2,266.6 262.8,265.6 276.5,264.6 290.2,246.3 303.8,244.6 317.5,244.5 331.2,244.5 344.8,244.3 358.5,244.7 372.2,245.5 385.8,243.0 399.5,243.0 413.2,242.7 426.8,244.8 440.5,246.6 454.2,247.2 467.8,247.2 481.5,247.2 495.2,247.1 508.8,246.9 522.5,247.3 536.2,247.8 549.8,248.8 563.5,270.3 577.2,275.2 590.8,276.4 604.5,276.6 618.2,276.7 631.8,277.2 645.5,277.1 659.2,285.2 672.8,286.2 686.5,286.1 700.2,283.8 713.8,281.8 727.5,282.8 741.2,282.9 754.8,284.6 768.5,282.9 782.2,282.6 795.8,282.9 809.5,282.8 823.2,281.8" fill="none" stroke="#c98500" stroke-width="1.5" stroke-linejoin="round" stroke-linecap="round"/>
<polyline points="85.2,264.8 98.8,283.9 112.5,292.7 126.2,292.3 139.8,292.8 153.5,291.4 167.2,291.3 180.8,290.7 194.5,291.4 208.2,293.0 221.8,292.7 235.5,292.6 249.2,292.5 262.8,292.0 276.5,291.2 290.2,288.2 303.8,287.4 317.5,287.4 331.2,287.2 344.8,287.5 358.5,286.7 372.2,287.6 385.8,285.6 399.5,285.3 413.2,285.6 426.8,288.0 440.5,289.5 454.2,290.0 467.8,289.6 481.5,288.5 495.2,288.0 508.8,288.6 522.5,289.4 536.2,291.2 549.8,292.5 563.5,297.1 577.2,299.6 590.8,300.0 604.5,300.2 618.2,300.0 631.8,300.7 645.5,301.7 659.2,303.2 672.8,303.6 686.5,303.7 700.2,302.4 713.8,301.7 727.5,302.5 741.2,302.5 754.8,303.2 768.5,305.2 782.2,305.8 795.8,306.4 809.5,306.6 823.2,306.1" fill="none" stroke="#3987e5" stroke-width="1.5" stroke-linejoin="round" stroke-linecap="round"/>
<polyline points="85.2,356.0 98.8,356.0 112.5,314.5 126.2,312.9 139.8,314.0 153.5,315.9 167.2,316.3 180.8,315.9 194.5,317.2 208.2,319.3 221.8,318.5 235.5,318.4 249.2,318.4 262.8,318.3 276.5,317.9 290.2,330.1 303.8,330.3 317.5,330.3 331.2,329.9 344.8,330.6 358.5,328.7 372.2,329.7 385.8,328.2 399.5,327.7 413.2,328.5 426.8,331.2 440.5,332.3 454.2,332.7 467.8,331.9 481.5,329.7 495.2,329.0 508.8,330.2 522.5,331.5 536.2,334.5 549.8,336.1 563.5,323.8 577.2,324.0 590.8,323.6 604.5,323.8 618.2,323.3 631.8,324.1 645.5,326.3 659.2,321.1 672.8,321.1 686.5,321.2 700.2,321.1 713.8,321.6 727.5,322.1 741.2,322.1 754.8,321.7 768.5,327.5 782.2,329.0 795.8,329.9 809.5,330.5 823.2,330.3" fill="none" stroke="#d55181" stroke-width="1.5" stroke-linejoin="round" stroke-linecap="round"/>
<polyline points="16.8,290.9 30.5,291.6 44.2,288.3 57.8,288.5 71.5,290.7 85.2,293.6 98.8,291.2 112.5,295.0 126.2,297.4 139.8,300.1 153.5,295.0 167.2,290.2 180.8,286.3 194.5,289.9 208.2,290.9 221.8,291.2 235.5,290.3 249.2,293.4 262.8,294.7 276.5,294.5 290.2,281.9 303.8,275.7 317.5,273.2 331.2,273.2 344.8,276.5 358.5,278.5 372.2,280.8 385.8,287.5 399.5,291.4 413.2,295.0 426.8,297.1 440.5,295.9 454.2,295.6 467.8,295.6 481.5,299.1 495.2,298.9 508.8,298.8 522.5,297.5 536.2,299.6 549.8,301.6 563.5,303.4 577.2,307.6 590.8,307.2 604.5,306.4 618.2,306.8 631.8,305.7 645.5,307.2 659.2,305.0 672.8,302.8 686.5,305.6 700.2,303.4 713.8,300.7 727.5,300.8 741.2,297.8 754.8,298.9 768.5,303.5 782.2,304.9 795.8,309.0 809.5,313.6 823.2,311.9" fill="none" stroke="#9085e9" stroke-width="1.5" stroke-linejoin="round" stroke-linecap="round"/>
<rect x="13.1" y="276.8" width="7.5" height="19.6" fill="none" stroke="#e66767" stroke-width="1.3"/>
<rect x="26.7" y="276.8" width="7.5" height="5.7" fill="#008300"/>
<rect x="40.4" y="282.5" width="7.5" height="1.6" fill="#008300"/>
<rect x="54.1" y="284.1" width="7.5" height="16.3" fill="#008300"/>
<rect x="67.7" y="300.5" width="7.5" height="4.1" fill="#008300"/>
<rect x="81.4" y="304.5" width="7.5" height="5.7" fill="#008300"/>
<rect x="95.1" y="279.2" width="7.5" height="31.0" fill="none" stroke="#e66767" stroke-width="1.3"/>
<rect x="108.7" y="279.2" width="7.5" height="24.5" fill="#008300"/>
<rect x="122.4" y="299.6" width="7.5" height="4.1" fill="none" stroke="#e66767" stroke-width="1.3"/>
<rect x="136.1" y="299.6" width="7.5" height="3.3" fill="#008300"/>
<rect x="149.7" y="264.5" width="7.5" height="38.4" fill="none" stroke="#e66767" stroke-width="1.3"/>
<rect x="163.4" y="264.5" width="7.5" height="6.5" fill="#008300"/>
<rect x="177.1" y="271.1" width="7.5" height="12.3" fill="#008300"/>
<rect x="190.7" y="283.3" width="7.5" height="21.2" fill="#008300"/>
<rect x="204.4" y="304.5" width="7.5" height="5.7" fill="#008300"/>
<rect x="218.1" y="301.3" width="7.5" height="9.0" fill="none" stroke="#e66767" stroke-width="1.3"/>
<rect x="231.7" y="297.2" width="7.5" height="4.1" fill="none" stroke="#e66767" stroke-width="1.3"/>
<rect x="245.4" y="285.8" width="7.5" height="11.4" fill="none" stroke="#e66767" stroke-width="1.3"/>
<rect x="259.1" y="280.9" width="7.5" height="4.9" fill="none" stroke="#e66767" stroke-width="1.3"/>
<rect x="272.7" y="280.9" width="7.5" height="1.2" fill="#008300"/>
<rect x="286.4" y="216.3" width="7.5" height="65.3" fill="none" stroke="#e66767" stroke-width="1.3"/>
<rect x="300.1" y="216.3" width="7.5" height="50.6" fill="#008300"/>
<rect x="313.7" y="267.0" width="7.5" height="16.3" fill="#008300"/>
<rect x="327.4" y="283.3" width="7.5" height="13.9" fill="#008300"/>
<rect x="341.1" y="297.2" width="7.5" height="12.3" fill="#008300"/>
<rect x="354.7" y="294.7" width="7.5" height="14.7" fill="none" stroke="#e66767" stroke-width="1.3"/>
<rect x="368.4" y="294.7" width="7.5" height="2.5" fill="#008300"/>
<rect x="382.1" y="263.7" width="7.5" height="33.5" fill="none" stroke="#e66767" stroke-width="1.3"/>
<rect x="395.7" y="263.7" width="7.5" height="30.2" fill="#008300"/>
<rect x="409.4" y="293.9" width="7.5" height="14.7" fill="#008300"/>
<rect x="423.1" y="308.6" width="7.5" height="3.3" fill="#008300"/>
<rect x="436.7" y="301.3" width="7.5" height="10.6" fill="none" stroke="#e66767" stroke-width="1.3"/>
<rect x="450.4" y="293.1" width="7.5" height="8.2" fill="none" stroke="#e66767" stroke-width="1.3"/>
<rect x="464.1" y="293.1" width="7.5" height="3.3" fill="#008300"/>
<rect x="477.7" y="288.2" width="7.5" height="8.2" fill="none" stroke="#e66767" stroke-width="1.3"/>
<rect x="491.4" y="288.2" width="7.5" height="4.9" fill="#008300"/>
<rect x="505.1" y="293.1" width="7.5" height="14.7" fill="#008300"/>
<rect x="518.7" y="302.9" width="7.5" height="4.9" fill="none" stroke="#e66767" stroke-width="1.3"/>
<rect x="532.4" y="302.9" width="7.5" height="12.3" fill="#008300"/>
<rect x="546.1" y="307.8" width="7.5" height="7.4" fill="none" stroke="#e66767" stroke-width="1.3"/>
<rect x="559.7" y="307.8" width="7.5" height="1.2" fill="#008300"/>
<rect x="573.4" y="308.6" width="7.5" height="9.0" fill="#008300"/>
<rect x="587.1" y="290.7" width="7.5" height="27.0" fill="none" stroke="#e66767" stroke-width="1.3"/>
<rect x="600.7" y="290.7" width="7.5" height="11.4" fill="#008300"/>
<rect x="614.4" y="302.1" width="7.5" height="3.3" fill="#008300"/>
<rect x="628.1" y="305.4" width="7.5" height="2.5" fill="#008300"/>
<rect x="641.7" y="307.8" width="7.5" height="10.6" fill="#008300"/>
<rect x="655.4" y="293.1" width="7.5" height="25.3" fill="none" stroke="#e66767" stroke-width="1.3"/>
<rect x="669.1" y="293.1" width="7.5" height="9.0" fill="#008300"/>
<rect x="682.7" y="302.1" width="7.5" height="8.2" fill="#008300"/>
<rect x="696.4" y="286.6" width="7.5" height="23.7" fill="none" stroke="#e66767" stroke-width="1.3"/>
<rect x="710.1" y="286.6" width="7.5" height="1.2" fill="#898781"/>
<rect x="723.7" y="286.6" width="7.5" height="22.1" fill="#008300"/>
<rect x="737.4" y="297.2" width="7.5" height="11.4" fill="none" stroke="#e66767" stroke-width="1.3"/>
<rect x="751.1" y="297.2" width="7.5" height="4.1" fill="#008300"/>
<rect x="764.7" y="301.3" width="7.5" height="32.7" fill="#008300"/>
<rect x="778.4" y="320.1" width="7.5" height="13.9" fill="none" stroke="#e66767" stroke-width="1.3"/>
<rect x="792.1" y="315.2" width="7.5" height="4.9" fill="none" stroke="#e66767" stroke-width="1.3"/>
<rect x="805.7" y="315.2" width="7.5" height="4.1" fill="#008300"/>
<rect x="819.4" y="296.4" width="7.5" height="22.9" fill="none" stroke="#e66767" stroke-width="1.3"/>
<circle cx="290.2" cy="216.3" r="2" fill="#c3c2b7"/>
<line x1="290.2" y1="216.3" x2="298.2" y2="216.3" stroke="#c3c2b7" stroke-width="1.0"/>
<text x="301.2" y="220.3" font-size="11.0" fill="#c3c2b7">171</text>
<circle cx="768.5" cy="333.9" r="2" fill="#c3c2b7"/>
<line x1="768.5" y1="333.9" x2="760.5" y2="333.9" stroke="#c3c2b7" stroke-width="1.0"/>
<text x="757.5" y="337.9" font-size="11.0" fill="#c3c2b7" text-anchor="end">27</text>
<text x="14.0" y="376.0" font-size="11.0" fill="#c3c2b7">VOL 3 forks</text>
<text x="90.6" y="376.0" font-size="11.0" fill="#c98500">MA5:3.2</text>
<text x="142.9" y="376.0" font-size="11.0" fill="#3987e5">MA10:5.5</text>
<text x="14.0" y="395.0" font-size="10" fill="#898781">25</text>
<rect x="13.1" y="411.0" width="7.5" height="59.0" fill="none" stroke="#e66767" stroke-width="1.1"/>
<rect x="26.7" y="450.3" width="7.5" height="19.7" fill="#008300"/>
<rect x="40.4" y="440.5" width="7.5" height="29.5" fill="#008300"/>
<rect x="54.1" y="453.6" width="7.5" height="16.4" fill="#008300"/>
<rect x="67.7" y="427.4" width="7.5" height="42.6" fill="#008300"/>
<rect x="81.4" y="443.8" width="7.5" height="26.2" fill="#008300"/>
<rect x="95.1" y="443.8" width="7.5" height="26.2" fill="none" stroke="#e66767" stroke-width="1.1"/>
<rect x="108.7" y="433.9" width="7.5" height="36.1" fill="#008300"/>
<rect x="122.4" y="394.6" width="7.5" height="75.4" fill="none" stroke="#e66767" stroke-width="1.1"/>
<rect x="136.1" y="427.4" width="7.5" height="42.6" fill="#008300"/>
<rect x="149.7" y="433.9" width="7.5" height="36.1" fill="none" stroke="#e66767" stroke-width="1.1"/>
<rect x="163.4" y="443.8" width="7.5" height="26.2" fill="#008300"/>
<rect x="177.1" y="443.8" width="7.5" height="26.2" fill="#008300"/>
<rect x="190.7" y="453.6" width="7.5" height="16.4" fill="#008300"/>
<rect x="204.4" y="437.2" width="7.5" height="32.8" fill="#008300"/>
<rect x="218.1" y="447.0" width="7.5" height="23.0" fill="none" stroke="#e66767" stroke-width="1.1"/>
<rect x="231.7" y="433.9" width="7.5" height="36.1" fill="none" stroke="#e66767" stroke-width="1.1"/>
<rect x="245.4" y="437.2" width="7.5" height="32.8" fill="none" stroke="#e66767" stroke-width="1.1"/>
<rect x="259.1" y="443.8" width="7.5" height="26.2" fill="none" stroke="#e66767" stroke-width="1.1"/>
<rect x="272.7" y="420.8" width="7.5" height="49.2" fill="#008300"/>
<rect x="286.4" y="388.0" width="7.5" height="82.0" fill="none" stroke="#e66767" stroke-width="1.1"/>
<rect x="300.1" y="437.2" width="7.5" height="32.8" fill="#008300"/>
<rect x="313.7" y="427.4" width="7.5" height="42.6" fill="#008300"/>
<rect x="327.4" y="456.9" width="7.5" height="13.1" fill="#008300"/>
<rect x="341.1" y="414.2" width="7.5" height="55.8" fill="#008300"/>
<rect x="354.7" y="460.2" width="7.5" height="9.8" fill="none" stroke="#e66767" stroke-width="1.1"/>
<rect x="368.4" y="440.5" width="7.5" height="29.5" fill="#008300"/>
<rect x="382.1" y="424.1" width="7.5" height="45.9" fill="none" stroke="#e66767" stroke-width="1.1"/>
<rect x="395.7" y="420.8" width="7.5" height="49.2" fill="#008300"/>
<rect x="409.4" y="453.6" width="7.5" height="16.4" fill="#008300"/>
<rect x="423.1" y="453.6" width="7.5" height="16.4" fill="#008300"/>
<rect x="436.7" y="460.2" width="7.5" height="9.8" fill="none" stroke="#e66767" stroke-width="1.1"/>
<rect x="450.4" y="456.9" width="7.5" height="13.1" fill="none" stroke="#e66767" stroke-width="1.1"/>
<rect x="464.1" y="466.7" width="7.5" height="3.3" fill="#008300"/>
<rect x="477.7" y="453.6" width="7.5" height="16.4" fill="none" stroke="#e66767" stroke-width="1.1"/>
<rect x="491.4" y="430.6" width="7.5" height="39.4" fill="#008300"/>
<rect x="505.1" y="463.4" width="7.5" height="6.6" fill="#008300"/>
<rect x="518.7" y="443.8" width="7.5" height="26.2" fill="none" stroke="#e66767" stroke-width="1.1"/>
<rect x="532.4" y="460.2" width="7.5" height="9.8" fill="#008300"/>
<rect x="546.1" y="443.8" width="7.5" height="26.2" fill="none" stroke="#e66767" stroke-width="1.1"/>
<rect x="559.7" y="443.8" width="7.5" height="26.2" fill="#008300"/>
<rect x="573.4" y="460.2" width="7.5" height="9.8" fill="#008300"/>
<rect x="587.1" y="437.2" width="7.5" height="32.8" fill="none" stroke="#e66767" stroke-width="1.1"/>
<rect x="600.7" y="443.8" width="7.5" height="26.2" fill="#008300"/>
<rect x="614.4" y="453.6" width="7.5" height="16.4" fill="#008300"/>
<rect x="628.1" y="450.3" width="7.5" height="19.7" fill="#008300"/>
<rect x="641.7" y="443.8" width="7.5" height="26.2" fill="#008300"/>
<rect x="655.4" y="430.6" width="7.5" height="39.4" fill="none" stroke="#e66767" stroke-width="1.1"/>
<rect x="669.1" y="443.8" width="7.5" height="26.2" fill="#008300"/>
<rect x="682.7" y="460.2" width="7.5" height="9.8" fill="#008300"/>
<rect x="696.4" y="447.0" width="7.5" height="23.0" fill="none" stroke="#e66767" stroke-width="1.1"/>
<rect x="710.1" y="447.0" width="7.5" height="23.0" fill="#898781"/>
<rect x="723.7" y="450.3" width="7.5" height="19.7" fill="#008300"/>
<rect x="737.4" y="440.5" width="7.5" height="29.5" fill="none" stroke="#e66767" stroke-width="1.1"/>
<rect x="751.1" y="437.2" width="7.5" height="32.8" fill="#008300"/>
<rect x="764.7" y="456.9" width="7.5" height="13.1" fill="#008300"/>
<rect x="778.4" y="456.9" width="7.5" height="13.1" fill="none" stroke="#e66767" stroke-width="1.1"/>
<rect x="805.7" y="453.6" width="7.5" height="16.4" fill="#008300"/>
<rect x="819.4" y="460.2" width="7.5" height="9.8" fill="none" stroke="#e66767" stroke-width="1.1"/>
<polyline points="16.8,426.4 30.5,428.3 44.2,429.0 57.8,432.0 71.5,436.2 85.2,437.5 98.8,438.2 112.5,437.5 126.2,432.9 139.8,432.6 153.5,434.9 167.2,434.2 180.8,434.6 194.5,434.6 208.2,435.6 221.8,435.9 235.5,434.9 249.2,435.2 262.8,440.2 276.5,439.5 290.2,434.9 303.8,434.2 317.5,432.6 331.2,432.9 344.8,430.6 358.5,432.0 372.2,432.6 385.8,431.3 399.5,429.0 413.2,432.3 426.8,438.8 440.5,441.1 454.2,444.1 467.8,445.1 481.5,449.0 495.2,446.1 508.8,448.4 522.5,450.3 536.2,454.3 549.8,453.3 563.5,452.3 577.2,452.3 590.8,450.3 604.5,448.0 618.2,448.0 631.8,450.0 645.5,448.0 659.2,446.7 672.8,445.1 686.5,446.7 700.2,447.0 713.8,445.7 727.5,447.0 741.2,446.7 754.8,445.1 768.5,445.7 782.2,447.0 795.8,451.0 809.5,452.0 823.2,452.0" fill="none" stroke="#3987e5" stroke-width="1.5" stroke-linejoin="round" stroke-linecap="round"/>
<polyline points="16.8,432.0 30.5,434.6 44.2,434.6 57.8,437.2 71.5,436.5 85.2,443.1 98.8,441.8 112.5,440.5 126.2,428.7 139.8,428.7 153.5,426.7 167.2,426.7 180.8,428.7 194.5,440.5 208.2,442.4 221.8,445.1 235.5,443.1 249.2,441.8 262.8,439.8 276.5,436.5 290.2,424.7 303.8,425.4 317.5,423.4 331.2,426.0 344.8,424.7 358.5,439.2 372.2,439.8 385.8,439.2 399.5,432.0 413.2,439.8 426.8,438.5 440.5,442.4 454.2,449.0 467.8,458.2 481.5,458.2 495.2,453.6 508.8,454.3 522.5,451.6 536.2,450.3 549.8,448.4 563.5,451.0 577.2,450.3 590.8,449.0 604.5,445.7 618.2,447.7 631.8,449.0 645.5,445.7 659.2,444.4 672.8,444.4 686.5,445.7 700.2,445.1 713.8,445.7 727.5,449.7 741.2,449.0 754.8,444.4 768.5,446.4 782.2,448.4 795.8,452.3 809.5,454.9 823.2,459.5" fill="none" stroke="#c98500" stroke-width="1.5" stroke-linejoin="round" stroke-linecap="round"/>
</svg>