<svg xmlns="http://www.w3.org/2000/svg" viewBox="0 0 840 496" width="840" height="496" font-family="-apple-system,&#39;Segoe UI&#39;,system-ui,sans-serif" role="img" aria-label="EbookFoundation/free-programming-books candlestick chart">
<text x="14.0" y="20.0" font-size="15" fill="#ffffff" font-weight="650">EbookFoundation/free-programming-books</text>
<text x="331.5" y="20.0" font-size="11.5" fill="#c3c2b7">daily · new stars, volume = new forks</text>
<text x="805.8" y="20.0" font-size="11.0" fill="#c3c2b7">fall</text>
<rect x="791" y="10" width="9" height="12" fill="#008300"/>
<text x="750.6" y="20.0" font-size="11.0" fill="#c3c2b7">rise</text>
<rect x="736" y="10" width="9" height="12" fill="none" stroke="#e66767" stroke-width="1.5"/>
<text x="14.0" y="38.0" font-size="11.0" fill="#898781">last 60 days · +4,548 stars · +438 forks · updated 2026-07-22</text>
<rect x="10" y="66" width="820" height="290" fill="none" stroke="#2c2c2a"/>
<rect x="10" y="384" width="820" height="86" fill="none" stroke="#2c2c2a"/>
<text x="38.0" y="490.0" font-size="11.0" fill="#898781" text-anchor="middle">2026-05</text>
<line x1="119.3" y1="66.0" x2="119.3" y2="356.0" stroke="#2c2c2a" stroke-width="1.0"/>
<line x1="119.3" y1="384.0" x2="119.3" y2="470.0" stroke="#2c2c2a" stroke-width="1.0"/>
<text x="126.2" y="490.0" font-size="11.0" fill="#898781" text-anchor="middle">2026-06</text>
<line x1="529.3" y1="66.0" x2="529.3" y2="356.0" stroke="#2c2c2a" stroke-width="1.0"/>
<line x1="529.3" y1="384.0" x2="529.3" y2="470.0" stroke="#2c2c2a" stroke-width="1.0"/>
<text x="536.2" y="490.0" font-size="11.0" fill="#898781" text-anchor="middle">2026-07</text>
<text x="14.0" y="58.0" font-size="11.0" fill="#c3c2b7">BOLL(20,2)</text>
<text x="84.5" y="58.0" font-size="11.0" fill="#c98500">UP:150.8</text>
<text x="142.9" y="58.0" font-size="11.0" fill="#3987e5">MID:78.5</text>
<text x="201.3" y="58.0" font-size="11.0" fill="#d55181">LOW:6.2</text>
<text x="253.7" y="58.0" font-size="11.0" fill="#9085e9">MA7:76.7</text>
<line x1="10.0" y1="356.0" x2="830.0" y2="356.0" stroke="#2c2c2a" stroke-width="1.0"/>
<text x="14.0" y="353.0" font-size="11.0" fill="#898781">0</text>
<line x1="10.0" y1="212.2" x2="830.0" y2="212.2" stroke="#2c2c2a" stroke-width="1.0"/>
<text x="14.0" y="209.2" font-size="11.0" fill="#898781">100</text>
<line x1="10.0" y1="68.3" x2="830.0" y2="68.3" stroke="#2c2c2a" stroke-width="1.0"/>
<text x="14.0" y="65.3" font-size="11.0" fill="#898781">200</text>
<polyline points="16.8,198.0 30.5,196.6 44.2,196.5 57.8,198.6 71.5,199.0 85.2,199.0 98.8,198.5 112.5,196.8 126.2,195.0 139.8,162.8 153.5,159.8 167.2,159.7 180.8,159.7 194.5,159.3 208.2,159.9 221.8,161.4 235.5,156.9 249.2,156.9 262.8,156.5 276.5,160.1 290.2,163.4 303.8,164.4 317.5,164.4 331.2,164.3 344.8,164.2 358.5,163.9 372.2,164.6 385.8,165.5 399.5,167.1 413.2,205.1 426.8,213.7 440.5,215.8 454.2,216.2 467.8,216.3 481.5,217.3 495.2,217.1 508.8,231.4 522.5,233.0 536.2,232.9 549.8,228.8 563.5,225.3 577.2,227.0 590.8,227.2 604.5,230.3 618.2,227.3 631.8,226.8 645.5,227.3 659.2,227.0 672.8,225.3 686.5,224.1 700.2,188.4 713.8,145.7 727.5,142.7 741.2,140.9 754.8,140.9 768.5,139.5 782.2,139.1 795.8,138.5 809.5,138.3 823.2,139.0" fill="none" stroke="#c98500" stroke-width="1.5" stroke-linejoin="round" stroke-linecap="round"/>
<polyline points="16.8,242.0 30.5,241.0 44.2,242.1 57.8,245.0 71.5,244.5 85.2,244.4 98.8,244.1 112.5,243.2 126.2,241.9 139.8,236.6 153.5,235.2 167.2,235.2 180.8,234.9 194.5,235.3 208.2,233.9 221.8,235.5 235.5,232.0 249.2,231.5 262.8,232.0 276.5,236.2 290.2,238.8 303.8,239.7 317.5,239.0 331.2,237.0 344.8,236.3 358.5,237.3 372.2,238.8 385.8,241.8 399.5,244.1 413.2,252.2 426.8,256.7 440.5,257.3 454.2,257.8 467.8,257.4 481.5,258.5 495.2,260.4 508.8,263.0 522.5,263.7 536.2,263.9 549.8,261.6 563.5,260.3 577.2,261.7 590.8,261.8 604.5,262.9 618.2,266.5 631.8,267.6 645.5,268.7 659.2,269.0 672.8,268.0 686.5,267.2 700.2,259.5 713.8,251.4 727.5,249.3 741.2,247.5 754.8,247.8 768.5,244.8 782.2,244.4 795.8,243.6 809.5,242.4 823.2,243.1" fill="none" stroke="#3987e5" stroke-width="1.5" stroke-linejoin="round" stroke-linecap="round"/>
<polyline points="16.8,286.0 30.5,285.3 44.2,287.7 57.8,291.4 71.5,290.0 85.2,289.8 98.8,289.7 112.5,289.7 126.2,288.9 139.8,310.4 153.5,310.7 167.2,310.7 180.8,310.1 194.5,311.3 208.2,307.9 221.8,309.7 235.5,307.1 249.2,306.1 262.8,307.5 276.5,312.3 290.2,314.3 303.8,315.0 317.5,313.6 331.2,309.8 344.8,308.4 358.5,310.6 372.2,312.9 385.8,318.1 399.5,321.0 413.2,299.4 426.8,299.6 440.5,298.9 454.2,299.3 467.8,298.5 481.5,299.8 495.2,303.7 508.8,294.6 522.5,294.5 536.2,294.8 549.8,294.4 563.5,295.3 577.2,296.4 590.8,296.4 604.5,295.6 618.2,305.8 631.8,308.4 645.5,310.0 659.2,311.1 672.8,310.8 686.5,310.2 700.2,330.5 713.8,356.0 727.5,355.9 741.2,354.0 754.8,354.6 768.5,350.1 782.2,349.8 795.8,348.6 809.5,346.4 823.2,347.1" fill="none" stroke="#d55181" stroke-width="1.5" stroke-linejoin="round" stroke-linecap="round"/>
<polyline points="16.8,240.1 30.5,233.3 44.2,239.6 57.8,241.4 71.5,241.8 85.2,240.3 98.8,245.7 112.5,248.1 126.2,247.7 139.8,225.5 153.5,214.6 167.2,210.1 180.8,210.1 194.5,216.0 208.2,219.5 221.8,223.5 235.5,235.3 249.2,242.2 262.8,248.5 276.5,252.3 290.2,250.1 303.8,249.7 317.5,249.6 331.2,255.7 344.8,255.4 358.5,255.3 372.2,253.0 385.8,256.6 399.5,260.2 413.2,263.4 426.8,270.7 440.5,270.1 454.2,268.7 467.8,269.3 481.5,267.4 495.2,270.1 508.8,266.2 522.5,262.4 536.2,267.2 549.8,263.4 563.5,258.6 577.2,258.8 590.8,253.4 604.5,255.4 618.2,263.5 631.8,266.0 645.5,273.1 659.2,281.3 672.8,278.3 686.5,278.8 700.2,260.9 713.8,227.0 727.5,216.3 741.2,208.7 754.8,206.5 768.5,203.7 782.2,201.2 795.8,216.9 809.5,241.4 823.2,245.7" fill="none" stroke="#9085e9" stroke-width="1.5" stroke-linejoin="round" stroke-linecap="round"/>
<rect x="13.1" y="194.9" width="7.5" height="11.5" fill="#008300"/>
<rect x="26.7" y="206.4" width="7.5" height="21.6" fill="#008300"/>
<rect x="40.4" y="228.0" width="7.5" height="37.4" fill="#008300"/>
<rect x="54.1" y="265.4" width="7.5" height="10.1" fill="#008300"/>
<rect x="67.7" y="259.6" width="7.5" height="15.8" fill="none" stroke="#e66767" stroke-width="1.3"/>
<rect x="81.4" y="252.4" width="7.5" height="7.2" fill="none" stroke="#e66767" stroke-width="1.3"/>
<rect x="95.1" y="232.3" width="7.5" height="20.1" fill="none" stroke="#e66767" stroke-width="1.3"/>
<rect x="108.7" y="223.7" width="7.5" height="8.6" fill="none" stroke="#e66767" stroke-width="1.3"/>
<rect x="122.4" y="223.7" width="7.5" height="1.4" fill="#008300"/>
<rect x="136.1" y="110.0" width="7.5" height="115.1" fill="none" stroke="#e66767" stroke-width="1.3"/>
<rect x="149.7" y="110.0" width="7.5" height="89.2" fill="#008300"/>
<rect x="163.4" y="199.2" width="7.5" height="28.8" fill="#008300"/>
<rect x="177.1" y="228.0" width="7.5" height="24.5" fill="#008300"/>
<rect x="190.7" y="252.4" width="7.5" height="21.6" fill="#008300"/>
<rect x="204.4" y="248.1" width="7.5" height="25.9" fill="none" stroke="#e66767" stroke-width="1.3"/>
<rect x="218.1" y="248.1" width="7.5" height="4.3" fill="#008300"/>
<rect x="231.7" y="193.5" width="7.5" height="59.0" fill="none" stroke="#e66767" stroke-width="1.3"/>
<rect x="245.4" y="193.5" width="7.5" height="53.2" fill="#008300"/>
<rect x="259.1" y="246.7" width="7.5" height="25.9" fill="#008300"/>
<rect x="272.7" y="272.6" width="7.5" height="5.8" fill="#008300"/>
<rect x="286.4" y="259.6" width="7.5" height="18.7" fill="none" stroke="#e66767" stroke-width="1.3"/>
<rect x="300.1" y="245.2" width="7.5" height="14.4" fill="none" stroke="#e66767" stroke-width="1.3"/>
<rect x="313.7" y="245.2" width="7.5" height="5.8" fill="#008300"/>
<rect x="327.4" y="236.6" width="7.5" height="14.4" fill="none" stroke="#e66767" stroke-width="1.3"/>
<rect x="341.1" y="236.6" width="7.5" height="8.6" fill="#008300"/>
<rect x="354.7" y="245.2" width="7.5" height="25.9" fill="#008300"/>
<rect x="368.4" y="262.5" width="7.5" height="8.6" fill="none" stroke="#e66767" stroke-width="1.3"/>
<rect x="382.1" y="262.5" width="7.5" height="21.6" fill="#008300"/>
<rect x="395.7" y="271.1" width="7.5" height="12.9" fill="none" stroke="#e66767" stroke-width="1.3"/>
<rect x="409.4" y="271.1" width="7.5" height="1.4" fill="#008300"/>
<rect x="423.1" y="272.6" width="7.5" height="15.8" fill="#008300"/>
<rect x="436.7" y="240.9" width="7.5" height="47.5" fill="none" stroke="#e66767" stroke-width="1.3"/>
<rect x="450.4" y="240.9" width="7.5" height="20.1" fill="#008300"/>
<rect x="464.1" y="261.1" width="7.5" height="5.8" fill="#008300"/>
<rect x="477.7" y="266.8" width="7.5" height="4.3" fill="#008300"/>
<rect x="491.4" y="271.1" width="7.5" height="18.7" fill="#008300"/>
<rect x="505.1" y="245.2" width="7.5" height="44.6" fill="none" stroke="#e66767" stroke-width="1.3"/>
<rect x="518.7" y="245.2" width="7.5" height="15.8" fill="#008300"/>
<rect x="532.4" y="261.1" width="7.5" height="14.4" fill="#008300"/>
<rect x="546.1" y="233.7" width="7.5" height="41.7" fill="none" stroke="#e66767" stroke-width="1.3"/>
<rect x="559.7" y="233.7" width="7.5" height="1.2" fill="#898781"/>
<rect x="573.4" y="233.7" width="7.5" height="38.8" fill="#008300"/>
<rect x="587.1" y="252.4" width="7.5" height="20.1" fill="none" stroke="#e66767" stroke-width="1.3"/>
<rect x="600.7" y="252.4" width="7.5" height="7.2" fill="#008300"/>
<rect x="614.4" y="259.6" width="7.5" height="57.5" fill="#008300"/>
<rect x="628.1" y="292.7" width="7.5" height="24.5" fill="none" stroke="#e66767" stroke-width="1.3"/>
<rect x="641.7" y="284.1" width="7.5" height="8.6" fill="none" stroke="#e66767" stroke-width="1.3"/>
<rect x="655.4" y="284.1" width="7.5" height="7.2" fill="#008300"/>
<rect x="669.1" y="251.0" width="7.5" height="40.3" fill="none" stroke="#e66767" stroke-width="1.3"/>
<rect x="682.7" y="251.0" width="7.5" height="4.3" fill="#008300"/>
<rect x="696.4" y="134.5" width="7.5" height="120.8" fill="none" stroke="#e66767" stroke-width="1.3"/>
<rect x="710.1" y="79.8" width="7.5" height="54.7" fill="none" stroke="#e66767" stroke-width="1.3"/>
<rect x="723.7" y="79.8" width="7.5" height="138.1" fill="#008300"/>
<rect x="737.4" y="217.9" width="7.5" height="12.9" fill="#008300"/>
<rect x="751.1" y="230.9" width="7.5" height="46.0" fill="#008300"/>
<rect x="764.7" y="230.9" width="7.5" height="46.0" fill="none" stroke="#e66767" stroke-width="1.3"/>
<rect x="778.4" y="230.9" width="7.5" height="7.2" fill="#008300"/>
<rect x="792.1" y="238.0" width="7.5" height="5.8" fill="#008300"/>
<rect x="805.7" y="243.8" width="7.5" height="7.2" fill="#008300"/>
<rect x="819.4" y="248.1" width="7.5" height="2.9" fill="none" stroke="#e66767" stroke-width="1.3"/>
<circle cx="713.8" cy="79.8" r="2" fill="#c3c2b7"/>
<line x1="713.8" y1="79.8" x2="705.8" y2="79.8" stroke="#c3c2b7" stroke-width="1.0"/>
<text x="702.8" y="83.8" font-size="11.0" fill="#c3c2b7" text-anchor="end">192</text>
<circle cx="618.2" cy="317.2" r="2" fill="#c3c2b7"/>
<line x1="618.2" y1="317.2" x2="610.2" y2="317.2" stroke="#c3c2b7" stroke-width="1.0"/>
<text x="607.2" y="321.2" font-size="11.0" fill="#c3c2b7" text-anchor="end">27</text>
<text x="14.0" y="376.0" font-size="11.0" fill="#c3c2b7">VOL 8 forks</text>
<text x="90.6" y="376.0" font-size="11.0" fill="#c98500">MA5:6</text>
<text x="130.8" y="376.0" font-size="11.0" fill="#3987e5">MA10:6</text>
<text x="14.0" y="395.0" font-size="10" fill="#898781">25</text>
<rect x="13.1" y="443.8" width="7.5" height="26.2" fill="#008300"/>
<rect x="26.7" y="443.8" width="7.5" height="26.2" fill="#008300"/>
<rect x="40.4" y="453.6" width="7.5" height="16.4" fill="#008300"/>
<rect x="54.1" y="437.2" width="7.5" height="32.8" fill="#008300"/>
<rect x="67.7" y="447.0" width="7.5" height="23.0" fill="none" stroke="#e66767" stroke-width="1.1"/>
<rect x="81.4" y="433.9" width="7.5" height="36.1" fill="none" stroke="#e66767" stroke-width="1.1"/>
<rect x="95.1" y="437.2" width="7.5" height="32.8" fill="none" stroke="#e66767" stroke-width="1.1"/>
<rect x="108.7" y="443.8" width="7.5" height="26.2" fill="none" stroke="#e66767" stroke-width="1.1"/>
<rect x="122.4" y="420.8" width="7.5" height="49.2" fill="#008300"/>
<rect x="136.1" y="388.0" width="7.5" height="82.0" fill="none" stroke="#e66767" stroke-width="1.1"/>
<rect x="149.7" y="437.2" width="7.5" height="32.8" fill="#008300"/>
<rect x="163.4" y="427.4" width="7.5" height="42.6" fill="#008300"/>
<rect x="177.1" y="456.9" width="7.5" height="13.1" fill="#008300"/>
<rect x="190.7" y="414.2" width="7.5" height="55.8" fill="#008300"/>
<rect x="204.4" y="460.2" width="7.5" height="9.8" fill="none" stroke="#e66767" stroke-width="1.1"/>
<rect x="218.1" y="440.5" width="7.5" height="29.5" fill="#008300"/>
<rect x="231.7" y="424.1" width="7.5" height="45.9" fill="none" stroke="#e66767" stroke-width="1.1"/>
<rect x="245.4" y="420.8" width="7.5" height="49.2" fill="#008300"/>
<rect x="259.1" y="453.6" width="7.5" height="16.4" fill="#008300"/>
<rect x="272.7" y="453.6" width="7.5" height="16.4" fill="#008300"/>
<rect x="286.4" y="460.2" width="7.5" height="9.8" fill="none" stroke="#e66767" stroke-width="1.1"/>
<rect x="300.1" y="456.9" width="7.5" height="13.1" fill="none" stroke="#e66767" stroke-width="1.1"/>
<rect x="313.7" y="466.7" width="7.5" height="3.3" fill="#008300"/>
<rect x="327.4" y="453.6" width="7.5" height="16.4" fill="none" stroke="#e66767" stroke-width="1.1"/>
<rect x="341.1" y="430.6" width="7.5" height="39.4" fill="#008300"/>
<rect x="354.7" y="463.4" width="7.5" height="6.6" fill="#008300"/>
<rect x="368.4" y="443.8" width="7.5" height="26.2" fill="none" stroke="#e66767" stroke-width="1.1"/>
<rect x="382.1" y="460.2" width="7.5" height="9.8" fill="#008300"/>
<rect x="395.7" y="443.8" width="7.5" height="26.2" fill="none" stroke="#e66767" stroke-width="1.1"/>
<rect x="409.4" y="443.8" width="7.5" height="26.2" fill="#008300"/>
<rect x="423.1" y="460.2" width="7.5" height="9.8" fill="#008300"/>
<rect x="436.7" y="437.2" width="7.5" height="32.8" fill="none" stroke="#e66767" stroke-width="1.1"/>
<rect x="450.4" y="443.8" width="7.5" height="26.2" fill="#008300"/>
<rect x="464.1" y="453.6" width="7.5" height="16.4" fill="#008300"/>
<rect x="477.7" y="450.3" width="7.5" height="19.7" fill="#008300"/>
<rect x="491.4" y="443.8" width="7.5" height="26.2" fill="#008300"/>
<rect x="505.1" y="430.6" width="7.5" height="39.4" fill="none" stroke="#e66767" stroke-width="1.1"/>
<rect x="518.7" y="443.8" width="7.5" height="26.2" fill="#008300"/>
<rect x="532.4" y="460.2" width="7.5" height="9.8" fill="#008300"/>
<rect x="546.1" y="447.0" width="7.5" height="23.0" fill="none" stroke="#e66767" stroke-width="1.1"/>
<rect x="559.7" y="447.0" width="7.5" height="23.0" fill="#898781"/>
<rect x="573.4" y="450.3" width="7.5" height="19.7" fill="#008300"/>
<rect x="587.1" y="440.5" width="7.5" height="29.5" fill="none" stroke="#e66767" stroke-width="1.1"/>
<rect x="600.7" y="437.2" width="7.5" height="32.8" fill="#008300"/>
<rect x="614.4" y="456.9" width="7.5" height="13.1" fill="#008300"/>
<rect x="628.1" y="456.9" width="7.5" height="13.1" fill="none" stroke="#e66767" stroke-width="1.1"/>
<rect x="655.4" y="453.6" width="7.5" height="16.4" fill="#008300"/>
<rect x="669.1" y="460.2" width="7.5" height="9.8" fill="none" stroke="#e66767" stroke-width="1.1"/>
<rect x="682.7" y="456.9" width="7.5" height="13.1" fill="#008300"/>
<rect x="696.4" y="433.9" width="7.5" height="36.1" fill="none" stroke="#e66767" stroke-width="1.1"/>
<rect x="710.1" y="437.2" width="7.5" height="32.8" fill="none" stroke="#e66767" stroke-width="1.1"/>
<rect x="723.7" y="456.9" width="7.5" height="13.1" fill="#008300"/>
<rect x="737.4" y="456.9" width="7.5" height="13.1" fill="#008300"/>
<rect x="751.1" y="466.7" width="7.5" height="3.3" fill="#008300"/>
<rect x="764.7" y="453.6" width="7.5" height="16.4" fill="none" stroke="#e66767" stroke-width="1.1"/>
<rect x="778.4" y="443.8" width="7.5" height="26.2" fill="#008300"/>
<rect x="792.1" y="440.5" width="7.5" height="29.5" fill="#008300"/>
<rect x="819.4" y="443.8" width="7.5" height="26.2" fill="none" stroke="#e66767" stroke-width="1.1"/>
<polyline points="16.8,434.2 30.5,434.6 44.2,434.6 57.8,435.6 71.5,435.9 85.2,434.9 98.8,435.2 112.5,440.2 126.2,439.5 139.8,434.9 153.5,434.2 167.2,432.6 180.8,432.9 194.5,430.6 208.2,432.0 221.8,432.6 235.5,431.3 249.2,429.0 262.8,432.3 276.5,438.8 290.2,441.1 303.8,444.1 317.5,445.1 331.2,449.0 344.8,446.1 358.5,448.4 372.2,450.3 385.8,454.3 399.5,453.3 413.2,452.3 426.8,452.3 440.5,450.3 454.2,448.0 467.8,448.0 481.5,450.0 495.2,448.0 508.8,446.7 522.5,445.1 536.2,446.7 549.8,447.0 563.5,445.7 577.2,447.0 590.8,446.7 604.5,445.1 618.2,445.7 631.8,447.0 645.5,451.0 659.2,452.0 672.8,452.0 686.5,452.9 700.2,451.6 713.8,450.3 727.5,452.0 741.2,453.9 754.8,454.9 768.5,454.6 782.2,452.0 795.8,450.6 809.5,451.6 823.2,450.3" fill="none" stroke="#3987e5" stroke-width="1.5" stroke-linejoin="round" stroke-linecap="round"/>
<polyline points="16.8,426.7 30.5,428.7 44.2,440.5 57.8,442.4 71.5,445.1 85.2,443.1 98.8,441.8 112.5,439.8 126.2,436.5 139.8,424.7 153.5,425.4 167.2,423.4 180.8,426.0 194.5,424.7 208.2,439.2 221.8,439.8 235.5,439.2 249.2,432.0 262.8,439.8 276.5,438.5 290.2,442.4 303.8,449.0 317.5,458.2 331.2,458.2 344.8,453.6 358.5,454.3 372.2,451.6 385.8,450.3 399.5,448.4 413.2,451.0 426.8,450.3 440.5,449.0 454.2,445.7 467.8,447.7 481.5,449.0 495.2,445.7 508.8,444.4 522.5,444.4 536.2,445.7 549.8,445.1 563.5,445.7 577.2,449.7 590.8,449.0 604.5,444.4 618.2,446.4 631.8,448.4 645.5,452.3 659.2,454.9 672.8,459.5 686.5,459.5 700.2,454.9 713.8,448.4 727.5,449.0 741.2,448.4 754.8,450.3 768.5,454.3 782.2,455.6 795.8,452.3 809.5,454.9 823.2,450.3" fill="none" stroke="#c98500" stroke-width="1.5" stroke-linejoin="round" stroke-linecap="round"/>
</svg>