<svg xmlns="http://www.w3.org/2000/svg" viewBox="0 0 840 496" width="840" height="496" font-family="-apple-system,&#39;Segoe UI&#39;,system-ui,sans-serif" role="img" aria-label="EbookFoundation/free-programming-books candlestick chart">
<text x="14.0" y="20.0" font-size="15" fill="#0b0b0b" font-weight="650">EbookFoundation/free-programming-books</text>
<text x="331.5" y="20.0" font-size="11.5" fill="#52514e">daily · new stars, volume = new forks</text>
<text x="805.8" y="20.0" font-size="11.0" fill="#52514e">fall</text>
<rect x="791" y="10" width="9" height="12" fill="#008300"/>
<text x="750.6" y="20.0" font-size="11.0" fill="#52514e">rise</text>
<rect x="736" y="10" width="9" height="12" fill="none" stroke="#e34948" stroke-width="1.5"/>
<text x="14.0" y="38.0" font-size="11.0" fill="#898781">last 60 days · +4,558 stars · +430 forks · updated 2026-07-24</text>
<rect x="10" y="66" width="820" height="290" fill="none" stroke="#e1e0d9"/>
<rect x="10" y="384" width="820" height="86" fill="none" stroke="#e1e0d9"/>
<text x="38.0" y="490.0" font-size="11.0" fill="#898781" text-anchor="middle">2026-05</text>
<line x1="92.0" y1="66.0" x2="92.0" y2="356.0" stroke="#e1e0d9" stroke-width="1.0"/>
<line x1="92.0" y1="384.0" x2="92.0" y2="470.0" stroke="#e1e0d9" stroke-width="1.0"/>
<line x1="502.0" y1="66.0" x2="502.0" y2="356.0" stroke="#e1e0d9" stroke-width="1.0"/>
<line x1="502.0" y1="384.0" x2="502.0" y2="470.0" stroke="#e1e0d9" stroke-width="1.0"/>
<text x="508.8" y="490.0" font-size="11.0" fill="#898781" text-anchor="middle">2026-07</text>
<text x="14.0" y="58.0" font-size="11.0" fill="#52514e">BOLL(20,2)</text>
<text x="84.5" y="58.0" font-size="11.0" fill="#eda100">UP:156.0</text>
<text x="142.9" y="58.0" font-size="11.0" fill="#2a78d6">MID:81.5</text>
<text x="201.3" y="58.0" font-size="11.0" fill="#e87ba4">LOW:7.0</text>
<text x="253.7" y="58.0" font-size="11.0" fill="#4a3aa7">MA7:85.4</text>
<line x1="10.0" y1="356.0" x2="830.0" y2="356.0" stroke="#e1e0d9" stroke-width="1.0"/>
<text x="14.0" y="353.0" font-size="11.0" fill="#898781">0</text>
<line x1="10.0" y1="212.2" x2="830.0" y2="212.2" stroke="#e1e0d9" stroke-width="1.0"/>
<text x="14.0" y="209.2" font-size="11.0" fill="#898781">100</text>
<line x1="10.0" y1="68.3" x2="830.0" y2="68.3" stroke="#e1e0d9" stroke-width="1.0"/>
<text x="14.0" y="65.3" font-size="11.0" fill="#898781">200</text>
<polyline points="16.8,196.5 30.5,198.6 44.2,199.0 57.8,199.0 71.5,198.5 85.2,196.8 98.8,195.0 112.5,162.8 126.2,159.8 139.8,159.7 153.5,159.7 167.2,159.3 180.8,159.9 194.5,161.4 208.2,156.9 221.8,156.9 235.5,156.5 249.2,160.1 262.8,163.4 276.5,164.4 290.2,164.4 303.8,164.3 317.5,164.2 331.2,163.9 344.8,164.6 358.5,165.5 372.2,167.1 385.8,205.1 399.5,213.7 413.2,215.8 426.8,216.2 440.5,216.3 454.2,217.3 467.8,217.1 481.5,231.4 495.2,233.0 508.8,232.9 522.5,228.8 536.2,225.3 549.8,227.0 563.5,227.2 577.2,230.3 590.8,227.3 604.5,226.8 618.2,227.3 631.8,227.0 645.5,225.3 659.2,224.1 672.8,188.4 686.5,145.7 700.2,142.7 713.8,140.9 727.5,140.9 741.2,139.5 754.8,139.1 768.5,138.5 782.2,138.3 795.8,139.0 809.5,139.7 823.2,131.6" fill="none" stroke="#eda100" stroke-width="1.5" stroke-linejoin="round" stroke-linecap="round"/>
<polyline points="16.8,242.1 30.5,245.0 44.2,244.5 57.8,244.4 71.5,244.1 85.2,243.2 98.8,241.9 112.5,236.6 126.2,235.2 139.8,235.2 153.5,234.9 167.2,235.3 180.8,233.9 194.5,235.5 208.2,232.0 221.8,231.5 235.5,232.0 249.2,236.2 262.8,238.8 276.5,239.7 290.2,239.0 303.8,237.0 317.5,236.3 331.2,237.3 344.8,238.8 358.5,241.8 372.2,244.1 385.8,252.2 399.5,256.7 413.2,257.3 426.8,257.8 440.5,257.4 454.2,258.5 467.8,260.4 481.5,263.0 495.2,263.7 508.8,263.9 522.5,261.6 536.2,260.3 549.8,261.7 563.5,261.8 577.2,262.9 590.8,266.5 604.5,267.6 618.2,268.7 631.8,269.0 645.5,268.0 659.2,267.2 672.8,259.5 686.5,251.4 700.2,249.3 713.8,247.5 727.5,247.8 741.2,244.8 754.8,244.4 768.5,243.6 782.2,242.4 795.8,243.1 809.5,243.7 823.2,238.8" fill="none" stroke="#2a78d6" stroke-width="1.5" stroke-linejoin="round" stroke-linecap="round"/>
<polyline points="16.8,287.7 30.5,291.4 44.2,290.0 57.8,289.8 71.5,289.7 85.2,289.7 98.8,288.9 112.5,310.4 126.2,310.7 139.8,310.7 153.5,310.1 167.2,311.3 180.8,307.9 194.5,309.7 208.2,307.1 221.8,306.1 235.5,307.5 249.2,312.3 262.8,314.3 276.5,315.0 290.2,313.6 303.8,309.8 317.5,308.4 331.2,310.6 344.8,312.9 358.5,318.1 372.2,321.0 385.8,299.4 399.5,299.6 413.2,298.9 426.8,299.3 440.5,298.5 454.2,299.8 467.8,303.7 481.5,294.6 495.2,294.5 508.8,294.8 522.5,294.4 536.2,295.3 549.8,296.4 563.5,296.4 577.2,295.6 590.8,305.8 604.5,308.4 618.2,310.0 631.8,311.1 645.5,310.8 659.2,310.2 672.8,330.5 686.5,356.0 700.2,355.9 713.8,354.0 727.5,354.6 741.2,350.1 754.8,349.8 768.5,348.6 782.2,346.4 795.8,347.1 809.5,347.6 823.2,346.0" fill="none" stroke="#e87ba4" stroke-width="1.5" stroke-linejoin="round" stroke-linecap="round"/>
<polyline points="16.8,239.6 30.5,241.4 44.2,241.8 57.8,240.3 71.5,245.7 85.2,248.1 98.8,247.7 112.5,225.5 126.2,214.6 139.8,210.1 153.5,210.1 167.2,216.0 180.8,219.5 194.5,223.5 208.2,235.3 221.8,242.2 235.5,248.5 249.2,252.3 262.8,250.1 276.5,249.7 290.2,249.6 303.8,255.7 317.5,255.4 331.2,255.3 344.8,253.0 358.5,256.6 372.2,260.2 385.8,263.4 399.5,270.7 413.2,270.1 426.8,268.7 440.5,269.3 454.2,267.4 467.8,270.1 481.5,266.2 495.2,262.4 508.8,267.2 522.5,263.4 536.2,258.6 549.8,258.8 563.5,253.4 577.2,255.4 590.8,263.5 604.5,266.0 618.2,273.1 631.8,281.3 645.5,278.3 659.2,278.8 672.8,260.9 686.5,227.0 700.2,216.3 713.8,208.7 727.5,206.5 741.2,203.7 754.8,201.2 768.5,216.9 782.2,241.4 795.8,245.7 809.5,247.7 823.2,233.2" fill="none" stroke="#4a3aa7" stroke-width="1.5" stroke-linejoin="round" stroke-linecap="round"/>
<rect x="13.1" y="228.0" width="7.5" height="37.4" fill="#008300"/>
<rect x="26.7" y="265.4" width="7.5" height="10.1" fill="#008300"/>
<rect x="40.4" y="259.6" width="7.5" height="15.8" fill="none" stroke="#e34948" stroke-width="1.3"/>
<rect x="54.1" y="252.4" width="7.5" height="7.2" fill="none" stroke="#e34948" stroke-width="1.3"/>
<rect x="67.7" y="232.3" width="7.5" height="20.1" fill="none" stroke="#e34948" stroke-width="1.3"/>
<rect x="81.4" y="223.7" width="7.5" height="8.6" fill="none" stroke="#e34948" stroke-width="1.3"/>
<rect x="95.1" y="223.7" width="7.5" height="1.4" fill="#008300"/>
<rect x="108.7" y="110.0" width="7.5" height="115.1" fill="none" stroke="#e34948" stroke-width="1.3"/>
<rect x="122.4" y="110.0" width="7.5" height="89.2" fill="#008300"/>
<rect x="136.1" y="199.2" width="7.5" height="28.8" fill="#008300"/>
<rect x="149.7" y="228.0" width="7.5" height="24.5" fill="#008300"/>
<rect x="163.4" y="252.4" width="7.5" height="21.6" fill="#008300"/>
<rect x="177.1" y="248.1" width="7.5" height="25.9" fill="none" stroke="#e34948" stroke-width="1.3"/>
<rect x="190.7" y="248.1" width="7.5" height="4.3" fill="#008300"/>
<rect x="204.4" y="193.5" width="7.5" height="59.0" fill="none" stroke="#e34948" stroke-width="1.3"/>
<rect x="218.1" y="193.5" width="7.5" height="53.2" fill="#008300"/>
<rect x="231.7" y="246.7" width="7.5" height="25.9" fill="#008300"/>
<rect x="245.4" y="272.6" width="7.5" height="5.8" fill="#008300"/>
<rect x="259.1" y="259.6" width="7.5" height="18.7" fill="none" stroke="#e34948" stroke-width="1.3"/>
<rect x="272.7" y="245.2" width="7.5" height="14.4" fill="none" stroke="#e34948" stroke-width="1.3"/>
<rect x="286.4" y="245.2" width="7.5" height="5.8" fill="#008300"/>
<rect x="300.1" y="236.6" width="7.5" height="14.4" fill="none" stroke="#e34948" stroke-width="1.3"/>
<rect x="313.7" y="236.6" width="7.5" height="8.6" fill="#008300"/>
<rect x="327.4" y="245.2" width="7.5" height="25.9" fill="#008300"/>
<rect x="341.1" y="262.5" width="7.5" height="8.6" fill="none" stroke="#e34948" stroke-width="1.3"/>
<rect x="354.7" y="262.5" width="7.5" height="21.6" fill="#008300"/>
<rect x="368.4" y="271.1" width="7.5" height="12.9" fill="none" stroke="#e34948" stroke-width="1.3"/>
<rect x="382.1" y="271.1" width="7.5" height="1.4" fill="#008300"/>
<rect x="395.7" y="272.6" width="7.5" height="15.8" fill="#008300"/>
<rect x="409.4" y="240.9" width="7.5" height="47.5" fill="none" stroke="#e34948" stroke-width="1.3"/>
<rect x="423.1" y="240.9" width="7.5" height="20.1" fill="#008300"/>
<rect x="436.7" y="261.1" width="7.5" height="5.8" fill="#008300"/>
<rect x="450.4" y="266.8" width="7.5" height="4.3" fill="#008300"/>
<rect x="464.1" y="271.1" width="7.5" height="18.7" fill="#008300"/>
<rect x="477.7" y="245.2" width="7.5" height="44.6" fill="none" stroke="#e34948" stroke-width="1.3"/>
<rect x="491.4" y="245.2" width="7.5" height="15.8" fill="#008300"/>
<rect x="505.1" y="261.1" width="7.5" height="14.4" fill="#008300"/>
<rect x="518.7" y="233.7" width="7.5" height="41.7" fill="none" stroke="#e34948" stroke-width="1.3"/>
<rect x="532.4" y="233.7" width="7.5" height="1.2" fill="#898781"/>
<rect x="546.1" y="233.7" width="7.5" height="38.8" fill="#008300"/>
<rect x="559.7" y="252.4" width="7.5" height="20.1" fill="none" stroke="#e34948" stroke-width="1.3"/>
<rect x="573.4" y="252.4" width="7.5" height="7.2" fill="#008300"/>
<rect x="587.1" y="259.6" width="7.5" height="57.5" fill="#008300"/>
<rect x="600.7" y="292.7" width="7.5" height="24.5" fill="none" stroke="#e34948" stroke-width="1.3"/>
<rect x="614.4" y="284.1" width="7.5" height="8.6" fill="none" stroke="#e34948" stroke-width="1.3"/>
<rect x="628.1" y="284.1" width="7.5" height="7.2" fill="#008300"/>
<rect x="641.7" y="251.0" width="7.5" height="40.3" fill="none" stroke="#e34948" stroke-width="1.3"/>
<rect x="655.4" y="251.0" width="7.5" height="4.3" fill="#008300"/>
<rect x="669.1" y="134.5" width="7.5" height="120.8" fill="none" stroke="#e34948" stroke-width="1.3"/>
<rect x="682.7" y="79.8" width="7.5" height="54.7" fill="none" stroke="#e34948" stroke-width="1.3"/>
<rect x="696.4" y="79.8" width="7.5" height="138.1" fill="#008300"/>
<rect x="710.1" y="217.9" width="7.5" height="12.9" fill="#008300"/>
<rect x="723.7" y="230.9" width="7.5" height="46.0" fill="#008300"/>
<rect x="737.4" y="230.9" width="7.5" height="46.0" fill="none" stroke="#e34948" stroke-width="1.3"/>
<rect x="751.1" y="230.9" width="7.5" height="7.2" fill="#008300"/>
<rect x="764.7" y="238.0" width="7.5" height="5.8" fill="#008300"/>
<rect x="778.4" y="243.8" width="7.5" height="7.2" fill="#008300"/>
<rect x="792.1" y="248.1" width="7.5" height="2.9" fill="none" stroke="#e34948" stroke-width="1.3"/>
<rect x="805.7" y="245.2" width="7.5" height="2.9" fill="none" stroke="#e34948" stroke-width="1.3"/>
<rect x="819.4" y="174.8" width="7.5" height="70.5" fill="none" stroke="#e34948" stroke-width="1.3"/>
<circle cx="686.5" cy="79.8" r="2" fill="#52514e"/>
<line x1="686.5" y1="79.8" x2="678.5" y2="79.8" stroke="#52514e" stroke-width="1.0"/>
<text x="675.5" y="83.8" font-size="11.0" fill="#52514e" text-anchor="end">192</text>
<circle cx="590.8" cy="317.2" r="2" fill="#52514e"/>
<line x1="590.8" y1="317.2" x2="582.8" y2="317.2" stroke="#52514e" stroke-width="1.0"/>
<text x="579.8" y="321.2" font-size="11.0" fill="#52514e" text-anchor="end">27</text>
<text x="14.0" y="376.0" font-size="11.0" fill="#52514e">VOL 8 forks</text>
<text x="90.6" y="376.0" font-size="11.0" fill="#eda100">MA5:5</text>
<text x="130.8" y="376.0" font-size="11.0" fill="#2a78d6">MA10:4.7</text>
<text x="14.0" y="395.0" font-size="10" fill="#898781">25</text>
<rect x="13.1" y="453.6" width="7.5" height="16.4" fill="#008300"/>
<rect x="26.7" y="437.2" width="7.5" height="32.8" fill="#008300"/>
<rect x="40.4" y="447.0" width="7.5" height="23.0" fill="none" stroke="#e34948" stroke-width="1.1"/>
<rect x="54.1" y="433.9" width="7.5" height="36.1" fill="none" stroke="#e34948" stroke-width="1.1"/>
<rect x="67.7" y="437.2" width="7.5" height="32.8" fill="none" stroke="#e34948" stroke-width="1.1"/>
<rect x="81.4" y="443.8" width="7.5" height="26.2" fill="none" stroke="#e34948" stroke-width="1.1"/>
<rect x="95.1" y="420.8" width="7.5" height="49.2" fill="#008300"/>
<rect x="108.7" y="388.0" width="7.5" height="82.0" fill="none" stroke="#e34948" stroke-width="1.1"/>
<rect x="122.4" y="437.2" width="7.5" height="32.8" fill="#008300"/>
<rect x="136.1" y="427.4" width="7.5" height="42.6" fill="#008300"/>
<rect x="149.7" y="456.9" width="7.5" height="13.1" fill="#008300"/>
<rect x="163.4" y="414.2" width="7.5" height="55.8" fill="#008300"/>
<rect x="177.1" y="460.2" width="7.5" height="9.8" fill="none" stroke="#e34948" stroke-width="1.1"/>
<rect x="190.7" y="440.5" width="7.5" height="29.5" fill="#008300"/>
<rect x="204.4" y="424.1" width="7.5" height="45.9" fill="none" stroke="#e34948" stroke-width="1.1"/>
<rect x="218.1" y="420.8" width="7.5" height="49.2" fill="#008300"/>
<rect x="231.7" y="453.6" width="7.5" height="16.4" fill="#008300"/>
<rect x="245.4" y="453.6" width="7.5" height="16.4" fill="#008300"/>
<rect x="259.1" y="460.2" width="7.5" height="9.8" fill="none" stroke="#e34948" stroke-width="1.1"/>
<rect x="272.7" y="456.9" width="7.5" height="13.1" fill="none" stroke="#e34948" stroke-width="1.1"/>
<rect x="286.4" y="466.7" width="7.5" height="3.3" fill="#008300"/>
<rect x="300.1" y="453.6" width="7.5" height="16.4" fill="none" stroke="#e34948" stroke-width="1.1"/>
<rect x="313.7" y="430.6" width="7.5" height="39.4" fill="#008300"/>
<rect x="327.4" y="463.4" width="7.5" height="6.6" fill="#008300"/>
<rect x="341.1" y="443.8" width="7.5" height="26.2" fill="none" stroke="#e34948" stroke-width="1.1"/>
<rect x="354.7" y="460.2" width="7.5" height="9.8" fill="#008300"/>
<rect x="368.4" y="443.8" width="7.5" height="26.2" fill="none" stroke="#e34948" stroke-width="1.1"/>
<rect x="382.1" y="443.8" width="7.5" height="26.2" fill="#008300"/>
<rect x="395.7" y="460.2" width="7.5" height="9.8" fill="#008300"/>
<rect x="409.4" y="437.2" width="7.5" height="32.8" fill="none" stroke="#e34948" stroke-width="1.1"/>
<rect x="423.1" y="443.8" width="7.5" height="26.2" fill="#008300"/>
<rect x="436.7" y="453.6" width="7.5" height="16.4" fill="#008300"/>
<rect x="450.4" y="450.3" width="7.5" height="19.7" fill="#008300"/>
<rect x="464.1" y="443.8" width="7.5" height="26.2" fill="#008300"/>
<rect x="477.7" y="430.6" width="7.5" height="39.4" fill="none" stroke="#e34948" stroke-width="1.1"/>
<rect x="491.4" y="443.8" width="7.5" height="26.2" fill="#008300"/>
<rect x="505.1" y="460.2" width="7.5" height="9.8" fill="#008300"/>
<rect x="518.7" y="447.0" width="7.5" height="23.0" fill="none" stroke="#e34948" stroke-width="1.1"/>
<rect x="532.4" y="447.0" width="7.5" height="23.0" fill="#898781"/>
<rect x="546.1" y="450.3" width="7.5" height="19.7" fill="#008300"/>
<rect x="559.7" y="440.5" width="7.5" height="29.5" fill="none" stroke="#e34948" stroke-width="1.1"/>
<rect x="573.4" y="437.2" width="7.5" height="32.8" fill="#008300"/>
<rect x="587.1" y="456.9" width="7.5" height="13.1" fill="#008300"/>
<rect x="600.7" y="456.9" width="7.5" height="13.1" fill="none" stroke="#e34948" stroke-width="1.1"/>
<rect x="628.1" y="453.6" width="7.5" height="16.4" fill="#008300"/>
<rect x="641.7" y="460.2" width="7.5" height="9.8" fill="none" stroke="#e34948" stroke-width="1.1"/>
<rect x="655.4" y="456.9" width="7.5" height="13.1" fill="#008300"/>
<rect x="669.1" y="433.9" width="7.5" height="36.1" fill="none" stroke="#e34948" stroke-width="1.1"/>
<rect x="682.7" y="437.2" width="7.5" height="32.8" fill="none" stroke="#e34948" stroke-width="1.1"/>
<rect x="696.4" y="456.9" width="7.5" height="13.1" fill="#008300"/>
<rect x="710.1" y="456.9" width="7.5" height="13.1" fill="#008300"/>
<rect x="723.7" y="466.7" width="7.5" height="3.3" fill="#008300"/>
<rect x="737.4" y="453.6" width="7.5" height="16.4" fill="none" stroke="#e34948" stroke-width="1.1"/>
<rect x="751.1" y="443.8" width="7.5" height="26.2" fill="#008300"/>
<rect x="764.7" y="440.5" width="7.5" height="29.5" fill="#008300"/>
<rect x="792.1" y="443.8" width="7.5" height="26.2" fill="none" stroke="#e34948" stroke-width="1.1"/>
<rect x="819.4" y="443.8" width="7.5" height="26.2" fill="none" stroke="#e34948" stroke-width="1.1"/>
<polyline points="16.8,434.6 30.5,435.6 44.2,435.9 57.8,434.9 71.5,435.2 85.2,440.2 98.8,439.5 112.5,434.9 126.2,434.2 139.8,432.6 153.5,432.9 167.2,430.6 180.8,432.0 194.5,432.6 208.2,431.3 221.8,429.0 235.5,432.3 249.2,438.8 262.8,441.1 276.5,444.1 290.2,445.1 303.8,449.0 317.5,446.1 331.2,448.4 344.8,450.3 358.5,454.3 372.2,453.3 385.8,452.3 399.5,452.3 413.2,450.3 426.8,448.0 440.5,448.0 454.2,450.0 467.8,448.0 481.5,446.7 495.2,445.1 508.8,446.7 522.5,447.0 536.2,445.7 549.8,447.0 563.5,446.7 577.2,445.1 590.8,445.7 604.5,447.0 618.2,451.0 631.8,452.0 645.5,452.0 659.2,452.9 672.8,451.6 686.5,450.3 700.2,452.0 713.8,453.9 727.5,454.9 741.2,454.6 754.8,452.0 768.5,450.6 782.2,451.6 795.8,450.3 809.5,453.9 823.2,454.6" fill="none" stroke="#2a78d6" stroke-width="1.5" stroke-linejoin="round" stroke-linecap="round"/>
<polyline points="16.8,440.5 30.5,442.4 44.2,445.1 57.8,443.1 71.5,441.8 85.2,439.8 98.8,436.5 112.5,424.7 126.2,425.4 139.8,423.4 153.5,426.0 167.2,424.7 180.8,439.2 194.5,439.8 208.2,439.2 221.8,432.0 235.5,439.8 249.2,438.5 262.8,442.4 276.5,449.0 290.2,458.2 303.8,458.2 317.5,453.6 331.2,454.3 344.8,451.6 358.5,450.3 372.2,448.4 385.8,451.0 399.5,450.3 413.2,449.0 426.8,445.7 440.5,447.7 454.2,449.0 467.8,445.7 481.5,444.4 495.2,444.4 508.8,445.7 522.5,445.1 536.2,445.7 549.8,449.7 563.5,449.0 577.2,444.4 590.8,446.4 604.5,448.4 618.2,452.3 631.8,454.9 645.5,459.5 659.2,459.5 672.8,454.9 686.5,448.4 700.2,449.0 713.8,448.4 727.5,450.3 741.2,454.3 754.8,455.6 768.5,452.3 782.2,454.9 795.8,450.3 809.5,453.6 823.2,453.6" fill="none" stroke="#eda100" stroke-width="1.5" stroke-linejoin="round" stroke-linecap="round"/>
</svg>