<svg xmlns="http://www.w3.org/2000/svg" viewBox="0 0 840 496" width="840" height="496" font-family="-apple-system,&#39;Segoe UI&#39;,system-ui,sans-serif" role="img" aria-label="EbookFoundation/free-programming-books candlestick chart">
<text x="14.0" y="20.0" font-size="15" fill="#ffffff" font-weight="650">EbookFoundation/free-programming-books</text>
<text x="331.5" y="20.0" font-size="11.5" fill="#c3c2b7">daily · new stars, volume = new forks</text>
<text x="805.8" y="20.0" font-size="11.0" fill="#c3c2b7">fall</text>
<rect x="791" y="10" width="9" height="12" fill="#008300"/>
<text x="750.6" y="20.0" font-size="11.0" fill="#c3c2b7">rise</text>
<rect x="736" y="10" width="9" height="12" fill="none" stroke="#e66767" stroke-width="1.5"/>
<text x="14.0" y="38.0" font-size="11.0" fill="#898781">last 60 days · +4,550 stars · +471 forks · updated 2026-07-18</text>
<rect x="10" y="66" width="820" height="290" fill="none" stroke="#2c2c2a"/>
<rect x="10" y="384" width="820" height="86" fill="none" stroke="#2c2c2a"/>
<text x="38.0" y="490.0" font-size="11.0" fill="#898781" text-anchor="middle">2026-05</text>
<line x1="174.0" y1="66.0" x2="174.0" y2="356.0" stroke="#2c2c2a" stroke-width="1.0"/>
<line x1="174.0" y1="384.0" x2="174.0" y2="470.0" stroke="#2c2c2a" stroke-width="1.0"/>
<text x="180.8" y="490.0" font-size="11.0" fill="#898781" text-anchor="middle">2026-06</text>
<line x1="584.0" y1="66.0" x2="584.0" y2="356.0" stroke="#2c2c2a" stroke-width="1.0"/>
<line x1="584.0" y1="384.0" x2="584.0" y2="470.0" stroke="#2c2c2a" stroke-width="1.0"/>
<text x="590.8" y="490.0" font-size="11.0" fill="#898781" text-anchor="middle">2026-07</text>
<text x="14.0" y="58.0" font-size="11.0" fill="#c3c2b7">BOLL(20,2)</text>
<text x="84.5" y="58.0" font-size="11.0" fill="#c98500">UP:150.5</text>
<text x="142.9" y="58.0" font-size="11.0" fill="#3987e5">MID:77.3</text>
<text x="201.3" y="58.0" font-size="11.0" fill="#d55181">LOW:4.1</text>
<text x="253.7" y="58.0" font-size="11.0" fill="#9085e9">MA7:105.9</text>
<line x1="10.0" y1="356.0" x2="830.0" y2="356.0" stroke="#2c2c2a" stroke-width="1.0"/>
<text x="14.0" y="353.0" font-size="11.0" fill="#898781">0</text>
<line x1="10.0" y1="212.2" x2="830.0" y2="212.2" stroke="#2c2c2a" stroke-width="1.0"/>
<text x="14.0" y="209.2" font-size="11.0" fill="#898781">100</text>
<line x1="10.0" y1="68.3" x2="830.0" y2="68.3" stroke="#2c2c2a" stroke-width="1.0"/>
<text x="14.0" y="65.3" font-size="11.0" fill="#898781">200</text>
<polyline points="16.8,206.2 30.5,207.3 44.2,207.4 57.8,199.1 71.5,198.0 85.2,196.6 98.8,196.5 112.5,198.6 126.2,199.0 139.8,199.0 153.5,198.5 167.2,196.8 180.8,195.0 194.5,162.8 208.2,159.8 221.8,159.7 235.5,159.7 249.2,159.3 262.8,159.9 276.5,161.4 290.2,156.9 303.8,156.9 317.5,156.5 331.2,160.1 344.8,163.4 358.5,164.4 372.2,164.4 385.8,164.3 399.5,164.2 413.2,163.9 426.8,164.6 440.5,165.5 454.2,167.1 467.8,205.1 481.5,213.7 495.2,215.8 508.8,216.2 522.5,216.3 536.2,217.3 549.8,217.1 563.5,231.4 577.2,233.0 590.8,232.9 604.5,228.8 618.2,225.3 631.8,227.0 645.5,227.2 659.2,230.3 672.8,227.3 686.5,226.8 700.2,227.3 713.8,227.0 727.5,225.3 741.2,224.1 754.8,188.4 768.5,145.7 782.2,142.7 795.8,140.9 809.5,140.9 823.2,139.5" fill="none" stroke="#c98500" stroke-width="1.5" stroke-linejoin="round" stroke-linecap="round"/>
<polyline points="16.8,244.6 30.5,243.7 44.2,244.7 57.8,242.3 71.5,242.0 85.2,241.0 98.8,242.1 112.5,245.0 126.2,244.5 139.8,244.4 153.5,244.1 167.2,243.2 180.8,241.9 194.5,236.6 208.2,235.2 221.8,235.2 235.5,234.9 249.2,235.3 262.8,233.9 276.5,235.5 290.2,232.0 303.8,231.5 317.5,232.0 331.2,236.2 344.8,238.8 358.5,239.7 372.2,239.0 385.8,237.0 399.5,236.3 413.2,237.3 426.8,238.8 440.5,241.8 454.2,244.1 467.8,252.2 481.5,256.7 495.2,257.3 508.8,257.8 522.5,257.4 536.2,258.5 549.8,260.4 563.5,263.0 577.2,263.7 590.8,263.9 604.5,261.6 618.2,260.3 631.8,261.7 645.5,261.8 659.2,262.9 672.8,266.5 686.5,267.6 700.2,268.7 713.8,269.0 727.5,268.0 741.2,267.2 754.8,259.5 768.5,251.4 782.2,249.3 795.8,247.5 809.5,247.8 823.2,244.8" fill="none" stroke="#3987e5" stroke-width="1.5" stroke-linejoin="round" stroke-linecap="round"/>
<polyline points="16.8,282.9 30.5,280.1 44.2,282.0 57.8,285.4 71.5,286.0 85.2,285.3 98.8,287.7 112.5,291.4 126.2,290.0 139.8,289.8 153.5,289.7 167.2,289.7 180.8,288.9 194.5,310.4 208.2,310.7 221.8,310.7 235.5,310.1 249.2,311.3 262.8,307.9 276.5,309.7 290.2,307.1 303.8,306.1 317.5,307.5 331.2,312.3 344.8,314.3 358.5,315.0 372.2,313.6 385.8,309.8 399.5,308.4 413.2,310.6 426.8,312.9 440.5,318.1 454.2,321.0 467.8,299.4 481.5,299.6 495.2,298.9 508.8,299.3 522.5,298.5 536.2,299.8 549.8,303.7 563.5,294.6 577.2,294.5 590.8,294.8 604.5,294.4 618.2,295.3 631.8,296.4 645.5,296.4 659.2,295.6 672.8,305.8 686.5,308.4 700.2,310.0 713.8,311.1 727.5,310.8 741.2,310.2 754.8,330.5 768.5,356.0 782.2,355.9 795.8,354.0 809.5,354.6 823.2,350.1" fill="none" stroke="#d55181" stroke-width="1.5" stroke-linejoin="round" stroke-linecap="round"/>
<polyline points="16.8,248.5 30.5,252.9 44.2,257.6 57.8,248.5 71.5,240.1 85.2,233.3 98.8,239.6 112.5,241.4 126.2,241.8 139.8,240.3 153.5,245.7 167.2,248.1 180.8,247.7 194.5,225.5 208.2,214.6 221.8,210.1 235.5,210.1 249.2,216.0 262.8,219.5 276.5,223.5 290.2,235.3 303.8,242.2 317.5,248.5 331.2,252.3 344.8,250.1 358.5,249.7 372.2,249.6 385.8,255.7 399.5,255.4 413.2,255.3 426.8,253.0 440.5,256.6 454.2,260.2 467.8,263.4 481.5,270.7 495.2,270.1 508.8,268.7 522.5,269.3 536.2,267.4 549.8,270.1 563.5,266.2 577.2,262.4 590.8,267.2 604.5,263.4 618.2,258.6 631.8,258.8 645.5,253.4 659.2,255.4 672.8,263.5 686.5,266.0 700.2,273.1 713.8,281.3 727.5,278.3 741.2,278.8 754.8,260.9 768.5,227.0 782.2,216.3 795.8,208.7 809.5,206.5 823.2,203.7" fill="none" stroke="#9085e9" stroke-width="1.5" stroke-linejoin="round" stroke-linecap="round"/>
<rect x="13.1" y="220.8" width="7.5" height="43.2" fill="#008300"/>
<rect x="26.7" y="256.7" width="7.5" height="7.2" fill="none" stroke="#e66767" stroke-width="1.3"/>
<rect x="40.4" y="256.7" width="7.5" height="5.8" fill="#008300"/>
<rect x="54.1" y="194.9" width="7.5" height="67.6" fill="none" stroke="#e66767" stroke-width="1.3"/>
<rect x="67.7" y="194.9" width="7.5" height="11.5" fill="#008300"/>
<rect x="81.4" y="206.4" width="7.5" height="21.6" fill="#008300"/>
<rect x="95.1" y="228.0" width="7.5" height="37.4" fill="#008300"/>
<rect x="108.7" y="265.4" width="7.5" height="10.1" fill="#008300"/>
<rect x="122.4" y="259.6" width="7.5" height="15.8" fill="none" stroke="#e66767" stroke-width="1.3"/>
<rect x="136.1" y="252.4" width="7.5" height="7.2" fill="none" stroke="#e66767" stroke-width="1.3"/>
<rect x="149.7" y="232.3" width="7.5" height="20.1" fill="none" stroke="#e66767" stroke-width="1.3"/>
<rect x="163.4" y="223.7" width="7.5" height="8.6" fill="none" stroke="#e66767" stroke-width="1.3"/>
<rect x="177.1" y="223.7" width="7.5" height="1.4" fill="#008300"/>
<rect x="190.7" y="110.0" width="7.5" height="115.1" fill="none" stroke="#e66767" stroke-width="1.3"/>
<rect x="204.4" y="110.0" width="7.5" height="89.2" fill="#008300"/>
<rect x="218.1" y="199.2" width="7.5" height="28.8" fill="#008300"/>
<rect x="231.7" y="228.0" width="7.5" height="24.5" fill="#008300"/>
<rect x="245.4" y="252.4" width="7.5" height="21.6" fill="#008300"/>
<rect x="259.1" y="248.1" width="7.5" height="25.9" fill="none" stroke="#e66767" stroke-width="1.3"/>
<rect x="272.7" y="248.1" width="7.5" height="4.3" fill="#008300"/>
<rect x="286.4" y="193.5" width="7.5" height="59.0" fill="none" stroke="#e66767" stroke-width="1.3"/>
<rect x="300.1" y="193.5" width="7.5" height="53.2" fill="#008300"/>
<rect x="313.7" y="246.7" width="7.5" height="25.9" fill="#008300"/>
<rect x="327.4" y="272.6" width="7.5" height="5.8" fill="#008300"/>
<rect x="341.1" y="259.6" width="7.5" height="18.7" fill="none" stroke="#e66767" stroke-width="1.3"/>
<rect x="354.7" y="245.2" width="7.5" height="14.4" fill="none" stroke="#e66767" stroke-width="1.3"/>
<rect x="368.4" y="245.2" width="7.5" height="5.8" fill="#008300"/>
<rect x="382.1" y="236.6" width="7.5" height="14.4" fill="none" stroke="#e66767" stroke-width="1.3"/>
<rect x="395.7" y="236.6" width="7.5" height="8.6" fill="#008300"/>
<rect x="409.4" y="245.2" width="7.5" height="25.9" fill="#008300"/>
<rect x="423.1" y="262.5" width="7.5" height="8.6" fill="none" stroke="#e66767" stroke-width="1.3"/>
<rect x="436.7" y="262.5" width="7.5" height="21.6" fill="#008300"/>
<rect x="450.4" y="271.1" width="7.5" height="12.9" fill="none" stroke="#e66767" stroke-width="1.3"/>
<rect x="464.1" y="271.1" width="7.5" height="1.4" fill="#008300"/>
<rect x="477.7" y="272.6" width="7.5" height="15.8" fill="#008300"/>
<rect x="491.4" y="240.9" width="7.5" height="47.5" fill="none" stroke="#e66767" stroke-width="1.3"/>
<rect x="505.1" y="240.9" width="7.5" height="20.1" fill="#008300"/>
<rect x="518.7" y="261.1" width="7.5" height="5.8" fill="#008300"/>
<rect x="532.4" y="266.8" width="7.5" height="4.3" fill="#008300"/>
<rect x="546.1" y="271.1" width="7.5" height="18.7" fill="#008300"/>
<rect x="559.7" y="245.2" width="7.5" height="44.6" fill="none" stroke="#e66767" stroke-width="1.3"/>
<rect x="573.4" y="245.2" width="7.5" height="15.8" fill="#008300"/>
<rect x="587.1" y="261.1" width="7.5" height="14.4" fill="#008300"/>
<rect x="600.7" y="233.7" width="7.5" height="41.7" fill="none" stroke="#e66767" stroke-width="1.3"/>
<rect x="614.4" y="233.7" width="7.5" height="1.2" fill="#898781"/>
<rect x="628.1" y="233.7" width="7.5" height="38.8" fill="#008300"/>
<rect x="641.7" y="252.4" width="7.5" height="20.1" fill="none" stroke="#e66767" stroke-width="1.3"/>
<rect x="655.4" y="252.4" width="7.5" height="7.2" fill="#008300"/>
<rect x="669.1" y="259.6" width="7.5" height="57.5" fill="#008300"/>
<rect x="682.7" y="292.7" width="7.5" height="24.5" fill="none" stroke="#e66767" stroke-width="1.3"/>
<rect x="696.4" y="284.1" width="7.5" height="8.6" fill="none" stroke="#e66767" stroke-width="1.3"/>
<rect x="710.1" y="284.1" width="7.5" height="7.2" fill="#008300"/>
<rect x="723.7" y="251.0" width="7.5" height="40.3" fill="none" stroke="#e66767" stroke-width="1.3"/>
<rect x="737.4" y="251.0" width="7.5" height="4.3" fill="#008300"/>
<rect x="751.1" y="134.5" width="7.5" height="120.8" fill="none" stroke="#e66767" stroke-width="1.3"/>
<rect x="764.7" y="79.8" width="7.5" height="54.7" fill="none" stroke="#e66767" stroke-width="1.3"/>
<rect x="778.4" y="79.8" width="7.5" height="138.1" fill="#008300"/>
<rect x="792.1" y="217.9" width="7.5" height="12.9" fill="#008300"/>
<rect x="805.7" y="230.9" width="7.5" height="46.0" fill="#008300"/>
<rect x="819.4" y="230.9" width="7.5" height="46.0" fill="none" stroke="#e66767" stroke-width="1.3"/>
<circle cx="768.5" cy="79.8" r="2" fill="#c3c2b7"/>
<line x1="768.5" y1="79.8" x2="760.5" y2="79.8" stroke="#c3c2b7" stroke-width="1.0"/>
<text x="757.5" y="83.8" font-size="11.0" fill="#c3c2b7" text-anchor="end">192</text>
<circle cx="672.8" cy="317.2" r="2" fill="#c3c2b7"/>
<line x1="672.8" y1="317.2" x2="664.8" y2="317.2" stroke="#c3c2b7" stroke-width="1.0"/>
<text x="661.8" y="321.2" font-size="11.0" fill="#c3c2b7" text-anchor="end">27</text>
<text x="14.0" y="376.0" font-size="11.0" fill="#c3c2b7">VOL 5 forks</text>
<text x="90.6" y="376.0" font-size="11.0" fill="#c98500">MA5:4.8</text>
<text x="142.9" y="376.0" font-size="11.0" fill="#3987e5">MA10:4.7</text>
<text x="14.0" y="395.0" font-size="10" fill="#898781">25</text>
<rect x="13.1" y="433.9" width="7.5" height="36.1" fill="#008300"/>
<rect x="26.7" y="394.6" width="7.5" height="75.4" fill="none" stroke="#e66767" stroke-width="1.1"/>
<rect x="40.4" y="427.4" width="7.5" height="42.6" fill="#008300"/>
<rect x="54.1" y="433.9" width="7.5" height="36.1" fill="none" stroke="#e66767" stroke-width="1.1"/>
<rect x="67.7" y="443.8" width="7.5" height="26.2" fill="#008300"/>
<rect x="81.4" y="443.8" width="7.5" height="26.2" fill="#008300"/>
<rect x="95.1" y="453.6" width="7.5" height="16.4" fill="#008300"/>
<rect x="108.7" y="437.2" width="7.5" height="32.8" fill="#008300"/>
<rect x="122.4" y="447.0" width="7.5" height="23.0" fill="none" stroke="#e66767" stroke-width="1.1"/>
<rect x="136.1" y="433.9" width="7.5" height="36.1" fill="none" stroke="#e66767" stroke-width="1.1"/>
<rect x="149.7" y="437.2" width="7.5" height="32.8" fill="none" stroke="#e66767" stroke-width="1.1"/>
<rect x="163.4" y="443.8" width="7.5" height="26.2" fill="none" stroke="#e66767" stroke-width="1.1"/>
<rect x="177.1" y="420.8" width="7.5" height="49.2" fill="#008300"/>
<rect x="190.7" y="388.0" width="7.5" height="82.0" fill="none" stroke="#e66767" stroke-width="1.1"/>
<rect x="204.4" y="437.2" width="7.5" height="32.8" fill="#008300"/>
<rect x="218.1" y="427.4" width="7.5" height="42.6" fill="#008300"/>
<rect x="231.7" y="456.9" width="7.5" height="13.1" fill="#008300"/>
<rect x="245.4" y="414.2" width="7.5" height="55.8" fill="#008300"/>
<rect x="259.1" y="460.2" width="7.5" height="9.8" fill="none" stroke="#e66767" stroke-width="1.1"/>
<rect x="272.7" y="440.5" width="7.5" height="29.5" fill="#008300"/>
<rect x="286.4" y="424.1" width="7.5" height="45.9" fill="none" stroke="#e66767" stroke-width="1.1"/>
<rect x="300.1" y="420.8" width="7.5" height="49.2" fill="#008300"/>
<rect x="313.7" y="453.6" width="7.5" height="16.4" fill="#008300"/>
<rect x="327.4" y="453.6" width="7.5" height="16.4" fill="#008300"/>
<rect x="341.1" y="460.2" width="7.5" height="9.8" fill="none" stroke="#e66767" stroke-width="1.1"/>
<rect x="354.7" y="456.9" width="7.5" height="13.1" fill="none" stroke="#e66767" stroke-width="1.1"/>
<rect x="368.4" y="466.7" width="7.5" height="3.3" fill="#008300"/>
<rect x="382.1" y="453.6" width="7.5" height="16.4" fill="none" stroke="#e66767" stroke-width="1.1"/>
<rect x="395.7" y="430.6" width="7.5" height="39.4" fill="#008300"/>
<rect x="409.4" y="463.4" width="7.5" height="6.6" fill="#008300"/>
<rect x="423.1" y="443.8" width="7.5" height="26.2" fill="none" stroke="#e66767" stroke-width="1.1"/>
<rect x="436.7" y="460.2" width="7.5" height="9.8" fill="#008300"/>
<rect x="450.4" y="443.8" width="7.5" height="26.2" fill="none" stroke="#e66767" stroke-width="1.1"/>
<rect x="464.1" y="443.8" width="7.5" height="26.2" fill="#008300"/>
<rect x="477.7" y="460.2" width="7.5" height="9.8" fill="#008300"/>
<rect x="491.4" y="437.2" width="7.5" height="32.8" fill="none" stroke="#e66767" stroke-width="1.1"/>
<rect x="505.1" y="443.8" width="7.5" height="26.2" fill="#008300"/>
<rect x="518.7" y="453.6" width="7.5" height="16.4" fill="#008300"/>
<rect x="532.4" y="450.3" width="7.5" height="19.7" fill="#008300"/>
<rect x="546.1" y="443.8" width="7.5" height="26.2" fill="#008300"/>
<rect x="559.7" y="430.6" width="7.5" height="39.4" fill="none" stroke="#e66767" stroke-width="1.1"/>
<rect x="573.4" y="443.8" width="7.5" height="26.2" fill="#008300"/>
<rect x="587.1" y="460.2" width="7.5" height="9.8" fill="#008300"/>
<rect x="600.7" y="447.0" width="7.5" height="23.0" fill="none" stroke="#e66767" stroke-width="1.1"/>
<rect x="614.4" y="447.0" width="7.5" height="23.0" fill="#898781"/>
<rect x="628.1" y="450.3" width="7.5" height="19.7" fill="#008300"/>
<rect x="641.7" y="440.5" width="7.5" height="29.5" fill="none" stroke="#e66767" stroke-width="1.1"/>
<rect x="655.4" y="437.2" width="7.5" height="32.8" fill="#008300"/>
<rect x="669.1" y="456.9" width="7.5" height="13.1" fill="#008300"/>
<rect x="682.7" y="456.9" width="7.5" height="13.1" fill="none" stroke="#e66767" stroke-width="1.1"/>
<rect x="710.1" y="453.6" width="7.5" height="16.4" fill="#008300"/>
<rect x="723.7" y="460.2" width="7.5" height="9.8" fill="none" stroke="#e66767" stroke-width="1.1"/>
<rect x="737.4" y="456.9" width="7.5" height="13.1" fill="#008300"/>
<rect x="751.1" y="433.9" width="7.5" height="36.1" fill="none" stroke="#e66767" stroke-width="1.1"/>
<rect x="764.7" y="437.2" width="7.5" height="32.8" fill="none" stroke="#e66767" stroke-width="1.1"/>
<rect x="778.4" y="456.9" width="7.5" height="13.1" fill="#008300"/>
<rect x="792.1" y="456.9" width="7.5" height="13.1" fill="#008300"/>
<rect x="805.7" y="466.7" width="7.5" height="3.3" fill="#008300"/>
<rect x="819.4" y="453.6" width="7.5" height="16.4" fill="none" stroke="#e66767" stroke-width="1.1"/>
<polyline points="16.8,437.5 30.5,432.9 44.2,432.6 57.8,434.9 71.5,434.2 85.2,434.6 98.8,434.6 112.5,435.6 126.2,435.9 139.8,434.9 153.5,435.2 167.2,440.2 180.8,439.5 194.5,434.9 208.2,434.2 221.8,432.6 235.5,432.9 249.2,430.6 262.8,432.0 276.5,432.6 290.2,431.3 303.8,429.0 317.5,432.3 331.2,438.8 344.8,441.1 358.5,444.1 372.2,445.1 385.8,449.0 399.5,446.1 413.2,448.4 426.8,450.3 440.5,454.3 454.2,453.3 467.8,452.3 481.5,452.3 495.2,450.3 508.8,448.0 522.5,448.0 536.2,450.0 549.8,448.0 563.5,446.7 577.2,445.1 590.8,446.7 604.5,447.0 618.2,445.7 631.8,447.0 645.5,446.7 659.2,445.1 672.8,445.7 686.5,447.0 700.2,451.0 713.8,452.0 727.5,452.0 741.2,452.9 754.8,451.6 768.5,450.3 782.2,452.0 795.8,453.9 809.5,454.9 823.2,454.6" fill="none" stroke="#3987e5" stroke-width="1.5" stroke-linejoin="round" stroke-linecap="round"/>
<polyline points="16.8,440.5 30.5,428.7 44.2,428.7 57.8,426.7 71.5,426.7 85.2,428.7 98.8,440.5 112.5,442.4 126.2,445.1 139.8,443.1 153.5,441.8 167.2,439.8 180.8,436.5 194.5,424.7 208.2,425.4 221.8,423.4 235.5,426.0 249.2,424.7 262.8,439.2 276.5,439.8 290.2,439.2 303.8,432.0 317.5,439.8 331.2,438.5 344.8,442.4 358.5,449.0 372.2,458.2 385.8,458.2 399.5,453.6 413.2,454.3 426.8,451.6 440.5,450.3 454.2,448.4 467.8,451.0 481.5,450.3 495.2,449.0 508.8,445.7 522.5,447.7 536.2,449.0 549.8,445.7 563.5,444.4 577.2,444.4 590.8,445.7 604.5,445.1 618.2,445.7 631.8,449.7 645.5,449.0 659.2,444.4 672.8,446.4 686.5,448.4 700.2,452.3 713.8,454.9 727.5,459.5 741.2,459.5 754.8,454.9 768.5,448.4 782.2,449.0 795.8,448.4 809.5,450.3 823.2,454.3" fill="none" stroke="#c98500" stroke-width="1.5" stroke-linejoin="round" stroke-linecap="round"/>
</svg>