<svg xmlns="http://www.w3.org/2000/svg" viewBox="0 0 840 496" width="840" height="496" font-family="-apple-system,&#39;Segoe UI&#39;,system-ui,sans-serif" role="img" aria-label="EbookFoundation/free-programming-books candlestick chart">
<text x="14.0" y="20.0" font-size="15" fill="#0b0b0b" font-weight="650">EbookFoundation/free-programming-books</text>
<text x="331.5" y="20.0" font-size="11.5" fill="#52514e">daily · new stars, volume = new forks</text>
<text x="805.8" y="20.0" font-size="11.0" fill="#52514e">fall</text>
<rect x="791" y="10" width="9" height="12" fill="#008300"/>
<text x="750.6" y="20.0" font-size="11.0" fill="#52514e">rise</text>
<rect x="736" y="10" width="9" height="12" fill="none" stroke="#e34948" stroke-width="1.5"/>
<text x="14.0" y="38.0" font-size="11.0" fill="#898781">last 60 days · +4,577 stars · +454 forks · updated 2026-07-20</text>
<rect x="10" y="66" width="820" height="290" fill="none" stroke="#e1e0d9"/>
<rect x="10" y="384" width="820" height="86" fill="none" stroke="#e1e0d9"/>
<text x="38.0" y="490.0" font-size="11.0" fill="#898781" text-anchor="middle">2026-05</text>
<line x1="146.7" y1="66.0" x2="146.7" y2="356.0" stroke="#e1e0d9" stroke-width="1.0"/>
<line x1="146.7" y1="384.0" x2="146.7" y2="470.0" stroke="#e1e0d9" stroke-width="1.0"/>
<text x="153.5" y="490.0" font-size="11.0" fill="#898781" text-anchor="middle">2026-06</text>
<line x1="556.7" y1="66.0" x2="556.7" y2="356.0" stroke="#e1e0d9" stroke-width="1.0"/>
<line x1="556.7" y1="384.0" x2="556.7" y2="470.0" stroke="#e1e0d9" stroke-width="1.0"/>
<text x="563.5" y="490.0" font-size="11.0" fill="#898781" text-anchor="middle">2026-07</text>
<text x="14.0" y="58.0" font-size="11.0" fill="#52514e">BOLL(20,2)</text>
<text x="84.5" y="58.0" font-size="11.0" fill="#eda100">UP:151.2</text>
<text x="142.9" y="58.0" font-size="11.0" fill="#2a78d6">MID:78.2</text>
<text x="201.3" y="58.0" font-size="11.0" fill="#e87ba4">LOW:5.1</text>
<text x="253.7" y="58.0" font-size="11.0" fill="#4a3aa7">MA7:96.7</text>
<line x1="10.0" y1="356.0" x2="830.0" y2="356.0" stroke="#e1e0d9" stroke-width="1.0"/>
<text x="14.0" y="353.0" font-size="11.0" fill="#898781">0</text>
<line x1="10.0" y1="212.2" x2="830.0" y2="212.2" stroke="#e1e0d9" stroke-width="1.0"/>
<text x="14.0" y="209.2" font-size="11.0" fill="#898781">100</text>
<line x1="10.0" y1="68.3" x2="830.0" y2="68.3" stroke="#e1e0d9" stroke-width="1.0"/>
<text x="14.0" y="65.3" font-size="11.0" fill="#898781">200</text>
<polyline points="16.8,207.4 30.5,199.1 44.2,198.0 57.8,196.6 71.5,196.5 85.2,198.6 98.8,199.0 112.5,199.0 126.2,198.5 139.8,196.8 153.5,195.0 167.2,162.8 180.8,159.8 194.5,159.7 208.2,159.7 221.8,159.3 235.5,159.9 249.2,161.4 262.8,156.9 276.5,156.9 290.2,156.5 303.8,160.1 317.5,163.4 331.2,164.4 344.8,164.4 358.5,164.3 372.2,164.2 385.8,163.9 399.5,164.6 413.2,165.5 426.8,167.1 440.5,205.1 454.2,213.7 467.8,215.8 481.5,216.2 495.2,216.3 508.8,217.3 522.5,217.1 536.2,231.4 549.8,233.0 563.5,232.9 577.2,228.8 590.8,225.3 604.5,227.0 618.2,227.2 631.8,230.3 645.5,227.3 659.2,226.8 672.8,227.3 686.5,227.0 700.2,225.3 713.8,224.1 727.5,188.4 741.2,145.7 754.8,142.7 768.5,140.9 782.2,140.9 795.8,139.5 809.5,139.1 823.2,138.5" fill="none" stroke="#eda100" stroke-width="1.5" stroke-linejoin="round" stroke-linecap="round"/>
<polyline points="16.8,244.7 30.5,242.3 44.2,242.0 57.8,241.0 71.5,242.1 85.2,245.0 98.8,244.5 112.5,244.4 126.2,244.1 139.8,243.2 153.5,241.9 167.2,236.6 180.8,235.2 194.5,235.2 208.2,234.9 221.8,235.3 235.5,233.9 249.2,235.5 262.8,232.0 276.5,231.5 290.2,232.0 303.8,236.2 317.5,238.8 331.2,239.7 344.8,239.0 358.5,237.0 372.2,236.3 385.8,237.3 399.5,238.8 413.2,241.8 426.8,244.1 440.5,252.2 454.2,256.7 467.8,257.3 481.5,257.8 495.2,257.4 508.8,258.5 522.5,260.4 536.2,263.0 549.8,263.7 563.5,263.9 577.2,261.6 590.8,260.3 604.5,261.7 618.2,261.8 631.8,262.9 645.5,266.5 659.2,267.6 672.8,268.7 686.5,269.0 700.2,268.0 713.8,267.2 727.5,259.5 741.2,251.4 754.8,249.3 768.5,247.5 782.2,247.8 795.8,244.8 809.5,244.4 823.2,243.6" fill="none" stroke="#2a78d6" stroke-width="1.5" stroke-linejoin="round" stroke-linecap="round"/>
<polyline points="16.8,282.0 30.5,285.4 44.2,286.0 57.8,285.3 71.5,287.7 85.2,291.4 98.8,290.0 112.5,289.8 126.2,289.7 139.8,289.7 153.5,288.9 167.2,310.4 180.8,310.7 194.5,310.7 208.2,310.1 221.8,311.3 235.5,307.9 249.2,309.7 262.8,307.1 276.5,306.1 290.2,307.5 303.8,312.3 317.5,314.3 331.2,315.0 344.8,313.6 358.5,309.8 372.2,308.4 385.8,310.6 399.5,312.9 413.2,318.1 426.8,321.0 440.5,299.4 454.2,299.6 467.8,298.9 481.5,299.3 495.2,298.5 508.8,299.8 522.5,303.7 536.2,294.6 549.8,294.5 563.5,294.8 577.2,294.4 590.8,295.3 604.5,296.4 618.2,296.4 631.8,295.6 645.5,305.8 659.2,308.4 672.8,310.0 686.5,311.1 700.2,310.8 713.8,310.2 727.5,330.5 741.2,356.0 754.8,355.9 768.5,354.0 782.2,354.6 795.8,350.1 809.5,349.8 823.2,348.6" fill="none" stroke="#e87ba4" stroke-width="1.5" stroke-linejoin="round" stroke-linecap="round"/>
<polyline points="16.8,257.6 30.5,248.5 44.2,240.1 57.8,233.3 71.5,239.6 85.2,241.4 98.8,241.8 112.5,240.3 126.2,245.7 139.8,248.1 153.5,247.7 167.2,225.5 180.8,214.6 194.5,210.1 208.2,210.1 221.8,216.0 235.5,219.5 249.2,223.5 262.8,235.3 276.5,242.2 290.2,248.5 303.8,252.3 317.5,250.1 331.2,249.7 344.8,249.6 358.5,255.7 372.2,255.4 385.8,255.3 399.5,253.0 413.2,256.6 426.8,260.2 440.5,263.4 454.2,270.7 467.8,270.1 481.5,268.7 495.2,269.3 508.8,267.4 522.5,270.1 536.2,266.2 549.8,262.4 563.5,267.2 577.2,263.4 590.8,258.6 604.5,258.8 618.2,253.4 631.8,255.4 645.5,263.5 659.2,266.0 672.8,273.1 686.5,281.3 700.2,278.3 713.8,278.8 727.5,260.9 741.2,227.0 754.8,216.3 768.5,208.7 782.2,206.5 795.8,203.7 809.5,201.2 823.2,216.9" fill="none" stroke="#4a3aa7" stroke-width="1.5" stroke-linejoin="round" stroke-linecap="round"/>
<rect x="13.1" y="256.7" width="7.5" height="5.8" fill="#008300"/>
<rect x="26.7" y="194.9" width="7.5" height="67.6" fill="none" stroke="#e34948" stroke-width="1.3"/>
<rect x="40.4" y="194.9" width="7.5" height="11.5" fill="#008300"/>
<rect x="54.1" y="206.4" width="7.5" height="21.6" fill="#008300"/>
<rect x="67.7" y="228.0" width="7.5" height="37.4" fill="#008300"/>
<rect x="81.4" y="265.4" width="7.5" height="10.1" fill="#008300"/>
<rect x="95.1" y="259.6" width="7.5" height="15.8" fill="none" stroke="#e34948" stroke-width="1.3"/>
<rect x="108.7" y="252.4" width="7.5" height="7.2" fill="none" stroke="#e34948" stroke-width="1.3"/>
<rect x="122.4" y="232.3" width="7.5" height="20.1" fill="none" stroke="#e34948" stroke-width="1.3"/>
<rect x="136.1" y="223.7" width="7.5" height="8.6" fill="none" stroke="#e34948" stroke-width="1.3"/>
<rect x="149.7" y="223.7" width="7.5" height="1.4" fill="#008300"/>
<rect x="163.4" y="110.0" width="7.5" height="115.1" fill="none" stroke="#e34948" stroke-width="1.3"/>
<rect x="177.1" y="110.0" width="7.5" height="89.2" fill="#008300"/>
<rect x="190.7" y="199.2" width="7.5" height="28.8" fill="#008300"/>
<rect x="204.4" y="228.0" width="7.5" height="24.5" fill="#008300"/>
<rect x="218.1" y="252.4" width="7.5" height="21.6" fill="#008300"/>
<rect x="231.7" y="248.1" width="7.5" height="25.9" fill="none" stroke="#e34948" stroke-width="1.3"/>
<rect x="245.4" y="248.1" width="7.5" height="4.3" fill="#008300"/>
<rect x="259.1" y="193.5" width="7.5" height="59.0" fill="none" stroke="#e34948" stroke-width="1.3"/>
<rect x="272.7" y="193.5" width="7.5" height="53.2" fill="#008300"/>
<rect x="286.4" y="246.7" width="7.5" height="25.9" fill="#008300"/>
<rect x="300.1" y="272.6" width="7.5" height="5.8" fill="#008300"/>
<rect x="313.7" y="259.6" width="7.5" height="18.7" fill="none" stroke="#e34948" stroke-width="1.3"/>
<rect x="327.4" y="245.2" width="7.5" height="14.4" fill="none" stroke="#e34948" stroke-width="1.3"/>
<rect x="341.1" y="245.2" width="7.5" height="5.8" fill="#008300"/>
<rect x="354.7" y="236.6" width="7.5" height="14.4" fill="none" stroke="#e34948" stroke-width="1.3"/>
<rect x="368.4" y="236.6" width="7.5" height="8.6" fill="#008300"/>
<rect x="382.1" y="245.2" width="7.5" height="25.9" fill="#008300"/>
<rect x="395.7" y="262.5" width="7.5" height="8.6" fill="none" stroke="#e34948" stroke-width="1.3"/>
<rect x="409.4" y="262.5" width="7.5" height="21.6" fill="#008300"/>
<rect x="423.1" y="271.1" width="7.5" height="12.9" fill="none" stroke="#e34948" stroke-width="1.3"/>
<rect x="436.7" y="271.1" width="7.5" height="1.4" fill="#008300"/>
<rect x="450.4" y="272.6" width="7.5" height="15.8" fill="#008300"/>
<rect x="464.1" y="240.9" width="7.5" height="47.5" fill="none" stroke="#e34948" stroke-width="1.3"/>
<rect x="477.7" y="240.9" width="7.5" height="20.1" fill="#008300"/>
<rect x="491.4" y="261.1" width="7.5" height="5.8" fill="#008300"/>
<rect x="505.1" y="266.8" width="7.5" height="4.3" fill="#008300"/>
<rect x="518.7" y="271.1" width="7.5" height="18.7" fill="#008300"/>
<rect x="532.4" y="245.2" width="7.5" height="44.6" fill="none" stroke="#e34948" stroke-width="1.3"/>
<rect x="546.1" y="245.2" width="7.5" height="15.8" fill="#008300"/>
<rect x="559.7" y="261.1" width="7.5" height="14.4" fill="#008300"/>
<rect x="573.4" y="233.7" width="7.5" height="41.7" fill="none" stroke="#e34948" stroke-width="1.3"/>
<rect x="587.1" y="233.7" width="7.5" height="1.2" fill="#898781"/>
<rect x="600.7" y="233.7" width="7.5" height="38.8" fill="#008300"/>
<rect x="614.4" y="252.4" width="7.5" height="20.1" fill="none" stroke="#e34948" stroke-width="1.3"/>
<rect x="628.1" y="252.4" width="7.5" height="7.2" fill="#008300"/>
<rect x="641.7" y="259.6" width="7.5" height="57.5" fill="#008300"/>
<rect x="655.4" y="292.7" width="7.5" height="24.5" fill="none" stroke="#e34948" stroke-width="1.3"/>
<rect x="669.1" y="284.1" width="7.5" height="8.6" fill="none" stroke="#e34948" stroke-width="1.3"/>
<rect x="682.7" y="284.1" width="7.5" height="7.2" fill="#008300"/>
<rect x="696.4" y="251.0" width="7.5" height="40.3" fill="none" stroke="#e34948" stroke-width="1.3"/>
<rect x="710.1" y="251.0" width="7.5" height="4.3" fill="#008300"/>
<rect x="723.7" y="134.5" width="7.5" height="120.8" fill="none" stroke="#e34948" stroke-width="1.3"/>
<rect x="737.4" y="79.8" width="7.5" height="54.7" fill="none" stroke="#e34948" stroke-width="1.3"/>
<rect x="751.1" y="79.8" width="7.5" height="138.1" fill="#008300"/>
<rect x="764.7" y="217.9" width="7.5" height="12.9" fill="#008300"/>
<rect x="778.4" y="230.9" width="7.5" height="46.0" fill="#008300"/>
<rect x="792.1" y="230.9" width="7.5" height="46.0" fill="none" stroke="#e34948" stroke-width="1.3"/>
<rect x="805.7" y="230.9" width="7.5" height="7.2" fill="#008300"/>
<rect x="819.4" y="238.0" width="7.5" height="5.8" fill="#008300"/>
<circle cx="741.2" cy="79.8" r="2" fill="#52514e"/>
<line x1="741.2" y1="79.8" x2="733.2" y2="79.8" stroke="#52514e" stroke-width="1.0"/>
<text x="730.2" y="83.8" font-size="11.0" fill="#52514e" text-anchor="end">192</text>
<circle cx="645.5" cy="317.2" r="2" fill="#52514e"/>
<line x1="645.5" y1="317.2" x2="637.5" y2="317.2" stroke="#52514e" stroke-width="1.0"/>
<text x="634.5" y="321.2" font-size="11.0" fill="#52514e" text-anchor="end">27</text>
<text x="14.0" y="376.0" font-size="11.0" fill="#52514e">VOL 9 forks</text>
<text x="90.6" y="376.0" font-size="11.0" fill="#eda100">MA5:5.4</text>
<text x="142.9" y="376.0" font-size="11.0" fill="#2a78d6">MA10:5.9</text>
<text x="14.0" y="395.0" font-size="10" fill="#898781">25</text>
<rect x="13.1" y="427.4" width="7.5" height="42.6" fill="#008300"/>
<rect x="26.7" y="433.9" width="7.5" height="36.1" fill="none" stroke="#e34948" stroke-width="1.1"/>
<rect x="40.4" y="443.8" width="7.5" height="26.2" fill="#008300"/>
<rect x="54.1" y="443.8" width="7.5" height="26.2" fill="#008300"/>
<rect x="67.7" y="453.6" width="7.5" height="16.4" fill="#008300"/>
<rect x="81.4" y="437.2" width="7.5" height="32.8" fill="#008300"/>
<rect x="95.1" y="447.0" width="7.5" height="23.0" fill="none" stroke="#e34948" stroke-width="1.1"/>
<rect x="108.7" y="433.9" width="7.5" height="36.1" fill="none" stroke="#e34948" stroke-width="1.1"/>
<rect x="122.4" y="437.2" width="7.5" height="32.8" fill="none" stroke="#e34948" stroke-width="1.1"/>
<rect x="136.1" y="443.8" width="7.5" height="26.2" fill="none" stroke="#e34948" stroke-width="1.1"/>
<rect x="149.7" y="420.8" width="7.5" height="49.2" fill="#008300"/>
<rect x="163.4" y="388.0" width="7.5" height="82.0" fill="none" stroke="#e34948" stroke-width="1.1"/>
<rect x="177.1" y="437.2" width="7.5" height="32.8" fill="#008300"/>
<rect x="190.7" y="427.4" width="7.5" height="42.6" fill="#008300"/>
<rect x="204.4" y="456.9" width="7.5" height="13.1" fill="#008300"/>
<rect x="218.1" y="414.2" width="7.5" height="55.8" fill="#008300"/>
<rect x="231.7" y="460.2" width="7.5" height="9.8" fill="none" stroke="#e34948" stroke-width="1.1"/>
<rect x="245.4" y="440.5" width="7.5" height="29.5" fill="#008300"/>
<rect x="259.1" y="424.1" width="7.5" height="45.9" fill="none" stroke="#e34948" stroke-width="1.1"/>
<rect x="272.7" y="420.8" width="7.5" height="49.2" fill="#008300"/>
<rect x="286.4" y="453.6" width="7.5" height="16.4" fill="#008300"/>
<rect x="300.1" y="453.6" width="7.5" height="16.4" fill="#008300"/>
<rect x="313.7" y="460.2" width="7.5" height="9.8" fill="none" stroke="#e34948" stroke-width="1.1"/>
<rect x="327.4" y="456.9" width="7.5" height="13.1" fill="none" stroke="#e34948" stroke-width="1.1"/>
<rect x="341.1" y="466.7" width="7.5" height="3.3" fill="#008300"/>
<rect x="354.7" y="453.6" width="7.5" height="16.4" fill="none" stroke="#e34948" stroke-width="1.1"/>
<rect x="368.4" y="430.6" width="7.5" height="39.4" fill="#008300"/>
<rect x="382.1" y="463.4" width="7.5" height="6.6" fill="#008300"/>
<rect x="395.7" y="443.8" width="7.5" height="26.2" fill="none" stroke="#e34948" stroke-width="1.1"/>
<rect x="409.4" y="460.2" width="7.5" height="9.8" fill="#008300"/>
<rect x="423.1" y="443.8" width="7.5" height="26.2" fill="none" stroke="#e34948" stroke-width="1.1"/>
<rect x="436.7" y="443.8" width="7.5" height="26.2" fill="#008300"/>
<rect x="450.4" y="460.2" width="7.5" height="9.8" fill="#008300"/>
<rect x="464.1" y="437.2" width="7.5" height="32.8" fill="none" stroke="#e34948" stroke-width="1.1"/>
<rect x="477.7" y="443.8" width="7.5" height="26.2" fill="#008300"/>
<rect x="491.4" y="453.6" width="7.5" height="16.4" fill="#008300"/>
<rect x="505.1" y="450.3" width="7.5" height="19.7" fill="#008300"/>
<rect x="518.7" y="443.8" width="7.5" height="26.2" fill="#008300"/>
<rect x="532.4" y="430.6" width="7.5" height="39.4" fill="none" stroke="#e34948" stroke-width="1.1"/>
<rect x="546.1" y="443.8" width="7.5" height="26.2" fill="#008300"/>
<rect x="559.7" y="460.2" width="7.5" height="9.8" fill="#008300"/>
<rect x="573.4" y="447.0" width="7.5" height="23.0" fill="none" stroke="#e34948" stroke-width="1.1"/>
<rect x="587.1" y="447.0" width="7.5" height="23.0" fill="#898781"/>
<rect x="600.7" y="450.3" width="7.5" height="19.7" fill="#008300"/>
<rect x="614.4" y="440.5" width="7.5" height="29.5" fill="none" stroke="#e34948" stroke-width="1.1"/>
<rect x="628.1" y="437.2" width="7.5" height="32.8" fill="#008300"/>
<rect x="641.7" y="456.9" width="7.5" height="13.1" fill="#008300"/>
<rect x="655.4" y="456.9" width="7.5" height="13.1" fill="none" stroke="#e34948" stroke-width="1.1"/>
<rect x="682.7" y="453.6" width="7.5" height="16.4" fill="#008300"/>
<rect x="696.4" y="460.2" width="7.5" height="9.8" fill="none" stroke="#e34948" stroke-width="1.1"/>
<rect x="710.1" y="456.9" width="7.5" height="13.1" fill="#008300"/>
<rect x="723.7" y="433.9" width="7.5" height="36.1" fill="none" stroke="#e34948" stroke-width="1.1"/>
<rect x="737.4" y="437.2" width="7.5" height="32.8" fill="none" stroke="#e34948" stroke-width="1.1"/>
<rect x="751.1" y="456.9" width="7.5" height="13.1" fill="#008300"/>
<rect x="764.7" y="456.9" width="7.5" height="13.1" fill="#008300"/>
<rect x="778.4" y="466.7" width="7.5" height="3.3" fill="#008300"/>
<rect x="792.1" y="453.6" width="7.5" height="16.4" fill="none" stroke="#e34948" stroke-width="1.1"/>
<rect x="805.7" y="443.8" width="7.5" height="26.2" fill="#008300"/>
<rect x="819.4" y="440.5" width="7.5" height="29.5" fill="#008300"/>
<polyline points="16.8,432.6 30.5,434.9 44.2,434.2 57.8,434.6 71.5,434.6 85.2,435.6 98.8,435.9 112.5,434.9 126.2,435.2 139.8,440.2 153.5,439.5 167.2,434.9 180.8,434.2 194.5,432.6 208.2,432.9 221.8,430.6 235.5,432.0 249.2,432.6 262.8,431.3 276.5,429.0 290.2,432.3 303.8,438.8 317.5,441.1 331.2,444.1 344.8,445.1 358.5,449.0 372.2,446.1 385.8,448.4 399.5,450.3 413.2,454.3 426.8,453.3 440.5,452.3 454.2,452.3 467.8,450.3 481.5,448.0 495.2,448.0 508.8,450.0 522.5,448.0 536.2,446.7 549.8,445.1 563.5,446.7 577.2,447.0 590.8,445.7 604.5,447.0 618.2,446.7 631.8,445.1 645.5,445.7 659.2,447.0 672.8,451.0 686.5,452.0 700.2,452.0 713.8,452.9 727.5,451.6 741.2,450.3 754.8,452.0 768.5,453.9 782.2,454.9 795.8,454.6 809.5,452.0 823.2,450.6" fill="none" stroke="#2a78d6" stroke-width="1.5" stroke-linejoin="round" stroke-linecap="round"/>
<polyline points="16.8,428.7 30.5,426.7 44.2,426.7 57.8,428.7 71.5,440.5 85.2,442.4 98.8,445.1 112.5,443.1 126.2,441.8 139.8,439.8 153.5,436.5 167.2,424.7 180.8,425.4 194.5,423.4 208.2,426.0 221.8,424.7 235.5,439.2 249.2,439.8 262.8,439.2 276.5,432.0 290.2,439.8 303.8,438.5 317.5,442.4 331.2,449.0 344.8,458.2 358.5,458.2 372.2,453.6 385.8,454.3 399.5,451.6 413.2,450.3 426.8,448.4 440.5,451.0 454.2,450.3 467.8,449.0 481.5,445.7 495.2,447.7 508.8,449.0 522.5,445.7 536.2,444.4 549.8,444.4 563.5,445.7 577.2,445.1 590.8,445.7 604.5,449.7 618.2,449.0 631.8,444.4 645.5,446.4 659.2,448.4 672.8,452.3 686.5,454.9 700.2,459.5 713.8,459.5 727.5,454.9 741.2,448.4 754.8,449.0 768.5,448.4 782.2,450.3 795.8,454.3 809.5,455.6 823.2,452.3" fill="none" stroke="#eda100" stroke-width="1.5" stroke-linejoin="round" stroke-linecap="round"/>
</svg>