<svg xmlns="http://www.w3.org/2000/svg" viewBox="0 0 840 496" width="840" height="496" font-family="-apple-system,&#39;Segoe UI&#39;,system-ui,sans-serif" role="img" aria-label="EbookFoundation/free-programming-books candlestick chart">
<text x="14.0" y="20.0" font-size="15" fill="#ffffff" font-weight="650">EbookFoundation/free-programming-books</text>
<text x="331.5" y="20.0" font-size="11.5" fill="#c3c2b7">daily · new stars, volume = new forks</text>
<text x="805.8" y="20.0" font-size="11.0" fill="#c3c2b7">fall</text>
<rect x="791" y="10" width="9" height="12" fill="#008300"/>
<text x="750.6" y="20.0" font-size="11.0" fill="#c3c2b7">rise</text>
<rect x="736" y="10" width="9" height="12" fill="none" stroke="#e66767" stroke-width="1.5"/>
<text x="14.0" y="38.0" font-size="11.0" fill="#898781">last 60 days · +4,557 stars · +474 forks · updated 2026-07-17</text>
<rect x="10" y="66" width="820" height="290" fill="none" stroke="#2c2c2a"/>
<rect x="10" y="384" width="820" height="86" fill="none" stroke="#2c2c2a"/>
<text x="38.0" y="490.0" font-size="11.0" fill="#898781" text-anchor="middle">2026-05</text>
<line x1="187.7" y1="66.0" x2="187.7" y2="356.0" stroke="#2c2c2a" stroke-width="1.0"/>
<line x1="187.7" y1="384.0" x2="187.7" y2="470.0" stroke="#2c2c2a" stroke-width="1.0"/>
<text x="194.5" y="490.0" font-size="11.0" fill="#898781" text-anchor="middle">2026-06</text>
<line x1="597.7" y1="66.0" x2="597.7" y2="356.0" stroke="#2c2c2a" stroke-width="1.0"/>
<line x1="597.7" y1="384.0" x2="597.7" y2="470.0" stroke="#2c2c2a" stroke-width="1.0"/>
<text x="604.5" y="490.0" font-size="11.0" fill="#898781" text-anchor="middle">2026-07</text>
<text x="14.0" y="58.0" font-size="11.0" fill="#c3c2b7">BOLL(20,2)</text>
<text x="84.5" y="58.0" font-size="11.0" fill="#c98500">UP:149.5</text>
<text x="142.9" y="58.0" font-size="11.0" fill="#3987e5">MID:75.2</text>
<text x="201.3" y="58.0" font-size="11.0" fill="#d55181">LOW:1.0</text>
<text x="253.7" y="58.0" font-size="11.0" fill="#9085e9">MA7:103.9</text>
<line x1="10.0" y1="356.0" x2="830.0" y2="356.0" stroke="#2c2c2a" stroke-width="1.0"/>
<text x="14.0" y="353.0" font-size="11.0" fill="#898781">0</text>
<line x1="10.0" y1="212.2" x2="830.0" y2="212.2" stroke="#2c2c2a" stroke-width="1.0"/>
<text x="14.0" y="209.2" font-size="11.0" fill="#898781">100</text>
<line x1="10.0" y1="68.3" x2="830.0" y2="68.3" stroke="#2c2c2a" stroke-width="1.0"/>
<text x="14.0" y="65.3" font-size="11.0" fill="#898781">200</text>
<polyline points="16.8,97.1 30.5,206.2 44.2,207.3 57.8,207.4 71.5,199.1 85.2,198.0 98.8,196.6 112.5,196.5 126.2,198.6 139.8,199.0 153.5,199.0 167.2,198.5 180.8,196.8 194.5,195.0 208.2,162.8 221.8,159.8 235.5,159.7 249.2,159.7 262.8,159.3 276.5,159.9 290.2,161.4 303.8,156.9 317.5,156.9 331.2,156.5 344.8,160.1 358.5,163.4 372.2,164.4 385.8,164.4 399.5,164.3 413.2,164.2 426.8,163.9 440.5,164.6 454.2,165.5 467.8,167.1 481.5,205.1 495.2,213.7 508.8,215.8 522.5,216.2 536.2,216.3 549.8,217.3 563.5,217.1 577.2,231.4 590.8,233.0 604.5,232.9 618.2,228.8 631.8,225.3 645.5,227.0 659.2,227.2 672.8,230.3 686.5,227.3 700.2,226.8 713.8,227.3 727.5,227.0 741.2,225.3 754.8,224.1 768.5,188.4 782.2,145.7 795.8,142.7 809.5,140.9 823.2,140.9" fill="none" stroke="#c98500" stroke-width="1.5" stroke-linejoin="round" stroke-linecap="round"/>
<polyline points="16.8,229.1 30.5,244.6 44.2,243.7 57.8,244.7 71.5,242.3 85.2,242.0 98.8,241.0 112.5,242.1 126.2,245.0 139.8,244.5 153.5,244.4 167.2,244.1 180.8,243.2 194.5,241.9 208.2,236.6 221.8,235.2 235.5,235.2 249.2,234.9 262.8,235.3 276.5,233.9 290.2,235.5 303.8,232.0 317.5,231.5 331.2,232.0 344.8,236.2 358.5,238.8 372.2,239.7 385.8,239.0 399.5,237.0 413.2,236.3 426.8,237.3 440.5,238.8 454.2,241.8 467.8,244.1 481.5,252.2 495.2,256.7 508.8,257.3 522.5,257.8 536.2,257.4 549.8,258.5 563.5,260.4 577.2,263.0 590.8,263.7 604.5,263.9 618.2,261.6 631.8,260.3 645.5,261.7 659.2,261.8 672.8,262.9 686.5,266.5 700.2,267.6 713.8,268.7 727.5,269.0 741.2,268.0 754.8,267.2 768.5,259.5 782.2,251.4 795.8,249.3 809.5,247.5 823.2,247.8" fill="none" stroke="#3987e5" stroke-width="1.5" stroke-linejoin="round" stroke-linecap="round"/>
<polyline points="16.8,356.0 30.5,282.9 44.2,280.1 57.8,282.0 71.5,285.4 85.2,286.0 98.8,285.3 112.5,287.7 126.2,291.4 139.8,290.0 153.5,289.8 167.2,289.7 180.8,289.7 194.5,288.9 208.2,310.4 221.8,310.7 235.5,310.7 249.2,310.1 262.8,311.3 276.5,307.9 290.2,309.7 303.8,307.1 317.5,306.1 331.2,307.5 344.8,312.3 358.5,314.3 372.2,315.0 385.8,313.6 399.5,309.8 413.2,308.4 426.8,310.6 440.5,312.9 454.2,318.1 467.8,321.0 481.5,299.4 495.2,299.6 508.8,298.9 522.5,299.3 536.2,298.5 549.8,299.8 563.5,303.7 577.2,294.6 590.8,294.5 604.5,294.8 618.2,294.4 631.8,295.3 645.5,296.4 659.2,296.4 672.8,295.6 686.5,305.8 700.2,308.4 713.8,310.0 727.5,311.1 741.2,310.8 754.8,310.2 768.5,330.5 782.2,356.0 795.8,355.9 809.5,354.0 823.2,354.6" fill="none" stroke="#d55181" stroke-width="1.5" stroke-linejoin="round" stroke-linecap="round"/>
<polyline points="16.8,241.8 30.5,248.5 44.2,252.9 57.8,257.6 71.5,248.5 85.2,240.1 98.8,233.3 112.5,239.6 126.2,241.4 139.8,241.8 153.5,240.3 167.2,245.7 180.8,248.1 194.5,247.7 208.2,225.5 221.8,214.6 235.5,210.1 249.2,210.1 262.8,216.0 276.5,219.5 290.2,223.5 303.8,235.3 317.5,242.2 331.2,248.5 344.8,252.3 358.5,250.1 372.2,249.7 385.8,249.6 399.5,255.7 413.2,255.4 426.8,255.3 440.5,253.0 454.2,256.6 467.8,260.2 481.5,263.4 495.2,270.7 508.8,270.1 522.5,268.7 536.2,269.3 549.8,267.4 563.5,270.1 577.2,266.2 590.8,262.4 604.5,267.2 618.2,263.4 631.8,258.6 645.5,258.8 659.2,253.4 672.8,255.4 686.5,263.5 700.2,266.0 713.8,273.1 727.5,281.3 741.2,278.3 754.8,278.8 768.5,260.9 782.2,227.0 795.8,216.3 809.5,208.7 823.2,206.5" fill="none" stroke="#9085e9" stroke-width="1.5" stroke-linejoin="round" stroke-linecap="round"/>
<rect x="13.1" y="220.8" width="7.5" height="54.7" fill="none" stroke="#e66767" stroke-width="1.3"/>
<rect x="26.7" y="220.8" width="7.5" height="43.2" fill="#008300"/>
<rect x="40.4" y="256.7" width="7.5" height="7.2" fill="none" stroke="#e66767" stroke-width="1.3"/>
<rect x="54.1" y="256.7" width="7.5" height="5.8" fill="#008300"/>
<rect x="67.7" y="194.9" width="7.5" height="67.6" fill="none" stroke="#e66767" stroke-width="1.3"/>
<rect x="81.4" y="194.9" width="7.5" height="11.5" fill="#008300"/>
<rect x="95.1" y="206.4" width="7.5" height="21.6" fill="#008300"/>
<rect x="108.7" y="228.0" width="7.5" height="37.4" fill="#008300"/>
<rect x="122.4" y="265.4" width="7.5" height="10.1" fill="#008300"/>
<rect x="136.1" y="259.6" width="7.5" height="15.8" fill="none" stroke="#e66767" stroke-width="1.3"/>
<rect x="149.7" y="252.4" width="7.5" height="7.2" fill="none" stroke="#e66767" stroke-width="1.3"/>
<rect x="163.4" y="232.3" width="7.5" height="20.1" fill="none" stroke="#e66767" stroke-width="1.3"/>
<rect x="177.1" y="223.7" width="7.5" height="8.6" fill="none" stroke="#e66767" stroke-width="1.3"/>
<rect x="190.7" y="223.7" width="7.5" height="1.4" fill="#008300"/>
<rect x="204.4" y="110.0" width="7.5" height="115.1" fill="none" stroke="#e66767" stroke-width="1.3"/>
<rect x="218.1" y="110.0" width="7.5" height="89.2" fill="#008300"/>
<rect x="231.7" y="199.2" width="7.5" height="28.8" fill="#008300"/>
<rect x="245.4" y="228.0" width="7.5" height="24.5" fill="#008300"/>
<rect x="259.1" y="252.4" width="7.5" height="21.6" fill="#008300"/>
<rect x="272.7" y="248.1" width="7.5" height="25.9" fill="none" stroke="#e66767" stroke-width="1.3"/>
<rect x="286.4" y="248.1" width="7.5" height="4.3" fill="#008300"/>
<rect x="300.1" y="193.5" width="7.5" height="59.0" fill="none" stroke="#e66767" stroke-width="1.3"/>
<rect x="313.7" y="193.5" width="7.5" height="53.2" fill="#008300"/>
<rect x="327.4" y="246.7" width="7.5" height="25.9" fill="#008300"/>
<rect x="341.1" y="272.6" width="7.5" height="5.8" fill="#008300"/>
<rect x="354.7" y="259.6" width="7.5" height="18.7" fill="none" stroke="#e66767" stroke-width="1.3"/>
<rect x="368.4" y="245.2" width="7.5" height="14.4" fill="none" stroke="#e66767" stroke-width="1.3"/>
<rect x="382.1" y="245.2" width="7.5" height="5.8" fill="#008300"/>
<rect x="395.7" y="236.6" width="7.5" height="14.4" fill="none" stroke="#e66767" stroke-width="1.3"/>
<rect x="409.4" y="236.6" width="7.5" height="8.6" fill="#008300"/>
<rect x="423.1" y="245.2" width="7.5" height="25.9" fill="#008300"/>
<rect x="436.7" y="262.5" width="7.5" height="8.6" fill="none" stroke="#e66767" stroke-width="1.3"/>
<rect x="450.4" y="262.5" width="7.5" height="21.6" fill="#008300"/>
<rect x="464.1" y="271.1" width="7.5" height="12.9" fill="none" stroke="#e66767" stroke-width="1.3"/>
<rect x="477.7" y="271.1" width="7.5" height="1.4" fill="#008300"/>
<rect x="491.4" y="272.6" width="7.5" height="15.8" fill="#008300"/>
<rect x="505.1" y="240.9" width="7.5" height="47.5" fill="none" stroke="#e66767" stroke-width="1.3"/>
<rect x="518.7" y="240.9" width="7.5" height="20.1" fill="#008300"/>
<rect x="532.4" y="261.1" width="7.5" height="5.8" fill="#008300"/>
<rect x="546.1" y="266.8" width="7.5" height="4.3" fill="#008300"/>
<rect x="559.7" y="271.1" width="7.5" height="18.7" fill="#008300"/>
<rect x="573.4" y="245.2" width="7.5" height="44.6" fill="none" stroke="#e66767" stroke-width="1.3"/>
<rect x="587.1" y="245.2" width="7.5" height="15.8" fill="#008300"/>
<rect x="600.7" y="261.1" width="7.5" height="14.4" fill="#008300"/>
<rect x="614.4" y="233.7" width="7.5" height="41.7" fill="none" stroke="#e66767" stroke-width="1.3"/>
<rect x="628.1" y="233.7" width="7.5" height="1.2" fill="#898781"/>
<rect x="641.7" y="233.7" width="7.5" height="38.8" fill="#008300"/>
<rect x="655.4" y="252.4" width="7.5" height="20.1" fill="none" stroke="#e66767" stroke-width="1.3"/>
<rect x="669.1" y="252.4" width="7.5" height="7.2" fill="#008300"/>
<rect x="682.7" y="259.6" width="7.5" height="57.5" fill="#008300"/>
<rect x="696.4" y="292.7" width="7.5" height="24.5" fill="none" stroke="#e66767" stroke-width="1.3"/>
<rect x="710.1" y="284.1" width="7.5" height="8.6" fill="none" stroke="#e66767" stroke-width="1.3"/>
<rect x="723.7" y="284.1" width="7.5" height="7.2" fill="#008300"/>
<rect x="737.4" y="251.0" width="7.5" height="40.3" fill="none" stroke="#e66767" stroke-width="1.3"/>
<rect x="751.1" y="251.0" width="7.5" height="4.3" fill="#008300"/>
<rect x="764.7" y="134.5" width="7.5" height="120.8" fill="none" stroke="#e66767" stroke-width="1.3"/>
<rect x="778.4" y="79.8" width="7.5" height="54.7" fill="none" stroke="#e66767" stroke-width="1.3"/>
<rect x="792.1" y="79.8" width="7.5" height="138.1" fill="#008300"/>
<rect x="805.7" y="217.9" width="7.5" height="12.9" fill="#008300"/>
<rect x="819.4" y="230.9" width="7.5" height="46.0" fill="#008300"/>
<circle cx="782.2" cy="79.8" r="2" fill="#c3c2b7"/>
<line x1="782.2" y1="79.8" x2="774.2" y2="79.8" stroke="#c3c2b7" stroke-width="1.0"/>
<text x="771.2" y="83.8" font-size="11.0" fill="#c3c2b7" text-anchor="end">192</text>
<circle cx="686.5" cy="317.2" r="2" fill="#c3c2b7"/>
<line x1="686.5" y1="317.2" x2="678.5" y2="317.2" stroke="#c3c2b7" stroke-width="1.0"/>
<text x="675.5" y="321.2" font-size="11.0" fill="#c3c2b7" text-anchor="end">27</text>
<text x="14.0" y="376.0" font-size="11.0" fill="#c3c2b7">VOL 1 forks</text>
<text x="90.6" y="376.0" font-size="11.0" fill="#c98500">MA5:6</text>
<text x="130.8" y="376.0" font-size="11.0" fill="#3987e5">MA10:4.6</text>
<text x="14.0" y="395.0" font-size="10" fill="#898781">25</text>
<rect x="13.1" y="443.8" width="7.5" height="26.2" fill="none" stroke="#e66767" stroke-width="1.1"/>
<rect x="26.7" y="433.9" width="7.5" height="36.1" fill="#008300"/>
<rect x="40.4" y="394.6" width="7.5" height="75.4" fill="none" stroke="#e66767" stroke-width="1.1"/>
<rect x="54.1" y="427.4" width="7.5" height="42.6" fill="#008300"/>
<rect x="67.7" y="433.9" width="7.5" height="36.1" fill="none" stroke="#e66767" stroke-width="1.1"/>
<rect x="81.4" y="443.8" width="7.5" height="26.2" fill="#008300"/>
<rect x="95.1" y="443.8" width="7.5" height="26.2" fill="#008300"/>
<rect x="108.7" y="453.6" width="7.5" height="16.4" fill="#008300"/>
<rect x="122.4" y="437.2" width="7.5" height="32.8" fill="#008300"/>
<rect x="136.1" y="447.0" width="7.5" height="23.0" fill="none" stroke="#e66767" stroke-width="1.1"/>
<rect x="149.7" y="433.9" width="7.5" height="36.1" fill="none" stroke="#e66767" stroke-width="1.1"/>
<rect x="163.4" y="437.2" width="7.5" height="32.8" fill="none" stroke="#e66767" stroke-width="1.1"/>
<rect x="177.1" y="443.8" width="7.5" height="26.2" fill="none" stroke="#e66767" stroke-width="1.1"/>
<rect x="190.7" y="420.8" width="7.5" height="49.2" fill="#008300"/>
<rect x="204.4" y="388.0" width="7.5" height="82.0" fill="none" stroke="#e66767" stroke-width="1.1"/>
<rect x="218.1" y="437.2" width="7.5" height="32.8" fill="#008300"/>
<rect x="231.7" y="427.4" width="7.5" height="42.6" fill="#008300"/>
<rect x="245.4" y="456.9" width="7.5" height="13.1" fill="#008300"/>
<rect x="259.1" y="414.2" width="7.5" height="55.8" fill="#008300"/>
<rect x="272.7" y="460.2" width="7.5" height="9.8" fill="none" stroke="#e66767" stroke-width="1.1"/>
<rect x="286.4" y="440.5" width="7.5" height="29.5" fill="#008300"/>
<rect x="300.1" y="424.1" width="7.5" height="45.9" fill="none" stroke="#e66767" stroke-width="1.1"/>
<rect x="313.7" y="420.8" width="7.5" height="49.2" fill="#008300"/>
<rect x="327.4" y="453.6" width="7.5" height="16.4" fill="#008300"/>
<rect x="341.1" y="453.6" width="7.5" height="16.4" fill="#008300"/>
<rect x="354.7" y="460.2" width="7.5" height="9.8" fill="none" stroke="#e66767" stroke-width="1.1"/>
<rect x="368.4" y="456.9" width="7.5" height="13.1" fill="none" stroke="#e66767" stroke-width="1.1"/>
<rect x="382.1" y="466.7" width="7.5" height="3.3" fill="#008300"/>
<rect x="395.7" y="453.6" width="7.5" height="16.4" fill="none" stroke="#e66767" stroke-width="1.1"/>
<rect x="409.4" y="430.6" width="7.5" height="39.4" fill="#008300"/>
<rect x="423.1" y="463.4" width="7.5" height="6.6" fill="#008300"/>
<rect x="436.7" y="443.8" width="7.5" height="26.2" fill="none" stroke="#e66767" stroke-width="1.1"/>
<rect x="450.4" y="460.2" width="7.5" height="9.8" fill="#008300"/>
<rect x="464.1" y="443.8" width="7.5" height="26.2" fill="none" stroke="#e66767" stroke-width="1.1"/>
<rect x="477.7" y="443.8" width="7.5" height="26.2" fill="#008300"/>
<rect x="491.4" y="460.2" width="7.5" height="9.8" fill="#008300"/>
<rect x="505.1" y="437.2" width="7.5" height="32.8" fill="none" stroke="#e66767" stroke-width="1.1"/>
<rect x="518.7" y="443.8" width="7.5" height="26.2" fill="#008300"/>
<rect x="532.4" y="453.6" width="7.5" height="16.4" fill="#008300"/>
<rect x="546.1" y="450.3" width="7.5" height="19.7" fill="#008300"/>
<rect x="559.7" y="443.8" width="7.5" height="26.2" fill="#008300"/>
<rect x="573.4" y="430.6" width="7.5" height="39.4" fill="none" stroke="#e66767" stroke-width="1.1"/>
<rect x="587.1" y="443.8" width="7.5" height="26.2" fill="#008300"/>
<rect x="600.7" y="460.2" width="7.5" height="9.8" fill="#008300"/>
<rect x="614.4" y="447.0" width="7.5" height="23.0" fill="none" stroke="#e66767" stroke-width="1.1"/>
<rect x="628.1" y="447.0" width="7.5" height="23.0" fill="#898781"/>
<rect x="641.7" y="450.3" width="7.5" height="19.7" fill="#008300"/>
<rect x="655.4" y="440.5" width="7.5" height="29.5" fill="none" stroke="#e66767" stroke-width="1.1"/>
<rect x="669.1" y="437.2" width="7.5" height="32.8" fill="#008300"/>
<rect x="682.7" y="456.9" width="7.5" height="13.1" fill="#008300"/>
<rect x="696.4" y="456.9" width="7.5" height="13.1" fill="none" stroke="#e66767" stroke-width="1.1"/>
<rect x="723.7" y="453.6" width="7.5" height="16.4" fill="#008300"/>
<rect x="737.4" y="460.2" width="7.5" height="9.8" fill="none" stroke="#e66767" stroke-width="1.1"/>
<rect x="751.1" y="456.9" width="7.5" height="13.1" fill="#008300"/>
<rect x="764.7" y="433.9" width="7.5" height="36.1" fill="none" stroke="#e66767" stroke-width="1.1"/>
<rect x="778.4" y="437.2" width="7.5" height="32.8" fill="none" stroke="#e66767" stroke-width="1.1"/>
<rect x="792.1" y="456.9" width="7.5" height="13.1" fill="#008300"/>
<rect x="805.7" y="456.9" width="7.5" height="13.1" fill="#008300"/>
<rect x="819.4" y="466.7" width="7.5" height="3.3" fill="#008300"/>
<polyline points="16.8,438.2 30.5,437.5 44.2,432.9 57.8,432.6 71.5,434.9 85.2,434.2 98.8,434.6 112.5,434.6 126.2,435.6 139.8,435.9 153.5,434.9 167.2,435.2 180.8,440.2 194.5,439.5 208.2,434.9 221.8,434.2 235.5,432.6 249.2,432.9 262.8,430.6 276.5,432.0 290.2,432.6 303.8,431.3 317.5,429.0 331.2,432.3 344.8,438.8 358.5,441.1 372.2,444.1 385.8,445.1 399.5,449.0 413.2,446.1 426.8,448.4 440.5,450.3 454.2,454.3 467.8,453.3 481.5,452.3 495.2,452.3 508.8,450.3 522.5,448.0 536.2,448.0 549.8,450.0 563.5,448.0 577.2,446.7 590.8,445.1 604.5,446.7 618.2,447.0 631.8,445.7 645.5,447.0 659.2,446.7 672.8,445.1 686.5,445.7 700.2,447.0 713.8,451.0 727.5,452.0 741.2,452.0 754.8,452.9 768.5,451.6 782.2,450.3 795.8,452.0 809.5,453.9 823.2,454.9" fill="none" stroke="#3987e5" stroke-width="1.5" stroke-linejoin="round" stroke-linecap="round"/>
<polyline points="16.8,441.8 30.5,440.5 44.2,428.7 57.8,428.7 71.5,426.7 85.2,426.7 98.8,428.7 112.5,440.5 126.2,442.4 139.8,445.1 153.5,443.1 167.2,441.8 180.8,439.8 194.5,436.5 208.2,424.7 221.8,425.4 235.5,423.4 249.2,426.0 262.8,424.7 276.5,439.2 290.2,439.8 303.8,439.2 317.5,432.0 331.2,439.8 344.8,438.5 358.5,442.4 372.2,449.0 385.8,458.2 399.5,458.2 413.2,453.6 426.8,454.3 440.5,451.6 454.2,450.3 467.8,448.4 481.5,451.0 495.2,450.3 508.8,449.0 522.5,445.7 536.2,447.7 549.8,449.0 563.5,445.7 577.2,444.4 590.8,444.4 604.5,445.7 618.2,445.1 631.8,445.7 645.5,449.7 659.2,449.0 672.8,444.4 686.5,446.4 700.2,448.4 713.8,452.3 727.5,454.9 741.2,459.5 754.8,459.5 768.5,454.9 782.2,448.4 795.8,449.0 809.5,448.4 823.2,450.3" fill="none" stroke="#c98500" stroke-width="1.5" stroke-linejoin="round" stroke-linecap="round"/>
</svg>