<svg xmlns="http://www.w3.org/2000/svg" viewBox="0 0 840 496" width="840" height="496" font-family="-apple-system,&#39;Segoe UI&#39;,system-ui,sans-serif" role="img" aria-label="EbookFoundation/free-programming-books candlestick chart">
<text x="14.0" y="20.0" font-size="15" fill="#0b0b0b" font-weight="650">EbookFoundation/free-programming-books</text>
<text x="331.5" y="20.0" font-size="11.5" fill="#52514e">daily · new stars, volume = new forks</text>
<text x="805.8" y="20.0" font-size="11.0" fill="#52514e">fall</text>
<rect x="791" y="10" width="9" height="12" fill="#008300"/>
<text x="750.6" y="20.0" font-size="11.0" fill="#52514e">rise</text>
<rect x="736" y="10" width="9" height="12" fill="none" stroke="#e34948" stroke-width="1.5"/>
<text x="14.0" y="38.0" font-size="11.0" fill="#898781">last 60 days · +4,402 stars · +490 forks · updated 2026-07-13</text>
<rect x="10" y="66" width="820" height="290" fill="none" stroke="#e1e0d9"/>
<rect x="10" y="384" width="820" height="86" fill="none" stroke="#e1e0d9"/>
<text x="38.0" y="490.0" font-size="11.0" fill="#898781" text-anchor="middle">2026-05</text>
<line x1="242.3" y1="66.0" x2="242.3" y2="356.0" stroke="#e1e0d9" stroke-width="1.0"/>
<line x1="242.3" y1="384.0" x2="242.3" y2="470.0" stroke="#e1e0d9" stroke-width="1.0"/>
<text x="249.2" y="490.0" font-size="11.0" fill="#898781" text-anchor="middle">2026-06</text>
<line x1="652.3" y1="66.0" x2="652.3" y2="356.0" stroke="#e1e0d9" stroke-width="1.0"/>
<line x1="652.3" y1="384.0" x2="652.3" y2="470.0" stroke="#e1e0d9" stroke-width="1.0"/>
<text x="659.2" y="490.0" font-size="11.0" fill="#898781" text-anchor="middle">2026-07</text>
<text x="14.0" y="58.0" font-size="11.0" fill="#52514e">BOLL(20,2)</text>
<text x="84.5" y="58.0" font-size="11.0" fill="#eda100">UP:116.5</text>
<text x="142.9" y="58.0" font-size="11.0" fill="#2a78d6">MID:67.1</text>
<text x="201.3" y="58.0" font-size="11.0" fill="#e87ba4">LOW:17.7</text>
<text x="259.7" y="58.0" font-size="11.0" fill="#4a3aa7">MA7:66.1</text>
<line x1="10.0" y1="356.0" x2="830.0" y2="356.0" stroke="#e1e0d9" stroke-width="1.0"/>
<text x="14.0" y="353.0" font-size="11.0" fill="#898781">0</text>
<line x1="10.0" y1="274.3" x2="830.0" y2="274.3" stroke="#e1e0d9" stroke-width="1.0"/>
<text x="14.0" y="271.3" font-size="11.0" fill="#898781">100</text>
<line x1="10.0" y1="192.7" x2="830.0" y2="192.7" stroke="#e1e0d9" stroke-width="1.0"/>
<text x="14.0" y="189.7" font-size="11.0" fill="#898781">200</text>
<line x1="10.0" y1="111.0" x2="830.0" y2="111.0" stroke="#e1e0d9" stroke-width="1.0"/>
<text x="14.0" y="108.0" font-size="11.0" fill="#898781">300</text>
<polyline points="57.8,79.8 71.5,209.0 85.2,271.0 98.8,271.6 112.5,271.7 126.2,266.9 139.8,266.3 153.5,265.5 167.2,265.5 180.8,266.7 194.5,266.9 208.2,266.9 221.8,266.6 235.5,265.6 249.2,264.6 262.8,246.3 276.5,244.6 290.2,244.5 303.8,244.5 317.5,244.3 331.2,244.7 344.8,245.5 358.5,243.0 372.2,243.0 385.8,242.7 399.5,244.8 413.2,246.6 426.8,247.2 440.5,247.2 454.2,247.2 467.8,247.1 481.5,246.9 495.2,247.3 508.8,247.8 522.5,248.8 536.2,270.3 549.8,275.2 563.5,276.4 577.2,276.6 590.8,276.7 604.5,277.2 618.2,277.1 631.8,285.2 645.5,286.2 659.2,286.1 672.8,283.8 686.5,281.8 700.2,282.8 713.8,282.9 727.5,284.6 741.2,282.9 754.8,282.6 768.5,282.9 782.2,282.8 795.8,281.8 809.5,281.1 823.2,260.9" fill="none" stroke="#eda100" stroke-width="1.5" stroke-linejoin="round" stroke-linecap="round"/>
<polyline points="57.8,264.8 71.5,283.9 85.2,292.7 98.8,292.3 112.5,292.8 126.2,291.4 139.8,291.3 153.5,290.7 167.2,291.4 180.8,293.0 194.5,292.7 208.2,292.6 221.8,292.5 235.5,292.0 249.2,291.2 262.8,288.2 276.5,287.4 290.2,287.4 303.8,287.2 317.5,287.5 331.2,286.7 344.8,287.6 358.5,285.6 372.2,285.3 385.8,285.6 399.5,288.0 413.2,289.5 426.8,290.0 440.5,289.6 454.2,288.5 467.8,288.0 481.5,288.6 495.2,289.4 508.8,291.2 522.5,292.5 536.2,297.1 549.8,299.6 563.5,300.0 577.2,300.2 590.8,300.0 604.5,300.7 618.2,301.7 631.8,303.2 645.5,303.6 659.2,303.7 672.8,302.4 686.5,301.7 700.2,302.5 713.8,302.5 727.5,303.2 741.2,305.2 754.8,305.8 768.5,306.4 782.2,306.6 795.8,306.1 809.5,305.6 823.2,301.2" fill="none" stroke="#2a78d6" stroke-width="1.5" stroke-linejoin="round" stroke-linecap="round"/>
<polyline points="57.8,356.0 71.5,356.0 85.2,314.5 98.8,312.9 112.5,314.0 126.2,315.9 139.8,316.3 153.5,315.9 167.2,317.2 180.8,319.3 194.5,318.5 208.2,318.4 221.8,318.4 235.5,318.3 249.2,317.9 262.8,330.1 276.5,330.3 290.2,330.3 303.8,329.9 317.5,330.6 331.2,328.7 344.8,329.7 358.5,328.2 372.2,327.7 385.8,328.5 399.5,331.2 413.2,332.3 426.8,332.7 440.5,331.9 454.2,329.7 467.8,329.0 481.5,330.2 495.2,331.5 508.8,334.5 522.5,336.1 536.2,323.8 549.8,324.0 563.5,323.6 577.2,323.8 590.8,323.3 604.5,324.1 618.2,326.3 631.8,321.1 645.5,321.1 659.2,321.2 672.8,321.1 686.5,321.6 700.2,322.1 713.8,322.1 727.5,321.7 741.2,327.5 754.8,329.0 768.5,329.9 782.2,330.5 795.8,330.3 809.5,330.0 823.2,341.5" fill="none" stroke="#e87ba4" stroke-width="1.5" stroke-linejoin="round" stroke-linecap="round"/>
<polyline points="16.8,288.3 30.5,288.5 44.2,290.7 57.8,293.6 71.5,291.2 85.2,295.0 98.8,297.4 112.5,300.1 126.2,295.0 139.8,290.2 153.5,286.3 167.2,289.9 180.8,290.9 194.5,291.2 208.2,290.3 221.8,293.4 235.5,294.7 249.2,294.5 262.8,281.9 276.5,275.7 290.2,273.2 303.8,273.2 317.5,276.5 331.2,278.5 344.8,280.8 358.5,287.5 372.2,291.4 385.8,295.0 399.5,297.1 413.2,295.9 426.8,295.6 440.5,295.6 454.2,299.1 467.8,298.9 481.5,298.8 495.2,297.5 508.8,299.6 522.5,301.6 536.2,303.4 549.8,307.6 563.5,307.2 577.2,306.4 590.8,306.8 604.5,305.7 618.2,307.2 631.8,305.0 645.5,302.8 659.2,305.6 672.8,303.4 686.5,300.7 700.2,300.8 713.8,297.8 727.5,298.9 741.2,303.5 754.8,304.9 768.5,309.0 782.2,313.6 795.8,311.9 809.5,312.1 823.2,302.0" fill="none" stroke="#4a3aa7" stroke-width="1.5" stroke-linejoin="round" stroke-linecap="round"/>
<rect x="13.1" y="282.5" width="7.5" height="1.6" fill="#008300"/>
<rect x="26.7" y="284.1" width="7.5" height="16.3" fill="#008300"/>
<rect x="40.4" y="300.5" width="7.5" height="4.1" fill="#008300"/>
<rect x="54.1" y="304.5" width="7.5" height="5.7" fill="#008300"/>
<rect x="67.7" y="279.2" width="7.5" height="31.0" fill="none" stroke="#e34948" stroke-width="1.3"/>
<rect x="81.4" y="279.2" width="7.5" height="24.5" fill="#008300"/>
<rect x="95.1" y="299.6" width="7.5" height="4.1" fill="none" stroke="#e34948" stroke-width="1.3"/>
<rect x="108.7" y="299.6" width="7.5" height="3.3" fill="#008300"/>
<rect x="122.4" y="264.5" width="7.5" height="38.4" fill="none" stroke="#e34948" stroke-width="1.3"/>
<rect x="136.1" y="264.5" width="7.5" height="6.5" fill="#008300"/>
<rect x="149.7" y="271.1" width="7.5" height="12.3" fill="#008300"/>
<rect x="163.4" y="283.3" width="7.5" height="21.2" fill="#008300"/>
<rect x="177.1" y="304.5" width="7.5" height="5.7" fill="#008300"/>
<rect x="190.7" y="301.3" width="7.5" height="9.0" fill="none" stroke="#e34948" stroke-width="1.3"/>
<rect x="204.4" y="297.2" width="7.5" height="4.1" fill="none" stroke="#e34948" stroke-width="1.3"/>
<rect x="218.1" y="285.8" width="7.5" height="11.4" fill="none" stroke="#e34948" stroke-width="1.3"/>
<rect x="231.7" y="280.9" width="7.5" height="4.9" fill="none" stroke="#e34948" stroke-width="1.3"/>
<rect x="245.4" y="280.9" width="7.5" height="1.2" fill="#008300"/>
<rect x="259.1" y="216.3" width="7.5" height="65.3" fill="none" stroke="#e34948" stroke-width="1.3"/>
<rect x="272.7" y="216.3" width="7.5" height="50.6" fill="#008300"/>
<rect x="286.4" y="267.0" width="7.5" height="16.3" fill="#008300"/>
<rect x="300.1" y="283.3" width="7.5" height="13.9" fill="#008300"/>
<rect x="313.7" y="297.2" width="7.5" height="12.3" fill="#008300"/>
<rect x="327.4" y="294.7" width="7.5" height="14.7" fill="none" stroke="#e34948" stroke-width="1.3"/>
<rect x="341.1" y="294.7" width="7.5" height="2.5" fill="#008300"/>
<rect x="354.7" y="263.7" width="7.5" height="33.5" fill="none" stroke="#e34948" stroke-width="1.3"/>
<rect x="368.4" y="263.7" width="7.5" height="30.2" fill="#008300"/>
<rect x="382.1" y="293.9" width="7.5" height="14.7" fill="#008300"/>
<rect x="395.7" y="308.6" width="7.5" height="3.3" fill="#008300"/>
<rect x="409.4" y="301.3" width="7.5" height="10.6" fill="none" stroke="#e34948" stroke-width="1.3"/>
<rect x="423.1" y="293.1" width="7.5" height="8.2" fill="none" stroke="#e34948" stroke-width="1.3"/>
<rect x="436.7" y="293.1" width="7.5" height="3.3" fill="#008300"/>
<rect x="450.4" y="288.2" width="7.5" height="8.2" fill="none" stroke="#e34948" stroke-width="1.3"/>
<rect x="464.1" y="288.2" width="7.5" height="4.9" fill="#008300"/>
<rect x="477.7" y="293.1" width="7.5" height="14.7" fill="#008300"/>
<rect x="491.4" y="302.9" width="7.5" height="4.9" fill="none" stroke="#e34948" stroke-width="1.3"/>
<rect x="505.1" y="302.9" width="7.5" height="12.3" fill="#008300"/>
<rect x="518.7" y="307.8" width="7.5" height="7.4" fill="none" stroke="#e34948" stroke-width="1.3"/>
<rect x="532.4" y="307.8" width="7.5" height="1.2" fill="#008300"/>
<rect x="546.1" y="308.6" width="7.5" height="9.0" fill="#008300"/>
<rect x="559.7" y="290.7" width="7.5" height="27.0" fill="none" stroke="#e34948" stroke-width="1.3"/>
<rect x="573.4" y="290.7" width="7.5" height="11.4" fill="#008300"/>
<rect x="587.1" y="302.1" width="7.5" height="3.3" fill="#008300"/>
<rect x="600.7" y="305.4" width="7.5" height="2.5" fill="#008300"/>
<rect x="614.4" y="307.8" width="7.5" height="10.6" fill="#008300"/>
<rect x="628.1" y="293.1" width="7.5" height="25.3" fill="none" stroke="#e34948" stroke-width="1.3"/>
<rect x="641.7" y="293.1" width="7.5" height="9.0" fill="#008300"/>
<rect x="655.4" y="302.1" width="7.5" height="8.2" fill="#008300"/>
<rect x="669.1" y="286.6" width="7.5" height="23.7" fill="none" stroke="#e34948" stroke-width="1.3"/>
<rect x="682.7" y="286.6" width="7.5" height="1.2" fill="#898781"/>
<rect x="696.4" y="286.6" width="7.5" height="22.1" fill="#008300"/>
<rect x="710.1" y="297.2" width="7.5" height="11.4" fill="none" stroke="#e34948" stroke-width="1.3"/>
<rect x="723.7" y="297.2" width="7.5" height="4.1" fill="#008300"/>
<rect x="737.4" y="301.3" width="7.5" height="32.7" fill="#008300"/>
<rect x="751.1" y="320.1" width="7.5" height="13.9" fill="none" stroke="#e34948" stroke-width="1.3"/>
<rect x="764.7" y="315.2" width="7.5" height="4.9" fill="none" stroke="#e34948" stroke-width="1.3"/>
<rect x="778.4" y="315.2" width="7.5" height="4.1" fill="#008300"/>
<rect x="792.1" y="296.4" width="7.5" height="22.9" fill="none" stroke="#e34948" stroke-width="1.3"/>
<rect x="805.7" y="296.4" width="7.5" height="2.5" fill="#008300"/>
<rect x="819.4" y="230.2" width="7.5" height="68.6" fill="none" stroke="#e34948" stroke-width="1.3"/>
<circle cx="262.8" cy="216.3" r="2" fill="#52514e"/>
<line x1="262.8" y1="216.3" x2="270.8" y2="216.3" stroke="#52514e" stroke-width="1.0"/>
<text x="273.8" y="220.3" font-size="11.0" fill="#52514e">171</text>
<circle cx="741.2" cy="333.9" r="2" fill="#52514e"/>
<line x1="741.2" y1="333.9" x2="733.2" y2="333.9" stroke="#52514e" stroke-width="1.0"/>
<text x="730.2" y="337.9" font-size="11.0" fill="#52514e" text-anchor="end">27</text>
<text x="14.0" y="376.0" font-size="11.0" fill="#52514e">VOL 11 forks</text>
<text x="96.6" y="376.0" font-size="11.0" fill="#eda100">MA5:4.6</text>
<text x="149.0" y="376.0" font-size="11.0" fill="#2a78d6">MA10:5.6</text>
<text x="14.0" y="395.0" font-size="10" fill="#898781">25</text>
<rect x="13.1" y="440.5" width="7.5" height="29.5" fill="#008300"/>
<rect x="26.7" y="453.6" width="7.5" height="16.4" fill="#008300"/>
<rect x="40.4" y="427.4" width="7.5" height="42.6" fill="#008300"/>
<rect x="54.1" y="443.8" width="7.5" height="26.2" fill="#008300"/>
<rect x="67.7" y="443.8" width="7.5" height="26.2" fill="none" stroke="#e34948" stroke-width="1.1"/>
<rect x="81.4" y="433.9" width="7.5" height="36.1" fill="#008300"/>
<rect x="95.1" y="394.6" width="7.5" height="75.4" fill="none" stroke="#e34948" stroke-width="1.1"/>
<rect x="108.7" y="427.4" width="7.5" height="42.6" fill="#008300"/>
<rect x="122.4" y="433.9" width="7.5" height="36.1" fill="none" stroke="#e34948" stroke-width="1.1"/>
<rect x="136.1" y="443.8" width="7.5" height="26.2" fill="#008300"/>
<rect x="149.7" y="443.8" width="7.5" height="26.2" fill="#008300"/>
<rect x="163.4" y="453.6" width="7.5" height="16.4" fill="#008300"/>
<rect x="177.1" y="437.2" width="7.5" height="32.8" fill="#008300"/>
<rect x="190.7" y="447.0" width="7.5" height="23.0" fill="none" stroke="#e34948" stroke-width="1.1"/>
<rect x="204.4" y="433.9" width="7.5" height="36.1" fill="none" stroke="#e34948" stroke-width="1.1"/>
<rect x="218.1" y="437.2" width="7.5" height="32.8" fill="none" stroke="#e34948" stroke-width="1.1"/>
<rect x="231.7" y="443.8" width="7.5" height="26.2" fill="none" stroke="#e34948" stroke-width="1.1"/>
<rect x="245.4" y="420.8" width="7.5" height="49.2" fill="#008300"/>
<rect x="259.1" y="388.0" width="7.5" height="82.0" fill="none" stroke="#e34948" stroke-width="1.1"/>
<rect x="272.7" y="437.2" width="7.5" height="32.8" fill="#008300"/>
<rect x="286.4" y="427.4" width="7.5" height="42.6" fill="#008300"/>
<rect x="300.1" y="456.9" width="7.5" height="13.1" fill="#008300"/>
<rect x="313.7" y="414.2" width="7.5" height="55.8" fill="#008300"/>
<rect x="327.4" y="460.2" width="7.5" height="9.8" fill="none" stroke="#e34948" stroke-width="1.1"/>
<rect x="341.1" y="440.5" width="7.5" height="29.5" fill="#008300"/>
<rect x="354.7" y="424.1" width="7.5" height="45.9" fill="none" stroke="#e34948" stroke-width="1.1"/>
<rect x="368.4" y="420.8" width="7.5" height="49.2" fill="#008300"/>
<rect x="382.1" y="453.6" width="7.5" height="16.4" fill="#008300"/>
<rect x="395.7" y="453.6" width="7.5" height="16.4" fill="#008300"/>
<rect x="409.4" y="460.2" width="7.5" height="9.8" fill="none" stroke="#e34948" stroke-width="1.1"/>
<rect x="423.1" y="456.9" width="7.5" height="13.1" fill="none" stroke="#e34948" stroke-width="1.1"/>
<rect x="436.7" y="466.7" width="7.5" height="3.3" fill="#008300"/>
<rect x="450.4" y="453.6" width="7.5" height="16.4" fill="none" stroke="#e34948" stroke-width="1.1"/>
<rect x="464.1" y="430.6" width="7.5" height="39.4" fill="#008300"/>
<rect x="477.7" y="463.4" width="7.5" height="6.6" fill="#008300"/>
<rect x="491.4" y="443.8" width="7.5" height="26.2" fill="none" stroke="#e34948" stroke-width="1.1"/>
<rect x="505.1" y="460.2" width="7.5" height="9.8" fill="#008300"/>
<rect x="518.7" y="443.8" width="7.5" height="26.2" fill="none" stroke="#e34948" stroke-width="1.1"/>
<rect x="532.4" y="443.8" width="7.5" height="26.2" fill="#008300"/>
<rect x="546.1" y="460.2" width="7.5" height="9.8" fill="#008300"/>
<rect x="559.7" y="437.2" width="7.5" height="32.8" fill="none" stroke="#e34948" stroke-width="1.1"/>
<rect x="573.4" y="443.8" width="7.5" height="26.2" fill="#008300"/>
<rect x="587.1" y="453.6" width="7.5" height="16.4" fill="#008300"/>
<rect x="600.7" y="450.3" width="7.5" height="19.7" fill="#008300"/>
<rect x="614.4" y="443.8" width="7.5" height="26.2" fill="#008300"/>
<rect x="628.1" y="430.6" width="7.5" height="39.4" fill="none" stroke="#e34948" stroke-width="1.1"/>
<rect x="641.7" y="443.8" width="7.5" height="26.2" fill="#008300"/>
<rect x="655.4" y="460.2" width="7.5" height="9.8" fill="#008300"/>
<rect x="669.1" y="447.0" width="7.5" height="23.0" fill="none" stroke="#e34948" stroke-width="1.1"/>
<rect x="682.7" y="447.0" width="7.5" height="23.0" fill="#898781"/>
<rect x="696.4" y="450.3" width="7.5" height="19.7" fill="#008300"/>
<rect x="710.1" y="440.5" width="7.5" height="29.5" fill="none" stroke="#e34948" stroke-width="1.1"/>
<rect x="723.7" y="437.2" width="7.5" height="32.8" fill="#008300"/>
<rect x="737.4" y="456.9" width="7.5" height="13.1" fill="#008300"/>
<rect x="751.1" y="456.9" width="7.5" height="13.1" fill="none" stroke="#e34948" stroke-width="1.1"/>
<rect x="778.4" y="453.6" width="7.5" height="16.4" fill="#008300"/>
<rect x="792.1" y="460.2" width="7.5" height="9.8" fill="none" stroke="#e34948" stroke-width="1.1"/>
<rect x="805.7" y="456.9" width="7.5" height="13.1" fill="#008300"/>
<rect x="819.4" y="433.9" width="7.5" height="36.1" fill="none" stroke="#e34948" stroke-width="1.1"/>
<polyline points="16.8,429.0 30.5,432.0 44.2,436.2 57.8,437.5 71.5,438.2 85.2,437.5 98.8,432.9 112.5,432.6 126.2,434.9 139.8,434.2 153.5,434.6 167.2,434.6 180.8,435.6 194.5,435.9 208.2,434.9 221.8,435.2 235.5,440.2 249.2,439.5 262.8,434.9 276.5,434.2 290.2,432.6 303.8,432.9 317.5,430.6 331.2,432.0 344.8,432.6 358.5,431.3 372.2,429.0 385.8,432.3 399.5,438.8 413.2,441.1 426.8,444.1 440.5,445.1 454.2,449.0 467.8,446.1 481.5,448.4 495.2,450.3 508.8,454.3 522.5,453.3 536.2,452.3 549.8,452.3 563.5,450.3 577.2,448.0 590.8,448.0 604.5,450.0 618.2,448.0 631.8,446.7 645.5,445.1 659.2,446.7 672.8,447.0 686.5,445.7 700.2,447.0 713.8,446.7 727.5,445.1 741.2,445.7 754.8,447.0 768.5,451.0 782.2,452.0 795.8,452.0 809.5,452.9 823.2,451.6" fill="none" stroke="#2a78d6" stroke-width="1.5" stroke-linejoin="round" stroke-linecap="round"/>
<polyline points="16.8,434.6 30.5,437.2 44.2,436.5 57.8,443.1 71.5,441.8 85.2,440.5 98.8,428.7 112.5,428.7 126.2,426.7 139.8,426.7 153.5,428.7 167.2,440.5 180.8,442.4 194.5,445.1 208.2,443.1 221.8,441.8 235.5,439.8 249.2,436.5 262.8,424.7 276.5,425.4 290.2,423.4 303.8,426.0 317.5,424.7 331.2,439.2 344.8,439.8 358.5,439.2 372.2,432.0 385.8,439.8 399.5,438.5 413.2,442.4 426.8,449.0 440.5,458.2 454.2,458.2 467.8,453.6 481.5,454.3 495.2,451.6 508.8,450.3 522.5,448.4 536.2,451.0 549.8,450.3 563.5,449.0 577.2,445.7 590.8,447.7 604.5,449.0 618.2,445.7 631.8,444.4 645.5,444.4 659.2,445.7 672.8,445.1 686.5,445.7 700.2,449.7 713.8,449.0 727.5,444.4 741.2,446.4 754.8,448.4 768.5,452.3 782.2,454.9 795.8,459.5 809.5,459.5 823.2,454.9" fill="none" stroke="#eda100" stroke-width="1.5" stroke-linejoin="round" stroke-linecap="round"/>
</svg>