<svg xmlns="http://www.w3.org/2000/svg" viewBox="0 0 840 496" width="840" height="496" font-family="-apple-system,&#39;Segoe UI&#39;,system-ui,sans-serif" role="img" aria-label="public-apis/public-apis candlestick chart">
<text x="14.0" y="20.0" font-size="15" fill="#0b0b0b" font-weight="650">public-apis/public-apis</text>
<text x="207.8" y="20.0" font-size="11.5" fill="#52514e">daily · new stars, volume = new forks</text>
<text x="805.8" y="20.0" font-size="11.0" fill="#52514e">fall</text>
<rect x="791" y="10" width="9" height="12" fill="#008300"/>
<text x="750.6" y="20.0" font-size="11.0" fill="#52514e">rise</text>
<rect x="736" y="10" width="9" height="12" fill="none" stroke="#e34948" stroke-width="1.5"/>
<text x="14.0" y="38.0" font-size="11.0" fill="#898781">last 24 days · +6,883 stars · +962 forks · updated 2026-07-10</text>
<rect x="10" y="66" width="820" height="290" fill="none" stroke="#e1e0d9"/>
<rect x="10" y="384" width="820" height="86" fill="none" stroke="#e1e0d9"/>
<text x="38.0" y="490.0" font-size="11.0" fill="#898781" text-anchor="middle">2026-06</text>
<line x1="488.3" y1="66.0" x2="488.3" y2="356.0" stroke="#e1e0d9" stroke-width="1.0"/>
<line x1="488.3" y1="384.0" x2="488.3" y2="470.0" stroke="#e1e0d9" stroke-width="1.0"/>
<text x="505.4" y="490.0" font-size="11.0" fill="#898781" text-anchor="middle">2026-07</text>
<text x="14.0" y="58.0" font-size="11.0" fill="#52514e">BOLL(20,2)</text>
<text x="84.5" y="58.0" font-size="11.0" fill="#eda100">UP:449.0</text>
<text x="142.9" y="58.0" font-size="11.0" fill="#2a78d6">MID:285</text>
<text x="195.2" y="58.0" font-size="11.0" fill="#e87ba4">LOW:121.0</text>
<text x="259.7" y="58.0" font-size="11.0" fill="#4a3aa7">MA7:313.4</text>
<line x1="10.0" y1="356.0" x2="830.0" y2="356.0" stroke="#e1e0d9" stroke-width="1.0"/>
<text x="14.0" y="353.0" font-size="11.0" fill="#898781">0</text>
<line x1="10.0" y1="236.7" x2="830.0" y2="236.7" stroke="#e1e0d9" stroke-width="1.0"/>
<text x="14.0" y="233.7" font-size="11.0" fill="#898781">200</text>
<line x1="10.0" y1="117.4" x2="830.0" y2="117.4" stroke="#e1e0d9" stroke-width="1.0"/>
<text x="14.0" y="114.4" font-size="11.0" fill="#898781">400</text>
<polyline points="676.2,99.0 710.4,96.9 744.6,98.1 778.8,88.0 812.9,88.1" fill="none" stroke="#eda100" stroke-width="1.5" stroke-linejoin="round" stroke-linecap="round"/>
<polyline points="676.2,187.0 710.4,188.2 744.6,188.7 778.8,185.8 812.9,186.0" fill="none" stroke="#2a78d6" stroke-width="1.5" stroke-linejoin="round" stroke-linecap="round"/>
<polyline points="676.2,275.1 710.4,279.5 744.6,279.3 778.8,283.7 812.9,283.8" fill="none" stroke="#e87ba4" stroke-width="1.5" stroke-linejoin="round" stroke-linecap="round"/>
<polyline points="232.1,197.7 266.2,189.3 300.4,199.9 334.6,213.6 368.8,222.4 402.9,222.2 437.1,219.6 471.2,206.3 505.4,192.3 539.6,182.7 573.8,174.4 607.9,165.6 642.1,158.6 676.2,148.1 710.4,167.6 744.6,178.5 778.8,170.5 812.9,169.0" fill="none" stroke="#4a3aa7" stroke-width="1.5" stroke-linejoin="round" stroke-linecap="round"/>
<rect x="17.7" y="236.7" width="18.8" height="119.3" fill="none" stroke="#e34948" stroke-width="1.3"/>
<rect x="51.9" y="147.2" width="18.8" height="89.5" fill="none" stroke="#e34948" stroke-width="1.3"/>
<rect x="86.0" y="147.2" width="18.8" height="7.8" fill="#008300"/>
<rect x="120.2" y="155.0" width="18.8" height="24.5" fill="#008300"/>
<rect x="154.4" y="179.4" width="18.8" height="47.1" fill="#008300"/>
<rect x="188.5" y="222.4" width="18.8" height="4.2" fill="none" stroke="#e34948" stroke-width="1.3"/>
<rect x="222.7" y="216.4" width="18.8" height="6.0" fill="none" stroke="#e34948" stroke-width="1.3"/>
<rect x="256.9" y="178.2" width="18.8" height="38.2" fill="none" stroke="#e34948" stroke-width="1.3"/>
<rect x="291.0" y="178.2" width="18.8" height="43.5" fill="#008300"/>
<rect x="325.2" y="221.8" width="18.8" height="28.6" fill="#008300"/>
<rect x="359.4" y="240.9" width="18.8" height="9.5" fill="none" stroke="#e34948" stroke-width="1.3"/>
<rect x="393.5" y="225.4" width="18.8" height="15.5" fill="none" stroke="#e34948" stroke-width="1.3"/>
<rect x="427.7" y="203.9" width="18.8" height="21.5" fill="none" stroke="#e34948" stroke-width="1.3"/>
<rect x="461.9" y="124.0" width="18.8" height="79.9" fill="none" stroke="#e34948" stroke-width="1.3"/>
<rect x="496.0" y="79.8" width="18.8" height="44.1" fill="none" stroke="#e34948" stroke-width="1.3"/>
<rect x="530.2" y="79.8" width="18.8" height="74.6" fill="#008300"/>
<rect x="564.4" y="154.4" width="18.8" height="38.2" fill="#008300"/>
<rect x="598.5" y="179.4" width="18.8" height="13.1" fill="none" stroke="#e34948" stroke-width="1.3"/>
<rect x="632.7" y="176.4" width="18.8" height="3.0" fill="none" stroke="#e34948" stroke-width="1.3"/>
<rect x="666.9" y="129.9" width="18.8" height="46.5" fill="none" stroke="#e34948" stroke-width="1.3"/>
<rect x="701.0" y="129.9" width="18.8" height="130.6" fill="#008300"/>
<rect x="735.2" y="156.2" width="18.8" height="104.4" fill="none" stroke="#e34948" stroke-width="1.3"/>
<rect x="769.4" y="98.3" width="18.8" height="57.9" fill="none" stroke="#e34948" stroke-width="1.3"/>
<rect x="803.5" y="98.3" width="18.8" height="84.1" fill="#008300"/>
<circle cx="505.4" cy="79.8" r="2" fill="#52514e"/>
<line x1="505.4" y1="79.8" x2="497.4" y2="79.8" stroke="#52514e" stroke-width="1.0"/>
<text x="494.4" y="83.8" font-size="11.0" fill="#52514e" text-anchor="end">463</text>
<circle cx="27.1" cy="356.0" r="2" fill="#52514e"/>
<line x1="27.1" y1="356.0" x2="35.1" y2="356.0" stroke="#52514e" stroke-width="1.0"/>
<text x="38.1" y="350.0" font-size="11.0" fill="#52514e">0</text>
<text x="14.0" y="376.0" font-size="11.0" fill="#52514e">VOL 38 forks</text>
<text x="96.6" y="376.0" font-size="11.0" fill="#eda100">MA5:39.4</text>
<text x="155.0" y="376.0" font-size="11.0" fill="#2a78d6">MA10:43.3</text>
<text x="14.0" y="395.0" font-size="10" fill="#898781">62</text>
<rect x="17.7" y="430.3" width="18.8" height="39.7" fill="none" stroke="#e34948" stroke-width="1.1"/>
<rect x="51.9" y="403.9" width="18.8" height="66.1" fill="none" stroke="#e34948" stroke-width="1.1"/>
<rect x="86.0" y="415.8" width="18.8" height="54.2" fill="#008300"/>
<rect x="120.2" y="398.6" width="18.8" height="71.4" fill="#008300"/>
<rect x="154.4" y="431.6" width="18.8" height="38.4" fill="#008300"/>
<rect x="188.5" y="430.3" width="18.8" height="39.7" fill="none" stroke="#e34948" stroke-width="1.1"/>
<rect x="222.7" y="421.1" width="18.8" height="48.9" fill="none" stroke="#e34948" stroke-width="1.1"/>
<rect x="256.9" y="421.1" width="18.8" height="48.9" fill="none" stroke="#e34948" stroke-width="1.1"/>
<rect x="291.0" y="429.0" width="18.8" height="41.0" fill="#008300"/>
<rect x="325.2" y="425.0" width="18.8" height="45.0" fill="#008300"/>
<rect x="359.4" y="429.0" width="18.8" height="41.0" fill="none" stroke="#e34948" stroke-width="1.1"/>
<rect x="393.5" y="426.4" width="18.8" height="43.6" fill="none" stroke="#e34948" stroke-width="1.1"/>
<rect x="427.7" y="406.5" width="18.8" height="63.5" fill="none" stroke="#e34948" stroke-width="1.1"/>
<rect x="461.9" y="411.8" width="18.8" height="58.2" fill="none" stroke="#e34948" stroke-width="1.1"/>
<rect x="496.0" y="388.0" width="18.8" height="82.0" fill="none" stroke="#e34948" stroke-width="1.1"/>
<rect x="530.2" y="417.1" width="18.8" height="52.9" fill="#008300"/>
<rect x="564.4" y="419.7" width="18.8" height="50.3" fill="#008300"/>
<rect x="598.5" y="405.2" width="18.8" height="64.8" fill="none" stroke="#e34948" stroke-width="1.1"/>
<rect x="632.7" y="407.8" width="18.8" height="62.2" fill="none" stroke="#e34948" stroke-width="1.1"/>
<rect x="666.9" y="418.4" width="18.8" height="51.6" fill="none" stroke="#e34948" stroke-width="1.1"/>
<rect x="701.0" y="438.3" width="18.8" height="31.7" fill="#008300"/>
<rect x="735.2" y="410.5" width="18.8" height="59.5" fill="none" stroke="#e34948" stroke-width="1.1"/>
<rect x="769.4" y="402.5" width="18.8" height="67.5" fill="none" stroke="#e34948" stroke-width="1.1"/>
<rect x="803.5" y="419.7" width="18.8" height="50.3" fill="#008300"/>
<polyline points="334.6,420.7 368.8,420.5 402.9,422.8 437.1,421.9 471.2,423.2 505.4,418.8 539.6,417.5 573.8,417.4 607.9,415.8 642.1,413.7 676.2,413.0 710.4,413.9 744.6,412.3 778.8,411.9 812.9,412.7" fill="none" stroke="#2a78d6" stroke-width="1.5" stroke-linejoin="round" stroke-linecap="round"/>
<polyline points="163.8,416.0 197.9,416.0 232.1,419.5 266.2,420.5 300.4,426.6 334.6,425.3 368.8,425.0 402.9,426.1 437.1,423.2 471.2,419.7 505.4,412.3 539.6,410.0 573.8,408.6 607.9,408.4 642.1,407.6 676.2,413.7 710.4,417.9 744.6,416.0 778.8,415.5 812.9,417.9" fill="none" stroke="#eda100" stroke-width="1.5" stroke-linejoin="round" stroke-linecap="round"/>
</svg>