<svg xmlns="http://www.w3.org/2000/svg" viewBox="0 0 840 496" width="840" height="496" font-family="-apple-system,&#39;Segoe UI&#39;,system-ui,sans-serif" role="img" aria-label="public-apis/public-apis candlestick chart">
<text x="14.0" y="20.0" font-size="15" fill="#0b0b0b" font-weight="650">public-apis/public-apis</text>
<text x="207.8" y="20.0" font-size="11.5" fill="#52514e">daily · new stars, volume = new forks</text>
<text x="805.8" y="20.0" font-size="11.0" fill="#52514e">fall</text>
<rect x="791" y="10" width="9" height="12" fill="#008300"/>
<text x="750.6" y="20.0" font-size="11.0" fill="#52514e">rise</text>
<rect x="736" y="10" width="9" height="12" fill="none" stroke="#e34948" stroke-width="1.5"/>
<text x="14.0" y="38.0" font-size="11.0" fill="#898781">last 25 days · +7,161 stars · +1,000 forks · updated 2026-07-11</text>
<rect x="10" y="66" width="820" height="290" fill="none" stroke="#e1e0d9"/>
<rect x="10" y="384" width="820" height="86" fill="none" stroke="#e1e0d9"/>
<text x="38.0" y="490.0" font-size="11.0" fill="#898781" text-anchor="middle">2026-06</text>
<line x1="469.2" y1="66.0" x2="469.2" y2="356.0" stroke="#e1e0d9" stroke-width="1.0"/>
<line x1="469.2" y1="384.0" x2="469.2" y2="470.0" stroke="#e1e0d9" stroke-width="1.0"/>
<text x="485.6" y="490.0" font-size="11.0" fill="#898781" text-anchor="middle">2026-07</text>
<text x="14.0" y="58.0" font-size="11.0" fill="#52514e">BOLL(20,2)</text>
<text x="84.5" y="58.0" font-size="11.0" fill="#eda100">UP:449.1</text>
<text x="142.9" y="58.0" font-size="11.0" fill="#2a78d6">MID:288.1</text>
<text x="207.4" y="58.0" font-size="11.0" fill="#e87ba4">LOW:127.0</text>
<text x="271.8" y="58.0" font-size="11.0" fill="#4a3aa7">MA7:310.9</text>
<line x1="10.0" y1="356.0" x2="830.0" y2="356.0" stroke="#e1e0d9" stroke-width="1.0"/>
<text x="14.0" y="353.0" font-size="11.0" fill="#898781">0</text>
<line x1="10.0" y1="236.7" x2="830.0" y2="236.7" stroke="#e1e0d9" stroke-width="1.0"/>
<text x="14.0" y="233.7" font-size="11.0" fill="#898781">200</text>
<line x1="10.0" y1="117.4" x2="830.0" y2="117.4" stroke="#e1e0d9" stroke-width="1.0"/>
<text x="14.0" y="114.4" font-size="11.0" fill="#898781">400</text>
<polyline points="649.6,99.0 682.4,96.9 715.2,98.1 748.0,88.0 780.8,88.1 813.6,88.1" fill="none" stroke="#eda100" stroke-width="1.5" stroke-linejoin="round" stroke-linecap="round"/>
<polyline points="649.6,187.0 682.4,188.2 715.2,188.7 748.0,185.8 780.8,186.0 813.6,184.2" fill="none" stroke="#2a78d6" stroke-width="1.5" stroke-linejoin="round" stroke-linecap="round"/>
<polyline points="649.6,275.1 682.4,279.5 715.2,279.3 748.0,283.7 780.8,283.8 813.6,280.3" fill="none" stroke="#e87ba4" stroke-width="1.5" stroke-linejoin="round" stroke-linecap="round"/>
<polyline points="223.2,197.7 256.0,189.3 288.8,199.9 321.6,213.6 354.4,222.4 387.2,222.2 420.0,219.6 452.8,206.3 485.6,192.3 518.4,182.7 551.2,174.4 584.0,165.6 616.8,158.6 649.6,148.1 682.4,167.6 715.2,178.5 748.0,170.5 780.8,169.0 813.6,170.5" fill="none" stroke="#4a3aa7" stroke-width="1.5" stroke-linejoin="round" stroke-linecap="round"/>
<rect x="17.4" y="236.7" width="18.0" height="119.3" fill="none" stroke="#e34948" stroke-width="1.3"/>
<rect x="50.2" y="147.2" width="18.0" height="89.5" fill="none" stroke="#e34948" stroke-width="1.3"/>
<rect x="83.0" y="147.2" width="18.0" height="7.8" fill="#008300"/>
<rect x="115.8" y="155.0" width="18.0" height="24.5" fill="#008300"/>
<rect x="148.6" y="179.4" width="18.0" height="47.1" fill="#008300"/>
<rect x="181.4" y="222.4" width="18.0" height="4.2" fill="none" stroke="#e34948" stroke-width="1.3"/>
<rect x="214.2" y="216.4" width="18.0" height="6.0" fill="none" stroke="#e34948" stroke-width="1.3"/>
<rect x="247.0" y="178.2" width="18.0" height="38.2" fill="none" stroke="#e34948" stroke-width="1.3"/>
<rect x="279.8" y="178.2" width="18.0" height="43.5" fill="#008300"/>
<rect x="312.6" y="221.8" width="18.0" height="28.6" fill="#008300"/>
<rect x="345.4" y="240.9" width="18.0" height="9.5" fill="none" stroke="#e34948" stroke-width="1.3"/>
<rect x="378.2" y="225.4" width="18.0" height="15.5" fill="none" stroke="#e34948" stroke-width="1.3"/>
<rect x="411.0" y="203.9" width="18.0" height="21.5" fill="none" stroke="#e34948" stroke-width="1.3"/>
<rect x="443.8" y="124.0" width="18.0" height="79.9" fill="none" stroke="#e34948" stroke-width="1.3"/>
<rect x="476.6" y="79.8" width="18.0" height="44.1" fill="none" stroke="#e34948" stroke-width="1.3"/>
<rect x="509.4" y="79.8" width="18.0" height="74.6" fill="#008300"/>
<rect x="542.2" y="154.4" width="18.0" height="38.2" fill="#008300"/>
<rect x="575.0" y="179.4" width="18.0" height="13.1" fill="none" stroke="#e34948" stroke-width="1.3"/>
<rect x="607.8" y="176.4" width="18.0" height="3.0" fill="none" stroke="#e34948" stroke-width="1.3"/>
<rect x="640.6" y="129.9" width="18.0" height="46.5" fill="none" stroke="#e34948" stroke-width="1.3"/>
<rect x="673.4" y="129.9" width="18.0" height="130.6" fill="#008300"/>
<rect x="706.2" y="156.2" width="18.0" height="104.4" fill="none" stroke="#e34948" stroke-width="1.3"/>
<rect x="739.0" y="98.3" width="18.0" height="57.9" fill="none" stroke="#e34948" stroke-width="1.3"/>
<rect x="771.8" y="98.3" width="18.0" height="84.1" fill="#008300"/>
<rect x="804.6" y="182.4" width="18.0" height="7.8" fill="#008300"/>
<circle cx="485.6" cy="79.8" r="2" fill="#52514e"/>
<line x1="485.6" y1="79.8" x2="477.6" y2="79.8" stroke="#52514e" stroke-width="1.0"/>
<text x="474.6" y="83.8" font-size="11.0" fill="#52514e" text-anchor="end">463</text>
<circle cx="26.4" cy="356.0" r="2" fill="#52514e"/>
<line x1="26.4" y1="356.0" x2="34.4" y2="356.0" stroke="#52514e" stroke-width="1.0"/>
<text x="37.4" y="350.0" font-size="11.0" fill="#52514e">0</text>
<text x="14.0" y="376.0" font-size="11.0" fill="#52514e">VOL 38 forks</text>
<text x="96.6" y="376.0" font-size="11.0" fill="#eda100">MA5:39.2</text>
<text x="155.0" y="376.0" font-size="11.0" fill="#2a78d6">MA10:40.9</text>
<text x="14.0" y="395.0" font-size="10" fill="#898781">62</text>
<rect x="17.4" y="430.3" width="18.0" height="39.7" fill="none" stroke="#e34948" stroke-width="1.1"/>
<rect x="50.2" y="403.9" width="18.0" height="66.1" fill="none" stroke="#e34948" stroke-width="1.1"/>
<rect x="83.0" y="415.8" width="18.0" height="54.2" fill="#008300"/>
<rect x="115.8" y="398.6" width="18.0" height="71.4" fill="#008300"/>
<rect x="148.6" y="431.6" width="18.0" height="38.4" fill="#008300"/>
<rect x="181.4" y="430.3" width="18.0" height="39.7" fill="none" stroke="#e34948" stroke-width="1.1"/>
<rect x="214.2" y="421.1" width="18.0" height="48.9" fill="none" stroke="#e34948" stroke-width="1.1"/>
<rect x="247.0" y="421.1" width="18.0" height="48.9" fill="none" stroke="#e34948" stroke-width="1.1"/>
<rect x="279.8" y="429.0" width="18.0" height="41.0" fill="#008300"/>
<rect x="312.6" y="425.0" width="18.0" height="45.0" fill="#008300"/>
<rect x="345.4" y="429.0" width="18.0" height="41.0" fill="none" stroke="#e34948" stroke-width="1.1"/>
<rect x="378.2" y="426.4" width="18.0" height="43.6" fill="none" stroke="#e34948" stroke-width="1.1"/>
<rect x="411.0" y="406.5" width="18.0" height="63.5" fill="none" stroke="#e34948" stroke-width="1.1"/>
<rect x="443.8" y="411.8" width="18.0" height="58.2" fill="none" stroke="#e34948" stroke-width="1.1"/>
<rect x="476.6" y="388.0" width="18.0" height="82.0" fill="none" stroke="#e34948" stroke-width="1.1"/>
<rect x="509.4" y="417.1" width="18.0" height="52.9" fill="#008300"/>
<rect x="542.2" y="419.7" width="18.0" height="50.3" fill="#008300"/>
<rect x="575.0" y="405.2" width="18.0" height="64.8" fill="none" stroke="#e34948" stroke-width="1.1"/>
<rect x="607.8" y="407.8" width="18.0" height="62.2" fill="none" stroke="#e34948" stroke-width="1.1"/>
<rect x="640.6" y="418.4" width="18.0" height="51.6" fill="none" stroke="#e34948" stroke-width="1.1"/>
<rect x="673.4" y="438.3" width="18.0" height="31.7" fill="#008300"/>
<rect x="706.2" y="410.5" width="18.0" height="59.5" fill="none" stroke="#e34948" stroke-width="1.1"/>
<rect x="739.0" y="402.5" width="18.0" height="67.5" fill="none" stroke="#e34948" stroke-width="1.1"/>
<rect x="771.8" y="419.7" width="18.0" height="50.3" fill="#008300"/>
<rect x="804.6" y="419.7" width="18.0" height="50.3" fill="#008300"/>
<polyline points="321.6,420.7 354.4,420.5 387.2,422.8 420.0,421.9 452.8,423.2 485.6,418.8 518.4,417.5 551.2,417.4 584.0,415.8 616.8,413.7 649.6,413.0 682.4,413.9 715.2,412.3 748.0,411.9 780.8,412.7 813.6,415.9" fill="none" stroke="#2a78d6" stroke-width="1.5" stroke-linejoin="round" stroke-linecap="round"/>
<polyline points="157.6,416.0 190.4,416.0 223.2,419.5 256.0,420.5 288.8,426.6 321.6,425.3 354.4,425.0 387.2,426.1 420.0,423.2 452.8,419.7 485.6,412.3 518.4,410.0 551.2,408.6 584.0,408.4 616.8,407.6 649.6,413.7 682.4,417.9 715.2,416.0 748.0,415.5 780.8,417.9 813.6,418.2" fill="none" stroke="#eda100" stroke-width="1.5" stroke-linejoin="round" stroke-linecap="round"/>
</svg>