<svg xmlns="http://www.w3.org/2000/svg" viewBox="0 0 840 496" width="840" height="496" font-family="-apple-system,&#39;Segoe UI&#39;,system-ui,sans-serif" role="img" aria-label="public-apis/public-apis candlestick chart">
<text x="14.0" y="20.0" font-size="15" fill="#ffffff" font-weight="650">public-apis/public-apis</text>
<text x="207.8" y="20.0" font-size="11.5" fill="#c3c2b7">daily · new stars, volume = new forks</text>
<text x="805.8" y="20.0" font-size="11.0" fill="#c3c2b7">fall</text>
<rect x="791" y="10" width="9" height="12" fill="#008300"/>
<text x="750.6" y="20.0" font-size="11.0" fill="#c3c2b7">rise</text>
<rect x="736" y="10" width="9" height="12" fill="none" stroke="#e66767" stroke-width="1.5"/>
<text x="14.0" y="38.0" font-size="11.0" fill="#898781">last 31 days · +9,190 stars · +1,275 forks · updated 2026-07-17</text>
<rect x="10" y="66" width="820" height="290" fill="none" stroke="#2c2c2a"/>
<rect x="10" y="384" width="820" height="86" fill="none" stroke="#2c2c2a"/>
<text x="38.0" y="490.0" font-size="11.0" fill="#898781" text-anchor="middle">2026-06</text>
<line x1="380.3" y1="66.0" x2="380.3" y2="356.0" stroke="#2c2c2a" stroke-width="1.0"/>
<line x1="380.3" y1="384.0" x2="380.3" y2="470.0" stroke="#2c2c2a" stroke-width="1.0"/>
<text x="393.5" y="490.0" font-size="11.0" fill="#898781" text-anchor="middle">2026-07</text>
<text x="14.0" y="58.0" font-size="11.0" fill="#c3c2b7">BOLL(20,2)</text>
<text x="84.5" y="58.0" font-size="11.0" fill="#c98500">UP:465.8</text>
<text x="142.9" y="58.0" font-size="11.0" fill="#3987e5">MID:321.9</text>
<text x="207.4" y="58.0" font-size="11.0" fill="#d55181">LOW:178.1</text>
<text x="271.8" y="58.0" font-size="11.0" fill="#9085e9">MA7:329.6</text>
<line x1="10.0" y1="356.0" x2="830.0" y2="356.0" stroke="#2c2c2a" stroke-width="1.0"/>
<text x="14.0" y="353.0" font-size="11.0" fill="#898781">0</text>
<line x1="10.0" y1="238.5" x2="830.0" y2="238.5" stroke="#2c2c2a" stroke-width="1.0"/>
<text x="14.0" y="235.5" font-size="11.0" fill="#898781">200</text>
<line x1="10.0" y1="120.9" x2="830.0" y2="120.9" stroke="#2c2c2a" stroke-width="1.0"/>
<text x="14.0" y="117.9" font-size="11.0" fill="#898781">400</text>
<polyline points="525.8,102.8 552.3,100.7 578.7,101.9 605.2,91.9 631.6,92.1 658.1,92.0 684.5,86.8 711.0,83.7 737.4,80.5 763.9,80.0 790.3,79.8 816.8,82.2" fill="none" stroke="#c98500" stroke-width="1.5" stroke-linejoin="round" stroke-linecap="round"/>
<polyline points="525.8,189.5 552.3,190.7 578.7,191.1 605.2,188.4 631.6,188.5 658.1,186.7 684.5,182.3 711.0,178.8 737.4,176.9 763.9,174.0 790.3,168.1 816.8,166.8" fill="none" stroke="#3987e5" stroke-width="1.5" stroke-linejoin="round" stroke-linecap="round"/>
<polyline points="525.8,276.3 552.3,280.7 578.7,280.4 605.2,284.8 631.6,284.9 658.1,281.4 684.5,277.8 711.0,273.8 737.4,273.2 763.9,267.9 790.3,256.3 816.8,251.3" fill="none" stroke="#d55181" stroke-width="1.5" stroke-linejoin="round" stroke-linecap="round"/>
<polyline points="181.9,200.0 208.4,191.8 234.8,202.3 261.3,215.7 287.7,224.4 314.2,224.2 340.6,221.6 367.1,208.5 393.5,194.7 420.0,185.2 446.5,177.1 472.9,168.5 499.4,161.5 525.8,151.1 552.3,170.3 578.7,181.1 605.2,173.2 631.6,171.8 658.1,173.3 684.5,167.2 711.0,169.3 737.4,152.2 763.9,153.2 790.3,157.8 816.8,162.3" fill="none" stroke="#9085e9" stroke-width="1.5" stroke-linejoin="round" stroke-linecap="round"/>
<rect x="16.0" y="238.5" width="14.5" height="117.5" fill="none" stroke="#e66767" stroke-width="1.3"/>
<rect x="42.4" y="150.3" width="14.5" height="88.2" fill="none" stroke="#e66767" stroke-width="1.3"/>
<rect x="68.9" y="150.3" width="14.5" height="7.6" fill="#008300"/>
<rect x="95.3" y="157.9" width="14.5" height="24.1" fill="#008300"/>
<rect x="121.8" y="182.0" width="14.5" height="46.4" fill="#008300"/>
<rect x="148.2" y="224.4" width="14.5" height="4.1" fill="none" stroke="#e66767" stroke-width="1.3"/>
<rect x="174.7" y="218.5" width="14.5" height="5.9" fill="none" stroke="#e66767" stroke-width="1.3"/>
<rect x="201.1" y="180.9" width="14.5" height="37.6" fill="none" stroke="#e66767" stroke-width="1.3"/>
<rect x="227.6" y="180.9" width="14.5" height="42.9" fill="#008300"/>
<rect x="254.0" y="223.8" width="14.5" height="28.2" fill="#008300"/>
<rect x="280.5" y="242.6" width="14.5" height="9.4" fill="none" stroke="#e66767" stroke-width="1.3"/>
<rect x="306.9" y="227.3" width="14.5" height="15.3" fill="none" stroke="#e66767" stroke-width="1.3"/>
<rect x="333.4" y="206.1" width="14.5" height="21.2" fill="none" stroke="#e66767" stroke-width="1.3"/>
<rect x="359.8" y="127.4" width="14.5" height="78.8" fill="none" stroke="#e66767" stroke-width="1.3"/>
<rect x="386.3" y="83.9" width="14.5" height="43.5" fill="none" stroke="#e66767" stroke-width="1.3"/>
<rect x="412.7" y="83.9" width="14.5" height="73.5" fill="#008300"/>
<rect x="439.2" y="157.4" width="14.5" height="37.6" fill="#008300"/>
<rect x="465.6" y="182.0" width="14.5" height="12.9" fill="none" stroke="#e66767" stroke-width="1.3"/>
<rect x="492.1" y="179.1" width="14.5" height="2.9" fill="none" stroke="#e66767" stroke-width="1.3"/>
<rect x="518.5" y="133.3" width="14.5" height="45.8" fill="none" stroke="#e66767" stroke-width="1.3"/>
<rect x="545.0" y="133.3" width="14.5" height="128.7" fill="#008300"/>
<rect x="571.4" y="159.1" width="14.5" height="102.9" fill="none" stroke="#e66767" stroke-width="1.3"/>
<rect x="597.9" y="102.1" width="14.5" height="57.0" fill="none" stroke="#e66767" stroke-width="1.3"/>
<rect x="624.3" y="102.1" width="14.5" height="82.9" fill="#008300"/>
<rect x="650.8" y="185.0" width="14.5" height="7.6" fill="#008300"/>
<rect x="677.2" y="136.2" width="14.5" height="56.4" fill="none" stroke="#e66767" stroke-width="1.3"/>
<rect x="703.7" y="136.2" width="14.5" height="11.8" fill="#008300"/>
<rect x="730.1" y="142.7" width="14.5" height="5.3" fill="none" stroke="#e66767" stroke-width="1.3"/>
<rect x="756.6" y="142.7" width="14.5" height="22.9" fill="#008300"/>
<rect x="783.0" y="134.4" width="14.5" height="31.1" fill="none" stroke="#e66767" stroke-width="1.3"/>
<rect x="809.5" y="134.4" width="14.5" height="82.3" fill="#008300"/>
<circle cx="393.5" cy="83.9" r="2" fill="#c3c2b7"/>
<line x1="393.5" y1="83.9" x2="401.5" y2="83.9" stroke="#c3c2b7" stroke-width="1.0"/>
<text x="404.5" y="87.9" font-size="11.0" fill="#c3c2b7">463</text>
<circle cx="23.2" cy="356.0" r="2" fill="#c3c2b7"/>
<line x1="23.2" y1="356.0" x2="31.2" y2="356.0" stroke="#c3c2b7" stroke-width="1.0"/>
<text x="34.2" y="350.0" font-size="11.0" fill="#c3c2b7">0</text>
<text x="14.0" y="376.0" font-size="11.0" fill="#c3c2b7">VOL 43 forks</text>
<text x="96.6" y="376.0" font-size="11.0" fill="#c98500">MA5:46.4</text>
<text x="155.0" y="376.0" font-size="11.0" fill="#3987e5">MA10:44.7</text>
<text x="14.0" y="395.0" font-size="10" fill="#898781">62</text>
<rect x="16.0" y="430.3" width="14.5" height="39.7" fill="none" stroke="#e66767" stroke-width="1.1"/>
<rect x="42.4" y="403.9" width="14.5" height="66.1" fill="none" stroke="#e66767" stroke-width="1.1"/>
<rect x="68.9" y="415.8" width="14.5" height="54.2" fill="#008300"/>
<rect x="95.3" y="398.6" width="14.5" height="71.4" fill="#008300"/>
<rect x="121.8" y="431.6" width="14.5" height="38.4" fill="#008300"/>
<rect x="148.2" y="430.3" width="14.5" height="39.7" fill="none" stroke="#e66767" stroke-width="1.1"/>
<rect x="174.7" y="421.1" width="14.5" height="48.9" fill="none" stroke="#e66767" stroke-width="1.1"/>
<rect x="201.1" y="421.1" width="14.5" height="48.9" fill="none" stroke="#e66767" stroke-width="1.1"/>
<rect x="227.6" y="429.0" width="14.5" height="41.0" fill="#008300"/>
<rect x="254.0" y="425.0" width="14.5" height="45.0" fill="#008300"/>
<rect x="280.5" y="429.0" width="14.5" height="41.0" fill="none" stroke="#e66767" stroke-width="1.1"/>
<rect x="306.9" y="426.4" width="14.5" height="43.6" fill="none" stroke="#e66767" stroke-width="1.1"/>
<rect x="333.4" y="406.5" width="14.5" height="63.5" fill="none" stroke="#e66767" stroke-width="1.1"/>
<rect x="359.8" y="411.8" width="14.5" height="58.2" fill="none" stroke="#e66767" stroke-width="1.1"/>
<rect x="386.3" y="388.0" width="14.5" height="82.0" fill="none" stroke="#e66767" stroke-width="1.1"/>
<rect x="412.7" y="417.1" width="14.5" height="52.9" fill="#008300"/>
<rect x="439.2" y="419.7" width="14.5" height="50.3" fill="#008300"/>
<rect x="465.6" y="405.2" width="14.5" height="64.8" fill="none" stroke="#e66767" stroke-width="1.1"/>
<rect x="492.1" y="407.8" width="14.5" height="62.2" fill="none" stroke="#e66767" stroke-width="1.1"/>
<rect x="518.5" y="418.4" width="14.5" height="51.6" fill="none" stroke="#e66767" stroke-width="1.1"/>
<rect x="545.0" y="438.3" width="14.5" height="31.7" fill="#008300"/>
<rect x="571.4" y="410.5" width="14.5" height="59.5" fill="none" stroke="#e66767" stroke-width="1.1"/>
<rect x="597.9" y="402.5" width="14.5" height="67.5" fill="none" stroke="#e66767" stroke-width="1.1"/>
<rect x="624.3" y="419.7" width="14.5" height="50.3" fill="#008300"/>
<rect x="650.8" y="419.7" width="14.5" height="50.3" fill="#008300"/>
<rect x="677.2" y="413.1" width="14.5" height="56.9" fill="none" stroke="#e66767" stroke-width="1.1"/>
<rect x="703.7" y="411.8" width="14.5" height="58.2" fill="#008300"/>
<rect x="730.1" y="395.9" width="14.5" height="74.1" fill="none" stroke="#e66767" stroke-width="1.1"/>
<rect x="756.6" y="407.8" width="14.5" height="62.2" fill="#008300"/>
<rect x="783.0" y="414.5" width="14.5" height="55.5" fill="none" stroke="#e66767" stroke-width="1.1"/>
<rect x="809.5" y="413.1" width="14.5" height="56.9" fill="#008300"/>
<polyline points="261.3,420.7 287.7,420.5 314.2,422.8 340.6,421.9 367.1,423.2 393.5,418.8 420.0,417.5 446.5,417.4 472.9,415.8 499.4,413.7 525.8,413.0 552.3,413.9 578.7,412.3 605.2,411.9 631.6,412.7 658.1,415.9 684.5,415.5 711.0,414.7 737.4,413.8 763.9,413.8 790.3,413.4 816.8,410.9" fill="none" stroke="#3987e5" stroke-width="1.5" stroke-linejoin="round" stroke-linecap="round"/>
<polyline points="129.0,416.0 155.5,416.0 181.9,419.5 208.4,420.5 234.8,426.6 261.3,425.3 287.7,425.0 314.2,426.1 340.6,423.2 367.1,419.7 393.5,412.3 420.0,410.0 446.5,408.6 472.9,408.4 499.4,407.6 525.8,413.7 552.3,417.9 578.7,416.0 605.2,415.5 631.6,417.9 658.1,418.2 684.5,413.1 711.0,413.4 737.4,412.1 763.9,409.7 790.3,408.6 816.8,408.6" fill="none" stroke="#c98500" stroke-width="1.5" stroke-linejoin="round" stroke-linecap="round"/>
</svg>