<svg xmlns="http://www.w3.org/2000/svg" viewBox="0 0 840 496" width="840" height="496" font-family="-apple-system,&#39;Segoe UI&#39;,system-ui,sans-serif" role="img" aria-label="public-apis/public-apis candlestick chart">
<text x="14.0" y="20.0" font-size="15" fill="#ffffff" font-weight="650">public-apis/public-apis</text>
<text x="207.8" y="20.0" font-size="11.5" fill="#c3c2b7">daily · new stars, volume = new forks</text>
<text x="805.8" y="20.0" font-size="11.0" fill="#c3c2b7">fall</text>
<rect x="791" y="10" width="9" height="12" fill="#008300"/>
<text x="750.6" y="20.0" font-size="11.0" fill="#c3c2b7">rise</text>
<rect x="736" y="10" width="9" height="12" fill="none" stroke="#e66767" stroke-width="1.5"/>
<text x="14.0" y="38.0" font-size="11.0" fill="#898781">last 34 days · +9,865 stars · +1,364 forks · updated 2026-07-20</text>
<rect x="10" y="66" width="820" height="290" fill="none" stroke="#2c2c2a"/>
<rect x="10" y="384" width="820" height="86" fill="none" stroke="#2c2c2a"/>
<text x="38.0" y="490.0" font-size="11.0" fill="#898781" text-anchor="middle">2026-06</text>
<line x1="347.6" y1="66.0" x2="347.6" y2="356.0" stroke="#2c2c2a" stroke-width="1.0"/>
<line x1="347.6" y1="384.0" x2="347.6" y2="470.0" stroke="#2c2c2a" stroke-width="1.0"/>
<text x="359.7" y="490.0" font-size="11.0" fill="#898781" text-anchor="middle">2026-07</text>
<text x="14.0" y="58.0" font-size="11.0" fill="#c3c2b7">BOLL(20,2)</text>
<text x="84.5" y="58.0" font-size="11.0" fill="#c98500">UP:464.9</text>
<text x="142.9" y="58.0" font-size="11.0" fill="#3987e5">MID:312.6</text>
<text x="207.4" y="58.0" font-size="11.0" fill="#d55181">LOW:160.2</text>
<text x="271.8" y="58.0" font-size="11.0" fill="#9085e9">MA7:282.3</text>
<line x1="10.0" y1="356.0" x2="830.0" y2="356.0" stroke="#2c2c2a" stroke-width="1.0"/>
<text x="14.0" y="353.0" font-size="11.0" fill="#898781">0</text>
<line x1="10.0" y1="238.5" x2="830.0" y2="238.5" stroke="#2c2c2a" stroke-width="1.0"/>
<text x="14.0" y="235.5" font-size="11.0" fill="#898781">200</text>
<line x1="10.0" y1="120.9" x2="830.0" y2="120.9" stroke="#2c2c2a" stroke-width="1.0"/>
<text x="14.0" y="117.9" font-size="11.0" fill="#898781">400</text>
<polyline points="480.3,102.8 504.4,100.7 528.5,101.9 552.6,91.9 576.8,92.1 600.9,92.0 625.0,86.8 649.1,83.7 673.2,80.5 697.4,80.0 721.5,79.8 745.6,82.2 769.7,84.3 793.8,81.6 817.9,82.8" fill="none" stroke="#c98500" stroke-width="1.5" stroke-linejoin="round" stroke-linecap="round"/>
<polyline points="480.3,189.5 504.4,190.7 528.5,191.1 552.6,188.4 576.8,188.5 600.9,186.7 625.0,182.3 649.1,178.8 673.2,176.9 697.4,174.0 721.5,168.1 745.6,166.8 769.7,164.8 793.8,166.4 817.9,172.3" fill="none" stroke="#3987e5" stroke-width="1.5" stroke-linejoin="round" stroke-linecap="round"/>
<polyline points="480.3,276.3 504.4,280.7 528.5,280.4 552.6,284.8 576.8,284.9 600.9,281.4 625.0,277.8 649.1,273.8 673.2,273.2 697.4,267.9 721.5,256.3 745.6,251.3 769.7,245.4 793.8,251.2 817.9,261.8" fill="none" stroke="#d55181" stroke-width="1.5" stroke-linejoin="round" stroke-linecap="round"/>
<polyline points="166.8,200.0 190.9,191.8 215.0,202.3 239.1,215.7 263.2,224.4 287.4,224.2 311.5,221.6 335.6,208.5 359.7,194.7 383.8,185.2 407.9,177.1 432.1,168.5 456.2,161.5 480.3,151.1 504.4,170.3 528.5,181.1 552.6,173.2 576.8,171.8 600.9,173.3 625.0,167.2 649.1,169.3 673.2,152.2 697.4,153.2 721.5,157.8 745.6,162.3 769.7,161.6 793.8,176.1 817.9,190.1" fill="none" stroke="#9085e9" stroke-width="1.5" stroke-linejoin="round" stroke-linecap="round"/>
<rect x="15.4" y="238.5" width="13.3" height="117.5" fill="none" stroke="#e66767" stroke-width="1.3"/>
<rect x="39.5" y="150.3" width="13.3" height="88.2" fill="none" stroke="#e66767" stroke-width="1.3"/>
<rect x="63.7" y="150.3" width="13.3" height="7.6" fill="#008300"/>
<rect x="87.8" y="157.9" width="13.3" height="24.1" fill="#008300"/>
<rect x="111.9" y="182.0" width="13.3" height="46.4" fill="#008300"/>
<rect x="136.0" y="224.4" width="13.3" height="4.1" fill="none" stroke="#e66767" stroke-width="1.3"/>
<rect x="160.1" y="218.5" width="13.3" height="5.9" fill="none" stroke="#e66767" stroke-width="1.3"/>
<rect x="184.2" y="180.9" width="13.3" height="37.6" fill="none" stroke="#e66767" stroke-width="1.3"/>
<rect x="208.4" y="180.9" width="13.3" height="42.9" fill="#008300"/>
<rect x="232.5" y="223.8" width="13.3" height="28.2" fill="#008300"/>
<rect x="256.6" y="242.6" width="13.3" height="9.4" fill="none" stroke="#e66767" stroke-width="1.3"/>
<rect x="280.7" y="227.3" width="13.3" height="15.3" fill="none" stroke="#e66767" stroke-width="1.3"/>
<rect x="304.8" y="206.1" width="13.3" height="21.2" fill="none" stroke="#e66767" stroke-width="1.3"/>
<rect x="329.0" y="127.4" width="13.3" height="78.8" fill="none" stroke="#e66767" stroke-width="1.3"/>
<rect x="353.1" y="83.9" width="13.3" height="43.5" fill="none" stroke="#e66767" stroke-width="1.3"/>
<rect x="377.2" y="83.9" width="13.3" height="73.5" fill="#008300"/>
<rect x="401.3" y="157.4" width="13.3" height="37.6" fill="#008300"/>
<rect x="425.4" y="182.0" width="13.3" height="12.9" fill="none" stroke="#e66767" stroke-width="1.3"/>
<rect x="449.5" y="179.1" width="13.3" height="2.9" fill="none" stroke="#e66767" stroke-width="1.3"/>
<rect x="473.7" y="133.3" width="13.3" height="45.8" fill="none" stroke="#e66767" stroke-width="1.3"/>
<rect x="497.8" y="133.3" width="13.3" height="128.7" fill="#008300"/>
<rect x="521.9" y="159.1" width="13.3" height="102.9" fill="none" stroke="#e66767" stroke-width="1.3"/>
<rect x="546.0" y="102.1" width="13.3" height="57.0" fill="none" stroke="#e66767" stroke-width="1.3"/>
<rect x="570.1" y="102.1" width="13.3" height="82.9" fill="#008300"/>
<rect x="594.2" y="185.0" width="13.3" height="7.6" fill="#008300"/>
<rect x="618.4" y="136.2" width="13.3" height="56.4" fill="none" stroke="#e66767" stroke-width="1.3"/>
<rect x="642.5" y="136.2" width="13.3" height="11.8" fill="#008300"/>
<rect x="666.6" y="142.7" width="13.3" height="5.3" fill="none" stroke="#e66767" stroke-width="1.3"/>
<rect x="690.7" y="142.7" width="13.3" height="22.9" fill="#008300"/>
<rect x="714.8" y="134.4" width="13.3" height="31.1" fill="none" stroke="#e66767" stroke-width="1.3"/>
<rect x="739.0" y="134.4" width="13.3" height="82.3" fill="#008300"/>
<rect x="763.1" y="187.9" width="13.3" height="28.8" fill="none" stroke="#e66767" stroke-width="1.3"/>
<rect x="787.2" y="187.9" width="13.3" height="49.4" fill="#008300"/>
<rect x="811.3" y="237.3" width="13.3" height="8.8" fill="#008300"/>
<circle cx="359.7" cy="83.9" r="2" fill="#c3c2b7"/>
<line x1="359.7" y1="83.9" x2="367.7" y2="83.9" stroke="#c3c2b7" stroke-width="1.0"/>
<text x="370.7" y="87.9" font-size="11.0" fill="#c3c2b7">463</text>
<circle cx="22.1" cy="356.0" r="2" fill="#c3c2b7"/>
<line x1="22.1" y1="356.0" x2="30.1" y2="356.0" stroke="#c3c2b7" stroke-width="1.0"/>
<text x="33.1" y="350.0" font-size="11.0" fill="#c3c2b7">0</text>
<text x="14.0" y="376.0" font-size="11.0" fill="#c3c2b7">VOL 24 forks</text>
<text x="96.6" y="376.0" font-size="11.0" fill="#c98500">MA5:34.8</text>
<text x="155.0" y="376.0" font-size="11.0" fill="#3987e5">MA10:40.2</text>
<text x="14.0" y="395.0" font-size="10" fill="#898781">62</text>
<rect x="15.4" y="430.3" width="13.3" height="39.7" fill="none" stroke="#e66767" stroke-width="1.1"/>
<rect x="39.5" y="403.9" width="13.3" height="66.1" fill="none" stroke="#e66767" stroke-width="1.1"/>
<rect x="63.7" y="415.8" width="13.3" height="54.2" fill="#008300"/>
<rect x="87.8" y="398.6" width="13.3" height="71.4" fill="#008300"/>
<rect x="111.9" y="431.6" width="13.3" height="38.4" fill="#008300"/>
<rect x="136.0" y="430.3" width="13.3" height="39.7" fill="none" stroke="#e66767" stroke-width="1.1"/>
<rect x="160.1" y="421.1" width="13.3" height="48.9" fill="none" stroke="#e66767" stroke-width="1.1"/>
<rect x="184.2" y="421.1" width="13.3" height="48.9" fill="none" stroke="#e66767" stroke-width="1.1"/>
<rect x="208.4" y="429.0" width="13.3" height="41.0" fill="#008300"/>
<rect x="232.5" y="425.0" width="13.3" height="45.0" fill="#008300"/>
<rect x="256.6" y="429.0" width="13.3" height="41.0" fill="none" stroke="#e66767" stroke-width="1.1"/>
<rect x="280.7" y="426.4" width="13.3" height="43.6" fill="none" stroke="#e66767" stroke-width="1.1"/>
<rect x="304.8" y="406.5" width="13.3" height="63.5" fill="none" stroke="#e66767" stroke-width="1.1"/>
<rect x="329.0" y="411.8" width="13.3" height="58.2" fill="none" stroke="#e66767" stroke-width="1.1"/>
<rect x="353.1" y="388.0" width="13.3" height="82.0" fill="none" stroke="#e66767" stroke-width="1.1"/>
<rect x="377.2" y="417.1" width="13.3" height="52.9" fill="#008300"/>
<rect x="401.3" y="419.7" width="13.3" height="50.3" fill="#008300"/>
<rect x="425.4" y="405.2" width="13.3" height="64.8" fill="none" stroke="#e66767" stroke-width="1.1"/>
<rect x="449.5" y="407.8" width="13.3" height="62.2" fill="none" stroke="#e66767" stroke-width="1.1"/>
<rect x="473.7" y="418.4" width="13.3" height="51.6" fill="none" stroke="#e66767" stroke-width="1.1"/>
<rect x="497.8" y="438.3" width="13.3" height="31.7" fill="#008300"/>
<rect x="521.9" y="410.5" width="13.3" height="59.5" fill="none" stroke="#e66767" stroke-width="1.1"/>
<rect x="546.0" y="402.5" width="13.3" height="67.5" fill="none" stroke="#e66767" stroke-width="1.1"/>
<rect x="570.1" y="419.7" width="13.3" height="50.3" fill="#008300"/>
<rect x="594.2" y="419.7" width="13.3" height="50.3" fill="#008300"/>
<rect x="618.4" y="413.1" width="13.3" height="56.9" fill="none" stroke="#e66767" stroke-width="1.1"/>
<rect x="642.5" y="411.8" width="13.3" height="58.2" fill="#008300"/>
<rect x="666.6" y="395.9" width="13.3" height="74.1" fill="none" stroke="#e66767" stroke-width="1.1"/>
<rect x="690.7" y="407.8" width="13.3" height="62.2" fill="#008300"/>
<rect x="714.8" y="414.5" width="13.3" height="55.5" fill="none" stroke="#e66767" stroke-width="1.1"/>
<rect x="739.0" y="413.1" width="13.3" height="56.9" fill="#008300"/>
<rect x="763.1" y="425.0" width="13.3" height="45.0" fill="none" stroke="#e66767" stroke-width="1.1"/>
<rect x="787.2" y="429.0" width="13.3" height="41.0" fill="#008300"/>
<rect x="811.3" y="438.3" width="13.3" height="31.7" fill="#008300"/>
<polyline points="239.1,420.7 263.2,420.5 287.4,422.8 311.5,421.9 335.6,423.2 359.7,418.8 383.8,417.5 407.9,417.4 432.1,415.8 456.2,413.7 480.3,413.0 504.4,413.9 528.5,412.3 552.6,411.9 576.8,412.7 600.9,415.9 625.0,415.5 649.1,414.7 673.2,413.8 697.4,413.8 721.5,413.4 745.6,410.9 769.7,412.3 793.8,415.0 817.9,416.8" fill="none" stroke="#3987e5" stroke-width="1.5" stroke-linejoin="round" stroke-linecap="round"/>
<polyline points="118.5,416.0 142.6,416.0 166.8,419.5 190.9,420.5 215.0,426.6 239.1,425.3 263.2,425.0 287.4,426.1 311.5,423.2 335.6,419.7 359.7,412.3 383.8,410.0 407.9,408.6 432.1,408.4 456.2,407.6 480.3,413.7 504.4,417.9 528.5,416.0 552.6,415.5 576.8,417.9 600.9,418.2 625.0,413.1 649.1,413.4 673.2,412.1 697.4,409.7 721.5,408.6 745.6,408.6 769.7,411.3 793.8,417.9 817.9,424.0" fill="none" stroke="#c98500" stroke-width="1.5" stroke-linejoin="round" stroke-linecap="round"/>
</svg>