<svg xmlns="http://www.w3.org/2000/svg" viewBox="0 0 840 496" width="840" height="496" font-family="-apple-system,&#39;Segoe UI&#39;,system-ui,sans-serif" role="img" aria-label="public-apis/public-apis candlestick chart">
<text x="14.0" y="20.0" font-size="15" fill="#ffffff" font-weight="650">public-apis/public-apis</text>
<text x="207.8" y="20.0" font-size="11.5" fill="#c3c2b7">daily · new stars, volume = new forks</text>
<text x="805.8" y="20.0" font-size="11.0" fill="#c3c2b7">fall</text>
<rect x="791" y="10" width="9" height="12" fill="#008300"/>
<text x="750.6" y="20.0" font-size="11.0" fill="#c3c2b7">rise</text>
<rect x="736" y="10" width="9" height="12" fill="none" stroke="#e66767" stroke-width="1.5"/>
<text x="14.0" y="38.0" font-size="11.0" fill="#898781">last 23 days · +6,592 stars · +924 forks · updated 2026-07-09</text>
<rect x="10" y="66" width="820" height="290" fill="none" stroke="#2c2c2a"/>
<rect x="10" y="384" width="820" height="86" fill="none" stroke="#2c2c2a"/>
<text x="38.0" y="490.0" font-size="11.0" fill="#898781" text-anchor="middle">2026-06</text>
<line x1="509.1" y1="66.0" x2="509.1" y2="356.0" stroke="#2c2c2a" stroke-width="1.0"/>
<line x1="509.1" y1="384.0" x2="509.1" y2="470.0" stroke="#2c2c2a" stroke-width="1.0"/>
<text x="527.0" y="490.0" font-size="11.0" fill="#898781" text-anchor="middle">2026-07</text>
<text x="14.0" y="58.0" font-size="11.0" fill="#c3c2b7">BOLL(20,2)</text>
<text x="84.5" y="58.0" font-size="11.0" fill="#c98500">UP:449.3</text>
<text x="142.9" y="58.0" font-size="11.0" fill="#3987e5">MID:285.2</text>
<text x="207.4" y="58.0" font-size="11.0" fill="#d55181">LOW:121.2</text>
<text x="271.8" y="58.0" font-size="11.0" fill="#9085e9">MA7:311</text>
<line x1="10.0" y1="356.0" x2="830.0" y2="356.0" stroke="#2c2c2a" stroke-width="1.0"/>
<text x="14.0" y="353.0" font-size="11.0" fill="#898781">0</text>
<line x1="10.0" y1="236.7" x2="830.0" y2="236.7" stroke="#2c2c2a" stroke-width="1.0"/>
<text x="14.0" y="233.7" font-size="11.0" fill="#898781">200</text>
<line x1="10.0" y1="117.4" x2="830.0" y2="117.4" stroke="#2c2c2a" stroke-width="1.0"/>
<text x="14.0" y="114.4" font-size="11.0" fill="#898781">400</text>
<polyline points="705.2,99.0 740.9,96.9 776.5,98.1 812.2,88.0" fill="none" stroke="#c98500" stroke-width="1.5" stroke-linejoin="round" stroke-linecap="round"/>
<polyline points="705.2,187.0 740.9,188.2 776.5,188.7 812.2,185.8" fill="none" stroke="#3987e5" stroke-width="1.5" stroke-linejoin="round" stroke-linecap="round"/>
<polyline points="705.2,275.1 740.9,279.5 776.5,279.3 812.2,283.7" fill="none" stroke="#d55181" stroke-width="1.5" stroke-linejoin="round" stroke-linecap="round"/>
<polyline points="241.7,197.7 277.4,189.3 313.0,199.9 348.7,213.6 384.3,222.4 420.0,222.2 455.7,219.6 491.3,206.3 527.0,192.3 562.6,182.7 598.3,174.4 633.9,165.6 669.6,158.6 705.2,148.1 740.9,167.6 776.5,178.5 812.2,170.5" fill="none" stroke="#9085e9" stroke-width="1.5" stroke-linejoin="round" stroke-linecap="round"/>
<rect x="18.0" y="236.7" width="19.6" height="119.3" fill="none" stroke="#e66767" stroke-width="1.3"/>
<rect x="53.7" y="147.2" width="19.6" height="89.5" fill="none" stroke="#e66767" stroke-width="1.3"/>
<rect x="89.3" y="147.2" width="19.6" height="7.8" fill="#008300"/>
<rect x="125.0" y="155.0" width="19.6" height="24.5" fill="#008300"/>
<rect x="160.6" y="179.4" width="19.6" height="47.1" fill="#008300"/>
<rect x="196.3" y="222.4" width="19.6" height="4.2" fill="none" stroke="#e66767" stroke-width="1.3"/>
<rect x="231.9" y="216.4" width="19.6" height="6.0" fill="none" stroke="#e66767" stroke-width="1.3"/>
<rect x="267.6" y="178.2" width="19.6" height="38.2" fill="none" stroke="#e66767" stroke-width="1.3"/>
<rect x="303.2" y="178.2" width="19.6" height="43.5" fill="#008300"/>
<rect x="338.9" y="221.8" width="19.6" height="28.6" fill="#008300"/>
<rect x="374.5" y="240.9" width="19.6" height="9.5" fill="none" stroke="#e66767" stroke-width="1.3"/>
<rect x="410.2" y="225.4" width="19.6" height="15.5" fill="none" stroke="#e66767" stroke-width="1.3"/>
<rect x="445.8" y="203.9" width="19.6" height="21.5" fill="none" stroke="#e66767" stroke-width="1.3"/>
<rect x="481.5" y="124.0" width="19.6" height="79.9" fill="none" stroke="#e66767" stroke-width="1.3"/>
<rect x="517.2" y="79.8" width="19.6" height="44.1" fill="none" stroke="#e66767" stroke-width="1.3"/>
<rect x="552.8" y="79.8" width="19.6" height="74.6" fill="#008300"/>
<rect x="588.5" y="154.4" width="19.6" height="38.2" fill="#008300"/>
<rect x="624.1" y="179.4" width="19.6" height="13.1" fill="none" stroke="#e66767" stroke-width="1.3"/>
<rect x="659.8" y="176.4" width="19.6" height="3.0" fill="none" stroke="#e66767" stroke-width="1.3"/>
<rect x="695.4" y="129.9" width="19.6" height="46.5" fill="none" stroke="#e66767" stroke-width="1.3"/>
<rect x="731.1" y="129.9" width="19.6" height="130.6" fill="#008300"/>
<rect x="766.7" y="156.2" width="19.6" height="104.4" fill="none" stroke="#e66767" stroke-width="1.3"/>
<rect x="802.4" y="98.3" width="19.6" height="57.9" fill="none" stroke="#e66767" stroke-width="1.3"/>
<circle cx="527.0" cy="79.8" r="2" fill="#c3c2b7"/>
<line x1="527.0" y1="79.8" x2="519.0" y2="79.8" stroke="#c3c2b7" stroke-width="1.0"/>
<text x="516.0" y="83.8" font-size="11.0" fill="#c3c2b7" text-anchor="end">463</text>
<circle cx="27.8" cy="356.0" r="2" fill="#c3c2b7"/>
<line x1="27.8" y1="356.0" x2="35.8" y2="356.0" stroke="#c3c2b7" stroke-width="1.0"/>
<text x="38.8" y="350.0" font-size="11.0" fill="#c3c2b7">0</text>
<text x="14.0" y="376.0" font-size="11.0" fill="#c3c2b7">VOL 51 forks</text>
<text x="96.6" y="376.0" font-size="11.0" fill="#c98500">MA5:41.2</text>
<text x="155.0" y="376.0" font-size="11.0" fill="#3987e5">MA10:43.9</text>
<text x="14.0" y="395.0" font-size="10" fill="#898781">62</text>
<rect x="18.0" y="430.3" width="19.6" height="39.7" fill="none" stroke="#e66767" stroke-width="1.1"/>
<rect x="53.7" y="403.9" width="19.6" height="66.1" fill="none" stroke="#e66767" stroke-width="1.1"/>
<rect x="89.3" y="415.8" width="19.6" height="54.2" fill="#008300"/>
<rect x="125.0" y="398.6" width="19.6" height="71.4" fill="#008300"/>
<rect x="160.6" y="431.6" width="19.6" height="38.4" fill="#008300"/>
<rect x="196.3" y="430.3" width="19.6" height="39.7" fill="none" stroke="#e66767" stroke-width="1.1"/>
<rect x="231.9" y="421.1" width="19.6" height="48.9" fill="none" stroke="#e66767" stroke-width="1.1"/>
<rect x="267.6" y="421.1" width="19.6" height="48.9" fill="none" stroke="#e66767" stroke-width="1.1"/>
<rect x="303.2" y="429.0" width="19.6" height="41.0" fill="#008300"/>
<rect x="338.9" y="425.0" width="19.6" height="45.0" fill="#008300"/>
<rect x="374.5" y="429.0" width="19.6" height="41.0" fill="none" stroke="#e66767" stroke-width="1.1"/>
<rect x="410.2" y="426.4" width="19.6" height="43.6" fill="none" stroke="#e66767" stroke-width="1.1"/>
<rect x="445.8" y="406.5" width="19.6" height="63.5" fill="none" stroke="#e66767" stroke-width="1.1"/>
<rect x="481.5" y="411.8" width="19.6" height="58.2" fill="none" stroke="#e66767" stroke-width="1.1"/>
<rect x="517.2" y="388.0" width="19.6" height="82.0" fill="none" stroke="#e66767" stroke-width="1.1"/>
<rect x="552.8" y="417.1" width="19.6" height="52.9" fill="#008300"/>
<rect x="588.5" y="419.7" width="19.6" height="50.3" fill="#008300"/>
<rect x="624.1" y="405.2" width="19.6" height="64.8" fill="none" stroke="#e66767" stroke-width="1.1"/>
<rect x="659.8" y="407.8" width="19.6" height="62.2" fill="none" stroke="#e66767" stroke-width="1.1"/>
<rect x="695.4" y="418.4" width="19.6" height="51.6" fill="none" stroke="#e66767" stroke-width="1.1"/>
<rect x="731.1" y="438.3" width="19.6" height="31.7" fill="#008300"/>
<rect x="766.7" y="410.5" width="19.6" height="59.5" fill="none" stroke="#e66767" stroke-width="1.1"/>
<rect x="802.4" y="402.5" width="19.6" height="67.5" fill="none" stroke="#e66767" stroke-width="1.1"/>
<polyline points="348.7,420.7 384.3,420.5 420.0,422.8 455.7,421.9 491.3,423.2 527.0,418.8 562.6,417.5 598.3,417.4 633.9,415.8 669.6,413.7 705.2,413.0 740.9,413.9 776.5,412.3 812.2,411.9" fill="none" stroke="#3987e5" stroke-width="1.5" stroke-linejoin="round" stroke-linecap="round"/>
<polyline points="170.4,416.0 206.1,416.0 241.7,419.5 277.4,420.5 313.0,426.6 348.7,425.3 384.3,425.0 420.0,426.1 455.7,423.2 491.3,419.7 527.0,412.3 562.6,410.0 598.3,408.6 633.9,408.4 669.6,407.6 705.2,413.7 740.9,417.9 776.5,416.0 812.2,415.5" fill="none" stroke="#c98500" stroke-width="1.5" stroke-linejoin="round" stroke-linecap="round"/>
</svg>