<svg xmlns="http://www.w3.org/2000/svg" viewBox="0 0 840 496" width="840" height="496" font-family="-apple-system,&#39;Segoe UI&#39;,system-ui,sans-serif" role="img" aria-label="public-apis/public-apis candlestick chart">
<text x="14.0" y="20.0" font-size="15" fill="#0b0b0b" font-weight="650">public-apis/public-apis</text>
<text x="207.8" y="20.0" font-size="11.5" fill="#52514e">daily · commits, volume = lines changed</text>
<text x="805.8" y="20.0" font-size="11.0" fill="#52514e">fall</text>
<rect x="791" y="10" width="9" height="12" fill="#008300"/>
<text x="750.6" y="20.0" font-size="11.0" fill="#52514e">rise</text>
<rect x="736" y="10" width="9" height="12" fill="none" stroke="#e34948" stroke-width="1.5"/>
<text x="14.0" y="38.0" font-size="11.0" fill="#898781">last 60 active days · 374 commits · 834 lines changed · updated 2026-07-07</text>
<rect x="10" y="66" width="820" height="290" fill="none" stroke="#e1e0d9"/>
<rect x="10" y="384" width="820" height="86" fill="none" stroke="#e1e0d9"/>
<text x="38.0" y="490.0" font-size="11.0" fill="#898781" text-anchor="middle">2026-04</text>
<line x1="228.7" y1="66.0" x2="228.7" y2="356.0" stroke="#e1e0d9" stroke-width="1.0"/>
<line x1="228.7" y1="384.0" x2="228.7" y2="470.0" stroke="#e1e0d9" stroke-width="1.0"/>
<text x="235.5" y="490.0" font-size="11.0" fill="#898781" text-anchor="middle">2026-05</text>
<line x1="597.7" y1="66.0" x2="597.7" y2="356.0" stroke="#e1e0d9" stroke-width="1.0"/>
<line x1="597.7" y1="384.0" x2="597.7" y2="470.0" stroke="#e1e0d9" stroke-width="1.0"/>
<text x="604.5" y="490.0" font-size="11.0" fill="#898781" text-anchor="middle">2026-06</text>
<text x="14.0" y="58.0" font-size="11.0" fill="#52514e">BOLL(20,2)</text>
<text x="84.5" y="58.0" font-size="11.0" fill="#eda100">UP:24.2</text>
<text x="136.9" y="58.0" font-size="11.0" fill="#2a78d6">MID:8.2</text>
<text x="189.2" y="58.0" font-size="11.0" fill="#e87ba4">LOW:0</text>
<text x="229.5" y="58.0" font-size="11.0" fill="#4a3aa7">MA7:5.6</text>
<line x1="10.0" y1="356.0" x2="830.0" y2="356.0" stroke="#e1e0d9" stroke-width="1.0"/>
<text x="14.0" y="353.0" font-size="11.0" fill="#898781">0</text>
<line x1="10.0" y1="281.4" x2="830.0" y2="281.4" stroke="#e1e0d9" stroke-width="1.0"/>
<text x="14.0" y="278.4" font-size="11.0" fill="#898781">10</text>
<line x1="10.0" y1="206.7" x2="830.0" y2="206.7" stroke="#e1e0d9" stroke-width="1.0"/>
<text x="14.0" y="203.7" font-size="11.0" fill="#898781">20</text>
<line x1="10.0" y1="132.1" x2="830.0" y2="132.1" stroke="#e1e0d9" stroke-width="1.0"/>
<text x="14.0" y="129.1" font-size="11.0" fill="#898781">30</text>
<polyline points="16.8,261.5 30.5,267.3 44.2,267.3 57.8,314.1 71.5,336.7 85.2,336.1 98.8,331.9 112.5,330.7 126.2,330.7 139.8,329.3 153.5,329.3 167.2,328.1 180.8,325.5 194.5,325.5 208.2,323.4 221.8,323.4 235.5,319.9 249.2,254.0 262.8,251.4 276.5,250.9 290.2,247.9 303.8,245.3 317.5,239.8 331.2,222.2 344.8,220.6 358.5,216.1 372.2,212.9 385.8,212.8 399.5,213.4 413.2,212.8 426.8,213.1 440.5,212.9 454.2,212.5 467.8,212.5 481.5,212.2 495.2,212.2 508.8,212.0 522.5,242.9 536.2,243.6 549.8,240.7 563.5,241.2 577.2,242.5 590.8,236.7 604.5,255.6 618.2,257.2 631.8,263.3 645.5,269.4 659.2,192.1 672.8,187.1 686.5,184.3 700.2,178.7 713.8,178.6 727.5,178.4 741.2,178.6 754.8,179.0 768.5,179.2 782.2,174.8 795.8,174.2 809.5,174.1 823.2,175.5" fill="none" stroke="#eda100" stroke-width="1.5" stroke-linejoin="round" stroke-linecap="round"/>
<polyline points="16.8,334.0 30.5,337.0 44.2,337.0 57.8,343.7 71.5,346.3 85.2,345.9 98.8,344.8 112.5,344.4 126.2,344.4 139.8,343.7 153.5,343.7 167.2,342.9 180.8,341.8 194.5,341.8 208.2,340.7 221.8,340.3 235.5,338.8 249.2,329.9 262.8,327.6 276.5,326.5 290.2,323.9 303.8,321.3 317.5,317.9 331.2,312.0 344.8,310.1 358.5,306.4 372.2,303.7 385.8,302.6 399.5,301.5 413.2,302.3 426.8,300.0 440.5,300.4 454.2,301.1 467.8,301.1 481.5,300.0 495.2,300.0 508.8,300.8 522.5,308.2 536.2,309.3 549.8,307.1 563.5,309.7 577.2,310.8 590.8,309.3 604.5,313.8 618.2,316.1 631.8,317.9 645.5,320.2 659.2,308.6 672.8,305.2 686.5,301.5 700.2,298.5 713.8,297.0 727.5,297.4 741.2,295.5 754.8,297.0 768.5,296.7 782.2,292.6 795.8,294.0 809.5,293.3 823.2,294.8" fill="none" stroke="#2a78d6" stroke-width="1.5" stroke-linejoin="round" stroke-linecap="round"/>
<polyline points="16.8,356.0 30.5,356.0 44.2,356.0 57.8,356.0 71.5,355.9 85.2,355.7 98.8,356.0 112.5,356.0 126.2,356.0 139.8,356.0 153.5,356.0 167.2,356.0 180.8,356.0 194.5,356.0 208.2,356.0 221.8,356.0 235.5,356.0 249.2,356.0 262.8,356.0 276.5,356.0 290.2,356.0 303.8,356.0 317.5,356.0 331.2,356.0 344.8,356.0 358.5,356.0 372.2,356.0 385.8,356.0 399.5,356.0 413.2,356.0 426.8,356.0 440.5,356.0 454.2,356.0 467.8,356.0 481.5,356.0 495.2,356.0 508.8,356.0 522.5,356.0 536.2,356.0 549.8,356.0 563.5,356.0 577.2,356.0 590.8,356.0 604.5,356.0 618.2,356.0 631.8,356.0 645.5,356.0 659.2,356.0 672.8,356.0 686.5,356.0 700.2,356.0 713.8,356.0 727.5,356.0 741.2,356.0 754.8,356.0 768.5,356.0 782.2,356.0 795.8,356.0 809.5,356.0 823.2,356.0" fill="none" stroke="#e87ba4" stroke-width="1.5" stroke-linejoin="round" stroke-linecap="round"/>
<polyline points="16.8,348.5 30.5,348.5 44.2,347.8 57.8,345.5 71.5,343.3 85.2,341.8 98.8,338.8 112.5,336.6 126.2,336.6 139.8,335.8 153.5,338.1 167.2,338.1 180.8,335.8 194.5,338.8 208.2,338.1 221.8,336.6 235.5,334.4 249.2,309.0 262.8,304.5 276.5,304.5 290.2,297.0 303.8,293.3 317.5,283.6 331.2,268.7 344.8,286.6 358.5,281.4 372.2,273.9 385.8,276.1 399.5,280.6 413.2,291.1 426.8,303.7 440.5,310.5 454.2,320.9 467.8,331.4 481.5,330.6 495.2,332.9 508.8,330.6 522.5,332.9 536.2,330.6 549.8,321.7 563.5,321.7 577.2,323.9 590.8,310.5 604.5,306.0 618.2,309.0 631.8,306.0 645.5,311.2 659.2,273.1 672.8,264.2 686.5,268.7 700.2,259.7 713.8,256.0 727.5,261.9 741.2,261.2 754.8,297.0 768.5,308.2 782.2,304.5 795.8,319.4 809.5,319.4 823.2,314.2" fill="none" stroke="#4a3aa7" stroke-width="1.5" stroke-linejoin="round" stroke-linecap="round"/>
<rect x="13.1" y="348.5" width="7.5" height="7.5" fill="none" stroke="#e34948" stroke-width="1.3"/>
<rect x="26.7" y="348.5" width="7.5" height="1.2" fill="#898781"/>
<rect x="40.4" y="341.1" width="7.5" height="7.5" fill="none" stroke="#e34948" stroke-width="1.3"/>
<rect x="54.1" y="333.6" width="7.5" height="22.4" fill="none" stroke="#e34948" stroke-width="1.3"/>
<rect x="67.7" y="333.6" width="7.5" height="1.2" fill="#898781"/>
<rect x="81.4" y="333.6" width="7.5" height="7.5" fill="#008300"/>
<rect x="95.1" y="326.1" width="7.5" height="14.9" fill="none" stroke="#e34948" stroke-width="1.3"/>
<rect x="108.7" y="326.1" width="7.5" height="7.5" fill="#008300"/>
<rect x="122.4" y="333.6" width="7.5" height="14.9" fill="#008300"/>
<rect x="136.1" y="333.6" width="7.5" height="22.4" fill="none" stroke="#e34948" stroke-width="1.3"/>
<rect x="149.7" y="348.5" width="7.5" height="7.5" fill="none" stroke="#e34948" stroke-width="1.3"/>
<rect x="163.4" y="333.6" width="7.5" height="14.9" fill="none" stroke="#e34948" stroke-width="1.3"/>
<rect x="177.1" y="326.1" width="7.5" height="7.5" fill="none" stroke="#e34948" stroke-width="1.3"/>
<rect x="190.7" y="326.1" width="7.5" height="22.4" fill="#008300"/>
<rect x="204.4" y="326.1" width="7.5" height="22.4" fill="none" stroke="#e34948" stroke-width="1.3"/>
<rect x="218.1" y="326.1" width="7.5" height="14.9" fill="#008300"/>
<rect x="231.7" y="318.7" width="7.5" height="22.4" fill="none" stroke="#e34948" stroke-width="1.3"/>
<rect x="245.4" y="169.4" width="7.5" height="149.3" fill="none" stroke="#e34948" stroke-width="1.3"/>
<rect x="259.1" y="169.4" width="7.5" height="134.4" fill="#008300"/>
<rect x="272.7" y="303.7" width="7.5" height="22.4" fill="#008300"/>
<rect x="286.4" y="296.3" width="7.5" height="29.9" fill="none" stroke="#e34948" stroke-width="1.3"/>
<rect x="300.1" y="296.3" width="7.5" height="1.2" fill="#898781"/>
<rect x="313.7" y="273.9" width="7.5" height="22.4" fill="none" stroke="#e34948" stroke-width="1.3"/>
<rect x="327.4" y="214.2" width="7.5" height="59.7" fill="none" stroke="#e34948" stroke-width="1.3"/>
<rect x="341.1" y="214.2" width="7.5" height="82.1" fill="#008300"/>
<rect x="354.7" y="266.4" width="7.5" height="29.9" fill="none" stroke="#e34948" stroke-width="1.3"/>
<rect x="368.4" y="266.4" width="7.5" height="7.5" fill="#008300"/>
<rect x="382.1" y="273.9" width="7.5" height="37.3" fill="#008300"/>
<rect x="395.7" y="311.2" width="7.5" height="14.9" fill="#008300"/>
<rect x="409.4" y="326.1" width="7.5" height="22.4" fill="#008300"/>
<rect x="423.1" y="303.7" width="7.5" height="44.8" fill="none" stroke="#e34948" stroke-width="1.3"/>
<rect x="436.7" y="303.7" width="7.5" height="37.3" fill="#008300"/>
<rect x="450.4" y="341.1" width="7.5" height="1.2" fill="#898781"/>
<rect x="464.1" y="348.5" width="7.5" height="7.5" fill="none" stroke="#e34948" stroke-width="1.3"/>
<rect x="477.7" y="303.7" width="7.5" height="44.8" fill="none" stroke="#e34948" stroke-width="1.3"/>
<rect x="491.4" y="303.7" width="7.5" height="37.3" fill="#008300"/>
<rect x="505.1" y="333.6" width="7.5" height="22.4" fill="none" stroke="#e34948" stroke-width="1.3"/>
<rect x="518.7" y="318.7" width="7.5" height="14.9" fill="none" stroke="#e34948" stroke-width="1.3"/>
<rect x="532.4" y="318.7" width="7.5" height="7.5" fill="#008300"/>
<rect x="546.1" y="281.4" width="7.5" height="44.8" fill="none" stroke="#e34948" stroke-width="1.3"/>
<rect x="559.7" y="281.4" width="7.5" height="67.2" fill="#008300"/>
<rect x="573.4" y="318.7" width="7.5" height="29.9" fill="none" stroke="#e34948" stroke-width="1.3"/>
<rect x="587.1" y="244.0" width="7.5" height="74.6" fill="none" stroke="#e34948" stroke-width="1.3"/>
<rect x="600.7" y="244.0" width="7.5" height="59.7" fill="#008300"/>
<rect x="614.4" y="303.7" width="7.5" height="37.3" fill="#008300"/>
<rect x="628.1" y="303.7" width="7.5" height="37.3" fill="none" stroke="#e34948" stroke-width="1.3"/>
<rect x="641.7" y="303.7" width="7.5" height="14.9" fill="#008300"/>
<rect x="655.4" y="79.8" width="7.5" height="238.9" fill="none" stroke="#e34948" stroke-width="1.3"/>
<rect x="669.1" y="79.8" width="7.5" height="179.2" fill="#008300"/>
<rect x="682.7" y="259.0" width="7.5" height="14.9" fill="#008300"/>
<rect x="696.4" y="244.0" width="7.5" height="112.0" fill="none" stroke="#e34948" stroke-width="1.3"/>
<rect x="710.1" y="244.0" width="7.5" height="67.2" fill="#008300"/>
<rect x="723.7" y="348.5" width="7.5" height="7.5" fill="none" stroke="#e34948" stroke-width="1.3"/>
<rect x="737.4" y="311.2" width="7.5" height="44.8" fill="none" stroke="#e34948" stroke-width="1.3"/>
<rect x="751.1" y="333.6" width="7.5" height="22.4" fill="none" stroke="#e34948" stroke-width="1.3"/>
<rect x="764.7" y="333.6" width="7.5" height="22.4" fill="none" stroke="#e34948" stroke-width="1.3"/>
<rect x="778.4" y="251.5" width="7.5" height="82.1" fill="none" stroke="#e34948" stroke-width="1.3"/>
<rect x="792.1" y="251.5" width="7.5" height="97.0" fill="#008300"/>
<rect x="805.7" y="311.2" width="7.5" height="37.3" fill="none" stroke="#e34948" stroke-width="1.3"/>
<rect x="819.4" y="311.2" width="7.5" height="1.2" fill="#898781"/>
<circle cx="659.2" cy="79.8" r="2" fill="#52514e"/>
<line x1="659.2" y1="79.8" x2="651.2" y2="79.8" stroke="#52514e" stroke-width="1.0"/>
<text x="648.2" y="83.8" font-size="11.0" fill="#52514e" text-anchor="end">37</text>
<circle cx="16.8" cy="356.0" r="2" fill="#52514e"/>
<line x1="16.8" y1="356.0" x2="24.8" y2="356.0" stroke="#52514e" stroke-width="1.0"/>
<text x="27.8" y="350.0" font-size="11.0" fill="#52514e">0</text>
<text x="14.0" y="376.0" font-size="11.0" fill="#52514e">VOL 7 lines</text>
<text x="90.5" y="376.0" font-size="11.0" fill="#eda100">MA5:6.4</text>
<text x="142.9" y="376.0" font-size="11.0" fill="#2a78d6">MA10:6.6</text>
<text x="14.0" y="395.0" font-size="10" fill="#898781">360</text>
<rect x="54.1" y="469.3" width="7.5" height="0.7" fill="none" stroke="#e34948" stroke-width="1.1"/>
<rect x="67.7" y="469.3" width="7.5" height="0.7" fill="#898781"/>
<rect x="95.1" y="469.1" width="7.5" height="0.9" fill="none" stroke="#e34948" stroke-width="1.1"/>
<rect x="108.7" y="469.3" width="7.5" height="0.7" fill="#008300"/>
<rect x="136.1" y="469.3" width="7.5" height="0.7" fill="none" stroke="#e34948" stroke-width="1.1"/>
<rect x="163.4" y="469.1" width="7.5" height="0.9" fill="none" stroke="#e34948" stroke-width="1.1"/>
<rect x="177.1" y="469.1" width="7.5" height="0.9" fill="none" stroke="#e34948" stroke-width="1.1"/>
<rect x="204.4" y="467.9" width="7.5" height="2.1" fill="none" stroke="#e34948" stroke-width="1.1"/>
<rect x="231.7" y="468.9" width="7.5" height="1.1" fill="none" stroke="#e34948" stroke-width="1.1"/>
<rect x="245.4" y="463.6" width="7.5" height="6.4" fill="none" stroke="#e34948" stroke-width="1.1"/>
<rect x="259.1" y="468.2" width="7.5" height="1.8" fill="#008300"/>
<rect x="272.7" y="468.9" width="7.5" height="1.1" fill="#008300"/>
<rect x="286.4" y="467.5" width="7.5" height="2.5" fill="none" stroke="#e34948" stroke-width="1.1"/>
<rect x="300.1" y="467.7" width="7.5" height="2.3" fill="#898781"/>
<rect x="313.7" y="467.3" width="7.5" height="2.7" fill="none" stroke="#e34948" stroke-width="1.1"/>
<rect x="327.4" y="463.9" width="7.5" height="6.1" fill="none" stroke="#e34948" stroke-width="1.1"/>
<rect x="341.1" y="467.9" width="7.5" height="2.1" fill="#008300"/>
<rect x="354.7" y="467.3" width="7.5" height="2.7" fill="none" stroke="#e34948" stroke-width="1.1"/>
<rect x="368.4" y="388.0" width="7.5" height="82.0" fill="#008300"/>
<rect x="382.1" y="468.6" width="7.5" height="1.4" fill="#008300"/>
<rect x="395.7" y="469.1" width="7.5" height="0.9" fill="#008300"/>
<rect x="423.1" y="467.5" width="7.5" height="2.5" fill="none" stroke="#e34948" stroke-width="1.1"/>
<rect x="477.7" y="468.4" width="7.5" height="1.6" fill="none" stroke="#e34948" stroke-width="1.1"/>
<rect x="505.1" y="469.3" width="7.5" height="0.7" fill="none" stroke="#e34948" stroke-width="1.1"/>
<rect x="518.7" y="468.9" width="7.5" height="1.1" fill="none" stroke="#e34948" stroke-width="1.1"/>
<rect x="532.4" y="469.1" width="7.5" height="0.9" fill="#008300"/>
<rect x="546.1" y="467.3" width="7.5" height="2.7" fill="none" stroke="#e34948" stroke-width="1.1"/>
<rect x="573.4" y="467.5" width="7.5" height="2.5" fill="none" stroke="#e34948" stroke-width="1.1"/>
<rect x="587.1" y="454.7" width="7.5" height="15.3" fill="none" stroke="#e34948" stroke-width="1.1"/>
<rect x="600.7" y="468.2" width="7.5" height="1.8" fill="#008300"/>
<rect x="628.1" y="468.4" width="7.5" height="1.6" fill="none" stroke="#e34948" stroke-width="1.1"/>
<rect x="641.7" y="467.0" width="7.5" height="3.0" fill="#008300"/>
<rect x="655.4" y="460.4" width="7.5" height="9.6" fill="none" stroke="#e34948" stroke-width="1.1"/>
<rect x="669.1" y="466.8" width="7.5" height="3.2" fill="#008300"/>
<rect x="682.7" y="467.3" width="7.5" height="2.7" fill="#008300"/>
<rect x="696.4" y="466.1" width="7.5" height="3.9" fill="none" stroke="#e34948" stroke-width="1.1"/>
<rect x="710.1" y="468.6" width="7.5" height="1.4" fill="#008300"/>
<rect x="737.4" y="468.6" width="7.5" height="1.4" fill="none" stroke="#e34948" stroke-width="1.1"/>
<rect x="751.1" y="469.3" width="7.5" height="0.7" fill="none" stroke="#e34948" stroke-width="1.1"/>
<rect x="764.7" y="469.3" width="7.5" height="0.7" fill="none" stroke="#e34948" stroke-width="1.1"/>
<rect x="778.4" y="466.8" width="7.5" height="3.2" fill="none" stroke="#e34948" stroke-width="1.1"/>
<rect x="805.7" y="468.4" width="7.5" height="1.6" fill="none" stroke="#e34948" stroke-width="1.1"/>
<rect x="819.4" y="468.4" width="7.5" height="1.6" fill="#898781"/>
<polyline points="16.8,464.5 30.5,466.0 44.2,466.0 57.8,468.3 71.5,468.6 85.2,468.6 98.8,468.6 112.5,469.5 126.2,469.5 139.8,469.5 153.5,469.5 167.2,469.4 180.8,469.4 194.5,469.4 208.2,469.3 221.8,469.3 235.5,469.2 249.2,468.7 262.8,468.5 276.5,468.5 290.2,468.2 303.8,468.1 317.5,467.9 331.2,467.3 344.8,467.3 358.5,467.1 372.2,459.0 385.8,459.5 399.5,459.6 413.2,459.7 426.8,459.7 440.5,459.9 454.2,460.1 467.8,460.7 481.5,460.8 495.2,461.0 508.8,469.1 522.5,469.1 536.2,469.1 549.8,468.9 563.5,469.1 577.2,468.9 590.8,467.4 604.5,467.3 618.2,467.4 631.8,467.3 645.5,467.0 659.2,466.2 672.8,466.0 686.5,466.0 700.2,465.6 713.8,465.7 727.5,467.2 741.2,467.2 754.8,467.2 768.5,467.3 782.2,467.3 795.8,468.2 809.5,468.4 823.2,468.5" fill="none" stroke="#2a78d6" stroke-width="1.5" stroke-linejoin="round" stroke-linecap="round"/>
<polyline points="16.8,467.8 30.5,467.9 44.2,469.7 57.8,469.6 71.5,469.5 85.2,469.5 98.8,469.4 112.5,469.3 126.2,469.4 139.8,469.4 153.5,469.5 167.2,469.5 180.8,469.4 194.5,469.4 208.2,469.1 221.8,469.1 235.5,469.0 249.2,467.9 262.8,467.6 276.5,467.8 290.2,467.4 303.8,467.2 317.5,467.9 331.2,467.0 344.8,466.9 358.5,466.8 372.2,450.9 385.8,451.1 399.5,452.2 413.2,452.6 426.8,452.6 440.5,468.9 454.2,469.1 467.8,469.2 481.5,469.0 495.2,469.4 508.8,469.3 522.5,469.2 536.2,469.0 549.8,468.8 563.5,468.9 577.2,468.5 590.8,465.7 604.5,465.5 618.2,465.9 631.8,465.7 645.5,465.6 659.2,466.7 672.8,466.4 686.5,466.0 700.2,465.5 713.8,465.9 727.5,467.7 741.2,468.0 754.8,468.5 768.5,469.1 782.2,468.7 795.8,468.8 809.5,468.7 823.2,468.5" fill="none" stroke="#eda100" stroke-width="1.5" stroke-linejoin="round" stroke-linecap="round"/>
</svg>