<svg xmlns="http://www.w3.org/2000/svg" viewBox="0 0 840 496" width="840" height="496" font-family="-apple-system,&#39;Segoe UI&#39;,system-ui,sans-serif" role="img" aria-label="public-apis/public-apis candlestick chart">
<text x="14.0" y="20.0" font-size="15" fill="#ffffff" font-weight="650">public-apis/public-apis</text>
<text x="207.8" y="20.0" font-size="11.5" fill="#c3c2b7">daily · new stars, volume = new forks</text>
<text x="805.8" y="20.0" font-size="11.0" fill="#c3c2b7">fall</text>
<rect x="791" y="10" width="9" height="12" fill="#008300"/>
<text x="750.6" y="20.0" font-size="11.0" fill="#c3c2b7">rise</text>
<rect x="736" y="10" width="9" height="12" fill="none" stroke="#e66767" stroke-width="1.5"/>
<text x="14.0" y="38.0" font-size="11.0" fill="#898781">last 32 days · +9,476 stars · +1,309 forks · updated 2026-07-18</text>
<rect x="10" y="66" width="820" height="290" fill="none" stroke="#2c2c2a"/>
<rect x="10" y="384" width="820" height="86" fill="none" stroke="#2c2c2a"/>
<text x="38.0" y="490.0" font-size="11.0" fill="#898781" text-anchor="middle">2026-06</text>
<line x1="368.8" y1="66.0" x2="368.8" y2="356.0" stroke="#2c2c2a" stroke-width="1.0"/>
<line x1="368.8" y1="384.0" x2="368.8" y2="470.0" stroke="#2c2c2a" stroke-width="1.0"/>
<text x="381.6" y="490.0" font-size="11.0" fill="#898781" text-anchor="middle">2026-07</text>
<text x="14.0" y="58.0" font-size="11.0" fill="#c3c2b7">BOLL(20,2)</text>
<text x="84.5" y="58.0" font-size="11.0" fill="#c98500">UP:462.4</text>
<text x="142.9" y="58.0" font-size="11.0" fill="#3987e5">MID:325.3</text>
<text x="207.4" y="58.0" font-size="11.0" fill="#d55181">LOW:188.2</text>
<text x="271.8" y="58.0" font-size="11.0" fill="#9085e9">MA7:330.7</text>
<line x1="10.0" y1="356.0" x2="830.0" y2="356.0" stroke="#2c2c2a" stroke-width="1.0"/>
<text x="14.0" y="353.0" font-size="11.0" fill="#898781">0</text>
<line x1="10.0" y1="238.5" x2="830.0" y2="238.5" stroke="#2c2c2a" stroke-width="1.0"/>
<text x="14.0" y="235.5" font-size="11.0" fill="#898781">200</text>
<line x1="10.0" y1="120.9" x2="830.0" y2="120.9" stroke="#2c2c2a" stroke-width="1.0"/>
<text x="14.0" y="117.9" font-size="11.0" fill="#898781">400</text>
<polyline points="509.7,102.8 535.3,100.7 560.9,101.9 586.6,91.9 612.2,92.1 637.8,92.0 663.4,86.8 689.1,83.7 714.7,80.5 740.3,80.0 765.9,79.8 791.6,82.2 817.2,84.3" fill="none" stroke="#c98500" stroke-width="1.5" stroke-linejoin="round" stroke-linecap="round"/>
<polyline points="509.7,189.5 535.3,190.7 560.9,191.1 586.6,188.4 612.2,188.5 637.8,186.7 663.4,182.3 689.1,178.8 714.7,176.9 740.3,174.0 765.9,168.1 791.6,166.8 817.2,164.8" fill="none" stroke="#3987e5" stroke-width="1.5" stroke-linejoin="round" stroke-linecap="round"/>
<polyline points="509.7,276.3 535.3,280.7 560.9,280.4 586.6,284.8 612.2,284.9 637.8,281.4 663.4,277.8 689.1,273.8 714.7,273.2 740.3,267.9 765.9,256.3 791.6,251.3 817.2,245.4" fill="none" stroke="#d55181" stroke-width="1.5" stroke-linejoin="round" stroke-linecap="round"/>
<polyline points="176.6,200.0 202.2,191.8 227.8,202.3 253.4,215.7 279.1,224.4 304.7,224.2 330.3,221.6 355.9,208.5 381.6,194.7 407.2,185.2 432.8,177.1 458.4,168.5 484.1,161.5 509.7,151.1 535.3,170.3 560.9,181.1 586.6,173.2 612.2,171.8 637.8,173.3 663.4,167.2 689.1,169.3 714.7,152.2 740.3,153.2 765.9,157.8 791.6,162.3 817.2,161.6" fill="none" stroke="#9085e9" stroke-width="1.5" stroke-linejoin="round" stroke-linecap="round"/>
<rect x="15.8" y="238.5" width="14.1" height="117.5" fill="none" stroke="#e66767" stroke-width="1.3"/>
<rect x="41.4" y="150.3" width="14.1" height="88.2" fill="none" stroke="#e66767" stroke-width="1.3"/>
<rect x="67.0" y="150.3" width="14.1" height="7.6" fill="#008300"/>
<rect x="92.6" y="157.9" width="14.1" height="24.1" fill="#008300"/>
<rect x="118.3" y="182.0" width="14.1" height="46.4" fill="#008300"/>
<rect x="143.9" y="224.4" width="14.1" height="4.1" fill="none" stroke="#e66767" stroke-width="1.3"/>
<rect x="169.5" y="218.5" width="14.1" height="5.9" fill="none" stroke="#e66767" stroke-width="1.3"/>
<rect x="195.1" y="180.9" width="14.1" height="37.6" fill="none" stroke="#e66767" stroke-width="1.3"/>
<rect x="220.8" y="180.9" width="14.1" height="42.9" fill="#008300"/>
<rect x="246.4" y="223.8" width="14.1" height="28.2" fill="#008300"/>
<rect x="272.0" y="242.6" width="14.1" height="9.4" fill="none" stroke="#e66767" stroke-width="1.3"/>
<rect x="297.6" y="227.3" width="14.1" height="15.3" fill="none" stroke="#e66767" stroke-width="1.3"/>
<rect x="323.3" y="206.1" width="14.1" height="21.2" fill="none" stroke="#e66767" stroke-width="1.3"/>
<rect x="348.9" y="127.4" width="14.1" height="78.8" fill="none" stroke="#e66767" stroke-width="1.3"/>
<rect x="374.5" y="83.9" width="14.1" height="43.5" fill="none" stroke="#e66767" stroke-width="1.3"/>
<rect x="400.1" y="83.9" width="14.1" height="73.5" fill="#008300"/>
<rect x="425.8" y="157.4" width="14.1" height="37.6" fill="#008300"/>
<rect x="451.4" y="182.0" width="14.1" height="12.9" fill="none" stroke="#e66767" stroke-width="1.3"/>
<rect x="477.0" y="179.1" width="14.1" height="2.9" fill="none" stroke="#e66767" stroke-width="1.3"/>
<rect x="502.6" y="133.3" width="14.1" height="45.8" fill="none" stroke="#e66767" stroke-width="1.3"/>
<rect x="528.3" y="133.3" width="14.1" height="128.7" fill="#008300"/>
<rect x="553.9" y="159.1" width="14.1" height="102.9" fill="none" stroke="#e66767" stroke-width="1.3"/>
<rect x="579.5" y="102.1" width="14.1" height="57.0" fill="none" stroke="#e66767" stroke-width="1.3"/>
<rect x="605.1" y="102.1" width="14.1" height="82.9" fill="#008300"/>
<rect x="630.8" y="185.0" width="14.1" height="7.6" fill="#008300"/>
<rect x="656.4" y="136.2" width="14.1" height="56.4" fill="none" stroke="#e66767" stroke-width="1.3"/>
<rect x="682.0" y="136.2" width="14.1" height="11.8" fill="#008300"/>
<rect x="707.6" y="142.7" width="14.1" height="5.3" fill="none" stroke="#e66767" stroke-width="1.3"/>
<rect x="733.3" y="142.7" width="14.1" height="22.9" fill="#008300"/>
<rect x="758.9" y="134.4" width="14.1" height="31.1" fill="none" stroke="#e66767" stroke-width="1.3"/>
<rect x="784.5" y="134.4" width="14.1" height="82.3" fill="#008300"/>
<rect x="810.1" y="187.9" width="14.1" height="28.8" fill="none" stroke="#e66767" stroke-width="1.3"/>
<circle cx="381.6" cy="83.9" r="2" fill="#c3c2b7"/>
<line x1="381.6" y1="83.9" x2="389.6" y2="83.9" stroke="#c3c2b7" stroke-width="1.0"/>
<text x="392.6" y="87.9" font-size="11.0" fill="#c3c2b7">463</text>
<circle cx="22.8" cy="356.0" r="2" fill="#c3c2b7"/>
<line x1="22.8" y1="356.0" x2="30.8" y2="356.0" stroke="#c3c2b7" stroke-width="1.0"/>
<text x="33.8" y="350.0" font-size="11.0" fill="#c3c2b7">0</text>
<text x="14.0" y="376.0" font-size="11.0" fill="#c3c2b7">VOL 34 forks</text>
<text x="96.6" y="376.0" font-size="11.0" fill="#c98500">MA5:44.4</text>
<text x="155.0" y="376.0" font-size="11.0" fill="#3987e5">MA10:43.6</text>
<text x="14.0" y="395.0" font-size="10" fill="#898781">62</text>
<rect x="15.8" y="430.3" width="14.1" height="39.7" fill="none" stroke="#e66767" stroke-width="1.1"/>
<rect x="41.4" y="403.9" width="14.1" height="66.1" fill="none" stroke="#e66767" stroke-width="1.1"/>
<rect x="67.0" y="415.8" width="14.1" height="54.2" fill="#008300"/>
<rect x="92.6" y="398.6" width="14.1" height="71.4" fill="#008300"/>
<rect x="118.3" y="431.6" width="14.1" height="38.4" fill="#008300"/>
<rect x="143.9" y="430.3" width="14.1" height="39.7" fill="none" stroke="#e66767" stroke-width="1.1"/>
<rect x="169.5" y="421.1" width="14.1" height="48.9" fill="none" stroke="#e66767" stroke-width="1.1"/>
<rect x="195.1" y="421.1" width="14.1" height="48.9" fill="none" stroke="#e66767" stroke-width="1.1"/>
<rect x="220.8" y="429.0" width="14.1" height="41.0" fill="#008300"/>
<rect x="246.4" y="425.0" width="14.1" height="45.0" fill="#008300"/>
<rect x="272.0" y="429.0" width="14.1" height="41.0" fill="none" stroke="#e66767" stroke-width="1.1"/>
<rect x="297.6" y="426.4" width="14.1" height="43.6" fill="none" stroke="#e66767" stroke-width="1.1"/>
<rect x="323.3" y="406.5" width="14.1" height="63.5" fill="none" stroke="#e66767" stroke-width="1.1"/>
<rect x="348.9" y="411.8" width="14.1" height="58.2" fill="none" stroke="#e66767" stroke-width="1.1"/>
<rect x="374.5" y="388.0" width="14.1" height="82.0" fill="none" stroke="#e66767" stroke-width="1.1"/>
<rect x="400.1" y="417.1" width="14.1" height="52.9" fill="#008300"/>
<rect x="425.8" y="419.7" width="14.1" height="50.3" fill="#008300"/>
<rect x="451.4" y="405.2" width="14.1" height="64.8" fill="none" stroke="#e66767" stroke-width="1.1"/>
<rect x="477.0" y="407.8" width="14.1" height="62.2" fill="none" stroke="#e66767" stroke-width="1.1"/>
<rect x="502.6" y="418.4" width="14.1" height="51.6" fill="none" stroke="#e66767" stroke-width="1.1"/>
<rect x="528.3" y="438.3" width="14.1" height="31.7" fill="#008300"/>
<rect x="553.9" y="410.5" width="14.1" height="59.5" fill="none" stroke="#e66767" stroke-width="1.1"/>
<rect x="579.5" y="402.5" width="14.1" height="67.5" fill="none" stroke="#e66767" stroke-width="1.1"/>
<rect x="605.1" y="419.7" width="14.1" height="50.3" fill="#008300"/>
<rect x="630.8" y="419.7" width="14.1" height="50.3" fill="#008300"/>
<rect x="656.4" y="413.1" width="14.1" height="56.9" fill="none" stroke="#e66767" stroke-width="1.1"/>
<rect x="682.0" y="411.8" width="14.1" height="58.2" fill="#008300"/>
<rect x="707.6" y="395.9" width="14.1" height="74.1" fill="none" stroke="#e66767" stroke-width="1.1"/>
<rect x="733.3" y="407.8" width="14.1" height="62.2" fill="#008300"/>
<rect x="758.9" y="414.5" width="14.1" height="55.5" fill="none" stroke="#e66767" stroke-width="1.1"/>
<rect x="784.5" y="413.1" width="14.1" height="56.9" fill="#008300"/>
<rect x="810.1" y="425.0" width="14.1" height="45.0" fill="none" stroke="#e66767" stroke-width="1.1"/>
<polyline points="253.4,420.7 279.1,420.5 304.7,422.8 330.3,421.9 355.9,423.2 381.6,418.8 407.2,417.5 432.8,417.4 458.4,415.8 484.1,413.7 509.7,413.0 535.3,413.9 560.9,412.3 586.6,411.9 612.2,412.7 637.8,415.9 663.4,415.5 689.1,414.7 714.7,413.8 740.3,413.8 765.9,413.4 791.6,410.9 817.2,412.3" fill="none" stroke="#3987e5" stroke-width="1.5" stroke-linejoin="round" stroke-linecap="round"/>
<polyline points="125.3,416.0 150.9,416.0 176.6,419.5 202.2,420.5 227.8,426.6 253.4,425.3 279.1,425.0 304.7,426.1 330.3,423.2 355.9,419.7 381.6,412.3 407.2,410.0 432.8,408.6 458.4,408.4 484.1,407.6 509.7,413.7 535.3,417.9 560.9,416.0 586.6,415.5 612.2,417.9 637.8,418.2 663.4,413.1 689.1,413.4 714.7,412.1 740.3,409.7 765.9,408.6 791.6,408.6 817.2,411.3" fill="none" stroke="#c98500" stroke-width="1.5" stroke-linejoin="round" stroke-linecap="round"/>
</svg>