<svg xmlns="http://www.w3.org/2000/svg" viewBox="0 0 840 496" width="840" height="496" font-family="-apple-system,&#39;Segoe UI&#39;,system-ui,sans-serif" role="img" aria-label="public-apis/public-apis candlestick chart">
<text x="14.0" y="20.0" font-size="15" fill="#0b0b0b" font-weight="650">public-apis/public-apis</text>
<text x="207.8" y="20.0" font-size="11.5" fill="#52514e">daily · new stars, volume = new forks</text>
<text x="805.8" y="20.0" font-size="11.0" fill="#52514e">fall</text>
<rect x="791" y="10" width="9" height="12" fill="#008300"/>
<text x="750.6" y="20.0" font-size="11.0" fill="#52514e">rise</text>
<rect x="736" y="10" width="9" height="12" fill="none" stroke="#e34948" stroke-width="1.5"/>
<text x="14.0" y="38.0" font-size="11.0" fill="#898781">last 38 days · +10,676 stars · +1,489 forks · updated 2026-07-24</text>
<rect x="10" y="66" width="820" height="290" fill="none" stroke="#e1e0d9"/>
<rect x="10" y="384" width="820" height="86" fill="none" stroke="#e1e0d9"/>
<text x="38.0" y="490.0" font-size="11.0" fill="#898781" text-anchor="middle">2026-06</text>
<line x1="312.1" y1="66.0" x2="312.1" y2="356.0" stroke="#e1e0d9" stroke-width="1.0"/>
<line x1="312.1" y1="384.0" x2="312.1" y2="470.0" stroke="#e1e0d9" stroke-width="1.0"/>
<text x="322.9" y="490.0" font-size="11.0" fill="#898781" text-anchor="middle">2026-07</text>
<text x="14.0" y="58.0" font-size="11.0" fill="#52514e">BOLL(20,2)</text>
<text x="84.5" y="58.0" font-size="11.0" fill="#eda100">UP:443.5</text>
<text x="142.9" y="58.0" font-size="11.0" fill="#2a78d6">MID:284.6</text>
<text x="207.4" y="58.0" font-size="11.0" fill="#e87ba4">LOW:125.6</text>
<text x="271.8" y="58.0" font-size="11.0" fill="#4a3aa7">MA7:212.3</text>
<line x1="10.0" y1="356.0" x2="830.0" y2="356.0" stroke="#e1e0d9" stroke-width="1.0"/>
<text x="14.0" y="353.0" font-size="11.0" fill="#898781">0</text>
<line x1="10.0" y1="238.5" x2="830.0" y2="238.5" stroke="#e1e0d9" stroke-width="1.0"/>
<text x="14.0" y="235.5" font-size="11.0" fill="#898781">200</text>
<line x1="10.0" y1="120.9" x2="830.0" y2="120.9" stroke="#e1e0d9" stroke-width="1.0"/>
<text x="14.0" y="117.9" font-size="11.0" fill="#898781">400</text>
<polyline points="430.8,102.8 452.4,100.7 473.9,101.9 495.5,91.9 517.1,92.1 538.7,92.0 560.3,86.8 581.8,83.7 603.4,80.5 625.0,80.0 646.6,79.8 668.2,82.2 689.7,84.3 711.3,81.6 732.9,82.8 754.5,97.4 776.1,97.9 797.6,95.2 819.2,95.3" fill="none" stroke="#eda100" stroke-width="1.5" stroke-linejoin="round" stroke-linecap="round"/>
<polyline points="430.8,189.5 452.4,190.7 473.9,191.1 495.5,188.4 517.1,188.5 538.7,186.7 560.3,182.3 581.8,178.8 603.4,176.9 625.0,174.0 646.6,168.1 668.2,166.8 689.7,164.8 711.3,166.4 732.9,172.3 754.5,178.8 776.1,183.0 797.6,186.1 819.2,188.8" fill="none" stroke="#2a78d6" stroke-width="1.5" stroke-linejoin="round" stroke-linecap="round"/>
<polyline points="430.8,276.3 452.4,280.7 473.9,280.4 495.5,284.8 517.1,284.9 538.7,281.4 560.3,277.8 581.8,273.8 603.4,273.2 625.0,267.9 646.6,256.3 668.2,251.3 689.7,245.4 711.3,251.2 732.9,261.8 754.5,260.1 776.1,268.1 797.6,276.9 819.2,282.2" fill="none" stroke="#e87ba4" stroke-width="1.5" stroke-linejoin="round" stroke-linecap="round"/>
<polyline points="150.3,200.0 171.8,191.8 193.4,202.3 215.0,215.7 236.6,224.4 258.2,224.2 279.7,221.6 301.3,208.5 322.9,194.7 344.5,185.2 366.1,177.1 387.6,168.5 409.2,161.5 430.8,151.1 452.4,170.3 473.9,181.1 495.5,173.2 517.1,171.8 538.7,173.3 560.3,167.2 581.8,169.3 603.4,152.2 625.0,153.2 646.6,157.8 668.2,162.3 689.7,161.6 711.3,176.1 732.9,190.1 754.5,200.2 776.1,211.0 797.6,228.5 819.2,231.2" fill="none" stroke="#4a3aa7" stroke-width="1.5" stroke-linejoin="round" stroke-linecap="round"/>
<rect x="14.9" y="238.5" width="11.9" height="117.5" fill="none" stroke="#e34948" stroke-width="1.3"/>
<rect x="36.4" y="150.3" width="11.9" height="88.2" fill="none" stroke="#e34948" stroke-width="1.3"/>
<rect x="58.0" y="150.3" width="11.9" height="7.6" fill="#008300"/>
<rect x="79.6" y="157.9" width="11.9" height="24.1" fill="#008300"/>
<rect x="101.2" y="182.0" width="11.9" height="46.4" fill="#008300"/>
<rect x="122.7" y="224.4" width="11.9" height="4.1" fill="none" stroke="#e34948" stroke-width="1.3"/>
<rect x="144.3" y="218.5" width="11.9" height="5.9" fill="none" stroke="#e34948" stroke-width="1.3"/>
<rect x="165.9" y="180.9" width="11.9" height="37.6" fill="none" stroke="#e34948" stroke-width="1.3"/>
<rect x="187.5" y="180.9" width="11.9" height="42.9" fill="#008300"/>
<rect x="209.1" y="223.8" width="11.9" height="28.2" fill="#008300"/>
<rect x="230.6" y="242.6" width="11.9" height="9.4" fill="none" stroke="#e34948" stroke-width="1.3"/>
<rect x="252.2" y="227.3" width="11.9" height="15.3" fill="none" stroke="#e34948" stroke-width="1.3"/>
<rect x="273.8" y="206.1" width="11.9" height="21.2" fill="none" stroke="#e34948" stroke-width="1.3"/>
<rect x="295.4" y="127.4" width="11.9" height="78.8" fill="none" stroke="#e34948" stroke-width="1.3"/>
<rect x="317.0" y="83.9" width="11.9" height="43.5" fill="none" stroke="#e34948" stroke-width="1.3"/>
<rect x="338.5" y="83.9" width="11.9" height="73.5" fill="#008300"/>
<rect x="360.1" y="157.4" width="11.9" height="37.6" fill="#008300"/>
<rect x="381.7" y="182.0" width="11.9" height="12.9" fill="none" stroke="#e34948" stroke-width="1.3"/>
<rect x="403.3" y="179.1" width="11.9" height="2.9" fill="none" stroke="#e34948" stroke-width="1.3"/>
<rect x="424.9" y="133.3" width="11.9" height="45.8" fill="none" stroke="#e34948" stroke-width="1.3"/>
<rect x="446.4" y="133.3" width="11.9" height="128.7" fill="#008300"/>
<rect x="468.0" y="159.1" width="11.9" height="102.9" fill="none" stroke="#e34948" stroke-width="1.3"/>
<rect x="489.6" y="102.1" width="11.9" height="57.0" fill="none" stroke="#e34948" stroke-width="1.3"/>
<rect x="511.2" y="102.1" width="11.9" height="82.9" fill="#008300"/>
<rect x="532.7" y="185.0" width="11.9" height="7.6" fill="#008300"/>
<rect x="554.3" y="136.2" width="11.9" height="56.4" fill="none" stroke="#e34948" stroke-width="1.3"/>
<rect x="575.9" y="136.2" width="11.9" height="11.8" fill="#008300"/>
<rect x="597.5" y="142.7" width="11.9" height="5.3" fill="none" stroke="#e34948" stroke-width="1.3"/>
<rect x="619.1" y="142.7" width="11.9" height="22.9" fill="#008300"/>
<rect x="640.6" y="134.4" width="11.9" height="31.1" fill="none" stroke="#e34948" stroke-width="1.3"/>
<rect x="662.2" y="134.4" width="11.9" height="82.3" fill="#008300"/>
<rect x="683.8" y="187.9" width="11.9" height="28.8" fill="none" stroke="#e34948" stroke-width="1.3"/>
<rect x="705.4" y="187.9" width="11.9" height="49.4" fill="#008300"/>
<rect x="727.0" y="237.3" width="11.9" height="8.8" fill="#008300"/>
<rect x="748.5" y="213.2" width="11.9" height="32.9" fill="none" stroke="#e34948" stroke-width="1.3"/>
<rect x="770.1" y="213.2" width="11.9" height="28.2" fill="#008300"/>
<rect x="791.7" y="241.4" width="11.9" height="15.3" fill="#008300"/>
<rect x="813.3" y="236.1" width="11.9" height="20.6" fill="none" stroke="#e34948" stroke-width="1.3"/>
<circle cx="322.9" cy="83.9" r="2" fill="#52514e"/>
<line x1="322.9" y1="83.9" x2="330.9" y2="83.9" stroke="#52514e" stroke-width="1.0"/>
<text x="333.9" y="87.9" font-size="11.0" fill="#52514e">463</text>
<circle cx="20.8" cy="356.0" r="2" fill="#52514e"/>
<line x1="20.8" y1="356.0" x2="28.8" y2="356.0" stroke="#52514e" stroke-width="1.0"/>
<text x="31.8" y="350.0" font-size="11.0" fill="#52514e">0</text>
<text x="14.0" y="376.0" font-size="11.0" fill="#52514e">VOL 30 forks</text>
<text x="96.6" y="376.0" font-size="11.0" fill="#eda100">MA5:29.8</text>
<text x="155.0" y="376.0" font-size="11.0" fill="#2a78d6">MA10:34.6</text>
<text x="14.0" y="395.0" font-size="10" fill="#898781">62</text>
<rect x="14.9" y="430.3" width="11.9" height="39.7" fill="none" stroke="#e34948" stroke-width="1.1"/>
<rect x="36.4" y="403.9" width="11.9" height="66.1" fill="none" stroke="#e34948" stroke-width="1.1"/>
<rect x="58.0" y="415.8" width="11.9" height="54.2" fill="#008300"/>
<rect x="79.6" y="398.6" width="11.9" height="71.4" fill="#008300"/>
<rect x="101.2" y="431.6" width="11.9" height="38.4" fill="#008300"/>
<rect x="122.7" y="430.3" width="11.9" height="39.7" fill="none" stroke="#e34948" stroke-width="1.1"/>
<rect x="144.3" y="421.1" width="11.9" height="48.9" fill="none" stroke="#e34948" stroke-width="1.1"/>
<rect x="165.9" y="421.1" width="11.9" height="48.9" fill="none" stroke="#e34948" stroke-width="1.1"/>
<rect x="187.5" y="429.0" width="11.9" height="41.0" fill="#008300"/>
<rect x="209.1" y="425.0" width="11.9" height="45.0" fill="#008300"/>
<rect x="230.6" y="429.0" width="11.9" height="41.0" fill="none" stroke="#e34948" stroke-width="1.1"/>
<rect x="252.2" y="426.4" width="11.9" height="43.6" fill="none" stroke="#e34948" stroke-width="1.1"/>
<rect x="273.8" y="406.5" width="11.9" height="63.5" fill="none" stroke="#e34948" stroke-width="1.1"/>
<rect x="295.4" y="411.8" width="11.9" height="58.2" fill="none" stroke="#e34948" stroke-width="1.1"/>
<rect x="317.0" y="388.0" width="11.9" height="82.0" fill="none" stroke="#e34948" stroke-width="1.1"/>
<rect x="338.5" y="417.1" width="11.9" height="52.9" fill="#008300"/>
<rect x="360.1" y="419.7" width="11.9" height="50.3" fill="#008300"/>
<rect x="381.7" y="405.2" width="11.9" height="64.8" fill="none" stroke="#e34948" stroke-width="1.1"/>
<rect x="403.3" y="407.8" width="11.9" height="62.2" fill="none" stroke="#e34948" stroke-width="1.1"/>
<rect x="424.9" y="418.4" width="11.9" height="51.6" fill="none" stroke="#e34948" stroke-width="1.1"/>
<rect x="446.4" y="438.3" width="11.9" height="31.7" fill="#008300"/>
<rect x="468.0" y="410.5" width="11.9" height="59.5" fill="none" stroke="#e34948" stroke-width="1.1"/>
<rect x="489.6" y="402.5" width="11.9" height="67.5" fill="none" stroke="#e34948" stroke-width="1.1"/>
<rect x="511.2" y="419.7" width="11.9" height="50.3" fill="#008300"/>
<rect x="532.7" y="419.7" width="11.9" height="50.3" fill="#008300"/>
<rect x="554.3" y="413.1" width="11.9" height="56.9" fill="none" stroke="#e34948" stroke-width="1.1"/>
<rect x="575.9" y="411.8" width="11.9" height="58.2" fill="#008300"/>
<rect x="597.5" y="395.9" width="11.9" height="74.1" fill="none" stroke="#e34948" stroke-width="1.1"/>
<rect x="619.1" y="407.8" width="11.9" height="62.2" fill="#008300"/>
<rect x="640.6" y="414.5" width="11.9" height="55.5" fill="none" stroke="#e34948" stroke-width="1.1"/>
<rect x="662.2" y="413.1" width="11.9" height="56.9" fill="#008300"/>
<rect x="683.8" y="425.0" width="11.9" height="45.0" fill="none" stroke="#e34948" stroke-width="1.1"/>
<rect x="705.4" y="429.0" width="11.9" height="41.0" fill="#008300"/>
<rect x="727.0" y="438.3" width="11.9" height="31.7" fill="#008300"/>
<rect x="748.5" y="426.4" width="11.9" height="43.6" fill="none" stroke="#e34948" stroke-width="1.1"/>
<rect x="770.1" y="427.7" width="11.9" height="42.3" fill="#008300"/>
<rect x="791.7" y="430.3" width="11.9" height="39.7" fill="#008300"/>
<rect x="813.3" y="430.3" width="11.9" height="39.7" fill="none" stroke="#e34948" stroke-width="1.1"/>
<polyline points="215.0,420.7 236.6,420.5 258.2,422.8 279.7,421.9 301.3,423.2 322.9,418.8 344.5,417.5 366.1,417.4 387.6,415.8 409.2,413.7 430.8,413.0 452.4,413.9 473.9,412.3 495.5,411.9 517.1,412.7 538.7,415.9 560.3,415.5 581.8,414.7 603.4,413.8 625.0,413.8 646.6,413.4 668.2,410.9 689.7,412.3 711.3,415.0 732.9,416.8 754.5,417.5 776.1,418.9 797.6,420.8 819.2,424.2" fill="none" stroke="#2a78d6" stroke-width="1.5" stroke-linejoin="round" stroke-linecap="round"/>
<polyline points="107.1,416.0 128.7,416.0 150.3,419.5 171.8,420.5 193.4,426.6 215.0,425.3 236.6,425.0 258.2,426.1 279.7,423.2 301.3,419.7 322.9,412.3 344.5,410.0 366.1,408.6 387.6,408.4 409.2,407.6 430.8,413.7 452.4,417.9 473.9,416.0 495.5,415.5 517.1,417.9 538.7,418.2 560.3,413.1 581.8,413.4 603.4,412.1 625.0,409.7 646.6,408.6 668.2,408.6 689.7,411.3 711.3,417.9 732.9,424.0 754.5,426.4 776.1,429.3 797.6,430.3 819.2,430.6" fill="none" stroke="#eda100" stroke-width="1.5" stroke-linejoin="round" stroke-linecap="round"/>
</svg>