<svg xmlns="http://www.w3.org/2000/svg" viewBox="0 0 840 496" width="840" height="496" font-family="-apple-system,&#39;Segoe UI&#39;,system-ui,sans-serif" role="img" aria-label="public-apis/public-apis candlestick chart">
<text x="14.0" y="20.0" font-size="15" fill="#ffffff" font-weight="650">public-apis/public-apis</text>
<text x="207.8" y="20.0" font-size="11.5" fill="#c3c2b7">daily · new stars, volume = new forks</text>
<text x="805.8" y="20.0" font-size="11.0" fill="#c3c2b7">fall</text>
<rect x="791" y="10" width="9" height="12" fill="#008300"/>
<text x="750.6" y="20.0" font-size="11.0" fill="#c3c2b7">rise</text>
<rect x="736" y="10" width="9" height="12" fill="none" stroke="#e66767" stroke-width="1.5"/>
<text x="14.0" y="38.0" font-size="11.0" fill="#898781">last 27 days · +7,889 stars · +1,087 forks · updated 2026-07-13</text>
<rect x="10" y="66" width="820" height="290" fill="none" stroke="#2c2c2a"/>
<rect x="10" y="384" width="820" height="86" fill="none" stroke="#2c2c2a"/>
<text x="38.0" y="490.0" font-size="11.0" fill="#898781" text-anchor="middle">2026-06</text>
<line x1="435.2" y1="66.0" x2="435.2" y2="356.0" stroke="#2c2c2a" stroke-width="1.0"/>
<line x1="435.2" y1="384.0" x2="435.2" y2="470.0" stroke="#2c2c2a" stroke-width="1.0"/>
<text x="450.4" y="490.0" font-size="11.0" fill="#898781" text-anchor="middle">2026-07</text>
<text x="14.0" y="58.0" font-size="11.0" fill="#c3c2b7">BOLL(20,2)</text>
<text x="84.5" y="58.0" font-size="11.0" fill="#c98500">UP:463.3</text>
<text x="142.9" y="58.0" font-size="11.0" fill="#3987e5">MID:301.6</text>
<text x="207.4" y="58.0" font-size="11.0" fill="#d55181">LOW:139.8</text>
<text x="271.8" y="58.0" font-size="11.0" fill="#9085e9">MA7:317.7</text>
<line x1="10.0" y1="356.0" x2="830.0" y2="356.0" stroke="#2c2c2a" stroke-width="1.0"/>
<text x="14.0" y="353.0" font-size="11.0" fill="#898781">0</text>
<line x1="10.0" y1="236.8" x2="830.0" y2="236.8" stroke="#2c2c2a" stroke-width="1.0"/>
<text x="14.0" y="233.8" font-size="11.0" fill="#898781">200</text>
<line x1="10.0" y1="117.5" x2="830.0" y2="117.5" stroke="#2c2c2a" stroke-width="1.0"/>
<text x="14.0" y="114.5" font-size="11.0" fill="#898781">400</text>
<polyline points="602.2,99.1 632.6,97.1 663.0,98.3 693.3,88.1 723.7,88.3 754.1,88.3 784.4,83.0 814.8,79.8" fill="none" stroke="#c98500" stroke-width="1.5" stroke-linejoin="round" stroke-linecap="round"/>
<polyline points="602.2,187.1 632.6,188.3 663.0,188.8 693.3,186.0 723.7,186.1 754.1,184.3 784.4,179.8 814.8,176.2" fill="none" stroke="#3987e5" stroke-width="1.5" stroke-linejoin="round" stroke-linecap="round"/>
<polyline points="602.2,275.1 632.6,279.6 663.0,279.3 693.3,283.8 723.7,283.9 754.1,280.3 784.4,276.6 814.8,272.7" fill="none" stroke="#d55181" stroke-width="1.5" stroke-linejoin="round" stroke-linecap="round"/>
<polyline points="207.4,197.8 237.8,189.4 268.1,200.1 298.5,213.7 328.9,222.5 359.3,222.3 389.6,219.7 420.0,206.4 450.4,192.4 480.7,182.8 511.1,174.5 541.5,165.8 571.9,158.7 602.2,148.2 632.6,167.7 663.0,178.6 693.3,170.6 723.7,169.2 754.1,170.7 784.4,164.5 814.8,166.6" fill="none" stroke="#9085e9" stroke-width="1.5" stroke-linejoin="round" stroke-linecap="round"/>
<rect x="16.8" y="236.8" width="16.7" height="119.2" fill="none" stroke="#e66767" stroke-width="1.3"/>
<rect x="47.2" y="147.4" width="16.7" height="89.4" fill="none" stroke="#e66767" stroke-width="1.3"/>
<rect x="77.6" y="147.4" width="16.7" height="7.7" fill="#008300"/>
<rect x="107.9" y="155.1" width="16.7" height="24.4" fill="#008300"/>
<rect x="138.3" y="179.5" width="16.7" height="47.1" fill="#008300"/>
<rect x="168.7" y="222.5" width="16.7" height="4.2" fill="none" stroke="#e66767" stroke-width="1.3"/>
<rect x="199.1" y="216.5" width="16.7" height="6.0" fill="none" stroke="#e66767" stroke-width="1.3"/>
<rect x="229.4" y="178.4" width="16.7" height="38.2" fill="none" stroke="#e66767" stroke-width="1.3"/>
<rect x="259.8" y="178.4" width="16.7" height="43.5" fill="#008300"/>
<rect x="290.2" y="221.9" width="16.7" height="28.6" fill="#008300"/>
<rect x="320.5" y="240.9" width="16.7" height="9.5" fill="none" stroke="#e66767" stroke-width="1.3"/>
<rect x="350.9" y="225.4" width="16.7" height="15.5" fill="none" stroke="#e66767" stroke-width="1.3"/>
<rect x="381.3" y="204.0" width="16.7" height="21.5" fill="none" stroke="#e66767" stroke-width="1.3"/>
<rect x="411.6" y="124.1" width="16.7" height="79.9" fill="none" stroke="#e66767" stroke-width="1.3"/>
<rect x="442.0" y="80.0" width="16.7" height="44.1" fill="none" stroke="#e66767" stroke-width="1.3"/>
<rect x="472.4" y="80.0" width="16.7" height="74.5" fill="#008300"/>
<rect x="502.8" y="154.5" width="16.7" height="38.2" fill="#008300"/>
<rect x="533.1" y="179.5" width="16.7" height="13.1" fill="none" stroke="#e66767" stroke-width="1.3"/>
<rect x="563.5" y="176.6" width="16.7" height="3.0" fill="none" stroke="#e66767" stroke-width="1.3"/>
<rect x="593.9" y="130.1" width="16.7" height="46.5" fill="none" stroke="#e66767" stroke-width="1.3"/>
<rect x="624.2" y="130.1" width="16.7" height="130.6" fill="#008300"/>
<rect x="654.6" y="156.3" width="16.7" height="104.3" fill="none" stroke="#e66767" stroke-width="1.3"/>
<rect x="685.0" y="98.5" width="16.7" height="57.8" fill="none" stroke="#e66767" stroke-width="1.3"/>
<rect x="715.4" y="98.5" width="16.7" height="84.1" fill="#008300"/>
<rect x="745.7" y="182.5" width="16.7" height="7.7" fill="#008300"/>
<rect x="776.1" y="133.0" width="16.7" height="57.2" fill="none" stroke="#e66767" stroke-width="1.3"/>
<rect x="806.5" y="133.0" width="16.7" height="11.9" fill="#008300"/>
<circle cx="450.4" cy="80.0" r="2" fill="#c3c2b7"/>
<line x1="450.4" y1="80.0" x2="442.4" y2="80.0" stroke="#c3c2b7" stroke-width="1.0"/>
<text x="439.4" y="84.0" font-size="11.0" fill="#c3c2b7" text-anchor="end">463</text>
<circle cx="25.2" cy="356.0" r="2" fill="#c3c2b7"/>
<line x1="25.2" y1="356.0" x2="33.2" y2="356.0" stroke="#c3c2b7" stroke-width="1.0"/>
<text x="36.2" y="350.0" font-size="11.0" fill="#c3c2b7">0</text>
<text x="14.0" y="376.0" font-size="11.0" fill="#c3c2b7">VOL 44 forks</text>
<text x="96.6" y="376.0" font-size="11.0" fill="#c98500">MA5:42.8</text>
<text x="155.0" y="376.0" font-size="11.0" fill="#3987e5">MA10:41.8</text>
<text x="14.0" y="395.0" font-size="10" fill="#898781">62</text>
<rect x="16.8" y="430.3" width="16.7" height="39.7" fill="none" stroke="#e66767" stroke-width="1.1"/>
<rect x="47.2" y="403.9" width="16.7" height="66.1" fill="none" stroke="#e66767" stroke-width="1.1"/>
<rect x="77.6" y="415.8" width="16.7" height="54.2" fill="#008300"/>
<rect x="107.9" y="398.6" width="16.7" height="71.4" fill="#008300"/>
<rect x="138.3" y="431.6" width="16.7" height="38.4" fill="#008300"/>
<rect x="168.7" y="430.3" width="16.7" height="39.7" fill="none" stroke="#e66767" stroke-width="1.1"/>
<rect x="199.1" y="421.1" width="16.7" height="48.9" fill="none" stroke="#e66767" stroke-width="1.1"/>
<rect x="229.4" y="421.1" width="16.7" height="48.9" fill="none" stroke="#e66767" stroke-width="1.1"/>
<rect x="259.8" y="429.0" width="16.7" height="41.0" fill="#008300"/>
<rect x="290.2" y="425.0" width="16.7" height="45.0" fill="#008300"/>
<rect x="320.5" y="429.0" width="16.7" height="41.0" fill="none" stroke="#e66767" stroke-width="1.1"/>
<rect x="350.9" y="426.4" width="16.7" height="43.6" fill="none" stroke="#e66767" stroke-width="1.1"/>
<rect x="381.3" y="406.5" width="16.7" height="63.5" fill="none" stroke="#e66767" stroke-width="1.1"/>
<rect x="411.6" y="411.8" width="16.7" height="58.2" fill="none" stroke="#e66767" stroke-width="1.1"/>
<rect x="442.0" y="388.0" width="16.7" height="82.0" fill="none" stroke="#e66767" stroke-width="1.1"/>
<rect x="472.4" y="417.1" width="16.7" height="52.9" fill="#008300"/>
<rect x="502.8" y="419.7" width="16.7" height="50.3" fill="#008300"/>
<rect x="533.1" y="405.2" width="16.7" height="64.8" fill="none" stroke="#e66767" stroke-width="1.1"/>
<rect x="563.5" y="407.8" width="16.7" height="62.2" fill="none" stroke="#e66767" stroke-width="1.1"/>
<rect x="593.9" y="418.4" width="16.7" height="51.6" fill="none" stroke="#e66767" stroke-width="1.1"/>
<rect x="624.2" y="438.3" width="16.7" height="31.7" fill="#008300"/>
<rect x="654.6" y="410.5" width="16.7" height="59.5" fill="none" stroke="#e66767" stroke-width="1.1"/>
<rect x="685.0" y="402.5" width="16.7" height="67.5" fill="none" stroke="#e66767" stroke-width="1.1"/>
<rect x="715.4" y="419.7" width="16.7" height="50.3" fill="#008300"/>
<rect x="745.7" y="419.7" width="16.7" height="50.3" fill="#008300"/>
<rect x="776.1" y="413.1" width="16.7" height="56.9" fill="none" stroke="#e66767" stroke-width="1.1"/>
<rect x="806.5" y="411.8" width="16.7" height="58.2" fill="#008300"/>
<polyline points="298.5,420.7 328.9,420.5 359.3,422.8 389.6,421.9 420.0,423.2 450.4,418.8 480.7,417.5 511.1,417.4 541.5,415.8 571.9,413.7 602.2,413.0 632.6,413.9 663.0,412.3 693.3,411.9 723.7,412.7 754.1,415.9 784.4,415.5 814.8,414.7" fill="none" stroke="#3987e5" stroke-width="1.5" stroke-linejoin="round" stroke-linecap="round"/>
<polyline points="146.7,416.0 177.0,416.0 207.4,419.5 237.8,420.5 268.1,426.6 298.5,425.3 328.9,425.0 359.3,426.1 389.6,423.2 420.0,419.7 450.4,412.3 480.7,410.0 511.1,408.6 541.5,408.4 571.9,407.6 602.2,413.7 632.6,417.9 663.0,416.0 693.3,415.5 723.7,417.9 754.1,418.2 784.4,413.1 814.8,413.4" fill="none" stroke="#c98500" stroke-width="1.5" stroke-linejoin="round" stroke-linecap="round"/>
</svg>