<svg xmlns="http://www.w3.org/2000/svg" viewBox="0 0 840 496" width="840" height="496" font-family="-apple-system,&#39;Segoe UI&#39;,system-ui,sans-serif" role="img" aria-label="public-apis/public-apis candlestick chart">
<text x="14.0" y="20.0" font-size="15" fill="#ffffff" font-weight="650">public-apis/public-apis</text>
<text x="207.8" y="20.0" font-size="11.5" fill="#c3c2b7">daily · new stars, volume = new forks</text>
<text x="805.8" y="20.0" font-size="11.0" fill="#c3c2b7">fall</text>
<rect x="791" y="10" width="9" height="12" fill="#008300"/>
<text x="750.6" y="20.0" font-size="11.0" fill="#c3c2b7">rise</text>
<rect x="736" y="10" width="9" height="12" fill="none" stroke="#e66767" stroke-width="1.5"/>
<text x="14.0" y="38.0" font-size="11.0" fill="#898781">last 37 days · +10,472 stars · +1,459 forks · updated 2026-07-23</text>
<rect x="10" y="66" width="820" height="290" fill="none" stroke="#2c2c2a"/>
<rect x="10" y="384" width="820" height="86" fill="none" stroke="#2c2c2a"/>
<text x="38.0" y="490.0" font-size="11.0" fill="#898781" text-anchor="middle">2026-06</text>
<line x1="320.3" y1="66.0" x2="320.3" y2="356.0" stroke="#2c2c2a" stroke-width="1.0"/>
<line x1="320.3" y1="384.0" x2="320.3" y2="470.0" stroke="#2c2c2a" stroke-width="1.0"/>
<text x="331.4" y="490.0" font-size="11.0" fill="#898781" text-anchor="middle">2026-07</text>
<text x="14.0" y="58.0" font-size="11.0" fill="#c3c2b7">BOLL(20,2)</text>
<text x="84.5" y="58.0" font-size="11.0" fill="#c98500">UP:443.8</text>
<text x="142.9" y="58.0" font-size="11.0" fill="#3987e5">MID:289.1</text>
<text x="207.4" y="58.0" font-size="11.0" fill="#d55181">LOW:134.5</text>
<text x="271.8" y="58.0" font-size="11.0" fill="#9085e9">MA7:217</text>
<line x1="10.0" y1="356.0" x2="830.0" y2="356.0" stroke="#2c2c2a" stroke-width="1.0"/>
<text x="14.0" y="353.0" font-size="11.0" fill="#898781">0</text>
<line x1="10.0" y1="238.5" x2="830.0" y2="238.5" stroke="#2c2c2a" stroke-width="1.0"/>
<text x="14.0" y="235.5" font-size="11.0" fill="#898781">200</text>
<line x1="10.0" y1="120.9" x2="830.0" y2="120.9" stroke="#2c2c2a" stroke-width="1.0"/>
<text x="14.0" y="117.9" font-size="11.0" fill="#898781">400</text>
<polyline points="442.2,102.8 464.3,100.7 486.5,101.9 508.6,91.9 530.8,92.1 553.0,92.0 575.1,86.8 597.3,83.7 619.5,80.5 641.6,80.0 663.8,79.8 685.9,82.2 708.1,84.3 730.3,81.6 752.4,82.8 774.6,97.4 796.8,97.9 818.9,95.2" fill="none" stroke="#c98500" stroke-width="1.5" stroke-linejoin="round" stroke-linecap="round"/>
<polyline points="442.2,189.5 464.3,190.7 486.5,191.1 508.6,188.4 530.8,188.5 553.0,186.7 575.1,182.3 597.3,178.8 619.5,176.9 641.6,174.0 663.8,168.1 685.9,166.8 708.1,164.8 730.3,166.4 752.4,172.3 774.6,178.8 796.8,183.0 818.9,186.1" fill="none" stroke="#3987e5" stroke-width="1.5" stroke-linejoin="round" stroke-linecap="round"/>
<polyline points="442.2,276.3 464.3,280.7 486.5,280.4 508.6,284.8 530.8,284.9 553.0,281.4 575.1,277.8 597.3,273.8 619.5,273.2 641.6,267.9 663.8,256.3 685.9,251.3 708.1,245.4 730.3,251.2 752.4,261.8 774.6,260.1 796.8,268.1 818.9,276.9" fill="none" stroke="#d55181" stroke-width="1.5" stroke-linejoin="round" stroke-linecap="round"/>
<polyline points="154.1,200.0 176.2,191.8 198.4,202.3 220.5,215.7 242.7,224.4 264.9,224.2 287.0,221.6 309.2,208.5 331.4,194.7 353.5,185.2 375.7,177.1 397.8,168.5 420.0,161.5 442.2,151.1 464.3,170.3 486.5,181.1 508.6,173.2 530.8,171.8 553.0,173.3 575.1,167.2 597.3,169.3 619.5,152.2 641.6,153.2 663.8,157.8 685.9,162.3 708.1,161.6 730.3,176.1 752.4,190.1 774.6,200.2 796.8,211.0 818.9,228.5" fill="none" stroke="#9085e9" stroke-width="1.5" stroke-linejoin="round" stroke-linecap="round"/>
<rect x="15.0" y="238.5" width="12.2" height="117.5" fill="none" stroke="#e66767" stroke-width="1.3"/>
<rect x="37.1" y="150.3" width="12.2" height="88.2" fill="none" stroke="#e66767" stroke-width="1.3"/>
<rect x="59.3" y="150.3" width="12.2" height="7.6" fill="#008300"/>
<rect x="81.5" y="157.9" width="12.2" height="24.1" fill="#008300"/>
<rect x="103.6" y="182.0" width="12.2" height="46.4" fill="#008300"/>
<rect x="125.8" y="224.4" width="12.2" height="4.1" fill="none" stroke="#e66767" stroke-width="1.3"/>
<rect x="148.0" y="218.5" width="12.2" height="5.9" fill="none" stroke="#e66767" stroke-width="1.3"/>
<rect x="170.1" y="180.9" width="12.2" height="37.6" fill="none" stroke="#e66767" stroke-width="1.3"/>
<rect x="192.3" y="180.9" width="12.2" height="42.9" fill="#008300"/>
<rect x="214.4" y="223.8" width="12.2" height="28.2" fill="#008300"/>
<rect x="236.6" y="242.6" width="12.2" height="9.4" fill="none" stroke="#e66767" stroke-width="1.3"/>
<rect x="258.8" y="227.3" width="12.2" height="15.3" fill="none" stroke="#e66767" stroke-width="1.3"/>
<rect x="280.9" y="206.1" width="12.2" height="21.2" fill="none" stroke="#e66767" stroke-width="1.3"/>
<rect x="303.1" y="127.4" width="12.2" height="78.8" fill="none" stroke="#e66767" stroke-width="1.3"/>
<rect x="325.3" y="83.9" width="12.2" height="43.5" fill="none" stroke="#e66767" stroke-width="1.3"/>
<rect x="347.4" y="83.9" width="12.2" height="73.5" fill="#008300"/>
<rect x="369.6" y="157.4" width="12.2" height="37.6" fill="#008300"/>
<rect x="391.7" y="182.0" width="12.2" height="12.9" fill="none" stroke="#e66767" stroke-width="1.3"/>
<rect x="413.9" y="179.1" width="12.2" height="2.9" fill="none" stroke="#e66767" stroke-width="1.3"/>
<rect x="436.1" y="133.3" width="12.2" height="45.8" fill="none" stroke="#e66767" stroke-width="1.3"/>
<rect x="458.2" y="133.3" width="12.2" height="128.7" fill="#008300"/>
<rect x="480.4" y="159.1" width="12.2" height="102.9" fill="none" stroke="#e66767" stroke-width="1.3"/>
<rect x="502.6" y="102.1" width="12.2" height="57.0" fill="none" stroke="#e66767" stroke-width="1.3"/>
<rect x="524.7" y="102.1" width="12.2" height="82.9" fill="#008300"/>
<rect x="546.9" y="185.0" width="12.2" height="7.6" fill="#008300"/>
<rect x="569.0" y="136.2" width="12.2" height="56.4" fill="none" stroke="#e66767" stroke-width="1.3"/>
<rect x="591.2" y="136.2" width="12.2" height="11.8" fill="#008300"/>
<rect x="613.4" y="142.7" width="12.2" height="5.3" fill="none" stroke="#e66767" stroke-width="1.3"/>
<rect x="635.5" y="142.7" width="12.2" height="22.9" fill="#008300"/>
<rect x="657.7" y="134.4" width="12.2" height="31.1" fill="none" stroke="#e66767" stroke-width="1.3"/>
<rect x="679.9" y="134.4" width="12.2" height="82.3" fill="#008300"/>
<rect x="702.0" y="187.9" width="12.2" height="28.8" fill="none" stroke="#e66767" stroke-width="1.3"/>
<rect x="724.2" y="187.9" width="12.2" height="49.4" fill="#008300"/>
<rect x="746.3" y="237.3" width="12.2" height="8.8" fill="#008300"/>
<rect x="768.5" y="213.2" width="12.2" height="32.9" fill="none" stroke="#e66767" stroke-width="1.3"/>
<rect x="790.7" y="213.2" width="12.2" height="28.2" fill="#008300"/>
<rect x="812.8" y="241.4" width="12.2" height="15.3" fill="#008300"/>
<circle cx="331.4" cy="83.9" r="2" fill="#c3c2b7"/>
<line x1="331.4" y1="83.9" x2="339.4" y2="83.9" stroke="#c3c2b7" stroke-width="1.0"/>
<text x="342.4" y="87.9" font-size="11.0" fill="#c3c2b7">463</text>
<circle cx="21.1" cy="356.0" r="2" fill="#c3c2b7"/>
<line x1="21.1" y1="356.0" x2="29.1" y2="356.0" stroke="#c3c2b7" stroke-width="1.0"/>
<text x="32.1" y="350.0" font-size="11.0" fill="#c3c2b7">0</text>
<text x="14.0" y="376.0" font-size="11.0" fill="#c3c2b7">VOL 30 forks</text>
<text x="96.6" y="376.0" font-size="11.0" fill="#c98500">MA5:30</text>
<text x="142.9" y="376.0" font-size="11.0" fill="#3987e5">MA10:37.2</text>
<text x="14.0" y="395.0" font-size="10" fill="#898781">62</text>
<rect x="15.0" y="430.3" width="12.2" height="39.7" fill="none" stroke="#e66767" stroke-width="1.1"/>
<rect x="37.1" y="403.9" width="12.2" height="66.1" fill="none" stroke="#e66767" stroke-width="1.1"/>
<rect x="59.3" y="415.8" width="12.2" height="54.2" fill="#008300"/>
<rect x="81.5" y="398.6" width="12.2" height="71.4" fill="#008300"/>
<rect x="103.6" y="431.6" width="12.2" height="38.4" fill="#008300"/>
<rect x="125.8" y="430.3" width="12.2" height="39.7" fill="none" stroke="#e66767" stroke-width="1.1"/>
<rect x="148.0" y="421.1" width="12.2" height="48.9" fill="none" stroke="#e66767" stroke-width="1.1"/>
<rect x="170.1" y="421.1" width="12.2" height="48.9" fill="none" stroke="#e66767" stroke-width="1.1"/>
<rect x="192.3" y="429.0" width="12.2" height="41.0" fill="#008300"/>
<rect x="214.4" y="425.0" width="12.2" height="45.0" fill="#008300"/>
<rect x="236.6" y="429.0" width="12.2" height="41.0" fill="none" stroke="#e66767" stroke-width="1.1"/>
<rect x="258.8" y="426.4" width="12.2" height="43.6" fill="none" stroke="#e66767" stroke-width="1.1"/>
<rect x="280.9" y="406.5" width="12.2" height="63.5" fill="none" stroke="#e66767" stroke-width="1.1"/>
<rect x="303.1" y="411.8" width="12.2" height="58.2" fill="none" stroke="#e66767" stroke-width="1.1"/>
<rect x="325.3" y="388.0" width="12.2" height="82.0" fill="none" stroke="#e66767" stroke-width="1.1"/>
<rect x="347.4" y="417.1" width="12.2" height="52.9" fill="#008300"/>
<rect x="369.6" y="419.7" width="12.2" height="50.3" fill="#008300"/>
<rect x="391.7" y="405.2" width="12.2" height="64.8" fill="none" stroke="#e66767" stroke-width="1.1"/>
<rect x="413.9" y="407.8" width="12.2" height="62.2" fill="none" stroke="#e66767" stroke-width="1.1"/>
<rect x="436.1" y="418.4" width="12.2" height="51.6" fill="none" stroke="#e66767" stroke-width="1.1"/>
<rect x="458.2" y="438.3" width="12.2" height="31.7" fill="#008300"/>
<rect x="480.4" y="410.5" width="12.2" height="59.5" fill="none" stroke="#e66767" stroke-width="1.1"/>
<rect x="502.6" y="402.5" width="12.2" height="67.5" fill="none" stroke="#e66767" stroke-width="1.1"/>
<rect x="524.7" y="419.7" width="12.2" height="50.3" fill="#008300"/>
<rect x="546.9" y="419.7" width="12.2" height="50.3" fill="#008300"/>
<rect x="569.0" y="413.1" width="12.2" height="56.9" fill="none" stroke="#e66767" stroke-width="1.1"/>
<rect x="591.2" y="411.8" width="12.2" height="58.2" fill="#008300"/>
<rect x="613.4" y="395.9" width="12.2" height="74.1" fill="none" stroke="#e66767" stroke-width="1.1"/>
<rect x="635.5" y="407.8" width="12.2" height="62.2" fill="#008300"/>
<rect x="657.7" y="414.5" width="12.2" height="55.5" fill="none" stroke="#e66767" stroke-width="1.1"/>
<rect x="679.9" y="413.1" width="12.2" height="56.9" fill="#008300"/>
<rect x="702.0" y="425.0" width="12.2" height="45.0" fill="none" stroke="#e66767" stroke-width="1.1"/>
<rect x="724.2" y="429.0" width="12.2" height="41.0" fill="#008300"/>
<rect x="746.3" y="438.3" width="12.2" height="31.7" fill="#008300"/>
<rect x="768.5" y="426.4" width="12.2" height="43.6" fill="none" stroke="#e66767" stroke-width="1.1"/>
<rect x="790.7" y="427.7" width="12.2" height="42.3" fill="#008300"/>
<rect x="812.8" y="430.3" width="12.2" height="39.7" fill="#008300"/>
<polyline points="220.5,420.7 242.7,420.5 264.9,422.8 287.0,421.9 309.2,423.2 331.4,418.8 353.5,417.5 375.7,417.4 397.8,415.8 420.0,413.7 442.2,413.0 464.3,413.9 486.5,412.3 508.6,411.9 530.8,412.7 553.0,415.9 575.1,415.5 597.3,414.7 619.5,413.8 641.6,413.8 663.8,413.4 685.9,410.9 708.1,412.3 730.3,415.0 752.4,416.8 774.6,417.5 796.8,418.9 818.9,420.8" fill="none" stroke="#3987e5" stroke-width="1.5" stroke-linejoin="round" stroke-linecap="round"/>
<polyline points="109.7,416.0 131.9,416.0 154.1,419.5 176.2,420.5 198.4,426.6 220.5,425.3 242.7,425.0 264.9,426.1 287.0,423.2 309.2,419.7 331.4,412.3 353.5,410.0 375.7,408.6 397.8,408.4 420.0,407.6 442.2,413.7 464.3,417.9 486.5,416.0 508.6,415.5 530.8,417.9 553.0,418.2 575.1,413.1 597.3,413.4 619.5,412.1 641.6,409.7 663.8,408.6 685.9,408.6 708.1,411.3 730.3,417.9 752.4,424.0 774.6,426.4 796.8,429.3 818.9,430.3" fill="none" stroke="#c98500" stroke-width="1.5" stroke-linejoin="round" stroke-linecap="round"/>
</svg>