<svg xmlns="http://www.w3.org/2000/svg" viewBox="0 0 840 496" width="840" height="496" font-family="-apple-system,&#39;Segoe UI&#39;,system-ui,sans-serif" role="img" aria-label="public-apis/public-apis candlestick chart">
<text x="14.0" y="20.0" font-size="15" fill="#ffffff" font-weight="650">public-apis/public-apis</text>
<text x="207.8" y="20.0" font-size="11.5" fill="#c3c2b7">daily · new stars, volume = new forks</text>
<text x="805.8" y="20.0" font-size="11.0" fill="#c3c2b7">fall</text>
<rect x="791" y="10" width="9" height="12" fill="#008300"/>
<text x="750.6" y="20.0" font-size="11.0" fill="#c3c2b7">rise</text>
<rect x="736" y="10" width="9" height="12" fill="none" stroke="#e66767" stroke-width="1.5"/>
<text x="14.0" y="38.0" font-size="11.0" fill="#898781">last 29 days · +8,576 stars · +1,190 forks · updated 2026-07-15</text>
<rect x="10" y="66" width="820" height="290" fill="none" stroke="#2c2c2a"/>
<rect x="10" y="384" width="820" height="86" fill="none" stroke="#2c2c2a"/>
<text x="38.0" y="490.0" font-size="11.0" fill="#898781" text-anchor="middle">2026-06</text>
<line x1="405.9" y1="66.0" x2="405.9" y2="356.0" stroke="#2c2c2a" stroke-width="1.0"/>
<line x1="405.9" y1="384.0" x2="405.9" y2="470.0" stroke="#2c2c2a" stroke-width="1.0"/>
<text x="420.0" y="490.0" font-size="11.0" fill="#898781" text-anchor="middle">2026-07</text>
<text x="14.0" y="58.0" font-size="11.0" fill="#c3c2b7">BOLL(20,2)</text>
<text x="84.5" y="58.0" font-size="11.0" fill="#c98500">UP:469.7</text>
<text x="142.9" y="58.0" font-size="11.0" fill="#3987e5">MID:309.8</text>
<text x="207.4" y="58.0" font-size="11.0" fill="#d55181">LOW:149.8</text>
<text x="271.8" y="58.0" font-size="11.0" fill="#9085e9">MA7:345.1</text>
<line x1="10.0" y1="356.0" x2="830.0" y2="356.0" stroke="#2c2c2a" stroke-width="1.0"/>
<text x="14.0" y="353.0" font-size="11.0" fill="#898781">0</text>
<line x1="10.0" y1="238.4" x2="830.0" y2="238.4" stroke="#2c2c2a" stroke-width="1.0"/>
<text x="14.0" y="235.4" font-size="11.0" fill="#898781">200</text>
<line x1="10.0" y1="120.8" x2="830.0" y2="120.8" stroke="#2c2c2a" stroke-width="1.0"/>
<text x="14.0" y="117.8" font-size="11.0" fill="#898781">400</text>
<polyline points="561.4,102.6 589.7,100.6 617.9,101.8 646.2,91.8 674.5,92.0 702.8,91.9 731.0,86.7 759.3,83.6 787.6,80.4 815.9,79.8" fill="none" stroke="#c98500" stroke-width="1.5" stroke-linejoin="round" stroke-linecap="round"/>
<polyline points="561.4,189.4 589.7,190.6 617.9,191.1 646.2,188.3 674.5,188.4 702.8,186.6 731.0,182.2 759.3,178.7 787.6,176.8 815.9,173.9" fill="none" stroke="#3987e5" stroke-width="1.5" stroke-linejoin="round" stroke-linecap="round"/>
<polyline points="561.4,276.2 589.7,280.6 617.9,280.3 646.2,284.7 674.5,284.9 702.8,281.3 731.0,277.7 759.3,273.8 787.6,273.2 815.9,267.9" fill="none" stroke="#d55181" stroke-width="1.5" stroke-linejoin="round" stroke-linecap="round"/>
<polyline points="193.8,199.9 222.1,191.7 250.3,202.2 278.6,215.6 306.9,224.3 335.2,224.1 363.4,221.5 391.7,208.5 420.0,194.6 448.3,185.1 476.6,177.0 504.8,168.4 533.1,161.4 561.4,151.0 589.7,170.2 617.9,181.0 646.2,173.1 674.5,171.7 702.8,173.2 731.0,167.1 759.3,169.2 787.6,152.1 815.9,153.1" fill="none" stroke="#9085e9" stroke-width="1.5" stroke-linejoin="round" stroke-linecap="round"/>
<rect x="16.4" y="238.4" width="15.6" height="117.6" fill="none" stroke="#e66767" stroke-width="1.3"/>
<rect x="44.6" y="150.2" width="15.6" height="88.2" fill="none" stroke="#e66767" stroke-width="1.3"/>
<rect x="72.9" y="150.2" width="15.6" height="7.6" fill="#008300"/>
<rect x="101.2" y="157.8" width="15.6" height="24.1" fill="#008300"/>
<rect x="129.5" y="181.9" width="15.6" height="46.5" fill="#008300"/>
<rect x="157.7" y="224.3" width="15.6" height="4.1" fill="none" stroke="#e66767" stroke-width="1.3"/>
<rect x="186.0" y="218.4" width="15.6" height="5.9" fill="none" stroke="#e66767" stroke-width="1.3"/>
<rect x="214.3" y="180.8" width="15.6" height="37.6" fill="none" stroke="#e66767" stroke-width="1.3"/>
<rect x="242.6" y="180.8" width="15.6" height="42.9" fill="#008300"/>
<rect x="270.8" y="223.7" width="15.6" height="28.2" fill="#008300"/>
<rect x="299.1" y="242.5" width="15.6" height="9.4" fill="none" stroke="#e66767" stroke-width="1.3"/>
<rect x="327.4" y="227.2" width="15.6" height="15.3" fill="none" stroke="#e66767" stroke-width="1.3"/>
<rect x="355.7" y="206.0" width="15.6" height="21.2" fill="none" stroke="#e66767" stroke-width="1.3"/>
<rect x="383.9" y="127.3" width="15.6" height="78.8" fill="none" stroke="#e66767" stroke-width="1.3"/>
<rect x="412.2" y="83.7" width="15.6" height="43.5" fill="none" stroke="#e66767" stroke-width="1.3"/>
<rect x="440.5" y="83.7" width="15.6" height="73.5" fill="#008300"/>
<rect x="468.8" y="157.2" width="15.6" height="37.6" fill="#008300"/>
<rect x="497.1" y="181.9" width="15.6" height="12.9" fill="none" stroke="#e66767" stroke-width="1.3"/>
<rect x="525.3" y="179.0" width="15.6" height="2.9" fill="none" stroke="#e66767" stroke-width="1.3"/>
<rect x="553.6" y="133.1" width="15.6" height="45.9" fill="none" stroke="#e66767" stroke-width="1.3"/>
<rect x="581.9" y="133.1" width="15.6" height="128.8" fill="#008300"/>
<rect x="610.2" y="159.0" width="15.6" height="102.9" fill="none" stroke="#e66767" stroke-width="1.3"/>
<rect x="638.4" y="102.0" width="15.6" height="57.0" fill="none" stroke="#e66767" stroke-width="1.3"/>
<rect x="666.7" y="102.0" width="15.6" height="82.9" fill="#008300"/>
<rect x="695.0" y="184.9" width="15.6" height="7.6" fill="#008300"/>
<rect x="723.3" y="136.1" width="15.6" height="56.5" fill="none" stroke="#e66767" stroke-width="1.3"/>
<rect x="751.5" y="136.1" width="15.6" height="11.8" fill="#008300"/>
<rect x="779.8" y="142.5" width="15.6" height="5.3" fill="none" stroke="#e66767" stroke-width="1.3"/>
<rect x="808.1" y="142.5" width="15.6" height="22.9" fill="#008300"/>
<circle cx="420.0" cy="83.7" r="2" fill="#c3c2b7"/>
<line x1="420.0" y1="83.7" x2="428.0" y2="83.7" stroke="#c3c2b7" stroke-width="1.0"/>
<text x="431.0" y="87.7" font-size="11.0" fill="#c3c2b7">463</text>
<circle cx="24.1" cy="356.0" r="2" fill="#c3c2b7"/>
<line x1="24.1" y1="356.0" x2="32.1" y2="356.0" stroke="#c3c2b7" stroke-width="1.0"/>
<text x="35.1" y="350.0" font-size="11.0" fill="#c3c2b7">0</text>
<text x="14.0" y="376.0" font-size="11.0" fill="#c3c2b7">VOL 47 forks</text>
<text x="96.6" y="376.0" font-size="11.0" fill="#c98500">MA5:45.6</text>
<text x="155.0" y="376.0" font-size="11.0" fill="#3987e5">MA10:42.5</text>
<text x="14.0" y="395.0" font-size="10" fill="#898781">62</text>
<rect x="16.4" y="430.3" width="15.6" height="39.7" fill="none" stroke="#e66767" stroke-width="1.1"/>
<rect x="44.6" y="403.9" width="15.6" height="66.1" fill="none" stroke="#e66767" stroke-width="1.1"/>
<rect x="72.9" y="415.8" width="15.6" height="54.2" fill="#008300"/>
<rect x="101.2" y="398.6" width="15.6" height="71.4" fill="#008300"/>
<rect x="129.5" y="431.6" width="15.6" height="38.4" fill="#008300"/>
<rect x="157.7" y="430.3" width="15.6" height="39.7" fill="none" stroke="#e66767" stroke-width="1.1"/>
<rect x="186.0" y="421.1" width="15.6" height="48.9" fill="none" stroke="#e66767" stroke-width="1.1"/>
<rect x="214.3" y="421.1" width="15.6" height="48.9" fill="none" stroke="#e66767" stroke-width="1.1"/>
<rect x="242.6" y="429.0" width="15.6" height="41.0" fill="#008300"/>
<rect x="270.8" y="425.0" width="15.6" height="45.0" fill="#008300"/>
<rect x="299.1" y="429.0" width="15.6" height="41.0" fill="none" stroke="#e66767" stroke-width="1.1"/>
<rect x="327.4" y="426.4" width="15.6" height="43.6" fill="none" stroke="#e66767" stroke-width="1.1"/>
<rect x="355.7" y="406.5" width="15.6" height="63.5" fill="none" stroke="#e66767" stroke-width="1.1"/>
<rect x="383.9" y="411.8" width="15.6" height="58.2" fill="none" stroke="#e66767" stroke-width="1.1"/>
<rect x="412.2" y="388.0" width="15.6" height="82.0" fill="none" stroke="#e66767" stroke-width="1.1"/>
<rect x="440.5" y="417.1" width="15.6" height="52.9" fill="#008300"/>
<rect x="468.8" y="419.7" width="15.6" height="50.3" fill="#008300"/>
<rect x="497.1" y="405.2" width="15.6" height="64.8" fill="none" stroke="#e66767" stroke-width="1.1"/>
<rect x="525.3" y="407.8" width="15.6" height="62.2" fill="none" stroke="#e66767" stroke-width="1.1"/>
<rect x="553.6" y="418.4" width="15.6" height="51.6" fill="none" stroke="#e66767" stroke-width="1.1"/>
<rect x="581.9" y="438.3" width="15.6" height="31.7" fill="#008300"/>
<rect x="610.2" y="410.5" width="15.6" height="59.5" fill="none" stroke="#e66767" stroke-width="1.1"/>
<rect x="638.4" y="402.5" width="15.6" height="67.5" fill="none" stroke="#e66767" stroke-width="1.1"/>
<rect x="666.7" y="419.7" width="15.6" height="50.3" fill="#008300"/>
<rect x="695.0" y="419.7" width="15.6" height="50.3" fill="#008300"/>
<rect x="723.3" y="413.1" width="15.6" height="56.9" fill="none" stroke="#e66767" stroke-width="1.1"/>
<rect x="751.5" y="411.8" width="15.6" height="58.2" fill="#008300"/>
<rect x="779.8" y="395.9" width="15.6" height="74.1" fill="none" stroke="#e66767" stroke-width="1.1"/>
<rect x="808.1" y="407.8" width="15.6" height="62.2" fill="#008300"/>
<polyline points="278.6,420.7 306.9,420.5 335.2,422.8 363.4,421.9 391.7,423.2 420.0,418.8 448.3,417.5 476.6,417.4 504.8,415.8 533.1,413.7 561.4,413.0 589.7,413.9 617.9,412.3 646.2,411.9 674.5,412.7 702.8,415.9 731.0,415.5 759.3,414.7 787.6,413.8 815.9,413.8" fill="none" stroke="#3987e5" stroke-width="1.5" stroke-linejoin="round" stroke-linecap="round"/>
<polyline points="137.2,416.0 165.5,416.0 193.8,419.5 222.1,420.5 250.3,426.6 278.6,425.3 306.9,425.0 335.2,426.1 363.4,423.2 391.7,419.7 420.0,412.3 448.3,410.0 476.6,408.6 504.8,408.4 533.1,407.6 561.4,413.7 589.7,417.9 617.9,416.0 646.2,415.5 674.5,417.9 702.8,418.2 731.0,413.1 759.3,413.4 787.6,412.1 815.9,409.7" fill="none" stroke="#c98500" stroke-width="1.5" stroke-linejoin="round" stroke-linecap="round"/>
</svg>