<svg xmlns="http://www.w3.org/2000/svg" viewBox="0 0 840 496" width="840" height="496" font-family="-apple-system,&#39;Segoe UI&#39;,system-ui,sans-serif" role="img" aria-label="public-apis/public-apis candlestick chart">
<text x="14.0" y="20.0" font-size="15" fill="#0b0b0b" font-weight="650">public-apis/public-apis</text>
<text x="207.8" y="20.0" font-size="11.5" fill="#52514e">daily · new stars, volume = new forks</text>
<text x="805.8" y="20.0" font-size="11.0" fill="#52514e">fall</text>
<rect x="791" y="10" width="9" height="12" fill="#008300"/>
<text x="750.6" y="20.0" font-size="11.0" fill="#52514e">rise</text>
<rect x="736" y="10" width="9" height="12" fill="none" stroke="#e34948" stroke-width="1.5"/>
<text x="14.0" y="38.0" font-size="11.0" fill="#898781">last 33 days · +9,678 stars · +1,340 forks · updated 2026-07-19</text>
<rect x="10" y="66" width="820" height="290" fill="none" stroke="#e1e0d9"/>
<rect x="10" y="384" width="820" height="86" fill="none" stroke="#e1e0d9"/>
<text x="38.0" y="490.0" font-size="11.0" fill="#898781" text-anchor="middle">2026-06</text>
<line x1="357.9" y1="66.0" x2="357.9" y2="356.0" stroke="#e1e0d9" stroke-width="1.0"/>
<line x1="357.9" y1="384.0" x2="357.9" y2="470.0" stroke="#e1e0d9" stroke-width="1.0"/>
<text x="370.3" y="490.0" font-size="11.0" fill="#898781" text-anchor="middle">2026-07</text>
<text x="14.0" y="58.0" font-size="11.0" fill="#52514e">BOLL(20,2)</text>
<text x="84.5" y="58.0" font-size="11.0" fill="#eda100">UP:466.9</text>
<text x="142.9" y="58.0" font-size="11.0" fill="#2a78d6">MID:322.6</text>
<text x="207.4" y="58.0" font-size="11.0" fill="#e87ba4">LOW:178.4</text>
<text x="271.8" y="58.0" font-size="11.0" fill="#4a3aa7">MA7:306.1</text>
<line x1="10.0" y1="356.0" x2="830.0" y2="356.0" stroke="#e1e0d9" stroke-width="1.0"/>
<text x="14.0" y="353.0" font-size="11.0" fill="#898781">0</text>
<line x1="10.0" y1="238.5" x2="830.0" y2="238.5" stroke="#e1e0d9" stroke-width="1.0"/>
<text x="14.0" y="235.5" font-size="11.0" fill="#898781">200</text>
<line x1="10.0" y1="120.9" x2="830.0" y2="120.9" stroke="#e1e0d9" stroke-width="1.0"/>
<text x="14.0" y="117.9" font-size="11.0" fill="#898781">400</text>
<polyline points="494.5,102.8 519.4,100.7 544.2,101.9 569.1,91.9 593.9,92.1 618.8,92.0 643.6,86.8 668.5,83.7 693.3,80.5 718.2,80.0 743.0,79.8 767.9,82.2 792.7,84.3 817.6,81.6" fill="none" stroke="#eda100" stroke-width="1.5" stroke-linejoin="round" stroke-linecap="round"/>
<polyline points="494.5,189.5 519.4,190.7 544.2,191.1 569.1,188.4 593.9,188.5 618.8,186.7 643.6,182.3 668.5,178.8 693.3,176.9 718.2,174.0 743.0,168.1 767.9,166.8 792.7,164.8 817.6,166.4" fill="none" stroke="#2a78d6" stroke-width="1.5" stroke-linejoin="round" stroke-linecap="round"/>
<polyline points="494.5,276.3 519.4,280.7 544.2,280.4 569.1,284.8 593.9,284.9 618.8,281.4 643.6,277.8 668.5,273.8 693.3,273.2 718.2,267.9 743.0,256.3 767.9,251.3 792.7,245.4 817.6,251.2" fill="none" stroke="#e87ba4" stroke-width="1.5" stroke-linejoin="round" stroke-linecap="round"/>
<polyline points="171.5,200.0 196.4,191.8 221.2,202.3 246.1,215.7 270.9,224.4 295.8,224.2 320.6,221.6 345.5,208.5 370.3,194.7 395.2,185.2 420.0,177.1 444.8,168.5 469.7,161.5 494.5,151.1 519.4,170.3 544.2,181.1 569.1,173.2 593.9,171.8 618.8,173.3 643.6,167.2 668.5,169.3 693.3,152.2 718.2,153.2 743.0,157.8 767.9,162.3 792.7,161.6 817.6,176.1" fill="none" stroke="#4a3aa7" stroke-width="1.5" stroke-linejoin="round" stroke-linecap="round"/>
<rect x="15.6" y="238.5" width="13.7" height="117.5" fill="none" stroke="#e34948" stroke-width="1.3"/>
<rect x="40.4" y="150.3" width="13.7" height="88.2" fill="none" stroke="#e34948" stroke-width="1.3"/>
<rect x="65.3" y="150.3" width="13.7" height="7.6" fill="#008300"/>
<rect x="90.1" y="157.9" width="13.7" height="24.1" fill="#008300"/>
<rect x="115.0" y="182.0" width="13.7" height="46.4" fill="#008300"/>
<rect x="139.8" y="224.4" width="13.7" height="4.1" fill="none" stroke="#e34948" stroke-width="1.3"/>
<rect x="164.7" y="218.5" width="13.7" height="5.9" fill="none" stroke="#e34948" stroke-width="1.3"/>
<rect x="189.5" y="180.9" width="13.7" height="37.6" fill="none" stroke="#e34948" stroke-width="1.3"/>
<rect x="214.4" y="180.9" width="13.7" height="42.9" fill="#008300"/>
<rect x="239.2" y="223.8" width="13.7" height="28.2" fill="#008300"/>
<rect x="264.1" y="242.6" width="13.7" height="9.4" fill="none" stroke="#e34948" stroke-width="1.3"/>
<rect x="288.9" y="227.3" width="13.7" height="15.3" fill="none" stroke="#e34948" stroke-width="1.3"/>
<rect x="313.8" y="206.1" width="13.7" height="21.2" fill="none" stroke="#e34948" stroke-width="1.3"/>
<rect x="338.6" y="127.4" width="13.7" height="78.8" fill="none" stroke="#e34948" stroke-width="1.3"/>
<rect x="363.5" y="83.9" width="13.7" height="43.5" fill="none" stroke="#e34948" stroke-width="1.3"/>
<rect x="388.3" y="83.9" width="13.7" height="73.5" fill="#008300"/>
<rect x="413.2" y="157.4" width="13.7" height="37.6" fill="#008300"/>
<rect x="438.0" y="182.0" width="13.7" height="12.9" fill="none" stroke="#e34948" stroke-width="1.3"/>
<rect x="462.9" y="179.1" width="13.7" height="2.9" fill="none" stroke="#e34948" stroke-width="1.3"/>
<rect x="487.7" y="133.3" width="13.7" height="45.8" fill="none" stroke="#e34948" stroke-width="1.3"/>
<rect x="512.6" y="133.3" width="13.7" height="128.7" fill="#008300"/>
<rect x="537.4" y="159.1" width="13.7" height="102.9" fill="none" stroke="#e34948" stroke-width="1.3"/>
<rect x="562.3" y="102.1" width="13.7" height="57.0" fill="none" stroke="#e34948" stroke-width="1.3"/>
<rect x="587.1" y="102.1" width="13.7" height="82.9" fill="#008300"/>
<rect x="612.0" y="185.0" width="13.7" height="7.6" fill="#008300"/>
<rect x="636.8" y="136.2" width="13.7" height="56.4" fill="none" stroke="#e34948" stroke-width="1.3"/>
<rect x="661.7" y="136.2" width="13.7" height="11.8" fill="#008300"/>
<rect x="686.5" y="142.7" width="13.7" height="5.3" fill="none" stroke="#e34948" stroke-width="1.3"/>
<rect x="711.3" y="142.7" width="13.7" height="22.9" fill="#008300"/>
<rect x="736.2" y="134.4" width="13.7" height="31.1" fill="none" stroke="#e34948" stroke-width="1.3"/>
<rect x="761.0" y="134.4" width="13.7" height="82.3" fill="#008300"/>
<rect x="785.9" y="187.9" width="13.7" height="28.8" fill="none" stroke="#e34948" stroke-width="1.3"/>
<rect x="810.7" y="187.9" width="13.7" height="49.4" fill="#008300"/>
<circle cx="370.3" cy="83.9" r="2" fill="#52514e"/>
<line x1="370.3" y1="83.9" x2="378.3" y2="83.9" stroke="#52514e" stroke-width="1.0"/>
<text x="381.3" y="87.9" font-size="11.0" fill="#52514e">463</text>
<circle cx="22.4" cy="356.0" r="2" fill="#52514e"/>
<line x1="22.4" y1="356.0" x2="30.4" y2="356.0" stroke="#52514e" stroke-width="1.0"/>
<text x="33.4" y="350.0" font-size="11.0" fill="#52514e">0</text>
<text x="14.0" y="376.0" font-size="11.0" fill="#52514e">VOL 31 forks</text>
<text x="96.6" y="376.0" font-size="11.0" fill="#eda100">MA5:39.4</text>
<text x="155.0" y="376.0" font-size="11.0" fill="#2a78d6">MA10:41.6</text>
<text x="14.0" y="395.0" font-size="10" fill="#898781">62</text>
<rect x="15.6" y="430.3" width="13.7" height="39.7" fill="none" stroke="#e34948" stroke-width="1.1"/>
<rect x="40.4" y="403.9" width="13.7" height="66.1" fill="none" stroke="#e34948" stroke-width="1.1"/>
<rect x="65.3" y="415.8" width="13.7" height="54.2" fill="#008300"/>
<rect x="90.1" y="398.6" width="13.7" height="71.4" fill="#008300"/>
<rect x="115.0" y="431.6" width="13.7" height="38.4" fill="#008300"/>
<rect x="139.8" y="430.3" width="13.7" height="39.7" fill="none" stroke="#e34948" stroke-width="1.1"/>
<rect x="164.7" y="421.1" width="13.7" height="48.9" fill="none" stroke="#e34948" stroke-width="1.1"/>
<rect x="189.5" y="421.1" width="13.7" height="48.9" fill="none" stroke="#e34948" stroke-width="1.1"/>
<rect x="214.4" y="429.0" width="13.7" height="41.0" fill="#008300"/>
<rect x="239.2" y="425.0" width="13.7" height="45.0" fill="#008300"/>
<rect x="264.1" y="429.0" width="13.7" height="41.0" fill="none" stroke="#e34948" stroke-width="1.1"/>
<rect x="288.9" y="426.4" width="13.7" height="43.6" fill="none" stroke="#e34948" stroke-width="1.1"/>
<rect x="313.8" y="406.5" width="13.7" height="63.5" fill="none" stroke="#e34948" stroke-width="1.1"/>
<rect x="338.6" y="411.8" width="13.7" height="58.2" fill="none" stroke="#e34948" stroke-width="1.1"/>
<rect x="363.5" y="388.0" width="13.7" height="82.0" fill="none" stroke="#e34948" stroke-width="1.1"/>
<rect x="388.3" y="417.1" width="13.7" height="52.9" fill="#008300"/>
<rect x="413.2" y="419.7" width="13.7" height="50.3" fill="#008300"/>
<rect x="438.0" y="405.2" width="13.7" height="64.8" fill="none" stroke="#e34948" stroke-width="1.1"/>
<rect x="462.9" y="407.8" width="13.7" height="62.2" fill="none" stroke="#e34948" stroke-width="1.1"/>
<rect x="487.7" y="418.4" width="13.7" height="51.6" fill="none" stroke="#e34948" stroke-width="1.1"/>
<rect x="512.6" y="438.3" width="13.7" height="31.7" fill="#008300"/>
<rect x="537.4" y="410.5" width="13.7" height="59.5" fill="none" stroke="#e34948" stroke-width="1.1"/>
<rect x="562.3" y="402.5" width="13.7" height="67.5" fill="none" stroke="#e34948" stroke-width="1.1"/>
<rect x="587.1" y="419.7" width="13.7" height="50.3" fill="#008300"/>
<rect x="612.0" y="419.7" width="13.7" height="50.3" fill="#008300"/>
<rect x="636.8" y="413.1" width="13.7" height="56.9" fill="none" stroke="#e34948" stroke-width="1.1"/>
<rect x="661.7" y="411.8" width="13.7" height="58.2" fill="#008300"/>
<rect x="686.5" y="395.9" width="13.7" height="74.1" fill="none" stroke="#e34948" stroke-width="1.1"/>
<rect x="711.3" y="407.8" width="13.7" height="62.2" fill="#008300"/>
<rect x="736.2" y="414.5" width="13.7" height="55.5" fill="none" stroke="#e34948" stroke-width="1.1"/>
<rect x="761.0" y="413.1" width="13.7" height="56.9" fill="#008300"/>
<rect x="785.9" y="425.0" width="13.7" height="45.0" fill="none" stroke="#e34948" stroke-width="1.1"/>
<rect x="810.7" y="429.0" width="13.7" height="41.0" fill="#008300"/>
<polyline points="246.1,420.7 270.9,420.5 295.8,422.8 320.6,421.9 345.5,423.2 370.3,418.8 395.2,417.5 420.0,417.4 444.8,415.8 469.7,413.7 494.5,413.0 519.4,413.9 544.2,412.3 569.1,411.9 593.9,412.7 618.8,415.9 643.6,415.5 668.5,414.7 693.3,413.8 718.2,413.8 743.0,413.4 767.9,410.9 792.7,412.3 817.6,415.0" fill="none" stroke="#2a78d6" stroke-width="1.5" stroke-linejoin="round" stroke-linecap="round"/>
<polyline points="121.8,416.0 146.7,416.0 171.5,419.5 196.4,420.5 221.2,426.6 246.1,425.3 270.9,425.0 295.8,426.1 320.6,423.2 345.5,419.7 370.3,412.3 395.2,410.0 420.0,408.6 444.8,408.4 469.7,407.6 494.5,413.7 519.4,417.9 544.2,416.0 569.1,415.5 593.9,417.9 618.8,418.2 643.6,413.1 668.5,413.4 693.3,412.1 718.2,409.7 743.0,408.6 767.9,408.6 792.7,411.3 817.6,417.9" fill="none" stroke="#eda100" stroke-width="1.5" stroke-linejoin="round" stroke-linecap="round"/>
</svg>