<svg xmlns="http://www.w3.org/2000/svg" viewBox="0 0 840 496" width="840" height="496" font-family="-apple-system,&#39;Segoe UI&#39;,system-ui,sans-serif" role="img" aria-label="public-apis/public-apis candlestick chart">
<text x="14.0" y="20.0" font-size="15" fill="#0b0b0b" font-weight="650">public-apis/public-apis</text>
<text x="207.8" y="20.0" font-size="11.5" fill="#52514e">daily · new stars, volume = new forks</text>
<text x="805.8" y="20.0" font-size="11.0" fill="#52514e">fall</text>
<rect x="791" y="10" width="9" height="12" fill="#008300"/>
<text x="750.6" y="20.0" font-size="11.0" fill="#52514e">rise</text>
<rect x="736" y="10" width="9" height="12" fill="none" stroke="#e34948" stroke-width="1.5"/>
<text x="14.0" y="38.0" font-size="11.0" fill="#898781">last 36 days · +10,303 stars · +1,429 forks · updated 2026-07-22</text>
<rect x="10" y="66" width="820" height="290" fill="none" stroke="#e1e0d9"/>
<rect x="10" y="384" width="820" height="86" fill="none" stroke="#e1e0d9"/>
<text x="38.0" y="490.0" font-size="11.0" fill="#898781" text-anchor="middle">2026-06</text>
<line x1="328.9" y1="66.0" x2="328.9" y2="356.0" stroke="#e1e0d9" stroke-width="1.0"/>
<line x1="328.9" y1="384.0" x2="328.9" y2="470.0" stroke="#e1e0d9" stroke-width="1.0"/>
<text x="340.3" y="490.0" font-size="11.0" fill="#898781" text-anchor="middle">2026-07</text>
<text x="14.0" y="58.0" font-size="11.0" fill="#52514e">BOLL(20,2)</text>
<text x="84.5" y="58.0" font-size="11.0" fill="#eda100">UP:439.2</text>
<text x="142.9" y="58.0" font-size="11.0" fill="#2a78d6">MID:294.4</text>
<text x="207.4" y="58.0" font-size="11.0" fill="#e87ba4">LOW:149.6</text>
<text x="271.8" y="58.0" font-size="11.0" fill="#4a3aa7">MA7:246.7</text>
<line x1="10.0" y1="356.0" x2="830.0" y2="356.0" stroke="#e1e0d9" stroke-width="1.0"/>
<text x="14.0" y="353.0" font-size="11.0" fill="#898781">0</text>
<line x1="10.0" y1="238.5" x2="830.0" y2="238.5" stroke="#e1e0d9" stroke-width="1.0"/>
<text x="14.0" y="235.5" font-size="11.0" fill="#898781">200</text>
<line x1="10.0" y1="120.9" x2="830.0" y2="120.9" stroke="#e1e0d9" stroke-width="1.0"/>
<text x="14.0" y="117.9" font-size="11.0" fill="#898781">400</text>
<polyline points="454.2,102.8 476.9,100.7 499.7,101.9 522.5,91.9 545.3,92.1 568.1,92.0 590.8,86.8 613.6,83.7 636.4,80.5 659.2,80.0 681.9,79.8 704.7,82.2 727.5,84.3 750.3,81.6 773.1,82.8 795.8,97.4 818.6,97.9" fill="none" stroke="#eda100" stroke-width="1.5" stroke-linejoin="round" stroke-linecap="round"/>
<polyline points="454.2,189.5 476.9,190.7 499.7,191.1 522.5,188.4 545.3,188.5 568.1,186.7 590.8,182.3 613.6,178.8 636.4,176.9 659.2,174.0 681.9,168.1 704.7,166.8 727.5,164.8 750.3,166.4 773.1,172.3 795.8,178.8 818.6,183.0" fill="none" stroke="#2a78d6" stroke-width="1.5" stroke-linejoin="round" stroke-linecap="round"/>
<polyline points="454.2,276.3 476.9,280.7 499.7,280.4 522.5,284.8 545.3,284.9 568.1,281.4 590.8,277.8 613.6,273.8 636.4,273.2 659.2,267.9 681.9,256.3 704.7,251.3 727.5,245.4 750.3,251.2 773.1,261.8 795.8,260.1 818.6,268.1" fill="none" stroke="#e87ba4" stroke-width="1.5" stroke-linejoin="round" stroke-linecap="round"/>
<polyline points="158.1,200.0 180.8,191.8 203.6,202.3 226.4,215.7 249.2,224.4 271.9,224.2 294.7,221.6 317.5,208.5 340.3,194.7 363.1,185.2 385.8,177.1 408.6,168.5 431.4,161.5 454.2,151.1 476.9,170.3 499.7,181.1 522.5,173.2 545.3,171.8 568.1,173.3 590.8,167.2 613.6,169.3 636.4,152.2 659.2,153.2 681.9,157.8 704.7,162.3 727.5,161.6 750.3,176.1 773.1,190.1 795.8,200.2 818.6,211.0" fill="none" stroke="#4a3aa7" stroke-width="1.5" stroke-linejoin="round" stroke-linecap="round"/>
<rect x="15.1" y="238.5" width="12.5" height="117.5" fill="none" stroke="#e34948" stroke-width="1.3"/>
<rect x="37.9" y="150.3" width="12.5" height="88.2" fill="none" stroke="#e34948" stroke-width="1.3"/>
<rect x="60.7" y="150.3" width="12.5" height="7.6" fill="#008300"/>
<rect x="83.5" y="157.9" width="12.5" height="24.1" fill="#008300"/>
<rect x="106.2" y="182.0" width="12.5" height="46.4" fill="#008300"/>
<rect x="129.0" y="224.4" width="12.5" height="4.1" fill="none" stroke="#e34948" stroke-width="1.3"/>
<rect x="151.8" y="218.5" width="12.5" height="5.9" fill="none" stroke="#e34948" stroke-width="1.3"/>
<rect x="174.6" y="180.9" width="12.5" height="37.6" fill="none" stroke="#e34948" stroke-width="1.3"/>
<rect x="197.3" y="180.9" width="12.5" height="42.9" fill="#008300"/>
<rect x="220.1" y="223.8" width="12.5" height="28.2" fill="#008300"/>
<rect x="242.9" y="242.6" width="12.5" height="9.4" fill="none" stroke="#e34948" stroke-width="1.3"/>
<rect x="265.7" y="227.3" width="12.5" height="15.3" fill="none" stroke="#e34948" stroke-width="1.3"/>
<rect x="288.5" y="206.1" width="12.5" height="21.2" fill="none" stroke="#e34948" stroke-width="1.3"/>
<rect x="311.2" y="127.4" width="12.5" height="78.8" fill="none" stroke="#e34948" stroke-width="1.3"/>
<rect x="334.0" y="83.9" width="12.5" height="43.5" fill="none" stroke="#e34948" stroke-width="1.3"/>
<rect x="356.8" y="83.9" width="12.5" height="73.5" fill="#008300"/>
<rect x="379.6" y="157.4" width="12.5" height="37.6" fill="#008300"/>
<rect x="402.3" y="182.0" width="12.5" height="12.9" fill="none" stroke="#e34948" stroke-width="1.3"/>
<rect x="425.1" y="179.1" width="12.5" height="2.9" fill="none" stroke="#e34948" stroke-width="1.3"/>
<rect x="447.9" y="133.3" width="12.5" height="45.8" fill="none" stroke="#e34948" stroke-width="1.3"/>
<rect x="470.7" y="133.3" width="12.5" height="128.7" fill="#008300"/>
<rect x="493.5" y="159.1" width="12.5" height="102.9" fill="none" stroke="#e34948" stroke-width="1.3"/>
<rect x="516.2" y="102.1" width="12.5" height="57.0" fill="none" stroke="#e34948" stroke-width="1.3"/>
<rect x="539.0" y="102.1" width="12.5" height="82.9" fill="#008300"/>
<rect x="561.8" y="185.0" width="12.5" height="7.6" fill="#008300"/>
<rect x="584.6" y="136.2" width="12.5" height="56.4" fill="none" stroke="#e34948" stroke-width="1.3"/>
<rect x="607.3" y="136.2" width="12.5" height="11.8" fill="#008300"/>
<rect x="630.1" y="142.7" width="12.5" height="5.3" fill="none" stroke="#e34948" stroke-width="1.3"/>
<rect x="652.9" y="142.7" width="12.5" height="22.9" fill="#008300"/>
<rect x="675.7" y="134.4" width="12.5" height="31.1" fill="none" stroke="#e34948" stroke-width="1.3"/>
<rect x="698.5" y="134.4" width="12.5" height="82.3" fill="#008300"/>
<rect x="721.2" y="187.9" width="12.5" height="28.8" fill="none" stroke="#e34948" stroke-width="1.3"/>
<rect x="744.0" y="187.9" width="12.5" height="49.4" fill="#008300"/>
<rect x="766.8" y="237.3" width="12.5" height="8.8" fill="#008300"/>
<rect x="789.6" y="213.2" width="12.5" height="32.9" fill="none" stroke="#e34948" stroke-width="1.3"/>
<rect x="812.3" y="213.2" width="12.5" height="28.2" fill="#008300"/>
<circle cx="340.3" cy="83.9" r="2" fill="#52514e"/>
<line x1="340.3" y1="83.9" x2="348.3" y2="83.9" stroke="#52514e" stroke-width="1.0"/>
<text x="351.3" y="87.9" font-size="11.0" fill="#52514e">463</text>
<circle cx="21.4" cy="356.0" r="2" fill="#52514e"/>
<line x1="21.4" y1="356.0" x2="29.4" y2="356.0" stroke="#52514e" stroke-width="1.0"/>
<text x="32.4" y="350.0" font-size="11.0" fill="#52514e">0</text>
<text x="14.0" y="376.0" font-size="11.0" fill="#52514e">VOL 32 forks</text>
<text x="96.6" y="376.0" font-size="11.0" fill="#eda100">MA5:30.8</text>
<text x="155.0" y="376.0" font-size="11.0" fill="#2a78d6">MA10:38.6</text>
<text x="14.0" y="395.0" font-size="10" fill="#898781">62</text>
<rect x="15.1" y="430.3" width="12.5" height="39.7" fill="none" stroke="#e34948" stroke-width="1.1"/>
<rect x="37.9" y="403.9" width="12.5" height="66.1" fill="none" stroke="#e34948" stroke-width="1.1"/>
<rect x="60.7" y="415.8" width="12.5" height="54.2" fill="#008300"/>
<rect x="83.5" y="398.6" width="12.5" height="71.4" fill="#008300"/>
<rect x="106.2" y="431.6" width="12.5" height="38.4" fill="#008300"/>
<rect x="129.0" y="430.3" width="12.5" height="39.7" fill="none" stroke="#e34948" stroke-width="1.1"/>
<rect x="151.8" y="421.1" width="12.5" height="48.9" fill="none" stroke="#e34948" stroke-width="1.1"/>
<rect x="174.6" y="421.1" width="12.5" height="48.9" fill="none" stroke="#e34948" stroke-width="1.1"/>
<rect x="197.3" y="429.0" width="12.5" height="41.0" fill="#008300"/>
<rect x="220.1" y="425.0" width="12.5" height="45.0" fill="#008300"/>
<rect x="242.9" y="429.0" width="12.5" height="41.0" fill="none" stroke="#e34948" stroke-width="1.1"/>
<rect x="265.7" y="426.4" width="12.5" height="43.6" fill="none" stroke="#e34948" stroke-width="1.1"/>
<rect x="288.5" y="406.5" width="12.5" height="63.5" fill="none" stroke="#e34948" stroke-width="1.1"/>
<rect x="311.2" y="411.8" width="12.5" height="58.2" fill="none" stroke="#e34948" stroke-width="1.1"/>
<rect x="334.0" y="388.0" width="12.5" height="82.0" fill="none" stroke="#e34948" stroke-width="1.1"/>
<rect x="356.8" y="417.1" width="12.5" height="52.9" fill="#008300"/>
<rect x="379.6" y="419.7" width="12.5" height="50.3" fill="#008300"/>
<rect x="402.3" y="405.2" width="12.5" height="64.8" fill="none" stroke="#e34948" stroke-width="1.1"/>
<rect x="425.1" y="407.8" width="12.5" height="62.2" fill="none" stroke="#e34948" stroke-width="1.1"/>
<rect x="447.9" y="418.4" width="12.5" height="51.6" fill="none" stroke="#e34948" stroke-width="1.1"/>
<rect x="470.7" y="438.3" width="12.5" height="31.7" fill="#008300"/>
<rect x="493.5" y="410.5" width="12.5" height="59.5" fill="none" stroke="#e34948" stroke-width="1.1"/>
<rect x="516.2" y="402.5" width="12.5" height="67.5" fill="none" stroke="#e34948" stroke-width="1.1"/>
<rect x="539.0" y="419.7" width="12.5" height="50.3" fill="#008300"/>
<rect x="561.8" y="419.7" width="12.5" height="50.3" fill="#008300"/>
<rect x="584.6" y="413.1" width="12.5" height="56.9" fill="none" stroke="#e34948" stroke-width="1.1"/>
<rect x="607.3" y="411.8" width="12.5" height="58.2" fill="#008300"/>
<rect x="630.1" y="395.9" width="12.5" height="74.1" fill="none" stroke="#e34948" stroke-width="1.1"/>
<rect x="652.9" y="407.8" width="12.5" height="62.2" fill="#008300"/>
<rect x="675.7" y="414.5" width="12.5" height="55.5" fill="none" stroke="#e34948" stroke-width="1.1"/>
<rect x="698.5" y="413.1" width="12.5" height="56.9" fill="#008300"/>
<rect x="721.2" y="425.0" width="12.5" height="45.0" fill="none" stroke="#e34948" stroke-width="1.1"/>
<rect x="744.0" y="429.0" width="12.5" height="41.0" fill="#008300"/>
<rect x="766.8" y="438.3" width="12.5" height="31.7" fill="#008300"/>
<rect x="789.6" y="426.4" width="12.5" height="43.6" fill="none" stroke="#e34948" stroke-width="1.1"/>
<rect x="812.3" y="427.7" width="12.5" height="42.3" fill="#008300"/>
<polyline points="226.4,420.7 249.2,420.5 271.9,422.8 294.7,421.9 317.5,423.2 340.3,418.8 363.1,417.5 385.8,417.4 408.6,415.8 431.4,413.7 454.2,413.0 476.9,413.9 499.7,412.3 522.5,411.9 545.3,412.7 568.1,415.9 590.8,415.5 613.6,414.7 636.4,413.8 659.2,413.8 681.9,413.4 704.7,410.9 727.5,412.3 750.3,415.0 773.1,416.8 795.8,417.5 818.6,418.9" fill="none" stroke="#2a78d6" stroke-width="1.5" stroke-linejoin="round" stroke-linecap="round"/>
<polyline points="112.5,416.0 135.3,416.0 158.1,419.5 180.8,420.5 203.6,426.6 226.4,425.3 249.2,425.0 271.9,426.1 294.7,423.2 317.5,419.7 340.3,412.3 363.1,410.0 385.8,408.6 408.6,408.4 431.4,407.6 454.2,413.7 476.9,417.9 499.7,416.0 522.5,415.5 545.3,417.9 568.1,418.2 590.8,413.1 613.6,413.4 636.4,412.1 659.2,409.7 681.9,408.6 704.7,408.6 727.5,411.3 750.3,417.9 773.1,424.0 795.8,426.4 818.6,429.3" fill="none" stroke="#eda100" stroke-width="1.5" stroke-linejoin="round" stroke-linecap="round"/>
</svg>