<svg xmlns="http://www.w3.org/2000/svg" viewBox="0 0 840 496" width="840" height="496" font-family="-apple-system,&#39;Segoe UI&#39;,system-ui,sans-serif" role="img" aria-label="public-apis/public-apis candlestick chart">
<text x="14.0" y="20.0" font-size="15" fill="#ffffff" font-weight="650">public-apis/public-apis</text>
<text x="207.8" y="20.0" font-size="11.5" fill="#c3c2b7">daily · new stars, volume = new forks</text>
<text x="805.8" y="20.0" font-size="11.0" fill="#c3c2b7">fall</text>
<rect x="791" y="10" width="9" height="12" fill="#008300"/>
<text x="750.6" y="20.0" font-size="11.0" fill="#c3c2b7">rise</text>
<rect x="736" y="10" width="9" height="12" fill="none" stroke="#e66767" stroke-width="1.5"/>
<text x="14.0" y="38.0" font-size="11.0" fill="#898781">last 26 days · +7,535 stars · +1,043 forks · updated 2026-07-12</text>
<rect x="10" y="66" width="820" height="290" fill="none" stroke="#2c2c2a"/>
<rect x="10" y="384" width="820" height="86" fill="none" stroke="#2c2c2a"/>
<text x="38.0" y="490.0" font-size="11.0" fill="#898781" text-anchor="middle">2026-06</text>
<line x1="451.5" y1="66.0" x2="451.5" y2="356.0" stroke="#2c2c2a" stroke-width="1.0"/>
<line x1="451.5" y1="384.0" x2="451.5" y2="470.0" stroke="#2c2c2a" stroke-width="1.0"/>
<text x="467.3" y="490.0" font-size="11.0" fill="#898781" text-anchor="middle">2026-07</text>
<text x="14.0" y="58.0" font-size="11.0" fill="#c3c2b7">BOLL(20,2)</text>
<text x="84.5" y="58.0" font-size="11.0" fill="#c98500">UP:458.0</text>
<text x="142.9" y="58.0" font-size="11.0" fill="#3987e5">MID:295.6</text>
<text x="207.4" y="58.0" font-size="11.0" fill="#d55181">LOW:133.1</text>
<text x="271.8" y="58.0" font-size="11.0" fill="#9085e9">MA7:321.3</text>
<line x1="10.0" y1="356.0" x2="830.0" y2="356.0" stroke="#2c2c2a" stroke-width="1.0"/>
<text x="14.0" y="353.0" font-size="11.0" fill="#898781">0</text>
<line x1="10.0" y1="236.7" x2="830.0" y2="236.7" stroke="#2c2c2a" stroke-width="1.0"/>
<text x="14.0" y="233.7" font-size="11.0" fill="#898781">200</text>
<line x1="10.0" y1="117.4" x2="830.0" y2="117.4" stroke="#2c2c2a" stroke-width="1.0"/>
<text x="14.0" y="114.4" font-size="11.0" fill="#898781">400</text>
<polyline points="625.0,99.0 656.5,96.9 688.1,98.1 719.6,88.0 751.2,88.1 782.7,88.1 814.2,82.8" fill="none" stroke="#c98500" stroke-width="1.5" stroke-linejoin="round" stroke-linecap="round"/>
<polyline points="625.0,187.0 656.5,188.2 688.1,188.7 719.6,185.8 751.2,186.0 782.7,184.2 814.2,179.7" fill="none" stroke="#3987e5" stroke-width="1.5" stroke-linejoin="round" stroke-linecap="round"/>
<polyline points="625.0,275.1 656.5,279.5 688.1,279.3 719.6,283.7 751.2,283.8 782.7,280.3 814.2,276.6" fill="none" stroke="#d55181" stroke-width="1.5" stroke-linejoin="round" stroke-linecap="round"/>
<polyline points="215.0,197.7 246.5,189.3 278.1,199.9 309.6,213.6 341.2,222.4 372.7,222.2 404.2,219.6 435.8,206.3 467.3,192.3 498.8,182.7 530.4,174.4 561.9,165.6 593.5,158.6 625.0,148.1 656.5,167.6 688.1,178.5 719.6,170.5 751.2,169.0 782.7,170.5 814.2,164.3" fill="none" stroke="#9085e9" stroke-width="1.5" stroke-linejoin="round" stroke-linecap="round"/>
<rect x="17.1" y="236.7" width="17.3" height="119.3" fill="none" stroke="#e66767" stroke-width="1.3"/>
<rect x="48.6" y="147.2" width="17.3" height="89.5" fill="none" stroke="#e66767" stroke-width="1.3"/>
<rect x="80.2" y="147.2" width="17.3" height="7.8" fill="#008300"/>
<rect x="111.7" y="155.0" width="17.3" height="24.5" fill="#008300"/>
<rect x="143.2" y="179.4" width="17.3" height="47.1" fill="#008300"/>
<rect x="174.8" y="222.4" width="17.3" height="4.2" fill="none" stroke="#e66767" stroke-width="1.3"/>
<rect x="206.3" y="216.4" width="17.3" height="6.0" fill="none" stroke="#e66767" stroke-width="1.3"/>
<rect x="237.9" y="178.2" width="17.3" height="38.2" fill="none" stroke="#e66767" stroke-width="1.3"/>
<rect x="269.4" y="178.2" width="17.3" height="43.5" fill="#008300"/>
<rect x="300.9" y="221.8" width="17.3" height="28.6" fill="#008300"/>
<rect x="332.5" y="240.9" width="17.3" height="9.5" fill="none" stroke="#e66767" stroke-width="1.3"/>
<rect x="364.0" y="225.4" width="17.3" height="15.5" fill="none" stroke="#e66767" stroke-width="1.3"/>
<rect x="395.6" y="203.9" width="17.3" height="21.5" fill="none" stroke="#e66767" stroke-width="1.3"/>
<rect x="427.1" y="124.0" width="17.3" height="79.9" fill="none" stroke="#e66767" stroke-width="1.3"/>
<rect x="458.6" y="79.8" width="17.3" height="44.1" fill="none" stroke="#e66767" stroke-width="1.3"/>
<rect x="490.2" y="79.8" width="17.3" height="74.6" fill="#008300"/>
<rect x="521.7" y="154.4" width="17.3" height="38.2" fill="#008300"/>
<rect x="553.2" y="179.4" width="17.3" height="13.1" fill="none" stroke="#e66767" stroke-width="1.3"/>
<rect x="584.8" y="176.4" width="17.3" height="3.0" fill="none" stroke="#e66767" stroke-width="1.3"/>
<rect x="616.3" y="129.9" width="17.3" height="46.5" fill="none" stroke="#e66767" stroke-width="1.3"/>
<rect x="647.9" y="129.9" width="17.3" height="130.6" fill="#008300"/>
<rect x="679.4" y="156.2" width="17.3" height="104.4" fill="none" stroke="#e66767" stroke-width="1.3"/>
<rect x="710.9" y="98.3" width="17.3" height="57.9" fill="none" stroke="#e66767" stroke-width="1.3"/>
<rect x="742.5" y="98.3" width="17.3" height="84.1" fill="#008300"/>
<rect x="774.0" y="182.4" width="17.3" height="7.8" fill="#008300"/>
<rect x="805.6" y="132.9" width="17.3" height="57.3" fill="none" stroke="#e66767" stroke-width="1.3"/>
<circle cx="467.3" cy="79.8" r="2" fill="#c3c2b7"/>
<line x1="467.3" y1="79.8" x2="459.3" y2="79.8" stroke="#c3c2b7" stroke-width="1.0"/>
<text x="456.3" y="83.8" font-size="11.0" fill="#c3c2b7" text-anchor="end">463</text>
<circle cx="25.8" cy="356.0" r="2" fill="#c3c2b7"/>
<line x1="25.8" y1="356.0" x2="33.8" y2="356.0" stroke="#c3c2b7" stroke-width="1.0"/>
<text x="36.8" y="350.0" font-size="11.0" fill="#c3c2b7">0</text>
<text x="14.0" y="376.0" font-size="11.0" fill="#c3c2b7">VOL 43 forks</text>
<text x="96.6" y="376.0" font-size="11.0" fill="#c98500">MA5:43</text>
<text x="142.9" y="376.0" font-size="11.0" fill="#3987e5">MA10:41.2</text>
<text x="14.0" y="395.0" font-size="10" fill="#898781">62</text>
<rect x="17.1" y="430.3" width="17.3" height="39.7" fill="none" stroke="#e66767" stroke-width="1.1"/>
<rect x="48.6" y="403.9" width="17.3" height="66.1" fill="none" stroke="#e66767" stroke-width="1.1"/>
<rect x="80.2" y="415.8" width="17.3" height="54.2" fill="#008300"/>
<rect x="111.7" y="398.6" width="17.3" height="71.4" fill="#008300"/>
<rect x="143.2" y="431.6" width="17.3" height="38.4" fill="#008300"/>
<rect x="174.8" y="430.3" width="17.3" height="39.7" fill="none" stroke="#e66767" stroke-width="1.1"/>
<rect x="206.3" y="421.1" width="17.3" height="48.9" fill="none" stroke="#e66767" stroke-width="1.1"/>
<rect x="237.9" y="421.1" width="17.3" height="48.9" fill="none" stroke="#e66767" stroke-width="1.1"/>
<rect x="269.4" y="429.0" width="17.3" height="41.0" fill="#008300"/>
<rect x="300.9" y="425.0" width="17.3" height="45.0" fill="#008300"/>
<rect x="332.5" y="429.0" width="17.3" height="41.0" fill="none" stroke="#e66767" stroke-width="1.1"/>
<rect x="364.0" y="426.4" width="17.3" height="43.6" fill="none" stroke="#e66767" stroke-width="1.1"/>
<rect x="395.6" y="406.5" width="17.3" height="63.5" fill="none" stroke="#e66767" stroke-width="1.1"/>
<rect x="427.1" y="411.8" width="17.3" height="58.2" fill="none" stroke="#e66767" stroke-width="1.1"/>
<rect x="458.6" y="388.0" width="17.3" height="82.0" fill="none" stroke="#e66767" stroke-width="1.1"/>
<rect x="490.2" y="417.1" width="17.3" height="52.9" fill="#008300"/>
<rect x="521.7" y="419.7" width="17.3" height="50.3" fill="#008300"/>
<rect x="553.2" y="405.2" width="17.3" height="64.8" fill="none" stroke="#e66767" stroke-width="1.1"/>
<rect x="584.8" y="407.8" width="17.3" height="62.2" fill="none" stroke="#e66767" stroke-width="1.1"/>
<rect x="616.3" y="418.4" width="17.3" height="51.6" fill="none" stroke="#e66767" stroke-width="1.1"/>
<rect x="647.9" y="438.3" width="17.3" height="31.7" fill="#008300"/>
<rect x="679.4" y="410.5" width="17.3" height="59.5" fill="none" stroke="#e66767" stroke-width="1.1"/>
<rect x="710.9" y="402.5" width="17.3" height="67.5" fill="none" stroke="#e66767" stroke-width="1.1"/>
<rect x="742.5" y="419.7" width="17.3" height="50.3" fill="#008300"/>
<rect x="774.0" y="419.7" width="17.3" height="50.3" fill="#008300"/>
<rect x="805.6" y="413.1" width="17.3" height="56.9" fill="none" stroke="#e66767" stroke-width="1.1"/>
<polyline points="309.6,420.7 341.2,420.5 372.7,422.8 404.2,421.9 435.8,423.2 467.3,418.8 498.8,417.5 530.4,417.4 561.9,415.8 593.5,413.7 625.0,413.0 656.5,413.9 688.1,412.3 719.6,411.9 751.2,412.7 782.7,415.9 814.2,415.5" fill="none" stroke="#3987e5" stroke-width="1.5" stroke-linejoin="round" stroke-linecap="round"/>
<polyline points="151.9,416.0 183.5,416.0 215.0,419.5 246.5,420.5 278.1,426.6 309.6,425.3 341.2,425.0 372.7,426.1 404.2,423.2 435.8,419.7 467.3,412.3 498.8,410.0 530.4,408.6 561.9,408.4 593.5,407.6 625.0,413.7 656.5,417.9 688.1,416.0 719.6,415.5 751.2,417.9 782.7,418.2 814.2,413.1" fill="none" stroke="#c98500" stroke-width="1.5" stroke-linejoin="round" stroke-linecap="round"/>
</svg>