<svg xmlns="http://www.w3.org/2000/svg" viewBox="0 0 840 496" width="840" height="496" font-family="-apple-system,&#39;Segoe UI&#39;,system-ui,sans-serif" role="img" aria-label="public-apis/public-apis candlestick chart">
<text x="14.0" y="20.0" font-size="15" fill="#0b0b0b" font-weight="650">public-apis/public-apis</text>
<text x="207.8" y="20.0" font-size="11.5" fill="#52514e">daily · new stars, volume = new forks</text>
<text x="805.8" y="20.0" font-size="11.0" fill="#52514e">fall</text>
<rect x="791" y="10" width="9" height="12" fill="#008300"/>
<text x="750.6" y="20.0" font-size="11.0" fill="#52514e">rise</text>
<rect x="736" y="10" width="9" height="12" fill="none" stroke="#e34948" stroke-width="1.5"/>
<text x="14.0" y="38.0" font-size="11.0" fill="#898781">last 28 days · +8,252 stars · +1,143 forks · updated 2026-07-14</text>
<rect x="10" y="66" width="820" height="290" fill="none" stroke="#e1e0d9"/>
<rect x="10" y="384" width="820" height="86" fill="none" stroke="#e1e0d9"/>
<text x="38.0" y="490.0" font-size="11.0" fill="#898781" text-anchor="middle">2026-06</text>
<line x1="420.0" y1="66.0" x2="420.0" y2="356.0" stroke="#e1e0d9" stroke-width="1.0"/>
<line x1="420.0" y1="384.0" x2="420.0" y2="470.0" stroke="#e1e0d9" stroke-width="1.0"/>
<text x="434.6" y="490.0" font-size="11.0" fill="#898781" text-anchor="middle">2026-07</text>
<text x="14.0" y="58.0" font-size="11.0" fill="#52514e">BOLL(20,2)</text>
<text x="84.5" y="58.0" font-size="11.0" fill="#eda100">UP:468.7</text>
<text x="142.9" y="58.0" font-size="11.0" fill="#2a78d6">MID:304.8</text>
<text x="207.4" y="58.0" font-size="11.0" fill="#e87ba4">LOW:140.9</text>
<text x="271.8" y="58.0" font-size="11.0" fill="#4a3aa7">MA7:346.7</text>
<line x1="10.0" y1="356.0" x2="830.0" y2="356.0" stroke="#e1e0d9" stroke-width="1.0"/>
<text x="14.0" y="353.0" font-size="11.0" fill="#898781">0</text>
<line x1="10.0" y1="238.2" x2="830.0" y2="238.2" stroke="#e1e0d9" stroke-width="1.0"/>
<text x="14.0" y="235.2" font-size="11.0" fill="#898781">200</text>
<line x1="10.0" y1="120.3" x2="830.0" y2="120.3" stroke="#e1e0d9" stroke-width="1.0"/>
<text x="14.0" y="117.3" font-size="11.0" fill="#898781">400</text>
<polyline points="581.1,102.1 610.4,100.1 639.6,101.2 668.9,91.2 698.2,91.4 727.5,91.4 756.8,86.1 786.1,83.0 815.4,79.8" fill="none" stroke="#eda100" stroke-width="1.5" stroke-linejoin="round" stroke-linecap="round"/>
<polyline points="581.1,189.1 610.4,190.3 639.6,190.7 668.9,187.9 698.2,188.1 727.5,186.3 756.8,181.9 786.1,178.3 815.4,176.4" fill="none" stroke="#2a78d6" stroke-width="1.5" stroke-linejoin="round" stroke-linecap="round"/>
<polyline points="581.1,276.1 610.4,280.5 639.6,280.2 668.9,284.6 698.2,284.7 727.5,281.2 756.8,277.6 786.1,273.6 815.4,273.0" fill="none" stroke="#e87ba4" stroke-width="1.5" stroke-linejoin="round" stroke-linecap="round"/>
<polyline points="200.4,199.6 229.6,191.4 258.9,201.9 288.2,215.4 317.5,224.0 346.8,223.8 376.1,221.2 405.4,208.2 434.6,194.3 463.9,184.8 493.2,176.6 522.5,168.0 551.8,161.0 581.1,150.6 610.4,169.9 639.6,180.6 668.9,172.7 698.2,171.3 727.5,172.8 756.8,166.7 786.1,168.8 815.4,151.7" fill="none" stroke="#4a3aa7" stroke-width="1.5" stroke-linejoin="round" stroke-linecap="round"/>
<rect x="16.6" y="238.2" width="16.1" height="117.8" fill="none" stroke="#e34948" stroke-width="1.3"/>
<rect x="45.9" y="149.8" width="16.1" height="88.4" fill="none" stroke="#e34948" stroke-width="1.3"/>
<rect x="75.2" y="149.8" width="16.1" height="7.7" fill="#008300"/>
<rect x="104.4" y="157.4" width="16.1" height="24.2" fill="#008300"/>
<rect x="133.7" y="181.6" width="16.1" height="46.5" fill="#008300"/>
<rect x="163.0" y="224.0" width="16.1" height="4.1" fill="none" stroke="#e34948" stroke-width="1.3"/>
<rect x="192.3" y="218.1" width="16.1" height="5.9" fill="none" stroke="#e34948" stroke-width="1.3"/>
<rect x="221.6" y="180.4" width="16.1" height="37.7" fill="none" stroke="#e34948" stroke-width="1.3"/>
<rect x="250.9" y="180.4" width="16.1" height="43.0" fill="#008300"/>
<rect x="280.2" y="223.4" width="16.1" height="28.3" fill="#008300"/>
<rect x="309.4" y="242.3" width="16.1" height="9.4" fill="none" stroke="#e34948" stroke-width="1.3"/>
<rect x="338.7" y="227.0" width="16.1" height="15.3" fill="none" stroke="#e34948" stroke-width="1.3"/>
<rect x="368.0" y="205.7" width="16.1" height="21.2" fill="none" stroke="#e34948" stroke-width="1.3"/>
<rect x="397.3" y="126.8" width="16.1" height="79.0" fill="none" stroke="#e34948" stroke-width="1.3"/>
<rect x="426.6" y="83.2" width="16.1" height="43.6" fill="none" stroke="#e34948" stroke-width="1.3"/>
<rect x="455.9" y="83.2" width="16.1" height="73.7" fill="#008300"/>
<rect x="485.2" y="156.8" width="16.1" height="37.7" fill="#008300"/>
<rect x="514.4" y="181.6" width="16.1" height="13.0" fill="none" stroke="#e34948" stroke-width="1.3"/>
<rect x="543.7" y="178.6" width="16.1" height="2.9" fill="none" stroke="#e34948" stroke-width="1.3"/>
<rect x="573.0" y="132.7" width="16.1" height="46.0" fill="none" stroke="#e34948" stroke-width="1.3"/>
<rect x="602.3" y="132.7" width="16.1" height="129.0" fill="#008300"/>
<rect x="631.6" y="158.6" width="16.1" height="103.1" fill="none" stroke="#e34948" stroke-width="1.3"/>
<rect x="660.9" y="101.5" width="16.1" height="57.2" fill="none" stroke="#e34948" stroke-width="1.3"/>
<rect x="690.2" y="101.5" width="16.1" height="83.1" fill="#008300"/>
<rect x="719.4" y="184.5" width="16.1" height="7.7" fill="#008300"/>
<rect x="748.7" y="135.6" width="16.1" height="56.6" fill="none" stroke="#e34948" stroke-width="1.3"/>
<rect x="778.0" y="135.6" width="16.1" height="11.8" fill="#008300"/>
<rect x="807.3" y="142.1" width="16.1" height="5.3" fill="none" stroke="#e34948" stroke-width="1.3"/>
<circle cx="434.6" cy="83.2" r="2" fill="#52514e"/>
<line x1="434.6" y1="83.2" x2="426.6" y2="83.2" stroke="#52514e" stroke-width="1.0"/>
<text x="423.6" y="87.2" font-size="11.0" fill="#52514e" text-anchor="end">463</text>
<circle cx="24.6" cy="356.0" r="2" fill="#52514e"/>
<line x1="24.6" y1="356.0" x2="32.6" y2="356.0" stroke="#52514e" stroke-width="1.0"/>
<text x="35.6" y="350.0" font-size="11.0" fill="#52514e">0</text>
<text x="14.0" y="376.0" font-size="11.0" fill="#52514e">VOL 56 forks</text>
<text x="96.6" y="376.0" font-size="11.0" fill="#eda100">MA5:43.8</text>
<text x="155.0" y="376.0" font-size="11.0" fill="#2a78d6">MA10:42.5</text>
<text x="14.0" y="395.0" font-size="10" fill="#898781">62</text>
<rect x="16.6" y="430.3" width="16.1" height="39.7" fill="none" stroke="#e34948" stroke-width="1.1"/>
<rect x="45.9" y="403.9" width="16.1" height="66.1" fill="none" stroke="#e34948" stroke-width="1.1"/>
<rect x="75.2" y="415.8" width="16.1" height="54.2" fill="#008300"/>
<rect x="104.4" y="398.6" width="16.1" height="71.4" fill="#008300"/>
<rect x="133.7" y="431.6" width="16.1" height="38.4" fill="#008300"/>
<rect x="163.0" y="430.3" width="16.1" height="39.7" fill="none" stroke="#e34948" stroke-width="1.1"/>
<rect x="192.3" y="421.1" width="16.1" height="48.9" fill="none" stroke="#e34948" stroke-width="1.1"/>
<rect x="221.6" y="421.1" width="16.1" height="48.9" fill="none" stroke="#e34948" stroke-width="1.1"/>
<rect x="250.9" y="429.0" width="16.1" height="41.0" fill="#008300"/>
<rect x="280.2" y="425.0" width="16.1" height="45.0" fill="#008300"/>
<rect x="309.4" y="429.0" width="16.1" height="41.0" fill="none" stroke="#e34948" stroke-width="1.1"/>
<rect x="338.7" y="426.4" width="16.1" height="43.6" fill="none" stroke="#e34948" stroke-width="1.1"/>
<rect x="368.0" y="406.5" width="16.1" height="63.5" fill="none" stroke="#e34948" stroke-width="1.1"/>
<rect x="397.3" y="411.8" width="16.1" height="58.2" fill="none" stroke="#e34948" stroke-width="1.1"/>
<rect x="426.6" y="388.0" width="16.1" height="82.0" fill="none" stroke="#e34948" stroke-width="1.1"/>
<rect x="455.9" y="417.1" width="16.1" height="52.9" fill="#008300"/>
<rect x="485.2" y="419.7" width="16.1" height="50.3" fill="#008300"/>
<rect x="514.4" y="405.2" width="16.1" height="64.8" fill="none" stroke="#e34948" stroke-width="1.1"/>
<rect x="543.7" y="407.8" width="16.1" height="62.2" fill="none" stroke="#e34948" stroke-width="1.1"/>
<rect x="573.0" y="418.4" width="16.1" height="51.6" fill="none" stroke="#e34948" stroke-width="1.1"/>
<rect x="602.3" y="438.3" width="16.1" height="31.7" fill="#008300"/>
<rect x="631.6" y="410.5" width="16.1" height="59.5" fill="none" stroke="#e34948" stroke-width="1.1"/>
<rect x="660.9" y="402.5" width="16.1" height="67.5" fill="none" stroke="#e34948" stroke-width="1.1"/>
<rect x="690.2" y="419.7" width="16.1" height="50.3" fill="#008300"/>
<rect x="719.4" y="419.7" width="16.1" height="50.3" fill="#008300"/>
<rect x="748.7" y="413.1" width="16.1" height="56.9" fill="none" stroke="#e34948" stroke-width="1.1"/>
<rect x="778.0" y="411.8" width="16.1" height="58.2" fill="#008300"/>
<rect x="807.3" y="395.9" width="16.1" height="74.1" fill="none" stroke="#e34948" stroke-width="1.1"/>
<polyline points="288.2,420.7 317.5,420.5 346.8,422.8 376.1,421.9 405.4,423.2 434.6,418.8 463.9,417.5 493.2,417.4 522.5,415.8 551.8,413.7 581.1,413.0 610.4,413.9 639.6,412.3 668.9,411.9 698.2,412.7 727.5,415.9 756.8,415.5 786.1,414.7 815.4,413.8" fill="none" stroke="#2a78d6" stroke-width="1.5" stroke-linejoin="round" stroke-linecap="round"/>
<polyline points="141.8,416.0 171.1,416.0 200.4,419.5 229.6,420.5 258.9,426.6 288.2,425.3 317.5,425.0 346.8,426.1 376.1,423.2 405.4,419.7 434.6,412.3 463.9,410.0 493.2,408.6 522.5,408.4 551.8,407.6 581.1,413.7 610.4,417.9 639.6,416.0 668.9,415.5 698.2,417.9 727.5,418.2 756.8,413.1 786.1,413.4 815.4,412.1" fill="none" stroke="#eda100" stroke-width="1.5" stroke-linejoin="round" stroke-linecap="round"/>
</svg>