<svg xmlns="http://www.w3.org/2000/svg" viewBox="0 0 840 496" width="840" height="496" font-family="-apple-system,&#39;Segoe UI&#39;,system-ui,sans-serif" role="img" aria-label="public-apis/public-apis candlestick chart">
<text x="14.0" y="20.0" font-size="15" fill="#ffffff" font-weight="650">public-apis/public-apis</text>
<text x="207.8" y="20.0" font-size="11.5" fill="#c3c2b7">daily · new stars, volume = new forks</text>
<text x="805.8" y="20.0" font-size="11.0" fill="#c3c2b7">fall</text>
<rect x="791" y="10" width="9" height="12" fill="#008300"/>
<text x="750.6" y="20.0" font-size="11.0" fill="#c3c2b7">rise</text>
<rect x="736" y="10" width="9" height="12" fill="none" stroke="#e66767" stroke-width="1.5"/>
<text x="14.0" y="38.0" font-size="11.0" fill="#898781">last 35 days · +10,108 stars · +1,397 forks · updated 2026-07-21</text>
<rect x="10" y="66" width="820" height="290" fill="none" stroke="#2c2c2a"/>
<rect x="10" y="384" width="820" height="86" fill="none" stroke="#2c2c2a"/>
<text x="38.0" y="490.0" font-size="11.0" fill="#898781" text-anchor="middle">2026-06</text>
<line x1="338.0" y1="66.0" x2="338.0" y2="356.0" stroke="#2c2c2a" stroke-width="1.0"/>
<line x1="338.0" y1="384.0" x2="338.0" y2="470.0" stroke="#2c2c2a" stroke-width="1.0"/>
<text x="349.7" y="490.0" font-size="11.0" fill="#898781" text-anchor="middle">2026-07</text>
<text x="14.0" y="58.0" font-size="11.0" fill="#c3c2b7">BOLL(20,2)</text>
<text x="84.5" y="58.0" font-size="11.0" fill="#c98500">UP:440.0</text>
<text x="142.9" y="58.0" font-size="11.0" fill="#3987e5">MID:301.6</text>
<text x="207.4" y="58.0" font-size="11.0" fill="#d55181">LOW:163.1</text>
<text x="271.8" y="58.0" font-size="11.0" fill="#9085e9">MA7:265.1</text>
<line x1="10.0" y1="356.0" x2="830.0" y2="356.0" stroke="#2c2c2a" stroke-width="1.0"/>
<text x="14.0" y="353.0" font-size="11.0" fill="#898781">0</text>
<line x1="10.0" y1="238.5" x2="830.0" y2="238.5" stroke="#2c2c2a" stroke-width="1.0"/>
<text x="14.0" y="235.5" font-size="11.0" fill="#898781">200</text>
<line x1="10.0" y1="120.9" x2="830.0" y2="120.9" stroke="#2c2c2a" stroke-width="1.0"/>
<text x="14.0" y="117.9" font-size="11.0" fill="#898781">400</text>
<polyline points="466.9,102.8 490.3,100.7 513.7,101.9 537.1,91.9 560.6,92.1 584.0,92.0 607.4,86.8 630.9,83.7 654.3,80.5 677.7,80.0 701.1,79.8 724.6,82.2 748.0,84.3 771.4,81.6 794.9,82.8 818.3,97.4" fill="none" stroke="#c98500" stroke-width="1.5" stroke-linejoin="round" stroke-linecap="round"/>
<polyline points="466.9,189.5 490.3,190.7 513.7,191.1 537.1,188.4 560.6,188.5 584.0,186.7 607.4,182.3 630.9,178.8 654.3,176.9 677.7,174.0 701.1,168.1 724.6,166.8 748.0,164.8 771.4,166.4 794.9,172.3 818.3,178.8" fill="none" stroke="#3987e5" stroke-width="1.5" stroke-linejoin="round" stroke-linecap="round"/>
<polyline points="466.9,276.3 490.3,280.7 513.7,280.4 537.1,284.8 560.6,284.9 584.0,281.4 607.4,277.8 630.9,273.8 654.3,273.2 677.7,267.9 701.1,256.3 724.6,251.3 748.0,245.4 771.4,251.2 794.9,261.8 818.3,260.1" fill="none" stroke="#d55181" stroke-width="1.5" stroke-linejoin="round" stroke-linecap="round"/>
<polyline points="162.3,200.0 185.7,191.8 209.1,202.3 232.6,215.7 256.0,224.4 279.4,224.2 302.9,221.6 326.3,208.5 349.7,194.7 373.1,185.2 396.6,177.1 420.0,168.5 443.4,161.5 466.9,151.1 490.3,170.3 513.7,181.1 537.1,173.2 560.6,171.8 584.0,173.3 607.4,167.2 630.9,169.3 654.3,152.2 677.7,153.2 701.1,157.8 724.6,162.3 748.0,161.6 771.4,176.1 794.9,190.1 818.3,200.2" fill="none" stroke="#9085e9" stroke-width="1.5" stroke-linejoin="round" stroke-linecap="round"/>
<rect x="15.3" y="238.5" width="12.9" height="117.5" fill="none" stroke="#e66767" stroke-width="1.3"/>
<rect x="38.7" y="150.3" width="12.9" height="88.2" fill="none" stroke="#e66767" stroke-width="1.3"/>
<rect x="62.1" y="150.3" width="12.9" height="7.6" fill="#008300"/>
<rect x="85.6" y="157.9" width="12.9" height="24.1" fill="#008300"/>
<rect x="109.0" y="182.0" width="12.9" height="46.4" fill="#008300"/>
<rect x="132.4" y="224.4" width="12.9" height="4.1" fill="none" stroke="#e66767" stroke-width="1.3"/>
<rect x="155.8" y="218.5" width="12.9" height="5.9" fill="none" stroke="#e66767" stroke-width="1.3"/>
<rect x="179.3" y="180.9" width="12.9" height="37.6" fill="none" stroke="#e66767" stroke-width="1.3"/>
<rect x="202.7" y="180.9" width="12.9" height="42.9" fill="#008300"/>
<rect x="226.1" y="223.8" width="12.9" height="28.2" fill="#008300"/>
<rect x="249.6" y="242.6" width="12.9" height="9.4" fill="none" stroke="#e66767" stroke-width="1.3"/>
<rect x="273.0" y="227.3" width="12.9" height="15.3" fill="none" stroke="#e66767" stroke-width="1.3"/>
<rect x="296.4" y="206.1" width="12.9" height="21.2" fill="none" stroke="#e66767" stroke-width="1.3"/>
<rect x="319.8" y="127.4" width="12.9" height="78.8" fill="none" stroke="#e66767" stroke-width="1.3"/>
<rect x="343.3" y="83.9" width="12.9" height="43.5" fill="none" stroke="#e66767" stroke-width="1.3"/>
<rect x="366.7" y="83.9" width="12.9" height="73.5" fill="#008300"/>
<rect x="390.1" y="157.4" width="12.9" height="37.6" fill="#008300"/>
<rect x="413.6" y="182.0" width="12.9" height="12.9" fill="none" stroke="#e66767" stroke-width="1.3"/>
<rect x="437.0" y="179.1" width="12.9" height="2.9" fill="none" stroke="#e66767" stroke-width="1.3"/>
<rect x="460.4" y="133.3" width="12.9" height="45.8" fill="none" stroke="#e66767" stroke-width="1.3"/>
<rect x="483.8" y="133.3" width="12.9" height="128.7" fill="#008300"/>
<rect x="507.3" y="159.1" width="12.9" height="102.9" fill="none" stroke="#e66767" stroke-width="1.3"/>
<rect x="530.7" y="102.1" width="12.9" height="57.0" fill="none" stroke="#e66767" stroke-width="1.3"/>
<rect x="554.1" y="102.1" width="12.9" height="82.9" fill="#008300"/>
<rect x="577.6" y="185.0" width="12.9" height="7.6" fill="#008300"/>
<rect x="601.0" y="136.2" width="12.9" height="56.4" fill="none" stroke="#e66767" stroke-width="1.3"/>
<rect x="624.4" y="136.2" width="12.9" height="11.8" fill="#008300"/>
<rect x="647.8" y="142.7" width="12.9" height="5.3" fill="none" stroke="#e66767" stroke-width="1.3"/>
<rect x="671.3" y="142.7" width="12.9" height="22.9" fill="#008300"/>
<rect x="694.7" y="134.4" width="12.9" height="31.1" fill="none" stroke="#e66767" stroke-width="1.3"/>
<rect x="718.1" y="134.4" width="12.9" height="82.3" fill="#008300"/>
<rect x="741.6" y="187.9" width="12.9" height="28.8" fill="none" stroke="#e66767" stroke-width="1.3"/>
<rect x="765.0" y="187.9" width="12.9" height="49.4" fill="#008300"/>
<rect x="788.4" y="237.3" width="12.9" height="8.8" fill="#008300"/>
<rect x="811.8" y="213.2" width="12.9" height="32.9" fill="none" stroke="#e66767" stroke-width="1.3"/>
<circle cx="349.7" cy="83.9" r="2" fill="#c3c2b7"/>
<line x1="349.7" y1="83.9" x2="357.7" y2="83.9" stroke="#c3c2b7" stroke-width="1.0"/>
<text x="360.7" y="87.9" font-size="11.0" fill="#c3c2b7">463</text>
<circle cx="21.7" cy="356.0" r="2" fill="#c3c2b7"/>
<line x1="21.7" y1="356.0" x2="29.7" y2="356.0" stroke="#c3c2b7" stroke-width="1.0"/>
<text x="32.7" y="350.0" font-size="11.0" fill="#c3c2b7">0</text>
<text x="14.0" y="376.0" font-size="11.0" fill="#c3c2b7">VOL 33 forks</text>
<text x="96.6" y="376.0" font-size="11.0" fill="#c98500">MA5:33</text>
<text x="142.9" y="376.0" font-size="11.0" fill="#3987e5">MA10:39.7</text>
<text x="14.0" y="395.0" font-size="10" fill="#898781">62</text>
<rect x="15.3" y="430.3" width="12.9" height="39.7" fill="none" stroke="#e66767" stroke-width="1.1"/>
<rect x="38.7" y="403.9" width="12.9" height="66.1" fill="none" stroke="#e66767" stroke-width="1.1"/>
<rect x="62.1" y="415.8" width="12.9" height="54.2" fill="#008300"/>
<rect x="85.6" y="398.6" width="12.9" height="71.4" fill="#008300"/>
<rect x="109.0" y="431.6" width="12.9" height="38.4" fill="#008300"/>
<rect x="132.4" y="430.3" width="12.9" height="39.7" fill="none" stroke="#e66767" stroke-width="1.1"/>
<rect x="155.8" y="421.1" width="12.9" height="48.9" fill="none" stroke="#e66767" stroke-width="1.1"/>
<rect x="179.3" y="421.1" width="12.9" height="48.9" fill="none" stroke="#e66767" stroke-width="1.1"/>
<rect x="202.7" y="429.0" width="12.9" height="41.0" fill="#008300"/>
<rect x="226.1" y="425.0" width="12.9" height="45.0" fill="#008300"/>
<rect x="249.6" y="429.0" width="12.9" height="41.0" fill="none" stroke="#e66767" stroke-width="1.1"/>
<rect x="273.0" y="426.4" width="12.9" height="43.6" fill="none" stroke="#e66767" stroke-width="1.1"/>
<rect x="296.4" y="406.5" width="12.9" height="63.5" fill="none" stroke="#e66767" stroke-width="1.1"/>
<rect x="319.8" y="411.8" width="12.9" height="58.2" fill="none" stroke="#e66767" stroke-width="1.1"/>
<rect x="343.3" y="388.0" width="12.9" height="82.0" fill="none" stroke="#e66767" stroke-width="1.1"/>
<rect x="366.7" y="417.1" width="12.9" height="52.9" fill="#008300"/>
<rect x="390.1" y="419.7" width="12.9" height="50.3" fill="#008300"/>
<rect x="413.6" y="405.2" width="12.9" height="64.8" fill="none" stroke="#e66767" stroke-width="1.1"/>
<rect x="437.0" y="407.8" width="12.9" height="62.2" fill="none" stroke="#e66767" stroke-width="1.1"/>
<rect x="460.4" y="418.4" width="12.9" height="51.6" fill="none" stroke="#e66767" stroke-width="1.1"/>
<rect x="483.8" y="438.3" width="12.9" height="31.7" fill="#008300"/>
<rect x="507.3" y="410.5" width="12.9" height="59.5" fill="none" stroke="#e66767" stroke-width="1.1"/>
<rect x="530.7" y="402.5" width="12.9" height="67.5" fill="none" stroke="#e66767" stroke-width="1.1"/>
<rect x="554.1" y="419.7" width="12.9" height="50.3" fill="#008300"/>
<rect x="577.6" y="419.7" width="12.9" height="50.3" fill="#008300"/>
<rect x="601.0" y="413.1" width="12.9" height="56.9" fill="none" stroke="#e66767" stroke-width="1.1"/>
<rect x="624.4" y="411.8" width="12.9" height="58.2" fill="#008300"/>
<rect x="647.8" y="395.9" width="12.9" height="74.1" fill="none" stroke="#e66767" stroke-width="1.1"/>
<rect x="671.3" y="407.8" width="12.9" height="62.2" fill="#008300"/>
<rect x="694.7" y="414.5" width="12.9" height="55.5" fill="none" stroke="#e66767" stroke-width="1.1"/>
<rect x="718.1" y="413.1" width="12.9" height="56.9" fill="#008300"/>
<rect x="741.6" y="425.0" width="12.9" height="45.0" fill="none" stroke="#e66767" stroke-width="1.1"/>
<rect x="765.0" y="429.0" width="12.9" height="41.0" fill="#008300"/>
<rect x="788.4" y="438.3" width="12.9" height="31.7" fill="#008300"/>
<rect x="811.8" y="426.4" width="12.9" height="43.6" fill="none" stroke="#e66767" stroke-width="1.1"/>
<polyline points="232.6,420.7 256.0,420.5 279.4,422.8 302.9,421.9 326.3,423.2 349.7,418.8 373.1,417.5 396.6,417.4 420.0,415.8 443.4,413.7 466.9,413.0 490.3,413.9 513.7,412.3 537.1,411.9 560.6,412.7 584.0,415.9 607.4,415.5 630.9,414.7 654.3,413.8 677.7,413.8 701.1,413.4 724.6,410.9 748.0,412.3 771.4,415.0 794.9,416.8 818.3,417.5" fill="none" stroke="#3987e5" stroke-width="1.5" stroke-linejoin="round" stroke-linecap="round"/>
<polyline points="115.4,416.0 138.9,416.0 162.3,419.5 185.7,420.5 209.1,426.6 232.6,425.3 256.0,425.0 279.4,426.1 302.9,423.2 326.3,419.7 349.7,412.3 373.1,410.0 396.6,408.6 420.0,408.4 443.4,407.6 466.9,413.7 490.3,417.9 513.7,416.0 537.1,415.5 560.6,417.9 584.0,418.2 607.4,413.1 630.9,413.4 654.3,412.1 677.7,409.7 701.1,408.6 724.6,408.6 748.0,411.3 771.4,417.9 794.9,424.0 818.3,426.4" fill="none" stroke="#c98500" stroke-width="1.5" stroke-linejoin="round" stroke-linecap="round"/>
</svg>