<svg xmlns="http://www.w3.org/2000/svg" viewBox="0 0 840 496" width="840" height="496" font-family="-apple-system,&#39;Segoe UI&#39;,system-ui,sans-serif" role="img" aria-label="TheAlgorithms/Python candlestick chart">
<text x="14.0" y="20.0" font-size="15" fill="#ffffff" font-weight="650">TheAlgorithms/Python</text>
<text x="183.0" y="20.0" font-size="11.5" fill="#c3c2b7">daily · new stars, volume = new forks</text>
<text x="805.8" y="20.0" font-size="11.0" fill="#c3c2b7">fall</text>
<rect x="791" y="10" width="9" height="12" fill="#008300"/>
<text x="750.6" y="20.0" font-size="11.0" fill="#c3c2b7">rise</text>
<rect x="736" y="10" width="9" height="12" fill="none" stroke="#e66767" stroke-width="1.5"/>
<text x="14.0" y="38.0" font-size="11.0" fill="#898781">last 60 days · +2,126 stars · +494 forks · updated 2026-07-15</text>
<rect x="10" y="66" width="820" height="290" fill="none" stroke="#2c2c2a"/>
<rect x="10" y="384" width="820" height="86" fill="none" stroke="#2c2c2a"/>
<text x="38.0" y="490.0" font-size="11.0" fill="#898781" text-anchor="middle">2026-05</text>
<line x1="215.0" y1="66.0" x2="215.0" y2="356.0" stroke="#2c2c2a" stroke-width="1.0"/>
<line x1="215.0" y1="384.0" x2="215.0" y2="470.0" stroke="#2c2c2a" stroke-width="1.0"/>
<text x="221.8" y="490.0" font-size="11.0" fill="#898781" text-anchor="middle">2026-06</text>
<line x1="625.0" y1="66.0" x2="625.0" y2="356.0" stroke="#2c2c2a" stroke-width="1.0"/>
<line x1="625.0" y1="384.0" x2="625.0" y2="470.0" stroke="#2c2c2a" stroke-width="1.0"/>
<text x="631.8" y="490.0" font-size="11.0" fill="#898781" text-anchor="middle">2026-07</text>
<text x="14.0" y="58.0" font-size="11.0" fill="#c3c2b7">BOLL(20,2)</text>
<text x="84.5" y="58.0" font-size="11.0" fill="#c98500">UP:46.1</text>
<text x="136.9" y="58.0" font-size="11.0" fill="#3987e5">MID:29.4</text>
<text x="195.3" y="58.0" font-size="11.0" fill="#d55181">LOW:12.7</text>
<text x="253.7" y="58.0" font-size="11.0" fill="#9085e9">MA7:30</text>
<line x1="10.0" y1="216.9" x2="830.0" y2="216.9" stroke="#2c2c2a" stroke-width="1.0"/>
<text x="14.0" y="213.9" font-size="11.0" fill="#898781">50</text>
<polyline points="16.8,79.2 30.5,81.2 44.2,82.2 57.8,144.5 71.5,171.3 85.2,174.5 98.8,181.9 112.5,188.5 126.2,196.1 139.8,196.8 153.5,196.7 167.2,197.4 180.8,196.5 194.5,196.1 208.2,195.9 221.8,193.3 235.5,195.2 249.2,194.6 262.8,195.5 276.5,203.1 290.2,203.2 303.8,202.7 317.5,204.1 331.2,212.9 344.8,205.4 358.5,205.5 372.2,206.7 385.8,206.6 399.5,204.7 413.2,204.7 426.8,204.4 440.5,202.4 454.2,202.9 467.8,202.4 481.5,202.9 495.2,206.8 508.8,206.6 522.5,203.2 536.2,203.4 549.8,204.5 563.5,205.5 577.2,205.5 590.8,208.2 604.5,217.0 618.2,230.0 631.8,230.6 645.5,230.4 659.2,232.8 672.8,232.9 686.5,233.2 700.2,238.0 713.8,233.0 727.5,229.9 741.2,229.3 754.8,230.2 768.5,231.8 782.2,226.7 795.8,234.6 809.5,228.8 823.2,228.7" fill="none" stroke="#c98500" stroke-width="1.5" stroke-linejoin="round" stroke-linecap="round"/>
<polyline points="16.8,208.4 30.5,211.6 44.2,212.5 57.8,222.5 71.5,229.3 85.2,232.5 98.8,237.6 112.5,240.9 126.2,243.8 139.8,244.9 153.5,244.7 167.2,245.2 180.8,245.9 194.5,245.0 208.2,244.5 221.8,242.7 235.5,243.8 249.2,243.2 262.8,244.2 276.5,246.5 290.2,245.5 303.8,246.4 317.5,246.8 331.2,248.2 344.8,246.1 358.5,245.8 372.2,245.2 385.8,244.5 399.5,246.2 413.2,246.2 426.8,246.1 440.5,248.6 454.2,248.3 467.8,250.3 481.5,251.4 495.2,253.0 508.8,255.3 522.5,254.2 536.2,255.0 549.8,257.1 563.5,258.6 577.2,258.9 590.8,260.0 604.5,263.0 618.2,266.8 631.8,267.1 645.5,266.9 659.2,268.3 672.8,267.8 686.5,269.5 700.2,271.3 713.8,273.0 727.5,275.4 741.2,276.4 754.8,277.7 768.5,280.8 782.2,278.4 795.8,280.1 809.5,278.3 823.2,279.2" fill="none" stroke="#3987e5" stroke-width="1.5" stroke-linejoin="round" stroke-linecap="round"/>
<polyline points="16.8,337.6 30.5,341.9 44.2,342.8 57.8,300.4 71.5,287.3 85.2,290.4 98.8,293.3 112.5,293.4 126.2,291.4 139.8,292.9 153.5,292.7 167.2,292.9 180.8,295.3 194.5,293.9 208.2,293.2 221.8,292.2 235.5,292.4 249.2,291.7 262.8,293.0 276.5,289.9 290.2,287.7 303.8,290.0 317.5,289.5 331.2,283.5 344.8,286.7 358.5,286.0 372.2,283.6 385.8,282.5 399.5,287.8 413.2,287.8 426.8,287.7 440.5,294.8 454.2,293.8 467.8,298.2 481.5,299.8 495.2,299.3 508.8,304.0 522.5,305.2 536.2,306.5 549.8,309.6 563.5,311.7 577.2,312.3 590.8,311.8 604.5,309.0 618.2,303.5 631.8,303.6 645.5,303.4 659.2,303.8 672.8,302.8 686.5,305.7 700.2,304.6 713.8,313.0 727.5,320.9 741.2,323.6 754.8,325.2 768.5,329.8 782.2,330.1 795.8,325.6 809.5,327.7 823.2,329.6" fill="none" stroke="#d55181" stroke-width="1.5" stroke-linejoin="round" stroke-linecap="round"/>
<polyline points="16.8,240.8 30.5,240.2 44.2,235.0 57.8,229.0 71.5,228.1 85.2,232.0 98.8,244.1 112.5,242.9 126.2,242.3 139.8,248.0 153.5,256.5 167.2,256.2 180.8,258.9 194.5,253.5 208.2,252.0 221.8,247.4 235.5,245.3 249.2,245.0 262.8,247.1 276.5,241.4 290.2,242.0 303.8,245.3 317.5,246.8 331.2,241.4 344.8,236.2 358.5,236.2 372.2,240.2 385.8,240.2 399.5,242.0 413.2,246.2 426.8,250.4 440.5,263.4 454.2,266.2 467.8,268.3 481.5,271.3 495.2,267.1 508.8,271.3 522.5,268.3 536.2,265.3 549.8,266.5 563.5,265.6 577.2,267.1 590.8,266.5 604.5,263.4 618.2,272.2 631.8,271.0 645.5,268.3 659.2,268.0 672.8,267.4 686.5,273.4 700.2,274.3 713.8,281.3 727.5,289.8 741.2,295.5 754.8,298.2 768.5,304.3 782.2,296.7 795.8,293.4 809.5,280.4 823.2,277.4" fill="none" stroke="#9085e9" stroke-width="1.5" stroke-linejoin="round" stroke-linecap="round"/>
<rect x="13.1" y="195.7" width="7.5" height="72.6" fill="#008300"/>
<rect x="26.7" y="253.2" width="7.5" height="15.1" fill="none" stroke="#e66767" stroke-width="1.3"/>
<rect x="40.4" y="219.9" width="7.5" height="33.3" fill="none" stroke="#e66767" stroke-width="1.3"/>
<rect x="54.1" y="180.6" width="7.5" height="39.3" fill="none" stroke="#e66767" stroke-width="1.3"/>
<rect x="67.7" y="180.6" width="7.5" height="63.5" fill="#008300"/>
<rect x="81.4" y="244.1" width="7.5" height="18.1" fill="#008300"/>
<rect x="95.1" y="262.2" width="7.5" height="18.1" fill="#008300"/>
<rect x="108.7" y="259.2" width="7.5" height="21.2" fill="none" stroke="#e66767" stroke-width="1.3"/>
<rect x="122.4" y="250.1" width="7.5" height="9.1" fill="none" stroke="#e66767" stroke-width="1.3"/>
<rect x="136.1" y="250.1" width="7.5" height="9.1" fill="#008300"/>
<rect x="149.7" y="241.1" width="7.5" height="18.1" fill="none" stroke="#e66767" stroke-width="1.3"/>
<rect x="163.4" y="241.1" width="7.5" height="1.2" fill="#898781"/>
<rect x="177.1" y="241.1" width="7.5" height="39.3" fill="#008300"/>
<rect x="190.7" y="244.1" width="7.5" height="36.3" fill="none" stroke="#e66767" stroke-width="1.3"/>
<rect x="204.4" y="244.1" width="7.5" height="3.0" fill="#008300"/>
<rect x="218.1" y="219.9" width="7.5" height="27.2" fill="none" stroke="#e66767" stroke-width="1.3"/>
<rect x="231.7" y="219.9" width="7.5" height="24.2" fill="#008300"/>
<rect x="245.4" y="238.0" width="7.5" height="6.0" fill="none" stroke="#e66767" stroke-width="1.3"/>
<rect x="259.1" y="238.0" width="7.5" height="18.1" fill="#008300"/>
<rect x="272.7" y="241.1" width="7.5" height="15.1" fill="none" stroke="#e66767" stroke-width="1.3"/>
<rect x="286.4" y="241.1" width="7.5" height="6.0" fill="#008300"/>
<rect x="300.1" y="247.1" width="7.5" height="24.2" fill="#008300"/>
<rect x="313.7" y="229.0" width="7.5" height="42.3" fill="none" stroke="#e66767" stroke-width="1.3"/>
<rect x="327.4" y="207.8" width="7.5" height="21.2" fill="none" stroke="#e66767" stroke-width="1.3"/>
<rect x="341.1" y="201.8" width="7.5" height="6.0" fill="none" stroke="#e66767" stroke-width="1.3"/>
<rect x="354.7" y="201.8" width="7.5" height="54.4" fill="#008300"/>
<rect x="368.4" y="256.2" width="7.5" height="12.1" fill="#008300"/>
<rect x="382.1" y="247.1" width="7.5" height="21.2" fill="none" stroke="#e66767" stroke-width="1.3"/>
<rect x="395.7" y="247.1" width="7.5" height="36.3" fill="#008300"/>
<rect x="409.4" y="259.2" width="7.5" height="24.2" fill="none" stroke="#e66767" stroke-width="1.3"/>
<rect x="423.1" y="238.0" width="7.5" height="21.2" fill="none" stroke="#e66767" stroke-width="1.3"/>
<rect x="436.7" y="238.0" width="7.5" height="54.4" fill="#008300"/>
<rect x="450.4" y="274.3" width="7.5" height="18.1" fill="none" stroke="#e66767" stroke-width="1.3"/>
<rect x="464.1" y="274.3" width="7.5" height="9.1" fill="#008300"/>
<rect x="477.7" y="268.3" width="7.5" height="15.1" fill="none" stroke="#e66767" stroke-width="1.3"/>
<rect x="491.4" y="253.2" width="7.5" height="15.1" fill="none" stroke="#e66767" stroke-width="1.3"/>
<rect x="505.1" y="253.2" width="7.5" height="36.3" fill="#008300"/>
<rect x="518.7" y="216.9" width="7.5" height="72.6" fill="none" stroke="#e66767" stroke-width="1.3"/>
<rect x="532.4" y="216.9" width="7.5" height="54.4" fill="#008300"/>
<rect x="546.1" y="271.3" width="7.5" height="12.1" fill="#008300"/>
<rect x="559.7" y="277.4" width="7.5" height="6.0" fill="none" stroke="#e66767" stroke-width="1.3"/>
<rect x="573.4" y="277.4" width="7.5" height="1.2" fill="#898781"/>
<rect x="587.1" y="250.1" width="7.5" height="27.2" fill="none" stroke="#e66767" stroke-width="1.3"/>
<rect x="600.7" y="250.1" width="7.5" height="18.1" fill="#008300"/>
<rect x="614.4" y="268.3" width="7.5" height="9.1" fill="#008300"/>
<rect x="628.1" y="262.2" width="7.5" height="15.1" fill="none" stroke="#e66767" stroke-width="1.3"/>
<rect x="641.7" y="262.2" width="7.5" height="3.0" fill="#008300"/>
<rect x="655.4" y="265.3" width="7.5" height="9.1" fill="#008300"/>
<rect x="669.1" y="274.3" width="7.5" height="1.2" fill="#898781"/>
<rect x="682.7" y="274.3" width="7.5" height="18.1" fill="#008300"/>
<rect x="696.4" y="274.3" width="7.5" height="18.1" fill="none" stroke="#e66767" stroke-width="1.3"/>
<rect x="710.1" y="274.3" width="7.5" height="51.4" fill="#008300"/>
<rect x="723.7" y="322.7" width="7.5" height="3.0" fill="none" stroke="#e66767" stroke-width="1.3"/>
<rect x="737.4" y="304.6" width="7.5" height="18.1" fill="none" stroke="#e66767" stroke-width="1.3"/>
<rect x="751.1" y="292.5" width="7.5" height="12.1" fill="none" stroke="#e66767" stroke-width="1.3"/>
<rect x="764.7" y="292.5" width="7.5" height="24.2" fill="#008300"/>
<rect x="778.4" y="241.1" width="7.5" height="75.6" fill="none" stroke="#e66767" stroke-width="1.3"/>
<rect x="792.1" y="241.1" width="7.5" height="9.1" fill="#008300"/>
<rect x="805.7" y="235.0" width="7.5" height="15.1" fill="none" stroke="#e66767" stroke-width="1.3"/>
<rect x="819.4" y="235.0" width="7.5" height="66.5" fill="#008300"/>
<circle cx="57.8" cy="180.6" r="2" fill="#c3c2b7"/>
<line x1="57.8" y1="180.6" x2="65.8" y2="180.6" stroke="#c3c2b7" stroke-width="1.0"/>
<text x="68.8" y="184.6" font-size="11.0" fill="#c3c2b7">62</text>
<circle cx="713.8" cy="325.7" r="2" fill="#c3c2b7"/>
<line x1="713.8" y1="325.7" x2="705.8" y2="325.7" stroke="#c3c2b7" stroke-width="1.0"/>
<text x="702.8" y="329.7" font-size="11.0" fill="#c3c2b7" text-anchor="end">14</text>
<text x="14.0" y="376.0" font-size="11.0" fill="#c3c2b7">VOL 5 forks</text>
<text x="90.6" y="376.0" font-size="11.0" fill="#c98500">MA5:2.8</text>
<text x="142.9" y="376.0" font-size="11.0" fill="#3987e5">MA10:3.3</text>
<text x="14.0" y="395.0" font-size="10" fill="#898781">18</text>
<rect x="13.1" y="401.7" width="7.5" height="68.3" fill="#008300"/>
<rect x="26.7" y="415.3" width="7.5" height="54.7" fill="none" stroke="#e66767" stroke-width="1.1"/>
<rect x="40.4" y="424.4" width="7.5" height="45.6" fill="none" stroke="#e66767" stroke-width="1.1"/>
<rect x="54.1" y="442.7" width="7.5" height="27.3" fill="none" stroke="#e66767" stroke-width="1.1"/>
<rect x="67.7" y="442.7" width="7.5" height="27.3" fill="#008300"/>
<rect x="81.4" y="429.0" width="7.5" height="41.0" fill="#008300"/>
<rect x="95.1" y="429.0" width="7.5" height="41.0" fill="#008300"/>
<rect x="108.7" y="451.8" width="7.5" height="18.2" fill="none" stroke="#e66767" stroke-width="1.1"/>
<rect x="122.4" y="429.0" width="7.5" height="41.0" fill="none" stroke="#e66767" stroke-width="1.1"/>
<rect x="136.1" y="429.0" width="7.5" height="41.0" fill="#008300"/>
<rect x="149.7" y="410.8" width="7.5" height="59.2" fill="none" stroke="#e66767" stroke-width="1.1"/>
<rect x="163.4" y="419.9" width="7.5" height="50.1" fill="#898781"/>
<rect x="177.1" y="433.6" width="7.5" height="36.4" fill="#008300"/>
<rect x="190.7" y="442.7" width="7.5" height="27.3" fill="none" stroke="#e66767" stroke-width="1.1"/>
<rect x="204.4" y="429.0" width="7.5" height="41.0" fill="#008300"/>
<rect x="218.1" y="419.9" width="7.5" height="50.1" fill="none" stroke="#e66767" stroke-width="1.1"/>
<rect x="231.7" y="392.6" width="7.5" height="77.4" fill="#008300"/>
<rect x="245.4" y="424.4" width="7.5" height="45.6" fill="none" stroke="#e66767" stroke-width="1.1"/>
<rect x="259.1" y="410.8" width="7.5" height="59.2" fill="#008300"/>
<rect x="272.7" y="438.1" width="7.5" height="31.9" fill="none" stroke="#e66767" stroke-width="1.1"/>
<rect x="286.4" y="442.7" width="7.5" height="27.3" fill="#008300"/>
<rect x="300.1" y="429.0" width="7.5" height="41.0" fill="#008300"/>
<rect x="313.7" y="388.0" width="7.5" height="82.0" fill="none" stroke="#e66767" stroke-width="1.1"/>
<rect x="327.4" y="410.8" width="7.5" height="59.2" fill="none" stroke="#e66767" stroke-width="1.1"/>
<rect x="341.1" y="433.6" width="7.5" height="36.4" fill="none" stroke="#e66767" stroke-width="1.1"/>
<rect x="354.7" y="424.4" width="7.5" height="45.6" fill="#008300"/>
<rect x="368.4" y="415.3" width="7.5" height="54.7" fill="#008300"/>
<rect x="382.1" y="397.1" width="7.5" height="72.9" fill="none" stroke="#e66767" stroke-width="1.1"/>
<rect x="395.7" y="433.6" width="7.5" height="36.4" fill="#008300"/>
<rect x="409.4" y="415.3" width="7.5" height="54.7" fill="none" stroke="#e66767" stroke-width="1.1"/>
<rect x="423.1" y="438.1" width="7.5" height="31.9" fill="none" stroke="#e66767" stroke-width="1.1"/>
<rect x="436.7" y="429.0" width="7.5" height="41.0" fill="#008300"/>
<rect x="450.4" y="429.0" width="7.5" height="41.0" fill="none" stroke="#e66767" stroke-width="1.1"/>
<rect x="464.1" y="438.1" width="7.5" height="31.9" fill="#008300"/>
<rect x="477.7" y="433.6" width="7.5" height="36.4" fill="none" stroke="#e66767" stroke-width="1.1"/>
<rect x="491.4" y="442.7" width="7.5" height="27.3" fill="none" stroke="#e66767" stroke-width="1.1"/>
<rect x="505.1" y="419.9" width="7.5" height="50.1" fill="#008300"/>
<rect x="518.7" y="424.4" width="7.5" height="45.6" fill="none" stroke="#e66767" stroke-width="1.1"/>
<rect x="532.4" y="438.1" width="7.5" height="31.9" fill="#008300"/>
<rect x="546.1" y="433.6" width="7.5" height="36.4" fill="#008300"/>
<rect x="559.7" y="438.1" width="7.5" height="31.9" fill="none" stroke="#e66767" stroke-width="1.1"/>
<rect x="573.4" y="433.6" width="7.5" height="36.4" fill="#898781"/>
<rect x="587.1" y="442.7" width="7.5" height="27.3" fill="none" stroke="#e66767" stroke-width="1.1"/>
<rect x="600.7" y="419.9" width="7.5" height="50.1" fill="#008300"/>
<rect x="614.4" y="438.1" width="7.5" height="31.9" fill="#008300"/>
<rect x="628.1" y="447.2" width="7.5" height="22.8" fill="none" stroke="#e66767" stroke-width="1.1"/>
<rect x="641.7" y="438.1" width="7.5" height="31.9" fill="#008300"/>
<rect x="655.4" y="438.1" width="7.5" height="31.9" fill="#008300"/>
<rect x="669.1" y="442.7" width="7.5" height="27.3" fill="#898781"/>
<rect x="682.7" y="429.0" width="7.5" height="41.0" fill="#008300"/>
<rect x="696.4" y="433.6" width="7.5" height="36.4" fill="none" stroke="#e66767" stroke-width="1.1"/>
<rect x="710.1" y="460.9" width="7.5" height="9.1" fill="#008300"/>
<rect x="723.7" y="447.2" width="7.5" height="22.8" fill="none" stroke="#e66767" stroke-width="1.1"/>
<rect x="751.1" y="451.8" width="7.5" height="18.2" fill="none" stroke="#e66767" stroke-width="1.1"/>
<rect x="778.4" y="465.4" width="7.5" height="4.6" fill="none" stroke="#e66767" stroke-width="1.1"/>
<rect x="792.1" y="433.6" width="7.5" height="36.4" fill="#008300"/>
<rect x="819.4" y="447.2" width="7.5" height="22.8" fill="#008300"/>
<polyline points="16.8,419.9 30.5,420.3 44.2,419.4 57.8,421.3 71.5,423.5 85.2,424.9 98.8,427.6 112.5,429.0 126.2,429.5 139.8,429.5 153.5,430.4 167.2,430.8 180.8,431.7 194.5,431.7 208.2,430.4 221.8,429.5 235.5,425.8 249.2,423.1 262.8,421.3 276.5,422.2 290.2,425.4 303.8,426.3 317.5,421.7 331.2,418.5 344.8,419.0 358.5,419.4 372.2,421.7 385.8,419.0 399.5,421.3 413.2,419.0 426.8,418.5 440.5,418.5 454.2,422.6 467.8,425.4 481.5,425.4 495.2,427.2 508.8,427.6 522.5,430.4 536.2,430.8 549.8,432.6 563.5,432.6 577.2,433.1 590.8,434.5 604.5,432.6 618.2,433.1 631.8,433.6 645.5,435.4 659.2,436.7 672.8,437.2 686.5,436.7 700.2,436.3 713.8,439.0 727.5,439.5 741.2,444.5 754.8,445.9 768.5,448.1 782.2,450.9 795.8,450.4 809.5,453.1 823.2,455.0" fill="none" stroke="#3987e5" stroke-width="1.5" stroke-linejoin="round" stroke-linecap="round"/>
<polyline points="16.8,419.0 30.5,421.7 44.2,419.0 57.8,422.6 71.5,425.4 85.2,430.8 98.8,433.6 112.5,439.0 126.2,436.3 139.8,433.6 153.5,429.9 167.2,428.1 180.8,424.4 194.5,427.2 208.2,427.2 221.8,429.0 235.5,423.5 249.2,421.7 262.8,415.3 276.5,417.2 290.2,421.7 303.8,429.0 317.5,421.7 331.2,421.7 344.8,420.8 358.5,417.2 372.2,414.4 385.8,416.2 399.5,420.8 413.2,417.2 426.8,419.9 440.5,422.6 454.2,429.0 467.8,429.9 481.5,433.6 495.2,434.5 508.8,432.6 522.5,431.7 536.2,431.7 549.8,431.7 563.5,430.8 577.2,433.6 590.8,437.2 604.5,433.6 618.2,434.5 631.8,436.3 645.5,437.2 659.2,436.3 672.8,440.8 686.5,439.0 700.2,436.3 713.8,440.8 727.5,442.7 741.2,448.1 754.8,452.7 768.5,460.0 782.2,460.9 795.8,458.2 809.5,458.2 823.2,457.2" fill="none" stroke="#c98500" stroke-width="1.5" stroke-linejoin="round" stroke-linecap="round"/>
</svg>