<svg xmlns="http://www.w3.org/2000/svg" viewBox="0 0 840 496" width="840" height="496" font-family="-apple-system,&#39;Segoe UI&#39;,system-ui,sans-serif" role="img" aria-label="TheAlgorithms/Python candlestick chart">
<text x="14.0" y="20.0" font-size="15" fill="#0b0b0b" font-weight="650">TheAlgorithms/Python</text>
<text x="183.0" y="20.0" font-size="11.5" fill="#52514e">daily · new stars, volume = new forks</text>
<text x="805.8" y="20.0" font-size="11.0" fill="#52514e">fall</text>
<rect x="791" y="10" width="9" height="12" fill="#008300"/>
<text x="750.6" y="20.0" font-size="11.0" fill="#52514e">rise</text>
<rect x="736" y="10" width="9" height="12" fill="none" stroke="#e34948" stroke-width="1.5"/>
<text x="14.0" y="38.0" font-size="11.0" fill="#898781">last 60 days · +2,161 stars · +498 forks · updated 2026-07-14</text>
<rect x="10" y="66" width="820" height="290" fill="none" stroke="#e1e0d9"/>
<rect x="10" y="384" width="820" height="86" fill="none" stroke="#e1e0d9"/>
<text x="38.0" y="490.0" font-size="11.0" fill="#898781" text-anchor="middle">2026-05</text>
<line x1="228.7" y1="66.0" x2="228.7" y2="356.0" stroke="#e1e0d9" stroke-width="1.0"/>
<line x1="228.7" y1="384.0" x2="228.7" y2="470.0" stroke="#e1e0d9" stroke-width="1.0"/>
<text x="235.5" y="490.0" font-size="11.0" fill="#898781" text-anchor="middle">2026-06</text>
<line x1="638.7" y1="66.0" x2="638.7" y2="356.0" stroke="#e1e0d9" stroke-width="1.0"/>
<line x1="638.7" y1="384.0" x2="638.7" y2="470.0" stroke="#e1e0d9" stroke-width="1.0"/>
<text x="645.5" y="490.0" font-size="11.0" fill="#898781" text-anchor="middle">2026-07</text>
<text x="14.0" y="58.0" font-size="11.0" fill="#52514e">BOLL(20,2)</text>
<text x="84.5" y="58.0" font-size="11.0" fill="#eda100">UP:46.1</text>
<text x="136.9" y="58.0" font-size="11.0" fill="#2a78d6">MID:29.7</text>
<text x="195.3" y="58.0" font-size="11.0" fill="#e87ba4">LOW:13.3</text>
<text x="253.7" y="58.0" font-size="11.0" fill="#4a3aa7">MA7:29</text>
<line x1="10.0" y1="219.5" x2="830.0" y2="219.5" stroke="#e1e0d9" stroke-width="1.0"/>
<text x="14.0" y="216.5" font-size="11.0" fill="#898781">50</text>
<line x1="10.0" y1="71.5" x2="830.0" y2="71.5" stroke="#e1e0d9" stroke-width="1.0"/>
<text x="14.0" y="68.5" font-size="11.0" fill="#898781">100</text>
<polyline points="16.8,79.2 30.5,84.7 44.2,86.7 57.8,87.6 71.5,148.6 85.2,174.8 98.8,178.0 112.5,185.2 126.2,191.7 139.8,199.2 153.5,199.8 167.2,199.7 180.8,200.4 194.5,199.5 208.2,199.2 221.8,199.0 235.5,196.4 249.2,198.3 262.8,197.7 276.5,198.6 290.2,206.0 303.8,206.1 317.5,205.6 331.2,207.0 344.8,215.6 358.5,208.2 372.2,208.3 385.8,209.5 399.5,209.4 413.2,207.5 426.8,207.5 440.5,207.3 454.2,205.3 467.8,205.8 481.5,205.3 495.2,205.8 508.8,209.6 522.5,209.4 536.2,206.1 549.8,206.3 563.5,207.4 577.2,208.4 590.8,208.4 604.5,211.0 618.2,219.6 631.8,232.3 645.5,232.9 659.2,232.8 672.8,235.1 686.5,235.2 700.2,235.5 713.8,240.2 727.5,235.2 741.2,232.2 754.8,231.6 768.5,232.5 782.2,234.2 795.8,229.1 809.5,236.8 823.2,231.2" fill="none" stroke="#eda100" stroke-width="1.5" stroke-linejoin="round" stroke-linecap="round"/>
<polyline points="16.8,205.3 30.5,211.2 44.2,214.3 57.8,215.2 71.5,225.0 85.2,231.6 98.8,234.7 112.5,239.8 126.2,243.0 139.8,245.8 153.5,246.9 167.2,246.7 180.8,247.2 194.5,247.9 208.2,247.0 221.8,246.6 235.5,244.8 249.2,245.8 262.8,245.3 276.5,246.3 290.2,248.5 303.8,247.5 317.5,248.4 331.2,248.8 344.8,250.1 358.5,248.1 372.2,247.8 385.8,247.2 399.5,246.6 413.2,248.2 426.8,248.2 440.5,248.1 454.2,250.6 467.8,250.3 481.5,252.2 495.2,253.3 508.8,254.9 522.5,257.1 536.2,256.1 549.8,256.8 563.5,258.9 577.2,260.4 590.8,260.7 604.5,261.7 618.2,264.7 631.8,268.4 645.5,268.6 659.2,268.5 672.8,269.8 686.5,269.4 700.2,271.0 713.8,272.8 727.5,274.4 741.2,276.8 754.8,277.8 768.5,279.0 782.2,282.1 795.8,279.8 809.5,281.4 823.2,279.6" fill="none" stroke="#2a78d6" stroke-width="1.5" stroke-linejoin="round" stroke-linecap="round"/>
<polyline points="16.8,331.4 30.5,337.8 44.2,342.0 57.8,342.8 71.5,301.3 85.2,288.4 98.8,291.4 112.5,294.3 126.2,294.4 139.8,292.5 153.5,293.9 167.2,293.8 180.8,293.9 194.5,296.3 208.2,294.9 221.8,294.2 235.5,293.2 249.2,293.4 262.8,292.8 276.5,294.0 290.2,291.0 303.8,288.9 317.5,291.1 331.2,290.6 344.8,284.7 358.5,287.9 372.2,287.2 385.8,284.9 399.5,283.8 413.2,288.9 426.8,288.9 440.5,288.8 454.2,295.8 467.8,294.8 481.5,299.1 495.2,300.7 508.8,300.2 522.5,304.8 536.2,306.0 549.8,307.3 563.5,310.3 577.2,312.3 590.8,312.9 604.5,312.4 618.2,309.7 631.8,304.4 645.5,304.4 659.2,304.2 672.8,304.6 686.5,303.6 700.2,306.5 713.8,305.4 727.5,313.6 741.2,321.4 754.8,324.0 768.5,325.5 782.2,330.1 795.8,330.4 809.5,325.9 823.2,328.0" fill="none" stroke="#e87ba4" stroke-width="1.5" stroke-linejoin="round" stroke-linecap="round"/>
<polyline points="16.8,242.0 30.5,242.9 44.2,242.3 57.8,237.3 71.5,231.3 85.2,230.5 98.8,234.3 112.5,246.1 126.2,245.0 139.8,244.4 153.5,250.0 167.2,258.3 180.8,258.0 194.5,260.7 208.2,255.3 221.8,253.8 235.5,249.4 249.2,247.3 262.8,247.0 276.5,249.1 290.2,243.5 303.8,244.1 317.5,247.3 331.2,248.8 344.8,243.5 358.5,238.4 372.2,238.4 385.8,242.3 399.5,242.3 413.2,244.1 426.8,248.2 440.5,252.4 454.2,265.1 467.8,267.8 481.5,269.8 495.2,272.8 508.8,268.6 522.5,272.8 536.2,269.8 549.8,266.9 563.5,268.1 577.2,267.2 590.8,268.6 604.5,268.1 618.2,265.1 631.8,273.7 645.5,272.5 659.2,269.8 672.8,269.5 686.5,268.9 700.2,274.9 713.8,275.8 727.5,282.6 741.2,290.9 754.8,296.5 768.5,299.1 782.2,305.1 795.8,297.7 809.5,294.4 823.2,281.7" fill="none" stroke="#4a3aa7" stroke-width="1.5" stroke-linejoin="round" stroke-linecap="round"/>
<rect x="13.1" y="198.8" width="7.5" height="38.5" fill="none" stroke="#e34948" stroke-width="1.3"/>
<rect x="26.7" y="198.8" width="7.5" height="71.1" fill="#008300"/>
<rect x="40.4" y="255.0" width="7.5" height="14.8" fill="none" stroke="#e34948" stroke-width="1.3"/>
<rect x="54.1" y="222.5" width="7.5" height="32.6" fill="none" stroke="#e34948" stroke-width="1.3"/>
<rect x="67.7" y="184.0" width="7.5" height="38.5" fill="none" stroke="#e34948" stroke-width="1.3"/>
<rect x="81.4" y="184.0" width="7.5" height="62.2" fill="#008300"/>
<rect x="95.1" y="246.1" width="7.5" height="17.8" fill="#008300"/>
<rect x="108.7" y="263.9" width="7.5" height="17.8" fill="#008300"/>
<rect x="122.4" y="260.9" width="7.5" height="20.7" fill="none" stroke="#e34948" stroke-width="1.3"/>
<rect x="136.1" y="252.1" width="7.5" height="8.9" fill="none" stroke="#e34948" stroke-width="1.3"/>
<rect x="149.7" y="252.1" width="7.5" height="8.9" fill="#008300"/>
<rect x="163.4" y="243.2" width="7.5" height="17.8" fill="none" stroke="#e34948" stroke-width="1.3"/>
<rect x="177.1" y="243.2" width="7.5" height="1.2" fill="#898781"/>
<rect x="190.7" y="243.2" width="7.5" height="38.5" fill="#008300"/>
<rect x="204.4" y="246.1" width="7.5" height="35.5" fill="none" stroke="#e34948" stroke-width="1.3"/>
<rect x="218.1" y="246.1" width="7.5" height="3.0" fill="#008300"/>
<rect x="231.7" y="222.5" width="7.5" height="26.6" fill="none" stroke="#e34948" stroke-width="1.3"/>
<rect x="245.4" y="222.5" width="7.5" height="23.7" fill="#008300"/>
<rect x="259.1" y="240.2" width="7.5" height="5.9" fill="none" stroke="#e34948" stroke-width="1.3"/>
<rect x="272.7" y="240.2" width="7.5" height="17.8" fill="#008300"/>
<rect x="286.4" y="243.2" width="7.5" height="14.8" fill="none" stroke="#e34948" stroke-width="1.3"/>
<rect x="300.1" y="243.2" width="7.5" height="5.9" fill="#008300"/>
<rect x="313.7" y="249.1" width="7.5" height="23.7" fill="#008300"/>
<rect x="327.4" y="231.3" width="7.5" height="41.5" fill="none" stroke="#e34948" stroke-width="1.3"/>
<rect x="341.1" y="210.6" width="7.5" height="20.7" fill="none" stroke="#e34948" stroke-width="1.3"/>
<rect x="354.7" y="204.7" width="7.5" height="5.9" fill="none" stroke="#e34948" stroke-width="1.3"/>
<rect x="368.4" y="204.7" width="7.5" height="53.3" fill="#008300"/>
<rect x="382.1" y="258.0" width="7.5" height="11.8" fill="#008300"/>
<rect x="395.7" y="249.1" width="7.5" height="20.7" fill="none" stroke="#e34948" stroke-width="1.3"/>
<rect x="409.4" y="249.1" width="7.5" height="35.5" fill="#008300"/>
<rect x="423.1" y="260.9" width="7.5" height="23.7" fill="none" stroke="#e34948" stroke-width="1.3"/>
<rect x="436.7" y="240.2" width="7.5" height="20.7" fill="none" stroke="#e34948" stroke-width="1.3"/>
<rect x="450.4" y="240.2" width="7.5" height="53.3" fill="#008300"/>
<rect x="464.1" y="275.8" width="7.5" height="17.8" fill="none" stroke="#e34948" stroke-width="1.3"/>
<rect x="477.7" y="275.8" width="7.5" height="8.9" fill="#008300"/>
<rect x="491.4" y="269.8" width="7.5" height="14.8" fill="none" stroke="#e34948" stroke-width="1.3"/>
<rect x="505.1" y="255.0" width="7.5" height="14.8" fill="none" stroke="#e34948" stroke-width="1.3"/>
<rect x="518.7" y="255.0" width="7.5" height="35.5" fill="#008300"/>
<rect x="532.4" y="219.5" width="7.5" height="71.1" fill="none" stroke="#e34948" stroke-width="1.3"/>
<rect x="546.1" y="219.5" width="7.5" height="53.3" fill="#008300"/>
<rect x="559.7" y="272.8" width="7.5" height="11.8" fill="#008300"/>
<rect x="573.4" y="278.7" width="7.5" height="5.9" fill="none" stroke="#e34948" stroke-width="1.3"/>
<rect x="587.1" y="278.7" width="7.5" height="1.2" fill="#898781"/>
<rect x="600.7" y="252.1" width="7.5" height="26.6" fill="none" stroke="#e34948" stroke-width="1.3"/>
<rect x="614.4" y="252.1" width="7.5" height="17.8" fill="#008300"/>
<rect x="628.1" y="269.8" width="7.5" height="8.9" fill="#008300"/>
<rect x="641.7" y="263.9" width="7.5" height="14.8" fill="none" stroke="#e34948" stroke-width="1.3"/>
<rect x="655.4" y="263.9" width="7.5" height="3.0" fill="#008300"/>
<rect x="669.1" y="266.9" width="7.5" height="8.9" fill="#008300"/>
<rect x="682.7" y="275.8" width="7.5" height="1.2" fill="#898781"/>
<rect x="696.4" y="275.8" width="7.5" height="17.8" fill="#008300"/>
<rect x="710.1" y="275.8" width="7.5" height="17.8" fill="none" stroke="#e34948" stroke-width="1.3"/>
<rect x="723.7" y="275.8" width="7.5" height="50.3" fill="#008300"/>
<rect x="737.4" y="323.1" width="7.5" height="3.0" fill="none" stroke="#e34948" stroke-width="1.3"/>
<rect x="751.1" y="305.4" width="7.5" height="17.8" fill="none" stroke="#e34948" stroke-width="1.3"/>
<rect x="764.7" y="293.5" width="7.5" height="11.8" fill="none" stroke="#e34948" stroke-width="1.3"/>
<rect x="778.4" y="293.5" width="7.5" height="23.7" fill="#008300"/>
<rect x="792.1" y="243.2" width="7.5" height="74.0" fill="none" stroke="#e34948" stroke-width="1.3"/>
<rect x="805.7" y="243.2" width="7.5" height="8.9" fill="#008300"/>
<rect x="819.4" y="237.3" width="7.5" height="14.8" fill="none" stroke="#e34948" stroke-width="1.3"/>
<circle cx="71.5" cy="184.0" r="2" fill="#52514e"/>
<line x1="71.5" y1="184.0" x2="79.5" y2="184.0" stroke="#52514e" stroke-width="1.0"/>
<text x="82.5" y="188.0" font-size="11.0" fill="#52514e">62</text>
<circle cx="727.5" cy="326.1" r="2" fill="#52514e"/>
<line x1="727.5" y1="326.1" x2="719.5" y2="326.1" stroke="#52514e" stroke-width="1.0"/>
<text x="716.5" y="330.1" font-size="11.0" fill="#52514e" text-anchor="end">14</text>
<text x="14.0" y="376.0" font-size="11.0" fill="#52514e">VOL 0 forks</text>
<text x="90.6" y="376.0" font-size="11.0" fill="#eda100">MA5:2.6</text>
<text x="142.9" y="376.0" font-size="11.0" fill="#2a78d6">MA10:3.7</text>
<text x="14.0" y="395.0" font-size="10" fill="#898781">18</text>
<rect x="13.1" y="429.0" width="7.5" height="41.0" fill="none" stroke="#e34948" stroke-width="1.1"/>
<rect x="26.7" y="401.7" width="7.5" height="68.3" fill="#008300"/>
<rect x="40.4" y="415.3" width="7.5" height="54.7" fill="none" stroke="#e34948" stroke-width="1.1"/>
<rect x="54.1" y="424.4" width="7.5" height="45.6" fill="none" stroke="#e34948" stroke-width="1.1"/>
<rect x="67.7" y="442.7" width="7.5" height="27.3" fill="none" stroke="#e34948" stroke-width="1.1"/>
<rect x="81.4" y="442.7" width="7.5" height="27.3" fill="#008300"/>
<rect x="95.1" y="429.0" width="7.5" height="41.0" fill="#008300"/>
<rect x="108.7" y="429.0" width="7.5" height="41.0" fill="#008300"/>
<rect x="122.4" y="451.8" width="7.5" height="18.2" fill="none" stroke="#e34948" stroke-width="1.1"/>
<rect x="136.1" y="429.0" width="7.5" height="41.0" fill="none" stroke="#e34948" stroke-width="1.1"/>
<rect x="149.7" y="429.0" width="7.5" height="41.0" fill="#008300"/>
<rect x="163.4" y="410.8" width="7.5" height="59.2" fill="none" stroke="#e34948" stroke-width="1.1"/>
<rect x="177.1" y="419.9" width="7.5" height="50.1" fill="#898781"/>
<rect x="190.7" y="433.6" width="7.5" height="36.4" fill="#008300"/>
<rect x="204.4" y="442.7" width="7.5" height="27.3" fill="none" stroke="#e34948" stroke-width="1.1"/>
<rect x="218.1" y="429.0" width="7.5" height="41.0" fill="#008300"/>
<rect x="231.7" y="419.9" width="7.5" height="50.1" fill="none" stroke="#e34948" stroke-width="1.1"/>
<rect x="245.4" y="392.6" width="7.5" height="77.4" fill="#008300"/>
<rect x="259.1" y="424.4" width="7.5" height="45.6" fill="none" stroke="#e34948" stroke-width="1.1"/>
<rect x="272.7" y="410.8" width="7.5" height="59.2" fill="#008300"/>
<rect x="286.4" y="438.1" width="7.5" height="31.9" fill="none" stroke="#e34948" stroke-width="1.1"/>
<rect x="300.1" y="442.7" width="7.5" height="27.3" fill="#008300"/>
<rect x="313.7" y="429.0" width="7.5" height="41.0" fill="#008300"/>
<rect x="327.4" y="388.0" width="7.5" height="82.0" fill="none" stroke="#e34948" stroke-width="1.1"/>
<rect x="341.1" y="410.8" width="7.5" height="59.2" fill="none" stroke="#e34948" stroke-width="1.1"/>
<rect x="354.7" y="433.6" width="7.5" height="36.4" fill="none" stroke="#e34948" stroke-width="1.1"/>
<rect x="368.4" y="424.4" width="7.5" height="45.6" fill="#008300"/>
<rect x="382.1" y="415.3" width="7.5" height="54.7" fill="#008300"/>
<rect x="395.7" y="397.1" width="7.5" height="72.9" fill="none" stroke="#e34948" stroke-width="1.1"/>
<rect x="409.4" y="433.6" width="7.5" height="36.4" fill="#008300"/>
<rect x="423.1" y="415.3" width="7.5" height="54.7" fill="none" stroke="#e34948" stroke-width="1.1"/>
<rect x="436.7" y="438.1" width="7.5" height="31.9" fill="none" stroke="#e34948" stroke-width="1.1"/>
<rect x="450.4" y="429.0" width="7.5" height="41.0" fill="#008300"/>
<rect x="464.1" y="429.0" width="7.5" height="41.0" fill="none" stroke="#e34948" stroke-width="1.1"/>
<rect x="477.7" y="438.1" width="7.5" height="31.9" fill="#008300"/>
<rect x="491.4" y="433.6" width="7.5" height="36.4" fill="none" stroke="#e34948" stroke-width="1.1"/>
<rect x="505.1" y="442.7" width="7.5" height="27.3" fill="none" stroke="#e34948" stroke-width="1.1"/>
<rect x="518.7" y="419.9" width="7.5" height="50.1" fill="#008300"/>
<rect x="532.4" y="424.4" width="7.5" height="45.6" fill="none" stroke="#e34948" stroke-width="1.1"/>
<rect x="546.1" y="438.1" width="7.5" height="31.9" fill="#008300"/>
<rect x="559.7" y="433.6" width="7.5" height="36.4" fill="#008300"/>
<rect x="573.4" y="438.1" width="7.5" height="31.9" fill="none" stroke="#e34948" stroke-width="1.1"/>
<rect x="587.1" y="433.6" width="7.5" height="36.4" fill="#898781"/>
<rect x="600.7" y="442.7" width="7.5" height="27.3" fill="none" stroke="#e34948" stroke-width="1.1"/>
<rect x="614.4" y="419.9" width="7.5" height="50.1" fill="#008300"/>
<rect x="628.1" y="438.1" width="7.5" height="31.9" fill="#008300"/>
<rect x="641.7" y="447.2" width="7.5" height="22.8" fill="none" stroke="#e34948" stroke-width="1.1"/>
<rect x="655.4" y="438.1" width="7.5" height="31.9" fill="#008300"/>
<rect x="669.1" y="438.1" width="7.5" height="31.9" fill="#008300"/>
<rect x="682.7" y="442.7" width="7.5" height="27.3" fill="#898781"/>
<rect x="696.4" y="429.0" width="7.5" height="41.0" fill="#008300"/>
<rect x="710.1" y="433.6" width="7.5" height="36.4" fill="none" stroke="#e34948" stroke-width="1.1"/>
<rect x="723.7" y="460.9" width="7.5" height="9.1" fill="#008300"/>
<rect x="737.4" y="447.2" width="7.5" height="22.8" fill="none" stroke="#e34948" stroke-width="1.1"/>
<rect x="764.7" y="451.8" width="7.5" height="18.2" fill="none" stroke="#e34948" stroke-width="1.1"/>
<rect x="792.1" y="465.4" width="7.5" height="4.6" fill="none" stroke="#e34948" stroke-width="1.1"/>
<rect x="805.7" y="433.6" width="7.5" height="36.4" fill="#008300"/>
<polyline points="16.8,419.0 30.5,419.9 44.2,420.3 57.8,419.4 71.5,421.3 85.2,423.5 98.8,424.9 112.5,427.6 126.2,429.0 139.8,429.5 153.5,429.5 167.2,430.4 180.8,430.8 194.5,431.7 208.2,431.7 221.8,430.4 235.5,429.5 249.2,425.8 262.8,423.1 276.5,421.3 290.2,422.2 303.8,425.4 317.5,426.3 331.2,421.7 344.8,418.5 358.5,419.0 372.2,419.4 385.8,421.7 399.5,419.0 413.2,421.3 426.8,419.0 440.5,418.5 454.2,418.5 467.8,422.6 481.5,425.4 495.2,425.4 508.8,427.2 522.5,427.6 536.2,430.4 549.8,430.8 563.5,432.6 577.2,432.6 590.8,433.1 604.5,434.5 618.2,432.6 631.8,433.1 645.5,433.6 659.2,435.4 672.8,436.7 686.5,437.2 700.2,436.7 713.8,436.3 727.5,439.0 741.2,439.5 754.8,444.5 768.5,445.9 782.2,448.1 795.8,450.9 809.5,450.4 823.2,453.1" fill="none" stroke="#2a78d6" stroke-width="1.5" stroke-linejoin="round" stroke-linecap="round"/>
<polyline points="16.8,421.7 30.5,419.0 44.2,421.7 57.8,419.0 71.5,422.6 85.2,425.4 98.8,430.8 112.5,433.6 126.2,439.0 139.8,436.3 153.5,433.6 167.2,429.9 180.8,428.1 194.5,424.4 208.2,427.2 221.8,427.2 235.5,429.0 249.2,423.5 262.8,421.7 276.5,415.3 290.2,417.2 303.8,421.7 317.5,429.0 331.2,421.7 344.8,421.7 358.5,420.8 372.2,417.2 385.8,414.4 399.5,416.2 413.2,420.8 426.8,417.2 440.5,419.9 454.2,422.6 467.8,429.0 481.5,429.9 495.2,433.6 508.8,434.5 522.5,432.6 536.2,431.7 549.8,431.7 563.5,431.7 577.2,430.8 590.8,433.6 604.5,437.2 618.2,433.6 631.8,434.5 645.5,436.3 659.2,437.2 672.8,436.3 686.5,440.8 700.2,439.0 713.8,436.3 727.5,440.8 741.2,442.7 754.8,448.1 768.5,452.7 782.2,460.0 795.8,460.9 809.5,458.2 823.2,458.2" fill="none" stroke="#eda100" stroke-width="1.5" stroke-linejoin="round" stroke-linecap="round"/>
</svg>