<svg xmlns="http://www.w3.org/2000/svg" viewBox="0 0 840 496" width="840" height="496" font-family="-apple-system,&#39;Segoe UI&#39;,system-ui,sans-serif" role="img" aria-label="TheAlgorithms/Python candlestick chart">
<text x="14.0" y="20.0" font-size="15" fill="#ffffff" font-weight="650">TheAlgorithms/Python</text>
<text x="183.0" y="20.0" font-size="11.5" fill="#c3c2b7">daily · new stars, volume = new forks</text>
<text x="805.8" y="20.0" font-size="11.0" fill="#c3c2b7">fall</text>
<rect x="791" y="10" width="9" height="12" fill="#008300"/>
<text x="750.6" y="20.0" font-size="11.0" fill="#c3c2b7">rise</text>
<rect x="736" y="10" width="9" height="12" fill="none" stroke="#e66767" stroke-width="1.5"/>
<text x="14.0" y="38.0" font-size="11.0" fill="#898781">last 60 days · +2,187 stars · +533 forks · updated 2026-07-10</text>
<rect x="10" y="66" width="820" height="290" fill="none" stroke="#2c2c2a"/>
<rect x="10" y="384" width="820" height="86" fill="none" stroke="#2c2c2a"/>
<text x="38.0" y="490.0" font-size="11.0" fill="#898781" text-anchor="middle">2026-05</text>
<line x1="283.3" y1="66.0" x2="283.3" y2="356.0" stroke="#2c2c2a" stroke-width="1.0"/>
<line x1="283.3" y1="384.0" x2="283.3" y2="470.0" stroke="#2c2c2a" stroke-width="1.0"/>
<text x="290.2" y="490.0" font-size="11.0" fill="#898781" text-anchor="middle">2026-06</text>
<line x1="693.3" y1="66.0" x2="693.3" y2="356.0" stroke="#2c2c2a" stroke-width="1.0"/>
<line x1="693.3" y1="384.0" x2="693.3" y2="470.0" stroke="#2c2c2a" stroke-width="1.0"/>
<text x="700.2" y="490.0" font-size="11.0" fill="#898781" text-anchor="middle">2026-07</text>
<text x="14.0" y="58.0" font-size="11.0" fill="#c3c2b7">BOLL(20,2)</text>
<text x="84.5" y="58.0" font-size="11.0" fill="#c98500">UP:45.6</text>
<text x="136.9" y="58.0" font-size="11.0" fill="#3987e5">MID:29.9</text>
<text x="195.3" y="58.0" font-size="11.0" fill="#d55181">LOW:14.2</text>
<text x="253.7" y="58.0" font-size="11.0" fill="#9085e9">MA7:23.1</text>
<line x1="10.0" y1="221.7" x2="830.0" y2="221.7" stroke="#2c2c2a" stroke-width="1.0"/>
<text x="14.0" y="218.7" font-size="11.0" fill="#898781">50</text>
<line x1="10.0" y1="76.4" x2="830.0" y2="76.4" stroke="#2c2c2a" stroke-width="1.0"/>
<text x="14.0" y="73.4" font-size="11.0" fill="#898781">100</text>
<polyline points="16.8,79.2 30.5,82.9 44.2,83.1 57.8,83.1 71.5,83.9 85.2,89.3 98.8,91.3 112.5,92.2 126.2,152.2 139.8,177.9 153.5,181.0 167.2,188.1 180.8,194.4 194.5,201.8 208.2,202.4 221.8,202.3 235.5,203.0 249.2,202.1 262.8,201.8 276.5,201.6 290.2,199.1 303.8,200.9 317.5,200.3 331.2,201.2 344.8,208.5 358.5,208.6 372.2,208.1 385.8,209.4 399.5,217.9 413.2,210.7 426.8,210.8 440.5,211.9 454.2,211.8 467.8,210.0 481.5,210.0 495.2,209.7 508.8,207.8 522.5,208.3 536.2,207.8 549.8,208.3 563.5,212.0 577.2,211.8 590.8,208.6 604.5,208.8 618.2,209.9 631.8,210.8 645.5,210.8 659.2,213.4 672.8,221.8 686.5,234.3 700.2,234.9 713.8,234.8 727.5,237.0 741.2,237.1 754.8,237.5 768.5,242.1 782.2,237.2 795.8,234.2 809.5,233.6 823.2,234.5" fill="none" stroke="#c98500" stroke-width="1.5" stroke-linejoin="round" stroke-linecap="round"/>
<polyline points="16.8,202.1 30.5,205.2 44.2,207.2 57.8,207.2 71.5,207.8 85.2,213.6 98.8,216.6 112.5,217.5 126.2,227.1 139.8,233.6 153.5,236.7 167.2,241.6 180.8,244.8 194.5,247.6 208.2,248.6 221.8,248.5 235.5,248.9 249.2,249.6 262.8,248.8 276.5,248.3 290.2,246.6 303.8,247.6 317.5,247.0 331.2,248.0 344.8,250.2 358.5,249.2 372.2,250.1 385.8,250.5 399.5,251.8 413.2,249.8 426.8,249.5 440.5,248.9 454.2,248.3 467.8,249.9 481.5,249.9 495.2,249.8 508.8,252.3 522.5,252.0 536.2,253.9 549.8,254.9 563.5,256.5 577.2,258.7 590.8,257.6 604.5,258.4 618.2,260.4 631.8,261.8 645.5,262.1 659.2,263.2 672.8,266.1 686.5,269.7 700.2,270.0 713.8,269.8 727.5,271.2 741.2,270.7 754.8,272.3 768.5,274.1 782.2,275.7 795.8,278.0 809.5,279.0 823.2,280.2" fill="none" stroke="#3987e5" stroke-width="1.5" stroke-linejoin="round" stroke-linecap="round"/>
<polyline points="16.8,325.0 30.5,327.4 44.2,331.2 57.8,331.2 71.5,331.6 85.2,337.8 98.8,342.0 112.5,342.8 126.2,302.1 139.8,289.4 153.5,292.4 167.2,295.2 180.8,295.3 194.5,293.4 208.2,294.8 221.8,294.7 235.5,294.8 249.2,297.2 262.8,295.7 276.5,295.1 290.2,294.1 303.8,294.3 317.5,293.7 331.2,294.9 344.8,292.0 358.5,289.8 372.2,292.0 385.8,291.6 399.5,285.7 413.2,288.9 426.8,288.2 440.5,285.9 454.2,284.8 467.8,289.9 481.5,289.9 495.2,289.8 508.8,296.7 522.5,295.7 536.2,299.9 549.8,301.5 563.5,301.0 577.2,305.5 590.8,306.7 604.5,307.9 618.2,310.9 631.8,312.9 645.5,313.5 659.2,313.0 672.8,310.3 686.5,305.1 700.2,305.1 713.8,304.9 727.5,305.3 741.2,304.3 754.8,307.2 768.5,306.1 782.2,314.1 795.8,321.7 809.5,324.4 823.2,325.8" fill="none" stroke="#d55181" stroke-width="1.5" stroke-linejoin="round" stroke-linecap="round"/>
<polyline points="16.8,254.0 30.5,252.0 44.2,252.8 57.8,253.4 71.5,243.8 85.2,244.7 98.8,244.1 112.5,239.2 126.2,233.4 139.8,232.5 153.5,236.3 167.2,247.9 180.8,246.7 194.5,246.1 208.2,251.7 221.8,259.8 235.5,259.5 249.2,262.1 262.8,256.9 276.5,255.5 290.2,251.1 303.8,249.1 317.5,248.8 331.2,250.8 344.8,245.3 358.5,245.9 372.2,249.1 385.8,250.5 399.5,245.3 413.2,240.3 426.8,240.3 440.5,244.1 454.2,244.1 467.8,245.9 481.5,249.9 495.2,254.0 508.8,266.5 522.5,269.1 536.2,271.2 549.8,274.1 563.5,270.0 577.2,274.1 590.8,271.2 604.5,268.2 618.2,269.4 631.8,268.5 645.5,270.0 659.2,269.4 672.8,266.5 686.5,274.9 700.2,273.8 713.8,271.2 727.5,270.9 741.2,270.3 754.8,276.1 768.5,277.0 782.2,283.7 795.8,291.8 809.5,297.3 823.2,299.9" fill="none" stroke="#9085e9" stroke-width="1.5" stroke-linejoin="round" stroke-linecap="round"/>
<rect x="13.1" y="259.5" width="7.5" height="1.2" fill="#898781"/>
<rect x="26.7" y="227.5" width="7.5" height="32.0" fill="none" stroke="#e66767" stroke-width="1.3"/>
<rect x="40.4" y="227.5" width="7.5" height="26.2" fill="#008300"/>
<rect x="54.1" y="239.2" width="7.5" height="14.5" fill="none" stroke="#e66767" stroke-width="1.3"/>
<rect x="67.7" y="201.4" width="7.5" height="37.8" fill="none" stroke="#e66767" stroke-width="1.3"/>
<rect x="81.4" y="201.4" width="7.5" height="69.8" fill="#008300"/>
<rect x="95.1" y="256.6" width="7.5" height="14.5" fill="none" stroke="#e66767" stroke-width="1.3"/>
<rect x="108.7" y="224.6" width="7.5" height="32.0" fill="none" stroke="#e66767" stroke-width="1.3"/>
<rect x="122.4" y="186.8" width="7.5" height="37.8" fill="none" stroke="#e66767" stroke-width="1.3"/>
<rect x="136.1" y="186.8" width="7.5" height="61.1" fill="#008300"/>
<rect x="149.7" y="247.9" width="7.5" height="17.4" fill="#008300"/>
<rect x="163.4" y="265.3" width="7.5" height="17.4" fill="#008300"/>
<rect x="177.1" y="262.4" width="7.5" height="20.4" fill="none" stroke="#e66767" stroke-width="1.3"/>
<rect x="190.7" y="253.7" width="7.5" height="8.7" fill="none" stroke="#e66767" stroke-width="1.3"/>
<rect x="204.4" y="253.7" width="7.5" height="8.7" fill="#008300"/>
<rect x="218.1" y="245.0" width="7.5" height="17.4" fill="none" stroke="#e66767" stroke-width="1.3"/>
<rect x="231.7" y="245.0" width="7.5" height="1.2" fill="#898781"/>
<rect x="245.4" y="245.0" width="7.5" height="37.8" fill="#008300"/>
<rect x="259.1" y="247.9" width="7.5" height="34.9" fill="none" stroke="#e66767" stroke-width="1.3"/>
<rect x="272.7" y="247.9" width="7.5" height="2.9" fill="#008300"/>
<rect x="286.4" y="224.6" width="7.5" height="26.2" fill="none" stroke="#e66767" stroke-width="1.3"/>
<rect x="300.1" y="224.6" width="7.5" height="23.3" fill="#008300"/>
<rect x="313.7" y="242.1" width="7.5" height="5.8" fill="none" stroke="#e66767" stroke-width="1.3"/>
<rect x="327.4" y="242.1" width="7.5" height="17.4" fill="#008300"/>
<rect x="341.1" y="245.0" width="7.5" height="14.5" fill="none" stroke="#e66767" stroke-width="1.3"/>
<rect x="354.7" y="245.0" width="7.5" height="5.8" fill="#008300"/>
<rect x="368.4" y="250.8" width="7.5" height="23.3" fill="#008300"/>
<rect x="382.1" y="233.4" width="7.5" height="40.7" fill="none" stroke="#e66767" stroke-width="1.3"/>
<rect x="395.7" y="213.0" width="7.5" height="20.4" fill="none" stroke="#e66767" stroke-width="1.3"/>
<rect x="409.4" y="207.2" width="7.5" height="5.8" fill="none" stroke="#e66767" stroke-width="1.3"/>
<rect x="423.1" y="207.2" width="7.5" height="52.3" fill="#008300"/>
<rect x="436.7" y="259.5" width="7.5" height="11.6" fill="#008300"/>
<rect x="450.4" y="250.8" width="7.5" height="20.4" fill="none" stroke="#e66767" stroke-width="1.3"/>
<rect x="464.1" y="250.8" width="7.5" height="34.9" fill="#008300"/>
<rect x="477.7" y="262.4" width="7.5" height="23.3" fill="none" stroke="#e66767" stroke-width="1.3"/>
<rect x="491.4" y="242.1" width="7.5" height="20.4" fill="none" stroke="#e66767" stroke-width="1.3"/>
<rect x="505.1" y="242.1" width="7.5" height="52.3" fill="#008300"/>
<rect x="518.7" y="277.0" width="7.5" height="17.4" fill="none" stroke="#e66767" stroke-width="1.3"/>
<rect x="532.4" y="277.0" width="7.5" height="8.7" fill="#008300"/>
<rect x="546.1" y="271.2" width="7.5" height="14.5" fill="none" stroke="#e66767" stroke-width="1.3"/>
<rect x="559.7" y="256.6" width="7.5" height="14.5" fill="none" stroke="#e66767" stroke-width="1.3"/>
<rect x="573.4" y="256.6" width="7.5" height="34.9" fill="#008300"/>
<rect x="587.1" y="221.7" width="7.5" height="69.8" fill="none" stroke="#e66767" stroke-width="1.3"/>
<rect x="600.7" y="221.7" width="7.5" height="52.3" fill="#008300"/>
<rect x="614.4" y="274.1" width="7.5" height="11.6" fill="#008300"/>
<rect x="628.1" y="279.9" width="7.5" height="5.8" fill="none" stroke="#e66767" stroke-width="1.3"/>
<rect x="641.7" y="279.9" width="7.5" height="1.2" fill="#898781"/>
<rect x="655.4" y="253.7" width="7.5" height="26.2" fill="none" stroke="#e66767" stroke-width="1.3"/>
<rect x="669.1" y="253.7" width="7.5" height="17.4" fill="#008300"/>
<rect x="682.7" y="271.2" width="7.5" height="8.7" fill="#008300"/>
<rect x="696.4" y="265.3" width="7.5" height="14.5" fill="none" stroke="#e66767" stroke-width="1.3"/>
<rect x="710.1" y="265.3" width="7.5" height="2.9" fill="#008300"/>
<rect x="723.7" y="268.2" width="7.5" height="8.7" fill="#008300"/>
<rect x="737.4" y="277.0" width="7.5" height="1.2" fill="#898781"/>
<rect x="751.1" y="277.0" width="7.5" height="17.4" fill="#008300"/>
<rect x="764.7" y="277.0" width="7.5" height="17.4" fill="none" stroke="#e66767" stroke-width="1.3"/>
<rect x="778.4" y="277.0" width="7.5" height="49.4" fill="#008300"/>
<rect x="792.1" y="323.5" width="7.5" height="2.9" fill="none" stroke="#e66767" stroke-width="1.3"/>
<rect x="805.7" y="306.0" width="7.5" height="17.4" fill="none" stroke="#e66767" stroke-width="1.3"/>
<rect x="819.4" y="294.4" width="7.5" height="11.6" fill="none" stroke="#e66767" stroke-width="1.3"/>
<circle cx="126.2" cy="186.8" r="2" fill="#c3c2b7"/>
<line x1="126.2" y1="186.8" x2="134.2" y2="186.8" stroke="#c3c2b7" stroke-width="1.0"/>
<text x="137.2" y="190.8" font-size="11.0" fill="#c3c2b7">62</text>
<circle cx="782.2" cy="326.4" r="2" fill="#c3c2b7"/>
<line x1="782.2" y1="326.4" x2="774.2" y2="326.4" stroke="#c3c2b7" stroke-width="1.0"/>
<text x="771.2" y="330.4" font-size="11.0" fill="#c3c2b7" text-anchor="end">14</text>
<text x="14.0" y="376.0" font-size="11.0" fill="#c3c2b7">VOL 4 forks</text>
<text x="90.6" y="376.0" font-size="11.0" fill="#c98500">MA5:3.8</text>
<text x="142.9" y="376.0" font-size="11.0" fill="#3987e5">MA10:5.3</text>
<text x="14.0" y="395.0" font-size="10" fill="#898781">18</text>
<rect x="13.1" y="415.3" width="7.5" height="54.7" fill="#898781"/>
<rect x="26.7" y="401.7" width="7.5" height="68.3" fill="none" stroke="#e66767" stroke-width="1.1"/>
<rect x="40.4" y="438.1" width="7.5" height="31.9" fill="#008300"/>
<rect x="54.1" y="424.4" width="7.5" height="45.6" fill="none" stroke="#e66767" stroke-width="1.1"/>
<rect x="67.7" y="429.0" width="7.5" height="41.0" fill="none" stroke="#e66767" stroke-width="1.1"/>
<rect x="81.4" y="401.7" width="7.5" height="68.3" fill="#008300"/>
<rect x="95.1" y="415.3" width="7.5" height="54.7" fill="none" stroke="#e66767" stroke-width="1.1"/>
<rect x="108.7" y="424.4" width="7.5" height="45.6" fill="none" stroke="#e66767" stroke-width="1.1"/>
<rect x="122.4" y="442.7" width="7.5" height="27.3" fill="none" stroke="#e66767" stroke-width="1.1"/>
<rect x="136.1" y="442.7" width="7.5" height="27.3" fill="#008300"/>
<rect x="149.7" y="429.0" width="7.5" height="41.0" fill="#008300"/>
<rect x="163.4" y="429.0" width="7.5" height="41.0" fill="#008300"/>
<rect x="177.1" y="451.8" width="7.5" height="18.2" fill="none" stroke="#e66767" stroke-width="1.1"/>
<rect x="190.7" y="429.0" width="7.5" height="41.0" fill="none" stroke="#e66767" stroke-width="1.1"/>
<rect x="204.4" y="429.0" width="7.5" height="41.0" fill="#008300"/>
<rect x="218.1" y="410.8" width="7.5" height="59.2" fill="none" stroke="#e66767" stroke-width="1.1"/>
<rect x="231.7" y="419.9" width="7.5" height="50.1" fill="#898781"/>
<rect x="245.4" y="433.6" width="7.5" height="36.4" fill="#008300"/>
<rect x="259.1" y="442.7" width="7.5" height="27.3" fill="none" stroke="#e66767" stroke-width="1.1"/>
<rect x="272.7" y="429.0" width="7.5" height="41.0" fill="#008300"/>
<rect x="286.4" y="419.9" width="7.5" height="50.1" fill="none" stroke="#e66767" stroke-width="1.1"/>
<rect x="300.1" y="392.6" width="7.5" height="77.4" fill="#008300"/>
<rect x="313.7" y="424.4" width="7.5" height="45.6" fill="none" stroke="#e66767" stroke-width="1.1"/>
<rect x="327.4" y="410.8" width="7.5" height="59.2" fill="#008300"/>
<rect x="341.1" y="438.1" width="7.5" height="31.9" fill="none" stroke="#e66767" stroke-width="1.1"/>
<rect x="354.7" y="442.7" width="7.5" height="27.3" fill="#008300"/>
<rect x="368.4" y="429.0" width="7.5" height="41.0" fill="#008300"/>
<rect x="382.1" y="388.0" width="7.5" height="82.0" fill="none" stroke="#e66767" stroke-width="1.1"/>
<rect x="395.7" y="410.8" width="7.5" height="59.2" fill="none" stroke="#e66767" stroke-width="1.1"/>
<rect x="409.4" y="433.6" width="7.5" height="36.4" fill="none" stroke="#e66767" stroke-width="1.1"/>
<rect x="423.1" y="424.4" width="7.5" height="45.6" fill="#008300"/>
<rect x="436.7" y="415.3" width="7.5" height="54.7" fill="#008300"/>
<rect x="450.4" y="397.1" width="7.5" height="72.9" fill="none" stroke="#e66767" stroke-width="1.1"/>
<rect x="464.1" y="433.6" width="7.5" height="36.4" fill="#008300"/>
<rect x="477.7" y="415.3" width="7.5" height="54.7" fill="none" stroke="#e66767" stroke-width="1.1"/>
<rect x="491.4" y="438.1" width="7.5" height="31.9" fill="none" stroke="#e66767" stroke-width="1.1"/>
<rect x="505.1" y="429.0" width="7.5" height="41.0" fill="#008300"/>
<rect x="518.7" y="429.0" width="7.5" height="41.0" fill="none" stroke="#e66767" stroke-width="1.1"/>
<rect x="532.4" y="438.1" width="7.5" height="31.9" fill="#008300"/>
<rect x="546.1" y="433.6" width="7.5" height="36.4" fill="none" stroke="#e66767" stroke-width="1.1"/>
<rect x="559.7" y="442.7" width="7.5" height="27.3" fill="none" stroke="#e66767" stroke-width="1.1"/>
<rect x="573.4" y="419.9" width="7.5" height="50.1" fill="#008300"/>
<rect x="587.1" y="424.4" width="7.5" height="45.6" fill="none" stroke="#e66767" stroke-width="1.1"/>
<rect x="600.7" y="438.1" width="7.5" height="31.9" fill="#008300"/>
<rect x="614.4" y="433.6" width="7.5" height="36.4" fill="#008300"/>
<rect x="628.1" y="438.1" width="7.5" height="31.9" fill="none" stroke="#e66767" stroke-width="1.1"/>
<rect x="641.7" y="433.6" width="7.5" height="36.4" fill="#898781"/>
<rect x="655.4" y="442.7" width="7.5" height="27.3" fill="none" stroke="#e66767" stroke-width="1.1"/>
<rect x="669.1" y="419.9" width="7.5" height="50.1" fill="#008300"/>
<rect x="682.7" y="438.1" width="7.5" height="31.9" fill="#008300"/>
<rect x="696.4" y="447.2" width="7.5" height="22.8" fill="none" stroke="#e66767" stroke-width="1.1"/>
<rect x="710.1" y="438.1" width="7.5" height="31.9" fill="#008300"/>
<rect x="723.7" y="438.1" width="7.5" height="31.9" fill="#008300"/>
<rect x="737.4" y="442.7" width="7.5" height="27.3" fill="#898781"/>
<rect x="751.1" y="429.0" width="7.5" height="41.0" fill="#008300"/>
<rect x="764.7" y="433.6" width="7.5" height="36.4" fill="none" stroke="#e66767" stroke-width="1.1"/>
<rect x="778.4" y="460.9" width="7.5" height="9.1" fill="#008300"/>
<rect x="792.1" y="447.2" width="7.5" height="22.8" fill="none" stroke="#e66767" stroke-width="1.1"/>
<rect x="819.4" y="451.8" width="7.5" height="18.2" fill="none" stroke="#e66767" stroke-width="1.1"/>
<polyline points="16.8,416.2 30.5,414.4 44.2,414.9 57.8,417.6 71.5,419.0 85.2,419.9 98.8,420.3 112.5,419.4 126.2,421.3 139.8,423.5 153.5,424.9 167.2,427.6 180.8,429.0 194.5,429.5 208.2,429.5 221.8,430.4 235.5,430.8 249.2,431.7 262.8,431.7 276.5,430.4 290.2,429.5 303.8,425.8 317.5,423.1 331.2,421.3 344.8,422.2 358.5,425.4 372.2,426.3 385.8,421.7 399.5,418.5 413.2,419.0 426.8,419.4 440.5,421.7 454.2,419.0 467.8,421.3 481.5,419.0 495.2,418.5 508.8,418.5 522.5,422.6 536.2,425.4 549.8,425.4 563.5,427.2 577.2,427.6 590.8,430.4 604.5,430.8 618.2,432.6 631.8,432.6 645.5,433.1 659.2,434.5 672.8,432.6 686.5,433.1 700.2,433.6 713.8,435.4 727.5,436.7 741.2,437.2 754.8,436.7 768.5,436.3 782.2,439.0 795.8,439.5 809.5,444.5 823.2,445.9" fill="none" stroke="#3987e5" stroke-width="1.5" stroke-linejoin="round" stroke-linecap="round"/>
<polyline points="16.8,420.8 30.5,419.0 44.2,419.9 57.8,419.9 71.5,421.7 85.2,419.0 98.8,421.7 112.5,419.0 126.2,422.6 139.8,425.4 153.5,430.8 167.2,433.6 180.8,439.0 194.5,436.3 208.2,433.6 221.8,429.9 235.5,428.1 249.2,424.4 262.8,427.2 276.5,427.2 290.2,429.0 303.8,423.5 317.5,421.7 331.2,415.3 344.8,417.2 358.5,421.7 372.2,429.0 385.8,421.7 399.5,421.7 413.2,420.8 426.8,417.2 440.5,414.4 454.2,416.2 467.8,420.8 481.5,417.2 495.2,419.9 508.8,422.6 522.5,429.0 536.2,429.9 549.8,433.6 563.5,434.5 577.2,432.6 590.8,431.7 604.5,431.7 618.2,431.7 631.8,430.8 645.5,433.6 659.2,437.2 672.8,433.6 686.5,434.5 700.2,436.3 713.8,437.2 727.5,436.3 741.2,440.8 754.8,439.0 768.5,436.3 782.2,440.8 795.8,442.7 809.5,448.1 823.2,452.7" fill="none" stroke="#c98500" stroke-width="1.5" stroke-linejoin="round" stroke-linecap="round"/>
</svg>