<svg xmlns="http://www.w3.org/2000/svg" viewBox="0 0 840 496" width="840" height="496" font-family="-apple-system,&#39;Segoe UI&#39;,system-ui,sans-serif" role="img" aria-label="TheAlgorithms/Python candlestick chart">
<text x="14.0" y="20.0" font-size="15" fill="#ffffff" font-weight="650">TheAlgorithms/Python</text>
<text x="183.0" y="20.0" font-size="11.5" fill="#c3c2b7">daily · new stars, volume = new forks</text>
<text x="805.8" y="20.0" font-size="11.0" fill="#c3c2b7">fall</text>
<rect x="791" y="10" width="9" height="12" fill="#008300"/>
<text x="750.6" y="20.0" font-size="11.0" fill="#c3c2b7">rise</text>
<rect x="736" y="10" width="9" height="12" fill="none" stroke="#e66767" stroke-width="1.5"/>
<text x="14.0" y="38.0" font-size="11.0" fill="#898781">last 60 days · +2,213 stars · +550 forks · updated 2026-07-08</text>
<rect x="10" y="66" width="820" height="290" fill="none" stroke="#2c2c2a"/>
<rect x="10" y="384" width="820" height="86" fill="none" stroke="#2c2c2a"/>
<text x="38.0" y="490.0" font-size="11.0" fill="#898781" text-anchor="middle">2026-05</text>
<line x1="310.7" y1="66.0" x2="310.7" y2="356.0" stroke="#2c2c2a" stroke-width="1.0"/>
<line x1="310.7" y1="384.0" x2="310.7" y2="470.0" stroke="#2c2c2a" stroke-width="1.0"/>
<text x="317.5" y="490.0" font-size="11.0" fill="#898781" text-anchor="middle">2026-06</text>
<line x1="720.7" y1="66.0" x2="720.7" y2="356.0" stroke="#2c2c2a" stroke-width="1.0"/>
<line x1="720.7" y1="384.0" x2="720.7" y2="470.0" stroke="#2c2c2a" stroke-width="1.0"/>
<text x="727.5" y="490.0" font-size="11.0" fill="#898781" text-anchor="middle">2026-07</text>
<text x="14.0" y="58.0" font-size="11.0" fill="#c3c2b7">BOLL(20,2)</text>
<text x="84.5" y="58.0" font-size="11.0" fill="#c98500">UP:45.7</text>
<text x="136.9" y="58.0" font-size="11.0" fill="#3987e5">MID:30.6</text>
<text x="195.3" y="58.0" font-size="11.0" fill="#d55181">LOW:15.6</text>
<text x="253.7" y="58.0" font-size="11.0" fill="#9085e9">MA7:25.9</text>
<line x1="10.0" y1="222.4" x2="830.0" y2="222.4" stroke="#2c2c2a" stroke-width="1.0"/>
<text x="14.0" y="219.4" font-size="11.0" fill="#898781">50</text>
<line x1="10.0" y1="77.9" x2="830.0" y2="77.9" stroke="#2c2c2a" stroke-width="1.0"/>
<text x="14.0" y="74.9" font-size="11.0" fill="#898781">100</text>
<polyline points="16.8,79.2 30.5,81.3 44.2,80.7 57.8,84.4 71.5,84.6 85.2,84.6 98.8,85.4 112.5,90.7 126.2,92.7 139.8,93.6 153.5,153.2 167.2,178.8 180.8,181.9 194.5,188.9 208.2,195.2 221.8,202.6 235.5,203.2 249.2,203.1 262.8,203.8 276.5,202.9 290.2,202.6 303.8,202.4 317.5,199.9 331.2,201.7 344.8,201.1 358.5,202.0 372.2,209.2 385.8,209.3 399.5,208.9 413.2,210.2 426.8,218.6 440.5,211.4 454.2,211.5 467.8,212.6 481.5,212.5 495.2,210.7 508.8,210.7 522.5,210.5 536.2,208.6 549.8,209.0 563.5,208.6 577.2,209.0 590.8,212.7 604.5,212.6 618.2,209.3 631.8,209.5 645.5,210.6 659.2,211.6 672.8,211.5 686.5,214.1 700.2,222.5 713.8,235.0 727.5,235.5 741.2,235.4 754.8,237.6 768.5,237.7 782.2,238.0 795.8,242.6 809.5,237.8 823.2,234.8" fill="none" stroke="#c98500" stroke-width="1.5" stroke-linejoin="round" stroke-linecap="round"/>
<polyline points="16.8,197.1 30.5,201.6 44.2,202.9 57.8,205.9 71.5,207.9 85.2,207.9 98.8,208.5 112.5,214.3 126.2,217.3 139.8,218.2 153.5,227.8 167.2,234.3 180.8,237.3 194.5,242.2 208.2,245.4 221.8,248.1 235.5,249.1 249.2,249.0 262.8,249.4 276.5,250.2 290.2,249.3 303.8,248.9 317.5,247.1 331.2,248.1 344.8,247.6 358.5,248.6 372.2,250.7 385.8,249.7 399.5,250.6 413.2,251.0 426.8,252.3 440.5,250.3 454.2,250.0 467.8,249.4 481.5,248.9 495.2,250.4 508.8,250.4 522.5,250.3 536.2,252.8 549.8,252.5 563.5,254.4 577.2,255.4 590.8,257.0 604.5,259.1 618.2,258.1 631.8,258.8 645.5,260.9 659.2,262.3 672.8,262.6 686.5,263.6 700.2,266.5 713.8,270.1 727.5,270.4 741.2,270.3 754.8,271.6 768.5,271.1 782.2,272.7 795.8,274.4 809.5,276.0 823.2,278.3" fill="none" stroke="#3987e5" stroke-width="1.5" stroke-linejoin="round" stroke-linecap="round"/>
<polyline points="16.8,315.0 30.5,321.9 44.2,325.1 57.8,327.5 71.5,331.3 85.2,331.3 98.8,331.7 112.5,337.9 126.2,342.0 139.8,342.8 153.5,302.3 167.2,289.7 180.8,292.7 194.5,295.5 208.2,295.5 221.8,293.7 235.5,295.1 249.2,294.9 262.8,295.1 276.5,297.4 290.2,296.0 303.8,295.3 317.5,294.4 331.2,294.6 344.8,294.0 358.5,295.2 372.2,292.3 385.8,290.1 399.5,292.3 413.2,291.9 426.8,286.1 440.5,289.2 454.2,288.5 467.8,286.2 481.5,285.2 495.2,290.2 508.8,290.2 522.5,290.1 536.2,296.9 549.8,295.9 563.5,300.1 577.2,301.7 590.8,301.2 604.5,305.7 618.2,306.9 631.8,308.1 645.5,311.1 659.2,313.0 672.8,313.6 686.5,313.1 700.2,310.5 713.8,305.3 727.5,305.3 741.2,305.1 754.8,305.5 768.5,304.5 782.2,307.4 795.8,306.3 809.5,314.3 823.2,321.9" fill="none" stroke="#d55181" stroke-width="1.5" stroke-linejoin="round" stroke-linecap="round"/>
<polyline points="16.8,237.1 30.5,245.8 44.2,254.5 57.8,252.5 71.5,253.3 85.2,253.9 98.8,244.4 112.5,245.2 126.2,244.7 139.8,239.8 153.5,234.0 167.2,233.1 180.8,236.9 194.5,248.4 208.2,247.3 221.8,246.7 235.5,252.2 249.2,260.3 262.8,260.0 276.5,262.6 290.2,257.4 303.8,255.9 317.5,251.6 331.2,249.6 344.8,249.3 358.5,251.3 372.2,245.8 385.8,246.4 399.5,249.6 413.2,251.0 426.8,245.8 440.5,240.9 454.2,240.9 467.8,244.7 481.5,244.7 495.2,246.4 508.8,250.4 522.5,254.5 536.2,266.9 549.8,269.5 563.5,271.6 577.2,274.4 590.8,270.4 604.5,274.4 618.2,271.6 631.8,268.7 645.5,269.8 659.2,269.0 672.8,270.4 686.5,269.8 700.2,266.9 713.8,275.3 727.5,274.2 741.2,271.6 754.8,271.3 768.5,270.7 782.2,276.5 795.8,277.3 809.5,284.0 823.2,292.1" fill="none" stroke="#9085e9" stroke-width="1.5" stroke-linejoin="round" stroke-linecap="round"/>
<rect x="13.1" y="265.8" width="7.5" height="2.9" fill="none" stroke="#e66767" stroke-width="1.3"/>
<rect x="26.7" y="260.0" width="7.5" height="5.8" fill="none" stroke="#e66767" stroke-width="1.3"/>
<rect x="40.4" y="260.0" width="7.5" height="1.2" fill="#898781"/>
<rect x="54.1" y="228.2" width="7.5" height="31.8" fill="none" stroke="#e66767" stroke-width="1.3"/>
<rect x="67.7" y="228.2" width="7.5" height="26.0" fill="#008300"/>
<rect x="81.4" y="239.8" width="7.5" height="14.5" fill="none" stroke="#e66767" stroke-width="1.3"/>
<rect x="95.1" y="202.2" width="7.5" height="37.6" fill="none" stroke="#e66767" stroke-width="1.3"/>
<rect x="108.7" y="202.2" width="7.5" height="69.4" fill="#008300"/>
<rect x="122.4" y="257.1" width="7.5" height="14.5" fill="none" stroke="#e66767" stroke-width="1.3"/>
<rect x="136.1" y="225.3" width="7.5" height="31.8" fill="none" stroke="#e66767" stroke-width="1.3"/>
<rect x="149.7" y="187.7" width="7.5" height="37.6" fill="none" stroke="#e66767" stroke-width="1.3"/>
<rect x="163.4" y="187.7" width="7.5" height="60.7" fill="#008300"/>
<rect x="177.1" y="248.4" width="7.5" height="17.3" fill="#008300"/>
<rect x="190.7" y="265.8" width="7.5" height="17.3" fill="#008300"/>
<rect x="204.4" y="262.9" width="7.5" height="20.2" fill="none" stroke="#e66767" stroke-width="1.3"/>
<rect x="218.1" y="254.2" width="7.5" height="8.7" fill="none" stroke="#e66767" stroke-width="1.3"/>
<rect x="231.7" y="254.2" width="7.5" height="8.7" fill="#008300"/>
<rect x="245.4" y="245.5" width="7.5" height="17.3" fill="none" stroke="#e66767" stroke-width="1.3"/>
<rect x="259.1" y="245.5" width="7.5" height="1.2" fill="#898781"/>
<rect x="272.7" y="245.5" width="7.5" height="37.6" fill="#008300"/>
<rect x="286.4" y="248.4" width="7.5" height="34.7" fill="none" stroke="#e66767" stroke-width="1.3"/>
<rect x="300.1" y="248.4" width="7.5" height="2.9" fill="#008300"/>
<rect x="313.7" y="225.3" width="7.5" height="26.0" fill="none" stroke="#e66767" stroke-width="1.3"/>
<rect x="327.4" y="225.3" width="7.5" height="23.1" fill="#008300"/>
<rect x="341.1" y="242.6" width="7.5" height="5.8" fill="none" stroke="#e66767" stroke-width="1.3"/>
<rect x="354.7" y="242.6" width="7.5" height="17.3" fill="#008300"/>
<rect x="368.4" y="245.5" width="7.5" height="14.5" fill="none" stroke="#e66767" stroke-width="1.3"/>
<rect x="382.1" y="245.5" width="7.5" height="5.8" fill="#008300"/>
<rect x="395.7" y="251.3" width="7.5" height="23.1" fill="#008300"/>
<rect x="409.4" y="234.0" width="7.5" height="40.5" fill="none" stroke="#e66767" stroke-width="1.3"/>
<rect x="423.1" y="213.7" width="7.5" height="20.2" fill="none" stroke="#e66767" stroke-width="1.3"/>
<rect x="436.7" y="207.9" width="7.5" height="5.8" fill="none" stroke="#e66767" stroke-width="1.3"/>
<rect x="450.4" y="207.9" width="7.5" height="52.0" fill="#008300"/>
<rect x="464.1" y="260.0" width="7.5" height="11.6" fill="#008300"/>
<rect x="477.7" y="251.3" width="7.5" height="20.2" fill="none" stroke="#e66767" stroke-width="1.3"/>
<rect x="491.4" y="251.3" width="7.5" height="34.7" fill="#008300"/>
<rect x="505.1" y="262.9" width="7.5" height="23.1" fill="none" stroke="#e66767" stroke-width="1.3"/>
<rect x="518.7" y="242.6" width="7.5" height="20.2" fill="none" stroke="#e66767" stroke-width="1.3"/>
<rect x="532.4" y="242.6" width="7.5" height="52.0" fill="#008300"/>
<rect x="546.1" y="277.3" width="7.5" height="17.3" fill="none" stroke="#e66767" stroke-width="1.3"/>
<rect x="559.7" y="277.3" width="7.5" height="8.7" fill="#008300"/>
<rect x="573.4" y="271.6" width="7.5" height="14.5" fill="none" stroke="#e66767" stroke-width="1.3"/>
<rect x="587.1" y="257.1" width="7.5" height="14.5" fill="none" stroke="#e66767" stroke-width="1.3"/>
<rect x="600.7" y="257.1" width="7.5" height="34.7" fill="#008300"/>
<rect x="614.4" y="222.4" width="7.5" height="69.4" fill="none" stroke="#e66767" stroke-width="1.3"/>
<rect x="628.1" y="222.4" width="7.5" height="52.0" fill="#008300"/>
<rect x="641.7" y="274.4" width="7.5" height="11.6" fill="#008300"/>
<rect x="655.4" y="280.2" width="7.5" height="5.8" fill="none" stroke="#e66767" stroke-width="1.3"/>
<rect x="669.1" y="280.2" width="7.5" height="1.2" fill="#898781"/>
<rect x="682.7" y="254.2" width="7.5" height="26.0" fill="none" stroke="#e66767" stroke-width="1.3"/>
<rect x="696.4" y="254.2" width="7.5" height="17.3" fill="#008300"/>
<rect x="710.1" y="271.6" width="7.5" height="8.7" fill="#008300"/>
<rect x="723.7" y="265.8" width="7.5" height="14.5" fill="none" stroke="#e66767" stroke-width="1.3"/>
<rect x="737.4" y="265.8" width="7.5" height="2.9" fill="#008300"/>
<rect x="751.1" y="268.7" width="7.5" height="8.7" fill="#008300"/>
<rect x="764.7" y="277.3" width="7.5" height="1.2" fill="#898781"/>
<rect x="778.4" y="277.3" width="7.5" height="17.3" fill="#008300"/>
<rect x="792.1" y="277.3" width="7.5" height="17.3" fill="none" stroke="#e66767" stroke-width="1.3"/>
<rect x="805.7" y="277.3" width="7.5" height="49.1" fill="#008300"/>
<rect x="819.4" y="323.6" width="7.5" height="2.9" fill="none" stroke="#e66767" stroke-width="1.3"/>
<circle cx="153.5" cy="187.7" r="2" fill="#c3c2b7"/>
<line x1="153.5" y1="187.7" x2="161.5" y2="187.7" stroke="#c3c2b7" stroke-width="1.0"/>
<text x="164.5" y="191.7" font-size="11.0" fill="#c3c2b7">62</text>
<circle cx="809.5" cy="326.5" r="2" fill="#c3c2b7"/>
<line x1="809.5" y1="326.5" x2="801.5" y2="326.5" stroke="#c3c2b7" stroke-width="1.0"/>
<text x="798.5" y="330.5" font-size="11.0" fill="#c3c2b7" text-anchor="end">14</text>
<text x="14.0" y="376.0" font-size="11.0" fill="#c3c2b7">VOL 5 forks</text>
<text x="90.6" y="376.0" font-size="11.0" fill="#c98500">MA5:6</text>
<text x="130.8" y="376.0" font-size="11.0" fill="#3987e5">MA10:6.7</text>
<text x="14.0" y="395.0" font-size="10" fill="#898781">18</text>
<rect x="13.1" y="424.4" width="7.5" height="45.6" fill="none" stroke="#e66767" stroke-width="1.1"/>
<rect x="26.7" y="419.9" width="7.5" height="50.1" fill="none" stroke="#e66767" stroke-width="1.1"/>
<rect x="40.4" y="415.3" width="7.5" height="54.7" fill="#898781"/>
<rect x="54.1" y="401.7" width="7.5" height="68.3" fill="none" stroke="#e66767" stroke-width="1.1"/>
<rect x="67.7" y="438.1" width="7.5" height="31.9" fill="#008300"/>
<rect x="81.4" y="424.4" width="7.5" height="45.6" fill="none" stroke="#e66767" stroke-width="1.1"/>
<rect x="95.1" y="429.0" width="7.5" height="41.0" fill="none" stroke="#e66767" stroke-width="1.1"/>
<rect x="108.7" y="401.7" width="7.5" height="68.3" fill="#008300"/>
<rect x="122.4" y="415.3" width="7.5" height="54.7" fill="none" stroke="#e66767" stroke-width="1.1"/>
<rect x="136.1" y="424.4" width="7.5" height="45.6" fill="none" stroke="#e66767" stroke-width="1.1"/>
<rect x="149.7" y="442.7" width="7.5" height="27.3" fill="none" stroke="#e66767" stroke-width="1.1"/>
<rect x="163.4" y="442.7" width="7.5" height="27.3" fill="#008300"/>
<rect x="177.1" y="429.0" width="7.5" height="41.0" fill="#008300"/>
<rect x="190.7" y="429.0" width="7.5" height="41.0" fill="#008300"/>
<rect x="204.4" y="451.8" width="7.5" height="18.2" fill="none" stroke="#e66767" stroke-width="1.1"/>
<rect x="218.1" y="429.0" width="7.5" height="41.0" fill="none" stroke="#e66767" stroke-width="1.1"/>
<rect x="231.7" y="429.0" width="7.5" height="41.0" fill="#008300"/>
<rect x="245.4" y="410.8" width="7.5" height="59.2" fill="none" stroke="#e66767" stroke-width="1.1"/>
<rect x="259.1" y="419.9" width="7.5" height="50.1" fill="#898781"/>
<rect x="272.7" y="433.6" width="7.5" height="36.4" fill="#008300"/>
<rect x="286.4" y="442.7" width="7.5" height="27.3" fill="none" stroke="#e66767" stroke-width="1.1"/>
<rect x="300.1" y="429.0" width="7.5" height="41.0" fill="#008300"/>
<rect x="313.7" y="419.9" width="7.5" height="50.1" fill="none" stroke="#e66767" stroke-width="1.1"/>
<rect x="327.4" y="392.6" width="7.5" height="77.4" fill="#008300"/>
<rect x="341.1" y="424.4" width="7.5" height="45.6" fill="none" stroke="#e66767" stroke-width="1.1"/>
<rect x="354.7" y="410.8" width="7.5" height="59.2" fill="#008300"/>
<rect x="368.4" y="438.1" width="7.5" height="31.9" fill="none" stroke="#e66767" stroke-width="1.1"/>
<rect x="382.1" y="442.7" width="7.5" height="27.3" fill="#008300"/>
<rect x="395.7" y="429.0" width="7.5" height="41.0" fill="#008300"/>
<rect x="409.4" y="388.0" width="7.5" height="82.0" fill="none" stroke="#e66767" stroke-width="1.1"/>
<rect x="423.1" y="410.8" width="7.5" height="59.2" fill="none" stroke="#e66767" stroke-width="1.1"/>
<rect x="436.7" y="433.6" width="7.5" height="36.4" fill="none" stroke="#e66767" stroke-width="1.1"/>
<rect x="450.4" y="424.4" width="7.5" height="45.6" fill="#008300"/>
<rect x="464.1" y="415.3" width="7.5" height="54.7" fill="#008300"/>
<rect x="477.7" y="397.1" width="7.5" height="72.9" fill="none" stroke="#e66767" stroke-width="1.1"/>
<rect x="491.4" y="433.6" width="7.5" height="36.4" fill="#008300"/>
<rect x="505.1" y="415.3" width="7.5" height="54.7" fill="none" stroke="#e66767" stroke-width="1.1"/>
<rect x="518.7" y="438.1" width="7.5" height="31.9" fill="none" stroke="#e66767" stroke-width="1.1"/>
<rect x="532.4" y="429.0" width="7.5" height="41.0" fill="#008300"/>
<rect x="546.1" y="429.0" width="7.5" height="41.0" fill="none" stroke="#e66767" stroke-width="1.1"/>
<rect x="559.7" y="438.1" width="7.5" height="31.9" fill="#008300"/>
<rect x="573.4" y="433.6" width="7.5" height="36.4" fill="none" stroke="#e66767" stroke-width="1.1"/>
<rect x="587.1" y="442.7" width="7.5" height="27.3" fill="none" stroke="#e66767" stroke-width="1.1"/>
<rect x="600.7" y="419.9" width="7.5" height="50.1" fill="#008300"/>
<rect x="614.4" y="424.4" width="7.5" height="45.6" fill="none" stroke="#e66767" stroke-width="1.1"/>
<rect x="628.1" y="438.1" width="7.5" height="31.9" fill="#008300"/>
<rect x="641.7" y="433.6" width="7.5" height="36.4" fill="#008300"/>
<rect x="655.4" y="438.1" width="7.5" height="31.9" fill="none" stroke="#e66767" stroke-width="1.1"/>
<rect x="669.1" y="433.6" width="7.5" height="36.4" fill="#898781"/>
<rect x="682.7" y="442.7" width="7.5" height="27.3" fill="none" stroke="#e66767" stroke-width="1.1"/>
<rect x="696.4" y="419.9" width="7.5" height="50.1" fill="#008300"/>
<rect x="710.1" y="438.1" width="7.5" height="31.9" fill="#008300"/>
<rect x="723.7" y="447.2" width="7.5" height="22.8" fill="none" stroke="#e66767" stroke-width="1.1"/>
<rect x="737.4" y="438.1" width="7.5" height="31.9" fill="#008300"/>
<rect x="751.1" y="438.1" width="7.5" height="31.9" fill="#008300"/>
<rect x="764.7" y="442.7" width="7.5" height="27.3" fill="#898781"/>
<rect x="778.4" y="429.0" width="7.5" height="41.0" fill="#008300"/>
<rect x="792.1" y="433.6" width="7.5" height="36.4" fill="none" stroke="#e66767" stroke-width="1.1"/>
<rect x="805.7" y="460.9" width="7.5" height="9.1" fill="#008300"/>
<rect x="819.4" y="447.2" width="7.5" height="22.8" fill="none" stroke="#e66767" stroke-width="1.1"/>
<polyline points="16.8,410.8 30.5,414.4 44.2,416.2 57.8,414.4 71.5,414.9 85.2,417.6 98.8,419.0 112.5,419.9 126.2,420.3 139.8,419.4 153.5,421.3 167.2,423.5 180.8,424.9 194.5,427.6 208.2,429.0 221.8,429.5 235.5,429.5 249.2,430.4 262.8,430.8 276.5,431.7 290.2,431.7 303.8,430.4 317.5,429.5 331.2,425.8 344.8,423.1 358.5,421.3 372.2,422.2 385.8,425.4 399.5,426.3 413.2,421.7 426.8,418.5 440.5,419.0 454.2,419.4 467.8,421.7 481.5,419.0 495.2,421.3 508.8,419.0 522.5,418.5 536.2,418.5 549.8,422.6 563.5,425.4 577.2,425.4 590.8,427.2 604.5,427.6 618.2,430.4 631.8,430.8 645.5,432.6 659.2,432.6 672.8,433.1 686.5,434.5 700.2,432.6 713.8,433.1 727.5,433.6 741.2,435.4 754.8,436.7 768.5,437.2 782.2,436.7 795.8,436.3 809.5,439.0 823.2,439.5" fill="none" stroke="#3987e5" stroke-width="1.5" stroke-linejoin="round" stroke-linecap="round"/>
<polyline points="16.8,415.3 30.5,416.2 44.2,420.8 57.8,419.0 71.5,419.9 85.2,419.9 98.8,421.7 112.5,419.0 126.2,421.7 139.8,419.0 153.5,422.6 167.2,425.4 180.8,430.8 194.5,433.6 208.2,439.0 221.8,436.3 235.5,433.6 249.2,429.9 262.8,428.1 276.5,424.4 290.2,427.2 303.8,427.2 317.5,429.0 331.2,423.5 344.8,421.7 358.5,415.3 372.2,417.2 385.8,421.7 399.5,429.0 413.2,421.7 426.8,421.7 440.5,420.8 454.2,417.2 467.8,414.4 481.5,416.2 495.2,420.8 508.8,417.2 522.5,419.9 536.2,422.6 549.8,429.0 563.5,429.9 577.2,433.6 590.8,434.5 604.5,432.6 618.2,431.7 631.8,431.7 645.5,431.7 659.2,430.8 672.8,433.6 686.5,437.2 700.2,433.6 713.8,434.5 727.5,436.3 741.2,437.2 754.8,436.3 768.5,440.8 782.2,439.0 795.8,436.3 809.5,440.8 823.2,442.7" fill="none" stroke="#c98500" stroke-width="1.5" stroke-linejoin="round" stroke-linecap="round"/>
</svg>