<svg xmlns="http://www.w3.org/2000/svg" viewBox="0 0 840 496" width="840" height="496" font-family="-apple-system,&#39;Segoe UI&#39;,system-ui,sans-serif" role="img" aria-label="TheAlgorithms/Python candlestick chart">
<text x="14.0" y="20.0" font-size="15" fill="#ffffff" font-weight="650">TheAlgorithms/Python</text>
<text x="183.0" y="20.0" font-size="11.5" fill="#c3c2b7">daily · new stars, volume = new forks</text>
<text x="805.8" y="20.0" font-size="11.0" fill="#c3c2b7">fall</text>
<rect x="791" y="10" width="9" height="12" fill="#008300"/>
<text x="750.6" y="20.0" font-size="11.0" fill="#c3c2b7">rise</text>
<rect x="736" y="10" width="9" height="12" fill="none" stroke="#e66767" stroke-width="1.5"/>
<text x="14.0" y="38.0" font-size="11.0" fill="#898781">last 60 days · +2,161 stars · +508 forks · updated 2026-07-13</text>
<rect x="10" y="66" width="820" height="290" fill="none" stroke="#2c2c2a"/>
<rect x="10" y="384" width="820" height="86" fill="none" stroke="#2c2c2a"/>
<text x="38.0" y="490.0" font-size="11.0" fill="#898781" text-anchor="middle">2026-05</text>
<line x1="242.3" y1="66.0" x2="242.3" y2="356.0" stroke="#2c2c2a" stroke-width="1.0"/>
<line x1="242.3" y1="384.0" x2="242.3" y2="470.0" stroke="#2c2c2a" stroke-width="1.0"/>
<text x="249.2" y="490.0" font-size="11.0" fill="#898781" text-anchor="middle">2026-06</text>
<line x1="652.3" y1="66.0" x2="652.3" y2="356.0" stroke="#2c2c2a" stroke-width="1.0"/>
<line x1="652.3" y1="384.0" x2="652.3" y2="470.0" stroke="#2c2c2a" stroke-width="1.0"/>
<text x="659.2" y="490.0" font-size="11.0" fill="#898781" text-anchor="middle">2026-07</text>
<text x="14.0" y="58.0" font-size="11.0" fill="#c3c2b7">BOLL(20,2)</text>
<text x="84.5" y="58.0" font-size="11.0" fill="#c98500">UP:44.1</text>
<text x="136.9" y="58.0" font-size="11.0" fill="#3987e5">MID:29.1</text>
<text x="195.3" y="58.0" font-size="11.0" fill="#d55181">LOW:14.1</text>
<text x="253.7" y="58.0" font-size="11.0" fill="#9085e9">MA7:24.7</text>
<line x1="10.0" y1="219.9" x2="830.0" y2="219.9" stroke="#2c2c2a" stroke-width="1.0"/>
<text x="14.0" y="216.9" font-size="11.0" fill="#898781">50</text>
<line x1="10.0" y1="72.3" x2="830.0" y2="72.3" stroke="#2c2c2a" stroke-width="1.0"/>
<text x="14.0" y="69.3" font-size="11.0" fill="#898781">100</text>
<polyline points="16.8,79.2 30.5,80.0 44.2,85.5 57.8,87.5 71.5,88.4 85.2,149.3 98.8,175.4 112.5,178.6 126.2,185.7 139.8,192.1 153.5,199.6 167.2,200.3 180.8,200.1 194.5,200.9 208.2,200.0 221.8,199.6 235.5,199.4 249.2,196.9 262.8,198.7 276.5,198.2 290.2,199.0 303.8,206.4 317.5,206.5 331.2,206.1 344.8,207.4 358.5,216.0 372.2,208.7 385.8,208.8 399.5,209.9 413.2,209.8 426.8,208.0 440.5,208.0 454.2,207.7 467.8,205.8 481.5,206.2 495.2,205.8 508.8,206.2 522.5,210.0 536.2,209.8 549.8,206.5 563.5,206.7 577.2,207.8 590.8,208.8 604.5,208.8 618.2,211.4 631.8,220.0 645.5,232.7 659.2,233.3 672.8,233.1 686.5,235.4 700.2,235.5 713.8,235.9 727.5,240.5 741.2,235.6 754.8,232.6 768.5,232.0 782.2,232.8 795.8,234.5 809.5,229.4 823.2,237.2" fill="none" stroke="#c98500" stroke-width="1.5" stroke-linejoin="round" stroke-linecap="round"/>
<polyline points="16.8,205.1 30.5,205.7 44.2,211.6 57.8,214.7 71.5,215.6 85.2,225.3 98.8,232.0 112.5,235.1 126.2,240.1 139.8,243.3 153.5,246.2 167.2,247.2 180.8,247.0 194.5,247.5 208.2,248.2 221.8,247.3 235.5,246.9 249.2,245.1 262.8,246.2 276.5,245.6 290.2,246.6 303.8,248.8 317.5,247.8 331.2,248.7 344.8,249.1 358.5,250.4 372.2,248.4 385.8,248.1 399.5,247.5 413.2,246.9 426.8,248.5 440.5,248.5 454.2,248.4 467.8,250.9 481.5,250.6 495.2,252.5 508.8,253.5 522.5,255.2 536.2,257.4 549.8,256.3 563.5,257.1 577.2,259.1 590.8,260.6 604.5,260.9 618.2,261.9 631.8,264.9 645.5,268.6 659.2,268.9 672.8,268.7 686.5,270.1 700.2,269.6 713.8,271.2 727.5,273.0 741.2,274.6 754.8,277.0 768.5,278.0 782.2,279.2 795.8,282.3 809.5,279.9 823.2,281.6" fill="none" stroke="#3987e5" stroke-width="1.5" stroke-linejoin="round" stroke-linecap="round"/>
<polyline points="16.8,331.1 30.5,331.4 44.2,337.8 57.8,342.0 71.5,342.8 85.2,301.4 98.8,288.6 112.5,291.6 126.2,294.5 139.8,294.6 153.5,292.7 167.2,294.1 180.8,293.9 194.5,294.1 208.2,296.5 221.8,295.0 235.5,294.4 249.2,293.4 262.8,293.6 276.5,293.0 290.2,294.2 303.8,291.2 317.5,289.0 331.2,291.3 344.8,290.8 358.5,284.9 372.2,288.1 385.8,287.4 399.5,285.1 413.2,284.0 426.8,289.1 440.5,289.1 454.2,289.0 467.8,296.0 481.5,294.9 495.2,299.2 508.8,300.8 522.5,300.3 536.2,304.9 549.8,306.1 563.5,307.4 577.2,310.4 590.8,312.4 604.5,313.0 618.2,312.5 631.8,309.8 645.5,304.5 659.2,304.5 672.8,304.4 686.5,304.7 700.2,303.7 713.8,306.6 727.5,305.5 741.2,313.7 754.8,321.4 768.5,324.1 782.2,325.6 795.8,330.1 809.5,330.5 823.2,326.0" fill="none" stroke="#d55181" stroke-width="1.5" stroke-linejoin="round" stroke-linecap="round"/>
<polyline points="16.8,252.1 30.5,242.3 44.2,243.2 57.8,242.6 71.5,237.6 85.2,231.7 98.8,230.8 112.5,234.6 126.2,246.4 139.8,245.3 153.5,244.7 167.2,250.3 180.8,258.6 194.5,258.3 208.2,260.9 221.8,255.6 235.5,254.1 249.2,249.7 262.8,247.6 276.5,247.3 290.2,249.4 303.8,243.8 317.5,244.4 331.2,247.6 344.8,249.1 358.5,243.8 372.2,238.8 385.8,238.8 399.5,242.6 413.2,242.6 426.8,244.4 440.5,248.5 454.2,252.6 467.8,265.3 481.5,268.0 495.2,270.1 508.8,273.0 522.5,268.9 536.2,273.0 549.8,270.1 563.5,267.1 577.2,268.3 590.8,267.4 604.5,268.9 618.2,268.3 631.8,265.3 645.5,273.9 659.2,272.7 672.8,270.1 686.5,269.8 700.2,269.2 713.8,275.1 727.5,276.0 741.2,282.8 754.8,291.0 768.5,296.6 782.2,299.3 795.8,305.2 809.5,297.8 823.2,294.6" fill="none" stroke="#9085e9" stroke-width="1.5" stroke-linejoin="round" stroke-linecap="round"/>
<rect x="13.1" y="237.6" width="7.5" height="14.8" fill="none" stroke="#e66767" stroke-width="1.3"/>
<rect x="26.7" y="199.2" width="7.5" height="38.4" fill="none" stroke="#e66767" stroke-width="1.3"/>
<rect x="40.4" y="199.2" width="7.5" height="70.8" fill="#008300"/>
<rect x="54.1" y="255.3" width="7.5" height="14.8" fill="none" stroke="#e66767" stroke-width="1.3"/>
<rect x="67.7" y="222.8" width="7.5" height="32.5" fill="none" stroke="#e66767" stroke-width="1.3"/>
<rect x="81.4" y="184.5" width="7.5" height="38.4" fill="none" stroke="#e66767" stroke-width="1.3"/>
<rect x="95.1" y="184.5" width="7.5" height="62.0" fill="#008300"/>
<rect x="108.7" y="246.4" width="7.5" height="17.7" fill="#008300"/>
<rect x="122.4" y="264.2" width="7.5" height="17.7" fill="#008300"/>
<rect x="136.1" y="261.2" width="7.5" height="20.7" fill="none" stroke="#e66767" stroke-width="1.3"/>
<rect x="149.7" y="252.4" width="7.5" height="8.9" fill="none" stroke="#e66767" stroke-width="1.3"/>
<rect x="163.4" y="252.4" width="7.5" height="8.9" fill="#008300"/>
<rect x="177.1" y="243.5" width="7.5" height="17.7" fill="none" stroke="#e66767" stroke-width="1.3"/>
<rect x="190.7" y="243.5" width="7.5" height="1.2" fill="#898781"/>
<rect x="204.4" y="243.5" width="7.5" height="38.4" fill="#008300"/>
<rect x="218.1" y="246.4" width="7.5" height="35.4" fill="none" stroke="#e66767" stroke-width="1.3"/>
<rect x="231.7" y="246.4" width="7.5" height="3.0" fill="#008300"/>
<rect x="245.4" y="222.8" width="7.5" height="26.6" fill="none" stroke="#e66767" stroke-width="1.3"/>
<rect x="259.1" y="222.8" width="7.5" height="23.6" fill="#008300"/>
<rect x="272.7" y="240.5" width="7.5" height="5.9" fill="none" stroke="#e66767" stroke-width="1.3"/>
<rect x="286.4" y="240.5" width="7.5" height="17.7" fill="#008300"/>
<rect x="300.1" y="243.5" width="7.5" height="14.8" fill="none" stroke="#e66767" stroke-width="1.3"/>
<rect x="313.7" y="243.5" width="7.5" height="5.9" fill="#008300"/>
<rect x="327.4" y="249.4" width="7.5" height="23.6" fill="#008300"/>
<rect x="341.1" y="231.7" width="7.5" height="41.3" fill="none" stroke="#e66767" stroke-width="1.3"/>
<rect x="354.7" y="211.0" width="7.5" height="20.7" fill="none" stroke="#e66767" stroke-width="1.3"/>
<rect x="368.4" y="205.1" width="7.5" height="5.9" fill="none" stroke="#e66767" stroke-width="1.3"/>
<rect x="382.1" y="205.1" width="7.5" height="53.1" fill="#008300"/>
<rect x="395.7" y="258.3" width="7.5" height="11.8" fill="#008300"/>
<rect x="409.4" y="249.4" width="7.5" height="20.7" fill="none" stroke="#e66767" stroke-width="1.3"/>
<rect x="423.1" y="249.4" width="7.5" height="35.4" fill="#008300"/>
<rect x="436.7" y="261.2" width="7.5" height="23.6" fill="none" stroke="#e66767" stroke-width="1.3"/>
<rect x="450.4" y="240.5" width="7.5" height="20.7" fill="none" stroke="#e66767" stroke-width="1.3"/>
<rect x="464.1" y="240.5" width="7.5" height="53.1" fill="#008300"/>
<rect x="477.7" y="276.0" width="7.5" height="17.7" fill="none" stroke="#e66767" stroke-width="1.3"/>
<rect x="491.4" y="276.0" width="7.5" height="8.9" fill="#008300"/>
<rect x="505.1" y="270.1" width="7.5" height="14.8" fill="none" stroke="#e66767" stroke-width="1.3"/>
<rect x="518.7" y="255.3" width="7.5" height="14.8" fill="none" stroke="#e66767" stroke-width="1.3"/>
<rect x="532.4" y="255.3" width="7.5" height="35.4" fill="#008300"/>
<rect x="546.1" y="219.9" width="7.5" height="70.8" fill="none" stroke="#e66767" stroke-width="1.3"/>
<rect x="559.7" y="219.9" width="7.5" height="53.1" fill="#008300"/>
<rect x="573.4" y="273.0" width="7.5" height="11.8" fill="#008300"/>
<rect x="587.1" y="278.9" width="7.5" height="5.9" fill="none" stroke="#e66767" stroke-width="1.3"/>
<rect x="600.7" y="278.9" width="7.5" height="1.2" fill="#898781"/>
<rect x="614.4" y="252.4" width="7.5" height="26.6" fill="none" stroke="#e66767" stroke-width="1.3"/>
<rect x="628.1" y="252.4" width="7.5" height="17.7" fill="#008300"/>
<rect x="641.7" y="270.1" width="7.5" height="8.9" fill="#008300"/>
<rect x="655.4" y="264.2" width="7.5" height="14.8" fill="none" stroke="#e66767" stroke-width="1.3"/>
<rect x="669.1" y="264.2" width="7.5" height="3.0" fill="#008300"/>
<rect x="682.7" y="267.1" width="7.5" height="8.9" fill="#008300"/>
<rect x="696.4" y="276.0" width="7.5" height="1.2" fill="#898781"/>
<rect x="710.1" y="276.0" width="7.5" height="17.7" fill="#008300"/>
<rect x="723.7" y="276.0" width="7.5" height="17.7" fill="none" stroke="#e66767" stroke-width="1.3"/>
<rect x="737.4" y="276.0" width="7.5" height="50.2" fill="#008300"/>
<rect x="751.1" y="323.2" width="7.5" height="3.0" fill="none" stroke="#e66767" stroke-width="1.3"/>
<rect x="764.7" y="305.5" width="7.5" height="17.7" fill="none" stroke="#e66767" stroke-width="1.3"/>
<rect x="778.4" y="293.7" width="7.5" height="11.8" fill="none" stroke="#e66767" stroke-width="1.3"/>
<rect x="792.1" y="293.7" width="7.5" height="23.6" fill="#008300"/>
<rect x="805.7" y="243.5" width="7.5" height="73.8" fill="none" stroke="#e66767" stroke-width="1.3"/>
<rect x="819.4" y="243.5" width="7.5" height="8.9" fill="#008300"/>
<circle cx="85.2" cy="184.5" r="2" fill="#c3c2b7"/>
<line x1="85.2" y1="184.5" x2="93.2" y2="184.5" stroke="#c3c2b7" stroke-width="1.0"/>
<text x="96.2" y="188.5" font-size="11.0" fill="#c3c2b7">62</text>
<circle cx="741.2" cy="326.1" r="2" fill="#c3c2b7"/>
<line x1="741.2" y1="326.1" x2="733.2" y2="326.1" stroke="#c3c2b7" stroke-width="1.0"/>
<text x="730.2" y="330.1" font-size="11.0" fill="#c3c2b7" text-anchor="end">14</text>
<text x="14.0" y="376.0" font-size="11.0" fill="#c3c2b7">VOL 8 forks</text>
<text x="90.6" y="376.0" font-size="11.0" fill="#c98500">MA5:2.6</text>
<text x="142.9" y="376.0" font-size="11.0" fill="#3987e5">MA10:4.3</text>
<text x="14.0" y="395.0" font-size="10" fill="#898781">18</text>
<rect x="13.1" y="424.4" width="7.5" height="45.6" fill="none" stroke="#e66767" stroke-width="1.1"/>
<rect x="26.7" y="429.0" width="7.5" height="41.0" fill="none" stroke="#e66767" stroke-width="1.1"/>
<rect x="40.4" y="401.7" width="7.5" height="68.3" fill="#008300"/>
<rect x="54.1" y="415.3" width="7.5" height="54.7" fill="none" stroke="#e66767" stroke-width="1.1"/>
<rect x="67.7" y="424.4" width="7.5" height="45.6" fill="none" stroke="#e66767" stroke-width="1.1"/>
<rect x="81.4" y="442.7" width="7.5" height="27.3" fill="none" stroke="#e66767" stroke-width="1.1"/>
<rect x="95.1" y="442.7" width="7.5" height="27.3" fill="#008300"/>
<rect x="108.7" y="429.0" width="7.5" height="41.0" fill="#008300"/>
<rect x="122.4" y="429.0" width="7.5" height="41.0" fill="#008300"/>
<rect x="136.1" y="451.8" width="7.5" height="18.2" fill="none" stroke="#e66767" stroke-width="1.1"/>
<rect x="149.7" y="429.0" width="7.5" height="41.0" fill="none" stroke="#e66767" stroke-width="1.1"/>
<rect x="163.4" y="429.0" width="7.5" height="41.0" fill="#008300"/>
<rect x="177.1" y="410.8" width="7.5" height="59.2" fill="none" stroke="#e66767" stroke-width="1.1"/>
<rect x="190.7" y="419.9" width="7.5" height="50.1" fill="#898781"/>
<rect x="204.4" y="433.6" width="7.5" height="36.4" fill="#008300"/>
<rect x="218.1" y="442.7" width="7.5" height="27.3" fill="none" stroke="#e66767" stroke-width="1.1"/>
<rect x="231.7" y="429.0" width="7.5" height="41.0" fill="#008300"/>
<rect x="245.4" y="419.9" width="7.5" height="50.1" fill="none" stroke="#e66767" stroke-width="1.1"/>
<rect x="259.1" y="392.6" width="7.5" height="77.4" fill="#008300"/>
<rect x="272.7" y="424.4" width="7.5" height="45.6" fill="none" stroke="#e66767" stroke-width="1.1"/>
<rect x="286.4" y="410.8" width="7.5" height="59.2" fill="#008300"/>
<rect x="300.1" y="438.1" width="7.5" height="31.9" fill="none" stroke="#e66767" stroke-width="1.1"/>
<rect x="313.7" y="442.7" width="7.5" height="27.3" fill="#008300"/>
<rect x="327.4" y="429.0" width="7.5" height="41.0" fill="#008300"/>
<rect x="341.1" y="388.0" width="7.5" height="82.0" fill="none" stroke="#e66767" stroke-width="1.1"/>
<rect x="354.7" y="410.8" width="7.5" height="59.2" fill="none" stroke="#e66767" stroke-width="1.1"/>
<rect x="368.4" y="433.6" width="7.5" height="36.4" fill="none" stroke="#e66767" stroke-width="1.1"/>
<rect x="382.1" y="424.4" width="7.5" height="45.6" fill="#008300"/>
<rect x="395.7" y="415.3" width="7.5" height="54.7" fill="#008300"/>
<rect x="409.4" y="397.1" width="7.5" height="72.9" fill="none" stroke="#e66767" stroke-width="1.1"/>
<rect x="423.1" y="433.6" width="7.5" height="36.4" fill="#008300"/>
<rect x="436.7" y="415.3" width="7.5" height="54.7" fill="none" stroke="#e66767" stroke-width="1.1"/>
<rect x="450.4" y="438.1" width="7.5" height="31.9" fill="none" stroke="#e66767" stroke-width="1.1"/>
<rect x="464.1" y="429.0" width="7.5" height="41.0" fill="#008300"/>
<rect x="477.7" y="429.0" width="7.5" height="41.0" fill="none" stroke="#e66767" stroke-width="1.1"/>
<rect x="491.4" y="438.1" width="7.5" height="31.9" fill="#008300"/>
<rect x="505.1" y="433.6" width="7.5" height="36.4" fill="none" stroke="#e66767" stroke-width="1.1"/>
<rect x="518.7" y="442.7" width="7.5" height="27.3" fill="none" stroke="#e66767" stroke-width="1.1"/>
<rect x="532.4" y="419.9" width="7.5" height="50.1" fill="#008300"/>
<rect x="546.1" y="424.4" width="7.5" height="45.6" fill="none" stroke="#e66767" stroke-width="1.1"/>
<rect x="559.7" y="438.1" width="7.5" height="31.9" fill="#008300"/>
<rect x="573.4" y="433.6" width="7.5" height="36.4" fill="#008300"/>
<rect x="587.1" y="438.1" width="7.5" height="31.9" fill="none" stroke="#e66767" stroke-width="1.1"/>
<rect x="600.7" y="433.6" width="7.5" height="36.4" fill="#898781"/>
<rect x="614.4" y="442.7" width="7.5" height="27.3" fill="none" stroke="#e66767" stroke-width="1.1"/>
<rect x="628.1" y="419.9" width="7.5" height="50.1" fill="#008300"/>
<rect x="641.7" y="438.1" width="7.5" height="31.9" fill="#008300"/>
<rect x="655.4" y="447.2" width="7.5" height="22.8" fill="none" stroke="#e66767" stroke-width="1.1"/>
<rect x="669.1" y="438.1" width="7.5" height="31.9" fill="#008300"/>
<rect x="682.7" y="438.1" width="7.5" height="31.9" fill="#008300"/>
<rect x="696.4" y="442.7" width="7.5" height="27.3" fill="#898781"/>
<rect x="710.1" y="429.0" width="7.5" height="41.0" fill="#008300"/>
<rect x="723.7" y="433.6" width="7.5" height="36.4" fill="none" stroke="#e66767" stroke-width="1.1"/>
<rect x="737.4" y="460.9" width="7.5" height="9.1" fill="#008300"/>
<rect x="751.1" y="447.2" width="7.5" height="22.8" fill="none" stroke="#e66767" stroke-width="1.1"/>
<rect x="778.4" y="451.8" width="7.5" height="18.2" fill="none" stroke="#e66767" stroke-width="1.1"/>
<rect x="805.7" y="465.4" width="7.5" height="4.6" fill="none" stroke="#e66767" stroke-width="1.1"/>
<rect x="819.4" y="433.6" width="7.5" height="36.4" fill="#008300"/>
<polyline points="16.8,417.6 30.5,419.0 44.2,419.9 57.8,420.3 71.5,419.4 85.2,421.3 98.8,423.5 112.5,424.9 126.2,427.6 139.8,429.0 153.5,429.5 167.2,429.5 180.8,430.4 194.5,430.8 208.2,431.7 221.8,431.7 235.5,430.4 249.2,429.5 262.8,425.8 276.5,423.1 290.2,421.3 303.8,422.2 317.5,425.4 331.2,426.3 344.8,421.7 358.5,418.5 372.2,419.0 385.8,419.4 399.5,421.7 413.2,419.0 426.8,421.3 440.5,419.0 454.2,418.5 467.8,418.5 481.5,422.6 495.2,425.4 508.8,425.4 522.5,427.2 536.2,427.6 549.8,430.4 563.5,430.8 577.2,432.6 590.8,432.6 604.5,433.1 618.2,434.5 631.8,432.6 645.5,433.1 659.2,433.6 672.8,435.4 686.5,436.7 700.2,437.2 713.8,436.7 727.5,436.3 741.2,439.0 754.8,439.5 768.5,444.5 782.2,445.9 795.8,448.1 809.5,450.9 823.2,450.4" fill="none" stroke="#3987e5" stroke-width="1.5" stroke-linejoin="round" stroke-linecap="round"/>
<polyline points="16.8,419.9 30.5,421.7 44.2,419.0 57.8,421.7 71.5,419.0 85.2,422.6 98.8,425.4 112.5,430.8 126.2,433.6 139.8,439.0 153.5,436.3 167.2,433.6 180.8,429.9 194.5,428.1 208.2,424.4 221.8,427.2 235.5,427.2 249.2,429.0 262.8,423.5 276.5,421.7 290.2,415.3 303.8,417.2 317.5,421.7 331.2,429.0 344.8,421.7 358.5,421.7 372.2,420.8 385.8,417.2 399.5,414.4 413.2,416.2 426.8,420.8 440.5,417.2 454.2,419.9 467.8,422.6 481.5,429.0 495.2,429.9 508.8,433.6 522.5,434.5 536.2,432.6 549.8,431.7 563.5,431.7 577.2,431.7 590.8,430.8 604.5,433.6 618.2,437.2 631.8,433.6 645.5,434.5 659.2,436.3 672.8,437.2 686.5,436.3 700.2,440.8 713.8,439.0 727.5,436.3 741.2,440.8 754.8,442.7 768.5,448.1 782.2,452.7 795.8,460.0 809.5,460.9 823.2,458.2" fill="none" stroke="#c98500" stroke-width="1.5" stroke-linejoin="round" stroke-linecap="round"/>
</svg>