<svg xmlns="http://www.w3.org/2000/svg" viewBox="0 0 840 496" width="840" height="496" font-family="-apple-system,&#39;Segoe UI&#39;,system-ui,sans-serif" role="img" aria-label="TheAlgorithms/Python candlestick chart">
<text x="14.0" y="20.0" font-size="15" fill="#ffffff" font-weight="650">TheAlgorithms/Python</text>
<text x="183.0" y="20.0" font-size="11.5" fill="#c3c2b7">daily · new stars, volume = new forks</text>
<text x="805.8" y="20.0" font-size="11.0" fill="#c3c2b7">fall</text>
<rect x="791" y="10" width="9" height="12" fill="#008300"/>
<text x="750.6" y="20.0" font-size="11.0" fill="#c3c2b7">rise</text>
<rect x="736" y="10" width="9" height="12" fill="none" stroke="#e66767" stroke-width="1.5"/>
<text x="14.0" y="38.0" font-size="11.0" fill="#898781">last 60 days · +2,117 stars · +466 forks · updated 2026-07-24</text>
<rect x="10" y="66" width="820" height="290" fill="none" stroke="#2c2c2a"/>
<rect x="10" y="384" width="820" height="86" fill="none" stroke="#2c2c2a"/>
<text x="38.0" y="490.0" font-size="11.0" fill="#898781" text-anchor="middle">2026-05</text>
<line x1="92.0" y1="66.0" x2="92.0" y2="356.0" stroke="#2c2c2a" stroke-width="1.0"/>
<line x1="92.0" y1="384.0" x2="92.0" y2="470.0" stroke="#2c2c2a" stroke-width="1.0"/>
<line x1="502.0" y1="66.0" x2="502.0" y2="356.0" stroke="#2c2c2a" stroke-width="1.0"/>
<line x1="502.0" y1="384.0" x2="502.0" y2="470.0" stroke="#2c2c2a" stroke-width="1.0"/>
<text x="508.8" y="490.0" font-size="11.0" fill="#898781" text-anchor="middle">2026-07</text>
<text x="14.0" y="58.0" font-size="11.0" fill="#c3c2b7">BOLL(20,2)</text>
<text x="84.5" y="58.0" font-size="11.0" fill="#c98500">UP:57.8</text>
<text x="136.9" y="58.0" font-size="11.0" fill="#3987e5">MID:32.4</text>
<text x="195.3" y="58.0" font-size="11.0" fill="#d55181">LOW:7.0</text>
<text x="247.6" y="58.0" font-size="11.0" fill="#9085e9">MA7:39.4</text>
<line x1="10.0" y1="274.7" x2="830.0" y2="274.7" stroke="#2c2c2a" stroke-width="1.0"/>
<text x="14.0" y="271.7" font-size="11.0" fill="#898781">20</text>
<line x1="10.0" y1="171.2" x2="830.0" y2="171.2" stroke="#2c2c2a" stroke-width="1.0"/>
<text x="14.0" y="168.2" font-size="11.0" fill="#898781">40</text>
<line x1="10.0" y1="67.8" x2="830.0" y2="67.8" stroke="#2c2c2a" stroke-width="1.0"/>
<text x="14.0" y="64.8" font-size="11.0" fill="#898781">60</text>
<polyline points="16.8,85.2 30.5,84.9 44.2,86.2 57.8,84.6 71.5,84.0 85.2,83.7 98.8,79.2 112.5,82.4 126.2,81.5 139.8,83.0 153.5,95.9 167.2,96.1 180.8,95.3 194.5,97.6 208.2,112.7 221.8,99.9 235.5,100.0 249.2,102.0 262.8,101.9 276.5,98.6 290.2,98.6 303.8,98.2 317.5,94.8 331.2,95.6 344.8,94.8 358.5,95.6 372.2,102.2 385.8,101.9 399.5,96.1 413.2,96.5 426.8,98.4 440.5,100.1 454.2,100.1 467.8,104.6 481.5,119.7 495.2,142.0 508.8,142.9 522.5,142.7 536.2,146.8 549.8,146.9 563.5,147.5 577.2,155.7 590.8,147.0 604.5,141.8 618.2,140.7 631.8,142.2 645.5,145.1 659.2,136.3 672.8,149.8 686.5,139.9 700.2,139.7 713.8,118.7 727.5,119.2 741.2,103.5 754.8,98.6 768.5,95.1 782.2,85.4 795.8,85.1 809.5,83.4 823.2,79.3" fill="none" stroke="#c98500" stroke-width="1.5" stroke-linejoin="round" stroke-linecap="round"/>
<polyline points="16.8,167.4 30.5,167.1 44.2,167.9 57.8,169.2 71.5,167.6 85.2,166.8 98.8,163.7 112.5,165.5 126.2,164.5 139.8,166.3 153.5,170.2 167.2,168.4 180.8,169.9 194.5,170.7 208.2,173.0 221.8,169.4 235.5,168.9 249.2,167.9 262.8,166.8 276.5,169.7 290.2,169.7 303.8,169.4 317.5,173.8 331.2,173.3 344.8,176.7 358.5,178.5 372.2,181.3 385.8,185.2 399.5,183.4 413.2,184.7 426.8,188.3 440.5,190.9 454.2,191.4 467.8,193.2 481.5,198.4 495.2,204.8 508.8,205.4 522.5,205.1 536.2,207.4 549.8,206.7 563.5,209.5 577.2,212.6 590.8,215.4 604.5,219.6 618.2,221.4 631.8,223.5 645.5,228.9 659.2,224.8 672.8,227.6 686.5,224.5 700.2,226.0 713.8,220.1 727.5,221.7 741.2,217.8 754.8,215.4 768.5,213.1 782.2,209.5 795.8,209.2 809.5,213.1 823.2,210.5" fill="none" stroke="#3987e5" stroke-width="1.5" stroke-linejoin="round" stroke-linecap="round"/>
<polyline points="16.8,249.5 30.5,249.3 44.2,249.5 57.8,253.7 71.5,251.2 85.2,250.0 98.8,248.3 112.5,248.6 126.2,247.6 139.8,249.7 153.5,244.5 167.2,240.7 180.8,244.6 194.5,243.8 208.2,233.4 221.8,239.0 235.5,237.8 249.2,233.7 262.8,231.8 276.5,240.7 290.2,240.7 303.8,240.6 317.5,252.8 331.2,251.0 344.8,258.5 358.5,261.4 372.2,260.4 385.8,268.5 399.5,270.6 413.2,272.8 426.8,278.2 440.5,281.6 454.2,282.7 467.8,281.8 481.5,277.1 495.2,267.7 508.8,267.8 522.5,267.5 536.2,268.1 549.8,266.4 563.5,271.5 577.2,269.5 590.8,283.9 604.5,297.4 618.2,302.1 631.8,304.7 645.5,312.7 659.2,313.2 672.8,305.4 686.5,309.1 700.2,312.4 713.8,321.5 727.5,324.1 741.2,332.0 754.8,332.3 768.5,331.1 782.2,333.6 795.8,333.4 809.5,342.8 823.2,341.8" fill="none" stroke="#d55181" stroke-width="1.5" stroke-linejoin="round" stroke-linecap="round"/>
<polyline points="16.8,172.8 30.5,187.3 44.2,186.7 57.8,191.4 71.5,182.1 85.2,179.5 98.8,171.7 112.5,168.1 126.2,167.6 139.8,171.2 153.5,161.4 167.2,162.4 180.8,168.1 194.5,170.7 208.2,161.4 221.8,152.6 235.5,152.6 249.2,159.3 262.8,159.3 276.5,162.4 290.2,169.7 303.8,176.9 317.5,199.2 331.2,203.8 344.8,207.4 358.5,212.6 372.2,205.4 385.8,212.6 399.5,207.4 413.2,202.3 426.8,204.3 440.5,202.8 454.2,205.4 467.8,204.3 481.5,199.2 495.2,214.2 508.8,212.1 522.5,207.4 536.2,206.9 549.8,205.9 563.5,216.2 577.2,217.8 590.8,229.7 604.5,244.1 618.2,254.0 631.8,258.6 645.5,269.0 659.2,256.0 672.8,250.4 686.5,228.1 700.2,222.9 713.8,199.2 727.5,200.2 741.2,172.8 754.8,172.8 768.5,172.8 782.2,169.2 795.8,159.3 809.5,186.7 823.2,174.3" fill="none" stroke="#9085e9" stroke-width="1.5" stroke-linejoin="round" stroke-linecap="round"/>
<rect x="13.1" y="176.4" width="7.5" height="15.5" fill="#008300"/>
<rect x="26.7" y="160.9" width="7.5" height="31.0" fill="none" stroke="#e66767" stroke-width="1.3"/>
<rect x="40.4" y="160.9" width="7.5" height="1.2" fill="#898781"/>
<rect x="54.1" y="160.9" width="7.5" height="67.2" fill="#008300"/>
<rect x="67.7" y="166.1" width="7.5" height="62.1" fill="none" stroke="#e66767" stroke-width="1.3"/>
<rect x="81.4" y="166.1" width="7.5" height="5.2" fill="#008300"/>
<rect x="95.1" y="124.7" width="7.5" height="46.5" fill="none" stroke="#e66767" stroke-width="1.3"/>
<rect x="108.7" y="124.7" width="7.5" height="41.4" fill="#008300"/>
<rect x="122.4" y="155.7" width="7.5" height="10.3" fill="none" stroke="#e66767" stroke-width="1.3"/>
<rect x="136.1" y="155.7" width="7.5" height="31.0" fill="#008300"/>
<rect x="149.7" y="160.9" width="7.5" height="25.9" fill="none" stroke="#e66767" stroke-width="1.3"/>
<rect x="163.4" y="160.9" width="7.5" height="10.3" fill="#008300"/>
<rect x="177.1" y="171.2" width="7.5" height="41.4" fill="#008300"/>
<rect x="190.7" y="140.2" width="7.5" height="72.4" fill="none" stroke="#e66767" stroke-width="1.3"/>
<rect x="204.4" y="104.0" width="7.5" height="36.2" fill="none" stroke="#e66767" stroke-width="1.3"/>
<rect x="218.1" y="93.7" width="7.5" height="10.3" fill="none" stroke="#e66767" stroke-width="1.3"/>
<rect x="231.7" y="93.7" width="7.5" height="93.1" fill="#008300"/>
<rect x="245.4" y="186.7" width="7.5" height="20.7" fill="#008300"/>
<rect x="259.1" y="171.2" width="7.5" height="36.2" fill="none" stroke="#e66767" stroke-width="1.3"/>
<rect x="272.7" y="171.2" width="7.5" height="62.1" fill="#008300"/>
<rect x="286.4" y="191.9" width="7.5" height="41.4" fill="none" stroke="#e66767" stroke-width="1.3"/>
<rect x="300.1" y="155.7" width="7.5" height="36.2" fill="none" stroke="#e66767" stroke-width="1.3"/>
<rect x="313.7" y="155.7" width="7.5" height="93.1" fill="#008300"/>
<rect x="327.4" y="217.8" width="7.5" height="31.0" fill="none" stroke="#e66767" stroke-width="1.3"/>
<rect x="341.1" y="217.8" width="7.5" height="15.5" fill="#008300"/>
<rect x="354.7" y="207.4" width="7.5" height="25.9" fill="none" stroke="#e66767" stroke-width="1.3"/>
<rect x="368.4" y="181.6" width="7.5" height="25.9" fill="none" stroke="#e66767" stroke-width="1.3"/>
<rect x="382.1" y="181.6" width="7.5" height="62.1" fill="#008300"/>
<rect x="395.7" y="119.5" width="7.5" height="124.1" fill="none" stroke="#e66767" stroke-width="1.3"/>
<rect x="409.4" y="119.5" width="7.5" height="93.1" fill="#008300"/>
<rect x="423.1" y="212.6" width="7.5" height="20.7" fill="#008300"/>
<rect x="436.7" y="222.9" width="7.5" height="10.3" fill="none" stroke="#e66767" stroke-width="1.3"/>
<rect x="450.4" y="222.9" width="7.5" height="1.2" fill="#898781"/>
<rect x="464.1" y="176.4" width="7.5" height="46.5" fill="none" stroke="#e66767" stroke-width="1.3"/>
<rect x="477.7" y="176.4" width="7.5" height="31.0" fill="#008300"/>
<rect x="491.4" y="207.4" width="7.5" height="15.5" fill="#008300"/>
<rect x="505.1" y="197.1" width="7.5" height="25.9" fill="none" stroke="#e66767" stroke-width="1.3"/>
<rect x="518.7" y="197.1" width="7.5" height="5.2" fill="#008300"/>
<rect x="532.4" y="202.3" width="7.5" height="15.5" fill="#008300"/>
<rect x="546.1" y="217.8" width="7.5" height="1.2" fill="#898781"/>
<rect x="559.7" y="217.8" width="7.5" height="31.0" fill="#008300"/>
<rect x="573.4" y="217.8" width="7.5" height="31.0" fill="none" stroke="#e66767" stroke-width="1.3"/>
<rect x="587.1" y="217.8" width="7.5" height="87.9" fill="#008300"/>
<rect x="600.7" y="300.5" width="7.5" height="5.2" fill="none" stroke="#e66767" stroke-width="1.3"/>
<rect x="614.4" y="269.5" width="7.5" height="31.0" fill="none" stroke="#e66767" stroke-width="1.3"/>
<rect x="628.1" y="248.8" width="7.5" height="20.7" fill="none" stroke="#e66767" stroke-width="1.3"/>
<rect x="641.7" y="248.8" width="7.5" height="41.4" fill="#008300"/>
<rect x="655.4" y="160.9" width="7.5" height="129.3" fill="none" stroke="#e66767" stroke-width="1.3"/>
<rect x="669.1" y="160.9" width="7.5" height="15.5" fill="#008300"/>
<rect x="682.7" y="150.5" width="7.5" height="25.9" fill="none" stroke="#e66767" stroke-width="1.3"/>
<rect x="696.4" y="150.5" width="7.5" height="113.8" fill="#008300"/>
<rect x="710.1" y="104.0" width="7.5" height="160.3" fill="none" stroke="#e66767" stroke-width="1.3"/>
<rect x="723.7" y="104.0" width="7.5" height="150.0" fill="#008300"/>
<rect x="737.4" y="98.8" width="7.5" height="155.1" fill="none" stroke="#e66767" stroke-width="1.3"/>
<rect x="751.1" y="98.8" width="7.5" height="62.1" fill="#008300"/>
<rect x="764.7" y="160.9" width="7.5" height="15.5" fill="#008300"/>
<rect x="778.4" y="124.7" width="7.5" height="51.7" fill="none" stroke="#e66767" stroke-width="1.3"/>
<rect x="792.1" y="124.7" width="7.5" height="72.4" fill="#008300"/>
<rect x="805.7" y="197.1" width="7.5" height="98.3" fill="#008300"/>
<rect x="819.4" y="166.1" width="7.5" height="129.3" fill="none" stroke="#e66767" stroke-width="1.3"/>
<circle cx="221.8" cy="93.7" r="2" fill="#c3c2b7"/>
<line x1="221.8" y1="93.7" x2="229.8" y2="93.7" stroke="#c3c2b7" stroke-width="1.0"/>
<text x="232.8" y="97.7" font-size="11.0" fill="#c3c2b7">55</text>
<circle cx="590.8" cy="305.7" r="2" fill="#c3c2b7"/>
<line x1="590.8" y1="305.7" x2="582.8" y2="305.7" stroke="#c3c2b7" stroke-width="1.0"/>
<text x="579.8" y="309.7" font-size="11.0" fill="#c3c2b7" text-anchor="end">14</text>
<text x="14.0" y="376.0" font-size="11.0" fill="#c3c2b7">VOL 3 forks</text>
<text x="90.6" y="376.0" font-size="11.0" fill="#c98500">MA5:4.4</text>
<text x="142.9" y="376.0" font-size="11.0" fill="#3987e5">MA10:5.7</text>
<text x="14.0" y="395.0" font-size="10" fill="#898781">18</text>
<rect x="13.1" y="429.0" width="7.5" height="41.0" fill="#008300"/>
<rect x="26.7" y="410.8" width="7.5" height="59.2" fill="none" stroke="#e66767" stroke-width="1.1"/>
<rect x="40.4" y="419.9" width="7.5" height="50.1" fill="#898781"/>
<rect x="54.1" y="433.6" width="7.5" height="36.4" fill="#008300"/>
<rect x="67.7" y="442.7" width="7.5" height="27.3" fill="none" stroke="#e66767" stroke-width="1.1"/>
<rect x="81.4" y="429.0" width="7.5" height="41.0" fill="#008300"/>
<rect x="95.1" y="419.9" width="7.5" height="50.1" fill="none" stroke="#e66767" stroke-width="1.1"/>
<rect x="108.7" y="392.6" width="7.5" height="77.4" fill="#008300"/>
<rect x="122.4" y="424.4" width="7.5" height="45.6" fill="none" stroke="#e66767" stroke-width="1.1"/>
<rect x="136.1" y="410.8" width="7.5" height="59.2" fill="#008300"/>
<rect x="149.7" y="438.1" width="7.5" height="31.9" fill="none" stroke="#e66767" stroke-width="1.1"/>
<rect x="163.4" y="442.7" width="7.5" height="27.3" fill="#008300"/>
<rect x="177.1" y="429.0" width="7.5" height="41.0" fill="#008300"/>
<rect x="190.7" y="388.0" width="7.5" height="82.0" fill="none" stroke="#e66767" stroke-width="1.1"/>
<rect x="204.4" y="410.8" width="7.5" height="59.2" fill="none" stroke="#e66767" stroke-width="1.1"/>
<rect x="218.1" y="433.6" width="7.5" height="36.4" fill="none" stroke="#e66767" stroke-width="1.1"/>
<rect x="231.7" y="424.4" width="7.5" height="45.6" fill="#008300"/>
<rect x="245.4" y="415.3" width="7.5" height="54.7" fill="#008300"/>
<rect x="259.1" y="397.1" width="7.5" height="72.9" fill="none" stroke="#e66767" stroke-width="1.1"/>
<rect x="272.7" y="433.6" width="7.5" height="36.4" fill="#008300"/>
<rect x="286.4" y="415.3" width="7.5" height="54.7" fill="none" stroke="#e66767" stroke-width="1.1"/>
<rect x="300.1" y="438.1" width="7.5" height="31.9" fill="none" stroke="#e66767" stroke-width="1.1"/>
<rect x="313.7" y="429.0" width="7.5" height="41.0" fill="#008300"/>
<rect x="327.4" y="429.0" width="7.5" height="41.0" fill="none" stroke="#e66767" stroke-width="1.1"/>
<rect x="341.1" y="438.1" width="7.5" height="31.9" fill="#008300"/>
<rect x="354.7" y="433.6" width="7.5" height="36.4" fill="none" stroke="#e66767" stroke-width="1.1"/>
<rect x="368.4" y="442.7" width="7.5" height="27.3" fill="none" stroke="#e66767" stroke-width="1.1"/>
<rect x="382.1" y="419.9" width="7.5" height="50.1" fill="#008300"/>
<rect x="395.7" y="424.4" width="7.5" height="45.6" fill="none" stroke="#e66767" stroke-width="1.1"/>
<rect x="409.4" y="438.1" width="7.5" height="31.9" fill="#008300"/>
<rect x="423.1" y="433.6" width="7.5" height="36.4" fill="#008300"/>
<rect x="436.7" y="438.1" width="7.5" height="31.9" fill="none" stroke="#e66767" stroke-width="1.1"/>
<rect x="450.4" y="433.6" width="7.5" height="36.4" fill="#898781"/>
<rect x="464.1" y="442.7" width="7.5" height="27.3" fill="none" stroke="#e66767" stroke-width="1.1"/>
<rect x="477.7" y="419.9" width="7.5" height="50.1" fill="#008300"/>
<rect x="491.4" y="438.1" width="7.5" height="31.9" fill="#008300"/>
<rect x="505.1" y="447.2" width="7.5" height="22.8" fill="none" stroke="#e66767" stroke-width="1.1"/>
<rect x="518.7" y="438.1" width="7.5" height="31.9" fill="#008300"/>
<rect x="532.4" y="438.1" width="7.5" height="31.9" fill="#008300"/>
<rect x="546.1" y="442.7" width="7.5" height="27.3" fill="#898781"/>
<rect x="559.7" y="429.0" width="7.5" height="41.0" fill="#008300"/>
<rect x="573.4" y="433.6" width="7.5" height="36.4" fill="none" stroke="#e66767" stroke-width="1.1"/>
<rect x="587.1" y="460.9" width="7.5" height="9.1" fill="#008300"/>
<rect x="600.7" y="447.2" width="7.5" height="22.8" fill="none" stroke="#e66767" stroke-width="1.1"/>
<rect x="628.1" y="451.8" width="7.5" height="18.2" fill="none" stroke="#e66767" stroke-width="1.1"/>
<rect x="655.4" y="465.4" width="7.5" height="4.6" fill="none" stroke="#e66767" stroke-width="1.1"/>
<rect x="669.1" y="433.6" width="7.5" height="36.4" fill="#008300"/>
<rect x="696.4" y="447.2" width="7.5" height="22.8" fill="#008300"/>
<rect x="710.1" y="429.0" width="7.5" height="41.0" fill="none" stroke="#e66767" stroke-width="1.1"/>
<rect x="723.7" y="442.7" width="7.5" height="27.3" fill="#008300"/>
<rect x="737.4" y="451.8" width="7.5" height="18.2" fill="none" stroke="#e66767" stroke-width="1.1"/>
<rect x="751.1" y="419.9" width="7.5" height="50.1" fill="#008300"/>
<rect x="764.7" y="433.6" width="7.5" height="36.4" fill="#008300"/>
<rect x="778.4" y="456.3" width="7.5" height="13.7" fill="none" stroke="#e66767" stroke-width="1.1"/>
<rect x="792.1" y="456.3" width="7.5" height="13.7" fill="#008300"/>
<rect x="805.7" y="447.2" width="7.5" height="22.8" fill="#008300"/>
<rect x="819.4" y="456.3" width="7.5" height="13.7" fill="none" stroke="#e66767" stroke-width="1.1"/>
<polyline points="16.8,429.5 30.5,430.4 44.2,430.8 57.8,431.7 71.5,431.7 85.2,430.4 98.8,429.5 112.5,425.8 126.2,423.1 139.8,421.3 153.5,422.2 167.2,425.4 180.8,426.3 194.5,421.7 208.2,418.5 221.8,419.0 235.5,419.4 249.2,421.7 262.8,419.0 276.5,421.3 290.2,419.0 303.8,418.5 317.5,418.5 331.2,422.6 344.8,425.4 358.5,425.4 372.2,427.2 385.8,427.6 399.5,430.4 413.2,430.8 426.8,432.6 440.5,432.6 454.2,433.1 467.8,434.5 481.5,432.6 495.2,433.1 508.8,433.6 522.5,435.4 536.2,436.7 549.8,437.2 563.5,436.7 577.2,436.3 590.8,439.0 604.5,439.5 618.2,444.5 631.8,445.9 645.5,448.1 659.2,450.9 672.8,450.4 686.5,453.1 700.2,455.0 713.8,454.5 727.5,452.7 741.2,453.1 754.8,448.1 768.5,446.3 782.2,444.9 795.8,444.0 809.5,445.4 823.2,444.0" fill="none" stroke="#3987e5" stroke-width="1.5" stroke-linejoin="round" stroke-linecap="round"/>
<polyline points="16.8,433.6 30.5,429.9 44.2,428.1 57.8,424.4 71.5,427.2 85.2,427.2 98.8,429.0 112.5,423.5 126.2,421.7 139.8,415.3 153.5,417.2 167.2,421.7 180.8,429.0 194.5,421.7 208.2,421.7 221.8,420.8 235.5,417.2 249.2,414.4 262.8,416.2 276.5,420.8 290.2,417.2 303.8,419.9 317.5,422.6 331.2,429.0 344.8,429.9 358.5,433.6 372.2,434.5 385.8,432.6 399.5,431.7 413.2,431.7 426.8,431.7 440.5,430.8 454.2,433.6 467.8,437.2 481.5,433.6 495.2,434.5 508.8,436.3 522.5,437.2 536.2,436.3 549.8,440.8 563.5,439.0 577.2,436.3 590.8,440.8 604.5,442.7 618.2,448.1 631.8,452.7 645.5,460.0 659.2,460.9 672.8,458.2 686.5,458.2 700.2,457.2 713.8,449.0 727.5,444.5 741.2,448.1 754.8,438.1 768.5,435.4 782.2,440.8 795.8,443.6 809.5,442.7 823.2,450.0" fill="none" stroke="#c98500" stroke-width="1.5" stroke-linejoin="round" stroke-linecap="round"/>
</svg>