<svg xmlns="http://www.w3.org/2000/svg" viewBox="0 0 840 496" width="840" height="496" font-family="-apple-system,&#39;Segoe UI&#39;,system-ui,sans-serif" role="img" aria-label="TheAlgorithms/Python candlestick chart">
<text x="14.0" y="20.0" font-size="15" fill="#ffffff" font-weight="650">TheAlgorithms/Python</text>
<text x="183.0" y="20.0" font-size="11.5" fill="#c3c2b7">daily · new stars, volume = new forks</text>
<text x="805.8" y="20.0" font-size="11.0" fill="#c3c2b7">fall</text>
<rect x="791" y="10" width="9" height="12" fill="#008300"/>
<text x="750.6" y="20.0" font-size="11.0" fill="#c3c2b7">rise</text>
<rect x="736" y="10" width="9" height="12" fill="none" stroke="#e66767" stroke-width="1.5"/>
<text x="14.0" y="38.0" font-size="11.0" fill="#898781">last 60 days · +2,146 stars · +488 forks · updated 2026-07-16</text>
<rect x="10" y="66" width="820" height="290" fill="none" stroke="#2c2c2a"/>
<rect x="10" y="384" width="820" height="86" fill="none" stroke="#2c2c2a"/>
<text x="38.0" y="490.0" font-size="11.0" fill="#898781" text-anchor="middle">2026-05</text>
<line x1="201.3" y1="66.0" x2="201.3" y2="356.0" stroke="#2c2c2a" stroke-width="1.0"/>
<line x1="201.3" y1="384.0" x2="201.3" y2="470.0" stroke="#2c2c2a" stroke-width="1.0"/>
<text x="208.2" y="490.0" font-size="11.0" fill="#898781" text-anchor="middle">2026-06</text>
<line x1="611.3" y1="66.0" x2="611.3" y2="356.0" stroke="#2c2c2a" stroke-width="1.0"/>
<line x1="611.3" y1="384.0" x2="611.3" y2="470.0" stroke="#2c2c2a" stroke-width="1.0"/>
<text x="618.2" y="490.0" font-size="11.0" fill="#898781" text-anchor="middle">2026-07</text>
<text x="14.0" y="58.0" font-size="11.0" fill="#c3c2b7">BOLL(20,2)</text>
<text x="84.5" y="58.0" font-size="11.0" fill="#c98500">UP:50.2</text>
<text x="136.9" y="58.0" font-size="11.0" fill="#3987e5">MID:30.6</text>
<text x="195.3" y="58.0" font-size="11.0" fill="#d55181">LOW:10.9</text>
<text x="253.7" y="58.0" font-size="11.0" fill="#9085e9">MA7:34.6</text>
<line x1="10.0" y1="215.9" x2="830.0" y2="215.9" stroke="#2c2c2a" stroke-width="1.0"/>
<text x="14.0" y="212.9" font-size="11.0" fill="#898781">50</text>
<polyline points="16.8,79.2 30.5,80.1 44.2,143.0 57.8,169.9 71.5,173.2 85.2,180.6 98.8,187.2 112.5,195.0 126.2,195.7 139.8,195.5 153.5,196.3 167.2,195.3 180.8,195.0 194.5,194.8 208.2,192.1 221.8,194.0 235.5,193.5 249.2,194.3 262.8,202.0 276.5,202.1 290.2,201.6 303.8,203.0 317.5,211.9 331.2,204.3 344.8,204.4 358.5,205.6 372.2,205.5 385.8,203.6 399.5,203.6 413.2,203.3 426.8,201.3 440.5,201.8 454.2,201.3 467.8,201.8 481.5,205.7 495.2,205.5 508.8,202.1 522.5,202.3 536.2,203.5 549.8,204.5 563.5,204.4 577.2,207.1 590.8,216.0 604.5,229.1 618.2,229.7 631.8,229.5 645.5,232.0 659.2,232.0 672.8,232.4 686.5,237.2 700.2,232.1 713.8,229.0 727.5,228.4 741.2,229.3 754.8,231.0 768.5,225.8 782.2,233.7 795.8,227.9 809.5,227.8 823.2,215.4" fill="none" stroke="#c98500" stroke-width="1.5" stroke-linejoin="round" stroke-linecap="round"/>
<polyline points="16.8,210.6 30.5,211.5 44.2,221.5 57.8,228.4 71.5,231.6 85.2,236.8 98.8,240.1 112.5,243.0 126.2,244.1 139.8,243.9 153.5,244.4 167.2,245.1 180.8,244.2 194.5,243.8 208.2,241.9 221.8,243.0 235.5,242.4 249.2,243.5 262.8,245.8 276.5,244.7 290.2,245.6 303.8,246.1 317.5,247.4 331.2,245.3 344.8,245.0 358.5,244.4 372.2,243.8 385.8,245.5 399.5,245.5 413.2,245.3 426.8,247.9 440.5,247.6 454.2,249.6 467.8,250.6 481.5,252.3 495.2,254.6 508.8,253.5 522.5,254.3 536.2,256.4 549.8,257.9 563.5,258.3 577.2,259.3 590.8,262.4 604.5,266.2 618.2,266.5 631.8,266.3 645.5,267.7 659.2,267.2 672.8,268.9 686.5,270.7 700.2,272.4 713.8,274.9 727.5,275.9 741.2,277.1 754.8,280.3 768.5,277.9 782.2,279.6 795.8,277.8 809.5,278.7 823.2,275.2" fill="none" stroke="#3987e5" stroke-width="1.5" stroke-linejoin="round" stroke-linecap="round"/>
<polyline points="16.8,341.9 30.5,342.8 44.2,300.1 57.8,286.8 71.5,289.9 85.2,292.9 98.8,293.0 112.5,291.0 126.2,292.5 139.8,292.4 153.5,292.5 167.2,295.0 180.8,293.5 194.5,292.8 208.2,291.8 221.8,292.0 235.5,291.3 249.2,292.6 262.8,289.5 276.5,287.3 290.2,289.6 303.8,289.1 317.5,283.0 331.2,286.3 344.8,285.6 358.5,283.2 372.2,282.1 385.8,287.3 399.5,287.3 413.2,287.3 426.8,294.5 440.5,293.4 454.2,297.8 467.8,299.5 481.5,298.9 495.2,303.7 508.8,304.9 522.5,306.2 536.2,309.4 549.8,311.4 563.5,312.1 577.2,311.5 590.8,308.7 604.5,303.2 618.2,303.3 631.8,303.1 645.5,303.4 659.2,302.4 672.8,305.5 686.5,304.3 700.2,312.7 713.8,320.7 727.5,323.5 741.2,325.0 754.8,329.7 768.5,330.0 782.2,325.4 795.8,327.6 809.5,329.5 823.2,334.9" fill="none" stroke="#d55181" stroke-width="1.5" stroke-linejoin="round" stroke-linecap="round"/>
<polyline points="16.8,239.4 30.5,234.2 44.2,228.1 57.8,227.2 71.5,231.1 85.2,243.3 98.8,242.1 112.5,241.5 126.2,247.3 139.8,255.8 153.5,255.5 167.2,258.3 180.8,252.8 194.5,251.2 208.2,246.7 221.8,244.5 235.5,244.2 249.2,246.4 262.8,240.6 276.5,241.2 290.2,244.5 303.8,246.1 317.5,240.6 331.2,235.4 344.8,235.4 358.5,239.4 372.2,239.4 385.8,241.2 399.5,245.5 413.2,249.7 426.8,262.8 440.5,265.6 454.2,267.7 467.8,270.7 481.5,266.5 495.2,270.7 508.8,267.7 522.5,264.7 536.2,265.9 549.8,265.0 563.5,266.5 577.2,265.9 590.8,262.8 604.5,271.7 618.2,270.4 631.8,267.7 645.5,267.4 659.2,266.8 672.8,272.9 686.5,273.8 700.2,280.8 713.8,289.3 727.5,295.1 741.2,297.9 754.8,304.0 768.5,296.3 782.2,293.0 795.8,279.9 809.5,276.8 823.2,262.8" fill="none" stroke="#9085e9" stroke-width="1.5" stroke-linejoin="round" stroke-linecap="round"/>
<rect x="13.1" y="252.5" width="7.5" height="15.2" fill="none" stroke="#e66767" stroke-width="1.3"/>
<rect x="26.7" y="218.9" width="7.5" height="33.5" fill="none" stroke="#e66767" stroke-width="1.3"/>
<rect x="40.4" y="179.3" width="7.5" height="39.6" fill="none" stroke="#e66767" stroke-width="1.3"/>
<rect x="54.1" y="179.3" width="7.5" height="64.0" fill="#008300"/>
<rect x="67.7" y="243.3" width="7.5" height="18.3" fill="#008300"/>
<rect x="81.4" y="261.6" width="7.5" height="18.3" fill="#008300"/>
<rect x="95.1" y="258.6" width="7.5" height="21.3" fill="none" stroke="#e66767" stroke-width="1.3"/>
<rect x="108.7" y="249.4" width="7.5" height="9.1" fill="none" stroke="#e66767" stroke-width="1.3"/>
<rect x="122.4" y="249.4" width="7.5" height="9.1" fill="#008300"/>
<rect x="136.1" y="240.3" width="7.5" height="18.3" fill="none" stroke="#e66767" stroke-width="1.3"/>
<rect x="149.7" y="240.3" width="7.5" height="1.2" fill="#898781"/>
<rect x="163.4" y="240.3" width="7.5" height="39.6" fill="#008300"/>
<rect x="177.1" y="243.3" width="7.5" height="36.6" fill="none" stroke="#e66767" stroke-width="1.3"/>
<rect x="190.7" y="243.3" width="7.5" height="3.0" fill="#008300"/>
<rect x="204.4" y="218.9" width="7.5" height="27.4" fill="none" stroke="#e66767" stroke-width="1.3"/>
<rect x="218.1" y="218.9" width="7.5" height="24.4" fill="#008300"/>
<rect x="231.7" y="237.2" width="7.5" height="6.1" fill="none" stroke="#e66767" stroke-width="1.3"/>
<rect x="245.4" y="237.2" width="7.5" height="18.3" fill="#008300"/>
<rect x="259.1" y="240.3" width="7.5" height="15.2" fill="none" stroke="#e66767" stroke-width="1.3"/>
<rect x="272.7" y="240.3" width="7.5" height="6.1" fill="#008300"/>
<rect x="286.4" y="246.4" width="7.5" height="24.4" fill="#008300"/>
<rect x="300.1" y="228.1" width="7.5" height="42.7" fill="none" stroke="#e66767" stroke-width="1.3"/>
<rect x="313.7" y="206.7" width="7.5" height="21.3" fill="none" stroke="#e66767" stroke-width="1.3"/>
<rect x="327.4" y="200.7" width="7.5" height="6.1" fill="none" stroke="#e66767" stroke-width="1.3"/>
<rect x="341.1" y="200.7" width="7.5" height="54.9" fill="#008300"/>
<rect x="354.7" y="255.5" width="7.5" height="12.2" fill="#008300"/>
<rect x="368.4" y="246.4" width="7.5" height="21.3" fill="none" stroke="#e66767" stroke-width="1.3"/>
<rect x="382.1" y="246.4" width="7.5" height="36.6" fill="#008300"/>
<rect x="395.7" y="258.6" width="7.5" height="24.4" fill="none" stroke="#e66767" stroke-width="1.3"/>
<rect x="409.4" y="237.2" width="7.5" height="21.3" fill="none" stroke="#e66767" stroke-width="1.3"/>
<rect x="423.1" y="237.2" width="7.5" height="54.9" fill="#008300"/>
<rect x="436.7" y="273.8" width="7.5" height="18.3" fill="none" stroke="#e66767" stroke-width="1.3"/>
<rect x="450.4" y="273.8" width="7.5" height="9.1" fill="#008300"/>
<rect x="464.1" y="267.7" width="7.5" height="15.2" fill="none" stroke="#e66767" stroke-width="1.3"/>
<rect x="477.7" y="252.5" width="7.5" height="15.2" fill="none" stroke="#e66767" stroke-width="1.3"/>
<rect x="491.4" y="252.5" width="7.5" height="36.6" fill="#008300"/>
<rect x="505.1" y="215.9" width="7.5" height="73.1" fill="none" stroke="#e66767" stroke-width="1.3"/>
<rect x="518.7" y="215.9" width="7.5" height="54.9" fill="#008300"/>
<rect x="532.4" y="270.7" width="7.5" height="12.2" fill="#008300"/>
<rect x="546.1" y="276.8" width="7.5" height="6.1" fill="none" stroke="#e66767" stroke-width="1.3"/>
<rect x="559.7" y="276.8" width="7.5" height="1.2" fill="#898781"/>
<rect x="573.4" y="249.4" width="7.5" height="27.4" fill="none" stroke="#e66767" stroke-width="1.3"/>
<rect x="587.1" y="249.4" width="7.5" height="18.3" fill="#008300"/>
<rect x="600.7" y="267.7" width="7.5" height="9.1" fill="#008300"/>
<rect x="614.4" y="261.6" width="7.5" height="15.2" fill="none" stroke="#e66767" stroke-width="1.3"/>
<rect x="628.1" y="261.6" width="7.5" height="3.0" fill="#008300"/>
<rect x="641.7" y="264.7" width="7.5" height="9.1" fill="#008300"/>
<rect x="655.4" y="273.8" width="7.5" height="1.2" fill="#898781"/>
<rect x="669.1" y="273.8" width="7.5" height="18.3" fill="#008300"/>
<rect x="682.7" y="273.8" width="7.5" height="18.3" fill="none" stroke="#e66767" stroke-width="1.3"/>
<rect x="696.4" y="273.8" width="7.5" height="51.8" fill="#008300"/>
<rect x="710.1" y="322.6" width="7.5" height="3.0" fill="none" stroke="#e66767" stroke-width="1.3"/>
<rect x="723.7" y="304.3" width="7.5" height="18.3" fill="none" stroke="#e66767" stroke-width="1.3"/>
<rect x="737.4" y="292.1" width="7.5" height="12.2" fill="none" stroke="#e66767" stroke-width="1.3"/>
<rect x="751.1" y="292.1" width="7.5" height="24.4" fill="#008300"/>
<rect x="764.7" y="240.3" width="7.5" height="76.2" fill="none" stroke="#e66767" stroke-width="1.3"/>
<rect x="778.4" y="240.3" width="7.5" height="9.1" fill="#008300"/>
<rect x="792.1" y="234.2" width="7.5" height="15.2" fill="none" stroke="#e66767" stroke-width="1.3"/>
<rect x="805.7" y="234.2" width="7.5" height="67.0" fill="#008300"/>
<rect x="819.4" y="206.7" width="7.5" height="94.5" fill="none" stroke="#e66767" stroke-width="1.3"/>
<circle cx="44.2" cy="179.3" r="2" fill="#c3c2b7"/>
<line x1="44.2" y1="179.3" x2="52.2" y2="179.3" stroke="#c3c2b7" stroke-width="1.0"/>
<text x="55.2" y="183.3" font-size="11.0" fill="#c3c2b7">62</text>
<circle cx="700.2" cy="325.6" r="2" fill="#c3c2b7"/>
<line x1="700.2" y1="325.6" x2="692.2" y2="325.6" stroke="#c3c2b7" stroke-width="1.0"/>
<text x="689.2" y="329.6" font-size="11.0" fill="#c3c2b7" text-anchor="end">14</text>
<text x="14.0" y="376.0" font-size="11.0" fill="#c3c2b7">VOL 9 forks</text>
<text x="90.6" y="376.0" font-size="11.0" fill="#c98500">MA5:4.6</text>
<text x="142.9" y="376.0" font-size="11.0" fill="#3987e5">MA10:3.4</text>
<text x="14.0" y="395.0" font-size="10" fill="#898781">18</text>
<rect x="13.1" y="415.3" width="7.5" height="54.7" fill="none" stroke="#e66767" stroke-width="1.1"/>
<rect x="26.7" y="424.4" width="7.5" height="45.6" fill="none" stroke="#e66767" stroke-width="1.1"/>
<rect x="40.4" y="442.7" width="7.5" height="27.3" fill="none" stroke="#e66767" stroke-width="1.1"/>
<rect x="54.1" y="442.7" width="7.5" height="27.3" fill="#008300"/>
<rect x="67.7" y="429.0" width="7.5" height="41.0" fill="#008300"/>
<rect x="81.4" y="429.0" width="7.5" height="41.0" fill="#008300"/>
<rect x="95.1" y="451.8" width="7.5" height="18.2" fill="none" stroke="#e66767" stroke-width="1.1"/>
<rect x="108.7" y="429.0" width="7.5" height="41.0" fill="none" stroke="#e66767" stroke-width="1.1"/>
<rect x="122.4" y="429.0" width="7.5" height="41.0" fill="#008300"/>
<rect x="136.1" y="410.8" width="7.5" height="59.2" fill="none" stroke="#e66767" stroke-width="1.1"/>
<rect x="149.7" y="419.9" width="7.5" height="50.1" fill="#898781"/>
<rect x="163.4" y="433.6" width="7.5" height="36.4" fill="#008300"/>
<rect x="177.1" y="442.7" width="7.5" height="27.3" fill="none" stroke="#e66767" stroke-width="1.1"/>
<rect x="190.7" y="429.0" width="7.5" height="41.0" fill="#008300"/>
<rect x="204.4" y="419.9" width="7.5" height="50.1" fill="none" stroke="#e66767" stroke-width="1.1"/>
<rect x="218.1" y="392.6" width="7.5" height="77.4" fill="#008300"/>
<rect x="231.7" y="424.4" width="7.5" height="45.6" fill="none" stroke="#e66767" stroke-width="1.1"/>
<rect x="245.4" y="410.8" width="7.5" height="59.2" fill="#008300"/>
<rect x="259.1" y="438.1" width="7.5" height="31.9" fill="none" stroke="#e66767" stroke-width="1.1"/>
<rect x="272.7" y="442.7" width="7.5" height="27.3" fill="#008300"/>
<rect x="286.4" y="429.0" width="7.5" height="41.0" fill="#008300"/>
<rect x="300.1" y="388.0" width="7.5" height="82.0" fill="none" stroke="#e66767" stroke-width="1.1"/>
<rect x="313.7" y="410.8" width="7.5" height="59.2" fill="none" stroke="#e66767" stroke-width="1.1"/>
<rect x="327.4" y="433.6" width="7.5" height="36.4" fill="none" stroke="#e66767" stroke-width="1.1"/>
<rect x="341.1" y="424.4" width="7.5" height="45.6" fill="#008300"/>
<rect x="354.7" y="415.3" width="7.5" height="54.7" fill="#008300"/>
<rect x="368.4" y="397.1" width="7.5" height="72.9" fill="none" stroke="#e66767" stroke-width="1.1"/>
<rect x="382.1" y="433.6" width="7.5" height="36.4" fill="#008300"/>
<rect x="395.7" y="415.3" width="7.5" height="54.7" fill="none" stroke="#e66767" stroke-width="1.1"/>
<rect x="409.4" y="438.1" width="7.5" height="31.9" fill="none" stroke="#e66767" stroke-width="1.1"/>
<rect x="423.1" y="429.0" width="7.5" height="41.0" fill="#008300"/>
<rect x="436.7" y="429.0" width="7.5" height="41.0" fill="none" stroke="#e66767" stroke-width="1.1"/>
<rect x="450.4" y="438.1" width="7.5" height="31.9" fill="#008300"/>
<rect x="464.1" y="433.6" width="7.5" height="36.4" fill="none" stroke="#e66767" stroke-width="1.1"/>
<rect x="477.7" y="442.7" width="7.5" height="27.3" fill="none" stroke="#e66767" stroke-width="1.1"/>
<rect x="491.4" y="419.9" width="7.5" height="50.1" fill="#008300"/>
<rect x="505.1" y="424.4" width="7.5" height="45.6" fill="none" stroke="#e66767" stroke-width="1.1"/>
<rect x="518.7" y="438.1" width="7.5" height="31.9" fill="#008300"/>
<rect x="532.4" y="433.6" width="7.5" height="36.4" fill="#008300"/>
<rect x="546.1" y="438.1" width="7.5" height="31.9" fill="none" stroke="#e66767" stroke-width="1.1"/>
<rect x="559.7" y="433.6" width="7.5" height="36.4" fill="#898781"/>
<rect x="573.4" y="442.7" width="7.5" height="27.3" fill="none" stroke="#e66767" stroke-width="1.1"/>
<rect x="587.1" y="419.9" width="7.5" height="50.1" fill="#008300"/>
<rect x="600.7" y="438.1" width="7.5" height="31.9" fill="#008300"/>
<rect x="614.4" y="447.2" width="7.5" height="22.8" fill="none" stroke="#e66767" stroke-width="1.1"/>
<rect x="628.1" y="438.1" width="7.5" height="31.9" fill="#008300"/>
<rect x="641.7" y="438.1" width="7.5" height="31.9" fill="#008300"/>
<rect x="655.4" y="442.7" width="7.5" height="27.3" fill="#898781"/>
<rect x="669.1" y="429.0" width="7.5" height="41.0" fill="#008300"/>
<rect x="682.7" y="433.6" width="7.5" height="36.4" fill="none" stroke="#e66767" stroke-width="1.1"/>
<rect x="696.4" y="460.9" width="7.5" height="9.1" fill="#008300"/>
<rect x="710.1" y="447.2" width="7.5" height="22.8" fill="none" stroke="#e66767" stroke-width="1.1"/>
<rect x="737.4" y="451.8" width="7.5" height="18.2" fill="none" stroke="#e66767" stroke-width="1.1"/>
<rect x="764.7" y="465.4" width="7.5" height="4.6" fill="none" stroke="#e66767" stroke-width="1.1"/>
<rect x="778.4" y="433.6" width="7.5" height="36.4" fill="#008300"/>
<rect x="805.7" y="447.2" width="7.5" height="22.8" fill="#008300"/>
<rect x="819.4" y="429.0" width="7.5" height="41.0" fill="none" stroke="#e66767" stroke-width="1.1"/>
<polyline points="16.8,420.3 30.5,419.4 44.2,421.3 57.8,423.5 71.5,424.9 85.2,427.6 98.8,429.0 112.5,429.5 126.2,429.5 139.8,430.4 153.5,430.8 167.2,431.7 180.8,431.7 194.5,430.4 208.2,429.5 221.8,425.8 235.5,423.1 249.2,421.3 262.8,422.2 276.5,425.4 290.2,426.3 303.8,421.7 317.5,418.5 331.2,419.0 344.8,419.4 358.5,421.7 372.2,419.0 385.8,421.3 399.5,419.0 413.2,418.5 426.8,418.5 440.5,422.6 454.2,425.4 467.8,425.4 481.5,427.2 495.2,427.6 508.8,430.4 522.5,430.8 536.2,432.6 549.8,432.6 563.5,433.1 577.2,434.5 590.8,432.6 604.5,433.1 618.2,433.6 631.8,435.4 645.5,436.7 659.2,437.2 672.8,436.7 686.5,436.3 700.2,439.0 713.8,439.5 727.5,444.5 741.2,445.9 754.8,448.1 768.5,450.9 782.2,450.4 795.8,453.1 809.5,455.0 823.2,454.5" fill="none" stroke="#3987e5" stroke-width="1.5" stroke-linejoin="round" stroke-linecap="round"/>
<polyline points="16.8,421.7 30.5,419.0 44.2,422.6 57.8,425.4 71.5,430.8 85.2,433.6 98.8,439.0 112.5,436.3 126.2,433.6 139.8,429.9 153.5,428.1 167.2,424.4 180.8,427.2 194.5,427.2 208.2,429.0 221.8,423.5 235.5,421.7 249.2,415.3 262.8,417.2 276.5,421.7 290.2,429.0 303.8,421.7 317.5,421.7 331.2,420.8 344.8,417.2 358.5,414.4 372.2,416.2 385.8,420.8 399.5,417.2 413.2,419.9 426.8,422.6 440.5,429.0 454.2,429.9 467.8,433.6 481.5,434.5 495.2,432.6 508.8,431.7 522.5,431.7 536.2,431.7 549.8,430.8 563.5,433.6 577.2,437.2 590.8,433.6 604.5,434.5 618.2,436.3 631.8,437.2 645.5,436.3 659.2,440.8 672.8,439.0 686.5,436.3 700.2,440.8 713.8,442.7 727.5,448.1 741.2,452.7 754.8,460.0 768.5,460.9 782.2,458.2 795.8,458.2 809.5,457.2 823.2,449.0" fill="none" stroke="#c98500" stroke-width="1.5" stroke-linejoin="round" stroke-linecap="round"/>
</svg>