<svg xmlns="http://www.w3.org/2000/svg" viewBox="0 0 840 496" width="840" height="496" font-family="-apple-system,&#39;Segoe UI&#39;,system-ui,sans-serif" role="img" aria-label="TheAlgorithms/Python candlestick chart">
<text x="14.0" y="20.0" font-size="15" fill="#ffffff" font-weight="650">TheAlgorithms/Python</text>
<text x="183.0" y="20.0" font-size="11.5" fill="#c3c2b7">daily · new stars, volume = new forks</text>
<text x="805.8" y="20.0" font-size="11.0" fill="#c3c2b7">fall</text>
<rect x="791" y="10" width="9" height="12" fill="#008300"/>
<text x="750.6" y="20.0" font-size="11.0" fill="#c3c2b7">rise</text>
<rect x="736" y="10" width="9" height="12" fill="none" stroke="#e66767" stroke-width="1.5"/>
<text x="14.0" y="38.0" font-size="11.0" fill="#898781">last 60 days · +2,115 stars · +483 forks · updated 2026-07-20</text>
<rect x="10" y="66" width="820" height="290" fill="none" stroke="#2c2c2a"/>
<rect x="10" y="384" width="820" height="86" fill="none" stroke="#2c2c2a"/>
<text x="38.0" y="490.0" font-size="11.0" fill="#898781" text-anchor="middle">2026-05</text>
<line x1="146.7" y1="66.0" x2="146.7" y2="356.0" stroke="#2c2c2a" stroke-width="1.0"/>
<line x1="146.7" y1="384.0" x2="146.7" y2="470.0" stroke="#2c2c2a" stroke-width="1.0"/>
<text x="153.5" y="490.0" font-size="11.0" fill="#898781" text-anchor="middle">2026-06</text>
<line x1="556.7" y1="66.0" x2="556.7" y2="356.0" stroke="#2c2c2a" stroke-width="1.0"/>
<line x1="556.7" y1="384.0" x2="556.7" y2="470.0" stroke="#2c2c2a" stroke-width="1.0"/>
<text x="563.5" y="490.0" font-size="11.0" fill="#898781" text-anchor="middle">2026-07</text>
<text x="14.0" y="58.0" font-size="11.0" fill="#c3c2b7">BOLL(20,2)</text>
<text x="84.5" y="58.0" font-size="11.0" fill="#c98500">UP:54.7</text>
<text x="136.9" y="58.0" font-size="11.0" fill="#3987e5">MID:31.9</text>
<text x="195.3" y="58.0" font-size="11.0" fill="#d55181">LOW:9.1</text>
<text x="247.6" y="58.0" font-size="11.0" fill="#9085e9">MA7:39.7</text>
<line x1="10.0" y1="289.5" x2="830.0" y2="289.5" stroke="#2c2c2a" stroke-width="1.0"/>
<text x="14.0" y="286.5" font-size="11.0" fill="#898781">20</text>
<line x1="10.0" y1="193.9" x2="830.0" y2="193.9" stroke="#2c2c2a" stroke-width="1.0"/>
<text x="14.0" y="190.9" font-size="11.0" fill="#898781">40</text>
<line x1="10.0" y1="98.3" x2="830.0" y2="98.3" stroke="#2c2c2a" stroke-width="1.0"/>
<text x="14.0" y="95.3" font-size="11.0" fill="#898781">60</text>
<polyline points="16.8,79.2 30.5,90.8 44.2,101.2 57.8,113.3 71.5,114.4 85.2,114.1 98.8,115.3 112.5,113.8 126.2,113.3 139.8,113.0 153.5,108.8 167.2,111.8 180.8,110.9 194.5,112.3 208.2,124.3 221.8,124.5 235.5,123.7 249.2,125.9 262.8,139.8 276.5,127.9 290.2,128.1 303.8,129.9 317.5,129.8 331.2,126.8 344.8,126.8 358.5,126.4 372.2,123.3 385.8,124.0 399.5,123.3 413.2,124.0 426.8,130.1 440.5,129.9 454.2,124.5 467.8,124.8 481.5,126.6 495.2,128.2 508.8,128.1 522.5,132.3 536.2,146.3 549.8,166.9 563.5,167.8 577.2,167.5 590.8,171.3 604.5,171.4 618.2,172.0 631.8,179.5 645.5,171.5 659.2,166.7 672.8,165.7 686.5,167.1 700.2,169.8 713.8,161.6 727.5,174.1 741.2,164.9 754.8,164.8 768.5,145.3 782.2,145.8 795.8,131.3 809.5,126.7 823.2,123.5" fill="none" stroke="#c98500" stroke-width="1.5" stroke-linejoin="round" stroke-linecap="round"/>
<polyline points="16.8,170.7 30.5,178.9 44.2,184.1 57.8,188.7 71.5,190.3 85.2,190.1 98.8,190.8 112.5,192.0 126.2,190.6 139.8,189.8 153.5,187.0 167.2,188.7 180.8,187.7 194.5,189.4 208.2,193.0 221.8,191.3 235.5,192.7 249.2,193.4 262.8,195.6 276.5,192.2 290.2,191.8 303.8,190.8 317.5,189.8 331.2,192.5 344.8,192.5 358.5,192.2 372.2,196.3 385.8,195.8 399.5,198.9 413.2,200.6 426.8,203.2 440.5,206.8 454.2,205.1 467.8,206.3 481.5,209.7 495.2,212.1 508.8,212.6 522.5,214.2 536.2,219.0 549.8,225.0 563.5,225.5 577.2,225.2 590.8,227.4 604.5,226.7 618.2,229.3 631.8,232.2 645.5,234.8 659.2,238.6 672.8,240.3 686.5,242.2 700.2,247.2 713.8,243.4 727.5,246.0 741.2,243.1 754.8,244.6 768.5,239.1 782.2,240.5 795.8,236.9 809.5,234.8 823.2,232.6" fill="none" stroke="#3987e5" stroke-width="1.5" stroke-linejoin="round" stroke-linecap="round"/>
<polyline points="16.8,262.3 30.5,267.0 44.2,267.0 57.8,264.0 71.5,266.3 85.2,266.0 98.8,266.3 112.5,270.2 126.2,267.8 139.8,266.7 153.5,265.1 167.2,265.5 180.8,264.5 194.5,266.4 208.2,261.6 221.8,258.1 235.5,261.7 249.2,261.0 262.8,251.4 276.5,256.5 290.2,255.4 303.8,251.7 317.5,249.9 331.2,258.2 344.8,258.2 358.5,258.1 372.2,269.3 385.8,267.7 399.5,274.6 413.2,277.2 426.8,276.4 440.5,283.8 454.2,285.8 467.8,287.8 481.5,292.8 495.2,296.0 508.8,297.0 522.5,296.1 536.2,291.8 549.8,283.1 563.5,283.2 577.2,282.9 590.8,283.4 604.5,281.9 618.2,286.6 631.8,284.8 645.5,298.0 659.2,310.6 672.8,314.9 686.5,317.3 700.2,324.7 713.8,325.2 727.5,318.0 741.2,321.4 754.8,324.4 768.5,332.8 782.2,335.3 795.8,342.5 809.5,342.8 823.2,341.7" fill="none" stroke="#d55181" stroke-width="1.5" stroke-linejoin="round" stroke-linecap="round"/>
<polyline points="16.8,170.0 30.5,189.1 44.2,187.2 57.8,186.3 71.5,195.3 85.2,208.7 98.8,208.3 112.5,212.6 126.2,203.9 139.8,201.6 153.5,194.4 167.2,191.0 180.8,190.6 194.5,193.9 208.2,184.8 221.8,185.8 235.5,191.0 249.2,193.4 262.8,184.8 276.5,176.7 290.2,176.7 303.8,182.9 317.5,182.9 331.2,185.8 344.8,192.5 358.5,199.2 372.2,219.7 385.8,224.0 399.5,227.4 413.2,232.2 426.8,225.5 440.5,232.2 454.2,227.4 467.8,222.6 481.5,224.5 495.2,223.1 508.8,225.5 522.5,224.5 536.2,219.7 549.8,233.6 563.5,231.7 577.2,227.4 590.8,226.9 604.5,225.9 618.2,235.5 631.8,236.9 645.5,247.9 659.2,261.3 672.8,270.4 686.5,274.7 700.2,284.3 713.8,272.3 727.5,267.0 741.2,246.5 754.8,241.7 768.5,219.7 782.2,220.7 795.8,195.3 809.5,195.3 823.2,195.3" fill="none" stroke="#9085e9" stroke-width="1.5" stroke-linejoin="round" stroke-linecap="round"/>
<rect x="13.1" y="189.1" width="7.5" height="28.7" fill="#008300"/>
<rect x="26.7" y="217.8" width="7.5" height="28.7" fill="#008300"/>
<rect x="40.4" y="213.0" width="7.5" height="33.5" fill="none" stroke="#e66767" stroke-width="1.3"/>
<rect x="54.1" y="198.7" width="7.5" height="14.3" fill="none" stroke="#e66767" stroke-width="1.3"/>
<rect x="67.7" y="198.7" width="7.5" height="14.3" fill="#008300"/>
<rect x="81.4" y="184.3" width="7.5" height="28.7" fill="none" stroke="#e66767" stroke-width="1.3"/>
<rect x="95.1" y="184.3" width="7.5" height="1.2" fill="#898781"/>
<rect x="108.7" y="184.3" width="7.5" height="62.1" fill="#008300"/>
<rect x="122.4" y="189.1" width="7.5" height="57.4" fill="none" stroke="#e66767" stroke-width="1.3"/>
<rect x="136.1" y="189.1" width="7.5" height="4.8" fill="#008300"/>
<rect x="149.7" y="150.9" width="7.5" height="43.0" fill="none" stroke="#e66767" stroke-width="1.3"/>
<rect x="163.4" y="150.9" width="7.5" height="38.2" fill="#008300"/>
<rect x="177.1" y="179.6" width="7.5" height="9.6" fill="none" stroke="#e66767" stroke-width="1.3"/>
<rect x="190.7" y="179.6" width="7.5" height="28.7" fill="#008300"/>
<rect x="204.4" y="184.3" width="7.5" height="23.9" fill="none" stroke="#e66767" stroke-width="1.3"/>
<rect x="218.1" y="184.3" width="7.5" height="9.6" fill="#008300"/>
<rect x="231.7" y="193.9" width="7.5" height="38.2" fill="#008300"/>
<rect x="245.4" y="165.2" width="7.5" height="66.9" fill="none" stroke="#e66767" stroke-width="1.3"/>
<rect x="259.1" y="131.8" width="7.5" height="33.5" fill="none" stroke="#e66767" stroke-width="1.3"/>
<rect x="272.7" y="122.2" width="7.5" height="9.6" fill="none" stroke="#e66767" stroke-width="1.3"/>
<rect x="286.4" y="122.2" width="7.5" height="86.0" fill="#008300"/>
<rect x="300.1" y="208.3" width="7.5" height="19.1" fill="#008300"/>
<rect x="313.7" y="193.9" width="7.5" height="33.5" fill="none" stroke="#e66767" stroke-width="1.3"/>
<rect x="327.4" y="193.9" width="7.5" height="57.4" fill="#008300"/>
<rect x="341.1" y="213.0" width="7.5" height="38.2" fill="none" stroke="#e66767" stroke-width="1.3"/>
<rect x="354.7" y="179.6" width="7.5" height="33.5" fill="none" stroke="#e66767" stroke-width="1.3"/>
<rect x="368.4" y="179.6" width="7.5" height="86.0" fill="#008300"/>
<rect x="382.1" y="236.9" width="7.5" height="28.7" fill="none" stroke="#e66767" stroke-width="1.3"/>
<rect x="395.7" y="236.9" width="7.5" height="14.3" fill="#008300"/>
<rect x="409.4" y="227.4" width="7.5" height="23.9" fill="none" stroke="#e66767" stroke-width="1.3"/>
<rect x="423.1" y="203.5" width="7.5" height="23.9" fill="none" stroke="#e66767" stroke-width="1.3"/>
<rect x="436.7" y="203.5" width="7.5" height="57.4" fill="#008300"/>
<rect x="450.4" y="146.1" width="7.5" height="114.7" fill="none" stroke="#e66767" stroke-width="1.3"/>
<rect x="464.1" y="146.1" width="7.5" height="86.0" fill="#008300"/>
<rect x="477.7" y="232.2" width="7.5" height="19.1" fill="#008300"/>
<rect x="491.4" y="241.7" width="7.5" height="9.6" fill="none" stroke="#e66767" stroke-width="1.3"/>
<rect x="505.1" y="241.7" width="7.5" height="1.2" fill="#898781"/>
<rect x="518.7" y="198.7" width="7.5" height="43.0" fill="none" stroke="#e66767" stroke-width="1.3"/>
<rect x="532.4" y="198.7" width="7.5" height="28.7" fill="#008300"/>
<rect x="546.1" y="227.4" width="7.5" height="14.3" fill="#008300"/>
<rect x="559.7" y="217.8" width="7.5" height="23.9" fill="none" stroke="#e66767" stroke-width="1.3"/>
<rect x="573.4" y="217.8" width="7.5" height="4.8" fill="#008300"/>
<rect x="587.1" y="222.6" width="7.5" height="14.3" fill="#008300"/>
<rect x="600.7" y="236.9" width="7.5" height="1.2" fill="#898781"/>
<rect x="614.4" y="236.9" width="7.5" height="28.7" fill="#008300"/>
<rect x="628.1" y="236.9" width="7.5" height="28.7" fill="none" stroke="#e66767" stroke-width="1.3"/>
<rect x="641.7" y="236.9" width="7.5" height="81.3" fill="#008300"/>
<rect x="655.4" y="313.4" width="7.5" height="4.8" fill="none" stroke="#e66767" stroke-width="1.3"/>
<rect x="669.1" y="284.7" width="7.5" height="28.7" fill="none" stroke="#e66767" stroke-width="1.3"/>
<rect x="682.7" y="265.6" width="7.5" height="19.1" fill="none" stroke="#e66767" stroke-width="1.3"/>
<rect x="696.4" y="265.6" width="7.5" height="38.2" fill="#008300"/>
<rect x="710.1" y="184.3" width="7.5" height="119.5" fill="none" stroke="#e66767" stroke-width="1.3"/>
<rect x="723.7" y="184.3" width="7.5" height="14.3" fill="#008300"/>
<rect x="737.4" y="174.8" width="7.5" height="23.9" fill="none" stroke="#e66767" stroke-width="1.3"/>
<rect x="751.1" y="174.8" width="7.5" height="105.2" fill="#008300"/>
<rect x="764.7" y="131.8" width="7.5" height="148.2" fill="none" stroke="#e66767" stroke-width="1.3"/>
<rect x="778.4" y="131.8" width="7.5" height="138.6" fill="#008300"/>
<rect x="792.1" y="127.0" width="7.5" height="143.4" fill="none" stroke="#e66767" stroke-width="1.3"/>
<rect x="805.7" y="127.0" width="7.5" height="57.4" fill="#008300"/>
<rect x="819.4" y="184.3" width="7.5" height="14.3" fill="#008300"/>
<circle cx="276.5" cy="122.2" r="2" fill="#c3c2b7"/>
<line x1="276.5" y1="122.2" x2="284.5" y2="122.2" stroke="#c3c2b7" stroke-width="1.0"/>
<text x="287.5" y="126.2" font-size="11.0" fill="#c3c2b7">55</text>
<circle cx="645.5" cy="318.2" r="2" fill="#c3c2b7"/>
<line x1="645.5" y1="318.2" x2="637.5" y2="318.2" stroke="#c3c2b7" stroke-width="1.0"/>
<text x="634.5" y="322.2" font-size="11.0" fill="#c3c2b7" text-anchor="end">14</text>
<text x="14.0" y="376.0" font-size="11.0" fill="#c3c2b7">VOL 8 forks</text>
<text x="90.6" y="376.0" font-size="11.0" fill="#c98500">MA5:7.6</text>
<text x="142.9" y="376.0" font-size="11.0" fill="#3987e5">MA10:5.2</text>
<text x="14.0" y="395.0" font-size="10" fill="#898781">18</text>
<rect x="13.1" y="429.0" width="7.5" height="41.0" fill="#008300"/>
<rect x="26.7" y="429.0" width="7.5" height="41.0" fill="#008300"/>
<rect x="40.4" y="451.8" width="7.5" height="18.2" fill="none" stroke="#e66767" stroke-width="1.1"/>
<rect x="54.1" y="429.0" width="7.5" height="41.0" fill="none" stroke="#e66767" stroke-width="1.1"/>
<rect x="67.7" y="429.0" width="7.5" height="41.0" fill="#008300"/>
<rect x="81.4" y="410.8" width="7.5" height="59.2" fill="none" stroke="#e66767" stroke-width="1.1"/>
<rect x="95.1" y="419.9" width="7.5" height="50.1" fill="#898781"/>
<rect x="108.7" y="433.6" width="7.5" height="36.4" fill="#008300"/>
<rect x="122.4" y="442.7" width="7.5" height="27.3" fill="none" stroke="#e66767" stroke-width="1.1"/>
<rect x="136.1" y="429.0" width="7.5" height="41.0" fill="#008300"/>
<rect x="149.7" y="419.9" width="7.5" height="50.1" fill="none" stroke="#e66767" stroke-width="1.1"/>
<rect x="163.4" y="392.6" width="7.5" height="77.4" fill="#008300"/>
<rect x="177.1" y="424.4" width="7.5" height="45.6" fill="none" stroke="#e66767" stroke-width="1.1"/>
<rect x="190.7" y="410.8" width="7.5" height="59.2" fill="#008300"/>
<rect x="204.4" y="438.1" width="7.5" height="31.9" fill="none" stroke="#e66767" stroke-width="1.1"/>
<rect x="218.1" y="442.7" width="7.5" height="27.3" fill="#008300"/>
<rect x="231.7" y="429.0" width="7.5" height="41.0" fill="#008300"/>
<rect x="245.4" y="388.0" width="7.5" height="82.0" fill="none" stroke="#e66767" stroke-width="1.1"/>
<rect x="259.1" y="410.8" width="7.5" height="59.2" fill="none" stroke="#e66767" stroke-width="1.1"/>
<rect x="272.7" y="433.6" width="7.5" height="36.4" fill="none" stroke="#e66767" stroke-width="1.1"/>
<rect x="286.4" y="424.4" width="7.5" height="45.6" fill="#008300"/>
<rect x="300.1" y="415.3" width="7.5" height="54.7" fill="#008300"/>
<rect x="313.7" y="397.1" width="7.5" height="72.9" fill="none" stroke="#e66767" stroke-width="1.1"/>
<rect x="327.4" y="433.6" width="7.5" height="36.4" fill="#008300"/>
<rect x="341.1" y="415.3" width="7.5" height="54.7" fill="none" stroke="#e66767" stroke-width="1.1"/>
<rect x="354.7" y="438.1" width="7.5" height="31.9" fill="none" stroke="#e66767" stroke-width="1.1"/>
<rect x="368.4" y="429.0" width="7.5" height="41.0" fill="#008300"/>
<rect x="382.1" y="429.0" width="7.5" height="41.0" fill="none" stroke="#e66767" stroke-width="1.1"/>
<rect x="395.7" y="438.1" width="7.5" height="31.9" fill="#008300"/>
<rect x="409.4" y="433.6" width="7.5" height="36.4" fill="none" stroke="#e66767" stroke-width="1.1"/>
<rect x="423.1" y="442.7" width="7.5" height="27.3" fill="none" stroke="#e66767" stroke-width="1.1"/>
<rect x="436.7" y="419.9" width="7.5" height="50.1" fill="#008300"/>
<rect x="450.4" y="424.4" width="7.5" height="45.6" fill="none" stroke="#e66767" stroke-width="1.1"/>
<rect x="464.1" y="438.1" width="7.5" height="31.9" fill="#008300"/>
<rect x="477.7" y="433.6" width="7.5" height="36.4" fill="#008300"/>
<rect x="491.4" y="438.1" width="7.5" height="31.9" fill="none" stroke="#e66767" stroke-width="1.1"/>
<rect x="505.1" y="433.6" width="7.5" height="36.4" fill="#898781"/>
<rect x="518.7" y="442.7" width="7.5" height="27.3" fill="none" stroke="#e66767" stroke-width="1.1"/>
<rect x="532.4" y="419.9" width="7.5" height="50.1" fill="#008300"/>
<rect x="546.1" y="438.1" width="7.5" height="31.9" fill="#008300"/>
<rect x="559.7" y="447.2" width="7.5" height="22.8" fill="none" stroke="#e66767" stroke-width="1.1"/>
<rect x="573.4" y="438.1" width="7.5" height="31.9" fill="#008300"/>
<rect x="587.1" y="438.1" width="7.5" height="31.9" fill="#008300"/>
<rect x="600.7" y="442.7" width="7.5" height="27.3" fill="#898781"/>
<rect x="614.4" y="429.0" width="7.5" height="41.0" fill="#008300"/>
<rect x="628.1" y="433.6" width="7.5" height="36.4" fill="none" stroke="#e66767" stroke-width="1.1"/>
<rect x="641.7" y="460.9" width="7.5" height="9.1" fill="#008300"/>
<rect x="655.4" y="447.2" width="7.5" height="22.8" fill="none" stroke="#e66767" stroke-width="1.1"/>
<rect x="682.7" y="451.8" width="7.5" height="18.2" fill="none" stroke="#e66767" stroke-width="1.1"/>
<rect x="710.1" y="465.4" width="7.5" height="4.6" fill="none" stroke="#e66767" stroke-width="1.1"/>
<rect x="723.7" y="433.6" width="7.5" height="36.4" fill="#008300"/>
<rect x="751.1" y="447.2" width="7.5" height="22.8" fill="#008300"/>
<rect x="764.7" y="429.0" width="7.5" height="41.0" fill="none" stroke="#e66767" stroke-width="1.1"/>
<rect x="778.4" y="442.7" width="7.5" height="27.3" fill="#008300"/>
<rect x="792.1" y="451.8" width="7.5" height="18.2" fill="none" stroke="#e66767" stroke-width="1.1"/>
<rect x="805.7" y="419.9" width="7.5" height="50.1" fill="#008300"/>
<rect x="819.4" y="433.6" width="7.5" height="36.4" fill="#008300"/>
<polyline points="16.8,424.9 30.5,427.6 44.2,429.0 57.8,429.5 71.5,429.5 85.2,430.4 98.8,430.8 112.5,431.7 126.2,431.7 139.8,430.4 153.5,429.5 167.2,425.8 180.8,423.1 194.5,421.3 208.2,422.2 221.8,425.4 235.5,426.3 249.2,421.7 262.8,418.5 276.5,419.0 290.2,419.4 303.8,421.7 317.5,419.0 331.2,421.3 344.8,419.0 358.5,418.5 372.2,418.5 385.8,422.6 399.5,425.4 413.2,425.4 426.8,427.2 440.5,427.6 454.2,430.4 467.8,430.8 481.5,432.6 495.2,432.6 508.8,433.1 522.5,434.5 536.2,432.6 549.8,433.1 563.5,433.6 577.2,435.4 590.8,436.7 604.5,437.2 618.2,436.7 631.8,436.3 645.5,439.0 659.2,439.5 672.8,444.5 686.5,445.9 700.2,448.1 713.8,450.9 727.5,450.4 741.2,453.1 754.8,455.0 768.5,454.5 782.2,452.7 795.8,453.1 809.5,448.1 823.2,446.3" fill="none" stroke="#3987e5" stroke-width="1.5" stroke-linejoin="round" stroke-linecap="round"/>
<polyline points="16.8,430.8 30.5,433.6 44.2,439.0 57.8,436.3 71.5,433.6 85.2,429.9 98.8,428.1 112.5,424.4 126.2,427.2 139.8,427.2 153.5,429.0 167.2,423.5 180.8,421.7 194.5,415.3 208.2,417.2 221.8,421.7 235.5,429.0 249.2,421.7 262.8,421.7 276.5,420.8 290.2,417.2 303.8,414.4 317.5,416.2 331.2,420.8 344.8,417.2 358.5,419.9 372.2,422.6 385.8,429.0 399.5,429.9 413.2,433.6 426.8,434.5 440.5,432.6 454.2,431.7 467.8,431.7 481.5,431.7 495.2,430.8 508.8,433.6 522.5,437.2 536.2,433.6 549.8,434.5 563.5,436.3 577.2,437.2 590.8,436.3 604.5,440.8 618.2,439.0 631.8,436.3 645.5,440.8 659.2,442.7 672.8,448.1 686.5,452.7 700.2,460.0 713.8,460.9 727.5,458.2 741.2,458.2 754.8,457.2 768.5,449.0 782.2,444.5 795.8,448.1 809.5,438.1 823.2,435.4" fill="none" stroke="#c98500" stroke-width="1.5" stroke-linejoin="round" stroke-linecap="round"/>
</svg>