<svg xmlns="http://www.w3.org/2000/svg" viewBox="0 0 840 496" width="840" height="496" font-family="-apple-system,&#39;Segoe UI&#39;,system-ui,sans-serif" role="img" aria-label="TheAlgorithms/Python candlestick chart">
<text x="14.0" y="20.0" font-size="15" fill="#ffffff" font-weight="650">TheAlgorithms/Python</text>
<text x="183.0" y="20.0" font-size="11.5" fill="#c3c2b7">daily · new stars, volume = new forks</text>
<text x="805.8" y="20.0" font-size="11.0" fill="#c3c2b7">fall</text>
<rect x="791" y="10" width="9" height="12" fill="#008300"/>
<text x="750.6" y="20.0" font-size="11.0" fill="#c3c2b7">rise</text>
<rect x="736" y="10" width="9" height="12" fill="none" stroke="#e66767" stroke-width="1.5"/>
<text x="14.0" y="38.0" font-size="11.0" fill="#898781">last 60 days · +2,132 stars · +482 forks · updated 2026-07-17</text>
<rect x="10" y="66" width="820" height="290" fill="none" stroke="#2c2c2a"/>
<rect x="10" y="384" width="820" height="86" fill="none" stroke="#2c2c2a"/>
<text x="38.0" y="490.0" font-size="11.0" fill="#898781" text-anchor="middle">2026-05</text>
<line x1="187.7" y1="66.0" x2="187.7" y2="356.0" stroke="#2c2c2a" stroke-width="1.0"/>
<line x1="187.7" y1="384.0" x2="187.7" y2="470.0" stroke="#2c2c2a" stroke-width="1.0"/>
<text x="194.5" y="490.0" font-size="11.0" fill="#898781" text-anchor="middle">2026-06</text>
<line x1="597.7" y1="66.0" x2="597.7" y2="356.0" stroke="#2c2c2a" stroke-width="1.0"/>
<line x1="597.7" y1="384.0" x2="597.7" y2="470.0" stroke="#2c2c2a" stroke-width="1.0"/>
<text x="604.5" y="490.0" font-size="11.0" fill="#898781" text-anchor="middle">2026-07</text>
<text x="14.0" y="58.0" font-size="11.0" fill="#c3c2b7">BOLL(20,2)</text>
<text x="84.5" y="58.0" font-size="11.0" fill="#c98500">UP:50.1</text>
<text x="136.9" y="58.0" font-size="11.0" fill="#3987e5">MID:30.2</text>
<text x="195.3" y="58.0" font-size="11.0" fill="#d55181">LOW:10.4</text>
<text x="253.7" y="58.0" font-size="11.0" fill="#9085e9">MA7:34.4</text>
<line x1="10.0" y1="215.4" x2="830.0" y2="215.4" stroke="#2c2c2a" stroke-width="1.0"/>
<text x="14.0" y="212.4" font-size="11.0" fill="#898781">50</text>
<polyline points="16.8,79.2 30.5,142.2 44.2,169.3 57.8,172.6 71.5,180.0 85.2,186.7 98.8,194.5 112.5,195.1 126.2,195.0 139.8,195.7 153.5,194.8 167.2,194.5 180.8,194.2 194.5,191.6 208.2,193.5 221.8,192.9 235.5,193.8 249.2,201.5 262.8,201.6 276.5,201.1 290.2,202.5 303.8,211.4 317.5,203.8 331.2,203.9 344.8,205.1 358.5,205.0 372.2,203.1 385.8,203.1 399.5,202.8 413.2,200.8 426.8,201.3 440.5,200.8 454.2,201.3 467.8,205.2 481.5,205.0 495.2,201.6 508.8,201.8 522.5,203.0 536.2,204.0 549.8,203.9 563.5,206.6 577.2,215.5 590.8,228.7 604.5,229.3 618.2,229.1 631.8,231.6 645.5,231.6 659.2,232.0 672.8,236.8 686.5,231.7 700.2,228.6 713.8,228.0 727.5,228.9 741.2,230.6 754.8,225.3 768.5,233.3 782.2,227.5 795.8,227.4 809.5,214.9 823.2,215.2" fill="none" stroke="#c98500" stroke-width="1.5" stroke-linejoin="round" stroke-linecap="round"/>
<polyline points="16.8,211.0 30.5,221.1 44.2,228.0 57.8,231.2 71.5,236.4 85.2,239.7 98.8,242.7 112.5,243.7 126.2,243.6 139.8,244.0 153.5,244.8 167.2,243.9 180.8,243.4 194.5,241.6 208.2,242.7 221.8,242.0 235.5,243.1 249.2,245.4 262.8,244.3 276.5,245.3 290.2,245.7 303.8,247.1 317.5,244.9 331.2,244.6 344.8,244.0 358.5,243.4 372.2,245.1 385.8,245.1 399.5,244.9 413.2,247.5 426.8,247.2 440.5,249.2 454.2,250.3 467.8,252.0 481.5,254.3 495.2,253.2 508.8,254.0 522.5,256.1 536.2,257.6 549.8,257.9 563.5,259.0 577.2,262.1 590.8,265.9 604.5,266.2 618.2,266.1 631.8,267.4 645.5,267.0 659.2,268.7 672.8,270.5 686.5,272.2 700.2,274.6 713.8,275.7 727.5,276.9 741.2,280.1 754.8,277.7 768.5,279.4 782.2,277.5 795.8,278.4 809.5,274.9 823.2,275.8" fill="none" stroke="#3987e5" stroke-width="1.5" stroke-linejoin="round" stroke-linecap="round"/>
<polyline points="16.8,342.8 30.5,299.9 44.2,286.6 57.8,289.8 71.5,292.8 85.2,292.8 98.8,290.9 112.5,292.3 126.2,292.2 139.8,292.3 153.5,294.8 167.2,293.3 180.8,292.6 194.5,291.6 208.2,291.8 221.8,291.2 235.5,292.4 249.2,289.3 262.8,287.1 276.5,289.4 290.2,288.9 303.8,282.8 317.5,286.1 331.2,285.4 344.8,283.0 358.5,281.8 372.2,287.1 385.8,287.1 399.5,287.1 413.2,294.3 426.8,293.2 440.5,297.6 454.2,299.3 467.8,298.8 481.5,303.5 495.2,304.8 508.8,306.1 522.5,309.3 536.2,311.3 549.8,312.0 563.5,311.4 577.2,308.6 590.8,303.1 604.5,303.1 618.2,303.0 631.8,303.3 645.5,302.3 659.2,305.3 672.8,304.2 686.5,312.6 700.2,320.6 713.8,323.4 727.5,325.0 741.2,329.7 754.8,330.0 768.5,325.4 782.2,327.6 795.8,329.5 809.5,334.9 823.2,336.5" fill="none" stroke="#d55181" stroke-width="1.5" stroke-linejoin="round" stroke-linecap="round"/>
<polyline points="16.8,233.8 30.5,227.7 44.2,226.8 57.8,230.7 71.5,243.0 85.2,241.7 98.8,241.1 112.5,246.9 126.2,255.5 139.8,255.2 153.5,257.9 167.2,252.4 180.8,250.9 194.5,246.3 208.2,244.2 221.8,243.9 235.5,246.0 249.2,240.2 262.8,240.8 276.5,244.2 290.2,245.7 303.8,240.2 317.5,235.0 331.2,235.0 344.8,239.0 358.5,239.0 372.2,240.8 385.8,245.1 399.5,249.4 413.2,262.5 426.8,265.3 440.5,267.4 454.2,270.5 467.8,266.2 481.5,270.5 495.2,267.4 508.8,264.4 522.5,265.6 536.2,264.7 549.8,266.2 563.5,265.6 577.2,262.5 590.8,271.4 604.5,270.2 618.2,267.4 631.8,267.1 645.5,266.5 659.2,272.6 672.8,273.5 686.5,280.6 700.2,289.1 713.8,295.0 727.5,297.7 741.2,303.8 754.8,296.2 768.5,292.8 782.2,279.7 795.8,276.6 809.5,262.5 823.2,263.1" fill="none" stroke="#9085e9" stroke-width="1.5" stroke-linejoin="round" stroke-linecap="round"/>
<rect x="13.1" y="218.5" width="7.5" height="33.6" fill="none" stroke="#e66767" stroke-width="1.3"/>
<rect x="26.7" y="178.7" width="7.5" height="39.8" fill="none" stroke="#e66767" stroke-width="1.3"/>
<rect x="40.4" y="178.7" width="7.5" height="64.2" fill="#008300"/>
<rect x="54.1" y="243.0" width="7.5" height="18.4" fill="#008300"/>
<rect x="67.7" y="261.3" width="7.5" height="18.4" fill="#008300"/>
<rect x="81.4" y="258.3" width="7.5" height="21.4" fill="none" stroke="#e66767" stroke-width="1.3"/>
<rect x="95.1" y="249.1" width="7.5" height="9.2" fill="none" stroke="#e66767" stroke-width="1.3"/>
<rect x="108.7" y="249.1" width="7.5" height="9.2" fill="#008300"/>
<rect x="122.4" y="239.9" width="7.5" height="18.4" fill="none" stroke="#e66767" stroke-width="1.3"/>
<rect x="136.1" y="239.9" width="7.5" height="1.2" fill="#898781"/>
<rect x="149.7" y="239.9" width="7.5" height="39.8" fill="#008300"/>
<rect x="163.4" y="243.0" width="7.5" height="36.7" fill="none" stroke="#e66767" stroke-width="1.3"/>
<rect x="177.1" y="243.0" width="7.5" height="3.1" fill="#008300"/>
<rect x="190.7" y="218.5" width="7.5" height="27.5" fill="none" stroke="#e66767" stroke-width="1.3"/>
<rect x="204.4" y="218.5" width="7.5" height="24.5" fill="#008300"/>
<rect x="218.1" y="236.8" width="7.5" height="6.1" fill="none" stroke="#e66767" stroke-width="1.3"/>
<rect x="231.7" y="236.8" width="7.5" height="18.4" fill="#008300"/>
<rect x="245.4" y="239.9" width="7.5" height="15.3" fill="none" stroke="#e66767" stroke-width="1.3"/>
<rect x="259.1" y="239.9" width="7.5" height="6.1" fill="#008300"/>
<rect x="272.7" y="246.0" width="7.5" height="24.5" fill="#008300"/>
<rect x="286.4" y="227.7" width="7.5" height="42.8" fill="none" stroke="#e66767" stroke-width="1.3"/>
<rect x="300.1" y="206.3" width="7.5" height="21.4" fill="none" stroke="#e66767" stroke-width="1.3"/>
<rect x="313.7" y="200.1" width="7.5" height="6.1" fill="none" stroke="#e66767" stroke-width="1.3"/>
<rect x="327.4" y="200.1" width="7.5" height="55.1" fill="#008300"/>
<rect x="341.1" y="255.2" width="7.5" height="12.2" fill="#008300"/>
<rect x="354.7" y="246.0" width="7.5" height="21.4" fill="none" stroke="#e66767" stroke-width="1.3"/>
<rect x="368.4" y="246.0" width="7.5" height="36.7" fill="#008300"/>
<rect x="382.1" y="258.3" width="7.5" height="24.5" fill="none" stroke="#e66767" stroke-width="1.3"/>
<rect x="395.7" y="236.8" width="7.5" height="21.4" fill="none" stroke="#e66767" stroke-width="1.3"/>
<rect x="409.4" y="236.8" width="7.5" height="55.1" fill="#008300"/>
<rect x="423.1" y="273.5" width="7.5" height="18.4" fill="none" stroke="#e66767" stroke-width="1.3"/>
<rect x="436.7" y="273.5" width="7.5" height="9.2" fill="#008300"/>
<rect x="450.4" y="267.4" width="7.5" height="15.3" fill="none" stroke="#e66767" stroke-width="1.3"/>
<rect x="464.1" y="252.1" width="7.5" height="15.3" fill="none" stroke="#e66767" stroke-width="1.3"/>
<rect x="477.7" y="252.1" width="7.5" height="36.7" fill="#008300"/>
<rect x="491.4" y="215.4" width="7.5" height="73.4" fill="none" stroke="#e66767" stroke-width="1.3"/>
<rect x="505.1" y="215.4" width="7.5" height="55.1" fill="#008300"/>
<rect x="518.7" y="270.5" width="7.5" height="12.2" fill="#008300"/>
<rect x="532.4" y="276.6" width="7.5" height="6.1" fill="none" stroke="#e66767" stroke-width="1.3"/>
<rect x="546.1" y="276.6" width="7.5" height="1.2" fill="#898781"/>
<rect x="559.7" y="249.1" width="7.5" height="27.5" fill="none" stroke="#e66767" stroke-width="1.3"/>
<rect x="573.4" y="249.1" width="7.5" height="18.4" fill="#008300"/>
<rect x="587.1" y="267.4" width="7.5" height="9.2" fill="#008300"/>
<rect x="600.7" y="261.3" width="7.5" height="15.3" fill="none" stroke="#e66767" stroke-width="1.3"/>
<rect x="614.4" y="261.3" width="7.5" height="3.1" fill="#008300"/>
<rect x="628.1" y="264.4" width="7.5" height="9.2" fill="#008300"/>
<rect x="641.7" y="273.5" width="7.5" height="1.2" fill="#898781"/>
<rect x="655.4" y="273.5" width="7.5" height="18.4" fill="#008300"/>
<rect x="669.1" y="273.5" width="7.5" height="18.4" fill="none" stroke="#e66767" stroke-width="1.3"/>
<rect x="682.7" y="273.5" width="7.5" height="52.0" fill="#008300"/>
<rect x="696.4" y="322.5" width="7.5" height="3.1" fill="none" stroke="#e66767" stroke-width="1.3"/>
<rect x="710.1" y="304.1" width="7.5" height="18.4" fill="none" stroke="#e66767" stroke-width="1.3"/>
<rect x="723.7" y="291.9" width="7.5" height="12.2" fill="none" stroke="#e66767" stroke-width="1.3"/>
<rect x="737.4" y="291.9" width="7.5" height="24.5" fill="#008300"/>
<rect x="751.1" y="239.9" width="7.5" height="76.5" fill="none" stroke="#e66767" stroke-width="1.3"/>
<rect x="764.7" y="239.9" width="7.5" height="9.2" fill="#008300"/>
<rect x="778.4" y="233.8" width="7.5" height="15.3" fill="none" stroke="#e66767" stroke-width="1.3"/>
<rect x="792.1" y="233.8" width="7.5" height="67.3" fill="#008300"/>
<rect x="805.7" y="206.3" width="7.5" height="94.8" fill="none" stroke="#e66767" stroke-width="1.3"/>
<rect x="819.4" y="206.3" width="7.5" height="88.7" fill="#008300"/>
<circle cx="30.5" cy="178.7" r="2" fill="#c3c2b7"/>
<line x1="30.5" y1="178.7" x2="38.5" y2="178.7" stroke="#c3c2b7" stroke-width="1.0"/>
<text x="41.5" y="182.7" font-size="11.0" fill="#c3c2b7">62</text>
<circle cx="686.5" cy="325.5" r="2" fill="#c3c2b7"/>
<line x1="686.5" y1="325.5" x2="678.5" y2="325.5" stroke="#c3c2b7" stroke-width="1.0"/>
<text x="675.5" y="329.5" font-size="11.0" fill="#c3c2b7" text-anchor="end">14</text>
<text x="14.0" y="376.0" font-size="11.0" fill="#c3c2b7">VOL 6 forks</text>
<text x="90.6" y="376.0" font-size="11.0" fill="#c98500">MA5:5.6</text>
<text x="142.9" y="376.0" font-size="11.0" fill="#3987e5">MA10:3.8</text>
<text x="14.0" y="395.0" font-size="10" fill="#898781">18</text>
<rect x="13.1" y="424.4" width="7.5" height="45.6" fill="none" stroke="#e66767" stroke-width="1.1"/>
<rect x="26.7" y="442.7" width="7.5" height="27.3" fill="none" stroke="#e66767" stroke-width="1.1"/>
<rect x="40.4" y="442.7" width="7.5" height="27.3" fill="#008300"/>
<rect x="54.1" y="429.0" width="7.5" height="41.0" fill="#008300"/>
<rect x="67.7" y="429.0" width="7.5" height="41.0" fill="#008300"/>
<rect x="81.4" y="451.8" width="7.5" height="18.2" fill="none" stroke="#e66767" stroke-width="1.1"/>
<rect x="95.1" y="429.0" width="7.5" height="41.0" fill="none" stroke="#e66767" stroke-width="1.1"/>
<rect x="108.7" y="429.0" width="7.5" height="41.0" fill="#008300"/>
<rect x="122.4" y="410.8" width="7.5" height="59.2" fill="none" stroke="#e66767" stroke-width="1.1"/>
<rect x="136.1" y="419.9" width="7.5" height="50.1" fill="#898781"/>
<rect x="149.7" y="433.6" width="7.5" height="36.4" fill="#008300"/>
<rect x="163.4" y="442.7" width="7.5" height="27.3" fill="none" stroke="#e66767" stroke-width="1.1"/>
<rect x="177.1" y="429.0" width="7.5" height="41.0" fill="#008300"/>
<rect x="190.7" y="419.9" width="7.5" height="50.1" fill="none" stroke="#e66767" stroke-width="1.1"/>
<rect x="204.4" y="392.6" width="7.5" height="77.4" fill="#008300"/>
<rect x="218.1" y="424.4" width="7.5" height="45.6" fill="none" stroke="#e66767" stroke-width="1.1"/>
<rect x="231.7" y="410.8" width="7.5" height="59.2" fill="#008300"/>
<rect x="245.4" y="438.1" width="7.5" height="31.9" fill="none" stroke="#e66767" stroke-width="1.1"/>
<rect x="259.1" y="442.7" width="7.5" height="27.3" fill="#008300"/>
<rect x="272.7" y="429.0" width="7.5" height="41.0" fill="#008300"/>
<rect x="286.4" y="388.0" width="7.5" height="82.0" fill="none" stroke="#e66767" stroke-width="1.1"/>
<rect x="300.1" y="410.8" width="7.5" height="59.2" fill="none" stroke="#e66767" stroke-width="1.1"/>
<rect x="313.7" y="433.6" width="7.5" height="36.4" fill="none" stroke="#e66767" stroke-width="1.1"/>
<rect x="327.4" y="424.4" width="7.5" height="45.6" fill="#008300"/>
<rect x="341.1" y="415.3" width="7.5" height="54.7" fill="#008300"/>
<rect x="354.7" y="397.1" width="7.5" height="72.9" fill="none" stroke="#e66767" stroke-width="1.1"/>
<rect x="368.4" y="433.6" width="7.5" height="36.4" fill="#008300"/>
<rect x="382.1" y="415.3" width="7.5" height="54.7" fill="none" stroke="#e66767" stroke-width="1.1"/>
<rect x="395.7" y="438.1" width="7.5" height="31.9" fill="none" stroke="#e66767" stroke-width="1.1"/>
<rect x="409.4" y="429.0" width="7.5" height="41.0" fill="#008300"/>
<rect x="423.1" y="429.0" width="7.5" height="41.0" fill="none" stroke="#e66767" stroke-width="1.1"/>
<rect x="436.7" y="438.1" width="7.5" height="31.9" fill="#008300"/>
<rect x="450.4" y="433.6" width="7.5" height="36.4" fill="none" stroke="#e66767" stroke-width="1.1"/>
<rect x="464.1" y="442.7" width="7.5" height="27.3" fill="none" stroke="#e66767" stroke-width="1.1"/>
<rect x="477.7" y="419.9" width="7.5" height="50.1" fill="#008300"/>
<rect x="491.4" y="424.4" width="7.5" height="45.6" fill="none" stroke="#e66767" stroke-width="1.1"/>
<rect x="505.1" y="438.1" width="7.5" height="31.9" fill="#008300"/>
<rect x="518.7" y="433.6" width="7.5" height="36.4" fill="#008300"/>
<rect x="532.4" y="438.1" width="7.5" height="31.9" fill="none" stroke="#e66767" stroke-width="1.1"/>
<rect x="546.1" y="433.6" width="7.5" height="36.4" fill="#898781"/>
<rect x="559.7" y="442.7" width="7.5" height="27.3" fill="none" stroke="#e66767" stroke-width="1.1"/>
<rect x="573.4" y="419.9" width="7.5" height="50.1" fill="#008300"/>
<rect x="587.1" y="438.1" width="7.5" height="31.9" fill="#008300"/>
<rect x="600.7" y="447.2" width="7.5" height="22.8" fill="none" stroke="#e66767" stroke-width="1.1"/>
<rect x="614.4" y="438.1" width="7.5" height="31.9" fill="#008300"/>
<rect x="628.1" y="438.1" width="7.5" height="31.9" fill="#008300"/>
<rect x="641.7" y="442.7" width="7.5" height="27.3" fill="#898781"/>
<rect x="655.4" y="429.0" width="7.5" height="41.0" fill="#008300"/>
<rect x="669.1" y="433.6" width="7.5" height="36.4" fill="none" stroke="#e66767" stroke-width="1.1"/>
<rect x="682.7" y="460.9" width="7.5" height="9.1" fill="#008300"/>
<rect x="696.4" y="447.2" width="7.5" height="22.8" fill="none" stroke="#e66767" stroke-width="1.1"/>
<rect x="723.7" y="451.8" width="7.5" height="18.2" fill="none" stroke="#e66767" stroke-width="1.1"/>
<rect x="751.1" y="465.4" width="7.5" height="4.6" fill="none" stroke="#e66767" stroke-width="1.1"/>
<rect x="764.7" y="433.6" width="7.5" height="36.4" fill="#008300"/>
<rect x="792.1" y="447.2" width="7.5" height="22.8" fill="#008300"/>
<rect x="805.7" y="429.0" width="7.5" height="41.0" fill="none" stroke="#e66767" stroke-width="1.1"/>
<rect x="819.4" y="442.7" width="7.5" height="27.3" fill="#008300"/>
<polyline points="16.8,419.4 30.5,421.3 44.2,423.5 57.8,424.9 71.5,427.6 85.2,429.0 98.8,429.5 112.5,429.5 126.2,430.4 139.8,430.8 153.5,431.7 167.2,431.7 180.8,430.4 194.5,429.5 208.2,425.8 221.8,423.1 235.5,421.3 249.2,422.2 262.8,425.4 276.5,426.3 290.2,421.7 303.8,418.5 317.5,419.0 331.2,419.4 344.8,421.7 358.5,419.0 372.2,421.3 385.8,419.0 399.5,418.5 413.2,418.5 426.8,422.6 440.5,425.4 454.2,425.4 467.8,427.2 481.5,427.6 495.2,430.4 508.8,430.8 522.5,432.6 536.2,432.6 549.8,433.1 563.5,434.5 577.2,432.6 590.8,433.1 604.5,433.6 618.2,435.4 631.8,436.7 645.5,437.2 659.2,436.7 672.8,436.3 686.5,439.0 700.2,439.5 713.8,444.5 727.5,445.9 741.2,448.1 754.8,450.9 768.5,450.4 782.2,453.1 795.8,455.0 809.5,454.5 823.2,452.7" fill="none" stroke="#3987e5" stroke-width="1.5" stroke-linejoin="round" stroke-linecap="round"/>
<polyline points="16.8,419.0 30.5,422.6 44.2,425.4 57.8,430.8 71.5,433.6 85.2,439.0 98.8,436.3 112.5,433.6 126.2,429.9 139.8,428.1 153.5,424.4 167.2,427.2 180.8,427.2 194.5,429.0 208.2,423.5 221.8,421.7 235.5,415.3 249.2,417.2 262.8,421.7 276.5,429.0 290.2,421.7 303.8,421.7 317.5,420.8 331.2,417.2 344.8,414.4 358.5,416.2 372.2,420.8 385.8,417.2 399.5,419.9 413.2,422.6 426.8,429.0 440.5,429.9 454.2,433.6 467.8,434.5 481.5,432.6 495.2,431.7 508.8,431.7 522.5,431.7 536.2,430.8 549.8,433.6 563.5,437.2 577.2,433.6 590.8,434.5 604.5,436.3 618.2,437.2 631.8,436.3 645.5,440.8 659.2,439.0 672.8,436.3 686.5,440.8 700.2,442.7 713.8,448.1 727.5,452.7 741.2,460.0 754.8,460.9 768.5,458.2 782.2,458.2 795.8,457.2 809.5,449.0 823.2,444.5" fill="none" stroke="#c98500" stroke-width="1.5" stroke-linejoin="round" stroke-linecap="round"/>
</svg>