<svg xmlns="http://www.w3.org/2000/svg" viewBox="0 0 840 496" width="840" height="496" font-family="-apple-system,&#39;Segoe UI&#39;,system-ui,sans-serif" role="img" aria-label="TheAlgorithms/Python candlestick chart">
<text x="14.0" y="20.0" font-size="15" fill="#0b0b0b" font-weight="650">TheAlgorithms/Python</text>
<text x="183.0" y="20.0" font-size="11.5" fill="#52514e">daily · new stars, volume = new forks</text>
<text x="805.8" y="20.0" font-size="11.0" fill="#52514e">fall</text>
<rect x="791" y="10" width="9" height="12" fill="#008300"/>
<text x="750.6" y="20.0" font-size="11.0" fill="#52514e">rise</text>
<rect x="736" y="10" width="9" height="12" fill="none" stroke="#e34948" stroke-width="1.5"/>
<text x="14.0" y="38.0" font-size="11.0" fill="#898781">last 60 days · +2,135 stars · +471 forks · updated 2026-07-22</text>
<rect x="10" y="66" width="820" height="290" fill="none" stroke="#e1e0d9"/>
<rect x="10" y="384" width="820" height="86" fill="none" stroke="#e1e0d9"/>
<text x="38.0" y="490.0" font-size="11.0" fill="#898781" text-anchor="middle">2026-05</text>
<line x1="119.3" y1="66.0" x2="119.3" y2="356.0" stroke="#e1e0d9" stroke-width="1.0"/>
<line x1="119.3" y1="384.0" x2="119.3" y2="470.0" stroke="#e1e0d9" stroke-width="1.0"/>
<text x="126.2" y="490.0" font-size="11.0" fill="#898781" text-anchor="middle">2026-06</text>
<line x1="529.3" y1="66.0" x2="529.3" y2="356.0" stroke="#e1e0d9" stroke-width="1.0"/>
<line x1="529.3" y1="384.0" x2="529.3" y2="470.0" stroke="#e1e0d9" stroke-width="1.0"/>
<text x="536.2" y="490.0" font-size="11.0" fill="#898781" text-anchor="middle">2026-07</text>
<text x="14.0" y="58.0" font-size="11.0" fill="#52514e">BOLL(20,2)</text>
<text x="84.5" y="58.0" font-size="11.0" fill="#eda100">UP:56.6</text>
<text x="136.9" y="58.0" font-size="11.0" fill="#2a78d6">MID:32.6</text>
<text x="195.3" y="58.0" font-size="11.0" fill="#e87ba4">LOW:8.7</text>
<text x="247.6" y="58.0" font-size="11.0" fill="#4a3aa7">MA7:42.3</text>
<line x1="10.0" y1="283.7" x2="830.0" y2="283.7" stroke="#e1e0d9" stroke-width="1.0"/>
<text x="14.0" y="280.7" font-size="11.0" fill="#898781">20</text>
<line x1="10.0" y1="179.9" x2="830.0" y2="179.9" stroke="#e1e0d9" stroke-width="1.0"/>
<text x="14.0" y="176.9" font-size="11.0" fill="#898781">40</text>
<line x1="10.0" y1="76.1" x2="830.0" y2="76.1" stroke="#e1e0d9" stroke-width="1.0"/>
<text x="14.0" y="73.1" font-size="11.0" fill="#898781">60</text>
<polyline points="16.8,79.2 30.5,92.4 44.2,93.5 57.8,93.2 71.5,94.5 85.2,92.9 98.8,92.4 112.5,92.0 126.2,87.5 139.8,90.8 153.5,89.8 167.2,91.3 180.8,104.3 194.5,104.5 208.2,103.7 221.8,106.0 235.5,121.1 249.2,108.2 262.8,108.4 276.5,110.4 290.2,110.3 303.8,107.0 317.5,107.0 331.2,106.6 344.8,103.2 358.5,103.9 372.2,103.2 385.8,103.9 399.5,110.6 413.2,110.3 426.8,104.5 440.5,104.9 454.2,106.8 467.8,108.5 481.5,108.5 495.2,113.0 508.8,128.1 522.5,150.5 536.2,151.5 549.8,151.2 563.5,155.3 577.2,155.5 590.8,156.1 604.5,164.3 618.2,155.6 631.8,150.3 645.5,149.3 659.2,150.8 672.8,153.7 686.5,144.8 700.2,158.3 713.8,148.4 727.5,148.3 741.2,127.1 754.8,127.6 768.5,111.9 782.2,107.0 795.8,103.5 809.5,93.8 823.2,93.5" fill="none" stroke="#eda100" stroke-width="1.5" stroke-linejoin="round" stroke-linecap="round"/>
<polyline points="16.8,169.2 30.5,174.2 44.2,176.0 57.8,175.7 71.5,176.5 85.2,177.8 98.8,176.2 112.5,175.5 126.2,172.4 139.8,174.2 153.5,173.1 167.2,175.0 180.8,178.8 194.5,177.0 208.2,178.6 221.8,179.4 235.5,181.7 249.2,178.1 262.8,177.5 276.5,176.5 290.2,175.5 303.8,178.3 317.5,178.3 331.2,178.1 344.8,182.5 358.5,182.0 372.2,185.3 385.8,187.1 399.5,190.0 413.2,193.9 426.8,192.1 440.5,193.4 454.2,197.0 467.8,199.6 481.5,200.1 495.2,201.9 508.8,207.1 522.5,213.6 536.2,214.1 549.8,213.9 563.5,216.2 577.2,215.4 590.8,218.3 604.5,221.4 618.2,224.3 631.8,228.4 645.5,230.2 659.2,232.3 672.8,237.8 686.5,233.6 700.2,236.5 713.8,233.3 727.5,234.9 741.2,228.9 754.8,230.5 768.5,226.6 782.2,224.3 795.8,221.9 809.5,218.3 823.2,218.0" fill="none" stroke="#2a78d6" stroke-width="1.5" stroke-linejoin="round" stroke-linecap="round"/>
<polyline points="16.8,259.3 30.5,256.0 44.2,258.5 57.8,258.2 71.5,258.5 85.2,262.7 98.8,260.1 112.5,258.9 126.2,257.2 139.8,257.6 153.5,256.5 167.2,258.6 180.8,253.4 194.5,249.6 208.2,253.5 221.8,252.7 235.5,242.3 249.2,247.9 262.8,246.7 276.5,242.6 290.2,240.7 303.8,249.6 317.5,249.6 331.2,249.5 344.8,261.8 358.5,260.0 372.2,267.5 385.8,270.4 399.5,269.4 413.2,277.5 426.8,279.6 440.5,281.9 454.2,287.2 467.8,290.7 481.5,291.8 495.2,290.9 508.8,286.1 522.5,276.7 536.2,276.8 549.8,276.5 563.5,277.1 577.2,275.4 590.8,280.5 604.5,278.6 618.2,292.9 631.8,306.5 645.5,311.2 659.2,313.9 672.8,321.8 686.5,322.4 700.2,314.6 713.8,318.3 727.5,321.5 741.2,330.7 754.8,333.4 768.5,341.3 782.2,341.6 795.8,340.4 809.5,342.8 823.2,342.6" fill="none" stroke="#e87ba4" stroke-width="1.5" stroke-linejoin="round" stroke-linecap="round"/>
<polyline points="16.8,172.6 30.5,171.6 44.2,181.4 57.8,196.0 71.5,195.5 85.2,200.1 98.8,190.8 112.5,188.2 126.2,180.4 139.8,176.8 153.5,176.2 167.2,179.9 180.8,170.0 194.5,171.1 208.2,176.8 221.8,179.4 235.5,170.0 249.2,161.2 262.8,161.2 276.5,167.9 290.2,167.9 303.8,171.1 317.5,178.3 331.2,185.6 344.8,207.9 358.5,212.6 372.2,216.2 385.8,221.4 399.5,214.1 413.2,221.4 426.8,216.2 440.5,211.0 454.2,213.1 467.8,211.5 481.5,214.1 495.2,213.1 508.8,207.9 522.5,223.0 536.2,220.9 549.8,216.2 563.5,215.7 577.2,214.7 590.8,225.0 604.5,226.6 618.2,238.5 631.8,253.1 645.5,262.9 659.2,267.6 672.8,278.0 686.5,265.0 700.2,259.3 713.8,237.0 727.5,231.8 741.2,207.9 754.8,208.9 768.5,181.4 782.2,181.4 795.8,181.4 809.5,177.8 823.2,167.9" fill="none" stroke="#4a3aa7" stroke-width="1.5" stroke-linejoin="round" stroke-linecap="round"/>
<rect x="13.1" y="200.6" width="7.5" height="36.3" fill="none" stroke="#e34948" stroke-width="1.3"/>
<rect x="26.7" y="185.1" width="7.5" height="15.6" fill="none" stroke="#e34948" stroke-width="1.3"/>
<rect x="40.4" y="185.1" width="7.5" height="15.6" fill="#008300"/>
<rect x="54.1" y="169.5" width="7.5" height="31.1" fill="none" stroke="#e34948" stroke-width="1.3"/>
<rect x="67.7" y="169.5" width="7.5" height="1.2" fill="#898781"/>
<rect x="81.4" y="169.5" width="7.5" height="67.5" fill="#008300"/>
<rect x="95.1" y="174.7" width="7.5" height="62.3" fill="none" stroke="#e34948" stroke-width="1.3"/>
<rect x="108.7" y="174.7" width="7.5" height="5.2" fill="#008300"/>
<rect x="122.4" y="133.2" width="7.5" height="46.7" fill="none" stroke="#e34948" stroke-width="1.3"/>
<rect x="136.1" y="133.2" width="7.5" height="41.5" fill="#008300"/>
<rect x="149.7" y="164.3" width="7.5" height="10.4" fill="none" stroke="#e34948" stroke-width="1.3"/>
<rect x="163.4" y="164.3" width="7.5" height="31.1" fill="#008300"/>
<rect x="177.1" y="169.5" width="7.5" height="26.0" fill="none" stroke="#e34948" stroke-width="1.3"/>
<rect x="190.7" y="169.5" width="7.5" height="10.4" fill="#008300"/>
<rect x="204.4" y="179.9" width="7.5" height="41.5" fill="#008300"/>
<rect x="218.1" y="148.7" width="7.5" height="72.7" fill="none" stroke="#e34948" stroke-width="1.3"/>
<rect x="231.7" y="112.4" width="7.5" height="36.3" fill="none" stroke="#e34948" stroke-width="1.3"/>
<rect x="245.4" y="102.0" width="7.5" height="10.4" fill="none" stroke="#e34948" stroke-width="1.3"/>
<rect x="259.1" y="102.0" width="7.5" height="93.4" fill="#008300"/>
<rect x="272.7" y="195.5" width="7.5" height="20.8" fill="#008300"/>
<rect x="286.4" y="179.9" width="7.5" height="36.3" fill="none" stroke="#e34948" stroke-width="1.3"/>
<rect x="300.1" y="179.9" width="7.5" height="62.3" fill="#008300"/>
<rect x="313.7" y="200.6" width="7.5" height="41.5" fill="none" stroke="#e34948" stroke-width="1.3"/>
<rect x="327.4" y="164.3" width="7.5" height="36.3" fill="none" stroke="#e34948" stroke-width="1.3"/>
<rect x="341.1" y="164.3" width="7.5" height="93.4" fill="#008300"/>
<rect x="354.7" y="226.6" width="7.5" height="31.1" fill="none" stroke="#e34948" stroke-width="1.3"/>
<rect x="368.4" y="226.6" width="7.5" height="15.6" fill="#008300"/>
<rect x="382.1" y="216.2" width="7.5" height="26.0" fill="none" stroke="#e34948" stroke-width="1.3"/>
<rect x="395.7" y="190.3" width="7.5" height="26.0" fill="none" stroke="#e34948" stroke-width="1.3"/>
<rect x="409.4" y="190.3" width="7.5" height="62.3" fill="#008300"/>
<rect x="423.1" y="128.0" width="7.5" height="124.6" fill="none" stroke="#e34948" stroke-width="1.3"/>
<rect x="436.7" y="128.0" width="7.5" height="93.4" fill="#008300"/>
<rect x="450.4" y="221.4" width="7.5" height="20.8" fill="#008300"/>
<rect x="464.1" y="231.8" width="7.5" height="10.4" fill="none" stroke="#e34948" stroke-width="1.3"/>
<rect x="477.7" y="231.8" width="7.5" height="1.2" fill="#898781"/>
<rect x="491.4" y="185.1" width="7.5" height="46.7" fill="none" stroke="#e34948" stroke-width="1.3"/>
<rect x="505.1" y="185.1" width="7.5" height="31.1" fill="#008300"/>
<rect x="518.7" y="216.2" width="7.5" height="15.6" fill="#008300"/>
<rect x="532.4" y="205.8" width="7.5" height="26.0" fill="none" stroke="#e34948" stroke-width="1.3"/>
<rect x="546.1" y="205.8" width="7.5" height="5.2" fill="#008300"/>
<rect x="559.7" y="211.0" width="7.5" height="15.6" fill="#008300"/>
<rect x="573.4" y="226.6" width="7.5" height="1.2" fill="#898781"/>
<rect x="587.1" y="226.6" width="7.5" height="31.1" fill="#008300"/>
<rect x="600.7" y="226.6" width="7.5" height="31.1" fill="none" stroke="#e34948" stroke-width="1.3"/>
<rect x="614.4" y="226.6" width="7.5" height="88.2" fill="#008300"/>
<rect x="628.1" y="309.6" width="7.5" height="5.2" fill="none" stroke="#e34948" stroke-width="1.3"/>
<rect x="641.7" y="278.5" width="7.5" height="31.1" fill="none" stroke="#e34948" stroke-width="1.3"/>
<rect x="655.4" y="257.7" width="7.5" height="20.8" fill="none" stroke="#e34948" stroke-width="1.3"/>
<rect x="669.1" y="257.7" width="7.5" height="41.5" fill="#008300"/>
<rect x="682.7" y="169.5" width="7.5" height="129.8" fill="none" stroke="#e34948" stroke-width="1.3"/>
<rect x="696.4" y="169.5" width="7.5" height="15.6" fill="#008300"/>
<rect x="710.1" y="159.1" width="7.5" height="26.0" fill="none" stroke="#e34948" stroke-width="1.3"/>
<rect x="723.7" y="159.1" width="7.5" height="114.2" fill="#008300"/>
<rect x="737.4" y="112.4" width="7.5" height="160.9" fill="none" stroke="#e34948" stroke-width="1.3"/>
<rect x="751.1" y="112.4" width="7.5" height="150.5" fill="#008300"/>
<rect x="764.7" y="107.2" width="7.5" height="155.7" fill="none" stroke="#e34948" stroke-width="1.3"/>
<rect x="778.4" y="107.2" width="7.5" height="62.3" fill="#008300"/>
<rect x="792.1" y="169.5" width="7.5" height="15.6" fill="#008300"/>
<rect x="805.7" y="133.2" width="7.5" height="51.9" fill="none" stroke="#e34948" stroke-width="1.3"/>
<rect x="819.4" y="133.2" width="7.5" height="72.7" fill="#008300"/>
<circle cx="249.2" cy="102.0" r="2" fill="#52514e"/>
<line x1="249.2" y1="102.0" x2="257.2" y2="102.0" stroke="#52514e" stroke-width="1.0"/>
<text x="260.2" y="106.0" font-size="11.0" fill="#52514e">55</text>
<circle cx="618.2" cy="314.8" r="2" fill="#52514e"/>
<line x1="618.2" y1="314.8" x2="610.2" y2="314.8" stroke="#52514e" stroke-width="1.0"/>
<text x="607.2" y="318.8" font-size="11.0" fill="#52514e" text-anchor="end">14</text>
<text x="14.0" y="376.0" font-size="11.0" fill="#52514e">VOL 3 forks</text>
<text x="90.6" y="376.0" font-size="11.0" fill="#eda100">MA5:5.8</text>
<text x="142.9" y="376.0" font-size="11.0" fill="#2a78d6">MA10:5.7</text>
<text x="14.0" y="395.0" font-size="10" fill="#898781">18</text>
<rect x="13.1" y="451.8" width="7.5" height="18.2" fill="none" stroke="#e34948" stroke-width="1.1"/>
<rect x="26.7" y="429.0" width="7.5" height="41.0" fill="none" stroke="#e34948" stroke-width="1.1"/>
<rect x="40.4" y="429.0" width="7.5" height="41.0" fill="#008300"/>
<rect x="54.1" y="410.8" width="7.5" height="59.2" fill="none" stroke="#e34948" stroke-width="1.1"/>
<rect x="67.7" y="419.9" width="7.5" height="50.1" fill="#898781"/>
<rect x="81.4" y="433.6" width="7.5" height="36.4" fill="#008300"/>
<rect x="95.1" y="442.7" width="7.5" height="27.3" fill="none" stroke="#e34948" stroke-width="1.1"/>
<rect x="108.7" y="429.0" width="7.5" height="41.0" fill="#008300"/>
<rect x="122.4" y="419.9" width="7.5" height="50.1" fill="none" stroke="#e34948" stroke-width="1.1"/>
<rect x="136.1" y="392.6" width="7.5" height="77.4" fill="#008300"/>
<rect x="149.7" y="424.4" width="7.5" height="45.6" fill="none" stroke="#e34948" stroke-width="1.1"/>
<rect x="163.4" y="410.8" width="7.5" height="59.2" fill="#008300"/>
<rect x="177.1" y="438.1" width="7.5" height="31.9" fill="none" stroke="#e34948" stroke-width="1.1"/>
<rect x="190.7" y="442.7" width="7.5" height="27.3" fill="#008300"/>
<rect x="204.4" y="429.0" width="7.5" height="41.0" fill="#008300"/>
<rect x="218.1" y="388.0" width="7.5" height="82.0" fill="none" stroke="#e34948" stroke-width="1.1"/>
<rect x="231.7" y="410.8" width="7.5" height="59.2" fill="none" stroke="#e34948" stroke-width="1.1"/>
<rect x="245.4" y="433.6" width="7.5" height="36.4" fill="none" stroke="#e34948" stroke-width="1.1"/>
<rect x="259.1" y="424.4" width="7.5" height="45.6" fill="#008300"/>
<rect x="272.7" y="415.3" width="7.5" height="54.7" fill="#008300"/>
<rect x="286.4" y="397.1" width="7.5" height="72.9" fill="none" stroke="#e34948" stroke-width="1.1"/>
<rect x="300.1" y="433.6" width="7.5" height="36.4" fill="#008300"/>
<rect x="313.7" y="415.3" width="7.5" height="54.7" fill="none" stroke="#e34948" stroke-width="1.1"/>
<rect x="327.4" y="438.1" width="7.5" height="31.9" fill="none" stroke="#e34948" stroke-width="1.1"/>
<rect x="341.1" y="429.0" width="7.5" height="41.0" fill="#008300"/>
<rect x="354.7" y="429.0" width="7.5" height="41.0" fill="none" stroke="#e34948" stroke-width="1.1"/>
<rect x="368.4" y="438.1" width="7.5" height="31.9" fill="#008300"/>
<rect x="382.1" y="433.6" width="7.5" height="36.4" fill="none" stroke="#e34948" stroke-width="1.1"/>
<rect x="395.7" y="442.7" width="7.5" height="27.3" fill="none" stroke="#e34948" stroke-width="1.1"/>
<rect x="409.4" y="419.9" width="7.5" height="50.1" fill="#008300"/>
<rect x="423.1" y="424.4" width="7.5" height="45.6" fill="none" stroke="#e34948" stroke-width="1.1"/>
<rect x="436.7" y="438.1" width="7.5" height="31.9" fill="#008300"/>
<rect x="450.4" y="433.6" width="7.5" height="36.4" fill="#008300"/>
<rect x="464.1" y="438.1" width="7.5" height="31.9" fill="none" stroke="#e34948" stroke-width="1.1"/>
<rect x="477.7" y="433.6" width="7.5" height="36.4" fill="#898781"/>
<rect x="491.4" y="442.7" width="7.5" height="27.3" fill="none" stroke="#e34948" stroke-width="1.1"/>
<rect x="505.1" y="419.9" width="7.5" height="50.1" fill="#008300"/>
<rect x="518.7" y="438.1" width="7.5" height="31.9" fill="#008300"/>
<rect x="532.4" y="447.2" width="7.5" height="22.8" fill="none" stroke="#e34948" stroke-width="1.1"/>
<rect x="546.1" y="438.1" width="7.5" height="31.9" fill="#008300"/>
<rect x="559.7" y="438.1" width="7.5" height="31.9" fill="#008300"/>
<rect x="573.4" y="442.7" width="7.5" height="27.3" fill="#898781"/>
<rect x="587.1" y="429.0" width="7.5" height="41.0" fill="#008300"/>
<rect x="600.7" y="433.6" width="7.5" height="36.4" fill="none" stroke="#e34948" stroke-width="1.1"/>
<rect x="614.4" y="460.9" width="7.5" height="9.1" fill="#008300"/>
<rect x="628.1" y="447.2" width="7.5" height="22.8" fill="none" stroke="#e34948" stroke-width="1.1"/>
<rect x="655.4" y="451.8" width="7.5" height="18.2" fill="none" stroke="#e34948" stroke-width="1.1"/>
<rect x="682.7" y="465.4" width="7.5" height="4.6" fill="none" stroke="#e34948" stroke-width="1.1"/>
<rect x="696.4" y="433.6" width="7.5" height="36.4" fill="#008300"/>
<rect x="723.7" y="447.2" width="7.5" height="22.8" fill="#008300"/>
<rect x="737.4" y="429.0" width="7.5" height="41.0" fill="none" stroke="#e34948" stroke-width="1.1"/>
<rect x="751.1" y="442.7" width="7.5" height="27.3" fill="#008300"/>
<rect x="764.7" y="451.8" width="7.5" height="18.2" fill="none" stroke="#e34948" stroke-width="1.1"/>
<rect x="778.4" y="419.9" width="7.5" height="50.1" fill="#008300"/>
<rect x="792.1" y="433.6" width="7.5" height="36.4" fill="#008300"/>
<rect x="805.7" y="456.3" width="7.5" height="13.7" fill="none" stroke="#e34948" stroke-width="1.1"/>
<rect x="819.4" y="456.3" width="7.5" height="13.7" fill="#008300"/>
<polyline points="16.8,429.0 30.5,429.5 44.2,429.5 57.8,430.4 71.5,430.8 85.2,431.7 98.8,431.7 112.5,430.4 126.2,429.5 139.8,425.8 153.5,423.1 167.2,421.3 180.8,422.2 194.5,425.4 208.2,426.3 221.8,421.7 235.5,418.5 249.2,419.0 262.8,419.4 276.5,421.7 290.2,419.0 303.8,421.3 317.5,419.0 331.2,418.5 344.8,418.5 358.5,422.6 372.2,425.4 385.8,425.4 399.5,427.2 413.2,427.6 426.8,430.4 440.5,430.8 454.2,432.6 467.8,432.6 481.5,433.1 495.2,434.5 508.8,432.6 522.5,433.1 536.2,433.6 549.8,435.4 563.5,436.7 577.2,437.2 590.8,436.7 604.5,436.3 618.2,439.0 631.8,439.5 645.5,444.5 659.2,445.9 672.8,448.1 686.5,450.9 700.2,450.4 713.8,453.1 727.5,455.0 741.2,454.5 754.8,452.7 768.5,453.1 782.2,448.1 795.8,446.3 809.5,444.9 823.2,444.0" fill="none" stroke="#2a78d6" stroke-width="1.5" stroke-linejoin="round" stroke-linecap="round"/>
<polyline points="16.8,439.0 30.5,436.3 44.2,433.6 57.8,429.9 71.5,428.1 85.2,424.4 98.8,427.2 112.5,427.2 126.2,429.0 139.8,423.5 153.5,421.7 167.2,415.3 180.8,417.2 194.5,421.7 208.2,429.0 221.8,421.7 235.5,421.7 249.2,420.8 262.8,417.2 276.5,414.4 290.2,416.2 303.8,420.8 317.5,417.2 331.2,419.9 344.8,422.6 358.5,429.0 372.2,429.9 385.8,433.6 399.5,434.5 413.2,432.6 426.8,431.7 440.5,431.7 454.2,431.7 467.8,430.8 481.5,433.6 495.2,437.2 508.8,433.6 522.5,434.5 536.2,436.3 549.8,437.2 563.5,436.3 577.2,440.8 590.8,439.0 604.5,436.3 618.2,440.8 631.8,442.7 645.5,448.1 659.2,452.7 672.8,460.0 686.5,460.9 700.2,458.2 713.8,458.2 727.5,457.2 741.2,449.0 754.8,444.5 768.5,448.1 782.2,438.1 795.8,435.4 809.5,440.8 823.2,443.6" fill="none" stroke="#eda100" stroke-width="1.5" stroke-linejoin="round" stroke-linecap="round"/>
</svg>