<svg xmlns="http://www.w3.org/2000/svg" viewBox="0 0 840 496" width="840" height="496" font-family="-apple-system,&#39;Segoe UI&#39;,system-ui,sans-serif" role="img" aria-label="TheAlgorithms/Python candlestick chart">
<text x="14.0" y="20.0" font-size="15" fill="#0b0b0b" font-weight="650">TheAlgorithms/Python</text>
<text x="183.0" y="20.0" font-size="11.5" fill="#52514e">daily · new stars, volume = new forks</text>
<text x="805.8" y="20.0" font-size="11.0" fill="#52514e">fall</text>
<rect x="791" y="10" width="9" height="12" fill="#008300"/>
<text x="750.6" y="20.0" font-size="11.0" fill="#52514e">rise</text>
<rect x="736" y="10" width="9" height="12" fill="none" stroke="#e34948" stroke-width="1.5"/>
<text x="14.0" y="38.0" font-size="11.0" fill="#898781">last 60 days · +2,167 stars · +521 forks · updated 2026-07-11</text>
<rect x="10" y="66" width="820" height="290" fill="none" stroke="#e1e0d9"/>
<rect x="10" y="384" width="820" height="86" fill="none" stroke="#e1e0d9"/>
<text x="38.0" y="490.0" font-size="11.0" fill="#898781" text-anchor="middle">2026-05</text>
<line x1="269.7" y1="66.0" x2="269.7" y2="356.0" stroke="#e1e0d9" stroke-width="1.0"/>
<line x1="269.7" y1="384.0" x2="269.7" y2="470.0" stroke="#e1e0d9" stroke-width="1.0"/>
<text x="276.5" y="490.0" font-size="11.0" fill="#898781" text-anchor="middle">2026-06</text>
<line x1="679.7" y1="66.0" x2="679.7" y2="356.0" stroke="#e1e0d9" stroke-width="1.0"/>
<line x1="679.7" y1="384.0" x2="679.7" y2="470.0" stroke="#e1e0d9" stroke-width="1.0"/>
<text x="686.5" y="490.0" font-size="11.0" fill="#898781" text-anchor="middle">2026-07</text>
<text x="14.0" y="58.0" font-size="11.0" fill="#52514e">BOLL(20,2)</text>
<text x="84.5" y="58.0" font-size="11.0" fill="#eda100">UP:45.0</text>
<text x="136.9" y="58.0" font-size="11.0" fill="#2a78d6">MID:28.9</text>
<text x="195.3" y="58.0" font-size="11.0" fill="#e87ba4">LOW:12.7</text>
<text x="253.7" y="58.0" font-size="11.0" fill="#4a3aa7">MA7:21.1</text>
<line x1="10.0" y1="220.0" x2="830.0" y2="220.0" stroke="#e1e0d9" stroke-width="1.0"/>
<text x="14.0" y="217.0" font-size="11.0" fill="#898781">50</text>
<line x1="10.0" y1="72.5" x2="830.0" y2="72.5" stroke="#e1e0d9" stroke-width="1.0"/>
<text x="14.0" y="69.5" font-size="11.0" fill="#898781">100</text>
<polyline points="16.8,79.2 30.5,79.4 44.2,79.4 57.8,80.2 71.5,85.7 85.2,87.7 98.8,88.6 112.5,149.4 126.2,175.5 139.8,178.7 153.5,185.8 167.2,192.3 180.8,199.8 194.5,200.4 208.2,200.3 221.8,201.0 235.5,200.1 249.2,199.8 262.8,199.6 276.5,197.0 290.2,198.9 303.8,198.3 317.5,199.1 331.2,206.5 344.8,206.6 358.5,206.2 372.2,207.5 385.8,216.1 399.5,208.8 413.2,208.9 426.8,210.0 440.5,209.9 454.2,208.1 467.8,208.1 481.5,207.8 495.2,205.9 508.8,206.3 522.5,205.9 536.2,206.3 549.8,210.1 563.5,210.0 577.2,206.7 590.8,206.9 604.5,208.0 618.2,208.9 631.8,208.9 645.5,211.5 659.2,220.1 672.8,232.8 686.5,233.4 700.2,233.2 713.8,235.5 727.5,235.6 741.2,235.9 754.8,240.6 768.5,235.7 782.2,232.7 795.8,232.1 809.5,232.9 823.2,234.6" fill="none" stroke="#eda100" stroke-width="1.5" stroke-linejoin="round" stroke-linecap="round"/>
<polyline points="16.8,203.2 30.5,205.2 44.2,205.2 57.8,205.8 71.5,211.7 85.2,214.8 98.8,215.7 112.5,225.4 126.2,232.1 139.8,235.2 153.5,240.2 167.2,243.4 180.8,246.2 194.5,247.3 208.2,247.1 221.8,247.6 235.5,248.3 249.2,247.4 262.8,247.0 276.5,245.2 290.2,246.2 303.8,245.7 317.5,246.7 331.2,248.9 344.8,247.9 358.5,248.7 372.2,249.2 385.8,250.5 399.5,248.5 413.2,248.2 426.8,247.6 440.5,247.0 454.2,248.6 467.8,248.6 481.5,248.5 495.2,251.0 508.8,250.7 522.5,252.6 536.2,253.6 549.8,255.2 563.5,257.4 577.2,256.4 590.8,257.2 604.5,259.2 618.2,260.7 631.8,261.0 645.5,262.0 659.2,265.0 672.8,268.7 686.5,268.9 700.2,268.8 713.8,270.1 727.5,269.7 741.2,271.3 754.8,273.1 768.5,274.7 782.2,277.1 795.8,278.1 809.5,279.3 823.2,282.4" fill="none" stroke="#2a78d6" stroke-width="1.5" stroke-linejoin="round" stroke-linecap="round"/>
<polyline points="16.8,327.2 30.5,331.1 44.2,331.1 57.8,331.4 71.5,337.8 85.2,342.0 98.8,342.8 112.5,301.5 126.2,288.6 139.8,291.7 153.5,294.5 167.2,294.6 180.8,292.7 194.5,294.1 208.2,294.0 221.8,294.1 235.5,296.5 249.2,295.1 262.8,294.4 276.5,293.4 290.2,293.6 303.8,293.0 317.5,294.2 331.2,291.2 344.8,289.1 358.5,291.3 372.2,290.9 385.8,284.9 399.5,288.1 413.2,287.4 426.8,285.1 440.5,284.0 454.2,289.1 467.8,289.1 481.5,289.1 495.2,296.0 508.8,295.0 522.5,299.3 536.2,300.9 549.8,300.4 563.5,304.9 577.2,306.2 590.8,307.4 604.5,310.5 618.2,312.4 631.8,313.1 645.5,312.5 659.2,309.8 672.8,304.5 686.5,304.5 700.2,304.4 713.8,304.7 727.5,303.7 741.2,306.7 754.8,305.5 768.5,313.7 782.2,321.4 795.8,324.1 809.5,325.6 823.2,330.1" fill="none" stroke="#e87ba4" stroke-width="1.5" stroke-linejoin="round" stroke-linecap="round"/>
<polyline points="16.8,250.7 30.5,251.5 44.2,252.1 57.8,242.4 71.5,243.3 85.2,242.7 98.8,237.7 112.5,231.8 126.2,230.9 139.8,234.7 153.5,246.5 167.2,245.4 180.8,244.8 194.5,250.4 208.2,258.6 221.8,258.3 235.5,261.0 249.2,255.7 262.8,254.2 276.5,249.8 290.2,247.7 303.8,247.4 317.5,249.5 331.2,243.9 344.8,244.5 358.5,247.7 372.2,249.2 385.8,243.9 399.5,238.9 413.2,238.9 426.8,242.7 440.5,242.7 454.2,244.5 467.8,248.6 481.5,252.7 495.2,265.4 508.8,268.1 522.5,270.1 536.2,273.1 549.8,268.9 563.5,273.1 577.2,270.1 590.8,267.2 604.5,268.4 618.2,267.5 631.8,268.9 645.5,268.4 659.2,265.4 672.8,274.0 686.5,272.8 700.2,270.1 713.8,269.8 727.5,269.2 741.2,275.1 754.8,276.0 768.5,282.8 782.2,291.1 795.8,296.7 809.5,299.3 823.2,305.2" fill="none" stroke="#4a3aa7" stroke-width="1.5" stroke-linejoin="round" stroke-linecap="round"/>
<rect x="13.1" y="225.9" width="7.5" height="32.4" fill="none" stroke="#e34948" stroke-width="1.3"/>
<rect x="26.7" y="225.9" width="7.5" height="26.5" fill="#008300"/>
<rect x="40.4" y="237.7" width="7.5" height="14.7" fill="none" stroke="#e34948" stroke-width="1.3"/>
<rect x="54.1" y="199.4" width="7.5" height="38.3" fill="none" stroke="#e34948" stroke-width="1.3"/>
<rect x="67.7" y="199.4" width="7.5" height="70.8" fill="#008300"/>
<rect x="81.4" y="255.4" width="7.5" height="14.7" fill="none" stroke="#e34948" stroke-width="1.3"/>
<rect x="95.1" y="222.9" width="7.5" height="32.4" fill="none" stroke="#e34948" stroke-width="1.3"/>
<rect x="108.7" y="184.6" width="7.5" height="38.3" fill="none" stroke="#e34948" stroke-width="1.3"/>
<rect x="122.4" y="184.6" width="7.5" height="61.9" fill="#008300"/>
<rect x="136.1" y="246.5" width="7.5" height="17.7" fill="#008300"/>
<rect x="149.7" y="264.2" width="7.5" height="17.7" fill="#008300"/>
<rect x="163.4" y="261.3" width="7.5" height="20.6" fill="none" stroke="#e34948" stroke-width="1.3"/>
<rect x="177.1" y="252.4" width="7.5" height="8.8" fill="none" stroke="#e34948" stroke-width="1.3"/>
<rect x="190.7" y="252.4" width="7.5" height="8.8" fill="#008300"/>
<rect x="204.4" y="243.6" width="7.5" height="17.7" fill="none" stroke="#e34948" stroke-width="1.3"/>
<rect x="218.1" y="243.6" width="7.5" height="1.2" fill="#898781"/>
<rect x="231.7" y="243.6" width="7.5" height="38.3" fill="#008300"/>
<rect x="245.4" y="246.5" width="7.5" height="35.4" fill="none" stroke="#e34948" stroke-width="1.3"/>
<rect x="259.1" y="246.5" width="7.5" height="2.9" fill="#008300"/>
<rect x="272.7" y="222.9" width="7.5" height="26.5" fill="none" stroke="#e34948" stroke-width="1.3"/>
<rect x="286.4" y="222.9" width="7.5" height="23.6" fill="#008300"/>
<rect x="300.1" y="240.6" width="7.5" height="5.9" fill="none" stroke="#e34948" stroke-width="1.3"/>
<rect x="313.7" y="240.6" width="7.5" height="17.7" fill="#008300"/>
<rect x="327.4" y="243.6" width="7.5" height="14.7" fill="none" stroke="#e34948" stroke-width="1.3"/>
<rect x="341.1" y="243.6" width="7.5" height="5.9" fill="#008300"/>
<rect x="354.7" y="249.5" width="7.5" height="23.6" fill="#008300"/>
<rect x="368.4" y="231.8" width="7.5" height="41.3" fill="none" stroke="#e34948" stroke-width="1.3"/>
<rect x="382.1" y="211.1" width="7.5" height="20.6" fill="none" stroke="#e34948" stroke-width="1.3"/>
<rect x="395.7" y="205.2" width="7.5" height="5.9" fill="none" stroke="#e34948" stroke-width="1.3"/>
<rect x="409.4" y="205.2" width="7.5" height="53.1" fill="#008300"/>
<rect x="423.1" y="258.3" width="7.5" height="11.8" fill="#008300"/>
<rect x="436.7" y="249.5" width="7.5" height="20.6" fill="none" stroke="#e34948" stroke-width="1.3"/>
<rect x="450.4" y="249.5" width="7.5" height="35.4" fill="#008300"/>
<rect x="464.1" y="261.3" width="7.5" height="23.6" fill="none" stroke="#e34948" stroke-width="1.3"/>
<rect x="477.7" y="240.6" width="7.5" height="20.6" fill="none" stroke="#e34948" stroke-width="1.3"/>
<rect x="491.4" y="240.6" width="7.5" height="53.1" fill="#008300"/>
<rect x="505.1" y="276.0" width="7.5" height="17.7" fill="none" stroke="#e34948" stroke-width="1.3"/>
<rect x="518.7" y="276.0" width="7.5" height="8.8" fill="#008300"/>
<rect x="532.4" y="270.1" width="7.5" height="14.7" fill="none" stroke="#e34948" stroke-width="1.3"/>
<rect x="546.1" y="255.4" width="7.5" height="14.7" fill="none" stroke="#e34948" stroke-width="1.3"/>
<rect x="559.7" y="255.4" width="7.5" height="35.4" fill="#008300"/>
<rect x="573.4" y="220.0" width="7.5" height="70.8" fill="none" stroke="#e34948" stroke-width="1.3"/>
<rect x="587.1" y="220.0" width="7.5" height="53.1" fill="#008300"/>
<rect x="600.7" y="273.1" width="7.5" height="11.8" fill="#008300"/>
<rect x="614.4" y="279.0" width="7.5" height="5.9" fill="none" stroke="#e34948" stroke-width="1.3"/>
<rect x="628.1" y="279.0" width="7.5" height="1.2" fill="#898781"/>
<rect x="641.7" y="252.4" width="7.5" height="26.5" fill="none" stroke="#e34948" stroke-width="1.3"/>
<rect x="655.4" y="252.4" width="7.5" height="17.7" fill="#008300"/>
<rect x="669.1" y="270.1" width="7.5" height="8.8" fill="#008300"/>
<rect x="682.7" y="264.2" width="7.5" height="14.7" fill="none" stroke="#e34948" stroke-width="1.3"/>
<rect x="696.4" y="264.2" width="7.5" height="2.9" fill="#008300"/>
<rect x="710.1" y="267.2" width="7.5" height="8.8" fill="#008300"/>
<rect x="723.7" y="276.0" width="7.5" height="1.2" fill="#898781"/>
<rect x="737.4" y="276.0" width="7.5" height="17.7" fill="#008300"/>
<rect x="751.1" y="276.0" width="7.5" height="17.7" fill="none" stroke="#e34948" stroke-width="1.3"/>
<rect x="764.7" y="276.0" width="7.5" height="50.1" fill="#008300"/>
<rect x="778.4" y="323.2" width="7.5" height="2.9" fill="none" stroke="#e34948" stroke-width="1.3"/>
<rect x="792.1" y="305.5" width="7.5" height="17.7" fill="none" stroke="#e34948" stroke-width="1.3"/>
<rect x="805.7" y="293.7" width="7.5" height="11.8" fill="none" stroke="#e34948" stroke-width="1.3"/>
<rect x="819.4" y="293.7" width="7.5" height="23.6" fill="#008300"/>
<circle cx="112.5" cy="184.6" r="2" fill="#52514e"/>
<line x1="112.5" y1="184.6" x2="120.5" y2="184.6" stroke="#52514e" stroke-width="1.0"/>
<text x="123.5" y="188.6" font-size="11.0" fill="#52514e">62</text>
<circle cx="768.5" cy="326.2" r="2" fill="#52514e"/>
<line x1="768.5" y1="326.2" x2="760.5" y2="326.2" stroke="#52514e" stroke-width="1.0"/>
<text x="757.5" y="330.2" font-size="11.0" fill="#52514e" text-anchor="end">14</text>
<text x="14.0" y="376.0" font-size="11.0" fill="#52514e">VOL 0 forks</text>
<text x="90.6" y="376.0" font-size="11.0" fill="#eda100">MA5:2.2</text>
<text x="142.9" y="376.0" font-size="11.0" fill="#2a78d6">MA10:4.8</text>
<text x="14.0" y="395.0" font-size="10" fill="#898781">18</text>
<rect x="13.1" y="401.7" width="7.5" height="68.3" fill="none" stroke="#e34948" stroke-width="1.1"/>
<rect x="26.7" y="438.1" width="7.5" height="31.9" fill="#008300"/>
<rect x="40.4" y="424.4" width="7.5" height="45.6" fill="none" stroke="#e34948" stroke-width="1.1"/>
<rect x="54.1" y="429.0" width="7.5" height="41.0" fill="none" stroke="#e34948" stroke-width="1.1"/>
<rect x="67.7" y="401.7" width="7.5" height="68.3" fill="#008300"/>
<rect x="81.4" y="415.3" width="7.5" height="54.7" fill="none" stroke="#e34948" stroke-width="1.1"/>
<rect x="95.1" y="424.4" width="7.5" height="45.6" fill="none" stroke="#e34948" stroke-width="1.1"/>
<rect x="108.7" y="442.7" width="7.5" height="27.3" fill="none" stroke="#e34948" stroke-width="1.1"/>
<rect x="122.4" y="442.7" width="7.5" height="27.3" fill="#008300"/>
<rect x="136.1" y="429.0" width="7.5" height="41.0" fill="#008300"/>
<rect x="149.7" y="429.0" width="7.5" height="41.0" fill="#008300"/>
<rect x="163.4" y="451.8" width="7.5" height="18.2" fill="none" stroke="#e34948" stroke-width="1.1"/>
<rect x="177.1" y="429.0" width="7.5" height="41.0" fill="none" stroke="#e34948" stroke-width="1.1"/>
<rect x="190.7" y="429.0" width="7.5" height="41.0" fill="#008300"/>
<rect x="204.4" y="410.8" width="7.5" height="59.2" fill="none" stroke="#e34948" stroke-width="1.1"/>
<rect x="218.1" y="419.9" width="7.5" height="50.1" fill="#898781"/>
<rect x="231.7" y="433.6" width="7.5" height="36.4" fill="#008300"/>
<rect x="245.4" y="442.7" width="7.5" height="27.3" fill="none" stroke="#e34948" stroke-width="1.1"/>
<rect x="259.1" y="429.0" width="7.5" height="41.0" fill="#008300"/>
<rect x="272.7" y="419.9" width="7.5" height="50.1" fill="none" stroke="#e34948" stroke-width="1.1"/>
<rect x="286.4" y="392.6" width="7.5" height="77.4" fill="#008300"/>
<rect x="300.1" y="424.4" width="7.5" height="45.6" fill="none" stroke="#e34948" stroke-width="1.1"/>
<rect x="313.7" y="410.8" width="7.5" height="59.2" fill="#008300"/>
<rect x="327.4" y="438.1" width="7.5" height="31.9" fill="none" stroke="#e34948" stroke-width="1.1"/>
<rect x="341.1" y="442.7" width="7.5" height="27.3" fill="#008300"/>
<rect x="354.7" y="429.0" width="7.5" height="41.0" fill="#008300"/>
<rect x="368.4" y="388.0" width="7.5" height="82.0" fill="none" stroke="#e34948" stroke-width="1.1"/>
<rect x="382.1" y="410.8" width="7.5" height="59.2" fill="none" stroke="#e34948" stroke-width="1.1"/>
<rect x="395.7" y="433.6" width="7.5" height="36.4" fill="none" stroke="#e34948" stroke-width="1.1"/>
<rect x="409.4" y="424.4" width="7.5" height="45.6" fill="#008300"/>
<rect x="423.1" y="415.3" width="7.5" height="54.7" fill="#008300"/>
<rect x="436.7" y="397.1" width="7.5" height="72.9" fill="none" stroke="#e34948" stroke-width="1.1"/>
<rect x="450.4" y="433.6" width="7.5" height="36.4" fill="#008300"/>
<rect x="464.1" y="415.3" width="7.5" height="54.7" fill="none" stroke="#e34948" stroke-width="1.1"/>
<rect x="477.7" y="438.1" width="7.5" height="31.9" fill="none" stroke="#e34948" stroke-width="1.1"/>
<rect x="491.4" y="429.0" width="7.5" height="41.0" fill="#008300"/>
<rect x="505.1" y="429.0" width="7.5" height="41.0" fill="none" stroke="#e34948" stroke-width="1.1"/>
<rect x="518.7" y="438.1" width="7.5" height="31.9" fill="#008300"/>
<rect x="532.4" y="433.6" width="7.5" height="36.4" fill="none" stroke="#e34948" stroke-width="1.1"/>
<rect x="546.1" y="442.7" width="7.5" height="27.3" fill="none" stroke="#e34948" stroke-width="1.1"/>
<rect x="559.7" y="419.9" width="7.5" height="50.1" fill="#008300"/>
<rect x="573.4" y="424.4" width="7.5" height="45.6" fill="none" stroke="#e34948" stroke-width="1.1"/>
<rect x="587.1" y="438.1" width="7.5" height="31.9" fill="#008300"/>
<rect x="600.7" y="433.6" width="7.5" height="36.4" fill="#008300"/>
<rect x="614.4" y="438.1" width="7.5" height="31.9" fill="none" stroke="#e34948" stroke-width="1.1"/>
<rect x="628.1" y="433.6" width="7.5" height="36.4" fill="#898781"/>
<rect x="641.7" y="442.7" width="7.5" height="27.3" fill="none" stroke="#e34948" stroke-width="1.1"/>
<rect x="655.4" y="419.9" width="7.5" height="50.1" fill="#008300"/>
<rect x="669.1" y="438.1" width="7.5" height="31.9" fill="#008300"/>
<rect x="682.7" y="447.2" width="7.5" height="22.8" fill="none" stroke="#e34948" stroke-width="1.1"/>
<rect x="696.4" y="438.1" width="7.5" height="31.9" fill="#008300"/>
<rect x="710.1" y="438.1" width="7.5" height="31.9" fill="#008300"/>
<rect x="723.7" y="442.7" width="7.5" height="27.3" fill="#898781"/>
<rect x="737.4" y="429.0" width="7.5" height="41.0" fill="#008300"/>
<rect x="751.1" y="433.6" width="7.5" height="36.4" fill="none" stroke="#e34948" stroke-width="1.1"/>
<rect x="764.7" y="460.9" width="7.5" height="9.1" fill="#008300"/>
<rect x="778.4" y="447.2" width="7.5" height="22.8" fill="none" stroke="#e34948" stroke-width="1.1"/>
<rect x="805.7" y="451.8" width="7.5" height="18.2" fill="none" stroke="#e34948" stroke-width="1.1"/>
<polyline points="16.8,414.4 30.5,414.9 44.2,417.6 57.8,419.0 71.5,419.9 85.2,420.3 98.8,419.4 112.5,421.3 126.2,423.5 139.8,424.9 153.5,427.6 167.2,429.0 180.8,429.5 194.5,429.5 208.2,430.4 221.8,430.8 235.5,431.7 249.2,431.7 262.8,430.4 276.5,429.5 290.2,425.8 303.8,423.1 317.5,421.3 331.2,422.2 344.8,425.4 358.5,426.3 372.2,421.7 385.8,418.5 399.5,419.0 413.2,419.4 426.8,421.7 440.5,419.0 454.2,421.3 467.8,419.0 481.5,418.5 495.2,418.5 508.8,422.6 522.5,425.4 536.2,425.4 549.8,427.2 563.5,427.6 577.2,430.4 590.8,430.8 604.5,432.6 618.2,432.6 631.8,433.1 645.5,434.5 659.2,432.6 672.8,433.1 686.5,433.6 700.2,435.4 713.8,436.7 727.5,437.2 741.2,436.7 754.8,436.3 768.5,439.0 782.2,439.5 795.8,444.5 809.5,445.9 823.2,448.1" fill="none" stroke="#2a78d6" stroke-width="1.5" stroke-linejoin="round" stroke-linecap="round"/>
<polyline points="16.8,419.0 30.5,419.9 44.2,419.9 57.8,421.7 71.5,419.0 85.2,421.7 98.8,419.0 112.5,422.6 126.2,425.4 139.8,430.8 153.5,433.6 167.2,439.0 180.8,436.3 194.5,433.6 208.2,429.9 221.8,428.1 235.5,424.4 249.2,427.2 262.8,427.2 276.5,429.0 290.2,423.5 303.8,421.7 317.5,415.3 331.2,417.2 344.8,421.7 358.5,429.0 372.2,421.7 385.8,421.7 399.5,420.8 413.2,417.2 426.8,414.4 440.5,416.2 454.2,420.8 467.8,417.2 481.5,419.9 495.2,422.6 508.8,429.0 522.5,429.9 536.2,433.6 549.8,434.5 563.5,432.6 577.2,431.7 590.8,431.7 604.5,431.7 618.2,430.8 631.8,433.6 645.5,437.2 659.2,433.6 672.8,434.5 686.5,436.3 700.2,437.2 713.8,436.3 727.5,440.8 741.2,439.0 754.8,436.3 768.5,440.8 782.2,442.7 795.8,448.1 809.5,452.7 823.2,460.0" fill="none" stroke="#eda100" stroke-width="1.5" stroke-linejoin="round" stroke-linecap="round"/>
</svg>