<svg xmlns="http://www.w3.org/2000/svg" viewBox="0 0 840 496" width="840" height="496" font-family="-apple-system,&#39;Segoe UI&#39;,system-ui,sans-serif" role="img" aria-label="TheAlgorithms/Python candlestick chart">
<text x="14.0" y="20.0" font-size="15" fill="#ffffff" font-weight="650">TheAlgorithms/Python</text>
<text x="183.0" y="20.0" font-size="11.5" fill="#c3c2b7">daily · new stars, volume = new forks</text>
<text x="805.8" y="20.0" font-size="11.0" fill="#c3c2b7">fall</text>
<rect x="791" y="10" width="9" height="12" fill="#008300"/>
<text x="750.6" y="20.0" font-size="11.0" fill="#c3c2b7">rise</text>
<rect x="736" y="10" width="9" height="12" fill="none" stroke="#e66767" stroke-width="1.5"/>
<text x="14.0" y="38.0" font-size="11.0" fill="#898781">last 60 days · +2,161 stars · +507 forks · updated 2026-07-12</text>
<rect x="10" y="66" width="820" height="290" fill="none" stroke="#2c2c2a"/>
<rect x="10" y="384" width="820" height="86" fill="none" stroke="#2c2c2a"/>
<text x="38.0" y="490.0" font-size="11.0" fill="#898781" text-anchor="middle">2026-05</text>
<line x1="256.0" y1="66.0" x2="256.0" y2="356.0" stroke="#2c2c2a" stroke-width="1.0"/>
<line x1="256.0" y1="384.0" x2="256.0" y2="470.0" stroke="#2c2c2a" stroke-width="1.0"/>
<text x="262.8" y="490.0" font-size="11.0" fill="#898781" text-anchor="middle">2026-06</text>
<line x1="666.0" y1="66.0" x2="666.0" y2="356.0" stroke="#2c2c2a" stroke-width="1.0"/>
<line x1="666.0" y1="384.0" x2="666.0" y2="470.0" stroke="#2c2c2a" stroke-width="1.0"/>
<text x="672.8" y="490.0" font-size="11.0" fill="#898781" text-anchor="middle">2026-07</text>
<text x="14.0" y="58.0" font-size="11.0" fill="#c3c2b7">BOLL(20,2)</text>
<text x="84.5" y="58.0" font-size="11.0" fill="#c98500">UP:46.8</text>
<text x="136.9" y="58.0" font-size="11.0" fill="#3987e5">MID:29.6</text>
<text x="195.3" y="58.0" font-size="11.0" fill="#d55181">LOW:12.5</text>
<text x="253.7" y="58.0" font-size="11.0" fill="#9085e9">MA7:23.6</text>
<line x1="10.0" y1="219.9" x2="830.0" y2="219.9" stroke="#2c2c2a" stroke-width="1.0"/>
<text x="14.0" y="216.9" font-size="11.0" fill="#898781">50</text>
<line x1="10.0" y1="72.3" x2="830.0" y2="72.3" stroke="#2c2c2a" stroke-width="1.0"/>
<text x="14.0" y="69.3" font-size="11.0" fill="#898781">100</text>
<polyline points="16.8,79.2 30.5,79.2 44.2,80.0 57.8,85.5 71.5,87.5 85.2,88.4 98.8,149.3 112.5,175.4 126.2,178.6 139.8,185.7 153.5,192.1 167.2,199.6 180.8,200.3 194.5,200.1 208.2,200.9 221.8,200.0 235.5,199.6 249.2,199.4 262.8,196.9 276.5,198.7 290.2,198.2 303.8,199.0 317.5,206.4 331.2,206.5 344.8,206.1 358.5,207.4 372.2,216.0 385.8,208.7 399.5,208.8 413.2,209.9 426.8,209.8 440.5,208.0 454.2,208.0 467.8,207.7 481.5,205.8 495.2,206.2 508.8,205.8 522.5,206.2 536.2,210.0 549.8,209.8 563.5,206.5 577.2,206.7 590.8,207.8 604.5,208.8 618.2,208.8 631.8,211.4 645.5,220.0 659.2,232.7 672.8,233.3 686.5,233.1 700.2,235.4 713.8,235.5 727.5,235.9 741.2,240.5 754.8,235.6 768.5,232.6 782.2,232.0 795.8,232.8 809.5,234.5 823.2,229.4" fill="none" stroke="#c98500" stroke-width="1.5" stroke-linejoin="round" stroke-linecap="round"/>
<polyline points="16.8,205.1 30.5,205.1 44.2,205.7 57.8,211.6 71.5,214.7 85.2,215.6 98.8,225.3 112.5,232.0 126.2,235.1 139.8,240.1 153.5,243.3 167.2,246.2 180.8,247.2 194.5,247.0 208.2,247.5 221.8,248.2 235.5,247.3 249.2,246.9 262.8,245.1 276.5,246.2 290.2,245.6 303.8,246.6 317.5,248.8 331.2,247.8 344.8,248.7 358.5,249.1 372.2,250.4 385.8,248.4 399.5,248.1 413.2,247.5 426.8,246.9 440.5,248.5 454.2,248.5 467.8,248.4 481.5,250.9 495.2,250.6 508.8,252.5 522.5,253.5 536.2,255.2 549.8,257.4 563.5,256.3 577.2,257.1 590.8,259.1 604.5,260.6 618.2,260.9 631.8,261.9 645.5,264.9 659.2,268.6 672.8,268.9 686.5,268.7 700.2,270.1 713.8,269.6 727.5,271.2 741.2,273.0 754.8,274.6 768.5,277.0 782.2,278.0 795.8,279.2 809.5,282.3 823.2,279.9" fill="none" stroke="#3987e5" stroke-width="1.5" stroke-linejoin="round" stroke-linecap="round"/>
<polyline points="16.8,331.1 30.5,331.1 44.2,331.4 57.8,337.8 71.5,342.0 85.2,342.8 98.8,301.4 112.5,288.6 126.2,291.6 139.8,294.5 153.5,294.6 167.2,292.7 180.8,294.1 194.5,293.9 208.2,294.1 221.8,296.5 235.5,295.0 249.2,294.4 262.8,293.4 276.5,293.6 290.2,293.0 303.8,294.2 317.5,291.2 331.2,289.0 344.8,291.3 358.5,290.8 372.2,284.9 385.8,288.1 399.5,287.4 413.2,285.1 426.8,284.0 440.5,289.1 454.2,289.1 467.8,289.0 481.5,296.0 495.2,294.9 508.8,299.2 522.5,300.8 536.2,300.3 549.8,304.9 563.5,306.1 577.2,307.4 590.8,310.4 604.5,312.4 618.2,313.0 631.8,312.5 645.5,309.8 659.2,304.5 672.8,304.5 686.5,304.4 700.2,304.7 713.8,303.7 727.5,306.6 741.2,305.5 754.8,313.7 768.5,321.4 782.2,324.1 795.8,325.6 809.5,330.1 823.2,330.5" fill="none" stroke="#d55181" stroke-width="1.5" stroke-linejoin="round" stroke-linecap="round"/>
<polyline points="16.8,251.5 30.5,252.1 44.2,242.3 57.8,243.2 71.5,242.6 85.2,237.6 98.8,231.7 112.5,230.8 126.2,234.6 139.8,246.4 153.5,245.3 167.2,244.7 180.8,250.3 194.5,258.6 208.2,258.3 221.8,260.9 235.5,255.6 249.2,254.1 262.8,249.7 276.5,247.6 290.2,247.3 303.8,249.4 317.5,243.8 331.2,244.4 344.8,247.6 358.5,249.1 372.2,243.8 385.8,238.8 399.5,238.8 413.2,242.6 426.8,242.6 440.5,244.4 454.2,248.5 467.8,252.6 481.5,265.3 495.2,268.0 508.8,270.1 522.5,273.0 536.2,268.9 549.8,273.0 563.5,270.1 577.2,267.1 590.8,268.3 604.5,267.4 618.2,268.9 631.8,268.3 645.5,265.3 659.2,273.9 672.8,272.7 686.5,270.1 700.2,269.8 713.8,269.2 727.5,275.1 741.2,276.0 754.8,282.8 768.5,291.0 782.2,296.6 795.8,299.3 809.5,305.2 823.2,297.8" fill="none" stroke="#9085e9" stroke-width="1.5" stroke-linejoin="round" stroke-linecap="round"/>
<rect x="13.1" y="225.8" width="7.5" height="26.6" fill="#008300"/>
<rect x="26.7" y="237.6" width="7.5" height="14.8" fill="none" stroke="#e66767" stroke-width="1.3"/>
<rect x="40.4" y="199.2" width="7.5" height="38.4" fill="none" stroke="#e66767" stroke-width="1.3"/>
<rect x="54.1" y="199.2" width="7.5" height="70.8" fill="#008300"/>
<rect x="67.7" y="255.3" width="7.5" height="14.8" fill="none" stroke="#e66767" stroke-width="1.3"/>
<rect x="81.4" y="222.8" width="7.5" height="32.5" fill="none" stroke="#e66767" stroke-width="1.3"/>
<rect x="95.1" y="184.5" width="7.5" height="38.4" fill="none" stroke="#e66767" stroke-width="1.3"/>
<rect x="108.7" y="184.5" width="7.5" height="62.0" fill="#008300"/>
<rect x="122.4" y="246.4" width="7.5" height="17.7" fill="#008300"/>
<rect x="136.1" y="264.2" width="7.5" height="17.7" fill="#008300"/>
<rect x="149.7" y="261.2" width="7.5" height="20.7" fill="none" stroke="#e66767" stroke-width="1.3"/>
<rect x="163.4" y="252.4" width="7.5" height="8.9" fill="none" stroke="#e66767" stroke-width="1.3"/>
<rect x="177.1" y="252.4" width="7.5" height="8.9" fill="#008300"/>
<rect x="190.7" y="243.5" width="7.5" height="17.7" fill="none" stroke="#e66767" stroke-width="1.3"/>
<rect x="204.4" y="243.5" width="7.5" height="1.2" fill="#898781"/>
<rect x="218.1" y="243.5" width="7.5" height="38.4" fill="#008300"/>
<rect x="231.7" y="246.4" width="7.5" height="35.4" fill="none" stroke="#e66767" stroke-width="1.3"/>
<rect x="245.4" y="246.4" width="7.5" height="3.0" fill="#008300"/>
<rect x="259.1" y="222.8" width="7.5" height="26.6" fill="none" stroke="#e66767" stroke-width="1.3"/>
<rect x="272.7" y="222.8" width="7.5" height="23.6" fill="#008300"/>
<rect x="286.4" y="240.5" width="7.5" height="5.9" fill="none" stroke="#e66767" stroke-width="1.3"/>
<rect x="300.1" y="240.5" width="7.5" height="17.7" fill="#008300"/>
<rect x="313.7" y="243.5" width="7.5" height="14.8" fill="none" stroke="#e66767" stroke-width="1.3"/>
<rect x="327.4" y="243.5" width="7.5" height="5.9" fill="#008300"/>
<rect x="341.1" y="249.4" width="7.5" height="23.6" fill="#008300"/>
<rect x="354.7" y="231.7" width="7.5" height="41.3" fill="none" stroke="#e66767" stroke-width="1.3"/>
<rect x="368.4" y="211.0" width="7.5" height="20.7" fill="none" stroke="#e66767" stroke-width="1.3"/>
<rect x="382.1" y="205.1" width="7.5" height="5.9" fill="none" stroke="#e66767" stroke-width="1.3"/>
<rect x="395.7" y="205.1" width="7.5" height="53.1" fill="#008300"/>
<rect x="409.4" y="258.3" width="7.5" height="11.8" fill="#008300"/>
<rect x="423.1" y="249.4" width="7.5" height="20.7" fill="none" stroke="#e66767" stroke-width="1.3"/>
<rect x="436.7" y="249.4" width="7.5" height="35.4" fill="#008300"/>
<rect x="450.4" y="261.2" width="7.5" height="23.6" fill="none" stroke="#e66767" stroke-width="1.3"/>
<rect x="464.1" y="240.5" width="7.5" height="20.7" fill="none" stroke="#e66767" stroke-width="1.3"/>
<rect x="477.7" y="240.5" width="7.5" height="53.1" fill="#008300"/>
<rect x="491.4" y="276.0" width="7.5" height="17.7" fill="none" stroke="#e66767" stroke-width="1.3"/>
<rect x="505.1" y="276.0" width="7.5" height="8.9" fill="#008300"/>
<rect x="518.7" y="270.1" width="7.5" height="14.8" fill="none" stroke="#e66767" stroke-width="1.3"/>
<rect x="532.4" y="255.3" width="7.5" height="14.8" fill="none" stroke="#e66767" stroke-width="1.3"/>
<rect x="546.1" y="255.3" width="7.5" height="35.4" fill="#008300"/>
<rect x="559.7" y="219.9" width="7.5" height="70.8" fill="none" stroke="#e66767" stroke-width="1.3"/>
<rect x="573.4" y="219.9" width="7.5" height="53.1" fill="#008300"/>
<rect x="587.1" y="273.0" width="7.5" height="11.8" fill="#008300"/>
<rect x="600.7" y="278.9" width="7.5" height="5.9" fill="none" stroke="#e66767" stroke-width="1.3"/>
<rect x="614.4" y="278.9" width="7.5" height="1.2" fill="#898781"/>
<rect x="628.1" y="252.4" width="7.5" height="26.6" fill="none" stroke="#e66767" stroke-width="1.3"/>
<rect x="641.7" y="252.4" width="7.5" height="17.7" fill="#008300"/>
<rect x="655.4" y="270.1" width="7.5" height="8.9" fill="#008300"/>
<rect x="669.1" y="264.2" width="7.5" height="14.8" fill="none" stroke="#e66767" stroke-width="1.3"/>
<rect x="682.7" y="264.2" width="7.5" height="3.0" fill="#008300"/>
<rect x="696.4" y="267.1" width="7.5" height="8.9" fill="#008300"/>
<rect x="710.1" y="276.0" width="7.5" height="1.2" fill="#898781"/>
<rect x="723.7" y="276.0" width="7.5" height="17.7" fill="#008300"/>
<rect x="737.4" y="276.0" width="7.5" height="17.7" fill="none" stroke="#e66767" stroke-width="1.3"/>
<rect x="751.1" y="276.0" width="7.5" height="50.2" fill="#008300"/>
<rect x="764.7" y="323.2" width="7.5" height="3.0" fill="none" stroke="#e66767" stroke-width="1.3"/>
<rect x="778.4" y="305.5" width="7.5" height="17.7" fill="none" stroke="#e66767" stroke-width="1.3"/>
<rect x="792.1" y="293.7" width="7.5" height="11.8" fill="none" stroke="#e66767" stroke-width="1.3"/>
<rect x="805.7" y="293.7" width="7.5" height="23.6" fill="#008300"/>
<rect x="819.4" y="243.5" width="7.5" height="73.8" fill="none" stroke="#e66767" stroke-width="1.3"/>
<circle cx="98.8" cy="184.5" r="2" fill="#c3c2b7"/>
<line x1="98.8" y1="184.5" x2="106.8" y2="184.5" stroke="#c3c2b7" stroke-width="1.0"/>
<text x="109.8" y="188.5" font-size="11.0" fill="#c3c2b7">62</text>
<circle cx="754.8" cy="326.1" r="2" fill="#c3c2b7"/>
<line x1="754.8" y1="326.1" x2="746.8" y2="326.1" stroke="#c3c2b7" stroke-width="1.0"/>
<text x="743.8" y="330.1" font-size="11.0" fill="#c3c2b7" text-anchor="end">14</text>
<text x="14.0" y="376.0" font-size="11.0" fill="#c3c2b7">VOL 1 forks</text>
<text x="90.6" y="376.0" font-size="11.0" fill="#c98500">MA5:2</text>
<text x="130.8" y="376.0" font-size="11.0" fill="#3987e5">MA10:4.2</text>
<text x="14.0" y="395.0" font-size="10" fill="#898781">18</text>
<rect x="13.1" y="438.1" width="7.5" height="31.9" fill="#008300"/>
<rect x="26.7" y="424.4" width="7.5" height="45.6" fill="none" stroke="#e66767" stroke-width="1.1"/>
<rect x="40.4" y="429.0" width="7.5" height="41.0" fill="none" stroke="#e66767" stroke-width="1.1"/>
<rect x="54.1" y="401.7" width="7.5" height="68.3" fill="#008300"/>
<rect x="67.7" y="415.3" width="7.5" height="54.7" fill="none" stroke="#e66767" stroke-width="1.1"/>
<rect x="81.4" y="424.4" width="7.5" height="45.6" fill="none" stroke="#e66767" stroke-width="1.1"/>
<rect x="95.1" y="442.7" width="7.5" height="27.3" fill="none" stroke="#e66767" stroke-width="1.1"/>
<rect x="108.7" y="442.7" width="7.5" height="27.3" fill="#008300"/>
<rect x="122.4" y="429.0" width="7.5" height="41.0" fill="#008300"/>
<rect x="136.1" y="429.0" width="7.5" height="41.0" fill="#008300"/>
<rect x="149.7" y="451.8" width="7.5" height="18.2" fill="none" stroke="#e66767" stroke-width="1.1"/>
<rect x="163.4" y="429.0" width="7.5" height="41.0" fill="none" stroke="#e66767" stroke-width="1.1"/>
<rect x="177.1" y="429.0" width="7.5" height="41.0" fill="#008300"/>
<rect x="190.7" y="410.8" width="7.5" height="59.2" fill="none" stroke="#e66767" stroke-width="1.1"/>
<rect x="204.4" y="419.9" width="7.5" height="50.1" fill="#898781"/>
<rect x="218.1" y="433.6" width="7.5" height="36.4" fill="#008300"/>
<rect x="231.7" y="442.7" width="7.5" height="27.3" fill="none" stroke="#e66767" stroke-width="1.1"/>
<rect x="245.4" y="429.0" width="7.5" height="41.0" fill="#008300"/>
<rect x="259.1" y="419.9" width="7.5" height="50.1" fill="none" stroke="#e66767" stroke-width="1.1"/>
<rect x="272.7" y="392.6" width="7.5" height="77.4" fill="#008300"/>
<rect x="286.4" y="424.4" width="7.5" height="45.6" fill="none" stroke="#e66767" stroke-width="1.1"/>
<rect x="300.1" y="410.8" width="7.5" height="59.2" fill="#008300"/>
<rect x="313.7" y="438.1" width="7.5" height="31.9" fill="none" stroke="#e66767" stroke-width="1.1"/>
<rect x="327.4" y="442.7" width="7.5" height="27.3" fill="#008300"/>
<rect x="341.1" y="429.0" width="7.5" height="41.0" fill="#008300"/>
<rect x="354.7" y="388.0" width="7.5" height="82.0" fill="none" stroke="#e66767" stroke-width="1.1"/>
<rect x="368.4" y="410.8" width="7.5" height="59.2" fill="none" stroke="#e66767" stroke-width="1.1"/>
<rect x="382.1" y="433.6" width="7.5" height="36.4" fill="none" stroke="#e66767" stroke-width="1.1"/>
<rect x="395.7" y="424.4" width="7.5" height="45.6" fill="#008300"/>
<rect x="409.4" y="415.3" width="7.5" height="54.7" fill="#008300"/>
<rect x="423.1" y="397.1" width="7.5" height="72.9" fill="none" stroke="#e66767" stroke-width="1.1"/>
<rect x="436.7" y="433.6" width="7.5" height="36.4" fill="#008300"/>
<rect x="450.4" y="415.3" width="7.5" height="54.7" fill="none" stroke="#e66767" stroke-width="1.1"/>
<rect x="464.1" y="438.1" width="7.5" height="31.9" fill="none" stroke="#e66767" stroke-width="1.1"/>
<rect x="477.7" y="429.0" width="7.5" height="41.0" fill="#008300"/>
<rect x="491.4" y="429.0" width="7.5" height="41.0" fill="none" stroke="#e66767" stroke-width="1.1"/>
<rect x="505.1" y="438.1" width="7.5" height="31.9" fill="#008300"/>
<rect x="518.7" y="433.6" width="7.5" height="36.4" fill="none" stroke="#e66767" stroke-width="1.1"/>
<rect x="532.4" y="442.7" width="7.5" height="27.3" fill="none" stroke="#e66767" stroke-width="1.1"/>
<rect x="546.1" y="419.9" width="7.5" height="50.1" fill="#008300"/>
<rect x="559.7" y="424.4" width="7.5" height="45.6" fill="none" stroke="#e66767" stroke-width="1.1"/>
<rect x="573.4" y="438.1" width="7.5" height="31.9" fill="#008300"/>
<rect x="587.1" y="433.6" width="7.5" height="36.4" fill="#008300"/>
<rect x="600.7" y="438.1" width="7.5" height="31.9" fill="none" stroke="#e66767" stroke-width="1.1"/>
<rect x="614.4" y="433.6" width="7.5" height="36.4" fill="#898781"/>
<rect x="628.1" y="442.7" width="7.5" height="27.3" fill="none" stroke="#e66767" stroke-width="1.1"/>
<rect x="641.7" y="419.9" width="7.5" height="50.1" fill="#008300"/>
<rect x="655.4" y="438.1" width="7.5" height="31.9" fill="#008300"/>
<rect x="669.1" y="447.2" width="7.5" height="22.8" fill="none" stroke="#e66767" stroke-width="1.1"/>
<rect x="682.7" y="438.1" width="7.5" height="31.9" fill="#008300"/>
<rect x="696.4" y="438.1" width="7.5" height="31.9" fill="#008300"/>
<rect x="710.1" y="442.7" width="7.5" height="27.3" fill="#898781"/>
<rect x="723.7" y="429.0" width="7.5" height="41.0" fill="#008300"/>
<rect x="737.4" y="433.6" width="7.5" height="36.4" fill="none" stroke="#e66767" stroke-width="1.1"/>
<rect x="751.1" y="460.9" width="7.5" height="9.1" fill="#008300"/>
<rect x="764.7" y="447.2" width="7.5" height="22.8" fill="none" stroke="#e66767" stroke-width="1.1"/>
<rect x="792.1" y="451.8" width="7.5" height="18.2" fill="none" stroke="#e66767" stroke-width="1.1"/>
<rect x="819.4" y="465.4" width="7.5" height="4.6" fill="none" stroke="#e66767" stroke-width="1.1"/>
<polyline points="16.8,414.9 30.5,417.6 44.2,419.0 57.8,419.9 71.5,420.3 85.2,419.4 98.8,421.3 112.5,423.5 126.2,424.9 139.8,427.6 153.5,429.0 167.2,429.5 180.8,429.5 194.5,430.4 208.2,430.8 221.8,431.7 235.5,431.7 249.2,430.4 262.8,429.5 276.5,425.8 290.2,423.1 303.8,421.3 317.5,422.2 331.2,425.4 344.8,426.3 358.5,421.7 372.2,418.5 385.8,419.0 399.5,419.4 413.2,421.7 426.8,419.0 440.5,421.3 454.2,419.0 467.8,418.5 481.5,418.5 495.2,422.6 508.8,425.4 522.5,425.4 536.2,427.2 549.8,427.6 563.5,430.4 577.2,430.8 590.8,432.6 604.5,432.6 618.2,433.1 631.8,434.5 645.5,432.6 659.2,433.1 672.8,433.6 686.5,435.4 700.2,436.7 713.8,437.2 727.5,436.7 741.2,436.3 754.8,439.0 768.5,439.5 782.2,444.5 795.8,445.9 809.5,448.1 823.2,450.9" fill="none" stroke="#3987e5" stroke-width="1.5" stroke-linejoin="round" stroke-linecap="round"/>
<polyline points="16.8,419.9 30.5,419.9 44.2,421.7 57.8,419.0 71.5,421.7 85.2,419.0 98.8,422.6 112.5,425.4 126.2,430.8 139.8,433.6 153.5,439.0 167.2,436.3 180.8,433.6 194.5,429.9 208.2,428.1 221.8,424.4 235.5,427.2 249.2,427.2 262.8,429.0 276.5,423.5 290.2,421.7 303.8,415.3 317.5,417.2 331.2,421.7 344.8,429.0 358.5,421.7 372.2,421.7 385.8,420.8 399.5,417.2 413.2,414.4 426.8,416.2 440.5,420.8 454.2,417.2 467.8,419.9 481.5,422.6 495.2,429.0 508.8,429.9 522.5,433.6 536.2,434.5 549.8,432.6 563.5,431.7 577.2,431.7 590.8,431.7 604.5,430.8 618.2,433.6 631.8,437.2 645.5,433.6 659.2,434.5 672.8,436.3 686.5,437.2 700.2,436.3 713.8,440.8 727.5,439.0 741.2,436.3 754.8,440.8 768.5,442.7 782.2,448.1 795.8,452.7 809.5,460.0 823.2,460.9" fill="none" stroke="#c98500" stroke-width="1.5" stroke-linejoin="round" stroke-linecap="round"/>
</svg>