<svg xmlns="http://www.w3.org/2000/svg" viewBox="0 0 840 496" width="840" height="496" font-family="-apple-system,&#39;Segoe UI&#39;,system-ui,sans-serif" role="img" aria-label="TheAlgorithms/Python candlestick chart">
<text x="14.0" y="20.0" font-size="15" fill="#0b0b0b" font-weight="650">TheAlgorithms/Python</text>
<text x="183.0" y="20.0" font-size="11.5" fill="#52514e">daily · new stars, volume = new forks</text>
<text x="805.8" y="20.0" font-size="11.0" fill="#52514e">fall</text>
<rect x="791" y="10" width="9" height="12" fill="#008300"/>
<text x="750.6" y="20.0" font-size="11.0" fill="#52514e">rise</text>
<rect x="736" y="10" width="9" height="12" fill="none" stroke="#e34948" stroke-width="1.5"/>
<text x="14.0" y="38.0" font-size="11.0" fill="#898781">last 60 days · +2,232 stars · +553 forks · updated 2026-07-07</text>
<rect x="10" y="66" width="820" height="290" fill="none" stroke="#e1e0d9"/>
<rect x="10" y="384" width="820" height="86" fill="none" stroke="#e1e0d9"/>
<text x="38.0" y="490.0" font-size="11.0" fill="#898781" text-anchor="middle">2026-05</text>
<line x1="324.3" y1="66.0" x2="324.3" y2="356.0" stroke="#e1e0d9" stroke-width="1.0"/>
<line x1="324.3" y1="384.0" x2="324.3" y2="470.0" stroke="#e1e0d9" stroke-width="1.0"/>
<text x="331.2" y="490.0" font-size="11.0" fill="#898781" text-anchor="middle">2026-06</text>
<line x1="734.3" y1="66.0" x2="734.3" y2="356.0" stroke="#e1e0d9" stroke-width="1.0"/>
<line x1="734.3" y1="384.0" x2="734.3" y2="470.0" stroke="#e1e0d9" stroke-width="1.0"/>
<text x="741.2" y="490.0" font-size="11.0" fill="#898781" text-anchor="middle">2026-07</text>
<text x="14.0" y="58.0" font-size="11.0" fill="#52514e">BOLL(20,2)</text>
<text x="84.5" y="58.0" font-size="11.0" fill="#eda100">UP:44.7</text>
<text x="136.9" y="58.0" font-size="11.0" fill="#2a78d6">MID:31.4</text>
<text x="195.3" y="58.0" font-size="11.0" fill="#e87ba4">LOW:18.2</text>
<text x="253.7" y="58.0" font-size="11.0" fill="#4a3aa7">MA7:28.7</text>
<line x1="10.0" y1="226.3" x2="830.0" y2="226.3" stroke="#e1e0d9" stroke-width="1.0"/>
<text x="14.0" y="223.3" font-size="11.0" fill="#898781">50</text>
<line x1="10.0" y1="86.3" x2="830.0" y2="86.3" stroke="#e1e0d9" stroke-width="1.0"/>
<text x="14.0" y="83.3" font-size="11.0" fill="#898781">100</text>
<polyline points="16.8,79.2 30.5,87.6 44.2,89.6 57.8,89.1 71.5,92.6 85.2,92.9 98.8,92.9 112.5,93.6 126.2,98.8 139.8,100.7 153.5,101.6 167.2,159.3 180.8,184.1 194.5,187.1 208.2,193.9 221.8,200.0 235.5,207.1 249.2,207.7 262.8,207.5 276.5,208.2 290.2,207.4 303.8,207.1 317.5,206.9 331.2,204.4 344.8,206.2 358.5,205.7 372.2,206.5 385.8,213.5 399.5,213.6 413.2,213.2 426.8,214.4 440.5,222.6 454.2,215.6 467.8,215.7 481.5,216.8 495.2,216.7 508.8,215.0 522.5,215.0 536.2,214.7 549.8,212.9 563.5,213.3 577.2,212.9 590.8,213.3 604.5,216.9 618.2,216.8 631.8,213.6 645.5,213.8 659.2,214.8 672.8,215.8 686.5,215.7 700.2,218.2 713.8,226.3 727.5,238.4 741.2,238.9 754.8,238.8 768.5,241.0 782.2,241.1 795.8,241.4 809.5,245.8 823.2,241.2" fill="none" stroke="#eda100" stroke-width="1.5" stroke-linejoin="round" stroke-linecap="round"/>
<polyline points="16.8,194.4 30.5,201.8 44.2,206.1 57.8,207.4 71.5,210.3 85.2,212.3 98.8,212.3 112.5,212.8 126.2,218.4 139.8,221.4 153.5,222.2 167.2,231.4 180.8,237.7 194.5,240.7 208.2,245.4 221.8,248.5 235.5,251.2 249.2,252.2 262.8,252.0 276.5,252.4 290.2,253.1 303.8,252.3 317.5,251.9 331.2,250.2 344.8,251.2 358.5,250.6 372.2,251.6 385.8,253.7 399.5,252.7 413.2,253.5 426.8,254.0 440.5,255.2 454.2,253.3 467.8,253.0 481.5,252.4 495.2,251.9 508.8,253.4 522.5,253.4 536.2,253.3 549.8,255.6 563.5,255.4 577.2,257.2 590.8,258.2 604.5,259.7 618.2,261.8 631.8,260.8 645.5,261.5 659.2,263.5 672.8,264.9 686.5,265.2 700.2,266.1 713.8,268.9 727.5,272.4 741.2,272.7 754.8,272.6 768.5,273.8 782.2,273.4 795.8,275.0 809.5,276.6 823.2,278.2" fill="none" stroke="#2a78d6" stroke-width="1.5" stroke-linejoin="round" stroke-linecap="round"/>
<polyline points="16.8,309.5 30.5,315.9 44.2,322.6 57.8,325.7 71.5,328.0 85.2,331.7 98.8,331.7 112.5,332.0 126.2,338.0 139.8,342.0 153.5,342.8 167.2,303.6 180.8,291.4 194.5,294.3 208.2,297.0 221.8,297.1 235.5,295.3 249.2,296.6 262.8,296.5 276.5,296.6 290.2,298.9 303.8,297.5 317.5,296.9 331.2,295.9 344.8,296.1 358.5,295.6 372.2,296.7 385.8,293.9 399.5,291.8 413.2,293.9 426.8,293.5 440.5,287.9 454.2,290.9 467.8,290.3 481.5,288.1 495.2,287.0 508.8,291.9 522.5,291.9 536.2,291.8 549.8,298.4 563.5,297.4 577.2,301.5 590.8,303.0 604.5,302.5 618.2,306.9 631.8,308.0 645.5,309.2 659.2,312.1 672.8,314.0 686.5,314.6 700.2,314.1 713.8,311.5 727.5,306.5 741.2,306.5 754.8,306.4 768.5,306.7 782.2,305.7 795.8,308.5 809.5,307.4 823.2,315.2" fill="none" stroke="#e87ba4" stroke-width="1.5" stroke-linejoin="round" stroke-linecap="round"/>
<polyline points="16.8,229.3 30.5,240.5 44.2,248.9 57.8,257.3 71.5,255.4 85.2,256.2 98.8,256.8 112.5,247.5 126.2,248.4 139.8,247.8 153.5,243.1 167.2,237.5 180.8,236.6 194.5,240.3 208.2,251.5 221.8,250.3 235.5,249.8 249.2,255.1 262.8,262.9 276.5,262.6 290.2,265.2 303.8,260.1 317.5,258.7 331.2,254.5 344.8,252.6 358.5,252.3 372.2,254.2 385.8,248.9 399.5,249.5 413.2,252.6 426.8,254.0 440.5,248.9 454.2,244.2 467.8,244.2 481.5,247.8 495.2,247.8 508.8,249.5 522.5,253.4 536.2,257.3 549.8,269.4 563.5,271.9 577.2,273.8 590.8,276.6 604.5,272.7 618.2,276.6 631.8,273.8 645.5,271.0 659.2,272.2 672.8,271.3 686.5,272.7 700.2,272.2 713.8,269.4 727.5,277.5 741.2,276.4 754.8,273.8 768.5,273.6 782.2,273.0 795.8,278.6 809.5,279.4 823.2,285.9" fill="none" stroke="#4a3aa7" stroke-width="1.5" stroke-linejoin="round" stroke-linecap="round"/>
<rect x="13.1" y="240.3" width="7.5" height="30.8" fill="#008300"/>
<rect x="26.7" y="268.2" width="7.5" height="2.8" fill="none" stroke="#e34948" stroke-width="1.3"/>
<rect x="40.4" y="262.6" width="7.5" height="5.6" fill="none" stroke="#e34948" stroke-width="1.3"/>
<rect x="54.1" y="262.6" width="7.5" height="1.2" fill="#898781"/>
<rect x="67.7" y="231.9" width="7.5" height="30.8" fill="none" stroke="#e34948" stroke-width="1.3"/>
<rect x="81.4" y="231.9" width="7.5" height="25.2" fill="#008300"/>
<rect x="95.1" y="243.1" width="7.5" height="14.0" fill="none" stroke="#e34948" stroke-width="1.3"/>
<rect x="108.7" y="206.7" width="7.5" height="36.4" fill="none" stroke="#e34948" stroke-width="1.3"/>
<rect x="122.4" y="206.7" width="7.5" height="67.2" fill="#008300"/>
<rect x="136.1" y="259.8" width="7.5" height="14.0" fill="none" stroke="#e34948" stroke-width="1.3"/>
<rect x="149.7" y="229.1" width="7.5" height="30.8" fill="none" stroke="#e34948" stroke-width="1.3"/>
<rect x="163.4" y="192.7" width="7.5" height="36.4" fill="none" stroke="#e34948" stroke-width="1.3"/>
<rect x="177.1" y="192.7" width="7.5" height="58.8" fill="#008300"/>
<rect x="190.7" y="251.5" width="7.5" height="16.8" fill="#008300"/>
<rect x="204.4" y="268.2" width="7.5" height="16.8" fill="#008300"/>
<rect x="218.1" y="265.4" width="7.5" height="19.6" fill="none" stroke="#e34948" stroke-width="1.3"/>
<rect x="231.7" y="257.0" width="7.5" height="8.4" fill="none" stroke="#e34948" stroke-width="1.3"/>
<rect x="245.4" y="257.0" width="7.5" height="8.4" fill="#008300"/>
<rect x="259.1" y="248.7" width="7.5" height="16.8" fill="none" stroke="#e34948" stroke-width="1.3"/>
<rect x="272.7" y="248.7" width="7.5" height="1.2" fill="#898781"/>
<rect x="286.4" y="248.7" width="7.5" height="36.4" fill="#008300"/>
<rect x="300.1" y="251.5" width="7.5" height="33.6" fill="none" stroke="#e34948" stroke-width="1.3"/>
<rect x="313.7" y="251.5" width="7.5" height="2.8" fill="#008300"/>
<rect x="327.4" y="229.1" width="7.5" height="25.2" fill="none" stroke="#e34948" stroke-width="1.3"/>
<rect x="341.1" y="229.1" width="7.5" height="22.4" fill="#008300"/>
<rect x="354.7" y="245.9" width="7.5" height="5.6" fill="none" stroke="#e34948" stroke-width="1.3"/>
<rect x="368.4" y="245.9" width="7.5" height="16.8" fill="#008300"/>
<rect x="382.1" y="248.7" width="7.5" height="14.0" fill="none" stroke="#e34948" stroke-width="1.3"/>
<rect x="395.7" y="248.7" width="7.5" height="5.6" fill="#008300"/>
<rect x="409.4" y="254.2" width="7.5" height="22.4" fill="#008300"/>
<rect x="423.1" y="237.5" width="7.5" height="39.2" fill="none" stroke="#e34948" stroke-width="1.3"/>
<rect x="436.7" y="217.9" width="7.5" height="19.6" fill="none" stroke="#e34948" stroke-width="1.3"/>
<rect x="450.4" y="212.3" width="7.5" height="5.6" fill="none" stroke="#e34948" stroke-width="1.3"/>
<rect x="464.1" y="212.3" width="7.5" height="50.4" fill="#008300"/>
<rect x="477.7" y="262.6" width="7.5" height="11.2" fill="#008300"/>
<rect x="491.4" y="254.2" width="7.5" height="19.6" fill="none" stroke="#e34948" stroke-width="1.3"/>
<rect x="505.1" y="254.2" width="7.5" height="33.6" fill="#008300"/>
<rect x="518.7" y="265.4" width="7.5" height="22.4" fill="none" stroke="#e34948" stroke-width="1.3"/>
<rect x="532.4" y="245.9" width="7.5" height="19.6" fill="none" stroke="#e34948" stroke-width="1.3"/>
<rect x="546.1" y="245.9" width="7.5" height="50.4" fill="#008300"/>
<rect x="559.7" y="279.4" width="7.5" height="16.8" fill="none" stroke="#e34948" stroke-width="1.3"/>
<rect x="573.4" y="279.4" width="7.5" height="8.4" fill="#008300"/>
<rect x="587.1" y="273.8" width="7.5" height="14.0" fill="none" stroke="#e34948" stroke-width="1.3"/>
<rect x="600.7" y="259.8" width="7.5" height="14.0" fill="none" stroke="#e34948" stroke-width="1.3"/>
<rect x="614.4" y="259.8" width="7.5" height="33.6" fill="#008300"/>
<rect x="628.1" y="226.3" width="7.5" height="67.2" fill="none" stroke="#e34948" stroke-width="1.3"/>
<rect x="641.7" y="226.3" width="7.5" height="50.4" fill="#008300"/>
<rect x="655.4" y="276.6" width="7.5" height="11.2" fill="#008300"/>
<rect x="669.1" y="282.2" width="7.5" height="5.6" fill="none" stroke="#e34948" stroke-width="1.3"/>
<rect x="682.7" y="282.2" width="7.5" height="1.2" fill="#898781"/>
<rect x="696.4" y="257.0" width="7.5" height="25.2" fill="none" stroke="#e34948" stroke-width="1.3"/>
<rect x="710.1" y="257.0" width="7.5" height="16.8" fill="#008300"/>
<rect x="723.7" y="273.8" width="7.5" height="8.4" fill="#008300"/>
<rect x="737.4" y="268.2" width="7.5" height="14.0" fill="none" stroke="#e34948" stroke-width="1.3"/>
<rect x="751.1" y="268.2" width="7.5" height="2.8" fill="#008300"/>
<rect x="764.7" y="271.0" width="7.5" height="8.4" fill="#008300"/>
<rect x="778.4" y="279.4" width="7.5" height="1.2" fill="#898781"/>
<rect x="792.1" y="279.4" width="7.5" height="16.8" fill="#008300"/>
<rect x="805.7" y="279.4" width="7.5" height="16.8" fill="none" stroke="#e34948" stroke-width="1.3"/>
<rect x="819.4" y="279.4" width="7.5" height="47.6" fill="#008300"/>
<circle cx="167.2" cy="192.7" r="2" fill="#52514e"/>
<line x1="167.2" y1="192.7" x2="175.2" y2="192.7" stroke="#52514e" stroke-width="1.0"/>
<text x="178.2" y="196.7" font-size="11.0" fill="#52514e">62</text>
<circle cx="823.2" cy="327.0" r="2" fill="#52514e"/>
<line x1="823.2" y1="327.0" x2="815.2" y2="327.0" stroke="#52514e" stroke-width="1.0"/>
<text x="812.2" y="331.0" font-size="11.0" fill="#52514e" text-anchor="end">14</text>
<text x="14.0" y="376.0" font-size="11.0" fill="#52514e">VOL 2 forks</text>
<text x="90.5" y="376.0" font-size="11.0" fill="#eda100">MA5:6.4</text>
<text x="142.9" y="376.0" font-size="11.0" fill="#2a78d6">MA10:6.8</text>
<text x="14.0" y="395.0" font-size="10" fill="#898781">18</text>
<rect x="13.1" y="433.6" width="7.5" height="36.4" fill="#008300"/>
<rect x="26.7" y="424.4" width="7.5" height="45.6" fill="none" stroke="#e34948" stroke-width="1.1"/>
<rect x="40.4" y="419.9" width="7.5" height="50.1" fill="none" stroke="#e34948" stroke-width="1.1"/>
<rect x="54.1" y="415.3" width="7.5" height="54.7" fill="#898781"/>
<rect x="67.7" y="401.7" width="7.5" height="68.3" fill="none" stroke="#e34948" stroke-width="1.1"/>
<rect x="81.4" y="438.1" width="7.5" height="31.9" fill="#008300"/>
<rect x="95.1" y="424.4" width="7.5" height="45.6" fill="none" stroke="#e34948" stroke-width="1.1"/>
<rect x="108.7" y="429.0" width="7.5" height="41.0" fill="none" stroke="#e34948" stroke-width="1.1"/>
<rect x="122.4" y="401.7" width="7.5" height="68.3" fill="#008300"/>
<rect x="136.1" y="415.3" width="7.5" height="54.7" fill="none" stroke="#e34948" stroke-width="1.1"/>
<rect x="149.7" y="424.4" width="7.5" height="45.6" fill="none" stroke="#e34948" stroke-width="1.1"/>
<rect x="163.4" y="442.7" width="7.5" height="27.3" fill="none" stroke="#e34948" stroke-width="1.1"/>
<rect x="177.1" y="442.7" width="7.5" height="27.3" fill="#008300"/>
<rect x="190.7" y="429.0" width="7.5" height="41.0" fill="#008300"/>
<rect x="204.4" y="429.0" width="7.5" height="41.0" fill="#008300"/>
<rect x="218.1" y="451.8" width="7.5" height="18.2" fill="none" stroke="#e34948" stroke-width="1.1"/>
<rect x="231.7" y="429.0" width="7.5" height="41.0" fill="none" stroke="#e34948" stroke-width="1.1"/>
<rect x="245.4" y="429.0" width="7.5" height="41.0" fill="#008300"/>
<rect x="259.1" y="410.8" width="7.5" height="59.2" fill="none" stroke="#e34948" stroke-width="1.1"/>
<rect x="272.7" y="419.9" width="7.5" height="50.1" fill="#898781"/>
<rect x="286.4" y="433.6" width="7.5" height="36.4" fill="#008300"/>
<rect x="300.1" y="442.7" width="7.5" height="27.3" fill="none" stroke="#e34948" stroke-width="1.1"/>
<rect x="313.7" y="429.0" width="7.5" height="41.0" fill="#008300"/>
<rect x="327.4" y="419.9" width="7.5" height="50.1" fill="none" stroke="#e34948" stroke-width="1.1"/>
<rect x="341.1" y="392.6" width="7.5" height="77.4" fill="#008300"/>
<rect x="354.7" y="424.4" width="7.5" height="45.6" fill="none" stroke="#e34948" stroke-width="1.1"/>
<rect x="368.4" y="410.8" width="7.5" height="59.2" fill="#008300"/>
<rect x="382.1" y="438.1" width="7.5" height="31.9" fill="none" stroke="#e34948" stroke-width="1.1"/>
<rect x="395.7" y="442.7" width="7.5" height="27.3" fill="#008300"/>
<rect x="409.4" y="429.0" width="7.5" height="41.0" fill="#008300"/>
<rect x="423.1" y="388.0" width="7.5" height="82.0" fill="none" stroke="#e34948" stroke-width="1.1"/>
<rect x="436.7" y="410.8" width="7.5" height="59.2" fill="none" stroke="#e34948" stroke-width="1.1"/>
<rect x="450.4" y="433.6" width="7.5" height="36.4" fill="none" stroke="#e34948" stroke-width="1.1"/>
<rect x="464.1" y="424.4" width="7.5" height="45.6" fill="#008300"/>
<rect x="477.7" y="415.3" width="7.5" height="54.7" fill="#008300"/>
<rect x="491.4" y="397.1" width="7.5" height="72.9" fill="none" stroke="#e34948" stroke-width="1.1"/>
<rect x="505.1" y="433.6" width="7.5" height="36.4" fill="#008300"/>
<rect x="518.7" y="415.3" width="7.5" height="54.7" fill="none" stroke="#e34948" stroke-width="1.1"/>
<rect x="532.4" y="438.1" width="7.5" height="31.9" fill="none" stroke="#e34948" stroke-width="1.1"/>
<rect x="546.1" y="429.0" width="7.5" height="41.0" fill="#008300"/>
<rect x="559.7" y="429.0" width="7.5" height="41.0" fill="none" stroke="#e34948" stroke-width="1.1"/>
<rect x="573.4" y="438.1" width="7.5" height="31.9" fill="#008300"/>
<rect x="587.1" y="433.6" width="7.5" height="36.4" fill="none" stroke="#e34948" stroke-width="1.1"/>
<rect x="600.7" y="442.7" width="7.5" height="27.3" fill="none" stroke="#e34948" stroke-width="1.1"/>
<rect x="614.4" y="419.9" width="7.5" height="50.1" fill="#008300"/>
<rect x="628.1" y="424.4" width="7.5" height="45.6" fill="none" stroke="#e34948" stroke-width="1.1"/>
<rect x="641.7" y="438.1" width="7.5" height="31.9" fill="#008300"/>
<rect x="655.4" y="433.6" width="7.5" height="36.4" fill="#008300"/>
<rect x="669.1" y="438.1" width="7.5" height="31.9" fill="none" stroke="#e34948" stroke-width="1.1"/>
<rect x="682.7" y="433.6" width="7.5" height="36.4" fill="#898781"/>
<rect x="696.4" y="442.7" width="7.5" height="27.3" fill="none" stroke="#e34948" stroke-width="1.1"/>
<rect x="710.1" y="419.9" width="7.5" height="50.1" fill="#008300"/>
<rect x="723.7" y="438.1" width="7.5" height="31.9" fill="#008300"/>
<rect x="737.4" y="447.2" width="7.5" height="22.8" fill="none" stroke="#e34948" stroke-width="1.1"/>
<rect x="751.1" y="438.1" width="7.5" height="31.9" fill="#008300"/>
<rect x="764.7" y="438.1" width="7.5" height="31.9" fill="#008300"/>
<rect x="778.4" y="442.7" width="7.5" height="27.3" fill="#898781"/>
<rect x="792.1" y="429.0" width="7.5" height="41.0" fill="#008300"/>
<rect x="805.7" y="433.6" width="7.5" height="36.4" fill="none" stroke="#e34948" stroke-width="1.1"/>
<rect x="819.4" y="460.9" width="7.5" height="9.1" fill="#008300"/>
<polyline points="16.8,399.4 30.5,410.8 44.2,414.4 57.8,416.2 71.5,414.4 85.2,414.9 98.8,417.6 112.5,419.0 126.2,419.9 139.8,420.3 153.5,419.4 167.2,421.3 180.8,423.5 194.5,424.9 208.2,427.6 221.8,429.0 235.5,429.5 249.2,429.5 262.8,430.4 276.5,430.8 290.2,431.7 303.8,431.7 317.5,430.4 331.2,429.5 344.8,425.8 358.5,423.1 372.2,421.3 385.8,422.2 399.5,425.4 413.2,426.3 426.8,421.7 440.5,418.5 454.2,419.0 467.8,419.4 481.5,421.7 495.2,419.0 508.8,421.3 522.5,419.0 536.2,418.5 549.8,418.5 563.5,422.6 577.2,425.4 590.8,425.4 604.5,427.2 618.2,427.6 631.8,430.4 645.5,430.8 659.2,432.6 672.8,432.6 686.5,433.1 700.2,434.5 713.8,432.6 727.5,433.1 741.2,433.6 754.8,435.4 768.5,436.7 782.2,437.2 795.8,436.7 809.5,436.3 823.2,439.0" fill="none" stroke="#2a78d6" stroke-width="1.5" stroke-linejoin="round" stroke-linecap="round"/>
<polyline points="16.8,409.9 30.5,415.3 44.2,416.2 57.8,420.8 71.5,419.0 85.2,419.9 98.8,419.9 112.5,421.7 126.2,419.0 139.8,421.7 153.5,419.0 167.2,422.6 180.8,425.4 194.5,430.8 208.2,433.6 221.8,439.0 235.5,436.3 249.2,433.6 262.8,429.9 276.5,428.1 290.2,424.4 303.8,427.2 317.5,427.2 331.2,429.0 344.8,423.5 358.5,421.7 372.2,415.3 385.8,417.2 399.5,421.7 413.2,429.0 426.8,421.7 440.5,421.7 454.2,420.8 467.8,417.2 481.5,414.4 495.2,416.2 508.8,420.8 522.5,417.2 536.2,419.9 549.8,422.6 563.5,429.0 577.2,429.9 590.8,433.6 604.5,434.5 618.2,432.6 631.8,431.7 645.5,431.7 659.2,431.7 672.8,430.8 686.5,433.6 700.2,437.2 713.8,433.6 727.5,434.5 741.2,436.3 754.8,437.2 768.5,436.3 782.2,440.8 795.8,439.0 809.5,436.3 823.2,440.8" fill="none" stroke="#eda100" stroke-width="1.5" stroke-linejoin="round" stroke-linecap="round"/>
</svg>