<svg xmlns="http://www.w3.org/2000/svg" viewBox="0 0 840 496" width="840" height="496" font-family="-apple-system,&#39;Segoe UI&#39;,system-ui,sans-serif" role="img" aria-label="TheAlgorithms/Python candlestick chart">
<text x="14.0" y="20.0" font-size="15" fill="#ffffff" font-weight="650">TheAlgorithms/Python</text>
<text x="183.0" y="20.0" font-size="11.5" fill="#c3c2b7">daily · new stars, volume = new forks</text>
<text x="805.8" y="20.0" font-size="11.0" fill="#c3c2b7">fall</text>
<rect x="791" y="10" width="9" height="12" fill="#008300"/>
<text x="750.6" y="20.0" font-size="11.0" fill="#c3c2b7">rise</text>
<rect x="736" y="10" width="9" height="12" fill="none" stroke="#e66767" stroke-width="1.5"/>
<text x="14.0" y="38.0" font-size="11.0" fill="#898781">last 60 days · +2,199 stars · +540 forks · updated 2026-07-09</text>
<rect x="10" y="66" width="820" height="290" fill="none" stroke="#2c2c2a"/>
<rect x="10" y="384" width="820" height="86" fill="none" stroke="#2c2c2a"/>
<text x="38.0" y="490.0" font-size="11.0" fill="#898781" text-anchor="middle">2026-05</text>
<line x1="297.0" y1="66.0" x2="297.0" y2="356.0" stroke="#2c2c2a" stroke-width="1.0"/>
<line x1="297.0" y1="384.0" x2="297.0" y2="470.0" stroke="#2c2c2a" stroke-width="1.0"/>
<text x="303.8" y="490.0" font-size="11.0" fill="#898781" text-anchor="middle">2026-06</text>
<line x1="707.0" y1="66.0" x2="707.0" y2="356.0" stroke="#2c2c2a" stroke-width="1.0"/>
<line x1="707.0" y1="384.0" x2="707.0" y2="470.0" stroke="#2c2c2a" stroke-width="1.0"/>
<text x="713.8" y="490.0" font-size="11.0" fill="#898781" text-anchor="middle">2026-07</text>
<text x="14.0" y="58.0" font-size="11.0" fill="#c3c2b7">BOLL(20,2)</text>
<text x="84.5" y="58.0" font-size="11.0" fill="#c98500">UP:45.9</text>
<text x="136.9" y="58.0" font-size="11.0" fill="#3987e5">MID:30.3</text>
<text x="195.3" y="58.0" font-size="11.0" fill="#d55181">LOW:14.7</text>
<text x="253.7" y="58.0" font-size="11.0" fill="#9085e9">MA7:24</text>
<line x1="10.0" y1="221.7" x2="830.0" y2="221.7" stroke="#2c2c2a" stroke-width="1.0"/>
<text x="14.0" y="218.7" font-size="11.0" fill="#898781">50</text>
<line x1="10.0" y1="76.4" x2="830.0" y2="76.4" stroke="#2c2c2a" stroke-width="1.0"/>
<text x="14.0" y="73.4" font-size="11.0" fill="#898781">100</text>
<polyline points="16.8,79.8 30.5,79.2 44.2,82.9 57.8,83.1 71.5,83.1 85.2,83.9 98.8,89.3 112.5,91.3 126.2,92.2 139.8,152.2 153.5,177.9 167.2,181.0 180.8,188.1 194.5,194.4 208.2,201.8 221.8,202.4 235.5,202.3 249.2,203.0 262.8,202.1 276.5,201.8 290.2,201.6 303.8,199.1 317.5,200.9 331.2,200.3 344.8,201.2 358.5,208.5 372.2,208.6 385.8,208.1 399.5,209.4 413.2,217.9 426.8,210.7 440.5,210.8 454.2,211.9 467.8,211.8 481.5,210.0 495.2,210.0 508.8,209.7 522.5,207.8 536.2,208.3 549.8,207.8 563.5,208.3 577.2,212.0 590.8,211.8 604.5,208.6 618.2,208.8 631.8,209.9 645.5,210.8 659.2,210.8 672.8,213.4 686.5,221.8 700.2,234.3 713.8,234.9 727.5,234.8 741.2,237.0 754.8,237.1 768.5,237.5 782.2,242.1 795.8,237.2 809.5,234.2 823.2,233.6" fill="none" stroke="#c98500" stroke-width="1.5" stroke-linejoin="round" stroke-linecap="round"/>
<polyline points="16.8,200.8 30.5,202.1 44.2,205.2 57.8,207.2 71.5,207.2 85.2,207.8 98.8,213.6 112.5,216.6 126.2,217.5 139.8,227.1 153.5,233.6 167.2,236.7 180.8,241.6 194.5,244.8 208.2,247.6 221.8,248.6 235.5,248.5 249.2,248.9 262.8,249.6 276.5,248.8 290.2,248.3 303.8,246.6 317.5,247.6 331.2,247.0 344.8,248.0 358.5,250.2 372.2,249.2 385.8,250.1 399.5,250.5 413.2,251.8 426.8,249.8 440.5,249.5 454.2,248.9 467.8,248.3 481.5,249.9 495.2,249.9 508.8,249.8 522.5,252.3 536.2,252.0 549.8,253.9 563.5,254.9 577.2,256.5 590.8,258.7 604.5,257.6 618.2,258.4 631.8,260.4 645.5,261.8 659.2,262.1 672.8,263.2 686.5,266.1 700.2,269.7 713.8,270.0 727.5,269.8 741.2,271.2 754.8,270.7 768.5,272.3 782.2,274.1 795.8,275.7 809.5,278.0 823.2,279.0" fill="none" stroke="#3987e5" stroke-width="1.5" stroke-linejoin="round" stroke-linecap="round"/>
<polyline points="16.8,321.8 30.5,325.0 44.2,327.4 57.8,331.2 71.5,331.2 85.2,331.6 98.8,337.8 112.5,342.0 126.2,342.8 139.8,302.1 153.5,289.4 167.2,292.4 180.8,295.2 194.5,295.3 208.2,293.4 221.8,294.8 235.5,294.7 249.2,294.8 262.8,297.2 276.5,295.7 290.2,295.1 303.8,294.1 317.5,294.3 331.2,293.7 344.8,294.9 358.5,292.0 372.2,289.8 385.8,292.0 399.5,291.6 413.2,285.7 426.8,288.9 440.5,288.2 454.2,285.9 467.8,284.8 481.5,289.9 495.2,289.9 508.8,289.8 522.5,296.7 536.2,295.7 549.8,299.9 563.5,301.5 577.2,301.0 590.8,305.5 604.5,306.7 618.2,307.9 631.8,310.9 645.5,312.9 659.2,313.5 672.8,313.0 686.5,310.3 700.2,305.1 713.8,305.1 727.5,304.9 741.2,305.3 754.8,304.3 768.5,307.2 782.2,306.1 795.8,314.1 809.5,321.7 823.2,324.4" fill="none" stroke="#d55181" stroke-width="1.5" stroke-linejoin="round" stroke-linecap="round"/>
<polyline points="16.8,245.3 30.5,254.0 44.2,252.0 57.8,252.8 71.5,253.4 85.2,243.8 98.8,244.7 112.5,244.1 126.2,239.2 139.8,233.4 153.5,232.5 167.2,236.3 180.8,247.9 194.5,246.7 208.2,246.1 221.8,251.7 235.5,259.8 249.2,259.5 262.8,262.1 276.5,256.9 290.2,255.5 303.8,251.1 317.5,249.1 331.2,248.8 344.8,250.8 358.5,245.3 372.2,245.9 385.8,249.1 399.5,250.5 413.2,245.3 426.8,240.3 440.5,240.3 454.2,244.1 467.8,244.1 481.5,245.9 495.2,249.9 508.8,254.0 522.5,266.5 536.2,269.1 549.8,271.2 563.5,274.1 577.2,270.0 590.8,274.1 604.5,271.2 618.2,268.2 631.8,269.4 645.5,268.5 659.2,270.0 672.8,269.4 686.5,266.5 700.2,274.9 713.8,273.8 727.5,271.2 741.2,270.9 754.8,270.3 768.5,276.1 782.2,277.0 795.8,283.7 809.5,291.8 823.2,297.3" fill="none" stroke="#9085e9" stroke-width="1.5" stroke-linejoin="round" stroke-linecap="round"/>
<rect x="13.1" y="259.5" width="7.5" height="5.8" fill="none" stroke="#e66767" stroke-width="1.3"/>
<rect x="26.7" y="259.5" width="7.5" height="1.2" fill="#898781"/>
<rect x="40.4" y="227.5" width="7.5" height="32.0" fill="none" stroke="#e66767" stroke-width="1.3"/>
<rect x="54.1" y="227.5" width="7.5" height="26.2" fill="#008300"/>
<rect x="67.7" y="239.2" width="7.5" height="14.5" fill="none" stroke="#e66767" stroke-width="1.3"/>
<rect x="81.4" y="201.4" width="7.5" height="37.8" fill="none" stroke="#e66767" stroke-width="1.3"/>
<rect x="95.1" y="201.4" width="7.5" height="69.8" fill="#008300"/>
<rect x="108.7" y="256.6" width="7.5" height="14.5" fill="none" stroke="#e66767" stroke-width="1.3"/>
<rect x="122.4" y="224.6" width="7.5" height="32.0" fill="none" stroke="#e66767" stroke-width="1.3"/>
<rect x="136.1" y="186.8" width="7.5" height="37.8" fill="none" stroke="#e66767" stroke-width="1.3"/>
<rect x="149.7" y="186.8" width="7.5" height="61.1" fill="#008300"/>
<rect x="163.4" y="247.9" width="7.5" height="17.4" fill="#008300"/>
<rect x="177.1" y="265.3" width="7.5" height="17.4" fill="#008300"/>
<rect x="190.7" y="262.4" width="7.5" height="20.4" fill="none" stroke="#e66767" stroke-width="1.3"/>
<rect x="204.4" y="253.7" width="7.5" height="8.7" fill="none" stroke="#e66767" stroke-width="1.3"/>
<rect x="218.1" y="253.7" width="7.5" height="8.7" fill="#008300"/>
<rect x="231.7" y="245.0" width="7.5" height="17.4" fill="none" stroke="#e66767" stroke-width="1.3"/>
<rect x="245.4" y="245.0" width="7.5" height="1.2" fill="#898781"/>
<rect x="259.1" y="245.0" width="7.5" height="37.8" fill="#008300"/>
<rect x="272.7" y="247.9" width="7.5" height="34.9" fill="none" stroke="#e66767" stroke-width="1.3"/>
<rect x="286.4" y="247.9" width="7.5" height="2.9" fill="#008300"/>
<rect x="300.1" y="224.6" width="7.5" height="26.2" fill="none" stroke="#e66767" stroke-width="1.3"/>
<rect x="313.7" y="224.6" width="7.5" height="23.3" fill="#008300"/>
<rect x="327.4" y="242.1" width="7.5" height="5.8" fill="none" stroke="#e66767" stroke-width="1.3"/>
<rect x="341.1" y="242.1" width="7.5" height="17.4" fill="#008300"/>
<rect x="354.7" y="245.0" width="7.5" height="14.5" fill="none" stroke="#e66767" stroke-width="1.3"/>
<rect x="368.4" y="245.0" width="7.5" height="5.8" fill="#008300"/>
<rect x="382.1" y="250.8" width="7.5" height="23.3" fill="#008300"/>
<rect x="395.7" y="233.4" width="7.5" height="40.7" fill="none" stroke="#e66767" stroke-width="1.3"/>
<rect x="409.4" y="213.0" width="7.5" height="20.4" fill="none" stroke="#e66767" stroke-width="1.3"/>
<rect x="423.1" y="207.2" width="7.5" height="5.8" fill="none" stroke="#e66767" stroke-width="1.3"/>
<rect x="436.7" y="207.2" width="7.5" height="52.3" fill="#008300"/>
<rect x="450.4" y="259.5" width="7.5" height="11.6" fill="#008300"/>
<rect x="464.1" y="250.8" width="7.5" height="20.4" fill="none" stroke="#e66767" stroke-width="1.3"/>
<rect x="477.7" y="250.8" width="7.5" height="34.9" fill="#008300"/>
<rect x="491.4" y="262.4" width="7.5" height="23.3" fill="none" stroke="#e66767" stroke-width="1.3"/>
<rect x="505.1" y="242.1" width="7.5" height="20.4" fill="none" stroke="#e66767" stroke-width="1.3"/>
<rect x="518.7" y="242.1" width="7.5" height="52.3" fill="#008300"/>
<rect x="532.4" y="277.0" width="7.5" height="17.4" fill="none" stroke="#e66767" stroke-width="1.3"/>
<rect x="546.1" y="277.0" width="7.5" height="8.7" fill="#008300"/>
<rect x="559.7" y="271.2" width="7.5" height="14.5" fill="none" stroke="#e66767" stroke-width="1.3"/>
<rect x="573.4" y="256.6" width="7.5" height="14.5" fill="none" stroke="#e66767" stroke-width="1.3"/>
<rect x="587.1" y="256.6" width="7.5" height="34.9" fill="#008300"/>
<rect x="600.7" y="221.7" width="7.5" height="69.8" fill="none" stroke="#e66767" stroke-width="1.3"/>
<rect x="614.4" y="221.7" width="7.5" height="52.3" fill="#008300"/>
<rect x="628.1" y="274.1" width="7.5" height="11.6" fill="#008300"/>
<rect x="641.7" y="279.9" width="7.5" height="5.8" fill="none" stroke="#e66767" stroke-width="1.3"/>
<rect x="655.4" y="279.9" width="7.5" height="1.2" fill="#898781"/>
<rect x="669.1" y="253.7" width="7.5" height="26.2" fill="none" stroke="#e66767" stroke-width="1.3"/>
<rect x="682.7" y="253.7" width="7.5" height="17.4" fill="#008300"/>
<rect x="696.4" y="271.2" width="7.5" height="8.7" fill="#008300"/>
<rect x="710.1" y="265.3" width="7.5" height="14.5" fill="none" stroke="#e66767" stroke-width="1.3"/>
<rect x="723.7" y="265.3" width="7.5" height="2.9" fill="#008300"/>
<rect x="737.4" y="268.2" width="7.5" height="8.7" fill="#008300"/>
<rect x="751.1" y="277.0" width="7.5" height="1.2" fill="#898781"/>
<rect x="764.7" y="277.0" width="7.5" height="17.4" fill="#008300"/>
<rect x="778.4" y="277.0" width="7.5" height="17.4" fill="none" stroke="#e66767" stroke-width="1.3"/>
<rect x="792.1" y="277.0" width="7.5" height="49.4" fill="#008300"/>
<rect x="805.7" y="323.5" width="7.5" height="2.9" fill="none" stroke="#e66767" stroke-width="1.3"/>
<rect x="819.4" y="306.0" width="7.5" height="17.4" fill="none" stroke="#e66767" stroke-width="1.3"/>
<circle cx="139.8" cy="186.8" r="2" fill="#c3c2b7"/>
<line x1="139.8" y1="186.8" x2="147.8" y2="186.8" stroke="#c3c2b7" stroke-width="1.0"/>
<text x="150.8" y="190.8" font-size="11.0" fill="#c3c2b7">62</text>
<circle cx="795.8" cy="326.4" r="2" fill="#c3c2b7"/>
<line x1="795.8" y1="326.4" x2="787.8" y2="326.4" stroke="#c3c2b7" stroke-width="1.0"/>
<text x="784.8" y="330.4" font-size="11.0" fill="#c3c2b7" text-anchor="end">14</text>
<text x="14.0" y="376.0" font-size="11.0" fill="#c3c2b7">VOL 0 forks</text>
<text x="90.6" y="376.0" font-size="11.0" fill="#c98500">MA5:4.8</text>
<text x="142.9" y="376.0" font-size="11.0" fill="#3987e5">MA10:5.6</text>
<text x="14.0" y="395.0" font-size="10" fill="#898781">18</text>
<rect x="13.1" y="419.9" width="7.5" height="50.1" fill="none" stroke="#e66767" stroke-width="1.1"/>
<rect x="26.7" y="415.3" width="7.5" height="54.7" fill="#898781"/>
<rect x="40.4" y="401.7" width="7.5" height="68.3" fill="none" stroke="#e66767" stroke-width="1.1"/>
<rect x="54.1" y="438.1" width="7.5" height="31.9" fill="#008300"/>
<rect x="67.7" y="424.4" width="7.5" height="45.6" fill="none" stroke="#e66767" stroke-width="1.1"/>
<rect x="81.4" y="429.0" width="7.5" height="41.0" fill="none" stroke="#e66767" stroke-width="1.1"/>
<rect x="95.1" y="401.7" width="7.5" height="68.3" fill="#008300"/>
<rect x="108.7" y="415.3" width="7.5" height="54.7" fill="none" stroke="#e66767" stroke-width="1.1"/>
<rect x="122.4" y="424.4" width="7.5" height="45.6" fill="none" stroke="#e66767" stroke-width="1.1"/>
<rect x="136.1" y="442.7" width="7.5" height="27.3" fill="none" stroke="#e66767" stroke-width="1.1"/>
<rect x="149.7" y="442.7" width="7.5" height="27.3" fill="#008300"/>
<rect x="163.4" y="429.0" width="7.5" height="41.0" fill="#008300"/>
<rect x="177.1" y="429.0" width="7.5" height="41.0" fill="#008300"/>
<rect x="190.7" y="451.8" width="7.5" height="18.2" fill="none" stroke="#e66767" stroke-width="1.1"/>
<rect x="204.4" y="429.0" width="7.5" height="41.0" fill="none" stroke="#e66767" stroke-width="1.1"/>
<rect x="218.1" y="429.0" width="7.5" height="41.0" fill="#008300"/>
<rect x="231.7" y="410.8" width="7.5" height="59.2" fill="none" stroke="#e66767" stroke-width="1.1"/>
<rect x="245.4" y="419.9" width="7.5" height="50.1" fill="#898781"/>
<rect x="259.1" y="433.6" width="7.5" height="36.4" fill="#008300"/>
<rect x="272.7" y="442.7" width="7.5" height="27.3" fill="none" stroke="#e66767" stroke-width="1.1"/>
<rect x="286.4" y="429.0" width="7.5" height="41.0" fill="#008300"/>
<rect x="300.1" y="419.9" width="7.5" height="50.1" fill="none" stroke="#e66767" stroke-width="1.1"/>
<rect x="313.7" y="392.6" width="7.5" height="77.4" fill="#008300"/>
<rect x="327.4" y="424.4" width="7.5" height="45.6" fill="none" stroke="#e66767" stroke-width="1.1"/>
<rect x="341.1" y="410.8" width="7.5" height="59.2" fill="#008300"/>
<rect x="354.7" y="438.1" width="7.5" height="31.9" fill="none" stroke="#e66767" stroke-width="1.1"/>
<rect x="368.4" y="442.7" width="7.5" height="27.3" fill="#008300"/>
<rect x="382.1" y="429.0" width="7.5" height="41.0" fill="#008300"/>
<rect x="395.7" y="388.0" width="7.5" height="82.0" fill="none" stroke="#e66767" stroke-width="1.1"/>
<rect x="409.4" y="410.8" width="7.5" height="59.2" fill="none" stroke="#e66767" stroke-width="1.1"/>
<rect x="423.1" y="433.6" width="7.5" height="36.4" fill="none" stroke="#e66767" stroke-width="1.1"/>
<rect x="436.7" y="424.4" width="7.5" height="45.6" fill="#008300"/>
<rect x="450.4" y="415.3" width="7.5" height="54.7" fill="#008300"/>
<rect x="464.1" y="397.1" width="7.5" height="72.9" fill="none" stroke="#e66767" stroke-width="1.1"/>
<rect x="477.7" y="433.6" width="7.5" height="36.4" fill="#008300"/>
<rect x="491.4" y="415.3" width="7.5" height="54.7" fill="none" stroke="#e66767" stroke-width="1.1"/>
<rect x="505.1" y="438.1" width="7.5" height="31.9" fill="none" stroke="#e66767" stroke-width="1.1"/>
<rect x="518.7" y="429.0" width="7.5" height="41.0" fill="#008300"/>
<rect x="532.4" y="429.0" width="7.5" height="41.0" fill="none" stroke="#e66767" stroke-width="1.1"/>
<rect x="546.1" y="438.1" width="7.5" height="31.9" fill="#008300"/>
<rect x="559.7" y="433.6" width="7.5" height="36.4" fill="none" stroke="#e66767" stroke-width="1.1"/>
<rect x="573.4" y="442.7" width="7.5" height="27.3" fill="none" stroke="#e66767" stroke-width="1.1"/>
<rect x="587.1" y="419.9" width="7.5" height="50.1" fill="#008300"/>
<rect x="600.7" y="424.4" width="7.5" height="45.6" fill="none" stroke="#e66767" stroke-width="1.1"/>
<rect x="614.4" y="438.1" width="7.5" height="31.9" fill="#008300"/>
<rect x="628.1" y="433.6" width="7.5" height="36.4" fill="#008300"/>
<rect x="641.7" y="438.1" width="7.5" height="31.9" fill="none" stroke="#e66767" stroke-width="1.1"/>
<rect x="655.4" y="433.6" width="7.5" height="36.4" fill="#898781"/>
<rect x="669.1" y="442.7" width="7.5" height="27.3" fill="none" stroke="#e66767" stroke-width="1.1"/>
<rect x="682.7" y="419.9" width="7.5" height="50.1" fill="#008300"/>
<rect x="696.4" y="438.1" width="7.5" height="31.9" fill="#008300"/>
<rect x="710.1" y="447.2" width="7.5" height="22.8" fill="none" stroke="#e66767" stroke-width="1.1"/>
<rect x="723.7" y="438.1" width="7.5" height="31.9" fill="#008300"/>
<rect x="737.4" y="438.1" width="7.5" height="31.9" fill="#008300"/>
<rect x="751.1" y="442.7" width="7.5" height="27.3" fill="#898781"/>
<rect x="764.7" y="429.0" width="7.5" height="41.0" fill="#008300"/>
<rect x="778.4" y="433.6" width="7.5" height="36.4" fill="none" stroke="#e66767" stroke-width="1.1"/>
<rect x="792.1" y="460.9" width="7.5" height="9.1" fill="#008300"/>
<rect x="805.7" y="447.2" width="7.5" height="22.8" fill="none" stroke="#e66767" stroke-width="1.1"/>
<polyline points="16.8,414.4 30.5,416.2 44.2,414.4 57.8,414.9 71.5,417.6 85.2,419.0 98.8,419.9 112.5,420.3 126.2,419.4 139.8,421.3 153.5,423.5 167.2,424.9 180.8,427.6 194.5,429.0 208.2,429.5 221.8,429.5 235.5,430.4 249.2,430.8 262.8,431.7 276.5,431.7 290.2,430.4 303.8,429.5 317.5,425.8 331.2,423.1 344.8,421.3 358.5,422.2 372.2,425.4 385.8,426.3 399.5,421.7 413.2,418.5 426.8,419.0 440.5,419.4 454.2,421.7 467.8,419.0 481.5,421.3 495.2,419.0 508.8,418.5 522.5,418.5 536.2,422.6 549.8,425.4 563.5,425.4 577.2,427.2 590.8,427.6 604.5,430.4 618.2,430.8 631.8,432.6 645.5,432.6 659.2,433.1 672.8,434.5 686.5,432.6 700.2,433.1 713.8,433.6 727.5,435.4 741.2,436.7 754.8,437.2 768.5,436.7 782.2,436.3 795.8,439.0 809.5,439.5 823.2,444.5" fill="none" stroke="#3987e5" stroke-width="1.5" stroke-linejoin="round" stroke-linecap="round"/>
<polyline points="16.8,416.2 30.5,420.8 44.2,419.0 57.8,419.9 71.5,419.9 85.2,421.7 98.8,419.0 112.5,421.7 126.2,419.0 139.8,422.6 153.5,425.4 167.2,430.8 180.8,433.6 194.5,439.0 208.2,436.3 221.8,433.6 235.5,429.9 249.2,428.1 262.8,424.4 276.5,427.2 290.2,427.2 303.8,429.0 317.5,423.5 331.2,421.7 344.8,415.3 358.5,417.2 372.2,421.7 385.8,429.0 399.5,421.7 413.2,421.7 426.8,420.8 440.5,417.2 454.2,414.4 467.8,416.2 481.5,420.8 495.2,417.2 508.8,419.9 522.5,422.6 536.2,429.0 549.8,429.9 563.5,433.6 577.2,434.5 590.8,432.6 604.5,431.7 618.2,431.7 631.8,431.7 645.5,430.8 659.2,433.6 672.8,437.2 686.5,433.6 700.2,434.5 713.8,436.3 727.5,437.2 741.2,436.3 754.8,440.8 768.5,439.0 782.2,436.3 795.8,440.8 809.5,442.7 823.2,448.1" fill="none" stroke="#c98500" stroke-width="1.5" stroke-linejoin="round" stroke-linecap="round"/>
</svg>