<svg xmlns="http://www.w3.org/2000/svg" viewBox="0 0 840 496" width="840" height="496" font-family="-apple-system,&#39;Segoe UI&#39;,system-ui,sans-serif" role="img" aria-label="TheAlgorithms/Python candlestick chart">
<text x="14.0" y="20.0" font-size="15" fill="#ffffff" font-weight="650">TheAlgorithms/Python</text>
<text x="183.0" y="20.0" font-size="11.5" fill="#c3c2b7">daily · new stars, volume = new forks</text>
<text x="805.8" y="20.0" font-size="11.0" fill="#c3c2b7">fall</text>
<rect x="791" y="10" width="9" height="12" fill="#008300"/>
<text x="750.6" y="20.0" font-size="11.0" fill="#c3c2b7">rise</text>
<rect x="736" y="10" width="9" height="12" fill="none" stroke="#e66767" stroke-width="1.5"/>
<text x="14.0" y="38.0" font-size="11.0" fill="#898781">last 60 days · +2,137 stars · +476 forks · updated 2026-07-18</text>
<rect x="10" y="66" width="820" height="290" fill="none" stroke="#2c2c2a"/>
<rect x="10" y="384" width="820" height="86" fill="none" stroke="#2c2c2a"/>
<text x="38.0" y="490.0" font-size="11.0" fill="#898781" text-anchor="middle">2026-05</text>
<line x1="174.0" y1="66.0" x2="174.0" y2="356.0" stroke="#2c2c2a" stroke-width="1.0"/>
<line x1="174.0" y1="384.0" x2="174.0" y2="470.0" stroke="#2c2c2a" stroke-width="1.0"/>
<text x="180.8" y="490.0" font-size="11.0" fill="#898781" text-anchor="middle">2026-06</text>
<line x1="584.0" y1="66.0" x2="584.0" y2="356.0" stroke="#2c2c2a" stroke-width="1.0"/>
<line x1="584.0" y1="384.0" x2="584.0" y2="470.0" stroke="#2c2c2a" stroke-width="1.0"/>
<text x="590.8" y="490.0" font-size="11.0" fill="#898781" text-anchor="middle">2026-07</text>
<text x="14.0" y="58.0" font-size="11.0" fill="#c3c2b7">BOLL(20,2)</text>
<text x="84.5" y="58.0" font-size="11.0" fill="#c98500">UP:53.1</text>
<text x="136.9" y="58.0" font-size="11.0" fill="#3987e5">MID:31</text>
<text x="183.2" y="58.0" font-size="11.0" fill="#d55181">LOW:8.9</text>
<text x="235.5" y="58.0" font-size="11.0" fill="#9085e9">MA7:39.7</text>
<line x1="10.0" y1="297.9" x2="830.0" y2="297.9" stroke="#2c2c2a" stroke-width="1.0"/>
<text x="14.0" y="294.9" font-size="11.0" fill="#898781">20</text>
<line x1="10.0" y1="216.8" x2="830.0" y2="216.8" stroke="#2c2c2a" stroke-width="1.0"/>
<text x="14.0" y="213.8" font-size="11.0" fill="#898781">40</text>
<line x1="10.0" y1="135.7" x2="830.0" y2="135.7" stroke="#2c2c2a" stroke-width="1.0"/>
<text x="14.0" y="132.7" font-size="11.0" fill="#898781">60</text>
<polyline points="16.8,79.2 30.5,115.1 44.2,119.4 57.8,129.3 71.5,138.1 85.2,148.4 98.8,149.3 112.5,149.1 126.2,150.1 139.8,148.8 153.5,148.4 167.2,148.1 180.8,144.6 194.5,147.1 208.2,146.4 221.8,147.5 235.5,157.7 249.2,157.8 262.8,157.2 276.5,159.1 290.2,170.9 303.8,160.8 317.5,160.9 331.2,162.5 344.8,162.4 358.5,159.8 372.2,159.8 385.8,159.5 399.5,156.8 413.2,157.4 426.8,156.8 440.5,157.4 454.2,162.6 467.8,162.4 481.5,157.9 495.2,158.2 508.8,159.7 522.5,161.0 536.2,161.0 549.8,164.5 563.5,176.3 577.2,193.8 590.8,194.6 604.5,194.4 618.2,197.6 631.8,197.7 645.5,198.1 659.2,204.6 672.8,197.8 686.5,193.6 700.2,192.8 713.8,194.0 727.5,196.3 741.2,189.3 754.8,199.9 768.5,192.2 782.2,192.1 795.8,175.6 809.5,175.9 823.2,163.7" fill="none" stroke="#c98500" stroke-width="1.5" stroke-linejoin="round" stroke-linecap="round"/>
<polyline points="16.8,183.7 30.5,192.8 44.2,197.1 57.8,204.0 71.5,208.4 85.2,212.3 98.8,213.7 112.5,213.5 126.2,214.1 139.8,215.1 153.5,213.9 167.2,213.3 180.8,210.9 194.5,212.3 208.2,211.5 221.8,212.9 235.5,215.9 249.2,214.5 262.8,215.7 276.5,216.4 290.2,218.2 303.8,215.3 317.5,214.9 331.2,214.1 344.8,213.3 358.5,215.5 372.2,215.5 385.8,215.3 399.5,218.8 413.2,218.4 426.8,221.0 440.5,222.4 454.2,224.7 467.8,227.7 481.5,226.3 495.2,227.3 508.8,230.1 522.5,232.2 536.2,232.6 549.8,234.0 563.5,238.0 577.2,243.1 590.8,243.5 604.5,243.3 618.2,245.1 631.8,244.5 645.5,246.8 659.2,249.2 672.8,251.4 686.5,254.7 700.2,256.1 713.8,257.7 727.5,262.0 741.2,258.7 754.8,261.0 768.5,258.5 782.2,259.7 795.8,255.1 809.5,256.3 823.2,253.2" fill="none" stroke="#3987e5" stroke-width="1.5" stroke-linejoin="round" stroke-linecap="round"/>
<polyline points="16.8,288.2 30.5,270.6 44.2,274.7 57.8,278.7 71.5,278.8 85.2,276.2 98.8,278.1 112.5,277.9 126.2,278.1 139.8,281.4 153.5,279.4 167.2,278.5 180.8,277.2 194.5,277.5 208.2,276.6 221.8,278.3 235.5,274.2 249.2,271.2 262.8,274.3 276.5,273.6 290.2,265.5 303.8,269.9 317.5,268.9 331.2,265.7 344.8,264.2 358.5,271.3 372.2,271.3 385.8,271.2 399.5,280.7 413.2,279.3 426.8,285.2 440.5,287.4 454.2,286.7 467.8,293.0 481.5,294.7 495.2,296.4 508.8,300.6 522.5,303.3 536.2,304.2 549.8,303.4 563.5,299.8 577.2,292.4 590.8,292.5 604.5,292.3 618.2,292.7 631.8,291.4 645.5,295.4 659.2,293.8 672.8,305.1 686.5,315.7 700.2,319.3 713.8,321.4 727.5,327.7 741.2,328.1 754.8,322.0 768.5,324.9 782.2,327.4 795.8,334.6 809.5,336.7 823.2,342.8" fill="none" stroke="#d55181" stroke-width="1.5" stroke-linejoin="round" stroke-linecap="round"/>
<polyline points="16.8,192.4 30.5,191.2 44.2,196.5 57.8,212.7 71.5,211.1 85.2,210.3 98.8,218.0 112.5,229.3 126.2,228.9 139.8,232.6 153.5,225.3 167.2,223.2 180.8,217.2 194.5,214.3 208.2,213.9 221.8,216.8 235.5,209.1 249.2,209.9 262.8,214.3 276.5,216.4 290.2,209.1 303.8,202.2 317.5,202.2 331.2,207.4 344.8,207.4 358.5,209.9 372.2,215.5 385.8,221.2 399.5,238.7 413.2,242.3 426.8,245.1 440.5,249.2 454.2,243.5 467.8,249.2 481.5,245.1 495.2,241.1 508.8,242.7 522.5,241.5 536.2,243.5 549.8,242.7 563.5,238.7 577.2,250.4 590.8,248.8 604.5,245.1 618.2,244.7 631.8,243.9 645.5,252.0 659.2,253.2 672.8,262.6 686.5,273.9 700.2,281.6 713.8,285.3 727.5,293.4 741.2,283.3 754.8,278.8 768.5,261.4 782.2,257.3 795.8,238.7 809.5,239.5 823.2,218.0" fill="none" stroke="#9085e9" stroke-width="1.5" stroke-linejoin="round" stroke-linecap="round"/>
<rect x="13.1" y="127.6" width="7.5" height="52.7" fill="none" stroke="#e66767" stroke-width="1.3"/>
<rect x="26.7" y="127.6" width="7.5" height="85.1" fill="#008300"/>
<rect x="40.4" y="212.7" width="7.5" height="24.3" fill="#008300"/>
<rect x="54.1" y="237.0" width="7.5" height="24.3" fill="#008300"/>
<rect x="67.7" y="233.0" width="7.5" height="28.4" fill="none" stroke="#e66767" stroke-width="1.3"/>
<rect x="81.4" y="220.8" width="7.5" height="12.2" fill="none" stroke="#e66767" stroke-width="1.3"/>
<rect x="95.1" y="220.8" width="7.5" height="12.2" fill="#008300"/>
<rect x="108.7" y="208.6" width="7.5" height="24.3" fill="none" stroke="#e66767" stroke-width="1.3"/>
<rect x="122.4" y="208.6" width="7.5" height="1.2" fill="#898781"/>
<rect x="136.1" y="208.6" width="7.5" height="52.7" fill="#008300"/>
<rect x="149.7" y="212.7" width="7.5" height="48.7" fill="none" stroke="#e66767" stroke-width="1.3"/>
<rect x="163.4" y="212.7" width="7.5" height="4.1" fill="#008300"/>
<rect x="177.1" y="180.3" width="7.5" height="36.5" fill="none" stroke="#e66767" stroke-width="1.3"/>
<rect x="190.7" y="180.3" width="7.5" height="32.4" fill="#008300"/>
<rect x="204.4" y="204.6" width="7.5" height="8.1" fill="none" stroke="#e66767" stroke-width="1.3"/>
<rect x="218.1" y="204.6" width="7.5" height="24.3" fill="#008300"/>
<rect x="231.7" y="208.6" width="7.5" height="20.3" fill="none" stroke="#e66767" stroke-width="1.3"/>
<rect x="245.4" y="208.6" width="7.5" height="8.1" fill="#008300"/>
<rect x="259.1" y="216.8" width="7.5" height="32.4" fill="#008300"/>
<rect x="272.7" y="192.4" width="7.5" height="56.8" fill="none" stroke="#e66767" stroke-width="1.3"/>
<rect x="286.4" y="164.0" width="7.5" height="28.4" fill="none" stroke="#e66767" stroke-width="1.3"/>
<rect x="300.1" y="155.9" width="7.5" height="8.1" fill="none" stroke="#e66767" stroke-width="1.3"/>
<rect x="313.7" y="155.9" width="7.5" height="73.0" fill="#008300"/>
<rect x="327.4" y="228.9" width="7.5" height="16.2" fill="#008300"/>
<rect x="341.1" y="216.8" width="7.5" height="28.4" fill="none" stroke="#e66767" stroke-width="1.3"/>
<rect x="354.7" y="216.8" width="7.5" height="48.7" fill="#008300"/>
<rect x="368.4" y="233.0" width="7.5" height="32.4" fill="none" stroke="#e66767" stroke-width="1.3"/>
<rect x="382.1" y="204.6" width="7.5" height="28.4" fill="none" stroke="#e66767" stroke-width="1.3"/>
<rect x="395.7" y="204.6" width="7.5" height="73.0" fill="#008300"/>
<rect x="409.4" y="253.2" width="7.5" height="24.3" fill="none" stroke="#e66767" stroke-width="1.3"/>
<rect x="423.1" y="253.2" width="7.5" height="12.2" fill="#008300"/>
<rect x="436.7" y="245.1" width="7.5" height="20.3" fill="none" stroke="#e66767" stroke-width="1.3"/>
<rect x="450.4" y="224.9" width="7.5" height="20.3" fill="none" stroke="#e66767" stroke-width="1.3"/>
<rect x="464.1" y="224.9" width="7.5" height="48.7" fill="#008300"/>
<rect x="477.7" y="176.2" width="7.5" height="97.3" fill="none" stroke="#e66767" stroke-width="1.3"/>
<rect x="491.4" y="176.2" width="7.5" height="73.0" fill="#008300"/>
<rect x="505.1" y="249.2" width="7.5" height="16.2" fill="#008300"/>
<rect x="518.7" y="257.3" width="7.5" height="8.1" fill="none" stroke="#e66767" stroke-width="1.3"/>
<rect x="532.4" y="257.3" width="7.5" height="1.2" fill="#898781"/>
<rect x="546.1" y="220.8" width="7.5" height="36.5" fill="none" stroke="#e66767" stroke-width="1.3"/>
<rect x="559.7" y="220.8" width="7.5" height="24.3" fill="#008300"/>
<rect x="573.4" y="245.1" width="7.5" height="12.2" fill="#008300"/>
<rect x="587.1" y="237.0" width="7.5" height="20.3" fill="none" stroke="#e66767" stroke-width="1.3"/>
<rect x="600.7" y="237.0" width="7.5" height="4.1" fill="#008300"/>
<rect x="614.4" y="241.1" width="7.5" height="12.2" fill="#008300"/>
<rect x="628.1" y="253.2" width="7.5" height="1.2" fill="#898781"/>
<rect x="641.7" y="253.2" width="7.5" height="24.3" fill="#008300"/>
<rect x="655.4" y="253.2" width="7.5" height="24.3" fill="none" stroke="#e66767" stroke-width="1.3"/>
<rect x="669.1" y="253.2" width="7.5" height="68.9" fill="#008300"/>
<rect x="682.7" y="318.1" width="7.5" height="4.1" fill="none" stroke="#e66767" stroke-width="1.3"/>
<rect x="696.4" y="293.8" width="7.5" height="24.3" fill="none" stroke="#e66767" stroke-width="1.3"/>
<rect x="710.1" y="277.6" width="7.5" height="16.2" fill="none" stroke="#e66767" stroke-width="1.3"/>
<rect x="723.7" y="277.6" width="7.5" height="32.4" fill="#008300"/>
<rect x="737.4" y="208.6" width="7.5" height="101.4" fill="none" stroke="#e66767" stroke-width="1.3"/>
<rect x="751.1" y="208.6" width="7.5" height="12.2" fill="#008300"/>
<rect x="764.7" y="200.5" width="7.5" height="20.3" fill="none" stroke="#e66767" stroke-width="1.3"/>
<rect x="778.4" y="200.5" width="7.5" height="89.2" fill="#008300"/>
<rect x="792.1" y="164.0" width="7.5" height="125.7" fill="none" stroke="#e66767" stroke-width="1.3"/>
<rect x="805.7" y="164.0" width="7.5" height="117.6" fill="#008300"/>
<rect x="819.4" y="160.0" width="7.5" height="121.6" fill="none" stroke="#e66767" stroke-width="1.3"/>
<circle cx="16.8" cy="127.6" r="2" fill="#c3c2b7"/>
<line x1="16.8" y1="127.6" x2="24.8" y2="127.6" stroke="#c3c2b7" stroke-width="1.0"/>
<text x="27.8" y="131.6" font-size="11.0" fill="#c3c2b7">62</text>
<circle cx="672.8" cy="322.2" r="2" fill="#c3c2b7"/>
<line x1="672.8" y1="322.2" x2="664.8" y2="322.2" stroke="#c3c2b7" stroke-width="1.0"/>
<text x="661.8" y="326.2" font-size="11.0" fill="#c3c2b7" text-anchor="end">14</text>
<text x="14.0" y="376.0" font-size="11.0" fill="#c3c2b7">VOL 4 forks</text>
<text x="90.6" y="376.0" font-size="11.0" fill="#c98500">MA5:4.8</text>
<text x="142.9" y="376.0" font-size="11.0" fill="#3987e5">MA10:3.7</text>
<text x="14.0" y="395.0" font-size="10" fill="#898781">18</text>
<rect x="13.1" y="442.7" width="7.5" height="27.3" fill="none" stroke="#e66767" stroke-width="1.1"/>
<rect x="26.7" y="442.7" width="7.5" height="27.3" fill="#008300"/>
<rect x="40.4" y="429.0" width="7.5" height="41.0" fill="#008300"/>
<rect x="54.1" y="429.0" width="7.5" height="41.0" fill="#008300"/>
<rect x="67.7" y="451.8" width="7.5" height="18.2" fill="none" stroke="#e66767" stroke-width="1.1"/>
<rect x="81.4" y="429.0" width="7.5" height="41.0" fill="none" stroke="#e66767" stroke-width="1.1"/>
<rect x="95.1" y="429.0" width="7.5" height="41.0" fill="#008300"/>
<rect x="108.7" y="410.8" width="7.5" height="59.2" fill="none" stroke="#e66767" stroke-width="1.1"/>
<rect x="122.4" y="419.9" width="7.5" height="50.1" fill="#898781"/>
<rect x="136.1" y="433.6" width="7.5" height="36.4" fill="#008300"/>
<rect x="149.7" y="442.7" width="7.5" height="27.3" fill="none" stroke="#e66767" stroke-width="1.1"/>
<rect x="163.4" y="429.0" width="7.5" height="41.0" fill="#008300"/>
<rect x="177.1" y="419.9" width="7.5" height="50.1" fill="none" stroke="#e66767" stroke-width="1.1"/>
<rect x="190.7" y="392.6" width="7.5" height="77.4" fill="#008300"/>
<rect x="204.4" y="424.4" width="7.5" height="45.6" fill="none" stroke="#e66767" stroke-width="1.1"/>
<rect x="218.1" y="410.8" width="7.5" height="59.2" fill="#008300"/>
<rect x="231.7" y="438.1" width="7.5" height="31.9" fill="none" stroke="#e66767" stroke-width="1.1"/>
<rect x="245.4" y="442.7" width="7.5" height="27.3" fill="#008300"/>
<rect x="259.1" y="429.0" width="7.5" height="41.0" fill="#008300"/>
<rect x="272.7" y="388.0" width="7.5" height="82.0" fill="none" stroke="#e66767" stroke-width="1.1"/>
<rect x="286.4" y="410.8" width="7.5" height="59.2" fill="none" stroke="#e66767" stroke-width="1.1"/>
<rect x="300.1" y="433.6" width="7.5" height="36.4" fill="none" stroke="#e66767" stroke-width="1.1"/>
<rect x="313.7" y="424.4" width="7.5" height="45.6" fill="#008300"/>
<rect x="327.4" y="415.3" width="7.5" height="54.7" fill="#008300"/>
<rect x="341.1" y="397.1" width="7.5" height="72.9" fill="none" stroke="#e66767" stroke-width="1.1"/>
<rect x="354.7" y="433.6" width="7.5" height="36.4" fill="#008300"/>
<rect x="368.4" y="415.3" width="7.5" height="54.7" fill="none" stroke="#e66767" stroke-width="1.1"/>
<rect x="382.1" y="438.1" width="7.5" height="31.9" fill="none" stroke="#e66767" stroke-width="1.1"/>
<rect x="395.7" y="429.0" width="7.5" height="41.0" fill="#008300"/>
<rect x="409.4" y="429.0" width="7.5" height="41.0" fill="none" stroke="#e66767" stroke-width="1.1"/>
<rect x="423.1" y="438.1" width="7.5" height="31.9" fill="#008300"/>
<rect x="436.7" y="433.6" width="7.5" height="36.4" fill="none" stroke="#e66767" stroke-width="1.1"/>
<rect x="450.4" y="442.7" width="7.5" height="27.3" fill="none" stroke="#e66767" stroke-width="1.1"/>
<rect x="464.1" y="419.9" width="7.5" height="50.1" fill="#008300"/>
<rect x="477.7" y="424.4" width="7.5" height="45.6" fill="none" stroke="#e66767" stroke-width="1.1"/>
<rect x="491.4" y="438.1" width="7.5" height="31.9" fill="#008300"/>
<rect x="505.1" y="433.6" width="7.5" height="36.4" fill="#008300"/>
<rect x="518.7" y="438.1" width="7.5" height="31.9" fill="none" stroke="#e66767" stroke-width="1.1"/>
<rect x="532.4" y="433.6" width="7.5" height="36.4" fill="#898781"/>
<rect x="546.1" y="442.7" width="7.5" height="27.3" fill="none" stroke="#e66767" stroke-width="1.1"/>
<rect x="559.7" y="419.9" width="7.5" height="50.1" fill="#008300"/>
<rect x="573.4" y="438.1" width="7.5" height="31.9" fill="#008300"/>
<rect x="587.1" y="447.2" width="7.5" height="22.8" fill="none" stroke="#e66767" stroke-width="1.1"/>
<rect x="600.7" y="438.1" width="7.5" height="31.9" fill="#008300"/>
<rect x="614.4" y="438.1" width="7.5" height="31.9" fill="#008300"/>
<rect x="628.1" y="442.7" width="7.5" height="27.3" fill="#898781"/>
<rect x="641.7" y="429.0" width="7.5" height="41.0" fill="#008300"/>
<rect x="655.4" y="433.6" width="7.5" height="36.4" fill="none" stroke="#e66767" stroke-width="1.1"/>
<rect x="669.1" y="460.9" width="7.5" height="9.1" fill="#008300"/>
<rect x="682.7" y="447.2" width="7.5" height="22.8" fill="none" stroke="#e66767" stroke-width="1.1"/>
<rect x="710.1" y="451.8" width="7.5" height="18.2" fill="none" stroke="#e66767" stroke-width="1.1"/>
<rect x="737.4" y="465.4" width="7.5" height="4.6" fill="none" stroke="#e66767" stroke-width="1.1"/>
<rect x="751.1" y="433.6" width="7.5" height="36.4" fill="#008300"/>
<rect x="778.4" y="447.2" width="7.5" height="22.8" fill="#008300"/>
<rect x="792.1" y="429.0" width="7.5" height="41.0" fill="none" stroke="#e66767" stroke-width="1.1"/>
<rect x="805.7" y="442.7" width="7.5" height="27.3" fill="#008300"/>
<rect x="819.4" y="451.8" width="7.5" height="18.2" fill="none" stroke="#e66767" stroke-width="1.1"/>
<polyline points="16.8,421.3 30.5,423.5 44.2,424.9 57.8,427.6 71.5,429.0 85.2,429.5 98.8,429.5 112.5,430.4 126.2,430.8 139.8,431.7 153.5,431.7 167.2,430.4 180.8,429.5 194.5,425.8 208.2,423.1 221.8,421.3 235.5,422.2 249.2,425.4 262.8,426.3 276.5,421.7 290.2,418.5 303.8,419.0 317.5,419.4 331.2,421.7 344.8,419.0 358.5,421.3 372.2,419.0 385.8,418.5 399.5,418.5 413.2,422.6 426.8,425.4 440.5,425.4 454.2,427.2 467.8,427.6 481.5,430.4 495.2,430.8 508.8,432.6 522.5,432.6 536.2,433.1 549.8,434.5 563.5,432.6 577.2,433.1 590.8,433.6 604.5,435.4 618.2,436.7 631.8,437.2 645.5,436.7 659.2,436.3 672.8,439.0 686.5,439.5 700.2,444.5 713.8,445.9 727.5,448.1 741.2,450.9 754.8,450.4 768.5,453.1 782.2,455.0 795.8,454.5 809.5,452.7 823.2,453.1" fill="none" stroke="#3987e5" stroke-width="1.5" stroke-linejoin="round" stroke-linecap="round"/>
<polyline points="16.8,422.6 30.5,425.4 44.2,430.8 57.8,433.6 71.5,439.0 85.2,436.3 98.8,433.6 112.5,429.9 126.2,428.1 139.8,424.4 153.5,427.2 167.2,427.2 180.8,429.0 194.5,423.5 208.2,421.7 221.8,415.3 235.5,417.2 249.2,421.7 262.8,429.0 276.5,421.7 290.2,421.7 303.8,420.8 317.5,417.2 331.2,414.4 344.8,416.2 358.5,420.8 372.2,417.2 385.8,419.9 399.5,422.6 413.2,429.0 426.8,429.9 440.5,433.6 454.2,434.5 467.8,432.6 481.5,431.7 495.2,431.7 508.8,431.7 522.5,430.8 536.2,433.6 549.8,437.2 563.5,433.6 577.2,434.5 590.8,436.3 604.5,437.2 618.2,436.3 631.8,440.8 645.5,439.0 659.2,436.3 672.8,440.8 686.5,442.7 700.2,448.1 713.8,452.7 727.5,460.0 741.2,460.9 754.8,458.2 768.5,458.2 782.2,457.2 795.8,449.0 809.5,444.5 823.2,448.1" fill="none" stroke="#c98500" stroke-width="1.5" stroke-linejoin="round" stroke-linecap="round"/>
</svg>