<svg xmlns="http://www.w3.org/2000/svg" viewBox="0 0 840 496" width="840" height="496" font-family="-apple-system,&#39;Segoe UI&#39;,system-ui,sans-serif" role="img" aria-label="TheAlgorithms/Python candlestick chart">
<text x="14.0" y="20.0" font-size="15" fill="#0b0b0b" font-weight="650">TheAlgorithms/Python</text>
<text x="183.0" y="20.0" font-size="11.5" fill="#52514e">daily · new stars, volume = new forks</text>
<text x="805.8" y="20.0" font-size="11.0" fill="#52514e">fall</text>
<rect x="791" y="10" width="9" height="12" fill="#008300"/>
<text x="750.6" y="20.0" font-size="11.0" fill="#52514e">rise</text>
<rect x="736" y="10" width="9" height="12" fill="none" stroke="#e34948" stroke-width="1.5"/>
<text x="14.0" y="38.0" font-size="11.0" fill="#898781">last 60 days · +2,129 stars · +477 forks · updated 2026-07-21</text>
<rect x="10" y="66" width="820" height="290" fill="none" stroke="#e1e0d9"/>
<rect x="10" y="384" width="820" height="86" fill="none" stroke="#e1e0d9"/>
<text x="38.0" y="490.0" font-size="11.0" fill="#898781" text-anchor="middle">2026-05</text>
<line x1="133.0" y1="66.0" x2="133.0" y2="356.0" stroke="#e1e0d9" stroke-width="1.0"/>
<line x1="133.0" y1="384.0" x2="133.0" y2="470.0" stroke="#e1e0d9" stroke-width="1.0"/>
<text x="139.8" y="490.0" font-size="11.0" fill="#898781" text-anchor="middle">2026-06</text>
<line x1="543.0" y1="66.0" x2="543.0" y2="356.0" stroke="#e1e0d9" stroke-width="1.0"/>
<line x1="543.0" y1="384.0" x2="543.0" y2="470.0" stroke="#e1e0d9" stroke-width="1.0"/>
<text x="549.8" y="490.0" font-size="11.0" fill="#898781" text-anchor="middle">2026-07</text>
<text x="14.0" y="58.0" font-size="11.0" fill="#52514e">BOLL(20,2)</text>
<text x="84.5" y="58.0" font-size="11.0" fill="#eda100">UP:56.6</text>
<text x="136.9" y="58.0" font-size="11.0" fill="#2a78d6">MID:32.6</text>
<text x="195.3" y="58.0" font-size="11.0" fill="#e87ba4">LOW:8.6</text>
<text x="247.6" y="58.0" font-size="11.0" fill="#4a3aa7">MA7:40.4</text>
<line x1="10.0" y1="286.1" x2="830.0" y2="286.1" stroke="#e1e0d9" stroke-width="1.0"/>
<text x="14.0" y="283.1" font-size="11.0" fill="#898781">20</text>
<line x1="10.0" y1="186.6" x2="830.0" y2="186.6" stroke="#e1e0d9" stroke-width="1.0"/>
<text x="14.0" y="183.6" font-size="11.0" fill="#898781">40</text>
<line x1="10.0" y1="87.0" x2="830.0" y2="87.0" stroke="#e1e0d9" stroke-width="1.0"/>
<text x="14.0" y="84.0" font-size="11.0" fill="#898781">60</text>
<polyline points="16.8,79.2 30.5,90.0 44.2,102.7 57.8,103.8 71.5,103.5 85.2,104.8 98.8,103.2 112.5,102.7 126.2,102.3 139.8,98.0 153.5,101.1 167.2,100.2 180.8,101.6 194.5,114.1 208.2,114.3 221.8,113.5 235.5,115.8 249.2,130.2 262.8,117.9 276.5,118.1 290.2,120.0 303.8,119.8 317.5,116.7 331.2,116.7 344.8,116.3 358.5,113.0 372.2,113.8 385.8,113.0 399.5,113.8 413.2,120.1 426.8,119.9 440.5,114.3 454.2,114.7 467.8,116.5 481.5,118.2 495.2,118.1 508.8,122.5 522.5,137.0 536.2,158.4 549.8,159.4 563.5,159.1 577.2,163.0 590.8,163.2 604.5,163.7 618.2,171.6 631.8,163.3 645.5,158.2 659.2,157.2 672.8,158.7 686.5,161.5 700.2,152.9 713.8,165.9 727.5,156.4 741.2,156.3 754.8,136.0 768.5,136.5 782.2,121.4 795.8,116.7 809.5,113.3 823.2,104.0" fill="none" stroke="#eda100" stroke-width="1.5" stroke-linejoin="round" stroke-linecap="round"/>
<polyline points="16.8,170.9 30.5,176.4 44.2,181.1 57.8,182.9 71.5,182.6 85.2,183.4 98.8,184.6 112.5,183.1 126.2,182.4 139.8,179.4 153.5,181.1 167.2,180.1 180.8,181.9 194.5,185.6 208.2,183.8 221.8,185.3 235.5,186.1 249.2,188.3 262.8,184.8 276.5,184.3 290.2,183.4 303.8,182.4 317.5,185.1 331.2,185.1 344.8,184.8 358.5,189.1 372.2,188.6 385.8,191.8 399.5,193.6 413.2,196.3 426.8,200.0 440.5,198.3 454.2,199.5 467.8,203.0 481.5,205.5 495.2,206.0 508.8,207.7 522.5,212.7 536.2,218.9 549.8,219.4 563.5,219.2 577.2,221.4 590.8,220.7 604.5,223.4 618.2,226.4 631.8,229.1 645.5,233.1 659.2,234.9 672.8,236.9 686.5,242.1 700.2,238.1 713.8,240.8 727.5,237.9 741.2,239.3 754.8,233.6 768.5,235.1 782.2,231.4 795.8,229.1 809.5,226.9 823.2,223.4" fill="none" stroke="#2a78d6" stroke-width="1.5" stroke-linejoin="round" stroke-linecap="round"/>
<polyline points="16.8,262.6 30.5,262.7 44.2,259.6 57.8,261.9 71.5,261.7 85.2,261.9 98.8,266.0 112.5,263.5 126.2,262.4 139.8,260.7 153.5,261.1 167.2,260.0 180.8,262.1 194.5,257.1 208.2,253.4 221.8,257.2 235.5,256.4 249.2,246.4 262.8,251.8 276.5,250.6 290.2,246.7 303.8,244.9 317.5,253.5 331.2,253.5 344.8,253.4 358.5,265.1 372.2,263.4 385.8,270.6 399.5,273.3 413.2,272.4 426.8,280.2 440.5,282.2 454.2,284.4 467.8,289.5 481.5,292.8 495.2,293.9 508.8,293.0 522.5,288.5 536.2,279.5 549.8,279.5 563.5,279.3 577.2,279.8 590.8,278.2 604.5,283.1 618.2,281.2 631.8,295.0 645.5,308.0 659.2,312.5 672.8,315.0 686.5,322.7 700.2,323.3 713.8,315.7 727.5,319.3 741.2,322.4 754.8,331.2 768.5,333.8 782.2,341.3 795.8,341.6 809.5,340.5 823.2,342.8" fill="none" stroke="#e87ba4" stroke-width="1.5" stroke-linejoin="round" stroke-linecap="round"/>
<polyline points="16.8,181.6 30.5,179.6 44.2,178.6 57.8,188.1 71.5,202.0 85.2,201.5 98.8,206.0 112.5,197.0 126.2,194.6 139.8,187.1 153.5,183.6 167.2,183.1 180.8,186.6 194.5,177.1 208.2,178.1 221.8,183.6 235.5,186.1 249.2,177.1 262.8,168.7 276.5,168.7 290.2,175.1 303.8,175.1 317.5,178.1 331.2,185.1 344.8,192.1 358.5,213.5 372.2,217.9 385.8,221.4 399.5,226.4 413.2,219.4 426.8,226.4 440.5,221.4 454.2,216.4 467.8,218.4 481.5,216.9 495.2,219.4 508.8,218.4 522.5,213.5 536.2,227.9 549.8,225.9 563.5,221.4 577.2,220.9 590.8,219.9 604.5,229.9 618.2,231.4 631.8,242.8 645.5,256.8 659.2,266.2 672.8,270.7 686.5,280.7 700.2,268.2 713.8,262.7 727.5,241.3 741.2,236.4 754.8,213.5 768.5,214.5 782.2,188.1 795.8,188.1 809.5,188.1 823.2,184.6" fill="none" stroke="#4a3aa7" stroke-width="1.5" stroke-linejoin="round" stroke-linecap="round"/>
<rect x="13.1" y="211.5" width="7.5" height="29.9" fill="#008300"/>
<rect x="26.7" y="206.5" width="7.5" height="34.8" fill="none" stroke="#e34948" stroke-width="1.3"/>
<rect x="40.4" y="191.6" width="7.5" height="14.9" fill="none" stroke="#e34948" stroke-width="1.3"/>
<rect x="54.1" y="191.6" width="7.5" height="14.9" fill="#008300"/>
<rect x="67.7" y="176.6" width="7.5" height="29.9" fill="none" stroke="#e34948" stroke-width="1.3"/>
<rect x="81.4" y="176.6" width="7.5" height="1.2" fill="#898781"/>
<rect x="95.1" y="176.6" width="7.5" height="64.7" fill="#008300"/>
<rect x="108.7" y="181.6" width="7.5" height="59.7" fill="none" stroke="#e34948" stroke-width="1.3"/>
<rect x="122.4" y="181.6" width="7.5" height="5.0" fill="#008300"/>
<rect x="136.1" y="141.8" width="7.5" height="44.8" fill="none" stroke="#e34948" stroke-width="1.3"/>
<rect x="149.7" y="141.8" width="7.5" height="39.8" fill="#008300"/>
<rect x="163.4" y="171.7" width="7.5" height="10.0" fill="none" stroke="#e34948" stroke-width="1.3"/>
<rect x="177.1" y="171.7" width="7.5" height="29.9" fill="#008300"/>
<rect x="190.7" y="176.6" width="7.5" height="24.9" fill="none" stroke="#e34948" stroke-width="1.3"/>
<rect x="204.4" y="176.6" width="7.5" height="10.0" fill="#008300"/>
<rect x="218.1" y="186.6" width="7.5" height="39.8" fill="#008300"/>
<rect x="231.7" y="156.7" width="7.5" height="69.7" fill="none" stroke="#e34948" stroke-width="1.3"/>
<rect x="245.4" y="121.9" width="7.5" height="34.8" fill="none" stroke="#e34948" stroke-width="1.3"/>
<rect x="259.1" y="111.9" width="7.5" height="10.0" fill="none" stroke="#e34948" stroke-width="1.3"/>
<rect x="272.7" y="111.9" width="7.5" height="89.6" fill="#008300"/>
<rect x="286.4" y="201.5" width="7.5" height="19.9" fill="#008300"/>
<rect x="300.1" y="186.6" width="7.5" height="34.8" fill="none" stroke="#e34948" stroke-width="1.3"/>
<rect x="313.7" y="186.6" width="7.5" height="59.7" fill="#008300"/>
<rect x="327.4" y="206.5" width="7.5" height="39.8" fill="none" stroke="#e34948" stroke-width="1.3"/>
<rect x="341.1" y="171.7" width="7.5" height="34.8" fill="none" stroke="#e34948" stroke-width="1.3"/>
<rect x="354.7" y="171.7" width="7.5" height="89.6" fill="#008300"/>
<rect x="368.4" y="231.4" width="7.5" height="29.9" fill="none" stroke="#e34948" stroke-width="1.3"/>
<rect x="382.1" y="231.4" width="7.5" height="14.9" fill="#008300"/>
<rect x="395.7" y="221.4" width="7.5" height="24.9" fill="none" stroke="#e34948" stroke-width="1.3"/>
<rect x="409.4" y="196.5" width="7.5" height="24.9" fill="none" stroke="#e34948" stroke-width="1.3"/>
<rect x="423.1" y="196.5" width="7.5" height="59.7" fill="#008300"/>
<rect x="436.7" y="136.8" width="7.5" height="119.5" fill="none" stroke="#e34948" stroke-width="1.3"/>
<rect x="450.4" y="136.8" width="7.5" height="89.6" fill="#008300"/>
<rect x="464.1" y="226.4" width="7.5" height="19.9" fill="#008300"/>
<rect x="477.7" y="236.4" width="7.5" height="10.0" fill="none" stroke="#e34948" stroke-width="1.3"/>
<rect x="491.4" y="236.4" width="7.5" height="1.2" fill="#898781"/>
<rect x="505.1" y="191.6" width="7.5" height="44.8" fill="none" stroke="#e34948" stroke-width="1.3"/>
<rect x="518.7" y="191.6" width="7.5" height="29.9" fill="#008300"/>
<rect x="532.4" y="221.4" width="7.5" height="14.9" fill="#008300"/>
<rect x="546.1" y="211.5" width="7.5" height="24.9" fill="none" stroke="#e34948" stroke-width="1.3"/>
<rect x="559.7" y="211.5" width="7.5" height="5.0" fill="#008300"/>
<rect x="573.4" y="216.4" width="7.5" height="14.9" fill="#008300"/>
<rect x="587.1" y="231.4" width="7.5" height="1.2" fill="#898781"/>
<rect x="600.7" y="231.4" width="7.5" height="29.9" fill="#008300"/>
<rect x="614.4" y="231.4" width="7.5" height="29.9" fill="none" stroke="#e34948" stroke-width="1.3"/>
<rect x="628.1" y="231.4" width="7.5" height="84.6" fill="#008300"/>
<rect x="641.7" y="311.0" width="7.5" height="5.0" fill="none" stroke="#e34948" stroke-width="1.3"/>
<rect x="655.4" y="281.2" width="7.5" height="29.9" fill="none" stroke="#e34948" stroke-width="1.3"/>
<rect x="669.1" y="261.2" width="7.5" height="19.9" fill="none" stroke="#e34948" stroke-width="1.3"/>
<rect x="682.7" y="261.2" width="7.5" height="39.8" fill="#008300"/>
<rect x="696.4" y="176.6" width="7.5" height="124.4" fill="none" stroke="#e34948" stroke-width="1.3"/>
<rect x="710.1" y="176.6" width="7.5" height="14.9" fill="#008300"/>
<rect x="723.7" y="166.7" width="7.5" height="24.9" fill="none" stroke="#e34948" stroke-width="1.3"/>
<rect x="737.4" y="166.7" width="7.5" height="109.5" fill="#008300"/>
<rect x="751.1" y="121.9" width="7.5" height="154.3" fill="none" stroke="#e34948" stroke-width="1.3"/>
<rect x="764.7" y="121.9" width="7.5" height="144.3" fill="#008300"/>
<rect x="778.4" y="116.9" width="7.5" height="149.3" fill="none" stroke="#e34948" stroke-width="1.3"/>
<rect x="792.1" y="116.9" width="7.5" height="59.7" fill="#008300"/>
<rect x="805.7" y="176.6" width="7.5" height="14.9" fill="#008300"/>
<rect x="819.4" y="141.8" width="7.5" height="49.8" fill="none" stroke="#e34948" stroke-width="1.3"/>
<circle cx="262.8" cy="111.9" r="2" fill="#52514e"/>
<line x1="262.8" y1="111.9" x2="270.8" y2="111.9" stroke="#52514e" stroke-width="1.0"/>
<text x="273.8" y="115.9" font-size="11.0" fill="#52514e">55</text>
<circle cx="631.8" cy="316.0" r="2" fill="#52514e"/>
<line x1="631.8" y1="316.0" x2="623.8" y2="316.0" stroke="#52514e" stroke-width="1.0"/>
<text x="620.8" y="320.0" font-size="11.0" fill="#52514e" text-anchor="end">14</text>
<text x="14.0" y="376.0" font-size="11.0" fill="#52514e">VOL 3 forks</text>
<text x="90.6" y="376.0" font-size="11.0" fill="#eda100">MA5:6.4</text>
<text x="142.9" y="376.0" font-size="11.0" fill="#2a78d6">MA10:5.5</text>
<text x="14.0" y="395.0" font-size="10" fill="#898781">18</text>
<rect x="13.1" y="429.0" width="7.5" height="41.0" fill="#008300"/>
<rect x="26.7" y="451.8" width="7.5" height="18.2" fill="none" stroke="#e34948" stroke-width="1.1"/>
<rect x="40.4" y="429.0" width="7.5" height="41.0" fill="none" stroke="#e34948" stroke-width="1.1"/>
<rect x="54.1" y="429.0" width="7.5" height="41.0" fill="#008300"/>
<rect x="67.7" y="410.8" width="7.5" height="59.2" fill="none" stroke="#e34948" stroke-width="1.1"/>
<rect x="81.4" y="419.9" width="7.5" height="50.1" fill="#898781"/>
<rect x="95.1" y="433.6" width="7.5" height="36.4" fill="#008300"/>
<rect x="108.7" y="442.7" width="7.5" height="27.3" fill="none" stroke="#e34948" stroke-width="1.1"/>
<rect x="122.4" y="429.0" width="7.5" height="41.0" fill="#008300"/>
<rect x="136.1" y="419.9" width="7.5" height="50.1" fill="none" stroke="#e34948" stroke-width="1.1"/>
<rect x="149.7" y="392.6" width="7.5" height="77.4" fill="#008300"/>
<rect x="163.4" y="424.4" width="7.5" height="45.6" fill="none" stroke="#e34948" stroke-width="1.1"/>
<rect x="177.1" y="410.8" width="7.5" height="59.2" fill="#008300"/>
<rect x="190.7" y="438.1" width="7.5" height="31.9" fill="none" stroke="#e34948" stroke-width="1.1"/>
<rect x="204.4" y="442.7" width="7.5" height="27.3" fill="#008300"/>
<rect x="218.1" y="429.0" width="7.5" height="41.0" fill="#008300"/>
<rect x="231.7" y="388.0" width="7.5" height="82.0" fill="none" stroke="#e34948" stroke-width="1.1"/>
<rect x="245.4" y="410.8" width="7.5" height="59.2" fill="none" stroke="#e34948" stroke-width="1.1"/>
<rect x="259.1" y="433.6" width="7.5" height="36.4" fill="none" stroke="#e34948" stroke-width="1.1"/>
<rect x="272.7" y="424.4" width="7.5" height="45.6" fill="#008300"/>
<rect x="286.4" y="415.3" width="7.5" height="54.7" fill="#008300"/>
<rect x="300.1" y="397.1" width="7.5" height="72.9" fill="none" stroke="#e34948" stroke-width="1.1"/>
<rect x="313.7" y="433.6" width="7.5" height="36.4" fill="#008300"/>
<rect x="327.4" y="415.3" width="7.5" height="54.7" fill="none" stroke="#e34948" stroke-width="1.1"/>
<rect x="341.1" y="438.1" width="7.5" height="31.9" fill="none" stroke="#e34948" stroke-width="1.1"/>
<rect x="354.7" y="429.0" width="7.5" height="41.0" fill="#008300"/>
<rect x="368.4" y="429.0" width="7.5" height="41.0" fill="none" stroke="#e34948" stroke-width="1.1"/>
<rect x="382.1" y="438.1" width="7.5" height="31.9" fill="#008300"/>
<rect x="395.7" y="433.6" width="7.5" height="36.4" fill="none" stroke="#e34948" stroke-width="1.1"/>
<rect x="409.4" y="442.7" width="7.5" height="27.3" fill="none" stroke="#e34948" stroke-width="1.1"/>
<rect x="423.1" y="419.9" width="7.5" height="50.1" fill="#008300"/>
<rect x="436.7" y="424.4" width="7.5" height="45.6" fill="none" stroke="#e34948" stroke-width="1.1"/>
<rect x="450.4" y="438.1" width="7.5" height="31.9" fill="#008300"/>
<rect x="464.1" y="433.6" width="7.5" height="36.4" fill="#008300"/>
<rect x="477.7" y="438.1" width="7.5" height="31.9" fill="none" stroke="#e34948" stroke-width="1.1"/>
<rect x="491.4" y="433.6" width="7.5" height="36.4" fill="#898781"/>
<rect x="505.1" y="442.7" width="7.5" height="27.3" fill="none" stroke="#e34948" stroke-width="1.1"/>
<rect x="518.7" y="419.9" width="7.5" height="50.1" fill="#008300"/>
<rect x="532.4" y="438.1" width="7.5" height="31.9" fill="#008300"/>
<rect x="546.1" y="447.2" width="7.5" height="22.8" fill="none" stroke="#e34948" stroke-width="1.1"/>
<rect x="559.7" y="438.1" width="7.5" height="31.9" fill="#008300"/>
<rect x="573.4" y="438.1" width="7.5" height="31.9" fill="#008300"/>
<rect x="587.1" y="442.7" width="7.5" height="27.3" fill="#898781"/>
<rect x="600.7" y="429.0" width="7.5" height="41.0" fill="#008300"/>
<rect x="614.4" y="433.6" width="7.5" height="36.4" fill="none" stroke="#e34948" stroke-width="1.1"/>
<rect x="628.1" y="460.9" width="7.5" height="9.1" fill="#008300"/>
<rect x="641.7" y="447.2" width="7.5" height="22.8" fill="none" stroke="#e34948" stroke-width="1.1"/>
<rect x="669.1" y="451.8" width="7.5" height="18.2" fill="none" stroke="#e34948" stroke-width="1.1"/>
<rect x="696.4" y="465.4" width="7.5" height="4.6" fill="none" stroke="#e34948" stroke-width="1.1"/>
<rect x="710.1" y="433.6" width="7.5" height="36.4" fill="#008300"/>
<rect x="737.4" y="447.2" width="7.5" height="22.8" fill="#008300"/>
<rect x="751.1" y="429.0" width="7.5" height="41.0" fill="none" stroke="#e34948" stroke-width="1.1"/>
<rect x="764.7" y="442.7" width="7.5" height="27.3" fill="#008300"/>
<rect x="778.4" y="451.8" width="7.5" height="18.2" fill="none" stroke="#e34948" stroke-width="1.1"/>
<rect x="792.1" y="419.9" width="7.5" height="50.1" fill="#008300"/>
<rect x="805.7" y="433.6" width="7.5" height="36.4" fill="#008300"/>
<rect x="819.4" y="456.3" width="7.5" height="13.7" fill="none" stroke="#e34948" stroke-width="1.1"/>
<polyline points="16.8,427.6 30.5,429.0 44.2,429.5 57.8,429.5 71.5,430.4 85.2,430.8 98.8,431.7 112.5,431.7 126.2,430.4 139.8,429.5 153.5,425.8 167.2,423.1 180.8,421.3 194.5,422.2 208.2,425.4 221.8,426.3 235.5,421.7 249.2,418.5 262.8,419.0 276.5,419.4 290.2,421.7 303.8,419.0 317.5,421.3 331.2,419.0 344.8,418.5 358.5,418.5 372.2,422.6 385.8,425.4 399.5,425.4 413.2,427.2 426.8,427.6 440.5,430.4 454.2,430.8 467.8,432.6 481.5,432.6 495.2,433.1 508.8,434.5 522.5,432.6 536.2,433.1 549.8,433.6 563.5,435.4 577.2,436.7 590.8,437.2 604.5,436.7 618.2,436.3 631.8,439.0 645.5,439.5 659.2,444.5 672.8,445.9 686.5,448.1 700.2,450.9 713.8,450.4 727.5,453.1 741.2,455.0 754.8,454.5 768.5,452.7 782.2,453.1 795.8,448.1 809.5,446.3 823.2,444.9" fill="none" stroke="#2a78d6" stroke-width="1.5" stroke-linejoin="round" stroke-linecap="round"/>
<polyline points="16.8,433.6 30.5,439.0 44.2,436.3 57.8,433.6 71.5,429.9 85.2,428.1 98.8,424.4 112.5,427.2 126.2,427.2 139.8,429.0 153.5,423.5 167.2,421.7 180.8,415.3 194.5,417.2 208.2,421.7 221.8,429.0 235.5,421.7 249.2,421.7 262.8,420.8 276.5,417.2 290.2,414.4 303.8,416.2 317.5,420.8 331.2,417.2 344.8,419.9 358.5,422.6 372.2,429.0 385.8,429.9 399.5,433.6 413.2,434.5 426.8,432.6 440.5,431.7 454.2,431.7 467.8,431.7 481.5,430.8 495.2,433.6 508.8,437.2 522.5,433.6 536.2,434.5 549.8,436.3 563.5,437.2 577.2,436.3 590.8,440.8 604.5,439.0 618.2,436.3 631.8,440.8 645.5,442.7 659.2,448.1 672.8,452.7 686.5,460.0 700.2,460.9 713.8,458.2 727.5,458.2 741.2,457.2 754.8,449.0 768.5,444.5 782.2,448.1 795.8,438.1 809.5,435.4 823.2,440.8" fill="none" stroke="#eda100" stroke-width="1.5" stroke-linejoin="round" stroke-linecap="round"/>
</svg>