<svg xmlns="http://www.w3.org/2000/svg" viewBox="0 0 840 496" width="840" height="496" font-family="-apple-system,&#39;Segoe UI&#39;,system-ui,sans-serif" role="img" aria-label="TheAlgorithms/Python candlestick chart">
<text x="14.0" y="20.0" font-size="15" fill="#ffffff" font-weight="650">TheAlgorithms/Python</text>
<text x="183.0" y="20.0" font-size="11.5" fill="#c3c2b7">daily · new stars, volume = new forks</text>
<text x="805.8" y="20.0" font-size="11.0" fill="#c3c2b7">fall</text>
<rect x="791" y="10" width="9" height="12" fill="#008300"/>
<text x="750.6" y="20.0" font-size="11.0" fill="#c3c2b7">rise</text>
<rect x="736" y="10" width="9" height="12" fill="none" stroke="#e66767" stroke-width="1.5"/>
<text x="14.0" y="38.0" font-size="11.0" fill="#898781">last 60 days · +2,115 stars · +472 forks · updated 2026-07-23</text>
<rect x="10" y="66" width="820" height="290" fill="none" stroke="#2c2c2a"/>
<rect x="10" y="384" width="820" height="86" fill="none" stroke="#2c2c2a"/>
<text x="38.0" y="490.0" font-size="11.0" fill="#898781" text-anchor="middle">2026-05</text>
<line x1="105.7" y1="66.0" x2="105.7" y2="356.0" stroke="#2c2c2a" stroke-width="1.0"/>
<line x1="105.7" y1="384.0" x2="105.7" y2="470.0" stroke="#2c2c2a" stroke-width="1.0"/>
<text x="112.5" y="490.0" font-size="11.0" fill="#898781" text-anchor="middle">2026-06</text>
<line x1="515.7" y1="66.0" x2="515.7" y2="356.0" stroke="#2c2c2a" stroke-width="1.0"/>
<line x1="515.7" y1="384.0" x2="515.7" y2="470.0" stroke="#2c2c2a" stroke-width="1.0"/>
<text x="522.5" y="490.0" font-size="11.0" fill="#898781" text-anchor="middle">2026-07</text>
<text x="14.0" y="58.0" font-size="11.0" fill="#c3c2b7">BOLL(20,2)</text>
<text x="84.5" y="58.0" font-size="11.0" fill="#c98500">UP:57.0</text>
<text x="136.9" y="58.0" font-size="11.0" fill="#3987e5">MID:31.9</text>
<text x="195.3" y="58.0" font-size="11.0" fill="#d55181">LOW:6.8</text>
<text x="247.6" y="58.0" font-size="11.0" fill="#9085e9">MA7:37</text>
<line x1="10.0" y1="274.7" x2="830.0" y2="274.7" stroke="#2c2c2a" stroke-width="1.0"/>
<text x="14.0" y="271.7" font-size="11.0" fill="#898781">20</text>
<line x1="10.0" y1="171.2" x2="830.0" y2="171.2" stroke="#2c2c2a" stroke-width="1.0"/>
<text x="14.0" y="168.2" font-size="11.0" fill="#898781">40</text>
<line x1="10.0" y1="67.8" x2="830.0" y2="67.8" stroke="#2c2c2a" stroke-width="1.0"/>
<text x="14.0" y="64.8" font-size="11.0" fill="#898781">60</text>
<polyline points="16.8,84.0 30.5,85.2 44.2,84.9 57.8,86.2 71.5,84.6 85.2,84.0 98.8,83.7 112.5,79.2 126.2,82.4 139.8,81.5 153.5,83.0 167.2,95.9 180.8,96.1 194.5,95.3 208.2,97.6 221.8,112.7 235.5,99.9 249.2,100.0 262.8,102.0 276.5,101.9 290.2,98.6 303.8,98.6 317.5,98.2 331.2,94.8 344.8,95.6 358.5,94.8 372.2,95.6 385.8,102.2 399.5,101.9 413.2,96.1 426.8,96.5 440.5,98.4 454.2,100.1 467.8,100.1 481.5,104.6 495.2,119.7 508.8,142.0 522.5,142.9 536.2,142.7 549.8,146.8 563.5,146.9 577.2,147.5 590.8,155.7 604.5,147.0 618.2,141.8 631.8,140.7 645.5,142.2 659.2,145.1 672.8,136.3 686.5,149.8 700.2,139.9 713.8,139.7 727.5,118.7 741.2,119.2 754.8,103.5 768.5,98.6 782.2,95.1 795.8,85.4 809.5,85.1 823.2,83.4" fill="none" stroke="#c98500" stroke-width="1.5" stroke-linejoin="round" stroke-linecap="round"/>
<polyline points="16.8,165.5 30.5,167.4 44.2,167.1 57.8,167.9 71.5,169.2 85.2,167.6 98.8,166.8 112.5,163.7 126.2,165.5 139.8,164.5 153.5,166.3 167.2,170.2 180.8,168.4 194.5,169.9 208.2,170.7 221.8,173.0 235.5,169.4 249.2,168.9 262.8,167.9 276.5,166.8 290.2,169.7 303.8,169.7 317.5,169.4 331.2,173.8 344.8,173.3 358.5,176.7 372.2,178.5 385.8,181.3 399.5,185.2 413.2,183.4 426.8,184.7 440.5,188.3 454.2,190.9 467.8,191.4 481.5,193.2 495.2,198.4 508.8,204.8 522.5,205.4 536.2,205.1 549.8,207.4 563.5,206.7 577.2,209.5 590.8,212.6 604.5,215.4 618.2,219.6 631.8,221.4 645.5,223.5 659.2,228.9 672.8,224.8 686.5,227.6 700.2,224.5 713.8,226.0 727.5,220.1 741.2,221.7 754.8,217.8 768.5,215.4 782.2,213.1 795.8,209.5 809.5,209.2 823.2,213.1" fill="none" stroke="#3987e5" stroke-width="1.5" stroke-linejoin="round" stroke-linecap="round"/>
<polyline points="16.8,247.0 30.5,249.5 44.2,249.3 57.8,249.5 71.5,253.7 85.2,251.2 98.8,250.0 112.5,248.3 126.2,248.6 139.8,247.6 153.5,249.7 167.2,244.5 180.8,240.7 194.5,244.6 208.2,243.8 221.8,233.4 235.5,239.0 249.2,237.8 262.8,233.7 276.5,231.8 290.2,240.7 303.8,240.7 317.5,240.6 331.2,252.8 344.8,251.0 358.5,258.5 372.2,261.4 385.8,260.4 399.5,268.5 413.2,270.6 426.8,272.8 440.5,278.2 454.2,281.6 467.8,282.7 481.5,281.8 495.2,277.1 508.8,267.7 522.5,267.8 536.2,267.5 549.8,268.1 563.5,266.4 577.2,271.5 590.8,269.5 604.5,283.9 618.2,297.4 631.8,302.1 645.5,304.7 659.2,312.7 672.8,313.2 686.5,305.4 700.2,309.1 713.8,312.4 727.5,321.5 741.2,324.1 754.8,332.0 768.5,332.3 782.2,331.1 795.8,333.6 809.5,333.4 823.2,342.8" fill="none" stroke="#d55181" stroke-width="1.5" stroke-linejoin="round" stroke-linecap="round"/>
<polyline points="16.8,163.0 30.5,172.8 44.2,187.3 57.8,186.7 71.5,191.4 85.2,182.1 98.8,179.5 112.5,171.7 126.2,168.1 139.8,167.6 153.5,171.2 167.2,161.4 180.8,162.4 194.5,168.1 208.2,170.7 221.8,161.4 235.5,152.6 249.2,152.6 262.8,159.3 276.5,159.3 290.2,162.4 303.8,169.7 317.5,176.9 331.2,199.2 344.8,203.8 358.5,207.4 372.2,212.6 385.8,205.4 399.5,212.6 413.2,207.4 426.8,202.3 440.5,204.3 454.2,202.8 467.8,205.4 481.5,204.3 495.2,199.2 508.8,214.2 522.5,212.1 536.2,207.4 549.8,206.9 563.5,205.9 577.2,216.2 590.8,217.8 604.5,229.7 618.2,244.1 631.8,254.0 645.5,258.6 659.2,269.0 672.8,256.0 686.5,250.4 700.2,228.1 713.8,222.9 727.5,199.2 741.2,200.2 754.8,172.8 768.5,172.8 782.2,172.8 795.8,169.2 809.5,159.3 823.2,186.7" fill="none" stroke="#9085e9" stroke-width="1.5" stroke-linejoin="round" stroke-linecap="round"/>
<rect x="13.1" y="176.4" width="7.5" height="15.5" fill="none" stroke="#e66767" stroke-width="1.3"/>
<rect x="26.7" y="176.4" width="7.5" height="15.5" fill="#008300"/>
<rect x="40.4" y="160.9" width="7.5" height="31.0" fill="none" stroke="#e66767" stroke-width="1.3"/>
<rect x="54.1" y="160.9" width="7.5" height="1.2" fill="#898781"/>
<rect x="67.7" y="160.9" width="7.5" height="67.2" fill="#008300"/>
<rect x="81.4" y="166.1" width="7.5" height="62.1" fill="none" stroke="#e66767" stroke-width="1.3"/>
<rect x="95.1" y="166.1" width="7.5" height="5.2" fill="#008300"/>
<rect x="108.7" y="124.7" width="7.5" height="46.5" fill="none" stroke="#e66767" stroke-width="1.3"/>
<rect x="122.4" y="124.7" width="7.5" height="41.4" fill="#008300"/>
<rect x="136.1" y="155.7" width="7.5" height="10.3" fill="none" stroke="#e66767" stroke-width="1.3"/>
<rect x="149.7" y="155.7" width="7.5" height="31.0" fill="#008300"/>
<rect x="163.4" y="160.9" width="7.5" height="25.9" fill="none" stroke="#e66767" stroke-width="1.3"/>
<rect x="177.1" y="160.9" width="7.5" height="10.3" fill="#008300"/>
<rect x="190.7" y="171.2" width="7.5" height="41.4" fill="#008300"/>
<rect x="204.4" y="140.2" width="7.5" height="72.4" fill="none" stroke="#e66767" stroke-width="1.3"/>
<rect x="218.1" y="104.0" width="7.5" height="36.2" fill="none" stroke="#e66767" stroke-width="1.3"/>
<rect x="231.7" y="93.7" width="7.5" height="10.3" fill="none" stroke="#e66767" stroke-width="1.3"/>
<rect x="245.4" y="93.7" width="7.5" height="93.1" fill="#008300"/>
<rect x="259.1" y="186.7" width="7.5" height="20.7" fill="#008300"/>
<rect x="272.7" y="171.2" width="7.5" height="36.2" fill="none" stroke="#e66767" stroke-width="1.3"/>
<rect x="286.4" y="171.2" width="7.5" height="62.1" fill="#008300"/>
<rect x="300.1" y="191.9" width="7.5" height="41.4" fill="none" stroke="#e66767" stroke-width="1.3"/>
<rect x="313.7" y="155.7" width="7.5" height="36.2" fill="none" stroke="#e66767" stroke-width="1.3"/>
<rect x="327.4" y="155.7" width="7.5" height="93.1" fill="#008300"/>
<rect x="341.1" y="217.8" width="7.5" height="31.0" fill="none" stroke="#e66767" stroke-width="1.3"/>
<rect x="354.7" y="217.8" width="7.5" height="15.5" fill="#008300"/>
<rect x="368.4" y="207.4" width="7.5" height="25.9" fill="none" stroke="#e66767" stroke-width="1.3"/>
<rect x="382.1" y="181.6" width="7.5" height="25.9" fill="none" stroke="#e66767" stroke-width="1.3"/>
<rect x="395.7" y="181.6" width="7.5" height="62.1" fill="#008300"/>
<rect x="409.4" y="119.5" width="7.5" height="124.1" fill="none" stroke="#e66767" stroke-width="1.3"/>
<rect x="423.1" y="119.5" width="7.5" height="93.1" fill="#008300"/>
<rect x="436.7" y="212.6" width="7.5" height="20.7" fill="#008300"/>
<rect x="450.4" y="222.9" width="7.5" height="10.3" fill="none" stroke="#e66767" stroke-width="1.3"/>
<rect x="464.1" y="222.9" width="7.5" height="1.2" fill="#898781"/>
<rect x="477.7" y="176.4" width="7.5" height="46.5" fill="none" stroke="#e66767" stroke-width="1.3"/>
<rect x="491.4" y="176.4" width="7.5" height="31.0" fill="#008300"/>
<rect x="505.1" y="207.4" width="7.5" height="15.5" fill="#008300"/>
<rect x="518.7" y="197.1" width="7.5" height="25.9" fill="none" stroke="#e66767" stroke-width="1.3"/>
<rect x="532.4" y="197.1" width="7.5" height="5.2" fill="#008300"/>
<rect x="546.1" y="202.3" width="7.5" height="15.5" fill="#008300"/>
<rect x="559.7" y="217.8" width="7.5" height="1.2" fill="#898781"/>
<rect x="573.4" y="217.8" width="7.5" height="31.0" fill="#008300"/>
<rect x="587.1" y="217.8" width="7.5" height="31.0" fill="none" stroke="#e66767" stroke-width="1.3"/>
<rect x="600.7" y="217.8" width="7.5" height="87.9" fill="#008300"/>
<rect x="614.4" y="300.5" width="7.5" height="5.2" fill="none" stroke="#e66767" stroke-width="1.3"/>
<rect x="628.1" y="269.5" width="7.5" height="31.0" fill="none" stroke="#e66767" stroke-width="1.3"/>
<rect x="641.7" y="248.8" width="7.5" height="20.7" fill="none" stroke="#e66767" stroke-width="1.3"/>
<rect x="655.4" y="248.8" width="7.5" height="41.4" fill="#008300"/>
<rect x="669.1" y="160.9" width="7.5" height="129.3" fill="none" stroke="#e66767" stroke-width="1.3"/>
<rect x="682.7" y="160.9" width="7.5" height="15.5" fill="#008300"/>
<rect x="696.4" y="150.5" width="7.5" height="25.9" fill="none" stroke="#e66767" stroke-width="1.3"/>
<rect x="710.1" y="150.5" width="7.5" height="113.8" fill="#008300"/>
<rect x="723.7" y="104.0" width="7.5" height="160.3" fill="none" stroke="#e66767" stroke-width="1.3"/>
<rect x="737.4" y="104.0" width="7.5" height="150.0" fill="#008300"/>
<rect x="751.1" y="98.8" width="7.5" height="155.1" fill="none" stroke="#e66767" stroke-width="1.3"/>
<rect x="764.7" y="98.8" width="7.5" height="62.1" fill="#008300"/>
<rect x="778.4" y="160.9" width="7.5" height="15.5" fill="#008300"/>
<rect x="792.1" y="124.7" width="7.5" height="51.7" fill="none" stroke="#e66767" stroke-width="1.3"/>
<rect x="805.7" y="124.7" width="7.5" height="72.4" fill="#008300"/>
<rect x="819.4" y="197.1" width="7.5" height="98.3" fill="#008300"/>
<circle cx="235.5" cy="93.7" r="2" fill="#c3c2b7"/>
<line x1="235.5" y1="93.7" x2="243.5" y2="93.7" stroke="#c3c2b7" stroke-width="1.0"/>
<text x="246.5" y="97.7" font-size="11.0" fill="#c3c2b7">55</text>
<circle cx="604.5" cy="305.7" r="2" fill="#c3c2b7"/>
<line x1="604.5" y1="305.7" x2="596.5" y2="305.7" stroke="#c3c2b7" stroke-width="1.0"/>
<text x="593.5" y="309.7" font-size="11.0" fill="#c3c2b7" text-anchor="end">14</text>
<text x="14.0" y="376.0" font-size="11.0" fill="#c3c2b7">VOL 5 forks</text>
<text x="90.6" y="376.0" font-size="11.0" fill="#c98500">MA5:6</text>
<text x="130.8" y="376.0" font-size="11.0" fill="#3987e5">MA10:5.4</text>
<text x="14.0" y="395.0" font-size="10" fill="#898781">18</text>
<rect x="13.1" y="429.0" width="7.5" height="41.0" fill="none" stroke="#e66767" stroke-width="1.1"/>
<rect x="26.7" y="429.0" width="7.5" height="41.0" fill="#008300"/>
<rect x="40.4" y="410.8" width="7.5" height="59.2" fill="none" stroke="#e66767" stroke-width="1.1"/>
<rect x="54.1" y="419.9" width="7.5" height="50.1" fill="#898781"/>
<rect x="67.7" y="433.6" width="7.5" height="36.4" fill="#008300"/>
<rect x="81.4" y="442.7" width="7.5" height="27.3" fill="none" stroke="#e66767" stroke-width="1.1"/>
<rect x="95.1" y="429.0" width="7.5" height="41.0" fill="#008300"/>
<rect x="108.7" y="419.9" width="7.5" height="50.1" fill="none" stroke="#e66767" stroke-width="1.1"/>
<rect x="122.4" y="392.6" width="7.5" height="77.4" fill="#008300"/>
<rect x="136.1" y="424.4" width="7.5" height="45.6" fill="none" stroke="#e66767" stroke-width="1.1"/>
<rect x="149.7" y="410.8" width="7.5" height="59.2" fill="#008300"/>
<rect x="163.4" y="438.1" width="7.5" height="31.9" fill="none" stroke="#e66767" stroke-width="1.1"/>
<rect x="177.1" y="442.7" width="7.5" height="27.3" fill="#008300"/>
<rect x="190.7" y="429.0" width="7.5" height="41.0" fill="#008300"/>
<rect x="204.4" y="388.0" width="7.5" height="82.0" fill="none" stroke="#e66767" stroke-width="1.1"/>
<rect x="218.1" y="410.8" width="7.5" height="59.2" fill="none" stroke="#e66767" stroke-width="1.1"/>
<rect x="231.7" y="433.6" width="7.5" height="36.4" fill="none" stroke="#e66767" stroke-width="1.1"/>
<rect x="245.4" y="424.4" width="7.5" height="45.6" fill="#008300"/>
<rect x="259.1" y="415.3" width="7.5" height="54.7" fill="#008300"/>
<rect x="272.7" y="397.1" width="7.5" height="72.9" fill="none" stroke="#e66767" stroke-width="1.1"/>
<rect x="286.4" y="433.6" width="7.5" height="36.4" fill="#008300"/>
<rect x="300.1" y="415.3" width="7.5" height="54.7" fill="none" stroke="#e66767" stroke-width="1.1"/>
<rect x="313.7" y="438.1" width="7.5" height="31.9" fill="none" stroke="#e66767" stroke-width="1.1"/>
<rect x="327.4" y="429.0" width="7.5" height="41.0" fill="#008300"/>
<rect x="341.1" y="429.0" width="7.5" height="41.0" fill="none" stroke="#e66767" stroke-width="1.1"/>
<rect x="354.7" y="438.1" width="7.5" height="31.9" fill="#008300"/>
<rect x="368.4" y="433.6" width="7.5" height="36.4" fill="none" stroke="#e66767" stroke-width="1.1"/>
<rect x="382.1" y="442.7" width="7.5" height="27.3" fill="none" stroke="#e66767" stroke-width="1.1"/>
<rect x="395.7" y="419.9" width="7.5" height="50.1" fill="#008300"/>
<rect x="409.4" y="424.4" width="7.5" height="45.6" fill="none" stroke="#e66767" stroke-width="1.1"/>
<rect x="423.1" y="438.1" width="7.5" height="31.9" fill="#008300"/>
<rect x="436.7" y="433.6" width="7.5" height="36.4" fill="#008300"/>
<rect x="450.4" y="438.1" width="7.5" height="31.9" fill="none" stroke="#e66767" stroke-width="1.1"/>
<rect x="464.1" y="433.6" width="7.5" height="36.4" fill="#898781"/>
<rect x="477.7" y="442.7" width="7.5" height="27.3" fill="none" stroke="#e66767" stroke-width="1.1"/>
<rect x="491.4" y="419.9" width="7.5" height="50.1" fill="#008300"/>
<rect x="505.1" y="438.1" width="7.5" height="31.9" fill="#008300"/>
<rect x="518.7" y="447.2" width="7.5" height="22.8" fill="none" stroke="#e66767" stroke-width="1.1"/>
<rect x="532.4" y="438.1" width="7.5" height="31.9" fill="#008300"/>
<rect x="546.1" y="438.1" width="7.5" height="31.9" fill="#008300"/>
<rect x="559.7" y="442.7" width="7.5" height="27.3" fill="#898781"/>
<rect x="573.4" y="429.0" width="7.5" height="41.0" fill="#008300"/>
<rect x="587.1" y="433.6" width="7.5" height="36.4" fill="none" stroke="#e66767" stroke-width="1.1"/>
<rect x="600.7" y="460.9" width="7.5" height="9.1" fill="#008300"/>
<rect x="614.4" y="447.2" width="7.5" height="22.8" fill="none" stroke="#e66767" stroke-width="1.1"/>
<rect x="641.7" y="451.8" width="7.5" height="18.2" fill="none" stroke="#e66767" stroke-width="1.1"/>
<rect x="669.1" y="465.4" width="7.5" height="4.6" fill="none" stroke="#e66767" stroke-width="1.1"/>
<rect x="682.7" y="433.6" width="7.5" height="36.4" fill="#008300"/>
<rect x="710.1" y="447.2" width="7.5" height="22.8" fill="#008300"/>
<rect x="723.7" y="429.0" width="7.5" height="41.0" fill="none" stroke="#e66767" stroke-width="1.1"/>
<rect x="737.4" y="442.7" width="7.5" height="27.3" fill="#008300"/>
<rect x="751.1" y="451.8" width="7.5" height="18.2" fill="none" stroke="#e66767" stroke-width="1.1"/>
<rect x="764.7" y="419.9" width="7.5" height="50.1" fill="#008300"/>
<rect x="778.4" y="433.6" width="7.5" height="36.4" fill="#008300"/>
<rect x="792.1" y="456.3" width="7.5" height="13.7" fill="none" stroke="#e66767" stroke-width="1.1"/>
<rect x="805.7" y="456.3" width="7.5" height="13.7" fill="#008300"/>
<rect x="819.4" y="447.2" width="7.5" height="22.8" fill="#008300"/>
<polyline points="16.8,429.5 30.5,429.5 44.2,430.4 57.8,430.8 71.5,431.7 85.2,431.7 98.8,430.4 112.5,429.5 126.2,425.8 139.8,423.1 153.5,421.3 167.2,422.2 180.8,425.4 194.5,426.3 208.2,421.7 221.8,418.5 235.5,419.0 249.2,419.4 262.8,421.7 276.5,419.0 290.2,421.3 303.8,419.0 317.5,418.5 331.2,418.5 344.8,422.6 358.5,425.4 372.2,425.4 385.8,427.2 399.5,427.6 413.2,430.4 426.8,430.8 440.5,432.6 454.2,432.6 467.8,433.1 481.5,434.5 495.2,432.6 508.8,433.1 522.5,433.6 536.2,435.4 549.8,436.7 563.5,437.2 577.2,436.7 590.8,436.3 604.5,439.0 618.2,439.5 631.8,444.5 645.5,445.9 659.2,448.1 672.8,450.9 686.5,450.4 700.2,453.1 713.8,455.0 727.5,454.5 741.2,452.7 754.8,453.1 768.5,448.1 782.2,446.3 795.8,444.9 809.5,444.0 823.2,445.4" fill="none" stroke="#3987e5" stroke-width="1.5" stroke-linejoin="round" stroke-linecap="round"/>
<polyline points="16.8,436.3 30.5,433.6 44.2,429.9 57.8,428.1 71.5,424.4 85.2,427.2 98.8,427.2 112.5,429.0 126.2,423.5 139.8,421.7 153.5,415.3 167.2,417.2 180.8,421.7 194.5,429.0 208.2,421.7 221.8,421.7 235.5,420.8 249.2,417.2 262.8,414.4 276.5,416.2 290.2,420.8 303.8,417.2 317.5,419.9 331.2,422.6 344.8,429.0 358.5,429.9 372.2,433.6 385.8,434.5 399.5,432.6 413.2,431.7 426.8,431.7 440.5,431.7 454.2,430.8 467.8,433.6 481.5,437.2 495.2,433.6 508.8,434.5 522.5,436.3 536.2,437.2 549.8,436.3 563.5,440.8 577.2,439.0 590.8,436.3 604.5,440.8 618.2,442.7 631.8,448.1 645.5,452.7 659.2,460.0 672.8,460.9 686.5,458.2 700.2,458.2 713.8,457.2 727.5,449.0 741.2,444.5 754.8,448.1 768.5,438.1 782.2,435.4 795.8,440.8 809.5,443.6 823.2,442.7" fill="none" stroke="#c98500" stroke-width="1.5" stroke-linejoin="round" stroke-linecap="round"/>
</svg>