<svg xmlns="http://www.w3.org/2000/svg" viewBox="0 0 840 496" width="840" height="496" font-family="-apple-system,&#39;Segoe UI&#39;,system-ui,sans-serif" role="img" aria-label="TheAlgorithms/Python candlestick chart">
<text x="14.0" y="20.0" font-size="15" fill="#ffffff" font-weight="650">TheAlgorithms/Python</text>
<text x="183.0" y="20.0" font-size="11.5" fill="#c3c2b7">daily · new stars, volume = new forks</text>
<text x="805.8" y="20.0" font-size="11.0" fill="#c3c2b7">fall</text>
<rect x="791" y="10" width="9" height="12" fill="#008300"/>
<text x="750.6" y="20.0" font-size="11.0" fill="#c3c2b7">rise</text>
<rect x="736" y="10" width="9" height="12" fill="none" stroke="#e66767" stroke-width="1.5"/>
<text x="14.0" y="38.0" font-size="11.0" fill="#898781">last 60 days · +2,117 stars · +481 forks · updated 2026-07-19</text>
<rect x="10" y="66" width="820" height="290" fill="none" stroke="#2c2c2a"/>
<rect x="10" y="384" width="820" height="86" fill="none" stroke="#2c2c2a"/>
<text x="38.0" y="490.0" font-size="11.0" fill="#898781" text-anchor="middle">2026-05</text>
<line x1="160.3" y1="66.0" x2="160.3" y2="356.0" stroke="#2c2c2a" stroke-width="1.0"/>
<line x1="160.3" y1="384.0" x2="160.3" y2="470.0" stroke="#2c2c2a" stroke-width="1.0"/>
<text x="167.2" y="490.0" font-size="11.0" fill="#898781" text-anchor="middle">2026-06</text>
<line x1="570.3" y1="66.0" x2="570.3" y2="356.0" stroke="#2c2c2a" stroke-width="1.0"/>
<line x1="570.3" y1="384.0" x2="570.3" y2="470.0" stroke="#2c2c2a" stroke-width="1.0"/>
<text x="577.2" y="490.0" font-size="11.0" fill="#898781" text-anchor="middle">2026-07</text>
<text x="14.0" y="58.0" font-size="11.0" fill="#c3c2b7">BOLL(20,2)</text>
<text x="84.5" y="58.0" font-size="11.0" fill="#c98500">UP:54.0</text>
<text x="136.9" y="58.0" font-size="11.0" fill="#3987e5">MID:31.4</text>
<text x="195.3" y="58.0" font-size="11.0" fill="#d55181">LOW:8.8</text>
<text x="247.6" y="58.0" font-size="11.0" fill="#9085e9">MA7:39.7</text>
<line x1="10.0" y1="290.5" x2="830.0" y2="290.5" stroke="#2c2c2a" stroke-width="1.0"/>
<text x="14.0" y="287.5" font-size="11.0" fill="#898781">20</text>
<line x1="10.0" y1="196.8" x2="830.0" y2="196.8" stroke="#2c2c2a" stroke-width="1.0"/>
<text x="14.0" y="193.8" font-size="11.0" fill="#898781">40</text>
<line x1="10.0" y1="103.0" x2="830.0" y2="103.0" stroke="#2c2c2a" stroke-width="1.0"/>
<text x="14.0" y="100.0" font-size="11.0" fill="#898781">60</text>
<polyline points="16.8,79.2 30.5,84.2 44.2,95.6 57.8,105.8 71.5,117.7 85.2,118.8 98.8,118.5 112.5,119.7 126.2,118.2 139.8,117.7 153.5,117.4 167.2,113.3 180.8,116.3 194.5,115.4 208.2,116.7 221.8,128.5 235.5,128.6 249.2,127.9 262.8,130.1 276.5,143.7 290.2,132.1 303.8,132.2 317.5,134.0 331.2,133.9 344.8,130.9 358.5,130.9 372.2,130.6 385.8,127.5 399.5,128.2 413.2,127.5 426.8,128.2 440.5,134.2 454.2,133.9 467.8,128.7 481.5,129.0 495.2,130.8 508.8,132.3 522.5,132.3 536.2,136.4 549.8,150.0 563.5,170.2 577.2,171.1 590.8,170.9 604.5,174.6 618.2,174.7 631.8,175.2 645.5,182.7 659.2,174.8 672.8,170.0 686.5,169.1 700.2,170.5 713.8,173.1 727.5,165.1 741.2,177.3 754.8,168.4 768.5,168.2 782.2,149.1 795.8,149.6 809.5,135.4 823.2,130.9" fill="none" stroke="#c98500" stroke-width="1.5" stroke-linejoin="round" stroke-linecap="round"/>
<polyline points="16.8,169.1 30.5,174.0 44.2,182.0 57.8,187.2 71.5,191.6 85.2,193.3 98.8,193.0 112.5,193.7 126.2,194.9 139.8,193.5 153.5,192.8 167.2,190.0 180.8,191.6 194.5,190.7 208.2,192.3 221.8,195.8 235.5,194.2 249.2,195.6 262.8,196.3 276.5,198.4 290.2,195.1 303.8,194.7 317.5,193.7 331.2,192.8 344.8,195.4 358.5,195.4 372.2,195.1 385.8,199.1 399.5,198.6 413.2,201.7 426.8,203.3 440.5,205.9 454.2,209.4 467.8,207.8 481.5,209.0 495.2,212.2 508.8,214.6 522.5,215.1 536.2,216.7 549.8,221.4 563.5,227.2 577.2,227.7 590.8,227.5 604.5,229.6 618.2,228.9 631.8,231.5 645.5,234.3 659.2,236.9 672.8,240.6 686.5,242.2 700.2,244.1 713.8,249.0 727.5,245.3 741.2,247.9 754.8,245.1 768.5,246.5 782.2,241.1 795.8,242.5 809.5,239.0 823.2,236.9" fill="none" stroke="#3987e5" stroke-width="1.5" stroke-linejoin="round" stroke-linecap="round"/>
<polyline points="16.8,259.0 30.5,263.8 44.2,268.4 57.8,268.5 71.5,265.5 85.2,267.8 98.8,267.5 112.5,267.8 126.2,271.6 139.8,269.3 153.5,268.2 167.2,266.6 180.8,267.0 194.5,266.0 208.2,267.9 221.8,263.2 235.5,259.7 249.2,263.3 262.8,262.6 276.5,253.1 290.2,258.2 303.8,257.1 317.5,253.4 331.2,251.7 344.8,259.8 358.5,259.8 372.2,259.7 385.8,270.8 399.5,269.1 413.2,275.9 426.8,278.5 440.5,277.6 454.2,284.9 467.8,286.9 481.5,288.9 495.2,293.7 508.8,296.9 522.5,297.9 536.2,297.0 549.8,292.7 563.5,284.3 577.2,284.3 590.8,284.1 604.5,284.6 618.2,283.0 631.8,287.7 645.5,285.9 659.2,298.9 672.8,311.2 686.5,315.4 700.2,317.8 713.8,325.0 727.5,325.5 741.2,318.4 754.8,321.8 768.5,324.7 782.2,333.0 795.8,335.4 809.5,342.5 823.2,342.8" fill="none" stroke="#d55181" stroke-width="1.5" stroke-linejoin="round" stroke-linecap="round"/>
<polyline points="16.8,167.2 30.5,173.3 44.2,192.1 57.8,190.2 71.5,189.3 85.2,198.2 98.8,211.3 112.5,210.8 126.2,215.1 139.8,206.6 153.5,204.3 167.2,197.2 180.8,194.0 194.5,193.5 208.2,196.8 221.8,187.9 235.5,188.8 249.2,194.0 262.8,196.3 276.5,187.9 290.2,179.9 303.8,179.9 317.5,186.0 331.2,186.0 344.8,188.8 358.5,195.4 372.2,201.9 385.8,222.1 399.5,226.3 413.2,229.6 426.8,234.3 440.5,227.7 454.2,234.3 467.8,229.6 481.5,224.9 495.2,226.8 508.8,225.4 522.5,227.7 536.2,226.8 549.8,222.1 563.5,235.7 577.2,233.8 590.8,229.6 604.5,229.1 618.2,228.2 631.8,237.6 645.5,239.0 659.2,249.8 672.8,262.9 686.5,271.8 700.2,276.0 713.8,285.4 727.5,273.7 741.2,268.5 754.8,248.3 768.5,243.7 782.2,222.1 795.8,223.0 809.5,198.2 823.2,198.2" fill="none" stroke="#9085e9" stroke-width="1.5" stroke-linejoin="round" stroke-linecap="round"/>
<rect x="13.1" y="93.6" width="7.5" height="98.5" fill="#008300"/>
<rect x="26.7" y="192.1" width="7.5" height="28.1" fill="#008300"/>
<rect x="40.4" y="220.2" width="7.5" height="28.1" fill="#008300"/>
<rect x="54.1" y="215.5" width="7.5" height="32.8" fill="none" stroke="#e66767" stroke-width="1.3"/>
<rect x="67.7" y="201.5" width="7.5" height="14.1" fill="none" stroke="#e66767" stroke-width="1.3"/>
<rect x="81.4" y="201.5" width="7.5" height="14.1" fill="#008300"/>
<rect x="95.1" y="187.4" width="7.5" height="28.1" fill="none" stroke="#e66767" stroke-width="1.3"/>
<rect x="108.7" y="187.4" width="7.5" height="1.2" fill="#898781"/>
<rect x="122.4" y="187.4" width="7.5" height="61.0" fill="#008300"/>
<rect x="136.1" y="192.1" width="7.5" height="56.3" fill="none" stroke="#e66767" stroke-width="1.3"/>
<rect x="149.7" y="192.1" width="7.5" height="4.7" fill="#008300"/>
<rect x="163.4" y="154.6" width="7.5" height="42.2" fill="none" stroke="#e66767" stroke-width="1.3"/>
<rect x="177.1" y="154.6" width="7.5" height="37.5" fill="#008300"/>
<rect x="190.7" y="182.7" width="7.5" height="9.4" fill="none" stroke="#e66767" stroke-width="1.3"/>
<rect x="204.4" y="182.7" width="7.5" height="28.1" fill="#008300"/>
<rect x="218.1" y="187.4" width="7.5" height="23.4" fill="none" stroke="#e66767" stroke-width="1.3"/>
<rect x="231.7" y="187.4" width="7.5" height="9.4" fill="#008300"/>
<rect x="245.4" y="196.8" width="7.5" height="37.5" fill="#008300"/>
<rect x="259.1" y="168.6" width="7.5" height="65.6" fill="none" stroke="#e66767" stroke-width="1.3"/>
<rect x="272.7" y="135.8" width="7.5" height="32.8" fill="none" stroke="#e66767" stroke-width="1.3"/>
<rect x="286.4" y="126.4" width="7.5" height="9.4" fill="none" stroke="#e66767" stroke-width="1.3"/>
<rect x="300.1" y="126.4" width="7.5" height="84.4" fill="#008300"/>
<rect x="313.7" y="210.8" width="7.5" height="18.8" fill="#008300"/>
<rect x="327.4" y="196.8" width="7.5" height="32.8" fill="none" stroke="#e66767" stroke-width="1.3"/>
<rect x="341.1" y="196.8" width="7.5" height="56.3" fill="#008300"/>
<rect x="354.7" y="215.5" width="7.5" height="37.5" fill="none" stroke="#e66767" stroke-width="1.3"/>
<rect x="368.4" y="182.7" width="7.5" height="32.8" fill="none" stroke="#e66767" stroke-width="1.3"/>
<rect x="382.1" y="182.7" width="7.5" height="84.4" fill="#008300"/>
<rect x="395.7" y="239.0" width="7.5" height="28.1" fill="none" stroke="#e66767" stroke-width="1.3"/>
<rect x="409.4" y="239.0" width="7.5" height="14.1" fill="#008300"/>
<rect x="423.1" y="229.6" width="7.5" height="23.4" fill="none" stroke="#e66767" stroke-width="1.3"/>
<rect x="436.7" y="206.1" width="7.5" height="23.4" fill="none" stroke="#e66767" stroke-width="1.3"/>
<rect x="450.4" y="206.1" width="7.5" height="56.3" fill="#008300"/>
<rect x="464.1" y="149.9" width="7.5" height="112.5" fill="none" stroke="#e66767" stroke-width="1.3"/>
<rect x="477.7" y="149.9" width="7.5" height="84.4" fill="#008300"/>
<rect x="491.4" y="234.3" width="7.5" height="18.8" fill="#008300"/>
<rect x="505.1" y="243.7" width="7.5" height="9.4" fill="none" stroke="#e66767" stroke-width="1.3"/>
<rect x="518.7" y="243.7" width="7.5" height="1.2" fill="#898781"/>
<rect x="532.4" y="201.5" width="7.5" height="42.2" fill="none" stroke="#e66767" stroke-width="1.3"/>
<rect x="546.1" y="201.5" width="7.5" height="28.1" fill="#008300"/>
<rect x="559.7" y="229.6" width="7.5" height="14.1" fill="#008300"/>
<rect x="573.4" y="220.2" width="7.5" height="23.4" fill="none" stroke="#e66767" stroke-width="1.3"/>
<rect x="587.1" y="220.2" width="7.5" height="4.7" fill="#008300"/>
<rect x="600.7" y="224.9" width="7.5" height="14.1" fill="#008300"/>
<rect x="614.4" y="239.0" width="7.5" height="1.2" fill="#898781"/>
<rect x="628.1" y="239.0" width="7.5" height="28.1" fill="#008300"/>
<rect x="641.7" y="239.0" width="7.5" height="28.1" fill="none" stroke="#e66767" stroke-width="1.3"/>
<rect x="655.4" y="239.0" width="7.5" height="79.7" fill="#008300"/>
<rect x="669.1" y="314.0" width="7.5" height="4.7" fill="none" stroke="#e66767" stroke-width="1.3"/>
<rect x="682.7" y="285.9" width="7.5" height="28.1" fill="none" stroke="#e66767" stroke-width="1.3"/>
<rect x="696.4" y="267.1" width="7.5" height="18.8" fill="none" stroke="#e66767" stroke-width="1.3"/>
<rect x="710.1" y="267.1" width="7.5" height="37.5" fill="#008300"/>
<rect x="723.7" y="187.4" width="7.5" height="117.2" fill="none" stroke="#e66767" stroke-width="1.3"/>
<rect x="737.4" y="187.4" width="7.5" height="14.1" fill="#008300"/>
<rect x="751.1" y="178.0" width="7.5" height="23.4" fill="none" stroke="#e66767" stroke-width="1.3"/>
<rect x="764.7" y="178.0" width="7.5" height="103.1" fill="#008300"/>
<rect x="778.4" y="135.8" width="7.5" height="145.3" fill="none" stroke="#e66767" stroke-width="1.3"/>
<rect x="792.1" y="135.8" width="7.5" height="136.0" fill="#008300"/>
<rect x="805.7" y="131.1" width="7.5" height="140.7" fill="none" stroke="#e66767" stroke-width="1.3"/>
<rect x="819.4" y="131.1" width="7.5" height="56.3" fill="#008300"/>
<circle cx="16.8" cy="93.6" r="2" fill="#c3c2b7"/>
<line x1="16.8" y1="93.6" x2="24.8" y2="93.6" stroke="#c3c2b7" stroke-width="1.0"/>
<text x="27.8" y="97.6" font-size="11.0" fill="#c3c2b7">62</text>
<circle cx="659.2" cy="318.7" r="2" fill="#c3c2b7"/>
<line x1="659.2" y1="318.7" x2="651.2" y2="318.7" stroke="#c3c2b7" stroke-width="1.0"/>
<text x="648.2" y="322.7" font-size="11.0" fill="#c3c2b7" text-anchor="end">14</text>
<text x="14.0" y="376.0" font-size="11.0" fill="#c3c2b7">VOL 11 forks</text>
<text x="96.6" y="376.0" font-size="11.0" fill="#c98500">MA5:7</text>
<text x="136.9" y="376.0" font-size="11.0" fill="#3987e5">MA10:4.8</text>
<text x="14.0" y="395.0" font-size="10" fill="#898781">18</text>
<rect x="13.1" y="442.7" width="7.5" height="27.3" fill="#008300"/>
<rect x="26.7" y="429.0" width="7.5" height="41.0" fill="#008300"/>
<rect x="40.4" y="429.0" width="7.5" height="41.0" fill="#008300"/>
<rect x="54.1" y="451.8" width="7.5" height="18.2" fill="none" stroke="#e66767" stroke-width="1.1"/>
<rect x="67.7" y="429.0" width="7.5" height="41.0" fill="none" stroke="#e66767" stroke-width="1.1"/>
<rect x="81.4" y="429.0" width="7.5" height="41.0" fill="#008300"/>
<rect x="95.1" y="410.8" width="7.5" height="59.2" fill="none" stroke="#e66767" stroke-width="1.1"/>
<rect x="108.7" y="419.9" width="7.5" height="50.1" fill="#898781"/>
<rect x="122.4" y="433.6" width="7.5" height="36.4" fill="#008300"/>
<rect x="136.1" y="442.7" width="7.5" height="27.3" fill="none" stroke="#e66767" stroke-width="1.1"/>
<rect x="149.7" y="429.0" width="7.5" height="41.0" fill="#008300"/>
<rect x="163.4" y="419.9" width="7.5" height="50.1" fill="none" stroke="#e66767" stroke-width="1.1"/>
<rect x="177.1" y="392.6" width="7.5" height="77.4" fill="#008300"/>
<rect x="190.7" y="424.4" width="7.5" height="45.6" fill="none" stroke="#e66767" stroke-width="1.1"/>
<rect x="204.4" y="410.8" width="7.5" height="59.2" fill="#008300"/>
<rect x="218.1" y="438.1" width="7.5" height="31.9" fill="none" stroke="#e66767" stroke-width="1.1"/>
<rect x="231.7" y="442.7" width="7.5" height="27.3" fill="#008300"/>
<rect x="245.4" y="429.0" width="7.5" height="41.0" fill="#008300"/>
<rect x="259.1" y="388.0" width="7.5" height="82.0" fill="none" stroke="#e66767" stroke-width="1.1"/>
<rect x="272.7" y="410.8" width="7.5" height="59.2" fill="none" stroke="#e66767" stroke-width="1.1"/>
<rect x="286.4" y="433.6" width="7.5" height="36.4" fill="none" stroke="#e66767" stroke-width="1.1"/>
<rect x="300.1" y="424.4" width="7.5" height="45.6" fill="#008300"/>
<rect x="313.7" y="415.3" width="7.5" height="54.7" fill="#008300"/>
<rect x="327.4" y="397.1" width="7.5" height="72.9" fill="none" stroke="#e66767" stroke-width="1.1"/>
<rect x="341.1" y="433.6" width="7.5" height="36.4" fill="#008300"/>
<rect x="354.7" y="415.3" width="7.5" height="54.7" fill="none" stroke="#e66767" stroke-width="1.1"/>
<rect x="368.4" y="438.1" width="7.5" height="31.9" fill="none" stroke="#e66767" stroke-width="1.1"/>
<rect x="382.1" y="429.0" width="7.5" height="41.0" fill="#008300"/>
<rect x="395.7" y="429.0" width="7.5" height="41.0" fill="none" stroke="#e66767" stroke-width="1.1"/>
<rect x="409.4" y="438.1" width="7.5" height="31.9" fill="#008300"/>
<rect x="423.1" y="433.6" width="7.5" height="36.4" fill="none" stroke="#e66767" stroke-width="1.1"/>
<rect x="436.7" y="442.7" width="7.5" height="27.3" fill="none" stroke="#e66767" stroke-width="1.1"/>
<rect x="450.4" y="419.9" width="7.5" height="50.1" fill="#008300"/>
<rect x="464.1" y="424.4" width="7.5" height="45.6" fill="none" stroke="#e66767" stroke-width="1.1"/>
<rect x="477.7" y="438.1" width="7.5" height="31.9" fill="#008300"/>
<rect x="491.4" y="433.6" width="7.5" height="36.4" fill="#008300"/>
<rect x="505.1" y="438.1" width="7.5" height="31.9" fill="none" stroke="#e66767" stroke-width="1.1"/>
<rect x="518.7" y="433.6" width="7.5" height="36.4" fill="#898781"/>
<rect x="532.4" y="442.7" width="7.5" height="27.3" fill="none" stroke="#e66767" stroke-width="1.1"/>
<rect x="546.1" y="419.9" width="7.5" height="50.1" fill="#008300"/>
<rect x="559.7" y="438.1" width="7.5" height="31.9" fill="#008300"/>
<rect x="573.4" y="447.2" width="7.5" height="22.8" fill="none" stroke="#e66767" stroke-width="1.1"/>
<rect x="587.1" y="438.1" width="7.5" height="31.9" fill="#008300"/>
<rect x="600.7" y="438.1" width="7.5" height="31.9" fill="#008300"/>
<rect x="614.4" y="442.7" width="7.5" height="27.3" fill="#898781"/>
<rect x="628.1" y="429.0" width="7.5" height="41.0" fill="#008300"/>
<rect x="641.7" y="433.6" width="7.5" height="36.4" fill="none" stroke="#e66767" stroke-width="1.1"/>
<rect x="655.4" y="460.9" width="7.5" height="9.1" fill="#008300"/>
<rect x="669.1" y="447.2" width="7.5" height="22.8" fill="none" stroke="#e66767" stroke-width="1.1"/>
<rect x="696.4" y="451.8" width="7.5" height="18.2" fill="none" stroke="#e66767" stroke-width="1.1"/>
<rect x="723.7" y="465.4" width="7.5" height="4.6" fill="none" stroke="#e66767" stroke-width="1.1"/>
<rect x="737.4" y="433.6" width="7.5" height="36.4" fill="#008300"/>
<rect x="764.7" y="447.2" width="7.5" height="22.8" fill="#008300"/>
<rect x="778.4" y="429.0" width="7.5" height="41.0" fill="none" stroke="#e66767" stroke-width="1.1"/>
<rect x="792.1" y="442.7" width="7.5" height="27.3" fill="#008300"/>
<rect x="805.7" y="451.8" width="7.5" height="18.2" fill="none" stroke="#e66767" stroke-width="1.1"/>
<rect x="819.4" y="419.9" width="7.5" height="50.1" fill="#008300"/>
<polyline points="16.8,423.5 30.5,424.9 44.2,427.6 57.8,429.0 71.5,429.5 85.2,429.5 98.8,430.4 112.5,430.8 126.2,431.7 139.8,431.7 153.5,430.4 167.2,429.5 180.8,425.8 194.5,423.1 208.2,421.3 221.8,422.2 235.5,425.4 249.2,426.3 262.8,421.7 276.5,418.5 290.2,419.0 303.8,419.4 317.5,421.7 331.2,419.0 344.8,421.3 358.5,419.0 372.2,418.5 385.8,418.5 399.5,422.6 413.2,425.4 426.8,425.4 440.5,427.2 454.2,427.6 467.8,430.4 481.5,430.8 495.2,432.6 508.8,432.6 522.5,433.1 536.2,434.5 549.8,432.6 563.5,433.1 577.2,433.6 590.8,435.4 604.5,436.7 618.2,437.2 631.8,436.7 645.5,436.3 659.2,439.0 672.8,439.5 686.5,444.5 700.2,445.9 713.8,448.1 727.5,450.9 741.2,450.4 754.8,453.1 768.5,455.0 782.2,454.5 795.8,452.7 809.5,453.1 823.2,448.1" fill="none" stroke="#3987e5" stroke-width="1.5" stroke-linejoin="round" stroke-linecap="round"/>
<polyline points="16.8,425.4 30.5,430.8 44.2,433.6 57.8,439.0 71.5,436.3 85.2,433.6 98.8,429.9 112.5,428.1 126.2,424.4 139.8,427.2 153.5,427.2 167.2,429.0 180.8,423.5 194.5,421.7 208.2,415.3 221.8,417.2 235.5,421.7 249.2,429.0 262.8,421.7 276.5,421.7 290.2,420.8 303.8,417.2 317.5,414.4 331.2,416.2 344.8,420.8 358.5,417.2 372.2,419.9 385.8,422.6 399.5,429.0 413.2,429.9 426.8,433.6 440.5,434.5 454.2,432.6 467.8,431.7 481.5,431.7 495.2,431.7 508.8,430.8 522.5,433.6 536.2,437.2 549.8,433.6 563.5,434.5 577.2,436.3 590.8,437.2 604.5,436.3 618.2,440.8 631.8,439.0 645.5,436.3 659.2,440.8 672.8,442.7 686.5,448.1 700.2,452.7 713.8,460.0 727.5,460.9 741.2,458.2 754.8,458.2 768.5,457.2 782.2,449.0 795.8,444.5 809.5,448.1 823.2,438.1" fill="none" stroke="#c98500" stroke-width="1.5" stroke-linejoin="round" stroke-linecap="round"/>
</svg>