<svg xmlns="http://www.w3.org/2000/svg" viewBox="0 0 840 496" width="840" height="496" font-family="-apple-system,&#39;Segoe UI&#39;,system-ui,sans-serif" role="img" aria-label="freeCodeCamp/freeCodeCamp candlestick chart">
<text x="14.0" y="20.0" font-size="15" fill="#0b0b0b" font-weight="650">freeCodeCamp/freeCodeCamp</text>
<text x="224.2" y="20.0" font-size="11.5" fill="#52514e">daily · new stars, volume = new forks</text>
<text x="805.8" y="20.0" font-size="11.0" fill="#52514e">fall</text>
<rect x="791" y="10" width="9" height="12" fill="#008300"/>
<text x="750.6" y="20.0" font-size="11.0" fill="#52514e">rise</text>
<rect x="736" y="10" width="9" height="12" fill="none" stroke="#e34948" stroke-width="1.5"/>
<text x="14.0" y="38.0" font-size="11.0" fill="#898781">last 48 days · +3,609 stars · +771 forks · updated 2026-08-20</text>
<rect x="10" y="66" width="820" height="290" fill="none" stroke="#e1e0d9"/>
<rect x="10" y="384" width="820" height="86" fill="none" stroke="#e1e0d9"/>
<text x="38.0" y="490.0" font-size="11.0" fill="#898781" text-anchor="middle">2026-07</text>
<line x1="488.3" y1="66.0" x2="488.3" y2="356.0" stroke="#e1e0d9" stroke-width="1.0"/>
<line x1="488.3" y1="384.0" x2="488.3" y2="470.0" stroke="#e1e0d9" stroke-width="1.0"/>
<text x="496.9" y="490.0" font-size="11.0" fill="#898781" text-anchor="middle">2026-08</text>
<text x="14.0" y="58.0" font-size="11.0" fill="#52514e">BOLL(20,2)</text>
<text x="84.5" y="58.0" font-size="11.0" fill="#eda100">UP:86.5</text>
<text x="136.9" y="58.0" font-size="11.0" fill="#2a78d6">MID:53.7</text>
<text x="195.3" y="58.0" font-size="11.0" fill="#e87ba4">LOW:20.9</text>
<text x="253.7" y="58.0" font-size="11.0" fill="#4a3aa7">MA7:61.1</text>
<line x1="10.0" y1="356.0" x2="830.0" y2="356.0" stroke="#e1e0d9" stroke-width="1.0"/>
<text x="14.0" y="353.0" font-size="11.0" fill="#898781">0</text>
<line x1="10.0" y1="279.7" x2="830.0" y2="279.7" stroke="#e1e0d9" stroke-width="1.0"/>
<text x="14.0" y="276.7" font-size="11.0" fill="#898781">50</text>
<line x1="10.0" y1="203.4" x2="830.0" y2="203.4" stroke="#e1e0d9" stroke-width="1.0"/>
<text x="14.0" y="200.4" font-size="11.0" fill="#898781">100</text>
<line x1="10.0" y1="127.1" x2="830.0" y2="127.1" stroke="#e1e0d9" stroke-width="1.0"/>
<text x="14.0" y="124.1" font-size="11.0" fill="#898781">150</text>
<polyline points="343.1,114.1 360.2,110.3 377.3,90.4 394.4,90.1 411.5,90.2 428.5,93.9 445.6,94.2 462.7,95.3 479.8,91.7 496.9,91.4 514.0,90.0 531.0,88.8 548.1,88.8 565.2,103.3 582.3,107.0 599.4,107.7 616.5,107.1 633.5,106.7 650.6,105.1 667.7,135.9 684.8,143.2 701.9,152.4 719.0,191.9 736.0,191.9 753.1,193.4 770.2,199.0 787.3,200.7 804.4,200.7 821.5,224.1" fill="none" stroke="#eda100" stroke-width="1.5" stroke-linejoin="round" stroke-linecap="round"/>
<polyline points="343.1,222.8 360.2,221.0 377.3,214.0 394.4,215.0 411.5,215.5 428.5,209.7 445.6,209.1 462.7,207.8 479.8,205.4 496.9,213.6 514.0,215.2 531.0,216.8 548.1,218.0 565.2,224.8 582.3,229.5 599.4,231.0 616.5,234.4 633.5,235.0 650.6,239.0 667.7,249.1 684.8,252.2 701.9,255.6 719.0,263.6 736.0,265.2 753.1,266.1 770.2,267.6 787.3,268.6 804.4,268.6 821.5,274.1" fill="none" stroke="#2a78d6" stroke-width="1.5" stroke-linejoin="round" stroke-linecap="round"/>
<polyline points="343.1,331.5 360.2,331.6 377.3,337.6 394.4,339.9 411.5,340.7 428.5,325.6 445.6,323.9 462.7,320.3 479.8,319.1 496.9,335.9 514.0,340.4 531.0,344.9 548.1,347.2 565.2,346.4 582.3,352.0 599.4,354.2 616.5,356.0 633.5,356.0 650.6,356.0 667.7,356.0 684.8,356.0 701.9,356.0 719.0,335.3 736.0,338.5 753.1,338.8 770.2,336.3 787.3,336.6 804.4,336.6 821.5,324.0" fill="none" stroke="#e87ba4" stroke-width="1.5" stroke-linejoin="round" stroke-linecap="round"/>
<polyline points="121.0,253.8 138.1,254.4 155.2,243.7 172.3,245.1 189.4,248.1 206.5,236.4 223.5,216.1 240.6,203.9 257.7,206.3 274.8,217.3 291.9,220.8 309.0,218.8 326.0,196.4 343.1,205.5 360.2,203.9 377.3,184.0 394.4,188.3 411.5,183.4 428.5,177.9 445.6,201.7 462.7,210.9 479.8,210.0 496.9,242.6 514.0,245.7 531.0,252.1 548.1,259.9 565.2,261.2 582.3,266.0 599.4,279.2 616.5,276.7 633.5,277.3 650.6,282.1 667.7,285.4 684.8,283.8 701.9,278.3 719.0,277.3 736.0,276.5 753.1,272.2 770.2,259.9 787.3,257.4 804.4,257.7 821.5,262.8" fill="none" stroke="#4a3aa7" stroke-width="1.5" stroke-linejoin="round" stroke-linecap="round"/>
<rect x="13.8" y="211.0" width="9.4" height="145.0" fill="none" stroke="#e34948" stroke-width="1.3"/>
<rect x="30.9" y="211.0" width="9.4" height="21.4" fill="#008300"/>
<rect x="48.0" y="232.4" width="9.4" height="13.7" fill="#008300"/>
<rect x="65.1" y="235.5" width="9.4" height="10.7" fill="none" stroke="#e34948" stroke-width="1.3"/>
<rect x="82.2" y="235.5" width="9.4" height="83.9" fill="#008300"/>
<rect x="99.3" y="259.9" width="9.4" height="59.5" fill="none" stroke="#e34948" stroke-width="1.3"/>
<rect x="116.3" y="259.9" width="9.4" height="12.2" fill="#008300"/>
<rect x="133.4" y="215.6" width="9.4" height="56.5" fill="none" stroke="#e34948" stroke-width="1.3"/>
<rect x="150.5" y="157.6" width="9.4" height="58.0" fill="none" stroke="#e34948" stroke-width="1.3"/>
<rect x="167.6" y="157.6" width="9.4" height="97.7" fill="#008300"/>
<rect x="184.7" y="255.3" width="9.4" height="1.5" fill="#008300"/>
<rect x="201.8" y="237.0" width="9.4" height="19.8" fill="none" stroke="#e34948" stroke-width="1.3"/>
<rect x="218.8" y="118.0" width="9.4" height="119.0" fill="none" stroke="#e34948" stroke-width="1.3"/>
<rect x="235.9" y="118.0" width="9.4" height="68.7" fill="#008300"/>
<rect x="253.0" y="232.4" width="9.4" height="123.6" fill="none" stroke="#e34948" stroke-width="1.3"/>
<rect x="270.1" y="232.4" width="9.4" height="3.1" fill="#008300"/>
<rect x="287.2" y="235.5" width="9.4" height="44.3" fill="#008300"/>
<rect x="304.3" y="243.1" width="9.4" height="36.6" fill="none" stroke="#e34948" stroke-width="1.3"/>
<rect x="321.3" y="79.8" width="9.4" height="163.3" fill="none" stroke="#e34948" stroke-width="1.3"/>
<rect x="338.4" y="79.8" width="9.4" height="102.2" fill="#008300"/>
<rect x="355.5" y="174.4" width="9.4" height="7.6" fill="none" stroke="#e34948" stroke-width="1.3"/>
<rect x="372.6" y="93.5" width="9.4" height="80.9" fill="none" stroke="#e34948" stroke-width="1.3"/>
<rect x="389.7" y="93.5" width="9.4" height="172.4" fill="#008300"/>
<rect x="406.8" y="244.6" width="9.4" height="21.4" fill="none" stroke="#e34948" stroke-width="1.3"/>
<rect x="423.8" y="204.9" width="9.4" height="39.7" fill="none" stroke="#e34948" stroke-width="1.3"/>
<rect x="440.9" y="204.9" width="9.4" height="41.2" fill="#008300"/>
<rect x="458.0" y="246.1" width="9.4" height="1.2" fill="#898781"/>
<rect x="475.1" y="168.3" width="9.4" height="77.8" fill="none" stroke="#e34948" stroke-width="1.3"/>
<rect x="492.2" y="168.3" width="9.4" height="154.1" fill="#008300"/>
<rect x="509.3" y="287.3" width="9.4" height="35.1" fill="none" stroke="#e34948" stroke-width="1.3"/>
<rect x="526.3" y="287.3" width="9.4" height="1.5" fill="#008300"/>
<rect x="543.4" y="259.9" width="9.4" height="29.0" fill="none" stroke="#e34948" stroke-width="1.3"/>
<rect x="560.5" y="255.3" width="9.4" height="4.6" fill="none" stroke="#e34948" stroke-width="1.3"/>
<rect x="577.6" y="255.3" width="9.4" height="24.4" fill="#008300"/>
<rect x="594.7" y="261.4" width="9.4" height="18.3" fill="none" stroke="#e34948" stroke-width="1.3"/>
<rect x="611.8" y="261.4" width="9.4" height="42.7" fill="#008300"/>
<rect x="628.8" y="291.9" width="9.4" height="12.2" fill="none" stroke="#e34948" stroke-width="1.3"/>
<rect x="645.9" y="291.9" width="9.4" height="30.5" fill="#008300"/>
<rect x="663.0" y="282.8" width="9.4" height="39.7" fill="none" stroke="#e34948" stroke-width="1.3"/>
<rect x="680.1" y="244.6" width="9.4" height="38.1" fill="none" stroke="#e34948" stroke-width="1.3"/>
<rect x="697.2" y="241.6" width="9.4" height="3.1" fill="none" stroke="#e34948" stroke-width="1.3"/>
<rect x="714.3" y="241.6" width="9.4" height="12.2" fill="#008300"/>
<rect x="731.3" y="253.8" width="9.4" height="44.3" fill="#008300"/>
<rect x="748.4" y="262.9" width="9.4" height="35.1" fill="none" stroke="#e34948" stroke-width="1.3"/>
<rect x="765.5" y="235.5" width="9.4" height="27.5" fill="none" stroke="#e34948" stroke-width="1.3"/>
<rect x="782.6" y="235.5" width="9.4" height="30.5" fill="#008300"/>
<rect x="799.7" y="246.1" width="9.4" height="19.8" fill="none" stroke="#e34948" stroke-width="1.3"/>
<rect x="816.8" y="246.1" width="9.4" height="30.5" fill="#008300"/>
<circle cx="326.0" cy="79.8" r="2" fill="#52514e"/>
<line x1="326.0" y1="79.8" x2="334.0" y2="79.8" stroke="#52514e" stroke-width="1.0"/>
<text x="337.0" y="83.8" font-size="11.0" fill="#52514e">181</text>
<circle cx="18.5" cy="356.0" r="2" fill="#52514e"/>
<line x1="18.5" y1="356.0" x2="26.5" y2="356.0" stroke="#52514e" stroke-width="1.0"/>
<text x="29.5" y="350.0" font-size="11.0" fill="#52514e">0</text>
<text x="14.0" y="376.0" font-size="11.0" fill="#52514e">VOL 3 forks</text>
<text x="90.6" y="376.0" font-size="11.0" fill="#eda100">MA5:8.6</text>
<text x="142.9" y="376.0" font-size="11.0" fill="#2a78d6">MA10:9.6</text>
<text x="14.0" y="395.0" font-size="10" fill="#898781">124</text>
<rect x="13.8" y="458.8" width="9.4" height="11.2" fill="none" stroke="#e34948" stroke-width="1.1"/>
<rect x="30.9" y="460.1" width="9.4" height="9.9" fill="#008300"/>
<rect x="48.0" y="462.1" width="9.4" height="7.9" fill="#008300"/>
<rect x="65.1" y="459.4" width="9.4" height="10.6" fill="none" stroke="#e34948" stroke-width="1.1"/>
<rect x="82.2" y="467.4" width="9.4" height="2.6" fill="#008300"/>
<rect x="99.3" y="461.4" width="9.4" height="8.6" fill="none" stroke="#e34948" stroke-width="1.1"/>
<rect x="116.3" y="469.3" width="9.4" height="0.7" fill="#008300"/>
<rect x="133.4" y="448.2" width="9.4" height="21.8" fill="none" stroke="#e34948" stroke-width="1.1"/>
<rect x="150.5" y="388.0" width="9.4" height="82.0" fill="none" stroke="#e34948" stroke-width="1.1"/>
<rect x="167.6" y="462.1" width="9.4" height="7.9" fill="#008300"/>
<rect x="184.7" y="466.7" width="9.4" height="3.3" fill="#008300"/>
<rect x="201.8" y="450.8" width="9.4" height="19.2" fill="none" stroke="#e34948" stroke-width="1.1"/>
<rect x="218.8" y="456.1" width="9.4" height="13.9" fill="none" stroke="#e34948" stroke-width="1.1"/>
<rect x="235.9" y="453.5" width="9.4" height="16.5" fill="#008300"/>
<rect x="253.0" y="466.7" width="9.4" height="3.3" fill="none" stroke="#e34948" stroke-width="1.1"/>
<rect x="270.1" y="463.4" width="9.4" height="6.6" fill="#008300"/>
<rect x="287.2" y="460.1" width="9.4" height="9.9" fill="#008300"/>
<rect x="304.3" y="464.0" width="9.4" height="6.0" fill="none" stroke="#e34948" stroke-width="1.1"/>
<rect x="321.3" y="460.7" width="9.4" height="9.3" fill="none" stroke="#e34948" stroke-width="1.1"/>
<rect x="338.4" y="460.7" width="9.4" height="9.3" fill="#008300"/>
<rect x="355.5" y="464.0" width="9.4" height="6.0" fill="none" stroke="#e34948" stroke-width="1.1"/>
<rect x="372.6" y="466.0" width="9.4" height="4.0" fill="none" stroke="#e34948" stroke-width="1.1"/>
<rect x="389.7" y="454.1" width="9.4" height="15.9" fill="#008300"/>
<rect x="406.8" y="458.1" width="9.4" height="11.9" fill="none" stroke="#e34948" stroke-width="1.1"/>
<rect x="423.8" y="456.1" width="9.4" height="13.9" fill="none" stroke="#e34948" stroke-width="1.1"/>
<rect x="458.0" y="454.1" width="9.4" height="15.9" fill="#898781"/>
<rect x="475.1" y="460.7" width="9.4" height="9.3" fill="none" stroke="#e34948" stroke-width="1.1"/>
<rect x="492.2" y="465.4" width="9.4" height="4.6" fill="#008300"/>
<rect x="509.3" y="455.5" width="9.4" height="14.5" fill="none" stroke="#e34948" stroke-width="1.1"/>
<rect x="526.3" y="462.1" width="9.4" height="7.9" fill="#008300"/>
<rect x="543.4" y="433.6" width="9.4" height="36.4" fill="none" stroke="#e34948" stroke-width="1.1"/>
<rect x="560.5" y="462.7" width="9.4" height="7.3" fill="none" stroke="#e34948" stroke-width="1.1"/>
<rect x="577.6" y="460.7" width="9.4" height="9.3" fill="#008300"/>
<rect x="594.7" y="458.1" width="9.4" height="11.9" fill="none" stroke="#e34948" stroke-width="1.1"/>
<rect x="611.8" y="461.4" width="9.4" height="8.6" fill="#008300"/>
<rect x="628.8" y="466.0" width="9.4" height="4.0" fill="none" stroke="#e34948" stroke-width="1.1"/>
<rect x="645.9" y="465.4" width="9.4" height="4.6" fill="#008300"/>
<rect x="663.0" y="460.1" width="9.4" height="9.9" fill="none" stroke="#e34948" stroke-width="1.1"/>
<rect x="680.1" y="462.7" width="9.4" height="7.3" fill="none" stroke="#e34948" stroke-width="1.1"/>
<rect x="697.2" y="464.7" width="9.4" height="5.3" fill="none" stroke="#e34948" stroke-width="1.1"/>
<rect x="714.3" y="462.1" width="9.4" height="7.9" fill="#008300"/>
<rect x="731.3" y="465.4" width="9.4" height="4.6" fill="#008300"/>
<rect x="748.4" y="462.7" width="9.4" height="7.3" fill="none" stroke="#e34948" stroke-width="1.1"/>
<rect x="765.5" y="464.0" width="9.4" height="6.0" fill="none" stroke="#e34948" stroke-width="1.1"/>
<rect x="782.6" y="465.4" width="9.4" height="4.6" fill="#008300"/>
<rect x="799.7" y="461.4" width="9.4" height="8.6" fill="none" stroke="#e34948" stroke-width="1.1"/>
<rect x="816.8" y="468.0" width="9.4" height="2.0" fill="#008300"/>
<polyline points="172.3,453.7 189.4,454.5 206.5,453.5 223.5,452.9 240.6,452.3 257.7,452.3 274.8,452.5 291.9,451.6 309.0,453.1 326.0,460.4 343.1,460.3 360.2,460.0 377.3,461.5 394.4,461.3 411.5,461.8 428.5,460.7 445.6,461.4 462.7,460.8 479.8,460.5 496.9,460.9 514.0,460.4 531.0,460.2 548.1,457.0 565.2,457.8 582.3,458.1 599.4,458.3 616.5,457.4 633.5,458.6 650.6,459.1 667.7,458.6 684.8,459.3 701.9,459.6 719.0,462.4 736.0,462.7 753.1,462.9 770.2,463.5 787.3,463.9 804.4,463.4 821.5,463.7" fill="none" stroke="#2a78d6" stroke-width="1.5" stroke-linejoin="round" stroke-linecap="round"/>
<polyline points="86.9,461.5 104.0,462.1 121.0,463.9 138.1,461.1 155.2,446.9 172.3,445.8 189.4,446.9 206.5,443.2 223.5,444.7 240.6,457.8 257.7,458.8 274.8,458.1 291.9,459.9 309.0,461.5 326.0,463.0 343.1,461.8 360.2,461.9 377.3,463.1 394.4,461.1 411.5,460.6 428.5,459.7 445.6,460.9 462.7,458.5 479.8,459.8 496.9,461.3 514.0,461.1 531.0,459.6 548.1,455.5 565.2,455.8 582.3,454.9 599.4,455.5 616.5,455.3 633.5,461.8 650.6,462.3 667.7,462.2 684.8,463.1 701.9,463.8 719.0,463.0 736.0,463.0 753.1,463.5 770.2,463.8 787.3,463.9 804.4,463.8 821.5,464.3" fill="none" stroke="#eda100" stroke-width="1.5" stroke-linejoin="round" stroke-linecap="round"/>
</svg>