<svg xmlns="http://www.w3.org/2000/svg" viewBox="0 0 840 496" width="840" height="496" font-family="-apple-system,&#39;Segoe UI&#39;,system-ui,sans-serif" role="img" aria-label="freeCodeCamp/freeCodeCamp candlestick chart">
<text x="14.0" y="20.0" font-size="15" fill="#0b0b0b" font-weight="650">freeCodeCamp/freeCodeCamp</text>
<text x="224.2" y="20.0" font-size="11.5" fill="#52514e">daily · new stars, volume = new forks</text>
<text x="805.8" y="20.0" font-size="11.0" fill="#52514e">fall</text>
<rect x="791" y="10" width="9" height="12" fill="#008300"/>
<text x="750.6" y="20.0" font-size="11.0" fill="#52514e">rise</text>
<rect x="736" y="10" width="9" height="12" fill="none" stroke="#e34948" stroke-width="1.5"/>
<text x="14.0" y="38.0" font-size="11.0" fill="#898781">last 11 days · +822 stars · +252 forks · updated 2026-07-13</text>
<rect x="10" y="66" width="820" height="290" fill="none" stroke="#e1e0d9"/>
<rect x="10" y="384" width="820" height="86" fill="none" stroke="#e1e0d9"/>
<text x="47.3" y="490.0" font-size="11.0" fill="#898781" text-anchor="middle">07-03</text>
<text x="196.4" y="490.0" font-size="11.0" fill="#898781" text-anchor="middle">07-05</text>
<text x="345.5" y="490.0" font-size="11.0" fill="#898781" text-anchor="middle">07-07</text>
<text x="494.5" y="490.0" font-size="11.0" fill="#898781" text-anchor="middle">07-09</text>
<text x="643.6" y="490.0" font-size="11.0" fill="#898781" text-anchor="middle">07-11</text>
<text x="792.7" y="490.0" font-size="11.0" fill="#898781" text-anchor="middle">07-13</text>
<text x="14.0" y="58.0" font-size="11.0" fill="#52514e">BOLL(20,2)</text>
<text x="84.5" y="58.0" font-size="11.0" fill="#eda100">UP:—</text>
<text x="118.7" y="58.0" font-size="11.0" fill="#2a78d6">MID:—</text>
<text x="158.9" y="58.0" font-size="11.0" fill="#e87ba4">LOW:—</text>
<text x="199.2" y="58.0" font-size="11.0" fill="#4a3aa7">MA7:70.7</text>
<line x1="10.0" y1="356.0" x2="830.0" y2="356.0" stroke="#e1e0d9" stroke-width="1.0"/>
<text x="14.0" y="353.0" font-size="11.0" fill="#898781">0</text>
<line x1="10.0" y1="249.8" x2="830.0" y2="249.8" stroke="#e1e0d9" stroke-width="1.0"/>
<text x="14.0" y="246.8" font-size="11.0" fill="#898781">50</text>
<line x1="10.0" y1="143.5" x2="830.0" y2="143.5" stroke="#e1e0d9" stroke-width="1.0"/>
<text x="14.0" y="140.5" font-size="11.0" fill="#898781">100</text>
<polyline points="494.5,213.7 569.1,214.5 643.6,199.6 718.2,201.5 792.7,205.8" fill="none" stroke="#4a3aa7" stroke-width="1.5" stroke-linejoin="round" stroke-linecap="round"/>
<rect x="35.3" y="154.2" width="24.0" height="201.8" fill="none" stroke="#e34948" stroke-width="1.3"/>
<rect x="109.8" y="154.2" width="24.0" height="29.7" fill="#008300"/>
<rect x="184.4" y="183.9" width="24.0" height="19.1" fill="#008300"/>
<rect x="258.9" y="188.2" width="24.0" height="14.9" fill="none" stroke="#e34948" stroke-width="1.3"/>
<rect x="333.5" y="188.2" width="24.0" height="116.8" fill="#008300"/>
<rect x="408.0" y="222.2" width="24.0" height="82.9" fill="none" stroke="#e34948" stroke-width="1.3"/>
<rect x="482.5" y="222.2" width="24.0" height="17.0" fill="#008300"/>
<rect x="557.1" y="160.5" width="24.0" height="78.6" fill="none" stroke="#e34948" stroke-width="1.3"/>
<rect x="631.6" y="79.8" width="24.0" height="80.7" fill="none" stroke="#e34948" stroke-width="1.3"/>
<rect x="706.2" y="79.8" width="24.0" height="136.0" fill="#008300"/>
<rect x="780.7" y="215.8" width="24.0" height="2.1" fill="#008300"/>
<circle cx="643.6" cy="79.8" r="2" fill="#52514e"/>
<line x1="643.6" y1="79.8" x2="635.6" y2="79.8" stroke="#52514e" stroke-width="1.0"/>
<text x="632.6" y="83.8" font-size="11.0" fill="#52514e" text-anchor="end">130</text>
<circle cx="47.3" cy="356.0" r="2" fill="#52514e"/>
<line x1="47.3" y1="356.0" x2="55.3" y2="356.0" stroke="#52514e" stroke-width="1.0"/>
<text x="58.3" y="350.0" font-size="11.0" fill="#52514e">0</text>
<text x="14.0" y="376.0" font-size="11.0" fill="#52514e">VOL 5 forks</text>
<text x="90.6" y="376.0" font-size="11.0" fill="#eda100">MA5:35</text>
<text x="136.9" y="376.0" font-size="11.0" fill="#2a78d6">MA10:23.5</text>
<text x="14.0" y="395.0" font-size="10" fill="#898781">124</text>
<rect x="35.3" y="458.8" width="24.0" height="11.2" fill="none" stroke="#e34948" stroke-width="1.1"/>
<rect x="109.8" y="460.1" width="24.0" height="9.9" fill="#008300"/>
<rect x="184.4" y="462.1" width="24.0" height="7.9" fill="#008300"/>
<rect x="258.9" y="459.4" width="24.0" height="10.6" fill="none" stroke="#e34948" stroke-width="1.1"/>
<rect x="333.5" y="467.4" width="24.0" height="2.6" fill="#008300"/>
<rect x="408.0" y="461.4" width="24.0" height="8.6" fill="none" stroke="#e34948" stroke-width="1.1"/>
<rect x="482.5" y="469.3" width="24.0" height="0.7" fill="#008300"/>
<rect x="557.1" y="448.2" width="24.0" height="21.8" fill="none" stroke="#e34948" stroke-width="1.1"/>
<rect x="631.6" y="388.0" width="24.0" height="82.0" fill="none" stroke="#e34948" stroke-width="1.1"/>
<rect x="706.2" y="462.1" width="24.0" height="7.9" fill="#008300"/>
<rect x="780.7" y="466.7" width="24.0" height="3.3" fill="#008300"/>
<polyline points="718.2,453.7 792.7,454.5" fill="none" stroke="#2a78d6" stroke-width="1.5" stroke-linejoin="round" stroke-linecap="round"/>
<polyline points="345.5,461.5 420.0,462.1 494.5,463.9 569.1,461.1 643.6,446.9 718.2,445.8 792.7,446.9" fill="none" stroke="#eda100" stroke-width="1.5" stroke-linejoin="round" stroke-linecap="round"/>
</svg>