<svg xmlns="http://www.w3.org/2000/svg" viewBox="0 0 840 496" width="840" height="496" font-family="-apple-system,&#39;Segoe UI&#39;,system-ui,sans-serif" role="img" aria-label="freeCodeCamp/freeCodeCamp candlestick chart">
<text x="14.0" y="20.0" font-size="15" fill="#0b0b0b" font-weight="650">freeCodeCamp/freeCodeCamp</text>
<text x="224.2" y="20.0" font-size="11.5" fill="#52514e">daily · new stars, volume = new forks</text>
<text x="805.8" y="20.0" font-size="11.0" fill="#52514e">fall</text>
<rect x="791" y="10" width="9" height="12" fill="#008300"/>
<text x="750.6" y="20.0" font-size="11.0" fill="#52514e">rise</text>
<rect x="736" y="10" width="9" height="12" fill="none" stroke="#e34948" stroke-width="1.5"/>
<text x="14.0" y="38.0" font-size="11.0" fill="#898781">last 15 days · +1,248 stars · +332 forks · updated 2026-07-18</text>
<rect x="10" y="66" width="820" height="290" fill="none" stroke="#e1e0d9"/>
<rect x="10" y="384" width="820" height="86" fill="none" stroke="#e1e0d9"/>
<text x="37.3" y="490.0" font-size="11.0" fill="#898781" text-anchor="middle">07-03</text>
<text x="201.3" y="490.0" font-size="11.0" fill="#898781" text-anchor="middle">07-06</text>
<text x="365.3" y="490.0" font-size="11.0" fill="#898781" text-anchor="middle">07-09</text>
<text x="529.3" y="490.0" font-size="11.0" fill="#898781" text-anchor="middle">07-12</text>
<text x="693.3" y="490.0" font-size="11.0" fill="#898781" text-anchor="middle">07-15</text>
<text x="14.0" y="58.0" font-size="11.0" fill="#52514e">BOLL(20,2)</text>
<text x="84.5" y="58.0" font-size="11.0" fill="#eda100">UP:—</text>
<text x="118.7" y="58.0" font-size="11.0" fill="#2a78d6">MID:—</text>
<text x="158.9" y="58.0" font-size="11.0" fill="#e87ba4">LOW:—</text>
<text x="199.2" y="58.0" font-size="11.0" fill="#4a3aa7">MA7:98.1</text>
<line x1="10.0" y1="356.0" x2="830.0" y2="356.0" stroke="#e1e0d9" stroke-width="1.0"/>
<text x="14.0" y="353.0" font-size="11.0" fill="#898781">0</text>
<line x1="10.0" y1="267.5" x2="830.0" y2="267.5" stroke="#e1e0d9" stroke-width="1.0"/>
<text x="14.0" y="264.5" font-size="11.0" fill="#898781">50</text>
<line x1="10.0" y1="179.0" x2="830.0" y2="179.0" stroke="#e1e0d9" stroke-width="1.0"/>
<text x="14.0" y="176.0" font-size="11.0" fill="#898781">100</text>
<line x1="10.0" y1="90.4" x2="830.0" y2="90.4" stroke="#e1e0d9" stroke-width="1.0"/>
<text x="14.0" y="87.4" font-size="11.0" fill="#898781">150</text>
<polyline points="365.3,237.4 420.0,238.1 474.7,225.7 529.3,227.3 584.0,230.8 638.7,217.2 693.3,193.6 748.0,179.5 802.7,182.3" fill="none" stroke="#4a3aa7" stroke-width="1.5" stroke-linejoin="round" stroke-linecap="round"/>
<rect x="25.3" y="187.8" width="24.0" height="168.2" fill="none" stroke="#e34948" stroke-width="1.3"/>
<rect x="80.0" y="187.8" width="24.0" height="24.8" fill="#008300"/>
<rect x="134.7" y="212.6" width="24.0" height="15.9" fill="#008300"/>
<rect x="189.3" y="216.1" width="24.0" height="12.4" fill="none" stroke="#e34948" stroke-width="1.3"/>
<rect x="244.0" y="216.1" width="24.0" height="97.4" fill="#008300"/>
<rect x="298.7" y="244.5" width="24.0" height="69.0" fill="none" stroke="#e34948" stroke-width="1.3"/>
<rect x="353.3" y="244.5" width="24.0" height="14.2" fill="#008300"/>
<rect x="408.0" y="193.1" width="24.0" height="65.5" fill="none" stroke="#e34948" stroke-width="1.3"/>
<rect x="462.7" y="125.8" width="24.0" height="67.3" fill="none" stroke="#e34948" stroke-width="1.3"/>
<rect x="517.3" y="125.8" width="24.0" height="113.3" fill="#008300"/>
<rect x="572.0" y="239.2" width="24.0" height="1.8" fill="#008300"/>
<rect x="626.7" y="217.9" width="24.0" height="23.0" fill="none" stroke="#e34948" stroke-width="1.3"/>
<rect x="681.3" y="79.8" width="24.0" height="138.1" fill="none" stroke="#e34948" stroke-width="1.3"/>
<rect x="736.0" y="79.8" width="24.0" height="79.7" fill="#008300"/>
<rect x="790.7" y="212.6" width="24.0" height="143.4" fill="none" stroke="#e34948" stroke-width="1.3"/>
<circle cx="693.3" cy="79.8" r="2" fill="#52514e"/>
<line x1="693.3" y1="79.8" x2="685.3" y2="79.8" stroke="#52514e" stroke-width="1.0"/>
<text x="682.3" y="83.8" font-size="11.0" fill="#52514e" text-anchor="end">156</text>
<circle cx="37.3" cy="356.0" r="2" fill="#52514e"/>
<line x1="37.3" y1="356.0" x2="45.3" y2="356.0" stroke="#52514e" stroke-width="1.0"/>
<text x="48.3" y="350.0" font-size="11.0" fill="#52514e">0</text>
<text x="14.0" y="376.0" font-size="11.0" fill="#52514e">VOL 5 forks</text>
<text x="90.6" y="376.0" font-size="11.0" fill="#eda100">MA5:17</text>
<text x="136.9" y="376.0" font-size="11.0" fill="#2a78d6">MA10:26.8</text>
<text x="14.0" y="395.0" font-size="10" fill="#898781">124</text>
<rect x="25.3" y="458.8" width="24.0" height="11.2" fill="none" stroke="#e34948" stroke-width="1.1"/>
<rect x="80.0" y="460.1" width="24.0" height="9.9" fill="#008300"/>
<rect x="134.7" y="462.1" width="24.0" height="7.9" fill="#008300"/>
<rect x="189.3" y="459.4" width="24.0" height="10.6" fill="none" stroke="#e34948" stroke-width="1.1"/>
<rect x="244.0" y="467.4" width="24.0" height="2.6" fill="#008300"/>
<rect x="298.7" y="461.4" width="24.0" height="8.6" fill="none" stroke="#e34948" stroke-width="1.1"/>
<rect x="353.3" y="469.3" width="24.0" height="0.7" fill="#008300"/>
<rect x="408.0" y="448.2" width="24.0" height="21.8" fill="none" stroke="#e34948" stroke-width="1.1"/>
<rect x="462.7" y="388.0" width="24.0" height="82.0" fill="none" stroke="#e34948" stroke-width="1.1"/>
<rect x="517.3" y="462.1" width="24.0" height="7.9" fill="#008300"/>
<rect x="572.0" y="466.7" width="24.0" height="3.3" fill="#008300"/>
<rect x="626.7" y="450.8" width="24.0" height="19.2" fill="none" stroke="#e34948" stroke-width="1.1"/>
<rect x="681.3" y="456.1" width="24.0" height="13.9" fill="none" stroke="#e34948" stroke-width="1.1"/>
<rect x="736.0" y="453.5" width="24.0" height="16.5" fill="#008300"/>
<rect x="790.7" y="466.7" width="24.0" height="3.3" fill="none" stroke="#e34948" stroke-width="1.1"/>
<polyline points="529.3,453.7 584.0,454.5 638.7,453.5 693.3,452.9 748.0,452.3 802.7,452.3" fill="none" stroke="#2a78d6" stroke-width="1.5" stroke-linejoin="round" stroke-linecap="round"/>
<polyline points="256.0,461.5 310.7,462.1 365.3,463.9 420.0,461.1 474.7,446.9 529.3,445.8 584.0,446.9 638.7,443.2 693.3,444.7 748.0,457.8 802.7,458.8" fill="none" stroke="#eda100" stroke-width="1.5" stroke-linejoin="round" stroke-linecap="round"/>
</svg>