<svg xmlns="http://www.w3.org/2000/svg" viewBox="0 0 840 496" width="840" height="496" font-family="-apple-system,&#39;Segoe UI&#39;,system-ui,sans-serif" role="img" aria-label="freeCodeCamp/freeCodeCamp candlestick chart">
<text x="14.0" y="20.0" font-size="15" fill="#ffffff" font-weight="650">freeCodeCamp/freeCodeCamp</text>
<text x="224.2" y="20.0" font-size="11.5" fill="#c3c2b7">daily · new stars, volume = new forks</text>
<text x="805.8" y="20.0" font-size="11.0" fill="#c3c2b7">fall</text>
<rect x="791" y="10" width="9" height="12" fill="#008300"/>
<text x="750.6" y="20.0" font-size="11.0" fill="#c3c2b7">rise</text>
<rect x="736" y="10" width="9" height="12" fill="none" stroke="#e66767" stroke-width="1.5"/>
<text x="14.0" y="38.0" font-size="11.0" fill="#898781">last 7 days · +469 stars · +78 forks · updated 2026-07-09</text>
<rect x="10" y="66" width="820" height="290" fill="none" stroke="#2c2c2a"/>
<rect x="10" y="384" width="820" height="86" fill="none" stroke="#2c2c2a"/>
<text x="68.6" y="490.0" font-size="11.0" fill="#898781" text-anchor="middle">07-03</text>
<text x="302.9" y="490.0" font-size="11.0" fill="#898781" text-anchor="middle">07-05</text>
<text x="537.1" y="490.0" font-size="11.0" fill="#898781" text-anchor="middle">07-07</text>
<text x="771.4" y="490.0" font-size="11.0" fill="#898781" text-anchor="middle">07-09</text>
<text x="14.0" y="58.0" font-size="11.0" fill="#c3c2b7">BOLL(20,2)</text>
<text x="84.5" y="58.0" font-size="11.0" fill="#c98500">UP:—</text>
<text x="118.7" y="58.0" font-size="11.0" fill="#3987e5">MID:—</text>
<text x="158.9" y="58.0" font-size="11.0" fill="#d55181">LOW:—</text>
<text x="199.2" y="58.0" font-size="11.0" fill="#9085e9">MA7:67</text>
<line x1="10.0" y1="356.0" x2="830.0" y2="356.0" stroke="#2c2c2a" stroke-width="1.0"/>
<text x="14.0" y="353.0" font-size="11.0" fill="#898781">0</text>
<line x1="10.0" y1="210.6" x2="830.0" y2="210.6" stroke="#2c2c2a" stroke-width="1.0"/>
<text x="14.0" y="207.6" font-size="11.0" fill="#898781">50</text>
<rect x="56.6" y="79.8" width="24.0" height="276.2" fill="none" stroke="#e66767" stroke-width="1.3"/>
<rect x="173.7" y="79.8" width="24.0" height="40.7" fill="#008300"/>
<rect x="290.9" y="120.5" width="24.0" height="26.2" fill="#008300"/>
<rect x="408.0" y="126.3" width="24.0" height="20.4" fill="none" stroke="#e66767" stroke-width="1.3"/>
<rect x="525.1" y="126.3" width="24.0" height="159.9" fill="#008300"/>
<rect x="642.3" y="172.8" width="24.0" height="113.4" fill="none" stroke="#e66767" stroke-width="1.3"/>
<rect x="759.4" y="172.8" width="24.0" height="23.3" fill="#008300"/>
<circle cx="68.6" cy="79.8" r="2" fill="#c3c2b7"/>
<line x1="68.6" y1="79.8" x2="76.6" y2="79.8" stroke="#c3c2b7" stroke-width="1.0"/>
<text x="79.6" y="83.8" font-size="11.0" fill="#c3c2b7">95</text>
<circle cx="68.6" cy="356.0" r="2" fill="#c3c2b7"/>
<line x1="68.6" y1="356.0" x2="76.6" y2="356.0" stroke="#c3c2b7" stroke-width="1.0"/>
<text x="79.6" y="350.0" font-size="11.0" fill="#c3c2b7">0</text>
<text x="14.0" y="376.0" font-size="11.0" fill="#c3c2b7">VOL 1 forks</text>
<text x="90.6" y="376.0" font-size="11.0" fill="#c98500">MA5:9.2</text>
<text x="142.9" y="376.0" font-size="11.0" fill="#3987e5">MA10:—</text>
<text x="14.0" y="395.0" font-size="10" fill="#898781">17</text>
<rect x="56.6" y="388.0" width="24.0" height="82.0" fill="none" stroke="#e66767" stroke-width="1.1"/>
<rect x="173.7" y="397.6" width="24.0" height="72.4" fill="#008300"/>
<rect x="290.9" y="412.1" width="24.0" height="57.9" fill="#008300"/>
<rect x="408.0" y="392.8" width="24.0" height="77.2" fill="none" stroke="#e66767" stroke-width="1.1"/>
<rect x="525.1" y="450.7" width="24.0" height="19.3" fill="#008300"/>
<rect x="642.3" y="407.3" width="24.0" height="62.7" fill="none" stroke="#e66767" stroke-width="1.1"/>
<rect x="759.4" y="465.2" width="24.0" height="4.8" fill="#008300"/>
<polyline points="537.1,408.3 654.3,412.1 771.4,425.6" fill="none" stroke="#c98500" stroke-width="1.5" stroke-linejoin="round" stroke-linecap="round"/>
</svg>