<svg xmlns="http://www.w3.org/2000/svg" viewBox="0 0 840 496" width="840" height="496" font-family="-apple-system,&#39;Segoe UI&#39;,system-ui,sans-serif" role="img" aria-label="freeCodeCamp/freeCodeCamp candlestick chart">
<text x="14.0" y="20.0" font-size="15" fill="#0b0b0b" font-weight="650">freeCodeCamp/freeCodeCamp</text>
<text x="224.2" y="20.0" font-size="11.5" fill="#52514e">daily · new stars, volume = new forks</text>
<text x="805.8" y="20.0" font-size="11.0" fill="#52514e">fall</text>
<rect x="791" y="10" width="9" height="12" fill="#008300"/>
<text x="750.6" y="20.0" font-size="11.0" fill="#52514e">rise</text>
<rect x="736" y="10" width="9" height="12" fill="none" stroke="#e34948" stroke-width="1.5"/>
<text x="14.0" y="38.0" font-size="11.0" fill="#898781">last 21 days · +1,865 stars · +403 forks · updated 2026-07-24</text>
<rect x="10" y="66" width="820" height="290" fill="none" stroke="#e1e0d9"/>
<rect x="10" y="384" width="820" height="86" fill="none" stroke="#e1e0d9"/>
<text x="36.0" y="490.0" font-size="11.0" fill="#898781" text-anchor="middle">07-03</text>
<text x="185.7" y="490.0" font-size="11.0" fill="#898781" text-anchor="middle">07-07</text>
<text x="341.9" y="490.0" font-size="11.0" fill="#898781" text-anchor="middle">07-11</text>
<text x="498.1" y="490.0" font-size="11.0" fill="#898781" text-anchor="middle">07-15</text>
<text x="654.3" y="490.0" font-size="11.0" fill="#898781" text-anchor="middle">07-20</text>
<text x="804.0" y="490.0" font-size="11.0" fill="#898781" text-anchor="middle">07-24</text>
<text x="14.0" y="58.0" font-size="11.0" fill="#52514e">BOLL(20,2)</text>
<text x="84.5" y="58.0" font-size="11.0" fill="#eda100">UP:161.0</text>
<text x="142.9" y="58.0" font-size="11.0" fill="#2a78d6">MID:88.5</text>
<text x="201.3" y="58.0" font-size="11.0" fill="#e87ba4">LOW:16.0</text>
<text x="259.7" y="58.0" font-size="11.0" fill="#4a3aa7">MA7:99.7</text>
<line x1="10.0" y1="356.0" x2="830.0" y2="356.0" stroke="#e1e0d9" stroke-width="1.0"/>
<text x="14.0" y="353.0" font-size="11.0" fill="#898781">0</text>
<line x1="10.0" y1="279.7" x2="830.0" y2="279.7" stroke="#e1e0d9" stroke-width="1.0"/>
<text x="14.0" y="276.7" font-size="11.0" fill="#898781">50</text>
<line x1="10.0" y1="203.4" x2="830.0" y2="203.4" stroke="#e1e0d9" stroke-width="1.0"/>
<text x="14.0" y="200.4" font-size="11.0" fill="#898781">100</text>
<line x1="10.0" y1="127.1" x2="830.0" y2="127.1" stroke="#e1e0d9" stroke-width="1.0"/>
<text x="14.0" y="124.1" font-size="11.0" fill="#898781">150</text>
<polyline points="771.4,114.1 810.5,110.3" fill="none" stroke="#eda100" stroke-width="1.5" stroke-linejoin="round" stroke-linecap="round"/>
<polyline points="771.4,222.8 810.5,221.0" fill="none" stroke="#2a78d6" stroke-width="1.5" stroke-linejoin="round" stroke-linecap="round"/>
<polyline points="771.4,331.5 810.5,331.6" fill="none" stroke="#e87ba4" stroke-width="1.5" stroke-linejoin="round" stroke-linecap="round"/>
<polyline points="263.8,253.8 302.9,254.4 341.9,243.7 381.0,245.1 420.0,248.1 459.0,236.4 498.1,216.1 537.1,203.9 576.2,206.3 615.2,217.3 654.3,220.8 693.3,218.8 732.4,196.4 771.4,205.5 810.5,203.9" fill="none" stroke="#4a3aa7" stroke-width="1.5" stroke-linejoin="round" stroke-linecap="round"/>
<rect x="18.8" y="211.0" width="21.5" height="145.0" fill="none" stroke="#e34948" stroke-width="1.3"/>
<rect x="57.8" y="211.0" width="21.5" height="21.4" fill="#008300"/>
<rect x="96.9" y="232.4" width="21.5" height="13.7" fill="#008300"/>
<rect x="135.9" y="235.5" width="21.5" height="10.7" fill="none" stroke="#e34948" stroke-width="1.3"/>
<rect x="175.0" y="235.5" width="21.5" height="83.9" fill="#008300"/>
<rect x="214.0" y="259.9" width="21.5" height="59.5" fill="none" stroke="#e34948" stroke-width="1.3"/>
<rect x="253.1" y="259.9" width="21.5" height="12.2" fill="#008300"/>
<rect x="292.1" y="215.6" width="21.5" height="56.5" fill="none" stroke="#e34948" stroke-width="1.3"/>
<rect x="331.2" y="157.6" width="21.5" height="58.0" fill="none" stroke="#e34948" stroke-width="1.3"/>
<rect x="370.2" y="157.6" width="21.5" height="97.7" fill="#008300"/>
<rect x="409.3" y="255.3" width="21.5" height="1.5" fill="#008300"/>
<rect x="448.3" y="237.0" width="21.5" height="19.8" fill="none" stroke="#e34948" stroke-width="1.3"/>
<rect x="487.4" y="118.0" width="21.5" height="119.0" fill="none" stroke="#e34948" stroke-width="1.3"/>
<rect x="526.4" y="118.0" width="21.5" height="68.7" fill="#008300"/>
<rect x="565.5" y="232.4" width="21.5" height="123.6" fill="none" stroke="#e34948" stroke-width="1.3"/>
<rect x="604.5" y="232.4" width="21.5" height="3.1" fill="#008300"/>
<rect x="643.5" y="235.5" width="21.5" height="44.3" fill="#008300"/>
<rect x="682.6" y="243.1" width="21.5" height="36.6" fill="none" stroke="#e34948" stroke-width="1.3"/>
<rect x="721.6" y="79.8" width="21.5" height="163.3" fill="none" stroke="#e34948" stroke-width="1.3"/>
<rect x="760.7" y="79.8" width="21.5" height="102.2" fill="#008300"/>
<rect x="799.7" y="174.4" width="21.5" height="7.6" fill="none" stroke="#e34948" stroke-width="1.3"/>
<circle cx="732.4" cy="79.8" r="2" fill="#52514e"/>
<line x1="732.4" y1="79.8" x2="724.4" y2="79.8" stroke="#52514e" stroke-width="1.0"/>
<text x="721.4" y="83.8" font-size="11.0" fill="#52514e" text-anchor="end">181</text>
<circle cx="29.5" cy="356.0" r="2" fill="#52514e"/>
<line x1="29.5" y1="356.0" x2="37.5" y2="356.0" stroke="#52514e" stroke-width="1.0"/>
<text x="40.5" y="350.0" font-size="11.0" fill="#52514e">0</text>
<text x="14.0" y="376.0" font-size="11.0" fill="#52514e">VOL 9 forks</text>
<text x="90.6" y="376.0" font-size="11.0" fill="#eda100">MA5:12.2</text>
<text x="149.0" y="376.0" font-size="11.0" fill="#2a78d6">MA10:15.1</text>
<text x="14.0" y="395.0" font-size="10" fill="#898781">124</text>
<rect x="18.8" y="458.8" width="21.5" height="11.2" fill="none" stroke="#e34948" stroke-width="1.1"/>
<rect x="57.8" y="460.1" width="21.5" height="9.9" fill="#008300"/>
<rect x="96.9" y="462.1" width="21.5" height="7.9" fill="#008300"/>
<rect x="135.9" y="459.4" width="21.5" height="10.6" fill="none" stroke="#e34948" stroke-width="1.1"/>
<rect x="175.0" y="467.4" width="21.5" height="2.6" fill="#008300"/>
<rect x="214.0" y="461.4" width="21.5" height="8.6" fill="none" stroke="#e34948" stroke-width="1.1"/>
<rect x="253.1" y="469.3" width="21.5" height="0.7" fill="#008300"/>
<rect x="292.1" y="448.2" width="21.5" height="21.8" fill="none" stroke="#e34948" stroke-width="1.1"/>
<rect x="331.2" y="388.0" width="21.5" height="82.0" fill="none" stroke="#e34948" stroke-width="1.1"/>
<rect x="370.2" y="462.1" width="21.5" height="7.9" fill="#008300"/>
<rect x="409.3" y="466.7" width="21.5" height="3.3" fill="#008300"/>
<rect x="448.3" y="450.8" width="21.5" height="19.2" fill="none" stroke="#e34948" stroke-width="1.1"/>
<rect x="487.4" y="456.1" width="21.5" height="13.9" fill="none" stroke="#e34948" stroke-width="1.1"/>
<rect x="526.4" y="453.5" width="21.5" height="16.5" fill="#008300"/>
<rect x="565.5" y="466.7" width="21.5" height="3.3" fill="none" stroke="#e34948" stroke-width="1.1"/>
<rect x="604.5" y="463.4" width="21.5" height="6.6" fill="#008300"/>
<rect x="643.5" y="460.1" width="21.5" height="9.9" fill="#008300"/>
<rect x="682.6" y="464.0" width="21.5" height="6.0" fill="none" stroke="#e34948" stroke-width="1.1"/>
<rect x="721.6" y="460.7" width="21.5" height="9.3" fill="none" stroke="#e34948" stroke-width="1.1"/>
<rect x="760.7" y="460.7" width="21.5" height="9.3" fill="#008300"/>
<rect x="799.7" y="464.0" width="21.5" height="6.0" fill="none" stroke="#e34948" stroke-width="1.1"/>
<polyline points="381.0,453.7 420.0,454.5 459.0,453.5 498.1,452.9 537.1,452.3 576.2,452.3 615.2,452.5 654.3,451.6 693.3,453.1 732.4,460.4 771.4,460.3 810.5,460.0" fill="none" stroke="#2a78d6" stroke-width="1.5" stroke-linejoin="round" stroke-linecap="round"/>
<polyline points="185.7,461.5 224.8,462.1 263.8,463.9 302.9,461.1 341.9,446.9 381.0,445.8 420.0,446.9 459.0,443.2 498.1,444.7 537.1,457.8 576.2,458.8 615.2,458.1 654.3,459.9 693.3,461.5 732.4,463.0 771.4,461.8 810.5,461.9" fill="none" stroke="#eda100" stroke-width="1.5" stroke-linejoin="round" stroke-linecap="round"/>
</svg>