<svg xmlns="http://www.w3.org/2000/svg" viewBox="0 0 840 496" width="840" height="496" font-family="-apple-system,&#39;Segoe UI&#39;,system-ui,sans-serif" role="img" aria-label="freeCodeCamp/freeCodeCamp candlestick chart">
<text x="14.0" y="20.0" font-size="15" fill="#ffffff" font-weight="650">freeCodeCamp/freeCodeCamp</text>
<text x="224.2" y="20.0" font-size="11.5" fill="#c3c2b7">daily · new stars, volume = new forks</text>
<text x="805.8" y="20.0" font-size="11.0" fill="#c3c2b7">fall</text>
<rect x="791" y="10" width="9" height="12" fill="#008300"/>
<text x="750.6" y="20.0" font-size="11.0" fill="#c3c2b7">rise</text>
<rect x="736" y="10" width="9" height="12" fill="none" stroke="#e66767" stroke-width="1.5"/>
<text x="14.0" y="38.0" font-size="11.0" fill="#898781">last 14 days · +1,167 stars · +327 forks · updated 2026-07-16</text>
<rect x="10" y="66" width="820" height="290" fill="none" stroke="#2c2c2a"/>
<rect x="10" y="384" width="820" height="86" fill="none" stroke="#2c2c2a"/>
<text x="39.3" y="490.0" font-size="11.0" fill="#898781" text-anchor="middle">07-03</text>
<text x="215.0" y="490.0" font-size="11.0" fill="#898781" text-anchor="middle">07-06</text>
<text x="390.7" y="490.0" font-size="11.0" fill="#898781" text-anchor="middle">07-09</text>
<text x="566.4" y="490.0" font-size="11.0" fill="#898781" text-anchor="middle">07-12</text>
<text x="742.1" y="490.0" font-size="11.0" fill="#898781" text-anchor="middle">07-15</text>
<text x="14.0" y="58.0" font-size="11.0" fill="#c3c2b7">BOLL(20,2)</text>
<text x="84.5" y="58.0" font-size="11.0" fill="#c98500">UP:—</text>
<text x="118.7" y="58.0" font-size="11.0" fill="#3987e5">MID:—</text>
<text x="158.9" y="58.0" font-size="11.0" fill="#d55181">LOW:—</text>
<text x="199.2" y="58.0" font-size="11.0" fill="#9085e9">MA7:99.7</text>
<line x1="10.0" y1="356.0" x2="830.0" y2="356.0" stroke="#2c2c2a" stroke-width="1.0"/>
<text x="14.0" y="353.0" font-size="11.0" fill="#898781">0</text>
<line x1="10.0" y1="267.5" x2="830.0" y2="267.5" stroke="#2c2c2a" stroke-width="1.0"/>
<text x="14.0" y="264.5" font-size="11.0" fill="#898781">50</text>
<line x1="10.0" y1="179.0" x2="830.0" y2="179.0" stroke="#2c2c2a" stroke-width="1.0"/>
<text x="14.0" y="176.0" font-size="11.0" fill="#898781">100</text>
<line x1="10.0" y1="90.4" x2="830.0" y2="90.4" stroke="#2c2c2a" stroke-width="1.0"/>
<text x="14.0" y="87.4" font-size="11.0" fill="#898781">150</text>
<polyline points="390.7,237.4 449.3,238.1 507.9,225.7 566.4,227.3 625.0,230.8 683.6,217.2 742.1,193.6 800.7,179.5" fill="none" stroke="#9085e9" stroke-width="1.5" stroke-linejoin="round" stroke-linecap="round"/>
<rect x="27.3" y="187.8" width="24.0" height="168.2" fill="none" stroke="#e66767" stroke-width="1.3"/>
<rect x="85.9" y="187.8" width="24.0" height="24.8" fill="#008300"/>
<rect x="144.4" y="212.6" width="24.0" height="15.9" fill="#008300"/>
<rect x="203.0" y="216.1" width="24.0" height="12.4" fill="none" stroke="#e66767" stroke-width="1.3"/>
<rect x="261.6" y="216.1" width="24.0" height="97.4" fill="#008300"/>
<rect x="320.1" y="244.5" width="24.0" height="69.0" fill="none" stroke="#e66767" stroke-width="1.3"/>
<rect x="378.7" y="244.5" width="24.0" height="14.2" fill="#008300"/>
<rect x="437.3" y="193.1" width="24.0" height="65.5" fill="none" stroke="#e66767" stroke-width="1.3"/>
<rect x="495.9" y="125.8" width="24.0" height="67.3" fill="none" stroke="#e66767" stroke-width="1.3"/>
<rect x="554.4" y="125.8" width="24.0" height="113.3" fill="#008300"/>
<rect x="613.0" y="239.2" width="24.0" height="1.8" fill="#008300"/>
<rect x="671.6" y="217.9" width="24.0" height="23.0" fill="none" stroke="#e66767" stroke-width="1.3"/>
<rect x="730.1" y="79.8" width="24.0" height="138.1" fill="none" stroke="#e66767" stroke-width="1.3"/>
<rect x="788.7" y="79.8" width="24.0" height="79.7" fill="#008300"/>
<circle cx="742.1" cy="79.8" r="2" fill="#c3c2b7"/>
<line x1="742.1" y1="79.8" x2="734.1" y2="79.8" stroke="#c3c2b7" stroke-width="1.0"/>
<text x="731.1" y="83.8" font-size="11.0" fill="#c3c2b7" text-anchor="end">156</text>
<circle cx="39.3" cy="356.0" r="2" fill="#c3c2b7"/>
<line x1="39.3" y1="356.0" x2="47.3" y2="356.0" stroke="#c3c2b7" stroke-width="1.0"/>
<text x="50.3" y="350.0" font-size="11.0" fill="#c3c2b7">0</text>
<text x="14.0" y="376.0" font-size="11.0" fill="#c3c2b7">VOL 25 forks</text>
<text x="96.6" y="376.0" font-size="11.0" fill="#c98500">MA5:18.4</text>
<text x="155.0" y="376.0" font-size="11.0" fill="#3987e5">MA10:26.7</text>
<text x="14.0" y="395.0" font-size="10" fill="#898781">124</text>
<rect x="27.3" y="458.8" width="24.0" height="11.2" fill="none" stroke="#e66767" stroke-width="1.1"/>
<rect x="85.9" y="460.1" width="24.0" height="9.9" fill="#008300"/>
<rect x="144.4" y="462.1" width="24.0" height="7.9" fill="#008300"/>
<rect x="203.0" y="459.4" width="24.0" height="10.6" fill="none" stroke="#e66767" stroke-width="1.1"/>
<rect x="261.6" y="467.4" width="24.0" height="2.6" fill="#008300"/>
<rect x="320.1" y="461.4" width="24.0" height="8.6" fill="none" stroke="#e66767" stroke-width="1.1"/>
<rect x="378.7" y="469.3" width="24.0" height="0.7" fill="#008300"/>
<rect x="437.3" y="448.2" width="24.0" height="21.8" fill="none" stroke="#e66767" stroke-width="1.1"/>
<rect x="495.9" y="388.0" width="24.0" height="82.0" fill="none" stroke="#e66767" stroke-width="1.1"/>
<rect x="554.4" y="462.1" width="24.0" height="7.9" fill="#008300"/>
<rect x="613.0" y="466.7" width="24.0" height="3.3" fill="#008300"/>
<rect x="671.6" y="450.8" width="24.0" height="19.2" fill="none" stroke="#e66767" stroke-width="1.1"/>
<rect x="730.1" y="456.1" width="24.0" height="13.9" fill="none" stroke="#e66767" stroke-width="1.1"/>
<rect x="788.7" y="453.5" width="24.0" height="16.5" fill="#008300"/>
<polyline points="566.4,453.7 625.0,454.5 683.6,453.5 742.1,452.9 800.7,452.3" fill="none" stroke="#3987e5" stroke-width="1.5" stroke-linejoin="round" stroke-linecap="round"/>
<polyline points="273.6,461.5 332.1,462.1 390.7,463.9 449.3,461.1 507.9,446.9 566.4,445.8 625.0,446.9 683.6,443.2 742.1,444.7 800.7,457.8" fill="none" stroke="#c98500" stroke-width="1.5" stroke-linejoin="round" stroke-linecap="round"/>
</svg>