<svg xmlns="http://www.w3.org/2000/svg" viewBox="0 0 840 496" width="840" height="496" font-family="-apple-system,&#39;Segoe UI&#39;,system-ui,sans-serif" role="img" aria-label="freeCodeCamp/freeCodeCamp candlestick chart">
<text x="14.0" y="20.0" font-size="15" fill="#0b0b0b" font-weight="650">freeCodeCamp/freeCodeCamp</text>
<text x="224.2" y="20.0" font-size="11.5" fill="#52514e">daily · new stars, volume = new forks</text>
<text x="805.8" y="20.0" font-size="11.0" fill="#52514e">fall</text>
<rect x="791" y="10" width="9" height="12" fill="#008300"/>
<text x="750.6" y="20.0" font-size="11.0" fill="#52514e">rise</text>
<rect x="736" y="10" width="9" height="12" fill="none" stroke="#e34948" stroke-width="1.5"/>
<text x="14.0" y="38.0" font-size="11.0" fill="#898781">last 13 days · +1,056 stars · +302 forks · updated 2026-07-15</text>
<rect x="10" y="66" width="820" height="290" fill="none" stroke="#e1e0d9"/>
<rect x="10" y="384" width="820" height="86" fill="none" stroke="#e1e0d9"/>
<text x="41.5" y="490.0" font-size="11.0" fill="#898781" text-anchor="middle">07-03</text>
<text x="230.8" y="490.0" font-size="11.0" fill="#898781" text-anchor="middle">07-06</text>
<text x="420.0" y="490.0" font-size="11.0" fill="#898781" text-anchor="middle">07-09</text>
<text x="609.2" y="490.0" font-size="11.0" fill="#898781" text-anchor="middle">07-12</text>
<text x="798.5" y="490.0" font-size="11.0" fill="#898781" text-anchor="middle">07-15</text>
<text x="14.0" y="58.0" font-size="11.0" fill="#52514e">BOLL(20,2)</text>
<text x="84.5" y="58.0" font-size="11.0" fill="#eda100">UP:—</text>
<text x="118.7" y="58.0" font-size="11.0" fill="#2a78d6">MID:—</text>
<text x="158.9" y="58.0" font-size="11.0" fill="#e87ba4">LOW:—</text>
<text x="199.2" y="58.0" font-size="11.0" fill="#4a3aa7">MA7:91.7</text>
<line x1="10.0" y1="356.0" x2="830.0" y2="356.0" stroke="#e1e0d9" stroke-width="1.0"/>
<text x="14.0" y="353.0" font-size="11.0" fill="#898781">0</text>
<line x1="10.0" y1="267.5" x2="830.0" y2="267.5" stroke="#e1e0d9" stroke-width="1.0"/>
<text x="14.0" y="264.5" font-size="11.0" fill="#898781">50</text>
<line x1="10.0" y1="179.0" x2="830.0" y2="179.0" stroke="#e1e0d9" stroke-width="1.0"/>
<text x="14.0" y="176.0" font-size="11.0" fill="#898781">100</text>
<line x1="10.0" y1="90.4" x2="830.0" y2="90.4" stroke="#e1e0d9" stroke-width="1.0"/>
<text x="14.0" y="87.4" font-size="11.0" fill="#898781">150</text>
<polyline points="420.0,237.4 483.1,238.1 546.2,225.7 609.2,227.3 672.3,230.8 735.4,217.2 798.5,193.6" fill="none" stroke="#4a3aa7" stroke-width="1.5" stroke-linejoin="round" stroke-linecap="round"/>
<rect x="29.5" y="187.8" width="24.0" height="168.2" fill="none" stroke="#e34948" stroke-width="1.3"/>
<rect x="92.6" y="187.8" width="24.0" height="24.8" fill="#008300"/>
<rect x="155.7" y="212.6" width="24.0" height="15.9" fill="#008300"/>
<rect x="218.8" y="216.1" width="24.0" height="12.4" fill="none" stroke="#e34948" stroke-width="1.3"/>
<rect x="281.8" y="216.1" width="24.0" height="97.4" fill="#008300"/>
<rect x="344.9" y="244.5" width="24.0" height="69.0" fill="none" stroke="#e34948" stroke-width="1.3"/>
<rect x="408.0" y="244.5" width="24.0" height="14.2" fill="#008300"/>
<rect x="471.1" y="193.1" width="24.0" height="65.5" fill="none" stroke="#e34948" stroke-width="1.3"/>
<rect x="534.2" y="125.8" width="24.0" height="67.3" fill="none" stroke="#e34948" stroke-width="1.3"/>
<rect x="597.2" y="125.8" width="24.0" height="113.3" fill="#008300"/>
<rect x="660.3" y="239.2" width="24.0" height="1.8" fill="#008300"/>
<rect x="723.4" y="217.9" width="24.0" height="23.0" fill="none" stroke="#e34948" stroke-width="1.3"/>
<rect x="786.5" y="79.8" width="24.0" height="138.1" fill="none" stroke="#e34948" stroke-width="1.3"/>
<circle cx="798.5" cy="79.8" r="2" fill="#52514e"/>
<line x1="798.5" y1="79.8" x2="790.5" y2="79.8" stroke="#52514e" stroke-width="1.0"/>
<text x="787.5" y="83.8" font-size="11.0" fill="#52514e" text-anchor="end">156</text>
<circle cx="41.5" cy="356.0" r="2" fill="#52514e"/>
<line x1="41.5" y1="356.0" x2="49.5" y2="356.0" stroke="#52514e" stroke-width="1.0"/>
<text x="52.5" y="350.0" font-size="11.0" fill="#52514e">0</text>
<text x="14.0" y="376.0" font-size="11.0" fill="#52514e">VOL 21 forks</text>
<text x="96.6" y="376.0" font-size="11.0" fill="#eda100">MA5:38.2</text>
<text x="155.0" y="376.0" font-size="11.0" fill="#2a78d6">MA10:25.8</text>
<text x="14.0" y="395.0" font-size="10" fill="#898781">124</text>
<rect x="29.5" y="458.8" width="24.0" height="11.2" fill="none" stroke="#e34948" stroke-width="1.1"/>
<rect x="92.6" y="460.1" width="24.0" height="9.9" fill="#008300"/>
<rect x="155.7" y="462.1" width="24.0" height="7.9" fill="#008300"/>
<rect x="218.8" y="459.4" width="24.0" height="10.6" fill="none" stroke="#e34948" stroke-width="1.1"/>
<rect x="281.8" y="467.4" width="24.0" height="2.6" fill="#008300"/>
<rect x="344.9" y="461.4" width="24.0" height="8.6" fill="none" stroke="#e34948" stroke-width="1.1"/>
<rect x="408.0" y="469.3" width="24.0" height="0.7" fill="#008300"/>
<rect x="471.1" y="448.2" width="24.0" height="21.8" fill="none" stroke="#e34948" stroke-width="1.1"/>
<rect x="534.2" y="388.0" width="24.0" height="82.0" fill="none" stroke="#e34948" stroke-width="1.1"/>
<rect x="597.2" y="462.1" width="24.0" height="7.9" fill="#008300"/>
<rect x="660.3" y="466.7" width="24.0" height="3.3" fill="#008300"/>
<rect x="723.4" y="450.8" width="24.0" height="19.2" fill="none" stroke="#e34948" stroke-width="1.1"/>
<rect x="786.5" y="456.1" width="24.0" height="13.9" fill="none" stroke="#e34948" stroke-width="1.1"/>
<polyline points="609.2,453.7 672.3,454.5 735.4,453.5 798.5,452.9" fill="none" stroke="#2a78d6" stroke-width="1.5" stroke-linejoin="round" stroke-linecap="round"/>
<polyline points="293.8,461.5 356.9,462.1 420.0,463.9 483.1,461.1 546.2,446.9 609.2,445.8 672.3,446.9 735.4,443.2 798.5,444.7" fill="none" stroke="#eda100" stroke-width="1.5" stroke-linejoin="round" stroke-linecap="round"/>
</svg>