<svg xmlns="http://www.w3.org/2000/svg" viewBox="0 0 840 496" width="840" height="496" font-family="-apple-system,&#39;Segoe UI&#39;,system-ui,sans-serif" role="img" aria-label="freeCodeCamp/freeCodeCamp candlestick chart">
<text x="14.0" y="20.0" font-size="15" fill="#0b0b0b" font-weight="650">freeCodeCamp/freeCodeCamp</text>
<text x="224.2" y="20.0" font-size="11.5" fill="#52514e">daily · new stars, volume = new forks</text>
<text x="805.8" y="20.0" font-size="11.0" fill="#52514e">fall</text>
<rect x="791" y="10" width="9" height="12" fill="#008300"/>
<text x="750.6" y="20.0" font-size="11.0" fill="#52514e">rise</text>
<rect x="736" y="10" width="9" height="12" fill="none" stroke="#e34948" stroke-width="1.5"/>
<text x="14.0" y="38.0" font-size="11.0" fill="#898781">last 19 days · +1,632 stars · +380 forks · updated 2026-07-22</text>
<rect x="10" y="66" width="820" height="290" fill="none" stroke="#e1e0d9"/>
<rect x="10" y="384" width="820" height="86" fill="none" stroke="#e1e0d9"/>
<text x="36.0" y="490.0" font-size="11.0" fill="#898781" text-anchor="middle">07-03</text>
<text x="204.2" y="490.0" font-size="11.0" fill="#898781" text-anchor="middle">07-07</text>
<text x="376.8" y="490.0" font-size="11.0" fill="#898781" text-anchor="middle">07-11</text>
<text x="549.5" y="490.0" font-size="11.0" fill="#898781" text-anchor="middle">07-15</text>
<text x="722.1" y="490.0" font-size="11.0" fill="#898781" text-anchor="middle">07-20</text>
<text x="14.0" y="58.0" font-size="11.0" fill="#52514e">BOLL(20,2)</text>
<text x="84.5" y="58.0" font-size="11.0" fill="#eda100">UP:—</text>
<text x="118.7" y="58.0" font-size="11.0" fill="#2a78d6">MID:—</text>
<text x="158.9" y="58.0" font-size="11.0" fill="#e87ba4">LOW:—</text>
<text x="199.2" y="58.0" font-size="11.0" fill="#4a3aa7">MA7:104.6</text>
<line x1="10.0" y1="356.0" x2="830.0" y2="356.0" stroke="#e1e0d9" stroke-width="1.0"/>
<text x="14.0" y="353.0" font-size="11.0" fill="#898781">0</text>
<line x1="10.0" y1="279.7" x2="830.0" y2="279.7" stroke="#e1e0d9" stroke-width="1.0"/>
<text x="14.0" y="276.7" font-size="11.0" fill="#898781">50</text>
<line x1="10.0" y1="203.4" x2="830.0" y2="203.4" stroke="#e1e0d9" stroke-width="1.0"/>
<text x="14.0" y="200.4" font-size="11.0" fill="#898781">100</text>
<line x1="10.0" y1="127.1" x2="830.0" y2="127.1" stroke="#e1e0d9" stroke-width="1.0"/>
<text x="14.0" y="124.1" font-size="11.0" fill="#898781">150</text>
<polyline points="290.5,253.8 333.7,254.4 376.8,243.7 420.0,245.1 463.2,248.1 506.3,236.4 549.5,216.1 592.6,203.9 635.8,206.3 678.9,217.3 722.1,220.8 765.3,218.8 808.4,196.4" fill="none" stroke="#4a3aa7" stroke-width="1.5" stroke-linejoin="round" stroke-linecap="round"/>
<rect x="19.7" y="211.0" width="23.7" height="145.0" fill="none" stroke="#e34948" stroke-width="1.3"/>
<rect x="62.9" y="211.0" width="23.7" height="21.4" fill="#008300"/>
<rect x="106.0" y="232.4" width="23.7" height="13.7" fill="#008300"/>
<rect x="149.2" y="235.5" width="23.7" height="10.7" fill="none" stroke="#e34948" stroke-width="1.3"/>
<rect x="192.3" y="235.5" width="23.7" height="83.9" fill="#008300"/>
<rect x="235.5" y="259.9" width="23.7" height="59.5" fill="none" stroke="#e34948" stroke-width="1.3"/>
<rect x="278.7" y="259.9" width="23.7" height="12.2" fill="#008300"/>
<rect x="321.8" y="215.6" width="23.7" height="56.5" fill="none" stroke="#e34948" stroke-width="1.3"/>
<rect x="365.0" y="157.6" width="23.7" height="58.0" fill="none" stroke="#e34948" stroke-width="1.3"/>
<rect x="408.1" y="157.6" width="23.7" height="97.7" fill="#008300"/>
<rect x="451.3" y="255.3" width="23.7" height="1.5" fill="#008300"/>
<rect x="494.4" y="237.0" width="23.7" height="19.8" fill="none" stroke="#e34948" stroke-width="1.3"/>
<rect x="537.6" y="118.0" width="23.7" height="119.0" fill="none" stroke="#e34948" stroke-width="1.3"/>
<rect x="580.8" y="118.0" width="23.7" height="68.7" fill="#008300"/>
<rect x="623.9" y="232.4" width="23.7" height="123.6" fill="none" stroke="#e34948" stroke-width="1.3"/>
<rect x="667.1" y="232.4" width="23.7" height="3.1" fill="#008300"/>
<rect x="710.2" y="235.5" width="23.7" height="44.3" fill="#008300"/>
<rect x="753.4" y="243.1" width="23.7" height="36.6" fill="none" stroke="#e34948" stroke-width="1.3"/>
<rect x="796.6" y="79.8" width="23.7" height="163.3" fill="none" stroke="#e34948" stroke-width="1.3"/>
<circle cx="808.4" cy="79.8" r="2" fill="#52514e"/>
<line x1="808.4" y1="79.8" x2="800.4" y2="79.8" stroke="#52514e" stroke-width="1.0"/>
<text x="797.4" y="83.8" font-size="11.0" fill="#52514e" text-anchor="end">181</text>
<circle cx="31.6" cy="356.0" r="2" fill="#52514e"/>
<line x1="31.6" y1="356.0" x2="39.6" y2="356.0" stroke="#52514e" stroke-width="1.0"/>
<text x="42.6" y="350.0" font-size="11.0" fill="#52514e">0</text>
<text x="14.0" y="376.0" font-size="11.0" fill="#52514e">VOL 14 forks</text>
<text x="96.6" y="376.0" font-size="11.0" fill="#eda100">MA5:10.6</text>
<text x="155.0" y="376.0" font-size="11.0" fill="#2a78d6">MA10:14.5</text>
<text x="14.0" y="395.0" font-size="10" fill="#898781">124</text>
<rect x="19.7" y="458.8" width="23.7" height="11.2" fill="none" stroke="#e34948" stroke-width="1.1"/>
<rect x="62.9" y="460.1" width="23.7" height="9.9" fill="#008300"/>
<rect x="106.0" y="462.1" width="23.7" height="7.9" fill="#008300"/>
<rect x="149.2" y="459.4" width="23.7" height="10.6" fill="none" stroke="#e34948" stroke-width="1.1"/>
<rect x="192.3" y="467.4" width="23.7" height="2.6" fill="#008300"/>
<rect x="235.5" y="461.4" width="23.7" height="8.6" fill="none" stroke="#e34948" stroke-width="1.1"/>
<rect x="278.7" y="469.3" width="23.7" height="0.7" fill="#008300"/>
<rect x="321.8" y="448.2" width="23.7" height="21.8" fill="none" stroke="#e34948" stroke-width="1.1"/>
<rect x="365.0" y="388.0" width="23.7" height="82.0" fill="none" stroke="#e34948" stroke-width="1.1"/>
<rect x="408.1" y="462.1" width="23.7" height="7.9" fill="#008300"/>
<rect x="451.3" y="466.7" width="23.7" height="3.3" fill="#008300"/>
<rect x="494.4" y="450.8" width="23.7" height="19.2" fill="none" stroke="#e34948" stroke-width="1.1"/>
<rect x="537.6" y="456.1" width="23.7" height="13.9" fill="none" stroke="#e34948" stroke-width="1.1"/>
<rect x="580.8" y="453.5" width="23.7" height="16.5" fill="#008300"/>
<rect x="623.9" y="466.7" width="23.7" height="3.3" fill="none" stroke="#e34948" stroke-width="1.1"/>
<rect x="667.1" y="463.4" width="23.7" height="6.6" fill="#008300"/>
<rect x="710.2" y="460.1" width="23.7" height="9.9" fill="#008300"/>
<rect x="753.4" y="464.0" width="23.7" height="6.0" fill="none" stroke="#e34948" stroke-width="1.1"/>
<rect x="796.6" y="460.7" width="23.7" height="9.3" fill="none" stroke="#e34948" stroke-width="1.1"/>
<polyline points="420.0,453.7 463.2,454.5 506.3,453.5 549.5,452.9 592.6,452.3 635.8,452.3 678.9,452.5 722.1,451.6 765.3,453.1 808.4,460.4" fill="none" stroke="#2a78d6" stroke-width="1.5" stroke-linejoin="round" stroke-linecap="round"/>
<polyline points="204.2,461.5 247.4,462.1 290.5,463.9 333.7,461.1 376.8,446.9 420.0,445.8 463.2,446.9 506.3,443.2 549.5,444.7 592.6,457.8 635.8,458.8 678.9,458.1 722.1,459.9 765.3,461.5 808.4,463.0" fill="none" stroke="#eda100" stroke-width="1.5" stroke-linejoin="round" stroke-linecap="round"/>
</svg>