<svg xmlns="http://www.w3.org/2000/svg" viewBox="0 0 840 496" width="840" height="496" font-family="-apple-system,&#39;Segoe UI&#39;,system-ui,sans-serif" role="img" aria-label="freeCodeCamp/freeCodeCamp candlestick chart">
<text x="14.0" y="20.0" font-size="15" fill="#0b0b0b" font-weight="650">freeCodeCamp/freeCodeCamp</text>
<text x="224.2" y="20.0" font-size="11.5" fill="#52514e">daily · new stars, volume = new forks</text>
<text x="805.8" y="20.0" font-size="11.0" fill="#52514e">fall</text>
<rect x="791" y="10" width="9" height="12" fill="#008300"/>
<text x="750.6" y="20.0" font-size="11.0" fill="#52514e">rise</text>
<rect x="736" y="10" width="9" height="12" fill="none" stroke="#e34948" stroke-width="1.5"/>
<text x="14.0" y="38.0" font-size="11.0" fill="#898781">last 20 days · +1,746 stars · +394 forks · updated 2026-07-23</text>
<rect x="10" y="66" width="820" height="290" fill="none" stroke="#e1e0d9"/>
<rect x="10" y="384" width="820" height="86" fill="none" stroke="#e1e0d9"/>
<text x="36.0" y="490.0" font-size="11.0" fill="#898781" text-anchor="middle">07-03</text>
<text x="194.5" y="490.0" font-size="11.0" fill="#898781" text-anchor="middle">07-07</text>
<text x="358.5" y="490.0" font-size="11.0" fill="#898781" text-anchor="middle">07-11</text>
<text x="522.5" y="490.0" font-size="11.0" fill="#898781" text-anchor="middle">07-15</text>
<text x="686.5" y="490.0" font-size="11.0" fill="#898781" text-anchor="middle">07-20</text>
<text x="14.0" y="58.0" font-size="11.0" fill="#52514e">BOLL(20,2)</text>
<text x="84.5" y="58.0" font-size="11.0" fill="#eda100">UP:158.5</text>
<text x="142.9" y="58.0" font-size="11.0" fill="#2a78d6">MID:87.3</text>
<text x="201.3" y="58.0" font-size="11.0" fill="#e87ba4">LOW:16.1</text>
<text x="259.7" y="58.0" font-size="11.0" fill="#4a3aa7">MA7:98.6</text>
<line x1="10.0" y1="356.0" x2="830.0" y2="356.0" stroke="#e1e0d9" stroke-width="1.0"/>
<text x="14.0" y="353.0" font-size="11.0" fill="#898781">0</text>
<line x1="10.0" y1="279.7" x2="830.0" y2="279.7" stroke="#e1e0d9" stroke-width="1.0"/>
<text x="14.0" y="276.7" font-size="11.0" fill="#898781">50</text>
<line x1="10.0" y1="203.4" x2="830.0" y2="203.4" stroke="#e1e0d9" stroke-width="1.0"/>
<text x="14.0" y="200.4" font-size="11.0" fill="#898781">100</text>
<line x1="10.0" y1="127.1" x2="830.0" y2="127.1" stroke="#e1e0d9" stroke-width="1.0"/>
<text x="14.0" y="124.1" font-size="11.0" fill="#898781">150</text>
<polyline points="276.5,253.8 317.5,254.4 358.5,243.7 399.5,245.1 440.5,248.1 481.5,236.4 522.5,216.1 563.5,203.9 604.5,206.3 645.5,217.3 686.5,220.8 727.5,218.8 768.5,196.4 809.5,205.5" fill="none" stroke="#4a3aa7" stroke-width="1.5" stroke-linejoin="round" stroke-linecap="round"/>
<rect x="19.2" y="211.0" width="22.6" height="145.0" fill="none" stroke="#e34948" stroke-width="1.3"/>
<rect x="60.2" y="211.0" width="22.6" height="21.4" fill="#008300"/>
<rect x="101.2" y="232.4" width="22.6" height="13.7" fill="#008300"/>
<rect x="142.2" y="235.5" width="22.6" height="10.7" fill="none" stroke="#e34948" stroke-width="1.3"/>
<rect x="183.2" y="235.5" width="22.6" height="83.9" fill="#008300"/>
<rect x="224.2" y="259.9" width="22.6" height="59.5" fill="none" stroke="#e34948" stroke-width="1.3"/>
<rect x="265.2" y="259.9" width="22.6" height="12.2" fill="#008300"/>
<rect x="306.2" y="215.6" width="22.6" height="56.5" fill="none" stroke="#e34948" stroke-width="1.3"/>
<rect x="347.2" y="157.6" width="22.6" height="58.0" fill="none" stroke="#e34948" stroke-width="1.3"/>
<rect x="388.2" y="157.6" width="22.6" height="97.7" fill="#008300"/>
<rect x="429.2" y="255.3" width="22.6" height="1.5" fill="#008300"/>
<rect x="470.2" y="237.0" width="22.6" height="19.8" fill="none" stroke="#e34948" stroke-width="1.3"/>
<rect x="511.2" y="118.0" width="22.6" height="119.0" fill="none" stroke="#e34948" stroke-width="1.3"/>
<rect x="552.2" y="118.0" width="22.6" height="68.7" fill="#008300"/>
<rect x="593.2" y="232.4" width="22.6" height="123.6" fill="none" stroke="#e34948" stroke-width="1.3"/>
<rect x="634.2" y="232.4" width="22.6" height="3.1" fill="#008300"/>
<rect x="675.2" y="235.5" width="22.6" height="44.3" fill="#008300"/>
<rect x="716.2" y="243.1" width="22.6" height="36.6" fill="none" stroke="#e34948" stroke-width="1.3"/>
<rect x="757.2" y="79.8" width="22.6" height="163.3" fill="none" stroke="#e34948" stroke-width="1.3"/>
<rect x="798.2" y="79.8" width="22.6" height="102.2" fill="#008300"/>
<circle cx="768.5" cy="79.8" r="2" fill="#52514e"/>
<line x1="768.5" y1="79.8" x2="760.5" y2="79.8" stroke="#52514e" stroke-width="1.0"/>
<text x="757.5" y="83.8" font-size="11.0" fill="#52514e" text-anchor="end">181</text>
<circle cx="30.5" cy="356.0" r="2" fill="#52514e"/>
<line x1="30.5" y1="356.0" x2="38.5" y2="356.0" stroke="#52514e" stroke-width="1.0"/>
<text x="41.5" y="350.0" font-size="11.0" fill="#52514e">0</text>
<text x="14.0" y="376.0" font-size="11.0" fill="#52514e">VOL 14 forks</text>
<text x="96.6" y="376.0" font-size="11.0" fill="#eda100">MA5:12.4</text>
<text x="155.0" y="376.0" font-size="11.0" fill="#2a78d6">MA10:14.7</text>
<text x="14.0" y="395.0" font-size="10" fill="#898781">124</text>
<rect x="19.2" y="458.8" width="22.6" height="11.2" fill="none" stroke="#e34948" stroke-width="1.1"/>
<rect x="60.2" y="460.1" width="22.6" height="9.9" fill="#008300"/>
<rect x="101.2" y="462.1" width="22.6" height="7.9" fill="#008300"/>
<rect x="142.2" y="459.4" width="22.6" height="10.6" fill="none" stroke="#e34948" stroke-width="1.1"/>
<rect x="183.2" y="467.4" width="22.6" height="2.6" fill="#008300"/>
<rect x="224.2" y="461.4" width="22.6" height="8.6" fill="none" stroke="#e34948" stroke-width="1.1"/>
<rect x="265.2" y="469.3" width="22.6" height="0.7" fill="#008300"/>
<rect x="306.2" y="448.2" width="22.6" height="21.8" fill="none" stroke="#e34948" stroke-width="1.1"/>
<rect x="347.2" y="388.0" width="22.6" height="82.0" fill="none" stroke="#e34948" stroke-width="1.1"/>
<rect x="388.2" y="462.1" width="22.6" height="7.9" fill="#008300"/>
<rect x="429.2" y="466.7" width="22.6" height="3.3" fill="#008300"/>
<rect x="470.2" y="450.8" width="22.6" height="19.2" fill="none" stroke="#e34948" stroke-width="1.1"/>
<rect x="511.2" y="456.1" width="22.6" height="13.9" fill="none" stroke="#e34948" stroke-width="1.1"/>
<rect x="552.2" y="453.5" width="22.6" height="16.5" fill="#008300"/>
<rect x="593.2" y="466.7" width="22.6" height="3.3" fill="none" stroke="#e34948" stroke-width="1.1"/>
<rect x="634.2" y="463.4" width="22.6" height="6.6" fill="#008300"/>
<rect x="675.2" y="460.1" width="22.6" height="9.9" fill="#008300"/>
<rect x="716.2" y="464.0" width="22.6" height="6.0" fill="none" stroke="#e34948" stroke-width="1.1"/>
<rect x="757.2" y="460.7" width="22.6" height="9.3" fill="none" stroke="#e34948" stroke-width="1.1"/>
<rect x="798.2" y="460.7" width="22.6" height="9.3" fill="#008300"/>
<polyline points="399.5,453.7 440.5,454.5 481.5,453.5 522.5,452.9 563.5,452.3 604.5,452.3 645.5,452.5 686.5,451.6 727.5,453.1 768.5,460.4 809.5,460.3" fill="none" stroke="#2a78d6" stroke-width="1.5" stroke-linejoin="round" stroke-linecap="round"/>
<polyline points="194.5,461.5 235.5,462.1 276.5,463.9 317.5,461.1 358.5,446.9 399.5,445.8 440.5,446.9 481.5,443.2 522.5,444.7 563.5,457.8 604.5,458.8 645.5,458.1 686.5,459.9 727.5,461.5 768.5,463.0 809.5,461.8" fill="none" stroke="#eda100" stroke-width="1.5" stroke-linejoin="round" stroke-linecap="round"/>
</svg>