<svg xmlns="http://www.w3.org/2000/svg" viewBox="0 0 840 496" width="840" height="496" font-family="-apple-system,&#39;Segoe UI&#39;,system-ui,sans-serif" role="img" aria-label="freeCodeCamp/freeCodeCamp candlestick chart">
<text x="14.0" y="20.0" font-size="15" fill="#ffffff" font-weight="650">freeCodeCamp/freeCodeCamp</text>
<text x="224.2" y="20.0" font-size="11.5" fill="#c3c2b7">daily · new stars, volume = new forks</text>
<text x="805.8" y="20.0" font-size="11.0" fill="#c3c2b7">fall</text>
<rect x="791" y="10" width="9" height="12" fill="#008300"/>
<text x="750.6" y="20.0" font-size="11.0" fill="#c3c2b7">rise</text>
<rect x="736" y="10" width="9" height="12" fill="none" stroke="#e66767" stroke-width="1.5"/>
<text x="14.0" y="38.0" font-size="11.0" fill="#898781">last 16 days · +1,327 stars · +342 forks · updated 2026-07-19</text>
<rect x="10" y="66" width="820" height="290" fill="none" stroke="#2c2c2a"/>
<rect x="10" y="384" width="820" height="86" fill="none" stroke="#2c2c2a"/>
<text x="36.0" y="490.0" font-size="11.0" fill="#898781" text-anchor="middle">07-03</text>
<text x="189.4" y="490.0" font-size="11.0" fill="#898781" text-anchor="middle">07-06</text>
<text x="343.1" y="490.0" font-size="11.0" fill="#898781" text-anchor="middle">07-09</text>
<text x="496.9" y="490.0" font-size="11.0" fill="#898781" text-anchor="middle">07-12</text>
<text x="650.6" y="490.0" font-size="11.0" fill="#898781" text-anchor="middle">07-15</text>
<text x="804.0" y="490.0" font-size="11.0" fill="#898781" text-anchor="middle">07-19</text>
<text x="14.0" y="58.0" font-size="11.0" fill="#c3c2b7">BOLL(20,2)</text>
<text x="84.5" y="58.0" font-size="11.0" fill="#c98500">UP:—</text>
<text x="118.7" y="58.0" font-size="11.0" fill="#3987e5">MID:—</text>
<text x="158.9" y="58.0" font-size="11.0" fill="#d55181">LOW:—</text>
<text x="199.2" y="58.0" font-size="11.0" fill="#9085e9">MA7:90.9</text>
<line x1="10.0" y1="356.0" x2="830.0" y2="356.0" stroke="#2c2c2a" stroke-width="1.0"/>
<text x="14.0" y="353.0" font-size="11.0" fill="#898781">0</text>
<line x1="10.0" y1="267.5" x2="830.0" y2="267.5" stroke="#2c2c2a" stroke-width="1.0"/>
<text x="14.0" y="264.5" font-size="11.0" fill="#898781">50</text>
<line x1="10.0" y1="179.0" x2="830.0" y2="179.0" stroke="#2c2c2a" stroke-width="1.0"/>
<text x="14.0" y="176.0" font-size="11.0" fill="#898781">100</text>
<line x1="10.0" y1="90.4" x2="830.0" y2="90.4" stroke="#2c2c2a" stroke-width="1.0"/>
<text x="14.0" y="87.4" font-size="11.0" fill="#898781">150</text>
<polyline points="343.1,237.4 394.4,238.1 445.6,225.7 496.9,227.3 548.1,230.8 599.4,217.2 650.6,193.6 701.9,179.5 753.1,182.3 804.4,195.1" fill="none" stroke="#9085e9" stroke-width="1.5" stroke-linejoin="round" stroke-linecap="round"/>
<rect x="23.6" y="187.8" width="24.0" height="168.2" fill="none" stroke="#e66767" stroke-width="1.3"/>
<rect x="74.9" y="187.8" width="24.0" height="24.8" fill="#008300"/>
<rect x="126.1" y="212.6" width="24.0" height="15.9" fill="#008300"/>
<rect x="177.4" y="216.1" width="24.0" height="12.4" fill="none" stroke="#e66767" stroke-width="1.3"/>
<rect x="228.6" y="216.1" width="24.0" height="97.4" fill="#008300"/>
<rect x="279.9" y="244.5" width="24.0" height="69.0" fill="none" stroke="#e66767" stroke-width="1.3"/>
<rect x="331.1" y="244.5" width="24.0" height="14.2" fill="#008300"/>
<rect x="382.4" y="193.1" width="24.0" height="65.5" fill="none" stroke="#e66767" stroke-width="1.3"/>
<rect x="433.6" y="125.8" width="24.0" height="67.3" fill="none" stroke="#e66767" stroke-width="1.3"/>
<rect x="484.9" y="125.8" width="24.0" height="113.3" fill="#008300"/>
<rect x="536.1" y="239.2" width="24.0" height="1.8" fill="#008300"/>
<rect x="587.4" y="217.9" width="24.0" height="23.0" fill="none" stroke="#e66767" stroke-width="1.3"/>
<rect x="638.6" y="79.8" width="24.0" height="138.1" fill="none" stroke="#e66767" stroke-width="1.3"/>
<rect x="689.9" y="79.8" width="24.0" height="79.7" fill="#008300"/>
<rect x="741.1" y="212.6" width="24.0" height="143.4" fill="none" stroke="#e66767" stroke-width="1.3"/>
<rect x="792.4" y="212.6" width="24.0" height="3.5" fill="#008300"/>
<circle cx="650.6" cy="79.8" r="2" fill="#c3c2b7"/>
<line x1="650.6" y1="79.8" x2="642.6" y2="79.8" stroke="#c3c2b7" stroke-width="1.0"/>
<text x="639.6" y="83.8" font-size="11.0" fill="#c3c2b7" text-anchor="end">156</text>
<circle cx="35.6" cy="356.0" r="2" fill="#c3c2b7"/>
<line x1="35.6" y1="356.0" x2="43.6" y2="356.0" stroke="#c3c2b7" stroke-width="1.0"/>
<text x="46.6" y="350.0" font-size="11.0" fill="#c3c2b7">0</text>
<text x="14.0" y="376.0" font-size="11.0" fill="#c3c2b7">VOL 10 forks</text>
<text x="96.6" y="376.0" font-size="11.0" fill="#c98500">MA5:18</text>
<text x="142.9" y="376.0" font-size="11.0" fill="#3987e5">MA10:26.5</text>
<text x="14.0" y="395.0" font-size="10" fill="#898781">124</text>
<rect x="23.6" y="458.8" width="24.0" height="11.2" fill="none" stroke="#e66767" stroke-width="1.1"/>
<rect x="74.9" y="460.1" width="24.0" height="9.9" fill="#008300"/>
<rect x="126.1" y="462.1" width="24.0" height="7.9" fill="#008300"/>
<rect x="177.4" y="459.4" width="24.0" height="10.6" fill="none" stroke="#e66767" stroke-width="1.1"/>
<rect x="228.6" y="467.4" width="24.0" height="2.6" fill="#008300"/>
<rect x="279.9" y="461.4" width="24.0" height="8.6" fill="none" stroke="#e66767" stroke-width="1.1"/>
<rect x="331.1" y="469.3" width="24.0" height="0.7" fill="#008300"/>
<rect x="382.4" y="448.2" width="24.0" height="21.8" fill="none" stroke="#e66767" stroke-width="1.1"/>
<rect x="433.6" y="388.0" width="24.0" height="82.0" fill="none" stroke="#e66767" stroke-width="1.1"/>
<rect x="484.9" y="462.1" width="24.0" height="7.9" fill="#008300"/>
<rect x="536.1" y="466.7" width="24.0" height="3.3" fill="#008300"/>
<rect x="587.4" y="450.8" width="24.0" height="19.2" fill="none" stroke="#e66767" stroke-width="1.1"/>
<rect x="638.6" y="456.1" width="24.0" height="13.9" fill="none" stroke="#e66767" stroke-width="1.1"/>
<rect x="689.9" y="453.5" width="24.0" height="16.5" fill="#008300"/>
<rect x="741.1" y="466.7" width="24.0" height="3.3" fill="none" stroke="#e66767" stroke-width="1.1"/>
<rect x="792.4" y="463.4" width="24.0" height="6.6" fill="#008300"/>
<polyline points="496.9,453.7 548.1,454.5 599.4,453.5 650.6,452.9 701.9,452.3 753.1,452.3 804.4,452.5" fill="none" stroke="#3987e5" stroke-width="1.5" stroke-linejoin="round" stroke-linecap="round"/>
<polyline points="240.6,461.5 291.9,462.1 343.1,463.9 394.4,461.1 445.6,446.9 496.9,445.8 548.1,446.9 599.4,443.2 650.6,444.7 701.9,457.8 753.1,458.8 804.4,458.1" fill="none" stroke="#c98500" stroke-width="1.5" stroke-linejoin="round" stroke-linecap="round"/>
</svg>