<svg xmlns="http://www.w3.org/2000/svg" viewBox="0 0 840 496" width="840" height="496" font-family="-apple-system,&#39;Segoe UI&#39;,system-ui,sans-serif" role="img" aria-label="freeCodeCamp/freeCodeCamp candlestick chart">
<text x="14.0" y="20.0" font-size="15" fill="#0b0b0b" font-weight="650">freeCodeCamp/freeCodeCamp</text>
<text x="224.2" y="20.0" font-size="11.5" fill="#52514e">daily · new stars, volume = new forks</text>
<text x="805.8" y="20.0" font-size="11.0" fill="#52514e">fall</text>
<rect x="791" y="10" width="9" height="12" fill="#008300"/>
<text x="750.6" y="20.0" font-size="11.0" fill="#52514e">rise</text>
<rect x="736" y="10" width="9" height="12" fill="none" stroke="#e34948" stroke-width="1.5"/>
<text x="14.0" y="38.0" font-size="11.0" fill="#898781">last 5 days · +351 stars · +64 forks · updated 2026-07-07</text>
<rect x="10" y="66" width="820" height="290" fill="none" stroke="#e1e0d9"/>
<rect x="10" y="384" width="820" height="86" fill="none" stroke="#e1e0d9"/>
<text x="92.0" y="490.0" font-size="11.0" fill="#898781" text-anchor="middle">07-03</text>
<text x="256.0" y="490.0" font-size="11.0" fill="#898781" text-anchor="middle">07-04</text>
<text x="420.0" y="490.0" font-size="11.0" fill="#898781" text-anchor="middle">07-05</text>
<text x="584.0" y="490.0" font-size="11.0" fill="#898781" text-anchor="middle">07-06</text>
<text x="748.0" y="490.0" font-size="11.0" fill="#898781" text-anchor="middle">07-07</text>
<text x="14.0" y="58.0" font-size="11.0" fill="#52514e">BOLL(20,2)</text>
<text x="84.5" y="58.0" font-size="11.0" fill="#eda100">UP:—</text>
<text x="118.7" y="58.0" font-size="11.0" fill="#2a78d6">MID:—</text>
<text x="158.9" y="58.0" font-size="11.0" fill="#e87ba4">LOW:—</text>
<text x="199.2" y="58.0" font-size="11.0" fill="#4a3aa7">MA7:—</text>
<line x1="10.0" y1="356.0" x2="830.0" y2="356.0" stroke="#e1e0d9" stroke-width="1.0"/>
<text x="14.0" y="353.0" font-size="11.0" fill="#898781">0</text>
<line x1="10.0" y1="210.6" x2="830.0" y2="210.6" stroke="#e1e0d9" stroke-width="1.0"/>
<text x="14.0" y="207.6" font-size="11.0" fill="#898781">50</text>
<rect x="80.0" y="79.8" width="24.0" height="276.2" fill="none" stroke="#e34948" stroke-width="1.3"/>
<rect x="244.0" y="79.8" width="24.0" height="40.7" fill="#008300"/>
<rect x="408.0" y="120.5" width="24.0" height="26.2" fill="#008300"/>
<rect x="572.0" y="126.3" width="24.0" height="20.4" fill="none" stroke="#e34948" stroke-width="1.3"/>
<rect x="736.0" y="126.3" width="24.0" height="159.9" fill="#008300"/>
<circle cx="92.0" cy="79.8" r="2" fill="#52514e"/>
<line x1="92.0" y1="79.8" x2="100.0" y2="79.8" stroke="#52514e" stroke-width="1.0"/>
<text x="103.0" y="83.8" font-size="11.0" fill="#52514e">95</text>
<circle cx="92.0" cy="356.0" r="2" fill="#52514e"/>
<line x1="92.0" y1="356.0" x2="100.0" y2="356.0" stroke="#52514e" stroke-width="1.0"/>
<text x="103.0" y="350.0" font-size="11.0" fill="#52514e">0</text>
<text x="14.0" y="376.0" font-size="11.0" fill="#52514e">VOL 4 forks</text>
<text x="90.5" y="376.0" font-size="11.0" fill="#eda100">MA5:12.8</text>
<text x="148.9" y="376.0" font-size="11.0" fill="#2a78d6">MA10:—</text>
<text x="14.0" y="395.0" font-size="10" fill="#898781">17</text>
<rect x="80.0" y="388.0" width="24.0" height="82.0" fill="none" stroke="#e34948" stroke-width="1.1"/>
<rect x="244.0" y="397.6" width="24.0" height="72.4" fill="#008300"/>
<rect x="408.0" y="412.1" width="24.0" height="57.9" fill="#008300"/>
<rect x="572.0" y="392.8" width="24.0" height="77.2" fill="none" stroke="#e34948" stroke-width="1.1"/>
<rect x="736.0" y="450.7" width="24.0" height="19.3" fill="#008300"/>
</svg>