<svg xmlns="http://www.w3.org/2000/svg" viewBox="0 0 840 496" width="840" height="496" font-family="-apple-system,&#39;Segoe UI&#39;,system-ui,sans-serif" role="img" aria-label="freeCodeCamp/freeCodeCamp candlestick chart">
<text x="14.0" y="20.0" font-size="15" fill="#ffffff" font-weight="650">freeCodeCamp/freeCodeCamp</text>
<text x="224.2" y="20.0" font-size="11.5" fill="#c3c2b7">daily · new stars, volume = new forks</text>
<text x="805.8" y="20.0" font-size="11.0" fill="#c3c2b7">fall</text>
<rect x="791" y="10" width="9" height="12" fill="#008300"/>
<text x="750.6" y="20.0" font-size="11.0" fill="#c3c2b7">rise</text>
<rect x="736" y="10" width="9" height="12" fill="none" stroke="#e66767" stroke-width="1.5"/>
<text x="14.0" y="38.0" font-size="11.0" fill="#898781">last 12 days · +900 stars · +281 forks · updated 2026-07-14</text>
<rect x="10" y="66" width="820" height="290" fill="none" stroke="#2c2c2a"/>
<rect x="10" y="384" width="820" height="86" fill="none" stroke="#2c2c2a"/>
<text x="44.2" y="490.0" font-size="11.0" fill="#898781" text-anchor="middle">07-03</text>
<text x="180.8" y="490.0" font-size="11.0" fill="#898781" text-anchor="middle">07-05</text>
<text x="317.5" y="490.0" font-size="11.0" fill="#898781" text-anchor="middle">07-07</text>
<text x="454.2" y="490.0" font-size="11.0" fill="#898781" text-anchor="middle">07-09</text>
<text x="590.8" y="490.0" font-size="11.0" fill="#898781" text-anchor="middle">07-11</text>
<text x="727.5" y="490.0" font-size="11.0" fill="#898781" text-anchor="middle">07-13</text>
<text x="14.0" y="58.0" font-size="11.0" fill="#c3c2b7">BOLL(20,2)</text>
<text x="84.5" y="58.0" font-size="11.0" fill="#c98500">UP:—</text>
<text x="118.7" y="58.0" font-size="11.0" fill="#3987e5">MID:—</text>
<text x="158.9" y="58.0" font-size="11.0" fill="#d55181">LOW:—</text>
<text x="199.2" y="58.0" font-size="11.0" fill="#9085e9">MA7:78.4</text>
<line x1="10.0" y1="356.0" x2="830.0" y2="356.0" stroke="#2c2c2a" stroke-width="1.0"/>
<text x="14.0" y="353.0" font-size="11.0" fill="#898781">0</text>
<line x1="10.0" y1="249.8" x2="830.0" y2="249.8" stroke="#2c2c2a" stroke-width="1.0"/>
<text x="14.0" y="246.8" font-size="11.0" fill="#898781">50</text>
<line x1="10.0" y1="143.5" x2="830.0" y2="143.5" stroke="#2c2c2a" stroke-width="1.0"/>
<text x="14.0" y="140.5" font-size="11.0" fill="#898781">100</text>
<polyline points="454.2,213.7 522.5,214.5 590.8,199.6 659.2,201.5 727.5,205.8 795.8,189.4" fill="none" stroke="#9085e9" stroke-width="1.5" stroke-linejoin="round" stroke-linecap="round"/>
<rect x="32.2" y="154.2" width="24.0" height="201.8" fill="none" stroke="#e66767" stroke-width="1.3"/>
<rect x="100.5" y="154.2" width="24.0" height="29.7" fill="#008300"/>
<rect x="168.8" y="183.9" width="24.0" height="19.1" fill="#008300"/>
<rect x="237.2" y="188.2" width="24.0" height="14.9" fill="none" stroke="#e66767" stroke-width="1.3"/>
<rect x="305.5" y="188.2" width="24.0" height="116.8" fill="#008300"/>
<rect x="373.8" y="222.2" width="24.0" height="82.9" fill="none" stroke="#e66767" stroke-width="1.3"/>
<rect x="442.2" y="222.2" width="24.0" height="17.0" fill="#008300"/>
<rect x="510.5" y="160.5" width="24.0" height="78.6" fill="none" stroke="#e66767" stroke-width="1.3"/>
<rect x="578.8" y="79.8" width="24.0" height="80.7" fill="none" stroke="#e66767" stroke-width="1.3"/>
<rect x="647.2" y="79.8" width="24.0" height="136.0" fill="#008300"/>
<rect x="715.5" y="215.8" width="24.0" height="2.1" fill="#008300"/>
<rect x="783.8" y="190.3" width="24.0" height="27.6" fill="none" stroke="#e66767" stroke-width="1.3"/>
<circle cx="590.8" cy="79.8" r="2" fill="#c3c2b7"/>
<line x1="590.8" y1="79.8" x2="582.8" y2="79.8" stroke="#c3c2b7" stroke-width="1.0"/>
<text x="579.8" y="83.8" font-size="11.0" fill="#c3c2b7" text-anchor="end">130</text>
<circle cx="44.2" cy="356.0" r="2" fill="#c3c2b7"/>
<line x1="44.2" y1="356.0" x2="52.2" y2="356.0" stroke="#c3c2b7" stroke-width="1.0"/>
<text x="55.2" y="350.0" font-size="11.0" fill="#c3c2b7">0</text>
<text x="14.0" y="376.0" font-size="11.0" fill="#c3c2b7">VOL 29 forks</text>
<text x="96.6" y="376.0" font-size="11.0" fill="#c98500">MA5:40.6</text>
<text x="155.0" y="376.0" font-size="11.0" fill="#3987e5">MA10:24.9</text>
<text x="14.0" y="395.0" font-size="10" fill="#898781">124</text>
<rect x="32.2" y="458.8" width="24.0" height="11.2" fill="none" stroke="#e66767" stroke-width="1.1"/>
<rect x="100.5" y="460.1" width="24.0" height="9.9" fill="#008300"/>
<rect x="168.8" y="462.1" width="24.0" height="7.9" fill="#008300"/>
<rect x="237.2" y="459.4" width="24.0" height="10.6" fill="none" stroke="#e66767" stroke-width="1.1"/>
<rect x="305.5" y="467.4" width="24.0" height="2.6" fill="#008300"/>
<rect x="373.8" y="461.4" width="24.0" height="8.6" fill="none" stroke="#e66767" stroke-width="1.1"/>
<rect x="442.2" y="469.3" width="24.0" height="0.7" fill="#008300"/>
<rect x="510.5" y="448.2" width="24.0" height="21.8" fill="none" stroke="#e66767" stroke-width="1.1"/>
<rect x="578.8" y="388.0" width="24.0" height="82.0" fill="none" stroke="#e66767" stroke-width="1.1"/>
<rect x="647.2" y="462.1" width="24.0" height="7.9" fill="#008300"/>
<rect x="715.5" y="466.7" width="24.0" height="3.3" fill="#008300"/>
<rect x="783.8" y="450.8" width="24.0" height="19.2" fill="none" stroke="#e66767" stroke-width="1.1"/>
<polyline points="659.2,453.7 727.5,454.5 795.8,453.5" fill="none" stroke="#3987e5" stroke-width="1.5" stroke-linejoin="round" stroke-linecap="round"/>
<polyline points="317.5,461.5 385.8,462.1 454.2,463.9 522.5,461.1 590.8,446.9 659.2,445.8 727.5,446.9 795.8,443.2" fill="none" stroke="#c98500" stroke-width="1.5" stroke-linejoin="round" stroke-linecap="round"/>
</svg>