<svg xmlns="http://www.w3.org/2000/svg" viewBox="0 0 840 496" width="840" height="496" font-family="-apple-system,&#39;Segoe UI&#39;,system-ui,sans-serif" role="img" aria-label="freeCodeCamp/freeCodeCamp candlestick chart">
<text x="14.0" y="20.0" font-size="15" fill="#ffffff" font-weight="650">freeCodeCamp/freeCodeCamp</text>
<text x="224.2" y="20.0" font-size="11.5" fill="#c3c2b7">daily · new stars, volume = new forks</text>
<text x="805.8" y="20.0" font-size="11.0" fill="#c3c2b7">fall</text>
<rect x="791" y="10" width="9" height="12" fill="#008300"/>
<text x="750.6" y="20.0" font-size="11.0" fill="#c3c2b7">rise</text>
<rect x="736" y="10" width="9" height="12" fill="none" stroke="#e66767" stroke-width="1.5"/>
<text x="14.0" y="38.0" font-size="11.0" fill="#898781">last 18 days · +1,451 stars · +366 forks · updated 2026-07-21</text>
<rect x="10" y="66" width="820" height="290" fill="none" stroke="#2c2c2a"/>
<rect x="10" y="384" width="820" height="86" fill="none" stroke="#2c2c2a"/>
<text x="36.0" y="490.0" font-size="11.0" fill="#898781" text-anchor="middle">07-03</text>
<text x="169.4" y="490.0" font-size="11.0" fill="#898781" text-anchor="middle">07-06</text>
<text x="306.1" y="490.0" font-size="11.0" fill="#898781" text-anchor="middle">07-09</text>
<text x="442.8" y="490.0" font-size="11.0" fill="#898781" text-anchor="middle">07-12</text>
<text x="579.4" y="490.0" font-size="11.0" fill="#898781" text-anchor="middle">07-15</text>
<text x="716.1" y="490.0" font-size="11.0" fill="#898781" text-anchor="middle">07-19</text>
<text x="14.0" y="58.0" font-size="11.0" fill="#c3c2b7">BOLL(20,2)</text>
<text x="84.5" y="58.0" font-size="11.0" fill="#c98500">UP:—</text>
<text x="118.7" y="58.0" font-size="11.0" fill="#3987e5">MID:—</text>
<text x="158.9" y="58.0" font-size="11.0" fill="#d55181">LOW:—</text>
<text x="199.2" y="58.0" font-size="11.0" fill="#9085e9">MA7:89.9</text>
<line x1="10.0" y1="356.0" x2="830.0" y2="356.0" stroke="#2c2c2a" stroke-width="1.0"/>
<text x="14.0" y="353.0" font-size="11.0" fill="#898781">0</text>
<line x1="10.0" y1="267.5" x2="830.0" y2="267.5" stroke="#2c2c2a" stroke-width="1.0"/>
<text x="14.0" y="264.5" font-size="11.0" fill="#898781">50</text>
<line x1="10.0" y1="179.0" x2="830.0" y2="179.0" stroke="#2c2c2a" stroke-width="1.0"/>
<text x="14.0" y="176.0" font-size="11.0" fill="#898781">100</text>
<line x1="10.0" y1="90.4" x2="830.0" y2="90.4" stroke="#2c2c2a" stroke-width="1.0"/>
<text x="14.0" y="87.4" font-size="11.0" fill="#898781">150</text>
<polyline points="306.1,237.4 351.7,238.1 397.2,225.7 442.8,227.3 488.3,230.8 533.9,217.2 579.4,193.6 625.0,179.5 670.6,182.3 716.1,195.1 761.7,199.1 807.2,196.8" fill="none" stroke="#9085e9" stroke-width="1.5" stroke-linejoin="round" stroke-linecap="round"/>
<rect x="20.8" y="187.8" width="24.0" height="168.2" fill="none" stroke="#e66767" stroke-width="1.3"/>
<rect x="66.3" y="187.8" width="24.0" height="24.8" fill="#008300"/>
<rect x="111.9" y="212.6" width="24.0" height="15.9" fill="#008300"/>
<rect x="157.4" y="216.1" width="24.0" height="12.4" fill="none" stroke="#e66767" stroke-width="1.3"/>
<rect x="203.0" y="216.1" width="24.0" height="97.4" fill="#008300"/>
<rect x="248.6" y="244.5" width="24.0" height="69.0" fill="none" stroke="#e66767" stroke-width="1.3"/>
<rect x="294.1" y="244.5" width="24.0" height="14.2" fill="#008300"/>
<rect x="339.7" y="193.1" width="24.0" height="65.5" fill="none" stroke="#e66767" stroke-width="1.3"/>
<rect x="385.2" y="125.8" width="24.0" height="67.3" fill="none" stroke="#e66767" stroke-width="1.3"/>
<rect x="430.8" y="125.8" width="24.0" height="113.3" fill="#008300"/>
<rect x="476.3" y="239.2" width="24.0" height="1.8" fill="#008300"/>
<rect x="521.9" y="217.9" width="24.0" height="23.0" fill="none" stroke="#e66767" stroke-width="1.3"/>
<rect x="567.4" y="79.8" width="24.0" height="138.1" fill="none" stroke="#e66767" stroke-width="1.3"/>
<rect x="613.0" y="79.8" width="24.0" height="79.7" fill="#008300"/>
<rect x="658.6" y="212.6" width="24.0" height="143.4" fill="none" stroke="#e66767" stroke-width="1.3"/>
<rect x="704.1" y="212.6" width="24.0" height="3.5" fill="#008300"/>
<rect x="749.7" y="216.1" width="24.0" height="51.3" fill="#008300"/>
<rect x="795.2" y="225.0" width="24.0" height="42.5" fill="none" stroke="#e66767" stroke-width="1.3"/>
<circle cx="579.4" cy="79.8" r="2" fill="#c3c2b7"/>
<line x1="579.4" y1="79.8" x2="571.4" y2="79.8" stroke="#c3c2b7" stroke-width="1.0"/>
<text x="568.4" y="83.8" font-size="11.0" fill="#c3c2b7" text-anchor="end">156</text>
<circle cx="32.8" cy="356.0" r="2" fill="#c3c2b7"/>
<line x1="32.8" y1="356.0" x2="40.8" y2="356.0" stroke="#c3c2b7" stroke-width="1.0"/>
<text x="43.8" y="350.0" font-size="11.0" fill="#c3c2b7">0</text>
<text x="14.0" y="376.0" font-size="11.0" fill="#c3c2b7">VOL 9 forks</text>
<text x="90.6" y="376.0" font-size="11.0" fill="#c98500">MA5:12.8</text>
<text x="149.0" y="376.0" font-size="11.0" fill="#3987e5">MA10:25.5</text>
<text x="14.0" y="395.0" font-size="10" fill="#898781">124</text>
<rect x="20.8" y="458.8" width="24.0" height="11.2" fill="none" stroke="#e66767" stroke-width="1.1"/>
<rect x="66.3" y="460.1" width="24.0" height="9.9" fill="#008300"/>
<rect x="111.9" y="462.1" width="24.0" height="7.9" fill="#008300"/>
<rect x="157.4" y="459.4" width="24.0" height="10.6" fill="none" stroke="#e66767" stroke-width="1.1"/>
<rect x="203.0" y="467.4" width="24.0" height="2.6" fill="#008300"/>
<rect x="248.6" y="461.4" width="24.0" height="8.6" fill="none" stroke="#e66767" stroke-width="1.1"/>
<rect x="294.1" y="469.3" width="24.0" height="0.7" fill="#008300"/>
<rect x="339.7" y="448.2" width="24.0" height="21.8" fill="none" stroke="#e66767" stroke-width="1.1"/>
<rect x="385.2" y="388.0" width="24.0" height="82.0" fill="none" stroke="#e66767" stroke-width="1.1"/>
<rect x="430.8" y="462.1" width="24.0" height="7.9" fill="#008300"/>
<rect x="476.3" y="466.7" width="24.0" height="3.3" fill="#008300"/>
<rect x="521.9" y="450.8" width="24.0" height="19.2" fill="none" stroke="#e66767" stroke-width="1.1"/>
<rect x="567.4" y="456.1" width="24.0" height="13.9" fill="none" stroke="#e66767" stroke-width="1.1"/>
<rect x="613.0" y="453.5" width="24.0" height="16.5" fill="#008300"/>
<rect x="658.6" y="466.7" width="24.0" height="3.3" fill="none" stroke="#e66767" stroke-width="1.1"/>
<rect x="704.1" y="463.4" width="24.0" height="6.6" fill="#008300"/>
<rect x="749.7" y="460.1" width="24.0" height="9.9" fill="#008300"/>
<rect x="795.2" y="464.0" width="24.0" height="6.0" fill="none" stroke="#e66767" stroke-width="1.1"/>
<polyline points="442.8,453.7 488.3,454.5 533.9,453.5 579.4,452.9 625.0,452.3 670.6,452.3 716.1,452.5 761.7,451.6 807.2,453.1" fill="none" stroke="#3987e5" stroke-width="1.5" stroke-linejoin="round" stroke-linecap="round"/>
<polyline points="215.0,461.5 260.6,462.1 306.1,463.9 351.7,461.1 397.2,446.9 442.8,445.8 488.3,446.9 533.9,443.2 579.4,444.7 625.0,457.8 670.6,458.8 716.1,458.1 761.7,459.9 807.2,461.5" fill="none" stroke="#c98500" stroke-width="1.5" stroke-linejoin="round" stroke-linecap="round"/>
</svg>