<svg xmlns="http://www.w3.org/2000/svg" viewBox="0 0 840 496" width="840" height="496" font-family="-apple-system,&#39;Segoe UI&#39;,system-ui,sans-serif" role="img" aria-label="freeCodeCamp/freeCodeCamp candlestick chart">
<text x="14.0" y="20.0" font-size="15" fill="#0b0b0b" font-weight="650">freeCodeCamp/freeCodeCamp</text>
<text x="224.2" y="20.0" font-size="11.5" fill="#52514e">daily · new stars, volume = new forks</text>
<text x="805.8" y="20.0" font-size="11.0" fill="#52514e">fall</text>
<rect x="791" y="10" width="9" height="12" fill="#008300"/>
<text x="750.6" y="20.0" font-size="11.0" fill="#52514e">rise</text>
<rect x="736" y="10" width="9" height="12" fill="none" stroke="#e34948" stroke-width="1.5"/>
<text x="14.0" y="38.0" font-size="11.0" fill="#898781">last 9 days · +691 stars · +235 forks · updated 2026-07-11</text>
<rect x="10" y="66" width="820" height="290" fill="none" stroke="#e1e0d9"/>
<rect x="10" y="384" width="820" height="86" fill="none" stroke="#e1e0d9"/>
<text x="55.6" y="490.0" font-size="11.0" fill="#898781" text-anchor="middle">07-03</text>
<text x="237.8" y="490.0" font-size="11.0" fill="#898781" text-anchor="middle">07-05</text>
<text x="420.0" y="490.0" font-size="11.0" fill="#898781" text-anchor="middle">07-07</text>
<text x="602.2" y="490.0" font-size="11.0" fill="#898781" text-anchor="middle">07-09</text>
<text x="784.4" y="490.0" font-size="11.0" fill="#898781" text-anchor="middle">07-11</text>
<text x="14.0" y="58.0" font-size="11.0" fill="#52514e">BOLL(20,2)</text>
<text x="84.5" y="58.0" font-size="11.0" fill="#eda100">UP:—</text>
<text x="118.7" y="58.0" font-size="11.0" fill="#2a78d6">MID:—</text>
<text x="158.9" y="58.0" font-size="11.0" fill="#e87ba4">LOW:—</text>
<text x="199.2" y="58.0" font-size="11.0" fill="#4a3aa7">MA7:73.6</text>
<line x1="10.0" y1="356.0" x2="830.0" y2="356.0" stroke="#e1e0d9" stroke-width="1.0"/>
<text x="14.0" y="353.0" font-size="11.0" fill="#898781">0</text>
<line x1="10.0" y1="249.8" x2="830.0" y2="249.8" stroke="#e1e0d9" stroke-width="1.0"/>
<text x="14.0" y="246.8" font-size="11.0" fill="#898781">50</text>
<line x1="10.0" y1="143.5" x2="830.0" y2="143.5" stroke="#e1e0d9" stroke-width="1.0"/>
<text x="14.0" y="140.5" font-size="11.0" fill="#898781">100</text>
<polyline points="602.2,213.7 693.3,214.5 784.4,199.6" fill="none" stroke="#4a3aa7" stroke-width="1.5" stroke-linejoin="round" stroke-linecap="round"/>
<rect x="43.6" y="154.2" width="24.0" height="201.8" fill="none" stroke="#e34948" stroke-width="1.3"/>
<rect x="134.7" y="154.2" width="24.0" height="29.7" fill="#008300"/>
<rect x="225.8" y="183.9" width="24.0" height="19.1" fill="#008300"/>
<rect x="316.9" y="188.2" width="24.0" height="14.9" fill="none" stroke="#e34948" stroke-width="1.3"/>
<rect x="408.0" y="188.2" width="24.0" height="116.8" fill="#008300"/>
<rect x="499.1" y="222.2" width="24.0" height="82.9" fill="none" stroke="#e34948" stroke-width="1.3"/>
<rect x="590.2" y="222.2" width="24.0" height="17.0" fill="#008300"/>
<rect x="681.3" y="160.5" width="24.0" height="78.6" fill="none" stroke="#e34948" stroke-width="1.3"/>
<rect x="772.4" y="79.8" width="24.0" height="80.7" fill="none" stroke="#e34948" stroke-width="1.3"/>
<circle cx="784.4" cy="79.8" r="2" fill="#52514e"/>
<line x1="784.4" y1="79.8" x2="776.4" y2="79.8" stroke="#52514e" stroke-width="1.0"/>
<text x="773.4" y="83.8" font-size="11.0" fill="#52514e" text-anchor="end">130</text>
<circle cx="55.6" cy="356.0" r="2" fill="#52514e"/>
<line x1="55.6" y1="356.0" x2="63.6" y2="356.0" stroke="#52514e" stroke-width="1.0"/>
<text x="66.6" y="350.0" font-size="11.0" fill="#52514e">0</text>
<text x="14.0" y="376.0" font-size="11.0" fill="#52514e">VOL 124 forks</text>
<text x="102.7" y="376.0" font-size="11.0" fill="#eda100">MA5:35</text>
<text x="149.0" y="376.0" font-size="11.0" fill="#2a78d6">MA10:—</text>
<text x="14.0" y="395.0" font-size="10" fill="#898781">124</text>
<rect x="43.6" y="458.8" width="24.0" height="11.2" fill="none" stroke="#e34948" stroke-width="1.1"/>
<rect x="134.7" y="460.1" width="24.0" height="9.9" fill="#008300"/>
<rect x="225.8" y="462.1" width="24.0" height="7.9" fill="#008300"/>
<rect x="316.9" y="459.4" width="24.0" height="10.6" fill="none" stroke="#e34948" stroke-width="1.1"/>
<rect x="408.0" y="467.4" width="24.0" height="2.6" fill="#008300"/>
<rect x="499.1" y="461.4" width="24.0" height="8.6" fill="none" stroke="#e34948" stroke-width="1.1"/>
<rect x="590.2" y="469.3" width="24.0" height="0.7" fill="#008300"/>
<rect x="681.3" y="448.2" width="24.0" height="21.8" fill="none" stroke="#e34948" stroke-width="1.1"/>
<rect x="772.4" y="388.0" width="24.0" height="82.0" fill="none" stroke="#e34948" stroke-width="1.1"/>
<polyline points="420.0,461.5 511.1,462.1 602.2,463.9 693.3,461.1 784.4,446.9" fill="none" stroke="#eda100" stroke-width="1.5" stroke-linejoin="round" stroke-linecap="round"/>
</svg>