<svg xmlns="http://www.w3.org/2000/svg" viewBox="0 0 840 496" width="840" height="496" font-family="-apple-system,&#39;Segoe UI&#39;,system-ui,sans-serif" role="img" aria-label="freeCodeCamp/freeCodeCamp candlestick chart">
<text x="14.0" y="20.0" font-size="15" fill="#0b0b0b" font-weight="650">freeCodeCamp/freeCodeCamp</text>
<text x="224.2" y="20.0" font-size="11.5" fill="#52514e">daily · new stars, volume = new forks</text>
<text x="805.8" y="20.0" font-size="11.0" fill="#52514e">fall</text>
<rect x="791" y="10" width="9" height="12" fill="#008300"/>
<text x="750.6" y="20.0" font-size="11.0" fill="#52514e">rise</text>
<rect x="736" y="10" width="9" height="12" fill="none" stroke="#e34948" stroke-width="1.5"/>
<text x="14.0" y="38.0" font-size="11.0" fill="#898781">last 8 days · +561 stars · +111 forks · updated 2026-07-10</text>
<rect x="10" y="66" width="820" height="290" fill="none" stroke="#e1e0d9"/>
<rect x="10" y="384" width="820" height="86" fill="none" stroke="#e1e0d9"/>
<text x="61.2" y="490.0" font-size="11.0" fill="#898781" text-anchor="middle">07-03</text>
<text x="266.2" y="490.0" font-size="11.0" fill="#898781" text-anchor="middle">07-05</text>
<text x="471.2" y="490.0" font-size="11.0" fill="#898781" text-anchor="middle">07-07</text>
<text x="676.2" y="490.0" font-size="11.0" fill="#898781" text-anchor="middle">07-09</text>
<text x="14.0" y="58.0" font-size="11.0" fill="#52514e">BOLL(20,2)</text>
<text x="84.5" y="58.0" font-size="11.0" fill="#eda100">UP:—</text>
<text x="118.7" y="58.0" font-size="11.0" fill="#2a78d6">MID:—</text>
<text x="158.9" y="58.0" font-size="11.0" fill="#e87ba4">LOW:—</text>
<text x="199.2" y="58.0" font-size="11.0" fill="#4a3aa7">MA7:66.6</text>
<line x1="10.0" y1="356.0" x2="830.0" y2="356.0" stroke="#e1e0d9" stroke-width="1.0"/>
<text x="14.0" y="353.0" font-size="11.0" fill="#898781">0</text>
<line x1="10.0" y1="210.6" x2="830.0" y2="210.6" stroke="#e1e0d9" stroke-width="1.0"/>
<text x="14.0" y="207.6" font-size="11.0" fill="#898781">50</text>
<polyline points="676.2,161.2 778.8,162.4" fill="none" stroke="#4a3aa7" stroke-width="1.5" stroke-linejoin="round" stroke-linecap="round"/>
<rect x="49.2" y="79.8" width="24.0" height="276.2" fill="none" stroke="#e34948" stroke-width="1.3"/>
<rect x="151.8" y="79.8" width="24.0" height="40.7" fill="#008300"/>
<rect x="254.2" y="120.5" width="24.0" height="26.2" fill="#008300"/>
<rect x="356.8" y="126.3" width="24.0" height="20.4" fill="none" stroke="#e34948" stroke-width="1.3"/>
<rect x="459.2" y="126.3" width="24.0" height="159.9" fill="#008300"/>
<rect x="561.8" y="172.8" width="24.0" height="113.4" fill="none" stroke="#e34948" stroke-width="1.3"/>
<rect x="664.2" y="172.8" width="24.0" height="23.3" fill="#008300"/>
<rect x="766.8" y="88.5" width="24.0" height="107.6" fill="none" stroke="#e34948" stroke-width="1.3"/>
<circle cx="61.2" cy="79.8" r="2" fill="#52514e"/>
<line x1="61.2" y1="79.8" x2="69.2" y2="79.8" stroke="#52514e" stroke-width="1.0"/>
<text x="72.2" y="83.8" font-size="11.0" fill="#52514e">95</text>
<circle cx="61.2" cy="356.0" r="2" fill="#52514e"/>
<line x1="61.2" y1="356.0" x2="69.2" y2="356.0" stroke="#52514e" stroke-width="1.0"/>
<text x="72.2" y="350.0" font-size="11.0" fill="#52514e">0</text>
<text x="14.0" y="376.0" font-size="11.0" fill="#52514e">VOL 33 forks</text>
<text x="96.6" y="376.0" font-size="11.0" fill="#eda100">MA5:13.4</text>
<text x="155.0" y="376.0" font-size="11.0" fill="#2a78d6">MA10:—</text>
<text x="14.0" y="395.0" font-size="10" fill="#898781">33</text>
<rect x="49.2" y="427.8" width="24.0" height="42.2" fill="none" stroke="#e34948" stroke-width="1.1"/>
<rect x="151.8" y="432.7" width="24.0" height="37.3" fill="#008300"/>
<rect x="254.2" y="440.2" width="24.0" height="29.8" fill="#008300"/>
<rect x="356.8" y="430.2" width="24.0" height="39.8" fill="none" stroke="#e34948" stroke-width="1.1"/>
<rect x="459.2" y="460.1" width="24.0" height="9.9" fill="#008300"/>
<rect x="561.8" y="437.7" width="24.0" height="32.3" fill="none" stroke="#e34948" stroke-width="1.1"/>
<rect x="664.2" y="467.5" width="24.0" height="2.5" fill="#008300"/>
<rect x="766.8" y="388.0" width="24.0" height="82.0" fill="none" stroke="#e34948" stroke-width="1.1"/>
<polyline points="471.2,438.2 573.8,440.2 676.2,447.1 778.8,436.7" fill="none" stroke="#eda100" stroke-width="1.5" stroke-linejoin="round" stroke-linecap="round"/>
</svg>