<svg xmlns="http://www.w3.org/2000/svg" viewBox="0 0 840 496" width="840" height="496" font-family="-apple-system,&#39;Segoe UI&#39;,system-ui,sans-serif" role="img" aria-label="996icu/996.ICU candlestick chart">
<text x="14.0" y="20.0" font-size="15" fill="#ffffff" font-weight="650">996icu/996.ICU</text>
<text x="133.5" y="20.0" font-size="11.5" fill="#c3c2b7">daily · new stars, volume = new forks</text>
<text x="805.8" y="20.0" font-size="11.0" fill="#c3c2b7">fall</text>
<rect x="791" y="10" width="9" height="12" fill="#008300"/>
<text x="750.6" y="20.0" font-size="11.0" fill="#c3c2b7">rise</text>
<rect x="736" y="10" width="9" height="12" fill="none" stroke="#e66767" stroke-width="1.5"/>
<text x="14.0" y="38.0" font-size="11.0" fill="#898781">last 60 days · +630 stars · +18 forks · updated 2026-07-23</text>
<rect x="10" y="66" width="820" height="290" fill="none" stroke="#2c2c2a"/>
<rect x="10" y="384" width="820" height="86" fill="none" stroke="#2c2c2a"/>
<text x="38.0" y="490.0" font-size="11.0" fill="#898781" text-anchor="middle">2026-05</text>
<line x1="160.3" y1="66.0" x2="160.3" y2="356.0" stroke="#2c2c2a" stroke-width="1.0"/>
<line x1="160.3" y1="384.0" x2="160.3" y2="470.0" stroke="#2c2c2a" stroke-width="1.0"/>
<text x="167.2" y="490.0" font-size="11.0" fill="#898781" text-anchor="middle">2026-06</text>
<line x1="570.3" y1="66.0" x2="570.3" y2="356.0" stroke="#2c2c2a" stroke-width="1.0"/>
<line x1="570.3" y1="384.0" x2="570.3" y2="470.0" stroke="#2c2c2a" stroke-width="1.0"/>
<text x="577.2" y="490.0" font-size="11.0" fill="#898781" text-anchor="middle">2026-07</text>
<text x="14.0" y="58.0" font-size="11.0" fill="#c3c2b7">BOLL(20,2)</text>
<text x="84.5" y="58.0" font-size="11.0" fill="#c98500">UP:20.4</text>
<text x="136.9" y="58.0" font-size="11.0" fill="#3987e5">MID:8.9</text>
<text x="189.2" y="58.0" font-size="11.0" fill="#d55181">LOW:0</text>
<text x="229.5" y="58.0" font-size="11.0" fill="#9085e9">MA7:10</text>
<line x1="10.0" y1="356.0" x2="830.0" y2="356.0" stroke="#2c2c2a" stroke-width="1.0"/>
<text x="14.0" y="353.0" font-size="11.0" fill="#898781">0</text>
<line x1="10.0" y1="227.6" x2="830.0" y2="227.6" stroke="#2c2c2a" stroke-width="1.0"/>
<text x="14.0" y="224.6" font-size="11.0" fill="#898781">10</text>
<line x1="10.0" y1="99.2" x2="830.0" y2="99.2" stroke="#2c2c2a" stroke-width="1.0"/>
<text x="14.0" y="96.2" font-size="11.0" fill="#898781">20</text>
<polyline points="16.8,108.6 30.5,108.4 44.2,108.1 57.8,105.6 71.5,106.4 85.2,104.8 98.8,110.9 112.5,114.0 126.2,106.1 139.8,92.1 153.5,87.9 167.2,80.1 180.8,79.8 194.5,84.4 208.2,81.6 221.8,82.1 235.5,79.9 249.2,88.2 262.8,93.7 276.5,95.1 290.2,97.8 303.8,105.5 317.5,105.5 331.2,112.4 344.8,122.4 358.5,133.5 372.2,134.9 385.8,138.5 399.5,135.0 413.2,127.1 426.8,139.4 440.5,140.7 454.2,136.6 467.8,136.6 481.5,137.3 495.2,135.0 508.8,135.0 522.5,135.5 536.2,131.9 549.8,133.2 563.5,133.2 577.2,135.3 590.8,138.5 604.5,135.2 618.2,126.7 631.8,127.4 645.5,115.0 659.2,111.3 672.8,105.7 686.5,111.0 700.2,118.6 713.8,117.2 727.5,122.7 741.2,125.4 754.8,126.2 768.5,107.4 782.2,98.2 795.8,96.0 809.5,96.0 823.2,94.1" fill="none" stroke="#c98500" stroke-width="1.5" stroke-linejoin="round" stroke-linecap="round"/>
<polyline points="16.8,181.4 30.5,175.6 44.2,175.0 57.8,173.0 71.5,167.9 85.2,167.3 98.8,164.7 112.5,167.3 126.2,169.8 139.8,174.3 153.5,173.0 167.2,179.4 180.8,178.8 194.5,182.0 208.2,185.9 221.8,187.2 235.5,190.4 249.2,194.9 262.8,201.3 276.5,201.9 290.2,205.1 303.8,208.3 317.5,208.3 331.2,213.5 344.8,217.3 358.5,221.2 372.2,221.8 385.8,225.0 399.5,227.6 413.2,220.5 426.8,223.1 440.5,222.5 454.2,221.2 467.8,221.2 481.5,219.9 495.2,218.6 508.8,218.6 522.5,219.3 536.2,214.8 549.8,220.5 563.5,220.5 577.2,222.5 590.8,223.7 604.5,220.5 618.2,217.3 631.8,218.6 645.5,214.8 659.2,217.3 672.8,219.3 686.5,227.6 700.2,231.5 713.8,232.7 727.5,241.1 741.2,246.9 754.8,250.1 768.5,245.6 782.2,240.4 795.8,239.2 809.5,239.2 823.2,241.1" fill="none" stroke="#3987e5" stroke-width="1.5" stroke-linejoin="round" stroke-linecap="round"/>
<polyline points="16.8,254.2 30.5,242.8 44.2,241.9 57.8,240.4 71.5,229.4 85.2,229.7 98.8,218.5 112.5,220.5 126.2,233.5 139.8,256.5 153.5,258.2 167.2,278.8 180.8,277.8 194.5,279.6 208.2,290.1 221.8,292.2 235.5,300.8 249.2,301.6 262.8,308.9 276.5,308.7 290.2,312.5 303.8,311.2 317.5,311.2 331.2,314.5 344.8,312.2 358.5,308.9 372.2,308.7 385.8,311.6 399.5,320.2 413.2,314.0 426.8,306.8 440.5,304.3 454.2,305.8 467.8,305.8 481.5,302.5 495.2,302.2 508.8,302.2 522.5,303.0 536.2,297.6 549.8,307.8 563.5,307.8 577.2,309.6 590.8,309.0 604.5,305.9 618.2,308.0 631.8,309.8 645.5,314.5 659.2,323.4 672.8,332.8 686.5,344.2 700.2,344.3 713.8,348.3 727.5,356.0 741.2,356.0 754.8,356.0 768.5,356.0 782.2,356.0 795.8,356.0 809.5,356.0 823.2,356.0" fill="none" stroke="#d55181" stroke-width="1.5" stroke-linejoin="round" stroke-linecap="round"/>
<polyline points="16.8,168.5 30.5,162.1 44.2,159.5 57.8,151.8 71.5,154.4 85.2,154.4 98.8,158.3 112.5,159.5 126.2,176.2 139.8,192.9 153.5,187.8 167.2,209.6 180.8,216.0 194.5,218.6 208.2,228.9 221.8,223.7 235.5,219.9 249.2,235.3 262.8,231.5 276.5,228.9 290.2,235.3 303.8,226.3 317.5,219.9 331.2,218.6 344.8,218.6 358.5,210.9 372.2,214.8 385.8,216.0 399.5,231.5 413.2,227.6 426.8,214.8 440.5,223.7 454.2,216.0 467.8,216.0 481.5,214.8 495.2,198.1 508.8,214.8 522.5,223.7 536.2,209.6 549.8,227.6 563.5,232.7 577.2,232.7 590.8,235.3 604.5,223.7 618.2,213.5 631.8,222.5 645.5,198.1 659.2,207.1 672.8,222.5 686.5,239.2 700.2,245.6 713.8,267.4 727.5,280.2 741.2,308.5 754.8,308.5 768.5,273.8 782.2,252.0 795.8,245.6 809.5,227.6 823.2,227.6" fill="none" stroke="#9085e9" stroke-width="1.5" stroke-linejoin="round" stroke-linecap="round"/>
<rect x="13.1" y="163.4" width="7.5" height="12.8" fill="#008300"/>
<rect x="26.7" y="137.7" width="7.5" height="38.5" fill="none" stroke="#e66767" stroke-width="1.3"/>
<rect x="40.4" y="137.7" width="7.5" height="38.5" fill="#008300"/>
<rect x="54.1" y="150.6" width="7.5" height="25.7" fill="none" stroke="#e66767" stroke-width="1.3"/>
<rect x="67.7" y="137.7" width="7.5" height="12.8" fill="none" stroke="#e66767" stroke-width="1.3"/>
<rect x="81.4" y="137.7" width="7.5" height="1.2" fill="#898781"/>
<rect x="95.1" y="137.7" width="7.5" height="51.4" fill="#008300"/>
<rect x="108.7" y="189.1" width="7.5" height="1.2" fill="#898781"/>
<rect x="122.4" y="189.1" width="7.5" height="64.2" fill="#008300"/>
<rect x="136.1" y="253.3" width="7.5" height="38.5" fill="#008300"/>
<rect x="149.7" y="112.0" width="7.5" height="179.8" fill="none" stroke="#e66767" stroke-width="1.3"/>
<rect x="163.4" y="112.0" width="7.5" height="179.8" fill="#008300"/>
<rect x="177.1" y="189.1" width="7.5" height="102.7" fill="none" stroke="#e66767" stroke-width="1.3"/>
<rect x="190.7" y="189.1" width="7.5" height="12.8" fill="#008300"/>
<rect x="204.4" y="201.9" width="7.5" height="64.2" fill="#008300"/>
<rect x="218.1" y="214.8" width="7.5" height="51.4" fill="none" stroke="#e66767" stroke-width="1.3"/>
<rect x="231.7" y="214.8" width="7.5" height="51.4" fill="#008300"/>
<rect x="245.4" y="214.8" width="7.5" height="51.4" fill="none" stroke="#e66767" stroke-width="1.3"/>
<rect x="259.1" y="214.8" width="7.5" height="51.4" fill="#008300"/>
<rect x="272.7" y="176.2" width="7.5" height="89.9" fill="none" stroke="#e66767" stroke-width="1.3"/>
<rect x="286.4" y="176.2" width="7.5" height="64.2" fill="#008300"/>
<rect x="300.1" y="201.9" width="7.5" height="38.5" fill="none" stroke="#e66767" stroke-width="1.3"/>
<rect x="313.7" y="176.2" width="7.5" height="25.7" fill="none" stroke="#e66767" stroke-width="1.3"/>
<rect x="327.4" y="176.2" width="7.5" height="77.0" fill="#008300"/>
<rect x="341.1" y="214.8" width="7.5" height="38.5" fill="none" stroke="#e66767" stroke-width="1.3"/>
<rect x="354.7" y="214.8" width="7.5" height="1.2" fill="#898781"/>
<rect x="368.4" y="201.9" width="7.5" height="12.8" fill="none" stroke="#e66767" stroke-width="1.3"/>
<rect x="382.1" y="201.9" width="7.5" height="51.4" fill="#008300"/>
<rect x="395.7" y="253.3" width="7.5" height="51.4" fill="#008300"/>
<rect x="409.4" y="150.6" width="7.5" height="154.1" fill="none" stroke="#e66767" stroke-width="1.3"/>
<rect x="423.1" y="150.6" width="7.5" height="12.8" fill="#008300"/>
<rect x="436.7" y="163.4" width="7.5" height="115.6" fill="#008300"/>
<rect x="450.4" y="163.4" width="7.5" height="115.6" fill="none" stroke="#e66767" stroke-width="1.3"/>
<rect x="464.1" y="163.4" width="7.5" height="38.5" fill="#008300"/>
<rect x="477.7" y="201.9" width="7.5" height="38.5" fill="#008300"/>
<rect x="491.4" y="189.1" width="7.5" height="51.4" fill="none" stroke="#e66767" stroke-width="1.3"/>
<rect x="505.1" y="189.1" width="7.5" height="77.0" fill="#008300"/>
<rect x="518.7" y="227.6" width="7.5" height="38.5" fill="none" stroke="#e66767" stroke-width="1.3"/>
<rect x="532.4" y="176.2" width="7.5" height="51.4" fill="none" stroke="#e66767" stroke-width="1.3"/>
<rect x="546.1" y="176.2" width="7.5" height="115.6" fill="#008300"/>
<rect x="559.7" y="240.4" width="7.5" height="51.4" fill="none" stroke="#e66767" stroke-width="1.3"/>
<rect x="573.4" y="240.4" width="7.5" height="1.2" fill="#898781"/>
<rect x="587.1" y="201.9" width="7.5" height="38.5" fill="none" stroke="#e66767" stroke-width="1.3"/>
<rect x="600.7" y="189.1" width="7.5" height="12.8" fill="none" stroke="#e66767" stroke-width="1.3"/>
<rect x="614.4" y="150.6" width="7.5" height="38.5" fill="none" stroke="#e66767" stroke-width="1.3"/>
<rect x="628.1" y="150.6" width="7.5" height="89.9" fill="#008300"/>
<rect x="641.7" y="124.9" width="7.5" height="115.6" fill="none" stroke="#e66767" stroke-width="1.3"/>
<rect x="655.4" y="124.9" width="7.5" height="179.8" fill="#008300"/>
<rect x="669.1" y="343.2" width="7.5" height="12.8" fill="none" stroke="#e66767" stroke-width="1.3"/>
<rect x="682.7" y="317.5" width="7.5" height="25.7" fill="none" stroke="#e66767" stroke-width="1.3"/>
<rect x="696.4" y="240.4" width="7.5" height="77.0" fill="none" stroke="#e66767" stroke-width="1.3"/>
<rect x="710.1" y="304.6" width="7.5" height="51.4" fill="none" stroke="#e66767" stroke-width="1.3"/>
<rect x="723.7" y="304.6" width="7.5" height="25.7" fill="#008300"/>
<rect x="737.4" y="317.5" width="7.5" height="12.8" fill="none" stroke="#e66767" stroke-width="1.3"/>
<rect x="751.1" y="304.6" width="7.5" height="12.8" fill="none" stroke="#e66767" stroke-width="1.3"/>
<rect x="764.7" y="99.2" width="7.5" height="205.4" fill="none" stroke="#e66767" stroke-width="1.3"/>
<rect x="778.4" y="99.2" width="7.5" height="64.2" fill="#008300"/>
<rect x="792.1" y="163.4" width="7.5" height="38.5" fill="#008300"/>
<rect x="805.7" y="176.2" width="7.5" height="25.7" fill="none" stroke="#e66767" stroke-width="1.3"/>
<rect x="819.4" y="330.3" width="7.5" height="25.7" fill="none" stroke="#e66767" stroke-width="1.3"/>
<circle cx="768.5" cy="99.2" r="2" fill="#c3c2b7"/>
<line x1="768.5" y1="99.2" x2="760.5" y2="99.2" stroke="#c3c2b7" stroke-width="1.0"/>
<text x="757.5" y="103.2" font-size="11.0" fill="#c3c2b7" text-anchor="end">20</text>
<circle cx="672.8" cy="356.0" r="2" fill="#c3c2b7"/>
<line x1="672.8" y1="356.0" x2="664.8" y2="356.0" stroke="#c3c2b7" stroke-width="1.0"/>
<text x="661.8" y="350.0" font-size="11.0" fill="#c3c2b7" text-anchor="end">0</text>
<text x="14.0" y="376.0" font-size="11.0" fill="#c3c2b7">VOL 0 forks</text>
<text x="90.6" y="376.0" font-size="11.0" fill="#c98500">MA5:0</text>
<text x="130.8" y="376.0" font-size="11.0" fill="#3987e5">MA10:0</text>
<text x="14.0" y="395.0" font-size="10" fill="#898781">2</text>
<rect x="54.1" y="429.0" width="7.5" height="41.0" fill="none" stroke="#e66767" stroke-width="1.1"/>
<rect x="67.7" y="429.0" width="7.5" height="41.0" fill="none" stroke="#e66767" stroke-width="1.1"/>
<rect x="81.4" y="388.0" width="7.5" height="82.0" fill="#898781"/>
<rect x="95.1" y="429.0" width="7.5" height="41.0" fill="#008300"/>
<rect x="108.7" y="429.0" width="7.5" height="41.0" fill="#898781"/>
<rect x="204.4" y="429.0" width="7.5" height="41.0" fill="#008300"/>
<rect x="245.4" y="429.0" width="7.5" height="41.0" fill="none" stroke="#e66767" stroke-width="1.1"/>
<rect x="272.7" y="429.0" width="7.5" height="41.0" fill="none" stroke="#e66767" stroke-width="1.1"/>
<rect x="313.7" y="429.0" width="7.5" height="41.0" fill="none" stroke="#e66767" stroke-width="1.1"/>
<rect x="327.4" y="429.0" width="7.5" height="41.0" fill="#008300"/>
<rect x="395.7" y="429.0" width="7.5" height="41.0" fill="#008300"/>
<rect x="409.4" y="429.0" width="7.5" height="41.0" fill="none" stroke="#e66767" stroke-width="1.1"/>
<rect x="436.7" y="429.0" width="7.5" height="41.0" fill="#008300"/>
<rect x="532.4" y="388.0" width="7.5" height="82.0" fill="none" stroke="#e66767" stroke-width="1.1"/>
<rect x="628.1" y="429.0" width="7.5" height="41.0" fill="#008300"/>
<rect x="641.7" y="429.0" width="7.5" height="41.0" fill="none" stroke="#e66767" stroke-width="1.1"/>
<polyline points="16.8,453.6 30.5,457.7 44.2,461.8 57.8,457.7 71.5,457.7 85.2,449.5 98.8,445.4 112.5,441.3 126.2,441.3 139.8,445.4 153.5,445.4 167.2,445.4 180.8,445.4 194.5,449.5 208.2,449.5 221.8,457.7 235.5,461.8 249.2,461.8 262.8,461.8 276.5,457.7 290.2,457.7 303.8,457.7 317.5,453.6 331.2,449.5 344.8,453.6 358.5,453.6 372.2,453.6 385.8,457.7 399.5,453.6 413.2,453.6 426.8,453.6 440.5,449.5 454.2,453.6 467.8,457.7 481.5,457.7 495.2,457.7 508.8,457.7 522.5,457.7 536.2,453.6 549.8,457.7 563.5,457.7 577.2,461.8 590.8,461.8 604.5,461.8 618.2,461.8 631.8,457.7 645.5,453.6 659.2,453.6 672.8,461.8 686.5,461.8 700.2,461.8 713.8,461.8 727.5,461.8 741.2,461.8 754.8,461.8 768.5,465.9 782.2,470.0 795.8,470.0 809.5,470.0 823.2,470.0" fill="none" stroke="#3987e5" stroke-width="1.5" stroke-linejoin="round" stroke-linecap="round"/>
<polyline points="16.8,461.8 30.5,461.8 44.2,461.8 57.8,453.6 71.5,453.6 85.2,437.2 98.8,429.0 112.5,420.8 126.2,429.0 139.8,437.2 153.5,453.6 167.2,461.8 180.8,470.0 194.5,470.0 208.2,461.8 221.8,461.8 235.5,461.8 249.2,453.6 262.8,453.6 276.5,453.6 290.2,453.6 303.8,453.6 317.5,453.6 331.2,445.4 344.8,453.6 358.5,453.6 372.2,453.6 385.8,461.8 399.5,461.8 413.2,453.6 426.8,453.6 440.5,445.4 454.2,445.4 467.8,453.6 481.5,461.8 495.2,461.8 508.8,470.0 522.5,470.0 536.2,453.6 549.8,453.6 563.5,453.6 577.2,453.6 590.8,453.6 604.5,470.0 618.2,470.0 631.8,461.8 645.5,453.6 659.2,453.6 672.8,453.6 686.5,453.6 700.2,461.8 713.8,470.0 727.5,470.0 741.2,470.0 754.8,470.0 768.5,470.0 782.2,470.0 795.8,470.0 809.5,470.0 823.2,470.0" fill="none" stroke="#c98500" stroke-width="1.5" stroke-linejoin="round" stroke-linecap="round"/>
</svg>