<svg xmlns="http://www.w3.org/2000/svg" viewBox="0 0 840 496" width="840" height="496" font-family="-apple-system,&#39;Segoe UI&#39;,system-ui,sans-serif" role="img" aria-label="996icu/996.ICU candlestick chart">
<text x="14.0" y="20.0" font-size="15" fill="#ffffff" font-weight="650">996icu/996.ICU</text>
<text x="133.5" y="20.0" font-size="11.5" fill="#c3c2b7">daily · new stars, volume = new forks</text>
<text x="805.8" y="20.0" font-size="11.0" fill="#c3c2b7">fall</text>
<rect x="791" y="10" width="9" height="12" fill="#008300"/>
<text x="750.6" y="20.0" font-size="11.0" fill="#c3c2b7">rise</text>
<rect x="736" y="10" width="9" height="12" fill="none" stroke="#e66767" stroke-width="1.5"/>
<text x="14.0" y="38.0" font-size="11.0" fill="#898781">last 60 days · +703 stars · +22 forks · updated 2026-07-09</text>
<rect x="10" y="66" width="820" height="290" fill="none" stroke="#2c2c2a"/>
<rect x="10" y="384" width="820" height="86" fill="none" stroke="#2c2c2a"/>
<text x="38.0" y="490.0" font-size="11.0" fill="#898781" text-anchor="middle">2026-05</text>
<line x1="310.7" y1="66.0" x2="310.7" y2="356.0" stroke="#2c2c2a" stroke-width="1.0"/>
<line x1="310.7" y1="384.0" x2="310.7" y2="470.0" stroke="#2c2c2a" stroke-width="1.0"/>
<text x="317.5" y="490.0" font-size="11.0" fill="#898781" text-anchor="middle">2026-06</text>
<line x1="720.7" y1="66.0" x2="720.7" y2="356.0" stroke="#2c2c2a" stroke-width="1.0"/>
<line x1="720.7" y1="384.0" x2="720.7" y2="470.0" stroke="#2c2c2a" stroke-width="1.0"/>
<text x="727.5" y="490.0" font-size="11.0" fill="#898781" text-anchor="middle">2026-07</text>
<text x="14.0" y="58.0" font-size="11.0" fill="#c3c2b7">BOLL(20,2)</text>
<text x="84.5" y="58.0" font-size="11.0" fill="#c98500">UP:19.5</text>
<text x="136.9" y="58.0" font-size="11.0" fill="#3987e5">MID:10.7</text>
<text x="195.3" y="58.0" font-size="11.0" fill="#d55181">LOW:1.8</text>
<text x="247.6" y="58.0" font-size="11.0" fill="#9085e9">MA7:10.4</text>
<line x1="10.0" y1="356.0" x2="830.0" y2="356.0" stroke="#2c2c2a" stroke-width="1.0"/>
<text x="14.0" y="353.0" font-size="11.0" fill="#898781">0</text>
<line x1="10.0" y1="176.6" x2="830.0" y2="176.6" stroke="#2c2c2a" stroke-width="1.0"/>
<text x="14.0" y="173.6" font-size="11.0" fill="#898781">50</text>
<polyline points="16.8,80.8 30.5,80.8 44.2,80.4 57.8,80.4 71.5,79.8 85.2,80.1 98.8,80.4 112.5,80.3 126.2,258.9 139.8,287.1 153.5,286.6 167.2,286.9 180.8,286.8 194.5,286.7 208.2,286.0 221.8,286.2 235.5,285.8 249.2,287.5 262.8,288.4 276.5,286.2 290.2,282.3 303.8,281.1 317.5,278.9 331.2,278.8 344.8,280.1 358.5,279.3 372.2,279.5 385.8,278.9 399.5,281.1 413.2,282.7 426.8,283.1 440.5,283.8 454.2,286.0 467.8,286.0 481.5,287.9 495.2,290.7 508.8,293.8 522.5,294.2 536.2,295.2 549.8,294.2 563.5,292.0 577.2,295.5 590.8,295.8 604.5,294.7 618.2,294.7 631.8,294.9 645.5,294.2 659.2,294.2 672.8,294.4 686.5,293.4 700.2,293.7 713.8,293.7 727.5,294.3 741.2,295.2 754.8,294.3 768.5,291.9 782.2,292.1 795.8,288.6 809.5,287.6 823.2,286.1" fill="none" stroke="#c98500" stroke-width="1.5" stroke-linejoin="round" stroke-linecap="round"/>
<polyline points="16.8,283.0 30.5,283.0 44.2,281.9 57.8,281.9 71.5,280.8 85.2,281.4 98.8,281.9 112.5,281.7 126.2,303.6 139.8,307.6 153.5,307.0 167.2,307.2 180.8,305.6 194.5,305.4 208.2,304.9 221.8,303.4 235.5,303.3 249.2,302.5 262.8,303.3 276.5,304.0 290.2,305.2 303.8,304.9 317.5,306.7 331.2,306.5 344.8,307.4 358.5,308.5 372.2,308.8 385.8,309.7 399.5,311.0 413.2,312.8 426.8,312.9 440.5,313.8 454.2,314.7 467.8,314.7 481.5,316.2 495.2,317.2 508.8,318.3 522.5,318.5 536.2,319.4 549.8,320.1 563.5,318.1 577.2,318.9 590.8,318.7 604.5,318.3 618.2,318.3 631.8,318.0 645.5,317.6 659.2,317.6 672.8,317.8 686.5,316.5 700.2,318.1 713.8,318.1 727.5,318.7 741.2,319.0 754.8,318.1 768.5,317.2 782.2,317.6 795.8,316.5 809.5,317.2 823.2,317.8" fill="none" stroke="#3987e5" stroke-width="1.5" stroke-linejoin="round" stroke-linecap="round"/>
<polyline points="16.8,356.0 30.5,356.0 44.2,356.0 57.8,356.0 71.5,356.0 85.2,356.0 98.8,356.0 112.5,356.0 126.2,348.3 139.8,328.0 153.5,327.5 167.2,327.5 180.8,324.4 194.5,324.1 208.2,323.7 221.8,320.6 235.5,320.7 249.2,317.6 262.8,318.1 276.5,321.8 290.2,328.2 303.8,328.7 317.5,334.4 331.2,334.1 344.8,334.6 358.5,337.6 372.2,338.2 385.8,340.6 399.5,340.8 413.2,342.8 426.8,342.8 440.5,343.8 454.2,343.5 467.8,343.5 481.5,344.4 495.2,343.8 508.8,342.8 522.5,342.8 536.2,343.6 549.8,346.0 563.5,344.3 577.2,342.3 590.8,341.5 604.5,342.0 618.2,342.0 631.8,341.0 645.5,341.0 659.2,341.0 672.8,341.2 686.5,339.7 700.2,342.5 713.8,342.5 727.5,343.0 741.2,342.9 754.8,342.0 768.5,342.6 782.2,343.1 795.8,344.4 809.5,346.9 823.2,349.5" fill="none" stroke="#d55181" stroke-width="1.5" stroke-linejoin="round" stroke-linecap="round"/>
<polyline points="16.8,310.8 30.5,309.0 44.2,305.8 57.8,307.9 71.5,303.6 85.2,305.8 98.8,305.4 112.5,305.4 126.2,304.7 139.8,303.6 153.5,302.2 167.2,303.6 180.8,301.8 194.5,301.1 208.2,298.9 221.8,299.7 235.5,299.7 249.2,300.7 262.8,301.1 276.5,305.8 290.2,310.4 303.8,309.0 317.5,315.1 331.2,316.9 344.8,317.6 358.5,320.5 372.2,319.0 385.8,318.0 399.5,322.3 413.2,321.2 426.8,320.5 440.5,322.3 454.2,319.8 467.8,318.0 481.5,317.6 495.2,317.6 508.8,315.5 522.5,316.5 536.2,316.9 549.8,321.2 563.5,320.1 577.2,316.5 590.8,319.0 604.5,316.9 618.2,316.9 631.8,316.5 645.5,311.9 659.2,316.5 672.8,319.0 686.5,315.1 700.2,320.1 713.8,321.6 727.5,321.6 741.2,322.3 754.8,319.0 768.5,316.2 782.2,318.7 795.8,311.9 809.5,314.4 823.2,318.7" fill="none" stroke="#9085e9" stroke-width="1.5" stroke-linejoin="round" stroke-linecap="round"/>
<rect x="13.1" y="312.9" width="7.5" height="1.2" fill="#898781"/>
<rect x="26.7" y="295.0" width="7.5" height="17.9" fill="none" stroke="#e66767" stroke-width="1.3"/>
<rect x="40.4" y="295.0" width="7.5" height="7.2" fill="#008300"/>
<rect x="54.1" y="302.2" width="7.5" height="10.8" fill="#008300"/>
<rect x="67.7" y="295.0" width="7.5" height="17.9" fill="none" stroke="#e66767" stroke-width="1.3"/>
<rect x="81.4" y="295.0" width="7.5" height="14.4" fill="#008300"/>
<rect x="95.1" y="309.4" width="7.5" height="1.2" fill="#898781"/>
<rect x="108.7" y="309.4" width="7.5" height="3.6" fill="#008300"/>
<rect x="122.4" y="291.4" width="7.5" height="21.5" fill="none" stroke="#e66767" stroke-width="1.3"/>
<rect x="136.1" y="291.4" width="7.5" height="3.6" fill="#008300"/>
<rect x="149.7" y="295.0" width="7.5" height="7.2" fill="#008300"/>
<rect x="163.4" y="302.2" width="7.5" height="3.6" fill="#008300"/>
<rect x="177.1" y="295.0" width="7.5" height="10.8" fill="none" stroke="#e66767" stroke-width="1.3"/>
<rect x="190.7" y="295.0" width="7.5" height="10.8" fill="#008300"/>
<rect x="204.4" y="298.6" width="7.5" height="7.2" fill="none" stroke="#e66767" stroke-width="1.3"/>
<rect x="218.1" y="295.0" width="7.5" height="3.6" fill="none" stroke="#e66767" stroke-width="1.3"/>
<rect x="231.7" y="295.0" width="7.5" height="1.2" fill="#898781"/>
<rect x="245.4" y="295.0" width="7.5" height="14.4" fill="#008300"/>
<rect x="259.1" y="309.4" width="7.5" height="1.2" fill="#898781"/>
<rect x="272.7" y="309.4" width="7.5" height="17.9" fill="#008300"/>
<rect x="286.4" y="327.3" width="7.5" height="10.8" fill="#008300"/>
<rect x="300.1" y="287.8" width="7.5" height="50.2" fill="none" stroke="#e66767" stroke-width="1.3"/>
<rect x="313.7" y="287.8" width="7.5" height="50.2" fill="#008300"/>
<rect x="327.4" y="309.4" width="7.5" height="28.7" fill="none" stroke="#e66767" stroke-width="1.3"/>
<rect x="341.1" y="309.4" width="7.5" height="3.6" fill="#008300"/>
<rect x="354.7" y="312.9" width="7.5" height="17.9" fill="#008300"/>
<rect x="368.4" y="316.5" width="7.5" height="14.4" fill="none" stroke="#e66767" stroke-width="1.3"/>
<rect x="382.1" y="316.5" width="7.5" height="14.4" fill="#008300"/>
<rect x="395.7" y="316.5" width="7.5" height="14.4" fill="none" stroke="#e66767" stroke-width="1.3"/>
<rect x="409.4" y="316.5" width="7.5" height="14.4" fill="#008300"/>
<rect x="423.1" y="305.8" width="7.5" height="25.1" fill="none" stroke="#e66767" stroke-width="1.3"/>
<rect x="436.7" y="305.8" width="7.5" height="17.9" fill="#008300"/>
<rect x="450.4" y="312.9" width="7.5" height="10.8" fill="none" stroke="#e66767" stroke-width="1.3"/>
<rect x="464.1" y="305.8" width="7.5" height="7.2" fill="none" stroke="#e66767" stroke-width="1.3"/>
<rect x="477.7" y="305.8" width="7.5" height="21.5" fill="#008300"/>
<rect x="491.4" y="316.5" width="7.5" height="10.8" fill="none" stroke="#e66767" stroke-width="1.3"/>
<rect x="505.1" y="316.5" width="7.5" height="1.2" fill="#898781"/>
<rect x="518.7" y="312.9" width="7.5" height="3.6" fill="none" stroke="#e66767" stroke-width="1.3"/>
<rect x="532.4" y="312.9" width="7.5" height="14.4" fill="#008300"/>
<rect x="546.1" y="327.3" width="7.5" height="14.4" fill="#008300"/>
<rect x="559.7" y="298.6" width="7.5" height="43.1" fill="none" stroke="#e66767" stroke-width="1.3"/>
<rect x="573.4" y="298.6" width="7.5" height="3.6" fill="#008300"/>
<rect x="587.1" y="302.2" width="7.5" height="32.3" fill="#008300"/>
<rect x="600.7" y="302.2" width="7.5" height="32.3" fill="none" stroke="#e66767" stroke-width="1.3"/>
<rect x="614.4" y="302.2" width="7.5" height="10.8" fill="#008300"/>
<rect x="628.1" y="312.9" width="7.5" height="10.8" fill="#008300"/>
<rect x="641.7" y="309.4" width="7.5" height="14.4" fill="none" stroke="#e66767" stroke-width="1.3"/>
<rect x="655.4" y="309.4" width="7.5" height="21.5" fill="#008300"/>
<rect x="669.1" y="320.1" width="7.5" height="10.8" fill="none" stroke="#e66767" stroke-width="1.3"/>
<rect x="682.7" y="305.8" width="7.5" height="14.4" fill="none" stroke="#e66767" stroke-width="1.3"/>
<rect x="696.4" y="305.8" width="7.5" height="32.3" fill="#008300"/>
<rect x="710.1" y="323.7" width="7.5" height="14.4" fill="none" stroke="#e66767" stroke-width="1.3"/>
<rect x="723.7" y="323.7" width="7.5" height="1.2" fill="#898781"/>
<rect x="737.4" y="312.9" width="7.5" height="10.8" fill="none" stroke="#e66767" stroke-width="1.3"/>
<rect x="751.1" y="309.4" width="7.5" height="3.6" fill="none" stroke="#e66767" stroke-width="1.3"/>
<rect x="764.7" y="298.6" width="7.5" height="10.8" fill="none" stroke="#e66767" stroke-width="1.3"/>
<rect x="778.4" y="298.6" width="7.5" height="25.1" fill="#008300"/>
<rect x="792.1" y="291.4" width="7.5" height="32.3" fill="none" stroke="#e66767" stroke-width="1.3"/>
<rect x="805.7" y="291.4" width="7.5" height="50.2" fill="#008300"/>
<rect x="819.4" y="352.4" width="7.5" height="3.6" fill="none" stroke="#e66767" stroke-width="1.3"/>
<circle cx="303.8" cy="287.8" r="2" fill="#c3c2b7"/>
<line x1="303.8" y1="287.8" x2="311.8" y2="287.8" stroke="#c3c2b7" stroke-width="1.0"/>
<text x="314.8" y="291.8" font-size="11.0" fill="#c3c2b7">19</text>
<circle cx="823.2" cy="356.0" r="2" fill="#c3c2b7"/>
<line x1="823.2" y1="356.0" x2="815.2" y2="356.0" stroke="#c3c2b7" stroke-width="1.0"/>
<text x="812.2" y="350.0" font-size="11.0" fill="#c3c2b7" text-anchor="end">0</text>
<text x="14.0" y="376.0" font-size="11.0" fill="#c3c2b7">VOL 0 forks</text>
<text x="90.6" y="376.0" font-size="11.0" fill="#c98500">MA5:0.4</text>
<text x="142.9" y="376.0" font-size="11.0" fill="#3987e5">MA10:0.2</text>
<text x="14.0" y="395.0" font-size="10" fill="#898781">2</text>
<rect x="40.4" y="429.0" width="7.5" height="41.0" fill="#008300"/>
<rect x="54.1" y="429.0" width="7.5" height="41.0" fill="#008300"/>
<rect x="81.4" y="429.0" width="7.5" height="41.0" fill="#008300"/>
<rect x="149.7" y="429.0" width="7.5" height="41.0" fill="#008300"/>
<rect x="204.4" y="429.0" width="7.5" height="41.0" fill="none" stroke="#e66767" stroke-width="1.1"/>
<rect x="218.1" y="429.0" width="7.5" height="41.0" fill="none" stroke="#e66767" stroke-width="1.1"/>
<rect x="231.7" y="388.0" width="7.5" height="82.0" fill="#898781"/>
<rect x="245.4" y="429.0" width="7.5" height="41.0" fill="#008300"/>
<rect x="259.1" y="429.0" width="7.5" height="41.0" fill="#898781"/>
<rect x="354.7" y="429.0" width="7.5" height="41.0" fill="#008300"/>
<rect x="395.7" y="429.0" width="7.5" height="41.0" fill="none" stroke="#e66767" stroke-width="1.1"/>
<rect x="423.1" y="429.0" width="7.5" height="41.0" fill="none" stroke="#e66767" stroke-width="1.1"/>
<rect x="464.1" y="429.0" width="7.5" height="41.0" fill="none" stroke="#e66767" stroke-width="1.1"/>
<rect x="477.7" y="429.0" width="7.5" height="41.0" fill="#008300"/>
<rect x="546.1" y="429.0" width="7.5" height="41.0" fill="#008300"/>
<rect x="559.7" y="429.0" width="7.5" height="41.0" fill="none" stroke="#e66767" stroke-width="1.1"/>
<rect x="587.1" y="429.0" width="7.5" height="41.0" fill="#008300"/>
<rect x="682.7" y="388.0" width="7.5" height="82.0" fill="none" stroke="#e66767" stroke-width="1.1"/>
<rect x="778.4" y="429.0" width="7.5" height="41.0" fill="#008300"/>
<rect x="792.1" y="429.0" width="7.5" height="41.0" fill="none" stroke="#e66767" stroke-width="1.1"/>
<polyline points="16.8,453.6 30.5,453.6 44.2,449.5 57.8,453.6 71.5,453.6 85.2,449.5 98.8,453.6 112.5,453.6 126.2,457.7 139.8,457.7 153.5,453.6 167.2,453.6 180.8,457.7 194.5,461.8 208.2,457.7 221.8,457.7 235.5,449.5 249.2,445.4 262.8,441.3 276.5,441.3 290.2,445.4 303.8,445.4 317.5,445.4 331.2,445.4 344.8,449.5 358.5,449.5 372.2,457.7 385.8,461.8 399.5,461.8 413.2,461.8 426.8,457.7 440.5,457.7 454.2,457.7 467.8,453.6 481.5,449.5 495.2,453.6 508.8,453.6 522.5,453.6 536.2,457.7 549.8,453.6 563.5,453.6 577.2,453.6 590.8,449.5 604.5,453.6 618.2,457.7 631.8,457.7 645.5,457.7 659.2,457.7 672.8,457.7 686.5,453.6 700.2,457.7 713.8,457.7 727.5,461.8 741.2,461.8 754.8,461.8 768.5,461.8 782.2,457.7 795.8,453.6 809.5,453.6 823.2,461.8" fill="none" stroke="#3987e5" stroke-width="1.5" stroke-linejoin="round" stroke-linecap="round"/>
<polyline points="16.8,453.6 30.5,461.8 44.2,453.6 57.8,453.6 71.5,453.6 85.2,445.4 98.8,445.4 112.5,453.6 126.2,461.8 139.8,461.8 153.5,461.8 167.2,461.8 180.8,461.8 194.5,461.8 208.2,453.6 221.8,453.6 235.5,437.2 249.2,429.0 262.8,420.8 276.5,429.0 290.2,437.2 303.8,453.6 317.5,461.8 331.2,470.0 344.8,470.0 358.5,461.8 372.2,461.8 385.8,461.8 399.5,453.6 413.2,453.6 426.8,453.6 440.5,453.6 454.2,453.6 467.8,453.6 481.5,445.4 495.2,453.6 508.8,453.6 522.5,453.6 536.2,461.8 549.8,461.8 563.5,453.6 577.2,453.6 590.8,445.4 604.5,445.4 618.2,453.6 631.8,461.8 645.5,461.8 659.2,470.0 672.8,470.0 686.5,453.6 700.2,453.6 713.8,453.6 727.5,453.6 741.2,453.6 754.8,470.0 768.5,470.0 782.2,461.8 795.8,453.6 809.5,453.6 823.2,453.6" fill="none" stroke="#c98500" stroke-width="1.5" stroke-linejoin="round" stroke-linecap="round"/>
</svg>