<svg xmlns="http://www.w3.org/2000/svg" viewBox="0 0 840 496" width="840" height="496" font-family="-apple-system,&#39;Segoe UI&#39;,system-ui,sans-serif" role="img" aria-label="996icu/996.ICU candlestick chart">
<text x="14.0" y="20.0" font-size="15" fill="#0b0b0b" font-weight="650">996icu/996.ICU</text>
<text x="133.5" y="20.0" font-size="11.5" fill="#52514e">daily · new stars, volume = new forks</text>
<text x="805.8" y="20.0" font-size="11.0" fill="#52514e">fall</text>
<rect x="791" y="10" width="9" height="12" fill="#008300"/>
<text x="750.6" y="20.0" font-size="11.0" fill="#52514e">rise</text>
<rect x="736" y="10" width="9" height="12" fill="none" stroke="#e34948" stroke-width="1.5"/>
<text x="14.0" y="38.0" font-size="11.0" fill="#898781">last 60 days · +649 stars · +19 forks · updated 2026-07-18</text>
<rect x="10" y="66" width="820" height="290" fill="none" stroke="#e1e0d9"/>
<rect x="10" y="384" width="820" height="86" fill="none" stroke="#e1e0d9"/>
<text x="38.0" y="490.0" font-size="11.0" fill="#898781" text-anchor="middle">2026-05</text>
<line x1="215.0" y1="66.0" x2="215.0" y2="356.0" stroke="#e1e0d9" stroke-width="1.0"/>
<line x1="215.0" y1="384.0" x2="215.0" y2="470.0" stroke="#e1e0d9" stroke-width="1.0"/>
<text x="221.8" y="490.0" font-size="11.0" fill="#898781" text-anchor="middle">2026-06</text>
<line x1="625.0" y1="66.0" x2="625.0" y2="356.0" stroke="#e1e0d9" stroke-width="1.0"/>
<line x1="625.0" y1="384.0" x2="625.0" y2="470.0" stroke="#e1e0d9" stroke-width="1.0"/>
<text x="631.8" y="490.0" font-size="11.0" fill="#898781" text-anchor="middle">2026-07</text>
<text x="14.0" y="58.0" font-size="11.0" fill="#52514e">BOLL(20,2)</text>
<text x="84.5" y="58.0" font-size="11.0" fill="#eda100">UP:19.4</text>
<text x="136.9" y="58.0" font-size="11.0" fill="#2a78d6">MID:8.6</text>
<text x="189.2" y="58.0" font-size="11.0" fill="#e87ba4">LOW:0</text>
<text x="229.5" y="58.0" font-size="11.0" fill="#4a3aa7">MA7:6.4</text>
<line x1="10.0" y1="356.0" x2="830.0" y2="356.0" stroke="#e1e0d9" stroke-width="1.0"/>
<text x="14.0" y="353.0" font-size="11.0" fill="#898781">0</text>
<line x1="10.0" y1="176.2" x2="830.0" y2="176.2" stroke="#e1e0d9" stroke-width="1.0"/>
<text x="14.0" y="173.2" font-size="11.0" fill="#898781">50</text>
<polyline points="16.8,79.8 30.5,258.7 44.2,286.9 57.8,286.4 71.5,286.7 85.2,286.7 98.8,286.6 112.5,285.9 126.2,286.1 139.8,285.7 153.5,287.4 167.2,288.2 180.8,286.0 194.5,282.1 208.2,280.9 221.8,278.7 235.5,278.7 249.2,280.0 262.8,279.2 276.5,279.3 290.2,278.7 303.8,281.0 317.5,282.5 331.2,282.9 344.8,283.7 358.5,285.9 372.2,285.9 385.8,287.8 399.5,290.6 413.2,293.7 426.8,294.1 440.5,295.1 454.2,294.1 467.8,291.9 481.5,295.3 495.2,295.7 508.8,294.6 522.5,294.6 536.2,294.8 549.8,294.1 563.5,294.1 577.2,294.3 590.8,293.3 604.5,293.6 618.2,293.6 631.8,294.2 645.5,295.1 659.2,294.2 672.8,291.8 686.5,292.0 700.2,288.5 713.8,287.5 727.5,285.9 741.2,287.4 754.8,289.5 768.5,289.1 782.2,290.7 795.8,291.4 809.5,291.6 823.2,286.4" fill="none" stroke="#eda100" stroke-width="1.5" stroke-linejoin="round" stroke-linecap="round"/>
<polyline points="16.8,281.6 30.5,303.5 44.2,307.5 57.8,306.9 71.5,307.1 85.2,305.5 98.8,305.3 112.5,304.8 126.2,303.3 139.8,303.1 153.5,302.4 167.2,303.1 180.8,303.9 194.5,305.1 208.2,304.8 221.8,306.6 235.5,306.4 249.2,307.3 262.8,308.4 276.5,308.7 290.2,309.6 303.8,310.9 317.5,312.7 331.2,312.9 344.8,313.8 358.5,314.7 372.2,314.7 385.8,316.1 399.5,317.2 413.2,318.2 426.8,318.4 440.5,319.3 454.2,320.0 467.8,318.1 481.5,318.8 495.2,318.6 508.8,318.2 522.5,318.2 536.2,317.9 549.8,317.5 563.5,317.5 577.2,317.7 590.8,316.5 604.5,318.1 618.2,318.1 631.8,318.6 645.5,319.0 659.2,318.1 672.8,317.2 686.5,317.5 700.2,316.5 713.8,317.2 727.5,317.7 741.2,320.0 754.8,321.1 768.5,321.5 782.2,323.8 795.8,325.4 809.5,326.3 823.2,325.1" fill="none" stroke="#2a78d6" stroke-width="1.5" stroke-linejoin="round" stroke-linecap="round"/>
<polyline points="16.8,356.0 30.5,348.3 44.2,328.0 57.8,327.4 71.5,327.5 85.2,324.3 98.8,324.0 112.5,323.6 126.2,320.6 139.8,320.6 153.5,317.5 167.2,318.1 180.8,321.7 194.5,328.1 208.2,328.6 221.8,334.4 235.5,334.1 249.2,334.6 262.8,337.6 276.5,338.1 290.2,340.5 303.8,340.8 317.5,342.8 331.2,342.8 344.8,343.8 358.5,343.5 372.2,343.5 385.8,344.4 399.5,343.7 413.2,342.8 426.8,342.8 440.5,343.6 454.2,346.0 467.8,344.2 481.5,342.2 495.2,341.5 508.8,341.9 522.5,341.9 536.2,341.0 549.8,340.9 563.5,340.9 577.2,341.2 590.8,339.6 604.5,342.5 618.2,342.5 631.8,343.0 645.5,342.8 659.2,342.0 672.8,342.6 686.5,343.1 700.2,344.4 713.8,346.9 727.5,349.5 741.2,352.7 754.8,352.7 768.5,353.8 782.2,356.0 795.8,356.0 809.5,356.0 823.2,356.0" fill="none" stroke="#e87ba4" stroke-width="1.5" stroke-linejoin="round" stroke-linecap="round"/>
<polyline points="16.8,305.3 30.5,304.6 44.2,303.5 57.8,302.1 71.5,303.5 85.2,301.7 98.8,301.0 112.5,298.8 126.2,299.6 139.8,299.6 153.5,300.6 167.2,301.0 180.8,305.7 194.5,310.3 208.2,308.9 221.8,315.0 235.5,316.8 249.2,317.5 262.8,320.4 276.5,319.0 290.2,317.9 303.8,322.2 317.5,321.1 331.2,320.4 344.8,322.2 358.5,319.7 372.2,317.9 385.8,317.5 399.5,317.5 413.2,315.4 426.8,316.5 440.5,316.8 454.2,321.1 467.8,320.0 481.5,316.5 495.2,319.0 508.8,316.8 522.5,316.8 536.2,316.5 549.8,311.8 563.5,316.5 577.2,319.0 590.8,315.0 604.5,320.0 618.2,321.5 631.8,321.5 645.5,322.2 659.2,319.0 672.8,316.1 686.5,318.6 700.2,311.8 713.8,314.3 727.5,318.6 741.2,323.3 754.8,325.1 768.5,331.2 782.2,334.8 795.8,342.7 809.5,342.7 823.2,333.0" fill="none" stroke="#4a3aa7" stroke-width="1.5" stroke-linejoin="round" stroke-linecap="round"/>
<rect x="13.1" y="309.3" width="7.5" height="3.6" fill="#008300"/>
<rect x="26.7" y="291.3" width="7.5" height="21.6" fill="none" stroke="#e34948" stroke-width="1.3"/>
<rect x="40.4" y="291.3" width="7.5" height="3.6" fill="#008300"/>
<rect x="54.1" y="294.9" width="7.5" height="7.2" fill="#008300"/>
<rect x="67.7" y="302.1" width="7.5" height="3.6" fill="#008300"/>
<rect x="81.4" y="294.9" width="7.5" height="10.8" fill="none" stroke="#e34948" stroke-width="1.3"/>
<rect x="95.1" y="294.9" width="7.5" height="10.8" fill="#008300"/>
<rect x="108.7" y="298.5" width="7.5" height="7.2" fill="none" stroke="#e34948" stroke-width="1.3"/>
<rect x="122.4" y="294.9" width="7.5" height="3.6" fill="none" stroke="#e34948" stroke-width="1.3"/>
<rect x="136.1" y="294.9" width="7.5" height="1.2" fill="#898781"/>
<rect x="149.7" y="294.9" width="7.5" height="14.4" fill="#008300"/>
<rect x="163.4" y="309.3" width="7.5" height="1.2" fill="#898781"/>
<rect x="177.1" y="309.3" width="7.5" height="18.0" fill="#008300"/>
<rect x="190.7" y="327.2" width="7.5" height="10.8" fill="#008300"/>
<rect x="204.4" y="287.7" width="7.5" height="50.3" fill="none" stroke="#e34948" stroke-width="1.3"/>
<rect x="218.1" y="287.7" width="7.5" height="50.3" fill="#008300"/>
<rect x="231.7" y="309.3" width="7.5" height="28.8" fill="none" stroke="#e34948" stroke-width="1.3"/>
<rect x="245.4" y="309.3" width="7.5" height="3.6" fill="#008300"/>
<rect x="259.1" y="312.9" width="7.5" height="18.0" fill="#008300"/>
<rect x="272.7" y="316.5" width="7.5" height="14.4" fill="none" stroke="#e34948" stroke-width="1.3"/>
<rect x="286.4" y="316.5" width="7.5" height="14.4" fill="#008300"/>
<rect x="300.1" y="316.5" width="7.5" height="14.4" fill="none" stroke="#e34948" stroke-width="1.3"/>
<rect x="313.7" y="316.5" width="7.5" height="14.4" fill="#008300"/>
<rect x="327.4" y="305.7" width="7.5" height="25.2" fill="none" stroke="#e34948" stroke-width="1.3"/>
<rect x="341.1" y="305.7" width="7.5" height="18.0" fill="#008300"/>
<rect x="354.7" y="312.9" width="7.5" height="10.8" fill="none" stroke="#e34948" stroke-width="1.3"/>
<rect x="368.4" y="305.7" width="7.5" height="7.2" fill="none" stroke="#e34948" stroke-width="1.3"/>
<rect x="382.1" y="305.7" width="7.5" height="21.6" fill="#008300"/>
<rect x="395.7" y="316.5" width="7.5" height="10.8" fill="none" stroke="#e34948" stroke-width="1.3"/>
<rect x="409.4" y="316.5" width="7.5" height="1.2" fill="#898781"/>
<rect x="423.1" y="312.9" width="7.5" height="3.6" fill="none" stroke="#e34948" stroke-width="1.3"/>
<rect x="436.7" y="312.9" width="7.5" height="14.4" fill="#008300"/>
<rect x="450.4" y="327.2" width="7.5" height="14.4" fill="#008300"/>
<rect x="464.1" y="298.5" width="7.5" height="43.1" fill="none" stroke="#e34948" stroke-width="1.3"/>
<rect x="477.7" y="298.5" width="7.5" height="3.6" fill="#008300"/>
<rect x="491.4" y="302.1" width="7.5" height="32.4" fill="#008300"/>
<rect x="505.1" y="302.1" width="7.5" height="32.4" fill="none" stroke="#e34948" stroke-width="1.3"/>
<rect x="518.7" y="302.1" width="7.5" height="10.8" fill="#008300"/>
<rect x="532.4" y="312.9" width="7.5" height="10.8" fill="#008300"/>
<rect x="546.1" y="309.3" width="7.5" height="14.4" fill="none" stroke="#e34948" stroke-width="1.3"/>
<rect x="559.7" y="309.3" width="7.5" height="21.6" fill="#008300"/>
<rect x="573.4" y="320.0" width="7.5" height="10.8" fill="none" stroke="#e34948" stroke-width="1.3"/>
<rect x="587.1" y="305.7" width="7.5" height="14.4" fill="none" stroke="#e34948" stroke-width="1.3"/>
<rect x="600.7" y="305.7" width="7.5" height="32.4" fill="#008300"/>
<rect x="614.4" y="323.6" width="7.5" height="14.4" fill="none" stroke="#e34948" stroke-width="1.3"/>
<rect x="628.1" y="323.6" width="7.5" height="1.2" fill="#898781"/>
<rect x="641.7" y="312.9" width="7.5" height="10.8" fill="none" stroke="#e34948" stroke-width="1.3"/>
<rect x="655.4" y="309.3" width="7.5" height="3.6" fill="none" stroke="#e34948" stroke-width="1.3"/>
<rect x="669.1" y="298.5" width="7.5" height="10.8" fill="none" stroke="#e34948" stroke-width="1.3"/>
<rect x="682.7" y="298.5" width="7.5" height="25.2" fill="#008300"/>
<rect x="696.4" y="291.3" width="7.5" height="32.4" fill="none" stroke="#e34948" stroke-width="1.3"/>
<rect x="710.1" y="291.3" width="7.5" height="50.3" fill="#008300"/>
<rect x="723.7" y="352.4" width="7.5" height="3.6" fill="none" stroke="#e34948" stroke-width="1.3"/>
<rect x="737.4" y="345.2" width="7.5" height="7.2" fill="none" stroke="#e34948" stroke-width="1.3"/>
<rect x="751.1" y="323.6" width="7.5" height="21.6" fill="none" stroke="#e34948" stroke-width="1.3"/>
<rect x="764.7" y="341.6" width="7.5" height="14.4" fill="none" stroke="#e34948" stroke-width="1.3"/>
<rect x="778.4" y="341.6" width="7.5" height="7.2" fill="#008300"/>
<rect x="792.1" y="345.2" width="7.5" height="3.6" fill="none" stroke="#e34948" stroke-width="1.3"/>
<rect x="805.7" y="341.6" width="7.5" height="3.6" fill="none" stroke="#e34948" stroke-width="1.3"/>
<rect x="819.4" y="284.1" width="7.5" height="57.5" fill="none" stroke="#e34948" stroke-width="1.3"/>
<circle cx="823.2" cy="284.1" r="2" fill="#52514e"/>
<line x1="823.2" y1="284.1" x2="815.2" y2="284.1" stroke="#52514e" stroke-width="1.0"/>
<text x="812.2" y="288.1" font-size="11.0" fill="#52514e" text-anchor="end">20</text>
<circle cx="727.5" cy="356.0" r="2" fill="#52514e"/>
<line x1="727.5" y1="356.0" x2="719.5" y2="356.0" stroke="#52514e" stroke-width="1.0"/>
<text x="716.5" y="350.0" font-size="11.0" fill="#52514e" text-anchor="end">0</text>
<text x="14.0" y="376.0" font-size="11.0" fill="#52514e">VOL 0 forks</text>
<text x="90.6" y="376.0" font-size="11.0" fill="#eda100">MA5:0</text>
<text x="130.8" y="376.0" font-size="11.0" fill="#2a78d6">MA10:0.1</text>
<text x="14.0" y="395.0" font-size="10" fill="#898781">2</text>
<rect x="54.1" y="429.0" width="7.5" height="41.0" fill="#008300"/>
<rect x="108.7" y="429.0" width="7.5" height="41.0" fill="none" stroke="#e34948" stroke-width="1.1"/>
<rect x="122.4" y="429.0" width="7.5" height="41.0" fill="none" stroke="#e34948" stroke-width="1.1"/>
<rect x="136.1" y="388.0" width="7.5" height="82.0" fill="#898781"/>
<rect x="149.7" y="429.0" width="7.5" height="41.0" fill="#008300"/>
<rect x="163.4" y="429.0" width="7.5" height="41.0" fill="#898781"/>
<rect x="259.1" y="429.0" width="7.5" height="41.0" fill="#008300"/>
<rect x="300.1" y="429.0" width="7.5" height="41.0" fill="none" stroke="#e34948" stroke-width="1.1"/>
<rect x="327.4" y="429.0" width="7.5" height="41.0" fill="none" stroke="#e34948" stroke-width="1.1"/>
<rect x="368.4" y="429.0" width="7.5" height="41.0" fill="none" stroke="#e34948" stroke-width="1.1"/>
<rect x="382.1" y="429.0" width="7.5" height="41.0" fill="#008300"/>
<rect x="450.4" y="429.0" width="7.5" height="41.0" fill="#008300"/>
<rect x="464.1" y="429.0" width="7.5" height="41.0" fill="none" stroke="#e34948" stroke-width="1.1"/>
<rect x="491.4" y="429.0" width="7.5" height="41.0" fill="#008300"/>
<rect x="587.1" y="388.0" width="7.5" height="82.0" fill="none" stroke="#e34948" stroke-width="1.1"/>
<rect x="682.7" y="429.0" width="7.5" height="41.0" fill="#008300"/>
<rect x="696.4" y="429.0" width="7.5" height="41.0" fill="none" stroke="#e34948" stroke-width="1.1"/>
<polyline points="16.8,453.6 30.5,457.7 44.2,457.7 57.8,453.6 71.5,453.6 85.2,457.7 98.8,461.8 112.5,457.7 126.2,457.7 139.8,449.5 153.5,445.4 167.2,441.3 180.8,441.3 194.5,445.4 208.2,445.4 221.8,445.4 235.5,445.4 249.2,449.5 262.8,449.5 276.5,457.7 290.2,461.8 303.8,461.8 317.5,461.8 331.2,457.7 344.8,457.7 358.5,457.7 372.2,453.6 385.8,449.5 399.5,453.6 413.2,453.6 426.8,453.6 440.5,457.7 454.2,453.6 467.8,453.6 481.5,453.6 495.2,449.5 508.8,453.6 522.5,457.7 536.2,457.7 549.8,457.7 563.5,457.7 577.2,457.7 590.8,453.6 604.5,457.7 618.2,457.7 631.8,461.8 645.5,461.8 659.2,461.8 672.8,461.8 686.5,457.7 700.2,453.6 713.8,453.6 727.5,461.8 741.2,461.8 754.8,461.8 768.5,461.8 782.2,461.8 795.8,461.8 809.5,461.8 823.2,465.9" fill="none" stroke="#2a78d6" stroke-width="1.5" stroke-linejoin="round" stroke-linecap="round"/>
<polyline points="16.8,453.6 30.5,461.8 44.2,461.8 57.8,461.8 71.5,461.8 85.2,461.8 98.8,461.8 112.5,453.6 126.2,453.6 139.8,437.2 153.5,429.0 167.2,420.8 180.8,429.0 194.5,437.2 208.2,453.6 221.8,461.8 235.5,470.0 249.2,470.0 262.8,461.8 276.5,461.8 290.2,461.8 303.8,453.6 317.5,453.6 331.2,453.6 344.8,453.6 358.5,453.6 372.2,453.6 385.8,445.4 399.5,453.6 413.2,453.6 426.8,453.6 440.5,461.8 454.2,461.8 467.8,453.6 481.5,453.6 495.2,445.4 508.8,445.4 522.5,453.6 536.2,461.8 549.8,461.8 563.5,470.0 577.2,470.0 590.8,453.6 604.5,453.6 618.2,453.6 631.8,453.6 645.5,453.6 659.2,470.0 672.8,470.0 686.5,461.8 700.2,453.6 713.8,453.6 727.5,453.6 741.2,453.6 754.8,461.8 768.5,470.0 782.2,470.0 795.8,470.0 809.5,470.0 823.2,470.0" fill="none" stroke="#eda100" stroke-width="1.5" stroke-linejoin="round" stroke-linecap="round"/>
</svg>