<svg xmlns="http://www.w3.org/2000/svg" viewBox="0 0 840 496" width="840" height="496" font-family="-apple-system,&#39;Segoe UI&#39;,system-ui,sans-serif" role="img" aria-label="996icu/996.ICU candlestick chart">
<text x="14.0" y="20.0" font-size="15" fill="#0b0b0b" font-weight="650">996icu/996.ICU</text>
<text x="133.5" y="20.0" font-size="11.5" fill="#52514e">daily · new stars, volume = new forks</text>
<text x="805.8" y="20.0" font-size="11.0" fill="#52514e">fall</text>
<rect x="791" y="10" width="9" height="12" fill="#008300"/>
<text x="750.6" y="20.0" font-size="11.0" fill="#52514e">rise</text>
<rect x="736" y="10" width="9" height="12" fill="none" stroke="#e34948" stroke-width="1.5"/>
<text x="14.0" y="38.0" font-size="11.0" fill="#898781">last 60 days · +652 stars · +19 forks · updated 2026-07-19</text>
<rect x="10" y="66" width="820" height="290" fill="none" stroke="#e1e0d9"/>
<rect x="10" y="384" width="820" height="86" fill="none" stroke="#e1e0d9"/>
<text x="38.0" y="490.0" font-size="11.0" fill="#898781" text-anchor="middle">2026-05</text>
<line x1="201.3" y1="66.0" x2="201.3" y2="356.0" stroke="#e1e0d9" stroke-width="1.0"/>
<line x1="201.3" y1="384.0" x2="201.3" y2="470.0" stroke="#e1e0d9" stroke-width="1.0"/>
<text x="208.2" y="490.0" font-size="11.0" fill="#898781" text-anchor="middle">2026-06</text>
<line x1="611.3" y1="66.0" x2="611.3" y2="356.0" stroke="#e1e0d9" stroke-width="1.0"/>
<line x1="611.3" y1="384.0" x2="611.3" y2="470.0" stroke="#e1e0d9" stroke-width="1.0"/>
<text x="618.2" y="490.0" font-size="11.0" fill="#898781" text-anchor="middle">2026-07</text>
<text x="14.0" y="58.0" font-size="11.0" fill="#52514e">BOLL(20,2)</text>
<text x="84.5" y="58.0" font-size="11.0" fill="#eda100">UP:20.1</text>
<text x="136.9" y="58.0" font-size="11.0" fill="#2a78d6">MID:9</text>
<text x="177.1" y="58.0" font-size="11.0" fill="#e87ba4">LOW:0</text>
<text x="217.4" y="58.0" font-size="11.0" fill="#4a3aa7">MA7:8.1</text>
<line x1="10.0" y1="356.0" x2="830.0" y2="356.0" stroke="#e1e0d9" stroke-width="1.0"/>
<text x="14.0" y="353.0" font-size="11.0" fill="#898781">0</text>
<line x1="10.0" y1="253.9" x2="830.0" y2="253.9" stroke="#e1e0d9" stroke-width="1.0"/>
<text x="14.0" y="250.9" font-size="11.0" fill="#898781">10</text>
<line x1="10.0" y1="151.9" x2="830.0" y2="151.9" stroke="#e1e0d9" stroke-width="1.0"/>
<text x="14.0" y="148.9" font-size="11.0" fill="#898781">20</text>
<polyline points="16.8,79.8 30.5,159.9 44.2,158.5 57.8,159.3 71.5,159.2 85.2,158.9 98.8,157.0 112.5,157.6 126.2,156.4 139.8,161.2 153.5,163.6 167.2,157.4 180.8,146.3 194.5,142.9 208.2,136.7 221.8,136.5 235.5,140.1 249.2,137.9 262.8,138.3 276.5,136.6 290.2,143.1 303.8,147.5 317.5,148.6 331.2,150.7 344.8,156.9 358.5,156.9 372.2,162.4 385.8,170.3 399.5,179.1 413.2,180.2 426.8,183.1 440.5,180.3 454.2,174.0 467.8,183.8 481.5,184.8 495.2,181.6 508.8,181.6 522.5,182.2 536.2,180.3 549.8,180.3 563.5,180.8 577.2,177.9 590.8,178.9 604.5,178.9 618.2,180.5 631.8,183.1 645.5,180.4 659.2,173.7 672.8,174.3 686.5,164.4 700.2,161.5 713.8,157.1 727.5,161.3 741.2,167.3 754.8,166.2 768.5,170.5 782.2,172.7 795.8,173.3 809.5,158.4 823.2,151.1" fill="none" stroke="#eda100" stroke-width="1.5" stroke-linejoin="round" stroke-linecap="round"/>
<polyline points="16.8,207.0 30.5,218.2 44.2,216.7 57.8,217.2 71.5,212.6 85.2,212.1 98.8,210.6 112.5,206.5 126.2,206.0 139.8,203.9 153.5,206.0 167.2,208.0 180.8,211.6 194.5,210.6 208.2,215.7 221.8,215.1 235.5,217.7 249.2,220.8 262.8,221.8 276.5,224.3 290.2,227.9 303.8,233.0 317.5,233.5 331.2,236.1 344.8,238.6 358.5,238.6 372.2,242.7 385.8,245.8 399.5,248.8 413.2,249.3 426.8,251.9 440.5,253.9 454.2,248.3 467.8,250.4 481.5,249.9 495.2,248.8 508.8,248.8 522.5,247.8 536.2,246.8 549.8,246.8 563.5,247.3 577.2,243.7 590.8,248.3 604.5,248.3 618.2,249.9 631.8,250.9 645.5,248.3 659.2,245.8 672.8,246.8 686.5,243.7 700.2,245.8 713.8,247.3 727.5,253.9 741.2,257.0 754.8,258.0 768.5,264.7 782.2,269.2 795.8,271.8 809.5,268.2 823.2,264.1" fill="none" stroke="#2a78d6" stroke-width="1.5" stroke-linejoin="round" stroke-linecap="round"/>
<polyline points="16.8,334.2 30.5,276.5 44.2,274.9 57.8,275.1 71.5,266.0 85.2,265.3 98.8,264.1 112.5,255.4 126.2,255.6 139.8,246.7 153.5,248.3 167.2,258.6 180.8,276.9 194.5,278.2 208.2,294.7 221.8,293.8 235.5,295.3 249.2,303.6 262.8,305.3 276.5,312.1 290.2,312.7 303.8,318.5 317.5,318.4 331.2,321.4 344.8,320.4 358.5,320.4 372.2,323.0 385.8,321.2 399.5,318.5 413.2,318.4 426.8,320.7 440.5,327.5 454.2,322.6 467.8,316.9 481.5,314.9 495.2,316.1 508.8,316.1 522.5,313.4 536.2,313.2 549.8,313.2 563.5,313.8 577.2,309.6 590.8,317.7 604.5,317.7 618.2,319.2 631.8,318.6 645.5,316.2 659.2,317.8 672.8,319.3 686.5,323.0 700.2,330.1 713.8,337.5 727.5,346.6 741.2,346.7 754.8,349.9 768.5,356.0 782.2,356.0 795.8,356.0 809.5,356.0 823.2,356.0" fill="none" stroke="#e87ba4" stroke-width="1.5" stroke-linejoin="round" stroke-linecap="round"/>
<polyline points="16.8,210.0 30.5,207.0 44.2,202.9 57.8,207.0 71.5,201.9 85.2,199.8 98.8,193.7 112.5,195.8 126.2,195.8 139.8,198.8 153.5,199.8 167.2,213.1 180.8,226.4 194.5,222.3 208.2,239.6 221.8,244.7 235.5,246.8 249.2,255.0 262.8,250.9 276.5,247.8 290.2,260.1 303.8,257.0 317.5,255.0 331.2,260.1 344.8,252.9 358.5,247.8 372.2,246.8 385.8,246.8 399.5,240.7 413.2,243.7 426.8,244.7 440.5,257.0 454.2,253.9 467.8,243.7 481.5,250.9 495.2,244.7 508.8,244.7 522.5,243.7 536.2,230.5 549.8,243.7 563.5,250.9 577.2,239.6 590.8,253.9 604.5,258.0 618.2,258.0 631.8,260.1 645.5,250.9 659.2,242.7 672.8,249.9 686.5,230.5 700.2,237.6 713.8,249.9 727.5,263.1 741.2,268.2 754.8,285.6 768.5,295.8 782.2,318.2 795.8,318.2 809.5,290.7 823.2,273.3" fill="none" stroke="#4a3aa7" stroke-width="1.5" stroke-linejoin="round" stroke-linecap="round"/>
<rect x="13.1" y="172.3" width="7.5" height="61.2" fill="none" stroke="#e34948" stroke-width="1.3"/>
<rect x="26.7" y="172.3" width="7.5" height="10.2" fill="#008300"/>
<rect x="40.4" y="182.5" width="7.5" height="20.4" fill="#008300"/>
<rect x="54.1" y="202.9" width="7.5" height="10.2" fill="#008300"/>
<rect x="67.7" y="182.5" width="7.5" height="30.6" fill="none" stroke="#e34948" stroke-width="1.3"/>
<rect x="81.4" y="182.5" width="7.5" height="30.6" fill="#008300"/>
<rect x="95.1" y="192.7" width="7.5" height="20.4" fill="none" stroke="#e34948" stroke-width="1.3"/>
<rect x="108.7" y="182.5" width="7.5" height="10.2" fill="none" stroke="#e34948" stroke-width="1.3"/>
<rect x="122.4" y="182.5" width="7.5" height="1.2" fill="#898781"/>
<rect x="136.1" y="182.5" width="7.5" height="40.8" fill="#008300"/>
<rect x="149.7" y="223.3" width="7.5" height="1.2" fill="#898781"/>
<rect x="163.4" y="223.3" width="7.5" height="51.0" fill="#008300"/>
<rect x="177.1" y="274.3" width="7.5" height="30.6" fill="#008300"/>
<rect x="190.7" y="162.1" width="7.5" height="142.9" fill="none" stroke="#e34948" stroke-width="1.3"/>
<rect x="204.4" y="162.1" width="7.5" height="142.9" fill="#008300"/>
<rect x="218.1" y="223.3" width="7.5" height="81.7" fill="none" stroke="#e34948" stroke-width="1.3"/>
<rect x="231.7" y="223.3" width="7.5" height="10.2" fill="#008300"/>
<rect x="245.4" y="233.5" width="7.5" height="51.0" fill="#008300"/>
<rect x="259.1" y="243.7" width="7.5" height="40.8" fill="none" stroke="#e34948" stroke-width="1.3"/>
<rect x="272.7" y="243.7" width="7.5" height="40.8" fill="#008300"/>
<rect x="286.4" y="243.7" width="7.5" height="40.8" fill="none" stroke="#e34948" stroke-width="1.3"/>
<rect x="300.1" y="243.7" width="7.5" height="40.8" fill="#008300"/>
<rect x="313.7" y="213.1" width="7.5" height="71.4" fill="none" stroke="#e34948" stroke-width="1.3"/>
<rect x="327.4" y="213.1" width="7.5" height="51.0" fill="#008300"/>
<rect x="341.1" y="233.5" width="7.5" height="30.6" fill="none" stroke="#e34948" stroke-width="1.3"/>
<rect x="354.7" y="213.1" width="7.5" height="20.4" fill="none" stroke="#e34948" stroke-width="1.3"/>
<rect x="368.4" y="213.1" width="7.5" height="61.2" fill="#008300"/>
<rect x="382.1" y="243.7" width="7.5" height="30.6" fill="none" stroke="#e34948" stroke-width="1.3"/>
<rect x="395.7" y="243.7" width="7.5" height="1.2" fill="#898781"/>
<rect x="409.4" y="233.5" width="7.5" height="10.2" fill="none" stroke="#e34948" stroke-width="1.3"/>
<rect x="423.1" y="233.5" width="7.5" height="40.8" fill="#008300"/>
<rect x="436.7" y="274.3" width="7.5" height="40.8" fill="#008300"/>
<rect x="450.4" y="192.7" width="7.5" height="122.5" fill="none" stroke="#e34948" stroke-width="1.3"/>
<rect x="464.1" y="192.7" width="7.5" height="10.2" fill="#008300"/>
<rect x="477.7" y="202.9" width="7.5" height="91.9" fill="#008300"/>
<rect x="491.4" y="202.9" width="7.5" height="91.9" fill="none" stroke="#e34948" stroke-width="1.3"/>
<rect x="505.1" y="202.9" width="7.5" height="30.6" fill="#008300"/>
<rect x="518.7" y="233.5" width="7.5" height="30.6" fill="#008300"/>
<rect x="532.4" y="223.3" width="7.5" height="40.8" fill="none" stroke="#e34948" stroke-width="1.3"/>
<rect x="546.1" y="223.3" width="7.5" height="61.2" fill="#008300"/>
<rect x="559.7" y="253.9" width="7.5" height="30.6" fill="none" stroke="#e34948" stroke-width="1.3"/>
<rect x="573.4" y="213.1" width="7.5" height="40.8" fill="none" stroke="#e34948" stroke-width="1.3"/>
<rect x="587.1" y="213.1" width="7.5" height="91.9" fill="#008300"/>
<rect x="600.7" y="264.1" width="7.5" height="40.8" fill="none" stroke="#e34948" stroke-width="1.3"/>
<rect x="614.4" y="264.1" width="7.5" height="1.2" fill="#898781"/>
<rect x="628.1" y="233.5" width="7.5" height="30.6" fill="none" stroke="#e34948" stroke-width="1.3"/>
<rect x="641.7" y="223.3" width="7.5" height="10.2" fill="none" stroke="#e34948" stroke-width="1.3"/>
<rect x="655.4" y="192.7" width="7.5" height="30.6" fill="none" stroke="#e34948" stroke-width="1.3"/>
<rect x="669.1" y="192.7" width="7.5" height="71.4" fill="#008300"/>
<rect x="682.7" y="172.3" width="7.5" height="91.9" fill="none" stroke="#e34948" stroke-width="1.3"/>
<rect x="696.4" y="172.3" width="7.5" height="142.9" fill="#008300"/>
<rect x="710.1" y="345.8" width="7.5" height="10.2" fill="none" stroke="#e34948" stroke-width="1.3"/>
<rect x="723.7" y="325.4" width="7.5" height="20.4" fill="none" stroke="#e34948" stroke-width="1.3"/>
<rect x="737.4" y="264.1" width="7.5" height="61.2" fill="none" stroke="#e34948" stroke-width="1.3"/>
<rect x="751.1" y="315.2" width="7.5" height="40.8" fill="none" stroke="#e34948" stroke-width="1.3"/>
<rect x="764.7" y="315.2" width="7.5" height="20.4" fill="#008300"/>
<rect x="778.4" y="325.4" width="7.5" height="10.2" fill="none" stroke="#e34948" stroke-width="1.3"/>
<rect x="792.1" y="315.2" width="7.5" height="10.2" fill="none" stroke="#e34948" stroke-width="1.3"/>
<rect x="805.7" y="151.9" width="7.5" height="163.3" fill="none" stroke="#e34948" stroke-width="1.3"/>
<rect x="819.4" y="151.9" width="7.5" height="51.0" fill="#008300"/>
<circle cx="809.5" cy="151.9" r="2" fill="#52514e"/>
<line x1="809.5" y1="151.9" x2="801.5" y2="151.9" stroke="#52514e" stroke-width="1.0"/>
<text x="798.5" y="155.9" font-size="11.0" fill="#52514e" text-anchor="end">20</text>
<circle cx="713.8" cy="356.0" r="2" fill="#52514e"/>
<line x1="713.8" y1="356.0" x2="705.8" y2="356.0" stroke="#52514e" stroke-width="1.0"/>
<text x="702.8" y="350.0" font-size="11.0" fill="#52514e" text-anchor="end">0</text>
<text x="14.0" y="376.0" font-size="11.0" fill="#52514e">VOL 0 forks</text>
<text x="90.6" y="376.0" font-size="11.0" fill="#eda100">MA5:0</text>
<text x="130.8" y="376.0" font-size="11.0" fill="#2a78d6">MA10:0</text>
<text x="14.0" y="395.0" font-size="10" fill="#898781">2</text>
<rect x="40.4" y="429.0" width="7.5" height="41.0" fill="#008300"/>
<rect x="95.1" y="429.0" width="7.5" height="41.0" fill="none" stroke="#e34948" stroke-width="1.1"/>
<rect x="108.7" y="429.0" width="7.5" height="41.0" fill="none" stroke="#e34948" stroke-width="1.1"/>
<rect x="122.4" y="388.0" width="7.5" height="82.0" fill="#898781"/>
<rect x="136.1" y="429.0" width="7.5" height="41.0" fill="#008300"/>
<rect x="149.7" y="429.0" width="7.5" height="41.0" fill="#898781"/>
<rect x="245.4" y="429.0" width="7.5" height="41.0" fill="#008300"/>
<rect x="286.4" y="429.0" width="7.5" height="41.0" fill="none" stroke="#e34948" stroke-width="1.1"/>
<rect x="313.7" y="429.0" width="7.5" height="41.0" fill="none" stroke="#e34948" stroke-width="1.1"/>
<rect x="354.7" y="429.0" width="7.5" height="41.0" fill="none" stroke="#e34948" stroke-width="1.1"/>
<rect x="368.4" y="429.0" width="7.5" height="41.0" fill="#008300"/>
<rect x="436.7" y="429.0" width="7.5" height="41.0" fill="#008300"/>
<rect x="450.4" y="429.0" width="7.5" height="41.0" fill="none" stroke="#e34948" stroke-width="1.1"/>
<rect x="477.7" y="429.0" width="7.5" height="41.0" fill="#008300"/>
<rect x="573.4" y="388.0" width="7.5" height="82.0" fill="none" stroke="#e34948" stroke-width="1.1"/>
<rect x="669.1" y="429.0" width="7.5" height="41.0" fill="#008300"/>
<rect x="682.7" y="429.0" width="7.5" height="41.0" fill="none" stroke="#e34948" stroke-width="1.1"/>
<polyline points="16.8,457.7 30.5,457.7 44.2,453.6 57.8,453.6 71.5,457.7 85.2,461.8 98.8,457.7 112.5,457.7 126.2,449.5 139.8,445.4 153.5,441.3 167.2,441.3 180.8,445.4 194.5,445.4 208.2,445.4 221.8,445.4 235.5,449.5 249.2,449.5 262.8,457.7 276.5,461.8 290.2,461.8 303.8,461.8 317.5,457.7 331.2,457.7 344.8,457.7 358.5,453.6 372.2,449.5 385.8,453.6 399.5,453.6 413.2,453.6 426.8,457.7 440.5,453.6 454.2,453.6 467.8,453.6 481.5,449.5 495.2,453.6 508.8,457.7 522.5,457.7 536.2,457.7 549.8,457.7 563.5,457.7 577.2,453.6 590.8,457.7 604.5,457.7 618.2,461.8 631.8,461.8 645.5,461.8 659.2,461.8 672.8,457.7 686.5,453.6 700.2,453.6 713.8,461.8 727.5,461.8 741.2,461.8 754.8,461.8 768.5,461.8 782.2,461.8 795.8,461.8 809.5,465.9 823.2,470.0" fill="none" stroke="#2a78d6" stroke-width="1.5" stroke-linejoin="round" stroke-linecap="round"/>
<polyline points="16.8,461.8 30.5,461.8 44.2,461.8 57.8,461.8 71.5,461.8 85.2,461.8 98.8,453.6 112.5,453.6 126.2,437.2 139.8,429.0 153.5,420.8 167.2,429.0 180.8,437.2 194.5,453.6 208.2,461.8 221.8,470.0 235.5,470.0 249.2,461.8 262.8,461.8 276.5,461.8 290.2,453.6 303.8,453.6 317.5,453.6 331.2,453.6 344.8,453.6 358.5,453.6 372.2,445.4 385.8,453.6 399.5,453.6 413.2,453.6 426.8,461.8 440.5,461.8 454.2,453.6 467.8,453.6 481.5,445.4 495.2,445.4 508.8,453.6 522.5,461.8 536.2,461.8 549.8,470.0 563.5,470.0 577.2,453.6 590.8,453.6 604.5,453.6 618.2,453.6 631.8,453.6 645.5,470.0 659.2,470.0 672.8,461.8 686.5,453.6 700.2,453.6 713.8,453.6 727.5,453.6 741.2,461.8 754.8,470.0 768.5,470.0 782.2,470.0 795.8,470.0 809.5,470.0 823.2,470.0" fill="none" stroke="#eda100" stroke-width="1.5" stroke-linejoin="round" stroke-linecap="round"/>
</svg>