<svg xmlns="http://www.w3.org/2000/svg" viewBox="0 0 840 496" width="840" height="496" font-family="-apple-system,&#39;Segoe UI&#39;,system-ui,sans-serif" role="img" aria-label="996icu/996.ICU candlestick chart">
<text x="14.0" y="20.0" font-size="15" fill="#0b0b0b" font-weight="650">996icu/996.ICU</text>
<text x="133.5" y="20.0" font-size="11.5" fill="#52514e">daily · new stars, volume = new forks</text>
<text x="805.8" y="20.0" font-size="11.0" fill="#52514e">fall</text>
<rect x="791" y="10" width="9" height="12" fill="#008300"/>
<text x="750.6" y="20.0" font-size="11.0" fill="#52514e">rise</text>
<rect x="736" y="10" width="9" height="12" fill="none" stroke="#e34948" stroke-width="1.5"/>
<text x="14.0" y="38.0" font-size="11.0" fill="#898781">last 60 days · +714 stars · +22 forks · updated 2026-07-08</text>
<rect x="10" y="66" width="820" height="290" fill="none" stroke="#e1e0d9"/>
<rect x="10" y="384" width="820" height="86" fill="none" stroke="#e1e0d9"/>
<text x="38.0" y="490.0" font-size="11.0" fill="#898781" text-anchor="middle">2026-05</text>
<line x1="324.3" y1="66.0" x2="324.3" y2="356.0" stroke="#e1e0d9" stroke-width="1.0"/>
<line x1="324.3" y1="384.0" x2="324.3" y2="470.0" stroke="#e1e0d9" stroke-width="1.0"/>
<text x="331.2" y="490.0" font-size="11.0" fill="#898781" text-anchor="middle">2026-06</text>
<line x1="734.3" y1="66.0" x2="734.3" y2="356.0" stroke="#e1e0d9" stroke-width="1.0"/>
<line x1="734.3" y1="384.0" x2="734.3" y2="470.0" stroke="#e1e0d9" stroke-width="1.0"/>
<text x="741.2" y="490.0" font-size="11.0" fill="#898781" text-anchor="middle">2026-07</text>
<text x="14.0" y="58.0" font-size="11.0" fill="#52514e">BOLL(20,2)</text>
<text x="84.5" y="58.0" font-size="11.0" fill="#eda100">UP:19.1</text>
<text x="136.9" y="58.0" font-size="11.0" fill="#2a78d6">MID:10.8</text>
<text x="195.3" y="58.0" font-size="11.0" fill="#e87ba4">LOW:2.5</text>
<text x="247.6" y="58.0" font-size="11.0" fill="#4a3aa7">MA7:11.6</text>
<line x1="10.0" y1="356.0" x2="830.0" y2="356.0" stroke="#e1e0d9" stroke-width="1.0"/>
<text x="14.0" y="353.0" font-size="11.0" fill="#898781">0</text>
<line x1="10.0" y1="176.6" x2="830.0" y2="176.6" stroke="#e1e0d9" stroke-width="1.0"/>
<text x="14.0" y="173.6" font-size="11.0" fill="#898781">50</text>
<polyline points="16.8,79.8 30.5,80.8 44.2,80.8 57.8,80.4 71.5,80.4 85.2,79.8 98.8,80.1 112.5,80.4 126.2,80.3 139.8,258.9 153.5,287.1 167.2,286.6 180.8,286.9 194.5,286.8 208.2,286.7 221.8,286.0 235.5,286.2 249.2,285.8 262.8,287.5 276.5,288.4 290.2,286.2 303.8,282.3 317.5,281.1 331.2,278.9 344.8,278.8 358.5,280.1 372.2,279.3 385.8,279.5 399.5,278.9 413.2,281.1 426.8,282.7 440.5,283.1 454.2,283.8 467.8,286.0 481.5,286.0 495.2,287.9 508.8,290.7 522.5,293.8 536.2,294.2 549.8,295.2 563.5,294.2 577.2,292.0 590.8,295.5 604.5,295.8 618.2,294.7 631.8,294.7 645.5,294.9 659.2,294.2 672.8,294.2 686.5,294.4 700.2,293.4 713.8,293.7 727.5,293.7 741.2,294.3 754.8,295.2 768.5,294.3 782.2,291.9 795.8,292.1 809.5,288.6 823.2,287.6" fill="none" stroke="#eda100" stroke-width="1.5" stroke-linejoin="round" stroke-linecap="round"/>
<polyline points="16.8,281.5 30.5,283.0 44.2,283.0 57.8,281.9 71.5,281.9 85.2,280.8 98.8,281.4 112.5,281.9 126.2,281.7 139.8,303.6 153.5,307.6 167.2,307.0 180.8,307.2 194.5,305.6 208.2,305.4 221.8,304.9 235.5,303.4 249.2,303.3 262.8,302.5 276.5,303.3 290.2,304.0 303.8,305.2 317.5,304.9 331.2,306.7 344.8,306.5 358.5,307.4 372.2,308.5 385.8,308.8 399.5,309.7 413.2,311.0 426.8,312.8 440.5,312.9 454.2,313.8 467.8,314.7 481.5,314.7 495.2,316.2 508.8,317.2 522.5,318.3 536.2,318.5 549.8,319.4 563.5,320.1 577.2,318.1 590.8,318.9 604.5,318.7 618.2,318.3 631.8,318.3 645.5,318.0 659.2,317.6 672.8,317.6 686.5,317.8 700.2,316.5 713.8,318.1 727.5,318.1 741.2,318.7 754.8,319.0 768.5,318.1 782.2,317.2 795.8,317.6 809.5,316.5 823.2,317.2" fill="none" stroke="#2a78d6" stroke-width="1.5" stroke-linejoin="round" stroke-linecap="round"/>
<polyline points="16.8,356.0 30.5,356.0 44.2,356.0 57.8,356.0 71.5,356.0 85.2,356.0 98.8,356.0 112.5,356.0 126.2,356.0 139.8,348.3 153.5,328.0 167.2,327.5 180.8,327.5 194.5,324.4 208.2,324.1 221.8,323.7 235.5,320.6 249.2,320.7 262.8,317.6 276.5,318.1 290.2,321.8 303.8,328.2 317.5,328.7 331.2,334.4 344.8,334.1 358.5,334.6 372.2,337.6 385.8,338.2 399.5,340.6 413.2,340.8 426.8,342.8 440.5,342.8 454.2,343.8 467.8,343.5 481.5,343.5 495.2,344.4 508.8,343.8 522.5,342.8 536.2,342.8 549.8,343.6 563.5,346.0 577.2,344.3 590.8,342.3 604.5,341.5 618.2,342.0 631.8,342.0 645.5,341.0 659.2,341.0 672.8,341.0 686.5,341.2 700.2,339.7 713.8,342.5 727.5,342.5 741.2,343.0 754.8,342.9 768.5,342.0 782.2,342.6 795.8,343.1 809.5,344.4 823.2,346.9" fill="none" stroke="#e87ba4" stroke-width="1.5" stroke-linejoin="round" stroke-linecap="round"/>
<polyline points="16.8,310.4 30.5,310.8 44.2,309.0 57.8,305.8 71.5,307.9 85.2,303.6 98.8,305.8 112.5,305.4 126.2,305.4 139.8,304.7 153.5,303.6 167.2,302.2 180.8,303.6 194.5,301.8 208.2,301.1 221.8,298.9 235.5,299.7 249.2,299.7 262.8,300.7 276.5,301.1 290.2,305.8 303.8,310.4 317.5,309.0 331.2,315.1 344.8,316.9 358.5,317.6 372.2,320.5 385.8,319.0 399.5,318.0 413.2,322.3 426.8,321.2 440.5,320.5 454.2,322.3 467.8,319.8 481.5,318.0 495.2,317.6 508.8,317.6 522.5,315.5 536.2,316.5 549.8,316.9 563.5,321.2 577.2,320.1 590.8,316.5 604.5,319.0 618.2,316.9 631.8,316.9 645.5,316.5 659.2,311.9 672.8,316.5 686.5,319.0 700.2,315.1 713.8,320.1 727.5,321.6 741.2,321.6 754.8,322.3 768.5,319.0 782.2,316.2 795.8,318.7 809.5,311.9 823.2,314.4" fill="none" stroke="#4a3aa7" stroke-width="1.5" stroke-linejoin="round" stroke-linecap="round"/>
<rect x="13.1" y="295.0" width="7.5" height="17.9" fill="#008300"/>
<rect x="26.7" y="312.9" width="7.5" height="1.2" fill="#898781"/>
<rect x="40.4" y="295.0" width="7.5" height="17.9" fill="none" stroke="#e34948" stroke-width="1.3"/>
<rect x="54.1" y="295.0" width="7.5" height="7.2" fill="#008300"/>
<rect x="67.7" y="302.2" width="7.5" height="10.8" fill="#008300"/>
<rect x="81.4" y="295.0" width="7.5" height="17.9" fill="none" stroke="#e34948" stroke-width="1.3"/>
<rect x="95.1" y="295.0" width="7.5" height="14.4" fill="#008300"/>
<rect x="108.7" y="309.4" width="7.5" height="1.2" fill="#898781"/>
<rect x="122.4" y="309.4" width="7.5" height="3.6" fill="#008300"/>
<rect x="136.1" y="291.4" width="7.5" height="21.5" fill="none" stroke="#e34948" stroke-width="1.3"/>
<rect x="149.7" y="291.4" width="7.5" height="3.6" fill="#008300"/>
<rect x="163.4" y="295.0" width="7.5" height="7.2" fill="#008300"/>
<rect x="177.1" y="302.2" width="7.5" height="3.6" fill="#008300"/>
<rect x="190.7" y="295.0" width="7.5" height="10.8" fill="none" stroke="#e34948" stroke-width="1.3"/>
<rect x="204.4" y="295.0" width="7.5" height="10.8" fill="#008300"/>
<rect x="218.1" y="298.6" width="7.5" height="7.2" fill="none" stroke="#e34948" stroke-width="1.3"/>
<rect x="231.7" y="295.0" width="7.5" height="3.6" fill="none" stroke="#e34948" stroke-width="1.3"/>
<rect x="245.4" y="295.0" width="7.5" height="1.2" fill="#898781"/>
<rect x="259.1" y="295.0" width="7.5" height="14.4" fill="#008300"/>
<rect x="272.7" y="309.4" width="7.5" height="1.2" fill="#898781"/>
<rect x="286.4" y="309.4" width="7.5" height="17.9" fill="#008300"/>
<rect x="300.1" y="327.3" width="7.5" height="10.8" fill="#008300"/>
<rect x="313.7" y="287.8" width="7.5" height="50.2" fill="none" stroke="#e34948" stroke-width="1.3"/>
<rect x="327.4" y="287.8" width="7.5" height="50.2" fill="#008300"/>
<rect x="341.1" y="309.4" width="7.5" height="28.7" fill="none" stroke="#e34948" stroke-width="1.3"/>
<rect x="354.7" y="309.4" width="7.5" height="3.6" fill="#008300"/>
<rect x="368.4" y="312.9" width="7.5" height="17.9" fill="#008300"/>
<rect x="382.1" y="316.5" width="7.5" height="14.4" fill="none" stroke="#e34948" stroke-width="1.3"/>
<rect x="395.7" y="316.5" width="7.5" height="14.4" fill="#008300"/>
<rect x="409.4" y="316.5" width="7.5" height="14.4" fill="none" stroke="#e34948" stroke-width="1.3"/>
<rect x="423.1" y="316.5" width="7.5" height="14.4" fill="#008300"/>
<rect x="436.7" y="305.8" width="7.5" height="25.1" fill="none" stroke="#e34948" stroke-width="1.3"/>
<rect x="450.4" y="305.8" width="7.5" height="17.9" fill="#008300"/>
<rect x="464.1" y="312.9" width="7.5" height="10.8" fill="none" stroke="#e34948" stroke-width="1.3"/>
<rect x="477.7" y="305.8" width="7.5" height="7.2" fill="none" stroke="#e34948" stroke-width="1.3"/>
<rect x="491.4" y="305.8" width="7.5" height="21.5" fill="#008300"/>
<rect x="505.1" y="316.5" width="7.5" height="10.8" fill="none" stroke="#e34948" stroke-width="1.3"/>
<rect x="518.7" y="316.5" width="7.5" height="1.2" fill="#898781"/>
<rect x="532.4" y="312.9" width="7.5" height="3.6" fill="none" stroke="#e34948" stroke-width="1.3"/>
<rect x="546.1" y="312.9" width="7.5" height="14.4" fill="#008300"/>
<rect x="559.7" y="327.3" width="7.5" height="14.4" fill="#008300"/>
<rect x="573.4" y="298.6" width="7.5" height="43.1" fill="none" stroke="#e34948" stroke-width="1.3"/>
<rect x="587.1" y="298.6" width="7.5" height="3.6" fill="#008300"/>
<rect x="600.7" y="302.2" width="7.5" height="32.3" fill="#008300"/>
<rect x="614.4" y="302.2" width="7.5" height="32.3" fill="none" stroke="#e34948" stroke-width="1.3"/>
<rect x="628.1" y="302.2" width="7.5" height="10.8" fill="#008300"/>
<rect x="641.7" y="312.9" width="7.5" height="10.8" fill="#008300"/>
<rect x="655.4" y="309.4" width="7.5" height="14.4" fill="none" stroke="#e34948" stroke-width="1.3"/>
<rect x="669.1" y="309.4" width="7.5" height="21.5" fill="#008300"/>
<rect x="682.7" y="320.1" width="7.5" height="10.8" fill="none" stroke="#e34948" stroke-width="1.3"/>
<rect x="696.4" y="305.8" width="7.5" height="14.4" fill="none" stroke="#e34948" stroke-width="1.3"/>
<rect x="710.1" y="305.8" width="7.5" height="32.3" fill="#008300"/>
<rect x="723.7" y="323.7" width="7.5" height="14.4" fill="none" stroke="#e34948" stroke-width="1.3"/>
<rect x="737.4" y="323.7" width="7.5" height="1.2" fill="#898781"/>
<rect x="751.1" y="312.9" width="7.5" height="10.8" fill="none" stroke="#e34948" stroke-width="1.3"/>
<rect x="764.7" y="309.4" width="7.5" height="3.6" fill="none" stroke="#e34948" stroke-width="1.3"/>
<rect x="778.4" y="298.6" width="7.5" height="10.8" fill="none" stroke="#e34948" stroke-width="1.3"/>
<rect x="792.1" y="298.6" width="7.5" height="25.1" fill="#008300"/>
<rect x="805.7" y="291.4" width="7.5" height="32.3" fill="none" stroke="#e34948" stroke-width="1.3"/>
<rect x="819.4" y="291.4" width="7.5" height="50.2" fill="#008300"/>
<circle cx="317.5" cy="287.8" r="2" fill="#52514e"/>
<line x1="317.5" y1="287.8" x2="325.5" y2="287.8" stroke="#52514e" stroke-width="1.0"/>
<text x="328.5" y="291.8" font-size="11.0" fill="#52514e">19</text>
<circle cx="563.5" cy="341.6" r="2" fill="#52514e"/>
<line x1="563.5" y1="341.6" x2="555.5" y2="341.6" stroke="#52514e" stroke-width="1.0"/>
<text x="552.5" y="345.6" font-size="11.0" fill="#52514e" text-anchor="end">4</text>
<text x="14.0" y="376.0" font-size="11.0" fill="#52514e">VOL 0 forks</text>
<text x="90.6" y="376.0" font-size="11.0" fill="#eda100">MA5:0.4</text>
<text x="142.9" y="376.0" font-size="11.0" fill="#2a78d6">MA10:0.4</text>
<text x="14.0" y="395.0" font-size="10" fill="#898781">2</text>
<rect x="54.1" y="429.0" width="7.5" height="41.0" fill="#008300"/>
<rect x="67.7" y="429.0" width="7.5" height="41.0" fill="#008300"/>
<rect x="95.1" y="429.0" width="7.5" height="41.0" fill="#008300"/>
<rect x="163.4" y="429.0" width="7.5" height="41.0" fill="#008300"/>
<rect x="218.1" y="429.0" width="7.5" height="41.0" fill="none" stroke="#e34948" stroke-width="1.1"/>
<rect x="231.7" y="429.0" width="7.5" height="41.0" fill="none" stroke="#e34948" stroke-width="1.1"/>
<rect x="245.4" y="388.0" width="7.5" height="82.0" fill="#898781"/>
<rect x="259.1" y="429.0" width="7.5" height="41.0" fill="#008300"/>
<rect x="272.7" y="429.0" width="7.5" height="41.0" fill="#898781"/>
<rect x="368.4" y="429.0" width="7.5" height="41.0" fill="#008300"/>
<rect x="409.4" y="429.0" width="7.5" height="41.0" fill="none" stroke="#e34948" stroke-width="1.1"/>
<rect x="436.7" y="429.0" width="7.5" height="41.0" fill="none" stroke="#e34948" stroke-width="1.1"/>
<rect x="477.7" y="429.0" width="7.5" height="41.0" fill="none" stroke="#e34948" stroke-width="1.1"/>
<rect x="491.4" y="429.0" width="7.5" height="41.0" fill="#008300"/>
<rect x="559.7" y="429.0" width="7.5" height="41.0" fill="#008300"/>
<rect x="573.4" y="429.0" width="7.5" height="41.0" fill="none" stroke="#e34948" stroke-width="1.1"/>
<rect x="600.7" y="429.0" width="7.5" height="41.0" fill="#008300"/>
<rect x="696.4" y="388.0" width="7.5" height="82.0" fill="none" stroke="#e34948" stroke-width="1.1"/>
<rect x="792.1" y="429.0" width="7.5" height="41.0" fill="#008300"/>
<rect x="805.7" y="429.0" width="7.5" height="41.0" fill="none" stroke="#e34948" stroke-width="1.1"/>
<polyline points="16.8,453.6 30.5,453.6 44.2,453.6 57.8,449.5 71.5,453.6 85.2,453.6 98.8,449.5 112.5,453.6 126.2,453.6 139.8,457.7 153.5,457.7 167.2,453.6 180.8,453.6 194.5,457.7 208.2,461.8 221.8,457.7 235.5,457.7 249.2,449.5 262.8,445.4 276.5,441.3 290.2,441.3 303.8,445.4 317.5,445.4 331.2,445.4 344.8,445.4 358.5,449.5 372.2,449.5 385.8,457.7 399.5,461.8 413.2,461.8 426.8,461.8 440.5,457.7 454.2,457.7 467.8,457.7 481.5,453.6 495.2,449.5 508.8,453.6 522.5,453.6 536.2,453.6 549.8,457.7 563.5,453.6 577.2,453.6 590.8,453.6 604.5,449.5 618.2,453.6 631.8,457.7 645.5,457.7 659.2,457.7 672.8,457.7 686.5,457.7 700.2,453.6 713.8,457.7 727.5,457.7 741.2,461.8 754.8,461.8 768.5,461.8 782.2,461.8 795.8,457.7 809.5,453.6 823.2,453.6" fill="none" stroke="#2a78d6" stroke-width="1.5" stroke-linejoin="round" stroke-linecap="round"/>
<polyline points="16.8,453.6 30.5,453.6 44.2,461.8 57.8,453.6 71.5,453.6 85.2,453.6 98.8,445.4 112.5,445.4 126.2,453.6 139.8,461.8 153.5,461.8 167.2,461.8 180.8,461.8 194.5,461.8 208.2,461.8 221.8,453.6 235.5,453.6 249.2,437.2 262.8,429.0 276.5,420.8 290.2,429.0 303.8,437.2 317.5,453.6 331.2,461.8 344.8,470.0 358.5,470.0 372.2,461.8 385.8,461.8 399.5,461.8 413.2,453.6 426.8,453.6 440.5,453.6 454.2,453.6 467.8,453.6 481.5,453.6 495.2,445.4 508.8,453.6 522.5,453.6 536.2,453.6 549.8,461.8 563.5,461.8 577.2,453.6 590.8,453.6 604.5,445.4 618.2,445.4 631.8,453.6 645.5,461.8 659.2,461.8 672.8,470.0 686.5,470.0 700.2,453.6 713.8,453.6 727.5,453.6 741.2,453.6 754.8,453.6 768.5,470.0 782.2,470.0 795.8,461.8 809.5,453.6 823.2,453.6" fill="none" stroke="#eda100" stroke-width="1.5" stroke-linejoin="round" stroke-linecap="round"/>
</svg>