<svg xmlns="http://www.w3.org/2000/svg" viewBox="0 0 840 496" width="840" height="496" font-family="-apple-system,&#39;Segoe UI&#39;,system-ui,sans-serif" role="img" aria-label="996icu/996.ICU candlestick chart">
<text x="14.0" y="20.0" font-size="15" fill="#ffffff" font-weight="650">996icu/996.ICU</text>
<text x="133.5" y="20.0" font-size="11.5" fill="#c3c2b7">daily · new stars, volume = new forks</text>
<text x="805.8" y="20.0" font-size="11.0" fill="#c3c2b7">fall</text>
<rect x="791" y="10" width="9" height="12" fill="#008300"/>
<text x="750.6" y="20.0" font-size="11.0" fill="#c3c2b7">rise</text>
<rect x="736" y="10" width="9" height="12" fill="none" stroke="#e66767" stroke-width="1.5"/>
<text x="14.0" y="38.0" font-size="11.0" fill="#898781">last 60 days · +646 stars · +19 forks · updated 2026-07-20</text>
<rect x="10" y="66" width="820" height="290" fill="none" stroke="#2c2c2a"/>
<rect x="10" y="384" width="820" height="86" fill="none" stroke="#2c2c2a"/>
<text x="38.0" y="490.0" font-size="11.0" fill="#898781" text-anchor="middle">2026-05</text>
<line x1="187.7" y1="66.0" x2="187.7" y2="356.0" stroke="#2c2c2a" stroke-width="1.0"/>
<line x1="187.7" y1="384.0" x2="187.7" y2="470.0" stroke="#2c2c2a" stroke-width="1.0"/>
<text x="194.5" y="490.0" font-size="11.0" fill="#898781" text-anchor="middle">2026-06</text>
<line x1="597.7" y1="66.0" x2="597.7" y2="356.0" stroke="#2c2c2a" stroke-width="1.0"/>
<line x1="597.7" y1="384.0" x2="597.7" y2="470.0" stroke="#2c2c2a" stroke-width="1.0"/>
<text x="604.5" y="490.0" font-size="11.0" fill="#898781" text-anchor="middle">2026-07</text>
<text x="14.0" y="58.0" font-size="11.0" fill="#c3c2b7">BOLL(20,2)</text>
<text x="84.5" y="58.0" font-size="11.0" fill="#c98500">UP:20.2</text>
<text x="136.9" y="58.0" font-size="11.0" fill="#3987e5">MID:9.1</text>
<text x="189.2" y="58.0" font-size="11.0" fill="#d55181">LOW:0</text>
<text x="229.5" y="58.0" font-size="11.0" fill="#9085e9">MA7:8.6</text>
<line x1="10.0" y1="356.0" x2="830.0" y2="356.0" stroke="#2c2c2a" stroke-width="1.0"/>
<text x="14.0" y="353.0" font-size="11.0" fill="#898781">0</text>
<line x1="10.0" y1="227.6" x2="830.0" y2="227.6" stroke="#2c2c2a" stroke-width="1.0"/>
<text x="14.0" y="224.6" font-size="11.0" fill="#898781">10</text>
<line x1="10.0" y1="99.2" x2="830.0" y2="99.2" stroke="#2c2c2a" stroke-width="1.0"/>
<text x="14.0" y="96.2" font-size="11.0" fill="#898781">20</text>
<polyline points="16.8,109.3 30.5,107.5 44.2,108.6 57.8,108.4 71.5,108.1 85.2,105.6 98.8,106.4 112.5,104.8 126.2,110.9 139.8,114.0 153.5,106.1 167.2,92.1 180.8,87.9 194.5,80.1 208.2,79.8 221.8,84.4 235.5,81.6 249.2,82.1 262.8,79.9 276.5,88.2 290.2,93.7 303.8,95.1 317.5,97.8 331.2,105.5 344.8,105.5 358.5,112.4 372.2,122.4 385.8,133.5 399.5,134.9 413.2,138.5 426.8,135.0 440.5,127.1 454.2,139.4 467.8,140.7 481.5,136.6 495.2,136.6 508.8,137.3 522.5,135.0 536.2,135.0 549.8,135.5 563.5,131.9 577.2,133.2 590.8,133.2 604.5,135.3 618.2,138.5 631.8,135.2 645.5,126.7 659.2,127.4 672.8,115.0 686.5,111.3 700.2,105.7 713.8,111.0 727.5,118.6 741.2,117.2 754.8,122.7 768.5,125.4 782.2,126.2 795.8,107.4 809.5,98.2 823.2,96.0" fill="none" stroke="#c98500" stroke-width="1.5" stroke-linejoin="round" stroke-linecap="round"/>
<polyline points="16.8,182.7 30.5,180.7 44.2,181.4 57.8,175.6 71.5,175.0 85.2,173.0 98.8,167.9 112.5,167.3 126.2,164.7 139.8,167.3 153.5,169.8 167.2,174.3 180.8,173.0 194.5,179.4 208.2,178.8 221.8,182.0 235.5,185.9 249.2,187.2 262.8,190.4 276.5,194.9 290.2,201.3 303.8,201.9 317.5,205.1 331.2,208.3 344.8,208.3 358.5,213.5 372.2,217.3 385.8,221.2 399.5,221.8 413.2,225.0 426.8,227.6 440.5,220.5 454.2,223.1 467.8,222.5 481.5,221.2 495.2,221.2 508.8,219.9 522.5,218.6 536.2,218.6 549.8,219.3 563.5,214.8 577.2,220.5 590.8,220.5 604.5,222.5 618.2,223.7 631.8,220.5 645.5,217.3 659.2,218.6 672.8,214.8 686.5,217.3 700.2,219.3 713.8,227.6 727.5,231.5 741.2,232.7 754.8,241.1 768.5,246.9 782.2,250.1 795.8,245.6 809.5,240.4 823.2,239.2" fill="none" stroke="#3987e5" stroke-width="1.5" stroke-linejoin="round" stroke-linecap="round"/>
<polyline points="16.8,256.0 30.5,253.9 44.2,254.2 57.8,242.8 71.5,241.9 85.2,240.4 98.8,229.4 112.5,229.7 126.2,218.5 139.8,220.5 153.5,233.5 167.2,256.5 180.8,258.2 194.5,278.8 208.2,277.8 221.8,279.6 235.5,290.1 249.2,292.2 262.8,300.8 276.5,301.6 290.2,308.9 303.8,308.7 317.5,312.5 331.2,311.2 344.8,311.2 358.5,314.5 372.2,312.2 385.8,308.9 399.5,308.7 413.2,311.6 426.8,320.2 440.5,314.0 454.2,306.8 467.8,304.3 481.5,305.8 495.2,305.8 508.8,302.5 522.5,302.2 536.2,302.2 549.8,303.0 563.5,297.6 577.2,307.8 590.8,307.8 604.5,309.6 618.2,309.0 631.8,305.9 645.5,308.0 659.2,309.8 672.8,314.5 686.5,323.4 700.2,332.8 713.8,344.2 727.5,344.3 741.2,348.3 754.8,356.0 768.5,356.0 782.2,356.0 795.8,356.0 809.5,356.0 823.2,356.0" fill="none" stroke="#d55181" stroke-width="1.5" stroke-linejoin="round" stroke-linecap="round"/>
<polyline points="16.8,168.5 30.5,163.4 44.2,168.5 57.8,162.1 71.5,159.5 85.2,151.8 98.8,154.4 112.5,154.4 126.2,158.3 139.8,159.5 153.5,176.2 167.2,192.9 180.8,187.8 194.5,209.6 208.2,216.0 221.8,218.6 235.5,228.9 249.2,223.7 262.8,219.9 276.5,235.3 290.2,231.5 303.8,228.9 317.5,235.3 331.2,226.3 344.8,219.9 358.5,218.6 372.2,218.6 385.8,210.9 399.5,214.8 413.2,216.0 426.8,231.5 440.5,227.6 454.2,214.8 467.8,223.7 481.5,216.0 495.2,216.0 508.8,214.8 522.5,198.1 536.2,214.8 549.8,223.7 563.5,209.6 577.2,227.6 590.8,232.7 604.5,232.7 618.2,235.3 631.8,223.7 645.5,213.5 659.2,222.5 672.8,198.1 686.5,207.1 700.2,222.5 713.8,239.2 727.5,245.6 741.2,267.4 754.8,280.2 768.5,308.5 782.2,308.5 795.8,273.8 809.5,252.0 823.2,245.6" fill="none" stroke="#9085e9" stroke-width="1.5" stroke-linejoin="round" stroke-linecap="round"/>
<rect x="13.1" y="124.9" width="7.5" height="12.8" fill="#008300"/>
<rect x="26.7" y="137.7" width="7.5" height="25.7" fill="#008300"/>
<rect x="40.4" y="163.4" width="7.5" height="12.8" fill="#008300"/>
<rect x="54.1" y="137.7" width="7.5" height="38.5" fill="none" stroke="#e66767" stroke-width="1.3"/>
<rect x="67.7" y="137.7" width="7.5" height="38.5" fill="#008300"/>
<rect x="81.4" y="150.6" width="7.5" height="25.7" fill="none" stroke="#e66767" stroke-width="1.3"/>
<rect x="95.1" y="137.7" width="7.5" height="12.8" fill="none" stroke="#e66767" stroke-width="1.3"/>
<rect x="108.7" y="137.7" width="7.5" height="1.2" fill="#898781"/>
<rect x="122.4" y="137.7" width="7.5" height="51.4" fill="#008300"/>
<rect x="136.1" y="189.1" width="7.5" height="1.2" fill="#898781"/>
<rect x="149.7" y="189.1" width="7.5" height="64.2" fill="#008300"/>
<rect x="163.4" y="253.3" width="7.5" height="38.5" fill="#008300"/>
<rect x="177.1" y="112.0" width="7.5" height="179.8" fill="none" stroke="#e66767" stroke-width="1.3"/>
<rect x="190.7" y="112.0" width="7.5" height="179.8" fill="#008300"/>
<rect x="204.4" y="189.1" width="7.5" height="102.7" fill="none" stroke="#e66767" stroke-width="1.3"/>
<rect x="218.1" y="189.1" width="7.5" height="12.8" fill="#008300"/>
<rect x="231.7" y="201.9" width="7.5" height="64.2" fill="#008300"/>
<rect x="245.4" y="214.8" width="7.5" height="51.4" fill="none" stroke="#e66767" stroke-width="1.3"/>
<rect x="259.1" y="214.8" width="7.5" height="51.4" fill="#008300"/>
<rect x="272.7" y="214.8" width="7.5" height="51.4" fill="none" stroke="#e66767" stroke-width="1.3"/>
<rect x="286.4" y="214.8" width="7.5" height="51.4" fill="#008300"/>
<rect x="300.1" y="176.2" width="7.5" height="89.9" fill="none" stroke="#e66767" stroke-width="1.3"/>
<rect x="313.7" y="176.2" width="7.5" height="64.2" fill="#008300"/>
<rect x="327.4" y="201.9" width="7.5" height="38.5" fill="none" stroke="#e66767" stroke-width="1.3"/>
<rect x="341.1" y="176.2" width="7.5" height="25.7" fill="none" stroke="#e66767" stroke-width="1.3"/>
<rect x="354.7" y="176.2" width="7.5" height="77.0" fill="#008300"/>
<rect x="368.4" y="214.8" width="7.5" height="38.5" fill="none" stroke="#e66767" stroke-width="1.3"/>
<rect x="382.1" y="214.8" width="7.5" height="1.2" fill="#898781"/>
<rect x="395.7" y="201.9" width="7.5" height="12.8" fill="none" stroke="#e66767" stroke-width="1.3"/>
<rect x="409.4" y="201.9" width="7.5" height="51.4" fill="#008300"/>
<rect x="423.1" y="253.3" width="7.5" height="51.4" fill="#008300"/>
<rect x="436.7" y="150.6" width="7.5" height="154.1" fill="none" stroke="#e66767" stroke-width="1.3"/>
<rect x="450.4" y="150.6" width="7.5" height="12.8" fill="#008300"/>
<rect x="464.1" y="163.4" width="7.5" height="115.6" fill="#008300"/>
<rect x="477.7" y="163.4" width="7.5" height="115.6" fill="none" stroke="#e66767" stroke-width="1.3"/>
<rect x="491.4" y="163.4" width="7.5" height="38.5" fill="#008300"/>
<rect x="505.1" y="201.9" width="7.5" height="38.5" fill="#008300"/>
<rect x="518.7" y="189.1" width="7.5" height="51.4" fill="none" stroke="#e66767" stroke-width="1.3"/>
<rect x="532.4" y="189.1" width="7.5" height="77.0" fill="#008300"/>
<rect x="546.1" y="227.6" width="7.5" height="38.5" fill="none" stroke="#e66767" stroke-width="1.3"/>
<rect x="559.7" y="176.2" width="7.5" height="51.4" fill="none" stroke="#e66767" stroke-width="1.3"/>
<rect x="573.4" y="176.2" width="7.5" height="115.6" fill="#008300"/>
<rect x="587.1" y="240.4" width="7.5" height="51.4" fill="none" stroke="#e66767" stroke-width="1.3"/>
<rect x="600.7" y="240.4" width="7.5" height="1.2" fill="#898781"/>
<rect x="614.4" y="201.9" width="7.5" height="38.5" fill="none" stroke="#e66767" stroke-width="1.3"/>
<rect x="628.1" y="189.1" width="7.5" height="12.8" fill="none" stroke="#e66767" stroke-width="1.3"/>
<rect x="641.7" y="150.6" width="7.5" height="38.5" fill="none" stroke="#e66767" stroke-width="1.3"/>
<rect x="655.4" y="150.6" width="7.5" height="89.9" fill="#008300"/>
<rect x="669.1" y="124.9" width="7.5" height="115.6" fill="none" stroke="#e66767" stroke-width="1.3"/>
<rect x="682.7" y="124.9" width="7.5" height="179.8" fill="#008300"/>
<rect x="696.4" y="343.2" width="7.5" height="12.8" fill="none" stroke="#e66767" stroke-width="1.3"/>
<rect x="710.1" y="317.5" width="7.5" height="25.7" fill="none" stroke="#e66767" stroke-width="1.3"/>
<rect x="723.7" y="240.4" width="7.5" height="77.0" fill="none" stroke="#e66767" stroke-width="1.3"/>
<rect x="737.4" y="304.6" width="7.5" height="51.4" fill="none" stroke="#e66767" stroke-width="1.3"/>
<rect x="751.1" y="304.6" width="7.5" height="25.7" fill="#008300"/>
<rect x="764.7" y="317.5" width="7.5" height="12.8" fill="none" stroke="#e66767" stroke-width="1.3"/>
<rect x="778.4" y="304.6" width="7.5" height="12.8" fill="none" stroke="#e66767" stroke-width="1.3"/>
<rect x="792.1" y="99.2" width="7.5" height="205.4" fill="none" stroke="#e66767" stroke-width="1.3"/>
<rect x="805.7" y="99.2" width="7.5" height="64.2" fill="#008300"/>
<rect x="819.4" y="163.4" width="7.5" height="38.5" fill="#008300"/>
<circle cx="795.8" cy="99.2" r="2" fill="#c3c2b7"/>
<line x1="795.8" y1="99.2" x2="787.8" y2="99.2" stroke="#c3c2b7" stroke-width="1.0"/>
<text x="784.8" y="103.2" font-size="11.0" fill="#c3c2b7" text-anchor="end">20</text>
<circle cx="700.2" cy="356.0" r="2" fill="#c3c2b7"/>
<line x1="700.2" y1="356.0" x2="692.2" y2="356.0" stroke="#c3c2b7" stroke-width="1.0"/>
<text x="689.2" y="350.0" font-size="11.0" fill="#c3c2b7" text-anchor="end">0</text>
<text x="14.0" y="376.0" font-size="11.0" fill="#c3c2b7">VOL 0 forks</text>
<text x="90.6" y="376.0" font-size="11.0" fill="#c98500">MA5:0</text>
<text x="130.8" y="376.0" font-size="11.0" fill="#3987e5">MA10:0</text>
<text x="14.0" y="395.0" font-size="10" fill="#898781">2</text>
<rect x="26.7" y="429.0" width="7.5" height="41.0" fill="#008300"/>
<rect x="81.4" y="429.0" width="7.5" height="41.0" fill="none" stroke="#e66767" stroke-width="1.1"/>
<rect x="95.1" y="429.0" width="7.5" height="41.0" fill="none" stroke="#e66767" stroke-width="1.1"/>
<rect x="108.7" y="388.0" width="7.5" height="82.0" fill="#898781"/>
<rect x="122.4" y="429.0" width="7.5" height="41.0" fill="#008300"/>
<rect x="136.1" y="429.0" width="7.5" height="41.0" fill="#898781"/>
<rect x="231.7" y="429.0" width="7.5" height="41.0" fill="#008300"/>
<rect x="272.7" y="429.0" width="7.5" height="41.0" fill="none" stroke="#e66767" stroke-width="1.1"/>
<rect x="300.1" y="429.0" width="7.5" height="41.0" fill="none" stroke="#e66767" stroke-width="1.1"/>
<rect x="341.1" y="429.0" width="7.5" height="41.0" fill="none" stroke="#e66767" stroke-width="1.1"/>
<rect x="354.7" y="429.0" width="7.5" height="41.0" fill="#008300"/>
<rect x="423.1" y="429.0" width="7.5" height="41.0" fill="#008300"/>
<rect x="436.7" y="429.0" width="7.5" height="41.0" fill="none" stroke="#e66767" stroke-width="1.1"/>
<rect x="464.1" y="429.0" width="7.5" height="41.0" fill="#008300"/>
<rect x="559.7" y="388.0" width="7.5" height="82.0" fill="none" stroke="#e66767" stroke-width="1.1"/>
<rect x="655.4" y="429.0" width="7.5" height="41.0" fill="#008300"/>
<rect x="669.1" y="429.0" width="7.5" height="41.0" fill="none" stroke="#e66767" stroke-width="1.1"/>
<polyline points="16.8,457.7 30.5,453.6 44.2,453.6 57.8,457.7 71.5,461.8 85.2,457.7 98.8,457.7 112.5,449.5 126.2,445.4 139.8,441.3 153.5,441.3 167.2,445.4 180.8,445.4 194.5,445.4 208.2,445.4 221.8,449.5 235.5,449.5 249.2,457.7 262.8,461.8 276.5,461.8 290.2,461.8 303.8,457.7 317.5,457.7 331.2,457.7 344.8,453.6 358.5,449.5 372.2,453.6 385.8,453.6 399.5,453.6 413.2,457.7 426.8,453.6 440.5,453.6 454.2,453.6 467.8,449.5 481.5,453.6 495.2,457.7 508.8,457.7 522.5,457.7 536.2,457.7 549.8,457.7 563.5,453.6 577.2,457.7 590.8,457.7 604.5,461.8 618.2,461.8 631.8,461.8 645.5,461.8 659.2,457.7 672.8,453.6 686.5,453.6 700.2,461.8 713.8,461.8 727.5,461.8 741.2,461.8 754.8,461.8 768.5,461.8 782.2,461.8 795.8,465.9 809.5,470.0 823.2,470.0" fill="none" stroke="#3987e5" stroke-width="1.5" stroke-linejoin="round" stroke-linecap="round"/>
<polyline points="16.8,461.8 30.5,461.8 44.2,461.8 57.8,461.8 71.5,461.8 85.2,453.6 98.8,453.6 112.5,437.2 126.2,429.0 139.8,420.8 153.5,429.0 167.2,437.2 180.8,453.6 194.5,461.8 208.2,470.0 221.8,470.0 235.5,461.8 249.2,461.8 262.8,461.8 276.5,453.6 290.2,453.6 303.8,453.6 317.5,453.6 331.2,453.6 344.8,453.6 358.5,445.4 372.2,453.6 385.8,453.6 399.5,453.6 413.2,461.8 426.8,461.8 440.5,453.6 454.2,453.6 467.8,445.4 481.5,445.4 495.2,453.6 508.8,461.8 522.5,461.8 536.2,470.0 549.8,470.0 563.5,453.6 577.2,453.6 590.8,453.6 604.5,453.6 618.2,453.6 631.8,470.0 645.5,470.0 659.2,461.8 672.8,453.6 686.5,453.6 700.2,453.6 713.8,453.6 727.5,461.8 741.2,470.0 754.8,470.0 768.5,470.0 782.2,470.0 795.8,470.0 809.5,470.0 823.2,470.0" fill="none" stroke="#c98500" stroke-width="1.5" stroke-linejoin="round" stroke-linecap="round"/>
</svg>