<svg xmlns="http://www.w3.org/2000/svg" viewBox="0 0 840 496" width="840" height="496" font-family="-apple-system,&#39;Segoe UI&#39;,system-ui,sans-serif" role="img" aria-label="996icu/996.ICU candlestick chart">
<text x="14.0" y="20.0" font-size="15" fill="#0b0b0b" font-weight="650">996icu/996.ICU</text>
<text x="133.5" y="20.0" font-size="11.5" fill="#52514e">daily · commits, volume = lines changed</text>
<text x="805.8" y="20.0" font-size="11.0" fill="#52514e">fall</text>
<rect x="791" y="10" width="9" height="12" fill="#008300"/>
<text x="750.6" y="20.0" font-size="11.0" fill="#52514e">rise</text>
<rect x="736" y="10" width="9" height="12" fill="none" stroke="#e34948" stroke-width="1.5"/>
<text x="14.0" y="38.0" font-size="11.0" fill="#898781">last 60 active days · 204 commits · 23,300 lines changed · updated 2026-07-07</text>
<rect x="10" y="66" width="820" height="290" fill="none" stroke="#e1e0d9"/>
<rect x="10" y="384" width="820" height="86" fill="none" stroke="#e1e0d9"/>
<text x="38.0" y="490.0" font-size="11.0" fill="#898781" text-anchor="middle">2019-11</text>
<line x1="37.3" y1="66.0" x2="37.3" y2="356.0" stroke="#e1e0d9" stroke-width="1.0"/>
<line x1="37.3" y1="384.0" x2="37.3" y2="470.0" stroke="#e1e0d9" stroke-width="1.0"/>
<line x1="51.0" y1="66.0" x2="51.0" y2="356.0" stroke="#e1e0d9" stroke-width="1.0"/>
<line x1="51.0" y1="384.0" x2="51.0" y2="470.0" stroke="#e1e0d9" stroke-width="1.0"/>
<line x1="64.7" y1="66.0" x2="64.7" y2="356.0" stroke="#e1e0d9" stroke-width="1.0"/>
<line x1="64.7" y1="384.0" x2="64.7" y2="470.0" stroke="#e1e0d9" stroke-width="1.0"/>
<line x1="105.7" y1="66.0" x2="105.7" y2="356.0" stroke="#e1e0d9" stroke-width="1.0"/>
<line x1="105.7" y1="384.0" x2="105.7" y2="470.0" stroke="#e1e0d9" stroke-width="1.0"/>
<text x="112.5" y="490.0" font-size="11.0" fill="#898781" text-anchor="middle">2020-03</text>
<line x1="119.3" y1="66.0" x2="119.3" y2="356.0" stroke="#e1e0d9" stroke-width="1.0"/>
<line x1="119.3" y1="384.0" x2="119.3" y2="470.0" stroke="#e1e0d9" stroke-width="1.0"/>
<line x1="174.0" y1="66.0" x2="174.0" y2="356.0" stroke="#e1e0d9" stroke-width="1.0"/>
<line x1="174.0" y1="384.0" x2="174.0" y2="470.0" stroke="#e1e0d9" stroke-width="1.0"/>
<text x="180.8" y="490.0" font-size="11.0" fill="#898781" text-anchor="middle">2020-05</text>
<line x1="187.7" y1="66.0" x2="187.7" y2="356.0" stroke="#e1e0d9" stroke-width="1.0"/>
<line x1="187.7" y1="384.0" x2="187.7" y2="470.0" stroke="#e1e0d9" stroke-width="1.0"/>
<line x1="215.0" y1="66.0" x2="215.0" y2="356.0" stroke="#e1e0d9" stroke-width="1.0"/>
<line x1="215.0" y1="384.0" x2="215.0" y2="470.0" stroke="#e1e0d9" stroke-width="1.0"/>
<line x1="228.7" y1="66.0" x2="228.7" y2="356.0" stroke="#e1e0d9" stroke-width="1.0"/>
<line x1="228.7" y1="384.0" x2="228.7" y2="470.0" stroke="#e1e0d9" stroke-width="1.0"/>
<line x1="297.0" y1="66.0" x2="297.0" y2="356.0" stroke="#e1e0d9" stroke-width="1.0"/>
<line x1="297.0" y1="384.0" x2="297.0" y2="470.0" stroke="#e1e0d9" stroke-width="1.0"/>
<text x="303.8" y="490.0" font-size="11.0" fill="#898781" text-anchor="middle">2020-11</text>
<line x1="310.7" y1="66.0" x2="310.7" y2="356.0" stroke="#e1e0d9" stroke-width="1.0"/>
<line x1="310.7" y1="384.0" x2="310.7" y2="470.0" stroke="#e1e0d9" stroke-width="1.0"/>
<line x1="338.0" y1="66.0" x2="338.0" y2="356.0" stroke="#e1e0d9" stroke-width="1.0"/>
<line x1="338.0" y1="384.0" x2="338.0" y2="470.0" stroke="#e1e0d9" stroke-width="1.0"/>
<line x1="420.0" y1="66.0" x2="420.0" y2="356.0" stroke="#e1e0d9" stroke-width="1.0"/>
<line x1="420.0" y1="384.0" x2="420.0" y2="470.0" stroke="#e1e0d9" stroke-width="1.0"/>
<text x="426.8" y="490.0" font-size="11.0" fill="#898781" text-anchor="middle">2021-03</text>
<line x1="433.7" y1="66.0" x2="433.7" y2="356.0" stroke="#e1e0d9" stroke-width="1.0"/>
<line x1="433.7" y1="384.0" x2="433.7" y2="470.0" stroke="#e1e0d9" stroke-width="1.0"/>
<line x1="447.3" y1="66.0" x2="447.3" y2="356.0" stroke="#e1e0d9" stroke-width="1.0"/>
<line x1="447.3" y1="384.0" x2="447.3" y2="470.0" stroke="#e1e0d9" stroke-width="1.0"/>
<line x1="461.0" y1="66.0" x2="461.0" y2="356.0" stroke="#e1e0d9" stroke-width="1.0"/>
<line x1="461.0" y1="384.0" x2="461.0" y2="470.0" stroke="#e1e0d9" stroke-width="1.0"/>
<line x1="502.0" y1="66.0" x2="502.0" y2="356.0" stroke="#e1e0d9" stroke-width="1.0"/>
<line x1="502.0" y1="384.0" x2="502.0" y2="470.0" stroke="#e1e0d9" stroke-width="1.0"/>
<text x="508.8" y="490.0" font-size="11.0" fill="#898781" text-anchor="middle">2021-09</text>
<line x1="529.3" y1="66.0" x2="529.3" y2="356.0" stroke="#e1e0d9" stroke-width="1.0"/>
<line x1="529.3" y1="384.0" x2="529.3" y2="470.0" stroke="#e1e0d9" stroke-width="1.0"/>
<line x1="556.7" y1="66.0" x2="556.7" y2="356.0" stroke="#e1e0d9" stroke-width="1.0"/>
<line x1="556.7" y1="384.0" x2="556.7" y2="470.0" stroke="#e1e0d9" stroke-width="1.0"/>
<line x1="570.3" y1="66.0" x2="570.3" y2="356.0" stroke="#e1e0d9" stroke-width="1.0"/>
<line x1="570.3" y1="384.0" x2="570.3" y2="470.0" stroke="#e1e0d9" stroke-width="1.0"/>
<text x="577.2" y="490.0" font-size="11.0" fill="#898781" text-anchor="middle">2022-01</text>
<line x1="611.3" y1="66.0" x2="611.3" y2="356.0" stroke="#e1e0d9" stroke-width="1.0"/>
<line x1="611.3" y1="384.0" x2="611.3" y2="470.0" stroke="#e1e0d9" stroke-width="1.0"/>
<line x1="625.0" y1="66.0" x2="625.0" y2="356.0" stroke="#e1e0d9" stroke-width="1.0"/>
<line x1="625.0" y1="384.0" x2="625.0" y2="470.0" stroke="#e1e0d9" stroke-width="1.0"/>
<line x1="638.7" y1="66.0" x2="638.7" y2="356.0" stroke="#e1e0d9" stroke-width="1.0"/>
<line x1="638.7" y1="384.0" x2="638.7" y2="470.0" stroke="#e1e0d9" stroke-width="1.0"/>
<text x="645.5" y="490.0" font-size="11.0" fill="#898781" text-anchor="middle">2023-09</text>
<line x1="652.3" y1="66.0" x2="652.3" y2="356.0" stroke="#e1e0d9" stroke-width="1.0"/>
<line x1="652.3" y1="384.0" x2="652.3" y2="470.0" stroke="#e1e0d9" stroke-width="1.0"/>
<line x1="693.3" y1="66.0" x2="693.3" y2="356.0" stroke="#e1e0d9" stroke-width="1.0"/>
<line x1="693.3" y1="384.0" x2="693.3" y2="470.0" stroke="#e1e0d9" stroke-width="1.0"/>
<line x1="707.0" y1="66.0" x2="707.0" y2="356.0" stroke="#e1e0d9" stroke-width="1.0"/>
<line x1="707.0" y1="384.0" x2="707.0" y2="470.0" stroke="#e1e0d9" stroke-width="1.0"/>
<text x="713.8" y="490.0" font-size="11.0" fill="#898781" text-anchor="middle">2024-02</text>
<line x1="734.3" y1="66.0" x2="734.3" y2="356.0" stroke="#e1e0d9" stroke-width="1.0"/>
<line x1="734.3" y1="384.0" x2="734.3" y2="470.0" stroke="#e1e0d9" stroke-width="1.0"/>
<line x1="748.0" y1="66.0" x2="748.0" y2="356.0" stroke="#e1e0d9" stroke-width="1.0"/>
<line x1="748.0" y1="384.0" x2="748.0" y2="470.0" stroke="#e1e0d9" stroke-width="1.0"/>
<line x1="761.7" y1="66.0" x2="761.7" y2="356.0" stroke="#e1e0d9" stroke-width="1.0"/>
<line x1="761.7" y1="384.0" x2="761.7" y2="470.0" stroke="#e1e0d9" stroke-width="1.0"/>
<line x1="789.0" y1="66.0" x2="789.0" y2="356.0" stroke="#e1e0d9" stroke-width="1.0"/>
<line x1="789.0" y1="384.0" x2="789.0" y2="470.0" stroke="#e1e0d9" stroke-width="1.0"/>
<text x="795.8" y="490.0" font-size="11.0" fill="#898781" text-anchor="middle">2025-05</text>
<line x1="802.7" y1="66.0" x2="802.7" y2="356.0" stroke="#e1e0d9" stroke-width="1.0"/>
<line x1="802.7" y1="384.0" x2="802.7" y2="470.0" stroke="#e1e0d9" stroke-width="1.0"/>
<line x1="816.3" y1="66.0" x2="816.3" y2="356.0" stroke="#e1e0d9" stroke-width="1.0"/>
<line x1="816.3" y1="384.0" x2="816.3" y2="470.0" stroke="#e1e0d9" stroke-width="1.0"/>
<text x="14.0" y="58.0" font-size="11.0" fill="#52514e">BOLL(20,2)</text>
<text x="84.5" y="58.0" font-size="11.0" fill="#eda100">UP:32.5</text>
<text x="136.9" y="58.0" font-size="11.0" fill="#2a78d6">MID:6.3</text>
<text x="189.2" y="58.0" font-size="11.0" fill="#e87ba4">LOW:0</text>
<text x="229.5" y="58.0" font-size="11.0" fill="#4a3aa7">MA7:2.6</text>
<line x1="10.0" y1="356.0" x2="830.0" y2="356.0" stroke="#e1e0d9" stroke-width="1.0"/>
<text x="14.0" y="353.0" font-size="11.0" fill="#898781">0</text>
<line x1="10.0" y1="259.1" x2="830.0" y2="259.1" stroke="#e1e0d9" stroke-width="1.0"/>
<text x="14.0" y="256.1" font-size="11.0" fill="#898781">20</text>
<line x1="10.0" y1="162.2" x2="830.0" y2="162.2" stroke="#e1e0d9" stroke-width="1.0"/>
<text x="14.0" y="159.2" font-size="11.0" fill="#898781">40</text>
<polyline points="16.8,294.6 30.5,294.4 44.2,294.4 57.8,294.4 71.5,295.3 85.2,296.3 98.8,296.3 112.5,295.7 126.2,295.7 139.8,295.6 153.5,295.6 167.2,295.6 180.8,295.6 194.5,296.3 208.2,296.9 221.8,339.7 235.5,334.7 249.2,334.8 262.8,334.9 276.5,334.9 290.2,335.1 303.8,335.8 317.5,336.0 331.2,335.8 344.8,335.8 358.5,330.0 372.2,330.0 385.8,331.3 399.5,330.8 413.2,330.8 426.8,330.8 440.5,330.8 454.2,330.8 467.8,329.1 481.5,329.0 495.2,329.0 508.8,326.0 522.5,325.9 536.2,325.9 549.8,325.9 563.5,325.8 577.2,325.8 590.8,214.6 604.5,197.8 618.2,197.2 631.8,198.1 645.5,198.0 659.2,198.0 672.8,198.1 686.5,198.1 700.2,198.1 713.8,198.1 727.5,197.9 741.2,197.7 754.8,197.7 768.5,197.7 782.2,198.9 795.8,198.9 809.5,198.9 823.2,198.6" fill="none" stroke="#eda100" stroke-width="1.5" stroke-linejoin="round" stroke-linecap="round"/>
<polyline points="16.8,341.0 30.5,340.5 44.2,340.5 57.8,340.5 71.5,341.5 85.2,342.4 98.8,342.4 112.5,341.7 126.2,341.7 139.8,341.5 153.5,341.5 167.2,341.5 180.8,341.5 194.5,341.9 208.2,342.7 221.8,348.0 235.5,347.0 249.2,347.3 262.8,347.5 276.5,347.5 290.2,347.8 303.8,348.2 317.5,348.5 331.2,348.2 344.8,348.2 358.5,346.8 372.2,346.8 385.8,347.5 399.5,347.0 413.2,347.0 426.8,347.0 440.5,347.0 454.2,347.0 467.8,346.6 481.5,346.3 495.2,346.3 508.8,345.8 522.5,345.6 536.2,345.6 549.8,345.6 563.5,345.3 577.2,345.3 590.8,331.8 604.5,325.2 618.2,324.0 631.8,325.5 645.5,325.2 659.2,325.2 672.8,325.5 686.5,325.5 700.2,325.5 713.8,325.5 727.5,325.0 741.2,324.7 754.8,324.5 768.5,324.5 782.2,326.2 795.8,326.2 809.5,326.2 823.2,325.5" fill="none" stroke="#2a78d6" stroke-width="1.5" stroke-linejoin="round" stroke-linecap="round"/>
<polyline points="16.8,356.0 30.5,356.0 44.2,356.0 57.8,356.0 71.5,356.0 85.2,356.0 98.8,356.0 112.5,356.0 126.2,356.0 139.8,356.0 153.5,356.0 167.2,356.0 180.8,356.0 194.5,356.0 208.2,356.0 221.8,356.0 235.5,356.0 249.2,356.0 262.8,356.0 276.5,356.0 290.2,356.0 303.8,356.0 317.5,356.0 331.2,356.0 344.8,356.0 358.5,356.0 372.2,356.0 385.8,356.0 399.5,356.0 413.2,356.0 426.8,356.0 440.5,356.0 454.2,356.0 467.8,356.0 481.5,356.0 495.2,356.0 508.8,356.0 522.5,356.0 536.2,356.0 549.8,356.0 563.5,356.0 577.2,356.0 590.8,356.0 604.5,356.0 618.2,356.0 631.8,356.0 645.5,356.0 659.2,356.0 672.8,356.0 686.5,356.0 700.2,356.0 713.8,356.0 727.5,356.0 741.2,356.0 754.8,356.0 768.5,356.0 782.2,356.0 795.8,356.0 809.5,356.0 823.2,356.0" fill="none" stroke="#e87ba4" stroke-width="1.5" stroke-linejoin="round" stroke-linecap="round"/>
<polyline points="16.8,331.3 30.5,331.8 44.2,346.3 57.8,346.8 71.5,347.8 85.2,348.2 98.8,348.2 112.5,346.8 126.2,348.2 139.8,348.2 153.5,348.2 167.2,348.2 180.8,348.2 194.5,346.8 208.2,349.2 221.8,349.2 235.5,346.3 249.2,346.3 262.8,346.3 276.5,346.3 290.2,347.8 303.8,347.8 317.5,347.8 331.2,350.7 344.8,350.7 358.5,346.3 372.2,346.3 385.8,346.3 399.5,344.9 413.2,344.4 426.8,344.9 440.5,344.9 454.2,349.2 467.8,346.3 481.5,345.8 495.2,346.8 508.8,342.9 522.5,341.9 536.2,341.9 549.8,341.9 563.5,344.4 577.2,344.9 590.8,306.1 604.5,291.6 618.2,288.6 631.8,288.6 645.5,288.2 659.2,288.6 672.8,288.2 686.5,326.4 700.2,345.8 713.8,349.2 727.5,347.8 741.2,344.9 754.8,343.4 768.5,344.4 782.2,344.9 795.8,344.4 809.5,344.4 823.2,343.4" fill="none" stroke="#4a3aa7" stroke-width="1.5" stroke-linejoin="round" stroke-linecap="round"/>
<rect x="13.1" y="346.3" width="7.5" height="9.7" fill="none" stroke="#e34948" stroke-width="1.3"/>
<rect x="26.7" y="341.5" width="7.5" height="14.5" fill="none" stroke="#e34948" stroke-width="1.3"/>
<rect x="40.4" y="346.3" width="7.5" height="9.7" fill="none" stroke="#e34948" stroke-width="1.3"/>
<rect x="54.1" y="351.2" width="7.5" height="4.8" fill="none" stroke="#e34948" stroke-width="1.3"/>
<rect x="67.7" y="351.2" width="7.5" height="4.8" fill="none" stroke="#e34948" stroke-width="1.3"/>
<rect x="81.4" y="351.2" width="7.5" height="4.8" fill="none" stroke="#e34948" stroke-width="1.3"/>
<rect x="95.1" y="351.2" width="7.5" height="4.8" fill="none" stroke="#e34948" stroke-width="1.3"/>
<rect x="108.7" y="336.6" width="7.5" height="19.4" fill="none" stroke="#e34948" stroke-width="1.3"/>
<rect x="122.4" y="351.2" width="7.5" height="4.8" fill="none" stroke="#e34948" stroke-width="1.3"/>
<rect x="136.1" y="346.3" width="7.5" height="9.7" fill="none" stroke="#e34948" stroke-width="1.3"/>
<rect x="149.7" y="351.2" width="7.5" height="4.8" fill="none" stroke="#e34948" stroke-width="1.3"/>
<rect x="163.4" y="351.2" width="7.5" height="4.8" fill="none" stroke="#e34948" stroke-width="1.3"/>
<rect x="177.1" y="351.2" width="7.5" height="4.8" fill="none" stroke="#e34948" stroke-width="1.3"/>
<rect x="190.7" y="341.5" width="7.5" height="14.5" fill="none" stroke="#e34948" stroke-width="1.3"/>
<rect x="204.4" y="341.5" width="7.5" height="9.7" fill="#008300"/>
<rect x="218.1" y="351.2" width="7.5" height="4.8" fill="none" stroke="#e34948" stroke-width="1.3"/>
<rect x="231.7" y="326.9" width="7.5" height="29.1" fill="none" stroke="#e34948" stroke-width="1.3"/>
<rect x="245.4" y="351.2" width="7.5" height="4.8" fill="none" stroke="#e34948" stroke-width="1.3"/>
<rect x="259.1" y="351.2" width="7.5" height="4.8" fill="none" stroke="#e34948" stroke-width="1.3"/>
<rect x="272.7" y="351.2" width="7.5" height="4.8" fill="none" stroke="#e34948" stroke-width="1.3"/>
<rect x="286.4" y="351.2" width="7.5" height="4.8" fill="none" stroke="#e34948" stroke-width="1.3"/>
<rect x="300.1" y="351.2" width="7.5" height="4.8" fill="none" stroke="#e34948" stroke-width="1.3"/>
<rect x="313.7" y="351.2" width="7.5" height="4.8" fill="none" stroke="#e34948" stroke-width="1.3"/>
<rect x="327.4" y="346.3" width="7.5" height="9.7" fill="none" stroke="#e34948" stroke-width="1.3"/>
<rect x="341.1" y="351.2" width="7.5" height="4.8" fill="none" stroke="#e34948" stroke-width="1.3"/>
<rect x="354.7" y="322.1" width="7.5" height="29.1" fill="none" stroke="#e34948" stroke-width="1.3"/>
<rect x="368.4" y="351.2" width="7.5" height="4.8" fill="none" stroke="#e34948" stroke-width="1.3"/>
<rect x="382.1" y="351.2" width="7.5" height="4.8" fill="none" stroke="#e34948" stroke-width="1.3"/>
<rect x="395.7" y="341.5" width="7.5" height="14.5" fill="none" stroke="#e34948" stroke-width="1.3"/>
<rect x="409.4" y="346.3" width="7.5" height="9.7" fill="none" stroke="#e34948" stroke-width="1.3"/>
<rect x="423.1" y="351.2" width="7.5" height="4.8" fill="none" stroke="#e34948" stroke-width="1.3"/>
<rect x="436.7" y="351.2" width="7.5" height="4.8" fill="none" stroke="#e34948" stroke-width="1.3"/>
<rect x="450.4" y="351.2" width="7.5" height="4.8" fill="none" stroke="#e34948" stroke-width="1.3"/>
<rect x="464.1" y="331.8" width="7.5" height="24.2" fill="none" stroke="#e34948" stroke-width="1.3"/>
<rect x="477.7" y="346.3" width="7.5" height="9.7" fill="none" stroke="#e34948" stroke-width="1.3"/>
<rect x="491.4" y="351.2" width="7.5" height="4.8" fill="none" stroke="#e34948" stroke-width="1.3"/>
<rect x="505.1" y="317.2" width="7.5" height="38.8" fill="none" stroke="#e34948" stroke-width="1.3"/>
<rect x="518.7" y="346.3" width="7.5" height="9.7" fill="none" stroke="#e34948" stroke-width="1.3"/>
<rect x="532.4" y="351.2" width="7.5" height="4.8" fill="none" stroke="#e34948" stroke-width="1.3"/>
<rect x="546.1" y="351.2" width="7.5" height="4.8" fill="none" stroke="#e34948" stroke-width="1.3"/>
<rect x="559.7" y="346.3" width="7.5" height="9.7" fill="none" stroke="#e34948" stroke-width="1.3"/>
<rect x="573.4" y="351.2" width="7.5" height="4.8" fill="none" stroke="#e34948" stroke-width="1.3"/>
<rect x="587.1" y="79.8" width="7.5" height="271.3" fill="none" stroke="#e34948" stroke-width="1.3"/>
<rect x="600.7" y="79.8" width="7.5" height="135.7" fill="#008300"/>
<rect x="614.4" y="326.9" width="7.5" height="29.1" fill="none" stroke="#e34948" stroke-width="1.3"/>
<rect x="628.1" y="351.2" width="7.5" height="4.8" fill="none" stroke="#e34948" stroke-width="1.3"/>
<rect x="641.7" y="346.3" width="7.5" height="9.7" fill="none" stroke="#e34948" stroke-width="1.3"/>
<rect x="655.4" y="351.2" width="7.5" height="4.8" fill="none" stroke="#e34948" stroke-width="1.3"/>
<rect x="669.1" y="346.3" width="7.5" height="9.7" fill="none" stroke="#e34948" stroke-width="1.3"/>
<rect x="682.7" y="346.3" width="7.5" height="9.7" fill="none" stroke="#e34948" stroke-width="1.3"/>
<rect x="696.4" y="351.2" width="7.5" height="4.8" fill="none" stroke="#e34948" stroke-width="1.3"/>
<rect x="710.1" y="351.2" width="7.5" height="4.8" fill="none" stroke="#e34948" stroke-width="1.3"/>
<rect x="723.7" y="341.5" width="7.5" height="14.5" fill="none" stroke="#e34948" stroke-width="1.3"/>
<rect x="737.4" y="326.9" width="7.5" height="29.1" fill="none" stroke="#e34948" stroke-width="1.3"/>
<rect x="751.1" y="341.5" width="7.5" height="14.5" fill="none" stroke="#e34948" stroke-width="1.3"/>
<rect x="764.7" y="351.2" width="7.5" height="4.8" fill="none" stroke="#e34948" stroke-width="1.3"/>
<rect x="778.4" y="351.2" width="7.5" height="4.8" fill="none" stroke="#e34948" stroke-width="1.3"/>
<rect x="792.1" y="346.3" width="7.5" height="9.7" fill="none" stroke="#e34948" stroke-width="1.3"/>
<rect x="805.7" y="351.2" width="7.5" height="4.8" fill="none" stroke="#e34948" stroke-width="1.3"/>
<rect x="819.4" y="336.6" width="7.5" height="19.4" fill="none" stroke="#e34948" stroke-width="1.3"/>
<circle cx="590.8" cy="79.8" r="2" fill="#52514e"/>
<line x1="590.8" y1="79.8" x2="582.8" y2="79.8" stroke="#52514e" stroke-width="1.0"/>
<text x="579.8" y="83.8" font-size="11.0" fill="#52514e" text-anchor="end">57</text>
<circle cx="16.8" cy="356.0" r="2" fill="#52514e"/>
<line x1="16.8" y1="356.0" x2="24.8" y2="356.0" stroke="#52514e" stroke-width="1.0"/>
<text x="27.8" y="350.0" font-size="11.0" fill="#52514e">0</text>
<text x="14.0" y="376.0" font-size="11.0" fill="#52514e">VOL 6 lines</text>
<text x="90.5" y="376.0" font-size="11.0" fill="#eda100">MA5:2.4</text>
<text x="142.9" y="376.0" font-size="11.0" fill="#2a78d6">MA10:14.3</text>
<text x="14.0" y="395.0" font-size="10" fill="#898781">19,725</text>
<rect x="231.7" y="469.4" width="7.5" height="0.6" fill="none" stroke="#e34948" stroke-width="1.1"/>
<rect x="587.1" y="458.1" width="7.5" height="11.9" fill="none" stroke="#e34948" stroke-width="1.1"/>
<rect x="600.7" y="388.0" width="7.5" height="82.0" fill="#008300"/>
<polyline points="16.8,465.0 30.5,465.0 44.2,465.0 57.8,469.4 71.5,469.4 85.2,469.6 98.8,469.6 112.5,470.0 126.2,470.0 139.8,470.0 153.5,470.0 167.2,470.0 180.8,470.0 194.5,470.0 208.2,469.9 221.8,469.9 235.5,469.9 249.2,469.9 262.8,469.9 276.5,469.9 290.2,469.9 303.8,469.9 317.5,469.9 331.2,469.9 344.8,469.9 358.5,469.9 372.2,470.0 385.8,470.0 399.5,470.0 413.2,470.0 426.8,470.0 440.5,470.0 454.2,470.0 467.8,470.0 481.5,470.0 495.2,470.0 508.8,470.0 522.5,470.0 536.2,470.0 549.8,470.0 563.5,469.9 577.2,469.9 590.8,468.7 604.5,460.5 618.2,460.5 631.8,460.5 645.5,460.5 659.2,460.5 672.8,460.5 686.5,460.5 700.2,460.6 713.8,460.6 727.5,461.8 741.2,469.9 754.8,469.9 768.5,469.9 782.2,469.9 795.8,469.9 809.5,469.9 823.2,469.9" fill="none" stroke="#2a78d6" stroke-width="1.5" stroke-linejoin="round" stroke-linecap="round"/>
<polyline points="16.8,469.2 30.5,469.2 44.2,470.0 57.8,470.0 71.5,470.0 85.2,470.0 98.8,470.0 112.5,470.0 126.2,470.0 139.8,470.0 153.5,470.0 167.2,470.0 180.8,470.0 194.5,469.9 208.2,469.9 221.8,469.9 235.5,469.8 249.2,469.8 262.8,469.9 276.5,469.9 290.2,469.9 303.8,470.0 317.5,470.0 331.2,470.0 344.8,470.0 358.5,470.0 372.2,470.0 385.8,470.0 399.5,470.0 413.2,470.0 426.8,470.0 440.5,470.0 454.2,470.0 467.8,470.0 481.5,470.0 495.2,470.0 508.8,470.0 522.5,470.0 536.2,470.0 549.8,470.0 563.5,469.9 577.2,469.9 590.8,467.5 604.5,451.1 618.2,451.1 631.8,451.2 645.5,451.2 659.2,453.6 672.8,469.9 686.5,470.0 700.2,470.0 713.8,470.0 727.5,470.0 741.2,469.9 754.8,469.9 768.5,469.9 782.2,469.9 795.8,469.9 809.5,469.9 823.2,470.0" fill="none" stroke="#eda100" stroke-width="1.5" stroke-linejoin="round" stroke-linecap="round"/>
</svg>