<svg xmlns="http://www.w3.org/2000/svg" viewBox="0 0 840 496" width="840" height="496" font-family="-apple-system,&#39;Segoe UI&#39;,system-ui,sans-serif" role="img" aria-label="996icu/996.ICU candlestick chart">
<text x="14.0" y="20.0" font-size="15" fill="#ffffff" font-weight="650">996icu/996.ICU</text>
<text x="133.5" y="20.0" font-size="11.5" fill="#c3c2b7">daily · new stars, volume = new forks</text>
<text x="805.8" y="20.0" font-size="11.0" fill="#c3c2b7">fall</text>
<rect x="791" y="10" width="9" height="12" fill="#008300"/>
<text x="750.6" y="20.0" font-size="11.0" fill="#c3c2b7">rise</text>
<rect x="736" y="10" width="9" height="12" fill="none" stroke="#e66767" stroke-width="1.5"/>
<text x="14.0" y="38.0" font-size="11.0" fill="#898781">last 60 days · +643 stars · +19 forks · updated 2026-07-21</text>
<rect x="10" y="66" width="820" height="290" fill="none" stroke="#2c2c2a"/>
<rect x="10" y="384" width="820" height="86" fill="none" stroke="#2c2c2a"/>
<text x="38.0" y="490.0" font-size="11.0" fill="#898781" text-anchor="middle">2026-05</text>
<line x1="174.0" y1="66.0" x2="174.0" y2="356.0" stroke="#2c2c2a" stroke-width="1.0"/>
<line x1="174.0" y1="384.0" x2="174.0" y2="470.0" stroke="#2c2c2a" stroke-width="1.0"/>
<text x="180.8" y="490.0" font-size="11.0" fill="#898781" text-anchor="middle">2026-06</text>
<line x1="584.0" y1="66.0" x2="584.0" y2="356.0" stroke="#2c2c2a" stroke-width="1.0"/>
<line x1="584.0" y1="384.0" x2="584.0" y2="470.0" stroke="#2c2c2a" stroke-width="1.0"/>
<text x="590.8" y="490.0" font-size="11.0" fill="#898781" text-anchor="middle">2026-07</text>
<text x="14.0" y="58.0" font-size="11.0" fill="#c3c2b7">BOLL(20,2)</text>
<text x="84.5" y="58.0" font-size="11.0" fill="#c98500">UP:20.2</text>
<text x="136.9" y="58.0" font-size="11.0" fill="#3987e5">MID:9.1</text>
<text x="189.2" y="58.0" font-size="11.0" fill="#d55181">LOW:0</text>
<text x="229.5" y="58.0" font-size="11.0" fill="#9085e9">MA7:10</text>
<line x1="10.0" y1="356.0" x2="830.0" y2="356.0" stroke="#2c2c2a" stroke-width="1.0"/>
<text x="14.0" y="353.0" font-size="11.0" fill="#898781">0</text>
<line x1="10.0" y1="227.6" x2="830.0" y2="227.6" stroke="#2c2c2a" stroke-width="1.0"/>
<text x="14.0" y="224.6" font-size="11.0" fill="#898781">10</text>
<line x1="10.0" y1="99.2" x2="830.0" y2="99.2" stroke="#2c2c2a" stroke-width="1.0"/>
<text x="14.0" y="96.2" font-size="11.0" fill="#898781">20</text>
<polyline points="16.8,107.5 30.5,108.6 44.2,108.4 57.8,108.1 71.5,105.6 85.2,106.4 98.8,104.8 112.5,110.9 126.2,114.0 139.8,106.1 153.5,92.1 167.2,87.9 180.8,80.1 194.5,79.8 208.2,84.4 221.8,81.6 235.5,82.1 249.2,79.9 262.8,88.2 276.5,93.7 290.2,95.1 303.8,97.8 317.5,105.5 331.2,105.5 344.8,112.4 358.5,122.4 372.2,133.5 385.8,134.9 399.5,138.5 413.2,135.0 426.8,127.1 440.5,139.4 454.2,140.7 467.8,136.6 481.5,136.6 495.2,137.3 508.8,135.0 522.5,135.0 536.2,135.5 549.8,131.9 563.5,133.2 577.2,133.2 590.8,135.3 604.5,138.5 618.2,135.2 631.8,126.7 645.5,127.4 659.2,115.0 672.8,111.3 686.5,105.7 700.2,111.0 713.8,118.6 727.5,117.2 741.2,122.7 754.8,125.4 768.5,126.2 782.2,107.4 795.8,98.2 809.5,96.0 823.2,96.0" fill="none" stroke="#c98500" stroke-width="1.5" stroke-linejoin="round" stroke-linecap="round"/>
<polyline points="16.8,180.7 30.5,181.4 44.2,175.6 57.8,175.0 71.5,173.0 85.2,167.9 98.8,167.3 112.5,164.7 126.2,167.3 139.8,169.8 153.5,174.3 167.2,173.0 180.8,179.4 194.5,178.8 208.2,182.0 221.8,185.9 235.5,187.2 249.2,190.4 262.8,194.9 276.5,201.3 290.2,201.9 303.8,205.1 317.5,208.3 331.2,208.3 344.8,213.5 358.5,217.3 372.2,221.2 385.8,221.8 399.5,225.0 413.2,227.6 426.8,220.5 440.5,223.1 454.2,222.5 467.8,221.2 481.5,221.2 495.2,219.9 508.8,218.6 522.5,218.6 536.2,219.3 549.8,214.8 563.5,220.5 577.2,220.5 590.8,222.5 604.5,223.7 618.2,220.5 631.8,217.3 645.5,218.6 659.2,214.8 672.8,217.3 686.5,219.3 700.2,227.6 713.8,231.5 727.5,232.7 741.2,241.1 754.8,246.9 768.5,250.1 782.2,245.6 795.8,240.4 809.5,239.2 823.2,239.2" fill="none" stroke="#3987e5" stroke-width="1.5" stroke-linejoin="round" stroke-linecap="round"/>
<polyline points="16.8,253.9 30.5,254.2 44.2,242.8 57.8,241.9 71.5,240.4 85.2,229.4 98.8,229.7 112.5,218.5 126.2,220.5 139.8,233.5 153.5,256.5 167.2,258.2 180.8,278.8 194.5,277.8 208.2,279.6 221.8,290.1 235.5,292.2 249.2,300.8 262.8,301.6 276.5,308.9 290.2,308.7 303.8,312.5 317.5,311.2 331.2,311.2 344.8,314.5 358.5,312.2 372.2,308.9 385.8,308.7 399.5,311.6 413.2,320.2 426.8,314.0 440.5,306.8 454.2,304.3 467.8,305.8 481.5,305.8 495.2,302.5 508.8,302.2 522.5,302.2 536.2,303.0 549.8,297.6 563.5,307.8 577.2,307.8 590.8,309.6 604.5,309.0 618.2,305.9 631.8,308.0 645.5,309.8 659.2,314.5 672.8,323.4 686.5,332.8 700.2,344.2 713.8,344.3 727.5,348.3 741.2,356.0 754.8,356.0 768.5,356.0 782.2,356.0 795.8,356.0 809.5,356.0 823.2,356.0" fill="none" stroke="#d55181" stroke-width="1.5" stroke-linejoin="round" stroke-linecap="round"/>
<polyline points="16.8,163.4 30.5,168.5 44.2,162.1 57.8,159.5 71.5,151.8 85.2,154.4 98.8,154.4 112.5,158.3 126.2,159.5 139.8,176.2 153.5,192.9 167.2,187.8 180.8,209.6 194.5,216.0 208.2,218.6 221.8,228.9 235.5,223.7 249.2,219.9 262.8,235.3 276.5,231.5 290.2,228.9 303.8,235.3 317.5,226.3 331.2,219.9 344.8,218.6 358.5,218.6 372.2,210.9 385.8,214.8 399.5,216.0 413.2,231.5 426.8,227.6 440.5,214.8 454.2,223.7 467.8,216.0 481.5,216.0 495.2,214.8 508.8,198.1 522.5,214.8 536.2,223.7 549.8,209.6 563.5,227.6 577.2,232.7 590.8,232.7 604.5,235.3 618.2,223.7 631.8,213.5 645.5,222.5 659.2,198.1 672.8,207.1 686.5,222.5 700.2,239.2 713.8,245.6 727.5,267.4 741.2,280.2 754.8,308.5 768.5,308.5 782.2,273.8 795.8,252.0 809.5,245.6 823.2,227.6" fill="none" stroke="#9085e9" stroke-width="1.5" stroke-linejoin="round" stroke-linecap="round"/>
<rect x="13.1" y="137.7" width="7.5" height="25.7" fill="#008300"/>
<rect x="26.7" y="163.4" width="7.5" height="12.8" fill="#008300"/>
<rect x="40.4" y="137.7" width="7.5" height="38.5" fill="none" stroke="#e66767" stroke-width="1.3"/>
<rect x="54.1" y="137.7" width="7.5" height="38.5" fill="#008300"/>
<rect x="67.7" y="150.6" width="7.5" height="25.7" fill="none" stroke="#e66767" stroke-width="1.3"/>
<rect x="81.4" y="137.7" width="7.5" height="12.8" fill="none" stroke="#e66767" stroke-width="1.3"/>
<rect x="95.1" y="137.7" width="7.5" height="1.2" fill="#898781"/>
<rect x="108.7" y="137.7" width="7.5" height="51.4" fill="#008300"/>
<rect x="122.4" y="189.1" width="7.5" height="1.2" fill="#898781"/>
<rect x="136.1" y="189.1" width="7.5" height="64.2" fill="#008300"/>
<rect x="149.7" y="253.3" width="7.5" height="38.5" fill="#008300"/>
<rect x="163.4" y="112.0" width="7.5" height="179.8" fill="none" stroke="#e66767" stroke-width="1.3"/>
<rect x="177.1" y="112.0" width="7.5" height="179.8" fill="#008300"/>
<rect x="190.7" y="189.1" width="7.5" height="102.7" fill="none" stroke="#e66767" stroke-width="1.3"/>
<rect x="204.4" y="189.1" width="7.5" height="12.8" fill="#008300"/>
<rect x="218.1" y="201.9" width="7.5" height="64.2" fill="#008300"/>
<rect x="231.7" y="214.8" width="7.5" height="51.4" fill="none" stroke="#e66767" stroke-width="1.3"/>
<rect x="245.4" y="214.8" width="7.5" height="51.4" fill="#008300"/>
<rect x="259.1" y="214.8" width="7.5" height="51.4" fill="none" stroke="#e66767" stroke-width="1.3"/>
<rect x="272.7" y="214.8" width="7.5" height="51.4" fill="#008300"/>
<rect x="286.4" y="176.2" width="7.5" height="89.9" fill="none" stroke="#e66767" stroke-width="1.3"/>
<rect x="300.1" y="176.2" width="7.5" height="64.2" fill="#008300"/>
<rect x="313.7" y="201.9" width="7.5" height="38.5" fill="none" stroke="#e66767" stroke-width="1.3"/>
<rect x="327.4" y="176.2" width="7.5" height="25.7" fill="none" stroke="#e66767" stroke-width="1.3"/>
<rect x="341.1" y="176.2" width="7.5" height="77.0" fill="#008300"/>
<rect x="354.7" y="214.8" width="7.5" height="38.5" fill="none" stroke="#e66767" stroke-width="1.3"/>
<rect x="368.4" y="214.8" width="7.5" height="1.2" fill="#898781"/>
<rect x="382.1" y="201.9" width="7.5" height="12.8" fill="none" stroke="#e66767" stroke-width="1.3"/>
<rect x="395.7" y="201.9" width="7.5" height="51.4" fill="#008300"/>
<rect x="409.4" y="253.3" width="7.5" height="51.4" fill="#008300"/>
<rect x="423.1" y="150.6" width="7.5" height="154.1" fill="none" stroke="#e66767" stroke-width="1.3"/>
<rect x="436.7" y="150.6" width="7.5" height="12.8" fill="#008300"/>
<rect x="450.4" y="163.4" width="7.5" height="115.6" fill="#008300"/>
<rect x="464.1" y="163.4" width="7.5" height="115.6" fill="none" stroke="#e66767" stroke-width="1.3"/>
<rect x="477.7" y="163.4" width="7.5" height="38.5" fill="#008300"/>
<rect x="491.4" y="201.9" width="7.5" height="38.5" fill="#008300"/>
<rect x="505.1" y="189.1" width="7.5" height="51.4" fill="none" stroke="#e66767" stroke-width="1.3"/>
<rect x="518.7" y="189.1" width="7.5" height="77.0" fill="#008300"/>
<rect x="532.4" y="227.6" width="7.5" height="38.5" fill="none" stroke="#e66767" stroke-width="1.3"/>
<rect x="546.1" y="176.2" width="7.5" height="51.4" fill="none" stroke="#e66767" stroke-width="1.3"/>
<rect x="559.7" y="176.2" width="7.5" height="115.6" fill="#008300"/>
<rect x="573.4" y="240.4" width="7.5" height="51.4" fill="none" stroke="#e66767" stroke-width="1.3"/>
<rect x="587.1" y="240.4" width="7.5" height="1.2" fill="#898781"/>
<rect x="600.7" y="201.9" width="7.5" height="38.5" fill="none" stroke="#e66767" stroke-width="1.3"/>
<rect x="614.4" y="189.1" width="7.5" height="12.8" fill="none" stroke="#e66767" stroke-width="1.3"/>
<rect x="628.1" y="150.6" width="7.5" height="38.5" fill="none" stroke="#e66767" stroke-width="1.3"/>
<rect x="641.7" y="150.6" width="7.5" height="89.9" fill="#008300"/>
<rect x="655.4" y="124.9" width="7.5" height="115.6" fill="none" stroke="#e66767" stroke-width="1.3"/>
<rect x="669.1" y="124.9" width="7.5" height="179.8" fill="#008300"/>
<rect x="682.7" y="343.2" width="7.5" height="12.8" fill="none" stroke="#e66767" stroke-width="1.3"/>
<rect x="696.4" y="317.5" width="7.5" height="25.7" fill="none" stroke="#e66767" stroke-width="1.3"/>
<rect x="710.1" y="240.4" width="7.5" height="77.0" fill="none" stroke="#e66767" stroke-width="1.3"/>
<rect x="723.7" y="304.6" width="7.5" height="51.4" fill="none" stroke="#e66767" stroke-width="1.3"/>
<rect x="737.4" y="304.6" width="7.5" height="25.7" fill="#008300"/>
<rect x="751.1" y="317.5" width="7.5" height="12.8" fill="none" stroke="#e66767" stroke-width="1.3"/>
<rect x="764.7" y="304.6" width="7.5" height="12.8" fill="none" stroke="#e66767" stroke-width="1.3"/>
<rect x="778.4" y="99.2" width="7.5" height="205.4" fill="none" stroke="#e66767" stroke-width="1.3"/>
<rect x="792.1" y="99.2" width="7.5" height="64.2" fill="#008300"/>
<rect x="805.7" y="163.4" width="7.5" height="38.5" fill="#008300"/>
<rect x="819.4" y="176.2" width="7.5" height="25.7" fill="none" stroke="#e66767" stroke-width="1.3"/>
<circle cx="782.2" cy="99.2" r="2" fill="#c3c2b7"/>
<line x1="782.2" y1="99.2" x2="774.2" y2="99.2" stroke="#c3c2b7" stroke-width="1.0"/>
<text x="771.2" y="103.2" font-size="11.0" fill="#c3c2b7" text-anchor="end">20</text>
<circle cx="686.5" cy="356.0" r="2" fill="#c3c2b7"/>
<line x1="686.5" y1="356.0" x2="678.5" y2="356.0" stroke="#c3c2b7" stroke-width="1.0"/>
<text x="675.5" y="350.0" font-size="11.0" fill="#c3c2b7" text-anchor="end">0</text>
<text x="14.0" y="376.0" font-size="11.0" fill="#c3c2b7">VOL 0 forks</text>
<text x="90.6" y="376.0" font-size="11.0" fill="#c98500">MA5:0</text>
<text x="130.8" y="376.0" font-size="11.0" fill="#3987e5">MA10:0</text>
<text x="14.0" y="395.0" font-size="10" fill="#898781">2</text>
<rect x="13.1" y="429.0" width="7.5" height="41.0" fill="#008300"/>
<rect x="67.7" y="429.0" width="7.5" height="41.0" fill="none" stroke="#e66767" stroke-width="1.1"/>
<rect x="81.4" y="429.0" width="7.5" height="41.0" fill="none" stroke="#e66767" stroke-width="1.1"/>
<rect x="95.1" y="388.0" width="7.5" height="82.0" fill="#898781"/>
<rect x="108.7" y="429.0" width="7.5" height="41.0" fill="#008300"/>
<rect x="122.4" y="429.0" width="7.5" height="41.0" fill="#898781"/>
<rect x="218.1" y="429.0" width="7.5" height="41.0" fill="#008300"/>
<rect x="259.1" y="429.0" width="7.5" height="41.0" fill="none" stroke="#e66767" stroke-width="1.1"/>
<rect x="286.4" y="429.0" width="7.5" height="41.0" fill="none" stroke="#e66767" stroke-width="1.1"/>
<rect x="327.4" y="429.0" width="7.5" height="41.0" fill="none" stroke="#e66767" stroke-width="1.1"/>
<rect x="341.1" y="429.0" width="7.5" height="41.0" fill="#008300"/>
<rect x="409.4" y="429.0" width="7.5" height="41.0" fill="#008300"/>
<rect x="423.1" y="429.0" width="7.5" height="41.0" fill="none" stroke="#e66767" stroke-width="1.1"/>
<rect x="450.4" y="429.0" width="7.5" height="41.0" fill="#008300"/>
<rect x="546.1" y="388.0" width="7.5" height="82.0" fill="none" stroke="#e66767" stroke-width="1.1"/>
<rect x="641.7" y="429.0" width="7.5" height="41.0" fill="#008300"/>
<rect x="655.4" y="429.0" width="7.5" height="41.0" fill="none" stroke="#e66767" stroke-width="1.1"/>
<polyline points="16.8,453.6 30.5,453.6 44.2,457.7 57.8,461.8 71.5,457.7 85.2,457.7 98.8,449.5 112.5,445.4 126.2,441.3 139.8,441.3 153.5,445.4 167.2,445.4 180.8,445.4 194.5,445.4 208.2,449.5 221.8,449.5 235.5,457.7 249.2,461.8 262.8,461.8 276.5,461.8 290.2,457.7 303.8,457.7 317.5,457.7 331.2,453.6 344.8,449.5 358.5,453.6 372.2,453.6 385.8,453.6 399.5,457.7 413.2,453.6 426.8,453.6 440.5,453.6 454.2,449.5 467.8,453.6 481.5,457.7 495.2,457.7 508.8,457.7 522.5,457.7 536.2,457.7 549.8,453.6 563.5,457.7 577.2,457.7 590.8,461.8 604.5,461.8 618.2,461.8 631.8,461.8 645.5,457.7 659.2,453.6 672.8,453.6 686.5,461.8 700.2,461.8 713.8,461.8 727.5,461.8 741.2,461.8 754.8,461.8 768.5,461.8 782.2,465.9 795.8,470.0 809.5,470.0 823.2,470.0" fill="none" stroke="#3987e5" stroke-width="1.5" stroke-linejoin="round" stroke-linecap="round"/>
<polyline points="16.8,461.8 30.5,461.8 44.2,461.8 57.8,461.8 71.5,453.6 85.2,453.6 98.8,437.2 112.5,429.0 126.2,420.8 139.8,429.0 153.5,437.2 167.2,453.6 180.8,461.8 194.5,470.0 208.2,470.0 221.8,461.8 235.5,461.8 249.2,461.8 262.8,453.6 276.5,453.6 290.2,453.6 303.8,453.6 317.5,453.6 331.2,453.6 344.8,445.4 358.5,453.6 372.2,453.6 385.8,453.6 399.5,461.8 413.2,461.8 426.8,453.6 440.5,453.6 454.2,445.4 467.8,445.4 481.5,453.6 495.2,461.8 508.8,461.8 522.5,470.0 536.2,470.0 549.8,453.6 563.5,453.6 577.2,453.6 590.8,453.6 604.5,453.6 618.2,470.0 631.8,470.0 645.5,461.8 659.2,453.6 672.8,453.6 686.5,453.6 700.2,453.6 713.8,461.8 727.5,470.0 741.2,470.0 754.8,470.0 768.5,470.0 782.2,470.0 795.8,470.0 809.5,470.0 823.2,470.0" fill="none" stroke="#c98500" stroke-width="1.5" stroke-linejoin="round" stroke-linecap="round"/>
</svg>