<svg xmlns="http://www.w3.org/2000/svg" viewBox="0 0 840 496" width="840" height="496" font-family="-apple-system,&#39;Segoe UI&#39;,system-ui,sans-serif" role="img" aria-label="996icu/996.ICU candlestick chart">
<text x="14.0" y="20.0" font-size="15" fill="#ffffff" font-weight="650">996icu/996.ICU</text>
<text x="133.5" y="20.0" font-size="11.5" fill="#c3c2b7">daily · new stars, volume = new forks</text>
<text x="805.8" y="20.0" font-size="11.0" fill="#c3c2b7">fall</text>
<rect x="791" y="10" width="9" height="12" fill="#008300"/>
<text x="750.6" y="20.0" font-size="11.0" fill="#c3c2b7">rise</text>
<rect x="736" y="10" width="9" height="12" fill="none" stroke="#e66767" stroke-width="1.5"/>
<text x="14.0" y="38.0" font-size="11.0" fill="#898781">last 60 days · +625 stars · +18 forks · updated 2026-07-24</text>
<rect x="10" y="66" width="820" height="290" fill="none" stroke="#2c2c2a"/>
<rect x="10" y="384" width="820" height="86" fill="none" stroke="#2c2c2a"/>
<text x="38.0" y="490.0" font-size="11.0" fill="#898781" text-anchor="middle">2026-05</text>
<line x1="146.7" y1="66.0" x2="146.7" y2="356.0" stroke="#2c2c2a" stroke-width="1.0"/>
<line x1="146.7" y1="384.0" x2="146.7" y2="470.0" stroke="#2c2c2a" stroke-width="1.0"/>
<text x="153.5" y="490.0" font-size="11.0" fill="#898781" text-anchor="middle">2026-06</text>
<line x1="556.7" y1="66.0" x2="556.7" y2="356.0" stroke="#2c2c2a" stroke-width="1.0"/>
<line x1="556.7" y1="384.0" x2="556.7" y2="470.0" stroke="#2c2c2a" stroke-width="1.0"/>
<text x="563.5" y="490.0" font-size="11.0" fill="#898781" text-anchor="middle">2026-07</text>
<text x="14.0" y="58.0" font-size="11.0" fill="#c3c2b7">BOLL(20,2)</text>
<text x="84.5" y="58.0" font-size="11.0" fill="#c98500">UP:20.4</text>
<text x="136.9" y="58.0" font-size="11.0" fill="#3987e5">MID:8.9</text>
<text x="189.2" y="58.0" font-size="11.0" fill="#d55181">LOW:0</text>
<text x="229.5" y="58.0" font-size="11.0" fill="#9085e9">MA7:10.9</text>
<line x1="10.0" y1="356.0" x2="830.0" y2="356.0" stroke="#2c2c2a" stroke-width="1.0"/>
<text x="14.0" y="353.0" font-size="11.0" fill="#898781">0</text>
<line x1="10.0" y1="227.6" x2="830.0" y2="227.6" stroke="#2c2c2a" stroke-width="1.0"/>
<text x="14.0" y="224.6" font-size="11.0" fill="#898781">10</text>
<line x1="10.0" y1="99.2" x2="830.0" y2="99.2" stroke="#2c2c2a" stroke-width="1.0"/>
<text x="14.0" y="96.2" font-size="11.0" fill="#898781">20</text>
<polyline points="16.8,108.4 30.5,108.1 44.2,105.6 57.8,106.4 71.5,104.8 85.2,110.9 98.8,114.0 112.5,106.1 126.2,92.1 139.8,87.9 153.5,80.1 167.2,79.8 180.8,84.4 194.5,81.6 208.2,82.1 221.8,79.9 235.5,88.2 249.2,93.7 262.8,95.1 276.5,97.8 290.2,105.5 303.8,105.5 317.5,112.4 331.2,122.4 344.8,133.5 358.5,134.9 372.2,138.5 385.8,135.0 399.5,127.1 413.2,139.4 426.8,140.7 440.5,136.6 454.2,136.6 467.8,137.3 481.5,135.0 495.2,135.0 508.8,135.5 522.5,131.9 536.2,133.2 549.8,133.2 563.5,135.3 577.2,138.5 590.8,135.2 604.5,126.7 618.2,127.4 631.8,115.0 645.5,111.3 659.2,105.7 672.8,111.0 686.5,118.6 700.2,117.2 713.8,122.7 727.5,125.4 741.2,126.2 754.8,107.4 768.5,98.2 782.2,96.0 795.8,96.0 809.5,94.1 823.2,94.1" fill="none" stroke="#c98500" stroke-width="1.5" stroke-linejoin="round" stroke-linecap="round"/>
<polyline points="16.8,175.6 30.5,175.0 44.2,173.0 57.8,167.9 71.5,167.3 85.2,164.7 98.8,167.3 112.5,169.8 126.2,174.3 139.8,173.0 153.5,179.4 167.2,178.8 180.8,182.0 194.5,185.9 208.2,187.2 221.8,190.4 235.5,194.9 249.2,201.3 262.8,201.9 276.5,205.1 290.2,208.3 303.8,208.3 317.5,213.5 331.2,217.3 344.8,221.2 358.5,221.8 372.2,225.0 385.8,227.6 399.5,220.5 413.2,223.1 426.8,222.5 440.5,221.2 454.2,221.2 467.8,219.9 481.5,218.6 495.2,218.6 508.8,219.3 522.5,214.8 536.2,220.5 549.8,220.5 563.5,222.5 577.2,223.7 590.8,220.5 604.5,217.3 618.2,218.6 631.8,214.8 645.5,217.3 659.2,219.3 672.8,227.6 686.5,231.5 700.2,232.7 713.8,241.1 727.5,246.9 741.2,250.1 754.8,245.6 768.5,240.4 782.2,239.2 795.8,239.2 809.5,241.1 823.2,241.1" fill="none" stroke="#3987e5" stroke-width="1.5" stroke-linejoin="round" stroke-linecap="round"/>
<polyline points="16.8,242.8 30.5,241.9 44.2,240.4 57.8,229.4 71.5,229.7 85.2,218.5 98.8,220.5 112.5,233.5 126.2,256.5 139.8,258.2 153.5,278.8 167.2,277.8 180.8,279.6 194.5,290.1 208.2,292.2 221.8,300.8 235.5,301.6 249.2,308.9 262.8,308.7 276.5,312.5 290.2,311.2 303.8,311.2 317.5,314.5 331.2,312.2 344.8,308.9 358.5,308.7 372.2,311.6 385.8,320.2 399.5,314.0 413.2,306.8 426.8,304.3 440.5,305.8 454.2,305.8 467.8,302.5 481.5,302.2 495.2,302.2 508.8,303.0 522.5,297.6 536.2,307.8 549.8,307.8 563.5,309.6 577.2,309.0 590.8,305.9 604.5,308.0 618.2,309.8 631.8,314.5 645.5,323.4 659.2,332.8 672.8,344.2 686.5,344.3 700.2,348.3 713.8,356.0 727.5,356.0 741.2,356.0 754.8,356.0 768.5,356.0 782.2,356.0 795.8,356.0 809.5,356.0 823.2,356.0" fill="none" stroke="#d55181" stroke-width="1.5" stroke-linejoin="round" stroke-linecap="round"/>
<polyline points="16.8,162.1 30.5,159.5 44.2,151.8 57.8,154.4 71.5,154.4 85.2,158.3 98.8,159.5 112.5,176.2 126.2,192.9 139.8,187.8 153.5,209.6 167.2,216.0 180.8,218.6 194.5,228.9 208.2,223.7 221.8,219.9 235.5,235.3 249.2,231.5 262.8,228.9 276.5,235.3 290.2,226.3 303.8,219.9 317.5,218.6 331.2,218.6 344.8,210.9 358.5,214.8 372.2,216.0 385.8,231.5 399.5,227.6 413.2,214.8 426.8,223.7 440.5,216.0 454.2,216.0 467.8,214.8 481.5,198.1 495.2,214.8 508.8,223.7 522.5,209.6 536.2,227.6 549.8,232.7 563.5,232.7 577.2,235.3 590.8,223.7 604.5,213.5 618.2,222.5 631.8,198.1 645.5,207.1 659.2,222.5 672.8,239.2 686.5,245.6 700.2,267.4 713.8,280.2 727.5,308.5 741.2,308.5 754.8,273.8 768.5,252.0 782.2,245.6 795.8,227.6 809.5,227.6 823.2,216.0" fill="none" stroke="#9085e9" stroke-width="1.5" stroke-linejoin="round" stroke-linecap="round"/>
<rect x="13.1" y="137.7" width="7.5" height="38.5" fill="none" stroke="#e66767" stroke-width="1.3"/>
<rect x="26.7" y="137.7" width="7.5" height="38.5" fill="#008300"/>
<rect x="40.4" y="150.6" width="7.5" height="25.7" fill="none" stroke="#e66767" stroke-width="1.3"/>
<rect x="54.1" y="137.7" width="7.5" height="12.8" fill="none" stroke="#e66767" stroke-width="1.3"/>
<rect x="67.7" y="137.7" width="7.5" height="1.2" fill="#898781"/>
<rect x="81.4" y="137.7" width="7.5" height="51.4" fill="#008300"/>
<rect x="95.1" y="189.1" width="7.5" height="1.2" fill="#898781"/>
<rect x="108.7" y="189.1" width="7.5" height="64.2" fill="#008300"/>
<rect x="122.4" y="253.3" width="7.5" height="38.5" fill="#008300"/>
<rect x="136.1" y="112.0" width="7.5" height="179.8" fill="none" stroke="#e66767" stroke-width="1.3"/>
<rect x="149.7" y="112.0" width="7.5" height="179.8" fill="#008300"/>
<rect x="163.4" y="189.1" width="7.5" height="102.7" fill="none" stroke="#e66767" stroke-width="1.3"/>
<rect x="177.1" y="189.1" width="7.5" height="12.8" fill="#008300"/>
<rect x="190.7" y="201.9" width="7.5" height="64.2" fill="#008300"/>
<rect x="204.4" y="214.8" width="7.5" height="51.4" fill="none" stroke="#e66767" stroke-width="1.3"/>
<rect x="218.1" y="214.8" width="7.5" height="51.4" fill="#008300"/>
<rect x="231.7" y="214.8" width="7.5" height="51.4" fill="none" stroke="#e66767" stroke-width="1.3"/>
<rect x="245.4" y="214.8" width="7.5" height="51.4" fill="#008300"/>
<rect x="259.1" y="176.2" width="7.5" height="89.9" fill="none" stroke="#e66767" stroke-width="1.3"/>
<rect x="272.7" y="176.2" width="7.5" height="64.2" fill="#008300"/>
<rect x="286.4" y="201.9" width="7.5" height="38.5" fill="none" stroke="#e66767" stroke-width="1.3"/>
<rect x="300.1" y="176.2" width="7.5" height="25.7" fill="none" stroke="#e66767" stroke-width="1.3"/>
<rect x="313.7" y="176.2" width="7.5" height="77.0" fill="#008300"/>
<rect x="327.4" y="214.8" width="7.5" height="38.5" fill="none" stroke="#e66767" stroke-width="1.3"/>
<rect x="341.1" y="214.8" width="7.5" height="1.2" fill="#898781"/>
<rect x="354.7" y="201.9" width="7.5" height="12.8" fill="none" stroke="#e66767" stroke-width="1.3"/>
<rect x="368.4" y="201.9" width="7.5" height="51.4" fill="#008300"/>
<rect x="382.1" y="253.3" width="7.5" height="51.4" fill="#008300"/>
<rect x="395.7" y="150.6" width="7.5" height="154.1" fill="none" stroke="#e66767" stroke-width="1.3"/>
<rect x="409.4" y="150.6" width="7.5" height="12.8" fill="#008300"/>
<rect x="423.1" y="163.4" width="7.5" height="115.6" fill="#008300"/>
<rect x="436.7" y="163.4" width="7.5" height="115.6" fill="none" stroke="#e66767" stroke-width="1.3"/>
<rect x="450.4" y="163.4" width="7.5" height="38.5" fill="#008300"/>
<rect x="464.1" y="201.9" width="7.5" height="38.5" fill="#008300"/>
<rect x="477.7" y="189.1" width="7.5" height="51.4" fill="none" stroke="#e66767" stroke-width="1.3"/>
<rect x="491.4" y="189.1" width="7.5" height="77.0" fill="#008300"/>
<rect x="505.1" y="227.6" width="7.5" height="38.5" fill="none" stroke="#e66767" stroke-width="1.3"/>
<rect x="518.7" y="176.2" width="7.5" height="51.4" fill="none" stroke="#e66767" stroke-width="1.3"/>
<rect x="532.4" y="176.2" width="7.5" height="115.6" fill="#008300"/>
<rect x="546.1" y="240.4" width="7.5" height="51.4" fill="none" stroke="#e66767" stroke-width="1.3"/>
<rect x="559.7" y="240.4" width="7.5" height="1.2" fill="#898781"/>
<rect x="573.4" y="201.9" width="7.5" height="38.5" fill="none" stroke="#e66767" stroke-width="1.3"/>
<rect x="587.1" y="189.1" width="7.5" height="12.8" fill="none" stroke="#e66767" stroke-width="1.3"/>
<rect x="600.7" y="150.6" width="7.5" height="38.5" fill="none" stroke="#e66767" stroke-width="1.3"/>
<rect x="614.4" y="150.6" width="7.5" height="89.9" fill="#008300"/>
<rect x="628.1" y="124.9" width="7.5" height="115.6" fill="none" stroke="#e66767" stroke-width="1.3"/>
<rect x="641.7" y="124.9" width="7.5" height="179.8" fill="#008300"/>
<rect x="655.4" y="343.2" width="7.5" height="12.8" fill="none" stroke="#e66767" stroke-width="1.3"/>
<rect x="669.1" y="317.5" width="7.5" height="25.7" fill="none" stroke="#e66767" stroke-width="1.3"/>
<rect x="682.7" y="240.4" width="7.5" height="77.0" fill="none" stroke="#e66767" stroke-width="1.3"/>
<rect x="696.4" y="304.6" width="7.5" height="51.4" fill="none" stroke="#e66767" stroke-width="1.3"/>
<rect x="710.1" y="304.6" width="7.5" height="25.7" fill="#008300"/>
<rect x="723.7" y="317.5" width="7.5" height="12.8" fill="none" stroke="#e66767" stroke-width="1.3"/>
<rect x="737.4" y="304.6" width="7.5" height="12.8" fill="none" stroke="#e66767" stroke-width="1.3"/>
<rect x="751.1" y="99.2" width="7.5" height="205.4" fill="none" stroke="#e66767" stroke-width="1.3"/>
<rect x="764.7" y="99.2" width="7.5" height="64.2" fill="#008300"/>
<rect x="778.4" y="163.4" width="7.5" height="38.5" fill="#008300"/>
<rect x="792.1" y="176.2" width="7.5" height="25.7" fill="none" stroke="#e66767" stroke-width="1.3"/>
<rect x="805.7" y="330.3" width="7.5" height="25.7" fill="none" stroke="#e66767" stroke-width="1.3"/>
<rect x="819.4" y="240.4" width="7.5" height="89.9" fill="none" stroke="#e66767" stroke-width="1.3"/>
<circle cx="754.8" cy="99.2" r="2" fill="#c3c2b7"/>
<line x1="754.8" y1="99.2" x2="746.8" y2="99.2" stroke="#c3c2b7" stroke-width="1.0"/>
<text x="743.8" y="103.2" font-size="11.0" fill="#c3c2b7" text-anchor="end">20</text>
<circle cx="659.2" cy="356.0" r="2" fill="#c3c2b7"/>
<line x1="659.2" y1="356.0" x2="651.2" y2="356.0" stroke="#c3c2b7" stroke-width="1.0"/>
<text x="648.2" y="350.0" font-size="11.0" fill="#c3c2b7" text-anchor="end">0</text>
<text x="14.0" y="376.0" font-size="11.0" fill="#c3c2b7">VOL 0 forks</text>
<text x="90.6" y="376.0" font-size="11.0" fill="#c98500">MA5:0</text>
<text x="130.8" y="376.0" font-size="11.0" fill="#3987e5">MA10:0</text>
<text x="14.0" y="395.0" font-size="10" fill="#898781">2</text>
<rect x="40.4" y="429.0" width="7.5" height="41.0" fill="none" stroke="#e66767" stroke-width="1.1"/>
<rect x="54.1" y="429.0" width="7.5" height="41.0" fill="none" stroke="#e66767" stroke-width="1.1"/>
<rect x="67.7" y="388.0" width="7.5" height="82.0" fill="#898781"/>
<rect x="81.4" y="429.0" width="7.5" height="41.0" fill="#008300"/>
<rect x="95.1" y="429.0" width="7.5" height="41.0" fill="#898781"/>
<rect x="190.7" y="429.0" width="7.5" height="41.0" fill="#008300"/>
<rect x="231.7" y="429.0" width="7.5" height="41.0" fill="none" stroke="#e66767" stroke-width="1.1"/>
<rect x="259.1" y="429.0" width="7.5" height="41.0" fill="none" stroke="#e66767" stroke-width="1.1"/>
<rect x="300.1" y="429.0" width="7.5" height="41.0" fill="none" stroke="#e66767" stroke-width="1.1"/>
<rect x="313.7" y="429.0" width="7.5" height="41.0" fill="#008300"/>
<rect x="382.1" y="429.0" width="7.5" height="41.0" fill="#008300"/>
<rect x="395.7" y="429.0" width="7.5" height="41.0" fill="none" stroke="#e66767" stroke-width="1.1"/>
<rect x="423.1" y="429.0" width="7.5" height="41.0" fill="#008300"/>
<rect x="518.7" y="388.0" width="7.5" height="82.0" fill="none" stroke="#e66767" stroke-width="1.1"/>
<rect x="614.4" y="429.0" width="7.5" height="41.0" fill="#008300"/>
<rect x="628.1" y="429.0" width="7.5" height="41.0" fill="none" stroke="#e66767" stroke-width="1.1"/>
<polyline points="16.8,457.7 30.5,461.8 44.2,457.7 57.8,457.7 71.5,449.5 85.2,445.4 98.8,441.3 112.5,441.3 126.2,445.4 139.8,445.4 153.5,445.4 167.2,445.4 180.8,449.5 194.5,449.5 208.2,457.7 221.8,461.8 235.5,461.8 249.2,461.8 262.8,457.7 276.5,457.7 290.2,457.7 303.8,453.6 317.5,449.5 331.2,453.6 344.8,453.6 358.5,453.6 372.2,457.7 385.8,453.6 399.5,453.6 413.2,453.6 426.8,449.5 440.5,453.6 454.2,457.7 467.8,457.7 481.5,457.7 495.2,457.7 508.8,457.7 522.5,453.6 536.2,457.7 549.8,457.7 563.5,461.8 577.2,461.8 590.8,461.8 604.5,461.8 618.2,457.7 631.8,453.6 645.5,453.6 659.2,461.8 672.8,461.8 686.5,461.8 700.2,461.8 713.8,461.8 727.5,461.8 741.2,461.8 754.8,465.9 768.5,470.0 782.2,470.0 795.8,470.0 809.5,470.0 823.2,470.0" fill="none" stroke="#3987e5" stroke-width="1.5" stroke-linejoin="round" stroke-linecap="round"/>
<polyline points="16.8,461.8 30.5,461.8 44.2,453.6 57.8,453.6 71.5,437.2 85.2,429.0 98.8,420.8 112.5,429.0 126.2,437.2 139.8,453.6 153.5,461.8 167.2,470.0 180.8,470.0 194.5,461.8 208.2,461.8 221.8,461.8 235.5,453.6 249.2,453.6 262.8,453.6 276.5,453.6 290.2,453.6 303.8,453.6 317.5,445.4 331.2,453.6 344.8,453.6 358.5,453.6 372.2,461.8 385.8,461.8 399.5,453.6 413.2,453.6 426.8,445.4 440.5,445.4 454.2,453.6 467.8,461.8 481.5,461.8 495.2,470.0 508.8,470.0 522.5,453.6 536.2,453.6 549.8,453.6 563.5,453.6 577.2,453.6 590.8,470.0 604.5,470.0 618.2,461.8 631.8,453.6 645.5,453.6 659.2,453.6 672.8,453.6 686.5,461.8 700.2,470.0 713.8,470.0 727.5,470.0 741.2,470.0 754.8,470.0 768.5,470.0 782.2,470.0 795.8,470.0 809.5,470.0 823.2,470.0" fill="none" stroke="#c98500" stroke-width="1.5" stroke-linejoin="round" stroke-linecap="round"/>
</svg>