<svg xmlns="http://www.w3.org/2000/svg" viewBox="0 0 840 496" width="840" height="496" font-family="-apple-system,&#39;Segoe UI&#39;,system-ui,sans-serif" role="img" aria-label="996icu/996.ICU candlestick chart">
<text x="14.0" y="20.0" font-size="15" fill="#0b0b0b" font-weight="650">996icu/996.ICU</text>
<text x="133.5" y="20.0" font-size="11.5" fill="#52514e">daily · new stars, volume = new forks</text>
<text x="805.8" y="20.0" font-size="11.0" fill="#52514e">fall</text>
<rect x="791" y="10" width="9" height="12" fill="#008300"/>
<text x="750.6" y="20.0" font-size="11.0" fill="#52514e">rise</text>
<rect x="736" y="10" width="9" height="12" fill="none" stroke="#e34948" stroke-width="1.5"/>
<text x="14.0" y="38.0" font-size="11.0" fill="#898781">last 60 days · +642 stars · +19 forks · updated 2026-07-17</text>
<rect x="10" y="66" width="820" height="290" fill="none" stroke="#e1e0d9"/>
<rect x="10" y="384" width="820" height="86" fill="none" stroke="#e1e0d9"/>
<text x="38.0" y="490.0" font-size="11.0" fill="#898781" text-anchor="middle">2026-05</text>
<line x1="228.7" y1="66.0" x2="228.7" y2="356.0" stroke="#e1e0d9" stroke-width="1.0"/>
<line x1="228.7" y1="384.0" x2="228.7" y2="470.0" stroke="#e1e0d9" stroke-width="1.0"/>
<text x="235.5" y="490.0" font-size="11.0" fill="#898781" text-anchor="middle">2026-06</text>
<line x1="638.7" y1="66.0" x2="638.7" y2="356.0" stroke="#e1e0d9" stroke-width="1.0"/>
<line x1="638.7" y1="384.0" x2="638.7" y2="470.0" stroke="#e1e0d9" stroke-width="1.0"/>
<text x="645.5" y="490.0" font-size="11.0" fill="#898781" text-anchor="middle">2026-07</text>
<text x="14.0" y="58.0" font-size="11.0" fill="#52514e">BOLL(20,2)</text>
<text x="84.5" y="58.0" font-size="11.0" fill="#eda100">UP:17.9</text>
<text x="136.9" y="58.0" font-size="11.0" fill="#2a78d6">MID:8.2</text>
<text x="189.2" y="58.0" font-size="11.0" fill="#e87ba4">LOW:0</text>
<text x="229.5" y="58.0" font-size="11.0" fill="#4a3aa7">MA7:3.7</text>
<line x1="10.0" y1="356.0" x2="830.0" y2="356.0" stroke="#e1e0d9" stroke-width="1.0"/>
<text x="14.0" y="353.0" font-size="11.0" fill="#898781">0</text>
<line x1="10.0" y1="176.2" x2="830.0" y2="176.2" stroke="#e1e0d9" stroke-width="1.0"/>
<text x="14.0" y="173.2" font-size="11.0" fill="#898781">50</text>
<polyline points="16.8,79.9 30.5,79.8 44.2,258.7 57.8,286.9 71.5,286.4 85.2,286.7 98.8,286.7 112.5,286.6 126.2,285.9 139.8,286.1 153.5,285.7 167.2,287.4 180.8,288.2 194.5,286.0 208.2,282.1 221.8,280.9 235.5,278.7 249.2,278.7 262.8,280.0 276.5,279.2 290.2,279.3 303.8,278.7 317.5,281.0 331.2,282.5 344.8,282.9 358.5,283.7 372.2,285.9 385.8,285.9 399.5,287.8 413.2,290.6 426.8,293.7 440.5,294.1 454.2,295.1 467.8,294.1 481.5,291.9 495.2,295.3 508.8,295.7 522.5,294.6 536.2,294.6 549.8,294.8 563.5,294.1 577.2,294.1 590.8,294.3 604.5,293.3 618.2,293.6 631.8,293.6 645.5,294.2 659.2,295.1 672.8,294.2 686.5,291.8 700.2,292.0 713.8,288.5 727.5,287.5 741.2,285.9 754.8,287.4 768.5,289.5 782.2,289.1 795.8,290.7 809.5,291.4 823.2,291.6" fill="none" stroke="#eda100" stroke-width="1.5" stroke-linejoin="round" stroke-linecap="round"/>
<polyline points="16.8,281.8 30.5,281.6 44.2,303.5 57.8,307.5 71.5,306.9 85.2,307.1 98.8,305.5 112.5,305.3 126.2,304.8 139.8,303.3 153.5,303.1 167.2,302.4 180.8,303.1 194.5,303.9 208.2,305.1 221.8,304.8 235.5,306.6 249.2,306.4 262.8,307.3 276.5,308.4 290.2,308.7 303.8,309.6 317.5,310.9 331.2,312.7 344.8,312.9 358.5,313.8 372.2,314.7 385.8,314.7 399.5,316.1 413.2,317.2 426.8,318.2 440.5,318.4 454.2,319.3 467.8,320.0 481.5,318.1 495.2,318.8 508.8,318.6 522.5,318.2 536.2,318.2 549.8,317.9 563.5,317.5 577.2,317.5 590.8,317.7 604.5,316.5 618.2,318.1 631.8,318.1 645.5,318.6 659.2,319.0 672.8,318.1 686.5,317.2 700.2,317.5 713.8,316.5 727.5,317.2 741.2,317.7 754.8,320.0 768.5,321.1 782.2,321.5 795.8,323.8 809.5,325.4 823.2,326.3" fill="none" stroke="#2a78d6" stroke-width="1.5" stroke-linejoin="round" stroke-linecap="round"/>
<polyline points="16.8,356.0 30.5,356.0 44.2,348.3 57.8,328.0 71.5,327.4 85.2,327.5 98.8,324.3 112.5,324.0 126.2,323.6 139.8,320.6 153.5,320.6 167.2,317.5 180.8,318.1 194.5,321.7 208.2,328.1 221.8,328.6 235.5,334.4 249.2,334.1 262.8,334.6 276.5,337.6 290.2,338.1 303.8,340.5 317.5,340.8 331.2,342.8 344.8,342.8 358.5,343.8 372.2,343.5 385.8,343.5 399.5,344.4 413.2,343.7 426.8,342.8 440.5,342.8 454.2,343.6 467.8,346.0 481.5,344.2 495.2,342.2 508.8,341.5 522.5,341.9 536.2,341.9 549.8,341.0 563.5,340.9 577.2,340.9 590.8,341.2 604.5,339.6 618.2,342.5 631.8,342.5 645.5,343.0 659.2,342.8 672.8,342.0 686.5,342.6 700.2,343.1 713.8,344.4 727.5,346.9 741.2,349.5 754.8,352.7 768.5,352.7 782.2,353.8 795.8,356.0 809.5,356.0 823.2,356.0" fill="none" stroke="#e87ba4" stroke-width="1.5" stroke-linejoin="round" stroke-linecap="round"/>
<polyline points="16.8,305.3 30.5,305.3 44.2,304.6 57.8,303.5 71.5,302.1 85.2,303.5 98.8,301.7 112.5,301.0 126.2,298.8 139.8,299.6 153.5,299.6 167.2,300.6 180.8,301.0 194.5,305.7 208.2,310.3 221.8,308.9 235.5,315.0 249.2,316.8 262.8,317.5 276.5,320.4 290.2,319.0 303.8,317.9 317.5,322.2 331.2,321.1 344.8,320.4 358.5,322.2 372.2,319.7 385.8,317.9 399.5,317.5 413.2,317.5 426.8,315.4 440.5,316.5 454.2,316.8 467.8,321.1 481.5,320.0 495.2,316.5 508.8,319.0 522.5,316.8 536.2,316.8 549.8,316.5 563.5,311.8 577.2,316.5 590.8,319.0 604.5,315.0 618.2,320.0 631.8,321.5 645.5,321.5 659.2,322.2 672.8,319.0 686.5,316.1 700.2,318.6 713.8,311.8 727.5,314.3 741.2,318.6 754.8,323.3 768.5,325.1 782.2,331.2 795.8,334.8 809.5,342.7 823.2,342.7" fill="none" stroke="#4a3aa7" stroke-width="1.5" stroke-linejoin="round" stroke-linecap="round"/>
<rect x="13.1" y="309.3" width="7.5" height="1.2" fill="#898781"/>
<rect x="26.7" y="309.3" width="7.5" height="3.6" fill="#008300"/>
<rect x="40.4" y="291.3" width="7.5" height="21.6" fill="none" stroke="#e34948" stroke-width="1.3"/>
<rect x="54.1" y="291.3" width="7.5" height="3.6" fill="#008300"/>
<rect x="67.7" y="294.9" width="7.5" height="7.2" fill="#008300"/>
<rect x="81.4" y="302.1" width="7.5" height="3.6" fill="#008300"/>
<rect x="95.1" y="294.9" width="7.5" height="10.8" fill="none" stroke="#e34948" stroke-width="1.3"/>
<rect x="108.7" y="294.9" width="7.5" height="10.8" fill="#008300"/>
<rect x="122.4" y="298.5" width="7.5" height="7.2" fill="none" stroke="#e34948" stroke-width="1.3"/>
<rect x="136.1" y="294.9" width="7.5" height="3.6" fill="none" stroke="#e34948" stroke-width="1.3"/>
<rect x="149.7" y="294.9" width="7.5" height="1.2" fill="#898781"/>
<rect x="163.4" y="294.9" width="7.5" height="14.4" fill="#008300"/>
<rect x="177.1" y="309.3" width="7.5" height="1.2" fill="#898781"/>
<rect x="190.7" y="309.3" width="7.5" height="18.0" fill="#008300"/>
<rect x="204.4" y="327.2" width="7.5" height="10.8" fill="#008300"/>
<rect x="218.1" y="287.7" width="7.5" height="50.3" fill="none" stroke="#e34948" stroke-width="1.3"/>
<rect x="231.7" y="287.7" width="7.5" height="50.3" fill="#008300"/>
<rect x="245.4" y="309.3" width="7.5" height="28.8" fill="none" stroke="#e34948" stroke-width="1.3"/>
<rect x="259.1" y="309.3" width="7.5" height="3.6" fill="#008300"/>
<rect x="272.7" y="312.9" width="7.5" height="18.0" fill="#008300"/>
<rect x="286.4" y="316.5" width="7.5" height="14.4" fill="none" stroke="#e34948" stroke-width="1.3"/>
<rect x="300.1" y="316.5" width="7.5" height="14.4" fill="#008300"/>
<rect x="313.7" y="316.5" width="7.5" height="14.4" fill="none" stroke="#e34948" stroke-width="1.3"/>
<rect x="327.4" y="316.5" width="7.5" height="14.4" fill="#008300"/>
<rect x="341.1" y="305.7" width="7.5" height="25.2" fill="none" stroke="#e34948" stroke-width="1.3"/>
<rect x="354.7" y="305.7" width="7.5" height="18.0" fill="#008300"/>
<rect x="368.4" y="312.9" width="7.5" height="10.8" fill="none" stroke="#e34948" stroke-width="1.3"/>
<rect x="382.1" y="305.7" width="7.5" height="7.2" fill="none" stroke="#e34948" stroke-width="1.3"/>
<rect x="395.7" y="305.7" width="7.5" height="21.6" fill="#008300"/>
<rect x="409.4" y="316.5" width="7.5" height="10.8" fill="none" stroke="#e34948" stroke-width="1.3"/>
<rect x="423.1" y="316.5" width="7.5" height="1.2" fill="#898781"/>
<rect x="436.7" y="312.9" width="7.5" height="3.6" fill="none" stroke="#e34948" stroke-width="1.3"/>
<rect x="450.4" y="312.9" width="7.5" height="14.4" fill="#008300"/>
<rect x="464.1" y="327.2" width="7.5" height="14.4" fill="#008300"/>
<rect x="477.7" y="298.5" width="7.5" height="43.1" fill="none" stroke="#e34948" stroke-width="1.3"/>
<rect x="491.4" y="298.5" width="7.5" height="3.6" fill="#008300"/>
<rect x="505.1" y="302.1" width="7.5" height="32.4" fill="#008300"/>
<rect x="518.7" y="302.1" width="7.5" height="32.4" fill="none" stroke="#e34948" stroke-width="1.3"/>
<rect x="532.4" y="302.1" width="7.5" height="10.8" fill="#008300"/>
<rect x="546.1" y="312.9" width="7.5" height="10.8" fill="#008300"/>
<rect x="559.7" y="309.3" width="7.5" height="14.4" fill="none" stroke="#e34948" stroke-width="1.3"/>
<rect x="573.4" y="309.3" width="7.5" height="21.6" fill="#008300"/>
<rect x="587.1" y="320.0" width="7.5" height="10.8" fill="none" stroke="#e34948" stroke-width="1.3"/>
<rect x="600.7" y="305.7" width="7.5" height="14.4" fill="none" stroke="#e34948" stroke-width="1.3"/>
<rect x="614.4" y="305.7" width="7.5" height="32.4" fill="#008300"/>
<rect x="628.1" y="323.6" width="7.5" height="14.4" fill="none" stroke="#e34948" stroke-width="1.3"/>
<rect x="641.7" y="323.6" width="7.5" height="1.2" fill="#898781"/>
<rect x="655.4" y="312.9" width="7.5" height="10.8" fill="none" stroke="#e34948" stroke-width="1.3"/>
<rect x="669.1" y="309.3" width="7.5" height="3.6" fill="none" stroke="#e34948" stroke-width="1.3"/>
<rect x="682.7" y="298.5" width="7.5" height="10.8" fill="none" stroke="#e34948" stroke-width="1.3"/>
<rect x="696.4" y="298.5" width="7.5" height="25.2" fill="#008300"/>
<rect x="710.1" y="291.3" width="7.5" height="32.4" fill="none" stroke="#e34948" stroke-width="1.3"/>
<rect x="723.7" y="291.3" width="7.5" height="50.3" fill="#008300"/>
<rect x="737.4" y="352.4" width="7.5" height="3.6" fill="none" stroke="#e34948" stroke-width="1.3"/>
<rect x="751.1" y="345.2" width="7.5" height="7.2" fill="none" stroke="#e34948" stroke-width="1.3"/>
<rect x="764.7" y="323.6" width="7.5" height="21.6" fill="none" stroke="#e34948" stroke-width="1.3"/>
<rect x="778.4" y="341.6" width="7.5" height="14.4" fill="none" stroke="#e34948" stroke-width="1.3"/>
<rect x="792.1" y="341.6" width="7.5" height="7.2" fill="#008300"/>
<rect x="805.7" y="345.2" width="7.5" height="3.6" fill="none" stroke="#e34948" stroke-width="1.3"/>
<rect x="819.4" y="341.6" width="7.5" height="3.6" fill="none" stroke="#e34948" stroke-width="1.3"/>
<circle cx="221.8" cy="287.7" r="2" fill="#52514e"/>
<line x1="221.8" y1="287.7" x2="229.8" y2="287.7" stroke="#52514e" stroke-width="1.0"/>
<text x="232.8" y="291.7" font-size="11.0" fill="#52514e">19</text>
<circle cx="741.2" cy="356.0" r="2" fill="#52514e"/>
<line x1="741.2" y1="356.0" x2="733.2" y2="356.0" stroke="#52514e" stroke-width="1.0"/>
<text x="730.2" y="350.0" font-size="11.0" fill="#52514e" text-anchor="end">0</text>
<text x="14.0" y="376.0" font-size="11.0" fill="#52514e">VOL 0 forks</text>
<text x="90.6" y="376.0" font-size="11.0" fill="#eda100">MA5:0</text>
<text x="130.8" y="376.0" font-size="11.0" fill="#2a78d6">MA10:0.2</text>
<text x="14.0" y="395.0" font-size="10" fill="#898781">2</text>
<rect x="67.7" y="429.0" width="7.5" height="41.0" fill="#008300"/>
<rect x="122.4" y="429.0" width="7.5" height="41.0" fill="none" stroke="#e34948" stroke-width="1.1"/>
<rect x="136.1" y="429.0" width="7.5" height="41.0" fill="none" stroke="#e34948" stroke-width="1.1"/>
<rect x="149.7" y="388.0" width="7.5" height="82.0" fill="#898781"/>
<rect x="163.4" y="429.0" width="7.5" height="41.0" fill="#008300"/>
<rect x="177.1" y="429.0" width="7.5" height="41.0" fill="#898781"/>
<rect x="272.7" y="429.0" width="7.5" height="41.0" fill="#008300"/>
<rect x="313.7" y="429.0" width="7.5" height="41.0" fill="none" stroke="#e34948" stroke-width="1.1"/>
<rect x="341.1" y="429.0" width="7.5" height="41.0" fill="none" stroke="#e34948" stroke-width="1.1"/>
<rect x="382.1" y="429.0" width="7.5" height="41.0" fill="none" stroke="#e34948" stroke-width="1.1"/>
<rect x="395.7" y="429.0" width="7.5" height="41.0" fill="#008300"/>
<rect x="464.1" y="429.0" width="7.5" height="41.0" fill="#008300"/>
<rect x="477.7" y="429.0" width="7.5" height="41.0" fill="none" stroke="#e34948" stroke-width="1.1"/>
<rect x="505.1" y="429.0" width="7.5" height="41.0" fill="#008300"/>
<rect x="600.7" y="388.0" width="7.5" height="82.0" fill="none" stroke="#e34948" stroke-width="1.1"/>
<rect x="696.4" y="429.0" width="7.5" height="41.0" fill="#008300"/>
<rect x="710.1" y="429.0" width="7.5" height="41.0" fill="none" stroke="#e34948" stroke-width="1.1"/>
<polyline points="16.8,453.6 30.5,453.6 44.2,457.7 57.8,457.7 71.5,453.6 85.2,453.6 98.8,457.7 112.5,461.8 126.2,457.7 139.8,457.7 153.5,449.5 167.2,445.4 180.8,441.3 194.5,441.3 208.2,445.4 221.8,445.4 235.5,445.4 249.2,445.4 262.8,449.5 276.5,449.5 290.2,457.7 303.8,461.8 317.5,461.8 331.2,461.8 344.8,457.7 358.5,457.7 372.2,457.7 385.8,453.6 399.5,449.5 413.2,453.6 426.8,453.6 440.5,453.6 454.2,457.7 467.8,453.6 481.5,453.6 495.2,453.6 508.8,449.5 522.5,453.6 536.2,457.7 549.8,457.7 563.5,457.7 577.2,457.7 590.8,457.7 604.5,453.6 618.2,457.7 631.8,457.7 645.5,461.8 659.2,461.8 672.8,461.8 686.5,461.8 700.2,457.7 713.8,453.6 727.5,453.6 741.2,461.8 754.8,461.8 768.5,461.8 782.2,461.8 795.8,461.8 809.5,461.8 823.2,461.8" fill="none" stroke="#2a78d6" stroke-width="1.5" stroke-linejoin="round" stroke-linecap="round"/>
<polyline points="16.8,445.4 30.5,453.6 44.2,461.8 57.8,461.8 71.5,461.8 85.2,461.8 98.8,461.8 112.5,461.8 126.2,453.6 139.8,453.6 153.5,437.2 167.2,429.0 180.8,420.8 194.5,429.0 208.2,437.2 221.8,453.6 235.5,461.8 249.2,470.0 262.8,470.0 276.5,461.8 290.2,461.8 303.8,461.8 317.5,453.6 331.2,453.6 344.8,453.6 358.5,453.6 372.2,453.6 385.8,453.6 399.5,445.4 413.2,453.6 426.8,453.6 440.5,453.6 454.2,461.8 467.8,461.8 481.5,453.6 495.2,453.6 508.8,445.4 522.5,445.4 536.2,453.6 549.8,461.8 563.5,461.8 577.2,470.0 590.8,470.0 604.5,453.6 618.2,453.6 631.8,453.6 645.5,453.6 659.2,453.6 672.8,470.0 686.5,470.0 700.2,461.8 713.8,453.6 727.5,453.6 741.2,453.6 754.8,453.6 768.5,461.8 782.2,470.0 795.8,470.0 809.5,470.0 823.2,470.0" fill="none" stroke="#eda100" stroke-width="1.5" stroke-linejoin="round" stroke-linecap="round"/>
</svg>