<svg xmlns="http://www.w3.org/2000/svg" viewBox="0 0 840 496" width="840" height="496" font-family="-apple-system,&#39;Segoe UI&#39;,system-ui,sans-serif" role="img" aria-label="996icu/996.ICU candlestick chart">
<text x="14.0" y="20.0" font-size="15" fill="#0b0b0b" font-weight="650">996icu/996.ICU</text>
<text x="133.5" y="20.0" font-size="11.5" fill="#52514e">daily · new stars, volume = new forks</text>
<text x="805.8" y="20.0" font-size="11.0" fill="#52514e">fall</text>
<rect x="791" y="10" width="9" height="12" fill="#008300"/>
<text x="750.6" y="20.0" font-size="11.0" fill="#52514e">rise</text>
<rect x="736" y="10" width="9" height="12" fill="none" stroke="#e34948" stroke-width="1.5"/>
<text x="14.0" y="38.0" font-size="11.0" fill="#898781">last 60 days · +665 stars · +20 forks · updated 2026-07-15</text>
<rect x="10" y="66" width="820" height="290" fill="none" stroke="#e1e0d9"/>
<rect x="10" y="384" width="820" height="86" fill="none" stroke="#e1e0d9"/>
<text x="38.0" y="490.0" font-size="11.0" fill="#898781" text-anchor="middle">2026-05</text>
<line x1="256.0" y1="66.0" x2="256.0" y2="356.0" stroke="#e1e0d9" stroke-width="1.0"/>
<line x1="256.0" y1="384.0" x2="256.0" y2="470.0" stroke="#e1e0d9" stroke-width="1.0"/>
<text x="262.8" y="490.0" font-size="11.0" fill="#898781" text-anchor="middle">2026-06</text>
<line x1="666.0" y1="66.0" x2="666.0" y2="356.0" stroke="#e1e0d9" stroke-width="1.0"/>
<line x1="666.0" y1="384.0" x2="666.0" y2="470.0" stroke="#e1e0d9" stroke-width="1.0"/>
<text x="672.8" y="490.0" font-size="11.0" fill="#898781" text-anchor="middle">2026-07</text>
<text x="14.0" y="58.0" font-size="11.0" fill="#52514e">BOLL(20,2)</text>
<text x="84.5" y="58.0" font-size="11.0" fill="#eda100">UP:18.2</text>
<text x="136.9" y="58.0" font-size="11.0" fill="#2a78d6">MID:8.9</text>
<text x="189.2" y="58.0" font-size="11.0" fill="#e87ba4">LOW:0</text>
<text x="229.5" y="58.0" font-size="11.0" fill="#4a3aa7">MA7:5.9</text>
<line x1="10.0" y1="356.0" x2="830.0" y2="356.0" stroke="#e1e0d9" stroke-width="1.0"/>
<text x="14.0" y="353.0" font-size="11.0" fill="#898781">0</text>
<line x1="10.0" y1="176.6" x2="830.0" y2="176.6" stroke="#e1e0d9" stroke-width="1.0"/>
<text x="14.0" y="173.6" font-size="11.0" fill="#898781">50</text>
<polyline points="16.8,79.8 30.5,80.1 44.2,80.4 57.8,80.3 71.5,258.9 85.2,287.1 98.8,286.6 112.5,286.9 126.2,286.8 139.8,286.7 153.5,286.0 167.2,286.2 180.8,285.8 194.5,287.5 208.2,288.4 221.8,286.2 235.5,282.3 249.2,281.1 262.8,278.9 276.5,278.8 290.2,280.1 303.8,279.3 317.5,279.5 331.2,278.9 344.8,281.1 358.5,282.7 372.2,283.1 385.8,283.8 399.5,286.0 413.2,286.0 426.8,287.9 440.5,290.7 454.2,293.8 467.8,294.2 481.5,295.2 495.2,294.2 508.8,292.0 522.5,295.5 536.2,295.8 549.8,294.7 563.5,294.7 577.2,294.9 590.8,294.2 604.5,294.2 618.2,294.4 631.8,293.4 645.5,293.7 659.2,293.7 672.8,294.3 686.5,295.2 700.2,294.3 713.8,291.9 727.5,292.1 741.2,288.6 754.8,287.6 768.5,286.1 782.2,287.5 795.8,289.7 809.5,289.3 823.2,290.8" fill="none" stroke="#eda100" stroke-width="1.5" stroke-linejoin="round" stroke-linecap="round"/>
<polyline points="16.8,280.8 30.5,281.4 44.2,281.9 57.8,281.7 71.5,303.6 85.2,307.6 98.8,307.0 112.5,307.2 126.2,305.6 139.8,305.4 153.5,304.9 167.2,303.4 180.8,303.3 194.5,302.5 208.2,303.3 221.8,304.0 235.5,305.2 249.2,304.9 262.8,306.7 276.5,306.5 290.2,307.4 303.8,308.5 317.5,308.8 331.2,309.7 344.8,311.0 358.5,312.8 372.2,312.9 385.8,313.8 399.5,314.7 413.2,314.7 426.8,316.2 440.5,317.2 454.2,318.3 467.8,318.5 481.5,319.4 495.2,320.1 508.8,318.1 522.5,318.9 536.2,318.7 549.8,318.3 563.5,318.3 577.2,318.0 590.8,317.6 604.5,317.6 618.2,317.8 631.8,316.5 645.5,318.1 659.2,318.1 672.8,318.7 686.5,319.0 700.2,318.1 713.8,317.2 727.5,317.6 741.2,316.5 754.8,317.2 768.5,317.8 782.2,320.1 795.8,321.2 809.5,321.6 823.2,323.9" fill="none" stroke="#2a78d6" stroke-width="1.5" stroke-linejoin="round" stroke-linecap="round"/>
<polyline points="16.8,356.0 30.5,356.0 44.2,356.0 57.8,356.0 71.5,348.3 85.2,328.0 98.8,327.5 112.5,327.5 126.2,324.4 139.8,324.1 153.5,323.7 167.2,320.6 180.8,320.7 194.5,317.6 208.2,318.1 221.8,321.8 235.5,328.2 249.2,328.7 262.8,334.4 276.5,334.1 290.2,334.6 303.8,337.6 317.5,338.2 331.2,340.6 344.8,340.8 358.5,342.8 372.2,342.8 385.8,343.8 399.5,343.5 413.2,343.5 426.8,344.4 440.5,343.8 454.2,342.8 467.8,342.8 481.5,343.6 495.2,346.0 508.8,344.3 522.5,342.3 536.2,341.5 549.8,342.0 563.5,342.0 577.2,341.0 590.8,341.0 604.5,341.0 618.2,341.2 631.8,339.7 645.5,342.5 659.2,342.5 672.8,343.0 686.5,342.9 700.2,342.0 713.8,342.6 727.5,343.1 741.2,344.4 754.8,346.9 768.5,349.5 782.2,352.7 795.8,352.7 809.5,353.8 823.2,356.0" fill="none" stroke="#e87ba4" stroke-width="1.5" stroke-linejoin="round" stroke-linecap="round"/>
<polyline points="16.8,303.6 30.5,305.8 44.2,305.4 57.8,305.4 71.5,304.7 85.2,303.6 98.8,302.2 112.5,303.6 126.2,301.8 139.8,301.1 153.5,298.9 167.2,299.7 180.8,299.7 194.5,300.7 208.2,301.1 221.8,305.8 235.5,310.4 249.2,309.0 262.8,315.1 276.5,316.9 290.2,317.6 303.8,320.5 317.5,319.0 331.2,318.0 344.8,322.3 358.5,321.2 372.2,320.5 385.8,322.3 399.5,319.8 413.2,318.0 426.8,317.6 440.5,317.6 454.2,315.5 467.8,316.5 481.5,316.9 495.2,321.2 508.8,320.1 522.5,316.5 536.2,319.0 549.8,316.9 563.5,316.9 577.2,316.5 590.8,311.9 604.5,316.5 618.2,319.0 631.8,315.1 645.5,320.1 659.2,321.6 672.8,321.6 686.5,322.3 700.2,319.0 713.8,316.2 727.5,318.7 741.2,311.9 754.8,314.4 768.5,318.7 782.2,323.3 795.8,325.1 809.5,331.2 823.2,334.8" fill="none" stroke="#4a3aa7" stroke-width="1.5" stroke-linejoin="round" stroke-linecap="round"/>
<rect x="13.1" y="295.0" width="7.5" height="17.9" fill="none" stroke="#e34948" stroke-width="1.3"/>
<rect x="26.7" y="295.0" width="7.5" height="14.4" fill="#008300"/>
<rect x="40.4" y="309.4" width="7.5" height="1.2" fill="#898781"/>
<rect x="54.1" y="309.4" width="7.5" height="3.6" fill="#008300"/>
<rect x="67.7" y="291.4" width="7.5" height="21.5" fill="none" stroke="#e34948" stroke-width="1.3"/>
<rect x="81.4" y="291.4" width="7.5" height="3.6" fill="#008300"/>
<rect x="95.1" y="295.0" width="7.5" height="7.2" fill="#008300"/>
<rect x="108.7" y="302.2" width="7.5" height="3.6" fill="#008300"/>
<rect x="122.4" y="295.0" width="7.5" height="10.8" fill="none" stroke="#e34948" stroke-width="1.3"/>
<rect x="136.1" y="295.0" width="7.5" height="10.8" fill="#008300"/>
<rect x="149.7" y="298.6" width="7.5" height="7.2" fill="none" stroke="#e34948" stroke-width="1.3"/>
<rect x="163.4" y="295.0" width="7.5" height="3.6" fill="none" stroke="#e34948" stroke-width="1.3"/>
<rect x="177.1" y="295.0" width="7.5" height="1.2" fill="#898781"/>
<rect x="190.7" y="295.0" width="7.5" height="14.4" fill="#008300"/>
<rect x="204.4" y="309.4" width="7.5" height="1.2" fill="#898781"/>
<rect x="218.1" y="309.4" width="7.5" height="17.9" fill="#008300"/>
<rect x="231.7" y="327.3" width="7.5" height="10.8" fill="#008300"/>
<rect x="245.4" y="287.8" width="7.5" height="50.2" fill="none" stroke="#e34948" stroke-width="1.3"/>
<rect x="259.1" y="287.8" width="7.5" height="50.2" fill="#008300"/>
<rect x="272.7" y="309.4" width="7.5" height="28.7" fill="none" stroke="#e34948" stroke-width="1.3"/>
<rect x="286.4" y="309.4" width="7.5" height="3.6" fill="#008300"/>
<rect x="300.1" y="312.9" width="7.5" height="17.9" fill="#008300"/>
<rect x="313.7" y="316.5" width="7.5" height="14.4" fill="none" stroke="#e34948" stroke-width="1.3"/>
<rect x="327.4" y="316.5" width="7.5" height="14.4" fill="#008300"/>
<rect x="341.1" y="316.5" width="7.5" height="14.4" fill="none" stroke="#e34948" stroke-width="1.3"/>
<rect x="354.7" y="316.5" width="7.5" height="14.4" fill="#008300"/>
<rect x="368.4" y="305.8" width="7.5" height="25.1" fill="none" stroke="#e34948" stroke-width="1.3"/>
<rect x="382.1" y="305.8" width="7.5" height="17.9" fill="#008300"/>
<rect x="395.7" y="312.9" width="7.5" height="10.8" fill="none" stroke="#e34948" stroke-width="1.3"/>
<rect x="409.4" y="305.8" width="7.5" height="7.2" fill="none" stroke="#e34948" stroke-width="1.3"/>
<rect x="423.1" y="305.8" width="7.5" height="21.5" fill="#008300"/>
<rect x="436.7" y="316.5" width="7.5" height="10.8" fill="none" stroke="#e34948" stroke-width="1.3"/>
<rect x="450.4" y="316.5" width="7.5" height="1.2" fill="#898781"/>
<rect x="464.1" y="312.9" width="7.5" height="3.6" fill="none" stroke="#e34948" stroke-width="1.3"/>
<rect x="477.7" y="312.9" width="7.5" height="14.4" fill="#008300"/>
<rect x="491.4" y="327.3" width="7.5" height="14.4" fill="#008300"/>
<rect x="505.1" y="298.6" width="7.5" height="43.1" fill="none" stroke="#e34948" stroke-width="1.3"/>
<rect x="518.7" y="298.6" width="7.5" height="3.6" fill="#008300"/>
<rect x="532.4" y="302.2" width="7.5" height="32.3" fill="#008300"/>
<rect x="546.1" y="302.2" width="7.5" height="32.3" fill="none" stroke="#e34948" stroke-width="1.3"/>
<rect x="559.7" y="302.2" width="7.5" height="10.8" fill="#008300"/>
<rect x="573.4" y="312.9" width="7.5" height="10.8" fill="#008300"/>
<rect x="587.1" y="309.4" width="7.5" height="14.4" fill="none" stroke="#e34948" stroke-width="1.3"/>
<rect x="600.7" y="309.4" width="7.5" height="21.5" fill="#008300"/>
<rect x="614.4" y="320.1" width="7.5" height="10.8" fill="none" stroke="#e34948" stroke-width="1.3"/>
<rect x="628.1" y="305.8" width="7.5" height="14.4" fill="none" stroke="#e34948" stroke-width="1.3"/>
<rect x="641.7" y="305.8" width="7.5" height="32.3" fill="#008300"/>
<rect x="655.4" y="323.7" width="7.5" height="14.4" fill="none" stroke="#e34948" stroke-width="1.3"/>
<rect x="669.1" y="323.7" width="7.5" height="1.2" fill="#898781"/>
<rect x="682.7" y="312.9" width="7.5" height="10.8" fill="none" stroke="#e34948" stroke-width="1.3"/>
<rect x="696.4" y="309.4" width="7.5" height="3.6" fill="none" stroke="#e34948" stroke-width="1.3"/>
<rect x="710.1" y="298.6" width="7.5" height="10.8" fill="none" stroke="#e34948" stroke-width="1.3"/>
<rect x="723.7" y="298.6" width="7.5" height="25.1" fill="#008300"/>
<rect x="737.4" y="291.4" width="7.5" height="32.3" fill="none" stroke="#e34948" stroke-width="1.3"/>
<rect x="751.1" y="291.4" width="7.5" height="50.2" fill="#008300"/>
<rect x="764.7" y="352.4" width="7.5" height="3.6" fill="none" stroke="#e34948" stroke-width="1.3"/>
<rect x="778.4" y="345.2" width="7.5" height="7.2" fill="none" stroke="#e34948" stroke-width="1.3"/>
<rect x="792.1" y="323.7" width="7.5" height="21.5" fill="none" stroke="#e34948" stroke-width="1.3"/>
<rect x="805.7" y="341.6" width="7.5" height="14.4" fill="none" stroke="#e34948" stroke-width="1.3"/>
<rect x="819.4" y="341.6" width="7.5" height="7.2" fill="#008300"/>
<circle cx="249.2" cy="287.8" r="2" fill="#52514e"/>
<line x1="249.2" y1="287.8" x2="257.2" y2="287.8" stroke="#52514e" stroke-width="1.0"/>
<text x="260.2" y="291.8" font-size="11.0" fill="#52514e">19</text>
<circle cx="768.5" cy="356.0" r="2" fill="#52514e"/>
<line x1="768.5" y1="356.0" x2="760.5" y2="356.0" stroke="#52514e" stroke-width="1.0"/>
<text x="757.5" y="350.0" font-size="11.0" fill="#52514e" text-anchor="end">0</text>
<text x="14.0" y="376.0" font-size="11.0" fill="#52514e">VOL 0 forks</text>
<text x="90.6" y="376.0" font-size="11.0" fill="#eda100">MA5:0</text>
<text x="130.8" y="376.0" font-size="11.0" fill="#2a78d6">MA10:0.2</text>
<text x="14.0" y="395.0" font-size="10" fill="#898781">2</text>
<rect x="26.7" y="429.0" width="7.5" height="41.0" fill="#008300"/>
<rect x="95.1" y="429.0" width="7.5" height="41.0" fill="#008300"/>
<rect x="149.7" y="429.0" width="7.5" height="41.0" fill="none" stroke="#e34948" stroke-width="1.1"/>
<rect x="163.4" y="429.0" width="7.5" height="41.0" fill="none" stroke="#e34948" stroke-width="1.1"/>
<rect x="177.1" y="388.0" width="7.5" height="82.0" fill="#898781"/>
<rect x="190.7" y="429.0" width="7.5" height="41.0" fill="#008300"/>
<rect x="204.4" y="429.0" width="7.5" height="41.0" fill="#898781"/>
<rect x="300.1" y="429.0" width="7.5" height="41.0" fill="#008300"/>
<rect x="341.1" y="429.0" width="7.5" height="41.0" fill="none" stroke="#e34948" stroke-width="1.1"/>
<rect x="368.4" y="429.0" width="7.5" height="41.0" fill="none" stroke="#e34948" stroke-width="1.1"/>
<rect x="409.4" y="429.0" width="7.5" height="41.0" fill="none" stroke="#e34948" stroke-width="1.1"/>
<rect x="423.1" y="429.0" width="7.5" height="41.0" fill="#008300"/>
<rect x="491.4" y="429.0" width="7.5" height="41.0" fill="#008300"/>
<rect x="505.1" y="429.0" width="7.5" height="41.0" fill="none" stroke="#e34948" stroke-width="1.1"/>
<rect x="532.4" y="429.0" width="7.5" height="41.0" fill="#008300"/>
<rect x="628.1" y="388.0" width="7.5" height="82.0" fill="none" stroke="#e34948" stroke-width="1.1"/>
<rect x="723.7" y="429.0" width="7.5" height="41.0" fill="#008300"/>
<rect x="737.4" y="429.0" width="7.5" height="41.0" fill="none" stroke="#e34948" stroke-width="1.1"/>
<polyline points="16.8,453.6 30.5,449.5 44.2,453.6 57.8,453.6 71.5,457.7 85.2,457.7 98.8,453.6 112.5,453.6 126.2,457.7 139.8,461.8 153.5,457.7 167.2,457.7 180.8,449.5 194.5,445.4 208.2,441.3 221.8,441.3 235.5,445.4 249.2,445.4 262.8,445.4 276.5,445.4 290.2,449.5 303.8,449.5 317.5,457.7 331.2,461.8 344.8,461.8 358.5,461.8 372.2,457.7 385.8,457.7 399.5,457.7 413.2,453.6 426.8,449.5 440.5,453.6 454.2,453.6 467.8,453.6 481.5,457.7 495.2,453.6 508.8,453.6 522.5,453.6 536.2,449.5 549.8,453.6 563.5,457.7 577.2,457.7 590.8,457.7 604.5,457.7 618.2,457.7 631.8,453.6 645.5,457.7 659.2,457.7 672.8,461.8 686.5,461.8 700.2,461.8 713.8,461.8 727.5,457.7 741.2,453.6 754.8,453.6 768.5,461.8 782.2,461.8 795.8,461.8 809.5,461.8 823.2,461.8" fill="none" stroke="#2a78d6" stroke-width="1.5" stroke-linejoin="round" stroke-linecap="round"/>
<polyline points="16.8,453.6 30.5,445.4 44.2,445.4 57.8,453.6 71.5,461.8 85.2,461.8 98.8,461.8 112.5,461.8 126.2,461.8 139.8,461.8 153.5,453.6 167.2,453.6 180.8,437.2 194.5,429.0 208.2,420.8 221.8,429.0 235.5,437.2 249.2,453.6 262.8,461.8 276.5,470.0 290.2,470.0 303.8,461.8 317.5,461.8 331.2,461.8 344.8,453.6 358.5,453.6 372.2,453.6 385.8,453.6 399.5,453.6 413.2,453.6 426.8,445.4 440.5,453.6 454.2,453.6 467.8,453.6 481.5,461.8 495.2,461.8 508.8,453.6 522.5,453.6 536.2,445.4 549.8,445.4 563.5,453.6 577.2,461.8 590.8,461.8 604.5,470.0 618.2,470.0 631.8,453.6 645.5,453.6 659.2,453.6 672.8,453.6 686.5,453.6 700.2,470.0 713.8,470.0 727.5,461.8 741.2,453.6 754.8,453.6 768.5,453.6 782.2,453.6 795.8,461.8 809.5,470.0 823.2,470.0" fill="none" stroke="#eda100" stroke-width="1.5" stroke-linejoin="round" stroke-linecap="round"/>
</svg>