<svg xmlns="http://www.w3.org/2000/svg" viewBox="0 0 840 496" width="840" height="496" font-family="-apple-system,&#39;Segoe UI&#39;,system-ui,sans-serif" role="img" aria-label="996icu/996.ICU candlestick chart">
<text x="14.0" y="20.0" font-size="15" fill="#0b0b0b" font-weight="650">996icu/996.ICU</text>
<text x="133.5" y="20.0" font-size="11.5" fill="#52514e">daily · new stars, volume = new forks</text>
<text x="805.8" y="20.0" font-size="11.0" fill="#52514e">fall</text>
<rect x="791" y="10" width="9" height="12" fill="#008300"/>
<text x="750.6" y="20.0" font-size="11.0" fill="#52514e">rise</text>
<rect x="736" y="10" width="9" height="12" fill="none" stroke="#e34948" stroke-width="1.5"/>
<text x="14.0" y="38.0" font-size="11.0" fill="#898781">last 60 days · +651 stars · +20 forks · updated 2026-07-16</text>
<rect x="10" y="66" width="820" height="290" fill="none" stroke="#e1e0d9"/>
<rect x="10" y="384" width="820" height="86" fill="none" stroke="#e1e0d9"/>
<text x="38.0" y="490.0" font-size="11.0" fill="#898781" text-anchor="middle">2026-05</text>
<line x1="242.3" y1="66.0" x2="242.3" y2="356.0" stroke="#e1e0d9" stroke-width="1.0"/>
<line x1="242.3" y1="384.0" x2="242.3" y2="470.0" stroke="#e1e0d9" stroke-width="1.0"/>
<text x="249.2" y="490.0" font-size="11.0" fill="#898781" text-anchor="middle">2026-06</text>
<line x1="652.3" y1="66.0" x2="652.3" y2="356.0" stroke="#e1e0d9" stroke-width="1.0"/>
<line x1="652.3" y1="384.0" x2="652.3" y2="470.0" stroke="#e1e0d9" stroke-width="1.0"/>
<text x="659.2" y="490.0" font-size="11.0" fill="#898781" text-anchor="middle">2026-07</text>
<text x="14.0" y="58.0" font-size="11.0" fill="#52514e">BOLL(20,2)</text>
<text x="84.5" y="58.0" font-size="11.0" fill="#eda100">UP:18.0</text>
<text x="136.9" y="58.0" font-size="11.0" fill="#2a78d6">MID:8.5</text>
<text x="189.2" y="58.0" font-size="11.0" fill="#e87ba4">LOW:0</text>
<text x="229.5" y="58.0" font-size="11.0" fill="#4a3aa7">MA7:3.7</text>
<line x1="10.0" y1="356.0" x2="830.0" y2="356.0" stroke="#e1e0d9" stroke-width="1.0"/>
<text x="14.0" y="353.0" font-size="11.0" fill="#898781">0</text>
<line x1="10.0" y1="176.4" x2="830.0" y2="176.4" stroke="#e1e0d9" stroke-width="1.0"/>
<text x="14.0" y="173.4" font-size="11.0" fill="#898781">50</text>
<polyline points="16.8,79.8 30.5,80.1 44.2,80.0 57.8,258.8 71.5,287.0 85.2,286.5 98.8,286.8 112.5,286.7 126.2,286.6 139.8,285.9 153.5,286.2 167.2,285.7 180.8,287.4 194.5,288.3 208.2,286.1 221.8,282.2 235.5,281.0 249.2,278.8 262.8,278.7 276.5,280.0 290.2,279.2 303.8,279.4 317.5,278.8 331.2,281.1 344.8,282.6 358.5,283.0 372.2,283.8 385.8,285.9 399.5,285.9 413.2,287.9 426.8,290.7 440.5,293.7 454.2,294.1 467.8,295.1 481.5,294.2 495.2,291.9 508.8,295.4 522.5,295.8 536.2,294.6 549.8,294.6 563.5,294.8 577.2,294.2 590.8,294.2 604.5,294.3 618.2,293.3 631.8,293.7 645.5,293.7 659.2,294.2 672.8,295.1 686.5,294.2 700.2,291.8 713.8,292.1 727.5,288.6 741.2,287.5 754.8,286.0 768.5,287.5 782.2,289.6 795.8,289.2 809.5,290.7 823.2,291.5" fill="none" stroke="#eda100" stroke-width="1.5" stroke-linejoin="round" stroke-linecap="round"/>
<polyline points="16.8,281.3 30.5,281.8 44.2,281.6 57.8,303.5 71.5,307.5 85.2,307.0 98.8,307.1 112.5,305.5 126.2,305.3 139.8,304.8 153.5,303.4 167.2,303.2 180.8,302.5 194.5,303.2 208.2,303.9 221.8,305.2 235.5,304.8 249.2,306.6 262.8,306.4 276.5,307.3 290.2,308.4 303.8,308.8 317.5,309.7 331.2,310.9 344.8,312.7 358.5,312.9 372.2,313.8 385.8,314.7 399.5,314.7 413.2,316.1 426.8,317.2 440.5,318.3 454.2,318.5 467.8,319.4 481.5,320.1 495.2,318.1 508.8,318.8 522.5,318.6 536.2,318.3 549.8,318.3 563.5,317.9 577.2,317.6 590.8,317.6 604.5,317.7 618.2,316.5 631.8,318.1 645.5,318.1 659.2,318.6 672.8,319.0 686.5,318.1 700.2,317.2 713.8,317.6 727.5,316.5 741.2,317.2 754.8,317.7 768.5,320.1 782.2,321.2 795.8,321.5 809.5,323.8 823.2,325.5" fill="none" stroke="#2a78d6" stroke-width="1.5" stroke-linejoin="round" stroke-linecap="round"/>
<polyline points="16.8,356.0 30.5,356.0 44.2,356.0 57.8,348.3 71.5,328.0 85.2,327.4 98.8,327.5 112.5,324.3 126.2,324.1 139.8,323.7 153.5,320.6 167.2,320.6 180.8,317.5 194.5,318.1 208.2,321.7 221.8,328.2 235.5,328.6 249.2,334.4 262.8,334.1 276.5,334.6 290.2,337.6 303.8,338.1 317.5,340.6 331.2,340.8 344.8,342.8 358.5,342.8 372.2,343.8 385.8,343.5 399.5,343.5 413.2,344.4 426.8,343.7 440.5,342.8 454.2,342.8 467.8,343.6 481.5,346.0 495.2,344.3 508.8,342.2 522.5,341.5 536.2,342.0 549.8,342.0 563.5,341.0 577.2,340.9 590.8,340.9 604.5,341.2 618.2,339.7 631.8,342.5 645.5,342.5 659.2,343.0 672.8,342.9 686.5,342.0 700.2,342.6 713.8,343.1 727.5,344.4 741.2,346.9 754.8,349.5 768.5,352.7 782.2,352.7 795.8,353.8 809.5,356.0 823.2,356.0" fill="none" stroke="#e87ba4" stroke-width="1.5" stroke-linejoin="round" stroke-linecap="round"/>
<polyline points="16.8,305.7 30.5,305.3 44.2,305.3 57.8,304.6 71.5,303.5 85.2,302.1 98.8,303.5 112.5,301.8 126.2,301.0 139.8,298.9 153.5,299.6 167.2,299.6 180.8,300.7 194.5,301.0 208.2,305.7 221.8,310.4 235.5,308.9 249.2,315.0 262.8,316.8 276.5,317.6 290.2,320.4 303.8,319.0 317.5,317.9 331.2,322.2 344.8,321.2 358.5,320.4 372.2,322.2 385.8,319.7 399.5,317.9 413.2,317.6 426.8,317.6 440.5,315.4 454.2,316.5 467.8,316.8 481.5,321.2 495.2,320.1 508.8,316.5 522.5,319.0 536.2,316.8 549.8,316.8 563.5,316.5 577.2,311.8 590.8,316.5 604.5,319.0 618.2,315.0 631.8,320.1 645.5,321.5 659.2,321.5 672.8,322.2 686.5,319.0 700.2,316.1 713.8,318.6 727.5,311.8 741.2,314.3 754.8,318.6 768.5,323.3 782.2,325.1 795.8,331.2 809.5,334.8 823.2,342.7" fill="none" stroke="#4a3aa7" stroke-width="1.5" stroke-linejoin="round" stroke-linecap="round"/>
<rect x="13.1" y="294.9" width="7.5" height="14.4" fill="#008300"/>
<rect x="26.7" y="309.3" width="7.5" height="1.2" fill="#898781"/>
<rect x="40.4" y="309.3" width="7.5" height="3.6" fill="#008300"/>
<rect x="54.1" y="291.3" width="7.5" height="21.6" fill="none" stroke="#e34948" stroke-width="1.3"/>
<rect x="67.7" y="291.3" width="7.5" height="3.6" fill="#008300"/>
<rect x="81.4" y="294.9" width="7.5" height="7.2" fill="#008300"/>
<rect x="95.1" y="302.1" width="7.5" height="3.6" fill="#008300"/>
<rect x="108.7" y="294.9" width="7.5" height="10.8" fill="none" stroke="#e34948" stroke-width="1.3"/>
<rect x="122.4" y="294.9" width="7.5" height="10.8" fill="#008300"/>
<rect x="136.1" y="298.5" width="7.5" height="7.2" fill="none" stroke="#e34948" stroke-width="1.3"/>
<rect x="149.7" y="294.9" width="7.5" height="3.6" fill="none" stroke="#e34948" stroke-width="1.3"/>
<rect x="163.4" y="294.9" width="7.5" height="1.2" fill="#898781"/>
<rect x="177.1" y="294.9" width="7.5" height="14.4" fill="#008300"/>
<rect x="190.7" y="309.3" width="7.5" height="1.2" fill="#898781"/>
<rect x="204.4" y="309.3" width="7.5" height="18.0" fill="#008300"/>
<rect x="218.1" y="327.3" width="7.5" height="10.8" fill="#008300"/>
<rect x="231.7" y="287.7" width="7.5" height="50.3" fill="none" stroke="#e34948" stroke-width="1.3"/>
<rect x="245.4" y="287.7" width="7.5" height="50.3" fill="#008300"/>
<rect x="259.1" y="309.3" width="7.5" height="28.7" fill="none" stroke="#e34948" stroke-width="1.3"/>
<rect x="272.7" y="309.3" width="7.5" height="3.6" fill="#008300"/>
<rect x="286.4" y="312.9" width="7.5" height="18.0" fill="#008300"/>
<rect x="300.1" y="316.5" width="7.5" height="14.4" fill="none" stroke="#e34948" stroke-width="1.3"/>
<rect x="313.7" y="316.5" width="7.5" height="14.4" fill="#008300"/>
<rect x="327.4" y="316.5" width="7.5" height="14.4" fill="none" stroke="#e34948" stroke-width="1.3"/>
<rect x="341.1" y="316.5" width="7.5" height="14.4" fill="#008300"/>
<rect x="354.7" y="305.7" width="7.5" height="25.1" fill="none" stroke="#e34948" stroke-width="1.3"/>
<rect x="368.4" y="305.7" width="7.5" height="18.0" fill="#008300"/>
<rect x="382.1" y="312.9" width="7.5" height="10.8" fill="none" stroke="#e34948" stroke-width="1.3"/>
<rect x="395.7" y="305.7" width="7.5" height="7.2" fill="none" stroke="#e34948" stroke-width="1.3"/>
<rect x="409.4" y="305.7" width="7.5" height="21.6" fill="#008300"/>
<rect x="423.1" y="316.5" width="7.5" height="10.8" fill="none" stroke="#e34948" stroke-width="1.3"/>
<rect x="436.7" y="316.5" width="7.5" height="1.2" fill="#898781"/>
<rect x="450.4" y="312.9" width="7.5" height="3.6" fill="none" stroke="#e34948" stroke-width="1.3"/>
<rect x="464.1" y="312.9" width="7.5" height="14.4" fill="#008300"/>
<rect x="477.7" y="327.3" width="7.5" height="14.4" fill="#008300"/>
<rect x="491.4" y="298.5" width="7.5" height="43.1" fill="none" stroke="#e34948" stroke-width="1.3"/>
<rect x="505.1" y="298.5" width="7.5" height="3.6" fill="#008300"/>
<rect x="518.7" y="302.1" width="7.5" height="32.3" fill="#008300"/>
<rect x="532.4" y="302.1" width="7.5" height="32.3" fill="none" stroke="#e34948" stroke-width="1.3"/>
<rect x="546.1" y="302.1" width="7.5" height="10.8" fill="#008300"/>
<rect x="559.7" y="312.9" width="7.5" height="10.8" fill="#008300"/>
<rect x="573.4" y="309.3" width="7.5" height="14.4" fill="none" stroke="#e34948" stroke-width="1.3"/>
<rect x="587.1" y="309.3" width="7.5" height="21.6" fill="#008300"/>
<rect x="600.7" y="320.1" width="7.5" height="10.8" fill="none" stroke="#e34948" stroke-width="1.3"/>
<rect x="614.4" y="305.7" width="7.5" height="14.4" fill="none" stroke="#e34948" stroke-width="1.3"/>
<rect x="628.1" y="305.7" width="7.5" height="32.3" fill="#008300"/>
<rect x="641.7" y="323.7" width="7.5" height="14.4" fill="none" stroke="#e34948" stroke-width="1.3"/>
<rect x="655.4" y="323.7" width="7.5" height="1.2" fill="#898781"/>
<rect x="669.1" y="312.9" width="7.5" height="10.8" fill="none" stroke="#e34948" stroke-width="1.3"/>
<rect x="682.7" y="309.3" width="7.5" height="3.6" fill="none" stroke="#e34948" stroke-width="1.3"/>
<rect x="696.4" y="298.5" width="7.5" height="10.8" fill="none" stroke="#e34948" stroke-width="1.3"/>
<rect x="710.1" y="298.5" width="7.5" height="25.1" fill="#008300"/>
<rect x="723.7" y="291.3" width="7.5" height="32.3" fill="none" stroke="#e34948" stroke-width="1.3"/>
<rect x="737.4" y="291.3" width="7.5" height="50.3" fill="#008300"/>
<rect x="751.1" y="352.4" width="7.5" height="3.6" fill="none" stroke="#e34948" stroke-width="1.3"/>
<rect x="764.7" y="345.2" width="7.5" height="7.2" fill="none" stroke="#e34948" stroke-width="1.3"/>
<rect x="778.4" y="323.7" width="7.5" height="21.6" fill="none" stroke="#e34948" stroke-width="1.3"/>
<rect x="792.1" y="341.6" width="7.5" height="14.4" fill="none" stroke="#e34948" stroke-width="1.3"/>
<rect x="805.7" y="341.6" width="7.5" height="7.2" fill="#008300"/>
<rect x="819.4" y="345.2" width="7.5" height="3.6" fill="none" stroke="#e34948" stroke-width="1.3"/>
<circle cx="235.5" cy="287.7" r="2" fill="#52514e"/>
<line x1="235.5" y1="287.7" x2="243.5" y2="287.7" stroke="#52514e" stroke-width="1.0"/>
<text x="246.5" y="291.7" font-size="11.0" fill="#52514e">19</text>
<circle cx="754.8" cy="356.0" r="2" fill="#52514e"/>
<line x1="754.8" y1="356.0" x2="746.8" y2="356.0" stroke="#52514e" stroke-width="1.0"/>
<text x="743.8" y="350.0" font-size="11.0" fill="#52514e" text-anchor="end">0</text>
<text x="14.0" y="376.0" font-size="11.0" fill="#52514e">VOL 0 forks</text>
<text x="90.6" y="376.0" font-size="11.0" fill="#eda100">MA5:0</text>
<text x="130.8" y="376.0" font-size="11.0" fill="#2a78d6">MA10:0.2</text>
<text x="14.0" y="395.0" font-size="10" fill="#898781">2</text>
<rect x="13.1" y="429.0" width="7.5" height="41.0" fill="#008300"/>
<rect x="81.4" y="429.0" width="7.5" height="41.0" fill="#008300"/>
<rect x="136.1" y="429.0" width="7.5" height="41.0" fill="none" stroke="#e34948" stroke-width="1.1"/>
<rect x="149.7" y="429.0" width="7.5" height="41.0" fill="none" stroke="#e34948" stroke-width="1.1"/>
<rect x="163.4" y="388.0" width="7.5" height="82.0" fill="#898781"/>
<rect x="177.1" y="429.0" width="7.5" height="41.0" fill="#008300"/>
<rect x="190.7" y="429.0" width="7.5" height="41.0" fill="#898781"/>
<rect x="286.4" y="429.0" width="7.5" height="41.0" fill="#008300"/>
<rect x="327.4" y="429.0" width="7.5" height="41.0" fill="none" stroke="#e34948" stroke-width="1.1"/>
<rect x="354.7" y="429.0" width="7.5" height="41.0" fill="none" stroke="#e34948" stroke-width="1.1"/>
<rect x="395.7" y="429.0" width="7.5" height="41.0" fill="none" stroke="#e34948" stroke-width="1.1"/>
<rect x="409.4" y="429.0" width="7.5" height="41.0" fill="#008300"/>
<rect x="477.7" y="429.0" width="7.5" height="41.0" fill="#008300"/>
<rect x="491.4" y="429.0" width="7.5" height="41.0" fill="none" stroke="#e34948" stroke-width="1.1"/>
<rect x="518.7" y="429.0" width="7.5" height="41.0" fill="#008300"/>
<rect x="614.4" y="388.0" width="7.5" height="82.0" fill="none" stroke="#e34948" stroke-width="1.1"/>
<rect x="710.1" y="429.0" width="7.5" height="41.0" fill="#008300"/>
<rect x="723.7" y="429.0" width="7.5" height="41.0" fill="none" stroke="#e34948" stroke-width="1.1"/>
<polyline points="16.8,449.5 30.5,453.6 44.2,453.6 57.8,457.7 71.5,457.7 85.2,453.6 98.8,453.6 112.5,457.7 126.2,461.8 139.8,457.7 153.5,457.7 167.2,449.5 180.8,445.4 194.5,441.3 208.2,441.3 221.8,445.4 235.5,445.4 249.2,445.4 262.8,445.4 276.5,449.5 290.2,449.5 303.8,457.7 317.5,461.8 331.2,461.8 344.8,461.8 358.5,457.7 372.2,457.7 385.8,457.7 399.5,453.6 413.2,449.5 426.8,453.6 440.5,453.6 454.2,453.6 467.8,457.7 481.5,453.6 495.2,453.6 508.8,453.6 522.5,449.5 536.2,453.6 549.8,457.7 563.5,457.7 577.2,457.7 590.8,457.7 604.5,457.7 618.2,453.6 631.8,457.7 645.5,457.7 659.2,461.8 672.8,461.8 686.5,461.8 700.2,461.8 713.8,457.7 727.5,453.6 741.2,453.6 754.8,461.8 768.5,461.8 782.2,461.8 795.8,461.8 809.5,461.8 823.2,461.8" fill="none" stroke="#2a78d6" stroke-width="1.5" stroke-linejoin="round" stroke-linecap="round"/>
<polyline points="16.8,445.4 30.5,445.4 44.2,453.6 57.8,461.8 71.5,461.8 85.2,461.8 98.8,461.8 112.5,461.8 126.2,461.8 139.8,453.6 153.5,453.6 167.2,437.2 180.8,429.0 194.5,420.8 208.2,429.0 221.8,437.2 235.5,453.6 249.2,461.8 262.8,470.0 276.5,470.0 290.2,461.8 303.8,461.8 317.5,461.8 331.2,453.6 344.8,453.6 358.5,453.6 372.2,453.6 385.8,453.6 399.5,453.6 413.2,445.4 426.8,453.6 440.5,453.6 454.2,453.6 467.8,461.8 481.5,461.8 495.2,453.6 508.8,453.6 522.5,445.4 536.2,445.4 549.8,453.6 563.5,461.8 577.2,461.8 590.8,470.0 604.5,470.0 618.2,453.6 631.8,453.6 645.5,453.6 659.2,453.6 672.8,453.6 686.5,470.0 700.2,470.0 713.8,461.8 727.5,453.6 741.2,453.6 754.8,453.6 768.5,453.6 782.2,461.8 795.8,470.0 809.5,470.0 823.2,470.0" fill="none" stroke="#eda100" stroke-width="1.5" stroke-linejoin="round" stroke-linecap="round"/>
</svg>